<svg width="40" height="40" viewBox="0 0 40 40" fill="none" xmlns="http://www.w3.org/2000/svg">
<g clip-path="url(#clip0_1_4557)">
<path d="M39.2129 11.449V11.449C40.2624 17.0781 40.2624 22.8026 39.2129 28.5271V28.5271C38.2588 33.9654 33.9654 38.2588 28.5271 39.2129V39.2129C22.898 40.2624 17.1735 40.2624 11.449 39.2129V39.2129C6.01073 38.2588 1.81276 34.0608 0.858676 28.6225V28.6225C-0.286225 22.9934 -0.286225 17.1735 0.858676 11.449V11.449C1.81276 6.01073 6.01073 1.81276 11.449 0.858676V0.858676C17.0781 -0.286225 22.898 -0.286225 28.6225 0.858676V0.858676C34.0608 1.81276 38.2588 6.01073 39.2129 11.449Z" fill="white"/>
<path fill-rule="evenodd" clip-rule="evenodd" d="M38.2293 28.3468C39.2571 22.7405 39.2565 17.1393 38.2298 11.6323L39.2129 11.449C40.2624 17.0781 40.2624 22.8026 39.2129 28.5271L38.2293 28.3468ZM28.5271 39.2129C33.9654 38.2588 38.2588 33.9654 39.2129 28.5271L38.2279 28.3543C37.3466 33.3779 33.3779 37.3466 28.3543 38.2279L28.5271 39.2129ZM11.449 39.2129C17.1735 40.2624 22.898 40.2624 28.5271 39.2129L28.3438 38.2298C22.8369 39.2565 17.2356 39.2571 11.6293 38.2293L11.449 39.2129ZM28.6225 0.858676L28.4497 1.84363C33.4733 2.72496 37.3466 6.59823 38.2279 11.6218L39.2129 11.449C38.2588 6.01073 34.0608 1.81276 28.6225 0.858676ZM11.449 0.858676C17.0781 -0.286225 22.898 -0.286225 28.6225 0.858676L28.4264 1.83926C22.8303 0.720026 17.1448 0.720683 11.6483 1.83861L11.449 0.858676ZM0.858676 11.449C1.81276 6.01073 6.01073 1.81276 11.449 0.858676L11.6218 1.84363C6.59823 2.72496 2.72496 6.59823 1.84363 11.6218L0.858676 11.449ZM0.858676 11.449L1.83926 11.6451C0.720026 17.2413 0.720683 22.9267 1.83861 28.4232L0.858676 28.6225C-0.286225 22.9934 -0.286225 17.1735 0.858676 11.449ZM0.858676 28.6225C1.81276 34.0608 6.01073 38.2588 11.449 39.2129L11.6218 38.2279C6.59823 37.3466 2.72496 33.4733 1.84363 28.4497L0.858676 28.6225Z" fill="#EEF4FE"/>
<path fill-rule="evenodd" clip-rule="evenodd" d="M12.5333 7.55566C9.78417 7.55566 7.55554 9.78429 7.55554 12.5334V27.4668C7.55554 30.2159 9.78417 32.4446 12.5333 32.4446H27.4667C30.2158 32.4446 32.4444 30.2159 32.4444 27.4668V12.5334C32.4444 9.78429 30.2158 7.55566 27.4667 7.55566H12.5333Z" fill="#F6F7F8"/>
<path d="M13.0062 7.55566H26.9938C30.0041 7.55566 32.4444 9.996 32.4444 13.0063V26.9939C32.4444 30.0042 30.0041 32.4446 26.9938 32.4446H13.0062C9.99588 32.4446 7.55554 30.0042 7.55554 26.9939V13.0063C7.55554 9.996 9.99588 7.55566 13.0062 7.55566Z" fill="url(#paint0_linear_1_4557)"/>
<path d="M15.5318 25.6205L15.5341 25.6213L14.6832 27.0952C14.3726 27.6332 13.6846 27.8175 13.1466 27.5069C12.6086 27.1963 12.4243 26.5083 12.7349 25.9703L13.3617 24.8846L13.4219 24.7804C13.5293 24.6259 13.7945 24.3594 14.3248 24.4095C14.3248 24.4095 15.5728 24.545 15.6631 25.1936C15.6632 25.1936 15.6755 25.4071 15.5318 25.6205ZM27.6013 21.856H24.9477C24.767 21.8439 24.6881 21.7794 24.6571 21.7419L24.6551 21.7384L21.8145 16.8184L21.8108 16.8209L21.6405 16.5766C21.3613 16.1496 20.9179 17.2416 20.9179 17.2416C20.3886 18.4584 20.993 19.8419 21.2038 20.26L25.1492 27.0937C25.4598 27.6317 26.1478 27.816 26.6858 27.5054C27.2238 27.1948 27.4081 26.5068 27.0975 25.9688L26.1109 24.26C26.0918 24.2186 26.0586 24.1062 26.2609 24.1057H27.6013C28.2225 24.1057 28.7262 23.6021 28.7262 22.9809C28.7262 22.3596 28.2225 21.856 27.6013 21.856ZM22.4472 23.3852C22.4472 23.3852 22.5888 24.1057 22.0407 24.1057H21.4927L12.2311 24.1057C11.6099 24.1057 11.1063 23.6021 11.1063 22.9809C11.1063 22.3596 11.6099 21.856 12.2311 21.856H14.7531C15.1602 21.8324 15.2568 21.5974 15.2568 21.5974L15.259 21.5985L18.551 15.8966L18.55 15.8964C18.61 15.7863 18.56 15.6822 18.5513 15.6657L17.4642 13.7827C17.1535 13.2447 17.3379 12.5567 17.8759 12.2461C18.4139 11.9355 19.1018 12.1198 19.4125 12.6578L19.9167 13.5312L20.42 12.6594C20.7306 12.1214 21.4186 11.937 21.9566 12.2477C22.4946 12.5583 22.6789 13.2463 22.3683 13.7842L17.7874 21.7185C17.7674 21.7668 17.7612 21.8427 17.9103 21.856H20.6484L20.649 21.8827C20.649 21.8827 22.2316 21.9073 22.4472 23.3852Z" fill="white"/>
</g>
<defs>
<linearGradient id="paint0_linear_1_4557" x1="20" y1="7.55566" x2="20" y2="32.4446" gradientUnits="userSpaceOnUse">
<stop offset="0.055" stop-color="#00C9FF"/>
<stop offset="1" stop-color="#0074FB"/>
</linearGradient>
<clipPath id="clip0_1_4557">
<rect width="40" height="40" fill="white"/>
</clipPath>
</defs>
</svg>
