<svg width="40" height="40" viewBox="0 0 40 40" fill="none" xmlns="http://www.w3.org/2000/svg">
<g clip-path="url(#clip0_1_4635)">
<path d="M39.2129 11.449V11.449C40.2624 17.0781 40.2624 22.8026 39.2129 28.5271V28.5271C38.2588 33.9654 33.9654 38.2588 28.5271 39.2129V39.2129C22.898 40.2624 17.1735 40.2624 11.449 39.2129V39.2129C6.01073 38.2588 1.81276 34.0608 0.858676 28.6225V28.6225C-0.286225 22.9934 -0.286225 17.1735 0.858676 11.449V11.449C1.81276 6.01073 6.01073 1.81276 11.449 0.858676V0.858676C17.0781 -0.286225 22.898 -0.286225 28.6225 0.858676V0.858676C34.0608 1.81276 38.2588 6.01073 39.2129 11.449Z" fill="white"/>
<path fill-rule="evenodd" clip-rule="evenodd" d="M38.2293 28.3468C39.2571 22.7405 39.2565 17.1393 38.2298 11.6323L39.2129 11.449C40.2624 17.0781 40.2624 22.8026 39.2129 28.5271L38.2293 28.3468ZM28.5271 39.2129C33.9654 38.2588 38.2588 33.9654 39.2129 28.5271L38.2279 28.3543C37.3466 33.3779 33.3779 37.3466 28.3543 38.2279L28.5271 39.2129ZM11.449 39.2129C17.1735 40.2624 22.898 40.2624 28.5271 39.2129L28.3438 38.2298C22.8369 39.2565 17.2356 39.2571 11.6293 38.2293L11.449 39.2129ZM28.6225 0.858676L28.4497 1.84363C33.4733 2.72496 37.3466 6.59823 38.2279 11.6218L39.2129 11.449C38.2588 6.01073 34.0608 1.81276 28.6225 0.858676ZM11.449 0.858676C17.0781 -0.286225 22.898 -0.286225 28.6225 0.858676L28.4264 1.83926C22.8303 0.720026 17.1448 0.720683 11.6483 1.83861L11.449 0.858676ZM0.858676 11.449C1.81276 6.01073 6.01073 1.81276 11.449 0.858676L11.6218 1.84363C6.59823 2.72496 2.72496 6.59823 1.84363 11.6218L0.858676 11.449ZM0.858676 11.449L1.83926 11.6451C0.720026 17.2413 0.720683 22.9267 1.83861 28.4232L0.858676 28.6225C-0.286225 22.9934 -0.286225 17.1735 0.858676 11.449ZM0.858676 28.6225C1.81276 34.0608 6.01073 38.2588 11.449 39.2129L11.6218 38.2279C6.59823 37.3466 2.72496 33.4733 1.84363 28.4497L0.858676 28.6225Z" fill="#EEF4FE"/>
<path fill-rule="evenodd" clip-rule="evenodd" d="M12.5333 7.55566C9.78418 7.55566 7.55556 9.78429 7.55556 12.5334V27.4668C7.55556 30.2159 9.78418 32.4446 12.5333 32.4446H27.4667C30.2158 32.4446 32.4444 30.2159 32.4444 27.4668V12.5334C32.4444 9.78429 30.2158 7.55566 27.4667 7.55566H12.5333Z" fill="#F46721"/>
<path d="M11.5311 17.8931C11.9654 17.937 12.3463 18.3139 12.3991 18.7455C12.3612 19.4768 12.4505 20.2603 12.3998 20.9848C12.3741 21.3495 12.0649 21.6878 11.7171 21.7791L11.9661 21.9198C12.1677 22.0714 12.3396 22.2784 12.3944 22.5301C12.3592 23.3433 12.4559 24.2187 12.3991 25.0251C12.3619 25.5555 11.8626 25.8032 11.385 25.8282C10.5921 25.8701 9.76263 25.795 8.96567 25.8282L8.90952 25.8032V17.8931H11.5304H11.5311ZM10.7193 19.4024C10.6333 19.3902 10.5244 19.4112 10.4351 19.4024V21.1547H10.7842C10.8417 21.1547 10.8843 21.0701 10.8904 21.0173C10.9412 20.564 10.8512 20.0194 10.8904 19.556C10.8884 19.4714 10.7957 19.4132 10.7199 19.4024H10.7193ZM10.4358 24.3026H10.7849C10.841 24.3026 10.8843 24.2349 10.8904 24.1815C10.9452 23.7052 10.8478 23.1261 10.8904 22.639C10.9006 22.5679 10.8207 22.4692 10.7517 22.4692H10.4351V24.3026H10.4358Z" fill="white"/>
<path d="M14.3301 17.8931V24.1321C14.3301 24.1903 14.4268 24.2864 14.4844 24.2864H14.7847V17.8931H16.3103V25.8032L16.2542 25.8282C15.4728 25.7957 14.6609 25.8688 13.8836 25.8282C13.5446 25.8106 13.2801 25.7159 13.0569 25.4547C12.9642 25.3465 12.8221 25.0853 12.8221 24.9433V17.8931H14.3315H14.3301Z" fill="white"/>
<path d="M21.3558 17.8931V24.3026H27.7653L27.3357 25.8275H19.8309V17.8931H21.3558Z" fill="white"/>
<path d="M24.6986 19.6779C24.6966 19.8308 25.0409 20.1238 24.9922 20.2543C24.9476 20.3741 24.7446 20.3524 24.7324 20.4011C24.7324 20.4553 24.8008 20.5263 24.7933 20.5743C24.7872 20.6122 24.7439 20.6332 24.7345 20.663C24.7257 20.6914 24.748 20.7313 24.7216 20.7793C24.7088 20.8023 24.6743 20.8165 24.6682 20.8409C24.6601 20.8713 24.6878 20.9762 24.6776 21.0438C24.6174 21.4667 24.1209 21.2833 23.8367 21.4071C23.6872 21.6155 24.0282 22.2447 24.1439 22.4463C24.3258 22.7636 24.8481 23.5173 25.227 23.57C25.6336 23.6262 26.2364 23.2737 26.5963 23.1012L26.394 23.8481L21.9877 23.8562C21.6623 23.3299 21.5162 22.7284 21.803 22.1459C21.8822 21.9849 22.2523 21.3936 22.3679 21.2833C22.397 21.2556 22.4342 21.238 22.4742 21.2353L22.4769 21.395L23.7562 21.9978L23.5681 21.6263L22.5574 21.3145C22.5263 21.2143 22.6 21.1616 22.6284 21.0885C22.6764 20.964 22.6501 20.7638 22.6088 20.6379C22.5479 20.4532 22.3774 20.4938 22.2868 20.3267C22.2455 20.2503 22.2218 19.937 22.1981 19.9201C22.1893 19.9133 22.1501 19.9458 22.1176 19.9296C22.0385 19.889 21.9025 19.3349 21.8923 19.2287C21.8369 18.6523 22.2698 18.1293 22.8178 18.0001C23.1399 17.9243 23.7738 17.8993 24.0762 18.0353C24.3292 18.1496 24.4104 18.5407 24.5592 18.7531C24.8245 18.8248 25.112 18.8241 25.3799 18.8897C25.5071 18.9209 25.503 18.9324 25.4908 19.067C25.455 19.4607 25.0633 19.682 24.6979 19.6772L24.6986 19.6779Z" fill="white"/>
<path d="M19.6362 17.8931V19.4024H18.825V25.8275H17.3238L17.2994 25.8032V19.4024H16.5045V17.8931H19.6362Z" fill="white"/>
<path d="M23.6926 26.801C23.6541 27.9295 24.608 28.8969 25.7595 28.7298C26.6694 28.5972 27.3554 27.7116 27.2952 26.801H27.4082C27.5259 27.6873 26.9921 28.6169 26.1471 28.9227C24.8624 29.3881 23.5756 28.3862 23.5796 27.0608H13.966C13.9309 27.5006 13.8104 27.9234 13.5418 28.2766C12.7544 29.3103 11.2301 29.2866 10.4812 28.2245C10.1822 27.8009 10.0712 27.3186 10.1118 26.801H10.2255C10.1943 27.5344 10.6192 28.2772 11.2903 28.5837C12.5561 29.1615 13.8876 28.1379 13.8273 26.801H23.6933H23.6926Z" fill="white"/>
<path d="M30.6764 12.4029C31.558 13.67 30.8632 15.494 29.3437 15.812C27.358 16.2274 25.8879 14.0232 27.0543 12.3711C27.9412 11.1141 29.8024 11.1466 30.6764 12.4029ZM30.3849 12.6945C29.6163 11.4821 27.8079 11.589 27.2112 12.9008C26.6876 14.0516 27.5015 15.4033 28.7632 15.4602C30.2232 15.5258 31.1696 13.9319 30.3849 12.6945Z" fill="white"/>
<path d="M28.3337 19.8084L28.3093 19.8409L26.7276 19.5073C25.8954 18.5568 25.0051 17.6042 24.0085 16.8228C23.1365 16.1395 22.508 15.8534 21.4215 15.6132C19.8546 15.2668 18.2106 15.1511 16.6099 15.0537L16.342 15.0219C16.6424 15.0165 16.9421 15.0036 17.2432 15.005C18.8276 15.0131 20.8566 15.0835 22.3781 15.5171C24.2487 16.0502 25.7669 17.8918 26.9867 19.3139L28.333 19.8091L28.3337 19.8084Z" fill="white"/>
<path d="M27.5712 23.8641L27.6848 23.4101L27.4907 23.402L27.7044 22.626L27.927 22.5083C27.9839 22.3892 28.0454 21.9278 28.1462 21.8676C28.2173 21.825 28.3945 21.8446 28.4128 21.9454C28.425 22.0151 28.2856 22.3723 28.3018 22.3879C28.4101 22.3547 28.5312 22.3696 28.5278 22.5069C28.5251 22.6321 28.3891 23.1767 28.3181 23.2721C28.2159 23.4081 28.0759 23.3344 28.0299 23.3817L27.8966 23.8648H27.5718L27.5712 23.8641Z" fill="white"/>
<path d="M26.6295 23.8641L26.8717 22.9825L27.5307 22.6794L27.2303 23.8641H26.6295Z" fill="white"/>
<path d="M29.2018 12.5388C29.4744 12.5591 29.7092 12.6721 29.8012 12.9454C29.9439 13.3689 29.7139 13.7606 29.2748 13.829C29.5137 13.9805 29.6618 14.2329 29.8079 14.4676C29.883 14.5881 29.9622 14.7159 30.0211 14.8431H29.4372C29.287 14.6205 29.147 14.3634 28.988 14.1497C28.9339 14.0766 28.8419 13.9595 28.76 13.9223C28.6565 13.8757 28.5421 13.8851 28.4319 13.8858V14.8431H27.9448V12.5388H29.2024H29.2018ZM28.4312 13.4961L29.105 13.4806C29.3459 13.4515 29.4271 13.1382 29.2254 13.0022C29.2146 12.9948 29.1578 12.9603 29.1537 12.9603H28.4319V13.4954L28.4312 13.4961Z" fill="white"/>
</g>
<defs>
<clipPath id="clip0_1_4635">
<rect width="40" height="40" fill="white"/>
</clipPath>
</defs>
</svg>
