<svg width="40" height="40" viewBox="0 0 40 40" fill="none" xmlns="http://www.w3.org/2000/svg">
<g clip-path="url(#clip0_1_4603)">
<path d="M39.2129 11.449V11.449C40.2624 17.0781 40.2624 22.8026 39.2129 28.5271V28.5271C38.2588 33.9654 33.9654 38.2588 28.5271 39.2129V39.2129C22.898 40.2624 17.1735 40.2624 11.449 39.2129V39.2129C6.01073 38.2588 1.81276 34.0608 0.858676 28.6225V28.6225C-0.286225 22.9934 -0.286225 17.1735 0.858676 11.449V11.449C1.81276 6.01073 6.01073 1.81276 11.449 0.858676V0.858676C17.0781 -0.286225 22.898 -0.286225 28.6225 0.858676V0.858676C34.0608 1.81276 38.2588 6.01073 39.2129 11.449Z" fill="white"/>
<path fill-rule="evenodd" clip-rule="evenodd" d="M38.2293 28.3468C39.2571 22.7405 39.2565 17.1393 38.2298 11.6323L39.2129 11.449C40.2624 17.0781 40.2624 22.8026 39.2129 28.5271L38.2293 28.3468ZM28.5271 39.2129C33.9654 38.2588 38.2588 33.9654 39.2129 28.5271L38.2279 28.3543C37.3466 33.3779 33.3779 37.3466 28.3543 38.2279L28.5271 39.2129ZM11.449 39.2129C17.1735 40.2624 22.898 40.2624 28.5271 39.2129L28.3438 38.2298C22.8369 39.2565 17.2356 39.2571 11.6293 38.2293L11.449 39.2129ZM28.6225 0.858676L28.4497 1.84363C33.4733 2.72496 37.3466 6.59823 38.2279 11.6218L39.2129 11.449C38.2588 6.01073 34.0608 1.81276 28.6225 0.858676ZM11.449 0.858676C17.0781 -0.286225 22.898 -0.286225 28.6225 0.858676L28.4264 1.83926C22.8303 0.720026 17.1448 0.720683 11.6483 1.83861L11.449 0.858676ZM0.858676 11.449C1.81276 6.01073 6.01073 1.81276 11.449 0.858676L11.6218 1.84363C6.59823 2.72496 2.72496 6.59823 1.84363 11.6218L0.858676 11.449ZM0.858676 11.449L1.83926 11.6451C0.720026 17.2413 0.720683 22.9267 1.83861 28.4232L0.858676 28.6225C-0.286225 22.9934 -0.286225 17.1735 0.858676 11.449ZM0.858676 28.6225C1.81276 34.0608 6.01073 38.2588 11.449 39.2129L11.6218 38.2279C6.59823 37.3466 2.72496 33.4733 1.84363 28.4497L0.858676 28.6225Z" fill="#EEF4FE"/>
<path fill-rule="evenodd" clip-rule="evenodd" d="M12.5333 7.55566C9.78417 7.55566 7.55554 9.78429 7.55554 12.5334V27.4668C7.55554 30.2159 9.78417 32.4446 12.5333 32.4446H27.4667C30.2158 32.4446 32.4444 30.2159 32.4444 27.4668V12.5334C32.4444 9.78429 30.2158 7.55566 27.4667 7.55566H12.5333Z" fill="#FF6900"/>
<path fill-rule="evenodd" clip-rule="evenodd" d="M12.7945 32.4442C14.647 31.3346 15.6256 30.3089 16.3251 29.3409C17.8262 30.0098 19.269 30.2976 20.5678 30.2976C23.0062 30.2976 25.0828 29.1737 26.164 27.1709C27.2801 26.502 28.019 25.1254 28.0656 24.1454C28.7617 23.2704 28.8901 22.1698 28.6762 21.4231C28.6256 21.2443 28.4817 21.2404 28.2328 21.392C26.0356 22.7104 23.9084 23.3365 21.8823 23.3365C20.6495 23.3365 19.3895 23.142 18.0478 22.7531C17.9785 21.7274 17.8084 20.8183 17.677 20.1159C17.6241 19.833 17.5774 19.5836 17.5462 19.3737C17.3906 18.4054 17.6123 17.6937 18.674 17.6937C19.4517 17.6937 20.8906 17.892 22.0417 18.4132C22.6297 18.68 23.0944 19.0805 23.4717 19.4056C23.8256 19.7106 24.1026 19.9493 24.3323 19.9493C24.5228 19.9493 24.7251 19.8287 24.7251 19.4243C24.7251 18.5998 24.4295 17.2737 24.064 16.7993C25.1295 16.737 25.9773 16.7487 26.4517 16.8031C27.2725 16.9448 27.4459 17.3102 27.5916 17.6172C27.6219 17.6811 27.651 17.7424 27.6845 17.7987C27.879 18.1215 28.2095 18.2654 28.6101 18.2654C29.349 18.2654 29.8078 17.8843 29.8078 16.5115C29.8078 13.4937 27.9023 12.0315 25.9034 12.0315C25.0719 12.0315 24.4989 12.1243 23.9336 12.2159C23.3833 12.3051 22.8402 12.3931 22.0728 12.3931C21.5066 12.3931 20.9893 11.8022 20.4504 11.1865C19.9383 10.6014 19.4066 9.99383 18.7945 9.84982C18.2384 8.61704 16.994 8.47704 16.2278 9.09538C15.5317 8.67149 14.4428 8.90093 14.4001 9.6826C13.599 9.43371 12.5645 9.86538 13.0117 10.9193C11.0556 10.9737 10.6901 12.7043 12.0162 12.8987C10.3051 13.867 11.0867 15.5393 12.5217 15.1815C12.5624 15.6583 12.6646 16.2534 12.7724 16.8804C12.9326 17.813 13.1051 18.8164 13.1051 19.607C13.1051 21.4465 12.269 21.8743 11.1295 21.8743C10.3177 21.8743 8.5551 21.5153 7.55554 21.2564V22.5295C8.56753 22.7594 10.3755 23.0876 11.2967 23.0876C13.0973 23.0876 14.0928 22.0337 14.0928 20.0231C14.0928 18.8536 13.9158 17.7346 13.757 16.7315C13.5806 15.6166 13.4268 14.6449 13.564 13.9059L13.5017 13.8243C12.6034 14.7615 12.0201 14.5126 11.954 14.2131C11.8256 13.6065 12.8795 12.8676 13.4784 12.6109C13.4901 12.572 13.5056 12.5293 13.5212 12.4865C12.9573 12.572 12.2962 12.502 12.2767 12.1015C12.2495 11.6232 13.2062 11.1993 14.4584 11.3043C14.4817 11.2848 14.5051 11.2654 14.5323 11.2459C14.4545 11.2148 14.369 11.1759 14.264 11.1215C13.9412 10.9543 13.8634 10.6782 13.9684 10.4759C14.0851 10.2543 14.439 10.1687 14.7267 10.1765C15.1778 10.1843 15.559 10.297 15.8428 10.4098C15.8584 10.404 15.874 10.3972 15.8895 10.3904C15.9051 10.3836 15.9206 10.3768 15.9362 10.3709C15.8312 10.2893 15.7417 10.1998 15.6873 10.1104C15.6095 9.97815 15.5901 9.79538 15.7417 9.67482C15.9167 9.53482 16.3601 9.48815 16.7645 9.85371C16.8462 9.9276 16.9162 10.0015 16.9823 10.0715C17.0056 10.0676 17.028 10.0637 17.0503 10.0598C17.0727 10.0559 17.0951 10.052 17.1184 10.0482C17.0523 9.94704 16.9978 9.83815 16.9823 9.74093C16.959 9.60482 17.0017 9.46093 17.1612 9.40649C17.3362 9.34815 17.554 9.4376 17.6706 9.60871C17.7912 9.79149 17.869 10.0132 17.9156 10.1726C17.029 10.2737 14.6801 10.8104 14.6801 13.6493C14.6801 14.9224 15.1423 16.1948 15.6522 17.5983C16.2793 19.3243 16.9784 21.2486 16.9784 23.6165C16.9745 25.1759 16.6323 26.7393 15.2167 28.5593C14.249 29.8059 12.7782 31.0129 10.5773 32.0452C11.1777 32.3021 11.8389 32.4442 12.5333 32.4442H12.7945ZM23.9706 13.4859C23.5312 13.9487 23.2978 14.5593 23.0256 15.3643C23.0023 15.442 23.049 15.5587 23.2201 15.5587C23.4118 15.5506 23.6075 15.5409 23.8046 15.5312C24.5511 15.4944 25.3189 15.4565 25.9773 15.4965C27.1051 15.5781 27.8245 15.7143 28.3534 16.6476C28.4934 16.947 28.9328 16.947 28.9328 16.6204C28.9328 14.4193 27.6301 12.8443 26.0745 12.8443C24.9467 12.8443 24.4334 12.9959 23.9706 13.4859ZM22.4073 24.6159C20.9956 24.717 19.2923 24.5343 18.0595 24.192C17.9973 25.5259 17.7017 26.9726 16.924 28.3881C17.9934 28.8976 19.2223 29.0881 20.2101 29.0881C22.2206 29.0881 24.1884 28.2248 24.7601 27.1359C24.1262 27.3343 23.0606 27.5404 21.9484 27.5209C22.0106 27.4081 22.0651 27.2954 22.1195 27.1709C24.029 27.0815 26.1328 26.4515 26.5567 24.8843C25.814 25.3937 24.1806 25.9498 22.4617 26.0431C22.4851 25.9343 22.5006 25.8215 22.5162 25.7048C24.8106 25.4248 27.1751 24.4331 27.8051 22.8426C26.7551 23.5154 24.8923 24.4409 22.4073 24.6159Z" fill="#080006"/>
<path d="M7.55931 26.4788C8.50042 26.2921 9.86945 26.1249 9.86945 26.1249L9.98612 25.6193C9.56223 25.596 8.27487 25.5999 7.55542 25.6194C7.55931 25.6194 7.55931 26.4788 7.55931 26.4788Z" fill="#080006"/>
<path d="M18.1452 11.3394C18.4758 11.2305 18.9463 11.5533 19.1991 12.0627C19.4519 12.5722 19.3897 13.0738 19.063 13.1827C18.7363 13.2994 18.2658 12.9727 18.013 12.4633C17.978 12.3933 17.9508 12.3272 17.9274 12.2572L17.9858 12.2416C18.0908 12.3427 18.2152 12.37 18.3008 12.3155C18.4174 12.2377 18.4058 12.0394 18.3086 11.8644C18.2386 11.7205 18.0791 11.5727 17.943 11.5844L17.9197 11.5533C17.9702 11.4483 18.0441 11.3744 18.1452 11.3394ZM20.4513 16.4533C18.9774 16.1305 17.3674 15.7027 16.508 14.4388C16.4924 14.4155 16.4613 14.4038 16.4341 14.4116C16.4069 14.4194 16.3874 14.4427 16.3874 14.4738C16.3836 14.5438 16.3952 14.6177 16.4108 14.6916L16.2941 14.7344C16.0686 14.4155 16.0219 14.0266 16.2474 13.7505C16.5702 13.35 17.2274 13.3927 17.6202 13.6377L17.5697 13.7466C17.3597 13.7116 17.1574 13.7116 17.0019 13.805C16.8697 13.8866 16.8502 14.0072 16.9319 14.1588C17.6474 15.485 19.7202 15.7727 22.1858 15.5822C22.4386 15.5627 22.5008 15.4461 22.5319 15.3255C22.7458 14.47 23.1347 13.7116 23.7141 13.1283C23.263 13.1905 22.8469 13.2061 22.4813 13.2255C21.2097 13.3072 20.4786 13.14 20.253 12.9572L20.2958 12.8483C20.4319 12.895 20.5719 12.9066 20.5991 12.8677C20.638 12.8133 20.6069 12.7783 20.5447 12.7238C20.3036 12.4983 19.2186 11.3822 19.2186 11.39C19.1019 10.4488 17.7291 10.4138 17.1847 11.3394L16.998 11.2888C17.0524 11.0866 17.1341 10.9194 17.208 10.7988C16.0647 11.0594 15.4113 12.0861 15.2947 13.0777C14.7891 17.3438 21.2563 16.36 23.1074 18.0672C23.1424 18.0944 23.2319 18.2188 23.2941 18.1411C23.3641 17.9077 22.5474 16.9161 20.4513 16.4533Z" fill="white"/>
<path d="M27.8012 22.8428C26.7512 23.5156 24.8885 24.4411 22.4035 24.6161C20.9918 24.7133 19.2885 24.5306 18.0557 24.1883C18.0362 24.6006 17.9935 25.0244 17.9235 25.4522C18.6157 25.6311 19.8524 25.8644 21.6374 25.915C21.5596 26.3933 21.0696 28.0189 19.8251 29.0728C22.0962 29.1661 24.1535 28.2833 24.7601 27.1322C24.1262 27.3306 23.0607 27.5367 21.9485 27.5172C22.0068 27.4083 22.0651 27.2917 22.1196 27.1672C24.029 27.0778 26.1329 26.4478 26.5568 24.8806C25.8179 25.39 24.1807 25.95 22.4618 26.0394C22.4812 25.9306 22.5007 25.8178 22.5162 25.7011C24.8068 25.425 27.1712 24.4333 27.8012 22.8428Z" fill="white"/>
</g>
<defs>
<clipPath id="clip0_1_4603">
<rect width="40" height="40" fill="white"/>
</clipPath>
</defs>
</svg>
