<svg width="40" height="40" viewBox="0 0 40 40" fill="none" xmlns="http://www.w3.org/2000/svg">
<g clip-path="url(#clip0_1_4623)">
<path d="M39.2129 11.449V11.449C40.2624 17.0781 40.2624 22.8026 39.2129 28.5271V28.5271C38.2588 33.9654 33.9654 38.2588 28.5271 39.2129V39.2129C22.898 40.2624 17.1735 40.2624 11.449 39.2129V39.2129C6.01073 38.2588 1.81276 34.0608 0.858676 28.6225V28.6225C-0.286225 22.9934 -0.286225 17.1735 0.858676 11.449V11.449C1.81276 6.01073 6.01073 1.81276 11.449 0.858676V0.858676C17.0781 -0.286225 22.898 -0.286225 28.6225 0.858676V0.858676C34.0608 1.81276 38.2588 6.01073 39.2129 11.449Z" fill="white"/>
<path fill-rule="evenodd" clip-rule="evenodd" d="M38.2293 28.3468C39.2571 22.7405 39.2565 17.1393 38.2298 11.6323L39.2129 11.449C40.2624 17.0781 40.2624 22.8026 39.2129 28.5271L38.2293 28.3468ZM28.5271 39.2129C33.9654 38.2588 38.2588 33.9654 39.2129 28.5271L38.2279 28.3543C37.3466 33.3779 33.3779 37.3466 28.3543 38.2279L28.5271 39.2129ZM11.449 39.2129C17.1735 40.2624 22.898 40.2624 28.5271 39.2129L28.3438 38.2298C22.8369 39.2565 17.2356 39.2571 11.6293 38.2293L11.449 39.2129ZM28.6225 0.858676L28.4497 1.84363C33.4733 2.72496 37.3466 6.59823 38.2279 11.6218L39.2129 11.449C38.2588 6.01073 34.0608 1.81276 28.6225 0.858676ZM11.449 0.858676C17.0781 -0.286225 22.898 -0.286225 28.6225 0.858676L28.4264 1.83926C22.8303 0.720026 17.1448 0.720683 11.6483 1.83861L11.449 0.858676ZM0.858676 11.449C1.81276 6.01073 6.01073 1.81276 11.449 0.858676L11.6218 1.84363C6.59823 2.72496 2.72496 6.59823 1.84363 11.6218L0.858676 11.449ZM0.858676 11.449L1.83926 11.6451C0.720026 17.2413 0.720683 22.9267 1.83861 28.4232L0.858676 28.6225C-0.286225 22.9934 -0.286225 17.1735 0.858676 11.449ZM0.858676 28.6225C1.81276 34.0608 6.01073 38.2588 11.449 39.2129L11.6218 38.2279C6.59823 37.3466 2.72496 33.4733 1.84363 28.4497L0.858676 28.6225Z" fill="#EEF4FE"/>
<path fill-rule="evenodd" clip-rule="evenodd" d="M12.5338 7.55566C9.78466 7.55566 7.55603 9.78429 7.55603 12.5334V27.4668C7.55603 30.2159 9.78466 32.4446 12.5338 32.4446H27.4671C30.2163 32.4446 32.4449 30.2159 32.4449 27.4668V12.5334C32.4449 9.78429 30.2163 7.55566 27.4671 7.55566H12.5338Z" fill="#D32B27"/>
<path d="M28.5766 15.886C28.5766 15.3129 28.372 14.6853 27.9831 14.0781C27.5942 13.4708 27.0279 12.8977 26.3525 12.4133C25.2267 11.6219 23.2141 10.6667 20.0416 10.6667C16.8418 10.6667 14.8359 11.6151 13.7102 12.4133C13.0347 12.8977 12.4753 13.4777 12.0932 14.0849C11.7111 14.6921 11.5065 15.3129 11.5065 15.886C11.5065 16.1794 11.5065 25.7857 11.5065 26.0995C11.5065 26.8977 12.1137 27.7369 13.0961 28.2896C14.4061 29.0332 16.4188 29.3334 20.0416 29.3334C23.6644 29.3334 25.677 29.0332 26.987 28.2896C27.9694 27.7369 28.5766 26.8977 28.5766 26.0995C28.5766 25.6492 28.5766 16.2954 28.5766 15.886Z" fill="#F4EAD5"/>
<path d="M27.2669 20.8188C27.4374 20.9485 27.5466 21.1327 27.5466 21.3783C27.5466 21.7058 27.2805 22.0264 26.8848 22.0264C26.5437 22.0264 26.4686 21.7808 25.9774 21.7808C25.5749 21.7808 25.0564 22.0674 25.0564 22.852C25.0564 23.5547 25.4384 23.9368 25.9911 23.9368C26.1616 23.9368 26.3185 23.8549 26.3185 23.7253C26.3185 23.6229 26.223 23.582 26.0934 23.582C25.8205 23.582 25.4589 23.3909 25.4589 22.9816C25.4589 22.5381 25.7932 22.3334 26.2298 22.3334H26.4686C27.301 22.3334 27.7172 22.7906 27.7172 23.4523C27.7172 24.4962 26.9803 25.2126 25.8205 25.2126C24.7152 25.2126 23.5963 24.4553 23.5963 22.8451C23.5963 21.16 24.7152 20.4299 25.8682 20.4299C26.5164 20.4368 26.9667 20.6005 27.2669 20.8188Z" fill="#D32B27"/>
<path d="M20.6951 23.2954C20.6951 23.2067 20.7223 23.1658 20.7769 23.1658C20.8179 23.1658 20.8452 23.1931 20.8793 23.2613L21.5683 24.5917C21.8276 25.0966 22.1142 25.2194 22.4144 25.2194C22.9329 25.2194 23.2194 24.8305 23.2194 24.3393V21.2896C23.2194 20.812 22.9465 20.4299 22.4348 20.4299C21.9231 20.4299 21.6502 20.812 21.6502 21.2896V22.3539C21.6502 22.4426 21.6229 22.4835 21.5683 22.4835C21.5274 22.4835 21.5001 22.4562 21.466 22.388L20.7769 21.0576C20.5177 20.5527 20.2448 20.4299 19.9309 20.4299C19.4124 20.4299 19.1259 20.8188 19.1259 21.31V24.3598C19.1259 24.8373 19.3988 25.2194 19.9105 25.2194C20.4153 25.2194 20.6951 24.8373 20.6951 24.3598V23.2954Z" fill="#D32B27"/>
<path d="M13.968 24.3461V23.6434C13.968 23.582 13.9952 23.541 14.0498 23.541C14.1317 23.541 14.1453 23.6229 14.1658 23.657C14.2818 23.9299 14.6093 24.503 14.9163 24.8441C15.121 25.0693 15.3802 25.2126 15.6531 25.2126C16.1103 25.2126 16.4991 24.81 16.4991 24.387C16.4991 24.121 16.3832 23.9231 16.1717 23.6843C15.8919 23.3841 15.5713 22.9884 15.4485 22.8042C15.4007 22.736 15.4007 22.6882 15.4007 22.6677C15.4007 22.6132 15.428 22.5722 15.4894 22.5176C15.6258 22.388 15.967 22.0673 16.158 21.7808C16.3013 21.5556 16.3627 21.3578 16.3627 21.1872C16.3627 20.7574 15.9738 20.4231 15.5508 20.4231C15.2779 20.4231 15.0255 20.5732 14.8481 20.8597C14.6161 21.235 14.3432 21.6716 14.1658 21.8422C14.118 21.89 14.0976 21.8968 14.0635 21.8968C14.0021 21.8968 13.9816 21.8558 13.9816 21.7944V21.3032C13.9816 20.8188 13.695 20.4299 13.1765 20.4299C12.6512 20.4299 12.3715 20.8188 12.3715 21.3032V24.3393C12.3715 24.8237 12.6512 25.2126 13.1765 25.2126C13.6882 25.2194 13.968 24.8305 13.968 24.3461Z" fill="#D32B27"/>
<path d="M12.7682 25.7173C12.4817 25.7173 12.3521 25.8537 12.3521 26.0994C12.3521 26.5224 12.7409 27.1159 13.5119 27.5526C14.7945 28.2758 16.9982 28.4873 20.0411 28.4873C23.084 28.4873 25.2877 28.2826 26.5704 27.5526C27.3413 27.1159 27.7302 26.5292 27.7302 26.0994C27.7302 25.8606 27.6006 25.7173 27.314 25.7173H12.7682Z" fill="#F48037"/>
<path d="M27.3142 16.3022C27.6007 16.3022 27.7303 16.1521 27.7303 15.886C27.7303 14.31 25.3083 11.5195 20.0413 11.5195C14.7264 11.5195 12.3522 14.31 12.3522 15.886C12.3522 16.1521 12.4818 16.3022 12.7684 16.3022H27.3142Z" fill="#F48037"/>
<path d="M16.1319 20.1501C16.9301 20.1501 17.3531 19.6725 17.3531 19.0721V17.4074C17.3531 17.114 17.1826 16.8752 16.8619 16.8752C16.5412 16.8752 16.3707 17.114 16.3707 17.4074V19.0175C16.3707 19.1335 16.3024 19.2768 16.1251 19.2768C15.9477 19.2768 15.8863 19.1404 15.8863 19.0175V17.4074C15.8863 17.114 15.7089 16.8752 15.395 16.8752C15.0812 16.8752 14.9038 17.114 14.9038 17.4074V19.0721C14.9175 19.6725 15.3336 20.1501 16.1319 20.1501Z" fill="#D32B27"/>
<path d="M24.5027 18.8879C24.7415 18.8879 24.9257 18.7446 24.9257 18.4922C24.9257 18.2398 24.7347 18.0965 24.5027 18.0965H24.1616C24.0797 18.0965 24.0388 18.0487 24.0388 17.9805V17.8986C24.0388 17.8372 24.0797 17.7826 24.1616 17.7826H24.6051C24.878 17.7826 25.0963 17.6189 25.0963 17.3255C25.0963 17.0322 24.878 16.8684 24.6051 16.8684H23.6704C23.2815 16.8684 23.0905 17.0936 23.0905 17.4006V19.577C23.0905 19.884 23.2815 20.1091 23.6704 20.1091H24.6051C24.878 20.1091 25.0963 19.9454 25.0963 19.652C25.0963 19.3587 24.878 19.1949 24.6051 19.1949H24.1616C24.0797 19.1949 24.0388 19.1472 24.0388 19.0789V18.9834C24.0388 18.922 24.0797 18.8674 24.1616 18.8674H24.5027" fill="#D32B27"/>
<path d="M22.5666 17.1208C22.6826 17.2095 22.7508 17.3391 22.7508 17.5029C22.7508 17.728 22.5735 17.9464 22.3142 17.9464C22.0891 17.9464 22.0345 17.7758 21.707 17.7758C21.4409 17.7758 21.093 17.9736 21.093 18.5126C21.093 19.0039 21.3454 19.2631 21.7138 19.2631C21.8298 19.2631 21.939 19.2017 21.939 19.113C21.939 19.0448 21.8776 19.0175 21.7889 19.0175C21.6047 19.0175 21.3659 18.8811 21.3659 18.6081C21.3659 18.2943 21.591 18.1579 21.8844 18.1579H22.0413C22.5939 18.1579 22.8668 18.4717 22.8668 18.9356C22.8668 19.6588 22.3756 20.1501 21.6047 20.1501C20.8678 20.1501 20.1241 19.6315 20.1241 18.5195C20.1241 17.3528 20.8678 16.8547 21.6319 16.8547C22.0686 16.8547 22.362 16.9639 22.5666 17.1208Z" fill="#D32B27"/>
<path d="M18.5536 21.3646C18.5536 20.8461 18.2534 20.4299 17.7007 20.4299C17.1481 20.4299 16.8479 20.8461 16.8479 21.3646V24.2847C16.8479 24.8032 17.1481 25.2194 17.7007 25.2194C18.2534 25.2194 18.5536 24.8032 18.5536 24.2847V21.3646Z" fill="#D32B27"/>
<path d="M14.3647 18.4445C14.3374 18.424 14.317 18.4035 14.317 18.3831C14.317 18.3558 14.3306 18.3489 14.3579 18.3217C14.4534 18.2125 14.5421 18.0419 14.5421 17.7895C14.5421 17.1959 14.1396 16.8821 13.5187 16.8821H12.932C12.5431 16.8821 12.3521 17.1072 12.3521 17.4142V19.5907C12.3521 19.8977 12.5431 20.1228 12.932 20.1228H13.6279C14.2828 20.1228 14.6854 19.6862 14.6854 19.1335C14.6854 18.6969 14.4193 18.4922 14.3647 18.4445ZM13.2253 17.7281C13.2253 17.6667 13.2663 17.6121 13.3482 17.6121H13.4096C13.6211 17.6121 13.6893 17.7622 13.6893 17.885C13.6893 18.001 13.6279 18.1716 13.4096 18.1716H13.3482C13.2663 18.1716 13.2253 18.1238 13.2253 18.0556V17.7281ZM13.4368 19.386H13.3482C13.2663 19.386 13.2253 19.3382 13.2253 19.27V18.8879C13.2253 18.8265 13.2663 18.7719 13.3482 18.7719H13.4368C13.6756 18.7719 13.7439 18.9289 13.7439 19.0721C13.737 19.2018 13.6688 19.386 13.4368 19.386Z" fill="#D32B27"/>
<path d="M19.9166 19.2905C19.7733 19.0994 19.6437 18.9425 19.5823 18.7651C19.5687 18.7242 19.5755 18.6901 19.6232 18.656C19.7733 18.54 19.9507 18.2739 19.9507 17.8645C19.9507 17.2369 19.4322 16.8821 18.8045 16.8821H18.2451C17.8562 16.8821 17.6652 17.1072 17.6652 17.4142V19.6179C17.6652 19.9113 17.8357 20.1501 18.1564 20.1501C18.4702 20.1501 18.6476 19.9113 18.6476 19.6179V19.0926C18.6476 19.0312 18.6749 18.9971 18.7295 18.9971C18.7909 18.9971 18.8114 19.0312 18.8182 19.0926C18.8659 19.345 18.9819 19.6862 19.1116 19.8567C19.2821 20.0819 19.439 20.1501 19.596 20.1501C19.8552 20.1501 20.0735 19.9454 20.0735 19.693C20.0735 19.5293 20.0053 19.3996 19.9166 19.2905ZM18.7841 18.2602H18.7158C18.634 18.2602 18.593 18.2125 18.593 18.1443V17.8168C18.593 17.7554 18.634 17.7008 18.7158 17.7008H18.7841C18.9887 17.7008 19.057 17.8509 19.057 17.9737C19.057 18.1033 18.9956 18.2602 18.7841 18.2602Z" fill="#D32B27"/>
<path d="M27.5734 19.2905C27.4028 19.079 27.3005 18.9425 27.2391 18.7651C27.2254 18.7242 27.2322 18.6901 27.28 18.656C27.4301 18.54 27.6075 18.2739 27.6075 17.8645C27.6075 17.2369 27.089 16.8821 26.4613 16.8821H25.9018C25.5129 16.8821 25.3219 17.1072 25.3219 17.4142V19.6179C25.3219 19.9113 25.4925 20.1501 25.8131 20.1501C26.1338 20.1501 26.3044 19.9113 26.3044 19.6179V19.0926C26.3044 19.0312 26.3316 18.9971 26.3862 18.9971C26.4476 18.9971 26.4681 19.0312 26.4749 19.0926C26.5227 19.345 26.6387 19.6862 26.7683 19.8567C26.9389 20.0819 27.0958 20.1501 27.2527 20.1501C27.512 20.1501 27.7303 19.9454 27.7303 19.693C27.7303 19.5293 27.6621 19.3996 27.5734 19.2905ZM26.4408 18.2602H26.3726C26.2907 18.2602 26.2498 18.2125 26.2498 18.1443V17.8168C26.2498 17.7554 26.2907 17.7008 26.3726 17.7008H26.4408C26.6455 17.7008 26.7137 17.8509 26.7137 17.9737C26.7137 18.1033 26.6455 18.2602 26.4408 18.2602Z" fill="#D32B27"/>
<path d="M27.6427 24.9736C27.4994 24.9736 27.3971 25.0828 27.3971 25.2192C27.3971 25.3625 27.4994 25.4649 27.6427 25.4649C27.786 25.4649 27.8883 25.3625 27.8883 25.2192C27.8815 25.0828 27.7792 24.9736 27.6427 24.9736ZM27.6427 25.4103C27.5472 25.4103 27.4517 25.3421 27.4517 25.2124C27.4517 25.0896 27.5472 25.0214 27.6427 25.0214C27.7382 25.0214 27.8337 25.0896 27.8337 25.2124C27.8269 25.3421 27.7314 25.4103 27.6427 25.4103Z" fill="#D32B27"/>
<path d="M27.671 25.2397C27.7188 25.2329 27.7393 25.1987 27.7393 25.1578C27.7393 25.1101 27.6983 25.0828 27.6437 25.0828H27.5755C27.5619 25.0828 27.5482 25.0964 27.5482 25.1101V25.3147C27.5482 25.3284 27.5619 25.342 27.5755 25.342C27.5892 25.342 27.6028 25.3284 27.6028 25.3147V25.2465H27.6096L27.6847 25.3352C27.6915 25.342 27.6983 25.3488 27.7051 25.3488C27.7188 25.3488 27.7324 25.342 27.7324 25.3216C27.7324 25.3147 27.7324 25.3079 27.7256 25.3079L27.671 25.2397ZM27.6096 25.1987V25.1305H27.6506C27.6778 25.1305 27.6915 25.1442 27.6915 25.1646C27.6915 25.1851 27.6778 25.1987 27.6437 25.1987H27.6096Z" fill="#D32B27"/>
</g>
<defs>
<clipPath id="clip0_1_4623">
<rect width="40" height="40" fill="white"/>
</clipPath>
</defs>
</svg>
