<svg width="40" height="40" viewBox="0 0 40 40" fill="none" xmlns="http://www.w3.org/2000/svg">
<g clip-path="url(#clip0_1_4625)">
<path d="M39.2129 11.449V11.449C40.2624 17.0781 40.2624 22.8026 39.2129 28.5271V28.5271C38.2588 33.9654 33.9654 38.2588 28.5271 39.2129V39.2129C22.898 40.2624 17.1735 40.2624 11.449 39.2129V39.2129C6.01073 38.2588 1.81276 34.0608 0.858676 28.6225V28.6225C-0.286225 22.9934 -0.286225 17.1735 0.858676 11.449V11.449C1.81276 6.01073 6.01073 1.81276 11.449 0.858676V0.858676C17.0781 -0.286225 22.898 -0.286225 28.6225 0.858676V0.858676C34.0608 1.81276 38.2588 6.01073 39.2129 11.449Z" fill="white"/>
<path fill-rule="evenodd" clip-rule="evenodd" d="M38.2293 28.3468C39.2571 22.7405 39.2565 17.1393 38.2298 11.6323L39.2129 11.449C40.2624 17.0781 40.2624 22.8026 39.2129 28.5271L38.2293 28.3468ZM28.5271 39.2129C33.9654 38.2588 38.2588 33.9654 39.2129 28.5271L38.2279 28.3543C37.3466 33.3779 33.3779 37.3466 28.3543 38.2279L28.5271 39.2129ZM11.449 39.2129C17.1735 40.2624 22.898 40.2624 28.5271 39.2129L28.3438 38.2298C22.8369 39.2565 17.2356 39.2571 11.6293 38.2293L11.449 39.2129ZM28.6225 0.858676L28.4497 1.84363C33.4733 2.72496 37.3466 6.59823 38.2279 11.6218L39.2129 11.449C38.2588 6.01073 34.0608 1.81276 28.6225 0.858676ZM11.449 0.858676C17.0781 -0.286225 22.898 -0.286225 28.6225 0.858676L28.4264 1.83926C22.8303 0.720026 17.1448 0.720683 11.6483 1.83861L11.449 0.858676ZM0.858676 11.449C1.81276 6.01073 6.01073 1.81276 11.449 0.858676L11.6218 1.84363C6.59823 2.72496 2.72496 6.59823 1.84363 11.6218L0.858676 11.449ZM0.858676 11.449L1.83926 11.6451C0.720026 17.2413 0.720683 22.9267 1.83861 28.4232L0.858676 28.6225C-0.286225 22.9934 -0.286225 17.1735 0.858676 11.449ZM0.858676 28.6225C1.81276 34.0608 6.01073 38.2588 11.449 39.2129L11.6218 38.2279C6.59823 37.3466 2.72496 33.4733 1.84363 28.4497L0.858676 28.6225Z" fill="#EEF4FE"/>
<path fill-rule="evenodd" clip-rule="evenodd" d="M12.5333 7.55566C9.78417 7.55566 7.55554 9.78429 7.55554 12.5334V27.4668C7.55554 30.2159 9.78417 32.4446 12.5333 32.4446H27.4667C30.2158 32.4446 32.4444 30.2159 32.4444 27.4668V12.5334C32.4444 9.78429 30.2158 7.55566 27.4667 7.55566H12.5333Z" fill="#F6F7F8"/>
<path d="M13.0576 24.9793C13.1665 24.8648 13.3454 24.8326 13.4912 24.8865C13.5658 24.9134 13.6208 24.9745 13.6651 25.0379C13.6656 24.9888 13.6666 24.9395 13.668 24.8904C13.7242 24.8896 13.7806 24.8893 13.8369 24.8885C13.8371 25.2283 13.8366 25.5682 13.8369 25.908C13.8304 26.056 13.7843 26.2229 13.6494 26.3045C13.5141 26.384 13.3436 26.3941 13.1934 26.3572C13.0584 26.3252 12.9602 26.2018 12.9453 26.0662C13.0038 26.0652 13.0625 26.0651 13.1211 26.0652C13.1388 26.1455 13.2026 26.2107 13.2842 26.2254C13.3935 26.2447 13.5281 26.2304 13.5996 26.1355C13.6616 26.0451 13.6623 25.9293 13.6621 25.824C13.5251 26.031 13.1916 26.0126 13.0459 25.825C12.928 25.6699 12.8968 25.464 12.9199 25.2742C12.9365 25.1657 12.983 25.0604 13.0576 24.9793ZM29.8369 26.2928C29.7782 26.2934 29.7196 26.2937 29.6611 26.2937C29.6606 26.2266 29.6608 26.1595 29.6611 26.0926C29.7196 26.0924 29.7781 26.0924 29.8369 26.0926C29.8369 26.1593 29.8366 26.226 29.8369 26.2928ZM22.2686 25.074C22.3814 24.88 22.6464 24.8137 22.8486 24.8943C22.9856 24.9516 23.0619 25.0976 23.0752 25.24C23.0165 25.2402 22.9578 25.24 22.8994 25.24C22.8848 25.1705 22.8561 25.0977 22.7949 25.0564C22.6966 24.9919 22.5519 25.0033 22.4678 25.0867C22.405 25.1516 22.3764 25.2422 22.3643 25.3299C22.3515 25.4543 22.362 25.5872 22.4248 25.698C22.4962 25.8195 22.678 25.8522 22.7881 25.7654C22.851 25.7169 22.885 25.6413 22.9014 25.5652C22.9585 25.5649 23.016 25.5649 23.0733 25.5652C23.0589 25.6822 23.0101 25.7997 22.919 25.8777C22.7946 25.985 22.6087 25.9984 22.46 25.9392C22.3085 25.8788 22.2138 25.7244 22.1856 25.5691C22.1606 25.4014 22.1771 25.2206 22.2686 25.074ZM10.7578 24.9285C10.9102 24.8426 11.1023 24.8397 11.2637 24.9012C11.3579 24.9341 11.431 25.0238 11.4356 25.1248C11.4402 25.3398 11.4325 25.5553 11.4385 25.7703C11.4429 25.8284 11.5126 25.8168 11.5527 25.8123V25.9392C11.4793 25.9606 11.3926 25.9727 11.3272 25.9236C11.2851 25.8976 11.2767 25.8452 11.2695 25.8006C11.1777 25.9045 11.043 25.9709 10.9033 25.9705C10.7936 25.9754 10.6793 25.9268 10.6162 25.8348C10.5625 25.758 10.5554 25.6568 10.5791 25.5682C10.6098 25.4512 10.7181 25.3655 10.834 25.3435C10.9537 25.3253 11.075 25.3167 11.1944 25.2967C11.2786 25.2778 11.2797 25.1636 11.251 25.0994C11.1963 25.0016 11.065 25 10.9668 25.0066C10.863 25.0164 10.7911 25.1087 10.7793 25.2078C10.7242 25.2078 10.6692 25.2085 10.6143 25.2078C10.6129 25.099 10.6611 24.9846 10.7578 24.9285ZM18.2959 25.0184C18.4141 24.8432 18.6778 24.8097 18.8447 24.9334C18.976 25.0313 19.04 25.2008 19.0401 25.3611C19.0448 25.5221 19.006 25.6898 18.9082 25.8201C18.8049 25.9536 18.6141 26.0018 18.4561 25.95C18.4055 25.9326 18.3602 25.9 18.3281 25.8572C18.3118 25.8408 18.3019 25.8129 18.2764 25.8113C18.3031 25.8469 18.2853 25.8959 18.2901 25.9373H18.1211V24.4998C18.1793 24.4996 18.2376 24.4995 18.2959 24.4988C18.2981 24.6718 18.2976 24.8453 18.2959 25.0184ZM29.3379 25.0887C29.4608 24.8564 29.8027 24.7881 30.0117 24.9412C30.1684 25.0666 30.2046 25.282 30.207 25.4715C29.9514 25.4718 29.6958 25.4718 29.4404 25.4725C29.4392 25.5869 29.4763 25.7214 29.5869 25.7762C29.7406 25.867 29.9828 25.7948 30.0225 25.6092C30.0805 25.609 30.1389 25.6085 30.1973 25.6092C30.1602 25.7675 30.0425 25.9127 29.8809 25.9529C29.7544 25.9815 29.6128 25.9834 29.4971 25.9178C29.37 25.8496 29.293 25.7137 29.2647 25.576C29.2386 25.4117 29.2525 25.2347 29.3379 25.0887ZM19.8662 24.8738C19.9417 24.8922 20.0207 24.9221 20.0694 24.9861C20.1083 25.0343 20.1255 25.0966 20.124 25.158C20.124 25.3512 20.1239 25.5449 20.124 25.7381C20.1245 25.7646 20.1239 25.8011 20.1543 25.8123C20.1811 25.8203 20.2097 25.8121 20.2373 25.8113C20.2368 25.8537 20.2373 25.8967 20.2373 25.9392C20.1658 25.9599 20.0817 25.9727 20.0166 25.9275C19.9711 25.9028 19.9615 25.8486 19.9531 25.8025C19.864 25.8973 19.7421 25.9646 19.6104 25.9695C19.4978 25.9806 19.3768 25.9397 19.3067 25.8484C19.2448 25.7702 19.2349 25.6621 19.2598 25.5682C19.2897 25.4552 19.394 25.3728 19.5049 25.3475C19.6307 25.3257 19.7593 25.3195 19.8848 25.2957C19.963 25.2674 19.9597 25.1572 19.9287 25.0945C19.8694 25 19.7391 25.0004 19.6406 25.0086C19.5407 25.0214 19.4727 25.1114 19.4619 25.2078C19.4084 25.2078 19.3543 25.2073 19.3008 25.2068C19.2998 25.1052 19.3412 25.0001 19.4258 24.9402C19.5543 24.8559 19.7188 24.8442 19.8662 24.8738ZM25.0283 24.8738C25.1127 24.8931 25.2023 24.9278 25.25 25.0047C25.2915 25.0637 25.2931 25.1384 25.291 25.2078C25.2905 25.3844 25.2912 25.5615 25.291 25.7381C25.292 25.7622 25.2901 25.7941 25.3145 25.8084C25.3416 25.8238 25.3746 25.8117 25.4043 25.8123C25.404 25.8546 25.4041 25.8968 25.4043 25.9392C25.331 25.9606 25.2452 25.9727 25.1797 25.9246C25.137 25.8987 25.1291 25.8455 25.1221 25.8006C25.0338 25.9001 24.9062 25.9653 24.7725 25.9695C24.6614 25.9794 24.5421 25.9379 24.4736 25.8475C24.413 25.7687 24.403 25.6607 24.4287 25.5672C24.4617 25.4458 24.5792 25.3604 24.7002 25.3426C24.8156 25.3264 24.9329 25.3171 25.0479 25.2976C25.1157 25.2826 25.125 25.1969 25.1133 25.1404C25.1043 25.0736 25.042 25.0285 24.9795 25.0164C24.8918 24.9998 24.7904 24.993 24.7149 25.0496C24.6618 25.0846 24.6442 25.1498 24.6299 25.2078C24.5758 25.2075 24.5218 25.2085 24.4678 25.2078C24.4664 25.1034 24.5101 24.9938 24.5996 24.9353C24.7261 24.8562 24.8846 24.8461 25.0283 24.8738ZM17.2266 25.9373C17.1702 25.9371 17.1139 25.9373 17.0576 25.9373C17.0578 25.8838 17.0575 25.8295 17.0567 25.7762C17.0088 25.8455 16.9512 25.9142 16.8692 25.9432C16.7553 25.9832 16.6211 25.9787 16.5166 25.9148C16.4289 25.8594 16.3775 25.7541 16.3809 25.6512C16.3816 25.3967 16.3817 25.1419 16.3819 24.8875C16.4404 24.8873 16.499 24.8873 16.5576 24.8875C16.5575 25.1252 16.5581 25.3637 16.5576 25.6014C16.5563 25.6819 16.5979 25.7719 16.6787 25.7986C16.7753 25.8287 16.892 25.8066 16.961 25.7293C17.0238 25.6577 17.0519 25.56 17.0508 25.4656C17.0506 25.2724 17.0508 25.0788 17.0508 24.8855H17.2266C17.2266 25.236 17.2267 25.5868 17.2266 25.9373ZM30.7207 24.8894C30.7765 24.8898 30.8325 24.8904 30.8887 24.8904C30.8885 24.9387 30.8885 24.9876 30.8887 25.0359C30.8326 25.0359 30.7766 25.0358 30.7207 25.0359C30.7221 25.2696 30.7182 25.5036 30.7227 25.7371C30.7372 25.8118 30.8311 25.7945 30.8877 25.7967C30.8884 25.8432 30.8885 25.8904 30.8887 25.9373C30.804 25.945 30.7099 25.9741 30.6319 25.9256C30.5641 25.89 30.5435 25.807 30.544 25.7361C30.5445 25.5033 30.544 25.2707 30.544 25.0379C30.4961 25.0377 30.4481 25.0377 30.4004 25.0379C30.4002 24.9886 30.4001 24.9394 30.4004 24.8904C30.448 24.8903 30.496 24.8901 30.544 24.8904C30.5446 24.7928 30.5436 24.6951 30.544 24.5975H30.7207C30.7207 24.6948 30.7209 24.7921 30.7207 24.8894ZM20.8594 24.8777C20.9819 24.8438 21.123 24.8611 21.2256 24.9392C21.3096 25.0076 21.3361 25.1218 21.336 25.2254C21.3365 25.4632 21.336 25.7014 21.336 25.9392C21.2772 25.9391 21.2178 25.9391 21.1592 25.9392C21.1592 25.7128 21.1591 25.486 21.1602 25.2596C21.1583 25.1958 21.145 25.1278 21.1045 25.0769C21.0108 24.9839 20.8407 25.0004 20.752 25.0926C20.6814 25.1626 20.6594 25.266 20.6592 25.3621C20.6587 25.5538 20.6594 25.7456 20.6592 25.9373H20.4834V24.8885C20.5379 24.8883 20.593 24.8875 20.6475 24.8875V25.035C20.7044 24.967 20.7718 24.9023 20.8594 24.8777ZM23.4815 25.0242C23.5402 24.9615 23.6046 24.8971 23.6904 24.8748C23.8189 24.8414 23.9689 24.8647 24.0684 24.9568C24.1475 25.0353 24.161 25.1537 24.1592 25.2596C24.1589 25.4857 24.1592 25.7123 24.1592 25.9383C24.1004 25.9383 24.0418 25.9391 23.9834 25.9392C23.9834 25.7014 23.9827 25.4631 23.9834 25.2254C23.9812 25.1614 23.9654 25.0866 23.9082 25.0496C23.8393 25.0024 23.747 25.0091 23.6709 25.032C23.5494 25.0724 23.4858 25.206 23.4834 25.3269C23.4838 25.5302 23.4836 25.7339 23.4834 25.9373C23.424 25.9371 23.3647 25.9373 23.3057 25.9373C23.3058 25.4583 23.3047 24.9788 23.3057 24.4998C23.3642 24.4998 23.4228 24.4995 23.4815 24.4998C23.4809 24.6743 23.4827 24.8497 23.4815 25.0242ZM12.1953 24.8709C12.325 24.8439 12.479 24.8672 12.5713 24.9695C12.6554 25.0688 12.6497 25.2066 12.6485 25.3289C12.6483 25.5319 12.6485 25.7353 12.6485 25.9383H12.4727C12.4725 25.7068 12.473 25.4752 12.4727 25.2439C12.4675 25.1664 12.444 25.0738 12.3662 25.0389C12.2605 24.9886 12.1204 25.0185 12.0479 25.1121C11.9904 25.1816 11.9743 25.2752 11.9736 25.3631C11.9731 25.5545 11.9738 25.7459 11.9736 25.9373C11.9145 25.9375 11.855 25.9379 11.7959 25.9363C11.7978 25.5872 11.7964 25.2378 11.7969 24.8885C11.8514 24.8883 11.9064 24.8883 11.961 24.8885C11.961 24.9374 11.9607 24.9867 11.96 25.0359C12.0217 24.9616 12.0977 24.891 12.1953 24.8709ZM15.1084 24.8767C15.2289 24.8438 15.3667 24.8607 15.4688 24.9353C15.5506 24.9994 15.5827 25.1086 15.583 25.2088C15.5815 25.4521 15.5824 25.6952 15.582 25.9383H15.4082C15.4084 25.7123 15.407 25.4865 15.4082 25.2605C15.4072 25.1983 15.3936 25.1334 15.3574 25.0818C15.2886 25.0043 15.1675 25.0006 15.0772 25.0379C14.9663 25.0873 14.9116 25.2119 14.9092 25.3279C14.906 25.531 14.9091 25.7342 14.9082 25.9373C14.8496 25.9373 14.7911 25.9376 14.7324 25.9383C14.7309 25.5884 14.7321 25.2383 14.7315 24.8885C14.786 24.8883 14.8408 24.8883 14.8955 24.8885C14.8955 24.9374 14.8951 24.9867 14.8945 25.0359C14.9518 24.9676 15.0203 24.9016 15.1084 24.8767ZM26.0322 24.8748C26.1559 24.8434 26.2991 24.8626 26.3994 24.9451C26.4775 25.0142 26.5019 25.1238 26.502 25.2244C26.5025 25.4622 26.5018 25.7004 26.502 25.9383H26.3262C26.3264 25.7121 26.325 25.4857 26.3262 25.2596C26.325 25.1983 26.3111 25.135 26.2764 25.0838C26.2059 25.0021 26.0784 24.9993 25.9863 25.0428C25.8812 25.0945 25.8299 25.2146 25.8272 25.3269C25.8236 25.5301 25.8274 25.734 25.8262 25.9373C25.7674 25.9371 25.708 25.9373 25.6494 25.9373V24.8885C25.7038 24.8883 25.759 24.8883 25.8135 24.8885C25.8135 24.9374 25.8135 24.9868 25.8135 25.0359C25.8715 24.9657 25.9416 24.8984 26.0322 24.8748ZM9.34279 24.5008C9.58167 24.8869 9.82002 25.2742 10.0596 25.66C10.0615 25.2737 10.0621 24.8871 10.0635 24.5008C10.1263 24.5004 10.1892 24.4998 10.252 24.5008C10.2508 24.9794 10.2513 25.4585 10.251 25.9373C10.1793 25.9373 10.1076 25.9371 10.0361 25.9373C9.79147 25.551 9.54857 25.1632 9.30373 24.7771C9.30219 25.1636 9.30118 25.5509 9.29982 25.9373H9.11134C9.11134 25.4583 9.11113 24.9788 9.11232 24.4998C9.18914 24.5006 9.26596 24.5006 9.34279 24.5008ZM16.082 25.9373C16.0236 25.9371 15.9645 25.9364 15.9063 25.9373C15.9046 25.5877 15.9066 25.2381 15.9063 24.8885H16.082C16.082 25.238 16.0824 25.5878 16.082 25.9373ZM27.5332 24.5057C27.6758 24.9078 27.8021 25.3168 27.9483 25.7176C28.0828 25.3119 28.2183 24.9062 28.3535 24.5008C28.4265 24.5008 28.5001 24.5011 28.5733 24.5008C28.3992 24.9796 28.2239 25.4585 28.0498 25.9373C27.9801 25.9375 27.9104 25.9373 27.8408 25.9373C27.6662 25.4583 27.492 24.9788 27.3174 24.4998C27.3889 24.5037 27.4638 24.4917 27.5332 24.5057ZM29.0108 25.9373C28.952 25.9371 28.8934 25.9373 28.835 25.9373V24.8885H29.0108V25.9373ZM18.8213 25.1766C18.7752 25.0385 18.605 24.9817 18.4756 25.032C18.418 25.0545 18.3698 25.1003 18.3447 25.157C18.296 25.269 18.2847 25.3935 18.291 25.5144C18.2957 25.5999 18.3324 25.6833 18.3926 25.7439C18.498 25.8466 18.6997 25.842 18.7822 25.7127C18.8775 25.5534 18.8775 25.3493 18.8213 25.1766ZM19.9483 25.4041C19.8035 25.4819 19.6213 25.4339 19.4824 25.5262C19.3903 25.5994 19.4272 25.7755 19.542 25.8055C19.6662 25.8359 19.8074 25.795 19.8965 25.7029C19.9708 25.6213 19.9411 25.5036 19.9483 25.4041ZM25.1172 25.406C24.9775 25.4781 24.8076 25.4394 24.6699 25.5154C24.5524 25.5788 24.5919 25.7839 24.7207 25.8084C24.8452 25.8329 24.9855 25.7921 25.0713 25.6971C25.1397 25.6157 25.1103 25.503 25.1172 25.406ZM11.2666 25.4051C11.1253 25.4767 10.9536 25.4366 10.8154 25.5154C10.703 25.581 10.7422 25.7811 10.8682 25.8064C10.9927 25.8325 11.1322 25.7903 11.2188 25.6961C11.2888 25.6151 11.2594 25.5023 11.2666 25.4051ZM13.2949 25.033C13.2115 25.0609 13.1411 25.131 13.1231 25.2185C13.0832 25.3845 13.087 25.5748 13.1856 25.7205C13.282 25.8544 13.5084 25.8393 13.5977 25.7049C13.6807 25.5975 13.6755 25.4543 13.6602 25.3269C13.6469 25.2495 13.6305 25.1668 13.5752 25.1072C13.5066 25.0306 13.3923 24.9994 13.2949 25.033ZM29.9824 25.1434C29.9071 25.0217 29.7311 24.9853 29.6084 25.0545C29.5083 25.107 29.4487 25.216 29.4424 25.3269C29.6386 25.3288 29.8349 25.3284 30.0313 25.3279C30.0277 25.2641 30.0172 25.1982 29.9824 25.1434ZM30.0264 24.7684C29.9729 24.7684 29.9194 24.7687 29.8662 24.7684C29.8236 24.7072 29.7801 24.6466 29.7373 24.5857C29.6918 24.6442 29.6514 24.7069 29.6035 24.7635C29.5523 24.7754 29.4975 24.766 29.4453 24.7684C29.5104 24.6751 29.5762 24.5822 29.6416 24.4891H29.8301C29.8955 24.582 29.9609 24.6752 30.0264 24.7684ZM11.3213 24.7684C11.2679 24.7684 11.2145 24.7679 11.1611 24.7674C11.1179 24.7059 11.0742 24.6446 11.0303 24.5838C10.9863 24.6455 10.9416 24.7068 10.8975 24.7684C10.8455 24.7678 10.7931 24.7682 10.7412 24.7684C10.8065 24.675 10.8726 24.5816 10.9375 24.4881C11.0002 24.4877 11.0633 24.4879 11.126 24.4881C11.1912 24.5812 11.2564 24.6749 11.3213 24.7684ZM25.1748 24.7684C25.1212 24.7684 25.0679 24.7675 25.0147 24.7674C24.9712 24.7059 24.9272 24.6449 24.8838 24.5838C24.8394 24.6452 24.7954 24.7071 24.751 24.7684C24.6989 24.7678 24.6467 24.7682 24.5947 24.7684C24.6603 24.675 24.7255 24.5812 24.791 24.4881C24.8533 24.4879 24.916 24.4879 24.9785 24.4881C25.0441 24.5813 25.1097 24.6748 25.1748 24.7684ZM19.876 24.7478C19.8317 24.7478 19.7871 24.7486 19.7432 24.7488C19.6561 24.6549 19.567 24.5628 19.4815 24.4676C19.5542 24.4667 19.6273 24.4674 19.7002 24.4676C19.7584 24.5613 19.8177 24.6543 19.876 24.7478ZM29.0108 24.701C28.9523 24.701 28.8941 24.7014 28.836 24.7019C28.8348 24.6349 28.8348 24.5678 28.835 24.5008H29.0108V24.701ZM16.082 24.701H15.9063V24.5008C15.9646 24.5006 16.0234 24.5006 16.082 24.5008V24.701ZM21.832 14.5555C22.2066 14.4943 22.5994 14.5507 22.9404 14.7176C23.3855 14.9324 23.7372 15.3323 23.8926 15.8016C24.0336 16.2203 24.0194 16.6894 23.8516 17.0984C23.6643 17.5613 23.2817 17.9402 22.8174 18.1238C22.4303 18.2794 21.991 18.2986 21.5918 18.1785C21.1229 18.0398 20.7157 17.7064 20.4854 17.2752C20.2726 16.8828 20.2103 16.412 20.3115 15.9773C20.4199 15.4999 20.727 15.0724 21.1426 14.8142C21.3521 14.6833 21.5881 14.5946 21.832 14.5555ZM25.8945 13.2185C26.4773 13.0149 27.1077 12.9603 27.7197 13.0281C28.1299 13.0753 28.5357 13.1771 28.9121 13.3484C29.1588 13.4617 29.3947 13.6055 29.5918 13.7937C29.8017 13.9921 29.9646 14.2544 29.9922 14.5467C29.6692 14.9576 29.3458 15.3683 29.0225 15.7791C29.0085 15.3888 28.904 15.0003 28.707 14.6619C28.467 14.2445 28.098 13.9104 27.6787 13.6785C27.1352 13.3771 26.513 13.2347 25.8945 13.2185Z" fill="#EC1B24"/>
<path d="M28.9041 17.2463C29.0962 17.2138 29.2984 17.247 29.4697 17.3402C29.6852 17.4557 29.8491 17.6631 29.9101 17.8999C29.991 18.1989 29.9016 18.536 29.6818 18.7544C29.5092 18.9313 29.2606 19.0301 29.0135 19.0195C28.7642 19.0122 28.5216 18.8929 28.3623 18.7016C28.1803 18.4883 28.11 18.1865 28.1788 17.9147C28.259 17.5738 28.5576 17.2984 28.9041 17.2463ZM28.8677 17.3981C28.608 17.4589 28.3906 17.6687 28.3212 17.9263C28.2606 18.1412 28.302 18.3821 28.4328 18.5632C28.5617 18.7457 28.7752 18.8655 28.9985 18.8776C29.2212 18.8928 29.448 18.8011 29.5978 18.6356C29.7378 18.4843 29.8103 18.2736 29.7927 18.0682C29.7762 17.8423 29.6494 17.6283 29.4606 17.5034C29.2892 17.3874 29.0686 17.349 28.8677 17.3981Z" fill="#034EA0"/>
<path d="M28.6774 17.6534C28.8522 17.6534 29.0272 17.6534 29.202 17.6531C29.3313 17.6519 29.4617 17.7488 29.4761 17.8816C29.4944 17.9889 29.4387 18.106 29.3354 18.1477C29.3838 18.1758 29.4318 18.2137 29.4402 18.2731C29.4767 18.3812 29.4088 18.5178 29.5022 18.6044C29.4259 18.6074 29.3495 18.6095 29.2734 18.6057C29.2361 18.5302 29.2531 18.4391 29.2454 18.3571C29.2414 18.3137 29.2311 18.2568 29.1812 18.245C29.082 18.2212 28.9786 18.2372 28.8777 18.2327C28.8771 18.3575 28.8789 18.4824 28.8766 18.6071C28.8101 18.6067 28.7436 18.6076 28.6774 18.6085C28.6774 18.2902 28.6775 17.9717 28.6774 17.6534ZM28.8779 17.8197C28.8776 17.9047 28.8777 17.9898 28.8781 18.0748C28.98 18.0709 29.0831 18.0831 29.1841 18.0682C29.302 18.048 29.3032 17.8545 29.189 17.8269C29.0865 17.8105 28.9813 17.8243 28.8779 17.8197Z" fill="#034EA0"/>
<path d="M12.0633 16.7202C12.0686 18.0502 12.075 19.3804 12.0799 20.7104C12.0821 20.852 12.187 20.9878 12.325 21.0229C12.4191 21.0471 12.5214 21.0282 12.6053 20.9809C12.8103 20.8772 12.8286 20.5492 12.6473 20.4136C12.5681 20.3515 12.464 20.3351 12.366 20.3345V18.3765C12.8423 18.3812 13.3154 18.5367 13.702 18.8149C14.1558 19.1385 14.4922 19.624 14.6297 20.1645C14.7246 20.5322 14.7256 20.9238 14.6307 21.2915C14.5337 21.6727 14.3372 22.0248 14.0819 22.3227C13.662 22.7702 13.0656 23.0458 12.453 23.0776C11.8155 23.1162 11.161 22.8912 10.699 22.4468C10.3351 22.1022 10.1033 21.6311 10.0203 21.1391C10.0078 21.0652 9.99529 20.9907 9.99592 20.9155C9.9966 19.5165 9.99558 18.1163 9.99592 16.7173C10.6849 16.7181 11.3744 16.7192 12.0633 16.7202ZM17.1024 18.5757V23.0395C16.4232 23.0395 15.7434 23.0397 15.0643 23.0395C15.0648 21.5514 15.0632 20.0627 15.0653 18.5747C15.7442 18.5757 16.4234 18.5752 17.1024 18.5757ZM23.2 23.0395H21.1619C21.1618 21.5517 21.1618 20.0634 21.1619 18.5757C21.8411 18.5757 22.5209 18.5755 23.2 18.5757V23.0395ZM27.1737 18.2212C27.1174 18.2886 27.0573 18.3674 27.0643 18.4604C27.0716 18.5536 27.1464 18.6225 27.2215 18.6684C27.3597 18.7504 27.5193 18.7927 27.6776 18.814C28.0105 18.8615 28.3355 18.9777 28.616 19.1645C29.0677 19.4615 29.3886 19.944 29.5028 20.4712C29.6444 21.0938 29.4949 21.7833 29.077 22.271C28.7355 22.678 28.2334 22.9248 27.7166 23.02C27.6639 23.0333 27.6103 23.0375 27.5565 23.0386H24.8651C24.8651 22.3744 24.8649 21.7096 24.8651 21.0454C25.595 21.0452 26.3256 21.0456 27.0555 21.0454C27.1112 21.0457 27.1721 21.0281 27.2049 20.98C27.2507 20.9144 27.2249 20.8167 27.16 20.7739C27.1198 20.7442 27.0682 20.7417 27.0203 20.7446C26.5105 20.7698 25.9938 20.6005 25.5975 20.2788C25.376 20.0871 25.183 19.8577 25.0545 19.5933C24.8436 19.1685 24.8285 18.6718 24.9256 18.2143C25.6748 18.2164 26.4244 18.2191 27.1737 18.2212ZM19.6697 16.688C19.6689 17.2032 19.6696 17.7186 19.6688 18.2339C19.9971 18.2351 20.3258 18.2343 20.6541 18.2349C20.6545 18.7566 20.654 19.2786 20.6541 19.8003C20.3261 19.8006 19.9977 19.8001 19.6697 19.8003C19.6697 20.0528 19.6699 20.3056 19.6697 20.5581C19.6697 20.6241 19.6658 20.6914 19.6854 20.7554C19.7241 20.8963 19.8475 21.0046 19.9852 21.0444C20.3037 21.0477 20.6225 21.0442 20.9412 21.0454C20.8477 21.7094 20.7547 22.3737 20.661 23.0376C20.2994 23.0376 19.9376 23.0374 19.576 23.0376C19.0745 23.0488 18.5759 22.842 18.2205 22.4897C17.8557 22.1331 17.6415 21.6291 17.6317 21.1196V16.687C18.3109 16.6873 18.9905 16.6863 19.6697 16.688ZM24.7381 18.23C24.5749 18.6185 24.3254 18.9644 24.0535 19.2837C23.8501 19.2845 23.6465 19.2839 23.4432 19.2837C23.6888 18.9869 23.8568 18.6188 23.8768 18.2309C24.1637 18.2309 24.4512 18.23 24.7381 18.23ZM17.5428 16.7046C17.5367 17.0018 17.4433 17.2967 17.2742 17.5415C17.0764 17.8315 16.776 18.0498 16.4383 18.147C16.0959 18.2468 15.7185 18.2228 15.3924 18.0776C15.0613 17.9326 14.7858 17.6653 14.6297 17.3393C14.534 17.1419 14.4836 16.9236 14.4783 16.7046C15.4996 16.7044 16.5215 16.7046 17.5428 16.7046ZM24.8905 13.3579C25.5083 13.3659 26.1265 13.4949 26.6903 13.7495C27.4352 14.0834 28.0838 14.6462 28.4832 15.3618C28.6117 15.591 28.7152 15.8346 28.7899 16.0864C28.3008 16.7042 27.8144 17.3242 27.325 17.9419C27.3438 17.4568 27.2886 16.967 27.1424 16.5034C26.9977 16.0403 26.763 15.6051 26.453 15.2319C26.1067 14.8133 25.6677 14.4738 25.1815 14.2329C24.57 13.9293 23.8856 13.7809 23.2039 13.7847C23.0419 13.7836 22.8801 13.7975 22.7186 13.8091C23.4008 13.511 24.1449 13.3474 24.8905 13.3579Z" fill="#034EA0"/>
</g>
<defs>
<clipPath id="clip0_1_4625">
<rect width="40" height="40" fill="white"/>
</clipPath>
</defs>
</svg>
