<svg width="40" height="40" viewBox="0 0 40 40" fill="none" xmlns="http://www.w3.org/2000/svg">
<g clip-path="url(#clip0_1_4624)">
<path d="M39.2129 11.449V11.449C40.2624 17.0781 40.2624 22.8026 39.2129 28.5271V28.5271C38.2588 33.9654 33.9654 38.2588 28.5271 39.2129V39.2129C22.898 40.2624 17.1735 40.2624 11.449 39.2129V39.2129C6.01073 38.2588 1.81276 34.0608 0.858676 28.6225V28.6225C-0.286225 22.9934 -0.286225 17.1735 0.858676 11.449V11.449C1.81276 6.01073 6.01073 1.81276 11.449 0.858676V0.858676C17.0781 -0.286225 22.898 -0.286225 28.6225 0.858676V0.858676C34.0608 1.81276 38.2588 6.01073 39.2129 11.449Z" fill="white"/>
<path fill-rule="evenodd" clip-rule="evenodd" d="M38.2293 28.3468C39.2571 22.7405 39.2565 17.1393 38.2298 11.6323L39.2129 11.449C40.2624 17.0781 40.2624 22.8026 39.2129 28.5271L38.2293 28.3468ZM28.5271 39.2129C33.9654 38.2588 38.2588 33.9654 39.2129 28.5271L38.2279 28.3543C37.3466 33.3779 33.3779 37.3466 28.3543 38.2279L28.5271 39.2129ZM11.449 39.2129C17.1735 40.2624 22.898 40.2624 28.5271 39.2129L28.3438 38.2298C22.8369 39.2565 17.2356 39.2571 11.6293 38.2293L11.449 39.2129ZM28.6225 0.858676L28.4497 1.84363C33.4733 2.72496 37.3466 6.59823 38.2279 11.6218L39.2129 11.449C38.2588 6.01073 34.0608 1.81276 28.6225 0.858676ZM11.449 0.858676C17.0781 -0.286225 22.898 -0.286225 28.6225 0.858676L28.4264 1.83926C22.8303 0.720026 17.1448 0.720683 11.6483 1.83861L11.449 0.858676ZM0.858676 11.449C1.81276 6.01073 6.01073 1.81276 11.449 0.858676L11.6218 1.84363C6.59823 2.72496 2.72496 6.59823 1.84363 11.6218L0.858676 11.449ZM0.858676 11.449L1.83926 11.6451C0.720026 17.2413 0.720683 22.9267 1.83861 28.4232L0.858676 28.6225C-0.286225 22.9934 -0.286225 17.1735 0.858676 11.449ZM0.858676 28.6225C1.81276 34.0608 6.01073 38.2588 11.449 39.2129L11.6218 38.2279C6.59823 37.3466 2.72496 33.4733 1.84363 28.4497L0.858676 28.6225Z" fill="#EEF4FE"/>
<path d="M7.55554 12.5334C7.55554 9.78429 9.78417 7.55566 12.5333 7.55566H27.4667C30.2158 7.55566 32.4444 9.78429 32.4444 12.5334V27.4668C32.4444 30.2159 30.2158 32.4446 27.4667 32.4446H12.5333C9.78417 32.4446 7.55554 30.2159 7.55554 27.4668V12.5334Z" fill="#F6F7F8"/>
<path d="M14.1768 14.7982C14.0838 14.2437 14.6214 13.7096 15.1733 13.7857C15.6773 13.8282 16.0812 14.3553 15.966 14.8531C15.92 15.1356 15.6994 15.3385 15.4762 15.4944C15.749 15.6467 16.0334 15.8345 16.1326 16.1499C16.3638 16.8638 16.68 17.5476 16.9014 18.2651C17.0812 17.8018 17.2672 17.3403 17.4196 16.8664C17.618 16.3456 17.7588 15.6946 18.3585 15.4944C17.7447 15.2384 17.6499 14.2844 18.2318 13.9434C18.7261 13.5545 19.5702 13.9053 19.6252 14.5351C19.704 14.9337 19.4764 15.319 19.122 15.4962C19.5561 15.6467 19.7917 16.0551 19.9175 16.4723C20.1309 17.0728 20.3435 17.6734 20.5827 18.2651C20.813 17.56 21.1062 16.878 21.34 16.1747C21.4428 15.8531 21.7218 15.6432 22.0097 15.4962C21.767 15.3314 21.5402 15.0993 21.5119 14.792C21.4277 14.2632 21.9122 13.7459 22.4437 13.7813C22.9805 13.7884 23.4411 14.3535 23.2949 14.8823C23.2453 15.156 23.0168 15.3349 22.8113 15.4962C23.0425 15.6405 23.3126 15.7787 23.4163 16.0489C23.6979 16.7841 23.9646 17.5246 24.2365 18.2624C24.5412 17.5219 24.7626 16.7504 25.0886 16.0188C25.1878 15.7539 25.4518 15.6264 25.6821 15.4979C25.4092 15.3252 25.1497 15.0612 25.163 14.714C25.1045 14.0816 25.8601 13.5776 26.4252 13.8566C26.8619 14.0213 27.0834 14.5617 26.9115 14.9904C26.8495 15.2233 26.6493 15.3695 26.458 15.4935C27.0125 15.691 27.1976 16.2783 27.3588 16.7858C27.8168 18.0472 28.2924 19.3014 28.7486 20.5636C28.8797 20.9304 29.0941 21.2979 29.0241 21.7019C28.9373 22.3476 28.2074 22.7922 27.5909 22.5965C27.2818 22.492 26.9797 22.282 26.8663 21.964C26.6103 21.2466 26.3207 20.5415 26.0771 19.8196C25.7804 20.5247 25.5696 21.2607 25.2684 21.964C25.0487 22.5655 24.2391 22.8224 23.6953 22.4991C23.2958 22.3122 23.1523 21.864 23.015 21.4804C22.8317 20.9162 22.6058 20.367 22.3985 19.8107C22.1709 20.5123 21.8803 21.1908 21.6465 21.8905C21.4481 22.476 20.7253 22.8073 20.1549 22.5593C19.9334 22.4512 19.6996 22.3157 19.595 22.0819C19.2779 21.3378 19.0352 20.5654 18.7421 19.8125C18.4303 20.5902 18.1991 21.4007 17.843 22.1607C17.5223 22.6177 16.8447 22.7852 16.3576 22.4955C16.0298 22.3334 15.8571 21.9924 15.749 21.6602C15.555 21.0375 15.2849 20.4423 15.0847 19.8223C14.8633 20.4024 14.6276 20.9782 14.4363 21.5699C14.3141 21.9366 14.1458 22.3405 13.7684 22.5088C13.1945 22.8374 12.3521 22.5203 12.1785 21.871C12.0102 21.4592 12.2378 21.0464 12.3592 20.6567C12.9376 19.1314 13.4859 17.5954 14.0563 16.0675C14.1626 15.792 14.431 15.6432 14.6684 15.4979C14.4416 15.3208 14.2034 15.1046 14.1768 14.7982ZM14.8695 14.0559C14.4257 14.1516 14.2911 14.7432 14.54 15.0852C14.8013 15.4173 15.3708 15.4067 15.6268 15.0728C15.7853 14.8168 15.7756 14.4563 15.5799 14.2233C15.3947 14.0506 15.1122 13.9753 14.8695 14.0559ZM18.5011 14.0639C18.0219 14.2056 17.913 14.9248 18.3319 15.1985C18.6995 15.497 19.3346 15.2703 19.4037 14.7946C19.5162 14.3021 18.9555 13.8699 18.5011 14.0639ZM22.2178 14.0515C21.6571 14.148 21.5721 15.0382 22.0876 15.2526C22.4579 15.4616 23.0079 15.2446 23.062 14.8017C23.1771 14.3252 22.6749 13.8902 22.2178 14.0515ZM25.8539 14.0559C25.38 14.1799 25.2436 14.8664 25.6227 15.1693C26.0063 15.528 26.7406 15.2526 26.7476 14.7122C26.791 14.2499 26.2738 13.9053 25.8539 14.0559ZM14.5966 15.7955C14.2025 16.0754 14.1245 16.5901 13.9589 17.0126C13.4345 18.4112 12.9367 19.8196 12.4035 21.2147C12.2706 21.5344 12.3618 21.9136 12.6099 22.1501C13.0085 22.5752 13.8437 22.4592 14.0484 21.8905C14.4213 20.9826 14.7198 20.0472 15.0838 19.1358C15.416 20.0446 15.7331 20.9605 16.0909 21.8595C16.2885 22.4796 17.2221 22.5965 17.5985 22.0863C17.8554 21.7373 17.9121 21.2917 18.0866 20.9029C18.3311 20.3333 18.4745 19.7248 18.7536 19.1703C19.0645 20.0171 19.3931 20.8577 19.6774 21.7143C19.7297 21.8604 19.8067 22.0004 19.9104 22.1182C20.2921 22.5867 21.1735 22.4743 21.3816 21.8879C21.7404 20.9773 22.0734 20.0543 22.395 19.1305C22.7776 20.0596 23.0699 21.0242 23.4623 21.9499C23.7467 22.5735 24.7679 22.546 25.0399 21.9215C25.3986 20.9986 25.7166 20.0588 26.0753 19.1349C26.365 19.9852 26.7113 20.8134 26.9965 21.6647C27.1144 22.0385 27.4129 22.4122 27.8407 22.4007C28.4466 22.4929 28.9727 21.8099 28.7468 21.2475C28.249 19.8409 27.7069 18.4502 27.2091 17.0436C27.0727 16.7105 26.9717 16.3607 26.8026 16.0427C26.5067 15.5741 25.7299 15.5511 25.388 15.9798C25.1781 16.2455 25.1285 16.5927 24.9991 16.8983C24.7245 17.5742 24.5093 18.2722 24.2356 18.948C24.0292 18.413 23.86 17.8647 23.6412 17.3341C23.4659 16.9125 23.3764 16.4537 23.1426 16.0577C22.8131 15.4979 21.8352 15.5608 21.6057 16.1809C21.2187 17.1322 20.8989 18.1109 20.5269 19.0685C20.5712 18.9188 20.518 18.7735 20.464 18.6353C20.1363 17.8089 19.8643 16.9612 19.5286 16.1383C19.2523 15.5174 18.223 15.5236 17.9493 16.1454C17.5826 17.0711 17.2672 18.0153 16.9067 18.9436C16.6755 18.2358 16.3735 17.5547 16.1405 16.8478C16.0316 16.5564 15.9457 16.2499 15.765 15.9931C15.5099 15.6308 14.9642 15.598 14.5966 15.7955Z" fill="#FDFDFE"/>
<path d="M16.6119 13.8336C17.1478 13.6175 17.8024 14.0604 17.821 14.6317C17.8635 15.1791 17.3011 15.668 16.7652 15.5617C16.4117 15.5086 16.1088 15.2296 16.0317 14.8797C15.9193 14.4501 16.1885 13.9674 16.6119 13.8336ZM16.7253 14.0506C16.3143 14.1312 16.1017 14.6432 16.3134 14.9984C16.5614 15.4563 17.3471 15.4377 17.5269 14.9284C17.7572 14.4412 17.2311 13.8681 16.7253 14.0506Z" fill="#FDFDFE"/>
<path d="M11.2406 23.8722C11.3336 23.6047 11.6897 23.5002 11.9253 23.6437C12.0998 23.7314 12.1556 23.9324 12.2406 24.0919C12.3106 23.8005 12.5515 23.5064 12.8855 23.5888C13.2983 23.6977 13.3479 24.1955 13.4763 24.5339C13.7624 23.812 14.8776 23.6641 15.3001 24.3328C15.681 23.8589 16.4782 23.7296 16.9397 24.1521C17.3374 23.8315 17.9503 23.8182 18.3764 24.0875C18.7705 24.4152 18.6713 24.9741 18.682 25.4259C18.7068 25.6482 18.6111 25.8856 18.395 25.9759C17.9503 26.1256 17.4375 26.1088 17.0291 25.8625C16.4994 26.1912 15.7474 26.1513 15.3098 25.6845C15.2452 25.7881 15.1805 25.8909 15.1159 25.9945C14.6703 26.1017 14.1787 26.1212 13.7792 25.8617C13.6154 25.9635 13.4444 26.123 13.2345 26.0636C12.9785 26.0353 12.8837 25.7766 12.788 25.5764C12.7039 25.8466 12.4771 26.1203 12.1636 26.0689C11.8943 26.0494 11.7756 25.7926 11.6932 25.5738C11.5993 25.7589 11.509 25.9892 11.2858 26.0494C11.0395 26.1416 10.7844 25.9857 10.6666 25.7704V25.4223C10.8332 24.8971 11.0422 24.386 11.2406 23.8722ZM11.4718 23.9351C11.3115 24.215 11.2477 24.5365 11.1299 24.835C11.044 25.0875 10.9146 25.3275 10.8659 25.5915C10.8677 25.8129 11.1999 25.9219 11.3345 25.7439C11.4868 25.4684 11.5675 25.1601 11.6861 24.8705C11.7907 25.1406 11.8686 25.4223 11.9926 25.6845C12.067 25.8643 12.3576 25.8856 12.4515 25.7102C12.5852 25.4471 12.6543 25.1539 12.796 24.8935C12.9165 25.1699 12.9749 25.4701 13.1158 25.7368C13.2717 25.9432 13.6703 25.7864 13.5782 25.5233C13.4214 24.9954 13.2283 24.4754 13.0086 23.9705C12.9413 23.7721 12.6419 23.7739 12.556 23.9546C12.4151 24.2186 12.3398 24.5109 12.238 24.7908C12.1202 24.5091 12.0422 24.2088 11.8934 23.9413C11.8137 23.7774 11.5595 23.7836 11.4718 23.9351ZM13.7234 25.3789C13.9068 25.8811 14.5605 25.9015 14.991 25.7563C15.1965 25.6517 15.0583 25.2983 14.8333 25.363C14.5853 25.3966 14.3257 25.394 14.1619 25.1752C14.4657 25.1539 14.7722 25.1832 15.0751 25.1442C15.4055 24.75 14.9865 24.0662 14.4763 24.1211C13.8377 24.0715 13.4789 24.8483 13.7234 25.3789ZM15.6181 24.3514C15.2461 24.7084 15.2833 25.4073 15.7013 25.712C16.0397 25.8811 16.4667 25.8687 16.8086 25.7191C16.898 25.5215 16.8626 25.2859 16.844 25.076C16.8192 24.9006 16.5853 24.8368 16.4525 24.9343C16.293 25.0326 16.3488 25.2549 16.301 25.409C16.0202 25.3709 15.8298 25.1167 15.9299 24.8386C15.9928 24.5215 16.3648 24.6109 16.5977 24.5888C16.8094 24.5773 16.8032 24.2318 16.6128 24.1831C16.2868 24.0733 15.8714 24.0928 15.6181 24.3514ZM17.3126 24.1814C17.1505 24.2132 17.1071 24.4444 17.2293 24.5472C17.48 24.6163 17.7909 24.4754 17.9849 24.7057C17.7271 24.7527 17.4295 24.7146 17.2142 24.8926C16.9255 25.1008 16.9884 25.6305 17.3276 25.7518C17.6669 25.8634 18.0664 25.8617 18.3914 25.7146C18.4774 25.5481 18.4286 25.3426 18.4446 25.1601C18.426 24.8714 18.5004 24.5171 18.2639 24.2965C18.0035 24.0777 17.6217 24.0883 17.3126 24.1814ZM16.8785 24.5888C16.7306 24.6774 16.8971 24.8793 17.0247 24.7854C17.1788 24.704 17.0008 24.4985 16.8785 24.5888Z" fill="#FDFDFE"/>
<path d="M19.5146 23.9065C19.5935 23.6089 19.985 23.4796 20.233 23.6523C20.4004 23.7453 20.4509 23.9411 20.5297 24.1005C20.6086 23.9349 20.6546 23.7205 20.8362 23.6328C21.078 23.4946 21.4093 23.6124 21.52 23.8649C21.6715 24.1873 21.7716 24.5301 21.885 24.8676C21.9337 24.8162 21.9824 24.7639 22.0311 24.7134C21.8885 24.5239 21.8327 24.2227 22.0444 24.0606C22.4572 23.8188 22.9966 23.864 23.4041 24.097L23.4386 24.0367C23.9612 23.8596 24.5653 23.8241 25.0587 24.1085C25.3031 23.8543 25.6911 23.8649 25.9347 24.1156C26.1854 23.8569 26.5822 23.8773 26.8258 24.1368C27.2315 23.8392 27.7913 23.8286 28.2067 24.112C28.2652 24.0544 28.3236 23.9977 28.3821 23.9411C28.8763 23.9393 29.3706 23.9446 29.8658 23.9375C30.011 24.0722 30.1474 24.2369 30.1023 24.4513C30.1102 24.7196 29.8312 24.8215 29.616 24.8676C29.6107 25.1404 29.6328 25.4141 29.6018 25.686C29.5327 26.0448 29.0296 26.1794 28.778 25.9216C28.445 25.6258 28.7231 25.1386 28.5477 24.7781C28.5114 24.9659 28.5194 25.1776 28.3316 25.2883C28.4405 25.5346 28.4025 25.8304 28.1651 25.9845C27.7302 26.1254 27.2306 26.1112 26.8426 25.8508C26.5946 26.1316 26.1561 26.0961 25.9471 25.7888C25.7673 26.0616 25.4032 26.1333 25.1402 25.9323C24.8851 26.1041 24.5635 26.0678 24.3483 25.849C24.133 26.0837 23.7805 26.1218 23.5369 25.9048C23.0737 26.1245 22.4917 26.1448 22.0444 25.8729C21.8788 25.996 21.6795 26.136 21.4633 26.0456C21.2348 25.989 21.1639 25.7401 21.0727 25.554C21.008 25.8525 20.7379 26.1475 20.4075 26.0563C20.1533 26.0182 20.0585 25.7622 19.9814 25.5532C19.9017 25.7392 19.8185 25.9553 19.6112 26.0315C19.2835 26.1918 18.8769 25.8747 18.9353 25.5204C19.0797 24.9668 19.3127 24.4406 19.5146 23.9065ZM19.6847 24.0757C19.5253 24.5602 19.3295 25.0332 19.1683 25.5168C19.0629 25.7773 19.5102 25.9571 19.636 25.717C19.7751 25.4433 19.8592 25.1466 19.9859 24.8676C20.0815 25.1315 20.1542 25.4043 20.2693 25.6612C20.3366 25.8614 20.6768 25.8977 20.7529 25.686C20.8734 25.4167 20.9638 25.1342 21.0833 24.8649C21.1905 25.1404 21.2614 25.43 21.3854 25.6984C21.4943 25.9066 21.8531 25.8534 21.8841 25.6107C21.7556 25.0518 21.5191 24.5221 21.3092 23.9898C21.2614 23.81 21.0275 23.7621 20.8947 23.8808C20.7104 24.1457 20.6688 24.4805 20.5386 24.7719C20.3791 24.4769 20.3242 24.1271 20.1196 23.8587C19.9398 23.7338 19.7281 23.8897 19.6847 24.0757ZM22.2729 24.1908C22.1064 24.2378 22.094 24.5266 22.2738 24.5646C22.5147 24.5886 22.7946 24.5017 22.9842 24.701C22.7176 24.7551 22.4022 24.7099 22.1852 24.9048C21.8929 25.1351 21.9975 25.686 22.3677 25.7719C22.707 25.8561 23.1011 25.8641 23.4147 25.6931C23.4545 25.3149 23.4643 24.926 23.4058 24.5496C23.2623 24.0854 22.66 24.0473 22.2729 24.1908ZM23.6662 24.2812C23.6299 24.7214 23.6397 25.167 23.6592 25.6081C23.6751 25.8348 24.0259 25.8835 24.1446 25.702C24.1888 25.5346 24.1915 25.3601 24.2181 25.19C24.4191 25.3193 24.475 25.562 24.6069 25.7471C24.7664 25.8968 25.0976 25.756 25.0489 25.523C25.0002 25.3857 24.9276 25.26 24.8611 25.1315C24.9976 24.9411 25.1225 24.6966 25.0064 24.4637C24.8532 24.1377 24.4404 24.1058 24.126 24.1209C23.9692 24.1395 23.7477 24.1085 23.6662 24.2812ZM25.2243 24.3751C25.2057 24.7852 25.2048 25.1971 25.2261 25.6072C25.2482 25.8366 25.6265 25.888 25.7265 25.686C25.7682 25.4761 25.7549 25.2591 25.7744 25.0465C26.0295 25.2228 26.0693 25.5585 26.2686 25.7799C26.4414 25.872 26.7266 25.7471 26.6779 25.5275C26.6079 25.3131 26.4812 25.1227 26.3811 24.9216C26.4653 24.7666 26.5609 24.6169 26.6203 24.4495C26.6929 24.2272 26.3528 24.0243 26.204 24.205C26.0569 24.4087 25.9657 24.6461 25.832 24.8587C25.7416 24.6789 25.7611 24.4743 25.7257 24.2821C25.6406 24.0296 25.2243 24.12 25.2243 24.3751ZM26.9409 25.6214C27.2315 25.8676 27.6682 25.8747 28.018 25.7675C28.2466 25.7206 28.1633 25.3308 27.9401 25.3645C27.6912 25.3787 27.4024 25.4265 27.2492 25.1758C27.5627 25.1165 27.9383 25.2564 28.2138 25.0793C28.4512 24.5965 27.9188 23.9836 27.3962 24.1315C26.7133 24.213 26.5539 25.1537 26.9409 25.6214ZM28.3945 24.5336C28.5238 24.6346 28.701 24.5965 28.8533 24.6222C28.8604 24.9677 28.8276 25.3149 28.871 25.6577C28.9561 25.8614 29.2501 25.8596 29.3688 25.6869C29.4184 25.3344 29.3848 24.9756 29.3919 24.6204C29.5575 24.5824 29.8241 24.6638 29.8852 24.4486C29.9242 24.2909 29.7825 24.143 29.6248 24.1652C29.2395 24.1563 28.8507 24.1395 28.4671 24.1829C28.3635 24.2732 28.3157 24.4079 28.3945 24.5336Z" fill="#FDFDFE"/>
<path d="M14.1575 24.7789C14.2363 24.6709 14.3134 24.499 14.4808 24.5415C14.6198 24.5265 14.6579 24.6939 14.7403 24.7727C14.5463 24.7816 14.3515 24.7842 14.1575 24.7789Z" fill="#FDFDFE"/>
<path d="M24.1836 24.53C24.2828 24.5814 24.5175 24.5522 24.4892 24.7169C24.5343 24.9136 24.32 24.9543 24.1862 25.0083C24.1836 24.848 24.1827 24.6886 24.1836 24.53Z" fill="#FDFDFE"/>
<path d="M27.2351 24.7728C27.3175 24.6931 27.3547 24.5274 27.4938 24.5425C27.6647 24.4929 27.7409 24.6701 27.8215 24.779C27.6257 24.7834 27.4309 24.7817 27.2351 24.7728Z" fill="#FDFDFE"/>
<path d="M17.4321 25.2458C17.5783 25.1298 17.7554 25.0758 17.9397 25.0598C17.9397 25.1909 17.9397 25.3229 17.9397 25.454C17.7483 25.4442 17.5544 25.4115 17.4321 25.2458Z" fill="#FDFDFE"/>
<path d="M22.4723 25.2475C22.5467 25.0624 22.7761 25.1022 22.9355 25.0659C22.9364 25.1926 22.9373 25.3192 22.9382 25.4468C22.7717 25.4264 22.5104 25.4698 22.4723 25.2475Z" fill="#FDFDFE"/>
<path d="M14.8697 14.056C15.1124 13.9754 15.395 14.0507 15.5801 14.2234C15.7758 14.4564 15.7856 14.8169 15.627 15.0729C15.371 15.4068 14.8015 15.4175 14.5402 15.0853C14.2913 14.7434 14.4259 14.1517 14.8697 14.056Z" fill="#EA2030"/>
<path d="M16.7254 14.0508C17.2311 13.8683 17.7573 14.4414 17.527 14.9286C17.3472 15.4379 16.5615 15.4565 16.3135 14.9986C16.1018 14.6434 16.3144 14.1314 16.7254 14.0508Z" fill="#EA2030"/>
<path d="M18.5011 14.064C18.9555 13.87 19.5162 14.3023 19.4037 14.7948C19.3346 15.2704 18.6995 15.4972 18.3319 15.1987C17.9129 14.925 18.0219 14.2058 18.5011 14.064Z" fill="#EA2030"/>
<path d="M14.5967 15.7957C14.9643 15.5982 15.5099 15.6309 15.765 15.9932C15.9457 16.2501 16.0316 16.5566 16.1406 16.848C16.3735 17.5548 16.6756 18.236 16.9067 18.9437C17.2673 18.0154 17.5826 17.0712 17.9493 16.1456C18.223 15.5238 19.2523 15.5176 19.5286 16.1385C19.8643 16.9614 20.1363 17.809 20.464 18.6355C20.518 18.7737 20.5712 18.9189 20.5269 19.0686C20.363 19.5266 20.1797 19.9774 20.0264 20.4398C19.8883 20.857 19.6482 21.2591 19.6774 21.7144C19.3931 20.8579 19.0645 20.0173 18.7536 19.1705C18.4746 19.725 18.3311 20.3335 18.0866 20.903C17.9121 21.2919 17.8554 21.7374 17.5985 22.0864C17.2221 22.5966 16.2885 22.4797 16.091 21.8597C15.7331 20.9606 15.416 20.0447 15.0838 19.1359C14.7198 20.0474 14.4213 20.9828 14.0484 21.8907C13.8438 22.4593 13.0085 22.5754 12.6099 22.1502C12.3619 21.9137 12.2706 21.5346 12.4035 21.2148C12.9367 19.8197 13.4345 18.4114 13.9589 17.0127C14.1245 16.5902 14.2025 16.0756 14.5967 15.7957Z" fill="#EA2030"/>
<path d="M11.4717 23.935C11.5594 23.7835 11.8136 23.7773 11.8933 23.9412C12.0421 24.2087 12.1201 24.509 12.2379 24.7906C12.3398 24.5107 12.4151 24.2184 12.5559 23.9545C12.6418 23.7738 12.9412 23.772 13.0085 23.9704C13.2282 24.4753 13.4213 24.9952 13.5781 25.5232C13.6702 25.7862 13.2716 25.943 13.1157 25.7366C12.9749 25.47 12.9164 25.1697 12.7959 24.8934C12.6542 25.1538 12.5851 25.447 12.4514 25.7101C12.3575 25.8854 12.0669 25.8642 11.9925 25.6844C11.8685 25.4222 11.7906 25.1405 11.6861 24.8703C11.5674 25.16 11.4868 25.4682 11.3344 25.7437C11.1998 25.9218 10.8676 25.8128 10.8658 25.5914C10.9146 25.3274 11.0439 25.0874 11.1298 24.8349C11.2476 24.5364 11.3114 24.2149 11.4717 23.935Z" fill="#EA2030"/>
<path d="M13.7234 25.3788C13.4789 24.8483 13.8376 24.0714 14.4763 24.121C14.9865 24.0661 15.4054 24.7499 15.0751 25.1441C14.7721 25.1831 14.4656 25.1538 14.1618 25.1751C14.3257 25.3939 14.5852 25.3965 14.8332 25.3629C15.0582 25.2982 15.1964 25.6516 14.9909 25.7562C14.5604 25.9014 13.9067 25.8811 13.7234 25.3788ZM14.1574 24.7792C14.3514 24.7845 14.5462 24.7818 14.7402 24.773C14.6579 24.6941 14.6198 24.5267 14.4807 24.5418C14.3133 24.4993 14.2362 24.6711 14.1574 24.7792Z" fill="#EA2030"/>
<path d="M15.6183 24.3514C15.8716 24.0928 16.2871 24.0733 16.613 24.1831C16.8035 24.2318 16.8097 24.5773 16.598 24.5888C16.365 24.6109 15.993 24.5215 15.9301 24.8386C15.83 25.1167 16.0205 25.3709 16.3012 25.409C16.3491 25.2549 16.2933 25.0326 16.4527 24.9342C16.5856 24.8368 16.8194 24.9006 16.8442 25.076C16.8628 25.2859 16.8983 25.5215 16.8088 25.719C16.4669 25.8687 16.0399 25.8811 15.7016 25.712C15.2835 25.4073 15.2463 24.7084 15.6183 24.3514Z" fill="#EA2030"/>
<path d="M17.3126 24.1814C17.6218 24.0884 18.0035 24.0777 18.2639 24.2965C18.5005 24.5171 18.426 24.8714 18.4446 25.1602C18.4287 25.3426 18.4774 25.5481 18.3915 25.7146C18.0664 25.8617 17.6669 25.8635 17.3277 25.7519C16.9884 25.6305 16.9256 25.1008 17.2143 24.8927C17.4296 24.7146 17.7272 24.7527 17.9849 24.7058C17.7909 24.4755 17.48 24.6163 17.2294 24.5472C17.1071 24.4444 17.1505 24.2133 17.3126 24.1814ZM17.4322 25.2461C17.5544 25.4117 17.7484 25.4445 17.9398 25.4542C17.9398 25.3231 17.9398 25.1912 17.9398 25.0601C17.7555 25.076 17.5784 25.13 17.4322 25.2461Z" fill="#EA2030"/>
<path d="M22.2179 14.0516C22.675 13.8903 23.1772 14.3253 23.0621 14.8018C23.008 15.2447 22.458 15.4617 22.0877 15.2527C21.5722 15.0383 21.6573 14.1481 22.2179 14.0516Z" fill="#0672BA"/>
<path d="M25.8539 14.0561C26.2738 13.9055 26.7911 14.2501 26.7477 14.7124C26.7406 15.2527 26.0063 15.5282 25.6227 15.1695C25.2436 14.8665 25.38 14.1801 25.8539 14.0561Z" fill="#0672BA"/>
<path d="M21.6059 16.181C21.8354 15.5609 22.8132 15.498 23.1427 16.0578C23.3766 16.4538 23.4661 16.9126 23.6414 17.3342C23.8602 17.8648 24.0294 18.4131 24.2358 18.9481C24.5095 18.2723 24.7247 17.5743 24.9993 16.8984C25.1286 16.5928 25.1782 16.2456 25.3882 15.9799C25.7301 15.5512 26.5069 15.5742 26.8028 16.0428C26.9719 16.3608 27.0729 16.7106 27.2093 17.0437C27.7071 18.4503 28.2492 19.841 28.747 21.2476C28.9729 21.81 28.4467 22.493 27.8409 22.4008C27.413 22.4123 27.1145 22.0386 26.9967 21.6648C26.7115 20.8135 26.3652 19.9853 26.0755 19.135C25.7168 20.0589 25.3988 20.9987 25.0401 21.9216C24.7681 22.5461 23.7468 22.5736 23.4625 21.95C23.0701 21.0243 22.7778 20.0597 22.3952 19.1306C22.0736 20.0544 21.7406 20.9774 21.3818 21.888C21.1737 22.4743 20.2923 22.5868 19.9106 22.1183C19.8069 22.0005 19.7299 21.8605 19.6776 21.7144C19.6484 21.2591 19.8884 20.8569 20.0266 20.4397C20.1798 19.9774 20.3632 19.5265 20.5271 19.0686C20.8991 18.111 21.2189 17.1323 21.6059 16.181Z" fill="#0672BA"/>
<path d="M19.6847 24.0759C19.7281 23.8899 19.9398 23.734 20.1196 23.8589C20.3242 24.1273 20.3791 24.4772 20.5386 24.7721C20.6688 24.4807 20.7104 24.1459 20.8946 23.881C21.0275 23.7624 21.2614 23.8102 21.3092 23.99C21.5191 24.5223 21.7556 25.052 21.884 25.611C21.853 25.8537 21.4943 25.9068 21.3854 25.6986C21.2614 25.4303 21.1905 25.1406 21.0833 24.8651C20.9637 25.1344 20.8734 25.417 20.7529 25.6862C20.6767 25.8979 20.3366 25.8616 20.2693 25.6614C20.1541 25.4046 20.0815 25.1318 19.9858 24.8678C19.8592 25.1468 19.775 25.4435 19.636 25.7172C19.5102 25.9573 19.0629 25.7775 19.1683 25.5171C19.3295 25.0334 19.5252 24.5604 19.6847 24.0759Z" fill="#0672BA"/>
<path d="M22.273 24.1909C22.6601 24.0474 23.2624 24.0855 23.4059 24.5497C23.4644 24.9261 23.4546 25.315 23.4148 25.6932C23.1012 25.8641 22.707 25.8562 22.3678 25.772C21.9975 25.6861 21.893 25.1351 22.1853 24.9048C22.4023 24.71 22.7177 24.7552 22.9843 24.7011C22.7947 24.5018 22.5148 24.5886 22.2739 24.5647C22.0941 24.5266 22.1065 24.2379 22.273 24.1909ZM22.4723 25.2476C22.5104 25.47 22.7717 25.4266 22.9382 25.4469C22.9373 25.3194 22.9365 25.1927 22.9356 25.0661C22.7761 25.1024 22.5467 25.0625 22.4723 25.2476Z" fill="#0672BA"/>
<path d="M23.6661 24.2815C23.7476 24.1087 23.969 24.1397 24.1258 24.1211C24.4402 24.1061 24.853 24.138 25.0063 24.4639C25.1223 24.6969 24.9974 24.9414 24.861 25.1318C24.9274 25.2602 25.0001 25.386 25.0488 25.5233C25.0975 25.7563 24.7662 25.8971 24.6068 25.7474C24.4748 25.5623 24.419 25.3196 24.2179 25.1903C24.1913 25.3603 24.1887 25.5348 24.1444 25.7022C24.0257 25.8838 23.6749 25.8351 23.659 25.6083C23.6395 25.1672 23.6298 24.7217 23.6661 24.2815ZM24.1834 24.5304C24.1825 24.6889 24.1834 24.8483 24.186 25.0087C24.3198 24.9546 24.5341 24.9139 24.489 24.7173C24.5173 24.5525 24.2826 24.5817 24.1834 24.5304Z" fill="#0672BA"/>
<path d="M25.2243 24.3752C25.2243 24.1201 25.6406 24.0298 25.7256 24.2822C25.761 24.4744 25.7416 24.6791 25.8319 24.8589C25.9657 24.6463 26.0569 24.4089 26.2039 24.2052C26.3527 24.0245 26.6929 24.2273 26.6202 24.4496C26.5609 24.6171 26.4652 24.7668 26.3811 24.9218C26.4812 25.1228 26.6078 25.3133 26.6778 25.5276C26.7265 25.7473 26.4413 25.8722 26.2686 25.7801C26.0693 25.5586 26.0294 25.2229 25.7743 25.0467C25.7548 25.2592 25.7681 25.4763 25.7265 25.6862C25.6264 25.8881 25.2482 25.8368 25.226 25.6073C25.2048 25.1972 25.2057 24.7854 25.2243 24.3752Z" fill="#0672BA"/>
<path d="M26.941 25.6215C26.5539 25.1538 26.7134 24.2131 27.3963 24.1316C27.9189 23.9837 28.4513 24.5966 28.2139 25.0794C27.9384 25.2565 27.5628 25.1166 27.2493 25.1759C27.4025 25.4266 27.6913 25.3788 27.9402 25.3646C28.1634 25.3309 28.2467 25.7207 28.0181 25.7676C27.6682 25.8748 27.2316 25.8677 26.941 25.6215ZM27.2351 24.7729C27.4309 24.7818 27.6257 24.7835 27.8215 24.7791C27.7409 24.6701 27.6647 24.493 27.4937 24.5426C27.3547 24.5275 27.3175 24.6932 27.2351 24.7729Z" fill="#0672BA"/>
<path d="M28.3946 24.5338C28.3158 24.408 28.3636 24.2733 28.4673 24.183C28.8508 24.1396 29.2396 24.1564 29.625 24.1653C29.7826 24.1431 29.9243 24.2911 29.8854 24.4487C29.8243 24.664 29.5576 24.5825 29.392 24.6206C29.3849 24.9758 29.4186 25.3345 29.369 25.687C29.2503 25.8598 28.9562 25.8615 28.8712 25.6578C28.8278 25.315 28.8605 24.9678 28.8534 24.6223C28.7011 24.5967 28.5239 24.6347 28.3946 24.5338Z" fill="#0672BA"/>
</g>
<defs>
<clipPath id="clip0_1_4624">
<rect width="40" height="40" fill="white"/>
</clipPath>
</defs>
</svg>
