<svg width="40" height="40" viewBox="0 0 40 40" fill="none" xmlns="http://www.w3.org/2000/svg">
<g clip-path="url(#clip0_1_4622)">
<path d="M39.2129 11.449V11.449C40.2624 17.0781 40.2624 22.8026 39.2129 28.5271V28.5271C38.2588 33.9654 33.9654 38.2588 28.5271 39.2129V39.2129C22.898 40.2624 17.1735 40.2624 11.449 39.2129V39.2129C6.01073 38.2588 1.81276 34.0608 0.858676 28.6225V28.6225C-0.286225 22.9934 -0.286225 17.1735 0.858676 11.449V11.449C1.81276 6.01073 6.01073 1.81276 11.449 0.858676V0.858676C17.0781 -0.286225 22.898 -0.286225 28.6225 0.858676V0.858676C34.0608 1.81276 38.2588 6.01073 39.2129 11.449Z" fill="white"/>
<path fill-rule="evenodd" clip-rule="evenodd" d="M38.2293 28.3468C39.2571 22.7405 39.2565 17.1393 38.2298 11.6323L39.2129 11.449C40.2624 17.0781 40.2624 22.8026 39.2129 28.5271L38.2293 28.3468ZM28.5271 39.2129C33.9654 38.2588 38.2588 33.9654 39.2129 28.5271L38.2279 28.3543C37.3466 33.3779 33.3779 37.3466 28.3543 38.2279L28.5271 39.2129ZM11.449 39.2129C17.1735 40.2624 22.898 40.2624 28.5271 39.2129L28.3438 38.2298C22.8369 39.2565 17.2356 39.2571 11.6293 38.2293L11.449 39.2129ZM28.6225 0.858676L28.4497 1.84363C33.4733 2.72496 37.3466 6.59823 38.2279 11.6218L39.2129 11.449C38.2588 6.01073 34.0608 1.81276 28.6225 0.858676ZM11.449 0.858676C17.0781 -0.286225 22.898 -0.286225 28.6225 0.858676L28.4264 1.83926C22.8303 0.720026 17.1448 0.720683 11.6483 1.83861L11.449 0.858676ZM0.858676 11.449C1.81276 6.01073 6.01073 1.81276 11.449 0.858676L11.6218 1.84363C6.59823 2.72496 2.72496 6.59823 1.84363 11.6218L0.858676 11.449ZM0.858676 11.449L1.83926 11.6451C0.720026 17.2413 0.720683 22.9267 1.83861 28.4232L0.858676 28.6225C-0.286225 22.9934 -0.286225 17.1735 0.858676 11.449ZM0.858676 28.6225C1.81276 34.0608 6.01073 38.2588 11.449 39.2129L11.6218 38.2279C6.59823 37.3466 2.72496 33.4733 1.84363 28.4497L0.858676 28.6225Z" fill="#EEF4FE"/>
<path fill-rule="evenodd" clip-rule="evenodd" d="M12.5338 7.55566C9.78466 7.55566 7.55603 9.78429 7.55603 12.5334V27.4668C7.55603 30.2159 9.78466 32.4446 12.5338 32.4446H27.4671C30.2163 32.4446 32.4449 30.2159 32.4449 27.4668V12.5334C32.4449 9.78429 30.2163 7.55566 27.4671 7.55566H12.5338Z" fill="#FF7D00"/>
<path d="M30.1039 23.3445C29.995 23.3445 29.9094 23.43 29.9094 23.5389C29.9094 23.6478 29.995 23.7334 30.1039 23.7334C30.2128 23.7334 30.2983 23.6478 30.2983 23.5389C30.2983 23.43 30.2128 23.3445 30.1039 23.3445ZM30.1039 23.7023C30.0105 23.7023 29.9405 23.6323 29.9405 23.5389C29.9405 23.4456 30.0105 23.3756 30.1039 23.3756C30.1894 23.3756 30.2594 23.4456 30.2594 23.5389C30.2672 23.6323 30.1972 23.7023 30.1039 23.7023Z" fill="#FFF5E1"/>
<path d="M30.2049 23.4921C30.2049 23.4455 30.1738 23.4221 30.1194 23.4221H30.0338V23.6477H30.0805V23.5466H30.1116L30.166 23.6477H30.2049L30.1427 23.5466C30.1738 23.5543 30.2049 23.5388 30.2049 23.4921ZM30.0727 23.5232V23.461H30.1116C30.1349 23.461 30.1583 23.461 30.1583 23.4921C30.1583 23.5232 30.1427 23.5232 30.1116 23.5232H30.0727Z" fill="#FFF5E1"/>
<path d="M22.8317 23.7099H23.8194V22.8777L24.9705 20.6843H23.9205L23.3294 21.9677L22.7617 20.6843H21.735L22.8317 22.8777V23.7099Z" fill="#FFF5E1"/>
<path d="M11.1027 20.5367C10.7527 20.5211 10.1461 20.5522 9.8894 20.5755L9.91274 21.3378L10.1616 21.3222V23.7022H11.1105V23.1033C12.495 23.0411 12.8216 22.3022 12.8216 21.7811C12.8061 21.05 12.2072 20.5911 11.1027 20.5367ZM11.1027 22.3722V21.33C11.7094 21.3611 11.8494 21.6178 11.8494 21.8278C11.8494 22.1233 11.6472 22.3567 11.1027 22.3722Z" fill="#FFF5E1"/>
<path d="M26.1371 20.5754C25.2194 20.5754 24.5894 21.2366 24.5894 22.1543C24.5894 23.0721 25.2038 23.7488 26.2227 23.7488C26.6505 23.7488 27.0238 23.6554 27.3349 23.4454L26.9927 22.7454C26.7671 22.8854 26.5338 22.9632 26.2616 22.9632C25.8805 22.9632 25.6471 22.7843 25.5538 22.4732H27.5682C27.5838 22.3799 27.5994 22.2088 27.5994 22.0454C27.5994 21.3999 27.2571 20.5754 26.1371 20.5754ZM25.5538 21.8277C25.6238 21.5243 25.8182 21.3143 26.1449 21.3143C26.456 21.3143 26.6738 21.501 26.6971 21.8277H25.5538Z" fill="#FFF5E1"/>
<path d="M17.2472 20.5677C16.8972 20.5521 16.2983 20.5832 16.0494 20.6066L16.0728 21.361L16.3139 21.3454V23.7021H17.255V23.1188C18.6239 23.0566 18.9428 22.3254 18.9428 21.8043C18.9428 21.0732 18.3439 20.6221 17.2472 20.5677ZM17.2472 22.3799V21.3454C17.8461 21.3766 17.9861 21.6254 17.9861 21.8354C17.9939 22.1388 17.7917 22.3721 17.2472 22.3799Z" fill="#FFF5E1"/>
<path d="M29.2638 21.9134C29.0927 21.8434 28.8905 21.7734 28.7582 21.7112C28.626 21.6489 28.5793 21.5945 28.5793 21.5012C28.5793 21.3845 28.7038 21.3145 28.8593 21.3145C29.1005 21.3145 29.2871 21.4234 29.4505 21.6023L29.9793 21.0578C29.7538 20.7545 29.3649 20.5601 28.8749 20.5601C28.206 20.5601 27.6849 20.8789 27.6849 21.5167C27.6849 22.0223 27.926 22.2634 28.4005 22.4656C28.5327 22.5201 28.7116 22.5745 28.8438 22.6289C28.9605 22.6756 29.0305 22.7301 29.0305 22.8234C29.0305 22.9089 28.9527 22.9867 28.7271 22.9867C28.5171 22.9867 28.2216 22.9012 28.0038 22.7612L27.6771 23.4301C27.9805 23.6478 28.346 23.7412 28.7271 23.7412C29.3105 23.7412 29.9327 23.4923 29.9327 22.8078C29.9327 22.2945 29.606 22.0534 29.2638 21.9134Z" fill="#FFF5E1"/>
<path d="M14.486 20.5989C13.6149 20.5989 12.8916 21.2444 12.8916 22.1622C12.8916 23.08 13.6149 23.7255 14.486 23.7255C15.3572 23.7255 16.0805 23.08 16.0805 22.1622C16.0805 21.2444 15.3572 20.5989 14.486 20.5989ZM14.4938 22.8855C14.0738 22.8855 13.8016 22.5589 13.8016 22.1544C13.8016 21.75 14.066 21.4233 14.4938 21.4233C14.9138 21.4233 15.186 21.75 15.186 22.1544C15.186 22.5589 14.9138 22.8855 14.4938 22.8855Z" fill="#FFF5E1"/>
<path d="M20.5683 20.5754C19.6505 20.5754 19.0205 21.2366 19.0205 22.1543C19.0205 23.0721 19.6194 23.7488 20.6694 23.7488C21.1361 23.7488 21.5483 23.6321 21.875 23.3832L21.5016 22.7066C21.2605 22.8777 21.0038 22.971 20.7005 22.971C20.3038 22.971 20.0705 22.7921 19.985 22.481H21.9994C22.015 22.3877 22.0305 22.2166 22.0305 22.0532C22.0305 21.3999 21.6883 20.5754 20.5683 20.5754ZM19.9772 21.8277C20.0472 21.5243 20.2416 21.3143 20.5683 21.3143C20.8794 21.3143 21.0972 21.4932 21.1205 21.8277H19.9772Z" fill="#FFF5E1"/>
<path d="M21.9138 17.9467C21.9138 17.2156 21.315 16.7644 20.2183 16.71C19.8683 16.6944 19.2694 16.7256 19.0205 16.7489L19.0438 17.5033L19.285 17.4878V19.8444H20.2261V19.1989C20.3272 19.1911 20.4283 19.1833 20.5216 19.1756L20.6383 19.8444H21.6727L21.2605 18.9656C21.7661 18.7167 21.9138 18.2967 21.9138 17.9467ZM20.2183 17.4956C20.8172 17.5267 20.9572 17.7756 20.9572 17.9856C20.9572 18.2811 20.755 18.46 20.2183 18.4678V17.4956Z" fill="#FFF5E1"/>
<path d="M26.946 16.8345V18.18L26.246 16.8345H25.1105V19.8522H26.0594V18.4989L26.7594 19.8522H27.8949V16.8345H26.946Z" fill="#FFF5E1"/>
<path d="M17.3016 16.3133L17.0216 16.5855L15.676 15.9788L16.3216 15.3333L17.3016 16.3133Z" fill="#FFF5E1"/>
<path d="M22.6294 16.3133L22.9094 16.5855L24.255 15.9788L23.6094 15.3333L22.6294 16.3133Z" fill="#FFF5E1"/>
<path d="M17.1306 19.8522H18.1572L17.0217 16.8345H16.065L14.9294 19.8522H15.9561L16.1117 19.3545H16.9828L17.1306 19.8522ZM16.3061 18.7167L16.5394 17.9545L16.7728 18.7167H16.3061Z" fill="#FFF5E1"/>
<path d="M15.2094 18.0087H13.6616L13.7472 18.6465H14.2916C14.2839 18.7632 14.2139 19.1365 13.7316 19.1365C13.2027 19.1365 13.1016 18.6465 13.1016 18.2809C13.0939 17.9154 13.2883 17.4487 13.7939 17.4565C14.1983 17.4565 14.2761 17.7443 14.2916 17.7676L15.0227 17.3709C14.8127 16.9509 14.4472 16.6787 13.7783 16.6787C12.9383 16.6787 12.1605 17.1143 12.1605 18.2965C12.1605 19.4787 13.0394 19.8909 13.7316 19.8909C14.3616 19.8909 15.1861 19.6109 15.2172 18.4054C15.2172 18.2498 15.2094 18.0087 15.2094 18.0087Z" fill="#FFF5E1"/>
<path d="M23.9749 19.8522H25.0016L23.866 16.8345H22.9094L21.7738 19.8522H22.8005L22.956 19.3545H23.8271L23.9749 19.8522ZM23.1505 18.7167L23.3838 17.9545L23.6171 18.7167H23.1505Z" fill="#FFF5E1"/>
</g>
<defs>
<clipPath id="clip0_1_4622">
<rect width="40" height="40" fill="white"/>
</clipPath>
</defs>
</svg>
