<svg width="40" height="40" viewBox="0 0 40 40" fill="none" xmlns="http://www.w3.org/2000/svg">
<g clip-path="url(#clip0_1_4621)">
<path d="M39.2129 11.449V11.449C40.2624 17.0781 40.2624 22.8026 39.2129 28.5271V28.5271C38.2588 33.9654 33.9654 38.2588 28.5271 39.2129V39.2129C22.898 40.2624 17.1735 40.2624 11.449 39.2129V39.2129C6.01073 38.2588 1.81276 34.0608 0.858676 28.6225V28.6225C-0.286225 22.9934 -0.286225 17.1735 0.858676 11.449V11.449C1.81276 6.01073 6.01073 1.81276 11.449 0.858676V0.858676C17.0781 -0.286225 22.898 -0.286225 28.6225 0.858676V0.858676C34.0608 1.81276 38.2588 6.01073 39.2129 11.449Z" fill="white"/>
<path fill-rule="evenodd" clip-rule="evenodd" d="M38.2293 28.3468C39.2571 22.7405 39.2565 17.1393 38.2298 11.6323L39.2129 11.449C40.2624 17.0781 40.2624 22.8026 39.2129 28.5271L38.2293 28.3468ZM28.5271 39.2129C33.9654 38.2588 38.2588 33.9654 39.2129 28.5271L38.2279 28.3543C37.3466 33.3779 33.3779 37.3466 28.3543 38.2279L28.5271 39.2129ZM11.449 39.2129C17.1735 40.2624 22.898 40.2624 28.5271 39.2129L28.3438 38.2298C22.8369 39.2565 17.2356 39.2571 11.6293 38.2293L11.449 39.2129ZM28.6225 0.858676L28.4497 1.84363C33.4733 2.72496 37.3466 6.59823 38.2279 11.6218L39.2129 11.449C38.2588 6.01073 34.0608 1.81276 28.6225 0.858676ZM11.449 0.858676C17.0781 -0.286225 22.898 -0.286225 28.6225 0.858676L28.4264 1.83926C22.8303 0.720026 17.1448 0.720683 11.6483 1.83861L11.449 0.858676ZM0.858676 11.449C1.81276 6.01073 6.01073 1.81276 11.449 0.858676L11.6218 1.84363C6.59823 2.72496 2.72496 6.59823 1.84363 11.6218L0.858676 11.449ZM0.858676 11.449L1.83926 11.6451C0.720026 17.2413 0.720683 22.9267 1.83861 28.4232L0.858676 28.6225C-0.286225 22.9934 -0.286225 17.1735 0.858676 11.449ZM0.858676 28.6225C1.81276 34.0608 6.01073 38.2588 11.449 39.2129L11.6218 38.2279C6.59823 37.3466 2.72496 33.4733 1.84363 28.4497L0.858676 28.6225Z" fill="#EEF4FE"/>
<path fill-rule="evenodd" clip-rule="evenodd" d="M12.5333 7.55566C9.78417 7.55566 7.55554 9.78429 7.55554 12.5334V27.4668C7.55554 30.2159 9.78417 32.4446 12.5333 32.4446H27.4667C30.2158 32.4446 32.4444 30.2159 32.4444 27.4668V12.5334C32.4444 9.78429 30.2158 7.55566 27.4667 7.55566H12.5333Z" fill="#F6F7F8"/>
<g clip-path="url(#clip1_1_4621)">
<path d="M12.6413 25.1487H12.2564V23.8827H12.6452C13.0473 23.8827 13.2873 24.1188 13.2873 24.5133C13.2873 24.8291 13.0656 25.1487 12.6413 25.1487ZM12.6413 23.1782H11.5126C11.4752 23.1782 11.4445 23.208 11.4445 23.2454V25.7879C11.4445 25.8244 11.4752 25.8561 11.5126 25.8561H12.6452C13.5359 25.8561 14.1108 25.3291 14.1108 24.5143C14.1108 23.6994 13.5339 23.1792 12.6413 23.1792" fill="#0078AE"/>
<path d="M19.2994 23.8684C18.9885 23.8684 18.7341 24.0402 18.6218 24.2091C18.5393 23.9835 18.3511 23.8684 18.0642 23.8684C17.7474 23.8684 17.5065 24.0286 17.4221 24.1371V23.9845C17.4221 23.9471 17.3923 23.9163 17.3549 23.9163H16.7675C16.7301 23.9163 16.6993 23.9471 16.6993 23.9845V25.7879C16.6993 25.8244 16.7301 25.8561 16.7675 25.8561H17.3549C17.3923 25.8561 17.4221 25.8254 17.4221 25.7879V24.6592C17.4643 24.6093 17.5526 24.5057 17.7148 24.5057C17.8578 24.5057 17.9356 24.5834 17.9356 24.7226V25.787C17.9356 25.8235 17.9653 25.8551 18.0027 25.8551H18.5901C18.6276 25.8551 18.6573 25.8244 18.6573 25.787V24.6583C18.7005 24.6093 18.7879 24.5047 18.9549 24.5047C19.095 24.5047 19.1766 24.5844 19.1766 24.7216V25.786C19.1766 25.8225 19.2063 25.8542 19.2438 25.8542H19.8312C19.8676 25.8542 19.8993 25.8235 19.8993 25.786V24.4481C19.8993 24.0738 19.6872 23.8655 19.3004 23.8655" fill="#0078AE"/>
<path d="M20.9397 23.9163H20.3523C20.3149 23.9163 20.2852 23.947 20.2852 23.9844V25.7879C20.2852 25.8243 20.3149 25.856 20.3523 25.856H20.9397C20.9772 25.856 21.0079 25.8243 21.0079 25.7879V23.9844C21.0079 23.947 20.9772 23.9163 20.9397 23.9163Z" fill="#0078AE"/>
<path d="M20.6643 22.9651C20.4397 22.9651 20.2583 23.1474 20.2583 23.3711C20.2583 23.5947 20.4397 23.7761 20.6643 23.7761C20.8889 23.7761 21.0684 23.5947 21.0684 23.3711C21.0684 23.1474 20.8879 22.9651 20.6643 22.9651Z" fill="#0078AE"/>
<path d="M22.794 23.8684C22.4197 23.8684 22.2152 24.0364 22.1279 24.1372V23.9845C22.1279 23.9471 22.0981 23.9164 22.0607 23.9164H21.4733C21.4359 23.9164 21.4061 23.9471 21.4061 23.9845V25.788C21.4061 25.8245 21.4359 25.8561 21.4733 25.8561H22.0607C22.0981 25.8561 22.1279 25.8254 22.1279 25.788V24.6593C22.174 24.6065 22.2623 24.5057 22.436 24.5057C22.6231 24.5057 22.7172 24.5998 22.7172 24.7831V25.788C22.7172 25.8245 22.747 25.8561 22.7854 25.8561H23.3727C23.4102 25.8561 23.4399 25.8254 23.4399 25.788V24.4788C23.4399 24.0968 23.199 23.8684 22.794 23.8684Z" fill="#0078AE"/>
<path d="M15.3671 25.2177C15.1742 25.2177 15.0178 25.0613 15.0178 24.8674C15.0178 24.6735 15.1733 24.518 15.3671 24.518C15.561 24.518 15.7165 24.6745 15.7165 24.8674C15.7165 25.0603 15.5601 25.2177 15.3671 25.2177ZM15.3671 23.8586C14.8018 23.8586 14.344 24.3174 14.344 24.8827C14.344 25.4481 14.8028 25.9068 15.3671 25.9068C15.9315 25.9068 16.3912 25.4481 16.3912 24.8827C16.3912 24.3174 15.9325 23.8586 15.3671 23.8586Z" fill="#0078AE"/>
<path d="M24.7703 25.2216C24.5774 25.2216 24.421 25.0633 24.421 24.8713C24.421 24.6793 24.5784 24.5219 24.7703 24.5219C24.9623 24.5219 25.1197 24.6784 25.1197 24.8713C25.1197 25.0642 24.9632 25.2216 24.7703 25.2216ZM24.7703 23.8625C24.206 23.8625 23.7462 24.3213 23.7462 24.8867C23.7462 25.452 24.206 25.9108 24.7703 25.9108C25.3347 25.9108 25.7935 25.452 25.7935 24.8867C25.7935 24.3213 25.3337 23.8625 24.7703 23.8625Z" fill="#0078AE"/>
<path d="M26.45 23.2935C26.45 23.2935 26.45 23.2916 26.45 23.2897C26.45 23.2897 26.45 23.2878 26.448 23.2868V23.2839C26.4029 23.0833 26.1831 22.9365 25.9672 22.9816C25.7493 23.0276 25.6053 23.2302 25.6485 23.4356C25.6831 23.6035 25.8338 23.7168 26.0075 23.7264C25.9989 23.7974 25.9365 23.8617 25.8846 23.8924C25.8501 23.9116 25.8722 23.9481 25.8722 23.9481L25.9163 24.0143C25.9297 24.0364 25.9499 24.0479 25.9739 24.0374C26.4183 23.855 26.496 23.4768 26.4509 23.2935" fill="#0078AE"/>
<path d="M27.0632 24.493C27.0623 24.4211 27.1554 24.3884 27.2725 24.3884C27.5067 24.3884 27.6391 24.4556 27.7888 24.5535C27.8042 24.5641 27.8224 24.5679 27.8416 24.5631C27.8599 24.5593 27.8752 24.5468 27.8839 24.5314L28.0816 24.1859C28.1008 24.1552 28.0893 24.1149 28.0585 24.0947C27.8954 23.9978 27.6573 23.8711 27.2427 23.8711C26.6457 23.8711 26.3251 24.1533 26.3789 24.5573C26.473 25.2686 27.5786 25.0257 27.5604 25.2676C27.5575 25.3242 27.4587 25.3655 27.2888 25.3655C27.07 25.3655 26.8214 25.2561 26.6649 25.1591C26.6496 25.1495 26.6313 25.1467 26.6131 25.1515C26.5939 25.1553 26.5795 25.1668 26.5699 25.1831L26.3424 25.5651C26.3251 25.5968 26.3328 25.6342 26.3635 25.6544C26.5833 25.8041 26.9385 25.9039 27.2475 25.9039C27.8455 25.9039 28.191 25.6467 28.191 25.2234C28.191 24.4441 27.069 24.686 27.0642 24.493" fill="#0078AE"/>
<path d="M18.4491 29.3766C18.4491 29.414 18.4789 29.4447 18.5163 29.4447H20.0616C20.1009 29.4447 20.1287 29.415 20.1287 29.3766V28.8871C20.1287 28.8496 20.098 28.8199 20.0616 28.8199H19.4099C19.4099 28.8199 19.9694 28.1797 20.0702 28.0616C20.0971 28.03 20.1335 27.9973 20.1335 27.9129V27.5779C20.1335 27.5405 20.1038 27.5098 20.0664 27.5098H18.5172C18.4798 27.5098 18.4501 27.5395 18.4501 27.5779V28.0664C18.4501 28.1039 18.4798 28.1346 18.5172 28.1346H19.1814C19.1814 28.1346 18.5028 28.912 18.4904 28.9255C18.4625 28.9571 18.4501 29.0003 18.4501 29.0483V29.3766H18.4491Z" fill="#0078AE"/>
<path d="M20.4646 29.3766C20.4646 29.414 20.4953 29.4447 20.5337 29.4447H22.079C22.1183 29.4447 22.1471 29.415 22.1471 29.3766V28.8871C22.1471 28.8496 22.1164 28.8199 22.079 28.8199H21.4321C21.4321 28.8199 21.9868 28.1787 22.0876 28.0616C22.1154 28.03 22.15 27.9973 22.15 27.9129V27.5779C22.15 27.5405 22.1202 27.5098 22.0838 27.5098H20.5337C20.4953 27.5098 20.4646 27.5395 20.4646 27.5779V28.0664C20.4646 28.1039 20.4953 28.1346 20.5337 28.1346H21.1969C21.1969 28.1346 20.5174 28.912 20.5059 28.9255C20.478 28.9571 20.4646 29.0003 20.4646 29.0483V29.3766Z" fill="#0078AE"/>
<path d="M24.5054 27.505H23.919C23.8806 27.505 23.8508 27.5357 23.8508 27.5731V27.6873C23.6934 27.5414 23.4899 27.4541 23.2692 27.4541C22.7643 27.4541 22.3555 27.9119 22.3555 28.4763C22.3555 29.0406 22.7643 29.5004 23.2692 29.5004C23.4899 29.5004 23.6925 29.414 23.8508 29.2681V29.3766C23.8508 29.414 23.8815 29.4447 23.919 29.4447H24.5054C24.5428 29.4447 24.5726 29.415 24.5726 29.3766V27.5731C24.5726 27.5357 24.5428 27.505 24.5054 27.505ZM23.464 28.8458C23.25 28.8458 23.0772 28.673 23.0772 28.459C23.0772 28.245 23.25 28.0732 23.464 28.0732C23.6781 28.0732 23.8499 28.2459 23.8499 28.459C23.8499 28.6721 23.6771 28.8458 23.464 28.8458Z" fill="#0078AE"/>
<path d="M18.0469 27.5107H17.4605C17.4221 27.5107 17.3923 27.5405 17.3923 27.5779V29.3775C17.3923 29.415 17.4221 29.4447 17.4605 29.4447H18.0469C18.0843 29.4447 18.1131 29.415 18.1131 29.3775V27.5779C18.1131 27.5405 18.0843 27.5107 18.0469 27.5107Z" fill="#0078AE"/>
<path d="M17.7532 26.5625C17.5305 26.5625 17.3491 26.7439 17.3491 26.9666C17.3491 27.1892 17.5305 27.3706 17.7532 27.3706C17.9759 27.3706 18.1573 27.1892 18.1573 26.9666C18.1573 26.7439 17.9759 26.5625 17.7532 26.5625Z" fill="#0078AE"/>
<path d="M16.7099 26.9753C16.4622 26.8035 16.2069 26.7642 15.8077 26.7642L15.0571 26.7661C15.0216 26.7661 14.9928 26.7949 14.9928 26.8304V29.3806C14.9928 29.417 15.0206 29.4449 15.0571 29.4449H15.7414C15.777 29.4449 15.8057 29.417 15.8057 29.3806V29.3028V28.7394C16.1561 28.7394 16.5112 28.7356 16.7751 28.5071C16.9585 28.3488 17.0967 28.0925 17.0967 27.746C17.0967 27.4782 16.9594 27.1481 16.7099 26.9753ZM15.9526 28.0695H15.8057V27.46H15.9584C16.2607 27.46 16.3461 27.6088 16.3461 27.7441C16.3461 27.9121 16.2712 28.0685 15.9536 28.0685" fill="#0078AE"/>
<path d="M25.1667 27.6913H25.0668V27.8228H25.1667C25.1983 27.8228 25.2348 27.7969 25.2348 27.7575C25.2348 27.7163 25.1993 27.6913 25.1667 27.6913ZM25.2281 28.0186L25.1302 27.8708H25.0668V28.0186H25.015V27.6443H25.1667C25.23 27.6443 25.2876 27.6884 25.2876 27.7575C25.2876 27.841 25.2137 27.8679 25.1926 27.8679L25.2924 28.0176H25.2281V28.0186ZM25.1388 27.5531C24.9853 27.5531 24.8614 27.674 24.8614 27.8305C24.8614 27.9869 24.9843 28.1079 25.1388 28.1079C25.2934 28.1079 25.4153 27.9831 25.4153 27.8305C25.4153 27.6779 25.2924 27.5531 25.1388 27.5531ZM25.1388 28.1568C24.9584 28.1568 24.8125 28.0109 24.8125 27.8305C24.8125 27.65 24.9593 27.5042 25.1388 27.5042C25.3183 27.5042 25.4661 27.6481 25.4661 27.8305C25.4661 28.0128 25.3222 28.1568 25.1388 28.1568Z" fill="#0078AE"/>
<path d="M25.5217 13.3691L22.2565 10.102C22.1183 9.96474 21.935 9.88892 21.7392 9.88892C21.5434 9.88892 21.362 9.9657 21.2238 10.102L18.4845 12.8412L13.9265 17.3993C13.6424 17.6844 13.6424 18.147 13.9265 18.4321L17.1917 21.6973C17.3299 21.8355 17.5132 21.9104 17.7071 21.9104C17.901 21.9104 18.0862 21.8355 18.2235 21.6973L22.3093 17.6124L25.5217 14.4009C25.8068 14.1168 25.8068 13.6532 25.5217 13.3691Z" fill="white"/>
<path d="M22.4188 14.545C22.2335 14.7302 21.9907 14.8214 21.7498 14.8214C21.5089 14.8214 21.2661 14.7293 21.0808 14.545C20.8965 14.3607 20.8044 14.1179 20.8044 13.876C20.8044 13.6342 20.8965 13.3913 21.0808 13.207C21.2661 13.0228 21.5079 12.9297 21.7498 12.9297C21.9917 12.9297 22.2335 13.0228 22.4188 13.207C22.6031 13.3913 22.6962 13.6342 22.6962 13.876C22.6962 14.1179 22.6031 14.3607 22.4188 14.545ZM25.2914 13.6006L22.0243 10.3353C21.8669 10.1779 21.6116 10.1779 21.4542 10.3353L17.9231 13.8664L21.7594 17.7018L25.2905 14.1707C25.4479 14.0133 25.4479 13.758 25.2905 13.6006" fill="#E11D37"/>
<path d="M18.424 17.2718C18.6083 17.0865 18.8511 16.9944 19.093 16.9944C19.3349 16.9944 19.5767 17.0865 19.761 17.2718C19.9463 17.456 20.0384 17.6979 20.0384 17.9407C20.0384 18.1836 19.9463 18.4245 19.761 18.6088C19.5767 18.7921 19.3349 18.8852 19.093 18.8861C18.8511 18.8861 18.6083 18.7921 18.424 18.6088C18.2397 18.4245 18.1466 18.1817 18.1466 17.9407C18.1466 17.6998 18.2397 17.457 18.424 17.2718ZM16.9853 18.5713C16.8 18.7547 16.5582 18.8478 16.3163 18.8478C16.0744 18.8478 15.8316 18.7556 15.6473 18.5713C15.4621 18.387 15.3699 18.1452 15.3699 17.9033C15.3699 17.6614 15.4621 17.4186 15.6473 17.2334C15.8316 17.0491 16.0744 16.957 16.3163 16.957C16.5582 16.957 16.801 17.0491 16.9853 17.2334C17.1696 17.4186 17.2617 17.6614 17.2617 17.9024C17.2617 18.1442 17.1696 18.387 16.9853 18.5713ZM14.1577 17.6307C14.0003 17.7881 14.0003 18.0434 14.1577 18.2008L17.4239 21.4661C17.5026 21.5448 17.6053 21.5851 17.709 21.5851C17.8126 21.5851 17.9153 21.5448 17.994 21.4661L21.5242 17.9369L17.6879 14.1016L14.1577 17.6307Z" fill="#0A7AAD"/>
<path d="M19.5269 21.1195H19.4271V21.251H19.5269C19.5586 21.251 19.595 21.2251 19.595 21.1858C19.595 21.1445 19.5595 21.1195 19.5269 21.1195ZM19.5883 21.4468L19.4904 21.299H19.4271V21.4468H19.3752V21.0725H19.5269C19.5902 21.0725 19.6478 21.1167 19.6478 21.1858C19.6478 21.2693 19.5739 21.2961 19.5528 21.2961L19.6526 21.4459H19.5883V21.4468ZM19.4991 20.9813C19.3455 20.9813 19.2217 21.1023 19.2217 21.2587C19.2217 21.4152 19.3445 21.5361 19.4991 21.5361C19.6536 21.5361 19.7755 21.4113 19.7755 21.2587C19.7755 21.1061 19.6526 20.9813 19.4991 20.9813ZM19.4991 21.585C19.3186 21.585 19.1727 21.4391 19.1727 21.2587C19.1727 21.0783 19.3196 20.9324 19.4991 20.9324C19.6785 20.9324 19.8264 21.0763 19.8264 21.2587C19.8264 21.4411 19.6824 21.585 19.4991 21.585Z" fill="#0078AE"/>
</g>
</g>
<defs>
<clipPath id="clip0_1_4621">
<rect width="40" height="40" fill="white"/>
</clipPath>
<clipPath id="clip1_1_4621">
<rect width="16.7456" height="19.6115" fill="white" transform="translate(11.4445 9.88892)"/>
</clipPath>
</defs>
</svg>
