<svg width="40" height="40" viewBox="0 0 40 40" fill="none" xmlns="http://www.w3.org/2000/svg">
<g clip-path="url(#clip0_1_4619)">
<path d="M39.2129 11.449V11.449C40.2624 17.0781 40.2624 22.8026 39.2129 28.5271V28.5271C38.2588 33.9654 33.9654 38.2588 28.5271 39.2129V39.2129C22.898 40.2624 17.1735 40.2624 11.449 39.2129V39.2129C6.01073 38.2588 1.81276 34.0608 0.858676 28.6225V28.6225C-0.286225 22.9934 -0.286225 17.1735 0.858676 11.449V11.449C1.81276 6.01073 6.01073 1.81276 11.449 0.858676V0.858676C17.0781 -0.286225 22.898 -0.286225 28.6225 0.858676V0.858676C34.0608 1.81276 38.2588 6.01073 39.2129 11.449Z" fill="white"/>
<path fill-rule="evenodd" clip-rule="evenodd" d="M38.2293 28.3468C39.2571 22.7405 39.2565 17.1393 38.2298 11.6323L39.2129 11.449C40.2624 17.0781 40.2624 22.8026 39.2129 28.5271L38.2293 28.3468ZM28.5271 39.2129C33.9654 38.2588 38.2588 33.9654 39.2129 28.5271L38.2279 28.3543C37.3466 33.3779 33.3779 37.3466 28.3543 38.2279L28.5271 39.2129ZM11.449 39.2129C17.1735 40.2624 22.898 40.2624 28.5271 39.2129L28.3438 38.2298C22.8369 39.2565 17.2356 39.2571 11.6293 38.2293L11.449 39.2129ZM28.6225 0.858676L28.4497 1.84363C33.4733 2.72496 37.3466 6.59823 38.2279 11.6218L39.2129 11.449C38.2588 6.01073 34.0608 1.81276 28.6225 0.858676ZM11.449 0.858676C17.0781 -0.286225 22.898 -0.286225 28.6225 0.858676L28.4264 1.83926C22.8303 0.720026 17.1448 0.720683 11.6483 1.83861L11.449 0.858676ZM0.858676 11.449C1.81276 6.01073 6.01073 1.81276 11.449 0.858676L11.6218 1.84363C6.59823 2.72496 2.72496 6.59823 1.84363 11.6218L0.858676 11.449ZM0.858676 11.449L1.83926 11.6451C0.720026 17.2413 0.720683 22.9267 1.83861 28.4232L0.858676 28.6225C-0.286225 22.9934 -0.286225 17.1735 0.858676 11.449ZM0.858676 28.6225C1.81276 34.0608 6.01073 38.2588 11.449 39.2129L11.6218 38.2279C6.59823 37.3466 2.72496 33.4733 1.84363 28.4497L0.858676 28.6225Z" fill="#EEF4FE"/>
<path fill-rule="evenodd" clip-rule="evenodd" d="M12.5333 7.55566C9.78417 7.55566 7.55554 9.78429 7.55554 12.5334V27.4668C7.55554 30.2159 9.78417 32.4446 12.5333 32.4446H27.4667C30.2158 32.4446 32.4444 30.2159 32.4444 27.4668V12.5334C32.4444 9.78429 30.2158 7.55566 27.4667 7.55566H12.5333Z" fill="#FBC710"/>
<path fill-rule="evenodd" clip-rule="evenodd" d="M22.584 24.6243L22.5172 24.1229L22.4337 24.6193L22.584 24.6243ZM22.8939 25.359C22.678 25.3818 22.6856 25.3894 22.6498 25.2529C22.6364 25.2019 22.6024 24.9982 22.6024 24.9982C22.6024 24.9982 22.4227 24.9811 22.3928 24.9925C22.3646 25.0811 22.3472 25.2563 22.2901 25.3605C22.253 25.3733 22.1337 25.3619 22.0848 25.3619C21.9468 25.3617 21.9659 25.3182 21.9918 25.1762C22.0678 24.7593 22.2706 23.6357 22.291 23.4901C22.3092 23.3601 22.39 23.333 22.5044 23.335C22.6141 23.3368 22.6624 23.332 22.6982 23.4908C22.7161 23.57 22.9809 25.0695 22.9966 25.1743C23.01 25.2639 23.0402 25.3533 22.8939 25.359ZM25.2687 23.0687C25.2913 23.0899 25.3761 23.0607 25.4436 23.0301C25.467 23.0224 25.6717 22.9176 25.7843 22.8659C25.8586 22.8208 25.9304 22.8279 25.8899 22.7213C25.8701 22.6692 25.8477 22.5761 25.7849 22.6073C25.5788 22.7098 25.3663 22.807 25.1998 22.9737C25.1935 22.9801 25.2436 23.0435 25.2687 23.0687ZM23.8033 23.7302C23.9538 23.7205 24.1049 23.6985 24.2547 23.7046C24.4055 23.7108 24.4624 23.6667 24.4648 23.5074C24.4674 23.332 24.3659 23.335 24.2478 23.3354C24.0473 23.3362 23.8467 23.3354 23.6462 23.3363C23.4302 23.3372 23.4107 23.3553 23.4103 23.565C23.4093 24.0664 23.4092 24.5676 23.4097 25.0689C23.41 25.3717 23.4249 25.3841 23.7355 25.3558C23.7472 25.3548 23.7588 25.3522 23.7704 25.3503C23.7704 25.3503 23.7641 25.3558 23.7641 25.3558C23.7666 25.1502 23.7781 24.9442 23.7684 24.7391C23.7608 24.5762 23.7615 24.4933 23.9708 24.4974C24.0066 24.4986 24.0476 24.4999 24.082 24.5009C24.1238 24.5021 24.1579 24.4685 24.1579 24.4269V24.2541C24.1579 24.2157 24.1285 24.1835 24.0901 24.1803C24.0518 24.1772 24.0053 24.1744 23.9729 24.1758C23.9087 24.1785 23.7952 24.1779 23.7934 24.1522C23.784 24.0229 23.7987 23.8552 23.8093 23.7245L23.8033 23.7302ZM21.51 25.1466C21.546 25.0473 21.5848 24.9338 21.5797 24.8378C21.577 24.7869 21.4975 24.7329 21.4429 24.7188C21.3578 24.6969 21.2283 24.6847 21.2201 24.8186C21.2069 25.0343 20.9607 24.9861 20.9462 24.9809C20.8934 24.9485 20.8778 24.8705 20.8765 24.8145C20.8697 24.5076 20.874 24.2004 20.873 23.8933C20.8726 23.7884 20.8913 23.7051 21.0228 23.701C21.1371 23.6975 21.2206 23.7154 21.2173 23.8603C21.2141 23.9998 21.3163 23.9922 21.4167 23.9913C21.5262 23.9903 21.577 23.949 21.5801 23.8345C21.5875 23.5608 21.3713 23.3455 21.0701 23.3359C20.7643 23.3262 20.5361 23.5197 20.5337 23.7979C20.5305 24.164 20.5317 24.5303 20.5338 24.8964C20.535 25.1109 20.6359 25.2529 20.8344 25.3293C21.068 25.4192 21.3988 25.3461 21.51 25.1466ZM25.901 23.7035C25.9055 23.6507 25.9079 23.5976 25.915 23.5451C25.9356 23.3918 25.8698 23.3299 25.7161 23.3344C25.4862 23.3412 25.2561 23.3373 25.026 23.3367C24.9202 23.3365 24.86 23.377 24.8604 23.4928C24.8623 24.0649 24.8627 24.637 24.8614 25.2092C24.8612 25.3228 24.9145 25.3677 25.0241 25.3663C25.2658 25.3631 25.5077 25.3605 25.7495 25.3637C25.8863 25.3655 25.9163 25.2923 25.9177 25.1735C25.9191 25.0558 25.878 24.995 25.7553 24.9973C25.6197 24.9998 25.484 25.0004 25.3484 24.9976C25.3099 24.9968 25.2413 24.9998 25.24 24.987C25.2271 24.8596 25.2263 24.6666 25.2322 24.5397C25.2439 24.5221 25.3621 24.5243 25.4342 24.5224C25.5428 24.5195 25.5924 24.4915 25.5984 24.3729C25.6056 24.2297 25.5682 24.1779 25.4124 24.1811C25.2171 24.1851 25.2168 24.1427 25.215 23.9728C25.2147 23.9439 25.2165 23.9138 25.216 23.8846C25.213 23.6854 25.2704 23.6909 25.4117 23.6987C25.5761 23.7078 25.7415 23.6991 25.9065 23.6981L25.901 23.7035ZM22.4873 14.9684C22.4873 15.1985 22.4944 15.4289 22.4848 15.6586C22.4783 15.8155 22.5109 15.8931 22.6942 15.8953C22.8955 15.8976 22.8753 15.7766 22.8755 15.6526C22.876 15.4048 22.8831 15.1567 22.873 14.9093C22.8602 14.5955 22.9769 14.4089 23.3274 14.445C23.3799 14.4504 23.4347 14.4527 23.4863 14.4439C23.5557 14.4321 23.6231 14.4079 23.6913 14.3891C23.659 14.3098 23.6432 14.2157 23.5893 14.1559C23.5447 14.1065 23.456 14.0772 23.3854 14.0744C23.138 14.0648 22.8899 14.0748 22.6422 14.0686C22.5251 14.0657 22.4852 14.1139 22.4868 14.225C22.4903 14.4728 22.4879 14.7206 22.4879 14.9684H22.4873ZM22.4871 19.6829C22.485 19.836 22.587 19.8276 22.6913 19.8314C22.7987 19.8353 22.8772 19.8203 22.875 19.6843C22.8714 19.4601 22.8808 19.2356 22.8756 19.0114C22.864 18.5208 22.859 18.348 23.5013 18.3799C23.5634 18.383 23.6273 18.3476 23.6903 18.3301C23.6661 18.2593 23.6612 18.1676 23.6128 18.1232C23.5492 18.0649 23.4531 18.017 23.3681 18.0119C23.127 17.9973 22.8842 18.0111 22.6423 18.005C22.5265 18.0021 22.4847 18.0469 22.4867 18.1599C22.491 18.4077 22.488 18.6557 22.4881 18.9036C22.4881 19.1634 22.4907 19.4232 22.4871 19.6829ZM23.9819 14.3508C23.9752 14.0344 23.7338 13.7998 23.4158 13.791C23.127 13.783 22.8378 13.7843 22.549 13.7884C22.3193 13.7916 22.2167 13.8975 22.2142 14.1276C22.2113 14.4106 22.2136 14.6937 22.2131 14.9768C22.2131 15.2539 22.2118 15.5311 22.2136 15.8083C22.2152 16.0588 22.3191 16.1656 22.5639 16.1671C22.841 16.1688 23.1183 16.1695 23.3954 16.1656C23.723 16.161 23.9725 15.9309 23.9808 15.6068C23.9913 15.1883 23.9908 14.7693 23.9819 14.3508ZM23.983 18.935H23.9845C23.9845 18.7226 23.9918 18.5098 23.9829 18.2977C23.9691 17.9693 23.7313 17.7344 23.405 17.7268C23.116 17.72 22.8267 17.7219 22.5376 17.7271C22.3186 17.731 22.2145 17.8369 22.2136 18.0568C22.2111 18.6292 22.2119 19.2016 22.2149 19.7741C22.216 19.9928 22.3222 20.1032 22.5368 20.1061C22.8317 20.1102 23.127 20.1109 23.4219 20.1034C23.7259 20.0958 23.967 19.8596 23.9812 19.5545C23.9908 19.3484 23.983 19.1415 23.983 18.935ZM25.5135 19.7193C25.4687 20.425 25.0884 20.9437 24.513 21.3257C24.165 21.5567 23.7785 21.6593 23.3564 21.6538C22.6004 21.644 21.8441 21.6513 21.0878 21.651C20.7741 21.6508 20.6726 21.55 20.6726 21.2406C20.6726 19.8049 20.6726 18.3693 20.6727 16.9337C20.6728 15.504 20.6727 14.0744 20.6728 12.6446C20.6729 12.3594 20.7918 12.2314 21.0776 12.2302C21.8457 12.2268 22.6139 12.2178 23.3816 12.2325C24.4362 12.2527 25.3667 13.0231 25.4958 14.0228C25.5598 14.5172 25.5101 15.0255 25.525 15.5271C25.5382 15.9682 25.4238 16.3677 25.177 16.7298C25.074 16.881 25.0784 17.0173 25.1807 17.1693C25.4137 17.5156 25.5351 17.8957 25.5246 18.3197C25.513 18.7861 25.5431 19.2545 25.5135 19.7193ZM23.3854 14.0744C23.138 14.0648 22.8899 14.0748 22.6422 14.0686C22.5251 14.0657 22.4852 14.1139 22.4868 14.225C22.4903 14.4728 22.4879 14.7206 22.4879 14.9684H22.4873C22.4873 15.1985 22.4944 15.4289 22.4848 15.6586C22.4783 15.8155 22.5109 15.8931 22.6942 15.8953C22.8955 15.8976 22.8753 15.7766 22.8755 15.6526C22.876 15.4048 22.8831 15.1567 22.873 14.9093C22.8602 14.5955 22.9769 14.4089 23.3274 14.445C23.3799 14.4504 23.4347 14.4527 23.4863 14.4439C23.5557 14.4321 23.6231 14.4079 23.6913 14.3891C23.659 14.3098 23.6432 14.2157 23.5893 14.1559C23.5447 14.1065 23.456 14.0772 23.3854 14.0744ZM22.2329 14.9768C22.2333 14.6937 22.2285 14.4106 22.2347 14.1276C22.2285 14.4106 22.2333 14.6937 22.2324 14.9768C22.2324 15.2539 22.2295 15.5311 22.2333 15.8083C22.2295 15.5311 22.2324 15.2539 22.2329 14.9768ZM23.3681 18.0119C23.127 17.9973 22.8842 18.0111 22.6423 18.005C22.5265 18.0021 22.4847 18.0469 22.4867 18.1599C22.491 18.4077 22.488 18.6557 22.4881 18.9036C22.4881 19.1634 22.4907 19.4232 22.4871 19.6829C22.485 19.836 22.587 19.8276 22.6913 19.8314C22.7987 19.8353 22.8772 19.8203 22.875 19.6843C22.8714 19.4601 22.8808 19.2356 22.8756 19.0114C22.864 18.5208 22.859 18.348 23.5013 18.3799C23.5634 18.383 23.6273 18.3476 23.6903 18.3301C23.6661 18.2593 23.6612 18.1676 23.6128 18.1232C23.5492 18.0649 23.4531 18.017 23.3681 18.0119ZM25.8461 17.396C26.0931 17.0186 26.2001 16.604 26.1939 16.1551C26.1887 15.7828 26.1949 15.4105 26.1922 15.0383C26.1897 14.6905 26.1102 14.3603 25.9432 14.0541C25.904 13.9823 25.8492 13.919 25.7778 13.8182C25.7933 14.0851 25.8126 14.3006 25.8168 14.5164C25.8229 14.8354 25.8135 15.1547 25.8193 15.4736C25.8281 15.9648 25.7085 16.419 25.4517 16.8382C25.4262 16.8799 25.3956 16.947 25.4118 16.9813C25.5112 17.1918 25.6233 17.3963 25.7353 17.6106C25.776 17.5307 25.8047 17.4592 25.8461 17.396ZM12.3064 21.3016C12.2308 20.8378 12.1889 20.3668 12.3434 19.9177C12.6451 19.0403 13.2604 18.4958 14.1765 18.3077C14.2906 18.2842 14.3488 18.2414 14.3463 18.1111C14.3386 17.7098 14.344 17.3084 14.3419 16.907C14.3417 16.8614 14.3266 16.8159 14.3184 16.7703L14.2537 16.7739C14.2537 16.9283 14.2552 17.0829 14.2534 17.2373C14.2491 17.6079 14.0435 17.8475 13.6789 17.9034C13.2978 17.9617 12.9501 18.0984 12.6505 18.3431C11.9068 18.9502 11.7417 19.7406 11.9405 20.6384C12.0065 20.9363 12.1134 21.2205 12.3339 21.4547C12.3247 21.4037 12.3148 21.3528 12.3064 21.3016ZM25.8143 18.2166C25.8204 18.6653 25.8216 19.1142 25.8165 19.5628C25.8106 20.0812 25.6432 20.549 25.3257 20.9554C24.8155 21.6086 24.1506 21.956 23.3093 21.9467C22.7071 21.94 22.1047 21.9445 21.5024 21.948C21.4495 21.9483 21.3567 21.9709 21.3521 21.996C21.3418 22.0517 21.3567 22.1441 21.3956 22.1703C21.492 22.235 21.6065 22.3084 21.7158 22.3118C22.1995 22.3266 22.684 22.322 23.1682 22.3165C23.5864 22.3117 24.0075 22.324 24.4221 22.2797C25.2327 22.1931 26.0735 21.3882 26.1419 20.578C26.198 19.9125 26.1696 19.2376 26.143 18.5683C26.1318 18.2839 25.9922 18.021 25.7699 17.808C25.7854 17.9442 25.8125 18.0802 25.8143 18.2166ZM15.6442 22.142C15.916 22.1445 16.1879 22.1444 16.4596 22.1421C16.6597 22.1402 16.7899 22.024 16.8171 21.8237C16.8257 21.7598 16.8225 21.694 16.8225 21.629C16.8226 19.4248 16.822 17.2206 16.8228 15.0164C16.823 14.5881 17.0241 14.3846 17.4458 14.3686C17.5035 14.3665 17.608 14.3344 17.6084 14.3142C17.6101 14.2445 17.5942 14.1564 17.5494 14.1081C17.4987 14.0533 17.4115 14.0091 17.3371 14.0039C17.1372 13.9898 16.9355 13.9935 16.7348 14.0005C16.5572 14.0067 16.4527 14.1163 16.4488 14.2952C16.4428 14.5668 16.4422 14.8386 16.4421 15.1104C16.441 17.1136 16.4362 19.1168 16.444 21.12C16.4455 21.4857 16.1402 21.7962 15.7834 21.7721C15.6261 21.7614 15.4675 21.7703 15.2971 21.7703C15.323 22.0451 15.4185 22.1399 15.6442 22.142ZM19.7154 14.1348C19.7193 16.0491 19.7143 17.9634 19.7249 19.8776C19.7298 20.7644 19.5458 21.599 19.1094 22.3719C18.5677 23.3315 17.7995 24.0585 16.796 24.5134C15.6789 25.0198 14.5214 25.0875 13.3415 24.7467C13.2972 24.7339 13.2502 24.7307 13.186 24.7199C13.2075 24.7576 13.2107 24.7715 13.2193 24.7768C13.2644 24.8046 13.3094 24.8333 13.3571 24.8563C14.1005 25.2159 14.8817 25.3548 15.708 25.3057C16.2952 25.2708 16.8592 25.1547 17.3781 24.8895C19.114 24.0023 20.0712 22.5912 20.1031 20.6253C20.1333 18.7587 20.1117 16.8913 20.1075 15.0243C20.1065 14.5736 19.9949 14.1514 19.6811 13.7912C19.6931 13.9058 19.7151 14.0203 19.7154 14.1348ZM27.6614 10.9789V11.2737C27.6614 16.9647 27.6619 22.6558 27.6604 28.3468C27.6604 28.7391 27.7318 28.6995 27.2997 28.6997C22.6428 28.7009 17.986 28.7003 13.3291 28.6997C13.2835 28.6997 13.2379 28.6937 13.175 28.6894V28.4892C13.175 27.5555 13.1752 26.6217 13.1749 25.688C13.1749 25.5691 13.1877 25.4239 13.0178 25.4264C12.861 25.4286 12.8721 25.566 12.8722 25.68C12.8726 25.9164 12.8723 26.1528 12.8723 26.3892C12.8723 27.181 12.8717 27.9729 12.8728 28.7648C12.8731 28.9601 12.9187 29.0049 13.1105 29.0109C13.1518 29.0121 13.1933 29.0114 13.2346 29.0114C18.0038 29.0117 22.7729 29.0119 27.542 29.0121C27.5952 29.0121 27.6485 29.0126 27.7016 29.0108C27.9274 29.0032 27.9643 28.9654 27.9643 28.7344C27.9645 22.801 27.9645 16.8676 27.9645 10.9343C27.9643 10.6944 27.9366 10.6667 27.7011 10.6667C22.8492 10.6667 17.9974 10.6667 13.1455 10.6667C12.8966 10.6667 12.8726 10.69 12.8726 10.9415C12.8722 12.4603 12.8719 13.9791 12.874 15.4979C12.8742 15.6142 12.8317 15.7838 13.0166 15.7852C13.2085 15.7867 13.1743 15.6147 13.1744 15.4901C13.1757 14.0658 13.1749 12.6416 13.1747 11.2173V10.9789H27.6614ZM16.1548 14.3633C16.1548 13.964 16.3874 13.7197 16.7847 13.7079C16.9442 13.7032 17.104 13.703 17.2634 13.7075C17.6911 13.7195 17.909 13.9478 17.9089 14.3789C17.9089 16.1933 17.9097 18.0078 17.9077 19.8222C17.9075 19.9988 17.8945 20.1758 17.88 20.3521C17.764 21.765 16.4578 23.0518 14.9574 23.1234C14.0762 23.1654 13.3018 22.9141 12.6464 22.3248C12.0341 21.7742 11.6738 21.0932 11.598 20.2619C11.5229 19.4402 11.7646 18.7487 12.3835 18.197C12.7274 17.8903 13.1312 17.7097 13.5851 17.6338C13.8448 17.5903 13.9574 17.4893 13.9672 17.2692C13.9795 16.992 13.9804 16.7135 13.9679 16.4364C13.9576 16.2081 13.8068 16.068 13.5827 16.0942C13.3147 16.1254 13.0438 16.1693 12.7864 16.2479C11.1695 16.7417 10.0372 18.2713 10.0445 19.9617C10.0483 20.8522 10.2792 21.6809 10.7555 22.4456C11.8897 24.2667 14.1487 25.113 16.1889 24.4441C18.0281 23.8411 19.4309 22.1286 19.4473 20.0236C19.4621 18.1324 19.4564 16.2411 19.4434 14.3499C19.4416 14.0786 19.3946 13.788 19.2885 13.5407C18.9327 12.7111 18.2957 12.2403 17.3811 12.1845C16.8905 12.1546 16.3931 12.1363 15.935 12.3499C15.0855 12.7459 14.6357 13.4233 14.6176 14.3629C14.6026 15.1428 14.6141 15.9231 14.6141 16.7033C14.6142 18.1454 14.6141 19.5875 14.6151 21.0295C14.6154 21.3726 14.7421 21.4973 15.0872 21.4989C15.294 21.4998 15.5009 21.4998 15.7077 21.4988C16.0336 21.4975 16.1551 21.3756 16.1552 21.0477C16.1557 19.9366 16.1554 18.8255 16.1552 17.7144C16.1549 16.5973 16.155 15.4803 16.1548 14.3633ZM19.7513 27.8416C19.6171 27.8549 19.557 27.801 19.5783 27.6613C19.5871 27.6036 19.5806 27.5435 19.5797 27.4845C19.5785 27.4074 19.5665 27.3265 19.6885 27.3356C19.7328 27.3389 19.7668 27.3097 19.7684 27.2593C19.7705 27.1928 19.7188 27.183 19.6723 27.1813C19.5604 27.1769 19.4482 27.1769 19.3363 27.1796C19.28 27.181 19.2021 27.1696 19.1957 27.2498C19.1884 27.3433 19.2749 27.3332 19.3353 27.3467C19.4456 27.4909 19.3843 27.6527 19.3671 27.8035C19.3606 27.8597 19.2541 27.8317 19.1935 27.8435V27.8435V27.8435C19.1149 27.9456 19.1813 27.9818 19.2688 27.987C19.4314 27.9966 19.5949 28.0045 19.7572 27.978C19.8443 27.9287 19.8126 27.8845 19.7513 27.8416ZM15.2472 27.6151C15.2648 27.6311 15.3346 27.6252 15.344 27.6087C15.3918 27.5248 15.3251 27.4637 15.2796 27.3957C15.2666 27.4713 15.1612 27.5368 15.2472 27.6151ZM15.7083 27.8436C15.7208 27.8765 15.7269 27.9096 15.7225 27.9431C15.7209 27.9548 15.7181 27.9666 15.7137 27.9785C15.6389 27.9825 15.564 27.9862 15.4892 27.9908C15.3811 27.9973 15.337 27.9535 15.3737 27.8453C15.3833 27.8451 15.3915 27.8437 15.3989 27.8417C15.4062 27.8397 15.4128 27.8372 15.418 27.8335C15.4356 27.8211 15.441 27.799 15.4348 27.7678C15.4156 27.7683 15.3964 27.7687 15.3773 27.7692C15.3606 27.7695 15.344 27.77 15.3274 27.7704V27.7704C15.3274 27.7704 15.3274 27.7704 15.3274 27.7704C15.3037 27.7704 15.2801 27.7703 15.2564 27.7703C15.2438 27.7694 15.2299 27.7664 15.2161 27.7639C15.1832 27.7582 15.1511 27.7562 15.1393 27.797C15.1309 27.8261 15.1497 27.8363 15.1721 27.8446C15.1889 27.8507 15.2076 27.8557 15.2187 27.8665C15.2182 27.9009 15.2177 27.9352 15.2172 27.9696C15.2082 27.9727 15.1991 27.9754 15.1899 27.9779C15.1184 27.9971 15.0449 27.9952 14.9724 27.9874C14.8817 27.9776 14.8288 27.9282 14.912 27.8522C15.0024 27.7698 15.0208 27.6601 15.056 27.5573C15.0853 27.4717 15.1758 27.3797 15.0246 27.2955C14.9614 27.2603 15.0331 27.1973 15.0877 27.169C15.4187 27.1895 15.4183 27.1897 15.5298 27.5103C15.5678 27.6197 15.6083 27.7283 15.6477 27.8373L15.7083 27.8436ZM26.4692 27.9984L26.4777 27.9878C26.4773 27.9879 26.4768 27.988 26.4765 27.9881C26.4751 27.9884 26.4736 27.9886 26.4721 27.989L26.4698 27.9894C26.4696 27.9919 26.4695 27.9941 26.4693 27.9967C26.4693 27.9973 26.4692 27.9978 26.4692 27.9984ZM23.9087 27.8466C23.7327 27.8542 23.7725 27.7283 23.7712 27.6293C23.7696 27.4996 23.7722 27.3699 23.7705 27.2403C23.7697 27.1705 23.7822 27.0917 23.6642 27.1077C23.4962 27.1305 23.4277 27.1894 23.4507 27.306C23.5652 27.2577 23.6114 27.2962 23.5964 27.418C23.5922 27.4528 23.5947 27.4887 23.5967 27.524C23.6064 27.6926 23.6271 27.8673 23.3818 27.8834C23.3889 27.9179 23.3902 27.9658 23.4267 27.9736C23.589 28.0087 23.7536 27.9987 23.9171 27.9795C23.9461 27.9762 23.9622 27.9433 23.9588 27.9106C23.9555 27.8794 23.9389 27.8453 23.9087 27.8466ZM26.2763 27.8292C26.2358 27.8398 26.1863 27.8455 26.1371 27.8076C26.184 27.7373 26.2486 27.691 26.3156 27.647C26.3255 27.6382 26.3354 27.6293 26.3453 27.6205C26.3974 27.6033 26.4023 27.5514 26.4249 27.5126C26.4274 27.4766 26.4185 27.4381 26.4474 27.4078C26.4955 27.2668 26.4637 27.1941 26.3246 27.1279L26.3225 27.1269C26.2455 27.0714 26.1669 27.0302 26.0759 27.0993C26.0017 27.1381 25.9193 27.165 25.8697 27.2399C25.8802 27.3552 25.9063 27.4434 26.0284 27.3147C26.0867 27.2532 26.1575 27.2407 26.2146 27.2876C26.2839 27.3444 26.2637 27.4285 26.2142 27.4918C26.1539 27.569 26.0889 27.6442 26.0025 27.6956C25.9553 27.7433 25.908 27.7911 25.8608 27.8389C25.8213 27.9275 25.8313 27.9922 25.9459 27.9895C26.1147 27.9855 26.2847 28.0121 26.4521 27.9718C26.464 27.7779 26.4632 27.7803 26.2763 27.8292ZM25.5911 27.7782C25.5545 27.7503 25.5137 27.7683 25.4815 27.8022C25.4327 27.8536 25.3731 27.825 25.297 27.8305C25.3609 27.7147 25.4606 27.6611 25.5387 27.5872C25.7048 27.2672 25.5934 27.0942 25.2267 27.1032C25.206 27.1131 25.1849 27.1224 25.1645 27.1331C25.0833 27.176 24.9907 27.2345 25.0524 27.3326C25.1269 27.4508 25.1687 27.3132 25.2243 27.2848C25.2804 27.2563 25.3431 27.2498 25.3889 27.2911C25.4367 27.3342 25.4333 27.3991 25.4007 27.4536C25.3493 27.5394 25.2818 27.6115 25.1964 27.6656C25.194 27.671 25.1921 27.6767 25.189 27.6816C25.1314 27.7707 24.965 27.8242 25.023 27.9424C25.0753 28.0488 25.2266 27.978 25.3334 27.9902C25.3974 27.9974 25.4629 27.9917 25.5277 27.99C25.5707 27.9889 25.6116 27.9811 25.6168 27.9262C25.6216 27.8743 25.6398 27.8153 25.5911 27.7782ZM14.684 27.7985C14.5922 27.8458 14.4975 27.874 14.3966 27.8296C14.3579 27.8126 14.3288 27.7832 14.3259 27.7366C14.2781 27.6609 14.2907 27.578 14.2991 27.4964C14.3095 27.3957 14.3709 27.3356 14.4659 27.3149C14.5514 27.2962 14.6157 27.3323 14.6512 27.4134C14.6714 27.4597 14.6972 27.5021 14.7546 27.4863C14.8158 27.4695 14.8027 27.4118 14.8015 27.3674C14.799 27.2659 14.8443 27.121 14.6439 27.1842C14.6148 27.1933 14.5763 27.1684 14.5416 27.1644C14.3752 27.1449 14.2345 27.1922 14.1493 27.3432C14.0588 27.5038 14.058 27.6735 14.1517 27.8321C14.2384 27.979 14.3808 28.0285 14.5466 28.0105C14.6048 28.0042 14.662 27.9883 14.7197 27.9768C14.7367 27.9612 14.7538 27.9456 14.7708 27.9299C14.8107 27.893 14.8543 27.8536 14.81 27.7961C14.7714 27.7461 14.7259 27.7769 14.684 27.7985ZM21.3901 27.7893C21.3588 27.8054 21.327 27.8229 21.2933 27.8322C21.1768 27.8643 21.0692 27.8635 21.0069 27.7348C20.9374 27.5912 20.9756 27.3988 21.0916 27.3388C21.2156 27.2745 21.3053 27.3143 21.3598 27.4431C21.3839 27.4999 21.4452 27.5081 21.4744 27.4697C21.5272 27.4003 21.4998 27.31 21.4948 27.2294C21.4889 27.1339 21.4078 27.1791 21.3573 27.1677C21.3453 27.1672 21.1649 27.0988 21.0405 27.1665C20.8071 27.3115 20.7266 27.4928 20.7923 27.7257C20.8499 27.9305 20.9975 28.0124 21.3031 28.0095C21.3055 28.0094 21.3078 28.0095 21.3102 28.0095C21.3617 27.9817 21.4158 27.9577 21.4639 27.9249C21.5029 27.8984 21.5395 27.8611 21.5106 27.8066C21.48 27.7488 21.4352 27.766 21.3901 27.7893ZM24.6209 27.3905C24.6116 27.3067 24.5727 27.2429 24.4804 27.2464C24.3939 27.2497 24.365 27.3149 24.367 27.3936C24.3691 27.4743 24.4066 27.5317 24.4925 27.5297C24.5752 27.5278 24.615 27.473 24.6209 27.3905ZM24.6977 27.1856C24.8189 27.301 24.8459 27.5653 24.7583 27.749C24.6732 27.9275 24.5021 28.0305 24.3192 28.0149C24.2773 28.0113 24.2273 28.0107 24.2143 27.9668C24.1944 27.8996 24.2671 27.9034 24.3 27.8766C24.3135 27.8621 24.3288 27.8577 24.3448 27.8566C24.3678 27.8552 24.392 27.8607 24.4139 27.8543C24.4659 27.8392 24.5172 27.8079 24.5169 27.753C24.5165 27.6956 24.4603 27.7217 24.4251 27.7105C24.4184 27.7084 24.4123 27.705 24.4076 27.6993C24.3957 27.6975 24.3839 27.6957 24.372 27.6939C24.3241 27.6896 24.2876 27.6678 24.2656 27.624C24.1199 27.3798 24.1855 27.1624 24.4214 27.1092C24.5268 27.0853 24.6202 27.1118 24.6977 27.1856ZM16.3153 27.5848C16.3163 27.4524 16.2656 27.3391 16.1195 27.3444C15.9466 27.3507 16.0784 27.5034 16.021 27.5746C16.0786 27.6544 15.9427 27.8127 16.118 27.8249C16.2609 27.8349 16.3144 27.7168 16.3153 27.5848ZM16.4848 27.7461C16.4303 27.9273 16.2849 27.9953 16.1021 27.9902C15.9967 27.9873 15.8913 27.9844 15.786 27.9815C15.7391 27.9245 15.7598 27.8876 15.8079 27.8364C15.8877 27.7517 15.8698 27.4227 15.7929 27.3333C15.7244 27.2276 15.7726 27.1782 15.8791 27.1788C16.024 27.1798 16.1688 27.1943 16.3137 27.203C16.3313 27.2179 16.3489 27.2328 16.3665 27.2478C16.5278 27.3848 16.5397 27.5639 16.4848 27.7461ZM16.8765 28.0241C16.8929 28.0164 16.9064 28.0031 16.9146 27.9792C16.9036 27.9975 16.8906 28.0119 16.8765 28.0241ZM16.958 27.4049C16.9376 27.4774 16.8456 27.5311 16.9 27.6099C16.9198 27.6386 16.9924 27.638 17.0133 27.6099C17.069 27.5345 16.9894 27.4754 16.958 27.4049ZM17.3847 27.9799L17.0308 27.9831C17.0209 27.9769 17.01 27.9733 16.9984 27.9722C17 27.9258 16.9792 27.874 17.0305 27.8395C17.0651 27.8382 17.1236 27.8161 17.0904 27.7922C17.0143 27.7377 16.9104 27.7438 16.831 27.7885C16.7942 27.8092 16.8509 27.8388 16.8817 27.8514C16.8827 27.8914 16.8839 27.9314 16.885 27.9714C16.7807 28.0014 16.6751 27.9911 16.5694 27.9819C16.5488 27.9456 16.5205 27.9007 16.5617 27.8703C16.693 27.7735 16.6936 27.6145 16.7547 27.4848C16.7835 27.4239 16.8277 27.3585 16.7139 27.3222C16.6637 27.3062 16.6574 27.2475 16.6993 27.2053C16.784 27.1201 17.0801 27.1876 17.125 27.3012C17.1875 27.4593 17.2488 27.618 17.3106 27.7764V27.7764C17.3259 27.8476 17.4589 27.876 17.3847 27.9799ZM18.7456 27.5007C18.7224 27.4974 18.6999 27.4906 18.6771 27.4854C18.6196 27.4722 18.559 27.4599 18.5361 27.3968C18.5221 27.3582 18.5489 27.3265 18.5831 27.3146C18.6535 27.29 18.723 27.292 18.7747 27.3564C18.82 27.4127 18.861 27.4752 18.9445 27.4123C18.9459 27.3417 18.9474 27.2711 18.9488 27.2005C18.8551 27.1322 18.7459 27.1713 18.6459 27.1657C18.3904 27.1513 18.2858 27.2953 18.3423 27.5576C18.4397 27.6114 18.5395 27.6583 18.6491 27.6831C18.7118 27.6973 18.7915 27.7153 18.7688 27.802C18.745 27.8931 18.6599 27.8753 18.5909 27.8641C18.5285 27.854 18.4866 27.8093 18.4589 27.7558C18.4243 27.689 18.374 27.6823 18.3112 27.7051C18.3131 27.7154 18.3104 27.7244 18.3032 27.732C18.2715 27.8033 18.2701 27.8747 18.3025 27.9462C18.5055 28.031 18.7084 28.0456 18.911 27.945C19.0802 27.7248 18.9548 27.5305 18.7456 27.5007ZM22.3079 27.481C22.3189 27.3715 22.4275 27.2192 22.2335 27.1845C22.0685 27.1549 21.8937 27.1741 21.7236 27.1807C21.6352 27.1842 21.5986 27.2246 21.6487 27.321C21.7384 27.4937 21.7341 27.6758 21.6509 27.8486C21.5975 27.9595 21.643 27.988 21.7398 27.9903C21.8573 27.9931 21.9749 27.9913 22.0924 27.9913C22.3382 27.9915 22.3382 27.9915 22.3351 27.7381C22.307 27.7141 22.2789 27.6901 22.2507 27.6661C22.177 27.7573 22.1345 27.896 21.9675 27.8409C21.9294 27.8283 21.882 27.8386 21.8744 27.7834C21.8688 27.7433 21.8585 27.6972 21.8923 27.667C21.9296 27.6335 21.967 27.6495 21.9984 27.685C22.036 27.7275 22.0874 27.7393 22.1147 27.6869C22.1533 27.6127 22.1519 27.523 22.1153 27.4506C22.0836 27.3879 22.0301 27.4096 21.9898 27.4608C21.9658 27.4914 21.9301 27.5015 21.8966 27.4787C21.8629 27.4557 21.8693 27.4169 21.875 27.3826C21.8827 27.3374 21.9199 27.3347 21.9555 27.3327C22.0724 27.3259 22.196 27.3082 22.2097 27.4798C22.2424 27.4802 22.2751 27.4806 22.3079 27.481ZM20.7124 27.2032C20.6004 27.4512 20.6451 27.715 20.6342 27.9734C20.5295 28.0451 20.4653 27.9864 20.4086 27.9034C20.3767 27.8066 20.3181 27.7248 20.2611 27.6422C20.2541 27.6021 20.2398 27.5664 20.1858 27.5356V27.6554C20.1847 27.7298 20.142 27.8146 20.2579 27.8528C20.312 27.8706 20.2894 27.9302 20.2844 27.9746C20.2117 27.9799 20.1391 27.9861 20.0663 27.9903C19.9601 27.9964 19.9175 27.9504 19.9504 27.8449L19.9469 27.8487C19.9469 27.848 19.9469 27.8473 19.9468 27.8466C19.9471 27.8465 19.9472 27.8464 19.9475 27.8463C19.9481 27.846 19.9486 27.8457 19.9494 27.8454C20.0448 27.7335 20.039 27.4085 19.9383 27.306C19.93 27.2409 19.9425 27.1881 20.0202 27.1806C20.1018 27.1728 20.184 27.1633 20.2337 27.2542C20.2893 27.3559 20.3484 27.4557 20.406 27.5564C20.4168 27.5846 20.4279 27.6411 20.4557 27.6214C20.4972 27.5919 20.4722 27.5308 20.4664 27.4827C20.4668 27.4221 20.4937 27.3531 20.4023 27.327C20.3645 27.3162 20.356 27.2779 20.3617 27.2402C20.3698 27.1866 20.4135 27.1819 20.4538 27.1788C20.5411 27.172 20.6286 27.169 20.7124 27.2032Z" fill="#231F20"/>
</g>
<defs>
<clipPath id="clip0_1_4619">
<rect width="40" height="40" fill="white"/>
</clipPath>
</defs>
</svg>
