<svg width="40" height="40" viewBox="0 0 40 40" fill="none" xmlns="http://www.w3.org/2000/svg">
<g clip-path="url(#clip0_1_4609)">
<path d="M39.2129 11.449V11.449C40.2624 17.0781 40.2624 22.8026 39.2129 28.5271V28.5271C38.2588 33.9654 33.9654 38.2588 28.5271 39.2129V39.2129C22.898 40.2624 17.1735 40.2624 11.449 39.2129V39.2129C6.01073 38.2588 1.81276 34.0608 0.858676 28.6225V28.6225C-0.286225 22.9934 -0.286225 17.1735 0.858676 11.449V11.449C1.81276 6.01073 6.01073 1.81276 11.449 0.858676V0.858676C17.0781 -0.286225 22.898 -0.286225 28.6225 0.858676V0.858676C34.0608 1.81276 38.2588 6.01073 39.2129 11.449Z" fill="white"/>
<path fill-rule="evenodd" clip-rule="evenodd" d="M38.2293 28.3468C39.2571 22.7405 39.2565 17.1393 38.2298 11.6323L39.2129 11.449C40.2624 17.0781 40.2624 22.8026 39.2129 28.5271L38.2293 28.3468ZM28.5271 39.2129C33.9654 38.2588 38.2588 33.9654 39.2129 28.5271L38.2279 28.3543C37.3466 33.3779 33.3779 37.3466 28.3543 38.2279L28.5271 39.2129ZM11.449 39.2129C17.1735 40.2624 22.898 40.2624 28.5271 39.2129L28.3438 38.2298C22.8369 39.2565 17.2356 39.2571 11.6293 38.2293L11.449 39.2129ZM28.6225 0.858676L28.4497 1.84363C33.4733 2.72496 37.3466 6.59823 38.2279 11.6218L39.2129 11.449C38.2588 6.01073 34.0608 1.81276 28.6225 0.858676ZM11.449 0.858676C17.0781 -0.286225 22.898 -0.286225 28.6225 0.858676L28.4264 1.83926C22.8303 0.720026 17.1448 0.720683 11.6483 1.83861L11.449 0.858676ZM0.858676 11.449C1.81276 6.01073 6.01073 1.81276 11.449 0.858676L11.6218 1.84363C6.59823 2.72496 2.72496 6.59823 1.84363 11.6218L0.858676 11.449ZM0.858676 11.449L1.83926 11.6451C0.720026 17.2413 0.720683 22.9267 1.83861 28.4232L0.858676 28.6225C-0.286225 22.9934 -0.286225 17.1735 0.858676 11.449ZM0.858676 28.6225C1.81276 34.0608 6.01073 38.2588 11.449 39.2129L11.6218 38.2279C6.59823 37.3466 2.72496 33.4733 1.84363 28.4497L0.858676 28.6225Z" fill="#EEF4FE"/>
<path fill-rule="evenodd" clip-rule="evenodd" d="M13.0667 8.44434C10.5139 8.44434 8.44446 10.5138 8.44446 13.0666V26.9332C8.44446 29.486 10.5139 31.5554 13.0667 31.5554H26.9333C29.4861 31.5554 31.5556 29.486 31.5556 26.9332V13.0666C31.5556 10.5138 29.4861 8.44434 26.9333 8.44434H13.0667Z" fill="#F6F7F8"/>
<g clip-path="url(#clip1_1_4609)">
<path d="M30.5556 7.44434V30.5554H7.44446V7.44434H30.5556ZM25.5955 25.8031C28.8474 22.0667 28.5377 15.8579 25.3442 12.1817C20.5938 6.71333 12.6946 11.0633 10.6925 16.8284C9.14289 21.2909 10.7299 25.2558 14.9861 27.2314C18.5533 28.8871 22.8561 28.9504 25.5955 25.8031Z" fill="#C92325"/>
<path d="M25.5955 25.8032C22.8561 28.9505 18.5533 28.8872 14.9861 27.2315C10.7299 25.2559 9.1429 21.2908 10.6925 16.8285C12.6946 11.0634 20.5938 6.71344 25.3442 12.182C28.5377 15.8583 28.8474 22.0671 25.5955 25.8034V25.8032ZM26.4092 22.6199C28.3579 17.4192 25.1018 9.32869 18.5831 10.7369C14.1081 11.7036 10.4066 16.583 11.1027 21.2002C11.6569 24.8767 15.2322 26.9095 18.6446 27.3632C22.4621 27.8707 25.1328 26.026 26.4092 22.6197V22.6199Z" fill="#FDFDFD"/>
<path d="M26.4092 22.6198C25.1328 26.0261 22.4621 27.8706 18.6446 27.3633C15.2322 26.9097 11.6569 24.8768 11.1027 21.2003C10.4069 16.5832 14.1081 11.7037 18.5831 10.737C25.1018 9.32881 28.358 17.4191 26.4092 22.62V22.6198ZM15.6489 14.031C15.5634 14.102 15.4735 14.1595 15.3945 14.2272C15.2983 14.3093 14.9787 14.6532 14.9036 14.6837C14.6734 14.7773 14.3196 14.4246 14.296 14.8854C14.2865 15.0715 14.4349 15.0546 14.5488 15.1207C14.5699 15.1329 14.5791 15.1595 14.586 15.1634C14.1134 15.826 13.6842 16.5275 13.4104 17.2989C13.418 17.3303 13.6304 17.4623 13.6727 17.4981C14.1583 17.9104 14.6644 18.4103 15.0302 18.937C15.3039 19.3308 15.9489 20.4235 15.2858 20.7281C14.7561 20.9715 13.8109 20.4321 13.3632 20.142C13.3122 20.109 12.944 19.8314 12.9223 19.8552C12.8617 21.8691 14.0175 23.4932 15.7344 24.4268C18.1197 25.7241 21.6125 26.0102 23.5652 23.8075L23.9923 23.2526C23.3454 23.254 22.5897 23.2782 21.9892 23.002C21.0988 22.5927 21.5485 21.9717 22.1741 21.6075C23.002 21.1257 24.0879 20.9421 25.0339 20.8851C25.2467 20.09 25.2548 19.264 25.2403 18.4452C25.4503 18.4408 25.5892 18.5913 25.6905 18.3292C25.8222 17.9885 25.5236 18.0879 25.3477 17.9333C25.2084 17.8108 25.2315 17.6114 25.1876 17.4464C25.1125 17.1642 25.0256 16.9095 24.8703 16.6659C24.7272 16.0789 24.451 15.4623 24.1173 14.9575C23.7258 14.3656 23.2086 14.1061 22.4949 14.3019C21.9571 14.4495 21.4061 14.6846 20.8672 14.8466C20.698 14.8974 20.5378 14.9927 20.4008 14.8376C19.9501 14.3136 19.5665 13.6328 19.1045 13.1294C18.1024 12.0386 16.4927 13.3307 15.6492 14.031H15.6489ZM14.3073 14.5637C14.0434 14.4188 13.8414 14.8339 14.0686 14.9524C14.1656 15.0031 14.277 14.9829 14.2368 14.8554C14.2241 14.8149 14.1342 14.7997 14.1236 14.7477C14.2759 14.7738 14.3096 14.7056 14.3073 14.5637ZM25.8869 18.3988C25.653 18.3042 25.6297 18.6246 25.8742 18.5841C26.005 18.5626 26.0593 18.3396 26.0217 18.2294C26.0052 18.1815 25.8631 18.0842 25.8076 18.1695C25.6916 18.3472 25.8592 18.2772 25.8869 18.3988Z" fill="#C92325"/>
<path d="M25.24 18.4451C25.2545 19.2639 25.2462 20.0899 25.0336 20.8849C24.0877 20.942 23.0017 21.1255 22.1738 21.6074C21.5482 21.9716 21.0987 22.5926 21.9889 23.0019C22.5891 23.2779 23.3451 23.2538 23.992 23.2525L23.5649 23.8073C21.6122 26.0101 18.1195 25.7242 15.7342 24.4267C14.0172 23.493 12.8617 21.869 12.922 19.8551C12.9437 19.8313 13.3119 20.1089 13.363 20.1419C13.8108 20.432 14.7559 20.9714 15.2856 20.728C15.9486 20.4234 15.3036 19.3307 15.03 18.9369C14.6639 18.4104 14.158 17.9103 13.6724 17.498C13.6301 17.4622 13.418 17.3302 13.4101 17.2988C13.684 16.5273 14.1129 15.8259 14.5858 15.1633C14.611 15.1786 14.6514 15.1728 14.6902 15.2089C14.8046 15.3147 14.6888 15.6436 14.6784 15.7991C14.6017 16.9339 15.1125 17.9438 16.2449 18.2766C17.427 18.624 18.443 17.9582 18.9806 16.935C19.1222 16.6656 19.1992 16.3658 19.3462 16.0989C19.4523 15.9856 19.8486 16.0596 19.9984 16.0947C20.1481 16.1298 20.731 16.3492 20.7909 16.4811C20.856 16.6249 20.6996 17.1017 20.6707 17.2849C20.4994 18.3751 20.8276 19.5202 21.8965 19.9977C23.0336 20.5059 24.182 20.043 24.7965 19.0069C24.8607 18.8988 25.0271 18.4788 25.1184 18.45C25.1563 18.4379 25.2007 18.446 25.2402 18.4451H25.24ZM19.5514 18.1715C19.5133 18.1576 19.4768 18.1671 19.4403 18.1807C19.1634 18.2845 18.6817 18.5651 18.4067 18.7185C18.3677 18.7402 18.2015 18.8292 18.1934 18.8535C18.1652 18.9392 18.8031 20.0141 18.8766 20.1798L18.9937 20.1604L20.223 19.4932L19.5514 18.1715Z" fill="#FDFDFD"/>
<path d="M24.8703 16.6657C24.2405 15.6784 22.9372 15.4237 21.8831 15.8394C21.7246 15.9021 21.3234 16.1579 21.2071 16.1577C21.0558 16.1577 20.8057 15.9289 20.6566 15.8526C20.4357 15.7398 20.0668 15.6229 19.8203 15.6028C19.63 15.5873 19.3534 15.6576 19.208 15.515C19.0636 15.2894 18.9688 15.0532 18.811 14.8325C18.174 13.9425 16.9545 13.4571 15.9103 13.9108C15.819 13.9506 15.7539 14.0414 15.6489 14.0308C16.4925 13.3305 18.1024 12.0384 19.1043 13.1292C19.5665 13.6323 19.9499 14.3132 20.4006 14.8373C20.5376 14.9924 20.6978 14.8972 20.867 14.8464C21.4059 14.6843 21.9569 14.4493 22.4947 14.3016C23.2083 14.1059 23.7256 14.3654 24.1171 14.9573C24.4508 15.4618 24.7272 16.0786 24.87 16.6657H24.8703Z" fill="#FDFDFD"/>
<path d="M15.6489 14.0309C15.7538 14.0413 15.819 13.9507 15.9103 13.911C16.9544 13.4571 18.174 13.9426 18.8109 14.8326C18.9688 15.0533 19.0635 15.2895 19.208 15.5151C19.3534 15.6577 19.63 15.5874 19.8202 15.6029C20.0668 15.623 20.4356 15.7397 20.6566 15.8528C20.8057 15.9288 21.0557 16.1576 21.2071 16.1578C21.3233 16.1578 21.7246 15.9022 21.8831 15.8396C22.9372 15.4238 24.2404 15.6785 24.8702 16.6658C25.0255 16.9094 25.1124 17.1641 25.1875 17.4463C25.2314 17.6115 25.2083 17.8107 25.3477 17.9332C25.5233 18.0878 25.8222 17.9885 25.6904 18.3291C25.5892 18.5912 25.4503 18.4405 25.2402 18.4451C25.2007 18.4461 25.1566 18.438 25.1184 18.45C25.0271 18.4789 24.8607 18.8988 24.7965 19.007C24.182 20.043 23.0336 20.5059 21.8965 19.9977C20.8278 19.52 20.4997 18.3751 20.6707 17.285C20.6993 17.1019 20.856 16.6249 20.7909 16.4811C20.731 16.3494 20.1495 16.1303 19.9984 16.0947C19.8472 16.0591 19.4523 15.9856 19.3462 16.0989C19.1992 16.3658 19.1222 16.6656 18.9806 16.9351C18.4428 17.9582 17.427 18.624 16.2449 18.2767C15.1125 17.9439 14.6017 16.9339 14.6784 15.7991C14.6891 15.6436 14.8049 15.3147 14.6902 15.2089C14.6514 15.1728 14.611 15.1786 14.5858 15.1634C14.5788 15.1592 14.5696 15.1326 14.5486 15.1206C14.4346 15.0547 14.2862 15.0716 14.2957 14.8853C14.3193 14.4245 14.6731 14.7774 14.9033 14.6836C14.9784 14.6531 15.2983 14.3089 15.3942 14.2271C15.4735 14.1596 15.5631 14.1019 15.6486 14.0309H15.6489ZM18.6767 16.8505C18.8285 16.6975 18.8978 16.3383 18.9073 16.1222C19.0014 13.9535 15.7448 13.103 15.0186 15.2609C14.6636 16.3159 14.9747 17.4104 15.9801 17.9404C16.8705 18.4098 17.899 18.0996 18.4643 17.2965C18.5001 17.2457 18.5923 17.1192 18.6069 17.0691C18.6154 17.0393 18.6016 17.0231 18.5729 17.0351C18.5144 17.0596 18.4601 17.1978 18.4104 17.2427C18.3626 17.2524 18.3714 17.2202 18.3771 17.1865C18.3845 17.1444 18.6801 16.5884 18.7113 16.5729C18.7425 16.5574 18.7478 16.581 18.7465 16.6078C18.7418 16.6954 18.6603 16.7555 18.6767 16.85V16.8505ZM20.872 17.7634C20.8489 17.856 20.872 18.1516 20.872 18.2718C20.872 18.9247 21.5755 19.71 22.1842 19.8947C23.3518 20.2487 24.3904 19.5954 24.7951 18.4971C25.668 16.1282 22.2473 14.8816 21.1223 16.9043C21.0881 16.966 20.8443 17.5237 20.93 17.544C20.9774 17.5551 20.9718 17.5057 20.9799 17.4798C21.0067 17.3943 20.9855 17.2845 21.0798 17.3129L21.0104 18.0294H20.9413C20.9298 17.9637 20.9674 17.7751 20.9182 17.74C20.906 17.7183 20.8734 17.7573 20.872 17.7634Z" fill="#090708"/>
<path d="M14.3073 14.5638C14.3096 14.7057 14.2759 14.7739 14.1236 14.7477C14.1342 14.7997 14.2241 14.815 14.2368 14.8554C14.277 14.983 14.1656 15.0031 14.0686 14.9525C13.8414 14.8339 14.0434 14.4189 14.3073 14.5638Z" fill="#090708"/>
<path d="M25.8869 18.3987C25.8594 18.2769 25.6918 18.3471 25.8076 18.1694C25.8631 18.0843 26.0055 18.1816 26.0216 18.2293C26.0593 18.3395 26.0048 18.5623 25.8742 18.584C25.6294 18.6245 25.653 18.3041 25.8869 18.3987Z" fill="#090708"/>
<path d="M19.5514 18.1716L20.223 19.4933L18.9938 20.1605L18.8766 20.18C18.8031 20.0142 18.1652 18.9394 18.1934 18.8536C18.2015 18.8293 18.3677 18.7404 18.4067 18.7186C18.682 18.5652 19.1636 18.2846 19.4403 18.1808C19.4765 18.1672 19.5133 18.1577 19.5514 18.1716Z" fill="#F6911D"/>
<path d="M20.872 17.7633C20.8736 17.7571 20.906 17.7183 20.9182 17.74C20.9675 17.7751 20.9298 17.9635 20.9414 18.0293H21.0105L21.0798 17.3129C20.9855 17.2845 21.0068 17.3943 20.98 17.4798C20.9719 17.5057 20.9772 17.5551 20.93 17.544C20.8443 17.5239 21.0879 16.966 21.1223 16.9043C22.2471 14.8816 25.668 16.1282 24.7951 18.4971C24.3905 19.5954 23.3518 20.2487 22.1843 19.8946C21.5755 19.71 20.872 18.9247 20.872 18.2718C20.872 18.1516 20.8489 17.856 20.872 17.7633ZM22.4607 16.7173C22.0562 16.7841 21.7526 17.6344 21.7262 17.9935C21.7056 18.2734 21.7385 18.9157 22.1755 18.743C22.4854 18.6208 22.7281 18.0811 22.802 17.7751C22.8737 17.4788 22.9696 16.6334 22.4607 16.7173Z" fill="#FDFDFD"/>
<path d="M18.6767 16.8506C18.6605 16.7561 18.7419 16.6958 18.7465 16.6084C18.7479 16.5816 18.7435 16.5576 18.7114 16.5735C18.6793 16.5895 18.3846 17.1451 18.3772 17.1871C18.3714 17.2209 18.3626 17.253 18.4105 17.2433C18.4599 17.1982 18.5142 17.06 18.5729 17.0357C18.6016 17.0237 18.6157 17.0399 18.6069 17.0697C18.5924 17.1199 18.5001 17.2463 18.4643 17.2971C17.8993 18.1 16.8706 18.4104 15.9801 17.941C14.9748 17.4111 14.6637 16.3165 15.0187 15.2615C15.7448 13.1034 19.0014 13.9539 18.9074 16.1228C18.8979 16.3389 18.8286 16.6981 18.6767 16.8511V16.8506ZM17.5799 17.072C17.9046 16.7115 18.1581 15.9021 17.9714 15.4411C17.8147 15.0542 17.5017 15.2287 17.3011 15.4635C16.9894 15.8289 16.7724 16.5895 16.9422 17.048C17.0742 17.4044 17.3781 17.2962 17.5801 17.072H17.5799Z" fill="#FDFDFD"/>
<path d="M22.4607 16.7175C22.9696 16.6336 22.8737 17.479 22.8021 17.7753C22.7281 18.0813 22.4852 18.6209 22.1755 18.7432C21.7385 18.9158 21.7057 18.2733 21.7262 17.9937C21.7526 17.6345 22.0563 16.7843 22.4607 16.7175Z" fill="#090708"/>
<path d="M17.5799 17.072C17.3779 17.2962 17.074 17.4044 16.942 17.048C16.7721 16.5895 16.9891 15.8289 17.3009 15.4635C17.5015 15.2285 17.8144 15.054 17.9711 15.4411C18.1579 15.9022 17.9046 16.7115 17.5796 17.072H17.5799Z" fill="#090708"/>
</g>
</g>
<defs>
<clipPath id="clip0_1_4609">
<rect width="40" height="40" fill="white"/>
</clipPath>
<clipPath id="clip1_1_4609">
<rect x="7.44446" y="7.44434" width="23.1111" height="23.1111" rx="4.69444" fill="white"/>
</clipPath>
</defs>
</svg>
