<svg width="40" height="40" viewBox="0 0 40 40" fill="none" xmlns="http://www.w3.org/2000/svg">
<g clip-path="url(#clip0_1_4620)">
<path d="M39.2129 11.449V11.449C40.2624 17.0781 40.2624 22.8026 39.2129 28.5271V28.5271C38.2588 33.9654 33.9654 38.2588 28.5271 39.2129V39.2129C22.898 40.2624 17.1735 40.2624 11.449 39.2129V39.2129C6.01073 38.2588 1.81276 34.0608 0.858676 28.6225V28.6225C-0.286225 22.9934 -0.286225 17.1735 0.858676 11.449V11.449C1.81276 6.01073 6.01073 1.81276 11.449 0.858676V0.858676C17.0781 -0.286225 22.898 -0.286225 28.6225 0.858676V0.858676C34.0608 1.81276 38.2588 6.01073 39.2129 11.449Z" fill="white"/>
<path fill-rule="evenodd" clip-rule="evenodd" d="M38.2293 28.3468C39.2571 22.7405 39.2565 17.1393 38.2298 11.6323L39.2129 11.449C40.2624 17.0781 40.2624 22.8026 39.2129 28.5271L38.2293 28.3468ZM28.5271 39.2129C33.9654 38.2588 38.2588 33.9654 39.2129 28.5271L38.2279 28.3543C37.3466 33.3779 33.3779 37.3466 28.3543 38.2279L28.5271 39.2129ZM11.449 39.2129C17.1735 40.2624 22.898 40.2624 28.5271 39.2129L28.3438 38.2298C22.8369 39.2565 17.2356 39.2571 11.6293 38.2293L11.449 39.2129ZM28.6225 0.858676L28.4497 1.84363C33.4733 2.72496 37.3466 6.59823 38.2279 11.6218L39.2129 11.449C38.2588 6.01073 34.0608 1.81276 28.6225 0.858676ZM11.449 0.858676C17.0781 -0.286225 22.898 -0.286225 28.6225 0.858676L28.4264 1.83926C22.8303 0.720026 17.1448 0.720683 11.6483 1.83861L11.449 0.858676ZM0.858676 11.449C1.81276 6.01073 6.01073 1.81276 11.449 0.858676L11.6218 1.84363C6.59823 2.72496 2.72496 6.59823 1.84363 11.6218L0.858676 11.449ZM0.858676 11.449L1.83926 11.6451C0.720026 17.2413 0.720683 22.9267 1.83861 28.4232L0.858676 28.6225C-0.286225 22.9934 -0.286225 17.1735 0.858676 11.449ZM0.858676 28.6225C1.81276 34.0608 6.01073 38.2588 11.449 39.2129L11.6218 38.2279C6.59823 37.3466 2.72496 33.4733 1.84363 28.4497L0.858676 28.6225Z" fill="#EEF4FE"/>
<path fill-rule="evenodd" clip-rule="evenodd" d="M12.5333 7.55566C9.78417 7.55566 7.55554 9.78429 7.55554 12.5334V27.4668C7.55554 30.2159 9.78417 32.4446 12.5333 32.4446H27.4667C30.2158 32.4446 32.4444 30.2159 32.4444 27.4668V12.5334C32.4444 9.78429 30.2158 7.55566 27.4667 7.55566H12.5333Z" fill="#EB0D1E"/>
<path d="M19.9973 31.0934C25.6403 31.0934 30.2958 26.8829 31.0011 21.4298C31.0988 20.6701 30.5074 19.9973 29.7423 19.9973H10.2577C9.49262 19.9973 8.90119 20.6701 8.99885 21.4298C9.6988 26.8829 14.3597 31.0934 19.9973 31.0934Z" fill="white"/>
<path d="M13.9365 25.5372C13.9907 25.8248 14.3217 25.9876 14.7178 25.9876C15.1356 25.9876 15.396 25.8139 15.396 25.5806C15.396 25.3581 15.2116 25.2605 14.6744 25.1628L14.1969 25.076C13.2474 24.9078 12.7319 24.4303 12.7319 23.6869C12.7319 22.732 13.5566 22.1243 14.6907 22.1243C15.9658 22.1243 16.6766 22.7157 16.682 23.6544H15.396C15.3852 23.3614 15.0868 23.1932 14.707 23.1932C14.3163 23.1932 14.1209 23.3668 14.1209 23.5784C14.1209 23.7955 14.3271 23.8931 14.7992 23.9799L15.2767 24.0668C16.3022 24.2512 16.7797 24.669 16.7797 25.445C16.7797 26.4271 16.0146 27.051 14.7015 27.051C13.4644 27.051 12.6505 26.4976 12.6505 25.5263H13.9365V25.5372Z" fill="#EB0D1E"/>
<path d="M21.4677 26.9805V24.2187H21.446L20.3716 26.9805H19.6228L18.5485 24.2187H18.5214V26.9805H17.3005V22.2166H18.9175L19.9864 25.0543H20.0135L21.077 22.2166H22.6939V26.9805H21.4677Z" fill="#EB0D1E"/>
<path d="M24.5062 25.5372C24.5605 25.8248 24.8915 25.9876 25.2876 25.9876C25.7054 25.9876 25.9658 25.8139 25.9658 25.5806C25.9658 25.3581 25.7813 25.2605 25.2442 25.1628L24.7667 25.076C23.8171 24.9078 23.3017 24.4303 23.3017 23.6869C23.3017 22.732 24.1264 22.1243 25.2604 22.1243C26.5355 22.1243 27.2463 22.7157 27.2518 23.6544H25.9658C25.955 23.3614 25.6565 23.1932 25.2767 23.1932C24.886 23.1932 24.6907 23.3668 24.6907 23.5784C24.6907 23.7955 24.8969 23.8931 25.369 23.9799L25.8464 24.0668C26.8719 24.2512 27.3494 24.669 27.3494 25.445C27.3494 26.4271 26.5844 27.051 25.2713 27.051C24.0342 27.051 23.2203 26.4976 23.2203 25.5263H24.5062V25.5372Z" fill="#EB0D1E"/>
<path fill-rule="evenodd" clip-rule="evenodd" d="M19.7205 12.911L17.778 14.4411C17.6695 14.5279 17.4579 14.5822 17.2897 14.3706C16.6603 13.4915 16.5246 12.3901 16.8393 11.37C16.9099 11.1584 16.9479 11.0607 17.2354 11.0336L19.243 10.9142C19.5035 10.8925 19.7259 10.8925 19.9647 11.0499L20.5453 11.4677L20.3499 12.0971C20.2306 12.4498 20.0135 12.6777 19.7205 12.911Z" fill="white"/>
<path fill-rule="evenodd" clip-rule="evenodd" d="M22.1351 12.8514L22.6017 14.1699C22.6505 14.311 22.656 14.4575 22.4986 14.6257C21.8909 15.3202 20.9956 15.7597 20.0027 15.7651C19.6663 15.7651 19.4492 15.6566 19.5469 15.2877L20.1546 13.1064C20.236 12.8351 20.3879 12.4933 20.6267 12.3034L21.1801 11.9019L21.777 12.3359C21.9452 12.4499 22.0862 12.6669 22.1351 12.8514Z" fill="white"/>
<path fill-rule="evenodd" clip-rule="evenodd" d="M23.0032 11.0175C23.2962 11.6414 23.383 12.3468 23.2745 13.0196C23.2582 13.1227 23.1552 13.2204 23.0032 13.101L22.4335 12.6724C22.2544 12.5421 22.1025 12.3468 22.0266 12.1135L21.8149 11.4461L22.5637 10.8927C22.7048 10.795 22.9056 10.7841 23.0032 11.0175Z" fill="white"/>
<path fill-rule="evenodd" clip-rule="evenodd" d="M21.6087 9.53051C21.9506 9.715 22.3684 10.0568 22.6342 10.4095C22.7482 10.5614 22.6614 10.6917 22.4986 10.6917L21.5545 10.6971L21.2723 9.76926C21.2072 9.54137 21.4026 9.41114 21.6087 9.53051Z" fill="white"/>
<path fill-rule="evenodd" clip-rule="evenodd" d="M20.8437 9.22677C21.1421 9.30274 21.1259 9.55776 21.0825 9.70426L20.7732 10.7135L20.0895 10.7189C19.764 10.7189 19.5469 10.6864 19.2431 10.5399L18.2176 10.0135C18.0222 9.91587 18.0439 9.74767 18.2013 9.65C18.9718 9.14538 19.9484 8.99346 20.8437 9.22677Z" fill="white"/>
<path d="M17.9246 17.4853C18.3424 17.4961 18.2718 18.1364 17.6478 18.0441C17.8757 18.3914 18.6462 18.2395 18.7059 17.7674C18.7493 17.3767 18.4563 17.1326 18.0114 17.1326C17.3982 17.1326 17.013 17.5395 16.9425 18.0333C16.8719 18.5108 17.1975 18.9286 17.7509 18.9286C18.1362 18.9231 18.5594 18.6464 18.6137 18.31C18.2338 18.5813 17.7292 18.4999 17.5719 18.31C17.344 18.017 17.5068 17.4744 17.9246 17.4853Z" fill="white"/>
<path d="M14.8535 18.2882C14.9294 18.1905 15.0651 17.8758 15.1899 17.6425L15.4883 17.0673C15.6456 16.7635 15.9061 16.7038 16.2262 16.796L15.4123 18.4021C15.2441 18.7277 15.0705 18.9827 14.669 18.9339C14.2675 18.8796 14.1806 18.5378 14.1427 18.2393L13.9419 16.8015V16.796C14.1155 16.7418 14.4628 16.6712 14.5225 17.089L14.6418 17.9409C14.669 18.1037 14.669 18.1634 14.7015 18.2556C14.7287 18.3424 14.8046 18.3533 14.8535 18.2882Z" fill="white"/>
<path d="M20.453 16.7419L20.198 18.2503C20.1655 18.4457 20.0624 18.8417 20.567 18.8906C20.8546 18.9177 21.1042 18.7115 21.1476 18.4131C20.9143 18.4674 20.6918 18.4836 20.7352 18.2123C20.898 17.2465 20.7786 17.9248 20.9034 17.2031C20.9794 16.7745 20.6321 16.7365 20.453 16.7419Z" fill="white"/>
<path d="M16.0309 17.8541L15.9603 18.2556C15.9332 18.4075 15.8193 18.8633 16.313 18.9175C16.5952 18.9501 16.8936 18.7602 16.9045 18.4401C16.6711 18.4943 16.4487 18.5052 16.4921 18.2339C16.6549 17.2681 16.5138 18.1254 16.6332 17.3983C16.1611 17.3711 16.058 17.7076 16.0309 17.8541Z" fill="white"/>
<path d="M24.5496 17.2139L24.376 18.2448C24.338 18.4618 24.2783 18.8254 24.7233 18.8851C25.0217 18.923 25.2767 18.7331 25.3255 18.4076C25.0977 18.4618 24.8698 18.4781 24.9132 18.2014L25.0108 17.6154C25.3038 17.6154 25.472 17.4309 25.5209 17.1433H25.0922L25.1628 16.731C24.6744 16.7364 24.5822 17.0348 24.5496 17.2139Z" fill="white"/>
<path d="M23.3776 17.2192L23.204 18.2502C23.166 18.4672 23.1063 18.8307 23.5513 18.8904C23.8497 18.9284 24.1101 18.7385 24.159 18.413C23.9257 18.4672 23.6978 18.4835 23.7466 18.2068L23.8497 17.6208C24.1373 17.6208 24.3109 17.4363 24.3543 17.1487H23.9257L23.9962 16.7363C23.5024 16.7418 23.4102 17.0402 23.3776 17.2192Z" fill="white"/>
<path d="M19.0097 17.2302L18.8361 18.2612C18.7981 18.4782 18.7384 18.8417 19.1833 18.9014C19.4818 18.9394 19.7368 18.7495 19.7856 18.4239C19.5523 18.4782 19.3298 18.4945 19.3733 18.2178L19.4709 17.6317C19.7639 17.6317 19.9321 17.4473 19.9755 17.1597H19.5469L19.6174 16.7473C19.1345 16.7527 19.0423 17.0512 19.0097 17.2302Z" fill="white"/>
<path fill-rule="evenodd" clip-rule="evenodd" d="M22.2545 17.1162C21.7444 17.1162 21.2615 17.5177 21.1801 18.0115C21.0933 18.4998 21.4406 18.9014 21.956 18.9014C22.4715 18.9014 22.949 18.4998 23.0358 18.0061C23.1172 17.5123 22.7645 17.1162 22.2545 17.1162ZM22.4986 18.0061C22.4552 18.2448 22.249 18.4456 22.0266 18.4456C21.8095 18.4456 21.663 18.2502 21.701 18.0061C21.7444 17.7673 21.956 17.5666 22.1731 17.5666C22.3955 17.5666 22.542 17.7673 22.4986 18.0061Z" fill="white"/>
<path d="M22.2545 17.1162C21.7444 17.1162 21.2615 17.5177 21.1801 18.0115C21.0933 18.4998 21.4406 18.9014 21.956 18.9014C22.4715 18.9014 22.949 18.4998 23.0358 18.0061C23.1172 17.5123 22.7645 17.1162 22.2545 17.1162ZM22.4986 18.0061C22.4552 18.2448 22.249 18.4456 22.0266 18.4456C21.8095 18.4456 21.663 18.2502 21.701 18.0061C21.7444 17.7673 21.956 17.5666 22.1731 17.5666C22.3955 17.5666 22.542 17.7673 22.4986 18.0061Z" fill="white"/>
<path d="M16.3022 17.0565L16.2697 17.2627H16.3836C16.6115 17.2627 16.8068 17.2356 16.8557 16.9914L16.8991 16.7527H16.7797C16.503 16.7581 16.3456 16.8069 16.3022 17.0565Z" fill="white"/>
<path d="M25.8356 18.489C25.7108 18.489 25.6077 18.5921 25.6077 18.7169C25.6077 18.8417 25.7108 18.9448 25.8356 18.9448C25.9604 18.9448 26.0581 18.8417 26.0581 18.7169C26.0581 18.5867 25.9604 18.489 25.8356 18.489ZM25.8356 18.9014C25.7325 18.9014 25.6457 18.8146 25.6457 18.7115C25.6457 18.6084 25.7325 18.5216 25.8356 18.5216C25.9387 18.5216 26.0255 18.6084 26.0255 18.7115C26.0255 18.8146 25.9387 18.9014 25.8356 18.9014Z" fill="white"/>
<path d="M25.917 18.7658C25.9061 18.7496 25.9007 18.7387 25.8898 18.7333C25.8844 18.7279 25.879 18.7224 25.8681 18.7224C25.8898 18.717 25.9116 18.7116 25.9224 18.6953C25.9333 18.6844 25.9387 18.6682 25.9387 18.6465C25.9387 18.6302 25.9333 18.6193 25.9278 18.6085C25.9224 18.5976 25.9116 18.5868 25.9007 18.5814C25.8898 18.5759 25.8736 18.5759 25.8519 18.5759H25.7433V18.8364H25.7596H25.7759H25.7813V18.7224H25.8139C25.8247 18.7224 25.8302 18.7224 25.8302 18.7224C25.8356 18.7224 25.841 18.7279 25.8464 18.7279C25.8519 18.7333 25.8573 18.7387 25.8627 18.7441C25.8681 18.755 25.879 18.7658 25.8898 18.7821L25.9224 18.8364H25.9658L25.917 18.7658ZM25.841 18.6844H25.7759V18.6085H25.8519C25.8681 18.6085 25.8844 18.6139 25.8898 18.6193C25.9007 18.6248 25.9007 18.6356 25.9007 18.6465C25.9007 18.6519 25.9007 18.6627 25.8953 18.6682C25.8898 18.6736 25.8844 18.679 25.879 18.6844C25.8681 18.6844 25.8573 18.6844 25.841 18.6844Z" fill="white"/>
</g>
<defs>
<clipPath id="clip0_1_4620">
<rect width="40" height="40" fill="white"/>
</clipPath>
</defs>
</svg>
