<svg width="40" height="40" viewBox="0 0 40 40" fill="none" xmlns="http://www.w3.org/2000/svg">
<g clip-path="url(#clip0_1_4608)">
<path d="M39.2129 11.449V11.449C40.2624 17.0781 40.2624 22.8026 39.2129 28.5271V28.5271C38.2588 33.9654 33.9654 38.2588 28.5271 39.2129V39.2129C22.898 40.2624 17.1735 40.2624 11.449 39.2129V39.2129C6.01073 38.2588 1.81276 34.0608 0.858676 28.6225V28.6225C-0.286225 22.9934 -0.286225 17.1735 0.858676 11.449V11.449C1.81276 6.01073 6.01073 1.81276 11.449 0.858676V0.858676C17.0781 -0.286225 22.898 -0.286225 28.6225 0.858676V0.858676C34.0608 1.81276 38.2588 6.01073 39.2129 11.449Z" fill="white"/>
<path fill-rule="evenodd" clip-rule="evenodd" d="M38.2293 28.3468C39.2571 22.7405 39.2565 17.1393 38.2298 11.6323L39.2129 11.449C40.2624 17.0781 40.2624 22.8026 39.2129 28.5271L38.2293 28.3468ZM28.5271 39.2129C33.9654 38.2588 38.2588 33.9654 39.2129 28.5271L38.2279 28.3543C37.3466 33.3779 33.3779 37.3466 28.3543 38.2279L28.5271 39.2129ZM11.449 39.2129C17.1735 40.2624 22.898 40.2624 28.5271 39.2129L28.3438 38.2298C22.8369 39.2565 17.2356 39.2571 11.6293 38.2293L11.449 39.2129ZM28.6225 0.858676L28.4497 1.84363C33.4733 2.72496 37.3466 6.59823 38.2279 11.6218L39.2129 11.449C38.2588 6.01073 34.0608 1.81276 28.6225 0.858676ZM11.449 0.858676C17.0781 -0.286225 22.898 -0.286225 28.6225 0.858676L28.4264 1.83926C22.8303 0.720026 17.1448 0.720683 11.6483 1.83861L11.449 0.858676ZM0.858676 11.449C1.81276 6.01073 6.01073 1.81276 11.449 0.858676L11.6218 1.84363C6.59823 2.72496 2.72496 6.59823 1.84363 11.6218L0.858676 11.449ZM0.858676 11.449L1.83926 11.6451C0.720026 17.2413 0.720683 22.9267 1.83861 28.4232L0.858676 28.6225C-0.286225 22.9934 -0.286225 17.1735 0.858676 11.449ZM0.858676 28.6225C1.81276 34.0608 6.01073 38.2588 11.449 39.2129L11.6218 38.2279C6.59823 37.3466 2.72496 33.4733 1.84363 28.4497L0.858676 28.6225Z" fill="#EEF4FE"/>
<path fill-rule="evenodd" clip-rule="evenodd" d="M12.5333 7.55566C9.78417 7.55566 7.55554 9.78429 7.55554 12.5334V27.4668C7.55554 30.2159 9.78417 32.4446 12.5333 32.4446H27.4667C30.2158 32.4446 32.4444 30.2159 32.4444 27.4668V12.5334C32.4444 9.78429 30.2158 7.55566 27.4667 7.55566H12.5333Z" fill="#F6F7F8"/>
<g clip-path="url(#clip1_1_4608)">
<path d="M20.026 15.4104L18.9793 16.4571L18.9273 16.5091L18.5958 16.8406L18.3488 17.0876L18.0172 17.4192L17.9652 17.4712L17.8222 17.6142L17.7702 17.6662L17.2761 18.1603L17.2241 18.2123C17.0746 18.3618 16.9121 18.4788 16.7431 18.5763C16.6586 18.6218 16.5675 18.6673 16.4765 18.6999C16.275 18.7779 16.0605 18.8234 15.8394 18.8364C15.7094 18.8429 15.5729 18.8429 15.4429 18.8234C15.1569 18.7909 14.8773 18.6999 14.6238 18.5503C14.5133 18.4853 14.4028 18.4203 14.3118 18.3293C14.2923 18.3098 14.2727 18.2903 14.2532 18.2708L12.3225 16.3661L12.2835 16.327C12.251 16.288 12.2185 16.249 12.1925 16.21C12.1275 16.0995 12.095 15.976 12.095 15.846C12.095 15.8265 12.095 15.807 12.095 15.781C12.095 15.7485 12.1015 15.7225 12.108 15.69C12.108 15.677 12.1145 15.664 12.1145 15.6575C12.1145 15.651 12.1145 15.651 12.121 15.6445C12.147 15.5535 12.1925 15.4689 12.251 15.3909C12.2705 15.3714 12.2835 15.3519 12.303 15.3324L12.3355 15.2999L14.3768 13.2652L15.6119 12.03C15.885 11.757 16.327 11.744 16.613 11.9975L20.026 15.4104Z" fill="#005BAA"/>
<path d="M16.314 19.9935C16.1515 19.9935 15.989 19.9545 15.833 19.8895L15.4429 19.4994L15.3454 19.4019L15.3259 19.3824L15.1439 19.2004L14.2338 18.2773C14.2533 18.2968 14.2728 18.3163 14.2923 18.3358C14.3833 18.4268 14.5003 18.4918 14.6108 18.5568C14.8643 18.7063 15.1439 18.7973 15.4299 18.8298C15.5599 18.8494 15.6965 18.8494 15.8265 18.8429C16.041 18.8298 16.2555 18.7843 16.4635 18.7063C16.5546 18.6738 16.6456 18.6283 16.7301 18.5828C16.9056 18.4853 17.0681 18.3683 17.2111 18.2188L17.2632 18.1668L17.7572 17.6727L17.8092 17.6207L17.9522 17.4777L18.0042 17.4257L18.3358 17.0941L18.5828 16.8471L18.9144 16.5156L18.9664 16.4635L21.0791 14.3508L21.9502 13.4082L21.9567 13.4017L22.0023 13.3562C22.2688 13.0896 22.6978 13.0896 22.9644 13.3562L23.4389 13.8307L23.4519 13.8437C23.2439 13.8307 23.0294 13.9087 22.8669 14.0647L21.2742 15.6509L21.2547 15.6704L18.4463 18.4333L18.4398 18.4268L17.4062 19.4409L17.3997 19.4474C17.3997 19.4539 17.3737 19.4734 17.3347 19.5124C17.2501 19.5904 17.0811 19.74 16.8536 19.8505C16.7496 19.9025 16.6456 19.935 16.5416 19.9545C16.4766 19.9675 16.418 19.974 16.353 19.9805H16.314V19.9935Z" fill="#ED1C24"/>
<path d="M26.0393 17.3737L25.9873 17.4257L23.699 19.7465L21.2937 22.1843C21.2157 22.2624 21.1377 22.3274 21.0531 22.3924L21.0466 22.3989C21.0336 22.4054 21.0206 22.4184 21.0141 22.4249C21.0141 22.4249 21.0141 22.4249 21.0076 22.4314C20.6436 22.6914 20.2015 22.8409 19.7205 22.8409C19.1289 22.8409 18.5893 22.6069 18.1928 22.2299C18.1733 22.2169 18.1538 22.1973 18.1408 22.1843L17.7247 21.7683L16.5611 20.6046L16.171 20.2146L16.119 20.1626C16.184 20.1756 16.249 20.1756 16.3075 20.1756H16.3595C16.4311 20.1756 16.5091 20.1626 16.5806 20.1496C16.6976 20.1236 16.8211 20.0846 16.9381 20.0261C17.1917 19.9091 17.3802 19.74 17.4712 19.649C17.5037 19.6165 17.5362 19.584 17.5427 19.571L18.4333 18.6934L18.4398 18.6999L21.5147 15.677L21.5342 15.6575L23.0294 14.1883C23.2309 13.9933 23.543 13.9673 23.7705 14.1233L24.1215 14.4744L26.0393 16.3921C26.0588 16.4116 26.0718 16.4246 26.0848 16.4441C26.3058 16.7302 26.2928 17.1267 26.0393 17.3737Z" fill="#ED1C24"/>
<path d="M18.6283 14.8319C18.5763 14.8839 18.4853 14.8839 18.4333 14.8319C17.5296 13.9218 16.0475 13.9153 15.1373 14.8189C14.2272 15.7225 14.2207 17.2047 15.1243 18.1148L15.8329 18.8299C15.8394 18.8364 15.8394 18.8429 15.8459 18.8429C15.8394 18.8429 15.8394 18.8429 15.8329 18.8429C15.7029 18.8494 15.5729 18.8494 15.4429 18.8364L14.9228 18.3099C13.9087 17.2892 13.9152 15.6315 14.9358 14.6174C15.9564 13.6033 17.6142 13.6098 18.6283 14.6304C18.6803 14.6889 18.6803 14.7799 18.6283 14.8319Z" fill="#009EDB"/>
<path d="M19.7075 15.729L19.5125 15.924L19.1679 15.5795C19.1159 15.5275 19.1159 15.4365 19.1679 15.3845C19.2199 15.3325 19.3109 15.3325 19.3629 15.3845L19.7075 15.729Z" fill="#009EDB"/>
<path d="M16.743 18.5765C16.7365 18.583 16.7365 18.583 16.743 18.5765C16.652 18.6285 16.5675 18.6675 16.4765 18.7L15.5079 17.7313C14.9033 17.1203 14.8188 16.1711 15.2999 15.4626C15.3454 15.3975 15.4299 15.3845 15.4949 15.4236C15.5599 15.4691 15.5729 15.5536 15.5339 15.6186C15.1243 16.2167 15.1958 17.0163 15.7094 17.5298L16.743 18.5765Z" fill="#009EDB"/>
<path d="M19.1289 16.3077L18.9794 16.4572L18.9339 16.5028L17.8482 15.4106C17.4452 15.0076 16.8536 14.8645 16.314 15.0401C16.2425 15.0661 16.1645 15.0206 16.1385 14.9491C16.1125 14.8775 16.158 14.7995 16.2295 14.7735C16.8731 14.5655 17.5752 14.7345 18.0497 15.2156L19.1289 16.3077Z" fill="#009EDB"/>
<path d="M18.5438 16.8928L18.3488 17.0878L17.2632 15.9891C16.9966 15.7226 16.5611 15.7226 16.2945 15.9826C16.028 16.2492 16.028 16.6847 16.288 16.9513L16.9901 17.6599C17.0421 17.7119 17.0421 17.8029 16.9901 17.8549C16.9381 17.9069 16.8471 17.9069 16.7951 17.8549L16.093 17.1463C15.7225 16.7692 15.7225 16.1582 16.0995 15.7876C16.4766 15.4106 17.0876 15.4171 17.4582 15.7941L18.5438 16.8928Z" fill="#009EDB"/>
<path d="M17.9652 17.4714L17.8157 17.6209L17.7702 17.6664L16.678 16.5678C16.626 16.5158 16.626 16.4248 16.678 16.3727C16.73 16.3207 16.8211 16.3207 16.8731 16.3727L17.9652 17.4714Z" fill="#009EDB"/>
<path fill-rule="evenodd" clip-rule="evenodd" d="M23.478 26.3773L22.2038 24.5505L22.0738 24.4335H23.3284L24.1801 25.8182L24.2516 25.7597L24.7651 24.9926C24.8886 24.804 24.8756 24.583 24.6936 24.4335H25.8833L24.5116 26.3838V27.7944L24.7521 28.0805H23.2764L23.4845 27.7944C23.478 27.3264 23.465 26.8453 23.478 26.3773ZM20.013 24.427C20.117 24.57 20.143 24.6155 20.156 24.739C20.1625 24.8236 20.156 24.8756 20.13 24.9536L19.1809 27.7034C19.1354 27.8139 19.0444 27.944 18.9144 28.061H19.948C19.87 27.996 19.8245 27.9114 19.805 27.8139C19.7855 27.7229 19.792 27.6904 19.8115 27.6059L20.0195 26.9493H21.2222L21.4107 27.4499C21.4302 27.5019 21.4432 27.5539 21.4497 27.6059C21.4692 27.7944 21.4042 27.9505 21.2547 28.061H22.8799C22.7174 27.9179 22.5743 27.7684 22.4898 27.5929L21.3002 24.427C20.9621 24.427 20.3511 24.427 20.013 24.427ZM21.0467 26.4943H20.182L20.5981 25.3046L21.0467 26.4943ZM16.7301 24.4335H17.5427H17.9328H18.5373C19.0834 24.4335 19.5255 24.8821 19.5255 25.4216V25.5451C19.5255 26.0912 19.0769 26.5073 18.5373 26.5203L18.0888 26.5333C18.4528 26.3642 18.6023 25.9417 18.5568 25.5646C18.5178 25.2591 18.3618 24.9666 18.1018 24.9601L17.9393 24.9536V27.6709C17.9393 27.7229 17.9458 27.7489 17.9783 27.7944C18.0238 27.8659 18.0823 27.944 18.1408 28.0155C18.1538 28.035 18.1733 28.0545 18.1863 28.074H16.7821C16.8016 28.048 16.8211 28.022 16.8406 27.996C16.8861 27.9374 16.9186 27.8789 16.9511 27.8074C16.9706 27.7619 16.9771 27.7294 16.9771 27.6839V24.765C16.9706 24.6155 16.8146 24.5245 16.7301 24.4335Z" fill="#005BAA"/>
<path fill-rule="evenodd" clip-rule="evenodd" d="M9.11108 24.4141H10.2422L11.1913 27.1444L12.004 24.8821C12.017 24.7911 12.004 24.7651 11.9714 24.6871C11.9259 24.5961 11.8804 24.5051 11.8349 24.4141H12.68C12.628 24.5961 12.5565 24.8041 12.4915 24.9861L11.3994 28.165C11.1003 28.1065 10.7688 27.9895 10.5088 27.7425C10.3137 27.5605 10.2487 27.3524 10.1512 27.0989L9.2411 24.6871C9.2021 24.5896 9.15659 24.5051 9.11108 24.4141ZM13.6422 25.6947V27.645C13.6422 27.723 13.6617 27.736 13.7072 27.801L13.9282 28.0935H12.8621C12.9206 28.0025 12.9791 27.9115 13.0441 27.8205C13.0896 27.7425 13.1091 27.7165 13.1091 27.632V24.9081L12.8101 24.4206H13.9152L15.7094 26.7284V24.8821C15.7094 24.7911 15.6899 24.7651 15.6444 24.6871C15.5859 24.5961 15.5209 24.5051 15.4624 24.4141H16.5285L16.3075 24.7066C16.262 24.7716 16.2425 24.7846 16.2425 24.8626V28.178C15.8394 28.126 15.4624 28.0285 15.1309 27.5995L13.6422 25.6947Z" fill="#ED1C24"/>
<path d="M26.4098 25.6167V24.687C26.4098 24.6805 26.3773 24.674 26.3058 24.674C26.2602 24.674 26.2147 24.6805 26.1692 24.7C26.1237 24.7195 26.0782 24.739 26.0327 24.765L26.1237 24.427L26.1692 24.4335H27.2029L27.1249 24.765C27.0924 24.7 27.0273 24.6675 26.9233 24.6675C26.8908 24.6675 26.8583 24.674 26.8258 24.6805V25.6102C26.8258 25.7337 26.8583 25.8312 26.9298 25.8832V25.8897H26.3253V25.8832C26.3643 25.8637 26.3903 25.8312 26.3968 25.7987C26.4098 25.7597 26.4163 25.7142 26.4163 25.6622V25.6167H26.4098Z" fill="#ED1C24"/>
<path d="M27.3784 25.5647L27.6774 24.7001C27.6969 24.6416 27.7034 24.5961 27.7034 24.5701C27.7034 24.5246 27.6774 24.4791 27.6189 24.4401V24.4336H28.1585L28.5876 25.5972C28.6136 25.6688 28.6396 25.7273 28.6591 25.7663C28.6851 25.8053 28.7176 25.8443 28.7696 25.8898V25.8963H28.0935V25.8898C28.152 25.8573 28.1845 25.8118 28.1845 25.7598C28.1845 25.7273 28.178 25.6948 28.165 25.6622L28.0935 25.4477H27.6514L27.5864 25.6362C27.5734 25.6818 27.5604 25.7208 27.5539 25.7598C27.5539 25.7793 27.5604 25.7988 27.5734 25.8248C27.5864 25.8443 27.6059 25.8638 27.6319 25.8833V25.8898H27.1769V25.8833C27.2224 25.8443 27.2549 25.7988 27.2809 25.7533C27.2939 25.7273 27.3004 25.7013 27.3134 25.6753C27.3524 25.6557 27.3654 25.6167 27.3784 25.5647ZM27.736 25.2527H28.0415L27.8855 24.8106L27.736 25.2527Z" fill="#ED1C24"/>
<path d="M28.7761 25.9027V25.8962L29.3027 25.1421L28.9972 24.6156C28.9516 24.5375 28.8996 24.479 28.8411 24.453V24.4465H29.3677V24.453L29.6212 24.9211L29.7512 24.7261C29.7903 24.6611 29.8033 24.6091 29.8033 24.57C29.8033 24.5245 29.7773 24.4855 29.7187 24.453V24.4465H30.2063V24.453L29.7447 25.1161L30.0503 25.6232C30.0958 25.7012 30.1283 25.7532 30.1608 25.7987C30.1868 25.8377 30.2258 25.8702 30.2648 25.9092V25.9157H29.7382V25.9092L29.4197 25.3501L29.2052 25.6882C29.1987 25.7012 29.1922 25.7337 29.1857 25.7727C29.1857 25.7857 29.1857 25.7987 29.1922 25.8117C29.1987 25.8247 29.1987 25.8377 29.2052 25.8572C29.2182 25.8832 29.2312 25.9027 29.2507 25.9157V25.9222H28.7761V25.9027Z" fill="#ED1C24"/>
<path d="M30.3884 25.6232V24.7326C30.3884 24.6741 30.3884 24.6221 30.3819 24.5896C30.3819 24.5571 30.3689 24.5311 30.3559 24.5051C30.3429 24.4791 30.3234 24.4596 30.2974 24.4401V24.4336H30.8889V24.4401C30.8499 24.4726 30.8239 24.5051 30.8109 24.5376C30.7979 24.5701 30.7979 24.6286 30.7979 24.7131V25.6297C30.7979 25.6818 30.7979 25.7273 30.8044 25.7598C30.8109 25.7923 30.8174 25.8183 30.8304 25.8378C30.8369 25.8443 30.8434 25.8573 30.8564 25.8638C30.8694 25.8768 30.8759 25.8833 30.8889 25.8898V25.8963H30.2974V25.8898C30.3364 25.8638 30.3624 25.8248 30.3754 25.7923C30.3819 25.7598 30.3884 25.7013 30.3884 25.6232Z" fill="#ED1C24"/>
</g>
</g>
<defs>
<clipPath id="clip0_1_4608">
<rect width="40" height="40" fill="white"/>
</clipPath>
<clipPath id="clip1_1_4608">
<rect width="21.7778" height="16.3691" fill="white" transform="translate(9.11108 11.8154)"/>
</clipPath>
</defs>
</svg>
