<svg width="40" height="40" viewBox="0 0 40 40" fill="none" xmlns="http://www.w3.org/2000/svg">
<g clip-path="url(#clip0_1_4605)">
<path d="M39.2129 11.449V11.449C40.2624 17.0781 40.2624 22.8026 39.2129 28.5271V28.5271C38.2588 33.9654 33.9654 38.2588 28.5271 39.2129V39.2129C22.898 40.2624 17.1735 40.2624 11.449 39.2129V39.2129C6.01073 38.2588 1.81276 34.0608 0.858676 28.6225V28.6225C-0.286225 22.9934 -0.286225 17.1735 0.858676 11.449V11.449C1.81276 6.01073 6.01073 1.81276 11.449 0.858676V0.858676C17.0781 -0.286225 22.898 -0.286225 28.6225 0.858676V0.858676C34.0608 1.81276 38.2588 6.01073 39.2129 11.449Z" fill="white"/>
<path fill-rule="evenodd" clip-rule="evenodd" d="M38.2293 28.3468C39.2571 22.7405 39.2565 17.1393 38.2298 11.6323L39.2129 11.449C40.2624 17.0781 40.2624 22.8026 39.2129 28.5271L38.2293 28.3468ZM28.5271 39.2129C33.9654 38.2588 38.2588 33.9654 39.2129 28.5271L38.2279 28.3543C37.3466 33.3779 33.3779 37.3466 28.3543 38.2279L28.5271 39.2129ZM11.449 39.2129C17.1735 40.2624 22.898 40.2624 28.5271 39.2129L28.3438 38.2298C22.8369 39.2565 17.2356 39.2571 11.6293 38.2293L11.449 39.2129ZM28.6225 0.858676L28.4497 1.84363C33.4733 2.72496 37.3466 6.59823 38.2279 11.6218L39.2129 11.449C38.2588 6.01073 34.0608 1.81276 28.6225 0.858676ZM11.449 0.858676C17.0781 -0.286225 22.898 -0.286225 28.6225 0.858676L28.4264 1.83926C22.8303 0.720026 17.1448 0.720683 11.6483 1.83861L11.449 0.858676ZM0.858676 11.449C1.81276 6.01073 6.01073 1.81276 11.449 0.858676L11.6218 1.84363C6.59823 2.72496 2.72496 6.59823 1.84363 11.6218L0.858676 11.449ZM0.858676 11.449L1.83926 11.6451C0.720026 17.2413 0.720683 22.9267 1.83861 28.4232L0.858676 28.6225C-0.286225 22.9934 -0.286225 17.1735 0.858676 11.449ZM0.858676 28.6225C1.81276 34.0608 6.01073 38.2588 11.449 39.2129L11.6218 38.2279C6.59823 37.3466 2.72496 33.4733 1.84363 28.4497L0.858676 28.6225Z" fill="#EEF4FE"/>
<rect width="28" height="28" transform="translate(6 6)" fill="white"/>
<path fill-rule="evenodd" clip-rule="evenodd" d="M12.5333 7.55566C9.78417 7.55566 7.55554 9.78429 7.55554 12.5334V27.4668C7.55554 30.2159 9.78417 32.4446 12.5333 32.4446H27.4667C30.2158 32.4446 32.4444 30.2159 32.4444 27.4668V12.5334C32.4444 9.78429 30.2158 7.55566 27.4667 7.55566H12.5333Z" fill="#F6F7F8"/>
<path fill-rule="evenodd" clip-rule="evenodd" d="M25.6273 18.5799L26.025 20.388L28.662 19.955L29.0808 18.4704L25.6291 18.5782L25.6273 18.5799ZM20.9597 19.4636C21.3909 19.4636 21.7409 19.8136 21.7409 20.2448C21.7409 20.6761 21.3909 21.026 20.9597 21.026C20.5284 21.026 20.1785 20.6761 20.1785 20.2448C20.1785 19.8136 20.5284 19.4636 20.9597 19.4636ZM20.9597 18.8804C21.7126 18.8804 22.3241 19.4919 22.3241 20.2448C22.3241 20.9977 21.7126 21.6093 20.9597 21.6093C20.2068 21.6093 19.5952 20.9977 19.5952 20.2448C19.5952 19.4919 20.2068 18.8804 20.9597 18.8804ZM20.9597 18.2388C22.0678 18.2388 22.9657 19.1384 22.9657 20.2448C22.9657 21.3512 22.0661 22.2508 20.9597 22.2508C19.8533 22.2508 18.9537 21.3512 18.9537 20.2448C18.9537 19.1384 19.8533 18.2388 20.9597 18.2388ZM25.2915 21.4749L25.5443 20.6725L24.908 17.7776L24.2771 17.09C24.1781 16.9822 24.1852 16.8143 24.293 16.7154C24.4008 16.6164 24.5687 16.6234 24.6676 16.7313L25.3958 17.5248L25.5125 18.0533L29.4255 17.9313C29.5103 17.9295 29.5898 17.9667 29.6429 18.0338C29.6941 18.101 29.7118 18.1876 29.6888 18.2689L29.1268 20.2643C29.0985 20.3632 29.0154 20.4375 28.9147 20.4534L26.0215 20.927L25.8924 21.3353L28.768 21.3972C28.8175 21.3972 28.8652 21.4131 28.9041 21.4378C29.1091 21.4997 29.2593 21.6906 29.2593 21.9168C29.2593 22.1925 29.0349 22.417 28.7592 22.417C28.4834 22.417 28.259 22.1925 28.259 21.9168L26.0745 21.8691C26.0745 21.8744 26.0745 21.8797 26.0745 21.885C26.0745 22.1607 25.85 22.3851 25.5743 22.3851C25.2986 22.3851 25.0741 22.1607 25.0741 21.885C25.0741 21.7153 25.159 21.5633 25.2898 21.4732L25.2915 21.4749ZM20.9597 17.7086C22.3594 17.7086 23.4959 18.8451 23.4959 20.2448C23.4959 21.6446 22.3594 22.781 20.9597 22.781C19.5599 22.781 18.4235 21.6446 18.4235 20.2448C18.4235 18.8451 19.5599 17.7086 20.9597 17.7086ZM17.7837 20.3721C17.8508 22.0688 19.2471 23.4244 20.9597 23.4244C22.6723 23.4244 24.1374 21.9998 24.1374 20.2466C24.1374 18.4933 22.7129 17.0688 20.9597 17.0688C19.2064 17.0688 17.8066 18.4668 17.7819 20.2006C17.7854 20.2166 17.7854 20.2307 17.7854 20.2484C17.7854 20.2908 17.7854 20.3332 17.7837 20.3738V20.3721ZM17.2588 19.9974H14.3267V20.874H16.2708L16.1594 21.2204C16.1594 21.2204 15.7476 22.5619 14.0615 22.5619C12.7837 22.5619 11.7463 21.5244 11.7463 20.2466C11.7463 18.9688 12.7837 17.9313 14.0615 17.9313C14.7367 17.9313 15.2369 18.2282 15.6381 18.5782C15.8501 18.3573 16.1082 18.0904 16.2761 17.9154C15.6999 17.3675 14.9205 17.0317 14.0615 17.0317C12.2871 17.0317 10.8467 18.4721 10.8467 20.2466C10.8467 22.0211 12.2871 23.4615 14.0615 23.4615C15.836 23.4615 17.1863 22.0882 17.2517 20.3721C17.2517 20.3297 17.2499 20.2872 17.2499 20.2466C17.2499 20.1635 17.2534 20.0805 17.2588 19.9992V19.9974ZM17.5203 21.6375C16.9742 23.0161 15.6381 23.9917 14.0615 23.9917C11.9937 23.9917 10.3164 22.3127 10.3164 20.2466C10.3164 18.1805 11.9937 16.4997 14.0615 16.4997C15.1644 16.4997 16.1559 16.9769 16.8416 17.7351L17.0078 17.9189L16.8363 18.0974C16.8363 18.0974 16.1753 18.7832 15.8413 19.1314L15.6557 19.3258L15.4649 19.1384C15.122 18.8026 14.6925 18.4615 14.0633 18.4615C13.0789 18.4615 12.2782 19.2604 12.2782 20.2466C12.2782 21.2328 13.0771 22.0317 14.0633 22.0317C14.818 22.0317 15.2386 21.6853 15.456 21.406H13.7982V19.4689H17.333C17.6918 17.7952 19.1799 16.5386 20.9597 16.5386C23.0063 16.5386 24.6676 18.2 24.6676 20.2466C24.6676 22.2932 23.0063 23.9546 20.9597 23.9546C19.4044 23.9546 18.0718 22.9949 17.5221 21.6375H17.5203ZM24.7772 23.3484C25.0388 23.4845 25.3923 23.5675 25.6963 23.5675H28.8299C29.8585 23.5675 30.447 22.6538 30.447 21.9362C30.447 21.4696 30.2367 21.1055 30.0918 20.9094C30.1519 20.798 30.2279 20.646 30.2773 20.5046C30.3251 20.3685 30.6591 19.2074 30.7157 18.9741C30.7757 18.7266 30.8889 18.4615 30.8889 18.1452C30.8889 17.1431 30.0122 16.7719 29.5121 16.7825C29.1586 16.7896 26.8627 16.8514 26.3096 16.8656C26.1151 16.657 25.6256 16.1374 25.5019 15.9996C25.3074 15.7857 24.9875 15.5418 24.445 15.5418C24.0119 15.5418 23.662 15.7592 23.4199 16.0208C22.6935 15.586 21.8716 15.3368 20.9579 15.3368C19.6058 15.3368 18.3793 15.8847 17.4903 16.7701C16.603 15.8811 15.3765 15.3333 14.0227 15.3333C11.3115 15.3333 9.11108 17.5354 9.11108 20.2448C9.11108 22.9542 11.3115 25.1564 14.0227 25.1564C15.3729 25.1564 16.5977 24.6103 17.4867 23.7266C18.3757 24.6103 19.6058 25.1564 20.9579 25.1564C23.153 25.1564 24.2046 24.0465 24.7772 23.3466V23.3484Z" fill="white"/>
<path fill-rule="evenodd" clip-rule="evenodd" d="M25.6273 18.5799L26.025 20.388L28.662 19.955L29.0808 18.4704L25.6291 18.5782L25.6273 18.5799ZM20.9597 19.4636C21.3909 19.4636 21.7409 19.8136 21.7409 20.2448C21.7409 20.6761 21.3909 21.026 20.9597 21.026C20.5284 21.026 20.1785 20.6761 20.1785 20.2448C20.1785 19.8136 20.5284 19.4636 20.9597 19.4636ZM20.9597 18.8804C21.7126 18.8804 22.3241 19.4919 22.3241 20.2448C22.3241 20.9977 21.7126 21.6093 20.9597 21.6093C20.2068 21.6093 19.5952 20.9977 19.5952 20.2448C19.5952 19.4919 20.2068 18.8804 20.9597 18.8804ZM20.9597 18.2388C22.0678 18.2388 22.9657 19.1384 22.9657 20.2448C22.9657 21.3512 22.0661 22.2508 20.9597 22.2508C19.8533 22.2508 18.9537 21.3512 18.9537 20.2448C18.9537 19.1384 19.8533 18.2388 20.9597 18.2388ZM25.2915 21.4749L25.5443 20.6725L24.908 17.7776L24.2771 17.09C24.1781 16.9822 24.1852 16.8143 24.293 16.7154C24.4008 16.6164 24.5687 16.6234 24.6676 16.7313L25.3958 17.5248L25.5125 18.0533L29.4255 17.9313C29.5103 17.9295 29.5898 17.9667 29.6429 18.0338C29.6941 18.101 29.7118 18.1876 29.6888 18.2689L29.1268 20.2643C29.0985 20.3632 29.0154 20.4375 28.9147 20.4534L26.0215 20.927L25.8924 21.3353L28.768 21.3972C28.8175 21.3972 28.8652 21.4131 28.9041 21.4378C29.1091 21.4997 29.2593 21.6906 29.2593 21.9168C29.2593 22.1925 29.0349 22.417 28.7592 22.417C28.4834 22.417 28.259 22.1925 28.259 21.9168L26.0745 21.8691C26.0745 21.8744 26.0745 21.8797 26.0745 21.885C26.0745 22.1607 25.85 22.3851 25.5743 22.3851C25.2986 22.3851 25.0741 22.1607 25.0741 21.885C25.0741 21.7153 25.159 21.5633 25.2898 21.4732L25.2915 21.4749ZM20.9597 17.7086C22.3594 17.7086 23.4959 18.8451 23.4959 20.2448C23.4959 21.6446 22.3594 22.781 20.9597 22.781C19.5599 22.781 18.4235 21.6446 18.4235 20.2448C18.4235 18.8451 19.5599 17.7086 20.9597 17.7086ZM17.7837 20.3721C17.8508 22.0688 19.2471 23.4244 20.9597 23.4244C22.6723 23.4244 24.1374 21.9998 24.1374 20.2466C24.1374 18.4933 22.7129 17.0688 20.9597 17.0688C19.2064 17.0688 17.8066 18.4668 17.7819 20.2006C17.7854 20.2166 17.7854 20.2307 17.7854 20.2484C17.7854 20.2908 17.7854 20.3332 17.7837 20.3738V20.3721ZM17.2588 19.9974H14.3267V20.874H16.2708L16.1594 21.2204C16.1594 21.2204 15.7476 22.5619 14.0615 22.5619C12.7837 22.5619 11.7463 21.5244 11.7463 20.2466C11.7463 18.9688 12.7837 17.9313 14.0615 17.9313C14.7367 17.9313 15.2369 18.2282 15.6381 18.5782C15.8501 18.3573 16.1082 18.0904 16.2761 17.9154C15.6999 17.3675 14.9205 17.0317 14.0615 17.0317C12.2871 17.0317 10.8467 18.4721 10.8467 20.2466C10.8467 22.0211 12.2871 23.4615 14.0615 23.4615C15.836 23.4615 17.1863 22.0882 17.2517 20.3721C17.2517 20.3297 17.2499 20.2872 17.2499 20.2466C17.2499 20.1635 17.2534 20.0805 17.2588 19.9992V19.9974ZM17.5203 21.6375C16.9742 23.0161 15.6381 23.9917 14.0615 23.9917C11.9937 23.9917 10.3164 22.3127 10.3164 20.2466C10.3164 18.1805 11.9937 16.4997 14.0615 16.4997C15.1644 16.4997 16.1559 16.9769 16.8416 17.7351L17.0078 17.9189L16.8363 18.0974C16.8363 18.0974 16.1753 18.7832 15.8413 19.1314L15.6557 19.3258L15.4649 19.1384C15.122 18.8026 14.6925 18.4615 14.0633 18.4615C13.0789 18.4615 12.2782 19.2604 12.2782 20.2466C12.2782 21.2328 13.0771 22.0317 14.0633 22.0317C14.818 22.0317 15.2386 21.6853 15.456 21.406H13.7982V19.4689H17.333C17.6918 17.7952 19.1799 16.5386 20.9597 16.5386C23.0063 16.5386 24.6676 18.2 24.6676 20.2466C24.6676 22.2932 23.0063 23.9546 20.9597 23.9546C19.4044 23.9546 18.0718 22.9949 17.5221 21.6375H17.5203ZM24.9045 22.8005L24.6959 22.6043L24.5174 22.827C24.0367 23.4244 23.1159 24.628 20.9597 24.628C19.6624 24.628 18.4889 24.0624 17.6865 23.1663L17.4885 22.9454L17.2906 23.1663C16.4882 24.0642 15.3217 24.628 14.0244 24.628C11.6066 24.628 9.64307 22.6644 9.64307 20.2466C9.64307 17.8288 11.6049 15.8635 14.0227 15.8635C15.3217 15.8635 16.4899 16.4308 17.2923 17.3286L17.4903 17.5496L17.6882 17.3286C18.4906 16.429 19.6589 15.8635 20.9579 15.8635C21.8487 15.8635 22.6405 16.1303 23.3315 16.5881L23.5489 16.7313L23.6956 16.5156C23.8458 16.2982 24.0985 16.0667 24.4432 16.0667C24.7878 16.0667 24.9858 16.2169 25.1077 16.3513C25.2668 16.5262 26.0038 17.311 26.0038 17.311L26.0851 17.3976L26.2035 17.394C26.2035 17.394 29.1179 17.3145 29.5209 17.3074C29.8267 17.3021 30.3569 17.5301 30.3569 18.1399C30.3569 18.4085 30.2491 18.633 30.1978 18.8451C30.143 19.0695 29.8214 20.1918 29.7754 20.3244C29.6976 20.5471 29.5421 20.7945 29.5421 20.7945L29.429 20.9765L29.5828 21.125C29.5828 21.125 29.9133 21.4484 29.9133 21.9345C29.9133 22.4205 29.5209 23.0355 28.8263 23.0355H25.6927C25.4135 23.0355 25.0635 22.9525 24.9009 22.7987L24.9045 22.8005ZM24.7772 23.3484C25.0388 23.4845 25.3923 23.5675 25.6963 23.5675H28.8299C29.8585 23.5675 30.447 22.6538 30.447 21.9362C30.447 21.4696 30.2367 21.1055 30.0918 20.9094C30.1519 20.798 30.2279 20.646 30.2773 20.5046C30.3251 20.3685 30.6591 19.2074 30.7157 18.9741C30.7757 18.7266 30.8889 18.4615 30.8889 18.1452C30.8889 17.1431 30.0122 16.7719 29.5121 16.7825C29.1586 16.7896 26.8627 16.8514 26.3096 16.8656C26.1151 16.657 25.6256 16.1374 25.5019 15.9996C25.3074 15.7857 24.9875 15.5418 24.445 15.5418C24.0119 15.5418 23.662 15.7592 23.4199 16.0208C22.6935 15.586 21.8716 15.3368 20.9579 15.3368C19.6058 15.3368 18.3793 15.8847 17.4903 16.7701C16.603 15.8811 15.3765 15.3333 14.0227 15.3333C11.3115 15.3333 9.11108 17.5354 9.11108 20.2448C9.11108 22.9542 11.3115 25.1564 14.0227 25.1564C15.3729 25.1564 16.5977 24.6103 17.4867 23.7266C18.3757 24.6103 19.6058 25.1564 20.9579 25.1564C23.153 25.1564 24.2046 24.0465 24.7772 23.3466V23.3484Z" fill="#ED1B24"/>
</g>
<defs>
<clipPath id="clip0_1_4605">
<rect width="40" height="40" fill="white"/>
</clipPath>
</defs>
</svg>
