<svg width="40" height="40" viewBox="0 0 40 40" fill="none" xmlns="http://www.w3.org/2000/svg">
<g clip-path="url(#clip0_1_4558)">
<path d="M39.2129 11.449V11.449C40.2624 17.0781 40.2624 22.8026 39.2129 28.5271V28.5271C38.2588 33.9654 33.9654 38.2588 28.5271 39.2129V39.2129C22.898 40.2624 17.1735 40.2624 11.449 39.2129V39.2129C6.01073 38.2588 1.81276 34.0608 0.858676 28.6225V28.6225C-0.286225 22.9934 -0.286225 17.1735 0.858676 11.449V11.449C1.81276 6.01073 6.01073 1.81276 11.449 0.858676V0.858676C17.0781 -0.286225 22.898 -0.286225 28.6225 0.858676V0.858676C34.0608 1.81276 38.2588 6.01073 39.2129 11.449Z" fill="white"/>
<path fill-rule="evenodd" clip-rule="evenodd" d="M38.2293 28.3468C39.2571 22.7405 39.2565 17.1393 38.2298 11.6323L39.2129 11.449C40.2624 17.0781 40.2624 22.8026 39.2129 28.5271L38.2293 28.3468ZM28.5271 39.2129C33.9654 38.2588 38.2588 33.9654 39.2129 28.5271L38.2279 28.3543C37.3466 33.3779 33.3779 37.3466 28.3543 38.2279L28.5271 39.2129ZM11.449 39.2129C17.1735 40.2624 22.898 40.2624 28.5271 39.2129L28.3438 38.2298C22.8369 39.2565 17.2356 39.2571 11.6293 38.2293L11.449 39.2129ZM28.6225 0.858676L28.4497 1.84363C33.4733 2.72496 37.3466 6.59823 38.2279 11.6218L39.2129 11.449C38.2588 6.01073 34.0608 1.81276 28.6225 0.858676ZM11.449 0.858676C17.0781 -0.286225 22.898 -0.286225 28.6225 0.858676L28.4264 1.83926C22.8303 0.720026 17.1448 0.720683 11.6483 1.83861L11.449 0.858676ZM0.858676 11.449C1.81276 6.01073 6.01073 1.81276 11.449 0.858676L11.6218 1.84363C6.59823 2.72496 2.72496 6.59823 1.84363 11.6218L0.858676 11.449ZM0.858676 11.449L1.83926 11.6451C0.720026 17.2413 0.720683 22.9267 1.83861 28.4232L0.858676 28.6225C-0.286225 22.9934 -0.286225 17.1735 0.858676 11.449ZM0.858676 28.6225C1.81276 34.0608 6.01073 38.2588 11.449 39.2129L11.6218 38.2279C6.59823 37.3466 2.72496 33.4733 1.84363 28.4497L0.858676 28.6225Z" fill="#EEF4FE"/>
<path fill-rule="evenodd" clip-rule="evenodd" d="M12.5333 7.55566C9.78417 7.55566 7.55554 9.78429 7.55554 12.5334V27.4668C7.55554 30.2159 9.78417 32.4446 12.5333 32.4446H27.4667C30.2158 32.4446 32.4444 30.2159 32.4444 27.4668V12.5334C32.4444 9.78429 30.2158 7.55566 27.4667 7.55566H12.5333Z" fill="#00B14F"/>
<path d="M11.1502 20.2089C11.1502 21.5983 12.1988 22.6638 13.5544 22.6638C14.8593 22.6638 15.515 21.8195 15.515 20.8906V20.5576H13.6142V21.0688H14.9959C15.005 21.5723 14.5444 22.159 13.5557 22.159C12.4642 22.159 11.7057 21.3498 11.7057 20.2063C11.7057 19.107 12.524 18.2796 13.6494 18.2796C14.3818 18.2796 14.962 18.4591 15.4993 18.8338L15.5332 18.809V18.3316C15.1325 18.0506 14.4508 17.7774 13.6325 17.7774C12.2417 17.7787 11.1502 18.8533 11.1502 20.2089ZM10.3579 20.2089C10.3579 22.0511 11.7213 23.4223 13.5557 23.4223C15.2274 23.4223 16.2487 22.3737 16.2487 20.6772V19.8082H13.6142V20.3026H15.7713V20.7631C15.7713 22.0927 14.9451 22.9201 13.5544 22.9201C12.0284 22.9201 10.8939 21.7518 10.8939 20.2089C10.8939 18.7076 12.0869 17.5237 13.6312 17.5237C14.3636 17.5237 15.0297 17.7032 15.5319 18.0519V17.5484C15.0466 17.1984 14.4065 17.0202 13.6312 17.0202C11.7812 17.0202 10.3579 18.4266 10.3579 20.2089ZM17.3311 20.6434V23.2779H17.8346V20.6525C17.8346 20.0632 18.2184 19.6469 18.7895 19.6469C18.9599 19.6469 19.1134 19.6898 19.2748 19.7575C19.3437 19.5948 19.4114 19.4595 19.4959 19.3307C19.3164 19.2123 19.0523 19.1343 18.7973 19.1343C17.9361 19.1343 17.3311 19.7562 17.3311 20.6434ZM16.5896 23.2779H17.093V20.6434C17.093 19.6026 17.7917 18.8949 18.8064 18.8949C19.1473 18.8949 19.4972 19.0055 19.6508 19.0992C19.7444 18.9886 19.8472 18.8689 19.9838 18.7583C19.6677 18.5371 19.2422 18.4083 18.7817 18.4083C17.443 18.4083 16.5909 19.3112 16.5909 20.6499L16.5896 23.2779ZM24.4748 20.3286V21.0701C24.7727 20.6694 25.029 20.3208 25.2683 20.0294C25.8733 19.2878 26.4028 18.878 27.2211 18.878C28.3295 18.878 29.14 19.7132 29.14 20.8906C29.14 22.042 28.3464 22.9201 27.2562 22.9201C26.369 22.9201 25.6014 22.3152 25.4232 21.4877L25.0654 21.973C25.3464 22.7822 26.1738 23.4223 27.2484 23.4223C28.6301 23.4223 29.6448 22.3139 29.6448 20.8906C29.6448 19.4504 28.6223 18.3667 27.2237 18.3667C25.7718 18.3667 25.107 19.4504 24.4748 20.3286ZM26.0359 20.7033H26.019L25.6274 21.2406C25.6964 21.8546 26.3182 22.6729 27.2549 22.6729C28.2098 22.6729 28.9007 21.8963 28.9007 20.8828C28.9007 19.8693 28.1942 19.1174 27.2224 19.1174C26.2753 19.1174 25.7302 19.8082 25.3464 20.3195C25.1591 20.5667 24.8351 20.9674 24.4761 21.4708V22.2891C24.8091 21.7948 25.2605 21.2145 25.5936 20.8138C26.1556 20.1399 26.4978 19.6287 27.2133 19.6287C27.9119 19.6287 28.3894 20.166 28.3894 20.8815C28.3894 21.623 27.9379 22.1682 27.2549 22.1682C26.5394 22.1682 26.0359 21.5125 26.0359 20.7787V20.7033ZM25.5324 16.5779V18.7011C25.686 18.5827 25.8564 18.437 26.0359 18.368V16.5779H25.5324ZM24.7831 19.4751C24.9366 19.2787 25.107 19.0653 25.2866 18.8858V16.5779H24.7831V19.4751ZM22.7367 21.9054L22.7288 21.8976C22.5168 22.068 22.1668 22.1708 21.8338 22.1708C21.1508 22.1708 20.6408 21.6582 20.6408 20.901C20.6408 20.1764 21.1443 19.6222 21.8169 19.6222C22.5415 19.6222 22.9851 20.1503 22.9851 20.8581V23.2792H23.4886V20.8321C23.4886 19.8433 22.7978 19.1187 21.826 19.1187C20.862 19.1187 20.1204 19.8433 20.1204 20.901C20.1204 21.9496 20.8528 22.699 21.826 22.6742C22.1928 22.6664 22.5675 22.5285 22.738 22.4101L22.7367 21.9054ZM19.3606 20.8906C19.3606 22.375 20.4092 23.4223 21.8247 23.4223C22.1408 23.4223 22.5077 23.3286 22.7367 23.1491V22.6469C22.5831 22.7744 22.2085 22.9201 21.8247 22.9201C20.6655 22.9201 19.881 22.1018 19.881 20.8906C19.881 19.7392 20.7162 18.878 21.8247 18.878C22.924 18.878 23.7254 19.6872 23.7254 20.8217V23.2766H24.2367V20.8125C24.2367 19.3971 23.2401 18.3576 21.8247 18.3576C20.4339 18.3589 19.3606 19.4582 19.3606 20.8906Z" fill="white"/>
</g>
<defs>
<clipPath id="clip0_1_4558">
<rect width="40" height="40" fill="white"/>
</clipPath>
</defs>
</svg>
