<svg width="40" height="40" viewBox="0 0 40 40" fill="none" xmlns="http://www.w3.org/2000/svg">
<g clip-path="url(#clip0_1_4601)">
<path d="M39.2129 11.449V11.449C40.2624 17.0781 40.2624 22.8026 39.2129 28.5271V28.5271C38.2588 33.9654 33.9654 38.2588 28.5271 39.2129V39.2129C22.898 40.2624 17.1735 40.2624 11.449 39.2129V39.2129C6.01073 38.2588 1.81276 34.0608 0.858676 28.6225V28.6225C-0.286225 22.9934 -0.286225 17.1735 0.858676 11.449V11.449C1.81276 6.01073 6.01073 1.81276 11.449 0.858676V0.858676C17.0781 -0.286225 22.898 -0.286225 28.6225 0.858676V0.858676C34.0608 1.81276 38.2588 6.01073 39.2129 11.449Z" fill="white"/>
<path fill-rule="evenodd" clip-rule="evenodd" d="M38.2293 28.3468C39.2571 22.7405 39.2565 17.1393 38.2298 11.6323L39.2129 11.449C40.2624 17.0781 40.2624 22.8026 39.2129 28.5271L38.2293 28.3468ZM28.5271 39.2129C33.9654 38.2588 38.2588 33.9654 39.2129 28.5271L38.2279 28.3543C37.3466 33.3779 33.3779 37.3466 28.3543 38.2279L28.5271 39.2129ZM11.449 39.2129C17.1735 40.2624 22.898 40.2624 28.5271 39.2129L28.3438 38.2298C22.8369 39.2565 17.2356 39.2571 11.6293 38.2293L11.449 39.2129ZM28.6225 0.858676L28.4497 1.84363C33.4733 2.72496 37.3466 6.59823 38.2279 11.6218L39.2129 11.449C38.2588 6.01073 34.0608 1.81276 28.6225 0.858676ZM11.449 0.858676C17.0781 -0.286225 22.898 -0.286225 28.6225 0.858676L28.4264 1.83926C22.8303 0.720026 17.1448 0.720683 11.6483 1.83861L11.449 0.858676ZM0.858676 11.449C1.81276 6.01073 6.01073 1.81276 11.449 0.858676L11.6218 1.84363C6.59823 2.72496 2.72496 6.59823 1.84363 11.6218L0.858676 11.449ZM0.858676 11.449L1.83926 11.6451C0.720026 17.2413 0.720683 22.9267 1.83861 28.4232L0.858676 28.6225C-0.286225 22.9934 -0.286225 17.1735 0.858676 11.449ZM0.858676 28.6225C1.81276 34.0608 6.01073 38.2588 11.449 39.2129L11.6218 38.2279C6.59823 37.3466 2.72496 33.4733 1.84363 28.4497L0.858676 28.6225Z" fill="#EEF4FE"/>
<path fill-rule="evenodd" clip-rule="evenodd" d="M12.5333 7.55566C9.78417 7.55566 7.55554 9.78429 7.55554 12.5334V27.4668C7.55554 30.2159 9.78417 32.4446 12.5333 32.4446H27.4667C30.2158 32.4446 32.4444 30.2159 32.4444 27.4668V12.5334C32.4444 9.78429 30.2158 7.55566 27.4667 7.55566H12.5333Z" fill="#0E4174"/>
<path d="M29.4314 25.4588L26.0481 16.1698C25.4881 14.6246 24.0251 13.5489 22.3789 13.5833C20.9358 13.6142 19.6136 14.3965 18.8918 15.6466L18.4356 16.4364H14.5716C14.317 16.4361 14.0817 16.5715 13.9538 16.7917L13.6453 17.3266C13.5814 17.4369 13.5814 17.5728 13.645 17.6832C13.7087 17.7935 13.8264 17.8615 13.9538 17.8615H18.4204C18.5478 17.8614 18.6656 17.9294 18.7292 18.0398C18.7929 18.1502 18.7928 18.2861 18.729 18.3964L18.421 18.9296C18.2937 19.1501 18.0585 19.2859 17.8038 19.286H11.5003C11.2457 19.286 11.0105 19.4219 10.8832 19.6424L10.5734 20.1785C10.5096 20.2888 10.5095 20.4247 10.5732 20.5351C10.6369 20.6454 10.7546 20.7135 10.882 20.7134H15.9652L15.1427 22.1367H12.7084C12.4538 22.1368 12.2185 22.2727 12.0913 22.4932L11.7815 23.0298C11.7177 23.1401 11.7176 23.276 11.7813 23.3864C11.8449 23.4968 11.9627 23.5648 12.0901 23.5647H14.3202L13.29 25.348C13.1631 25.5682 13.1631 25.8393 13.29 26.0595C13.4168 26.2798 13.6513 26.4158 13.9054 26.4167H17.5501C18.0595 26.4168 18.5303 26.145 18.785 25.7038L20.0199 23.5653H24.4632L25.2676 25.705C25.4231 26.1187 25.8172 26.3942 26.2593 26.398L28.7524 26.4155C28.9859 26.4172 29.2054 26.3044 29.34 26.1136C29.4746 25.9228 29.5072 25.6782 29.4273 25.4588H29.4314ZM21.2548 20.7134C20.8612 20.7134 20.5421 20.3944 20.542 20.0007C20.5419 19.6072 20.8609 19.288 21.2544 19.2877C21.6481 19.2875 21.9673 19.6064 21.9677 20C21.9677 20.3937 21.6485 20.7134 21.2548 20.7134ZM23.9265 20.7128C23.6382 20.7128 23.3783 20.5392 23.2679 20.2728C23.1576 20.0064 23.2186 19.6998 23.4225 19.4959C23.6263 19.2921 23.9329 19.2311 24.1993 19.3414C24.4657 19.4518 24.6393 19.7116 24.6393 20C24.6393 20.3937 24.3202 20.7128 23.9265 20.7128Z" fill="#FF7F32"/>
</g>
<defs>
<clipPath id="clip0_1_4601">
<rect width="40" height="40" fill="white"/>
</clipPath>
</defs>
</svg>
