<svg width="40" height="40" viewBox="0 0 40 40" fill="none" xmlns="http://www.w3.org/2000/svg">
<g clip-path="url(#clip0_1_4607)">
<path d="M39.2129 11.449V11.449C40.2624 17.0781 40.2624 22.8026 39.2129 28.5271V28.5271C38.2588 33.9654 33.9654 38.2588 28.5271 39.2129V39.2129C22.898 40.2624 17.1735 40.2624 11.449 39.2129V39.2129C6.01073 38.2588 1.81276 34.0608 0.858676 28.6225V28.6225C-0.286225 22.9934 -0.286225 17.1735 0.858676 11.449V11.449C1.81276 6.01073 6.01073 1.81276 11.449 0.858676V0.858676C17.0781 -0.286225 22.898 -0.286225 28.6225 0.858676V0.858676C34.0608 1.81276 38.2588 6.01073 39.2129 11.449Z" fill="white"/>
<path fill-rule="evenodd" clip-rule="evenodd" d="M38.2293 28.3468C39.2571 22.7405 39.2565 17.1393 38.2298 11.6323L39.2129 11.449C40.2624 17.0781 40.2624 22.8026 39.2129 28.5271L38.2293 28.3468ZM28.5271 39.2129C33.9654 38.2588 38.2588 33.9654 39.2129 28.5271L38.2279 28.3543C37.3466 33.3779 33.3779 37.3466 28.3543 38.2279L28.5271 39.2129ZM11.449 39.2129C17.1735 40.2624 22.898 40.2624 28.5271 39.2129L28.3438 38.2298C22.8369 39.2565 17.2356 39.2571 11.6293 38.2293L11.449 39.2129ZM28.6225 0.858676L28.4497 1.84363C33.4733 2.72496 37.3466 6.59823 38.2279 11.6218L39.2129 11.449C38.2588 6.01073 34.0608 1.81276 28.6225 0.858676ZM11.449 0.858676C17.0781 -0.286225 22.898 -0.286225 28.6225 0.858676L28.4264 1.83926C22.8303 0.720026 17.1448 0.720683 11.6483 1.83861L11.449 0.858676ZM0.858676 11.449C1.81276 6.01073 6.01073 1.81276 11.449 0.858676L11.6218 1.84363C6.59823 2.72496 2.72496 6.59823 1.84363 11.6218L0.858676 11.449ZM0.858676 11.449L1.83926 11.6451C0.720026 17.2413 0.720683 22.9267 1.83861 28.4232L0.858676 28.6225C-0.286225 22.9934 -0.286225 17.1735 0.858676 11.449ZM0.858676 28.6225C1.81276 34.0608 6.01073 38.2588 11.449 39.2129L11.6218 38.2279C6.59823 37.3466 2.72496 33.4733 1.84363 28.4497L0.858676 28.6225Z" fill="#EEF4FE"/>
<path fill-rule="evenodd" clip-rule="evenodd" d="M12.5333 7.55566C9.78417 7.55566 7.55554 9.78429 7.55554 12.5334V27.4668C7.55554 30.2159 9.78417 32.4446 12.5333 32.4446H27.4667C30.2158 32.4446 32.4444 30.2159 32.4444 27.4668V12.5334C32.4444 9.78429 30.2158 7.55566 27.4667 7.55566H12.5333Z" fill="#F6F7F8"/>
<path d="M19.8954 18.5236C19.8136 18.5233 19.7318 18.5227 19.6503 18.5227H19.6352C18.6205 18.5227 17.5671 18.5506 16.5037 18.6051C16.4364 18.6082 16.3692 18.6114 16.3019 18.6151C17.5303 18.5543 18.7645 18.5241 20.0001 18.5241L19.8957 18.5233L19.8954 18.5236Z" fill="#106031"/>
<path d="M30.6459 19.2888C30.379 19.2497 30.1116 19.2121 29.8436 19.1762C29.6486 17.832 29.0342 17.125 28.0515 16.3772C27.3667 15.8563 27.4474 15.3349 27.556 15.0706C27.5942 14.978 27.5803 14.8702 27.5193 14.7906C27.4583 14.7111 27.3585 14.6692 27.2587 14.6817C26.8593 14.7313 25.813 14.7787 24.726 14.1372C22.8883 13.0542 21.1392 12.8267 19.9949 12.8267C18.8505 12.8267 17.1018 13.0542 15.2641 14.1372C14.177 14.7784 13.1308 14.7313 12.7313 14.6817C12.6318 14.6692 12.5321 14.7111 12.4711 14.7906C12.41 14.8705 12.3958 14.978 12.434 15.0706C12.5426 15.3349 12.623 15.8563 11.9385 16.3772C10.982 17.1053 10.344 17.8354 10.1461 19.1776C9.88129 19.213 9.61701 19.2503 9.35359 19.2888C9.19992 19.311 9.09444 19.4496 9.11325 19.6035L9.60389 23.653C9.6133 23.7294 9.65379 23.7992 9.71508 23.8454C9.77609 23.8916 9.85449 23.911 9.93032 23.899C10.6756 23.7798 11.4265 23.6744 12.1823 23.582C12.3479 23.7587 12.5055 24.0068 12.5055 24.3118C12.5055 24.378 12.4981 24.4469 12.4816 24.5185C12.4514 24.6511 12.4847 24.7868 12.5731 24.8905C12.6618 24.9949 12.7906 25.0496 12.9272 25.0411C13.3933 25.0111 14.317 25.0448 15.2638 25.6033C17.1015 26.6869 18.8505 26.9144 19.9946 26.9144C21.1387 26.9144 22.888 26.6869 24.7254 25.6033C25.6725 25.0448 26.5959 25.0111 27.0623 25.0411C27.1983 25.0496 27.3274 24.9949 27.4163 24.8905C27.5047 24.7868 27.5381 24.6511 27.5076 24.5185C27.4158 24.1177 27.6059 23.7964 27.8081 23.5808C28.567 23.6735 29.321 23.7796 30.0694 23.899C30.0842 23.9013 30.0991 23.9024 30.1136 23.9024C30.1749 23.9024 30.2356 23.8825 30.2849 23.8454C30.3459 23.7992 30.3864 23.7294 30.3958 23.653L30.8868 19.6035C30.9053 19.4496 30.7995 19.311 30.6459 19.2888ZM12.4118 21.2422C12.3436 21.3745 12.2367 21.4837 12.0905 21.5698C11.9445 21.6556 11.7672 21.7129 11.5582 21.7414L11.2389 21.7851L11.299 22.2241L11.3655 22.4995L11.337 22.5035L10.6778 22.5933L10.6593 22.5959L10.6399 22.3142L10.4053 20.5974L10.3443 20.2892L10.3625 20.2866L11.3415 20.1529C11.5502 20.1244 11.7364 20.1321 11.9003 20.1754C12.0639 20.2193 12.1962 20.2957 12.2974 20.4049C12.3984 20.5144 12.4599 20.6481 12.4813 20.8061C12.503 20.9643 12.4796 21.11 12.4118 21.2422ZM12.4032 18.9102C12.2798 18.923 12.1563 18.9359 12.0332 18.949C11.8276 18.9712 11.6223 18.9943 11.4176 19.0183C11.384 19.022 11.3504 19.026 11.3167 19.0299C11.2509 19.0376 11.1853 19.0453 11.1197 19.0536C11.0559 19.061 10.9923 19.0687 10.9287 19.0767C10.9276 19.0767 10.9264 19.0767 10.9253 19.077C10.8138 19.091 10.7021 19.1046 10.5906 19.1192C10.5809 19.1203 10.5712 19.1217 10.5615 19.1229C10.7579 17.9825 11.3124 17.3585 12.1817 16.6968C12.9625 16.1029 12.9591 15.4649 12.8653 15.0983C13.3933 15.1367 14.4151 15.1042 15.4682 14.4836C17.2278 13.4459 18.901 13.2284 19.9949 13.2284C21.0888 13.2284 22.7625 13.4459 24.5218 14.4836C25.575 15.1045 26.5967 15.1367 27.1247 15.098C27.0309 15.4649 27.0275 16.1029 27.8083 16.6968C28.6998 17.3753 29.2358 17.9802 29.4288 19.1217C29.4217 19.1209 29.414 19.1197 29.4069 19.1189C29.3381 19.1101 29.2694 19.1012 29.2007 19.0929C29.1645 19.0884 29.1283 19.0835 29.0921 19.0793C29.0382 19.0724 28.9841 19.0659 28.9305 19.0596C28.8478 19.0493 28.7654 19.0394 28.6827 19.0299C28.5932 19.0194 28.5031 19.0086 28.413 18.9986C28.3329 18.9895 28.2525 18.9803 28.1724 18.9715C28.1077 18.9644 28.0427 18.9572 27.9777 18.9501C27.8431 18.9356 27.7086 18.9216 27.5737 18.9079C27.3964 18.8897 27.2194 18.8723 27.0417 18.8555C26.9571 18.8475 26.8724 18.8395 26.7874 18.8318C26.7033 18.8241 26.6192 18.8164 26.5351 18.8093C26.4636 18.803 26.3917 18.7967 26.3199 18.7908C26.2295 18.7828 26.1389 18.7754 26.0485 18.7682C26.0411 18.7677 26.0342 18.7671 26.0271 18.7665C25.9293 18.7585 25.8315 18.7506 25.7337 18.7434C25.7189 18.7423 25.7035 18.7411 25.6884 18.7397C25.6146 18.7343 25.5405 18.7286 25.4663 18.7235C25.3264 18.7129 25.1864 18.7032 25.0458 18.6938C24.954 18.6876 24.8619 18.6813 24.7699 18.6756C24.5617 18.6625 24.3533 18.6499 24.1444 18.6385C24.0648 18.634 23.985 18.63 23.9055 18.626C23.8262 18.6217 23.7467 18.6174 23.6674 18.6137C23.5819 18.6094 23.4964 18.6054 23.4108 18.6017C23.386 18.6006 23.3615 18.5995 23.3367 18.5983C23.2649 18.5952 23.1927 18.592 23.1206 18.5892C23.0724 18.5872 23.0242 18.5849 22.9764 18.5829C22.7788 18.5752 22.5812 18.5684 22.3834 18.5621C22.366 18.5615 22.348 18.561 22.3306 18.5604C22.2294 18.5573 22.1285 18.5544 22.0276 18.5516C21.9409 18.5493 21.854 18.547 21.7676 18.545C21.7128 18.5436 21.6581 18.5424 21.6034 18.5416C21.5235 18.5396 21.4437 18.5382 21.3636 18.5367C21.3519 18.5365 21.3402 18.5362 21.3282 18.5362C21.2222 18.5342 21.1164 18.5325 21.0104 18.5313C20.9151 18.5299 20.8202 18.5288 20.7253 18.5279C20.6973 18.5276 20.6694 18.5273 20.6417 18.527C20.5397 18.5262 20.4382 18.5256 20.3367 18.5253C20.2269 18.5248 20.1175 18.5245 20.0074 18.5245H19.9997C18.7644 18.5245 17.5303 18.5547 16.3018 18.6151C16.2063 18.6197 16.1108 18.6248 16.0153 18.6297C15.9814 18.6314 15.9474 18.6331 15.9135 18.6354C15.8197 18.6402 15.7259 18.6456 15.6321 18.6511C15.5207 18.6576 15.4095 18.6645 15.2977 18.6713C15.1865 18.6781 15.0754 18.6853 14.9639 18.693C14.7412 18.7081 14.5191 18.724 14.2971 18.7409C14.0601 18.7591 13.8238 18.7782 13.5877 18.7985C13.5302 18.8033 13.4726 18.8084 13.4153 18.8136C13.3483 18.8195 13.2813 18.8255 13.2143 18.8315C13.1618 18.8364 13.1091 18.8412 13.0566 18.8461C12.9919 18.8523 12.9272 18.8583 12.8628 18.8649C12.812 18.8694 12.7616 18.8743 12.7108 18.8794C12.6082 18.8894 12.5055 18.8997 12.4032 18.9102ZM26.9756 22.3122L26.339 22.2577L26.3205 22.1956L25.2588 20.5811L25.2363 20.5791L25.1274 21.8529L25.1296 22.1545L24.7137 22.1189L24.767 21.8218L24.917 20.068L24.9144 19.776L25.5519 19.8308L25.5718 19.8975L26.6284 21.5008L26.6537 21.5031L26.7618 20.235L26.7598 19.934L27.1757 19.9693L27.1221 20.2667L26.9733 22.0106L26.9756 22.3122ZM20.3373 19.5924L20.3641 19.593H20.3652L21.036 19.6035H21.0372L21.064 19.6041L21.0326 19.8929L21.005 21.5969L21.9286 21.612L22.2363 21.5889L22.23 21.6169L22.1581 21.9786L20.9992 21.9598L20.6762 21.9547L20.3261 21.949V21.9498H20.2982L20.3307 21.6508L20.3595 19.8821L20.3373 19.5924ZM22.1011 20.7904C22.1359 20.1133 22.73 19.5936 23.4282 19.6295C24.1264 19.6654 24.6641 20.2433 24.6293 20.9204C24.5945 21.5972 24.0001 22.1172 23.3019 22.0813C22.6037 22.0453 22.0661 21.4672 22.1011 20.7904ZM18.9398 21.6397C19.1903 21.6397 19.411 21.4948 19.5444 21.2742L19.7905 21.5182C19.5595 21.8198 19.1903 22.0151 18.7735 22.0151C18.0739 22.0151 17.5069 21.4643 17.5069 20.7847C17.5069 20.105 18.0739 19.5542 18.7735 19.5542C19.1903 19.5542 19.5595 19.7495 19.7905 20.0511L19.5444 20.2952C19.411 20.0742 19.1903 19.93 18.9398 19.93C18.5324 19.93 18.2022 20.3129 18.2022 20.7847C18.2022 21.2565 18.5324 21.6397 18.9398 21.6397ZM15.8086 21.1048C15.8269 21.4236 16.0906 21.6696 16.4059 21.6696C16.4176 21.6696 16.4292 21.669 16.4412 21.6682C16.7714 21.6494 17.0234 21.366 17.0046 21.0356L16.9418 19.9648L16.8971 19.6691L16.9378 19.6666L17.2822 19.6466L17.3099 19.6449L17.2999 19.938L17.3629 21.0224C17.3954 21.5824 16.9678 22.0625 16.4076 22.095L16.2174 22.1061C15.6575 22.1386 15.1774 21.7109 15.1449 21.151L15.0825 20.0725L15.0374 19.7766L15.0651 19.7752L15.7291 19.7367L15.7544 19.7353L15.745 20.0095L15.8086 21.1048ZM12.5583 19.9913L12.5859 19.9887L13.257 19.9288L13.2844 19.9266L13.2836 20.2293L13.3449 20.9187L14.2435 20.8383L14.1824 20.1492L14.1277 19.8516L14.1556 19.849L14.8262 19.7891L14.8541 19.7869L14.853 20.0896L15.0086 21.8364L15.0631 22.1343L15.0352 22.1366L14.3646 22.1962L14.3367 22.199L14.3378 21.8957L14.2757 21.1998L13.3771 21.2802L13.4389 21.9761L13.4937 22.274L13.466 22.2763L12.7952 22.3361L12.7673 22.3387L12.7684 22.0357L12.6127 20.2889L12.5583 19.9913ZM27.3377 23.5255C27.0375 23.9643 27.0628 24.3768 27.1162 24.608C27.1179 24.616 27.1159 24.6237 27.1104 24.6303C27.1045 24.6374 27.0968 24.6408 27.0876 24.64C26.5756 24.6075 25.561 24.6442 24.5215 25.2575C22.7622 26.2946 21.0888 26.5127 19.9946 26.5127C18.9004 26.5127 17.2272 26.2946 15.4679 25.2575C14.5856 24.7372 13.7215 24.632 13.167 24.632C13.068 24.632 12.9791 24.6351 12.9015 24.64C12.8927 24.6405 12.885 24.6374 12.879 24.6303C12.8747 24.6254 12.8727 24.62 12.8727 24.6137C12.8727 24.612 12.873 24.61 12.8733 24.608C12.9263 24.3771 12.952 23.9649 12.6524 23.5267C12.6524 23.5264 12.6524 23.5264 12.6524 23.5261C12.7182 23.5184 12.7841 23.511 12.8502 23.5039C12.8981 23.4985 12.9463 23.493 12.9942 23.4879C13.0783 23.4788 13.1624 23.4697 13.2468 23.4608C13.346 23.4506 13.4452 23.4403 13.5447 23.4303C13.6439 23.4203 13.7434 23.4106 13.8432 23.4012C13.9099 23.395 13.9769 23.3887 14.0439 23.3827C14.0767 23.3796 14.1095 23.3764 14.1423 23.3736C14.1759 23.3704 14.2095 23.3673 14.2435 23.3647C14.3093 23.3585 14.3755 23.3528 14.4416 23.3471C14.5086 23.3414 14.5759 23.3357 14.6429 23.3305C14.6757 23.3274 14.7087 23.3248 14.7415 23.3223C14.8416 23.314 14.9416 23.306 15.042 23.2986H15.0429C15.1763 23.2883 15.3097 23.2786 15.4431 23.2692C15.5771 23.2598 15.7111 23.251 15.8451 23.2424C15.9349 23.2367 16.0253 23.2313 16.1159 23.2262C16.1787 23.2219 16.2417 23.2182 16.3049 23.2148C16.3816 23.2102 16.4583 23.2062 16.535 23.2022C16.628 23.1974 16.7209 23.1928 16.8141 23.188C16.9199 23.1829 17.0257 23.178 17.1317 23.1734C17.1927 23.1706 17.2543 23.168 17.3159 23.1658C17.4399 23.1606 17.5639 23.1555 17.6879 23.1512C17.7874 23.1478 17.8869 23.1444 17.9864 23.1415C18.1797 23.1355 18.373 23.1304 18.5666 23.1261C18.6313 23.1247 18.6957 23.1233 18.7601 23.1221C18.8072 23.1213 18.8548 23.1204 18.9018 23.1196C19.1613 23.1153 19.421 23.1124 19.6807 23.1113C19.787 23.1107 19.8937 23.1104 20 23.1104C20.1063 23.1104 20.2133 23.1107 20.3196 23.1113C20.4442 23.1119 20.5685 23.1127 20.6933 23.1141C20.7703 23.115 20.8473 23.1159 20.9243 23.117C20.9682 23.1176 21.0124 23.1181 21.0563 23.119C21.1458 23.1204 21.2347 23.1218 21.324 23.1238C21.495 23.1275 21.6661 23.1315 21.8371 23.1364C21.9212 23.1387 22.0056 23.1412 22.0897 23.1438C22.1442 23.1455 22.1983 23.1472 22.2528 23.1492C22.3192 23.1515 22.3856 23.1538 22.4518 23.1563C22.4849 23.1575 22.5179 23.1589 22.5507 23.1603C22.6568 23.1643 22.7631 23.1686 22.8689 23.1734C22.9746 23.178 23.0804 23.1829 23.1862 23.188C23.2777 23.1923 23.3695 23.1971 23.461 23.202C23.5448 23.2065 23.6289 23.2111 23.7127 23.2159C23.7578 23.2182 23.8023 23.2208 23.847 23.2236C23.9226 23.2282 23.9978 23.2327 24.0728 23.2376C24.1013 23.239 24.1298 23.2407 24.1583 23.2427C24.192 23.2447 24.2259 23.247 24.2595 23.2493C24.2766 23.2501 24.294 23.2513 24.3111 23.2527C24.3588 23.2556 24.4061 23.2587 24.4537 23.2624C24.5589 23.2695 24.6644 23.2769 24.7696 23.2846C24.98 23.3 25.1904 23.3163 25.4002 23.3342C25.6029 23.3505 25.8053 23.3685 26.0074 23.3873C26.2101 23.4061 26.412 23.4258 26.6135 23.4466C26.8556 23.4711 27.097 23.4973 27.3382 23.525C27.3382 23.5253 27.3379 23.5253 27.3379 23.5255H27.3377ZM29.5919 21.5641L29.5847 21.6246L29.5049 22.3068L29.4978 22.6058L29.4701 22.6027L29.2227 22.5736L29.1739 22.3601L29.1423 22.3569C28.9068 22.5009 28.6209 22.5702 28.3221 22.5351C27.6273 22.4539 27.1284 21.8407 27.2074 21.1656C27.2863 20.4907 27.9138 20.0092 28.6086 20.0908C29.022 20.1389 29.3667 20.3764 29.5608 20.7023L29.288 20.9167C29.1813 20.6818 28.9786 20.5124 28.73 20.4833C28.3252 20.4357 27.9526 20.7778 27.8979 21.2465C27.8428 21.7155 28.1262 22.134 28.5313 22.1813C28.6437 22.1944 28.7537 22.1773 28.8549 22.136L28.9239 21.5473L28.8156 21.5342L28.5188 21.5279L28.5219 21.5L28.5271 21.4581L28.5638 21.1442L28.9658 21.1909L29.6267 21.2682L29.654 21.2716L29.5919 21.5641Z" fill="#106031"/>
<path d="M27.8085 16.6967C27.0276 16.1028 27.031 15.4648 27.1248 15.0979C26.5968 15.1367 25.5751 15.1045 24.522 14.4835C22.7627 13.4458 21.0892 13.2283 19.995 13.2283C18.9008 13.2283 17.2279 13.4458 15.4683 14.4835C14.4152 15.1042 13.3934 15.1367 12.8655 15.0982C12.9593 15.4648 12.9627 16.1028 12.1818 16.6967C11.3126 17.3584 10.7581 17.9824 10.5616 19.1228C10.5713 19.1217 10.581 19.1202 10.5907 19.1191C10.7022 19.1046 10.814 19.0909 10.9254 19.0769C10.9266 19.0766 10.9277 19.0766 10.9288 19.0766C10.9924 19.0686 11.056 19.0609 11.1199 19.0535C11.1854 19.0453 11.251 19.0376 11.3169 19.0299C11.3505 19.0259 11.3841 19.0219 11.4178 19.0182C11.6225 18.9942 11.8277 18.9711 12.0333 18.9489C12.1564 18.9358 12.2799 18.923 12.4033 18.9101C12.5057 18.8996 12.6083 18.8893 12.7109 18.8793C12.7617 18.8742 12.8121 18.8694 12.8629 18.8648C12.9273 18.8582 12.992 18.8523 13.0568 18.846C13.1092 18.8411 13.162 18.8363 13.2144 18.8314C13.2814 18.8255 13.3484 18.8195 13.4154 18.8135C13.4727 18.8083 13.5303 18.8032 13.5879 18.7984C13.8239 18.7781 14.0603 18.759 14.2972 18.7408C14.5193 18.724 14.7414 18.708 14.964 18.6929C15.0755 18.6852 15.1867 18.6781 15.2979 18.6712C15.4096 18.6644 15.5208 18.6575 15.6323 18.651C15.7261 18.6453 15.8199 18.6399 15.9136 18.6353C15.9476 18.633 15.9815 18.6313 16.0154 18.6296C16.1109 18.6245 16.2064 18.6193 16.3019 18.6151C16.3692 18.6114 16.4365 18.6082 16.5038 18.6051C17.5669 18.5503 18.6206 18.5227 19.6349 18.5227H19.6503C19.7319 18.5227 19.8137 18.5233 19.8955 18.5235L19.9999 18.5244H20.0075C20.1176 18.5244 20.2271 18.5247 20.3368 18.5253C20.4383 18.5255 20.5398 18.5261 20.6419 18.527C20.6695 18.5272 20.6975 18.5275 20.7254 18.5278C20.8203 18.5287 20.9153 18.5298 21.0105 18.5312C21.1166 18.5324 21.2223 18.5341 21.3284 18.5361C21.3403 18.5361 21.352 18.5364 21.3637 18.5367C21.4438 18.5381 21.5237 18.5395 21.6035 18.5415C21.6582 18.5424 21.713 18.5435 21.7677 18.5449C21.8541 18.5469 21.941 18.5492 22.0277 18.5515C22.1286 18.5543 22.2295 18.5572 22.3308 18.5603C22.3481 18.5609 22.3661 18.5615 22.3835 18.562C22.5813 18.5683 22.7789 18.5751 22.9765 18.5828C23.0244 18.5848 23.0726 18.5871 23.1207 18.5891C23.1929 18.592 23.265 18.5951 23.3368 18.5982C23.3616 18.5994 23.3862 18.6005 23.411 18.6017C23.4965 18.6054 23.582 18.6094 23.6675 18.6136C23.7468 18.6173 23.8263 18.6216 23.9056 18.6259C23.9851 18.6299 24.065 18.6339 24.1445 18.6384C24.3535 18.6498 24.5619 18.6624 24.77 18.6755C24.8621 18.6812 24.9542 18.6875 25.046 18.6937C25.1865 18.7031 25.3265 18.7128 25.4665 18.7234C25.5406 18.7285 25.6147 18.7342 25.6885 18.7396C25.7037 18.7411 25.7191 18.7422 25.7339 18.7433C25.8317 18.7505 25.9294 18.7585 26.0272 18.7664C26.0344 18.767 26.0412 18.7676 26.0486 18.7681C26.139 18.7753 26.2296 18.7827 26.32 18.7907C26.3919 18.7967 26.4637 18.8029 26.5353 18.8092C26.6194 18.8163 26.7035 18.824 26.7876 18.8317C26.8725 18.8394 26.9572 18.8474 27.0419 18.8554C27.2195 18.8722 27.3965 18.8896 27.5739 18.9078C27.7087 18.9215 27.8433 18.9355 27.9778 18.95C28.0428 18.9572 28.1078 18.9643 28.1725 18.9714C28.2527 18.9803 28.333 18.9894 28.4132 18.9985C28.5032 19.0085 28.5933 19.0193 28.6829 19.0299C28.7655 19.0393 28.8479 19.0492 28.9306 19.0595C28.9842 19.0658 29.0384 19.0723 29.0922 19.0792C29.1284 19.0835 29.1647 19.0883 29.2009 19.0929C29.2696 19.1011 29.3383 19.11 29.407 19.1188C29.4141 19.1197 29.4218 19.1208 29.4289 19.1217C29.2359 17.9802 28.7 17.3752 27.8085 16.6967ZM22.3193 15.4574V15.4967C22.3193 16.831 21.2383 17.9117 19.9043 17.9117C18.5704 17.9117 17.4893 16.831 17.4893 15.4967V15.4574H17.4899C17.4899 15.4554 17.4899 15.4534 17.4899 15.4514C17.4899 15.4044 17.5116 15.3602 17.5486 15.3311C17.641 15.259 17.757 15.1754 17.8959 15.0896C18.088 14.8593 18.5915 14.3393 19.3952 14.071C20.2014 13.8019 20.893 13.9165 21.2334 14.0088C21.2842 14.0225 21.3244 14.0605 21.3412 14.1098C21.3575 14.1597 21.3483 14.2141 21.3161 14.2555C21.232 14.3635 21.1071 14.5063 20.9387 14.6563C21.09 14.6996 21.2314 14.7507 21.3629 14.8057C21.7606 14.9725 22.0653 15.178 22.2609 15.3311C22.2983 15.3602 22.3196 15.4044 22.3196 15.4514C22.3196 15.4534 22.3196 15.4554 22.3193 15.4574Z" fill="white"/>
<path d="M27.338 23.5249C27.0971 23.4973 26.8553 23.471 26.6133 23.4468C26.4117 23.4257 26.2099 23.4063 26.0075 23.3875C25.8054 23.3684 25.6029 23.3507 25.4002 23.3342C25.1904 23.3162 24.98 23.3 24.7696 23.2849C24.6644 23.2772 24.5589 23.2698 24.4535 23.2623C24.4061 23.2589 24.3585 23.2558 24.3112 23.2529C24.2938 23.2515 24.2767 23.2504 24.2593 23.2495C24.2257 23.2472 24.1917 23.245 24.1581 23.243C24.1296 23.241 24.1011 23.2393 24.0726 23.2378C23.9976 23.233 23.9221 23.2284 23.8468 23.2241C23.802 23.2213 23.7573 23.2187 23.7125 23.2164C23.6284 23.2116 23.5446 23.207 23.4605 23.2025C23.369 23.1976 23.2772 23.1931 23.1859 23.1888C23.0802 23.1837 22.9744 23.1788 22.8684 23.1743C22.7626 23.1694 22.6565 23.1651 22.5502 23.1611C22.5174 23.16 22.4843 23.1586 22.4513 23.1574C22.3851 23.1549 22.3187 23.1526 22.2523 23.1503C22.1978 23.1483 22.1437 23.1466 22.0892 23.1449C22.0048 23.1423 21.9207 23.1398 21.8363 23.1375C21.6656 23.1326 21.4945 23.1286 21.3235 23.1252C21.2342 23.1232 21.1453 23.1218 21.0558 23.1204C21.0118 23.1195 20.9677 23.1189 20.9238 23.1184C20.8468 23.1172 20.7698 23.1164 20.6928 23.1155C20.568 23.1141 20.4434 23.1132 20.3191 23.1127C20.2127 23.1121 20.1061 23.1118 19.9995 23.1118C19.8929 23.1118 19.7865 23.1121 19.6799 23.1127C19.4202 23.1138 19.1605 23.1167 18.901 23.1209C18.854 23.1218 18.8064 23.1226 18.7593 23.1235C18.6949 23.1246 18.6305 23.1261 18.5658 23.1275C18.3722 23.1315 18.1789 23.1366 17.9859 23.1426C17.8864 23.1457 17.7869 23.1489 17.6874 23.1523C17.5631 23.1566 17.4391 23.1614 17.3154 23.1666C17.2538 23.1688 17.1922 23.1714 17.1309 23.1743C17.0251 23.1788 16.9194 23.1837 16.8133 23.1888C16.7201 23.1934 16.6272 23.1979 16.5342 23.2028C16.4575 23.2068 16.3808 23.211 16.3042 23.2153C16.2409 23.2187 16.1779 23.2224 16.1151 23.2264C16.0245 23.2316 15.9344 23.237 15.8443 23.2427C14.7721 23.3108 13.7061 23.4055 12.6519 23.5263C12.6519 23.5266 12.6521 23.5266 12.6521 23.5269C12.9518 23.9651 12.9258 24.3776 12.8731 24.6085C12.8728 24.6105 12.8725 24.6125 12.8725 24.6142C12.8725 24.6202 12.8745 24.6256 12.8788 24.6305C12.8848 24.6376 12.8922 24.6408 12.9013 24.6402C12.9789 24.6353 13.0678 24.6322 13.1667 24.6322C13.7212 24.6322 14.5853 24.7374 15.4677 25.2577C17.227 26.2949 18.9005 26.5129 19.9944 26.5129C21.0883 26.5129 22.762 26.2949 24.5213 25.2577C25.5608 24.6445 26.5754 24.6077 27.0874 24.6402C27.0965 24.641 27.1042 24.6376 27.1102 24.6305C27.1156 24.6239 27.1176 24.6165 27.1159 24.6083C27.0626 24.377 27.0372 23.9645 27.3374 23.5255C27.3374 23.5252 27.3377 23.5252 27.3377 23.5249H27.338Z" fill="#106031"/>
<path d="M12.4119 21.2422C12.3438 21.3745 12.2369 21.4837 12.0906 21.5698C11.9447 21.6559 11.767 21.7129 11.5584 21.7414L11.2388 21.785L11.2989 22.2241L11.3654 22.4992L11.3368 22.5032L10.6777 22.5933L10.6592 22.5958L10.6395 22.3139L10.4049 20.5971L10.3439 20.2889L10.3624 20.2863L11.3414 20.1526C11.5501 20.1241 11.7363 20.1318 11.9002 20.1754C12.0638 20.219 12.1961 20.2957 12.2973 20.4049C12.3982 20.5141 12.4598 20.6478 12.4815 20.806C12.5031 20.9642 12.4798 21.1096 12.4119 21.2419V21.2422Z" fill="#106031"/>
<path d="M15.0631 22.1343L15.0351 22.1366L14.3646 22.1964L14.3367 22.199L14.3378 21.896L14.2757 21.2001L13.377 21.2802L13.4389 21.9761L13.4937 22.274L13.466 22.2763L12.7952 22.3361L12.7672 22.3387L12.7684 22.0357L12.6127 20.2889L12.558 19.9913L12.5859 19.9887L13.257 19.9288L13.2844 19.9266L13.2835 20.2293L13.3448 20.9187L14.2434 20.8386L14.1821 20.1492L14.1277 19.8516L14.1556 19.849L14.8262 19.7891L14.8541 19.7869L14.853 20.0896L15.0083 21.8364L15.0631 22.1343Z" fill="#106031"/>
<path d="M16.4077 22.0951L16.2175 22.106C15.6576 22.1385 15.1775 21.7108 15.145 21.1509L15.0826 20.0724L15.0378 19.7765L15.0655 19.7751L15.7295 19.7366L15.7548 19.7351L15.7454 20.0094L15.809 21.1047C15.8275 21.4235 16.0913 21.6692 16.4063 21.6692C16.418 21.6692 16.4299 21.6686 16.4416 21.6681C16.7718 21.649 17.0241 21.3659 17.005 21.0354L16.9422 19.9646L16.8975 19.669L16.9383 19.6664L17.2826 19.6465L17.3103 19.6448L17.3003 19.9378L17.3633 21.0223C17.3958 21.5823 16.9682 22.0623 16.408 22.0948L16.4077 22.0951Z" fill="#106031"/>
<path d="M19.5445 21.2741L19.7903 21.5182C19.5594 21.8198 19.1902 22.0151 18.7734 22.0151C18.0738 22.0151 17.5067 21.4643 17.5067 20.7846C17.5067 20.105 18.0738 19.5542 18.7734 19.5542C19.1902 19.5542 19.5594 19.7495 19.7903 20.0511L19.5445 20.2951C19.4111 20.0742 19.1902 19.9299 18.9399 19.9299C18.5325 19.9299 18.2023 20.3128 18.2023 20.7846C18.2023 21.2565 18.5325 21.6396 18.9399 21.6396C19.1905 21.6396 19.4111 21.4951 19.5445 21.2741Z" fill="#106031"/>
<path d="M22.2363 21.5888L22.23 21.6167L22.1581 21.9785L20.9993 21.96L20.676 21.9545L20.3262 21.9488V21.9497L20.2982 21.9494L20.3307 21.6506L20.3595 19.8819L20.3373 19.5923L20.3641 19.5929H20.3652L21.036 19.6034L21.0372 19.6037L21.064 19.604L21.0326 19.8928L21.005 21.597L21.9287 21.6119L22.2363 21.5888Z" fill="#106031"/>
<path d="M24.6294 20.9203C24.5946 21.5971 24.0002 22.1171 23.302 22.0812C22.6038 22.0453 22.0662 21.4671 22.1012 20.7903C22.136 20.1132 22.7301 19.5935 23.4283 19.6294C24.1265 19.6654 24.6642 20.2435 24.6294 20.9203Z" fill="#106031"/>
<path d="M27.1222 20.2665L26.9734 22.0104L26.9757 22.312L26.339 22.2578L26.3205 22.1957L25.2588 20.5809L25.2363 20.5789L25.1274 21.8527L25.1297 22.1543L24.7137 22.1187L24.7671 21.8216L24.9167 20.0678L24.9144 19.7761L25.5519 19.8306L25.5719 19.8973L26.6284 21.5009L26.6538 21.5029L26.7618 20.2348L26.7598 19.9338L27.1758 19.9691L27.1222 20.2665Z" fill="#106031"/>
<path d="M29.6539 21.2716L29.5917 21.5643L29.5849 21.6248L29.505 22.307L29.4979 22.6061L29.4703 22.6029L29.2228 22.5738L29.1743 22.3606L29.1427 22.3575C28.9072 22.5011 28.6213 22.5704 28.3225 22.5354C27.6277 22.4544 27.1288 21.8409 27.2075 21.1661C27.2865 20.4913 27.914 20.0097 28.6087 20.0913C29.0221 20.1395 29.3668 20.3769 29.5609 20.7028L29.2884 20.9169C29.1818 20.682 28.9791 20.5126 28.7302 20.4836C28.3256 20.4362 27.953 20.7781 27.898 21.2467C27.843 21.7157 28.1266 22.1342 28.5315 22.1816C28.6438 22.1947 28.7541 22.1776 28.8553 22.1362L28.9243 21.5475L28.816 21.5347L28.5192 21.5284L28.5223 21.5005L28.5272 21.4586L28.564 21.1447L28.9659 21.1914L29.6268 21.2687L29.6542 21.2718L29.6539 21.2716Z" fill="#106031"/>
<path d="M12.6522 23.5261C12.6522 23.5261 12.6525 23.5264 12.6525 23.5267C13.7088 23.4055 14.7739 23.3109 15.8447 23.2424C14.7724 23.3106 13.7065 23.4052 12.6522 23.5261ZM25.4 23.3342C25.6027 23.3513 25.8052 23.3687 26.0073 23.3875C25.8052 23.3684 25.6027 23.3508 25.4 23.3342ZM26.0073 23.3875C26.2094 23.4066 26.4113 23.426 26.6131 23.4468C26.4115 23.4257 26.2097 23.4064 26.0073 23.3875ZM26.6134 23.4466C26.8551 23.4716 27.0969 23.4979 27.3378 23.5252C27.3378 23.525 27.3381 23.525 27.3381 23.5247C27.0972 23.497 26.8554 23.4708 26.6134 23.4466Z" fill="#106031"/>
<path d="M27.3378 23.5255C27.0376 23.9642 27.0633 24.377 27.1163 24.6083C27.118 24.6162 27.116 24.6237 27.1106 24.6305C27.1046 24.6376 27.0972 24.641 27.0878 24.6402C26.5758 24.6077 25.5611 24.6445 24.5217 25.2577C22.7624 26.2949 21.0889 26.5129 19.9947 26.5129C18.9006 26.5129 17.2274 26.2949 15.4681 25.2577C14.5854 24.7374 13.7213 24.6322 13.1671 24.6322C13.0682 24.6322 12.9792 24.6353 12.9017 24.6402C12.8928 24.6408 12.8851 24.6376 12.8792 24.6305C12.8749 24.6256 12.8729 24.6202 12.8729 24.6142C12.8729 24.6125 12.8729 24.6105 12.8735 24.6085C12.9265 24.3776 12.9521 23.9654 12.6525 23.5269C12.6525 23.5266 12.6522 23.5266 12.6522 23.5263C13.7068 23.4055 14.7724 23.3111 15.8447 23.2427C15.9348 23.237 16.0248 23.2316 16.1155 23.2264C16.1782 23.2224 16.2412 23.2187 16.3045 23.2153C16.3812 23.211 16.4579 23.2068 16.5346 23.2028C16.6278 23.1979 16.7207 23.1934 16.8137 23.1888C16.9195 23.1837 17.0252 23.1788 17.1313 23.1743C17.1926 23.1714 17.2542 23.1688 17.3157 23.1666C17.4397 23.1614 17.5635 23.1566 17.6878 23.1523C17.7873 23.1489 17.8868 23.1457 17.9863 23.1426C18.1796 23.1366 18.3728 23.1315 18.5661 23.1275C18.6309 23.1261 18.6953 23.1246 18.7597 23.1235C18.8068 23.1226 18.8544 23.1218 18.9014 23.1209C19.1608 23.1167 19.4206 23.1138 19.6803 23.1127C19.7866 23.1121 19.8932 23.1118 19.9999 23.1118C20.1065 23.1118 20.2128 23.1121 20.3194 23.1127C20.444 23.1132 20.5686 23.1141 20.6932 23.1155C20.7702 23.1164 20.8471 23.1172 20.9241 23.1184C20.968 23.1189 21.0122 23.1195 21.0561 23.1204C21.1456 23.1218 21.2346 23.1232 21.3238 23.1252C21.4949 23.1286 21.6659 23.1326 21.8367 23.1375C21.9211 23.1398 22.0052 23.1423 22.0896 23.1449C22.144 23.1466 22.1982 23.1483 22.2526 23.1503C22.3191 23.1526 22.3855 23.1549 22.4516 23.1574C22.4847 23.1586 22.5178 23.16 22.5506 23.1611C22.6566 23.1651 22.7627 23.1694 22.8687 23.1743C22.9745 23.1788 23.0803 23.1837 23.1863 23.1888C23.2778 23.1931 23.3696 23.1976 23.4609 23.2025C23.545 23.207 23.6288 23.2116 23.7129 23.2164C23.7576 23.2187 23.8024 23.2213 23.8472 23.2241C23.9224 23.2284 23.998 23.233 24.0729 23.2378C24.1015 23.2393 24.13 23.241 24.1585 23.243C24.1921 23.245 24.226 23.2472 24.2597 23.2495C24.2771 23.2504 24.2942 23.2515 24.3116 23.2529C24.3589 23.2558 24.4065 23.2589 24.4538 23.2623C24.559 23.2695 24.6645 23.2769 24.77 23.2849C24.9804 23.3 25.1908 23.3165 25.4006 23.3342C25.6033 23.3504 25.8057 23.3684 26.0079 23.3875C26.2103 23.4063 26.4121 23.4257 26.6137 23.4468C26.8557 23.4713 27.0975 23.4975 27.3384 23.5249C27.3384 23.5252 27.3381 23.5252 27.3381 23.5255H27.3378Z" fill="white"/>
<path d="M22.2363 21.5888L22.23 21.6167L22.1581 21.9785L20.9993 21.96L20.676 21.9545L20.3262 21.9488V21.9497L20.2982 21.9494L20.3307 21.6506L20.3595 19.8819L20.3373 19.5923L20.3641 19.5929H20.3652L21.036 19.6034L21.0372 19.6037L21.064 19.604L21.0326 19.8928L21.005 21.597L21.9287 21.6119L22.2363 21.5888Z" fill="white"/>
<path d="M12.4815 20.8062C12.4598 20.648 12.3985 20.5143 12.2973 20.4051C12.1961 20.2959 12.0638 20.2192 11.9002 20.1756C11.7363 20.1322 11.5501 20.1243 11.3414 20.1528L10.3624 20.2865L10.3439 20.289L10.4049 20.5972L10.6395 22.314L10.6592 22.596L10.6777 22.5934L11.3368 22.5033L11.3654 22.4993L11.2989 22.2242L11.2388 21.7852L11.5584 21.7416C11.767 21.7131 11.9447 21.6558 12.0906 21.5699C12.2366 21.4838 12.3438 21.3747 12.4119 21.2424C12.4798 21.1101 12.5031 20.9647 12.4815 20.8065V20.8062ZM11.7722 21.1415C11.7459 21.2122 11.7029 21.2706 11.6433 21.3168C11.5834 21.363 11.511 21.3918 11.4252 21.4037L11.1912 21.4357L11.0694 20.5459L11.3035 20.514C11.3893 20.5023 11.4668 20.5105 11.5367 20.5391C11.6065 20.5679 11.6638 20.6123 11.7077 20.6736C11.7519 20.7346 11.7802 20.8102 11.7927 20.9003C11.805 20.9906 11.7981 21.0708 11.7719 21.1415H11.7722Z" fill="white"/>
<path d="M15.0631 22.1343L15.0351 22.1366L14.3646 22.1964L14.3367 22.199L14.3378 21.896L14.2757 21.2001L13.377 21.2802L13.4389 21.9761L13.4937 22.274L13.466 22.2763L12.7952 22.3361L12.7672 22.3387L12.7684 22.0357L12.6127 20.2889L12.558 19.9913L12.5859 19.9887L13.257 19.9288L13.2844 19.9266L13.2835 20.2293L13.3448 20.9187L14.2434 20.8386L14.1821 20.1492L14.1277 19.8516L14.1556 19.849L14.8262 19.7891L14.8541 19.7869L14.853 20.0896L15.0083 21.8364L15.0631 22.1343Z" fill="white"/>
<path d="M16.4077 22.0951L16.2175 22.106C15.6576 22.1385 15.1775 21.7108 15.145 21.1509L15.0826 20.0724L15.0378 19.7765L15.0655 19.7751L15.7295 19.7366L15.7548 19.7351L15.7454 20.0094L15.809 21.1047C15.8275 21.4235 16.0913 21.6692 16.4063 21.6692C16.418 21.6692 16.4299 21.6686 16.4416 21.6681C16.7718 21.649 17.0241 21.3659 17.005 21.0354L16.9422 19.9646L16.8975 19.669L16.9383 19.6664L17.2826 19.6465L17.3103 19.6448L17.3003 19.9378L17.3633 21.0223C17.3958 21.5823 16.9682 22.0623 16.408 22.0948L16.4077 22.0951Z" fill="white"/>
<path d="M19.5445 21.2741L19.7903 21.5182C19.5594 21.8198 19.1902 22.0151 18.7734 22.0151C18.0738 22.0151 17.5067 21.4643 17.5067 20.7846C17.5067 20.105 18.0738 19.5542 18.7734 19.5542C19.1902 19.5542 19.5594 19.7495 19.7903 20.0511L19.5445 20.2951C19.4111 20.0742 19.1902 19.9299 18.9399 19.9299C18.5325 19.9299 18.2023 20.3128 18.2023 20.7846C18.2023 21.2565 18.5325 21.6396 18.9399 21.6396C19.1905 21.6396 19.4111 21.4951 19.5445 21.2741Z" fill="white"/>
<path d="M29.6539 21.2716L29.5917 21.5643L29.5849 21.6248L29.505 22.307L29.4979 22.6061L29.4703 22.6029L29.2228 22.5738L29.1743 22.3606L29.1427 22.3575C28.9072 22.5011 28.6213 22.5704 28.3225 22.5354C27.6277 22.4544 27.1288 21.8409 27.2075 21.1661C27.2865 20.4913 27.914 20.0097 28.6087 20.0913C29.0221 20.1395 29.3668 20.3769 29.5609 20.7028L29.2884 20.9169C29.1818 20.682 28.9791 20.5126 28.7302 20.4836C28.3256 20.4362 27.953 20.7781 27.898 21.2467C27.843 21.7157 28.1266 22.1342 28.5315 22.1816C28.6438 22.1947 28.7541 22.1776 28.8553 22.1362L28.9243 21.5475L28.816 21.5347L28.5192 21.5284L28.5223 21.5005L28.5272 21.4586L28.564 21.1447L28.9659 21.1914L29.6268 21.2687L29.6542 21.2718L29.6539 21.2716Z" fill="white"/>
<path d="M23.4283 19.6294C22.7301 19.5935 22.136 20.1132 22.1012 20.7903C22.0662 21.4671 22.6038 22.0453 23.302 22.0812C24.0002 22.1171 24.5946 21.5971 24.6294 20.9203C24.6642 20.2435 24.1265 19.6654 23.4283 19.6294ZM23.9965 20.8878C23.9723 21.3571 23.6701 21.7231 23.3217 21.7055C22.9728 21.6872 22.7102 21.2924 22.7341 20.8228C22.7584 20.3533 23.0606 19.9872 23.4089 20.0052C23.7576 20.0232 24.0205 20.418 23.9965 20.8878Z" fill="white"/>
<path d="M27.1222 20.2665L26.9734 22.0104L26.9757 22.312L26.339 22.2578L26.3205 22.1957L25.2588 20.5809L25.2363 20.5789L25.1274 21.8527L25.1297 22.1543L24.7137 22.1187L24.7671 21.8216L24.9167 20.0678L24.9144 19.7761L25.5519 19.8306L25.5719 19.8973L26.6284 21.5009L26.6538 21.5029L26.7618 20.2348L26.7598 19.9338L27.1758 19.9691L27.1222 20.2665Z" fill="white"/>
<path d="M17.0598 24.3499C17.0724 24.3417 17.0883 24.3368 17.1069 24.3357C17.1257 24.3342 17.1462 24.3371 17.1693 24.3442C17.2041 24.3548 17.2357 24.3727 17.2639 24.3981C17.2919 24.4232 17.3153 24.4537 17.3332 24.489L17.4176 24.4446C17.4085 24.4155 17.3928 24.3858 17.3711 24.3556C17.3495 24.3254 17.321 24.2975 17.2859 24.2715C17.2508 24.2459 17.2098 24.2259 17.163 24.2117C17.1057 24.194 17.0535 24.1888 17.0056 24.196C16.9578 24.2028 16.9178 24.2196 16.8856 24.2456C16.8537 24.2718 16.8317 24.3046 16.8198 24.3439C16.8072 24.3847 16.8075 24.4232 16.8206 24.4585C16.8337 24.4942 16.8534 24.5258 16.8794 24.5535C16.905 24.5811 16.9389 24.6136 16.9808 24.651C17.0113 24.6781 17.035 24.6997 17.0515 24.7165C17.0684 24.7331 17.0812 24.7508 17.0903 24.769C17.0997 24.7875 17.1014 24.8055 17.0957 24.824C17.0915 24.8389 17.0826 24.8514 17.0689 24.8614C17.0555 24.8716 17.0379 24.8776 17.0159 24.8802C16.9937 24.8822 16.9683 24.879 16.9389 24.8702C16.9062 24.8602 16.8768 24.8454 16.8506 24.8263C16.8243 24.8072 16.8024 24.7861 16.7844 24.7627C16.7662 24.7394 16.7525 24.716 16.7434 24.6915L16.6587 24.7359C16.6664 24.7684 16.6821 24.8018 16.7057 24.836C16.7297 24.8702 16.7613 24.9021 16.8007 24.9315C16.84 24.9609 16.8865 24.9837 16.9392 24.9999C16.9985 25.0179 17.0538 25.0244 17.1057 25.0196C17.1576 25.0145 17.2012 24.9985 17.2369 24.9717C17.2725 24.9449 17.2973 24.9087 17.311 24.8637C17.3244 24.8195 17.3241 24.7778 17.3098 24.7396C17.2959 24.7012 17.2751 24.6675 17.2477 24.6379C17.2206 24.6085 17.1853 24.5746 17.1422 24.5369C17.1137 24.5127 17.0915 24.493 17.0758 24.4771C17.0601 24.4617 17.0478 24.4457 17.0396 24.4297C17.031 24.4138 17.0293 24.3978 17.0339 24.3824C17.0379 24.3699 17.0461 24.359 17.0592 24.3508L17.0598 24.3499Z" fill="#106031"/>
<path d="M17.5913 24.3545L17.4111 25.1077L17.6235 25.1587L17.8037 24.4052L17.5913 24.3545Z" fill="#106031"/>
<path d="M18.5368 24.5431L18.4561 25.0221L18.4464 25.0204L18.1545 24.4784L17.9658 24.4468L17.8369 25.2103L17.9769 25.2342L18.0576 24.7552L18.0673 24.757L18.3592 25.2986L18.5476 25.3306L18.6768 24.5668L18.5368 24.5431Z" fill="#106031"/>
<path d="M19.3306 25.2685C19.2915 25.2859 19.251 25.2925 19.2088 25.2893C19.161 25.2854 19.119 25.2697 19.0837 25.2426C19.0483 25.2152 19.0218 25.179 19.0044 25.1345C18.9868 25.0898 18.9802 25.0402 18.9848 24.986C18.989 24.9316 19.0036 24.8837 19.0275 24.8423C19.0518 24.8013 19.0831 24.7699 19.1213 24.7485C19.1595 24.7271 19.2017 24.7183 19.2485 24.722C19.287 24.7251 19.324 24.7377 19.3599 24.7596C19.3959 24.7813 19.4264 24.8104 19.452 24.8466L19.525 24.7847C19.4979 24.7314 19.4563 24.6878 19.3999 24.6536C19.3431 24.6194 19.2796 24.5991 19.2083 24.5934C19.1307 24.5872 19.0583 24.5989 18.9916 24.6291C18.9249 24.659 18.8704 24.7038 18.8288 24.7634C18.7869 24.8229 18.763 24.8908 18.7567 24.9672C18.7504 25.0436 18.763 25.1146 18.7946 25.1802C18.8263 25.2454 18.8724 25.2988 18.9335 25.3389C18.9945 25.3794 19.0637 25.4031 19.1416 25.4094C19.2154 25.4154 19.2813 25.4062 19.3394 25.382C19.3973 25.3578 19.45 25.3179 19.4979 25.2617L19.4358 25.189C19.4041 25.2249 19.3691 25.2514 19.33 25.2685H19.3306Z" fill="#106031"/>
<path d="M19.8695 25.2844L19.8706 25.094L19.8715 24.9592L19.8726 24.7798L20.2472 24.7821L20.2677 24.6473L19.6551 24.6436L19.6505 25.4181L20.2754 25.4219L20.2763 25.2867L19.8697 25.2844H19.8695ZM19.8715 24.9592L19.772 24.9586L19.7711 25.0934L19.8706 25.094L20.1275 25.0954L20.1471 24.9606L19.8717 24.9592H19.8715Z" fill="#106031"/>
<path d="M20.9515 24.6028L20.8187 24.6128L20.5615 24.818L20.6268 24.9107L20.7403 24.8343L20.75 24.8334L20.793 25.3919L21.0111 25.3748L20.9512 24.6028H20.9515Z" fill="#106031"/>
<path d="M21.7835 24.8712C21.7721 24.7876 21.749 24.7189 21.7145 24.6647C21.68 24.6103 21.6355 24.5715 21.5805 24.5481C21.5257 24.5248 21.4622 24.5182 21.39 24.5282C21.3282 24.537 21.2751 24.5567 21.2307 24.5869C21.1865 24.6174 21.1543 24.6559 21.1343 24.7021C21.1141 24.7483 21.1081 24.7996 21.1158 24.8552C21.1226 24.9045 21.14 24.9467 21.1677 24.9809C21.1953 25.0148 21.2307 25.0394 21.274 25.0542C21.3171 25.0687 21.3655 25.0727 21.4188 25.065C21.4724 25.0576 21.5186 25.0376 21.5577 25.0051C21.5657 24.9986 21.5734 24.9917 21.5808 24.9838C21.5805 25.008 21.5788 25.0308 21.5753 25.0519C21.5677 25.1029 21.5505 25.1428 21.5249 25.1719C21.4989 25.2007 21.4653 25.2181 21.4234 25.2241C21.3932 25.2284 21.3647 25.2267 21.3382 25.2192C21.3116 25.2118 21.2871 25.1984 21.2649 25.1793L21.207 25.2557C21.2392 25.2919 21.2783 25.3176 21.3239 25.3324C21.3695 25.3473 21.42 25.351 21.4756 25.343C21.5468 25.333 21.6081 25.3062 21.6592 25.2632C21.7102 25.2201 21.7467 25.1642 21.7681 25.0961C21.79 25.0277 21.7949 24.9527 21.7832 24.8709L21.7835 24.8712ZM21.5352 24.8905C21.5081 24.9159 21.4784 24.9307 21.4459 24.9353C21.4205 24.9387 21.3992 24.9364 21.3809 24.9287C21.3627 24.9208 21.3484 24.9071 21.3373 24.888C21.3262 24.8686 21.3182 24.8435 21.3139 24.8121C21.3099 24.7836 21.3111 24.7577 21.3173 24.7346C21.3236 24.7115 21.3347 24.6927 21.3501 24.6784C21.3658 24.6645 21.3858 24.6556 21.4094 24.6522C21.4528 24.6462 21.4878 24.6613 21.5152 24.6981C21.54 24.7315 21.5577 24.7819 21.5694 24.8501C21.5591 24.8652 21.5474 24.8789 21.5352 24.8905Z" fill="#106031"/>
<path d="M22.5702 24.8459C22.5597 24.7969 22.5391 24.7564 22.5089 24.7245C22.4787 24.6925 22.4416 24.6709 22.3975 24.6595C22.3533 24.6481 22.3045 24.6481 22.2521 24.6598C22.1993 24.6712 22.1548 24.6945 22.1181 24.7299C22.1107 24.737 22.1038 24.7444 22.097 24.7527C22.0953 24.7285 22.0953 24.7062 22.097 24.6848C22.101 24.6332 22.1149 24.5922 22.138 24.5611C22.1614 24.5303 22.1939 24.5104 22.235 24.5012C22.2649 24.4947 22.2934 24.4941 22.3205 24.4995C22.3473 24.505 22.3729 24.5166 22.3966 24.5337L22.4485 24.4533C22.4134 24.4197 22.3727 24.3969 22.3262 24.3858C22.2797 24.3747 22.229 24.3749 22.1739 24.3869C22.1035 24.4023 22.0445 24.4334 21.9972 24.4807C21.9499 24.5278 21.9179 24.5862 21.9014 24.6558C21.8849 24.7253 21.886 24.8006 21.9034 24.8813C21.9216 24.9634 21.9499 25.0301 21.9886 25.082C22.0271 25.1336 22.0747 25.1689 22.1309 25.1877C22.1873 25.2066 22.2512 25.2083 22.3222 25.1926C22.3835 25.1792 22.4348 25.1555 22.4767 25.1219C22.5186 25.088 22.5477 25.0475 22.5642 24.9996C22.5805 24.9517 22.5828 24.9004 22.5705 24.8456L22.5702 24.8459ZM22.3786 24.9819C22.3741 25.0056 22.3647 25.025 22.3501 25.0404C22.3356 25.0555 22.3165 25.066 22.2928 25.0711C22.2504 25.0805 22.2141 25.068 22.1839 25.0332C22.1568 25.0019 22.1352 24.9531 22.1184 24.8861C22.1278 24.8702 22.1383 24.8559 22.1494 24.8434C22.1745 24.816 22.203 24.7989 22.235 24.7918C22.26 24.7863 22.2817 24.7869 22.3002 24.7932C22.3191 24.7997 22.3345 24.8123 22.347 24.8305C22.3595 24.8491 22.3695 24.8736 22.3761 24.9044C22.3823 24.9326 22.3832 24.9585 22.3786 24.9819Z" fill="#106031"/>
<path d="M23.3156 24.689C23.3045 24.6525 23.2865 24.6232 23.2617 24.6012C23.2372 24.5793 23.2001 24.5616 23.1508 24.5476C23.1337 24.5431 23.1143 24.5382 23.0924 24.5336C23.1038 24.522 23.114 24.5097 23.1229 24.4972C23.1431 24.4692 23.1562 24.4407 23.1631 24.4116C23.1696 24.3825 23.1693 24.3552 23.1616 24.3301C23.1502 24.2925 23.128 24.2622 23.0952 24.2391C23.0621 24.2158 23.0225 24.2021 22.9755 24.1975C22.929 24.1927 22.88 24.1981 22.8292 24.2135C22.7753 24.2297 22.7306 24.2525 22.6947 24.2816C22.6584 24.3107 22.6336 24.3441 22.6202 24.3817C22.6066 24.4193 22.6057 24.4575 22.6174 24.4963C22.6311 24.5422 22.6636 24.5781 22.7143 24.6046C22.7317 24.6135 22.7514 24.6217 22.7739 24.6286C22.7548 24.6448 22.7386 24.6622 22.7249 24.6802C22.7012 24.7104 22.6858 24.7418 22.6781 24.7743C22.6707 24.8068 22.6716 24.8387 22.6813 24.8706C22.6938 24.9122 22.7186 24.9459 22.7559 24.9715C22.793 24.9972 22.8378 25.0129 22.8905 25.0183C22.9433 25.0237 22.9983 25.018 23.0553 25.0003C23.1189 24.981 23.1725 24.955 23.2161 24.9222C23.2597 24.8892 23.2902 24.8524 23.3082 24.8116C23.3258 24.7708 23.3284 24.7301 23.3159 24.6887L23.3156 24.689ZM22.8084 24.3925C22.813 24.378 22.8218 24.3646 22.8352 24.3532C22.8483 24.3415 22.8643 24.3327 22.8822 24.3272C22.9025 24.321 22.9216 24.3195 22.9401 24.3224C22.9586 24.3252 22.9743 24.3315 22.9877 24.3421C23.0008 24.352 23.0102 24.3654 23.0151 24.3817C23.0194 24.3957 23.0197 24.4119 23.0162 24.4299C23.0125 24.4478 23.0057 24.4661 22.9951 24.4849C22.9894 24.4952 22.9829 24.5048 22.9752 24.5137C22.9638 24.512 22.9518 24.5106 22.9395 24.5088C22.9099 24.5046 22.8862 24.5 22.8688 24.4946C22.8515 24.4892 22.8378 24.4818 22.8286 24.4726C22.8192 24.4635 22.8127 24.4513 22.8078 24.4367C22.8033 24.4219 22.8036 24.4071 22.8078 24.3928L22.8084 24.3925ZM23.1132 24.8045C23.1063 24.8224 23.0943 24.8381 23.0772 24.8515C23.0599 24.8652 23.039 24.876 23.014 24.8837C22.9846 24.8926 22.9569 24.8954 22.931 24.8926C22.905 24.8897 22.8828 24.8815 22.8643 24.8678C22.8455 24.8544 22.8329 24.8361 22.8261 24.8133C22.8204 24.7942 22.8195 24.7748 22.8235 24.7546C22.8278 24.7343 22.8363 24.7147 22.85 24.695C22.86 24.6805 22.8728 24.6665 22.8877 24.6534C22.9033 24.6562 22.9199 24.6582 22.9373 24.6602C22.9792 24.6654 23.0114 24.6711 23.0348 24.6782C23.0579 24.685 23.0752 24.6941 23.0881 24.7056C23.1006 24.7167 23.11 24.7318 23.1157 24.7506C23.1211 24.7686 23.1203 24.7862 23.1137 24.8042L23.1132 24.8045Z" fill="#106031"/>
<path d="M22.3193 15.4515C22.3193 15.4045 22.298 15.3603 22.2606 15.3312C22.065 15.1781 21.7603 14.9726 21.3626 14.8058C21.2312 14.7508 21.0897 14.6998 20.9384 14.6564C21.1069 14.5065 21.2317 14.3636 21.3158 14.2556C21.348 14.2143 21.3572 14.1598 21.3409 14.1099C21.3241 14.0606 21.2839 14.0227 21.2331 14.009C20.8927 13.9166 20.2011 13.802 19.3949 14.0711C18.5912 14.3394 18.0877 14.8594 17.8956 15.0898C17.7568 15.1756 17.6407 15.2591 17.5484 15.3312C17.5113 15.3603 17.4896 15.4045 17.4896 15.4515C17.4896 15.4535 17.4896 15.4555 17.4896 15.4575V15.4969C17.4893 16.8311 18.5707 17.9119 19.9043 17.9119C21.238 17.9119 22.3193 16.8311 22.3193 15.4969V15.4575H22.3191C22.3193 15.4555 22.3193 15.4535 22.3193 15.4515ZM18.4264 14.9809H18.4267C18.5425 14.8779 18.685 14.7662 18.8544 14.661C19.036 14.5481 19.2483 14.4418 19.4915 14.3605C20.0671 14.1684 20.5772 14.192 20.9178 14.2516C20.8249 14.3502 20.708 14.4603 20.5655 14.5692C20.5099 14.6117 20.4503 14.6541 20.3864 14.6955C20.3177 14.7402 20.2445 14.7839 20.1661 14.8255C20.0295 14.8982 19.8781 14.9649 19.7116 15.0208C19.1879 15.1955 18.7084 15.1972 18.3905 15.1659C18.3398 15.1608 18.2936 15.1551 18.2514 15.1491C18.3007 15.0975 18.3592 15.0404 18.4264 14.9809ZM21.9005 15.4575C21.4963 15.7355 20.8067 16.0876 19.9043 16.0876C19.002 16.0876 18.3127 15.7355 17.9084 15.4575C17.9053 15.4555 17.9024 15.4535 17.8996 15.4515C17.9213 15.4364 17.9438 15.421 17.9674 15.4056C18.0267 15.4202 18.1228 15.4407 18.2477 15.4575C18.3737 15.4746 18.5293 15.4878 18.7067 15.4878C18.8475 15.4878 19.0026 15.4795 19.1674 15.4575C19.3684 15.431 19.5845 15.3848 19.8083 15.3101C20.1367 15.2004 20.4118 15.0516 20.6367 14.8945C21.1898 15.0156 21.6229 15.2534 21.9094 15.4515C21.9065 15.4535 21.9037 15.4555 21.9005 15.4575Z" fill="#106031"/>
<path d="M20.9177 14.2515C20.8247 14.3502 20.7078 14.4602 20.5653 14.5691C20.5097 14.6116 20.4501 14.6541 20.3863 14.6954C20.3176 14.7402 20.2443 14.7838 20.1659 14.8254C20.0293 14.8981 19.8779 14.9648 19.7115 15.0207C19.1877 15.1954 18.7082 15.1972 18.3903 15.1658C18.3396 15.1607 18.2934 15.155 18.2512 15.149C18.3005 15.0974 18.359 15.0404 18.4263 14.9808H18.4266C18.5423 14.8779 18.6848 14.7661 18.8542 14.6609C19.0358 14.548 19.2482 14.4417 19.4914 14.3604C20.067 14.1683 20.577 14.1919 20.9177 14.2515Z" fill="white"/>
<path d="M21.9092 15.4516C21.9064 15.4536 21.9035 15.4556 21.9004 15.4576C21.4961 15.7355 20.8065 16.0876 19.9042 16.0876C19.0019 16.0876 18.3125 15.7355 17.9083 15.4576C17.9051 15.4556 17.9023 15.4536 17.8994 15.4516C17.9211 15.4365 17.9436 15.4211 17.9673 15.4057C18.0266 15.4202 18.1226 15.4408 18.2475 15.4576C18.3735 15.4747 18.5292 15.4878 18.7065 15.4878C18.8473 15.4878 19.0024 15.4795 19.1672 15.4576C19.3682 15.4311 19.5843 15.3849 19.8081 15.3102C20.1365 15.2004 20.4116 15.0516 20.6366 14.8945C21.1896 15.0157 21.6227 15.2535 21.9092 15.4516Z" fill="white"/>
</g>
<defs>
<clipPath id="clip0_1_4607">
<rect width="40" height="40" fill="white"/>
</clipPath>
</defs>
</svg>
