<svg width="40" height="40" viewBox="0 0 40 40" fill="none" xmlns="http://www.w3.org/2000/svg">
<g clip-path="url(#clip0_1_4604)">
<path d="M39.2129 11.449V11.449C40.2624 17.0781 40.2624 22.8026 39.2129 28.5271V28.5271C38.2588 33.9654 33.9654 38.2588 28.5271 39.2129V39.2129C22.898 40.2624 17.1735 40.2624 11.449 39.2129V39.2129C6.01073 38.2588 1.81276 34.0608 0.858676 28.6225V28.6225C-0.286225 22.9934 -0.286225 17.1735 0.858676 11.449V11.449C1.81276 6.01073 6.01073 1.81276 11.449 0.858676V0.858676C17.0781 -0.286225 22.898 -0.286225 28.6225 0.858676V0.858676C34.0608 1.81276 38.2588 6.01073 39.2129 11.449Z" fill="white"/>
<path fill-rule="evenodd" clip-rule="evenodd" d="M38.2293 28.3468C39.2571 22.7405 39.2565 17.1393 38.2298 11.6323L39.2129 11.449C40.2624 17.0781 40.2624 22.8026 39.2129 28.5271L38.2293 28.3468ZM28.5271 39.2129C33.9654 38.2588 38.2588 33.9654 39.2129 28.5271L38.2279 28.3543C37.3466 33.3779 33.3779 37.3466 28.3543 38.2279L28.5271 39.2129ZM11.449 39.2129C17.1735 40.2624 22.898 40.2624 28.5271 39.2129L28.3438 38.2298C22.8369 39.2565 17.2356 39.2571 11.6293 38.2293L11.449 39.2129ZM28.6225 0.858676L28.4497 1.84363C33.4733 2.72496 37.3466 6.59823 38.2279 11.6218L39.2129 11.449C38.2588 6.01073 34.0608 1.81276 28.6225 0.858676ZM11.449 0.858676C17.0781 -0.286225 22.898 -0.286225 28.6225 0.858676L28.4264 1.83926C22.8303 0.720026 17.1448 0.720683 11.6483 1.83861L11.449 0.858676ZM0.858676 11.449C1.81276 6.01073 6.01073 1.81276 11.449 0.858676L11.6218 1.84363C6.59823 2.72496 2.72496 6.59823 1.84363 11.6218L0.858676 11.449ZM0.858676 11.449L1.83926 11.6451C0.720026 17.2413 0.720683 22.9267 1.83861 28.4232L0.858676 28.6225C-0.286225 22.9934 -0.286225 17.1735 0.858676 11.449ZM0.858676 28.6225C1.81276 34.0608 6.01073 38.2588 11.449 39.2129L11.6218 38.2279C6.59823 37.3466 2.72496 33.4733 1.84363 28.4497L0.858676 28.6225Z" fill="#EEF4FE"/>
<path fill-rule="evenodd" clip-rule="evenodd" d="M12.5333 7.55566C9.78417 7.55566 7.55554 9.78429 7.55554 12.5334V27.4668C7.55554 30.2159 9.78417 32.4446 12.5333 32.4446H27.4667C30.2158 32.4446 32.4444 30.2159 32.4444 27.4668V12.5334C32.4444 9.78429 30.2158 7.55566 27.4667 7.55566H12.5333Z" fill="url(#paint0_linear_1_4604)"/>
<path d="M16.2668 13.7403C15.9744 13.6719 15.6633 13.6159 15.2775 13.5599C15.0971 13.535 14.9166 13.5163 14.7424 13.5039C14.5246 13.4852 14.3193 13.4665 14.1139 13.4354C13.8339 13.3919 13.6224 13.255 13.5042 13.0434C13.3859 12.8319 13.3735 12.5643 13.4793 12.2968C13.6162 11.9421 13.9459 11.7368 14.3753 11.7368C14.9166 11.7368 15.4579 11.7368 15.9993 11.7368H17.0819V10.511H13.9771C13.9771 10.511 13.9211 10.5297 13.8962 10.5359C13.8277 10.5483 13.7593 10.567 13.6846 10.5919C12.8508 10.8843 12.3593 11.4568 12.2099 12.2968C12.2099 12.303 12.2037 12.3154 12.1975 12.3217L12.1851 12.359V12.8941L12.2037 12.9874C12.2037 12.9874 12.2162 13.0248 12.2162 13.0434C12.3282 13.815 12.7699 14.3252 13.4793 14.5119C13.7655 14.5865 14.0517 14.6488 14.3317 14.6861C14.5619 14.7172 14.8046 14.7421 15.0286 14.767C15.2402 14.7919 15.4517 14.8105 15.6571 14.8417C15.8935 14.8728 16.0553 14.9412 16.1735 15.0532C16.4286 15.3021 16.4597 15.8061 16.2357 16.1297C16.0428 16.4097 15.7815 16.5403 15.4206 16.5403C14.7922 16.5403 14.1637 16.5403 13.5291 16.5403H12.3779V17.7412L12.5957 17.7661C12.5957 17.7661 12.6393 17.7661 12.6579 17.7661H13.4793C13.6411 17.7661 13.8028 17.7661 13.9708 17.7661C14.5184 17.7661 15.0784 17.7661 15.6322 17.7661C16.0117 17.7661 16.3664 17.6354 16.6962 17.3928C17.4117 16.8639 17.7042 16.1359 17.5735 15.215C17.4615 14.431 17.0011 13.9208 16.2544 13.7403" fill="white"/>
<path d="M22.4578 12.8257L22.4329 12.6328H21.2382V13.0185C21.2382 13.1243 21.2382 13.2301 21.2382 13.3359C21.2196 13.8959 20.7778 14.4434 20.2613 14.5305C19.9876 14.5803 19.7013 14.5865 19.4027 14.5928C19.3405 14.5928 19.2782 14.5928 19.216 14.5928V10.8905C19.216 10.847 19.216 10.8097 19.2098 10.7661L19.1911 10.511H18.0089L17.984 10.7474C17.984 10.7785 17.9778 10.8159 17.9778 10.847C17.9778 13.0434 17.9778 15.2337 17.9778 17.4301C17.9778 17.4612 17.9778 17.4923 17.9778 17.5234L17.9965 17.7661H19.2036V15.831H19.2907C19.5333 15.831 19.7698 15.831 20.0062 15.831C20.1867 15.831 20.3609 15.887 20.5227 15.9803C20.9893 16.2603 21.2196 16.6461 21.2196 17.1688C21.2196 17.2559 21.2196 17.3368 21.2196 17.4239V17.7661H22.4391V17.5483C22.4702 17.0754 22.4578 16.5714 22.2213 16.0799C22.0347 15.6941 21.8044 15.4017 21.512 15.1963C22.2898 14.6363 22.5449 13.647 22.4329 12.8257" fill="white"/>
<path d="M27.8338 14.4873V12.9815C27.8338 12.9442 27.8338 12.913 27.8338 12.8757L27.8213 12.6268H26.608V13.6224C26.608 14.1202 26.608 14.6242 26.608 15.1219C26.608 15.4268 26.5395 15.6819 26.4089 15.9059C26.1289 16.3539 25.6373 16.6028 25.1769 16.5219C24.6293 16.4224 24.1378 15.8562 24.1253 15.3024C24.1191 14.7673 24.1191 14.2259 24.1191 13.697C24.1191 13.4606 24.1191 13.2304 24.1191 12.9939V12.6206H22.8995L22.8871 12.8633C22.8871 12.8633 22.8871 12.913 22.8871 12.9379V13.473C22.8871 14.0455 22.8871 14.6242 22.8871 15.1966C22.8871 15.3957 22.9058 15.5699 22.9369 15.7193C23.1235 16.5717 23.64 17.2064 24.4302 17.561C25.2018 17.9095 25.9546 17.8348 26.6018 17.3308C26.6018 17.3868 26.6018 17.8908 26.6018 17.9344C26.6018 18.2953 26.4711 18.5939 26.2222 18.849C25.712 19.3655 24.984 19.3904 24.4551 18.905C24.3555 18.8179 24.2684 18.7059 24.1813 18.5939C24.1378 18.5379 24.088 18.4757 24.0382 18.4197L23.9138 18.2766L22.8995 18.8677L23.0178 19.0606C23.4035 19.7015 23.8391 20.0935 24.3929 20.305C24.7289 20.4295 25.0524 20.4979 25.3635 20.4979C25.7058 20.4979 26.0231 20.4233 26.328 20.2677C27.336 19.7575 27.84 18.9486 27.84 17.8473C27.84 16.9139 27.84 15.4579 27.84 14.481" fill="white"/>
<path d="M27.8337 21.9536C27.8337 21.9536 27.8337 21.9038 27.8337 21.8789L27.8151 21.6362H26.6017V22.022C26.6017 22.2585 26.6017 22.4887 26.6017 22.7251C26.6017 23.254 26.6017 23.8016 26.5893 24.3367C26.5769 24.8718 26.0915 25.4318 25.5502 25.5251C25.488 25.5376 25.432 25.5438 25.3573 25.5376C25.2951 25.5376 25.2266 25.5376 25.1644 25.5251C24.6231 25.4256 24.1377 24.8718 24.1253 24.3367C24.1129 23.8016 24.1129 23.254 24.1129 22.7313C24.1129 22.4949 24.1129 22.2585 24.1129 22.022V21.6362H22.8995L22.8809 21.8727C22.8809 21.8727 22.8809 21.9225 22.8809 21.9473V22.4762C22.8809 23.0487 22.8809 23.6211 22.8809 24.1936C22.8809 24.4113 22.8995 24.5856 22.9306 24.7411C23.1173 25.5811 23.6275 26.2096 24.4115 26.5705C24.7289 26.7136 25.0462 26.7882 25.3511 26.7882C25.656 26.7882 25.9733 26.7136 26.2906 26.5705C27.0746 26.2158 27.5849 25.5811 27.7715 24.7411C27.8089 24.5856 27.8213 24.4113 27.8213 24.1936C27.8213 23.6273 27.8213 23.0611 27.8213 22.5011V21.9473L27.8337 21.9536Z" fill="white"/>
<path d="M16.9012 19.7511V19.5271H15.7003L15.6879 19.7884C15.6879 19.832 15.6879 19.8693 15.6879 19.9129V21.2133C15.6879 22.1778 15.6879 23.1422 15.6879 24.1067C15.6879 24.2187 15.6879 24.3493 15.663 24.4675C15.5635 24.9902 15.1279 25.432 14.6301 25.5253C14.0328 25.6311 13.4977 25.4009 13.1928 24.9031C13.0746 24.7102 13.0123 24.4924 12.9999 24.2124L12.9875 24.0009H11.6932L11.743 24.2684C11.7555 24.3431 11.7679 24.424 11.7803 24.4987C11.8052 24.6667 11.8363 24.8409 11.8923 25.0151C12.1972 25.9547 13.1057 26.7884 14.3128 26.7884C14.5306 26.7884 14.7608 26.7635 14.9972 26.7013C16.0612 26.4338 16.8763 25.4569 16.895 24.4302C16.9199 23.3351 16.9137 22.2151 16.9075 21.1387C16.9075 20.6782 16.9075 20.2115 16.9075 19.7511" fill="white"/>
<path d="M19.9191 21.6362H19.9005C19.2036 21.6362 18.5565 21.9162 18.0711 22.414C17.592 22.8993 17.3307 23.5465 17.3369 24.2247C17.3556 25.6496 18.488 26.7758 19.9191 26.7882H19.9378C20.5973 26.7882 21.2569 26.5145 21.7422 26.0291C22.2338 25.5376 22.5013 24.8967 22.4951 24.2122C22.4951 23.5153 22.2213 22.862 21.7298 22.3767C21.2507 21.8976 20.6098 21.6362 19.9316 21.6362M19.9005 25.5562C19.5209 25.5438 19.1787 25.3945 18.9236 25.1269C18.6809 24.8718 18.5565 24.542 18.5689 24.1873C18.5876 23.4345 19.1725 22.8745 19.9316 22.8745C19.944 22.8745 19.9627 22.8745 19.9751 22.8745C20.6845 22.8931 21.2693 23.5153 21.2507 24.2309C21.2445 24.5918 21.0951 24.934 20.8276 25.1891C20.5725 25.4318 20.2427 25.5625 19.9005 25.55" fill="white"/>
<path d="M26.558 27.4978C26.4149 27.8151 26.1722 28.0578 25.8487 28.2009C25.6122 28.3005 25.3696 28.3191 25.0896 28.2507C24.7038 28.1574 24.4051 27.9085 24.1562 27.4791L24.0442 27.2862L22.9802 27.9085L23.1109 28.1325C23.1109 28.1325 23.1358 28.176 23.1482 28.1947L23.1856 28.2569C23.2229 28.3191 23.2664 28.3814 23.31 28.4374C23.8513 29.1591 24.542 29.52 25.3633 29.52C25.5127 29.52 25.662 29.5076 25.8176 29.4827C26.5829 29.3645 27.1802 28.9227 27.6033 28.1574C27.6158 28.1387 27.622 28.1138 27.6344 28.0951L27.734 27.8836L26.6638 27.2676L26.5642 27.4978H26.558Z" fill="url(#paint1_linear_1_4604)"/>
</g>
<defs>
<linearGradient id="paint0_linear_1_4604" x1="20" y1="7.24046" x2="20" y2="32.8143" gradientUnits="userSpaceOnUse">
<stop stop-color="#E31E26"/>
<stop offset="1" stop-color="#A91F23"/>
</linearGradient>
<linearGradient id="paint1_linear_1_4604" x1="25.3509" y1="7.60536" x2="25.3509" y2="31.6729" gradientUnits="userSpaceOnUse">
<stop stop-color="#FBCD09"/>
<stop offset="1" stop-color="#F4A21D"/>
</linearGradient>
<clipPath id="clip0_1_4604">
<rect width="40" height="40" fill="white"/>
</clipPath>
</defs>
</svg>
