<svg width="40" height="40" viewBox="0 0 40 40" fill="none" xmlns="http://www.w3.org/2000/svg">
<g clip-path="url(#clip0_1_4627)">
<path d="M39.2129 11.449V11.449C40.2624 17.0781 40.2624 22.8026 39.2129 28.5271V28.5271C38.2588 33.9654 33.9654 38.2588 28.5271 39.2129V39.2129C22.898 40.2624 17.1735 40.2624 11.449 39.2129V39.2129C6.01073 38.2588 1.81276 34.0608 0.858676 28.6225V28.6225C-0.286225 22.9934 -0.286225 17.1735 0.858676 11.449V11.449C1.81276 6.01073 6.01073 1.81276 11.449 0.858676V0.858676C17.0781 -0.286225 22.898 -0.286225 28.6225 0.858676V0.858676C34.0608 1.81276 38.2588 6.01073 39.2129 11.449Z" fill="white"/>
<path fill-rule="evenodd" clip-rule="evenodd" d="M38.2293 28.3468C39.2571 22.7405 39.2565 17.1393 38.2298 11.6323L39.2129 11.449C40.2624 17.0781 40.2624 22.8026 39.2129 28.5271L38.2293 28.3468ZM28.5271 39.2129C33.9654 38.2588 38.2588 33.9654 39.2129 28.5271L38.2279 28.3543C37.3466 33.3779 33.3779 37.3466 28.3543 38.2279L28.5271 39.2129ZM11.449 39.2129C17.1735 40.2624 22.898 40.2624 28.5271 39.2129L28.3438 38.2298C22.8369 39.2565 17.2356 39.2571 11.6293 38.2293L11.449 39.2129ZM28.6225 0.858676L28.4497 1.84363C33.4733 2.72496 37.3466 6.59823 38.2279 11.6218L39.2129 11.449C38.2588 6.01073 34.0608 1.81276 28.6225 0.858676ZM11.449 0.858676C17.0781 -0.286225 22.898 -0.286225 28.6225 0.858676L28.4264 1.83926C22.8303 0.720026 17.1448 0.720683 11.6483 1.83861L11.449 0.858676ZM0.858676 11.449C1.81276 6.01073 6.01073 1.81276 11.449 0.858676L11.6218 1.84363C6.59823 2.72496 2.72496 6.59823 1.84363 11.6218L0.858676 11.449ZM0.858676 11.449L1.83926 11.6451C0.720026 17.2413 0.720683 22.9267 1.83861 28.4232L0.858676 28.6225C-0.286225 22.9934 -0.286225 17.1735 0.858676 11.449ZM0.858676 28.6225C1.81276 34.0608 6.01073 38.2588 11.449 39.2129L11.6218 38.2279C6.59823 37.3466 2.72496 33.4733 1.84363 28.4497L0.858676 28.6225Z" fill="#EEF4FE"/>
<path fill-rule="evenodd" clip-rule="evenodd" d="M12.5333 7.55566C9.78417 7.55566 7.55554 9.78429 7.55554 12.5334V27.4668C7.55554 30.2159 9.78417 32.4446 12.5333 32.4446H27.4667C30.2158 32.4446 32.4444 30.2159 32.4444 27.4668V12.5334C32.4444 9.78429 30.2158 7.55566 27.4667 7.55566H12.5333Z" fill="url(#paint0_linear_1_4627)"/>
<g clip-path="url(#clip1_1_4627)">
<path d="M12.4906 18.8127C12.9652 18.8127 13.2999 19.1899 13.2999 19.73V21.1831H13.0418C12.8427 21.1831 12.6813 21.0196 12.6813 20.8179V19.8329C12.6813 19.5243 12.5584 19.3614 12.3338 19.3614C12.0584 19.3614 11.8974 19.5671 11.8974 19.9315V21.1831H11.2914V19.8329C11.2914 19.5243 11.177 19.3614 10.9567 19.3614C10.677 19.3614 10.5076 19.5671 10.5076 19.9315V21.1831H9.88892V18.8685H10.3211L10.4355 19.1556C10.6008 18.9499 10.8508 18.8127 11.122 18.8127C11.4101 18.8127 11.6516 18.9499 11.783 19.1857C11.9397 18.9585 12.2025 18.8127 12.4906 18.8127Z" fill="white"/>
<path d="M15.1583 18.8687H15.8193L14.8193 21.1532C14.5481 21.779 14.3066 22.0191 13.7897 22.0191H13.5354V21.4533H13.7515C14.0482 21.4533 14.1075 21.3676 14.2685 21.0247L14.277 21.0075L13.3066 18.8687H13.9804L14.5905 20.2917L15.1583 18.8687Z" fill="white"/>
<path d="M17.248 20.6259H17.5277V21.1831H17.0912C16.587 21.1831 16.2777 20.8702 16.2777 20.3559V19.37H15.9563C15.9045 19.37 15.8624 19.3275 15.8624 19.2749C15.8624 19.2507 15.8716 19.2273 15.888 19.2097L16.7455 18.2895C16.7606 18.2733 16.7817 18.2642 16.8037 18.2642C16.8478 18.2642 16.8836 18.3004 16.8836 18.3451V18.8685H17.515V19.37H16.8963V20.2744C16.8963 20.4973 17.0234 20.6259 17.248 20.6259Z" fill="white"/>
<path d="M19.0184 21.2474C18.3065 21.2474 17.7811 20.7245 17.7811 20.0258C17.7811 19.3228 18.3065 18.8042 19.0184 18.8042C19.7218 18.8042 20.2514 19.3228 20.2514 20.0258C20.2514 20.7245 19.7218 21.2474 19.0184 21.2474ZM19.0184 20.6602C19.3743 20.6602 19.6243 20.3987 19.6243 20.0258C19.6243 19.6529 19.3743 19.3914 19.0184 19.3914C18.6582 19.3914 18.4082 19.6529 18.4082 20.0258C18.4082 20.3987 18.6582 20.6602 19.0184 20.6602Z" fill="white"/>
<path d="M21.6541 21.2475C21.0058 21.2475 20.5779 20.8318 20.5779 20.206V18.8687H21.1965V20.1331C21.1965 20.4631 21.366 20.6603 21.6541 20.6603C21.938 20.6603 22.1075 20.4589 22.1075 20.1331V18.8687H22.7262V20.206C22.7262 20.8318 22.3024 21.2475 21.6541 21.2475Z" fill="white"/>
<path d="M24.233 18.8557H24.4365V19.4472H24.1695C23.8221 19.4472 23.6822 19.6015 23.6822 19.9787V21.1832H23.0636V18.8686H23.4619L23.5721 19.1515C23.7331 18.9457 23.9407 18.8557 24.233 18.8557Z" fill="white"/>
<path d="M24.8351 21.1833C24.6536 21.1833 24.5067 21.0327 24.5067 20.849C24.5067 20.6653 24.6536 20.5146 24.8351 20.5146C25.0164 20.5146 25.1634 20.6653 25.1634 20.849C25.1634 21.0327 25.0164 21.1833 24.8351 21.1833Z" fill="white"/>
<path d="M26.9883 18.8687H27.6324L26.7214 21.1832H26.1494L25.2214 18.8687H25.8782L26.4417 20.4203L26.9883 18.8687Z" fill="white"/>
<path d="M29.2679 18.8127C29.7891 18.8127 30.1111 19.1942 30.1111 19.7814V21.1831H29.853C29.6539 21.1831 29.4924 21.0196 29.4924 20.8179V19.88C29.4924 19.5328 29.3611 19.3614 29.0942 19.3614C28.7764 19.3614 28.5814 19.5929 28.5814 19.9658V21.1831H27.9629V18.8685H28.3866L28.5095 19.1556C28.6831 18.9456 28.9543 18.8127 29.2679 18.8127Z" fill="white"/>
</g>
</g>
<defs>
<linearGradient id="paint0_linear_1_4627" x1="20" y1="7.55566" x2="20" y2="32.4446" gradientUnits="userSpaceOnUse">
<stop stop-color="#FE526E"/>
<stop offset="1" stop-color="#FF3366"/>
</linearGradient>
<clipPath id="clip0_1_4627">
<rect width="40" height="40" fill="white"/>
</clipPath>
<clipPath id="clip1_1_4627">
<rect width="20.2222" height="4.94949" fill="white" transform="translate(9.88892 17.6667)"/>
</clipPath>
</defs>
</svg>
