<svg width="40" height="40" viewBox="0 0 40 40" fill="none" xmlns="http://www.w3.org/2000/svg">
<g clip-path="url(#clip0_1_4632)">
<path d="M39.2129 11.449V11.449C40.2624 17.0781 40.2624 22.8026 39.2129 28.5271V28.5271C38.2588 33.9654 33.9654 38.2588 28.5271 39.2129V39.2129C22.898 40.2624 17.1735 40.2624 11.449 39.2129V39.2129C6.01073 38.2588 1.81276 34.0608 0.858676 28.6225V28.6225C-0.286225 22.9934 -0.286225 17.1735 0.858676 11.449V11.449C1.81276 6.01073 6.01073 1.81276 11.449 0.858676V0.858676C17.0781 -0.286225 22.898 -0.286225 28.6225 0.858676V0.858676C34.0608 1.81276 38.2588 6.01073 39.2129 11.449Z" fill="white"/>
<path fill-rule="evenodd" clip-rule="evenodd" d="M38.2293 28.3468C39.2571 22.7405 39.2565 17.1393 38.2298 11.6323L39.2129 11.449C40.2624 17.0781 40.2624 22.8026 39.2129 28.5271L38.2293 28.3468ZM28.5271 39.2129C33.9654 38.2588 38.2588 33.9654 39.2129 28.5271L38.2279 28.3543C37.3466 33.3779 33.3779 37.3466 28.3543 38.2279L28.5271 39.2129ZM11.449 39.2129C17.1735 40.2624 22.898 40.2624 28.5271 39.2129L28.3438 38.2298C22.8369 39.2565 17.2356 39.2571 11.6293 38.2293L11.449 39.2129ZM28.6225 0.858676L28.4497 1.84363C33.4733 2.72496 37.3466 6.59823 38.2279 11.6218L39.2129 11.449C38.2588 6.01073 34.0608 1.81276 28.6225 0.858676ZM11.449 0.858676C17.0781 -0.286225 22.898 -0.286225 28.6225 0.858676L28.4264 1.83926C22.8303 0.720026 17.1448 0.720683 11.6483 1.83861L11.449 0.858676ZM0.858676 11.449C1.81276 6.01073 6.01073 1.81276 11.449 0.858676L11.6218 1.84363C6.59823 2.72496 2.72496 6.59823 1.84363 11.6218L0.858676 11.449ZM0.858676 11.449L1.83926 11.6451C0.720026 17.2413 0.720683 22.9267 1.83861 28.4232L0.858676 28.6225C-0.286225 22.9934 -0.286225 17.1735 0.858676 11.449ZM0.858676 28.6225C1.81276 34.0608 6.01073 38.2588 11.449 39.2129L11.6218 38.2279C6.59823 37.3466 2.72496 33.4733 1.84363 28.4497L0.858676 28.6225Z" fill="#EEF4FE"/>
<path fill-rule="evenodd" clip-rule="evenodd" d="M12.5333 7.55566C9.78417 7.55566 7.55554 9.78429 7.55554 12.5334V27.4668C7.55554 30.2159 9.78417 32.4446 12.5333 32.4446H27.4667C30.2158 32.4446 32.4444 30.2159 32.4444 27.4668V12.5334C32.4444 9.78429 30.2158 7.55566 27.4667 7.55566H12.5333Z" fill="#F6F7F8"/>
<path fill-rule="evenodd" clip-rule="evenodd" d="M27.0068 17.6865C26.9821 17.7243 26.9098 17.8873 26.8766 17.98C26.7264 18.4 26.7205 18.8948 26.8606 19.3157C26.9068 19.4545 26.9306 19.5105 26.9985 19.6412C27.2127 20.0531 27.5898 20.4017 28.0228 20.5881C28.1584 20.6465 28.319 20.6938 28.484 20.724C28.5676 20.7393 28.7995 20.7608 28.8064 20.7539C28.8091 20.7512 28.7993 20.7294 28.7846 20.7056C28.7098 20.5841 28.6245 20.3666 28.5807 20.1858C28.5553 20.0811 28.5488 20.0446 28.5363 19.9378C28.5141 19.7491 28.524 19.4736 28.5585 19.3157C28.5864 19.1884 28.6212 19.0635 28.6414 19.0185C28.6482 19.0034 28.6537 18.9875 28.6537 18.9831C28.6537 18.9559 28.7773 18.7034 28.8166 18.6501C28.829 18.6333 28.834 18.6243 28.8278 18.63C28.8187 18.6384 28.8069 18.6263 28.7685 18.5691C28.5473 18.2395 28.2324 17.9791 27.8675 17.824C27.6413 17.7278 27.3537 17.6667 27.1272 17.6667C27.0251 17.6667 27.0192 17.6677 27.0068 17.6865Z" fill="#EEBD1A"/>
<path fill-rule="evenodd" clip-rule="evenodd" d="M30.3113 17.6845C30.1447 17.7069 29.8984 17.7697 29.835 17.8059C29.8267 17.8106 29.8154 17.8145 29.8098 17.8145C29.8002 17.8145 29.574 17.9247 29.5369 17.9474C29.4664 17.9906 29.318 18.0951 29.2696 18.1355C29.1291 18.2528 28.9767 18.4236 28.8614 18.5933C28.7974 18.6873 28.7948 18.6918 28.8121 18.6778C28.8239 18.6682 28.8287 18.6712 28.8457 18.6986C28.8997 18.786 29.0077 19.0389 29.0237 19.1154C29.0267 19.1298 29.0326 19.1493 29.0367 19.1589C29.0526 19.1956 29.0825 19.3498 29.0983 19.4765C29.1074 19.5493 29.1048 19.8854 29.0946 19.9638C29.0752 20.1123 29.0294 20.2982 28.9843 20.4119C28.9805 20.4215 28.9725 20.443 28.9664 20.4598C28.9422 20.5272 28.8413 20.7225 28.8242 20.7352C28.8075 20.7477 28.8162 20.7484 28.9287 20.7437C29.1145 20.7361 29.2833 20.7046 29.4724 20.6423C29.5296 20.6234 29.5949 20.5997 29.6175 20.5895C29.8953 20.4649 30.0812 20.3385 30.2814 20.1383C30.4848 19.9349 30.5948 19.7734 30.7301 19.4791C30.7787 19.3734 30.8337 19.1844 30.8651 19.0153C30.8867 18.8992 30.8963 18.5887 30.8823 18.4628C30.8527 18.1973 30.7846 17.9622 30.676 17.7494L30.6403 17.6796L30.5019 17.6786C30.4258 17.678 30.34 17.6806 30.3113 17.6845Z" fill="#A71C21"/>
<path fill-rule="evenodd" clip-rule="evenodd" d="M28.8128 18.6776C28.7968 18.6969 28.6885 18.9171 28.6885 18.9302C28.6885 18.9368 28.685 18.946 28.6808 18.9506C28.6702 18.9621 28.6236 19.1015 28.6025 19.1851C28.561 19.3496 28.5317 19.566 28.5321 19.7046C28.5326 19.8414 28.5698 20.1095 28.6064 20.2407C28.6284 20.319 28.6724 20.446 28.6808 20.4551C28.685 20.4596 28.6885 20.4693 28.6885 20.4766C28.6885 20.4946 28.8116 20.7383 28.8207 20.7383C28.8247 20.7383 28.8359 20.7256 28.8455 20.71C28.869 20.6721 28.9461 20.5128 28.9634 20.4665C28.971 20.4461 28.9804 20.4216 28.9842 20.412C29.0288 20.3009 29.0751 20.1125 29.0946 19.9639C29.1048 19.8855 29.1074 19.5493 29.0983 19.4766C29.0823 19.3488 29.0524 19.1949 29.0366 19.159C29.0323 19.1494 29.0265 19.1294 29.0236 19.1144C29.0088 19.039 28.8796 18.7414 28.8377 18.6863C28.8252 18.6699 28.8204 18.6682 28.8128 18.6776ZM11.5726 18.707C11.4944 18.726 11.4175 18.7708 11.3554 18.8336C11.2801 18.9096 11.2682 18.9282 11.2357 19.0198C11.2146 19.079 11.2148 19.2284 11.2359 19.2895C11.2984 19.4699 11.4298 19.5839 11.6034 19.6082C11.6869 19.6198 11.8223 19.6078 11.8665 19.5848C11.8795 19.578 11.8934 19.5724 11.8973 19.5724C11.9124 19.5723 11.9877 19.5156 12.025 19.4762C12.0614 19.4378 12.0803 19.407 12.116 19.328C12.1337 19.2886 12.1442 19.169 12.1369 19.0878C12.1273 18.9803 12.083 18.8913 11.9996 18.8124C11.8957 18.714 11.721 18.6709 11.5726 18.707ZM21.1224 18.7055C21.0683 18.7187 20.9964 18.7478 20.9964 18.7565C20.9964 18.7601 20.9906 18.7631 20.9836 18.7631C20.9722 18.7631 20.8702 18.8586 20.8411 18.8967C20.8348 18.905 20.8171 18.9381 20.802 18.9701C20.7748 19.0276 20.7744 19.0303 20.7744 19.1607C20.7744 19.2549 20.7776 19.2961 20.7853 19.3039C20.7913 19.3099 20.7962 19.321 20.7962 19.3286C20.7962 19.3545 20.8844 19.4772 20.9274 19.5112C21.0307 19.5928 21.1613 19.6271 21.299 19.6088C21.4227 19.5923 21.51 19.5489 21.5788 19.4698C21.6148 19.4283 21.6664 19.3347 21.6664 19.3107C21.6664 19.3033 21.6709 19.2928 21.6764 19.2873C21.6829 19.2808 21.6868 19.2386 21.6873 19.1702C21.6879 19.0852 21.6846 19.0526 21.6708 19.0111C21.6393 18.9161 21.5805 18.8324 21.5091 18.7809C21.4059 18.7064 21.2466 18.6754 21.1224 18.7055ZM10.1455 18.7464C10.0453 18.7566 9.95117 18.7715 9.93635 18.7797C9.92898 18.7837 9.90564 18.7899 9.88447 18.7935C9.8633 18.7971 9.83996 18.8031 9.83259 18.807C9.82523 18.8108 9.79375 18.8229 9.76265 18.8338C9.51906 18.9198 9.31716 19.1133 9.21459 19.3591C9.20461 19.3831 9.19292 19.409 9.18863 19.4168C9.18434 19.4246 9.17809 19.4461 9.17475 19.4646C9.17141 19.4832 9.16565 19.5023 9.16196 19.5071C9.15574 19.5151 9.14988 19.5436 9.12609 19.6811C9.11475 19.7466 9.10592 22.0169 9.11464 22.6244L9.12079 23.0529H9.5113H9.90181L9.90401 21.863L9.90622 20.6731L10.189 20.6685L10.4718 20.6639L10.526 20.6349C10.577 20.6077 10.6589 20.529 10.6589 20.5072C10.6589 20.5042 10.6645 20.4893 10.6714 20.4742C10.6783 20.4592 10.6879 20.4233 10.6928 20.3946C10.6976 20.3659 10.7073 20.315 10.7142 20.2815C10.7212 20.248 10.7331 20.1873 10.7407 20.1466C10.7483 20.1059 10.7585 20.059 10.7633 20.0423C10.7824 19.9758 10.8218 19.9817 10.3435 19.9792L9.91492 19.9769L9.90944 19.9378C9.90042 19.8733 9.92468 19.7328 9.95599 19.668C9.99895 19.5793 10.0837 19.5074 10.1673 19.4887C10.1816 19.4855 10.1989 19.4785 10.2056 19.4732C10.2138 19.4667 10.309 19.4626 10.4949 19.4606L10.772 19.4575V19.1029V18.7483L10.6872 18.7427C10.5782 18.7355 10.2303 18.7379 10.1455 18.7464ZM23.2892 18.7464C23.1684 18.7595 23.0397 18.7854 22.9629 18.8122C22.9208 18.8268 22.9108 18.8309 22.8481 18.8583C22.8256 18.8681 22.8049 18.8762 22.802 18.8762C22.7992 18.8762 22.7862 18.8836 22.7733 18.8926C22.7603 18.9016 22.7215 18.9274 22.687 18.95C22.6021 19.0056 22.4903 19.1238 22.4296 19.222C22.4022 19.2662 22.3799 19.3054 22.3798 19.309C22.3798 19.3126 22.3743 19.3261 22.3676 19.339C22.3474 19.3776 22.3033 19.5122 22.2925 19.568C22.2869 19.5967 22.2783 19.6378 22.2733 19.6593C22.2623 19.7069 22.2536 22.2422 22.2627 22.7288L22.2688 23.0529H22.6593H23.0498L23.052 21.863L23.0542 20.6731L23.3327 20.6685C23.6383 20.6634 23.6328 20.6643 23.7159 20.6043C23.7841 20.555 23.8158 20.4987 23.8388 20.3859C23.8645 20.2592 23.8774 20.1928 23.8859 20.1423C23.8908 20.1135 23.8982 20.0803 23.9024 20.0683C23.9066 20.0563 23.9125 20.0319 23.9154 20.0139L23.9208 19.9813H23.4938C23.0075 19.9813 23.054 19.99 23.0546 19.8986C23.0553 19.7735 23.0964 19.6429 23.1536 19.5844C23.1945 19.5426 23.2449 19.511 23.3087 19.4872C23.366 19.4659 23.3746 19.4652 23.6438 19.4614L23.9201 19.4575V19.1029V18.7483L23.8352 18.7427C23.7256 18.7354 23.368 18.7378 23.2892 18.7464ZM19.3865 20.8993V23.0529H19.7868H20.1871V20.8993V18.7457H19.7868H19.3865V20.8993ZM13.9698 19.9383C13.8477 19.946 13.7014 19.9824 13.5838 20.0344C13.5038 20.0698 13.3811 20.1334 13.3721 20.1442C13.3623 20.1561 13.3303 20.1596 13.3302 20.1488C13.3301 20.1386 13.3132 20.0314 13.3083 20.0096L13.3038 19.99H12.9995H12.6951V21.5258V23.0616H13.0892H13.4834L13.4803 22.5026C13.4786 22.1951 13.4809 21.7614 13.4855 21.5389C13.493 21.1701 13.4953 21.13 13.5109 21.0864C13.569 20.9251 13.6894 20.8064 13.8448 20.7574C13.9269 20.7315 14.0329 20.7182 14.0698 20.7293C14.0866 20.7342 14.111 20.7383 14.1242 20.7383C14.1374 20.7383 14.1725 20.7467 14.2022 20.757C14.3837 20.8198 14.5007 20.9515 14.5438 21.1413C14.5553 21.1922 14.5572 21.3026 14.5572 21.9209C14.5572 22.317 14.5598 22.7357 14.5629 22.8514L14.5687 23.0616H14.9589H15.349L15.3484 22.0979C15.3481 21.5679 15.3444 21.1049 15.3403 21.069C15.3287 20.9676 15.3003 20.8465 15.2722 20.7791C15.2666 20.7656 15.262 20.7516 15.262 20.748C15.262 20.7444 15.2403 20.6986 15.2138 20.6463C15.168 20.5562 15.1533 20.5294 15.1379 20.5082C15.0137 20.3375 14.9215 20.2468 14.7676 20.144C14.6916 20.0932 14.5425 20.0161 14.5204 20.0161C14.5138 20.0161 14.5047 20.0124 14.5002 20.0079C14.4919 19.9996 14.4703 19.9933 14.3658 19.9687C14.2244 19.9354 14.1306 19.9282 13.9698 19.9383ZM17.1764 19.9381C17.0918 19.9482 16.8837 19.9949 16.8675 20.0074C16.8627 20.0111 16.8452 20.017 16.8286 20.0205C16.812 20.0241 16.7924 20.0303 16.7851 20.0343C16.7777 20.0383 16.7522 20.0498 16.7282 20.0598C16.4898 20.1598 16.2747 20.32 16.112 20.5188C16.0592 20.5834 15.9496 20.7534 15.9495 20.771C15.9495 20.7769 15.9455 20.7818 15.9407 20.7818C15.936 20.7818 15.932 20.7863 15.932 20.7917C15.932 20.8004 15.9104 20.8516 15.8878 20.8965C15.8796 20.9127 15.855 20.9862 15.8329 21.0603C15.8135 21.1253 15.8018 21.1828 15.7924 21.2604C15.7606 21.522 15.7606 21.4715 15.7925 21.7303C15.8062 21.8413 15.8474 21.998 15.8874 22.0914C15.9121 22.1491 15.9344 22.1981 15.9427 22.2132C15.948 22.2228 15.9624 22.2496 15.9748 22.2729C16.0657 22.4435 16.231 22.6376 16.3932 22.7641C16.4339 22.7958 16.4685 22.8248 16.4701 22.8286C16.4717 22.8323 16.4762 22.8354 16.4802 22.8354C16.4842 22.8354 16.5083 22.8492 16.5339 22.8661C16.6015 22.9109 16.8059 23.0094 16.8313 23.0094C16.8386 23.0094 16.8469 23.013 16.8496 23.0174C16.8523 23.0217 16.8701 23.0279 16.8892 23.0312C16.9083 23.0344 16.9258 23.0402 16.9282 23.044C16.9306 23.0478 16.9547 23.0537 16.9819 23.0571C17.009 23.0605 17.0375 23.0667 17.0451 23.0709C17.1142 23.1091 17.7397 23.1091 17.8119 23.0709C17.8193 23.067 17.8496 23.0609 17.8794 23.0575C17.9091 23.054 17.9356 23.0477 17.9383 23.0434C17.9409 23.0391 17.9507 23.0355 17.96 23.0355C17.9761 23.0355 18.0668 23.0078 18.1031 22.9918C18.1126 22.9876 18.1459 22.9738 18.177 22.9611C18.2549 22.9295 18.4364 22.8313 18.4772 22.7987C18.482 22.7949 18.5301 22.7587 18.584 22.7182C18.6379 22.6777 18.6938 22.6336 18.7082 22.6201L18.7344 22.5956L18.6972 22.5513C18.6634 22.5109 18.568 22.3959 18.5325 22.3526C18.4806 22.2893 18.4416 22.2465 18.4218 22.2313C18.4092 22.2217 18.397 22.2114 18.3946 22.2085C18.3889 22.2016 18.3472 22.1792 18.3032 22.1593C18.2591 22.1394 18.1102 22.1373 18.0639 22.1559C18.0241 22.1719 17.9621 22.1983 17.9277 22.2139C17.9126 22.2207 17.8959 22.2263 17.8906 22.2263C17.8853 22.2263 17.8741 22.2299 17.8658 22.2344C17.8575 22.2388 17.8292 22.249 17.8029 22.2571C17.5155 22.345 17.2587 22.354 17.0502 22.2834C16.8961 22.2312 16.7674 22.1256 16.6995 21.9957C16.6686 21.9367 16.6456 21.8799 16.6456 21.863C16.6456 21.8542 16.6414 21.8427 16.6363 21.8376C16.6312 21.8325 16.6282 21.8131 16.6297 21.7945L16.6325 21.7608L17.7746 21.7585L18.9167 21.7563L18.9161 21.6976C18.9142 21.5182 18.8916 21.2772 18.8681 21.1864C18.8401 21.0784 18.8175 21.0034 18.8107 20.9955C18.8067 20.9909 18.8035 20.9819 18.8035 20.9754C18.8035 20.9689 18.7954 20.9452 18.7855 20.9227C18.7756 20.9003 18.7615 20.8682 18.7543 20.8514C18.6773 20.6743 18.5549 20.4963 18.4128 20.355C18.2856 20.2284 18.1766 20.1511 18.0161 20.0732C17.8999 20.0169 17.8158 19.9876 17.6872 19.9585C17.6045 19.9397 17.5633 19.9359 17.4157 19.9333C17.3199 19.9317 17.2123 19.9338 17.1764 19.9381ZM25.3515 19.9376C25.265 19.9477 25.0832 19.9879 25.0382 20.0069C25.0286 20.0109 25.0012 20.0211 24.9773 20.0294C24.9212 20.0489 24.8654 20.0729 24.8163 20.0985C24.6699 20.175 24.6503 20.1873 24.5162 20.288C24.4803 20.315 24.3305 20.4644 24.2915 20.5121C24.2475 20.566 24.1985 20.6319 24.1985 20.6373C24.1985 20.6397 24.1872 20.6586 24.1734 20.6791C24.1447 20.7218 24.1036 20.8007 24.0769 20.8645C24.0669 20.8884 24.0549 20.9148 24.0503 20.9231C24.0456 20.9314 24.0419 20.9426 24.0419 20.9479C24.0419 20.9532 24.0364 20.9699 24.0297 20.985C24.0141 21.0202 24.0022 21.066 23.9753 21.1952C23.9562 21.2871 23.9535 21.322 23.953 21.4867C23.9524 21.7092 23.9638 21.7877 24.0257 21.9913C24.0352 22.0224 24.0464 22.0557 24.0506 22.0653C24.0549 22.0749 24.0666 22.1023 24.0767 22.1262C24.1106 22.2064 24.1488 22.2769 24.2272 22.4042C24.2405 22.4257 24.2469 22.4344 24.2689 22.4611C24.2788 22.4731 24.3008 22.5012 24.318 22.5236C24.3664 22.5872 24.5171 22.7299 24.5988 22.7897C24.6395 22.8194 24.6767 22.847 24.6815 22.851C24.6893 22.8574 24.7574 22.8959 24.8294 22.9345C24.8748 22.9589 24.967 23.0007 24.9753 23.0007C24.9798 23.0007 24.9957 23.0062 25.0108 23.013C25.1376 23.0696 25.3397 23.0997 25.5951 23.1001C25.8837 23.1004 26.1081 23.0635 26.2838 22.9866C26.2989 22.98 26.3167 22.9746 26.3234 22.9746C26.3301 22.9746 26.3393 22.9712 26.3439 22.967C26.3484 22.9628 26.3776 22.9482 26.4087 22.9346C26.5368 22.8785 26.7575 22.7317 26.8734 22.6256C26.901 22.6003 26.9057 22.5919 26.8973 22.5821C26.8916 22.5754 26.8789 22.5602 26.8691 22.5482C26.8593 22.5363 26.8427 22.5167 26.8322 22.5047C26.8218 22.4928 26.7976 22.4634 26.7785 22.4395C26.7593 22.4155 26.7395 22.392 26.7344 22.3873C26.7293 22.3825 26.6982 22.3461 26.6652 22.3063C26.6075 22.2367 26.5171 22.1654 26.4866 22.1654C26.4792 22.1654 26.4682 22.1605 26.4622 22.1545C26.4547 22.147 26.4208 22.1438 26.3539 22.1441C26.2513 22.1446 26.2501 22.1449 26.0985 22.2138C26.0834 22.2207 26.0667 22.2263 26.0614 22.2263C26.056 22.2263 26.0449 22.2299 26.0366 22.2342C26.0136 22.2463 25.9495 22.267 25.8866 22.2827C25.5888 22.3571 25.3281 22.3444 25.1383 22.2464C25.0439 22.1977 24.9812 22.1474 24.9179 22.0694C24.8636 22.0026 24.7878 21.8066 24.802 21.7697C24.8065 21.7579 24.9346 21.7564 25.9516 21.7564H27.0961L27.0962 21.702C27.0962 21.6721 27.0922 21.6085 27.0873 21.5606C27.0824 21.5128 27.0748 21.4325 27.0705 21.3822C27.0604 21.2659 27.0294 21.1065 27.0096 21.0687C27.0058 21.0614 26.9998 21.0425 26.9963 21.0268C26.9929 21.0111 26.9846 20.9877 26.9779 20.9749C26.9712 20.962 26.9657 20.9466 26.9656 20.9405C26.9656 20.9345 26.9619 20.9227 26.9574 20.9144C26.9529 20.9061 26.9391 20.8758 26.9266 20.8471C26.8999 20.7853 26.9023 20.79 26.8312 20.6644C26.7128 20.455 26.4828 20.2294 26.2695 20.1133C26.1224 20.0332 26.0204 19.9955 25.83 19.9506C25.76 19.9341 25.4525 19.9258 25.3515 19.9376ZM11.2941 21.5258V23.0616H11.677H12.0599V21.5258V19.99H11.677H11.2941V21.5258ZM20.8484 21.5258V23.0616H21.2269H21.6054V21.5258V19.99H21.2269H20.8484V21.5258ZM17.4785 20.5992C17.6124 20.6252 17.6909 20.6594 17.7978 20.7383C17.8354 20.7661 17.9063 20.8404 17.936 20.8832C17.972 20.935 18.0204 21.0235 18.0205 21.0376C18.0205 21.0429 18.0258 21.0574 18.0323 21.0698C18.0388 21.0822 18.0467 21.1066 18.05 21.1239C18.0552 21.152 18.0537 21.156 18.036 21.1603C18.025 21.163 17.7048 21.1641 17.3243 21.1627L16.6325 21.1603L16.6337 21.1255C16.6377 21.0051 16.7175 20.8658 16.8413 20.763C16.8748 20.7352 16.9072 20.7124 16.9131 20.7123C16.9191 20.7123 16.924 20.7093 16.924 20.7057C16.924 20.6976 17.0261 20.6486 17.085 20.6284C17.1505 20.606 17.2869 20.5827 17.348 20.5836C17.3778 20.5841 17.4365 20.5911 17.4785 20.5992ZM25.6355 20.5952C25.6755 20.6026 25.7317 20.6164 25.7604 20.6258C25.8221 20.6461 25.9214 20.695 25.9214 20.7051C25.9214 20.709 25.9259 20.7122 25.9313 20.7122C25.9636 20.7122 26.1075 20.8666 26.1476 20.9443C26.1596 20.9674 26.1718 20.9883 26.1746 20.9907C26.1775 20.9931 26.1917 21.029 26.2062 21.0705C26.2251 21.1245 26.2299 21.1486 26.2232 21.1553C26.2086 21.1699 24.8215 21.1684 24.8095 21.1538C24.7957 21.1369 24.8201 21.0264 24.8522 20.9606C24.8675 20.9293 24.8833 20.9036 24.8873 20.9036C24.8913 20.9036 24.8946 20.8983 24.8946 20.8918C24.8946 20.8701 25.0248 20.7485 25.0911 20.7083C25.1912 20.6475 25.2533 20.6237 25.3768 20.599C25.4763 20.5791 25.5432 20.5781 25.6355 20.5952Z" fill="#5E010C"/>
</g>
<defs>
<clipPath id="clip0_1_4632">
<rect width="40" height="40" fill="white"/>
</clipPath>
</defs>
</svg>
