<svg width="40" height="40" viewBox="0 0 40 40" fill="none" xmlns="http://www.w3.org/2000/svg">
<g clip-path="url(#clip0_1_4630)">
<path d="M39.2129 11.449V11.449C40.2624 17.0781 40.2624 22.8026 39.2129 28.5271V28.5271C38.2588 33.9654 33.9654 38.2588 28.5271 39.2129V39.2129C22.898 40.2624 17.1735 40.2624 11.449 39.2129V39.2129C6.01073 38.2588 1.81276 34.0608 0.858676 28.6225V28.6225C-0.286225 22.9934 -0.286225 17.1735 0.858676 11.449V11.449C1.81276 6.01073 6.01073 1.81276 11.449 0.858676V0.858676C17.0781 -0.286225 22.898 -0.286225 28.6225 0.858676V0.858676C34.0608 1.81276 38.2588 6.01073 39.2129 11.449Z" fill="white"/>
<path fill-rule="evenodd" clip-rule="evenodd" d="M38.2293 28.3468C39.2571 22.7405 39.2565 17.1393 38.2298 11.6323L39.2129 11.449C40.2624 17.0781 40.2624 22.8026 39.2129 28.5271L38.2293 28.3468ZM28.5271 39.2129C33.9654 38.2588 38.2588 33.9654 39.2129 28.5271L38.2279 28.3543C37.3466 33.3779 33.3779 37.3466 28.3543 38.2279L28.5271 39.2129ZM11.449 39.2129C17.1735 40.2624 22.898 40.2624 28.5271 39.2129L28.3438 38.2298C22.8369 39.2565 17.2356 39.2571 11.6293 38.2293L11.449 39.2129ZM28.6225 0.858676L28.4497 1.84363C33.4733 2.72496 37.3466 6.59823 38.2279 11.6218L39.2129 11.449C38.2588 6.01073 34.0608 1.81276 28.6225 0.858676ZM11.449 0.858676C17.0781 -0.286225 22.898 -0.286225 28.6225 0.858676L28.4264 1.83926C22.8303 0.720026 17.1448 0.720683 11.6483 1.83861L11.449 0.858676ZM0.858676 11.449C1.81276 6.01073 6.01073 1.81276 11.449 0.858676L11.6218 1.84363C6.59823 2.72496 2.72496 6.59823 1.84363 11.6218L0.858676 11.449ZM0.858676 11.449L1.83926 11.6451C0.720026 17.2413 0.720683 22.9267 1.83861 28.4232L0.858676 28.6225C-0.286225 22.9934 -0.286225 17.1735 0.858676 11.449ZM0.858676 28.6225C1.81276 34.0608 6.01073 38.2588 11.449 39.2129L11.6218 38.2279C6.59823 37.3466 2.72496 33.4733 1.84363 28.4497L0.858676 28.6225Z" fill="#EEF4FE"/>
<path fill-rule="evenodd" clip-rule="evenodd" d="M12.5333 7.55566C9.78418 7.55566 7.55556 9.78429 7.55556 12.5334V27.4668C7.55556 30.2159 9.78418 32.4446 12.5333 32.4446H27.4667C30.2158 32.4446 32.4444 30.2159 32.4444 27.4668V12.5334C32.4444 9.78429 30.2158 7.55566 27.4667 7.55566H12.5333Z" fill="#00B5F1"/>
<path d="M12.2256 18.0186C12.4696 17.74 12.824 17.5855 13.194 17.5932C13.5342 17.5859 13.8594 17.7031 14.1103 17.9238C14.2581 18.0555 14.3694 18.2247 14.4355 18.4084C14.5167 18.6432 14.5541 18.8853 14.5463 19.1274V20.8813C14.5463 20.8964 14.5312 20.9032 14.524 20.9032H14.191C13.9917 20.9032 13.8293 20.7413 13.8293 20.5434V19.1857C13.8293 18.8703 13.7928 18.6428 13.7185 18.4959C13.6222 18.3273 13.4594 18.2393 13.2304 18.2393C13.1191 18.2393 13.0015 18.2684 12.9052 18.32C12.809 18.3642 12.7351 18.4376 12.6835 18.5329C12.6024 18.6724 12.5649 18.915 12.5649 19.2518V20.8813C12.5649 20.8964 12.5576 20.9032 12.5426 20.9032H12.2174C12.0249 20.9032 11.863 20.7486 11.863 20.5503V19.1853C11.863 18.8698 11.8265 18.6423 11.7521 18.4955C11.6559 18.3268 11.4935 18.2388 11.2568 18.2388C11.1382 18.2388 11.0278 18.268 10.9243 18.3195C10.8281 18.3637 10.7542 18.4371 10.7026 18.5246C10.6215 18.6641 10.584 18.9062 10.584 19.2436V20.873C10.584 20.8876 10.5694 20.8949 10.5544 20.8949H10.2365C10.044 20.8949 9.88889 20.7408 9.88889 20.543V17.9452C9.88889 17.7541 10.044 17.5932 10.2433 17.5932H10.5685C10.5831 17.5932 10.5908 17.6005 10.5908 17.6151V17.9087C10.7833 17.7036 11.0565 17.5859 11.3375 17.5859C11.6773 17.5932 11.9733 17.74 12.2246 18.0191M17.1261 18.966C17.0896 18.7973 17.0075 18.6282 16.9044 18.4891C16.7567 18.3054 16.535 18.2028 16.2987 18.2106C16.0994 18.2033 15.8996 18.2767 15.7519 18.4089C15.5968 18.5557 15.4933 18.7541 15.4563 18.967H17.1266L17.1261 18.966ZM15.4699 19.5163C15.4996 19.6704 15.5589 19.8172 15.6551 19.9416C15.8175 20.1618 16.0766 20.279 16.3498 20.2644C16.5049 20.2644 16.6604 20.228 16.8077 20.1546C16.8816 20.1103 16.9482 20.0593 17.0002 19.9927C17.1256 19.8609 17.3327 19.824 17.4956 19.8974L17.7984 20.0369C17.8135 20.0442 17.8135 20.0588 17.8135 20.0734C17.4217 20.6455 16.9341 20.9173 16.3498 20.8959C15.8695 20.874 15.4777 20.7272 15.1749 20.3748C14.9012 20.0593 14.7461 19.6626 14.7534 19.2446C14.7388 18.7672 14.9308 18.3054 15.293 17.9821C15.5667 17.7255 15.9288 17.5859 16.3056 17.5859C16.7343 17.5787 17.1407 17.7619 17.4144 18.0779C17.5772 18.2612 17.6881 18.4741 17.7546 18.7093C17.8062 18.9004 17.8358 19.1055 17.8358 19.3039V19.5022L15.4709 19.5168H15.4699V19.5163ZM19.6831 18.2174C19.4317 18.2101 19.1877 18.32 19.0176 18.511C18.8474 18.6943 18.7662 18.9364 18.7662 19.2378C18.7662 19.5829 18.8698 19.8541 19.0842 20.0374C19.2543 20.1842 19.4687 20.2649 19.6971 20.2649C19.9485 20.2722 20.1925 20.1696 20.3553 19.9786C20.5255 19.7953 20.6144 19.5459 20.6144 19.23C20.6144 18.8848 20.5109 18.6209 20.3038 18.4376C20.1264 18.2835 19.9047 18.2101 19.6831 18.2174ZM21.2794 20.9037H20.9469C20.7403 20.9037 20.5775 20.7418 20.5775 20.5366C20.2596 20.7787 19.9417 20.9037 19.6165 20.9037C19.3501 20.9037 19.0919 20.8303 18.863 20.6907C18.6117 20.5439 18.4051 20.3388 18.2573 20.0821C18.1095 19.8255 18.0356 19.5318 18.0356 19.2382C18.0283 18.7687 18.2281 18.3132 18.5825 17.9982C18.863 17.7337 19.2329 17.5869 19.6174 17.5869C19.9353 17.5869 20.2606 17.7118 20.5785 17.9539V16.8082C20.5785 16.4261 20.8891 16.1111 21.2804 16.1111V20.9032H21.2799L21.2794 20.9037ZM23.1349 18.2174C22.8836 18.2101 22.6396 18.3127 22.4767 18.5037C22.3066 18.687 22.2254 18.9368 22.2254 19.245C22.2254 19.5902 22.329 19.8537 22.536 20.0374C22.6989 20.1842 22.9206 20.2649 23.1417 20.2576C23.3119 20.2576 23.4742 20.2134 23.6225 20.1327C23.918 19.9489 24.0658 19.6558 24.0658 19.2446C24.0658 18.8994 23.9623 18.6282 23.7479 18.4449C23.5778 18.2981 23.3634 18.2096 23.1349 18.2174ZM22.2259 17.5723V17.9393C22.5438 17.6973 22.8617 17.5723 23.1869 17.5723C23.4528 17.5723 23.7115 17.6457 23.9404 17.7853C24.1917 17.9321 24.3983 18.1372 24.5466 18.3943C24.6944 18.651 24.7683 18.9446 24.7683 19.246C24.7828 19.7229 24.583 20.1784 24.2214 20.4939C23.9409 20.7578 23.571 20.9051 23.1869 20.9051C22.869 20.9051 22.5438 20.7802 22.2259 20.5381V21.749C22.2259 22.1311 21.9158 22.4461 21.524 22.4461V18.2612C21.5167 17.8796 21.8346 17.5714 22.2259 17.5714M25.353 17.6807L25.6783 17.6734C25.6928 17.6734 25.7006 17.6885 25.7079 17.6953V17.9374C25.8042 17.8489 25.9223 17.776 26.0404 17.7245C26.1512 17.688 26.2621 17.6662 26.3807 17.673C26.4171 17.673 26.5873 17.6803 26.6393 17.688V18.1727C26.6393 18.2534 26.5727 18.3122 26.4988 18.3122H26.3953C26.1148 18.3122 25.9296 18.4075 25.826 18.5907C25.7521 18.7375 25.7152 18.9723 25.7152 19.3097V20.8798C25.7152 20.8949 25.7006 20.9017 25.6855 20.9017H25.3603C25.1678 20.9017 25.0128 20.7471 25.0128 20.5566V18.0322C25.0128 17.8412 25.1678 17.6871 25.353 17.6803M28.487 18.2174C28.2284 18.2101 27.9844 18.32 27.8142 18.511C27.6514 18.687 27.5702 18.9296 27.5702 19.23C27.5702 19.5751 27.6737 19.8386 27.8881 20.0296C28.0583 20.1764 28.2726 20.2649 28.5016 20.2571C28.7602 20.2644 29.011 20.1546 29.189 19.9635C29.3518 19.7803 29.433 19.5382 29.433 19.2295C29.433 18.8916 29.3294 18.635 29.1224 18.4439C28.9522 18.2898 28.7233 18.2087 28.4865 18.2164M28.5162 17.5709C28.9741 17.5636 29.4179 17.7619 29.7135 18.1066C29.994 18.4075 30.149 18.8114 30.1422 19.2222C30.1573 19.6991 29.9575 20.1546 29.5953 20.4696C29.2925 20.7413 28.9007 20.8881 28.5016 20.8808C28.0359 20.8959 27.5853 20.6975 27.2819 20.3451C27.0015 20.0364 26.8454 19.6407 26.8532 19.2227C26.8386 18.3273 27.5551 17.5864 28.4574 17.5714H28.5162V17.5709Z" fill="white"/>
<path d="M21.3319 21.7175C21.3319 21.754 21.3023 21.7831 21.2653 21.7831H9.97199C9.92775 21.7831 9.89081 21.7613 9.89081 21.7316V21.7097C9.89081 21.6806 9.92727 21.6582 9.97199 21.6582H21.258C21.3023 21.6582 21.3319 21.6801 21.3319 21.717V21.7175ZM22.5219 21.6587H30.0907C30.1203 21.6587 30.1422 21.6806 30.1422 21.7102V21.7321C30.1422 21.7613 30.1198 21.7836 30.0907 21.7836H22.5297C22.4932 21.7836 22.4631 21.7544 22.4631 21.718C22.4631 21.6815 22.4855 21.6519 22.5219 21.6592C22.5219 21.6559 22.5219 21.6559 22.5219 21.6592V21.6587Z" fill="white"/>
<path d="M10.1213 24.288V23.5219H9.96284V23.3785H10.1213V22.6838H10.6755C10.9273 22.6838 11.1193 22.7475 11.252 22.8749C11.3847 23.0022 11.4508 23.1928 11.4508 23.4475C11.4508 24.0075 11.1922 24.2875 10.6745 24.2875H10.1213V24.2885V24.288ZM10.3367 22.8637V23.3785H10.8208V23.5219H10.3367V24.1086H10.694C10.7333 24.1086 10.7712 24.1062 10.8077 24.1004C10.8451 24.095 10.8913 24.0804 10.9472 24.0552C11.0031 24.0299 11.0508 23.9973 11.0897 23.9555C11.1285 23.9132 11.1635 23.851 11.1922 23.7693C11.2214 23.6872 11.236 23.5895 11.236 23.4772C11.236 23.2769 11.1937 23.1243 11.1096 23.0202C11.0255 22.9157 10.8874 22.8642 10.6978 22.8642H10.3357H10.3367V22.8637Z" fill="white"/>
<path d="M12.4537 23.6168L12.7702 23.576C12.8154 23.5701 12.8455 23.5517 12.8611 23.5196C12.8698 23.5016 12.8747 23.4758 12.8747 23.4433C12.8747 23.3159 12.7823 23.2522 12.5961 23.2522C12.4902 23.2522 12.4168 23.2794 12.374 23.3349C12.3502 23.3631 12.3336 23.4088 12.3263 23.4715H12.1407C12.1421 23.3266 12.1893 23.225 12.2807 23.1681C12.3745 23.1113 12.4804 23.0831 12.5995 23.0831C12.7381 23.0831 12.8504 23.1098 12.9369 23.1638C13.0239 23.2148 13.0682 23.296 13.0682 23.4088V24.0849C13.0682 24.1073 13.0725 24.1243 13.0818 24.1355C13.0905 24.1467 13.108 24.1525 13.1338 24.1525C13.1411 24.1525 13.1629 24.151 13.1994 24.1481V24.2915C13.1522 24.3047 13.1061 24.3115 13.0618 24.3115C12.9943 24.3115 12.9442 24.2876 12.9121 24.2395C12.897 24.2142 12.8859 24.1783 12.8781 24.1316C12.8343 24.187 12.7745 24.2337 12.6977 24.2706C12.6209 24.3076 12.5397 24.327 12.4518 24.327C12.3429 24.327 12.2534 24.294 12.1829 24.2279C12.1139 24.1608 12.0784 24.0776 12.0784 23.9785C12.0784 23.872 12.111 23.7884 12.1781 23.7272C12.2442 23.6659 12.3351 23.628 12.4513 23.6149L12.4537 23.6163V23.6168ZM12.5013 24.1603C12.5704 24.1603 12.6375 24.1442 12.7026 24.1107C12.8144 24.0582 12.8703 23.9717 12.8703 23.8501V23.6902C12.8217 23.7204 12.7527 23.7403 12.6627 23.751L12.5427 23.7665C12.4717 23.7753 12.4177 23.7904 12.3793 23.8117C12.3191 23.8448 12.2894 23.8992 12.2894 23.976C12.2894 24.0315 12.3093 24.0757 12.3507 24.1097C12.3915 24.1438 12.4416 24.1603 12.5018 24.1603H12.5013ZM12.3069 22.6572H12.4177C12.4279 22.7039 12.4454 22.7394 12.4697 22.7651C12.5135 22.8089 12.5777 22.8303 12.6618 22.8303C12.7459 22.8303 12.8032 22.8089 12.8426 22.7651C12.8664 22.7399 12.8844 22.7039 12.8946 22.6572H13.0035C12.9768 22.859 12.8552 22.9606 12.6413 22.9606C12.5101 22.9606 12.4163 22.9168 12.3604 22.8303C12.3312 22.7851 12.3132 22.7277 12.3059 22.6572H12.3069ZM12.5626 24.6566V24.4272H12.7702V24.6566H12.5626Z" fill="white"/>
<path d="M14.1123 23.1269H14.3456V23.2955H14.1123V24.0164C14.1123 24.0617 14.121 24.0898 14.139 24.1015C14.157 24.1132 14.1964 24.119 14.2567 24.119H14.3447V24.2877H14.1979C14.0933 24.2877 14.0214 24.2707 13.9806 24.2376C13.9397 24.2036 13.9193 24.1365 13.9193 24.0344V23.2955H13.7205V23.1269H13.9193V22.7783H14.1113V23.1269H14.1123Z" fill="white"/>
<path d="M15.3213 22.6838H15.5133V23.6342L16.0475 23.1267H16.3052L15.8409 23.5491L16.3387 24.288H16.0942L15.6936 23.6813L15.5128 23.8476V24.2875H15.3208V22.6833H15.3218L15.3213 22.6838Z" fill="white"/>
<path d="M16.9366 22.6838H17.1286V23.2968H17.133C17.1597 23.2312 17.2088 23.1816 17.2788 23.149C17.3488 23.1165 17.4232 23.0995 17.5014 23.0995C17.6458 23.0995 17.7493 23.1364 17.8111 23.2103C17.8728 23.2842 17.9034 23.3892 17.9034 23.5238V24.288H17.7114V23.502C17.7114 23.43 17.6905 23.3731 17.6482 23.3313C17.6059 23.289 17.5476 23.2686 17.4737 23.2686C17.3605 23.2686 17.2749 23.3017 17.2161 23.3683C17.1573 23.4349 17.1281 23.5229 17.1281 23.6322V24.2885H16.9361V22.6843L16.9366 22.6838Z" fill="white"/>
<path d="M19.6831 24.2837C19.6496 24.3032 19.6044 24.3124 19.5456 24.3124C19.4367 24.3124 19.3822 24.2531 19.3822 24.135C19.2826 24.2531 19.1455 24.3124 18.9705 24.3124C18.8558 24.3124 18.7624 24.2866 18.691 24.2341C18.6195 24.1816 18.5835 24.1004 18.5835 23.9891C18.5835 23.9264 18.5937 23.8729 18.6156 23.8287C18.6365 23.7845 18.6676 23.7495 18.7094 23.7242C18.7513 23.6989 18.7916 23.68 18.8315 23.6663C18.8718 23.6537 18.9209 23.642 18.9797 23.6313C19.0079 23.6255 19.0424 23.6197 19.0818 23.6138C19.1212 23.608 19.1528 23.6036 19.1771 23.6007C19.2009 23.5978 19.2272 23.5925 19.2553 23.5861C19.2831 23.5793 19.3044 23.5716 19.3195 23.5618C19.3346 23.5521 19.3472 23.539 19.3584 23.5225C19.3686 23.5064 19.374 23.4855 19.374 23.4617C19.374 23.3329 19.2874 23.2687 19.1139 23.2687C18.9267 23.2687 18.8295 23.3421 18.8217 23.4889H18.6297C18.6356 23.3543 18.6842 23.2561 18.7741 23.1929C18.865 23.1307 18.9812 23.0995 19.1251 23.0995C19.4177 23.0995 19.5635 23.206 19.5635 23.4184V24.0159C19.5635 24.0684 19.5665 24.1034 19.5723 24.1204C19.5781 24.1374 19.5951 24.1461 19.6243 24.1461C19.6379 24.1461 19.6569 24.1422 19.6831 24.135V24.2827H19.6822L19.6831 24.2837ZM19.371 23.6882C19.3404 23.7106 19.2908 23.7281 19.2199 23.7402C19.1489 23.7519 19.0828 23.7611 19.0215 23.766C18.9603 23.7713 18.9063 23.7913 18.8582 23.8253C18.8106 23.8603 18.7867 23.9094 18.7867 23.9755C18.7867 24.0338 18.8081 24.0766 18.8514 24.1048C18.8947 24.133 18.9481 24.1461 19.0133 24.1461C19.1294 24.1461 19.2179 24.1189 19.2792 24.0635C19.3404 24.0081 19.3706 23.9483 19.3706 23.8836V23.6882H19.371ZM19.1678 22.6465H19.4143L19.1178 22.9673H18.9734L19.1678 22.6465Z" fill="white"/>
<path d="M20.3146 23.1268H20.4954V23.2975H20.4998C20.5868 23.1657 20.7127 23.1001 20.8775 23.1001C21.0423 23.1001 21.1555 23.1657 21.1983 23.2975C21.2809 23.1657 21.403 23.1001 21.5648 23.1001C21.8239 23.1001 21.9537 23.2124 21.9537 23.4375V24.2886H21.7617V23.5269C21.7617 23.4448 21.7462 23.3811 21.7141 23.3359C21.682 23.2907 21.6227 23.2688 21.5352 23.2688C21.4399 23.2688 21.3655 23.2955 21.3111 23.3495C21.2566 23.4034 21.2299 23.4754 21.2299 23.5653V24.2886H21.0379V23.5269C21.0379 23.4448 21.0214 23.3811 20.9893 23.3359C20.9567 23.2907 20.8998 23.2688 20.8187 23.2688C20.719 23.2688 20.6422 23.3028 20.5878 23.3709C20.5333 23.4389 20.5066 23.5041 20.5066 23.5653V24.2886H20.3146V23.1268Z" fill="white"/>
<path d="M23.2818 23.5505V24.2787H23.0947V23.0683H23.2755V23.2574H23.2916C23.3202 23.1961 23.3635 23.1466 23.4218 23.1091C23.4802 23.0712 23.555 23.0522 23.6474 23.0522C23.73 23.0522 23.802 23.0693 23.8642 23.1028C23.9259 23.1359 23.9741 23.1864 24.0086 23.254C24.0431 23.3211 24.0601 23.4061 24.0601 23.5092V24.2782H23.8729V23.5218C23.8729 23.4266 23.8482 23.3527 23.7986 23.2997C23.749 23.2462 23.6804 23.2195 23.5939 23.2195C23.5341 23.2195 23.4807 23.2326 23.4335 23.2579C23.3868 23.2836 23.3504 23.3211 23.3232 23.3706C23.2959 23.4202 23.2828 23.48 23.2828 23.5505H23.2818Z" fill="white"/>
<path d="M24.7902 23.5507V24.2789H24.6031V22.665H24.7902V23.2576H24.8063C24.8349 23.1949 24.8777 23.1453 24.9346 23.1089C24.9924 23.0714 25.0688 23.053 25.1645 23.053C25.2476 23.053 25.3206 23.0695 25.3828 23.1025C25.445 23.1351 25.4936 23.1852 25.5281 23.2532C25.5631 23.3203 25.5806 23.4059 25.5806 23.5099V24.2789H25.3935V23.5225C25.3935 23.4263 25.3682 23.3519 25.3181 23.2994C25.2685 23.2464 25.1995 23.2197 25.111 23.2197C25.0498 23.2197 24.9949 23.2328 24.9458 23.2581C24.8976 23.2839 24.8597 23.3213 24.8315 23.3709C24.8038 23.4205 24.7902 23.4802 24.7902 23.5507Z" fill="white"/>
<path d="M26.4828 24.3069C26.4055 24.3069 26.3355 24.2923 26.2723 24.2636C26.2091 24.234 26.1596 24.1917 26.1221 24.1368C26.0852 24.0809 26.0667 24.0138 26.0667 23.935C26.0667 23.8655 26.0803 23.8096 26.108 23.7663C26.1357 23.7226 26.1722 23.6886 26.2184 23.6638C26.2646 23.639 26.3151 23.6205 26.3705 23.6088C26.4264 23.5962 26.4828 23.5865 26.5397 23.5787C26.6136 23.5695 26.6739 23.5622 26.72 23.5573C26.7667 23.552 26.8003 23.5432 26.8216 23.5316C26.8435 23.5194 26.8542 23.4985 26.8542 23.4684V23.462C26.8542 23.3843 26.8328 23.324 26.79 23.2807C26.7478 23.2375 26.6836 23.2161 26.5971 23.2161C26.5105 23.2161 26.4376 23.2355 26.3866 23.2744C26.336 23.3133 26.3 23.3546 26.2796 23.3988L26.1017 23.3356C26.1333 23.2622 26.1756 23.2049 26.2286 23.1641C26.2821 23.1227 26.3404 23.0936 26.4031 23.0775C26.4668 23.0605 26.529 23.0522 26.5903 23.0522C26.6296 23.0522 26.6744 23.0571 26.7254 23.0663C26.7769 23.0751 26.826 23.0941 26.8737 23.1222C26.9218 23.1504 26.9616 23.1932 26.9932 23.2506C27.0248 23.3079 27.0409 23.3847 27.0409 23.4805V24.2777H26.8537V24.1139H26.844C26.8314 24.1402 26.81 24.1684 26.7803 24.198C26.7507 24.2281 26.7113 24.2534 26.6622 24.2743C26.6131 24.2952 26.5528 24.3059 26.4819 24.3059L26.4828 24.3069ZM26.5115 24.1397C26.5854 24.1397 26.6481 24.1251 26.6987 24.0964C26.7502 24.0677 26.7886 24.0303 26.8144 23.9846C26.8406 23.9389 26.8542 23.8908 26.8542 23.8402V23.6701C26.8464 23.6793 26.8289 23.6881 26.8017 23.6959C26.7755 23.7031 26.7444 23.71 26.7098 23.7158C26.6753 23.7211 26.6418 23.7255 26.6092 23.7299C26.5771 23.7338 26.5509 23.7367 26.5305 23.7391C26.4819 23.7454 26.4362 23.7556 26.3939 23.7697C26.3521 23.7834 26.318 23.8043 26.2923 23.832C26.267 23.8592 26.2544 23.8966 26.2544 23.9438C26.2544 24.0084 26.2787 24.057 26.3268 24.0906C26.3754 24.1231 26.4371 24.1397 26.5115 24.1397Z" fill="white"/>
<path d="M27.7715 23.5505V24.2787H27.5844V23.0683H27.7652V23.2574H27.7812C27.8099 23.1961 27.8532 23.1466 27.9115 23.1091C27.9699 23.0712 28.0447 23.0522 28.1371 23.0522C28.2197 23.0522 28.2917 23.0693 28.3539 23.1028C28.4156 23.1359 28.4637 23.1864 28.4983 23.254C28.5328 23.3211 28.5498 23.4061 28.5498 23.5092V24.2782H28.3626V23.5218C28.3626 23.4266 28.3378 23.3527 28.2883 23.2997C28.2387 23.2462 28.1701 23.2195 28.0836 23.2195C28.0238 23.2195 27.9703 23.2326 27.9232 23.2579C27.8765 23.2836 27.8401 23.3211 27.8128 23.3706C27.7861 23.4202 27.7725 23.48 27.7725 23.5505H27.7715Z" fill="white"/>
<path d="M29.2799 23.5507V24.2789H29.0927V22.665H29.2799V23.2576H29.2959C29.3246 23.1949 29.3674 23.1453 29.4243 23.1089C29.4821 23.0714 29.5584 23.053 29.6542 23.053C29.7373 23.053 29.8102 23.0695 29.8725 23.1025C29.9347 23.1351 29.9833 23.1852 30.0178 23.2532C30.0528 23.3203 30.0703 23.4059 30.0703 23.5099V24.2789H29.8832V23.5225C29.8832 23.4263 29.8579 23.3519 29.8078 23.2994C29.7582 23.2464 29.6892 23.2197 29.6007 23.2197C29.5395 23.2197 29.4845 23.2328 29.4359 23.2581C29.3878 23.2839 29.3499 23.3213 29.3217 23.3709C29.294 23.4205 29.2804 23.4802 29.2804 23.5507H29.2799Z" fill="white"/>
</g>
<defs>
<clipPath id="clip0_1_4630">
<rect width="40" height="40" fill="white"/>
</clipPath>
</defs>
</svg>
