<svg width="40" height="40" viewBox="0 0 40 40" fill="none" xmlns="http://www.w3.org/2000/svg">
<g clip-path="url(#clip0_1_4637)">
<path d="M39.2129 11.449V11.449C40.2624 17.0781 40.2624 22.8026 39.2129 28.5271V28.5271C38.2588 33.9654 33.9654 38.2588 28.5271 39.2129V39.2129C22.898 40.2624 17.1735 40.2624 11.449 39.2129V39.2129C6.01073 38.2588 1.81276 34.0608 0.858676 28.6225V28.6225C-0.286225 22.9934 -0.286225 17.1735 0.858676 11.449V11.449C1.81276 6.01073 6.01073 1.81276 11.449 0.858676V0.858676C17.0781 -0.286225 22.898 -0.286225 28.6225 0.858676V0.858676C34.0608 1.81276 38.2588 6.01073 39.2129 11.449Z" fill="white"/>
<path fill-rule="evenodd" clip-rule="evenodd" d="M38.2293 28.3468C39.2571 22.7405 39.2565 17.1393 38.2298 11.6323L39.2129 11.449C40.2624 17.0781 40.2624 22.8026 39.2129 28.5271L38.2293 28.3468ZM28.5271 39.2129C33.9654 38.2588 38.2588 33.9654 39.2129 28.5271L38.2279 28.3543C37.3466 33.3779 33.3779 37.3466 28.3543 38.2279L28.5271 39.2129ZM11.449 39.2129C17.1735 40.2624 22.898 40.2624 28.5271 39.2129L28.3438 38.2298C22.8369 39.2565 17.2356 39.2571 11.6293 38.2293L11.449 39.2129ZM28.6225 0.858676L28.4497 1.84363C33.4733 2.72496 37.3466 6.59823 38.2279 11.6218L39.2129 11.449C38.2588 6.01073 34.0608 1.81276 28.6225 0.858676ZM11.449 0.858676C17.0781 -0.286225 22.898 -0.286225 28.6225 0.858676L28.4264 1.83926C22.8303 0.720026 17.1448 0.720683 11.6483 1.83861L11.449 0.858676ZM0.858676 11.449C1.81276 6.01073 6.01073 1.81276 11.449 0.858676L11.6218 1.84363C6.59823 2.72496 2.72496 6.59823 1.84363 11.6218L0.858676 11.449ZM0.858676 11.449L1.83926 11.6451C0.720026 17.2413 0.720683 22.9267 1.83861 28.4232L0.858676 28.6225C-0.286225 22.9934 -0.286225 17.1735 0.858676 11.449ZM0.858676 28.6225C1.81276 34.0608 6.01073 38.2588 11.449 39.2129L11.6218 38.2279C6.59823 37.3466 2.72496 33.4733 1.84363 28.4497L0.858676 28.6225Z" fill="#EEF4FE"/>
<path fill-rule="evenodd" clip-rule="evenodd" d="M12.5333 7.55566C9.78417 7.55566 7.55554 9.78429 7.55554 12.5334V27.4668C7.55554 30.2159 9.78417 32.4446 12.5333 32.4446H27.4667C30.2158 32.4446 32.4444 30.2159 32.4444 27.4668V12.5334C32.4444 9.78429 30.2158 7.55566 27.4667 7.55566H12.5333Z" fill="#502C84"/>
<path d="M18.6837 24.5009C18.7201 24.525 18.7164 24.5692 18.7057 24.6073C18.4782 25.0933 18.4607 26.3743 17.7685 26.4203C17.6866 26.4259 17.4311 26.3809 17.375 26.3299H17.3735C17.3156 26.2773 17.4157 25.9825 17.4487 25.9008C17.568 25.9316 17.6747 25.9753 17.7973 25.9205L17.8064 25.7147L17.4213 24.684L17.2542 25.0364L17.2125 25.0493C16.7394 24.7875 16.8218 25.4995 16.7932 25.7793L16.4028 25.8066L16.3982 24.5708C16.4324 24.5254 16.8478 24.4928 16.8198 24.6559C16.9717 24.4698 17.2219 24.5258 17.394 24.6559V24.5435L17.8421 24.5283C17.9082 24.5608 18.0148 25.0393 18.0396 25.1458C18.0497 25.1883 18.0191 25.195 18.0943 25.1883L18.2128 24.5503C18.2313 24.5245 18.6636 24.4876 18.6837 24.5009Z" fill="white"/>
<path d="M15.7534 24.6559C15.8555 24.498 16.1537 24.5133 16.2797 24.627C16.3982 24.734 16.2195 24.9132 16.1901 25.0364L16.1476 25.0493C15.6728 24.7892 15.7547 25.4973 15.7283 25.7793L15.3197 25.8051V24.586L15.3652 24.5465C15.5048 24.5936 15.7236 24.4481 15.7534 24.6559Z" fill="white"/>
<path fill-rule="evenodd" clip-rule="evenodd" d="M24.8376 24.7151C25.2495 24.2935 26.0184 24.5938 25.888 25.2043L25.1292 25.2445C25.2597 25.5786 25.4848 25.2792 25.5903 25.2742C25.6037 25.2742 25.8355 25.3337 25.8561 25.3433C25.9625 25.3936 25.8095 25.5875 25.7521 25.6372C25.1422 26.1636 24.2625 25.3043 24.8376 24.7151ZM25.2363 24.8602C25.1894 24.8658 25.1466 24.8873 25.1292 24.9225C25.1234 24.9539 25.1302 24.9636 25.1437 24.9658C25.1571 24.9682 25.1773 24.9631 25.1984 24.9643C25.2331 24.9668 25.2687 24.9661 25.3039 24.965C25.3395 24.964 25.3753 24.9626 25.4103 24.9643C25.4078 24.9008 25.3485 24.8664 25.285 24.8602H25.2363Z" fill="white"/>
<path fill-rule="evenodd" clip-rule="evenodd" d="M21.7865 24.523C22.4792 24.4155 22.8369 25.3952 22.1678 25.717C21.2839 26.1417 20.7021 24.6918 21.7865 24.523ZM21.8434 24.9696C21.8265 24.9716 21.8107 24.9754 21.7963 24.9802C21.7682 24.9897 21.7448 25.004 21.7265 25.022C21.6868 25.0608 21.6704 25.1153 21.6741 25.1693C21.6755 25.1912 21.6795 25.2133 21.6877 25.2339C21.7162 25.3051 21.7846 25.3621 21.8875 25.3585C21.9044 25.3579 21.9226 25.3557 21.9414 25.3516C21.9532 25.3491 21.9646 25.3452 21.9748 25.3402C22.0056 25.3253 22.0296 25.2998 22.0462 25.2696C22.0684 25.2292 22.0773 25.1794 22.0713 25.1321C22.0593 25.0377 21.9875 24.9527 21.8434 24.9696Z" fill="white"/>
<path d="M19.5861 24.3946C19.9568 23.7705 21.0089 23.922 21.093 24.6551L21.0922 24.6559C20.9489 24.6593 20.8022 24.7305 20.6578 24.7144C20.5916 24.7071 20.5465 24.5527 20.2932 24.5701C19.8151 24.6031 19.9119 25.3121 20.4846 25.1822C20.5754 25.1615 20.6195 25.054 20.6851 25.0501C20.7382 25.0475 21.075 25.1603 21.0915 25.2058C21.1459 25.3678 20.8164 25.6536 20.679 25.7124C19.8529 26.0687 19.1208 25.1776 19.5861 24.3946Z" fill="white"/>
<path fill-rule="evenodd" clip-rule="evenodd" d="M26.0331 24.9286C26.2323 24.4083 27.0612 24.3619 27.2241 24.9286C27.2392 24.9806 27.277 25.1726 27.2332 25.2035L26.4744 25.2438C26.419 25.3008 26.5938 25.4007 26.6347 25.4078C26.7477 25.4269 26.8396 25.279 26.9096 25.2711L27.2043 25.3402C27.3056 25.4075 27.1224 25.5998 27.06 25.6471C26.5286 26.0507 25.7988 25.5407 26.0331 24.9286ZM26.624 24.8594C26.5739 24.8507 26.5203 24.8697 26.4744 24.9225C26.4626 24.9858 26.5029 24.9615 26.5443 24.9643C26.6136 24.9692 26.6853 24.9615 26.7547 24.9643C26.7214 24.905 26.6742 24.8682 26.624 24.8594Z" fill="white"/>
<path d="M23.8403 24.5442C23.7783 24.0023 24.3652 23.7695 24.7502 24.0969C24.7726 24.1739 24.768 24.4501 24.6515 24.4204C24.5495 24.3941 24.4584 24.3257 24.3446 24.4204C24.1082 24.6176 24.5834 24.557 24.6257 24.5852C24.6985 24.6368 24.6123 24.8531 24.6234 24.9362C24.5628 24.9614 24.3026 24.9225 24.2869 24.9848L24.3317 25.7527C24.3042 25.7919 23.9204 25.8056 23.8676 25.7367V24.9377L23.6413 24.9255L23.601 24.7417L23.5319 24.9529L23.2494 24.9498C23.1814 24.9991 23.2847 25.6301 23.2668 25.7519C23.2371 25.7923 22.8559 25.8056 22.802 25.7367V24.9377L22.8027 24.9362H22.5506C22.5739 24.8463 22.4596 24.5839 22.5688 24.548L22.7746 24.5442C22.7376 24.1345 23.0213 23.8929 23.4271 23.9624C23.7087 24.0107 23.6995 24.152 23.658 24.4052C23.6333 24.4465 23.4881 24.376 23.4317 24.3748C23.3095 24.3721 23.2011 24.4373 23.2235 24.5723L23.8403 24.5442Z" fill="white"/>
<path d="M12.9932 24.0118C13.097 24.1767 12.8683 24.5739 13.0972 24.6217C13.1689 24.6368 13.3647 24.6621 13.4132 24.6141V24.0536L13.4557 24.0118H13.9039L13.9457 24.0536V25.7352L13.9039 25.777H13.4132V25.2028C13.3195 25.1339 13.0834 25.135 12.9932 25.2028V25.777H12.5025L12.4607 25.7352V24.0817C12.4607 24.0722 12.4974 24.0392 12.4888 24.0118H12.9932Z" fill="white"/>
<path d="M14.8138 24.5571C14.9411 24.5454 15.1347 24.5072 15.2361 24.5868V25.7079C15.1307 25.769 14.8212 25.804 14.7736 25.6661C14.6687 25.8017 14.365 25.7943 14.2282 25.7063C14.1807 25.6756 14.0873 25.5312 14.0869 25.4838V24.5442H14.507V25.2309C14.5072 25.2652 14.5881 25.351 14.6346 25.3577C14.9477 25.4034 14.76 24.588 14.8138 24.5571Z" fill="white"/>
<path fill-rule="evenodd" clip-rule="evenodd" d="M19.1258 18.4139C19.8145 18.2677 20.6053 18.3135 21.1864 18.7466C21.9182 19.292 22.006 20.3601 21.3611 21.0131C21.3024 21.0729 21.0396 21.2347 21.0414 21.2729C21.1709 21.562 21.4395 21.7822 21.7667 21.7688L21.766 21.7696V22.9461C20.978 23.0127 20.256 22.4879 19.9392 21.7886C19.8933 21.6872 19.8996 21.5483 19.804 21.4893V22.5261H18.6131L18.6533 18.5628C18.8073 18.5113 18.9662 18.4481 19.1258 18.4139ZM20.0752 19.437C20.0233 19.4353 19.9668 19.4385 19.9066 19.4469L19.8603 19.513L19.8443 20.3135C19.873 20.3215 19.9015 20.3282 19.9286 20.3333C19.9828 20.3435 20.0343 20.3479 20.082 20.3477C20.1536 20.3474 20.2182 20.3362 20.275 20.3166C20.3128 20.3035 20.348 20.2871 20.379 20.2672C20.6122 20.1175 20.6526 19.7948 20.4732 19.5988C20.4373 19.5596 20.3925 19.5253 20.3388 19.4985C20.2672 19.463 20.1793 19.4405 20.0752 19.437Z" fill="white"/>
<path fill-rule="evenodd" clip-rule="evenodd" d="M22.5437 18.4132C24.1699 18.0454 25.9682 19.072 24.9728 20.8422L24.511 21.2782C24.6354 21.569 24.917 21.7799 25.2409 21.7688V22.9461C24.4434 23.0127 23.7136 22.4817 23.4058 21.7688C23.3655 21.6752 23.3731 21.5407 23.279 21.4886V22.5261H22.088L22.1283 18.5635C22.1348 18.542 22.4932 18.4244 22.5437 18.4132ZM23.3815 19.4469L23.3352 19.513L23.3192 20.3135C23.6694 20.4037 23.8995 20.2852 23.9998 20.1092C24.05 20.0212 24.0679 19.9186 24.0522 19.8206C24.0156 19.5918 23.7967 19.3874 23.3815 19.4469Z" fill="white"/>
<path d="M18.032 18.3866C18.0943 18.3725 18.2054 18.3304 18.2485 18.3775C18.2755 18.407 18.3487 18.6737 18.3655 18.7375C18.6238 19.7077 18.6826 21.4027 17.9432 22.1798C17.562 22.5796 16.9937 22.6877 16.462 22.6021C15.1376 22.388 14.8987 20.9141 14.9536 19.7925C14.9614 19.6367 15.1034 18.5542 15.1769 18.502C15.2138 18.4763 15.282 18.4889 15.3258 18.4967L16.4666 18.7717C16.5036 18.8103 16.3154 19.6741 16.3003 19.8221C16.2638 20.1798 16.2117 20.811 16.4134 21.1103C16.6152 21.4095 16.9933 21.3627 17.1418 21.0275C17.3093 20.6503 17.2026 19.932 17.1342 19.5206C17.1118 19.3861 16.935 18.7563 16.9846 18.6851C17.3338 18.592 17.6794 18.465 18.032 18.3866Z" fill="white"/>
<path d="M13.1777 17.6483C13.8545 17.6342 14.5228 18.0315 14.5897 18.7565C14.689 19.8339 13.9228 20.3536 13.5909 21.288C13.438 21.719 13.42 22.0719 13.3578 22.5124C13.3522 22.5539 13.3582 22.5841 13.3152 22.6104C13.2866 22.6166 13.1473 22.4456 13.1215 22.4114C12.7528 21.9311 12.6557 21.2267 12.6848 20.6348C12.7263 19.8041 13.2237 18.6898 12.1015 18.3866C11.9541 18.3469 11.7763 18.3601 11.648 18.2795C11.6259 18.1745 12.1975 17.8819 12.3012 17.8412C12.498 17.7639 12.834 17.6779 13.0425 17.6566L13.1777 17.6483Z" fill="white"/>
<path d="M27.7246 18.5765C28.4175 17.346 29.5973 17.9734 30.1506 18.9471C30.4084 19.4005 30.4855 19.9117 30.6648 20.3948C30.856 20.9076 31.1574 21.4366 31.4791 21.8782C31.5189 21.9331 31.7581 22.1715 31.7145 22.217C31.0486 22.097 30.463 21.5787 30.0336 21.0814C29.6901 20.6835 29.2113 19.8333 28.8358 19.554C28.6688 19.4301 28.6105 19.523 28.5191 19.652C28.2227 20.0706 27.9735 20.5813 27.6973 21.0184C27.7264 21.4595 27.6995 21.9042 27.6844 22.3431C27.6832 22.3783 27.7462 22.581 27.6654 22.5816H26.4038L26.3711 22.5405C26.3745 22.4693 26.3927 22.3538 26.3893 22.2876C26.3641 21.8218 26.3695 21.3655 26.3779 20.8992L25.0875 18.8529L25.073 18.7694L26.4152 18.2947L27.0904 19.8343C27.3236 19.4363 27.5004 18.9739 27.7246 18.5765Z" fill="white"/>
<path fill-rule="evenodd" clip-rule="evenodd" d="M8.97137 13.5293C10.2684 13.4289 11.7327 13.7498 11.9245 15.2565C12.1341 16.9022 11.1856 19.3887 10.5763 20.9364C10.4172 21.3404 10.2448 21.7991 10.0644 22.1896C10.0274 22.2692 9.96829 22.4613 9.87371 22.4638C9.86317 22.4638 9.8062 22.4433 9.80231 22.438L9.80155 22.4372C9.77879 22.3991 9.80503 21.7119 9.79776 21.5865C9.76461 21.0518 9.59955 20.3688 9.41798 19.8639C9.18483 19.2157 8.89849 18.843 8.99264 18.0903C9.10274 17.2164 9.86924 17.1552 10.4403 16.708C10.7424 16.4715 11.0356 16.1159 11.0313 15.7152C10.7982 15.922 10.4864 15.9348 10.2269 16.0456C9.88518 16.1918 10.061 16.3165 9.94435 16.5477C9.8429 16.7484 9.07636 16.8748 9.03973 16.4596C9.01346 16.1574 9.17063 15.539 9.30177 15.261C9.45873 14.9276 9.70047 14.6406 10.0788 14.566C9.99913 14.3545 9.71565 14.5843 9.53799 14.5319C9.39837 14.4902 9.01247 13.727 8.90149 13.5718L8.97137 13.5293ZM10.0218 15.2663C9.88124 15.2585 9.73179 15.291 9.74231 15.4623C9.74763 15.4674 9.77145 15.4653 9.80307 15.457C9.84083 15.4471 9.88942 15.4278 9.9322 15.4038C9.99734 15.3675 10.0482 15.3188 10.0218 15.2663Z" fill="white"/>
</g>
<defs>
<clipPath id="clip0_1_4637">
<rect width="40" height="40" fill="white"/>
</clipPath>
</defs>
</svg>
