<svg width="40" height="40" viewBox="0 0 40 40" fill="none" xmlns="http://www.w3.org/2000/svg">
<g clip-path="url(#clip0_1_4628)">
<path d="M39.2129 11.449V11.449C40.2624 17.0781 40.2624 22.8026 39.2129 28.5271V28.5271C38.2588 33.9654 33.9654 38.2588 28.5271 39.2129V39.2129C22.898 40.2624 17.1735 40.2624 11.449 39.2129V39.2129C6.01073 38.2588 1.81276 34.0608 0.858676 28.6225V28.6225C-0.286225 22.9934 -0.286225 17.1735 0.858676 11.449V11.449C1.81276 6.01073 6.01073 1.81276 11.449 0.858676V0.858676C17.0781 -0.286225 22.898 -0.286225 28.6225 0.858676V0.858676C34.0608 1.81276 38.2588 6.01073 39.2129 11.449Z" fill="white"/>
<path fill-rule="evenodd" clip-rule="evenodd" d="M38.2293 28.3468C39.2571 22.7405 39.2565 17.1393 38.2298 11.6323L39.2129 11.449C40.2624 17.0781 40.2624 22.8026 39.2129 28.5271L38.2293 28.3468ZM28.5271 39.2129C33.9654 38.2588 38.2588 33.9654 39.2129 28.5271L38.2279 28.3543C37.3466 33.3779 33.3779 37.3466 28.3543 38.2279L28.5271 39.2129ZM11.449 39.2129C17.1735 40.2624 22.898 40.2624 28.5271 39.2129L28.3438 38.2298C22.8369 39.2565 17.2356 39.2571 11.6293 38.2293L11.449 39.2129ZM28.6225 0.858676L28.4497 1.84363C33.4733 2.72496 37.3466 6.59823 38.2279 11.6218L39.2129 11.449C38.2588 6.01073 34.0608 1.81276 28.6225 0.858676ZM11.449 0.858676C17.0781 -0.286225 22.898 -0.286225 28.6225 0.858676L28.4264 1.83926C22.8303 0.720026 17.1448 0.720683 11.6483 1.83861L11.449 0.858676ZM0.858676 11.449C1.81276 6.01073 6.01073 1.81276 11.449 0.858676L11.6218 1.84363C6.59823 2.72496 2.72496 6.59823 1.84363 11.6218L0.858676 11.449ZM0.858676 11.449L1.83926 11.6451C0.720026 17.2413 0.720683 22.9267 1.83861 28.4232L0.858676 28.6225C-0.286225 22.9934 -0.286225 17.1735 0.858676 11.449ZM0.858676 28.6225C1.81276 34.0608 6.01073 38.2588 11.449 39.2129L11.6218 38.2279C6.59823 37.3466 2.72496 33.4733 1.84363 28.4497L0.858676 28.6225Z" fill="#EEF4FE"/>
<path fill-rule="evenodd" clip-rule="evenodd" d="M12.5333 7.55566C9.78418 7.55566 7.55556 9.78429 7.55556 12.5334V27.4668C7.55556 30.2159 9.78418 32.4446 12.5333 32.4446H27.4667C30.2158 32.4446 32.4444 30.2159 32.4444 27.4668V12.5334C32.4444 9.78429 30.2158 7.55566 27.4667 7.55566H12.5333Z" fill="#EE6D2D"/>
<path d="M22.3095 12.2247C23.0773 11.2201 24.3429 10.634 25.6038 10.6682C26.3342 10.7042 27.0754 10.8642 27.7051 11.249C27.9965 11.4341 28.2651 11.6581 28.4882 11.9224C28.8341 12.3405 29.0334 12.8625 29.1279 13.3921C29.1525 13.7698 29.1492 14.15 29.1298 14.5282C29.0424 15.1095 28.79 15.6614 28.426 16.1217C27.8731 16.8231 27.1371 17.3451 26.3911 17.8216C25.936 18.1391 25.4463 18.4228 25.0733 18.8419C24.9532 18.9743 24.8199 19.1394 24.8687 19.3311C26.356 19.3615 27.8451 19.3368 29.3333 19.344C29.331 21.6465 29.3362 23.949 29.3295 26.2511C29.3134 27.3554 28.7568 28.4748 27.7877 29.041C27.3544 29.3029 26.8628 29.4586 26.366 29.544C25.9688 29.563 25.5692 29.5649 25.172 29.544C24.37 29.3988 23.5908 28.9945 23.0977 28.3315C22.6459 27.7559 22.4101 27.0455 22.2706 26.3355C22.2554 26.2425 22.2577 26.1486 22.2563 26.0556C22.6165 26.0124 22.9534 25.8686 23.3032 25.7798C23.7241 25.6603 24.1374 25.516 24.5631 25.4144C24.5959 25.8012 24.7117 26.1794 24.8844 26.5263C25.032 26.8215 25.2844 27.0863 25.6147 27.1651C25.7974 27.1845 25.9934 27.195 26.1647 27.1157C26.5021 26.9928 26.6929 26.6283 26.7209 26.2876C26.7271 24.7434 26.7295 23.1987 26.7266 21.6546C25.3713 21.6489 24.0164 21.6536 22.6611 21.6522C22.4442 21.6555 22.2264 21.6403 22.0105 21.6636C21.8942 21.8382 21.9108 22.0726 21.8392 22.2696C21.5701 23.1788 21.1041 24.0506 20.4084 24.7045C19.7056 25.4386 18.7536 25.907 17.767 26.1206C17.3347 26.2364 16.8853 26.2402 16.4449 26.3061C16.1199 26.3455 15.7976 26.2677 15.475 26.2359C14.999 26.2017 14.5463 26.0356 14.1049 25.8653C13.0011 25.3902 12.0691 24.5322 11.492 23.4792C11.1219 22.812 10.8618 22.0812 10.7508 21.3252C10.625 20.7121 10.6777 20.0819 10.6772 19.4607C10.7636 18.4266 11.1167 17.4154 11.6951 16.5531C12.1341 15.9632 12.6461 15.4146 13.2768 15.0265C14.1543 14.4684 15.1769 14.1485 16.2134 14.0807C16.4169 14.0726 16.6191 14.0076 16.8236 14.047C17.0657 14.1049 17.3172 14.0712 17.5616 14.1134C17.8733 14.1224 18.1752 14.2064 18.4765 14.28C19.1119 14.4655 19.7279 14.7365 20.266 15.1252C20.6016 15.3615 20.9366 15.6178 21.1777 15.9537C21.0723 16.1806 20.8981 16.3647 20.7525 16.565C20.4255 17.0063 20.0976 17.4472 19.7701 17.8885C19.1442 17.2493 18.3697 16.6997 17.4728 16.5408C17.0168 16.5313 16.5503 16.4952 16.1037 16.6105C15.6671 16.7026 15.2571 16.8957 14.8794 17.1287C14.4181 17.4623 14.0086 17.8837 13.7471 18.3939C13.5207 18.8599 13.3371 19.3639 13.3366 19.8883C13.3366 20.1844 13.3167 20.4829 13.3627 20.7766C13.4287 21.1705 13.5573 21.5549 13.7457 21.9075C13.9592 22.3251 14.2103 22.7384 14.579 23.0379C15.0877 23.4915 15.7606 23.7815 16.4478 23.7668C16.7586 23.763 17.0766 23.7796 17.3789 23.6923C18.2169 23.4446 18.9734 22.8599 19.3392 22.0555C19.4099 21.9231 19.4251 21.7727 19.4289 21.6251C18.9012 21.6242 18.3735 21.627 17.8463 21.6232C17.8449 20.8649 17.8477 20.1066 17.8444 19.3482C18.0266 19.3458 18.207 19.315 18.3887 19.3074C19.5945 19.3065 20.8004 19.3074 22.0062 19.3017C22.141 18.9449 22.2587 18.578 22.458 18.2501C22.924 17.4676 23.6036 16.8345 24.3444 16.3144C24.9167 15.8887 25.5279 15.5115 26.0513 15.0236C26.2658 14.802 26.4694 14.5211 26.439 14.1955C26.4889 13.6996 26.0732 13.2611 25.6038 13.1786C25.4026 13.1672 25.199 13.1605 24.9997 13.1899C24.4796 13.3228 24.1028 13.7423 23.8114 14.1694C23.7426 14.2866 23.5965 14.1922 23.5153 14.1386C22.9582 13.7475 22.3735 13.3926 21.8302 12.9835C21.9312 12.6978 22.1296 12.4629 22.3095 12.2247Z" fill="white"/>
</g>
<defs>
<clipPath id="clip0_1_4628">
<rect width="40" height="40" fill="white"/>
</clipPath>
</defs>
</svg>
