<svg width="40" height="40" viewBox="0 0 40 40" fill="none" xmlns="http://www.w3.org/2000/svg">
<g clip-path="url(#clip0_1_4626)">
<path d="M39.2129 11.449V11.449C40.2624 17.0781 40.2624 22.8026 39.2129 28.5271V28.5271C38.2588 33.9654 33.9654 38.2588 28.5271 39.2129V39.2129C22.898 40.2624 17.1735 40.2624 11.449 39.2129V39.2129C6.01073 38.2588 1.81276 34.0608 0.858676 28.6225V28.6225C-0.286225 22.9934 -0.286225 17.1735 0.858676 11.449V11.449C1.81276 6.01073 6.01073 1.81276 11.449 0.858676V0.858676C17.0781 -0.286225 22.898 -0.286225 28.6225 0.858676V0.858676C34.0608 1.81276 38.2588 6.01073 39.2129 11.449Z" fill="white"/>
<path fill-rule="evenodd" clip-rule="evenodd" d="M38.2293 28.3468C39.2571 22.7405 39.2565 17.1393 38.2298 11.6323L39.2129 11.449C40.2624 17.0781 40.2624 22.8026 39.2129 28.5271L38.2293 28.3468ZM28.5271 39.2129C33.9654 38.2588 38.2588 33.9654 39.2129 28.5271L38.2279 28.3543C37.3466 33.3779 33.3779 37.3466 28.3543 38.2279L28.5271 39.2129ZM11.449 39.2129C17.1735 40.2624 22.898 40.2624 28.5271 39.2129L28.3438 38.2298C22.8369 39.2565 17.2356 39.2571 11.6293 38.2293L11.449 39.2129ZM28.6225 0.858676L28.4497 1.84363C33.4733 2.72496 37.3466 6.59823 38.2279 11.6218L39.2129 11.449C38.2588 6.01073 34.0608 1.81276 28.6225 0.858676ZM11.449 0.858676C17.0781 -0.286225 22.898 -0.286225 28.6225 0.858676L28.4264 1.83926C22.8303 0.720026 17.1448 0.720683 11.6483 1.83861L11.449 0.858676ZM0.858676 11.449C1.81276 6.01073 6.01073 1.81276 11.449 0.858676L11.6218 1.84363C6.59823 2.72496 2.72496 6.59823 1.84363 11.6218L0.858676 11.449ZM0.858676 11.449L1.83926 11.6451C0.720026 17.2413 0.720683 22.9267 1.83861 28.4232L0.858676 28.6225C-0.286225 22.9934 -0.286225 17.1735 0.858676 11.449ZM0.858676 28.6225C1.81276 34.0608 6.01073 38.2588 11.449 39.2129L11.6218 38.2279C6.59823 37.3466 2.72496 33.4733 1.84363 28.4497L0.858676 28.6225Z" fill="#EEF4FE"/>
<path d="M7.55554 12.5334C7.55554 9.78429 9.78417 7.55566 12.5333 7.55566H27.4667C30.2158 7.55566 32.4444 9.78429 32.4444 12.5334V27.4668C32.4444 30.2159 30.2158 32.4446 27.4667 32.4446H12.5333C9.78417 32.4446 7.55554 30.2159 7.55554 27.4668V12.5334Z" fill="#F6F7F8"/>
<g clip-path="url(#clip1_1_4626)">
<path fill-rule="evenodd" clip-rule="evenodd" d="M15.9498 21.9961C15.1571 21.9961 14.5122 22.6409 14.5122 23.4336C14.5122 24.2262 15.1571 24.8711 15.9498 24.8711C16.7425 24.8711 17.3873 24.2262 17.3873 23.4336C17.3873 22.6409 16.7425 21.9961 15.9498 21.9961Z" fill="#FCB716"/>
<path fill-rule="evenodd" clip-rule="evenodd" d="M11.9326 21.9961C11.1399 21.9961 10.4951 22.6409 10.4951 23.4336C10.4951 24.2262 11.1399 24.8711 11.9326 24.8711C12.7252 24.8711 13.3702 24.2262 13.3702 23.4336C13.3702 22.6409 12.7252 21.9961 11.9326 21.9961Z" fill="#EE363F"/>
<path fill-rule="evenodd" clip-rule="evenodd" d="M19.9671 21.9961C19.1743 21.9961 18.5295 22.6409 18.5295 23.4336C18.5295 24.2262 19.1743 24.8711 19.9671 24.8711C20.7598 24.8711 21.4046 24.2262 21.4046 23.4336C21.4046 22.6409 20.7598 21.9961 19.9671 21.9961Z" fill="#07AF56"/>
<path fill-rule="evenodd" clip-rule="evenodd" d="M28.0013 21.9961C27.2086 21.9961 26.5638 22.6409 26.5638 23.4336C26.5638 24.2262 27.2086 24.8711 28.0013 24.8711C28.7941 24.8711 29.4389 24.2262 29.4389 23.4336C29.4389 22.6409 28.7941 21.9961 28.0013 21.9961Z" fill="#04A9DF"/>
<path fill-rule="evenodd" clip-rule="evenodd" d="M23.9843 21.9963C23.1916 21.9963 22.5466 22.6411 22.5466 23.4338C22.5466 24.2265 23.1915 24.8712 23.9842 24.8712C24.7769 24.8712 25.4217 24.2265 25.4217 23.4338C25.4217 22.6411 24.777 21.9963 23.9843 21.9963Z" fill="#A1479A"/>
<path fill-rule="evenodd" clip-rule="evenodd" d="M10.2781 17.9229C10.2781 16.9908 11.0263 16.2871 11.952 16.2871C12.8839 16.2871 13.6257 16.9845 13.6257 17.9166V19.3495C13.6257 19.4953 13.5244 19.5967 13.3721 19.5967C13.2136 19.5967 13.1185 19.4953 13.1185 19.3495V18.931H13.0932C12.8966 19.267 12.5035 19.5587 11.9202 19.5587C11.0199 19.5587 10.2781 18.8612 10.2781 17.9229ZM13.1312 17.9229C13.1312 17.2509 12.6239 16.7436 11.952 16.7436C11.2798 16.7436 10.7726 17.2509 10.7726 17.9229C10.7726 18.5949 11.2798 19.1022 11.952 19.1022C12.6239 19.1022 13.1312 18.5949 13.1312 17.9229ZM14.9321 20.6176C14.7989 20.5542 14.7355 20.44 14.7862 20.3069C14.837 20.1673 14.9638 20.1104 15.0969 20.1738C15.3252 20.2815 15.6105 20.3576 15.9147 20.3576C16.6694 20.3576 17.1258 19.9074 17.1258 19.1403V18.931H17.1004C16.9038 19.2671 16.5109 19.5586 15.9275 19.5586C15.0271 19.5586 14.2853 18.8612 14.2853 17.9229C14.2853 16.9909 15.0335 16.2871 15.9593 16.2871C16.8913 16.2871 17.6331 16.9846 17.6331 17.9165V19.1086C17.6331 20.1357 16.9736 20.8268 15.8958 20.8268C15.5661 20.8268 15.2364 20.7634 14.9321 20.6176ZM17.1385 17.9229C17.1385 17.2508 16.6312 16.7435 15.9593 16.7435C15.2872 16.7435 14.78 17.2508 14.78 17.9229C14.78 18.595 15.2872 19.1022 15.9593 19.1022C16.6312 19.1022 17.1385 18.595 17.1385 17.9229ZM18.2926 17.9229C18.2926 16.9908 19.0345 16.2871 19.9665 16.2871C20.8985 16.2871 21.6403 16.9908 21.6403 17.9229C21.6403 18.8549 20.8985 19.5587 19.9665 19.5587C19.0345 19.5587 18.2926 18.8549 18.2926 17.9229ZM21.1458 17.9229C21.1458 17.2509 20.6385 16.7436 19.9665 16.7436C19.2944 16.7436 18.7872 17.2509 18.7872 17.9229C18.7872 18.5949 19.2944 19.1022 19.9665 19.1022C20.6385 19.1022 21.1458 18.5949 21.1458 17.9229ZM22.2999 17.9229C22.2999 16.9908 23.0353 16.2871 23.942 16.2871C24.5253 16.2871 24.9185 16.5788 25.115 16.9148H25.1404V15.2472C25.1404 15.1015 25.2418 15 25.394 15C25.5526 15 25.6476 15.1015 25.6476 15.2472V17.9292C25.6476 18.8612 24.9057 19.5587 23.9738 19.5587C23.0481 19.5587 22.2999 18.8549 22.2999 17.9229ZM25.1531 17.9229C25.1531 17.2509 24.6458 16.7436 23.9738 16.7436C23.3016 16.7436 22.7944 17.2509 22.7944 17.9229C22.7944 18.5949 23.3016 19.1022 23.9738 19.1022C24.6458 19.1022 25.1531 18.5949 25.1531 17.9229ZM26.3072 17.9229C26.3072 16.9908 27.0553 16.2871 27.981 16.2871C28.9131 16.2871 29.6549 16.9845 29.6549 17.9166V19.3495C29.6549 19.4953 29.5535 19.5967 29.4013 19.5967C29.2427 19.5967 29.1476 19.4953 29.1476 19.3495V18.931H29.1223C28.9257 19.267 28.5327 19.5587 27.9493 19.5587C27.049 19.5587 26.3072 18.8612 26.3072 17.9229ZM29.1603 17.9229C29.1603 17.2509 28.6531 16.7436 27.981 16.7436C27.309 16.7436 26.8017 17.2509 26.8017 17.9229C26.8017 18.5949 27.309 19.1022 27.981 19.1022C28.6531 19.1022 29.1603 18.5949 29.1603 17.9229Z" fill="#5A5B5B"/>
</g>
</g>
<defs>
<clipPath id="clip0_1_4626">
<rect width="40" height="40" fill="white"/>
</clipPath>
<clipPath id="clip1_1_4626">
<rect width="19.4444" height="10" fill="white" transform="translate(10.2778 15)"/>
</clipPath>
</defs>
</svg>
