<svg width="40" height="40" viewBox="0 0 40 40" fill="none" xmlns="http://www.w3.org/2000/svg">
<g clip-path="url(#clip0_1_4629)">
<path d="M39.2129 11.449V11.449C40.2624 17.0781 40.2624 22.8026 39.2129 28.5271V28.5271C38.2588 33.9654 33.9654 38.2588 28.5271 39.2129V39.2129C22.898 40.2624 17.1735 40.2624 11.449 39.2129V39.2129C6.01073 38.2588 1.81276 34.0608 0.858676 28.6225V28.6225C-0.286225 22.9934 -0.286225 17.1735 0.858676 11.449V11.449C1.81276 6.01073 6.01073 1.81276 11.449 0.858676V0.858676C17.0781 -0.286225 22.898 -0.286225 28.6225 0.858676V0.858676C34.0608 1.81276 38.2588 6.01073 39.2129 11.449Z" fill="white"/>
<path fill-rule="evenodd" clip-rule="evenodd" d="M38.2293 28.3468C39.2571 22.7405 39.2565 17.1393 38.2298 11.6323L39.2129 11.449C40.2624 17.0781 40.2624 22.8026 39.2129 28.5271L38.2293 28.3468ZM28.5271 39.2129C33.9654 38.2588 38.2588 33.9654 39.2129 28.5271L38.2279 28.3543C37.3466 33.3779 33.3779 37.3466 28.3543 38.2279L28.5271 39.2129ZM11.449 39.2129C17.1735 40.2624 22.898 40.2624 28.5271 39.2129L28.3438 38.2298C22.8369 39.2565 17.2356 39.2571 11.6293 38.2293L11.449 39.2129ZM28.6225 0.858676L28.4497 1.84363C33.4733 2.72496 37.3466 6.59823 38.2279 11.6218L39.2129 11.449C38.2588 6.01073 34.0608 1.81276 28.6225 0.858676ZM11.449 0.858676C17.0781 -0.286225 22.898 -0.286225 28.6225 0.858676L28.4264 1.83926C22.8303 0.720026 17.1448 0.720683 11.6483 1.83861L11.449 0.858676ZM0.858676 11.449C1.81276 6.01073 6.01073 1.81276 11.449 0.858676L11.6218 1.84363C6.59823 2.72496 2.72496 6.59823 1.84363 11.6218L0.858676 11.449ZM0.858676 11.449L1.83926 11.6451C0.720026 17.2413 0.720683 22.9267 1.83861 28.4232L0.858676 28.6225C-0.286225 22.9934 -0.286225 17.1735 0.858676 11.449ZM0.858676 28.6225C1.81276 34.0608 6.01073 38.2588 11.449 39.2129L11.6218 38.2279C6.59823 37.3466 2.72496 33.4733 1.84363 28.4497L0.858676 28.6225Z" fill="#EEF4FE"/>
<path fill-rule="evenodd" clip-rule="evenodd" d="M12.5333 7.55566C9.78418 7.55566 7.55556 9.78429 7.55556 12.5334V27.4668C7.55556 30.2159 9.78418 32.4446 12.5333 32.4446H27.4667C30.2158 32.4446 32.4444 30.2159 32.4444 27.4668V12.5334C32.4444 9.78429 30.2158 7.55566 27.4667 7.55566H12.5333Z" fill="#F6F7F8"/>
<path d="M19.435 19.5813L11.5438 27.7821C11.5441 27.7837 11.5435 27.7805 11.5438 27.7821C11.7858 28.6723 12.6175 29.3333 13.6036 29.3333C13.9975 29.3333 14.3676 29.2291 14.685 29.0459L14.7101 29.0311L23.5925 24.013L19.435 19.5813Z" fill="#EA4335"/>
<path d="M27.4184 18.1848L27.411 18.1799L23.5763 16.0027L19.256 19.7676L23.5927 24.0133L27.4059 21.8569C28.0747 21.5029 28.5288 20.8129 28.5288 20.017C28.5288 19.2262 28.0811 18.5397 27.4184 18.1848Z" fill="#FBBC04"/>
<path d="M11.5436 12.2173C11.4963 12.3885 11.4712 12.5684 11.4712 12.7541V27.2456C11.4789 27.4535 11.4953 27.615 11.5439 27.7821L19.7064 19.7911L11.5436 12.2173Z" fill="#4285F4"/>
<path d="M19.4934 20.0001L23.576 16.0028L14.7051 10.9651C14.383 10.7762 14.0064 10.6667 13.6038 10.6667C12.6177 10.6667 11.786 11.3236 11.544 12.2154C11.5437 12.2161 11.5437 12.2167 11.5434 12.2174L19.4934 20.0001Z" fill="#34A853"/>
</g>
<defs>
<clipPath id="clip0_1_4629">
<rect width="40" height="40" fill="white"/>
</clipPath>
</defs>
</svg>
