<svg width="40" height="40" viewBox="0 0 40 40" fill="none" xmlns="http://www.w3.org/2000/svg">
<g clip-path="url(#clip0_1_4634)">
<path d="M39.2129 11.449V11.449C40.2624 17.0781 40.2624 22.8026 39.2129 28.5271V28.5271C38.2588 33.9654 33.9654 38.2588 28.5271 39.2129V39.2129C22.898 40.2624 17.1735 40.2624 11.449 39.2129V39.2129C6.01073 38.2588 1.81276 34.0608 0.858676 28.6225V28.6225C-0.286225 22.9934 -0.286225 17.1735 0.858676 11.449V11.449C1.81276 6.01073 6.01073 1.81276 11.449 0.858676V0.858676C17.0781 -0.286225 22.898 -0.286225 28.6225 0.858676V0.858676C34.0608 1.81276 38.2588 6.01073 39.2129 11.449Z" fill="white"/>
<path fill-rule="evenodd" clip-rule="evenodd" d="M38.2293 28.3468C39.2571 22.7405 39.2565 17.1393 38.2298 11.6323L39.2129 11.449C40.2624 17.0781 40.2624 22.8026 39.2129 28.5271L38.2293 28.3468ZM28.5271 39.2129C33.9654 38.2588 38.2588 33.9654 39.2129 28.5271L38.2279 28.3543C37.3466 33.3779 33.3779 37.3466 28.3543 38.2279L28.5271 39.2129ZM11.449 39.2129C17.1735 40.2624 22.898 40.2624 28.5271 39.2129L28.3438 38.2298C22.8369 39.2565 17.2356 39.2571 11.6293 38.2293L11.449 39.2129ZM28.6225 0.858676L28.4497 1.84363C33.4733 2.72496 37.3466 6.59823 38.2279 11.6218L39.2129 11.449C38.2588 6.01073 34.0608 1.81276 28.6225 0.858676ZM11.449 0.858676C17.0781 -0.286225 22.898 -0.286225 28.6225 0.858676L28.4264 1.83926C22.8303 0.720026 17.1448 0.720683 11.6483 1.83861L11.449 0.858676ZM0.858676 11.449C1.81276 6.01073 6.01073 1.81276 11.449 0.858676L11.6218 1.84363C6.59823 2.72496 2.72496 6.59823 1.84363 11.6218L0.858676 11.449ZM0.858676 11.449L1.83926 11.6451C0.720026 17.2413 0.720683 22.9267 1.83861 28.4232L0.858676 28.6225C-0.286225 22.9934 -0.286225 17.1735 0.858676 11.449ZM0.858676 28.6225C1.81276 34.0608 6.01073 38.2588 11.449 39.2129L11.6218 38.2279C6.59823 37.3466 2.72496 33.4733 1.84363 28.4497L0.858676 28.6225Z" fill="#EEF4FE"/>
<path fill-rule="evenodd" clip-rule="evenodd" d="M12.5333 7.55566C9.78418 7.55566 7.55556 9.78429 7.55556 12.5334V27.4668C7.55556 30.2159 9.78418 32.4446 12.5333 32.4446H27.4667C30.2158 32.4446 32.4444 30.2159 32.4444 27.4668V12.5334C32.4444 9.78429 30.2158 7.55566 27.4667 7.55566H12.5333Z" fill="#F6F7F8"/>
<path d="M24.6816 22.915C24.6901 22.915 24.6991 22.923 24.6992 22.9316V22.9365L24.6602 23.1592C24.6602 23.1677 24.6513 23.1768 24.6426 23.1768H24.1104C24.0974 23.1725 24.0931 23.1808 24.0889 23.1895L24.0635 23.4043C24.0635 23.4128 24.0673 23.4257 24.0801 23.4258H24.085L24.5869 23.4131C24.5953 23.4131 24.6044 23.421 24.6045 23.4297V23.4346L24.5742 23.6533C24.5742 23.6616 24.5662 23.6706 24.5576 23.6709H24.0332C24.0248 23.6709 24.0157 23.6788 24.0156 23.6875L23.9941 23.8555C23.9943 23.8639 23.9989 23.8728 24.0117 23.877H24.5312C24.5397 23.877 24.5487 23.8849 24.5488 23.8936V23.8984L24.5098 24.1172C24.5097 24.1255 24.5017 24.1345 24.4932 24.1348H23.6982C23.6898 24.1348 23.6807 24.1259 23.6807 24.1172V24.1133L23.8652 22.9365C23.8652 22.928 23.8741 22.919 23.8828 22.9189L24.6816 22.915ZM25.9268 22.9102C25.9352 22.9104 25.9434 22.9191 25.9434 22.9277C25.9434 22.9319 25.9436 22.9361 25.9395 22.9404L25.4756 23.5117C25.4714 23.516 25.4713 23.5251 25.4756 23.5293L25.7764 24.1133C25.7804 24.1217 25.776 24.1306 25.7676 24.1348H25.4453C25.4371 24.1347 25.4329 24.1301 25.4287 24.126L25.2656 23.7998C25.2614 23.7914 25.2525 23.7869 25.2441 23.791L24.9736 24.126C24.9695 24.1301 24.9653 24.1299 24.9609 24.1299H24.6602C24.6517 24.1299 24.6427 24.1219 24.6426 24.1133C24.6426 24.109 24.6432 24.1045 24.6475 24.1045L25.124 23.5205C25.1281 23.5163 25.1281 23.5072 25.124 23.5029L24.8398 22.9365C24.8356 22.9281 24.8402 22.9193 24.8486 22.915H24.8574L25.1709 22.9229C25.1791 22.923 25.1834 22.9275 25.1875 22.9316L25.3291 23.2285C25.3333 23.2369 25.3422 23.2406 25.3506 23.2363C25.3546 23.2363 25.3555 23.2328 25.3555 23.2324L25.6045 22.9316C25.6087 22.9275 25.6128 22.9277 25.6172 22.9277L25.9268 22.9102ZM29.29 23.1299C29.4447 22.8595 29.8394 22.8676 30.0586 23.0264C30.0716 23.0349 30.0764 23.0486 30.0635 23.0615L29.9346 23.2158C29.9262 23.2286 29.9132 23.2289 29.9004 23.2246C29.7801 23.173 29.6418 23.1036 29.5303 23.2109C29.5046 23.2366 29.505 23.2797 29.5264 23.3057C29.5306 23.3099 29.5397 23.3149 29.5439 23.3193C29.7674 23.4311 30.1487 23.5596 29.9512 23.9072C29.7795 24.2076 29.3292 24.1907 29.1016 23.9678C29.0931 23.9593 29.0881 23.946 29.0967 23.9375C29.1051 23.9161 29.1183 23.8992 29.1396 23.8906C29.1569 23.8777 29.1618 23.8734 29.166 23.8691V23.8682L29.2383 23.7783C29.2468 23.7698 29.2562 23.7648 29.2646 23.7734C29.3849 23.8421 29.5139 23.9117 29.6514 23.8516C29.7368 23.8129 29.7409 23.7182 29.6514 23.6797C29.4238 23.5724 29.1055 23.4562 29.29 23.1299ZM21.1338 22.9229C21.1422 22.9229 21.1504 22.9279 21.1504 22.9365C21.1504 22.9407 21.1506 22.9443 21.1465 22.9443L20.2188 24.1221C20.2147 24.1261 20.2103 24.1296 20.2061 24.1299H14.124C14.1155 24.1299 14.1065 24.1259 14.1064 24.1172C14.1064 24.1129 14.1071 24.1084 14.1113 24.1084L15.0342 22.9277C15.0383 22.9236 15.0425 22.9229 15.0469 22.9229H21.1338ZM29.1055 22.9102C29.1139 22.9103 29.1221 22.9191 29.1221 22.9277V22.9316L29.084 23.1631C29.084 23.1716 29.0751 23.1768 29.0664 23.1768H28.5342C28.5257 23.1768 28.5208 23.1807 28.5166 23.1895L28.4824 23.4043C28.4824 23.4127 28.4866 23.4217 28.4951 23.4219H28.5L29.0107 23.4131C29.0192 23.4131 29.0283 23.4219 29.0283 23.4307L29.002 23.6533C29.002 23.6617 28.994 23.6669 28.9854 23.667H28.4648C28.4566 23.6671 28.4524 23.6711 28.4482 23.6797L28.418 23.8516C28.4181 23.86 28.4227 23.8689 28.4355 23.873L28.959 23.8721C28.9675 23.8721 28.9766 23.8809 28.9766 23.8896V23.8936L28.9424 24.1172C28.9423 24.1256 28.9335 24.1299 28.9248 24.1299H28.1221C28.1136 24.1299 28.1045 24.121 28.1045 24.1123V24.1084L28.2852 22.9316C28.2852 22.9233 28.2931 22.919 28.3018 22.9189L29.1055 22.9102ZM30.3398 23.0596C30.5106 22.8573 30.8623 22.8809 31.0635 23.0215C31.0764 23.03 31.0813 23.0437 31.0684 23.0566L30.9307 23.2197C30.9177 23.2327 30.9046 23.2324 30.8916 23.2236C30.7971 23.1594 30.6984 23.1378 30.5869 23.1592C30.5398 23.1677 30.5052 23.2152 30.5137 23.2666C30.5137 23.2694 30.5148 23.2726 30.5176 23.2754C30.5219 23.2967 30.5478 23.3139 30.582 23.3311C30.6937 23.3827 30.7886 23.4337 30.8701 23.4854C31.334 23.8033 30.5866 24.4177 30.1055 23.9668C30.0925 23.9538 30.0928 23.9368 30.1016 23.9238L30.2305 23.7734C30.2433 23.7608 30.2557 23.7567 30.2686 23.7695C30.3631 23.8426 30.6251 23.9369 30.6982 23.7871C30.7197 23.7442 30.7021 23.692 30.6592 23.6748C30.6582 23.6747 30.6554 23.6742 30.6553 23.6709C30.419 23.5678 30.0928 23.4514 30.3076 23.1035L30.3398 23.0596ZM11.6494 22.9277C11.6494 22.932 11.6497 22.9323 11.6455 22.9365L10.7178 24.1211C10.7136 24.1252 10.7094 24.126 10.7051 24.126H9.12402C9.11557 24.126 9.11133 24.121 9.11133 24.1123C9.11133 24.1082 9.11124 24.1046 9.11523 24.1045L10.0645 22.9189C10.0645 22.9189 10.069 22.915 10.0732 22.915H11.6367C11.6452 22.915 11.6494 22.9233 11.6494 22.9277ZM14.6221 22.9238C14.6221 22.9278 14.6219 22.9314 14.6182 22.9316L13.6895 24.1221C13.6854 24.1259 13.6811 24.126 13.6768 24.126H11.1514C11.1432 24.1259 11.1389 24.1178 11.1387 24.1133C11.1387 24.1088 11.1385 24.1086 11.1426 24.1045L12.0703 22.9189C12.0746 22.9147 12.0795 22.915 12.084 22.915L14.6094 22.9102C14.6176 22.9104 14.6221 22.9194 14.6221 22.9238ZM26.7725 18.5811C26.7766 18.5939 26.7769 18.6063 26.7686 18.6191L22.4648 24.1084C22.4564 24.1214 22.443 24.126 22.4258 24.126H20.6992C20.6738 24.1259 20.6699 24.1171 20.6826 24.0957C22.0656 22.3389 23.453 20.5784 24.8447 18.8174C24.9392 18.7014 24.9516 18.7139 24.8789 18.5684C24.3507 17.4989 23.8225 16.4204 23.29 15.334H25.2266L26.7725 18.5811ZM26.1416 22.9141C26.4895 22.9098 27.0097 22.8115 26.9883 23.2969C26.971 23.7392 26.6356 23.7995 26.2705 23.8037C26.2577 23.808 26.2452 23.8166 26.2451 23.8291L26.2061 24.0996C26.2061 24.1125 26.1935 24.1257 26.1768 24.126H25.9482C25.9356 24.1258 25.9276 24.1172 25.9316 24.1045L26.1162 22.9355C26.1205 22.9187 26.1291 22.9141 26.1416 22.9141ZM27.207 22.915C27.4691 22.9108 28.0056 22.8205 28.0615 23.1855C28.1 23.4342 28.0099 23.6229 27.7871 23.7559C27.7741 23.7643 27.7738 23.7737 27.7783 23.7822L27.959 24.1045C27.9671 24.1172 27.9623 24.126 27.9453 24.126H27.6875C27.6706 24.1259 27.662 24.1173 27.6533 24.1045L27.5029 23.834C27.4772 23.7868 27.4126 23.765 27.3652 23.7949C27.3396 23.8121 27.3189 23.8381 27.3145 23.8682L27.2793 24.0996C27.2751 24.1167 27.2667 24.1258 27.25 24.126H27.0352C27.0137 24.126 27.0046 24.1171 27.0088 24.0957L27.1982 22.9229L27.207 22.915ZM27.4473 23.1719C27.4344 23.1761 27.4261 23.1806 27.4219 23.1934L27.3701 23.5244C27.3702 23.5373 27.3745 23.5452 27.3916 23.541C27.5548 23.5325 27.8727 23.5543 27.7998 23.2754C27.7654 23.1509 27.5461 23.1631 27.4473 23.1719ZM26.3867 23.168C26.3611 23.1637 26.348 23.1764 26.3438 23.2021L26.2969 23.5156C26.2927 23.5285 26.3007 23.537 26.3135 23.5371C26.5196 23.5414 26.7993 23.55 26.709 23.2363C26.7005 23.2107 26.6786 23.1895 26.6484 23.1895L26.3867 23.168ZM14.5059 15.334C15.236 15.3727 15.958 15.5872 16.5205 16.0684C16.5289 16.0769 16.5331 16.0892 16.5244 16.0977L15.6484 17.2148C15.6401 17.2231 15.6316 17.2272 15.6191 17.2188C15.0392 16.8579 14.0035 16.562 13.4023 16.9355C12.9817 17.1975 13.2821 17.6483 13.6084 17.7988C14.7166 18.3057 16.4046 18.8041 16.1855 20.4189C16.0909 21.1276 15.6786 21.6854 15.0645 22.042C14.4031 22.4242 13.5618 22.4851 12.8232 22.3906C12.0674 22.2961 11.4091 21.969 10.8594 21.415C10.8469 21.4023 10.8469 21.3897 10.8594 21.377L11.7275 20.2725C11.7405 20.2597 11.7617 20.2559 11.7744 20.2686C12.0363 20.4961 12.3371 20.7023 12.6592 20.8184C13.1832 21.0073 14.1412 21.0801 14.5449 20.5947C14.854 20.2254 14.3688 19.8559 14.0811 19.7227C13.1318 19.289 11.7707 18.9364 11.6504 17.6953C11.6161 17.3304 11.6931 16.9697 11.8906 16.6006C12.3201 15.7931 13.2824 15.3682 14.21 15.334H14.5059ZM17.9678 15.333L20.5107 15.334C21.709 15.3857 23.0104 15.9566 22.9375 17.3867C22.8516 19.0489 21.4638 20.0195 19.9004 20.0537C19.5312 20.0622 19.1663 20.0622 18.8057 20.0537C18.7927 20.0537 18.7793 20.0623 18.7793 20.0752L18.4316 22.4072C18.4316 22.4202 18.4234 22.4287 18.4062 22.4287L16.8818 22.416C16.8689 22.416 16.8643 22.4075 16.8643 22.3945L17.9678 15.333ZM26.9541 18.9805C27.4995 20.1227 28.0444 21.2608 28.5898 22.3945C28.594 22.4029 28.5903 22.4117 28.582 22.416H26.7988C26.7818 22.4159 26.7733 22.4074 26.7646 22.3945L25.7939 20.4189C25.7898 20.4061 25.7896 20.3935 25.7979 20.3848L26.9277 18.9541C26.9407 18.9583 26.9499 18.972 26.9541 18.9805ZM19.3379 16.6689C19.3207 16.669 19.3119 16.6781 19.3076 16.6953L19.0371 18.6191C19.0329 18.6364 19.042 18.6452 19.0635 18.6494C19.7292 18.6709 20.6183 18.6703 21.0176 18.0088C21.275 17.5836 21.3092 16.9058 20.6914 16.751C20.2405 16.6392 19.7891 16.6475 19.3379 16.6689ZM27.0352 18.2891C27.0267 18.2974 27.0133 18.3016 27.0049 18.293C27.001 18.2928 27.001 18.2883 27.001 18.2842L26.3613 16.9443C26.3529 16.9229 26.3526 16.9059 26.3652 16.8887L27.5889 15.334H29.4102L27.0352 18.2891Z" fill="#EE4D2D"/>
</g>
<defs>
<clipPath id="clip0_1_4634">
<rect width="40" height="40" fill="white"/>
</clipPath>
</defs>
</svg>
