<svg width="48" height="48" viewBox="0 0 48 48" fill="none" xmlns="http://www.w3.org/2000/svg">
<path fill-rule="evenodd" clip-rule="evenodd" d="M11.1998 2.66669C6.48701 2.66669 2.6665 6.48719 2.6665 11.2V36.8C2.6665 41.5129 6.48701 45.3334 11.1998 45.3334H36.7998C41.5127 45.3334 45.3332 41.5129 45.3332 36.8V11.2C45.3332 6.48719 41.5127 2.66669 36.7998 2.66669H11.1998Z" fill="#FF37A5"/>
<path d="M11.7016 22.4045C11.8727 22.4045 12.034 22.4496 12.176 22.5271C12.566 22.7102 13.0117 22.7357 13.42 22.5982C13.8283 22.4607 14.1678 22.1709 14.3676 21.7891C14.5674 21.4074 14.6121 20.9633 14.4924 20.5494C14.3727 20.1355 14.0978 19.7838 13.7251 19.5677C13.0703 19.2205 12.3367 19.0484 11.5958 19.0684C10.8548 19.0883 10.1316 19.2995 9.49632 19.6814C8.86106 20.0633 8.33535 20.603 7.97025 21.2481C7.60514 21.8932 7.41304 22.6217 7.4126 23.363C7.41401 24.1029 7.60667 24.8299 7.9719 25.4734C8.33712 26.1169 8.8625 26.6551 9.49705 27.0357C10.1316 27.4163 10.8538 27.6264 11.5934 27.6456C12.3331 27.6648 13.0652 27.4925 13.7187 27.1453C14.0914 26.9292 14.3663 26.5775 14.486 26.1636C14.6057 25.7497 14.561 25.3056 14.3612 24.9239C14.1613 24.5421 13.8219 24.2523 13.4135 24.1148C13.0052 23.9773 12.5596 24.0028 12.1696 24.1859C12.0237 24.2701 11.8582 24.3143 11.6898 24.3139C11.5214 24.3135 11.356 24.2686 11.2106 24.1838C11.0651 24.0989 10.9446 23.9771 10.8614 23.8307C10.7782 23.6843 10.7352 23.5185 10.7367 23.35C10.7425 23.0983 10.8463 22.8588 11.0258 22.6822C11.2053 22.5057 11.4466 22.4061 11.6984 22.4045H11.7016ZM20.8251 20.0324C20.6891 19.7452 20.4744 19.5025 20.2059 19.3325C19.9373 19.1625 19.6261 19.0723 19.3083 19.0723C18.9905 19.0723 18.6792 19.1625 18.4107 19.3325C18.1422 19.5025 17.9274 19.7452 17.7915 20.0324L15.3517 25.2767C15.1841 25.6751 15.1773 26.1229 15.3328 26.5261C15.4882 26.9293 15.7937 27.2567 16.1853 27.4396C16.5769 27.6224 17.0241 27.6465 17.433 27.5068C17.842 27.3671 18.181 27.0745 18.3788 26.6903L19.3083 24.6894L20.2377 26.6903C20.4356 27.0745 20.7746 27.3671 21.1835 27.5068C21.5925 27.6465 22.0397 27.6224 22.4312 27.4396C22.8228 27.2567 23.1284 26.9293 23.2838 26.5261C23.4392 26.1229 23.4324 25.6751 23.2649 25.2767L20.8251 20.0324ZM38.2329 24.7442H36.4418C36.744 24.6573 37.0097 24.4744 37.1988 24.2232C37.3879 23.972 37.4902 23.6661 37.4902 23.3517C37.4902 23.0372 37.3879 22.7313 37.1988 22.4801C37.0097 22.2289 36.744 22.046 36.4418 21.9591H38.2329C38.6181 21.9591 38.9875 21.8061 39.2598 21.5337C39.5322 21.2614 39.6852 20.892 39.6852 20.5068C39.6852 20.1217 39.5322 19.7523 39.2598 19.4799C38.9875 19.2076 38.6181 19.0546 38.2329 19.0546H34.3441C33.9018 19.0554 33.4779 19.2315 33.1652 19.5442C32.8525 19.8569 32.6764 20.2808 32.6756 20.7231V25.9706C32.6764 26.4128 32.8525 26.8367 33.1652 27.1494C33.4779 27.4622 33.9018 27.6382 34.3441 27.6391H38.2329C39.03 27.6391 39.6852 26.9936 39.6852 26.1868C39.6809 25.8041 39.5262 25.4386 39.2544 25.1692C38.9826 24.8998 38.6156 24.7483 38.2329 24.7474V24.7442ZM30.807 19.2902C30.6175 19.1798 30.4081 19.1081 30.1908 19.079C29.9735 19.05 29.7526 19.0642 29.5408 19.1209C29.329 19.1776 29.1306 19.2756 28.9568 19.4094C28.7831 19.5431 28.6375 19.7099 28.5285 19.9001L27.5442 21.6073V20.7037C27.5421 20.4863 27.4972 20.2714 27.4121 20.0713C27.3269 19.8713 27.2032 19.69 27.0479 19.5377C26.8927 19.3855 26.709 19.2653 26.5073 19.1841C26.3056 19.1028 26.0899 19.0621 25.8725 19.0642C25.4337 19.0617 25.0117 19.2331 24.699 19.541C24.3863 19.8488 24.2083 20.2681 24.204 20.7069V25.9803C24.2229 26.4105 24.4072 26.8168 24.7183 27.1146C25.0294 27.4124 25.4435 27.5785 25.8741 27.5785C26.3048 27.5785 26.7188 27.4124 27.03 27.1146C27.3411 26.8168 27.5253 26.4105 27.5442 25.9803V25.0766L28.5285 26.7871C28.6383 26.9765 28.7843 27.1425 28.9582 27.2755C29.1321 27.4085 29.3305 27.506 29.5421 27.5623C29.7537 27.6187 29.9743 27.6328 30.1913 27.6039C30.4083 27.5749 30.6175 27.5036 30.807 27.3938C30.9964 27.284 31.1624 27.138 31.2954 26.9641C31.4284 26.7902 31.5259 26.5918 31.5822 26.3802C31.6386 26.1687 31.6527 25.9481 31.6238 25.731C31.5949 25.514 31.5235 25.3048 31.4137 25.1154L30.3875 23.3404L31.4137 21.5686C31.5237 21.3795 31.5952 21.1705 31.6242 20.9537C31.6532 20.7368 31.6391 20.5164 31.5828 20.305C31.5264 20.0936 31.4289 19.8955 31.2957 19.7219C31.1626 19.5483 30.9965 19.4027 30.807 19.2934V19.2902Z" fill="white"/>
<path d="M28.8995 30.7986C28.8349 30.7502 28.7768 30.6857 28.7478 30.6082H28.7284V30.8567H28.5283V29.1398H28.7284V29.8789H28.7478C28.7865 29.8143 28.8317 29.7466 28.8995 29.6981C28.964 29.6497 29.0511 29.6239 29.1576 29.6239C29.2609 29.6239 29.3513 29.6497 29.4287 29.7078C29.5062 29.7659 29.5643 29.8401 29.5998 29.9337C29.6385 30.0306 29.6579 30.1338 29.6579 30.2565C29.6579 30.3823 29.6385 30.4856 29.5998 30.5792C29.5643 30.676 29.5062 30.7502 29.4287 30.8083C29.3492 30.8665 29.2529 30.8971 29.1544 30.8955C29.0623 30.8827 28.9741 30.8496 28.8962 30.7986H28.8995ZM29.3739 30.5727C29.4384 30.4856 29.4707 30.3726 29.4707 30.2403C29.4707 30.108 29.4384 30.0015 29.3739 29.9176C29.3158 29.8305 29.2222 29.7853 29.0995 29.7853C29.0462 29.7821 28.9929 29.7923 28.9445 29.8148C28.8961 29.8374 28.854 29.8716 28.822 29.9144C28.7575 30.0015 28.7252 30.1145 28.7252 30.2371C28.7252 30.3726 28.7575 30.4759 28.822 30.5598C28.8532 30.6038 28.895 30.6393 28.9435 30.663C28.992 30.6866 29.0456 30.6978 29.0995 30.6954C29.2125 30.7051 29.3061 30.6566 29.3739 30.5727ZM30.2646 31.1666C30.2406 31.2109 30.2049 31.2477 30.1613 31.2731C30.1129 31.3118 30.0484 31.3215 29.9612 31.3215C29.9128 31.3215 29.8773 31.3118 29.8289 31.3021V31.1601C29.8676 31.1698 29.8935 31.1698 29.9257 31.1698C29.9709 31.1698 30.0193 31.1601 30.0484 31.1407C30.0777 31.1197 30.1029 31.0935 30.1226 31.0633C30.142 31.0375 30.1613 30.9891 30.1871 30.9342L30.2452 30.7986L29.7999 29.6497H30.0096L30.3517 30.5824H30.3614L30.7099 29.6497H30.9197L30.3614 31.0278C30.313 31.0826 30.2936 31.131 30.2646 31.1698V31.1666ZM31.5071 29.2528H31.7072L32.1913 30.6566H32.2009L32.685 29.2528H32.8819L32.3333 30.8567H32.0589L31.5103 29.2528H31.5071ZM33.9824 29.327C34.0695 29.3754 34.1244 29.4432 34.1631 29.5271C34.2018 29.6046 34.2212 29.6885 34.2212 29.7853C34.2212 29.8692 34.2018 29.9531 34.1631 30.0306C34.1244 30.108 34.0663 30.1726 33.9824 30.2306C33.8985 30.2758 33.7952 30.3049 33.6597 30.3049H33.3111V30.8535H33.1175V29.2528H33.6597C33.7719 29.249 33.8831 29.2746 33.9824 29.327ZM33.9178 30.0499C33.9921 29.9918 34.0308 29.9079 34.0308 29.7756C34.0308 29.6497 33.9921 29.5561 33.9178 29.5077C33.837 29.4537 33.7406 29.4276 33.6435 29.4335H33.3111V30.1338H33.6435C33.7468 30.1338 33.8404 30.108 33.9178 30.0499ZM34.4955 29.2528H35.141C35.2442 29.2528 35.3314 29.2721 35.4056 29.3173C35.4702 29.3561 35.5218 29.4141 35.5476 29.4722C35.5799 29.5368 35.596 29.5949 35.596 29.6594C35.596 29.724 35.5767 29.795 35.5476 29.8401C35.4979 29.9208 35.4213 29.9813 35.3314 30.0112V30.0209C35.3701 30.0209 35.4153 30.0402 35.4734 30.0596C35.5315 30.0886 35.5702 30.1241 35.6154 30.1822C35.6541 30.2403 35.6735 30.3049 35.6735 30.392C35.6735 30.4662 35.6541 30.5437 35.6251 30.6082C35.5863 30.6728 35.5379 30.7341 35.4637 30.7793C35.3862 30.8277 35.3023 30.8438 35.1894 30.8438H34.5149V29.2528H34.4955ZM35.0829 29.9531C35.17 29.9531 35.2442 29.937 35.3088 29.8886C35.3766 29.8401 35.4056 29.7756 35.4056 29.6788C35.4056 29.5949 35.3766 29.5271 35.3088 29.4819C35.2539 29.4432 35.1797 29.4141 35.0829 29.4141H34.6956V29.9531H35.0829ZM35.1313 30.6954C35.2281 30.6954 35.312 30.676 35.3766 30.6308C35.4443 30.5824 35.4734 30.505 35.4734 30.4017C35.4734 30.2952 35.4443 30.2306 35.3766 30.1822C35.3034 30.1359 35.2177 30.1134 35.1313 30.1177H34.6956V30.6954H35.1313ZM36.0995 30.789C36.0225 30.7311 35.9633 30.6528 35.9284 30.5631C35.8897 30.4662 35.8703 30.363 35.8703 30.2403C35.8703 30.1145 35.8897 30.0144 35.9284 29.9176C35.9672 29.8208 36.0252 29.7466 36.1091 29.6917C36.1834 29.6336 36.2802 29.6046 36.3835 29.6046C36.4867 29.6046 36.5739 29.6336 36.6416 29.6788C36.7062 29.7272 36.7546 29.795 36.7901 29.8595H36.8095V29.6336H37.0096V30.8374H36.8095V30.5889H36.7901C36.7539 30.6635 36.7022 30.7295 36.6384 30.7825C36.5739 30.8277 36.4867 30.8567 36.3835 30.8567C36.2705 30.8761 36.1737 30.8471 36.0995 30.7922V30.789ZM36.7062 30.5727C36.7707 30.4856 36.803 30.3726 36.803 30.25C36.803 30.1177 36.7707 30.0112 36.7062 29.9273C36.6749 29.8844 36.6335 29.8498 36.5856 29.8267C36.5378 29.8036 36.485 29.7927 36.4319 29.795C36.3791 29.7924 36.3264 29.8028 36.2786 29.8253C36.2308 29.8478 36.1892 29.8817 36.1576 29.9241C36.0898 30.0112 36.0607 30.1241 36.0607 30.2468C36.0607 30.3823 36.0898 30.4856 36.1576 30.5824C36.1892 30.6248 36.2308 30.6587 36.2786 30.6812C36.3264 30.7037 36.3791 30.7141 36.4319 30.7115C36.5545 30.7051 36.6384 30.6566 36.7062 30.5727ZM37.3516 29.6497H37.5517V29.8692H37.5711C37.5969 29.8046 37.6453 29.7369 37.7228 29.6885C37.7873 29.6433 37.8745 29.6142 37.9777 29.6142C38.0642 29.6126 38.1492 29.637 38.2217 29.6842C38.2941 29.7313 38.3508 29.7992 38.3844 29.8789C38.4166 29.9563 38.4328 30.0402 38.4328 30.1371V30.8567H38.2327V30.1629C38.2327 30.0402 38.2036 29.9563 38.1359 29.8886C38.1056 29.8568 38.069 29.8318 38.0284 29.8151C37.9878 29.7984 37.9441 29.7905 37.9003 29.7917C37.797 29.7917 37.7131 29.8305 37.6453 29.8982C37.5808 29.9628 37.5485 30.0499 37.5485 30.1629V30.8567H37.3516V29.6497ZM38.7652 29.1495H38.9653V30.108H38.975L39.4268 29.6497H39.6559L39.1266 30.1919L39.685 30.8567H39.459L38.9814 30.2694H38.975V30.8567H38.7749V29.1463H38.7652V29.1495Z" fill="white"/>
</svg>
