<svg width="107" height="65" viewBox="0 0 107 65" fill="none" xmlns="http://www.w3.org/2000/svg">
<g clip-path="url(#clip0_5_2644)">
<path d="M43.7662 8.73254C44.4658 5.92645 47.3774 3.65166 50.2694 3.65166L76.1255 2.53345C77.1728 2.53345 79.3384 5.67965 79.9739 6.94906C80.3935 7.78733 80.2521 9.91741 79.9739 11.0334L71.125 48.5334C70.4254 51.3395 67.5138 53.6143 64.6218 53.6143H34.0309C33.0708 53.6143 31.881 53.3392 30.1612 52.0323C28.785 50.9865 27.8891 49.5888 27.6256 48.5334L43.7662 8.73254Z" fill="#BBE8F7"/>
<path d="M36.2399 7.85519C37.0416 4.63991 40.3777 2.03342 43.6915 2.03342H74.0635C76.8249 2.03342 78.5219 4.2055 77.8538 6.88489L68.056 46.1819C67.3879 48.8613 64.6078 51.0334 61.8464 51.0334H32.4744C28.6084 51.0334 26.2326 47.9925 27.1678 44.2413L36.2399 7.85519Z" fill="#DEF3FF"/>
<path fill-rule="evenodd" clip-rule="evenodd" d="M73.9446 2.51021H43.5726C40.5303 2.51021 37.4673 4.90324 36.7313 7.85519L27.6592 44.2413C26.7896 47.7292 28.9986 50.5566 32.5933 50.5566H61.9653C64.4553 50.5566 66.9622 48.598 67.5646 46.1819L77.3625 6.88489C77.9649 4.46882 76.4346 2.51021 73.9446 2.51021ZM43.6915 2.03342C40.3777 2.03342 37.0416 4.63991 36.2399 7.85519L27.1678 44.2413C26.2326 47.9925 28.6084 51.0334 32.4744 51.0334H61.8464C64.6078 51.0334 67.3879 48.8613 68.056 46.1819L77.8538 6.88489C78.5219 4.2055 76.8249 2.03342 74.0635 2.03342H43.6915Z" fill="#B6E9FF"/>
<path fill-rule="evenodd" clip-rule="evenodd" d="M71.125 48.5334C70.4254 51.3395 67.5138 53.6143 64.6218 53.6143H33.8466C31.3283 53.6143 28.125 50.5334 27.6257 48.5334L27.6448 48.4864C26.974 47.3236 26.7674 45.8476 27.1679 44.2413L36.24 7.85518C37.0416 4.63991 40.3778 2.03341 43.6915 2.03341H74.0635C74.8588 2.03341 75.5659 2.21359 76.1535 2.53417C77.2109 2.58884 79.344 5.69084 79.9739 6.94905C80.3935 7.78732 80.2522 9.9174 79.9739 11.0334L71.125 48.5334ZM80.4515 11.1492C80.4512 11.1503 80.4509 11.1513 80.4507 11.1523L71.6026 48.6493L71.6018 48.6523C70.8476 51.6773 67.7394 54.1057 64.6218 54.1057H33.8466C32.4123 54.1057 30.8692 53.2449 29.6573 52.1953C28.4448 51.1452 27.4338 49.7933 27.1489 48.6525L27.1274 48.5662C26.4606 47.3095 26.2816 45.7648 26.6911 44.1225L35.7632 7.73631C36.6194 4.30213 40.1522 1.54202 43.6915 1.54202H74.0635C74.8962 1.54202 75.6547 1.7228 76.3023 2.0569C76.4969 2.08903 76.6798 2.16958 76.8405 2.26206C77.0398 2.37675 77.2398 2.53017 77.4341 2.70259C77.8228 3.04747 78.2283 3.50425 78.6092 3.98519C79.37 4.94577 80.0804 6.06416 80.4133 6.72908C80.5548 7.01183 80.6336 7.36631 80.6777 7.72366C80.7229 8.08882 80.7361 8.4935 80.7269 8.89826C80.7086 9.70295 80.6005 10.5499 80.4515 11.1492Z" fill="url(#paint0_linear_5_2644)"/>
<path fill-rule="evenodd" clip-rule="evenodd" d="M71.125 48.5335C70.4254 51.3396 67.5138 53.6144 64.6218 53.6144H33.8466C31.3282 53.6144 28.125 50.5335 27.6256 48.5335L27.6447 48.4865C26.974 47.3237 26.7674 45.8477 27.1678 44.2414L36.2399 7.85528C37.0416 4.64 40.3777 2.03351 43.6915 2.03351H74.0635C74.8588 2.03351 75.5658 2.21369 76.1535 2.53427C77.2109 2.58893 79.344 5.69094 79.9739 6.94915C80.3935 7.78742 80.2521 9.91749 79.9739 11.0335L71.125 48.5335ZM80.9458 11.269C80.9452 11.2712 80.9447 11.2733 80.9442 11.2755L72.0968 48.7693L72.0953 48.7754C71.2846 52.027 67.9729 54.6144 64.6218 54.6144H33.8466C32.2309 54.6144 30.5713 53.6598 29.3243 52.5799C28.0761 51.4989 26.9767 50.0624 26.6554 48.7758L26.6486 48.7484C25.9414 47.3803 25.767 45.7264 26.1975 43.9995L35.2696 7.61336C36.1824 3.95261 39.9186 1.03351 43.6915 1.03351H74.0635C74.9424 1.03351 75.7583 1.2187 76.4685 1.57107C76.7112 1.62358 76.9242 1.72353 77.0942 1.82133C77.3334 1.95897 77.5618 2.13604 77.7717 2.32227C78.1915 2.6948 78.6179 3.17703 79.0079 3.66951C79.7859 4.65178 80.5167 5.7995 80.8681 6.5015C81.0475 6.85999 81.1355 7.2809 81.1825 7.66136C81.2315 8.05773 81.2449 8.48824 81.2353 8.90992C81.2164 9.74351 81.1051 10.6271 80.9458 11.269Z" fill="#0071AB"/>
<path d="M39.2521 8.91463C39.7865 6.77111 42.0106 5.03345 44.2198 5.03345H71.7404C73.3972 5.03345 74.4155 6.3367 74.0146 7.94433L72.2249 15.1226C71.8241 16.7302 70.156 18.0334 68.4991 18.0334H39.9785C38.3217 18.0334 37.3035 16.7302 37.7043 15.1226L39.2521 8.91463Z" fill="#CCD2D8"/>
<path fill-rule="evenodd" clip-rule="evenodd" d="M44.3089 4.67587H71.8296C73.6899 4.67587 74.8332 6.13922 74.3832 7.94435L72.5934 15.1226C72.1434 16.9277 70.2704 18.3911 68.41 18.3911H39.8894C38.029 18.3911 36.8857 16.9277 37.3357 15.1226L38.8836 8.91465C39.4672 6.57364 41.8963 4.67587 44.3089 4.67587ZM44.2198 5.03347C42.0106 5.03347 39.7865 6.77113 39.2521 8.91465L37.7043 15.1226C37.3035 16.7302 38.3217 18.0335 39.9785 18.0335H68.4991C70.156 18.0335 71.8241 16.7302 72.2249 15.1226L74.0146 7.94435C74.4155 6.33672 73.3972 5.03347 71.7404 5.03347H44.2198Z" fill="white"/>
<g opacity="0.5" style="mix-blend-mode:multiply">
<path d="M44.2197 5.03345C42.0106 5.03345 39.7865 6.77111 39.252 8.91463L37.7042 15.1226C37.4497 16.1434 37.7673 17.0415 38.4573 17.5611C38.3301 17.1493 38.3171 16.6777 38.4421 16.1765L40.0363 9.78251C40.5451 7.74174 42.6626 6.08737 44.7658 6.08737H72.4782C73.083 6.08737 73.6027 6.26101 73.9993 6.55972C73.7184 5.65074 72.8806 5.03345 71.7403 5.03345H44.2197Z" fill="#AEAEAE"/>
</g>
<path d="M35.1433 26.4298C35.4747 25.7898 35.6751 25.1119 36.0591 24.4889C36.7539 23.3618 38.0645 22.555 39.3681 22.555L49.9035 21.5108C50.6909 21.5108 51.2323 22.8991 51.6234 23.5378C52.1124 24.3363 51.8691 24.8891 51.7327 25.4659L50.6909 29.6441C50.2901 31.2518 48.622 32.555 46.9652 32.555H37.0045C36.2609 32.555 35.5776 32.2647 35.1618 31.83C35.0182 31.6798 34.692 31.2213 34.3961 30.6842C33.838 29.6714 34.1466 28.3551 34.7891 27.1141L35.1433 26.4298Z" fill="#A3CDF1"/>
<path d="M31.7752 39.2911C32.0865 38.6759 32.278 38.0284 32.6309 37.4257C33.3021 36.2789 34.5793 35.454 35.8408 35.454L45.9344 34.4098C46.6879 34.4098 47.1911 35.7981 47.5586 36.4367C48.018 37.2352 47.7792 37.7881 47.6425 38.3648L46.6007 42.5431C46.1999 44.1507 44.5896 45.454 43.004 45.454H33.4716C32.7599 45.454 32.1091 45.1637 31.7158 44.7289C31.5758 44.5741 31.2534 44.0914 30.9695 43.5327C30.4662 42.5427 30.7676 41.2818 31.3711 40.0895L31.7752 39.2911Z" fill="#A3CDF1"/>
<path d="M53.1766 26.4912C53.5079 25.8512 53.7083 25.1733 54.0924 24.5503C54.7872 23.4232 56.0977 22.6164 57.4014 22.6164L67.9368 21.5722C68.7242 21.5722 69.2656 22.9605 69.6566 23.5992C70.1456 24.3977 69.9023 24.9505 69.7659 25.5273L68.7242 29.7055C68.3233 31.3132 66.6553 32.6164 64.9984 32.6164H55.0377C54.2941 32.6164 53.6108 32.3261 53.195 31.8914C53.0514 31.7412 52.7252 31.2827 52.4293 30.7456C51.8713 29.7328 52.1799 28.4165 52.8223 27.1755L53.1766 26.4912Z" fill="#A3CDF1"/>
<path d="M49.5058 39.2911C49.8172 38.6759 50.0087 38.0284 50.3616 37.4257C51.0328 36.2789 52.31 35.454 53.5714 35.454L63.6651 34.4098C64.4186 34.4098 64.9218 35.7981 65.2892 36.4367C65.7486 37.2352 65.5099 37.7881 65.3732 38.3648L64.3314 42.5431C63.9306 44.1507 62.3203 45.454 60.7346 45.454H51.2022C50.4906 45.454 49.8398 45.1637 49.4465 44.7289C49.3065 44.5741 48.9841 44.0914 48.7002 43.5327C48.1969 42.5427 48.4982 41.2818 49.1017 40.0895L49.5058 39.2911Z" fill="#A3CDF1"/>
<path d="M34.8924 23.9441C35.2932 22.3364 36.9613 21.0332 38.6181 21.0332H48.7085C50.3653 21.0332 51.3835 22.3365 50.9827 23.9441L49.9409 28.1223C49.5401 29.73 47.872 31.0332 46.2152 31.0332H36.1249C34.468 31.0332 33.4498 29.73 33.8506 28.1223L34.8924 23.9441Z" fill="white"/>
<path d="M31.5613 36.9441C31.9622 35.3364 33.6303 34.0332 35.2871 34.0332H44.7226C46.3794 34.0332 47.3977 35.3364 46.9968 36.9441L45.9551 41.1223C45.5543 42.7299 43.8862 44.0332 42.2293 44.0332H32.7938C31.137 44.0332 30.1188 42.7299 30.5196 41.1223L31.5613 36.9441Z" fill="white"/>
<path d="M52.8924 23.9441C53.2932 22.3364 54.9613 21.0332 56.6181 21.0332H66.7085C68.3653 21.0332 69.3835 22.3365 68.9827 23.9441L67.941 28.1223C67.5401 29.73 65.872 31.0332 64.2152 31.0332H54.1249C52.468 31.0332 51.4498 29.73 51.8506 28.1223L52.8924 23.9441Z" fill="white"/>
<path d="M49.3055 36.9441C49.7063 35.3364 51.3744 34.0332 53.0312 34.0332H62.4562C64.113 34.0332 65.1312 35.3364 64.7304 36.9441L63.6886 41.1223C63.2878 42.7299 61.6197 44.0332 59.9629 44.0332H50.5379C48.8811 44.0332 47.8629 42.7299 48.2637 41.1223L49.3055 36.9441Z" fill="white"/>
<rect width="1.72588" height="5.17765" transform="matrix(-0.258819 0.965926 -1 -4.2222e-08 59.1959 38.1671)" fill="#A3CDF1"/>
<path d="M61.4557 7.56372L64.3324 7.56372L64.625 7.95199L64.1097 8.34025H61.233L60.9404 7.95199L61.4557 7.56372Z" fill="#001F3E"/>
<path d="M63.2074 6.03348L62.6922 6.42174L62.4417 7.29534L63.2495 7.29534L63.5 6.42174L63.2074 6.03348Z" fill="#001F3E"/>
<path d="M60.3463 16.0081L60.8615 15.6199L61.112 14.7463L60.3042 14.7463L60.0537 15.6199L60.3463 16.0081Z" fill="#001F3E"/>
<path d="M60.565 10.6702H63.3324L63.625 11.0585L63.1097 11.4467H60.3424L60.0498 11.0585L60.565 10.6702Z" fill="#001F3E"/>
<path d="M61.0762 8.53402L60.5195 10.4754L60.0042 10.8636L59.7117 10.4754L60.2683 8.53402L60.7836 8.14575L61.0762 8.53402Z" fill="#001F3E"/>
<path d="M65.0137 8.52135L64.457 10.4627L63.9417 10.851L63.6492 10.4627L64.2058 8.52135L64.7211 8.13309L65.0137 8.52135Z" fill="#929292"/>
<path d="M60.1133 11.6219L59.5566 13.5633L59.0413 13.9515L58.7488 13.5633L59.3054 11.6219L59.8207 11.2337L60.1133 11.6219Z" fill="#929292"/>
<path d="M64.0137 11.6405L63.4292 13.6789L62.9139 14.0671L62.6213 13.6789L63.2058 11.6405L63.7211 11.2522L64.0137 11.6405Z" fill="#001F3E"/>
<path d="M62.1215 14.553L59.4023 14.553L59.1097 14.1647L59.625 13.7765L62.3441 13.7765L62.6367 14.1647L62.1215 14.553Z" fill="#001F3E"/>
<path d="M55.5329 7.56372L58.4096 7.56372L58.7022 7.95199L58.1869 8.34025H55.3102L55.0176 7.95199L55.5329 7.56372Z" fill="#001F3E"/>
<path d="M57.2846 6.03348L56.7694 6.42174L56.5189 7.29534L57.3267 7.29534L57.5772 6.42174L57.2846 6.03348Z" fill="#001F3E"/>
<path d="M54.4235 16.0081L54.9387 15.6199L55.1892 14.7463L54.3814 14.7463L54.1309 15.6199L54.4235 16.0081Z" fill="#001F3E"/>
<path d="M54.6423 10.6702H57.4096L57.7022 11.0585L57.187 11.4467H54.4196L54.127 11.0585L54.6423 10.6702Z" fill="#001F3E"/>
<path d="M55.1534 8.53402L54.5967 10.4754L54.0815 10.8636L53.7889 10.4754L54.3455 8.53402L54.8608 8.14575L55.1534 8.53402Z" fill="#001F3E"/>
<path d="M59.0909 8.52135L58.5342 10.4627L58.019 10.851L57.7264 10.4627L58.283 8.52135L58.7983 8.13309L59.0909 8.52135Z" fill="#929292"/>
<path d="M54.1905 11.6219L53.6338 13.5633L53.1186 13.9515L52.826 13.5633L53.3826 11.6219L53.8979 11.2337L54.1905 11.6219Z" fill="#929292"/>
<path d="M58.0909 11.6405L57.5064 13.6789L56.9911 14.0671L56.6986 13.6789L57.2831 11.6405L57.7983 11.2522L58.0909 11.6405Z" fill="#001F3E"/>
<path d="M56.1987 14.553L53.4795 14.553L53.1869 14.1647L53.7022 13.7765L56.4213 13.7765L56.7139 14.1647L56.1987 14.553Z" fill="#001F3E"/>
<path d="M67.4556 7.56372L70.3324 7.56372L70.6249 7.95199L70.1097 8.34025H67.2329L66.9404 7.95199L67.4556 7.56372Z" fill="#001F3E"/>
<path d="M69.2074 6.03348L68.6921 6.42174L68.4416 7.29534L69.2494 7.29534L69.4999 6.42174L69.2074 6.03348Z" fill="#001F3E"/>
<path d="M66.3463 16.0081L66.8615 15.6198L67.112 14.7462L66.3042 14.7462L66.0537 15.6198L66.3463 16.0081Z" fill="#001F3E"/>
<path d="M66.565 10.6702H69.3323L69.6249 11.0584L69.1097 11.4467H66.3423L66.0497 11.0584L66.565 10.6702Z" fill="#001F3E"/>
<path d="M67.0761 8.53402L66.5194 10.4754L66.0042 10.8636L65.7116 10.4754L66.2683 8.53402L66.7835 8.14575L67.0761 8.53402Z" fill="#001F3E"/>
<path d="M71.0136 8.52135L70.4569 10.4627L69.9417 10.851L69.6491 10.4627L70.2058 8.52135L70.721 8.13309L71.0136 8.52135Z" fill="#929292"/>
<path d="M66.1132 11.6219L65.5566 13.5633L65.0413 13.9515L64.7487 13.5633L65.3054 11.6219L65.8207 11.2337L66.1132 11.6219Z" fill="#929292"/>
<path d="M70.0136 11.6405L69.4291 13.6789L68.9138 14.0671L68.6213 13.6789L69.2058 11.6405L69.721 11.2522L70.0136 11.6405Z" fill="#001F3E"/>
<path d="M68.1214 14.553L65.4023 14.553L65.1097 14.1647L65.6249 13.7765L68.3441 13.7765L68.6367 14.1647L68.1214 14.553Z" fill="#001F3E"/>
<path d="M41.646 23.1518C41.6635 23.0863 41.7328 23.0332 41.8006 23.0332H43.5549C43.6228 23.0332 43.6635 23.0863 43.646 23.1518L43.192 24.8461C43.1744 24.9117 43.2152 24.9648 43.2831 24.9648H45.0373C45.1052 24.9648 45.1459 25.0179 45.1284 25.0834L44.6743 26.778C44.6568 26.8435 44.5875 26.8966 44.5197 26.8966H42.7654C42.6976 26.8966 42.6283 26.9498 42.6108 27.0153L42.1567 28.7101C42.1391 28.7756 42.0699 28.8287 42.002 28.8287H40.2477C40.1799 28.8287 40.1391 28.7756 40.1567 28.7101L40.6108 27.0153C40.6283 26.9498 40.5876 26.8966 40.5197 26.8966H38.7654C38.6975 26.8966 38.6568 26.8435 38.6743 26.778L39.1284 25.0834C39.1459 25.0179 39.2152 24.9648 39.283 24.9648H41.0374C41.1052 24.9648 41.1744 24.9117 41.192 24.8461L41.646 23.1518Z" fill="#A3CDF1"/>
<path d="M63.0021 26.8966C63.07 26.8966 63.1392 26.8435 63.1568 26.778L63.6108 25.0834C63.6284 25.0179 63.5876 24.9648 63.5198 24.9648L57.7655 24.9648C57.6976 24.9648 57.6284 25.0179 57.6108 25.0834L57.1568 26.778C57.1392 26.8435 57.18 26.8966 57.2478 26.8966L63.0021 26.8966Z" fill="#A3CDF1"/>
<path d="M37.8124 36.0331L36.08 37.411L37.1757 38.7884L35.4426 40.167L36.5387 41.545L38.2718 40.1664L39.3683 41.5449L41.1006 40.167L40.0041 38.7884L41.7357 37.4111L40.6396 36.0331L38.908 37.4105L37.8124 36.0331Z" fill="#A3CDF1"/>
<ellipse cx="1.29441" cy="1.29441" rx="1.29441" ry="1.29441" transform="matrix(1 0 -0.173648 0.984808 55.7466 35.1469)" fill="#A3CDF1"/>
<ellipse cx="1.29441" cy="1.29441" rx="1.29441" ry="1.29441" transform="matrix(1 0 -0.173648 0.984808 54.6933 40.3244)" fill="#A3CDF1"/>
<path d="M13.3371 25.2633L17.4389 22.9895L19.3086 26.3623L17.2477 27.5047C15.9193 27.3135 14.5197 26.5194 13.3371 25.2633Z" fill="url(#paint1_linear_5_2644)"/>
<path d="M19.6545 27.083C17.3127 28.439 13.8372 26.7397 11.8919 23.2877C10.1279 20.1574 10.2194 16.7172 11.865 15.0313C12.3494 14.5861 13.2113 13.8633 14.5006 13.3364C17.595 12.0719 18.4271 14.9252 20.3725 18.3772C22.3178 21.8293 21.9964 25.727 19.6545 27.083Z" fill="url(#paint2_linear_5_2644)"/>
<path d="M16.4401 27.3061C18.1111 27.7856 19.0587 27.5591 19.8113 27.31C20.564 27.0609 21.7009 26.2155 21.7009 26.2155C21.9113 25.8111 21.5807 24.7219 21.6637 24.1831L16.4401 27.3061Z" fill="white"/>
<path d="M21.4842 26.3518C19.1282 27.7159 15.5089 26.2013 13.4653 22.3204C11.4614 18.7644 11.8715 14.8385 14.2274 13.4744C16.5833 12.1103 20.1177 13.8871 22.1216 17.4431C24.1255 20.9991 23.8401 24.9877 21.4842 26.3518Z" fill="white"/>
<path d="M21.4128 25.9805C19.0709 27.3365 15.5955 25.6373 13.6502 22.1852C11.7048 18.7331 12.0263 14.8354 14.3681 13.4795C16.71 12.1235 20.1854 13.8227 22.1307 17.2748C24.0761 20.7268 23.7546 24.6245 21.4128 25.9805Z" fill="#FEEE05"/>
<path fill-rule="evenodd" clip-rule="evenodd" d="M22.3869 27.0596L22.3842 27.0617L22.3727 27.0701C22.363 27.0772 22.3491 27.0874 22.3315 27.1002C22.2963 27.1257 22.2459 27.1619 22.1833 27.2058C22.0586 27.2935 21.8838 27.4132 21.6835 27.5416C21.3032 27.7854 20.7594 28.1076 20.279 28.2665C19.6355 28.4795 18.7938 28.6985 17.541 28.5245C15.0926 28.284 12.5851 26.3822 11.0421 23.6443L11.8895 23.2886L11.0421 23.6443C9.10561 20.2078 9.11812 16.2843 11.088 14.2662L11.1021 14.2517L11.117 14.2381C11.6223 13.7737 12.5323 13.0077 13.8934 12.4352C14.4891 12.1493 15.141 12.0129 15.819 12.0147C18.4617 11.9333 21.3016 13.9388 22.9805 16.918C23.7069 18.2072 24.1511 19.5531 24.3221 20.834C24.7484 23.369 24.1613 25.8261 22.3869 27.0596ZM23.3336 20.7952C23.1828 19.6471 22.7849 18.4357 22.1307 17.2747C20.6065 14.57 18.143 12.9413 16.0214 13.0151C15.464 13.0114 14.9291 13.1231 14.4391 13.3617C13.1839 13.8862 12.3417 14.5932 11.865 15.0312C10.2194 16.7171 10.1279 20.1573 11.8919 23.2876C13.2902 25.7689 15.479 27.3445 17.4691 27.531C18.5298 27.6819 19.2289 27.5027 19.8113 27.31C20.5639 27.0608 21.7008 26.2154 21.7008 26.2154L21.7012 26.2147C23.1637 25.2111 23.7285 23.1151 23.3336 20.7952Z" fill="#0071AB"/>
<path d="M20.2632 24.0297C18.7767 24.8536 16.5517 23.6294 15.2933 21.2955C14.035 18.9616 14.2199 16.4018 15.7063 15.578C17.1927 14.7542 19.4178 15.9784 20.6762 18.3122C21.9345 20.6461 21.7496 23.2059 20.2632 24.0297Z" fill="#FFD200"/>
<path fill-rule="evenodd" clip-rule="evenodd" d="M17.4508 24.5257C16.3965 23.9457 15.4098 22.9248 14.7066 21.6207C14.0035 20.3165 13.6886 18.9232 13.7762 17.7104C13.8638 16.4971 14.3636 15.4182 15.3311 14.882C16.2985 14.3458 17.464 14.5017 18.5187 15.082C19.573 15.662 20.5597 16.6829 21.2629 17.987C21.966 19.2912 22.2809 20.6845 22.1933 21.8973C22.1056 23.1107 21.6059 24.1895 20.6384 24.7257C19.671 25.2619 18.5054 25.106 17.4508 24.5257ZM15.2933 21.2955C16.5517 23.6294 18.7767 24.8535 20.2632 24.0297C21.7496 23.2059 21.9345 20.6461 20.6762 18.3122C19.4178 15.9783 17.1927 14.7542 15.7063 15.578C14.2199 16.4018 14.035 18.9616 15.2933 21.2955Z" fill="#FEE505"/>
<path d="M20.1927 24.0515C18.7436 24.8904 16.5081 23.6881 15.1994 21.366C13.8907 19.0439 14.0044 16.4813 15.4534 15.6424C16.9024 14.8035 19.138 16.0059 20.4467 18.328C21.7554 20.6501 21.6417 23.2126 20.1927 24.0515Z" fill="#FFF99D"/>
<path d="M20.2632 24.0297C18.7767 24.8536 16.5517 23.6294 15.2933 21.2955C14.035 18.9616 14.2199 16.4018 15.7063 15.578C17.1927 14.7542 19.4178 15.9784 20.6762 18.3122C21.9345 20.6461 21.7496 23.2059 20.2632 24.0297Z" fill="#FFD200"/>
<path d="M18.8074 24.2729C19.3029 24.3513 19.7799 24.2885 20.201 24.0631C21.6994 23.2612 21.9218 20.7044 20.6978 18.3523C19.4738 16.0002 17.267 14.7436 15.7686 15.5455C15.39 15.7481 15.0928 16.0628 14.8799 16.4579C15.0594 16.2298 15.277 16.042 15.5316 15.9043C17.0001 15.1103 19.1462 16.2846 20.3252 18.527C21.5042 20.7694 21.2696 23.2308 19.8011 24.0248C19.4945 24.1906 19.1582 24.2705 18.8074 24.2729Z" fill="#DEB702"/>
<path d="M17.293 16.9295C17.4862 16.996 17.3197 17.3759 17.3485 17.581L17.4049 17.9822C17.8647 18.248 18.7607 18.5651 18.982 19.0004C19.0665 19.1668 18.5304 19.3678 18.4244 19.4032C18.3818 19.4174 18.3291 19.4182 18.2706 19.4032L18.2378 19.3933C18.0739 19.3369 17.92 19.1693 17.7834 19.0004L17.7105 18.9088C17.5669 18.7253 17.3615 18.5728 17.1315 18.4936C16.7582 18.3651 16.5088 18.4663 16.5536 18.7847C16.5897 19.042 16.789 19.2405 17.2463 19.499L17.7174 19.762C18.3869 20.2311 19.1997 20.9851 19.2891 21.6211C19.2277 21.8668 19.1048 21.9493 18.7977 22.051C18.4906 22.1528 18.3169 22.2395 17.9968 22.1937L18.4906 22.5424C18.5129 22.7009 18.0007 22.8566 17.8764 22.8646C17.8399 22.8669 17.7991 22.861 17.7553 22.8459L17.702 22.8276C17.5083 22.7609 17.3285 22.5405 17.2997 22.3355L17.2454 21.9493C16.7387 21.6766 16.3222 21.2783 16.099 20.8209C16.0227 20.6649 16.0978 20.5297 16.1455 20.5059C16.1931 20.4821 16.5759 20.251 16.6479 20.2698L16.7093 20.454C16.8619 20.5066 16.6572 20.7068 16.7898 20.8614L16.9059 20.9997C17.0642 21.1894 17.2972 21.3472 17.572 21.4419C17.9868 21.5847 18.2336 21.4678 18.1889 21.1498C18.1526 20.8921 17.9377 20.6739 17.4666 20.411L16.9654 20.1229C16.2667 19.7383 15.9344 19.1915 15.8471 18.5702C15.7965 18.2102 15.8781 17.9685 16.0699 17.8401C16.2092 17.7468 16.4636 17.5671 16.6479 17.581L16.595 17.3215C16.5705 17.1471 16.7093 17.1372 16.8105 17.0523C16.8364 17.0546 17.1718 16.8201 17.2007 16.83L17.293 16.9295Z" fill="#DEB702"/>
<path d="M17.4375 16.8432C17.6308 16.9097 17.811 17.1303 17.8399 17.3353L17.8962 17.7365C18.3561 18.0023 18.7595 18.4017 18.9808 18.8369C19.0992 19.0703 18.9662 19.2098 18.7619 19.1575L18.7291 19.1477C18.5652 19.0912 18.4114 18.9236 18.2747 18.7547L18.2019 18.6631C18.0582 18.4796 17.8529 18.3272 17.6229 18.248C17.2495 18.1194 17.0002 18.2207 17.0449 18.5391C17.0811 18.7964 17.2804 18.9948 17.7376 19.2534L18.2087 19.5163C18.8783 19.9854 19.3289 20.4439 19.4183 21.0798C19.5002 21.757 19.1328 22.0402 18.4881 21.948L18.5445 22.3493C18.5733 22.5543 18.4399 22.6668 18.2466 22.6003L18.1934 22.5819C17.9997 22.5152 17.8198 22.2949 17.791 22.0898L17.7368 21.7037C17.2301 21.431 16.8135 21.0326 16.5903 20.5752C16.4737 20.3368 16.612 20.1965 16.8202 20.2507L16.8519 20.2603C17.0044 20.3128 17.1485 20.4612 17.2811 20.6157L17.3973 20.754C17.5555 20.9438 17.7885 21.1016 18.0634 21.1962C18.4782 21.339 18.7249 21.2221 18.6802 20.9042C18.644 20.6464 18.4291 20.4283 17.9579 20.1654L17.4567 19.8773C16.7581 19.4926 16.4258 18.9458 16.3385 18.3245C16.2512 17.7032 16.5577 17.4341 17.1449 17.4921L17.0864 17.0759C17.0575 16.8708 17.1906 16.7582 17.3843 16.8249L17.4375 16.8432Z" fill="#FFF344"/>
<path d="M76.1463 59.3169L71.5561 52.5233L65.97 56.2976L68.2762 59.7109C70.4978 60.4655 73.3082 60.3371 76.1463 59.3169Z" fill="url(#paint3_linear_5_2644)"/>
<path d="M64.8599 57.1466C67.4348 61.1153 74.1971 61.2213 79.9639 57.3834C85.1931 53.9032 87.7766 48.4698 86.5481 44.5386C86.146 43.4611 85.3757 41.6517 83.7841 39.809C79.964 35.3864 76.4063 39.1734 70.6395 43.0114C64.8726 46.8493 62.285 53.1779 64.8599 57.1466Z" fill="url(#paint4_linear_5_2644)"/>
<path d="M69.6921 60.0413C66.7082 59.4645 65.411 58.3606 64.4355 57.3761C63.4601 56.3915 62.3583 54.1732 62.3583 54.1732C62.3509 53.3763 63.7291 51.941 64.0267 51.0355L69.6921 60.0413Z" fill="white"/>
<path d="M62.588 54.5575C65.1784 58.5501 72.0186 59.0577 78.2784 54.6295C84.2189 50.676 86.6907 44.2332 84.1003 40.2406C81.51 36.248 74.5944 36.2164 68.6539 40.1699C62.7135 44.1234 59.9977 50.5649 62.588 54.5575Z" fill="white"/>
<path d="M62.9935 54.0353C65.5684 58.004 72.3307 58.11 78.0975 54.2721C83.8644 50.4341 86.452 44.1055 83.8771 40.1368C81.3022 36.1681 74.5399 36.0621 68.7731 39.9C63.0062 43.738 60.4186 50.0666 62.9935 54.0353Z" fill="#FEEE05"/>
<path fill-rule="evenodd" clip-rule="evenodd" d="M61.3631 54.6121L61.361 54.6082C59.7076 51.5392 60.6332 47.4963 63.2102 44.0195C64.4333 42.2406 66.1154 40.5692 68.1774 39.1969C72.958 36.0153 78.5942 35.2637 82.3033 37.3036C83.2813 37.7958 84.1192 38.4688 84.7664 39.3188C86.3793 41.2216 87.1651 43.0738 87.5744 44.1705L87.5815 44.1894L87.5875 44.2087C88.9545 48.5829 86.0815 54.4114 80.5597 58.0863C76.1695 61.0081 71.078 61.8756 67.3954 60.4292C65.4416 59.7575 64.3851 58.8241 63.5851 58.0167C63.0203 57.4466 62.4593 56.5701 62.0607 55.8905C61.8553 55.5402 61.6818 55.2224 61.5596 54.9922C61.4985 54.8769 61.4499 54.783 61.4163 54.7175C61.3996 54.6847 61.3865 54.659 61.3775 54.6412L61.3671 54.6204L61.3632 54.6125L61.3631 54.6121ZM67.91 59.5762C66.1377 58.971 65.1904 58.1378 64.4356 57.376C63.4602 56.3914 62.3584 54.1731 62.3584 54.1731L62.3584 54.1718C60.8747 51.4489 61.6553 47.7352 64.1089 44.4329C65.2538 42.7632 66.8337 41.1908 68.7732 39.9C73.2918 36.8927 78.4217 36.3069 81.6693 38.1035C82.5407 38.5393 83.2854 39.1373 83.8598 39.8971C85.4002 41.7091 86.1524 43.4781 86.5481 44.5385C87.7766 48.4696 85.1931 53.903 79.9639 57.3832C75.8186 60.1419 71.159 60.8629 67.91 59.5762Z" fill="#0071AB"/>
<path d="M66.3307 51.9064C67.9943 54.368 72.4317 54.2235 76.2419 51.5837C80.0522 48.9439 81.7924 44.8083 80.1289 42.3467C78.4653 39.8851 74.028 40.0296 70.2177 42.6695C66.4074 45.3093 64.6672 49.4448 66.3307 51.9064Z" fill="#FFD200"/>
<path fill-rule="evenodd" clip-rule="evenodd" d="M70.3892 54.373C72.3595 54.3088 74.5843 53.5482 76.6175 52.1395C78.6508 50.7308 80.1569 48.9066 80.9295 47.0704C81.7024 45.2337 81.7541 43.3397 80.7788 41.8965C79.8035 40.4532 78.0411 39.816 76.0704 39.8802C74.1002 39.9443 71.8754 40.705 69.8421 42.1137C67.8088 43.5224 66.3028 45.3465 65.5301 47.1827C64.7572 49.0194 64.7055 50.9135 65.6808 52.3567C66.6561 53.7999 68.4185 54.4371 70.3892 54.373ZM76.2419 51.5837C72.4317 54.2235 67.9943 54.368 66.3307 51.9064C64.6672 49.4448 66.4074 45.3093 70.2177 42.6695C74.028 40.0296 78.4654 39.8851 80.1289 42.3467C81.7924 44.8083 80.0522 48.9439 76.2419 51.5837Z" fill="#FEE505"/>
<path d="M66.4233 51.9962C68.0166 54.4517 72.4531 54.3495 76.3325 51.7679C80.2119 49.1863 82.0652 45.103 80.4719 42.6475C78.8787 40.192 74.4422 40.2942 70.5628 42.8757C66.6834 45.4573 64.8301 49.5407 66.4233 51.9962Z" fill="#FFF99D"/>
<path d="M66.3307 51.9064C67.9943 54.368 72.4317 54.2235 76.2419 51.5837C80.0522 48.9439 81.7924 44.8083 80.1289 42.3467C78.4653 39.8851 74.028 40.0296 70.2177 42.6695C66.4074 45.3093 64.6672 49.4448 66.3307 51.9064Z" fill="#FFD200"/>
<path d="M71.0882 51.9661L70.99 51.959C70.8993 51.9525 70.8228 51.93 70.7622 51.895C70.5847 51.7923 69.9827 50.9756 70.1222 50.7446L71.0492 50.7446C70.3334 50.515 69.6228 49.7994 69.6566 49.2068C69.6752 48.889 70.4359 48.8695 70.8349 48.8683L70.8972 48.8703C71.1994 48.8921 71.342 49.0923 71.4441 49.3016L71.4965 49.4156C71.5965 49.6448 71.8122 49.6677 72.2364 49.6982C72.9249 49.7477 73.6774 49.6198 73.9679 49.1385C74.2026 48.7496 73.9948 48.5196 73.2761 48.3003L72.5312 48.0799C72.1001 47.8678 71.7705 47.6405 71.5955 47.3641C71.3885 47.037 70.7348 46.2799 71.0492 45.759C71.697 44.73 73.4034 44.2929 74.8908 44.3789L75.2567 43.7725C75.4438 43.4626 75.5654 42.9774 75.9218 43.003L76.1061 42.5116C76.3018 42.5257 76.6648 43.3666 76.7111 43.4944C76.7493 43.5998 76.7309 43.7323 76.6463 43.8724L76.5244 44.17C77.0274 44.2929 77.2359 44.8661 77.4087 45.2142C77.4895 45.3771 77.5233 45.5593 77.5052 45.759C77.4763 46.0855 76.9898 46.362 76.5845 46.3618L76.5244 46.3596C76.243 46.3394 76.0988 46.1654 75.9883 45.9771L75.8951 45.8074C75.7698 45.5742 75.4355 45.4217 74.9287 45.3853C74.1637 45.3303 73.4602 45.6143 73.1702 46.0949C72.9351 46.4844 73.1541 46.739 73.8989 46.9595L74.8908 46.7498C75.2461 46.9595 75.4657 47.5704 75.5858 47.8555C75.7358 48.2112 75.6206 48.6658 75.306 49.1872C74.7392 50.1263 73.7128 50.6734 72.4525 50.8217L72.0728 51.4509C71.8858 51.7608 71.4454 51.9917 71.0882 51.9661Z" fill="#DEB702"/>
<path d="M70.4986 51.0991C70.1422 51.0735 70.0048 50.801 70.1918 50.4911L70.5578 49.8847C69.842 49.6551 69.4187 49.1931 69.4525 48.6005C69.4712 48.2827 69.9445 48.0096 70.3435 48.0083L70.4058 48.0104C70.708 48.0321 70.8506 48.2324 70.9527 48.4416L71.0051 48.5556C71.1051 48.7849 71.3831 48.9404 71.8073 48.9709C72.4959 49.0203 73.186 48.7599 73.4765 48.2786C73.7112 47.8897 73.5034 47.6596 72.7847 47.4404L72.0398 47.2199C71.0987 46.757 70.641 46.2214 71.221 45.2602C71.8689 44.2313 73.0507 43.6372 74.3994 43.519L74.7653 42.9126C74.9524 42.6027 75.3936 42.3718 75.7499 42.3974L75.8482 42.4044C76.2053 42.4301 76.342 42.7025 76.1549 43.0124L75.8027 43.5961C76.6163 43.8173 77.0706 44.2725 77.0138 44.8991C76.9849 45.2256 76.4984 45.5021 76.0931 45.5019L76.033 45.4997C75.7517 45.4795 75.6074 45.3055 75.4969 45.1171L75.4037 44.9475C75.2784 44.7143 74.9441 44.5618 74.4373 44.5253C73.6723 44.4704 72.9688 44.7543 72.6788 45.2349C72.4437 45.6245 72.6627 45.8791 73.4075 46.0995L74.1897 46.3471C75.3008 46.6658 75.3813 47.3881 74.8146 48.3272C74.2478 49.2664 73.2214 49.8135 71.9611 49.9618L71.5814 50.591C71.3944 50.9009 70.954 51.1318 70.5968 51.1061L70.4986 51.0991Z" fill="#FFF344"/>
<path d="M94.0418 22.2354C93.6007 22.2354 93.2432 22.5929 93.2432 23.0339V24.8766C93.2432 25.3176 93.6007 25.6751 94.0418 25.6751C94.4828 25.6751 94.8403 25.3176 94.8403 24.8766V23.0339C94.8403 22.5929 94.4828 22.2354 94.0418 22.2354Z" fill="white"/>
<path d="M94.0418 27.2721C93.6007 27.2721 93.2432 27.6296 93.2432 28.0706V29.9133C93.2432 30.3543 93.6007 30.7118 94.0418 30.7118C94.4828 30.7118 94.8403 30.3543 94.8403 29.9133V28.0706C94.8403 27.6296 94.4828 27.2721 94.0418 27.2721Z" fill="white"/>
<path d="M92.4447 25.6751C92.8857 25.6751 93.2432 26.0326 93.2432 26.4736C93.2432 26.9146 92.8857 27.2721 92.4447 27.2721H90.602C90.161 27.2721 89.8035 26.9146 89.8035 26.4736C89.8035 26.0326 90.161 25.6751 90.602 25.6751H92.4447Z" fill="white"/>
<path d="M98.28 26.4736C98.28 26.0326 97.9225 25.6751 97.4815 25.6751H95.6388C95.1978 25.6751 94.8403 26.0326 94.8403 26.4736C94.8403 26.9146 95.1978 27.2721 95.6388 27.2721H97.4815C97.9225 27.2721 98.28 26.9146 98.28 26.4736Z" fill="white"/>
<path d="M11.1074 36.4287C10.8724 36.293 10.5718 36.3735 10.4361 36.6086L9.88603 37.5614L8.92881 37.0087C8.66777 36.858 8.33398 36.9475 8.18327 37.2085C8.03256 37.4695 8.122 37.8033 8.38304 37.954L9.34026 38.5067L8.69167 39.6301C8.55598 39.8651 8.6365 40.1656 8.87152 40.3013C9.10655 40.437 9.40707 40.3565 9.54276 40.1215L10.1914 38.9981L11.1316 39.5409C11.3926 39.6916 11.7264 39.6022 11.8771 39.3412C12.0279 39.0801 11.9384 38.7463 11.6774 38.5956L10.7371 38.0528L11.2872 37.0999C11.4229 36.8649 11.3424 36.5644 11.1074 36.4287Z" fill="white"/>
</g>
<defs>
<linearGradient id="paint0_linear_5_2644" x1="74.0791" y1="1.35775" x2="63.8214" y2="17.3893" gradientUnits="userSpaceOnUse">
<stop stop-color="white"/>
<stop offset="1" stop-color="white" stop-opacity="0"/>
</linearGradient>
<linearGradient id="paint1_linear_5_2644" x1="16.7424" y1="26.2706" x2="14.1772" y2="23.1345" gradientUnits="userSpaceOnUse">
<stop stop-color="#FFEB68"/>
<stop offset="0.924536" stop-color="#FFEB68" stop-opacity="0"/>
</linearGradient>
<linearGradient id="paint2_linear_5_2644" x1="12.0095" y1="20.2612" x2="12.0822" y2="13.8229" gradientUnits="userSpaceOnUse">
<stop stop-color="#FCD307"/>
<stop offset="1" stop-color="#EBA900"/>
</linearGradient>
<linearGradient id="paint3_linear_5_2644" x1="70.0416" y1="58.1883" x2="76.5241" y2="55.3338" gradientUnits="userSpaceOnUse">
<stop stop-color="#FFEB68"/>
<stop offset="0.924536" stop-color="#FFEB68" stop-opacity="0"/>
</linearGradient>
<linearGradient id="paint4_linear_5_2644" x1="82.1789" y1="52.574" x2="87.1672" y2="42.4835" gradientUnits="userSpaceOnUse">
<stop stop-color="#FCD307"/>
<stop offset="1" stop-color="#EBA900"/>
</linearGradient>
<clipPath id="clip0_5_2644">
<rect width="107" height="61" fill="white" transform="translate(0.125)"/>
</clipPath>
</defs>
</svg>
