<svg width="60" height="60" viewBox="0 0 60 60" fill="none" xmlns="http://www.w3.org/2000/svg">
<path d="M41.9497 24.252C42.6825 23.5204 42.6836 22.3332 41.952 21.6003C41.2204 20.8674 40.0332 20.8664 39.3003 21.598L26.4512 34.4245L20.7008 28.6741C19.9686 27.9419 18.7814 27.9419 18.0492 28.6741C17.3169 29.4064 17.3169 30.5935 18.0492 31.3258L25.1242 38.4008C25.856 39.1326 27.0422 39.1331 27.7747 38.402L41.9497 24.252Z" fill="#00CF6A"/>
<path fill-rule="evenodd" clip-rule="evenodd" d="M30 3.125C15.2145 3.125 3.125 15.2145 3.125 30C3.125 44.7855 15.2145 56.875 30 56.875C44.7855 56.875 56.875 44.7855 56.875 30C56.875 15.2145 44.7855 3.125 30 3.125ZM6.875 30C6.875 17.2855 17.2855 6.875 30 6.875C42.7145 6.875 53.125 17.2855 53.125 30C53.125 42.7145 42.7145 53.125 30 53.125C17.2855 53.125 6.875 42.7145 6.875 30Z" fill="#00CF6A"/>
</svg>
