<svg width="80" height="32" viewBox="0 0 80 32" fill="none" xmlns="http://www.w3.org/2000/svg">
<rect x="0.25" y="0.25" width="79.5" height="31.5" rx="15.75" fill="white" fill-opacity="0.4"/>
<rect x="0.25" y="0.25" width="79.5" height="31.5" rx="15.75" stroke="#D3EEFF" stroke-width="0.5"/>
<circle cx="26.5" cy="16.5" r="1.5" fill="#001F3E"/>
<circle cx="19.5" cy="16.5" r="2.5" fill="#001F3E"/>
<circle cx="12.5" cy="16.5" r="1.5" fill="#001F3E"/>
<path d="M40 7V25" stroke="#E7F6FF"/>
<path fill-rule="evenodd" clip-rule="evenodd" d="M65.7489 10.255C65.4142 9.91501 64.8715 9.91501 64.5368 10.255L60 14.8625L55.4632 10.255C55.1285 9.91501 54.5858 9.91501 54.2511 10.255C53.9163 10.5949 53.9163 11.1461 54.2511 11.486L58.7878 16.0935L54.4352 20.514C54.1005 20.8539 54.1005 21.4051 54.4352 21.745C54.77 22.085 55.3127 22.085 55.6474 21.745L60 17.3246L64.3526 21.745C64.6873 22.085 65.23 22.085 65.5648 21.745C65.8995 21.4051 65.8995 20.8539 65.5648 20.514L61.2122 16.0935L65.7489 11.486C66.0837 11.1461 66.0837 10.5949 65.7489 10.255Z" fill="#001F3E"/>
</svg>
