<svg width="24" height="24" viewBox="0 0 24 24" fill="none" xmlns="http://www.w3.org/2000/svg">
<path fill-rule="evenodd" clip-rule="evenodd" d="M17.7489 6.25496C17.4142 5.91501 16.8715 5.91501 16.5368 6.25496L12 10.8625L7.46323 6.25496C7.1285 5.91501 6.58579 5.91501 6.25105 6.25496C5.91632 6.59492 5.91632 7.14609 6.25105 7.48604L10.7878 12.0935L6.43524 16.514C6.10051 16.8539 6.10051 17.4051 6.43524 17.745C6.76998 18.085 7.31269 18.085 7.64742 17.745L12 13.3246L16.3526 17.745C16.6873 18.085 17.23 18.085 17.5648 17.745C17.8995 17.4051 17.8995 16.8539 17.5648 16.514L13.2122 12.0935L17.7489 7.48604C18.0837 7.14609 18.0837 6.59492 17.7489 6.25496Z" fill="#001F3E"/>
</svg>
