<svg width="311" height="1" viewBox="0 0 311 1" fill="none" xmlns="http://www.w3.org/2000/svg">
  <g fill="#D3EEFF">
    <circle cx="0.5" cy="0.5" r="0.5"/>
    <circle cx="5.5" cy="0.5" r="0.5"/>
    <circle cx="10.5" cy="0.5" r="0.5"/>
    <circle cx="15.5" cy="0.5" r="0.5"/>
    <circle cx="20.5" cy="0.5" r="0.5"/>
    <circle cx="25.5" cy="0.5" r="0.5"/>
    <circle cx="30.5" cy="0.5" r="0.5"/>
    <circle cx="35.5" cy="0.5" r="0.5"/>
    <circle cx="40.5" cy="0.5" r="0.5"/>
    <circle cx="45.5" cy="0.5" r="0.5"/>
    <circle cx="50.5" cy="0.5" r="0.5"/>
    <circle cx="55.5" cy="0.5" r="0.5"/>
    <circle cx="60.5" cy="0.5" r="0.5"/>
    <circle cx="65.5" cy="0.5" r="0.5"/>
    <circle cx="70.5" cy="0.5" r="0.5"/>
    <circle cx="75.5" cy="0.5" r="0.5"/>
    <circle cx="80.5" cy="0.5" r="0.5"/>
    <circle cx="85.5" cy="0.5" r="0.5"/>
    <circle cx="90.5" cy="0.5" r="0.5"/>
    <circle cx="95.5" cy="0.5" r="0.5"/>
    <circle cx="100.5" cy="0.5" r="0.5"/>
    <circle cx="105.5" cy="0.5" r="0.5"/>
    <circle cx="110.5" cy="0.5" r="0.5"/>
    <circle cx="115.5" cy="0.5" r="0.5"/>
    <circle cx="120.5" cy="0.5" r="0.5"/>
    <circle cx="125.5" cy="0.5" r="0.5"/>
    <circle cx="130.5" cy="0.5" r="0.5"/>
    <circle cx="135.5" cy="0.5" r="0.5"/>
    <circle cx="140.5" cy="0.5" r="0.5"/>
    <circle cx="145.5" cy="0.5" r="0.5"/>
    <circle cx="150.5" cy="0.5" r="0.5"/>
    <circle cx="155.5" cy="0.5" r="0.5"/>
    <circle cx="160.5" cy="0.5" r="0.5"/>
    <circle cx="165.5" cy="0.5" r="0.5"/>
    <circle cx="170.5" cy="0.5" r="0.5"/>
    <circle cx="175.5" cy="0.5" r="0.5"/>
    <circle cx="180.5" cy="0.5" r="0.5"/>
    <circle cx="185.5" cy="0.5" r="0.5"/>
    <circle cx="190.5" cy="0.5" r="0.5"/>
    <circle cx="195.5" cy="0.5" r="0.5"/>
    <circle cx="200.5" cy="0.5" r="0.5"/>
    <circle cx="205.5" cy="0.5" r="0.5"/>
    <circle cx="210.5" cy="0.5" r="0.5"/>
    <circle cx="215.5" cy="0.5" r="0.5"/>
    <circle cx="220.5" cy="0.5" r="0.5"/>
    <circle cx="225.5" cy="0.5" r="0.5"/>
    <circle cx="230.5" cy="0.5" r="0.5"/>
    <circle cx="235.5" cy="0.5" r="0.5"/>
    <circle cx="240.5" cy="0.5" r="0.5"/>
    <circle cx="245.5" cy="0.5" r="0.5"/>
    <circle cx="250.5" cy="0.5" r="0.5"/>
    <circle cx="255.5" cy="0.5" r="0.5"/>
    <circle cx="260.5" cy="0.5" r="0.5"/>
    <circle cx="265.5" cy="0.5" r="0.5"/>
    <circle cx="270.5" cy="0.5" r="0.5"/>
    <circle cx="275.5" cy="0.5" r="0.5"/>
    <circle cx="280.5" cy="0.5" r="0.5"/>
    <circle cx="285.5" cy="0.5" r="0.5"/>
    <circle cx="290.5" cy="0.5" r="0.5"/>
    <circle cx="295.5" cy="0.5" r="0.5"/>
    <circle cx="300.5" cy="0.5" r="0.5"/>
    <circle cx="305.5" cy="0.5" r="0.5"/>
    <circle cx="310.5" cy="0.5" r="0.5"/>
  </g>
</svg>
