<svg width="40" height="40" viewBox="0 0 40 40" fill="none" xmlns="http://www.w3.org/2000/svg">
<rect width="40" height="40" rx="20" fill="#F5F9FF"/>
<path d="M17.9644 17.7993C17.9644 17.243 18.3892 16.8501 18.83 16.8501H20.9134C21.5132 16.8607 22.0354 17.3705 22.0354 18.05C22.0354 18.4642 22.3712 18.8 22.7854 18.8C23.1996 18.8 23.5354 18.4642 23.5354 18.05C23.5354 16.5863 22.3889 15.3699 20.9293 15.3501H20.75V15C20.75 14.5858 20.4142 14.25 20 14.25C19.5858 14.25 19.25 14.5858 19.25 15V15.3501H18.83C17.488 15.3501 16.4644 16.4893 16.4644 17.7993C16.4644 18.4165 16.6008 18.9443 16.9319 19.3641C17.2553 19.7741 17.6903 19.9845 18.0782 20.1219L18.0808 20.1228L21.4196 21.2914C21.6903 21.3897 21.8098 21.4775 21.8759 21.5621C21.9351 21.6378 22.0215 21.8011 22.0215 22.2005C22.0215 22.7568 21.5967 23.1496 21.1559 23.1496H19.0667C18.4995 23.1496 17.9644 22.6441 17.9644 21.9498C17.9644 21.5355 17.6286 21.1998 17.2144 21.1998C16.8001 21.1998 16.4644 21.5355 16.4644 21.9498C16.4644 23.4003 17.6006 24.6496 19.0667 24.6496H19.25V25C19.25 25.4143 19.5858 25.75 20 25.75C20.4142 25.75 20.75 25.4143 20.75 25V24.6496H21.1559C22.4979 24.6496 23.5215 23.5105 23.5215 22.2005C23.5215 21.5831 23.385 21.057 23.0577 20.6383C22.7376 20.2288 22.3078 20.0175 21.9263 19.8795L18.579 18.708L18.5778 18.7075C18.298 18.6083 18.1761 18.5194 18.1096 18.4351C18.0508 18.3605 17.9644 18.1988 17.9644 17.7993Z" fill="#0033C9"/>
<path fill-rule="evenodd" clip-rule="evenodd" d="M20 9.25C14.0858 9.25 9.25 14.0858 9.25 20C9.25 25.9142 14.0858 30.75 20 30.75C25.9142 30.75 30.75 25.9142 30.75 20C30.75 14.0858 25.9142 9.25 20 9.25ZM10.75 20C10.75 14.9142 14.9142 10.75 20 10.75C25.0858 10.75 29.25 14.9142 29.25 20C29.25 25.0858 25.0858 29.25 20 29.25C14.9142 29.25 10.75 25.0858 10.75 20Z" fill="#0033C9"/>
</svg>
