<svg width="24" height="24" viewBox="0 0 24 24" fill="none" xmlns="http://www.w3.org/2000/svg">
<circle cx="12" cy="12" r="10" fill="#FAA828" stroke="white"/>
<path fill-rule="evenodd" clip-rule="evenodd" d="M12.0362 5.14953V6.39938L12.037 6.40025C13.5192 6.39979 14.9407 6.98836 15.9888 8.03639C17.0368 9.08441 17.6253 10.506 17.6249 11.9881C17.6264 12.694 17.4912 13.3935 17.2268 14.048C17.0373 14.5156 16.4376 14.6417 16.0813 14.2853C15.8863 14.0979 15.8229 13.8118 15.9205 13.5596C16.1261 13.0613 16.2307 12.5271 16.2281 11.9881C16.2267 9.67368 14.3506 7.79796 12.0362 7.797V9.04599C12.0362 9.36062 11.6589 9.51446 11.4356 9.29804L9.48691 7.34851C9.34784 7.20944 9.34784 6.99302 9.48691 6.85309L11.4425 4.90442C11.5412 4.80317 11.6916 4.77216 11.8223 4.82612C11.953 4.88008 12.0377 5.00814 12.0362 5.14953ZM7.84695 11.9863C7.84887 14.2997 9.72378 16.1746 12.0372 16.1766V14.9267C12.0363 14.7857 12.1203 14.658 12.25 14.6029C12.3798 14.5478 12.53 14.5761 12.6308 14.6746L14.5795 16.6242C14.7186 16.7632 14.7186 16.9805 14.5795 17.1196L12.6308 19.0674C12.4144 19.2916 12.0372 19.1378 12.0372 18.824V17.5742C10.5551 17.5744 9.13359 16.9856 8.08573 15.9374C7.03787 14.8892 6.44952 13.4676 6.45021 11.9854C6.44867 11.2795 6.58385 10.58 6.84829 9.92553C6.93508 9.70667 7.12613 9.54613 7.35667 9.49834C7.58721 9.45055 7.82634 9.52192 7.99297 9.68825C8.18828 9.87582 8.2517 10.1624 8.15377 10.4149C7.95125 10.8964 7.84695 11.4344 7.84695 11.9863Z" fill="#FDFDFD"/>
</svg>
