<svg width="120" height="120" viewBox="0 0 120 120" fill="none" xmlns="http://www.w3.org/2000/svg">
<g clip-path="url(#clip0_12_2379)">
<path d="M12.1836 28.8552C12.1836 25.6819 14.7561 23.1093 17.9295 23.1093H67.2483C70.4217 23.1093 72.9942 25.6819 72.9942 28.8552V94.9329C72.9942 98.1063 70.4217 100.679 67.2483 100.679H17.9295C14.7561 100.679 12.1836 98.1063 12.1836 94.9329V28.8552Z" fill="url(#paint0_radial_12_2379)"/>
<path d="M19.8438 99.9781L23.486 23.5871H33.7296L32.5915 106.424L19.8438 99.9781Z" fill="url(#paint1_linear_12_2379)"/>
<path d="M53.8398 28.8552C53.8398 25.6819 56.4124 23.1093 59.5857 23.1093H108.905C112.078 23.1093 114.65 25.6819 114.65 28.8552V94.9329C114.65 98.1063 112.078 100.679 108.905 100.679H59.5857C56.4124 100.679 53.8398 98.1063 53.8398 94.9329V28.8552Z" fill="url(#paint2_radial_12_2379)"/>
<path d="M100.285 100.678L98.1304 23.5871H86.6387L87.8357 100.678H100.285Z" fill="url(#paint3_linear_12_2379)"/>
<path d="M29.418 19.7536C29.418 16.5803 31.9905 14.0078 35.1639 14.0078H91.6651C94.8384 14.0078 97.411 16.5803 97.411 19.7536V101.633C97.411 104.806 94.8384 107.378 91.6651 107.378H35.1639C31.9905 107.378 29.418 104.806 29.418 101.633V19.7536Z" fill="url(#paint4_linear_12_2379)"/>
<circle cx="63.6535" cy="41.5423" r="18.4347" fill="url(#paint5_linear_12_2379)"/>
<circle cx="63.8933" cy="36.0361" r="7.18236" fill="white"/>
<path d="M63.6543 46.5687C69.5047 46.5687 74.6144 49.8704 76.6006 54.6605C73.2717 57.9456 68.6998 59.9749 63.6533 59.9749C58.6073 59.9749 54.0358 57.9461 50.707 54.6614C52.6929 49.8708 57.8034 46.5687 63.6543 46.5687Z" fill="white"/>
<path d="M37.0781 71.9466C37.0781 70.6244 38.15 69.5525 39.4722 69.5525H87.3546C88.6769 69.5525 89.7487 70.6244 89.7487 71.9466C89.7487 73.2688 88.6769 74.3407 87.3546 74.3407H39.4722C38.15 74.3407 37.0781 73.2688 37.0781 71.9466Z" fill="#DDECFF"/>
<path d="M46.6562 79.6076C46.6562 78.5498 47.5138 77.6923 48.5715 77.6923H79.2163C80.2741 77.6923 81.1316 78.5498 81.1316 79.6076C81.1316 80.6654 80.2741 81.5229 79.2163 81.5229H48.5715C47.5138 81.5229 46.6562 80.6654 46.6562 79.6076Z" fill="#DDECFF"/>
<path d="M63.4141 97.8039C63.4141 96.7461 64.2716 95.8886 65.3294 95.8886H87.8341C88.8919 95.8886 89.7494 96.7461 89.7494 97.8039C89.7494 98.8617 88.8919 99.7192 87.8341 99.7192H65.3294C64.2716 99.7192 63.4141 98.8617 63.4141 97.8039Z" fill="#DDECFF"/>
<path d="M42.824 97.8045C42.824 99.3912 41.5378 100.677 39.9511 100.677C38.3644 100.677 37.0781 99.3912 37.0781 97.8045C37.0781 96.2178 38.3644 94.9316 39.9511 94.9316C41.5378 94.9316 42.824 96.2178 42.824 97.8045Z" fill="#DDECFF"/>
<path d="M53.8396 97.8045C53.8396 99.3912 52.5534 100.677 50.9667 100.677C49.38 100.677 48.0938 99.3912 48.0938 97.8045C48.0938 96.2178 49.38 94.9316 50.9667 94.9316C52.5534 94.9316 53.8396 96.2178 53.8396 97.8045Z" fill="#DDECFF"/>
<path d="M21.6695 47.3244C22.9249 45.7344 23.6741 43.7262 23.6741 41.5431C23.6741 36.3864 19.4938 32.2061 14.3371 32.2061C9.18035 32.2061 5 36.3864 5 41.5431C5 46.6998 9.18035 50.8802 14.3371 50.8802C16.1069 50.8802 17.7616 50.3878 19.1719 49.5325C20.366 50.2255 22.2077 50.1223 22.64 50.0867C22.674 50.084 22.7078 50.0858 22.7416 50.0877C22.7699 50.0892 22.7982 50.0908 22.8267 50.0897C22.9511 50.0846 23.0573 49.9987 23.093 49.8837C23.1249 49.7811 23.0485 49.6862 22.9672 49.6159C22.6421 49.3354 21.8004 48.5042 21.6695 47.3244Z" fill="#FFC93D"/>
<path d="M8.83203 40.3461C8.83203 39.8172 9.26078 39.3885 9.78968 39.3885H18.8873C19.4162 39.3885 19.845 39.8172 19.845 40.3461C19.845 40.875 19.4162 41.3038 18.8873 41.3038H9.78968C9.26078 41.3038 8.83203 40.875 8.83203 40.3461Z" fill="white"/>
<path d="M8.83203 44.1767C8.83203 43.6478 9.26078 43.2191 9.78968 43.2191H15.0567C15.5856 43.2191 16.0144 43.6478 16.0144 44.1767C16.0144 44.7056 15.5856 45.1344 15.0567 45.1344H9.78968C9.26078 45.1344 8.83203 44.7056 8.83203 44.1767Z" fill="white"/>
<ellipse cx="63.6574" cy="114.805" rx="27.5324" ry="2.15471" fill="url(#paint6_linear_12_2379)"/>
<path d="M91.8564 15.2C95.0298 15.2 97.6025 17.7727 97.6025 20.9461V45.3221L89.8613 40.2078C85.5488 37.3744 82.7888 32.7345 82.374 27.6229L81.3223 15.2H91.8564Z" fill="#ADCEFF"/>
<path d="M99.5 38C108.337 38 115.5 30.8366 115.5 22C115.5 13.1634 108.337 6 99.5 6C90.6634 6 83.5 13.1634 83.5 22C83.5 30.8366 90.6634 38 99.5 38Z" fill="url(#paint7_linear_12_2379)"/>
<path d="M99.4999 35.7145C107.074 35.7145 113.214 29.5744 113.214 22.0002C113.214 14.426 107.074 8.28595 99.4999 8.28595C91.9257 8.28595 85.7856 14.426 85.7856 22.0002C85.7856 29.5744 91.9257 35.7145 99.4999 35.7145Z" fill="#E3173C"/>
<path d="M105.596 16.1352C104.882 15.4211 103.724 15.4211 103.01 16.1352L99.6158 19.5293L96.2217 16.1352C95.5076 15.4211 94.3498 15.4211 93.6357 16.1352C92.9216 16.8493 92.9216 18.0071 93.6357 18.7212L97.0298 22.1153L93.6357 25.5094C92.9216 26.2235 92.9216 27.3813 93.6357 28.0954C94.3498 28.8095 95.5076 28.8095 96.2217 28.0954L99.6158 24.7013L103.01 28.0954C103.724 28.8095 104.882 28.8095 105.596 28.0954C106.31 27.3813 106.31 26.2235 105.596 25.5094L102.202 22.1153L105.596 18.7212C106.31 18.0071 106.31 16.8493 105.596 16.1352Z" fill="white"/>
</g>
<defs>
<radialGradient id="paint0_radial_12_2379" cx="0" cy="0" r="1" gradientTransform="matrix(-33.7571 -89.0612 62.6106 -70.0961 42.8283 109.537)" gradientUnits="userSpaceOnUse">
<stop stop-color="#DAE8FD"/>
<stop offset="0.386483" stop-color="#EFF6FF"/>
<stop offset="1" stop-color="#F7FAFF"/>
</radialGradient>
<linearGradient id="paint1_linear_12_2379" x1="33.7296" y1="93.7714" x2="20.7539" y2="93.5543" gradientUnits="userSpaceOnUse">
<stop stop-color="#9EC3F8"/>
<stop offset="0.130208" stop-color="#A8C8F5" stop-opacity="0.890625"/>
<stop offset="1" stop-color="#EAF1FB" stop-opacity="0"/>
</linearGradient>
<radialGradient id="paint2_radial_12_2379" cx="0" cy="0" r="1" gradientTransform="matrix(26.0959 -84.7518 86.0825 -15.7308 88.5546 103.073)" gradientUnits="userSpaceOnUse">
<stop stop-color="#DAE8FD"/>
<stop offset="0.386483" stop-color="#EFF6FF"/>
<stop offset="1" stop-color="#F7FAFF"/>
</radialGradient>
<linearGradient id="paint3_linear_12_2379" x1="92.624" y1="93.7714" x2="103.638" y2="93.035" gradientUnits="userSpaceOnUse">
<stop stop-color="#9EC3F8"/>
<stop offset="0.130208" stop-color="#A8C8F5" stop-opacity="0.890625"/>
<stop offset="1" stop-color="#EAF1FB" stop-opacity="0"/>
</linearGradient>
<linearGradient id="paint4_linear_12_2379" x1="65.3032" y1="192.7" x2="-0.332074" y2="72.159" gradientUnits="userSpaceOnUse">
<stop stop-color="#66A4FF"/>
<stop offset="1" stop-color="#C0DAFF"/>
</linearGradient>
<linearGradient id="paint5_linear_12_2379" x1="63.8084" y1="15.4334" x2="63.7635" y2="59.9772" gradientUnits="userSpaceOnUse">
<stop stop-color="#66A4FF"/>
<stop offset="1" stop-color="#3386FF"/>
</linearGradient>
<linearGradient id="paint6_linear_12_2379" x1="76.6065" y1="117.745" x2="76.098" y2="109.893" gradientUnits="userSpaceOnUse">
<stop stop-color="#EEF5FF"/>
<stop offset="1" stop-color="#F7FAFF"/>
</linearGradient>
<linearGradient id="paint7_linear_12_2379" x1="102.94" y1="6" x2="81.94" y2="38" gradientUnits="userSpaceOnUse">
<stop stop-color="#FACCD4"/>
<stop offset="1" stop-color="white"/>
</linearGradient>
<clipPath id="clip0_12_2379">
<rect width="120" height="120" fill="white"/>
</clipPath>
</defs>
</svg>
