<svg width="54" height="24" viewBox="0 0 54 24" fill="none" xmlns="http://www.w3.org/2000/svg">
<path fill-rule="evenodd" clip-rule="evenodd" d="M27.0144 2L30.5976 10.1683C29.8975 11.0912 29.0165 12.2696 28.1721 13.4044L27.8576 13.8273V7.0932H24.9663V16.3046L23.8127 15.0459V13.5423L23.3392 13.8132C22.7329 14.1602 22.0542 14.3363 21.3222 14.3363C20.5753 14.3363 20.0024 14.1195 19.5704 13.6741C19.1359 13.2262 18.925 12.6328 18.925 11.8599C18.925 11.0518 19.1494 10.4339 19.6114 9.97197C20.073 9.50971 20.6698 9.28499 21.4354 9.28499C22.0568 9.28499 22.6242 9.40999 23.1258 9.65671L23.3367 9.76989L23.8127 10.0478V7.36499L23.603 7.28978C22.968 7.06171 22.1838 6.94614 21.2721 6.94614C19.7731 6.94614 18.5324 7.4185 17.5856 8.35006C16.6369 9.28377 16.156 10.5119 16.156 12.0008C16.156 13.4035 16.5864 14.5463 17.4355 15.3978C18.2854 16.2496 19.4576 16.6816 20.9202 16.6816C21.0955 16.6816 21.2657 16.6771 21.4312 16.6684L21.6757 16.6522L21.7014 16.6822C21.8492 16.853 22.0125 17.0414 22.1837 17.2388L22.3575 17.4389L9.60107 21.5757L7.75995 16.5281H10.3394V13.4958H11.2129C12.6104 13.4958 13.7508 13.2017 14.6013 12.6215C15.4901 12.0152 15.9407 11.2056 15.9407 10.215C15.9407 8.20813 14.5188 7.15983 11.7129 7.09627L11.437 7.0932H7.21146V15.0245L3 3.47944L27.0144 2ZM35.1245 8.16519C32.2913 10.0153 28.8487 16.0553 27.6074 18.2332L27.6073 18.2334C27.4355 18.5348 27.3059 18.7622 27.2259 18.8943C26.5674 19.9802 25.2276 19.9741 24.8562 19.7167C24.6681 19.5867 22.1497 16.6781 21.9701 16.4705L21.96 16.4588L23.4082 15.1093L25.5801 17.479C25.5801 17.479 31.6688 9.21813 32.1623 8.72438C32.6563 8.23092 33.347 8.19791 35.1245 8.16519ZM32.3637 14.194L31.6094 12.4745C31.0169 13.3046 30.4507 14.1649 29.938 14.9806L32.3637 14.194ZM39.1529 11.968C39.3984 11.968 39.5925 12.0462 39.7353 12.2025C39.8781 12.359 39.9496 12.5712 39.9496 12.8393C39.9496 13.1083 39.8781 13.3211 39.7353 13.4774C39.5925 13.6339 39.3984 13.7119 39.1529 13.7119C38.9071 13.7119 38.7123 13.6339 38.5689 13.4774C38.4255 13.3211 38.354 13.1083 38.354 12.8393C38.354 12.5712 38.4258 12.359 38.5702 12.2025C38.7145 12.0462 38.9086 11.968 39.1529 11.968ZM37.8961 12.1433C37.761 12.0265 37.5953 11.9681 37.399 11.9681C37.1584 11.9681 36.9685 12.0457 36.8294 12.2013C36.6903 12.357 36.6206 12.5698 36.6206 12.8394C36.6206 13.1091 36.6903 13.3222 36.8294 13.4778C36.9685 13.634 37.1584 13.712 37.399 13.712C37.5989 13.712 37.7653 13.6557 37.8986 13.5435C38.0313 13.4313 38.1052 13.2855 38.1196 13.106H37.7818L37.7642 13.1711C37.7417 13.2327 37.7049 13.2838 37.6531 13.3246C37.584 13.379 37.4996 13.4062 37.4002 13.4062C37.2691 13.4062 37.1654 13.3555 37.0896 13.254C37.0138 13.1525 36.9759 13.014 36.9759 12.8394C36.9759 12.6645 37.0138 12.5266 37.0896 12.4258C37.1654 12.3246 37.2685 12.2738 37.399 12.2738C37.4978 12.2738 37.5821 12.3025 37.6512 12.36C37.7206 12.4175 37.7637 12.4942 37.7806 12.5899H38.1184L38.1032 12.4852C38.0732 12.3508 38.0042 12.2369 37.8961 12.1433ZM44.3353 12.0105V13.367H45.0733V13.6694H43.9883V12.0105H44.3353ZM41.1346 13.1256L40.676 12.0106H40.2666V13.6692H40.5885V12.56H40.6069L41.03 13.5738H41.2612L41.6831 12.56H41.7011V13.6692H42.023V12.0106H41.6149L41.1554 13.1256H41.1346ZM43.1058 12.0104C43.2767 12.0104 43.4152 12.0632 43.521 12.1684C43.6274 12.2739 43.6806 12.4127 43.6806 12.5842C43.6806 12.7542 43.6256 12.8918 43.5161 12.997C43.4283 13.0808 43.3198 13.1313 43.1899 13.1481L43.0884 13.1544H42.761V13.6693H42.4137V12.0104H43.1058ZM45.724 13.6693V12.0104H45.3767V13.6693H45.724ZM50.9859 12.0106V12.3553L50.4688 12.3549L50.4698 13.6695H50.1225L50.1218 12.3549L49.6064 12.3553V12.0106H50.9859ZM47.5562 13.6693L46.9802 12.0104H46.5721L45.9961 13.6693H46.3446L46.4721 13.2737H47.0548L47.1802 13.6693H47.5562ZM48.117 12.0106L48.8804 13.044H48.9009V12.0106H49.2332V13.6692H48.9455L48.1803 12.6312H48.1592V13.6692H47.8271V12.0106H48.117ZM38.8299 12.4259C38.9104 12.3238 39.0183 12.2725 39.1528 12.2725C39.2879 12.2725 39.3952 12.3238 39.4753 12.4259C39.5555 12.5284 39.5955 12.6662 39.5955 12.8393C39.5955 13.0126 39.5555 13.1505 39.4753 13.2533C39.3952 13.356 39.2879 13.4073 39.1528 13.4073C39.0174 13.4073 38.9094 13.356 38.8293 13.2533C38.7492 13.1505 38.7092 13.0126 38.7092 12.8393C38.7092 12.6662 38.7495 12.5284 38.8299 12.4259ZM46.7756 12.3553H46.7548L46.5469 13.0062H46.9814L46.7756 12.3553ZM42.761 12.2956H43.0138C43.1141 12.2956 43.1914 12.3207 43.2459 12.3702C43.3006 12.42 43.3278 12.4919 43.3278 12.5851C43.3278 12.6781 43.3003 12.749 43.2453 12.7985C43.1905 12.8481 43.1129 12.8728 43.0126 12.8728H42.761V12.2956ZM44.0265 6.05115C44.5832 6.05115 45.0409 6.1927 45.4002 6.4755C45.7142 6.72322 45.8972 7.03531 45.9491 7.41198L45.9633 7.57736H44.9669C44.9409 7.37619 44.8428 7.21477 44.6722 7.09339C44.5016 6.97171 44.2885 6.91087 44.0338 6.91087C43.7669 6.91087 43.5535 6.96804 43.3933 7.08269C43.2331 7.19734 43.153 7.35051 43.153 7.5422C43.153 7.69905 43.2178 7.82531 43.3478 7.92131C43.4515 7.99787 43.6088 8.06405 43.8197 8.11987L43.988 8.15978L44.5985 8.28972C45.106 8.39734 45.4757 8.56549 45.7071 8.79479C45.9389 9.02409 46.0547 9.33533 46.0547 9.72789C46.0547 10.2382 45.8713 10.6399 45.5053 10.9334C45.1394 11.2269 44.6383 11.3736 44.002 11.3736C43.3985 11.3736 42.9142 11.2358 42.5495 10.9597C42.2253 10.7143 42.0376 10.3913 41.9868 9.99085L41.9741 9.83703H42.9986C43.0219 10.0425 43.1295 10.2067 43.3212 10.328C43.5132 10.4497 43.7587 10.5106 44.0583 10.5106C44.3341 10.5106 44.5597 10.4503 44.7352 10.3296C44.911 10.2094 44.9984 10.0532 44.9984 9.86149C44.9984 9.69976 44.9306 9.56921 44.7951 9.46863C44.6817 9.38455 44.5079 9.313 44.2729 9.25362L44.1246 9.21945L43.4652 9.07912C42.5483 8.88743 42.09 8.40529 42.09 7.63362C42.09 7.15637 42.2664 6.77329 42.6198 6.48437C42.9729 6.19545 43.4419 6.05115 44.0265 6.05115ZM50.2164 6.47563C49.8571 6.19252 49.3995 6.05096 48.8427 6.05096C48.2582 6.05096 47.7889 6.19558 47.4357 6.48419C47.0826 6.77341 46.9059 7.15619 46.9059 7.63344C46.9059 8.40541 47.3645 8.88724 48.2814 9.07894L48.9409 9.21927L49.0891 9.25357C49.3241 9.31311 49.4979 9.38462 49.611 9.46844C49.7468 9.56903 49.8143 9.69988 49.8143 9.86131C49.8143 10.0533 49.7266 10.2092 49.5514 10.3297C49.3759 10.4505 49.1503 10.5104 48.8742 10.5104C48.5749 10.5104 48.3291 10.4498 48.1374 10.3282C47.9457 10.2065 47.8381 10.0426 47.8145 9.83685H46.79L46.8027 9.99076C46.8535 10.3915 47.0412 10.7144 47.3657 10.9595C47.7305 11.2356 48.2148 11.3738 48.8183 11.3738C49.4545 11.3738 49.9553 11.2267 50.3216 10.9332C50.6875 10.6397 50.8703 10.238 50.8703 9.72801C50.8703 9.33514 50.7551 9.02391 50.5233 8.79461C50.2916 8.56561 49.922 8.39716 49.4144 8.28954L48.8042 8.1596L48.636 8.11983C48.425 8.06416 48.2676 7.99793 48.1637 7.92113C48.0338 7.82513 47.9689 7.69917 47.9689 7.54233C47.9689 7.35033 48.049 7.19716 48.2092 7.08251C48.3695 6.96816 48.5832 6.91068 48.8498 6.91068C49.1044 6.91068 49.3172 6.97152 49.4881 7.09321C49.659 7.21489 49.7572 7.37601 49.7829 7.57749H50.7795L50.7653 7.4121C50.7134 7.03544 50.5304 6.72335 50.2164 6.47563ZM11.0048 9.24838C12.6144 9.24838 12.6788 9.94462 12.6813 10.2521V10.3259C12.6789 10.6292 12.6196 11.3001 11.1981 11.3555L11.0048 11.3592H10.3398V9.24838H11.0048ZM40.6151 6.83189C40.1999 6.39561 39.616 6.17731 38.8627 6.17731H36.8696V11.2436H38.8627L39.0849 11.2369C39.7359 11.1969 40.2471 10.9765 40.6188 10.5753C41.0312 10.1298 41.2379 9.49665 41.2379 8.67546C41.2379 7.88269 41.0306 7.26817 40.6151 6.83189ZM38.6942 7.08259H37.9293V10.3386H38.6942C39.1644 10.3386 39.5258 10.1977 39.7783 9.91581C40.0309 9.63393 40.1571 9.22639 40.1571 8.69288C40.1571 8.18323 40.0287 7.7873 39.7713 7.50542C39.5142 7.22353 39.1553 7.08259 38.6942 7.08259ZM24.9663 5.30252C24.9663 4.48408 25.6294 3.82094 26.4478 3.82094C27.2663 3.82094 27.9297 4.48408 27.9297 5.30252C27.9297 6.12097 27.2663 6.7841 26.4478 6.7841C25.6294 6.7841 24.9663 6.12097 24.9663 5.30252Z" fill="#8995A1"/>
</svg>
