<svg width="120" height="120" viewBox="0 0 120 120" fill="none" xmlns="http://www.w3.org/2000/svg">
<g clip-path="url(#clip0_12_3497)">
<path d="M12.1836 28.8553C12.1836 25.6819 14.7561 23.1094 17.9295 23.1094H67.2483C70.4217 23.1094 72.9942 25.6819 72.9942 28.8553V94.9329C72.9942 98.1063 70.4217 100.679 67.2483 100.679H17.9295C14.7561 100.679 12.1836 98.1063 12.1836 94.9329V28.8553Z" fill="url(#paint0_radial_12_3497)"/>
<path d="M19.8438 99.9782L23.486 23.5872H33.7296L32.5915 106.424L19.8438 99.9782Z" fill="url(#paint1_linear_12_3497)"/>
<path d="M53.8398 28.8553C53.8398 25.6819 56.4124 23.1094 59.5857 23.1094H108.905C112.078 23.1094 114.65 25.6819 114.65 28.8553V94.9329C114.65 98.1063 112.078 100.679 108.905 100.679H59.5857C56.4124 100.679 53.8398 98.1063 53.8398 94.9329V28.8553Z" fill="url(#paint2_radial_12_3497)"/>
<path d="M100.285 100.678L98.1304 23.5872H86.6387L87.8357 100.678H100.285Z" fill="url(#paint3_linear_12_3497)"/>
<path d="M29.418 19.7536C29.418 16.5802 31.9905 14.0077 35.1639 14.0077H91.6651C94.8384 14.0077 97.411 16.5802 97.411 19.7536V101.632C97.411 104.806 94.8384 107.378 91.6651 107.378H35.1639C31.9905 107.378 29.418 104.806 29.418 101.632V19.7536Z" fill="url(#paint4_linear_12_3497)"/>
<circle cx="63.6535" cy="41.5423" r="18.4347" fill="url(#paint5_linear_12_3497)"/>
<circle cx="63.8933" cy="36.036" r="7.18236" fill="white"/>
<path d="M63.6543 46.5686C69.5047 46.5686 74.6144 49.8704 76.6006 54.6604C73.2717 57.9455 68.6998 59.9749 63.6533 59.9749C58.6073 59.9748 54.0358 57.946 50.707 54.6614C52.6929 49.8707 57.8034 46.5686 63.6543 46.5686Z" fill="white"/>
<path d="M37.0781 71.9465C37.0781 70.6243 38.15 69.5524 39.4722 69.5524H87.3546C88.6769 69.5524 89.7487 70.6243 89.7487 71.9465C89.7487 73.2687 88.6769 74.3406 87.3546 74.3406H39.4722C38.15 74.3406 37.0781 73.2687 37.0781 71.9465Z" fill="#DDECFF"/>
<path d="M46.6562 79.6076C46.6562 78.5498 47.5138 77.6923 48.5715 77.6923H79.2163C80.2741 77.6923 81.1316 78.5498 81.1316 79.6076C81.1316 80.6653 80.2741 81.5229 79.2163 81.5229H48.5715C47.5138 81.5229 46.6562 80.6653 46.6562 79.6076Z" fill="#DDECFF"/>
<path d="M63.4141 97.8038C63.4141 96.7461 64.2716 95.8885 65.3294 95.8885H87.8341C88.8919 95.8885 89.7494 96.7461 89.7494 97.8038C89.7494 98.8616 88.8919 99.7191 87.8341 99.7191H65.3294C64.2716 99.7191 63.4141 98.8616 63.4141 97.8038Z" fill="#DDECFF"/>
<path d="M42.824 97.8045C42.824 99.3911 41.5378 100.677 39.9511 100.677C38.3644 100.677 37.0781 99.3911 37.0781 97.8045C37.0781 96.2178 38.3644 94.9315 39.9511 94.9315C41.5378 94.9315 42.824 96.2178 42.824 97.8045Z" fill="#DDECFF"/>
<path d="M53.8396 97.8045C53.8396 99.3911 52.5534 100.677 50.9667 100.677C49.38 100.677 48.0938 99.3911 48.0938 97.8045C48.0938 96.2178 49.38 94.9315 50.9667 94.9315C52.5534 94.9315 53.8396 96.2178 53.8396 97.8045Z" fill="#DDECFF"/>
<path d="M21.6695 47.3244C22.9249 45.7344 23.6741 43.7262 23.6741 41.5431C23.6741 36.3864 19.4938 32.2061 14.3371 32.2061C9.18035 32.2061 5 36.3864 5 41.5431C5 46.6998 9.18035 50.8802 14.3371 50.8802C16.1069 50.8802 17.7616 50.3878 19.1719 49.5325C20.366 50.2255 22.2077 50.1223 22.64 50.0867C22.674 50.084 22.7078 50.0858 22.7416 50.0877C22.7699 50.0892 22.7982 50.0908 22.8267 50.0897C22.9511 50.0846 23.0573 49.9987 23.093 49.8837C23.1249 49.7811 23.0485 49.6862 22.9672 49.6159C22.6421 49.3354 21.8004 48.5042 21.6695 47.3244Z" fill="#FFC93D"/>
<path d="M8.83203 40.3461C8.83203 39.8172 9.26078 39.3884 9.78968 39.3884H18.8873C19.4162 39.3884 19.845 39.8172 19.845 40.3461C19.845 40.875 19.4162 41.3037 18.8873 41.3037H9.78968C9.26078 41.3037 8.83203 40.875 8.83203 40.3461Z" fill="white"/>
<path d="M8.83203 44.1767C8.83203 43.6478 9.26078 43.219 9.78968 43.219H15.0567C15.5856 43.219 16.0144 43.6478 16.0144 44.1767C16.0144 44.7056 15.5856 45.1343 15.0567 45.1343H9.78968C9.26078 45.1343 8.83203 44.7056 8.83203 44.1767Z" fill="white"/>
<ellipse cx="63.6574" cy="114.805" rx="27.5324" ry="2.15471" fill="url(#paint6_linear_12_3497)"/>
<path d="M91.8564 15.2C95.0298 15.2 97.6025 17.7727 97.6025 20.946V45.322L89.8613 40.2078C85.5488 37.3743 82.7888 32.7344 82.374 27.6228L81.3223 15.2H91.8564Z" fill="#ADCEFF"/>
<path d="M116.772 12.66L101.542 3.54508C101.06 3.25581 100.456 3.25581 99.9737 3.54508L84.7437 12.66C84.2446 12.9565 83.958 13.5104 84.005 14.088L84.9782 25.6594C85.3549 30.3335 87.8631 34.5761 91.7814 37.167L99.9127 42.5737C100.425 42.9143 101.091 42.9143 101.603 42.5737L109.735 37.167C113.653 34.5761 116.161 30.3335 116.538 25.6594L117.511 14.088C117.558 13.5104 117.271 12.9565 116.772 12.66Z" fill="url(#paint7_linear_12_3497)"/>
<path d="M100.757 6.20117C100.81 6.20117 100.863 6.21529 100.911 6.24398L114.768 14.5369C114.817 14.5656 114.855 14.6069 114.88 14.6552C114.904 14.7024 114.916 14.7561 114.912 14.8111L114.026 25.3372C113.711 29.2571 111.607 32.8148 108.321 34.9872L100.923 39.9066C100.873 39.94 100.815 39.9566 100.757 39.9566C100.699 39.9566 100.642 39.94 100.591 39.9063L93.193 34.9872C89.9069 32.8148 87.8031 29.2571 87.4877 25.3372L86.6024 14.8111C86.5982 14.7561 86.6097 14.7024 86.6341 14.6552C86.659 14.6069 86.6975 14.5656 86.7463 14.5369L100.603 6.24365C100.651 6.21529 100.704 6.20117 100.757 6.20117Z" fill="url(#paint8_linear_12_3497)"/>
<path fill-rule="evenodd" clip-rule="evenodd" d="M110.058 17.5454C110.759 18.2466 110.759 19.3835 110.058 20.0846L101.594 28.5487C101.227 28.9159 100.74 29.0908 100.259 29.0734C99.7784 29.0907 99.2918 28.9158 98.9247 28.5487L92.8306 22.4546C92.1294 21.7534 92.1294 20.6165 92.8306 19.9154C93.5318 19.2142 94.6686 19.2142 95.3698 19.9154L100.259 24.8049L107.519 17.5454C108.22 16.8442 109.357 16.8442 110.058 17.5454Z" fill="white"/>
</g>
<defs>
<radialGradient id="paint0_radial_12_3497" cx="0" cy="0" r="1" gradientTransform="matrix(-33.7571 -89.0612 62.6106 -70.0961 42.8283 109.537)" gradientUnits="userSpaceOnUse">
<stop stop-color="#DAE8FD"/>
<stop offset="0.386483" stop-color="#EFF6FF"/>
<stop offset="1" stop-color="#F7FAFF"/>
</radialGradient>
<linearGradient id="paint1_linear_12_3497" x1="33.7296" y1="93.7714" x2="20.7539" y2="93.5543" gradientUnits="userSpaceOnUse">
<stop stop-color="#9EC3F8"/>
<stop offset="0.130208" stop-color="#A8C8F5" stop-opacity="0.890625"/>
<stop offset="1" stop-color="#EAF1FB" stop-opacity="0"/>
</linearGradient>
<radialGradient id="paint2_radial_12_3497" cx="0" cy="0" r="1" gradientTransform="matrix(26.0959 -84.7518 86.0825 -15.7308 88.5546 103.073)" gradientUnits="userSpaceOnUse">
<stop stop-color="#DAE8FD"/>
<stop offset="0.386483" stop-color="#EFF6FF"/>
<stop offset="1" stop-color="#F7FAFF"/>
</radialGradient>
<linearGradient id="paint3_linear_12_3497" x1="92.624" y1="93.7715" x2="103.638" y2="93.035" gradientUnits="userSpaceOnUse">
<stop stop-color="#9EC3F8"/>
<stop offset="0.130208" stop-color="#A8C8F5" stop-opacity="0.890625"/>
<stop offset="1" stop-color="#EAF1FB" stop-opacity="0"/>
</linearGradient>
<linearGradient id="paint4_linear_12_3497" x1="65.3032" y1="192.7" x2="-0.332074" y2="72.159" gradientUnits="userSpaceOnUse">
<stop stop-color="#66A4FF"/>
<stop offset="1" stop-color="#C0DAFF"/>
</linearGradient>
<linearGradient id="paint5_linear_12_3497" x1="63.8084" y1="15.4334" x2="63.7635" y2="59.9771" gradientUnits="userSpaceOnUse">
<stop stop-color="#66A4FF"/>
<stop offset="1" stop-color="#3386FF"/>
</linearGradient>
<linearGradient id="paint6_linear_12_3497" x1="76.6065" y1="117.745" x2="76.098" y2="109.893" gradientUnits="userSpaceOnUse">
<stop stop-color="#EEF5FF"/>
<stop offset="1" stop-color="#F7FAFF"/>
</linearGradient>
<linearGradient id="paint7_linear_12_3497" x1="90.1572" y1="4.98584" x2="113.074" y2="40.6955" gradientUnits="userSpaceOnUse">
<stop stop-color="#C7FBE3"/>
<stop offset="0.476317" stop-color="#E5FAF4"/>
<stop offset="0.960522" stop-color="#96DAFF"/>
</linearGradient>
<linearGradient id="paint8_linear_12_3497" x1="100.757" y1="6.20117" x2="100.757" y2="39.9566" gradientUnits="userSpaceOnUse">
<stop stop-color="#4ADE85"/>
<stop offset="1" stop-color="#6BEAB9"/>
</linearGradient>
<clipPath id="clip0_12_3497">
<rect width="120" height="120" fill="white"/>
</clipPath>
</defs>
</svg>
