<svg width="57" height="24" viewBox="0 0 57 24" fill="none" xmlns="http://www.w3.org/2000/svg">
<path d="M23.7533 7.97C23.9048 7.84576 24.1109 7.84576 24.2957 7.84879C25.9745 7.85182 27.6502 7.84879 29.329 7.85182C29.5351 7.84879 29.7593 7.94879 29.8412 8.15182C29.923 8.35485 29.9139 8.60636 29.7866 8.78818C29.6836 8.9306 29.4987 8.99121 29.329 8.99121C28.6533 8.99121 27.9805 8.98818 27.3048 8.99121C27.3048 11.1245 27.3048 13.2579 27.3048 15.3912C27.3048 15.5609 27.3169 15.7427 27.226 15.8942C27.0593 16.1761 26.6351 16.2094 26.3805 16.0336C26.2351 15.9276 26.1715 15.7458 26.1745 15.57C26.1745 13.3761 26.1745 11.1821 26.1745 8.98818C25.4866 8.98818 24.8018 8.98818 24.1139 8.98818C23.9139 8.99121 23.7048 8.88818 23.623 8.7003C23.523 8.46394 23.5442 8.14273 23.7533 7.97Z" fill="#00A3E0"/>
<path d="M39.1988 8.14276C39.3533 7.91852 39.6442 7.84276 39.9048 7.84579C41.2472 7.84579 42.5897 7.84579 43.9351 7.84579C44.0866 7.84579 44.2563 7.87306 44.3654 7.98821C44.4897 8.11549 44.5139 8.30943 44.4927 8.47912C44.4775 8.61852 44.4048 8.75791 44.2806 8.82761C44.1321 8.91852 43.9503 8.90337 43.7836 8.9064C42.5563 8.9064 41.3321 8.9064 40.1048 8.9064C40.1048 9.41246 40.1048 9.91549 40.1048 10.4215C40.1078 10.5609 40.0836 10.7064 39.9957 10.8185C39.9169 10.9215 39.7866 10.9731 39.6594 10.9822C39.5048 10.9943 39.3351 10.9731 39.2139 10.87C39.0927 10.767 39.0533 10.6034 39.0533 10.4488C39.0533 9.95488 39.0533 9.46094 39.0533 8.967C39.0533 8.68821 39.026 8.38215 39.1988 8.14276Z" fill="#00A3E0"/>
<path d="M45.4563 8.18818C45.5412 8.02757 45.6927 7.89727 45.8685 7.84878C46.0654 7.79424 46.2624 7.90636 46.3836 8.05788C47.223 9.09727 48.0654 10.1367 48.9048 11.1791C49.7048 10.1912 50.5048 9.20636 51.3078 8.21848C51.42 8.08515 51.52 7.92757 51.6897 7.86091C51.826 7.80333 51.9806 7.83666 52.1018 7.91545C52.2412 8.00333 52.3715 8.1306 52.3988 8.3003C52.426 8.45181 52.3563 8.60333 52.2594 8.71848C51.3685 9.81242 50.4745 10.9094 49.5836 12.0033C50.4775 13.1003 51.3715 14.1973 52.2654 15.2942C52.3806 15.4367 52.4563 15.6397 52.3745 15.8155C52.2927 15.9821 52.1321 16.1094 51.9563 16.1609C51.7563 16.2155 51.5563 16.1033 51.4382 15.9488C49.4775 13.5367 47.5139 11.1245 45.5533 8.70939C45.4321 8.56697 45.3685 8.36091 45.4563 8.18818Z" fill="#00A3E0"/>
<path d="M31.1957 8.08221C31.3867 7.8913 31.6776 7.84585 31.9351 7.87615C32.2321 7.90949 32.4806 8.11252 32.6412 8.35494C33.2018 9.19736 33.7624 10.0398 34.326 10.8822C34.4048 11.0004 34.4988 11.1216 34.5079 11.2701C34.526 11.4671 34.4563 11.6943 34.2715 11.7913C34.0836 11.8852 33.8382 11.8852 33.6654 11.761C33.5503 11.6792 33.4867 11.5519 33.4079 11.4398C32.9473 10.7458 32.4927 10.0458 32.026 9.35191C32.0503 10.2549 32.0412 11.158 32.0442 12.061C32.0442 13.2337 32.0442 14.4034 32.0442 15.5762C32.0442 15.7307 32.0109 15.9004 31.8927 16.0125C31.7624 16.1398 31.5624 16.164 31.3867 16.1368C31.2321 16.1155 31.0836 16.0216 31.02 15.8792C30.9503 15.7368 30.9654 15.5762 30.9654 15.4216C30.9654 13.1883 30.9654 10.958 30.9654 8.72464C30.9654 8.49433 31.026 8.24585 31.1957 8.08221Z" fill="#00A3E0"/>
<path d="M37.023 7.90335C37.2412 7.83063 37.523 7.84881 37.6836 8.03366C37.7957 8.16396 37.8079 8.34578 37.8018 8.51245C37.8018 10.764 37.8018 13.0185 37.8018 15.27C37.8079 15.5094 37.7533 15.77 37.5776 15.9427C37.3836 16.1276 37.0957 16.167 36.8412 16.1337C36.5806 16.1003 36.3563 15.9306 36.2169 15.7124C35.6139 14.77 35.0109 13.8276 34.4079 12.8882C34.2988 12.7185 34.3109 12.4852 34.4048 12.3124C34.52 12.1064 34.7957 12.0458 35.0109 12.1003C35.1624 12.1427 35.2776 12.2609 35.3563 12.3912C35.8169 13.1306 36.2897 13.864 36.7473 14.6064C36.7473 14.2821 36.723 13.9579 36.723 13.6306C36.723 11.8821 36.723 10.1367 36.723 8.3882C36.717 8.1882 36.826 7.97305 37.023 7.90335Z" fill="#00A3E0"/>
<path d="M39.0533 12.661C39.0564 12.0246 39.623 11.4428 40.2654 11.4428C41.4776 11.4428 42.6897 11.4428 43.9018 11.4428C44.1018 11.4398 44.3139 11.5489 44.3715 11.7519C44.4291 11.9519 44.417 12.2004 44.2624 12.3549C44.1685 12.4489 44.0321 12.4852 43.9018 12.4883C42.6988 12.4913 41.4958 12.4852 40.2958 12.4913C40.1958 12.4852 40.1048 12.561 40.1079 12.664C40.1018 13.4731 40.1079 14.2822 40.1048 15.0913C41.4018 15.0913 42.6988 15.0913 43.9957 15.0913C44.1442 15.0913 44.3048 15.1337 44.4048 15.2519C44.5139 15.3792 44.5321 15.561 44.5109 15.7216C44.4957 15.858 44.4261 15.9943 44.3018 16.0671C44.1715 16.1458 44.017 16.1458 43.8685 16.1458C42.5442 16.1458 41.223 16.1458 39.8988 16.1458C39.6806 16.1458 39.4473 16.1004 39.2836 15.9489C39.1109 15.7943 39.0503 15.5549 39.0503 15.3307C39.0533 14.4398 39.0533 13.5519 39.0533 12.661Z" fill="#00A3E0"/>
<path d="M47.6442 12.8034C47.7897 12.7458 47.9624 12.7852 48.0836 12.8791C48.2018 12.967 48.32 13.0852 48.3442 13.2397C48.3715 13.3943 48.3018 13.5458 48.2048 13.664C47.6048 14.4185 47.0079 15.1731 46.4079 15.9246C46.2988 16.0579 46.1442 16.1761 45.9624 16.167C45.7715 16.1579 45.6109 16.0246 45.5079 15.8731C45.4169 15.7397 45.4079 15.5609 45.4806 15.4185C45.5442 15.2882 45.6503 15.1822 45.7351 15.067C46.2776 14.3852 46.82 13.7034 47.3624 13.0246C47.4351 12.9337 47.5291 12.8458 47.6442 12.8034Z" fill="#00A3E0"/>
<path d="M10.3866 6.90037C11.2897 6.4428 12.323 6.25189 13.3321 6.34583C14.529 6.45189 15.6866 6.9731 16.5624 7.79734C17.2321 8.42158 17.7412 9.21855 18.023 10.0883C18.0442 10.1761 18.1139 10.2549 18.2109 10.2549C18.7503 10.2367 19.2987 10.2125 19.826 10.3458C20.0048 10.3973 20.2078 10.4701 20.3078 10.6398C20.3503 10.7337 20.3533 10.8337 20.3048 10.967C20.1654 11.264 19.8927 11.4701 19.6351 11.667C19.229 11.964 18.7866 12.2034 18.3381 12.4337C18.2684 12.464 18.2351 12.5367 18.226 12.6095C18.0684 13.6701 17.5806 14.6761 16.8563 15.464C16.1806 16.2034 15.2957 16.7519 14.3321 17.0276C13.2351 17.3428 12.0412 17.3004 10.9684 16.9095C10.1472 16.6095 9.39875 16.1095 8.80784 15.464C8.73208 15.3883 8.66844 15.264 8.54117 15.2761C7.94723 15.3276 7.34723 15.3701 6.75026 15.3155C6.50784 15.2883 6.25935 15.2519 6.03814 15.1398C5.9139 15.0792 5.79572 14.9701 5.78662 14.8216C5.77753 14.6155 5.9139 14.4458 6.0442 14.3004C6.33511 13.9943 6.69269 13.761 7.05329 13.5458C7.66541 13.1883 8.31087 12.8883 8.96541 12.6125C9.84723 12.2428 10.7503 11.9246 11.6594 11.6367C12.429 11.4004 13.1987 11.1731 13.9684 10.9367C13.92 11.2307 13.8654 11.5246 13.82 11.8216C13.8018 11.8943 13.8987 11.9458 13.9563 11.9004C14.2684 11.7398 14.5775 11.5761 14.8897 11.4125C14.929 11.3913 14.9745 11.361 15.02 11.3943C15.3472 11.561 15.6684 11.7398 15.9957 11.9034C16.0533 11.9428 16.1412 11.8883 16.126 11.8186C16.0715 11.464 16.0048 11.1125 15.9472 10.761C15.9412 10.7216 15.926 10.6701 15.9654 10.6428C16.229 10.3792 16.5018 10.1246 16.7654 9.86098C16.8169 9.81552 16.7836 9.71855 16.7139 9.71552C16.3503 9.65795 15.9836 9.61249 15.62 9.55492C15.5624 9.55492 15.5442 9.49431 15.52 9.45189C15.3745 9.15189 15.226 8.85492 15.0806 8.55795C15.0594 8.51249 15.029 8.45189 14.9684 8.46098C14.9169 8.46098 14.8957 8.51249 14.8775 8.54886C14.7139 8.88219 14.5503 9.21249 14.3866 9.54583C14.0048 9.60643 13.623 9.65492 13.2412 9.71552C13.1684 9.71855 13.1351 9.82158 13.1927 9.86704C13.3866 10.064 13.5927 10.2549 13.7897 10.4519C13.2836 10.6004 12.7775 10.7579 12.2715 10.8973C10.7472 11.261 9.20784 11.6155 7.63511 11.6731C7.50784 11.6973 7.3745 11.5913 7.38965 11.4579C7.43511 10.6276 7.67753 9.81249 8.08965 9.09128C8.6139 8.15189 9.42602 7.37916 10.3866 6.90037Z" fill="white"/>
<path d="M21.0563 7.84583C20.9472 6.79128 20.4624 5.78219 19.7109 5.03674C18.9715 4.29431 17.9745 3.81552 16.9351 3.7034C15.02 3.50946 13.0866 3.45492 11.1624 3.53674C10.3776 3.57007 9.5927 3.62765 8.80785 3.70643C7.85028 3.81552 6.92604 4.23371 6.21088 4.88522C5.48967 5.53371 4.98058 6.41249 4.78058 7.36098C4.70482 7.68825 4.68664 8.02765 4.65331 8.36098C4.4321 10.8913 4.45028 13.4458 4.70785 15.9731C4.83513 17.0883 5.38361 18.1428 6.21997 18.8913C6.95028 19.5519 7.8927 19.967 8.86846 20.064C11.3866 20.3155 13.9291 20.3307 16.4503 20.1064C16.9624 20.067 17.4806 20.0034 17.9654 19.8246C19.3139 19.361 20.4139 18.2367 20.8503 16.8792C21.0624 16.264 21.0866 15.6125 21.1412 14.9701C21.323 12.5973 21.2957 10.2125 21.0563 7.84583ZM20.3018 10.964C20.1624 11.261 19.8897 11.467 19.6321 11.664C19.226 11.961 18.7806 12.2004 18.3351 12.4307C18.2654 12.461 18.2321 12.5337 18.223 12.6064C18.0654 13.667 17.5775 14.6731 16.8533 15.461C16.1775 16.2004 15.2927 16.7489 14.3291 17.0246C13.2321 17.3398 12.0382 17.2973 10.9654 16.9064C10.1442 16.6064 9.39573 16.1064 8.80482 15.461C8.72907 15.3852 8.66543 15.261 8.53816 15.2731C7.94422 15.3246 7.34422 15.3701 6.75028 15.3125C6.50785 15.2852 6.25937 15.2489 6.03816 15.1367C5.91391 15.0761 5.79573 14.967 5.78664 14.8186C5.77755 14.6125 5.91391 14.4428 6.04422 14.2973C6.33513 13.9913 6.6927 13.7579 7.05331 13.5428C7.66543 13.1852 8.31088 12.8852 8.96543 12.6095C9.84725 12.2398 10.7503 11.9216 11.6594 11.6337C12.4291 11.3973 13.1988 11.1701 13.9685 10.9337C13.92 11.2276 13.8624 11.5216 13.8169 11.8186C13.8018 11.8913 13.8957 11.9428 13.9533 11.8973C14.2654 11.7367 14.5745 11.5731 14.8866 11.4095C14.926 11.3883 14.9715 11.3579 15.0169 11.3913C15.3442 11.5579 15.6654 11.7367 15.9927 11.9004C16.0503 11.9398 16.1382 11.8852 16.123 11.8155C16.0685 11.461 16.0018 11.1095 15.9442 10.7579C15.9382 10.7186 15.923 10.667 15.9624 10.6398C16.226 10.3761 16.4988 10.1216 16.7624 9.85795C16.8139 9.81249 16.7806 9.71552 16.7109 9.71249C16.3472 9.65492 15.9806 9.60946 15.6169 9.55189C15.5594 9.55189 15.5412 9.49128 15.5169 9.44886C15.3715 9.14886 15.223 8.85189 15.0775 8.55492C15.0563 8.50946 15.0291 8.44886 14.9654 8.45795C14.9139 8.45795 14.8927 8.50946 14.8745 8.54583C14.7109 8.87916 14.5472 9.20946 14.3836 9.5428C14.0018 9.6034 13.62 9.65189 13.2382 9.71249C13.1654 9.71552 13.1321 9.81856 13.1897 9.86401C13.3836 10.061 13.5897 10.2519 13.7866 10.4489C13.2806 10.5973 12.7745 10.7549 12.2654 10.8943C10.7412 11.2579 9.20179 11.6125 7.62907 11.6701C7.50179 11.6943 7.36846 11.5883 7.38361 11.4549C7.42907 10.6246 7.67149 9.80946 8.08361 9.08825C8.61391 8.15492 9.42604 7.38219 10.3866 6.90037C11.2897 6.4428 12.323 6.25189 13.3321 6.34583C14.5291 6.45189 15.6866 6.9731 16.5624 7.79734C17.2321 8.42462 17.7412 9.21856 18.023 10.0913C18.0442 10.1792 18.1139 10.2579 18.2109 10.2579C18.7503 10.2398 19.2988 10.2155 19.826 10.3489C20.0048 10.4004 20.2079 10.4701 20.3079 10.6428C20.3472 10.7276 20.3472 10.8519 20.3018 10.964Z" fill="#00A3E0"/>
</svg>
