<svg width="40" height="40" viewBox="0 0 40 40" fill="none" xmlns="http://www.w3.org/2000/svg">
<g clip-path="url(#clip0_1_4547)">
<path d="M39.2129 11.449V11.449C40.2624 17.0781 40.2624 22.8026 39.2129 28.5271V28.5271C38.2588 33.9654 33.9654 38.2588 28.5271 39.2129V39.2129C22.898 40.2624 17.1735 40.2624 11.449 39.2129V39.2129C6.01073 38.2588 1.81276 34.0608 0.858676 28.6225V28.6225C-0.286225 22.9934 -0.286225 17.1735 0.858676 11.449V11.449C1.81276 6.01073 6.01073 1.81276 11.449 0.858676V0.858676C17.0781 -0.286225 22.898 -0.286225 28.6225 0.858676V0.858676C34.0608 1.81276 38.2588 6.01073 39.2129 11.449Z" fill="white"/>
<path fill-rule="evenodd" clip-rule="evenodd" d="M38.2293 28.3468C39.2571 22.7405 39.2565 17.1393 38.2298 11.6323L39.2129 11.449C40.2624 17.0781 40.2624 22.8026 39.2129 28.5271L38.2293 28.3468ZM28.5271 39.2129C33.9654 38.2588 38.2588 33.9654 39.2129 28.5271L38.2279 28.3543C37.3466 33.3779 33.3779 37.3466 28.3543 38.2279L28.5271 39.2129ZM11.449 39.2129C17.1735 40.2624 22.898 40.2624 28.5271 39.2129L28.3438 38.2298C22.8369 39.2565 17.2356 39.2571 11.6293 38.2293L11.449 39.2129ZM28.6225 0.858676L28.4497 1.84363C33.4733 2.72496 37.3466 6.59823 38.2279 11.6218L39.2129 11.449C38.2588 6.01073 34.0608 1.81276 28.6225 0.858676ZM11.449 0.858676C17.0781 -0.286225 22.898 -0.286225 28.6225 0.858676L28.4264 1.83926C22.8303 0.720026 17.1448 0.720683 11.6483 1.83861L11.449 0.858676ZM0.858676 11.449C1.81276 6.01073 6.01073 1.81276 11.449 0.858676L11.6218 1.84363C6.59823 2.72496 2.72496 6.59823 1.84363 11.6218L0.858676 11.449ZM0.858676 11.449L1.83926 11.6451C0.720026 17.2413 0.720683 22.9267 1.83861 28.4232L0.858676 28.6225C-0.286225 22.9934 -0.286225 17.1735 0.858676 11.449ZM0.858676 28.6225C1.81276 34.0608 6.01073 38.2588 11.449 39.2129L11.6218 38.2279C6.59823 37.3466 2.72496 33.4733 1.84363 28.4497L0.858676 28.6225Z" fill="#EEF4FE"/>
<path fill-rule="evenodd" clip-rule="evenodd" d="M12.5333 7.55542C9.78417 7.55542 7.55554 9.78405 7.55554 12.5332V27.4665C7.55554 30.2157 9.78417 32.4443 12.5333 32.4443H27.4667C30.2158 32.4443 32.4444 30.2157 32.4444 27.4665V12.5332C32.4444 9.78405 30.2158 7.55542 27.4667 7.55542H12.5333Z" fill="url(#paint0_linear_1_4547)"/>
<path d="M20.0009 28.7111C19.8618 28.7111 19.7251 28.673 19.6043 28.601C18.5533 27.9701 10.7625 22.8848 10.466 22.7166C10.0502 22.4782 10.0444 22.1458 10.0444 22.1317V14.9995C10.0444 14.5649 10.3755 14.3586 10.389 14.3506L10.4391 14.3186C11.2014 13.8339 13.7213 12.2316 14.1237 11.9973C14.2158 11.9424 14.3198 11.9128 14.4259 11.9111C14.5248 11.9119 14.622 11.938 14.7089 11.9872C14.7147 11.9912 18.2433 14.3807 18.7804 14.595C19.2136 14.7692 19.4619 14.8613 20.0009 14.8613C20.5399 14.8613 20.9442 14.7432 21.3542 14.5169C21.8798 14.2264 25.2564 12.0113 25.2891 11.9892C25.3764 11.9391 25.4743 11.9122 25.574 11.9111C25.6802 11.9125 25.7842 11.9422 25.8762 11.9973C26.3325 12.2636 29.4626 14.2565 29.5955 14.3426L29.6051 14.3486C29.8242 14.4859 29.9574 14.7334 29.9555 14.9995V22.1317C29.9555 22.1458 29.9497 22.4782 29.5339 22.7166C29.2355 22.8868 21.4505 27.9681 20.3956 28.601C20.2755 28.6729 20.1394 28.7109 20.0009 28.7111Z" fill="url(#paint1_linear_1_4547)"/>
<path d="M20.0001 28.7112H20.0403C20.1783 28.711 20.3138 28.6731 20.4334 28.6015C21.4842 27.9711 29.2384 22.9101 29.5356 22.7405C29.9498 22.5031 29.9556 22.172 29.9556 22.158V15.0563C29.9569 14.9365 29.9306 14.8182 29.8788 14.7112L20.0001 20.3567V28.7112Z" fill="#F624A0"/>
<g opacity="0.41" style="mix-blend-mode:multiply">
<path d="M10.0445 22.1215C10.0445 22.1356 10.0503 22.4687 10.4678 22.7075C10.7654 22.876 18.5872 27.9707 19.6425 28.6028C19.7518 28.6677 19.8743 28.7048 20 28.7112V20.3076L10.089 14.7112C10.0591 14.796 10.0441 14.8857 10.0445 14.9761V22.1215Z" fill="#F58000"/>
</g>
<path fill-rule="evenodd" clip-rule="evenodd" d="M15.351 21.4891V16.811H14.3111V22.411H17.1555V21.4891H15.351ZM21.2155 18.8321C20.9808 18.5093 20.4802 18.211 19.8791 18.211C18.735 18.211 17.8667 19.1564 17.8667 20.311C17.8667 21.4657 18.735 22.411 19.8791 22.411C20.4802 22.411 20.9808 22.1114 21.2155 21.7885V22.3289H22.1334V18.2917H21.2155V18.8321ZM25.6477 18.211V18.9497L23.8364 21.5713H25.6888V22.411H22.8444V21.6809L24.6627 19.0507H22.8726V18.211H25.6477ZM18.8029 20.311C18.8029 19.5832 19.3035 19.0182 20.046 19.0182C20.7898 19.0182 21.2905 19.5845 21.2905 20.311C21.2905 21.0374 20.7884 21.6025 20.046 21.6025C19.3035 21.6025 18.8029 21.0388 18.8029 20.311Z" fill="white"/>
</g>
<defs>
<linearGradient id="paint0_linear_1_4547" x1="7.55554" y1="7.55542" x2="7.55554" y2="32.4443" gradientUnits="userSpaceOnUse">
<stop stop-color="#005AE9"/>
<stop offset="1" stop-color="#131B84"/>
</linearGradient>
<linearGradient id="paint1_linear_1_4547" x1="10.0437" y1="28.7121" x2="29.9564" y2="28.7121" gradientUnits="userSpaceOnUse">
<stop stop-color="#FF9200"/>
<stop offset="0.29" stop-color="#F36D00"/>
<stop offset="0.32" stop-color="#F4680B"/>
<stop offset="0.57" stop-color="#F83C72"/>
<stop offset="0.78" stop-color="#FC1CBE"/>
<stop offset="0.93" stop-color="#FE08ED"/>
<stop offset="1" stop-color="#FF00FF"/>
</linearGradient>
<clipPath id="clip0_1_4547">
<rect width="40" height="40" fill="white"/>
</clipPath>
</defs>
</svg>
