<svg width="40" height="40" viewBox="0 0 40 40" fill="none" xmlns="http://www.w3.org/2000/svg">
<g clip-path="url(#clip0_1_4579)">
<path d="M39.2129 11.449V11.449C40.2624 17.0781 40.2624 22.8026 39.2129 28.5271V28.5271C38.2588 33.9654 33.9654 38.2588 28.5271 39.2129V39.2129C22.898 40.2624 17.1735 40.2624 11.449 39.2129V39.2129C6.01073 38.2588 1.81276 34.0608 0.858676 28.6225V28.6225C-0.286225 22.9934 -0.286225 17.1735 0.858676 11.449V11.449C1.81276 6.01073 6.01073 1.81276 11.449 0.858676V0.858676C17.0781 -0.286225 22.898 -0.286225 28.6225 0.858676V0.858676C34.0608 1.81276 38.2588 6.01073 39.2129 11.449Z" fill="white"/>
<path fill-rule="evenodd" clip-rule="evenodd" d="M38.2293 28.3468C39.2571 22.7405 39.2565 17.1393 38.2298 11.6323L39.2129 11.449C40.2624 17.0781 40.2624 22.8026 39.2129 28.5271L38.2293 28.3468ZM28.5271 39.2129C33.9654 38.2588 38.2588 33.9654 39.2129 28.5271L38.2279 28.3543C37.3466 33.3779 33.3779 37.3466 28.3543 38.2279L28.5271 39.2129ZM11.449 39.2129C17.1735 40.2624 22.898 40.2624 28.5271 39.2129L28.3438 38.2298C22.8369 39.2565 17.2356 39.2571 11.6293 38.2293L11.449 39.2129ZM28.6225 0.858676L28.4497 1.84363C33.4733 2.72496 37.3466 6.59823 38.2279 11.6218L39.2129 11.449C38.2588 6.01073 34.0608 1.81276 28.6225 0.858676ZM11.449 0.858676C17.0781 -0.286225 22.898 -0.286225 28.6225 0.858676L28.4264 1.83926C22.8303 0.720026 17.1448 0.720683 11.6483 1.83861L11.449 0.858676ZM0.858676 11.449C1.81276 6.01073 6.01073 1.81276 11.449 0.858676L11.6218 1.84363C6.59823 2.72496 2.72496 6.59823 1.84363 11.6218L0.858676 11.449ZM0.858676 11.449L1.83926 11.6451C0.720026 17.2413 0.720683 22.9267 1.83861 28.4232L0.858676 28.6225C-0.286225 22.9934 -0.286225 17.1735 0.858676 11.449ZM0.858676 28.6225C1.81276 34.0608 6.01073 38.2588 11.449 39.2129L11.6218 38.2279C6.59823 37.3466 2.72496 33.4733 1.84363 28.4497L0.858676 28.6225Z" fill="#EEF4FE"/>
<path d="M7.55557 13.0863C7.55557 10.0317 10.0318 7.55542 13.0864 7.55542H26.9136C29.9682 7.55542 32.4445 10.0317 32.4445 13.0863V26.9134C32.4445 29.9681 29.9682 32.4443 26.9136 32.4443H13.0864C10.0318 32.4443 7.55557 29.9681 7.55557 26.9134V13.0863Z" fill="#00844A"/>
<path d="M23.3014 19.5611V19.5393C23.9537 19.2114 24.258 18.622 24.258 18.0113C24.258 17.16 23.6052 16.156 21.7492 16.156C20.2082 16.156 19.1504 16.9638 19.1504 18.197C19.1504 18.8183 19.3869 19.3861 20.0506 19.7463L20.0618 19.7683C19.2973 20.0953 18.8134 20.6521 18.8134 21.5036C18.8134 22.4197 19.6345 23.489 21.6479 23.489C23.4702 23.489 24.595 22.6054 24.595 21.2957C24.595 20.3575 23.9315 19.7897 23.3014 19.5611ZM21.6727 17.4886C22.1897 17.4886 22.3864 17.8463 22.3864 18.228C22.3864 18.5771 22.167 18.9383 21.8747 19.004C21.3909 18.8511 20.8529 18.5263 20.8529 18.1552C20.8529 17.784 21.1887 17.4886 21.6727 17.4886ZM21.7267 22.1582C21.2205 22.1582 20.8529 21.7495 20.8529 21.3126C20.8529 20.8761 21.0951 20.4453 21.5342 20.3363C22.0627 20.4674 22.5554 20.9129 22.5554 21.4261C22.5554 21.8407 22.1989 22.1582 21.7267 22.1582Z" fill="white"/>
<path d="M25.28 21.5035C25.28 22.4196 26.1014 23.4889 28.1149 23.4889C29.9369 23.4889 31.0617 22.6053 31.0617 21.2956C31.0617 20.3574 30.3982 19.7897 29.768 19.561V19.5393C30.4206 19.2114 30.7249 18.622 30.7249 18.0112C30.7249 17.16 30.0721 16.156 28.2158 16.156C26.6751 16.156 25.617 16.9637 25.617 18.197C25.617 18.8183 25.854 19.386 26.5174 19.7462L26.5289 19.7682C25.764 20.0952 25.28 20.652 25.28 21.5035ZM28.1392 17.4886C28.6567 17.4886 28.853 17.8463 28.853 18.2279C28.853 18.577 28.6337 18.9383 28.3414 19.004C27.8573 18.851 27.3197 18.5262 27.3197 18.1551C27.3197 17.7839 27.6558 17.4886 28.1392 17.4886ZM28.0007 20.3362C28.5294 20.4673 29.0226 20.9128 29.0226 21.426C29.0226 21.8406 28.6661 22.1581 28.1936 22.1581C27.6874 22.1581 27.3197 21.7494 27.3197 21.3125C27.3197 20.876 27.5621 20.4453 28.0007 20.3362Z" fill="white"/>
<path d="M18.1323 19.6581C18.1323 17.1738 16.0742 15.1604 13.5353 15.1604C10.9966 15.1604 8.93826 17.1738 8.93826 19.6581C8.93826 22.1417 10.9966 24.1556 13.5353 24.1556C16.0742 24.1556 18.1323 22.1417 18.1323 19.6581ZM13.0246 21.8238C13.0246 22.7437 12.2623 23.4891 11.3221 23.4891V21.8238V17.8255C11.3221 16.9053 12.0847 16.1602 13.0246 16.1602H14.3866H16.0893C16.0893 17.0795 15.3268 17.8255 14.3867 17.8255H13.0246V19.1585H14.0461H15.7488C15.7488 20.0786 14.9865 20.8242 14.0463 20.8242H13.0246L13.0246 21.8238Z" fill="white"/>
</g>
<defs>
<clipPath id="clip0_1_4579">
<rect width="40" height="40" fill="white"/>
</clipPath>
</defs>
</svg>
