<svg width="40" height="40" viewBox="0 0 40 40" fill="none" xmlns="http://www.w3.org/2000/svg">
<g clip-path="url(#clip0_1_4589)">
<path d="M39.2129 11.449V11.449C40.2624 17.0781 40.2624 22.8026 39.2129 28.5271V28.5271C38.2588 33.9654 33.9654 38.2588 28.5271 39.2129V39.2129C22.898 40.2624 17.1735 40.2624 11.449 39.2129V39.2129C6.01073 38.2588 1.81276 34.0608 0.858676 28.6225V28.6225C-0.286225 22.9934 -0.286225 17.1735 0.858676 11.449V11.449C1.81276 6.01073 6.01073 1.81276 11.449 0.858676V0.858676C17.0781 -0.286225 22.898 -0.286225 28.6225 0.858676V0.858676C34.0608 1.81276 38.2588 6.01073 39.2129 11.449Z" fill="white"/>
<path fill-rule="evenodd" clip-rule="evenodd" d="M38.2293 28.3468C39.2571 22.7405 39.2565 17.1393 38.2298 11.6323L39.2129 11.449C40.2624 17.0781 40.2624 22.8026 39.2129 28.5271L38.2293 28.3468ZM28.5271 39.2129C33.9654 38.2588 38.2588 33.9654 39.2129 28.5271L38.2279 28.3543C37.3466 33.3779 33.3779 37.3466 28.3543 38.2279L28.5271 39.2129ZM11.449 39.2129C17.1735 40.2624 22.898 40.2624 28.5271 39.2129L28.3438 38.2298C22.8369 39.2565 17.2356 39.2571 11.6293 38.2293L11.449 39.2129ZM28.6225 0.858676L28.4497 1.84363C33.4733 2.72496 37.3466 6.59823 38.2279 11.6218L39.2129 11.449C38.2588 6.01073 34.0608 1.81276 28.6225 0.858676ZM11.449 0.858676C17.0781 -0.286225 22.898 -0.286225 28.6225 0.858676L28.4264 1.83926C22.8303 0.720026 17.1448 0.720683 11.6483 1.83861L11.449 0.858676ZM0.858676 11.449C1.81276 6.01073 6.01073 1.81276 11.449 0.858676L11.6218 1.84363C6.59823 2.72496 2.72496 6.59823 1.84363 11.6218L0.858676 11.449ZM0.858676 11.449L1.83926 11.6451C0.720026 17.2413 0.720683 22.9267 1.83861 28.4232L0.858676 28.6225C-0.286225 22.9934 -0.286225 17.1735 0.858676 11.449ZM0.858676 28.6225C1.81276 34.0608 6.01073 38.2588 11.449 39.2129L11.6218 38.2279C6.59823 37.3466 2.72496 33.4733 1.84363 28.4497L0.858676 28.6225Z" fill="#EEF4FE"/>
<path d="M9.49912 7.55542C8.42512 7.5645 7.55722 8.43739 7.55722 9.51277V30.4618C7.55722 31.5428 8.4343 32.4191 9.5162 32.4191H30.4826C31.5646 32.4191 32.4417 31.5428 32.4417 30.4618V9.51277C32.4417 8.43739 31.5738 7.5645 30.4997 7.55542H9.49912Z" fill="#E20613"/>
<path d="M7.57825 30.3306H32.4416V26.804H19.5024H7.57825V30.3306Z" fill="#E20613"/>
<path d="M9.63427 32.4192C10.6288 32.4024 17.5687 32.4108 30.4539 32.4444C31.5517 32.4444 32.4416 31.5552 32.4416 30.4583V29.1701L7.57822 28.6213C7.57822 29.4297 7.57822 30.0929 7.57822 30.6111C7.57822 31.3883 8.1425 32.4444 9.63427 32.4192Z" fill="#FFEB00"/>
<path d="M7.57827 30.8004H32.414C32.4286 30.694 32.4378 30.5947 32.4416 30.5024C32.4454 30.4102 32.4454 30.3179 32.4416 30.2257L7.55713 28.9053C7.55505 29.6649 7.55505 30.1378 7.55713 30.324C7.55921 30.5102 7.56625 30.6689 7.57827 30.8004Z" fill="#F5A506"/>
<path d="M7.5571 28.9087L32.4416 30.2258V28.3801H7.5571V28.9087Z" fill="#ED7A04"/>
<path d="M28.1842 26.1648C27.9862 26.0916 26.4994 25.878 26.4793 25.9864C26.4836 25.9642 27.022 26.9788 27.0828 27.1937C27.4601 28.5257 27.4715 28.8079 28.1842 29.5085C28.581 29.8529 28.8618 30.0619 29.3016 30.2465C30.322 30.6745 31.0272 28.8768 30.7325 28.2794C30.2501 27.3196 29.256 26.5649 28.1842 26.1648Z" fill="url(#paint0_linear_1_4589)"/>
<path d="M31.5028 26.9126C31.4113 26.7225 30.4902 25.5369 30.4004 25.6009C30.4189 25.5879 30.1008 26.6914 29.9952 26.8882C29.3405 28.1083 29.1526 28.3192 29.1782 29.3178C29.2241 29.8409 29.2808 30.1862 29.4688 30.6243C29.9053 31.6404 31.6624 30.8366 31.8657 30.2024C32.186 29.1772 31.9956 27.9443 31.5028 26.9126Z" fill="#679318"/>
<path d="M24.2308 30.2255C24.1504 30.2866 23.6838 30.7694 23.7153 30.8002C23.7089 30.7938 24.3656 30.9809 24.4562 31.0031C25.018 31.1405 25.1652 31.0158 25.6044 30.8891C25.8332 30.8088 25.8098 30.759 25.9597 30.5862C26.1816 30.3305 26.0225 29.9812 25.7354 29.9682C25.2718 29.9506 24.6673 29.8959 24.2308 30.2255Z" fill="#679318"/>
<path d="M27.0659 31.3424C26.9855 31.4035 26.5189 31.8862 26.5505 31.9171C26.5441 31.9107 27.2007 32.0978 27.2913 32.12C27.8532 32.2574 28.0003 32.1327 28.4395 32.0059C28.6684 31.9257 28.6449 31.8759 28.7948 31.7031C29.0167 31.4473 28.8576 31.0981 28.5706 31.085C28.1069 31.0675 27.5025 31.0128 27.0659 31.3424Z" fill="#679318"/>
<path d="M25.2327 31.4615C25.198 31.5256 25.0317 32.0886 25.0504 32.1008C25.0466 32.0982 25.4318 32.0674 25.4849 32.0609C25.8142 32.0203 25.9841 31.9418 26.2392 31.7636C26.372 31.6619 26.4296 31.4847 26.5154 31.3429C26.6425 31.1329 26.2303 30.6838 26.0626 30.7402C25.7918 30.8337 25.4252 31.1052 25.2327 31.4615Z" fill="#679318"/>
<path d="M25.9992 28.0864C25.9774 28.1343 25.8135 28.3645 25.8758 28.6715C25.9381 28.9785 26.2594 29.4793 26.3241 29.5911C26.3685 29.6679 26.3998 29.6918 26.4247 29.6734L26.4252 29.673C26.4364 29.6645 26.4463 29.6475 26.4555 29.6229C26.4555 29.6229 26.6394 29.1961 26.5561 28.8436C26.5047 28.6256 26.4074 28.4397 26.2994 28.2955L26.2933 28.2874C26.2285 28.2021 26.16 28.1317 26.0956 28.0785C26.0956 28.0785 26.0923 28.0528 26.0669 28.0849C26.0553 28.0996 26.0446 28.091 26.0344 28.082C26.0256 28.0743 26.0172 28.0663 26.0086 28.0728C26.0055 28.0751 26.0024 28.0794 25.9992 28.0864Z" fill="url(#paint1_linear_1_4589)"/>
<path d="M25.3562 28.4067C25.3485 28.4588 25.2544 28.7252 25.3989 29.0031C25.5433 29.2811 25.9903 29.6739 26.0832 29.7636C26.1471 29.8251 26.1837 29.8395 26.2026 29.815L26.203 29.8144C26.2114 29.8032 26.2162 29.7841 26.2183 29.7579C26.2183 29.7579 26.2774 29.297 26.1002 28.9811C25.9907 28.7857 25.8459 28.6338 25.7024 28.525L25.6943 28.5189C25.6085 28.4547 25.5233 28.406 25.4466 28.3725C25.4466 28.3725 25.4365 28.3488 25.4209 28.3866C25.4137 28.4039 25.4011 28.3986 25.3888 28.3928C25.3782 28.3878 25.3679 28.3825 25.3615 28.391C25.3591 28.3941 25.3573 28.3991 25.3562 28.4067Z" fill="url(#paint2_linear_1_4589)"/>
<path d="M25.0178 29.0032C25.0266 29.0551 25.0195 29.3376 25.2428 29.5573C25.4661 29.7771 26.0125 30.0126 26.1286 30.0692C26.2084 30.108 26.2477 30.1103 26.2581 30.0812L26.2583 30.0805C26.2628 30.0673 26.2615 30.0476 26.2554 30.0221C26.2554 30.0221 26.1691 29.5654 25.9029 29.3196C25.7384 29.1677 25.5538 29.0679 25.3837 29.0087L25.3741 29.0054C25.2726 28.9709 25.1765 28.9508 25.0933 28.9427C25.0933 28.9427 25.0763 28.9233 25.0732 28.964C25.0717 28.9828 25.0581 28.9816 25.0446 28.9798C25.033 28.9784 25.0215 28.9765 25.018 28.9866C25.0168 28.9903 25.0166 28.9956 25.0178 29.0032Z" fill="url(#paint3_linear_1_4589)"/>
<path d="M24.7533 29.6151C24.7761 29.6626 24.8472 29.9361 25.1224 30.0858C25.3976 30.2356 25.9878 30.3115 26.1151 30.3339C26.2024 30.3493 26.2408 30.3407 26.2428 30.3098L26.2428 30.3091C26.2435 30.2951 26.2368 30.2766 26.2239 30.2537C26.2239 30.2537 26.015 29.8384 25.6914 29.6755C25.4913 29.5747 25.2863 29.5297 25.1065 29.5196L25.0964 29.5191C24.9893 29.5139 24.8914 29.5211 24.8092 29.5362C24.8092 29.5362 24.7875 29.5222 24.7957 29.5622C24.7995 29.5806 24.786 29.5832 24.7726 29.5853C24.761 29.5871 24.7495 29.5884 24.749 29.5991C24.7488 29.603 24.75 29.6082 24.7533 29.6151Z" fill="url(#paint4_linear_1_4589)"/>
<path d="M24.8542 30.3527C24.8966 30.384 25.0879 30.5921 25.4012 30.5951C25.7147 30.5982 26.2715 30.3884 26.3944 30.3485C26.4787 30.321 26.5086 30.2955 26.4959 30.2673L26.4956 30.2666C26.4896 30.254 26.475 30.2408 26.4528 30.2266C26.4528 30.2266 26.0732 29.958 25.7109 29.966C25.4869 29.9709 25.2847 30.0273 25.1212 30.1028L25.112 30.1071C25.015 30.1527 24.9319 30.2049 24.8665 30.2568C24.8665 30.2568 24.8407 30.2546 24.8668 30.2861C24.8787 30.3006 24.8681 30.3093 24.8572 30.3174C24.8478 30.3243 24.8383 30.331 24.8428 30.3406C24.8444 30.3442 24.848 30.3481 24.8542 30.3527Z" fill="url(#paint5_linear_1_4589)"/>
<path d="M25.2938 31.0501C25.3461 31.0569 25.6142 31.1462 25.8897 30.997C26.1652 30.8479 26.5503 30.3947 26.6384 30.3003C26.6989 30.2354 26.7126 30.1985 26.6878 30.1801L26.6872 30.1797C26.6758 30.1715 26.6567 30.1671 26.6305 30.1654C26.6305 30.1654 26.1683 30.1145 25.8555 30.297C25.662 30.4098 25.5125 30.5571 25.4062 30.7023L25.4002 30.7105C25.3375 30.7973 25.2902 30.8833 25.2581 30.9604C25.2581 30.9604 25.2345 30.971 25.2726 30.9859C25.2901 30.9927 25.2849 31.0054 25.2793 31.0178C25.2745 31.0284 25.2694 31.0388 25.278 31.0451C25.2812 31.0474 25.2862 31.0491 25.2938 31.0501Z" fill="url(#paint6_linear_1_4589)"/>
<path d="M25.8498 31.4468C25.9019 31.4389 26.1843 31.4509 26.4079 31.2317C26.6316 31.0124 26.8768 30.4707 26.9355 30.3557C26.9757 30.2766 26.9787 30.2375 26.9497 30.2266L26.9491 30.2263C26.9359 30.2216 26.9163 30.2226 26.8906 30.2282C26.8906 30.2282 26.4323 30.3066 26.1819 30.5682C26.027 30.7299 25.924 30.9126 25.8618 31.0815L25.8584 31.091C25.8221 31.1918 25.8003 31.2874 25.7907 31.3704C25.7907 31.3704 25.7709 31.387 25.8117 31.3909C25.8304 31.3926 25.8289 31.4063 25.827 31.4197C25.8253 31.4313 25.8232 31.4427 25.8333 31.4463C25.8369 31.4477 25.8423 31.4479 25.8498 31.4468Z" fill="url(#paint7_linear_1_4589)"/>
<path d="M26.5137 31.5922C26.5608 31.5686 26.8331 31.4929 26.978 31.2153C27.1229 30.9377 27.1885 30.3468 27.2087 30.2193C27.2225 30.1317 27.2133 30.0935 27.1824 30.0921L27.1817 30.0921C27.1677 30.0917 27.1493 30.0987 27.1267 30.1119C27.1267 30.1119 26.7151 30.3279 26.5578 30.6541C26.4605 30.8557 26.419 31.0613 26.4121 31.2411L26.4118 31.2512C26.4084 31.3583 26.4173 31.4559 26.4338 31.5378C26.4338 31.5378 26.4202 31.5597 26.4601 31.5508C26.4784 31.5467 26.4813 31.5601 26.4836 31.5735C26.4855 31.585 26.4871 31.5965 26.4978 31.5969C26.5017 31.597 26.5068 31.5956 26.5137 31.5922Z" fill="url(#paint8_linear_1_4589)"/>
<path d="M27.2234 31.5717C27.2575 31.5316 27.4785 31.3555 27.5033 31.0434C27.5282 30.7313 27.3575 30.1618 27.3262 30.0365C27.3047 29.9505 27.2813 29.9189 27.2523 29.9297L27.2516 29.93C27.2386 29.9351 27.2244 29.9487 27.2087 29.9697C27.2087 29.9697 26.9143 30.3293 26.8971 30.6909C26.8864 30.9144 26.9286 31.1198 26.9925 31.2881L26.9962 31.2975C27.035 31.3974 27.0813 31.4838 27.1286 31.5527C27.1286 31.5527 27.1246 31.5783 27.1578 31.5544C27.1731 31.5435 27.181 31.5548 27.1883 31.5662C27.1946 31.576 27.2006 31.586 27.2105 31.5822C27.2142 31.5807 27.2184 31.5775 27.2234 31.5717Z" fill="url(#paint9_linear_1_4589)"/>
<path d="M27.941 31.1772C27.9532 31.126 28.0702 30.8687 27.9505 30.5793C27.8308 30.2898 27.4198 29.8596 27.335 29.7621C27.2767 29.6953 27.2414 29.6777 27.2205 29.7005L27.22 29.701C27.2107 29.7115 27.2042 29.7301 27.1999 29.756C27.1999 29.756 27.1008 30.21 27.2498 30.5402C27.3419 30.7443 27.4729 30.9083 27.6064 31.0292L27.6139 31.036C27.6938 31.1074 27.7745 31.1634 27.8479 31.2033C27.8479 31.2033 27.8559 31.2279 27.8748 31.1916C27.8834 31.1749 27.8955 31.1814 27.9073 31.1882C27.9174 31.1941 27.9272 31.2003 27.9343 31.1924C27.937 31.1895 27.9392 31.1846 27.941 31.1772Z" fill="url(#paint10_linear_1_4589)"/>
<path d="M28.4588 30.5019C28.4464 30.4507 28.4338 30.1684 28.1958 29.9648C27.9577 29.7612 27.3962 29.5643 27.2764 29.5159C27.1941 29.4828 27.1547 29.4832 27.1464 29.513L27.1462 29.5136C27.1427 29.5272 27.1454 29.5467 27.1532 29.5717C27.1532 29.5717 27.2712 30.0214 27.5538 30.2479C27.7286 30.3881 27.9197 30.4747 28.0935 30.5219L28.1033 30.5245C28.207 30.5519 28.3042 30.5652 28.3877 30.5675C28.3877 30.5675 28.4061 30.5857 28.4064 30.5448C28.4065 30.5261 28.4202 30.5263 28.4338 30.5271C28.4455 30.5277 28.457 30.5288 28.4598 30.5185C28.4608 30.5147 28.4606 30.5094 28.4588 30.5019Z" fill="url(#paint11_linear_1_4589)"/>
<path d="M28.5937 29.718C28.5567 29.6805 28.4004 29.445 28.0914 29.393C27.7823 29.3409 27.1995 29.4611 27.0719 29.4813C26.9843 29.4953 26.9508 29.5158 26.959 29.5457L26.9592 29.5463C26.9631 29.5598 26.9755 29.5751 26.9951 29.5925C26.9951 29.5925 27.328 29.9172 27.6871 29.966C27.9091 29.9962 28.1176 29.9721 28.2909 29.9231L28.3007 29.9203C28.4036 29.8904 28.4938 29.8518 28.5666 29.8107C28.5666 29.8107 28.5917 29.8169 28.5709 29.7818C28.5613 29.7656 28.5732 29.7587 28.5853 29.7524C28.5956 29.747 28.606 29.7419 28.6031 29.7317C28.602 29.7279 28.5991 29.7234 28.5937 29.718Z" fill="url(#paint12_linear_1_4589)"/>
<path d="M28.4732 29.0555C28.4282 29.0281 28.2195 28.8374 27.907 28.8617C27.5945 28.8859 27.0581 29.1435 26.9391 29.1939C26.8575 29.2287 26.8299 29.2567 26.8451 29.2837L26.8455 29.2843C26.8526 29.2964 26.8682 29.3083 26.8915 29.3204C26.8915 29.3204 27.2931 29.5549 27.6534 29.5154C27.8761 29.491 28.0726 29.4172 28.2289 29.3278L28.2377 29.3227C28.3304 29.2688 28.4086 29.2095 28.4693 29.1521C28.4693 29.1521 28.4952 29.152 28.4664 29.1229C28.4533 29.1096 28.4631 29.1 28.4733 29.091C28.482 29.0832 28.4909 29.0758 28.4856 29.0666C28.4836 29.0632 28.4797 29.0595 28.4732 29.0555Z" fill="url(#paint13_linear_1_4589)"/>
<path d="M26.5895 27.887C26.5575 27.9288 26.346 28.1162 26.3376 28.4292C26.3291 28.7421 26.5294 29.302 26.5671 29.4255C26.5932 29.5102 26.6182 29.5405 26.6466 29.5282L26.6472 29.528C26.66 29.5222 26.6735 29.5078 26.688 29.486C26.688 29.486 26.9632 29.1116 26.9614 28.7496C26.9604 28.5257 26.9075 28.3228 26.8348 28.1581L26.8307 28.1489C26.7868 28.0512 26.7359 27.9673 26.6851 27.901C26.6851 27.901 26.6878 27.8753 26.6558 27.9008C26.6411 27.9125 26.6327 27.9017 26.6248 27.8906C26.6179 27.8812 26.6115 27.8715 26.6017 27.8759C26.5982 27.8775 26.5941 27.881 26.5895 27.887Z" fill="url(#paint14_linear_1_4589)"/>
<path d="M27.4361 28.0003C27.3878 28.0214 27.1119 28.0829 26.9527 28.3525C26.7934 28.6221 26.6969 29.2088 26.6701 29.335C26.6517 29.4218 26.6589 29.4604 26.6897 29.4634L26.6904 29.4635C26.7044 29.4646 26.7231 29.4586 26.7464 29.4465C26.7464 29.4465 27.1688 29.2523 27.3429 28.9349C27.4506 28.7386 27.5028 28.5355 27.5191 28.3563L27.52 28.3462C27.5289 28.2395 27.5252 28.1415 27.513 28.0589C27.513 28.0589 27.5277 28.0377 27.4874 28.0445C27.4689 28.0476 27.4667 28.0341 27.4652 28.0206C27.4638 28.009 27.4628 27.9974 27.4522 27.9965C27.4483 27.9962 27.4431 27.9973 27.4361 28.0003Z" fill="url(#paint15_linear_1_4589)"/>
<path d="M28.1441 28.4678C28.0917 28.4628 27.8206 28.3829 27.5505 28.5416C27.2804 28.7003 26.9113 29.1666 26.8266 29.2641C26.7684 29.331 26.756 29.3683 26.7814 29.3859L26.782 29.3862C26.7937 29.394 26.813 29.3978 26.8392 29.3985C26.8392 29.3985 27.3029 29.4333 27.6092 29.24C27.7986 29.1205 27.9428 28.9682 28.044 28.8193L28.0497 28.8109C28.1093 28.7219 28.1536 28.6344 28.183 28.5562C28.183 28.5562 28.2062 28.5448 28.1676 28.5313C28.1499 28.525 28.1546 28.5121 28.1598 28.4996C28.1642 28.4888 28.169 28.4782 28.1601 28.4722C28.1569 28.47 28.1518 28.4685 28.1441 28.4678Z" fill="url(#paint16_linear_1_4589)"/>
<path d="M26.6238 30.6361C27.046 30.6361 27.3883 30.2941 27.3883 29.8723C27.3883 29.4504 27.046 29.1084 26.6238 29.1084C26.2016 29.1084 25.8593 29.4504 25.8593 29.8723C25.8593 30.2941 26.2016 30.6361 26.6238 30.6361Z" fill="#FED400"/>
<path d="M26.6238 30.6361C27.046 30.6361 27.3883 30.2941 27.3883 29.8723C27.3883 29.4504 27.046 29.1084 26.6238 29.1084C26.2016 29.1084 25.8593 29.4504 25.8593 29.8723C25.8593 30.2941 26.2016 30.6361 26.6238 30.6361Z" fill="#9E9814"/>
<path d="M29.4051 27.3877C29.3688 27.4676 29.0957 27.8511 29.1994 28.3625C29.3031 28.8739 29.8384 29.7081 29.946 29.8944C30.0201 30.0223 30.0721 30.0621 30.1137 30.0316L30.1146 30.0309C30.1331 30.0167 30.1496 29.9884 30.165 29.9474C30.165 29.9474 30.4714 29.2363 30.3327 28.6491C30.2471 28.286 30.085 27.9763 29.9052 27.7361L29.895 27.7226C29.787 27.5805 29.673 27.4633 29.5656 27.3746C29.5656 27.3746 29.5603 27.3318 29.5179 27.3852C29.4985 27.4097 29.4807 27.3953 29.4637 27.3804C29.4491 27.3676 29.435 27.3543 29.4208 27.365C29.4156 27.369 29.4103 27.3761 29.4051 27.3877Z" fill="url(#paint17_linear_1_4589)"/>
<path d="M28.3336 27.9213C28.3207 28.0081 28.1639 28.4522 28.4047 28.9154C28.6455 29.3786 29.3904 30.0333 29.5453 30.1828C29.6518 30.2853 29.7129 30.3093 29.7444 30.2684L29.745 30.2675C29.759 30.2488 29.767 30.217 29.7705 30.1734C29.7705 30.1734 29.869 29.4051 29.5737 28.8786C29.3911 28.553 29.1498 28.2998 28.9107 28.1185L28.8972 28.1083C28.7541 28.0014 28.6121 27.9201 28.4844 27.8644C28.4844 27.8644 28.4674 27.8248 28.4414 27.8878C28.4295 27.9167 28.4084 27.9078 28.3879 27.8981C28.3704 27.8898 28.3531 27.8809 28.3424 27.8951C28.3385 27.9004 28.3355 27.9087 28.3336 27.9213Z" fill="url(#paint18_linear_1_4589)"/>
<path d="M27.7695 28.9164C27.7841 29.0029 27.7723 29.4735 28.1445 29.8395C28.5167 30.2056 29.4273 30.598 29.6209 30.6923C29.7538 30.7569 29.8193 30.7609 29.8366 30.7123L29.837 30.7113C29.8444 30.6891 29.8422 30.6565 29.8321 30.6139C29.8321 30.6139 29.6881 29.8532 29.2445 29.4438C28.9703 29.1907 28.6626 29.0244 28.3791 28.9258L28.3631 28.9203C28.194 28.8628 28.0339 28.8294 27.8953 28.8158C27.8953 28.8158 27.8669 28.7834 27.8617 28.8513C27.8592 28.8825 27.8365 28.8805 27.814 28.8776C27.7947 28.8751 27.7756 28.872 27.7698 28.8888C27.7677 28.895 27.7674 28.9039 27.7695 28.9164Z" fill="url(#paint19_linear_1_4589)"/>
<path d="M27.3288 29.9361C27.3667 30.0152 27.4852 30.4708 27.9439 30.7201C28.4027 30.9695 29.3863 31.096 29.5983 31.1333C29.744 31.1588 29.808 31.1446 29.8112 31.0931L29.8113 31.092C29.8124 31.0687 29.8012 31.0379 29.7797 30.9998C29.7797 30.9998 29.4315 30.3082 28.8921 30.0368C28.5587 29.869 28.2171 29.7939 27.9174 29.7772L27.9005 29.7763C27.722 29.7676 27.5589 29.7796 27.4219 29.8047C27.4219 29.8047 27.3857 29.7814 27.3994 29.8481C27.4057 29.8787 27.3832 29.8831 27.3608 29.8865C27.3416 29.8894 27.3224 29.8917 27.3215 29.9095C27.3211 29.916 27.3233 29.9246 27.3288 29.9361Z" fill="url(#paint20_linear_1_4589)"/>
<path d="M27.4972 31.1653C27.5679 31.2174 27.8866 31.564 28.4087 31.569C28.931 31.574 29.8589 31.2243 30.0637 31.1578C30.2042 31.112 30.2541 31.0694 30.2328 31.0225L30.2323 31.0214C30.2223 31.0003 30.198 30.9784 30.1611 30.9548C30.1611 30.9548 29.5286 30.5075 28.9249 30.5209C28.5517 30.5291 28.2148 30.6231 27.9423 30.7489L27.927 30.7561C27.7653 30.8321 27.6269 30.9192 27.5178 31.0057C27.5178 31.0057 27.4748 31.002 27.5183 31.0545C27.5382 31.0786 27.5204 31.093 27.5022 31.1065C27.4867 31.1181 27.4708 31.1291 27.4783 31.1452C27.481 31.1512 27.487 31.1578 27.4972 31.1653Z" fill="url(#paint21_linear_1_4589)"/>
<path d="M28.2297 32.3272C28.3167 32.3385 28.7637 32.4873 29.2227 32.2387C29.6819 31.9902 30.3238 31.2348 30.4707 31.0774C30.5714 30.9693 30.5943 30.9079 30.5529 30.8771L30.552 30.8765C30.533 30.8629 30.5011 30.8554 30.4574 30.8527C30.4574 30.8527 29.6872 30.7678 29.1657 31.072C28.8432 31.26 28.5942 31.5054 28.4169 31.7475L28.4069 31.7611C28.3025 31.9059 28.2236 32.0491 28.1701 32.1776C28.1701 32.1776 28.1308 32.1953 28.1943 32.2201C28.2234 32.2315 28.2148 32.2527 28.2055 32.2733C28.1975 32.291 28.189 32.3084 28.2033 32.3188C28.2086 32.3227 28.217 32.3256 28.2297 32.3272Z" fill="url(#paint22_linear_1_4589)"/>
<path d="M30.963 30.9495L30.9885 30.9542L30.9896 30.9546L31.007 30.9653C31.0351 30.9928 31.0232 31.0569 30.9658 31.1698L30.9422 31.2172C30.8356 31.4348 30.5563 32.0292 30.2655 32.42L29.1634 32.4181L29.1706 32.3953L29.1764 32.3795L29.225 32.2576C29.3309 32.0117 29.4886 31.755 29.7099 31.524L29.7825 31.4541C30.2097 31.0738 30.891 30.9574 30.891 30.9574L30.9304 30.9507C30.9544 30.948 30.9738 30.949 30.9885 30.9542L30.963 30.9495Z" fill="url(#paint23_linear_1_4589)"/>
<path d="M31.3773 30.7305L31.3971 30.7354C31.4324 30.7528 31.4409 30.8174 31.4212 30.9425L31.4134 30.9949C31.3805 31.2268 31.303 31.843 31.1573 32.3007C30.9468 32.3772 30.7196 32.4192 30.4825 32.4192L30.1127 32.4195C30.1442 32.1793 30.2136 31.9213 30.3363 31.6672L30.3867 31.5732C30.6767 31.0825 31.2844 30.7636 31.2844 30.7636L31.3198 30.7451C31.3418 30.7351 31.3606 30.7301 31.3761 30.7305L31.3773 30.7305Z" fill="url(#paint24_linear_1_4589)"/>
<path d="M31.5139 30.4563C31.5532 30.4585 31.5863 30.5148 31.617 30.6376L31.6294 30.6851C31.6823 30.8838 31.8237 31.3818 31.886 31.8278C31.635 32.0847 31.3145 32.2729 30.9547 32.3619C30.9123 32.1668 30.891 31.953 30.9018 31.7282L30.9114 31.622C30.9865 31.0571 31.4212 30.5263 31.4212 30.5263L31.4465 30.4954C31.4628 30.4777 31.4782 30.4657 31.4927 30.46L31.4937 30.4596L31.5139 30.4563Z" fill="url(#paint25_linear_1_4589)"/>
<path d="M31.458 30.0661C31.494 30.0503 31.549 30.0854 31.6322 30.1809L31.6674 30.2205C31.7964 30.3641 32.1059 30.6984 32.3548 31.0385C32.246 31.3927 32.0389 31.7041 31.7655 31.941C31.6623 31.8041 31.5681 31.6492 31.4905 31.4771L31.4528 31.3837C31.26 30.8454 31.4072 30.1706 31.4072 30.1706L31.4157 30.1316C31.4222 30.1084 31.4304 30.0907 31.4407 30.0791L31.4415 30.0783L31.458 30.0661Z" fill="url(#paint26_linear_1_4589)"/>
<path d="M31.3266 29.7469C31.3515 29.7165 31.4165 29.7228 31.534 29.7701L31.5834 29.7894C31.7436 29.8511 32.0997 29.9825 32.4413 30.1447L32.4416 30.4619C32.4416 30.7213 32.3911 30.9689 32.2994 31.1954C32.1961 31.1366 32.0949 31.068 31.9967 30.9893L31.9164 30.919C31.5031 30.5263 31.3288 29.863 31.3288 29.863L31.3187 29.8244C31.3139 29.8007 31.3132 29.7813 31.3172 29.7662L31.3266 29.7469Z" fill="url(#paint27_linear_1_4589)"/>
<path d="M32.4343 29.5466L32.4345 30.5395C32.3635 30.5362 32.2914 30.5298 32.2184 30.5199L32.1133 30.501C31.5567 30.377 31.0654 29.8977 31.0654 29.8977L31.0368 29.8698C31.0205 29.8519 31.0099 29.8356 31.0055 29.8206L31.0052 29.8196L31.0036 29.7992C31.0093 29.7602 31.0682 29.7322 31.1934 29.7122L31.2418 29.7041C31.4492 29.6679 31.9768 29.5668 32.4343 29.5466Z" fill="url(#paint28_linear_1_4589)"/>
<path d="M32.4345 28.6997L32.4344 29.723C32.3467 29.7428 32.2558 29.7583 32.1622 29.7686L32.0557 29.7757C31.4856 29.79 30.8929 29.444 30.8929 29.444L30.8584 29.4239C30.8383 29.4105 30.824 29.3973 30.8162 29.3838L30.8156 29.3829L30.8092 29.3635C30.8053 29.3244 30.8557 29.2829 30.9722 29.2333L31.0173 29.2137C31.2552 29.1084 31.9437 28.7887 32.4345 28.6997Z" fill="url(#paint29_linear_1_4589)"/>
<path d="M30.3891 27.0552C30.3358 27.1249 29.9833 27.4372 29.9693 27.9588C29.9551 28.4804 30.2889 29.4135 30.3519 29.6192C30.3953 29.7605 30.437 29.811 30.4844 29.7905L30.4854 29.7901C30.5067 29.7804 30.5291 29.7565 30.5533 29.7201C30.5533 29.7201 31.012 29.0961 31.009 28.4928C31.0073 28.1197 30.9192 27.7815 30.798 27.5071L30.7912 27.4916C30.7179 27.3288 30.6332 27.189 30.5486 27.0785C30.5486 27.0785 30.5529 27.0356 30.4997 27.0781C30.4752 27.0976 30.4611 27.0796 30.4479 27.0612C30.4366 27.0454 30.4258 27.0294 30.4096 27.0366C30.4036 27.0393 30.3969 27.0451 30.3891 27.0552Z" fill="url(#paint30_linear_1_4589)"/>
<path d="M31.8001 27.2442C31.7196 27.2793 31.2598 27.3817 30.9945 27.8311C30.729 28.2805 30.5682 29.2583 30.5234 29.4687C30.4928 29.6132 30.5048 29.6777 30.5562 29.6827L30.5573 29.6828C30.5806 29.6847 30.6118 29.6746 30.6507 29.6545C30.6507 29.6545 31.3546 29.3309 31.6448 28.8018C31.8243 28.4747 31.9113 28.1362 31.9385 27.8375L31.94 27.8207C31.9549 27.6428 31.9486 27.4795 31.9282 27.3418C31.9282 27.3418 31.9529 27.3064 31.8857 27.3178C31.8548 27.323 31.8512 27.3004 31.8486 27.2779C31.8463 27.2587 31.8447 27.2394 31.827 27.2378C31.8205 27.2373 31.8118 27.2391 31.8001 27.2442Z" fill="url(#paint31_linear_1_4589)"/>
<path d="M32.4339 27.9939L32.4344 29.046C32.3313 29.1402 32.2161 29.2296 32.0886 29.31C31.578 29.6322 30.8053 29.5743 30.8053 29.5743C30.7616 29.573 30.7294 29.5667 30.709 29.5531C30.6666 29.5238 30.6873 29.4617 30.7842 29.3501C30.9255 29.1877 31.5406 28.4104 31.9908 28.146C32.143 28.0566 32.2955 28.0126 32.4339 27.9939Z" fill="url(#paint32_linear_1_4589)"/>
<path d="M30.4464 31.6373C31.1501 31.6373 31.7205 31.0673 31.7205 30.3642C31.7205 29.6611 31.1501 29.0911 30.4464 29.0911C29.7426 29.0911 29.1722 29.6611 29.1722 30.3642C29.1722 31.0673 29.7426 31.6373 30.4464 31.6373Z" fill="#FED400"/>
<path d="M30.4464 31.1278C30.8686 31.1278 31.2109 30.7858 31.2109 30.364C31.2109 29.9421 30.8686 29.6001 30.4464 29.6001C30.0242 29.6001 29.6819 29.9421 29.6819 30.364C29.6819 30.7858 30.0242 31.1278 30.4464 31.1278Z" fill="#9E9814"/>
<path d="M18.2621 21.1454C18.8561 21.1454 19.3013 21.2412 19.599 21.4351C19.9061 21.6386 20.0596 21.9241 20.0596 22.291V25.3912H19.5838C19.4486 25.3912 19.3373 25.3439 19.2509 25.2479C19.2093 25.2019 19.1783 25.1488 19.157 25.0892C18.7831 25.3375 18.3667 25.3777 17.9122 25.3777C17.5309 25.3777 17.1964 25.2787 16.9105 25.0801C16.6248 24.8803 16.4812 24.553 16.4812 24.0937C16.4812 23.666 16.6112 23.3615 16.8709 23.1771C17.1297 22.9944 17.4616 22.8717 17.8641 22.8105C17.9175 22.8105 17.9816 22.802 18.0562 22.7875C18.1298 22.7708 18.2145 22.7603 18.3105 22.7494C18.7773 22.6878 19.0098 22.556 19.0098 22.3521C19.0098 22.1985 18.9277 22.1004 18.7635 22.0541C18.599 22.0087 18.4478 21.9851 18.3105 21.9851C18.1618 21.9851 18.0286 22.0057 17.9122 22.0458C17.7961 22.0878 17.7114 22.1646 17.658 22.2764H16.5929C16.6336 21.9593 16.7831 21.6995 17.0379 21.4962C17.3241 21.2611 17.7319 21.1454 18.2621 21.1454ZM14.1489 20.159C14.681 20.159 15.089 20.2703 15.3703 20.4934C15.6508 20.7363 15.7928 21.0647 15.7928 21.4797C15.7928 21.742 15.7361 21.9643 15.6273 22.1471C15.5151 22.3179 15.36 22.4561 15.159 22.556C15.4202 22.6668 15.6214 22.8242 15.7623 23.025C15.8926 23.2193 15.9573 23.4723 15.9573 23.7856C15.9573 24.2917 15.7975 24.6842 15.4758 24.9672C15.1435 25.2408 14.6761 25.3777 14.0728 25.3777H11.7068V20.7058C11.7068 20.5539 11.7584 20.4248 11.8652 20.319C11.9709 20.2131 12.0986 20.159 12.2491 20.159H14.1489ZM22.3422 21.1481C22.7934 21.1481 23.2088 21.2648 23.5879 21.4976C23.968 21.7296 24.1567 22.1995 24.1567 22.9076V25.3777H23.6185C23.4649 25.3777 23.3397 25.329 23.2416 25.2333C23.1442 25.1374 23.0955 25.0131 23.0955 24.8617V22.6962C23.0955 22.4523 23.0219 22.2764 22.8721 22.1645C22.7235 22.0541 22.5569 21.9974 22.3722 21.9974C22.1874 21.9974 22.023 22.0541 21.8796 22.1645C21.7366 22.2764 21.6642 22.4523 21.6642 22.6962V25.3777H20.587V22.9076C20.587 22.2213 20.7696 21.7606 21.1342 21.5264C21.4968 21.2948 21.9005 21.1688 22.3422 21.1481ZM25.224 20.159C25.3625 20.159 25.4817 20.2107 25.5826 20.3109C25.6815 20.4127 25.7321 20.5285 25.7321 20.6604V22.7561L27.0022 21.1453H28.2588L26.8387 22.8896L28.2735 25.3777H27.0166L26.2856 24.0126C26.1355 23.7392 26.005 23.623 25.8957 23.6637C25.7858 23.7044 25.7321 23.7652 25.7321 23.8444V25.3777H24.685V20.159H25.224ZM19.0255 23.2536C18.8773 23.3246 18.6702 23.3907 18.4059 23.452L18.0395 23.5291C17.8483 23.5804 17.7114 23.6453 17.6255 23.7268C17.5517 23.839 17.5151 23.9521 17.5151 24.064C17.5151 24.2173 17.5625 24.3394 17.658 24.4297C17.7532 24.5121 17.8911 24.553 18.072 24.553C18.3684 24.553 18.602 24.4709 18.7715 24.3074C18.9408 24.1453 19.0255 23.9212 19.0255 23.6356V23.2536ZM13.9826 23.0708H12.732V24.437H13.9986C14.2804 24.437 14.4957 24.3809 14.646 24.27C14.7869 24.17 14.8576 23.9976 14.8576 23.7542C14.8576 23.5112 14.7869 23.3348 14.646 23.2236C14.5163 23.1218 14.2946 23.0708 13.9826 23.0708ZM13.9379 21.0697H12.732V22.1769H13.9537C14.2147 22.1769 14.4057 22.1318 14.5262 22.041C14.646 21.9492 14.7077 21.8079 14.7077 21.6157C14.7077 21.4238 14.646 21.283 14.5262 21.1916C14.425 21.1102 14.2298 21.0697 13.9379 21.0697ZM13.1742 12.1094V14.8009H16.1092V12.1094H17.5975V19.3426H16.1092V16.1253H13.1742V19.3426H11.7068V12.8673C11.7068 12.6566 11.7786 12.4777 11.9225 12.3311C12.0666 12.1843 12.2437 12.1094 12.4504 12.1094H13.1742ZM20.9185 12.1094C22.0245 12.1094 22.8524 12.4037 23.399 12.9923C23.9472 13.6092 24.2205 14.5214 24.2205 15.7252C24.2205 16.3707 24.1216 16.9534 23.9255 17.4697C23.7012 18.004 23.4076 18.4112 23.0426 18.6908C22.7338 18.9301 22.4037 19.0968 22.053 19.1954C21.7151 19.2932 21.2057 19.3426 20.5179 19.3426H18.3288V12.8673C18.3288 12.6567 18.4016 12.4777 18.5491 12.3311C18.6962 12.1844 18.8757 12.1094 19.0864 12.1094H20.9185ZM20.9185 13.3716H19.7801V18.0388H20.7281C21.4144 18.0388 21.9195 17.8578 22.242 17.4924C22.5502 17.157 22.7056 16.5675 22.7056 15.7252C22.7056 14.9132 22.5584 14.3168 22.2624 13.9398C21.9836 13.5609 21.5343 13.3716 20.9185 13.3716ZM30.5486 10.2942C30.6744 10.2385 30.771 10.2764 30.6442 10.5312C30.3185 11.2193 28.7679 14.4335 26.8382 14.4335C26.078 14.4335 25.1472 12.8802 25.0518 11.4625C27.5111 11.3829 29.9566 10.5532 30.5486 10.2942ZM25.2765 8.78399C25.2791 8.78423 25.2816 8.78456 25.2841 8.78496L25.2936 8.78705C25.2974 8.78807 25.301 8.7893 25.3044 8.79076C25.3073 8.79193 25.3099 8.79318 25.3123 8.79456C25.3172 8.7974 25.3218 8.80087 25.326 8.80494C25.3359 8.81455 25.343 8.82732 25.3473 8.84355L25.3345 8.81497C25.34 8.82293 25.3443 8.83246 25.3472 8.84362L25.3497 8.86316C25.3622 9.07341 25.2229 10.5446 26.1051 10.8629L26.026 10.8283L26.105 10.8629C26.1091 10.8646 26.1113 10.8692 26.1086 10.8721L26.1004 10.8745C25.933 10.9021 25.7571 10.9273 25.5819 10.949C25.2956 10.9843 25.0106 11.01 24.7668 11.0201L24.6055 11.0245L24.4601 11.0234C24.1444 11.0146 23.9328 10.9327 23.8771 10.6947C23.8673 10.6533 23.8623 10.6072 23.8623 10.5558C23.8623 10.5139 23.8658 10.471 23.8726 10.4274C23.8758 10.4065 23.8797 10.3855 23.8843 10.3644C23.8954 10.3135 23.9106 10.2616 23.9292 10.2093C23.9342 10.1955 23.9394 10.1815 23.9448 10.1675C23.9518 10.1494 23.9591 10.1318 23.9666 10.1142C23.9729 10.0996 23.9797 10.0845 23.9866 10.0695C23.9957 10.0498 24.005 10.0304 24.0148 10.0111C24.0218 9.99721 24.0291 9.98292 24.0367 9.96865C24.0468 9.94967 24.057 9.9311 24.0675 9.91257C24.0721 9.90447 24.0768 9.8963 24.0816 9.88814L24.111 9.8389C24.1157 9.83121 24.1205 9.82354 24.1253 9.81588C24.1802 9.72852 24.241 9.64271 24.3055 9.56012C24.3202 9.54127 24.3352 9.52238 24.3505 9.50368C24.3874 9.45839 24.4253 9.41422 24.4637 9.3715C24.5289 9.29886 24.5958 9.23034 24.662 9.16754C24.7374 9.09616 24.8124 9.03187 24.8834 8.97733C24.8925 8.97032 24.9015 8.96349 24.9105 8.95683C24.9253 8.94583 24.9401 8.93519 24.9546 8.92503C24.9707 8.91375 24.986 8.90337 25.0011 8.89359C25.0079 8.88919 25.0153 8.88448 25.0226 8.87991C25.0327 8.87355 25.0424 8.8677 25.0519 8.86212C25.0665 8.85358 25.0806 8.84573 25.0942 8.83854C25.1013 8.8348 25.1087 8.83104 25.116 8.82747C25.1283 8.8215 25.1398 8.81628 25.1509 8.81161C25.1606 8.80753 25.1703 8.80376 25.1797 8.80045C25.1877 8.79769 25.1954 8.79524 25.2028 8.79313C25.2254 8.78675 25.2459 8.78345 25.2639 8.78345L25.2249 8.78775C25.2369 8.78529 25.2483 8.78386 25.2589 8.78351L25.2639 8.78345L25.2765 8.78399Z" fill="white"/>
</g>
<defs>
<linearGradient id="paint0_linear_1_4589" x1="29.2525" y1="27.4621" x2="27.8049" y2="27.9043" gradientUnits="userSpaceOnUse">
<stop stop-color="#5B860C"/>
<stop offset="1" stop-color="#83B628"/>
</linearGradient>
<linearGradient id="paint1_linear_1_4589" x1="25.8407" y1="28.1949" x2="26.2244" y2="29.6039" gradientUnits="userSpaceOnUse">
<stop stop-color="#FFF22F"/>
<stop offset="1" stop-color="#F49124"/>
</linearGradient>
<linearGradient id="paint2_linear_1_4589" x1="25.2337" y1="28.5547" x2="25.9909" y2="29.8033" gradientUnits="userSpaceOnUse">
<stop stop-color="#FFF22F"/>
<stop offset="1" stop-color="#F49124"/>
</linearGradient>
<linearGradient id="paint3_linear_1_4589" x1="24.9472" y1="29.1818" x2="26.0533" y2="30.1353" gradientUnits="userSpaceOnUse">
<stop stop-color="#FFF22F"/>
<stop offset="1" stop-color="#F49124"/>
</linearGradient>
<linearGradient id="paint4_linear_1_4589" x1="24.7347" y1="29.8063" x2="26.0611" y2="30.4178" gradientUnits="userSpaceOnUse">
<stop stop-color="#FFF22F"/>
<stop offset="1" stop-color="#F49124"/>
</linearGradient>
<linearGradient id="paint5_linear_1_4589" x1="24.9275" y1="30.5302" x2="26.3861" y2="30.4471" gradientUnits="userSpaceOnUse">
<stop stop-color="#FFF22F"/>
<stop offset="1" stop-color="#F49124"/>
</linearGradient>
<linearGradient id="paint6_linear_1_4589" x1="25.444" y1="31.1698" x2="26.6788" y2="30.3901" gradientUnits="userSpaceOnUse">
<stop stop-color="#FFF22F"/>
<stop offset="1" stop-color="#F49124"/>
</linearGradient>
<linearGradient id="paint7_linear_1_4589" x1="26.0272" y1="31.5205" x2="26.999" y2="30.4309" gradientUnits="userSpaceOnUse">
<stop stop-color="#FFF22F"/>
<stop offset="1" stop-color="#F49124"/>
</linearGradient>
<linearGradient id="paint8_linear_1_4589" x1="26.7052" y1="31.6075" x2="27.2927" y2="30.2713" gradientUnits="userSpaceOnUse">
<stop stop-color="#FFF22F"/>
<stop offset="1" stop-color="#F49124"/>
</linearGradient>
<linearGradient id="paint9_linear_1_4589" x1="27.4056" y1="31.511" x2="27.4247" y2="30.0517" gradientUnits="userSpaceOnUse">
<stop stop-color="#FFF22F"/>
<stop offset="1" stop-color="#F49124"/>
</linearGradient>
<linearGradient id="paint10_linear_1_4589" x1="28.0758" y1="31.0404" x2="27.4304" y2="29.7305" gradientUnits="userSpaceOnUse">
<stop stop-color="#FFF22F"/>
<stop offset="1" stop-color="#F49124"/>
</linearGradient>
<linearGradient id="paint11_linear_1_4589" x1="28.5168" y1="30.3188" x2="27.3468" y2="29.4448" gradientUnits="userSpaceOnUse">
<stop stop-color="#FFF22F"/>
<stop offset="1" stop-color="#F49124"/>
</linearGradient>
<linearGradient id="paint12_linear_1_4589" x1="28.5491" y1="29.5312" x2="27.0955" y2="29.385" gradientUnits="userSpaceOnUse">
<stop stop-color="#FFF22F"/>
<stop offset="1" stop-color="#F49124"/>
</linearGradient>
<linearGradient id="paint13_linear_1_4589" x1="28.3846" y1="28.8851" x2="26.9388" y2="29.0951" gradientUnits="userSpaceOnUse">
<stop stop-color="#FFF22F"/>
<stop offset="1" stop-color="#F49124"/>
</linearGradient>
<linearGradient id="paint14_linear_1_4589" x1="26.4107" y1="27.9572" x2="26.4679" y2="29.4155" gradientUnits="userSpaceOnUse">
<stop stop-color="#FFF22F"/>
<stop offset="1" stop-color="#F49124"/>
</linearGradient>
<linearGradient id="paint15_linear_1_4589" x1="27.2457" y1="27.9751" x2="26.5891" y2="29.2787" gradientUnits="userSpaceOnUse">
<stop stop-color="#FFF22F"/>
<stop offset="1" stop-color="#F49124"/>
</linearGradient>
<linearGradient id="paint16_linear_1_4589" x1="27.9899" y1="28.3534" x2="26.7831" y2="29.1757" gradientUnits="userSpaceOnUse">
<stop stop-color="#FFF22F"/>
<stop offset="1" stop-color="#F49124"/>
</linearGradient>
<linearGradient id="paint17_linear_1_4589" x1="29.141" y1="27.5686" x2="29.7803" y2="29.9156" gradientUnits="userSpaceOnUse">
<stop stop-color="#FFF22F"/>
<stop offset="1" stop-color="#F49124"/>
</linearGradient>
<linearGradient id="paint18_linear_1_4589" x1="28.1295" y1="28.168" x2="29.3914" y2="30.2491" gradientUnits="userSpaceOnUse">
<stop stop-color="#FFF22F"/>
<stop offset="1" stop-color="#F49124"/>
</linearGradient>
<linearGradient id="paint19_linear_1_4589" x1="27.6518" y1="29.2139" x2="29.4947" y2="30.8033" gradientUnits="userSpaceOnUse">
<stop stop-color="#FFF22F"/>
<stop offset="1" stop-color="#F49124"/>
</linearGradient>
<linearGradient id="paint20_linear_1_4589" x1="27.2977" y1="30.2545" x2="29.5078" y2="31.2743" gradientUnits="userSpaceOnUse">
<stop stop-color="#FFF22F"/>
<stop offset="1" stop-color="#F49124"/>
</linearGradient>
<linearGradient id="paint21_linear_1_4589" x1="27.6194" y1="31.461" x2="30.0499" y2="31.3229" gradientUnits="userSpaceOnUse">
<stop stop-color="#FFF22F"/>
<stop offset="1" stop-color="#F49124"/>
</linearGradient>
<linearGradient id="paint22_linear_1_4589" x1="28.48" y1="32.5266" x2="30.5379" y2="31.2272" gradientUnits="userSpaceOnUse">
<stop stop-color="#FFF22F"/>
<stop offset="1" stop-color="#F49124"/>
</linearGradient>
<linearGradient id="paint23_linear_1_4589" x1="29.1634" y1="32.5493" x2="29.9963" y2="31.2801" gradientUnits="userSpaceOnUse">
<stop stop-color="#FFF22F"/>
<stop offset="1" stop-color="#F49124"/>
</linearGradient>
<linearGradient id="paint24_linear_1_4589" x1="30.4602" y1="33.4674" x2="30.8152" y2="31.1194" gradientUnits="userSpaceOnUse">
<stop stop-color="#FFF22F"/>
<stop offset="1" stop-color="#F49124"/>
</linearGradient>
<linearGradient id="paint25_linear_1_4589" x1="31.4259" y1="33.991" x2="31.036" y2="31.4526" gradientUnits="userSpaceOnUse">
<stop stop-color="#FFF22F"/>
<stop offset="1" stop-color="#F49124"/>
</linearGradient>
<linearGradient id="paint26_linear_1_4589" x1="31.9679" y1="30.0583" x2="31.2652" y2="31.7133" gradientUnits="userSpaceOnUse">
<stop stop-color="#FFF22F"/>
<stop offset="1" stop-color="#F49124"/>
</linearGradient>
<linearGradient id="paint27_linear_1_4589" x1="32.1443" y1="29.725" x2="31.355" y2="31.014" gradientUnits="userSpaceOnUse">
<stop stop-color="#FFF22F"/>
<stop offset="1" stop-color="#F49124"/>
</linearGradient>
<linearGradient id="paint28_linear_1_4589" x1="32.2925" y1="29.8028" x2="31.4154" y2="30.566" gradientUnits="userSpaceOnUse">
<stop stop-color="#FFF22F"/>
<stop offset="1" stop-color="#F49124"/>
</linearGradient>
<linearGradient id="paint29_linear_1_4589" x1="32.2732" y1="29.0006" x2="31.2842" y2="29.8221" gradientUnits="userSpaceOnUse">
<stop stop-color="#FFF22F"/>
<stop offset="1" stop-color="#F49124"/>
</linearGradient>
<linearGradient id="paint30_linear_1_4589" x1="30.0911" y1="27.1721" x2="30.1865" y2="29.6026" gradientUnits="userSpaceOnUse">
<stop stop-color="#FFF22F"/>
<stop offset="1" stop-color="#F49124"/>
</linearGradient>
<linearGradient id="paint31_linear_1_4589" x1="31.4828" y1="27.2021" x2="30.3884" y2="29.3749" gradientUnits="userSpaceOnUse">
<stop stop-color="#FFF22F"/>
<stop offset="1" stop-color="#F49124"/>
</linearGradient>
<linearGradient id="paint32_linear_1_4589" x1="32.2611" y1="28.1307" x2="31.0202" y2="29.5425" gradientUnits="userSpaceOnUse">
<stop stop-color="#FFF22F"/>
<stop offset="1" stop-color="#F49124"/>
</linearGradient>
<clipPath id="clip0_1_4589">
<rect width="40" height="40" fill="white"/>
</clipPath>
</defs>
</svg>
