<svg width="40" height="40" viewBox="0 0 40 40" fill="none" xmlns="http://www.w3.org/2000/svg">
<g clip-path="url(#clip0_1_4559)">
<path d="M39.2129 11.449V11.449C40.2624 17.0781 40.2624 22.8026 39.2129 28.5271V28.5271C38.2588 33.9654 33.9654 38.2588 28.5271 39.2129V39.2129C22.898 40.2624 17.1735 40.2624 11.449 39.2129V39.2129C6.01073 38.2588 1.81276 34.0608 0.858676 28.6225V28.6225C-0.286225 22.9934 -0.286225 17.1735 0.858676 11.449V11.449C1.81276 6.01073 6.01073 1.81276 11.449 0.858676V0.858676C17.0781 -0.286225 22.898 -0.286225 28.6225 0.858676V0.858676C34.0608 1.81276 38.2588 6.01073 39.2129 11.449Z" fill="white"/>
<path fill-rule="evenodd" clip-rule="evenodd" d="M38.2293 28.3468C39.2571 22.7405 39.2565 17.1393 38.2298 11.6323L39.2129 11.449C40.2624 17.0781 40.2624 22.8026 39.2129 28.5271L38.2293 28.3468ZM28.5271 39.2129C33.9654 38.2588 38.2588 33.9654 39.2129 28.5271L38.2279 28.3543C37.3466 33.3779 33.3779 37.3466 28.3543 38.2279L28.5271 39.2129ZM11.449 39.2129C17.1735 40.2624 22.898 40.2624 28.5271 39.2129L28.3438 38.2298C22.8369 39.2565 17.2356 39.2571 11.6293 38.2293L11.449 39.2129ZM28.6225 0.858676L28.4497 1.84363C33.4733 2.72496 37.3466 6.59823 38.2279 11.6218L39.2129 11.449C38.2588 6.01073 34.0608 1.81276 28.6225 0.858676ZM11.449 0.858676C17.0781 -0.286225 22.898 -0.286225 28.6225 0.858676L28.4264 1.83926C22.8303 0.720026 17.1448 0.720683 11.6483 1.83861L11.449 0.858676ZM0.858676 11.449C1.81276 6.01073 6.01073 1.81276 11.449 0.858676L11.6218 1.84363C6.59823 2.72496 2.72496 6.59823 1.84363 11.6218L0.858676 11.449ZM0.858676 11.449L1.83926 11.6451C0.720026 17.2413 0.720683 22.9267 1.83861 28.4232L0.858676 28.6225C-0.286225 22.9934 -0.286225 17.1735 0.858676 11.449ZM0.858676 28.6225C1.81276 34.0608 6.01073 38.2588 11.449 39.2129L11.6218 38.2279C6.59823 37.3466 2.72496 33.4733 1.84363 28.4497L0.858676 28.6225Z" fill="#EEF4FE"/>
<rect x="8.44444" y="8.44434" width="23.1111" height="23.1111" fill="black"/>
<path d="M12.2081 15.8916H13.6403V23.1859H17.5969V24.5452H12.2081V15.8916Z" fill="white"/>
<path d="M18.7133 18.4527H20.0484V24.5455H18.7133V18.4527ZM19.3809 17.1298C19.1381 17.1298 18.9318 17.0448 18.7497 16.8749C18.5677 16.6928 18.4827 16.4865 18.4827 16.2316C18.4827 15.9889 18.5677 15.7826 18.7497 15.6126C18.9318 15.4185 19.1381 15.3335 19.3809 15.3335C19.6358 15.3335 19.8421 15.4185 20.012 15.6005C20.1819 15.7704 20.2669 15.9768 20.2669 16.2195C20.2669 16.4744 20.1819 16.6928 20.012 16.8628C19.8542 17.0448 19.6358 17.1298 19.3809 17.1298Z" fill="white"/>
<path d="M24.612 23.4287C24.879 23.4287 25.1217 23.3802 25.3402 23.2831C25.5708 23.186 25.765 23.0525 25.9227 22.8826C26.0805 22.7005 26.214 22.4942 26.299 22.2636C26.384 22.033 26.4325 21.7781 26.4325 21.5111C26.4325 21.2441 26.384 20.9892 26.299 20.7586C26.214 20.528 26.0805 20.3217 25.9227 20.1517C25.765 19.9697 25.5708 19.8362 25.3402 19.7391C25.1217 19.642 24.879 19.5934 24.612 19.5934C24.3449 19.5934 24.09 19.642 23.8716 19.7391C23.641 19.8362 23.4468 19.9697 23.289 20.1517C23.1312 20.3217 22.9977 20.528 22.9128 20.7586C22.8278 20.9892 22.7793 21.2441 22.7793 21.5111C22.7793 21.7781 22.8278 22.033 22.9128 22.2636C22.9977 22.4942 23.1312 22.7005 23.289 22.8826C23.4468 23.0525 23.641 23.186 23.8716 23.2831C24.1022 23.3802 24.3449 23.4287 24.612 23.4287ZM24.612 24.6667C24.1629 24.6667 23.7381 24.5817 23.3497 24.4239C22.9734 24.2662 22.6336 24.0356 22.3423 23.7564C22.0632 23.4651 21.8326 23.1253 21.6748 22.7491C21.517 22.3606 21.4321 21.948 21.4321 21.5111C21.4321 21.0742 21.517 20.6615 21.6748 20.2852C21.8326 19.8969 22.0632 19.557 22.3423 19.2779C22.6336 18.9866 22.9734 18.756 23.3497 18.5982C23.7381 18.4404 24.1629 18.3555 24.612 18.3555C25.061 18.3555 25.4737 18.4404 25.862 18.5982C26.2504 18.756 26.5903 18.9866 26.8694 19.2779C27.1607 19.557 27.3913 19.8969 27.5491 20.2852C27.7069 20.6615 27.7918 21.0742 27.7918 21.5111C27.7918 21.948 27.7069 22.3606 27.5491 22.7491C27.3913 23.1253 27.1607 23.4651 26.8694 23.7564C26.5903 24.0356 26.2504 24.2662 25.862 24.4239C25.4737 24.5939 25.061 24.6667 24.612 24.6667Z" fill="white"/>
</g>
<defs>
<clipPath id="clip0_1_4559">
<rect width="40" height="40" fill="white"/>
</clipPath>
</defs>
</svg>
