<svg width="24" height="24" viewBox="0 0 24 24" fill="none" xmlns="http://www.w3.org/2000/svg">
<path fill-rule="evenodd" clip-rule="evenodd" d="M21.3112 20.6195C21.3112 21.0392 20.9709 21.3795 20.5512 21.3795H3.15468C2.73494 21.3795 2.39468 21.0392 2.39468 20.6195C2.39468 20.1997 2.73494 19.8595 3.15468 19.8595H20.5512C20.9709 19.8595 21.3112 20.1997 21.3112 20.6195Z" fill="#001F3E"/>
<path fill-rule="evenodd" clip-rule="evenodd" d="M12.5645 3.49999C12.5645 3.08025 12.2242 2.73999 11.8045 2.73999C11.3847 2.73999 11.0445 3.08025 11.0445 3.49999V5.62028C8.52891 5.78284 6.42392 6.59984 4.84165 8.06724C3.06497 9.71496 2.03378 12.1026 1.75115 15.057C1.6223 16.404 2.65029 17.56 3.96186 17.56H20.0385C21.3501 17.56 22.3781 16.404 22.2493 15.057C21.9666 12.1026 20.9354 9.71496 19.1588 8.06724C17.4951 6.52434 15.2535 5.7005 12.5645 5.60038V3.49999ZM3.26425 15.2018C3.5212 12.5157 4.43914 10.5136 5.87524 9.18174C7.30931 7.85177 9.34646 7.11 12.0002 7.11C14.6539 7.11 16.6911 7.85177 18.1252 9.18174C19.5613 10.5136 20.4792 12.5157 20.7362 15.2018C20.783 15.6916 20.4182 16.04 20.0385 16.04H3.96186C3.58221 16.04 3.21739 15.6916 3.26425 15.2018Z" fill="#001F3E"/>
</svg>
