<svg width="24" height="24" viewBox="0 0 24 24" fill="none" xmlns="http://www.w3.org/2000/svg">
<path d="M7.67871 14.4854C8.14305 14.4854 8.51937 14.8619 8.51953 15.3262V17.4941C8.51953 17.9586 8.14315 18.335 7.67871 18.335C7.21433 18.3349 6.83789 17.9585 6.83789 17.4941V15.3262C6.83805 14.8619 7.21443 14.4854 7.67871 14.4854Z" fill="#0033C9"/>
<path d="M11.6533 12.0391C12.1177 12.0391 12.494 12.4155 12.4941 12.8799V17.4941C12.4941 17.9586 12.1178 18.335 11.6533 18.335C11.1889 18.3349 10.8125 17.9585 10.8125 17.4941V12.8799C10.8126 12.4156 11.189 12.0391 11.6533 12.0391Z" fill="#0033C9"/>
<path d="M15.6299 10.5098C16.0943 10.5098 16.4707 10.8871 16.4707 11.3516V17.4941C16.4707 17.9586 16.0943 18.335 15.6299 18.335C15.1655 18.3349 14.7891 17.9585 14.7891 17.4941V11.3516C14.7891 10.8872 15.1655 10.5098 15.6299 10.5098Z" fill="#0033C9"/>
<path fill-rule="evenodd" clip-rule="evenodd" d="M11.6543 1.5C12.2688 1.5 12.8511 1.50544 13.4111 1.51562C14.4557 1.53463 15.4389 1.97691 16.1572 2.71777L20.1631 6.84961C20.852 7.56015 21.2587 8.50602 21.2812 9.50488C21.2996 10.3163 21.3086 11.1361 21.3086 11.9629C21.3086 14.2409 21.2382 16.4647 21.1035 18.6113C20.9816 20.5538 19.4387 22.0982 17.5 22.2314C15.6515 22.3585 13.8647 22.4258 11.6543 22.4258C9.44382 22.4258 7.65713 22.3585 5.80859 22.2314C3.86985 22.0982 2.32699 20.5538 2.20508 18.6113C2.07035 16.4647 2 14.2409 2 11.9629C2 9.68472 2.07033 7.46028 2.20508 5.31348C2.32714 3.37119 3.86995 1.82665 5.80859 1.69336C7.65712 1.56627 9.44383 1.5 11.6543 1.5ZM11.6543 3.0293C9.47833 3.0293 7.72629 3.09409 5.91309 3.21875C4.73692 3.29976 3.80531 4.2355 3.73145 5.40918C3.59873 7.52367 3.5293 9.71624 3.5293 11.9629C3.5293 14.2094 3.59874 16.4012 3.73145 18.5156C3.80512 19.6895 4.73681 20.625 5.91309 20.7061C7.72629 20.8307 9.47833 20.8965 11.6543 20.8965C13.8303 20.8965 15.5823 20.8307 17.3955 20.7061C18.5719 20.6252 19.5035 19.6896 19.5771 18.5156C19.7099 16.4012 19.7803 14.2094 19.7803 11.9629C19.7803 11.1475 19.771 10.339 19.7529 9.53906C19.7393 8.93489 19.4927 8.35474 19.0654 7.91406L15.0596 3.78223C14.6136 3.32221 14.0115 3.0554 13.3838 3.04395C12.8336 3.03394 12.2604 3.0293 11.6543 3.0293Z" fill="#0033C9"/>
</svg>
