<svg width="24" height="24" viewBox="0 0 24 24" fill="none" xmlns="http://www.w3.org/2000/svg">
<path fill-rule="evenodd" clip-rule="evenodd" d="M12.001 6.02832C12.7346 6.02843 13.2504 6.57542 13.5439 7.16504L14.4307 8.9375C14.4322 8.93967 14.436 8.94585 14.4434 8.9541C14.4579 8.97041 14.4793 8.99018 14.5059 9.00977C14.5323 9.02931 14.5581 9.04402 14.5791 9.05371C14.5915 9.05942 14.599 9.06269 14.6016 9.06348L16.2051 9.3291C16.8482 9.43629 17.5036 9.7697 17.7236 10.4541C17.944 11.1398 17.6032 11.7921 17.1396 12.2529L15.8945 13.499C15.8932 13.5007 15.8881 13.5073 15.8809 13.5205C15.8696 13.5412 15.8571 13.5695 15.8477 13.6025C15.8382 13.6356 15.8335 13.6668 15.832 13.6914C15.831 13.7088 15.8318 13.7186 15.832 13.7207L16.1875 15.2607C16.3431 15.936 16.3365 16.788 15.6855 17.2627C15.0358 17.7364 14.222 17.4854 13.625 17.1328L12.1201 16.2422C12.1176 16.2412 12.1095 16.2379 12.0947 16.2344C12.0709 16.2287 12.0388 16.2246 12.0029 16.2246C11.9674 16.2246 11.9353 16.2285 11.9102 16.2344C11.8913 16.2388 11.881 16.2432 11.8789 16.2441L10.3789 17.1318C9.78089 17.4865 8.96835 17.7342 8.31934 17.2607C7.66948 16.7866 7.65883 15.9366 7.81543 15.2598L8.1709 13.7207C8.17112 13.7186 8.17194 13.7088 8.1709 13.6914C8.16941 13.6668 8.16475 13.6356 8.15527 13.6025C8.14579 13.5695 8.13337 13.5412 8.12207 13.5205C8.11489 13.5074 8.10974 13.5008 8.1084 13.499L6.86133 12.252C6.40072 11.7913 6.06293 11.1402 6.28125 10.4561C6.50001 9.771 7.15392 9.43642 7.79785 9.3291L9.39746 9.06348C9.40015 9.0626 9.40718 9.06068 9.41797 9.05566C9.43866 9.04603 9.46451 9.03054 9.49121 9.01074C9.51787 8.99097 9.53895 8.97064 9.55371 8.9541C9.56111 8.94581 9.56579 8.94076 9.56738 8.93848L10.4551 7.16309C10.7511 6.57427 11.2683 6.02832 12.001 6.02832ZM12 7.54688C11.9544 7.58538 11.878 7.6708 11.7949 7.83594L10.9102 9.60645C10.7824 9.86542 10.579 10.0718 10.3848 10.2158C10.1896 10.3605 9.93392 10.4943 9.65332 10.542H9.65137L8.04395 10.8086C7.86563 10.8384 7.76793 10.887 7.72363 10.917C7.74245 10.9676 7.79517 11.0637 7.92285 11.1914L9.17188 12.4404C9.39002 12.6586 9.52527 12.9376 9.59766 13.1904C9.67006 13.4436 9.70144 13.7494 9.63477 14.0469L9.63379 14.0518L9.27637 15.5977C9.2317 15.7909 9.22573 15.9262 9.23242 16.0098C9.31455 15.9908 9.44144 15.9438 9.61328 15.8418L11.1211 14.9502L11.126 14.9473C11.4053 14.7848 11.7242 14.7247 12.0029 14.7246C12.281 14.7246 12.6029 14.7844 12.8828 14.9502L14.3877 15.8418C14.5595 15.9433 14.6873 15.9901 14.7705 16.0098C14.7767 15.9252 14.771 15.7905 14.7266 15.5977L14.3691 14.0518L14.3672 14.0469C14.3005 13.7494 14.3329 13.4436 14.4053 13.1904C14.4777 12.9375 14.6129 12.6586 14.8311 12.4404L16.082 11.1895C16.2098 11.0625 16.2623 10.9671 16.2812 10.917C16.2364 10.8866 16.1367 10.8384 15.958 10.8086L14.3516 10.542C14.0692 10.4949 13.8123 10.3622 13.6152 10.2168C13.4194 10.0723 13.2157 9.86564 13.0879 9.60645L12.2012 7.83398C12.1197 7.67029 12.0449 7.58525 12 7.54688Z" fill="#001F3E"/>
<path fill-rule="evenodd" clip-rule="evenodd" d="M12 1.25C17.9142 1.25 22.75 6.08579 22.75 12C22.75 17.9142 17.9142 22.75 12 22.75C6.08579 22.75 1.25 17.9142 1.25 12C1.25 6.08579 6.08579 1.25 12 1.25ZM12 2.75C6.91421 2.75 2.75 6.91421 2.75 12C2.75 17.0858 6.91421 21.25 12 21.25C17.0858 21.25 21.25 17.0858 21.25 12C21.25 6.91421 17.0858 2.75 12 2.75Z" fill="#001F3E"/>
</svg>
