<svg width="40" height="40" viewBox="0 0 40 40" fill="none" xmlns="http://www.w3.org/2000/svg">
<g clip-path="url(#clip0_1_1465)">
<path d="M39.2129 11.449V11.449C40.2624 17.0781 40.2624 22.8026 39.2129 28.5271V28.5271C38.2588 33.9654 33.9654 38.2588 28.5271 39.2129V39.2129C22.898 40.2624 17.1735 40.2624 11.449 39.2129V39.2129C6.01073 38.2588 1.81276 34.0608 0.858676 28.6225V28.6225C-0.286225 22.9934 -0.286225 17.1735 0.858676 11.449V11.449C1.81276 6.01073 6.01073 1.81276 11.449 0.858676V0.858676C17.0781 -0.286225 22.898 -0.286225 28.6225 0.858676V0.858676C34.0608 1.81276 38.2588 6.01073 39.2129 11.449Z" fill="white"/>
<path fill-rule="evenodd" clip-rule="evenodd" d="M38.2293 28.3468C39.2571 22.7405 39.2565 17.1393 38.2298 11.6323L39.2129 11.449C40.2624 17.0781 40.2624 22.8026 39.2129 28.5271L38.2293 28.3468ZM28.5271 39.2129C33.9654 38.2588 38.2588 33.9654 39.2129 28.5271L38.2279 28.3543C37.3466 33.3779 33.3779 37.3466 28.3543 38.2279L28.5271 39.2129ZM11.449 39.2129C17.1735 40.2624 22.898 40.2624 28.5271 39.2129L28.3438 38.2298C22.8369 39.2565 17.2356 39.2571 11.6293 38.2293L11.449 39.2129ZM28.6225 0.858676L28.4497 1.84363C33.4733 2.72496 37.3466 6.59823 38.2279 11.6218L39.2129 11.449C38.2588 6.01073 34.0608 1.81276 28.6225 0.858676ZM11.449 0.858676C17.0781 -0.286225 22.898 -0.286225 28.6225 0.858676L28.4264 1.83926C22.8303 0.720026 17.1448 0.720683 11.6483 1.83861L11.449 0.858676ZM0.858676 11.449C1.81276 6.01073 6.01073 1.81276 11.449 0.858676L11.6218 1.84363C6.59823 2.72496 2.72496 6.59823 1.84363 11.6218L0.858676 11.449ZM0.858676 11.449L1.83926 11.6451C0.720026 17.2413 0.720683 22.9267 1.83861 28.4232L0.858676 28.6225C-0.286225 22.9934 -0.286225 17.1735 0.858676 11.449ZM0.858676 28.6225C1.81276 34.0608 6.01073 38.2588 11.449 39.2129L11.6218 38.2279C6.59823 37.3466 2.72496 33.4733 1.84363 28.4497L0.858676 28.6225Z" fill="#EEF4FE"/>
<path fill-rule="evenodd" clip-rule="evenodd" d="M10.9769 6.87069C13.8891 6.56481 16.9304 6.40002 20.04 6.40002C23.1428 6.40002 26.1307 6.57493 29.0414 6.87589C31.2127 7.10041 33.0007 8.74293 33.3139 10.9388C33.6235 13.1086 33.8007 15.3697 33.8007 17.6761C33.8007 19.97 33.6064 22.1931 33.3032 24.3411C32.9891 26.5659 31.182 28.2491 28.971 28.4736C26.1652 28.7586 23.2679 28.9426 20.2737 28.9517C18.179 31.2974 16.4462 32.5456 13.5786 33.8336C13.2691 33.9726 12.9104 33.9452 12.6256 33.761C12.3408 33.5767 12.1688 33.2606 12.1688 32.9214V28.4857C12.0086 28.4708 11.8488 28.4558 11.6896 28.441L11.2466 28.3997C9.00714 28.1912 7.06148 26.5423 6.73859 24.2229C6.44356 22.1036 6.2793 19.9226 6.2793 17.6761C6.2793 15.3543 6.44328 13.0678 6.75978 10.8759C7.07273 8.70868 8.83772 7.09537 10.9769 6.87069ZM20.04 8.40002C17.0005 8.40002 14.0289 8.56113 11.1858 8.85975C9.91823 8.99288 8.91587 9.93865 8.73925 11.1618C8.43676 13.2566 8.2793 15.4475 8.2793 17.6761C8.2793 19.8246 8.43637 21.9134 8.71949 23.9471C8.90186 25.2572 10.0228 26.2771 11.432 26.4083L11.8741 26.4495C12.3338 26.4924 12.7956 26.5355 13.2589 26.5774C13.7742 26.6241 14.1688 27.056 14.1688 27.5734V31.3266C16.0785 30.3191 17.3994 29.2142 19.0673 27.2955C19.2583 27.0758 19.5356 26.9503 19.8267 26.9516C19.8977 26.9519 19.9688 26.9521 20.04 26.9521C23.0367 26.9521 25.9429 26.7709 28.7689 26.4839C30.0888 26.3498 31.1408 25.3508 31.3228 24.0615C31.6159 21.9851 31.8007 19.8574 31.8007 17.6761C31.8007 15.4715 31.6312 13.305 31.334 11.2213C31.1553 9.96873 30.1292 8.99904 28.8357 8.86529C25.9859 8.57063 23.0671 8.40002 20.04 8.40002Z" fill="#0033C9"/>
<path fill-rule="evenodd" clip-rule="evenodd" d="M21.5568 14.2541C21.1811 14.0167 20.6712 13.8154 20.0499 13.8739C18.7414 13.997 18.2824 14.7959 18.2824 15.4793C18.2824 15.7899 18.3427 15.9679 18.4001 16.0729C18.4561 16.1754 18.5409 16.2663 18.6835 16.3548C19.0234 16.5659 19.5229 16.6778 20.2766 16.8308C20.2968 16.8349 20.3173 16.8391 20.3381 16.8433C20.9833 16.974 21.8498 17.1495 22.5399 17.593C22.9221 17.8386 23.2702 18.1754 23.5159 18.6385C23.7598 19.0982 23.8728 19.6256 23.8728 20.2101C23.8728 21.0284 23.4667 21.7125 22.938 22.2018C22.4105 22.6899 21.7161 23.033 20.9766 23.2112C19.4969 23.5676 17.641 23.3033 16.2482 21.9111C15.8575 21.5207 15.8574 20.8875 16.2478 20.4969C16.6382 20.1063 17.2714 20.1061 17.662 20.4966C18.4785 21.3127 19.5814 21.49 20.5083 21.2668C20.972 21.1551 21.3428 20.953 21.5796 20.7339C21.8153 20.5158 21.8728 20.3304 21.8728 20.2101C21.8728 19.8845 21.811 19.6923 21.7492 19.5758C21.6892 19.4627 21.6005 19.3667 21.4586 19.2755C21.1227 19.0596 20.6253 18.9424 19.8786 18.7908C19.8476 18.7845 19.8161 18.7782 19.784 18.7717C19.1487 18.6434 18.3026 18.4726 17.6283 18.0538C17.2468 17.8169 16.8949 17.4891 16.6452 17.0323C16.3969 16.578 16.2824 16.0563 16.2824 15.4793C16.2824 13.728 17.5628 12.099 19.8626 11.8827C21.0455 11.7714 21.9938 12.1643 22.6253 12.5635C22.9414 12.7633 23.1869 12.9696 23.3561 13.1288C23.4411 13.2089 23.5082 13.2782 23.5566 13.3307C23.5808 13.3569 23.6004 13.3791 23.6154 13.3964L23.6344 13.4186L23.6413 13.4268L23.644 13.4301L23.6453 13.4316L23.6458 13.4323C23.6461 13.4327 23.6464 13.433 22.8825 14.0586L23.6464 13.433C23.9963 13.8602 23.9337 14.4903 23.5064 14.8403C23.0813 15.1884 22.4555 15.1282 22.1045 14.7067M21.5568 14.2541C21.7443 14.3727 21.8897 14.4952 21.9854 14.5853ZM21.9854 14.5853C22.0329 14.63 22.0668 14.6654 22.0863 14.6865ZM22.0863 14.6865C22.096 14.6971 22.102 14.7039 22.1042 14.7065ZM22.1042 14.7065L22.1026 14.7045ZM22.1026 14.7045L22.1011 14.7026ZM22.1011 14.7026L22.1002 14.7016ZM22.0997 14.7009C22.0997 14.7009 22.0997 14.7009 22.0997 14.7009L22.1001 14.7014C22.0999 14.7013 22.0998 14.7011 22.0997 14.7009Z" fill="#00CF6A"/>
<path fill-rule="evenodd" clip-rule="evenodd" d="M20.1777 10.2C20.73 10.2 21.1777 10.6477 21.1777 11.2L21.1777 12.8637C21.1777 13.416 20.73 13.8637 20.1777 13.8637C19.6254 13.8637 19.1777 13.416 19.1777 12.8637L19.1777 11.2C19.1777 10.6477 19.6254 10.2 20.1777 10.2Z" fill="#00CF6A"/>
<path fill-rule="evenodd" clip-rule="evenodd" d="M20.1777 21.3362C20.73 21.3362 21.1777 21.7839 21.1777 22.3362L21.1777 23.9999C21.1777 24.5522 20.73 24.9999 20.1777 24.9999C19.6254 24.9999 19.1777 24.5522 19.1777 23.9999L19.1777 22.3362C19.1777 21.7839 19.6254 21.3362 20.1777 21.3362Z" fill="#00CF6A"/>
</g>
<defs>
<clipPath id="clip0_1_1465">
<rect width="40" height="40" fill="white"/>
</clipPath>
</defs>
</svg>
