<svg width="57" height="24" viewBox="0 0 57 24" fill="none" xmlns="http://www.w3.org/2000/svg">
<path d="M16.9113 9.05411C17.0912 9.05411 17.1856 9.26773 17.0642 9.40089L11.9334 15.3682C11.9334 15.3682 11.5323 15.882 10.7663 15.9896V12.8456L13.1406 10.0931C13.7095 9.4334 14.5374 9.05411 15.4085 9.05411H16.9113ZM5.71017 9.05411C6.58128 9.05411 7.40919 9.4334 7.97821 10.0931L10.3525 12.8456V15.9896C9.58638 15.882 9.18541 15.3682 9.18541 15.3682L4.05449 9.40089C3.9332 9.26788 4.02762 9.05411 4.20754 9.05411H5.71017ZM13.5933 5.19278V8.25831C13.5933 8.69342 13.4369 9.11398 13.1527 9.44339L10.7664 12.2101V7.92028L13.2345 5.05947C13.358 4.91622 13.5933 5.00366 13.5933 5.19278ZM7.52552 5.19278C7.52552 5.00366 7.76067 4.91622 7.88433 5.05947L10.3525 7.92028V12.2101L7.96597 9.44339C7.68184 9.11398 7.52552 8.69342 7.52552 8.25831V5.19278Z" fill="#E10600"/>
<path d="M52.2673 9.50599V9.68279H52.3557C52.4441 9.68279 52.4885 9.65251 52.4885 9.59164C52.4885 9.53478 52.4441 9.50599 52.3557 9.50599H52.2673ZM52.1013 10.106V9.35932H52.3669C52.4516 9.35932 52.5173 9.37312 52.5633 9.40088C52.624 9.44527 52.6544 9.50599 52.6544 9.58333C52.6544 9.696 52.6029 9.77053 52.4996 9.80764C52.5253 9.84638 52.586 9.9457 52.682 10.106H52.4885L52.3253 9.82976H52.2673V10.106H52.1013ZM52.8729 9.72718C52.8729 9.58333 52.8217 9.45967 52.7195 9.35649C52.617 9.25332 52.496 9.20166 52.3557 9.20166C52.2117 9.20166 52.0896 9.25302 51.9892 9.35501C51.8887 9.45759 51.8384 9.5817 51.8384 9.72718C51.8384 9.87296 51.8881 9.99706 51.988 10.0993C52.0873 10.2018 52.2092 10.2528 52.3529 10.2528C52.4948 10.2528 52.617 10.2018 52.7195 10.0993C52.8217 9.99706 52.8729 9.87296 52.8729 9.72718ZM52.8107 9.2695C52.9371 9.39583 53.0002 9.54844 53.0002 9.72718C53.0002 9.90606 52.9371 10.0587 52.8107 10.185C52.6844 10.3115 52.5317 10.3746 52.3529 10.3746C52.1761 10.3746 52.0243 10.3115 51.8979 10.185C51.7716 10.0587 51.7085 9.90606 51.7085 9.72718C51.7085 9.54844 51.771 9.39583 51.8966 9.2695C52.0222 9.14317 52.1749 9.08008 52.3557 9.08008C52.5328 9.08008 52.6844 9.14317 52.8107 9.2695Z" fill="#00B74F"/>
<path d="M51.8432 11.0371H51.064C50.6123 11.0371 50.1828 11.2338 49.8878 11.5758L48.6567 13.0032V14.6336C49.054 14.5778 49.262 14.3114 49.262 14.3114L51.9225 11.2169C51.9855 11.148 51.9365 11.0371 51.8432 11.0371Z" fill="#E10600"/>
<path d="M39.0054 10.9047C39.7002 10.9047 40.2362 11.1429 40.6231 11.6293V11.0438H41.9035V16.0062H40.6231V15.4207C40.2362 15.907 39.7002 16.1453 39.0054 16.1453C38.3403 16.1453 37.7746 15.8971 37.2984 15.391C36.8318 14.8848 36.5937 14.2595 36.5937 13.525C36.5937 12.7906 36.8318 12.1753 37.2984 11.6691C37.7746 11.1628 38.3403 10.9047 39.0054 10.9047ZM49.9806 13.5992L51.9547 16.0063H50.537C50.537 16.0063 49.9794 15.311 49.6065 14.8649C49.3971 14.6143 49.4027 14.2476 49.62 14.0038L49.9806 13.5992ZM20.0795 9.05859L21.7769 14.3984L23.464 9.05859H24.9628L22.6205 16.0063H20.9233L18.5908 9.05859H20.0795ZM28.1741 9.05861C28.8391 9.05861 29.4049 9.28693 29.8614 9.73362C30.3178 10.1802 30.5462 10.7361 30.5462 11.3911C30.5462 12.0462 30.3178 12.602 29.8614 13.0485C29.4049 13.4952 28.8391 13.7235 28.1741 13.7235H26.9533V16.0063H25.5836V9.05861H28.1741ZM33.9275 9.05859C34.5229 9.05859 35.0192 9.24728 35.4261 9.6144C35.8331 9.98166 36.0416 10.4482 36.0416 11.014C36.0416 11.5895 35.823 12.0561 35.3865 12.4034C35.9918 12.7507 36.2994 13.2869 36.2994 13.9915C36.2994 14.5771 36.0912 15.0633 35.6742 15.4405C35.2574 15.8177 34.7413 16.0063 34.1359 16.0063H31.1881V9.05859H33.9275ZM45.0829 10.9047C45.6286 10.9047 46.0753 11.0834 46.4229 11.4507C46.7802 11.8179 46.9588 12.3141 46.9588 12.9592V16.0062H45.6784V13.1181C45.6784 12.4532 45.2914 12.0958 44.6958 12.0958C44.0309 12.0958 43.6041 12.5027 43.6041 13.3265V16.0062H42.3238V11.0438H43.6041V11.5996C43.9118 11.133 44.4081 10.9047 45.0829 10.9047ZM48.6593 9.05864V16.0063H47.3791V9.05864H48.6593ZM39.2328 12.0813C38.4386 12.0813 37.7946 12.7253 37.7946 13.5194C37.7946 14.3137 38.4386 14.9575 39.2328 14.9575C40.0272 14.9575 40.671 14.3137 40.671 13.5194C40.671 12.7253 40.0272 12.0813 39.2328 12.0813ZM34.1359 13.0885H32.5577V14.726H34.1359C34.6025 14.726 34.9398 14.3786 34.9398 13.9021C34.9398 13.4358 34.6025 13.0885 34.1359 13.0885ZM28.1741 10.339H26.9533V12.4432H28.1741C28.7597 12.4432 29.1865 11.9867 29.1865 11.3911C29.1865 10.7857 28.7597 10.339 28.1741 10.339ZM33.9275 10.339H32.5577V11.8674H33.9275C34.3543 11.8674 34.6718 11.54 34.6718 11.1034C34.6718 10.6665 34.3641 10.339 33.9275 10.339Z" fill="#00B74F"/>
</svg>
