<svg width="24" height="24" viewBox="0 0 24 24" fill="none" xmlns="http://www.w3.org/2000/svg">
<path d="M7.10734 9.81679C7.00616 9.41512 6.59852 9.17153 6.19685 9.27272C5.79519 9.3739 5.5516 9.78154 5.65278 10.1832C5.95249 11.3729 5.95249 12.627 5.65278 13.8168C5.5516 14.2185 5.79519 14.6261 6.19685 14.7273C6.59852 14.8285 7.00616 14.5849 7.10734 14.1832C7.46763 12.7529 7.46763 11.247 7.10734 9.81679Z" fill="#001F3E"/>
<path fill-rule="evenodd" clip-rule="evenodd" d="M2.46967 5.46967C3.45818 4.48116 5.00536 4.25 7 4.25H13C14.9946 4.25 16.5418 4.48116 17.5303 5.46967C18.5188 6.45818 18.75 8.00536 18.75 10V14C18.75 15.9946 18.5188 17.5418 17.5303 18.5303C16.5418 19.5188 14.9946 19.75 13 19.75H7C5.00536 19.75 3.45818 19.5188 2.46967 18.5303C1.48116 17.5418 1.25 15.9946 1.25 14V10C1.25 8.00536 1.48116 6.45818 2.46967 5.46967ZM3.53033 6.53033C3.01884 7.04182 2.75 7.99464 2.75 10V14C2.75 16.0054 3.01884 16.9582 3.53033 17.4697C4.04182 17.9812 4.99464 18.25 7 18.25H13C15.0054 18.25 15.9582 17.9812 16.4697 17.4697C16.9812 16.9582 17.25 16.0054 17.25 14V10C17.25 7.99464 16.9812 7.04182 16.4697 6.53033C15.9582 6.01884 15.0054 5.75 13 5.75H7C4.99464 5.75 4.04182 6.01884 3.53033 6.53033Z" fill="#001F3E"/>
<path fill-rule="evenodd" clip-rule="evenodd" d="M19.75 9.5C19.75 9.08579 20.0858 8.75 20.5 8.75C21.2564 8.75 21.9868 8.8574 22.4125 9.425C22.6168 9.69744 22.6895 10.0003 22.7208 10.2507C22.7501 10.4853 22.75 10.7446 22.75 10.9739V13.0261C22.75 13.2554 22.7501 13.5147 22.7208 13.7493C22.6895 13.9997 22.6168 14.3026 22.4125 14.575C21.9868 15.1426 21.2564 15.25 20.5 15.25C20.0858 15.25 19.75 14.9142 19.75 14.5C19.75 14.0858 20.0858 13.75 20.5 13.75C20.8433 13.75 21.0426 13.7202 21.1541 13.6872C21.182 13.6789 21.2008 13.6716 21.2129 13.6661C21.2181 13.6483 21.2257 13.6161 21.2324 13.5632C21.2488 13.4318 21.25 13.2644 21.25 13V11C21.25 10.7356 21.2488 10.5682 21.2324 10.4368C21.2257 10.3839 21.2181 10.3517 21.2129 10.3339C21.2008 10.3284 21.182 10.3211 21.1541 10.3128C21.0426 10.2798 20.8433 10.25 20.5 10.25C20.0858 10.25 19.75 9.91421 19.75 9.5ZM21.2279 10.3417L21.2306 10.3436C21.2307 10.3436 21.2303 10.3431 21.2279 10.3417ZM21.2311 13.6561C21.2312 13.6561 21.2303 13.6569 21.2279 13.6583L21.2297 13.6569L21.2311 13.6561Z" fill="#001F3E"/>
</svg>
