<svg width="375" height="350" viewBox="0 0 375 350" fill="none" xmlns="http://www.w3.org/2000/svg">
<g clip-path="url(#clip0_26845_27505)">
<g filter="url(#filter0_d_26845_27505)">
<path d="M375.084 0H3.95801V335.359H375.084V0Z" fill="white"/>
<mask id="mask0_26845_27505" style="mask-type:luminance" maskUnits="userSpaceOnUse" x="3" y="0" width="373" height="220">
<path d="M375.084 0H3.95801V219.908H375.084V0Z" fill="white"/>
</mask>
<g mask="url(#mask0_26845_27505)">
<path d="M375.442 147.357C352.127 139.992 330.584 138.742 312.676 140.104L375.442 75.4577L387.637 62.8973L375.442 40.3164L373.88 40.9075C372.215 41.5375 370.507 42.1448 368.803 42.7099C354.724 47.4044 339.923 49.785 324.811 49.785C307.83 49.785 291.32 46.7987 275.741 40.9075L274.18 40.3164L261.671 63.4787L263.458 64.1786C266.992 65.5604 270.569 66.8173 274.178 67.9507C290.425 73.0512 307.405 75.6331 324.811 75.6331C328.852 75.6331 332.923 75.4902 336.966 75.206L274.178 139.869L261.986 152.429L274.18 175.008V175.01L275.743 174.419C277.4 173.79 279.109 173.185 280.818 172.616C294.906 167.921 309.706 165.538 324.813 165.538C341.789 165.538 358.3 168.526 373.884 174.419L375.444 175.01L387.951 151.849C383.733 150.146 379.56 148.658 375.442 147.357Z" fill="url(#paint0_linear_26845_27505)" stroke="url(#paint1_linear_26845_27505)" stroke-width="0.494834" stroke-linejoin="round"/>
<g filter="url(#filter1_f_26845_27505)">
<path d="M336.487 58.6428C425.033 58.6428 496.814 -10.0713 496.814 -94.8344C496.814 -179.597 425.033 -248.312 336.487 -248.312C247.942 -248.312 176.161 -179.597 176.161 -94.8344C176.161 -10.0713 247.942 58.6428 336.487 58.6428Z" fill="#B3FFE3"/>
</g>
</g>
<path d="M3.95801 335.36H375.084V341.076C375.084 341.787 374.247 342.227 373.586 341.862L365.516 337.399C364.266 336.708 362.706 336.708 361.456 337.399L353.919 341.568C352.668 342.259 351.109 342.259 349.858 341.568L342.321 337.399C341.071 336.708 339.511 336.708 338.261 337.399L330.723 341.568C329.473 342.259 327.913 342.259 326.663 341.568L319.125 337.399C317.875 336.708 316.315 336.708 315.065 337.399L307.528 341.568C306.277 342.259 304.718 342.259 303.467 341.568L295.93 337.399C294.68 336.708 293.12 336.708 291.87 337.399L284.332 341.568C283.082 342.259 281.523 342.259 280.273 341.568L272.734 337.399C271.484 336.708 269.925 336.708 268.675 337.399L261.137 341.568C259.886 342.259 258.328 342.259 257.077 341.568L249.539 337.399C248.289 336.708 246.73 336.708 245.479 337.399L237.941 341.568C236.691 342.259 235.132 342.259 233.882 341.568L226.344 337.399C225.094 336.708 223.534 336.708 222.284 337.399L214.747 341.568C213.496 342.259 211.937 342.259 210.686 341.568L203.149 337.399C201.899 336.708 200.339 336.708 199.089 337.399L191.551 341.568C190.301 342.259 188.741 342.259 187.491 341.568L179.953 337.399C178.703 336.708 177.143 336.708 175.893 337.399L168.356 341.568C167.105 342.259 165.546 342.259 164.295 341.568L156.758 337.399C155.508 336.708 153.948 336.708 152.698 337.399L145.16 341.568C143.91 342.259 142.35 342.259 141.1 341.568L133.562 337.399C132.312 336.708 130.752 336.708 129.502 337.399L121.965 341.568C120.714 342.259 119.155 342.259 117.905 341.568L110.367 337.399C109.117 336.708 107.558 336.708 106.308 337.399L98.7695 341.568C97.5192 342.259 95.9597 342.259 94.7094 341.568L87.1718 337.399C85.9215 336.708 84.3621 336.708 83.1117 337.399L75.5741 341.568C74.3239 342.259 72.7643 342.259 71.5141 341.568L63.9765 337.399C62.7261 336.708 61.1667 336.708 59.9164 337.399L52.3787 341.568C51.1285 342.259 49.569 342.259 48.3187 341.568L40.7811 337.399C39.5308 336.708 37.9713 336.708 36.721 337.399L29.1834 341.568C27.9331 342.259 26.3736 342.259 25.1234 341.568L17.5857 337.399C16.3354 336.708 14.776 336.708 13.5256 337.399L5.45519 341.862C4.79553 342.227 3.95801 341.787 3.95801 341.076V335.36Z" fill="white"/>
</g>
</g>
<defs>
<filter id="filter0_d_26845_27505" x="-0.000667095" y="0" width="379.043" height="350.003" filterUnits="userSpaceOnUse" color-interpolation-filters="sRGB">
<feFlood flood-opacity="0" result="BackgroundImageFix"/>
<feColorMatrix in="SourceAlpha" type="matrix" values="0 0 0 0 0 0 0 0 0 0 0 0 0 0 0 0 0 0 127 0" result="hardAlpha"/>
<feOffset dy="3.95867"/>
<feGaussianBlur stdDeviation="1.97934"/>
<feComposite in2="hardAlpha" operator="out"/>
<feColorMatrix type="matrix" values="0 0 0 0 0 0 0 0 0 0 0 0 0 0 0 0 0 0 0.03 0"/>
<feBlend mode="normal" in2="BackgroundImageFix" result="effect1_dropShadow_26845_27505"/>
<feBlend mode="normal" in="SourceGraphic" in2="effect1_dropShadow_26845_27505" result="shape"/>
</filter>
<filter id="filter1_f_26845_27505" x="-21.7726" y="-446.245" width="716.52" height="702.822" filterUnits="userSpaceOnUse" color-interpolation-filters="sRGB">
<feFlood flood-opacity="0" result="BackgroundImageFix"/>
<feBlend mode="normal" in="SourceGraphic" in2="BackgroundImageFix" result="shape"/>
<feGaussianBlur stdDeviation="98.9669" result="effect1_foregroundBlur_26845_27505"/>
</filter>
<linearGradient id="paint0_linear_26845_27505" x1="378.452" y1="42.6071" x2="275.753" y2="171.675" gradientUnits="userSpaceOnUse">
<stop stop-color="#E1FFED"/>
<stop offset="1" stop-color="white"/>
</linearGradient>
<linearGradient id="paint1_linear_26845_27505" x1="376.472" y1="48.5629" x2="277.215" y2="174.776" gradientUnits="userSpaceOnUse">
<stop stop-color="#E4FAFF" stop-opacity="0"/>
<stop offset="0.504949" stop-color="#BAF6EB"/>
<stop offset="1" stop-color="#CBFFE0"/>
</linearGradient>
<clipPath id="clip0_26845_27505">
<rect width="375" height="350" fill="white"/>
</clipPath>
</defs>
</svg>
