<svg width="36" height="36" viewBox="0 0 36 36" fill="none" xmlns="http://www.w3.org/2000/svg">
<g clip-path="url(#clip0_26845_27153)">
<path d="M35.2916 10.3041V10.3041C36.2361 15.3703 36.2361 20.5224 35.2916 25.6744V25.6744C34.4329 30.5689 30.5689 34.4329 25.6744 35.2916V35.2916C20.6082 36.2361 15.4562 36.2361 10.3041 35.2916V35.2916C5.40966 34.4329 1.63148 30.6547 0.772809 25.7603V25.7603C-0.257603 20.6941 -0.257603 15.4562 0.772809 10.3041V10.3041C1.63148 5.40966 5.40966 1.63148 10.3041 0.772809V0.772809C15.3703 -0.257603 20.6082 -0.257603 25.7603 0.772809V0.772809C30.6547 1.63148 34.4329 5.40966 35.2916 10.3041Z" fill="white"/>
<path fill-rule="evenodd" clip-rule="evenodd" d="M34.4063 25.5121C35.3314 20.4665 35.3309 15.4253 34.4068 10.4691L35.2916 10.3041C36.2361 15.3703 36.2361 20.5224 35.2916 25.6744L34.4063 25.5121ZM25.6744 35.2916C30.5689 34.4329 34.4329 30.5689 35.2916 25.6744L34.4051 25.5189C33.6119 30.0401 30.0401 33.6119 25.5189 34.4051L25.6744 35.2916ZM10.3041 35.2916C15.4562 36.2361 20.6082 36.2361 25.6744 35.2916L25.5095 34.4068C20.5532 35.3309 15.5121 35.3314 10.4664 34.4063L10.3041 35.2916ZM25.7603 0.772809L25.6048 1.65927C30.126 2.45247 33.6119 5.93841 34.4051 10.4596L35.2916 10.3041C34.4329 5.40966 30.6547 1.63148 25.7603 0.772809ZM10.3041 0.772809C15.3703 -0.257603 20.6082 -0.257603 25.7603 0.772809L25.5838 1.65533C20.5472 0.648024 15.4303 0.648615 10.4835 1.65475L10.3041 0.772809ZM0.772809 10.3041C1.63148 5.40966 5.40966 1.63148 10.3041 0.772809L10.4596 1.65927C5.93841 2.45247 2.45247 5.93841 1.65927 10.4596L0.772809 10.3041ZM0.772809 10.3041L1.65533 10.4806C0.648024 15.5172 0.648615 20.6341 1.65475 25.5809L0.772809 25.7603C-0.257603 20.6941 -0.257603 15.4562 0.772809 10.3041ZM0.772809 25.7603C1.63148 30.6547 5.40966 34.4329 10.3041 35.2916L10.4596 34.4051C5.93841 33.6119 2.45247 30.126 1.65927 25.6048L0.772809 25.7603Z" fill="url(#paint0_linear_26845_27153)"/>
<path fill-rule="evenodd" clip-rule="evenodd" d="M17.3932 6.03649C19.6334 5.74987 21.9089 6.10776 23.953 7.06821C25.9971 8.02867 27.725 9.55188 28.9343 11.4593C30.1436 13.3668 30.7841 15.5794 30.7808 17.8379C30.7775 20.0964 30.1305 22.3071 28.9156 24.211C27.7007 26.1149 25.9683 27.633 23.9214 28.5875C21.8745 29.5419 19.5979 29.8931 17.3585 29.5999C15.1192 29.3067 13.0098 28.3812 11.2776 26.932C10.8964 26.613 10.8459 26.0454 11.1648 25.6642C11.4838 25.283 12.0514 25.2325 12.4326 25.5514C13.9023 26.7811 15.6921 27.5663 17.5922 27.8151C19.4923 28.0639 21.4239 27.7659 23.1607 26.9561C24.8974 26.1463 26.3674 24.8582 27.3982 23.2427C28.429 21.6273 28.978 19.7515 28.9808 17.8353C28.9836 15.919 28.4402 14.0416 27.4141 12.4231C26.388 10.8047 24.9219 9.51227 23.1875 8.69734C21.4531 7.88241 19.5224 7.57875 17.6216 7.82194C15.7208 8.06514 13.9287 8.84511 12.4554 10.0704C12.0732 10.3883 11.5058 10.3361 11.1879 9.95397C10.8701 9.57181 10.9222 9.00436 11.3044 8.68652C13.0408 7.24238 15.1529 6.32312 17.3932 6.03649Z" fill="#0033C9"/>
<path fill-rule="evenodd" clip-rule="evenodd" d="M4.86035 13.3209C4.86035 12.8238 5.2633 12.4209 5.76035 12.4209H9.36035C9.85741 12.4209 10.2604 12.8238 10.2604 13.3209C10.2604 13.818 9.85741 14.2209 9.36035 14.2209H5.76035C5.2633 14.2209 4.86035 13.818 4.86035 13.3209Z" fill="#00CF6A"/>
<path fill-rule="evenodd" clip-rule="evenodd" d="M5.93945 18.0006C5.93945 17.5035 6.3424 17.1006 6.83945 17.1006H10.9795C11.4765 17.1006 11.8795 17.5035 11.8795 18.0006C11.8795 18.4976 11.4765 18.9006 10.9795 18.9006H6.83945C6.3424 18.9006 5.93945 18.4976 5.93945 18.0006Z" fill="#00CF6A"/>
<path fill-rule="evenodd" clip-rule="evenodd" d="M4.86035 22.6803C4.86035 22.1832 5.2633 21.7803 5.76035 21.7803H9.36035C9.85741 21.7803 10.2604 22.1832 10.2604 22.6803C10.2604 23.1773 9.85741 23.5803 9.36035 23.5803H5.76035C5.2633 23.5803 4.86035 23.1773 4.86035 22.6803Z" fill="#00CF6A"/>
<path fill-rule="evenodd" clip-rule="evenodd" d="M20.055 15.5301C19.7771 15.3697 19.3925 15.2294 18.9195 15.2701C18.3889 15.3156 18.0767 15.4923 17.9055 15.6605C17.7339 15.8292 17.6604 16.0296 17.6604 16.2226C17.6604 16.4049 17.6982 16.4877 17.7196 16.5234C17.7418 16.5605 17.7837 16.6091 17.8845 16.6662C18.1335 16.8074 18.5087 16.8856 19.101 16.9954C19.1185 16.9986 19.1364 17.0019 19.1544 17.0052C19.6524 17.0973 20.3377 17.2239 20.8888 17.5473C21.1974 17.7284 21.4923 17.9845 21.7046 18.3498C21.917 18.7153 22.0135 19.1331 22.0135 19.5862C22.0135 20.2659 21.6447 20.8058 21.2163 21.1678C20.7857 21.5316 20.2293 21.7797 19.648 21.9076C18.4906 22.1622 17.02 21.9807 15.8988 20.9575C15.5316 20.6224 15.5056 20.0531 15.8407 19.686C16.1757 19.3188 16.745 19.2928 17.1121 19.6279C17.7113 20.1747 18.5448 20.3072 19.2613 20.1496C19.6169 20.0714 19.89 19.932 20.0546 19.7929C20.1348 19.7251 20.1768 19.6682 20.1966 19.632C20.2061 19.6145 20.2101 19.6027 20.2118 19.5965C20.2134 19.5906 20.2135 19.5876 20.2135 19.5862C20.2135 19.392 20.174 19.2983 20.1483 19.2542C20.1225 19.2098 20.0774 19.1581 19.9779 19.0998C19.7327 18.9559 19.3596 18.874 18.7729 18.7652C18.7475 18.7605 18.7216 18.7557 18.6952 18.7509C18.2044 18.6605 17.5349 18.5372 16.9966 18.232C16.6893 18.0577 16.3911 17.8086 16.1752 17.4481C15.9586 17.0862 15.8604 16.6714 15.8604 16.2226C15.8604 14.8086 16.9808 13.63 18.7654 13.4767C19.6973 13.3966 20.4483 13.6788 20.9547 13.9711C21.2077 14.1171 21.4053 14.2686 21.5428 14.3867C21.6118 14.446 21.6667 14.4978 21.7068 14.5374C21.7268 14.5573 21.7433 14.5743 21.7561 14.5877L21.7725 14.6053L21.7787 14.612L21.7812 14.6148L21.7824 14.6161C21.7826 14.6164 21.7834 14.6173 21.136 15.1981L21.7834 14.6173C22.1154 14.9873 22.0845 15.5563 21.7145 15.8882C21.3469 16.218 20.7828 16.1896 20.45 15.8264C20.4482 15.8244 20.4464 15.8224 20.4446 15.8203L20.4455 15.8214L20.4471 15.8231L20.45 15.8264C20.4512 15.8277 20.4511 15.8275 20.4508 15.8272C20.4507 15.827 20.4504 15.8268 20.45 15.8264C20.4486 15.8249 20.4453 15.8215 20.4403 15.8166C20.4276 15.8039 20.4038 15.7812 20.3697 15.7519C20.3008 15.6927 20.194 15.6103 20.055 15.5301ZM20.4446 15.8203C20.4442 15.82 20.4439 15.8196 20.4436 15.8192L21.1135 15.2183C20.4436 15.8192 20.4443 15.8201 20.4446 15.8203Z" fill="#0033C9"/>
<path fill-rule="evenodd" clip-rule="evenodd" d="M19.0162 11.7764C19.5133 11.7764 19.9162 12.1793 19.9162 12.6764L19.9162 14.3634C19.9162 14.8605 19.5133 15.2634 19.0162 15.2634C18.5192 15.2634 18.1162 14.8605 18.1162 14.3634L18.1162 12.6764C18.1162 12.1793 18.5192 11.7764 19.0162 11.7764Z" fill="#0033C9"/>
<path fill-rule="evenodd" clip-rule="evenodd" d="M19.0162 20.1982C19.5133 20.1982 19.9162 20.6012 19.9162 21.0982L19.9162 22.7853C19.9162 23.2823 19.5133 23.6853 19.0162 23.6853C18.5192 23.6853 18.1162 23.2823 18.1162 22.7853L18.1162 21.0982C18.1162 20.6012 18.5192 20.1982 19.0162 20.1982Z" fill="#0033C9"/>
</g>
<defs>
<linearGradient id="paint0_linear_26845_27153" x1="-2.53572e-08" y1="7.37705" x2="36.8785" y2="8.55764" gradientUnits="userSpaceOnUse">
<stop stop-color="#F0F6FF"/>
<stop offset="0.635417" stop-color="#E8F0FD"/>
<stop offset="1" stop-color="#EEF4FE"/>
</linearGradient>
<clipPath id="clip0_26845_27153">
<rect width="36" height="36" fill="white"/>
</clipPath>
</defs>
</svg>
