<svg width="24" height="24" viewBox="0 0 24 24" fill="none" xmlns="http://www.w3.org/2000/svg">
<path fill-rule="evenodd" clip-rule="evenodd" d="M10.3333 3.08449V3.08449L4.76009 5.36578C4.54303 5.45317 4.30519 5.64973 4.11865 5.92721C3.93198 6.20489 3.83997 6.49923 3.83997 6.73003V11.12C3.83997 15.6603 7.15239 19.9528 11.6883 21.2067C11.8885 21.2611 12.1114 21.2611 12.3117 21.2067C16.8475 19.9528 20.16 15.6603 20.16 11.12L20.16 11.1183L20.17 6.73003V6.73003C20.1698 6.50202 20.0771 6.20782 19.8885 5.92864C19.6998 5.64931 19.4605 5.4517 19.2467 5.36449L13.6766 3.08449V3.08449C12.6085 2.64887 11.4014 2.6488 10.3333 3.08449ZM9.76663 1.69564C11.1982 1.11154 12.8117 1.11154 14.2433 1.69564L19.8132 3.97559C20.359 4.19847 20.8153 4.62101 21.1314 5.08893C21.4476 5.55695 21.67 6.13815 21.67 6.73003L21.67 6.73174L21.66 11.12V11.12C21.6595 16.359 17.8728 21.2265 12.7097 22.653L12.7073 22.6536C12.2481 22.7789 11.7518 22.7789 11.2926 22.6536L11.2902 22.653C6.12684 21.2264 2.33997 16.3593 2.33997 11.12V6.73003C2.33997 6.14084 2.55796 5.56018 2.87379 5.09036C3.18934 4.62097 3.64572 4.19804 4.19768 3.97519L9.76663 1.69564Z" fill="#001F3E"/>
</svg>
