<svg width="24" height="24" viewBox="0 0 24 24" fill="none" xmlns="http://www.w3.org/2000/svg">
<path d="M2.49244 12.6746C2.18001 12.4026 1.70627 12.4354 1.43431 12.7478C1.16235 13.0603 1.19516 13.534 1.50758 13.806L4.8175 16.6872C4.83651 16.7043 4.85657 16.7206 4.87768 16.736L4.87895 16.7369C4.93647 16.7788 4.99833 16.8115 5.06259 16.8349C5.3459 16.9384 5.67587 16.8638 5.88571 16.6227C5.90375 16.602 5.92044 16.5806 5.9358 16.5585L8.38565 13.2024C8.62987 12.8679 8.55663 12.3987 8.22207 12.1545C7.88751 11.9102 7.41832 11.9835 7.1741 12.318L5.70279 14.3336C5.51603 13.6176 5.3999 12.8425 5.3999 12.0003C5.3999 7.62454 8.94412 4.08032 13.3199 4.08032C17.6957 4.08032 21.2399 7.62454 21.2399 12.0003C21.2399 16.3761 17.6957 19.9203 13.3199 19.9203C11.6935 19.9203 10.1774 19.4273 8.91593 18.5863C8.57128 18.3565 8.10563 18.4497 7.87586 18.7943C7.6461 19.1389 7.73923 19.6046 8.08388 19.8344C9.58237 20.8334 11.3863 21.4203 13.3199 21.4203C18.5241 21.4203 22.7399 17.2045 22.7399 12.0003C22.7399 6.79611 18.5241 2.58032 13.3199 2.58032C8.11569 2.58032 3.8999 6.79611 3.8999 12.0003C3.8999 12.7382 3.97647 13.4304 4.10567 14.0789L2.49244 12.6746Z" fill="#001F3E"/>
<path d="M13.75 8.0004C13.75 7.58619 13.4142 7.2504 13 7.2504C12.5858 7.2504 12.25 7.58619 12.25 8.0004V11.7423C12.25 12.1588 12.3639 12.5851 12.5299 12.9463C12.6925 13.3002 12.9408 13.6691 13.275 13.9153L13.2762 13.9162L15.5536 15.6031C15.8864 15.8496 16.3561 15.7797 16.6027 15.4468C16.8492 15.114 16.7793 14.6443 16.4464 14.3977L14.167 12.7093L14.165 12.7078C14.1027 12.662 13.9912 12.534 13.8929 12.3201C13.7978 12.1132 13.75 11.9006 13.75 11.7423V8.0004Z" fill="#001F3E"/>
</svg>
