<svg width="24" height="24" viewBox="0 0 24 24" fill="none" xmlns="http://www.w3.org/2000/svg">
<path fill-rule="evenodd" clip-rule="evenodd" d="M14.4501 2.10573C13.5961 1.5079 12.5191 1.24483 11.4837 1.26911C10.4482 1.29339 9.38375 1.6071 8.55901 2.24856L3.16901 6.44856C2.60552 6.887 2.134 7.53633 1.80418 8.20855C1.47441 8.88067 1.25 9.64968 1.25 10.3602V17.7702C1.25 20.5021 3.47347 22.7402 6.21 22.7402H15.3782C15.4178 22.7466 15.4585 22.75 15.5 22.75C15.5415 22.75 15.5822 22.7466 15.6218 22.7402H17.79C20.5254 22.7402 22.75 20.5032 22.75 17.7802V10.5002C22.75 9.74295 22.5017 8.93348 22.1361 8.2331C21.7707 7.53301 21.2484 6.86691 20.6288 6.43486L14.4501 2.10573ZM16.25 21.2402H17.79C19.6946 21.2402 21.25 19.6771 21.25 17.7802V10.5002C21.25 10.0474 21.0933 9.47683 20.8064 8.92722C20.5195 8.37755 20.1413 7.92342 19.7712 7.66546L19.7696 7.66439L13.5899 3.33458C13.044 2.95254 12.2958 2.75048 11.5188 2.7687C10.7419 2.78692 10.0057 3.02375 9.48046 3.43217L4.09099 7.63176C3.75471 7.8933 3.4109 8.33919 3.15082 8.86927C2.89059 9.39965 2.75 9.94063 2.75 10.3602V17.7702C2.75 19.6783 4.30653 21.2402 6.21 21.2402H8.25V17.25C8.25 15.0409 10.0409 13.25 12.25 13.25C14.4591 13.25 16.25 15.0409 16.25 17.25V21.2402ZM9.75 21.2402H14.75V17.25C14.75 15.8693 13.6307 14.75 12.25 14.75C10.8693 14.75 9.75 15.8693 9.75 17.25V21.2402Z" fill="#001F3E"/>
</svg>
