<svg width="40" height="40" viewBox="0 0 40 40" fill="none" xmlns="http://www.w3.org/2000/svg">
<rect width="40" height="40" rx="20" fill="#F5F9FF"/>
<path fill-rule="evenodd" clip-rule="evenodd" d="M20 9.33887C20.1938 9.33887 20.4312 9.36624 20.6484 9.45312L29.6484 13.0527C29.9914 13.1899 30.2595 13.4435 30.4385 13.709C30.617 13.974 30.7499 14.3147 30.75 14.6787V15.999C30.75 16.9632 29.9642 17.749 29 17.749H26.667V25.249H29C29.9642 25.249 30.75 26.0348 30.75 26.999V29.999C30.75 30.4132 30.4142 30.749 30 30.749H10C9.58587 30.749 9.25013 30.4131 9.25 29.999V26.999C9.25 26.0348 10.0358 25.249 11 25.249H13.25V17.749H11C10.0358 17.749 9.25 16.9632 9.25 15.999C9.25003 15.6308 9.54874 15.332 9.91699 15.332H10.083C10.4513 15.332 10.75 15.6308 10.75 15.999C10.75 16.1348 10.8642 16.249 11 16.249H29C29.1358 16.249 29.25 16.1348 29.25 15.999V14.6787C29.2498 14.6764 29.2482 14.6613 29.2402 14.6377C29.231 14.6107 29.2158 14.5788 29.1943 14.5469C29.1727 14.5149 29.1486 14.4893 29.127 14.4707C29.1166 14.4618 29.1081 14.4553 29.1016 14.4512C29.096 14.4477 29.0918 14.4453 29.0918 14.4453L20.0986 10.8486C20.0958 10.848 20.09 10.8461 20.0811 10.8447C20.06 10.8414 20.0317 10.8389 20 10.8389C19.9683 10.8389 19.94 10.8414 19.9189 10.8447C19.91 10.8461 19.9042 10.848 19.9014 10.8486L18.4102 11.4453C18.0169 11.6026 17.5715 11.4029 17.4268 11.0049C17.2884 10.6244 17.4767 10.2032 17.8525 10.0527L19.3516 9.45312C19.5688 9.36624 19.8062 9.33887 20 9.33887ZM11 26.749C10.8642 26.749 10.75 26.8632 10.75 26.999V29.249H29.25V26.999C29.25 26.8632 29.1358 26.749 29 26.749H11ZM14.75 25.249H19.25V17.749H14.75V25.249ZM20.75 25.249H25.334V17.749H20.75V25.249Z" fill="#0033C9"/>
<path d="M13.5664 8.33203C13.943 8.33203 14.248 8.63809 14.248 9.01465V12.8223L14.9023 12.1689C15.1686 11.9027 15.6009 11.9027 15.8672 12.1689C16.1329 12.4352 16.1331 12.8667 15.8672 13.1328L14.0488 14.9512C13.9266 15.0734 13.7693 15.1394 13.6094 15.1494C13.4357 15.1603 13.2586 15.1048 13.1191 14.9834C13.106 14.9719 13.0933 14.9597 13.0811 14.9473L11.2656 13.1328C10.9997 12.8667 10.9999 12.4352 11.2656 12.1689C11.5319 11.9027 11.9642 11.9027 12.2305 12.1689L12.8848 12.8223V9.01465C12.8848 8.63809 13.1898 8.33203 13.5664 8.33203Z" fill="#0033C9"/>
</svg>
