<svg width="40" height="40" viewBox="0 0 40 40" fill="none" xmlns="http://www.w3.org/2000/svg">
<rect width="40" height="40" rx="20" fill="#F5F9FF"/>
<path d="M26.9996 32C24.2417 32 21.9996 29.7579 21.9996 27C21.9996 24.2421 24.2417 22 26.9996 22C29.7575 22 31.9996 24.2421 31.9996 27C31.9996 29.7579 29.7575 32 26.9996 32ZM26.9996 23.5789C25.1154 23.5789 23.5786 25.1158 23.5786 27C23.5786 28.8842 25.1154 30.421 26.9996 30.421C28.8838 30.421 30.4207 28.8842 30.4207 27C30.4207 25.1158 28.8838 23.5789 26.9996 23.5789Z" fill="#0033C9"/>
<path d="M25.4156 26C25.0014 26 24.6656 26.3731 24.6656 26.8333C24.6656 27.2935 25.0014 27.6666 25.4156 27.6666H28.3323C28.7465 27.6666 29.0823 27.2935 29.0823 26.8333C29.0823 26.3731 28.7465 26 28.3323 26H25.4156Z" fill="#0033C9"/>
<path d="M10.7199 29.1353C11.7136 30.2054 13.1891 30.75 15.082 30.75H19.9154C20.3296 30.75 20.6654 30.4142 20.6654 30C20.6654 29.5858 20.3296 29.25 19.9154 29.25H15.082C13.475 29.25 12.4505 28.7946 11.8191 28.1147C11.1784 27.4246 10.832 26.385 10.832 25V15C10.832 13.615 11.1784 12.5754 11.8191 11.8853C12.4505 11.2054 13.475 10.75 15.082 10.75H23.082C24.6891 10.75 25.7136 11.2054 26.3449 11.8853C26.9857 12.5754 27.332 13.615 27.332 15V18.9167C27.332 19.3309 27.6678 19.6667 28.082 19.6667C28.4962 19.6667 28.832 19.3309 28.832 18.9167V15C28.832 13.385 28.4284 11.9246 27.4441 10.8647C26.4505 9.79461 24.975 9.25 23.082 9.25H15.082C13.1891 9.25 11.7136 9.79461 10.7199 10.8647C9.73567 11.9246 9.33203 13.385 9.33203 15V25C9.33203 26.615 9.73567 28.0754 10.7199 29.1353Z" fill="#0033C9"/>
<path d="M13.832 15C13.832 14.5858 14.1678 14.25 14.582 14.25H23.582C23.9962 14.25 24.332 14.5858 24.332 15C24.332 15.4142 23.9962 15.75 23.582 15.75H14.582C14.1678 15.75 13.832 15.4142 13.832 15Z" fill="#0033C9"/>
<path d="M14.582 19.25C14.1678 19.25 13.832 19.5858 13.832 20C13.832 20.4142 14.1678 20.75 14.582 20.75H23.582C23.9962 20.75 24.332 20.4142 24.332 20C24.332 19.5858 23.9962 19.25 23.582 19.25H14.582Z" fill="#0033C9"/>
<path d="M14.582 24.25C14.1678 24.25 13.832 24.5858 13.832 25C13.832 25.4142 14.1678 25.75 14.582 25.75H18.332C18.7462 25.75 19.082 25.4142 19.082 25C19.082 24.5858 18.7462 24.25 18.332 24.25H14.582Z" fill="#0033C9"/>
<path fill-rule="evenodd" clip-rule="evenodd" d="M13.732 15C13.732 14.5306 14.1126 14.15 14.582 14.15H23.582C24.0515 14.15 24.432 14.5306 24.432 15C24.432 15.4694 24.0515 15.85 23.582 15.85H14.582C14.1126 15.85 13.732 15.4694 13.732 15ZM13.732 20C13.732 19.5306 14.1126 19.15 14.582 19.15H23.582C24.0515 19.15 24.432 19.5306 24.432 20C24.432 20.4694 24.0515 20.85 23.582 20.85H14.582C14.1126 20.85 13.732 20.4694 13.732 20ZM13.732 25C13.732 24.5306 14.1126 24.15 14.582 24.15H18.332C18.8015 24.15 19.182 24.5306 19.182 25C19.182 25.4694 18.8015 25.85 18.332 25.85H14.582C14.1126 25.85 13.732 25.4694 13.732 25ZM15.082 30.75C13.1891 30.75 11.7136 30.2054 10.7199 29.1353C9.73567 28.0754 9.33203 26.615 9.33203 25V15C9.33203 13.385 9.73567 11.9246 10.7199 10.8647C11.7136 9.79461 13.1891 9.25 15.082 9.25H23.082C24.975 9.25 26.4505 9.79461 27.4441 10.8647C28.4284 11.9246 28.832 13.385 28.832 15V18.9167C28.832 19.3309 28.4962 19.6667 28.082 19.6667C27.6678 19.6667 27.332 19.3309 27.332 18.9167V15C27.332 13.615 26.9857 12.5754 26.3449 11.8853C25.7136 11.2054 24.6891 10.75 23.082 10.75H15.082C13.475 10.75 12.4505 11.2054 11.8191 11.8853C11.1784 12.5754 10.832 13.615 10.832 15V25C10.832 26.385 11.1784 27.4246 11.8191 28.1147C12.4505 28.7946 13.475 29.25 15.082 29.25H19.9154C20.3296 29.25 20.6654 29.5858 20.6654 30C20.6654 30.4142 20.3296 30.75 19.9154 30.75H15.082ZM14.582 14.25C14.1678 14.25 13.832 14.5858 13.832 15C13.832 15.4142 14.1678 15.75 14.582 15.75H23.582C23.9962 15.75 24.332 15.4142 24.332 15C24.332 14.5858 23.9962 14.25 23.582 14.25H14.582ZM14.582 19.25C14.1678 19.25 13.832 19.5858 13.832 20C13.832 20.4142 14.1678 20.75 14.582 20.75H23.582C23.9962 20.75 24.332 20.4142 24.332 20C24.332 19.5858 23.9962 19.25 23.582 19.25H14.582ZM13.832 25C13.832 24.5858 14.1678 24.25 14.582 24.25H18.332C18.7462 24.25 19.082 24.5858 19.082 25C19.082 25.4142 18.7462 25.75 18.332 25.75H14.582C14.1678 25.75 13.832 25.4142 13.832 25Z" fill="#0033C9"/>
</svg>
