<svg width="24" height="24" viewBox="0 0 24 24" fill="none" xmlns="http://www.w3.org/2000/svg">
<path d="M11.8712 1.39187C11.8712 1.39228 11.8715 1.39261 11.8719 1.3926C14.6655 1.31549 17.3744 2.37716 19.3944 4.34273C21.4161 6.30847 22.5839 9.01472 22.6393 11.8607C22.6393 17.7996 17.9333 22.6248 12.1047 22.6634C9.31524 22.7333 6.61334 21.6672 4.59604 19.7044C2.58021 17.7372 1.41537 15.0339 1.36136 12.1938C1.34677 6.25817 6.04658 1.4302 11.8704 1.39114C11.8708 1.39113 11.8712 1.39146 11.8712 1.39187Z" fill="#FFBB33"/>
<path d="M11.9077 4.58296C13.8634 4.52884 15.7598 5.27201 17.1739 6.64804C18.5891 8.02406 19.4065 9.91844 19.4454 11.9107C19.4454 16.0679 16.1511 19.4455 12.0711 19.4725C10.1185 19.5215 8.22719 18.7752 6.81508 17.4012C5.404 16.0241 4.58861 14.1319 4.5508 12.1438C4.54059 7.98867 7.83074 4.60898 11.9077 4.58192V4.58296Z" fill="url(#paint0_linear_1_8365)"/>
<path fill-rule="evenodd" clip-rule="evenodd" d="M15.6677 9.80321C15.6677 9.80321 16.0777 7.83379 15.6677 7.53951C15.2576 7.24523 13.5489 8.3318 13.1844 8.73927C12.8057 8.70814 12.4241 8.70814 12.0454 8.73927C11.6339 8.7322 11.2209 8.76191 10.8151 8.82982C10.4506 8.42235 8.65086 7.33578 8.33192 7.63006C8.01297 7.92434 8.33192 9.89376 8.33192 9.89376C7.33949 10.6351 6.80554 11.8349 6.91945 13.0629C7.1729 14.8272 8.72633 16.1161 10.519 16.051H13.5717C15.3601 16.0638 16.8722 14.7381 17.0801 12.9724C17.1955 11.7443 16.6601 10.5446 15.6677 9.80321ZM12.4531 12.4649C12.5428 11.7136 13.1864 11.1307 13.9667 11.1307C14.8082 11.1307 15.4916 11.8084 15.4916 12.646C15.4916 13.4807 14.8082 14.1598 13.9652 14.1598C13.1964 14.1598 12.5613 13.5939 12.4559 12.8582H11.7867C11.6828 13.5939 11.0463 14.1598 10.2774 14.1598C9.43594 14.1598 8.75391 13.4821 8.75391 12.6446C8.75391 11.8098 9.43594 11.1307 10.2774 11.1307C11.0577 11.1307 11.7013 11.7136 11.791 12.4649H12.4531ZM13.9651 11.5083C14.5973 11.5083 15.1085 12.0176 15.1085 12.6444C15.1085 13.2726 14.5959 13.7819 13.9651 13.7819C13.3329 13.7819 12.8203 13.2726 12.8203 12.6444L12.8232 12.6812L12.826 12.6614L12.8246 12.6317C12.8289 12.0092 13.3372 11.5083 13.9637 11.5083H13.9651ZM11.4181 12.6444C11.4181 12.0176 10.9069 11.5083 10.2762 11.5083L10.2748 11.5097C9.64398 11.5097 9.13281 12.0176 9.13281 12.6444C9.13281 13.2712 9.64398 13.7805 10.2748 13.7805C10.9055 13.7805 11.4181 13.2726 11.4181 12.6444ZM9.12375 8.61575L9.0611 8.62424C8.95004 8.65537 8.93865 8.73035 8.97852 8.87042L9.01412 8.97512L9.08816 9.16753C9.19068 9.40098 9.27895 9.43635 9.42561 9.3939C9.58509 9.34863 9.53952 9.14489 9.42561 8.91852L9.31597 8.75582C9.23909 8.64971 9.17359 8.5917 9.05968 8.62424L9.12375 8.61575ZM14.2898 8.91872L14.398 8.75743V8.75602C14.4749 8.64991 14.5418 8.5919 14.6543 8.62444C14.7881 8.66264 14.7767 8.76592 14.7013 8.97531L14.6543 9.09982C14.5404 9.3941 14.4492 9.43937 14.2898 9.3941C14.1303 9.34882 14.1759 9.14509 14.2898 8.91872Z" fill="#FFDB1F"/>
<defs>
<linearGradient id="paint0_linear_1_8365" x1="4.45844" y1="5.23569" x2="3.48688" y2="24.7943" gradientUnits="userSpaceOnUse">
<stop stop-color="#E25626"/>
<stop offset="1" stop-color="#FFA200"/>
</linearGradient>
</defs>
</svg>
