<svg width="36" height="36" viewBox="0 0 36 36" fill="none" xmlns="http://www.w3.org/2000/svg">
<path d="M2 18C5.55666 14.4377 9.11615 10.8782 12.6785 7.32153C14.4455 9.0658 16.1699 10.8569 17.9652 12.5742C17.9439 12.6452 17.9014 12.7871 17.8801 12.8581C16.133 14.5456 14.4384 16.2884 12.7154 18C14.4682 19.7358 16.1841 21.5113 17.9652 23.2201C17.9439 23.2896 17.9028 23.4315 17.8815 23.5025C17.1619 24.1653 16.492 24.8777 15.7938 25.5632C14.7946 26.6092 13.6918 27.563 12.7679 28.6785H12.5777C12.477 28.5238 12.3691 28.3734 12.2456 28.2414C8.82663 24.8323 5.41615 21.4119 2 18Z" fill="#E01F26"/>
<path d="M18.1171 12.5408C19.8372 10.7852 21.5871 9.05939 23.3243 7.3208C26.8796 10.8846 30.4461 14.437 34 18.0021C31.3119 20.6888 28.6252 23.3769 25.9386 26.0635C25.0998 26.9449 24.1702 27.7425 23.3953 28.6792H23.2236C22.9298 28.2038 22.4813 27.8589 22.1023 27.4586C20.7867 26.126 19.4384 24.8259 18.1426 23.4734L18.0575 23.5443C18.056 23.3712 18.056 23.1966 18.0589 23.0249L18.1185 23.1838C19.8244 21.4396 21.5673 19.7308 23.286 17.9979C21.5772 16.2721 19.8344 14.5775 18.1454 12.8332L18.0603 12.9013C18.0574 12.7268 18.056 12.5522 18.056 12.3776L18.1171 12.5408Z" fill="#E01F26"/>
</svg>
