<svg width="24" height="24" viewBox="0 0 24 24" fill="none" xmlns="http://www.w3.org/2000/svg">
<circle cx="12" cy="12" r="10.5" fill="white"/>
<path fill-rule="evenodd" clip-rule="evenodd" d="M12 22.5C17.799 22.5 22.5 17.799 22.5 12C22.5 6.20101 17.799 1.5 12 1.5C6.20101 1.5 1.5 6.20101 1.5 12C1.5 17.799 6.20101 22.5 12 22.5ZM17.4782 10.7361C17.9399 10.3203 17.9771 9.60897 17.5613 9.14728C17.1455 8.68558 16.4342 8.64836 15.9725 9.06414L10.8828 13.6477L8.01378 11.1514C7.54505 10.7436 6.83445 10.7929 6.42661 11.2617C6.01877 11.7304 6.06813 12.441 6.53686 12.8488L10.1571 15.9988C10.586 16.372 11.226 16.3666 11.6484 15.9861L17.4782 10.7361Z" fill="#0033C9"/>
</svg>
