<svg width="40" height="40" viewBox="0 0 40 40" fill="none" xmlns="http://www.w3.org/2000/svg">
<g clip-path="url(#clip0_1_4779)">
<path d="M39.2129 11.449V11.449C40.2624 17.0781 40.2624 22.8026 39.2129 28.5271V28.5271C38.2588 33.9654 33.9654 38.2588 28.5271 39.2129V39.2129C22.898 40.2624 17.1735 40.2624 11.449 39.2129V39.2129C6.01073 38.2588 1.81276 34.0608 0.858676 28.6225V28.6225C-0.286225 22.9934 -0.286225 17.1735 0.858676 11.449V11.449C1.81276 6.01073 6.01073 1.81276 11.449 0.858676V0.858676C17.0781 -0.286225 22.898 -0.286225 28.6225 0.858676V0.858676C34.0608 1.81276 38.2588 6.01073 39.2129 11.449Z" fill="white"/>
<path fill-rule="evenodd" clip-rule="evenodd" d="M38.2293 28.3468C39.2571 22.7405 39.2565 17.1393 38.2298 11.6323L39.2129 11.449C40.2624 17.0781 40.2624 22.8026 39.2129 28.5271L38.2293 28.3468ZM28.5271 39.2129C33.9654 38.2588 38.2588 33.9654 39.2129 28.5271L38.2279 28.3543C37.3466 33.3779 33.3779 37.3466 28.3543 38.2279L28.5271 39.2129ZM11.449 39.2129C17.1735 40.2624 22.898 40.2624 28.5271 39.2129L28.3438 38.2298C22.8369 39.2565 17.2356 39.2571 11.6293 38.2293L11.449 39.2129ZM28.6225 0.858676L28.4497 1.84363C33.4733 2.72496 37.3466 6.59823 38.2279 11.6218L39.2129 11.449C38.2588 6.01073 34.0608 1.81276 28.6225 0.858676ZM11.449 0.858676C17.0781 -0.286225 22.898 -0.286225 28.6225 0.858676L28.4264 1.83926C22.8303 0.720026 17.1448 0.720683 11.6483 1.83861L11.449 0.858676ZM0.858676 11.449C1.81276 6.01073 6.01073 1.81276 11.449 0.858676L11.6218 1.84363C6.59823 2.72496 2.72496 6.59823 1.84363 11.6218L0.858676 11.449ZM0.858676 11.449L1.83926 11.6451C0.720026 17.2413 0.720683 22.9267 1.83861 28.4232L0.858676 28.6225C-0.286225 22.9934 -0.286225 17.1735 0.858676 11.449ZM0.858676 28.6225C1.81276 34.0608 6.01073 38.2588 11.449 39.2129L11.6218 38.2279C6.59823 37.3466 2.72496 33.4733 1.84363 28.4497L0.858676 28.6225Z" fill="#EEF4FE"/>
<path d="M31.0332 19.4775C32.6901 19.4775 34.0332 20.8207 34.0332 22.4775V31.2773C34.033 32.9335 32.6911 34.2771 31.0342 34.2773H21.0332C20.481 34.2773 20.0334 33.8295 20.0332 33.2773C20.0333 32.7251 20.481 32.2773 21.0332 32.2773H31.0342C31.5858 32.2771 32.033 31.8297 32.0332 31.2773V22.4775C32.0332 21.9253 31.5855 21.4775 31.0332 21.4775H28.4326V24.5967C28.4323 25.2325 27.7253 25.6143 27.1934 25.2656L26.2715 24.6602C26.0052 24.4856 25.6599 24.4856 25.3936 24.6602L24.4707 25.2656C23.9389 25.6139 23.2328 25.2324 23.2324 24.5967V21.4775H21.0332C20.4811 21.4775 20.0333 21.9252 20.0332 22.4775V25.2773C20.033 25.8295 19.5854 26.2773 19.0332 26.2773C18.481 26.2773 18.0334 25.8295 18.0332 25.2773V22.4775C18.0333 20.8209 19.3763 19.4775 21.0332 19.4775H31.0332Z" fill="#00CF6A"/>
<path fill-rule="evenodd" clip-rule="evenodd" d="M17.0344 5.87695C19.5927 5.87705 21.7009 7.79886 21.9973 10.2773H22.8333C23.3856 10.2773 23.8333 10.7251 23.8333 11.2773C23.8332 11.8295 23.3855 12.2773 22.8333 12.2773H22.0344V14.0195C22.0344 14.8405 21.6973 15.6262 21.1028 16.1924L19.2776 17.9307C17.9134 19.2299 15.8276 19.4011 14.2698 18.3418L13.5481 17.8516C13.4344 17.7742 13.3236 17.6934 13.2161 17.6094L9.14284 19.6973C8.46787 20.0434 8.04616 20.7425 8.05495 21.501L8.14577 29.3125C8.16514 30.9553 9.50284 32.2772 11.1458 32.2773H19.4339C19.9858 32.2771 20.4336 31.8293 20.4339 31.2773V31.0635C20.4339 30.5549 20.0515 30.1268 19.5462 30.0693L13.4075 29.3721C12.3972 29.257 11.6333 28.4016 11.6331 27.3848V23.8779C11.6331 23.3259 12.0811 22.8783 12.6331 22.8779C13.1854 22.8779 13.6331 23.3256 13.6331 23.8779V27.3848L19.7717 28.082C21.2878 28.2543 22.4339 29.5377 22.4339 31.0635V31.2773C22.4336 32.9339 21.0904 34.2771 19.4339 34.2773H11.1458C8.4074 34.2772 6.17797 32.0741 6.14577 29.3359L6.05495 21.5234C6.03754 20.0064 6.88066 18.6101 8.23073 17.918L11.8216 16.0771C11.1873 15.0909 10.8342 13.9312 10.8342 12.7246V10.877C10.8343 8.11564 13.0729 5.877 15.8342 5.87695H17.0344ZM15.8342 7.87695C14.1775 7.877 12.8343 9.22021 12.8342 10.877V12.7246C12.8342 14.115 13.5226 15.4152 14.6721 16.1973L15.3938 16.6885C16.1727 17.2181 17.2156 17.132 17.8977 16.4824L19.7239 14.7441C19.922 14.5554 20.0344 14.2932 20.0344 14.0195V12.2773H15.0335C14.4813 12.2773 14.0336 11.8295 14.0335 11.2773C14.0335 10.7251 14.4812 10.2774 15.0335 10.2773H19.9749C19.697 8.90793 18.4858 7.87705 17.0344 7.87695H15.8342Z" fill="#0033C9"/>
</g>
<defs>
<clipPath id="clip0_1_4779">
<rect width="40" height="40" fill="white"/>
</clipPath>
</defs>
</svg>
