<svg width="40" height="40" viewBox="0 0 40 40" fill="none" xmlns="http://www.w3.org/2000/svg">
<path fill-rule="evenodd" clip-rule="evenodd" d="M19.9951 39.0974C30.4222 39.0974 38.875 30.5908 38.875 20.0974C38.875 9.604 30.4222 1.09741 19.9951 1.09741C9.56805 1.09741 1.11523 9.604 1.11523 20.0974C1.11523 30.5908 9.56805 39.0974 19.9951 39.0974ZM30.1345 6.37419C27.3042 4.25289 23.7954 2.99741 19.9951 2.99741C10.6108 2.99741 3.00322 10.6533 3.00322 20.0974C3.00322 23.7475 4.13963 27.1305 6.07582 29.9076C4.39985 27.2422 3.42969 24.0827 3.42969 20.6952C3.42969 11.1672 11.1048 3.4433 20.5725 3.4433C24.1131 3.4433 27.403 4.52346 30.1345 6.37419Z" fill="white"/>
<g clip-path="url(#clip0_1_5140)">
<rect x="2.86914" y="2.86841" width="34.5038" height="34.5038" fill="#0168FF"/>
<path d="M38.2997 40.6332C33.8604 37.1412 27.4199 33.9797 21.4776 33.9797C14.0321 33.9797 6.91293 38.1611 4 40.6332C4.13982 47.4138 7.29161 49.249 6.57794 52.046C8.74807 52.7382 13.7874 53.5304 21.4776 53.4626C29.1677 53.3948 36.115 52.9924 38.2997 52.046V40.6332Z" fill="url(#paint0_radial_1_5140)"/>
<path d="M16.498 26.96H24.9168V39.5857C24.9168 40.9229 23.8174 42.007 22.4613 42.007H18.9535C17.5974 42.007 16.498 40.9229 16.498 39.5857V26.96Z" fill="#F4CEA9"/>
<path d="M24.917 33.2773C23.6215 34.1867 22.1609 34.7972 20.8047 34.8281V34.8291H20.6973V34.8281C19.311 34.7966 17.8145 34.1606 16.498 33.2178V26.96H24.917V33.2773Z" fill="url(#paint1_linear_1_5140)"/>
<path d="M8.83124 20.5033L9.70413 20.0829C10.3032 18.229 7.73588 7.17955 20.2922 7.17955C28.1704 6.29239 32.9026 13.7163 30.4913 20.6803L32.0646 20.5033C33.7176 11.6179 29.1906 5.46468 20.2742 5.35103C11.3578 5.23738 6.66093 12.7721 8.83124 20.5033Z" fill="#D270FF"/>
<path d="M20.3327 8.79821C7.30437 8.79821 11.013 18.3319 10.5454 19.7324L9.66642 19.7213C9.7606 19.7225 6.65907 6.93661 20.3056 6.04036C28.9702 6.04041 32.4711 12.8757 30.9875 20.5233L30.0771 20.5118C30.3201 19.8754 33.7617 8.79821 20.3327 8.79821Z" fill="#78299B"/>
<path d="M29.9204 19.7C28.6927 19.5271 28.0934 20.0604 27.9473 20.3486V24.8454C29.3942 25.667 30.9163 24.7951 31.4112 23.3753C31.8936 21.9917 31.4551 19.9162 29.9204 19.7Z" fill="url(#paint2_radial_1_5140)"/>
<path d="M30.1405 22.813C30.2281 22.3374 30.2084 21.4766 29.5266 21.2996C28.6935 21.0834 28.0796 21.6023 27.8165 22.4238" stroke="#A0303C" stroke-width="0.249502" stroke-linecap="round"/>
<path d="M10.8589 19.7C12.0866 19.5271 12.6859 20.0604 12.832 20.3486V24.8454C11.3851 25.667 9.86298 24.7951 9.36807 23.3753C8.88574 21.9917 9.32422 19.9162 10.8589 19.7Z" fill="url(#paint3_radial_1_5140)"/>
<path d="M10.6393 22.813C10.5516 22.3374 10.5714 21.4766 11.2532 21.2996C12.0863 21.0834 12.7002 21.6023 12.9633 22.4238" stroke="#A0303C" stroke-width="0.249502" stroke-linecap="round"/>
<path d="M11.8223 17.2179C11.8954 19.6433 12.4719 23.6089 12.4719 25.0009C12.4719 26.7409 13.6547 28.4808 15.2639 29.8412C16.8421 31.1754 18.4982 32.1749 20.3714 32.2127V32.2139C20.3897 32.2139 20.408 32.2138 20.4263 32.2136C20.4446 32.2138 20.4629 32.2139 20.4811 32.2139V32.2127C22.3544 32.1749 24.0104 31.1754 25.5887 29.8412C27.1978 28.4808 28.3806 26.7409 28.3806 25.0009C28.3806 23.6089 29.1088 19.6391 29.1819 17.2136C29.1819 11.3106 24.207 11.3598 21.0342 11.3923C20.8258 11.3944 20.6226 11.3965 20.4263 11.3968C20.2299 11.3965 20.0268 11.3944 19.8183 11.3923C16.6455 11.3598 11.8223 11.3148 11.8223 17.2179Z" fill="url(#paint4_linear_1_5140)"/>
<path opacity="0.5" d="M27.3098 22.417C27.7145 22.417 28.0958 22.5167 28.429 22.6934C28.4013 23.6676 28.3811 24.5007 28.3811 25.001C28.3811 25.6787 28.1993 26.3554 27.885 27.0107C27.7006 27.0562 27.5085 27.083 27.3098 27.083C26.0031 27.083 24.9436 26.0386 24.9436 24.75C24.9437 23.4615 26.0031 22.417 27.3098 22.417Z" fill="#F19075" fill-opacity="0.51"/>
<path opacity="0.5" d="M13.3271 21.9929C14.7527 21.9929 15.9082 23.1331 15.9082 24.5388C15.908 25.9444 14.7526 27.0837 13.3271 27.0837C13.2132 27.0837 13.1013 27.0735 12.9912 27.0593C12.6624 26.389 12.4717 25.6952 12.4717 25.0007C12.4717 24.4222 12.3706 23.3994 12.249 22.2273C12.5773 22.0781 12.942 21.9929 13.3271 21.9929Z" fill="#F19075" fill-opacity="0.51"/>
<path d="M13.5705 15.841C15.615 14.9476 19.2461 13.4948 21.1803 12.1568C23.7748 10.3621 23.8711 8.13438 23.8711 8.13438C21.505 7.48006 16.6837 7.98158 14.4341 9.19957C10.6438 11.2517 10.6932 14.4512 10.4728 14.8445C10.1202 17.8216 10.4165 19.0837 10.7544 20.4754L12.3238 23.8126C12.3238 23.8126 12.125 22.7016 12.1931 21.2219C12.2398 20.207 12.0227 19.1902 12.0087 18.0951C11.9957 17.08 12.6402 16.2476 13.5705 15.841Z" fill="#001F3E"/>
<path d="M27.5029 15.2589C26.503 14.4435 24.9273 13.1475 22.9973 11.8124C20.4028 10.0177 21.9319 7.56927 21.9319 7.56927C23.0074 6.99569 23.564 7.56934 26.4267 8.6524C29.5303 10.6791 29.7973 12.7312 30.364 14.3624C30.7166 17.3395 30.9852 17.7874 30.6473 19.1791L28.6454 23.3825C28.6454 23.3825 29.0075 21.711 28.6454 20.1639C28.3623 18.9542 28.5648 18.0913 28.4784 16.948C28.4274 16.2731 28.0274 15.6867 27.5029 15.2589Z" fill="#09090A"/>
<mask id="path-18-outside-1_1_5140" maskUnits="userSpaceOnUse" x="13.1101" y="15.8154" width="14" height="2" fill="black">
<rect fill="white" x="13.1101" y="15.8154" width="14" height="2"/>
<path fill-rule="evenodd" clip-rule="evenodd" d="M18.3579 16.9593C18.0681 16.8692 17.5849 16.7989 16.8212 16.8188C15.9472 16.8417 14.9571 16.9911 14.1754 17.1424C14.0223 17.172 14.1659 17.4464 14.324 17.4343C15.6433 17.3333 17.3349 17.237 18.3249 17.2815C18.5537 17.2918 18.5664 17.0241 18.3579 16.9593ZM22.4213 16.9593C22.7112 16.8692 23.1944 16.7989 23.9581 16.8188C24.8321 16.8417 25.8221 16.9911 26.6039 17.1424C26.7569 17.172 26.6134 17.4464 26.4553 17.4343C25.136 17.3333 23.4444 17.237 22.4544 17.2815C22.2256 17.2918 22.2129 17.0241 22.4213 16.9593Z"/>
</mask>
<path fill-rule="evenodd" clip-rule="evenodd" d="M18.3579 16.9593C18.0681 16.8692 17.5849 16.7989 16.8212 16.8188C15.9472 16.8417 14.9571 16.9911 14.1754 17.1424C14.0223 17.172 14.1659 17.4464 14.324 17.4343C15.6433 17.3333 17.3349 17.237 18.3249 17.2815C18.5537 17.2918 18.5664 17.0241 18.3579 16.9593ZM22.4213 16.9593C22.7112 16.8692 23.1944 16.7989 23.9581 16.8188C24.8321 16.8417 25.8221 16.9911 26.6039 17.1424C26.7569 17.172 26.6134 17.4464 26.4553 17.4343C25.136 17.3333 23.4444 17.237 22.4544 17.2815C22.2256 17.2918 22.2129 17.0241 22.4213 16.9593Z" fill="#432719"/>
<path d="M16.8212 16.8188L16.8241 16.9314L16.8212 16.8188ZM18.3579 16.9593L18.3914 16.8518V16.8518L18.3579 16.9593ZM14.1754 17.1424L14.1968 17.253H14.1968L14.1754 17.1424ZM14.324 17.4343L14.3326 17.5465V17.5465L14.324 17.4343ZM18.3249 17.2815L18.33 17.169V17.169L18.3249 17.2815ZM23.9581 16.8188L23.961 16.7063L23.9581 16.8188ZM22.4213 16.9593L22.3879 16.8518V16.8518L22.4213 16.9593ZM26.6039 17.1424L26.5825 17.253V17.253L26.6039 17.1424ZM26.4553 17.4343L26.4467 17.5465V17.5465L26.4553 17.4343ZM22.4544 17.2815L22.4594 17.394V17.394L22.4544 17.2815ZM16.8212 16.8188L16.8241 16.9314C17.5811 16.9116 18.0508 16.9818 18.3245 17.0669L18.3579 16.9593L18.3914 16.8518C18.0853 16.7566 17.5886 16.6861 16.8183 16.7063L16.8212 16.8188ZM14.1754 17.1424L14.1968 17.253C14.9759 17.1022 15.959 16.954 16.8241 16.9314L16.8212 16.8188L16.8183 16.7063C15.9353 16.7293 14.9384 16.8801 14.154 17.0318L14.1754 17.1424ZM14.324 17.4343L14.3154 17.322C14.3102 17.3224 14.2977 17.3208 14.2792 17.3072C14.2609 17.2937 14.244 17.2734 14.2331 17.2523C14.221 17.229 14.2233 17.2187 14.2225 17.2231C14.2217 17.2272 14.2187 17.2359 14.2106 17.244C14.2025 17.252 14.1955 17.2532 14.1968 17.253L14.1754 17.1424L14.154 17.0318C14.117 17.039 14.081 17.0553 14.0521 17.0839C14.0231 17.1126 14.0075 17.1475 14.0011 17.1813C13.9891 17.2451 14.0085 17.3082 14.0329 17.3556C14.0586 17.4053 14.0976 17.4532 14.1458 17.4887C14.194 17.524 14.2588 17.5522 14.3326 17.5465L14.324 17.4343ZM18.3249 17.2815L18.33 17.169C17.3322 17.1242 15.6341 17.2211 14.3154 17.322L14.324 17.4343L14.3326 17.5465C15.6525 17.4456 17.3376 17.3499 18.3199 17.394L18.3249 17.2815ZM18.3579 16.9593L18.3245 17.0669C18.3839 17.0853 18.3944 17.1239 18.3931 17.1399C18.3925 17.1482 18.3893 17.1536 18.3845 17.1575C18.3798 17.1614 18.3649 17.1706 18.33 17.169L18.3249 17.2815L18.3199 17.394C18.3993 17.3976 18.4718 17.3772 18.5273 17.3318C18.5827 17.2863 18.6126 17.2227 18.6177 17.1573C18.6279 17.0257 18.5404 16.8981 18.3914 16.8518L18.3579 16.9593ZM23.9581 16.8188L23.961 16.7063C23.1907 16.6861 22.694 16.7566 22.3879 16.8518L22.4213 16.9593L22.4548 17.0669C22.7285 16.9818 23.1981 16.9116 23.9551 16.9314L23.9581 16.8188ZM26.6039 17.1424L26.6253 17.0318C25.8409 16.8801 24.844 16.7293 23.961 16.7063L23.9581 16.8188L23.9551 16.9314C24.8202 16.954 25.8034 17.1022 26.5825 17.253L26.6039 17.1424ZM26.4553 17.4343L26.4467 17.5465C26.5205 17.5522 26.5853 17.524 26.6334 17.4887C26.6817 17.4532 26.7207 17.4053 26.7464 17.3556C26.7708 17.3082 26.7902 17.2451 26.7781 17.1813C26.7718 17.1475 26.7561 17.1126 26.7272 17.0839C26.6982 17.0553 26.6623 17.039 26.6253 17.0318L26.6039 17.1424L26.5825 17.253C26.5837 17.2532 26.5768 17.252 26.5687 17.244C26.5605 17.2359 26.5576 17.2272 26.5568 17.2231C26.556 17.2187 26.5583 17.229 26.5462 17.2523C26.5353 17.2734 26.5184 17.2937 26.5 17.3072C26.4816 17.3208 26.4691 17.3224 26.4639 17.322L26.4553 17.4343ZM22.4544 17.2815L22.4594 17.394C23.4416 17.3499 25.1268 17.4456 26.4467 17.5465L26.4553 17.4343L26.4639 17.322C25.1452 17.2211 23.4471 17.1242 22.4493 17.169L22.4544 17.2815ZM22.4213 16.9593L22.3879 16.8518C22.2388 16.8981 22.1514 17.0257 22.1616 17.1573C22.1667 17.2227 22.1965 17.2863 22.252 17.3318C22.3075 17.3772 22.38 17.3976 22.4594 17.394L22.4544 17.2815L22.4493 17.169C22.4143 17.1706 22.3995 17.1614 22.3947 17.1575C22.39 17.1536 22.3868 17.1482 22.3862 17.1399C22.3849 17.1239 22.3954 17.0853 22.4548 17.0669L22.4213 16.9593Z" fill="#432719" mask="url(#path-18-outside-1_1_5140)"/>
<path d="M27.3724 34.9387C27.162 34.2469 26.1809 32.3464 25.3332 31.5825C25.3332 32.5049 23.9696 34.3608 23.6551 35.9764C23.4105 37.2327 22.4585 38.4126 22.2246 38.6C22.6192 38.6 26.8901 42.6122 27.3724 43.4337C27.7583 44.091 28.1763 43.7076 28.3371 43.4337C28.6528 40.7357 27.694 36.4089 27.3724 34.9387Z" fill="white"/>
<path d="M8.5489 20.1025C8.67302 20.0039 8.76048 19.9743 8.7887 19.9718C8.87062 19.9435 8.9298 20.0693 8.93922 20.1417C8.94865 20.214 9.90029 27.1929 9.93798 27.4823C9.90509 27.5584 9.74993 27.6817 9.61826 27.6566C9.51291 27.6365 8.93474 27.3381 8.65882 27.1915C8.51288 26.509 8.23415 24.9165 8.11724 24.0188L8.11719 24.0184C7.91934 22.4991 7.81099 21.6671 7.77132 21.0852C7.74904 20.7582 7.80604 20.643 7.92358 20.5596L7.92358 20.5596C8.04112 20.4762 8.39375 20.2258 8.5489 20.1025Z" fill="url(#paint5_linear_1_5140)"/>
<path d="M9.25101 20.5173C9.19599 20.0674 8.86665 19.9261 8.70886 19.9116L9.66081 27.695C9.80533 27.601 10.0879 27.3596 10.0618 27.1465L9.25101 20.5173Z" fill="url(#paint6_linear_1_5140)"/>
<path d="M10.1279 18.8763C9.79861 18.9039 9.59818 19.0665 9.53913 19.1444C9.36448 19.3341 8.99911 19.6758 8.83825 19.823L9.88427 27.7198C10.4576 27.9634 10.9725 28.3942 11.2606 28.37L12.4955 28.2665L11.2393 18.7831L10.1279 18.8763Z" fill="url(#paint7_linear_1_5140)"/>
<path d="M10.8392 28.267L10.8477 28.2885C10.9843 28.3522 11.1027 28.3903 11.1977 28.382L12.4711 28.2704L11.234 18.7527L10.0879 18.8531C9.89178 18.8703 9.73968 18.9325 9.63436 18.9971L10.8392 28.267Z" fill="url(#paint8_linear_1_5140)"/>
<path fill-rule="evenodd" clip-rule="evenodd" d="M10.8115 28.319L9.76355 19.0134L9.83485 19.0056L10.8828 28.3112L10.8115 28.319Z" fill="black"/>
<path d="M11.684 19.4784C11.6162 18.9256 11.283 18.7447 11.1249 18.7234L12.2976 28.2877C12.4394 28.1757 12.7149 27.8862 12.6828 27.6244C12.6622 27.4568 12.5543 25.4945 12.3145 23.5385C12.0858 21.6736 11.7253 19.8156 11.684 19.4784Z" fill="url(#paint9_linear_1_5140)"/>
<path fill-rule="evenodd" clip-rule="evenodd" d="M12.276 28.3421L11.1971 18.7063L11.2484 18.7007L12.3272 28.3365L12.276 28.3421Z" fill="#251C38"/>
<path fill-rule="evenodd" clip-rule="evenodd" d="M11.7945 26.7219C11.958 26.7271 12.0912 26.8488 12.0919 26.9937C12.0937 27.3726 12.3929 28.0176 13.4689 28.5384C14.5487 29.0611 16.3993 29.4481 19.4303 29.2698C19.593 29.2602 19.7388 29.3698 19.7562 29.5144C19.7735 29.6591 19.6558 29.7842 19.4932 29.7937C16.403 29.9755 14.4231 29.5883 13.2014 28.997C11.9759 28.4038 11.5027 27.595 11.4997 26.9748C11.499 26.8299 11.631 26.7166 11.7945 26.7219Z" fill="url(#paint10_linear_1_5140)"/>
<path d="M17.5038 29.6409C17.5221 29.2286 17.8797 28.9091 18.3024 28.9273L19.9608 28.9988C20.3835 29.017 20.7113 29.3661 20.693 29.7784L20.6875 29.9028C20.6691 30.3152 20.3116 30.6347 19.8889 30.6165L18.2305 30.545C17.8078 30.5267 17.4799 30.1777 17.4983 29.7653L17.5038 29.6409Z" fill="url(#paint11_linear_1_5140)"/>
<path d="M32.2798 20.1036C32.1542 20.0047 32.0658 19.975 32.0373 19.9725C31.9545 19.944 31.8951 20.0697 31.8858 20.142C31.8765 20.2144 30.9368 27.191 30.8996 27.4804C30.9331 27.5565 31.0901 27.6801 31.223 27.6552C31.3293 27.6353 31.9123 27.3379 32.1904 27.1918C32.3357 26.5096 32.6123 24.9177 32.7276 24.0203L32.7277 24.0199C32.9229 22.5011 33.0297 21.6693 33.068 21.0875C33.0895 20.7606 33.0316 20.6453 32.9127 20.5617L32.9127 20.5617C32.7937 20.4781 32.4369 20.2272 32.2798 20.1036Z" fill="url(#paint12_linear_1_5140)"/>
<path d="M31.5795 20.5174C31.6341 20.0676 31.9685 19.9268 32.1289 19.9126L31.1848 27.6952C31.0376 27.6009 30.7496 27.359 30.7755 27.1459L31.5795 20.5174Z" fill="url(#paint13_linear_1_5140)"/>
<path d="M30.699 18.8785C31.0309 18.9067 31.2333 19.0697 31.293 19.1476C31.4696 19.3375 31.8387 19.6798 32.0012 19.8273L30.9714 27.7205C30.3945 27.963 29.8771 28.3928 29.5867 28.3682L28.3423 28.2625L29.579 18.7834L30.699 18.8785Z" fill="url(#paint14_linear_1_5140)"/>
<path d="M30.0129 28.267L30.0044 28.2884C29.8667 28.3518 29.7472 28.3898 29.6513 28.3813L28.3647 28.2675L29.5852 18.7526L30.7431 18.855C30.9412 18.8725 31.0951 18.935 31.2016 18.9997L30.0129 28.267Z" fill="url(#paint15_linear_1_5140)"/>
<path fill-rule="evenodd" clip-rule="evenodd" d="M30.0281 28.3192L31.0742 19.0137L31.0011 19.0057L29.955 28.3112L30.0281 28.3192Z" fill="black"/>
<path d="M29.1469 19.4787C29.2141 18.926 29.5522 18.7457 29.7129 18.7246L28.5501 28.2879C28.4057 28.1756 28.1247 27.8856 28.1565 27.6238C28.1769 27.4563 28.2806 25.4939 28.5184 23.5382C28.7451 21.6734 29.1059 19.8159 29.1469 19.4787Z" fill="url(#paint16_linear_1_5140)"/>
<path fill-rule="evenodd" clip-rule="evenodd" d="M28.5632 28.3423L29.6406 18.7065L29.588 18.7008L28.5106 28.3365L28.5632 28.3423Z" fill="black"/>
<path d="M14.4259 34.9387C14.6364 34.2469 15.2563 32.3464 16.1041 31.5825C16.1041 32.5049 17.8876 35.8689 17.8876 35.8689C17.8876 35.8689 19.7858 38.8655 20.0197 39.0529C19.625 39.0529 14.4807 42.6122 13.9984 43.4337C13.6125 44.091 13.1945 43.7076 13.0337 43.4337C12.718 40.7357 14.1044 36.4089 14.4259 34.9387Z" fill="white"/>
<path d="M19.7071 24.4143C19.5098 23.9809 19.4879 23.4065 19.7071 23.2034C18.8019 24.0424 19.1443 24.8019 19.5141 25.0728C19.9051 25.3592 21.3233 25.3098 21.3644 25.0728C21.3972 24.8832 21.1765 24.2423 20.3532 24.3221C20.1203 24.3447 19.7924 24.6018 19.7071 24.4143Z" fill="#E99A86"/>
<path fill-rule="evenodd" clip-rule="evenodd" d="M18.6316 26.692C18.6062 26.6053 18.5186 26.5414 18.4145 26.5414C18.0625 26.2606 18.0625 26.8592 18.0625 26.971C18.0625 27.0773 18.2512 27.2118 18.3128 27.2628C18.3726 27.3123 18.4473 27.3481 18.5199 27.3753C18.6665 27.4303 18.8615 27.4706 19.0765 27.5009C19.5106 27.5619 20.0809 27.5888 20.6447 27.5858C21.2088 27.5828 21.7782 27.5497 22.2112 27.4872C22.4257 27.4563 22.6188 27.4165 22.7635 27.3647C22.8349 27.3392 22.9084 27.3059 22.9677 27.2604C23.027 27.2149 23.0968 26.8547 23.0968 26.744C23.0968 26.6321 22.9963 26.5414 22.8723 26.5414C22.773 26.5414 22.6887 26.5996 22.6591 26.6803C22.6464 26.6868 22.6268 26.6957 22.598 26.706C22.4989 26.7415 22.3437 26.7757 22.1403 26.805C21.7375 26.8631 21.1925 26.8956 20.6421 26.8986C20.0914 26.9015 19.5473 26.8749 19.1456 26.8185C18.9427 26.7899 18.7894 26.7555 18.6922 26.7191C18.663 26.7081 18.6436 26.6987 18.6316 26.692Z" fill="#995E51"/>
<path fill-rule="evenodd" clip-rule="evenodd" d="M14.3868 20.1561C14.2127 20.1949 14.0131 20.1553 13.9913 20.039C13.9535 19.8368 14.3863 19.5879 14.3863 19.5879L14.3863 19.5881C15.1545 19.1798 16.8933 18.5759 18.2024 19.7814C18.3447 19.885 18.3724 20.0796 18.2643 20.2162C18.1562 20.3528 17.9214 20.4194 17.7791 20.3158C16.9338 19.7005 16.1889 19.7327 15.5733 19.8483C15.2607 19.907 14.3868 20.1561 14.3868 20.1561Z" fill="black"/>
<path d="M17.5012 20.7672C17.5012 21.694 17.2273 22.9236 16.3824 22.9236C15.7646 22.9236 15.2637 22.2589 15.2637 20.7672C15.2637 19.8404 15.7646 19.5674 16.3824 19.5674C17.0003 19.5674 17.5012 19.8404 17.5012 20.7672Z" fill="black"/>
<path fill-rule="evenodd" clip-rule="evenodd" d="M26.3222 20.1561C26.4963 20.1949 26.6959 20.1553 26.7177 20.039C26.7555 19.8368 26.3226 19.5879 26.3226 19.5879L26.3226 19.5881C25.5544 19.1798 23.8156 18.5759 22.5066 19.7814C22.3643 19.885 22.3366 20.0796 22.4447 20.2162C22.5528 20.3528 22.7876 20.4194 22.9299 20.3158C23.7752 19.7005 24.5201 19.7327 25.1357 19.8483C25.4483 19.907 26.3222 20.1561 26.3222 20.1561Z" fill="black"/>
<path d="M25.5012 20.7672C25.5012 21.694 25.2273 22.9236 24.3824 22.9236C23.7646 22.9236 23.2637 22.2589 23.2637 20.7672C23.2637 19.8404 23.7646 19.5674 24.3824 19.5674C25.0003 19.5674 25.5012 19.8404 25.5012 20.7672Z" fill="black"/>
<path d="M13.3819 9.54983C17.7907 5.58164 24.1369 6.79265 26.9332 9.9741C28.7479 12.0388 29.853 15.0431 28.9389 17.8059C27.7815 17.1834 24.8293 17.0968 23.9847 13.4029C20.5847 16.0623 17.5016 16.4794 17.5016 16.4794C17.5016 16.4794 15.6084 14.4635 15.8235 13.4029C15.1782 14.0392 14.7047 16.7591 14.7047 16.7591C14.7047 16.7591 12.7469 16.7591 11.0688 17.3203C10.4408 15.1529 11.1006 11.6031 13.3819 9.54983Z" fill="#7D6A53"/>
<path d="M14.3067 9.32369C17.6759 6.25605 24.3871 6.69419 27.163 9.88918C28.9644 11.9627 30.2192 15.167 29.3118 17.9415C28.0552 17.2578 25.9205 16.6186 25.0767 13.0734C19.7327 17.9415 11.7913 16.9577 11.7913 16.9577C11.1679 14.7811 12.0421 11.3857 14.3067 9.32369Z" fill="#09090A"/>
<path fill-rule="evenodd" clip-rule="evenodd" d="M19.53 21.5249C19.6844 21.5249 19.8097 21.6501 19.8097 21.8046C19.8097 22.0463 19.7953 22.4344 19.752 22.8216C19.71 23.1967 19.6368 23.6147 19.5004 23.8875C19.4218 24.0448 19.4511 24.3368 19.6578 24.5435C19.8402 24.7259 20.2029 24.8701 20.8245 24.6215C20.9679 24.5641 21.1307 24.6338 21.1881 24.7773C21.2454 24.9207 21.1757 25.0834 21.0323 25.1408C20.2554 25.4516 19.6393 25.3161 19.2623 24.9391C18.9096 24.5864 18.7991 24.0393 19.0001 23.6373C19.0875 23.4626 19.1541 23.1347 19.1961 22.7594C19.2367 22.3961 19.2503 22.029 19.2503 21.8046C19.2503 21.6501 19.3755 21.5249 19.53 21.5249Z" fill="black"/>
</g>
<path fill-rule="evenodd" clip-rule="evenodd" d="M39.1152 20.0974C39.1152 30.5908 30.6086 39.0974 20.1152 39.0974C9.62182 39.0974 1.11523 30.5908 1.11523 20.0974C1.11523 9.604 9.62182 1.09741 20.1152 1.09741C30.6086 1.09741 39.1152 9.604 39.1152 20.0974ZM20.1152 37.1974C29.5593 37.1974 37.2152 29.5415 37.2152 20.0974C37.2152 10.6533 29.5593 2.99741 20.1152 2.99741C10.6712 2.99741 3.01523 10.6533 3.01523 20.0974C3.01523 29.5415 10.6712 37.1974 20.1152 37.1974Z" fill="white"/>
<defs>
<radialGradient id="paint0_radial_1_5140" cx="0" cy="0" r="1" gradientTransform="matrix(45.0484 -21.486 36.0457 71.0936 3.43198 78.9011)" gradientUnits="userSpaceOnUse">
<stop stop-color="#C2DFFF"/>
<stop offset="0.337826" stop-color="#E6F2FF"/>
<stop offset="1" stop-color="white"/>
</radialGradient>
<linearGradient id="paint1_linear_1_5140" x1="20.7075" y1="30.3294" x2="20.7075" y2="34.8291" gradientUnits="userSpaceOnUse">
<stop stop-color="#995E51"/>
<stop offset="1" stop-color="#995E51" stop-opacity="0"/>
</linearGradient>
<radialGradient id="paint2_radial_1_5140" cx="0" cy="0" r="1" gradientTransform="matrix(-4.38476 0.64858 -1.81112 -11.9064 32.7378 22.0782)" gradientUnits="userSpaceOnUse">
<stop stop-color="#DA4040"/>
<stop offset="0.67974" stop-color="#F8AB87"/>
<stop offset="0.989583" stop-color="#F4CEA9"/>
</radialGradient>
<radialGradient id="paint3_radial_1_5140" cx="0" cy="0" r="1" gradientTransform="matrix(4.38477 0.64858 1.81112 -11.9064 8.0415 22.0782)" gradientUnits="userSpaceOnUse">
<stop stop-color="#DA4040"/>
<stop offset="0.67974" stop-color="#F8AB87"/>
<stop offset="0.989583" stop-color="#F4CEA9"/>
</radialGradient>
<linearGradient id="paint4_linear_1_5140" x1="20.5991" y1="12.9222" x2="20.5021" y2="32.2139" gradientUnits="userSpaceOnUse">
<stop stop-color="#E6AF90"/>
<stop offset="0.574437" stop-color="#F4CEA9"/>
<stop offset="1" stop-color="#F4CEA9"/>
</linearGradient>
<linearGradient id="paint5_linear_1_5140" x1="8.33076" y1="20.4509" x2="8.9701" y2="27.7206" gradientUnits="userSpaceOnUse">
<stop offset="0.251559" stop-color="#EAB7FF"/>
<stop offset="0.651419" stop-color="#B370E2"/>
<stop offset="1" stop-color="#6755BB"/>
</linearGradient>
<linearGradient id="paint6_linear_1_5140" x1="9.70953" y1="18.5854" x2="10.2187" y2="27.654" gradientUnits="userSpaceOnUse">
<stop offset="0.0208333" stop-color="#A2A2B7"/>
<stop offset="0.219513" stop-color="#171229"/>
<stop offset="0.609616" stop-color="#261D38"/>
<stop offset="0.816125" stop-color="#191034"/>
<stop offset="1" stop-color="#38315F"/>
</linearGradient>
<linearGradient id="paint7_linear_1_5140" x1="10.043" y1="19.4283" x2="10.8001" y2="28.4088" gradientUnits="userSpaceOnUse">
<stop offset="0.251559" stop-color="#EAB7FF"/>
<stop offset="0.651419" stop-color="#B370E2"/>
<stop offset="1" stop-color="#6755BB"/>
</linearGradient>
<linearGradient id="paint8_linear_1_5140" x1="10.2794" y1="18.7265" x2="11.2248" y2="28.3841" gradientUnits="userSpaceOnUse">
<stop offset="0.01827" stop-color="#C365ED"/>
<stop offset="0.507042" stop-color="#78299B"/>
<stop offset="0.865662" stop-color="#5F1481"/>
<stop offset="1" stop-color="#4F106B"/>
</linearGradient>
<linearGradient id="paint9_linear_1_5140" x1="11.3584" y1="18.5901" x2="12.5762" y2="28.2609" gradientUnits="userSpaceOnUse">
<stop offset="0.01827" stop-color="#A2A2B7"/>
<stop offset="0.507042" stop-color="#4A405D"/>
<stop offset="0.865662" stop-color="#322851"/>
<stop offset="1" stop-color="#38315F"/>
</linearGradient>
<linearGradient id="paint10_linear_1_5140" x1="11.5977" y1="10.3401" x2="14.866" y2="30.0426" gradientUnits="userSpaceOnUse">
<stop offset="0.0208333" stop-color="#B459DD"/>
<stop offset="1" stop-color="#322851"/>
<stop offset="1" stop-color="#571276"/>
</linearGradient>
<linearGradient id="paint11_linear_1_5140" x1="18.8675" y1="28.9332" x2="18.7984" y2="30.5697" gradientUnits="userSpaceOnUse">
<stop offset="0.01827" stop-color="#C365ED"/>
<stop offset="0.507042" stop-color="#78299B"/>
<stop offset="0.865662" stop-color="#5F1481"/>
<stop offset="1" stop-color="#4F106B"/>
</linearGradient>
<linearGradient id="paint12_linear_1_5140" x1="32.5012" y1="20.4523" x2="31.8561" y2="27.7184" gradientUnits="userSpaceOnUse">
<stop offset="0.251559" stop-color="#EAB7FF"/>
<stop offset="0.651419" stop-color="#B370E2"/>
<stop offset="1" stop-color="#6755BB"/>
</linearGradient>
<linearGradient id="paint13_linear_1_5140" x1="31.1075" y1="18.5845" x2="30.5913" y2="27.6517" gradientUnits="userSpaceOnUse">
<stop offset="0.0208333" stop-color="#A2A2B7"/>
<stop offset="0.219513" stop-color="#171229"/>
<stop offset="0.609616" stop-color="#261D38"/>
<stop offset="0.816125" stop-color="#191034"/>
<stop offset="1" stop-color="#38315F"/>
</linearGradient>
<linearGradient id="paint14_linear_1_5140" x1="30.7863" y1="19.4306" x2="30.0202" y2="28.4052" gradientUnits="userSpaceOnUse">
<stop offset="0.251559" stop-color="#EAB7FF"/>
<stop offset="0.651419" stop-color="#B370E2"/>
<stop offset="1" stop-color="#6755BB"/>
</linearGradient>
<linearGradient id="paint15_linear_1_5140" x1="30.5493" y1="18.7281" x2="29.5976" y2="28.3808" gradientUnits="userSpaceOnUse">
<stop offset="0.01827" stop-color="#C365ED"/>
<stop offset="0.507042" stop-color="#78299B"/>
<stop offset="0.865662" stop-color="#5F1481"/>
<stop offset="1" stop-color="#4F106B"/>
</linearGradient>
<linearGradient id="paint16_linear_1_5140" x1="29.4751" y1="18.5909" x2="28.2611" y2="28.2599" gradientUnits="userSpaceOnUse">
<stop offset="0.01827" stop-color="#A2A2B7"/>
<stop offset="0.507042" stop-color="#4A405D"/>
<stop offset="0.865662" stop-color="#322851"/>
<stop offset="1" stop-color="#38315F"/>
</linearGradient>
<clipPath id="clip0_1_5140">
<rect x="2.86914" y="2.86841" width="34.5038" height="34.5038" rx="17.2519" fill="white"/>
</clipPath>
</defs>
</svg>
