<svg width="40" height="40" viewBox="0 0 40 40" fill="none" xmlns="http://www.w3.org/2000/svg">
<path d="M37.9506 16.4661C37.8053 13.1258 37.1856 10.9711 36.1464 9.03263C34.9722 6.81568 33.1568 5.003 30.9366 3.83055C28.7018 2.63955 26.1737 2.00161 21.8605 2.00161H18.7263C17.3011 1.9865 15.8768 2.07802 14.4652 2.2754C12.61 2.4858 10.8109 3.0431 9.16216 3.91816C6.90745 5.10995 5.06363 6.95103 3.87006 9.20238C2.64986 11.4831 2 14.0485 2 18.4292V21.6189C2 25.9996 2.64986 28.5705 3.87006 30.8485C5.06363 33.0999 6.90745 34.9409 9.16216 36.1327C11.4435 37.3511 14.0155 38 18.4055 38H21.5945C25.9817 38 28.5565 37.3511 30.8378 36.1327C33.0925 34.9409 34.9364 33.0999 36.1299 30.8485C37.3501 28.5705 38 26.0024 38 21.6189V18.4292C38 17.7338 37.9835 17.0822 37.9506 16.4661Z" fill="white"/>
<mask id="mask0_1_5039" style="mask-type:alpha" maskUnits="userSpaceOnUse" x="2" y="2" width="36" height="36">
<path d="M37.9506 16.4661C37.8053 13.1258 37.1856 10.9711 36.1464 9.03263C34.9722 6.81568 33.1568 5.003 30.9366 3.83055C28.7018 2.63955 26.1737 2.00161 21.8605 2.00161H18.7263C17.3011 1.9865 15.8768 2.07802 14.4652 2.2754C12.61 2.4858 10.8109 3.0431 9.16216 3.91816C6.90745 5.10995 5.06363 6.95103 3.87006 9.20238C2.64986 11.4831 2 14.0485 2 18.4292V21.6189C2 25.9996 2.64986 28.5705 3.87006 30.8485C5.06363 33.0999 6.90745 34.9409 9.16216 36.1327C11.4435 37.3511 14.0155 38 18.4055 38H21.5945C25.9817 38 28.5565 37.3511 30.8378 36.1327C33.0925 34.9409 34.9364 33.0999 36.1299 30.8485C37.3501 28.5705 38 26.0024 38 21.6189V18.4292C38 17.7338 37.9835 17.0822 37.9506 16.4661Z" fill="white"/>
</mask>
<g mask="url(#mask0_1_5039)">
<path d="M30.9738 36.1408C28.5083 37.4601 25.8176 38 21.6863 38H18.3288C14.2004 38 11.5097 37.4601 9.04136 36.1408C6.82974 34.9704 5.02341 33.1591 3.85922 30.9442C2.53987 28.4903 2 25.814 2 21.6712V18.3079C2 14.1766 2.53987 11.4859 3.85922 9.02045C4.94397 6.96544 6.5846 5.25678 8.59387 4.08948C3.57918 10.513 3.52433 22.1793 8.42643 28.701C9.23478 29.902 8.44664 31.9864 7.22544 33.2018C7.03201 33.3953 7.10996 33.5079 7.39577 33.5396C9.12797 33.7273 11.3048 33.2336 12.8435 32.483C19.0967 35.9474 28.6382 36.0109 35.03 32.7024C33.9421 34.128 32.5583 35.3011 30.9738 36.1408Z" fill="#0068FF"/>
</g>
<path d="M31.2845 15.6326C33.2329 15.631 34.8146 17.2086 34.8177 19.157C34.8208 21.1053 33.2446 22.6874 31.2962 22.6921C29.3478 22.6968 27.7644 21.122 27.7581 19.1736C27.7552 18.2361 28.1249 17.3359 28.7865 16.6716C29.4481 16.0074 30.347 15.6334 31.2845 15.6326ZM20.4652 15.6755C21.2083 15.6755 21.9324 15.9118 22.5316 16.3513V15.8708H23.9691V22.6208H23.1478C22.8116 22.6208 22.5378 22.3515 22.5316 22.0154C21.3045 22.9108 19.6397 22.9143 18.4095 22.0232C17.1795 21.1322 16.6641 19.5501 17.1322 18.1052C17.6004 16.6602 18.9462 15.6806 20.4652 15.6804V15.6755ZM16.5872 13.9187C16.6086 14.3227 16.4955 14.7223 16.266 15.0554L16.2347 15.0896C16.175 15.1579 16.0422 15.3119 15.9769 15.3943L11.3636 21.1863H16.5872V22.0164C16.587 22.3567 16.3114 22.6325 15.971 22.6326H9.20345V22.2351C9.18361 21.9109 9.27857 21.5895 9.47103 21.3279L14.388 15.2371H9.41732V13.7H16.5872V13.9187ZM26.7367 22.6208H25.7113C25.4295 22.6193 25.2013 22.3918 25.1995 22.1101V13.7H26.7367V22.6208ZM20.4632 17.1189C19.3252 17.1189 18.4027 18.0415 18.4027 19.1794C18.4027 20.3174 19.3252 21.24 20.4632 21.24C21.6011 21.2398 22.5238 20.3173 22.5238 19.1794C22.5237 18.0416 21.601 17.1191 20.4632 17.1189ZM31.2835 17.0876C30.1378 17.0878 29.2093 18.0171 29.2093 19.1628C29.2095 20.3085 30.1379 21.237 31.2835 21.2371C32.4293 21.2371 33.3586 20.3086 33.3587 19.1628C33.3587 18.017 32.4294 17.0876 31.2835 17.0876Z" fill="#0068FF"/>
</svg>
