<svg width="40" height="40" viewBox="0 0 40 40" fill="none" xmlns="http://www.w3.org/2000/svg">
<g clip-path="url(#clip0_1_5077)">
<path d="M40 20C40 31.0457 31.0457 40 20 40C8.9543 40 0 31.0457 0 20C0 8.9543 8.9543 0 20 0C31.0457 0 40 8.9543 40 20Z" fill="white"/>
<path fill-rule="evenodd" clip-rule="evenodd" d="M20 39C30.4934 39 39 30.4934 39 20C39 9.50659 30.4934 1 20 1C9.50659 1 1 9.50659 1 20C1 30.4934 9.50659 39 20 39ZM20 40C31.0457 40 40 31.0457 40 20C40 8.9543 31.0457 0 20 0C8.9543 0 0 8.9543 0 20C0 31.0457 8.9543 40 20 40Z" fill="#F0F5FE"/>
<path d="M13.5911 10.7682C13.801 10.4893 13.8339 10.1205 13.678 9.80872C13.5221 9.49689 13.2073 9.302 12.858 9.302H6.66797V11.0875H11.119L6.87185 16.7498C6.66197 17.0286 6.629 17.3974 6.78491 17.7093C6.94082 18.0211 7.25564 18.216 7.60494 18.216H13.7965V16.4305H9.34546L13.5926 10.7682H13.5911Z" fill="#0033C9"/>
<path d="M29.766 11.0835C27.7991 11.0835 26.1995 12.6831 26.1995 14.65C26.1995 16.6169 27.7991 18.2165 29.766 18.2165C31.7328 18.2165 33.3324 16.6169 33.3324 14.65C33.3324 12.6831 31.7328 11.0835 29.766 11.0835ZM29.766 16.4295C28.784 16.4295 27.9865 15.6304 27.9865 14.65C27.9865 13.6695 28.7855 12.8705 29.766 12.8705C30.7464 12.8705 31.5455 13.6695 31.5455 14.65C31.5455 15.6304 30.7464 16.4295 29.766 16.4295Z" fill="#0033C9"/>
<path d="M10.2325 20.8945C8.2656 20.8945 6.66602 22.4941 6.66602 24.461V30.6975H8.4515V27.5463C8.9762 27.8506 9.58336 28.0275 10.231 28.0275C12.1979 28.0275 13.7975 26.4279 13.7975 24.461C13.7975 22.4941 12.1979 20.8945 10.231 20.8945H10.2325ZM10.2325 26.2405C9.25055 26.2405 8.453 25.4415 8.453 24.461C8.453 23.4806 9.25205 22.6815 10.2325 22.6815C11.2129 22.6815 12.012 23.4806 12.012 24.461C12.012 25.4415 11.2129 26.2405 10.2325 26.2405Z" fill="#00CF6A"/>
<path d="M27.8984 20.8962L26.0005 25.3277L24.1955 20.8962H22.2676L25.011 27.6364L23.6993 30.6977H25.6422L29.8428 20.8962H27.8984Z" fill="#00CF6A"/>
<path d="M21.5882 16.4295V11.0835H19.7997V11.7356C19.2495 11.3324 18.5809 11.0925 17.8568 11.0925C15.9813 11.0925 14.4612 12.6876 14.4612 14.6545C14.4612 16.6214 15.9813 18.215 17.8568 18.215C18.7338 18.215 19.5313 17.8627 20.134 17.29C20.4998 17.8477 21.1279 18.2165 21.8445 18.2165H22.4772V16.4295H21.5882ZM18.0232 16.4295C17.0427 16.4295 16.2467 15.6349 16.2467 14.653C16.2467 13.671 17.0412 12.8765 18.0232 12.8765C19.0051 12.8765 19.7997 13.671 19.7997 14.653C19.7997 15.6349 19.0036 16.4295 18.0232 16.4295Z" fill="#0033C9"/>
<path d="M21.5882 26.2405V20.8945H19.7997V21.5467C19.2495 21.1434 18.5809 20.9035 17.8568 20.9035C15.9813 20.9035 14.4612 22.4986 14.4612 24.4655C14.4612 26.4324 15.9813 28.026 17.8568 28.026C18.7338 28.026 19.5313 27.6737 20.134 27.101C20.4998 27.6587 21.1279 28.0275 21.8445 28.0275H22.4772V26.2405H21.5882ZM18.0232 26.2405C17.0427 26.2405 16.2467 25.446 16.2467 24.464C16.2467 23.4821 17.0412 22.6875 18.0232 22.6875C19.0051 22.6875 19.7997 23.4821 19.7997 24.464C19.7997 25.446 19.0036 26.2405 18.0232 26.2405Z" fill="#00CF6A"/>
<path d="M24.9443 16.429V9.302H23.1543V16.1681C23.1543 17.2985 24.0703 18.216 25.2006 18.216H25.8393V16.429H24.9443Z" fill="#0033C9"/>
</g>
<defs>
<clipPath id="clip0_1_5077">
<rect width="40" height="40" fill="white"/>
</clipPath>
</defs>
</svg>
