<svg width="40" height="40" viewBox="0 0 40 40" fill="none" xmlns="http://www.w3.org/2000/svg">
<g clip-path="url(#clip0_1_5054)">
<path d="M0 8C0 3.58172 3.58172 0 8 0H32C36.4183 0 40 3.58172 40 8V32C40 36.4183 36.4183 40 32 40H8C3.58172 40 0 36.4183 0 32V8Z" fill="white"/>
<path fill-rule="evenodd" clip-rule="evenodd" d="M32 1.36699H8C4.33669 1.36699 1.36699 4.33669 1.36699 8V32C1.36699 35.6633 4.33669 38.633 8 38.633H32C35.6633 38.633 38.633 35.6633 38.633 32V8C38.633 4.33669 35.6633 1.36699 32 1.36699ZM8 0C3.58172 0 0 3.58172 0 8V32C0 36.4183 3.58172 40 8 40H32C36.4183 40 40 36.4183 40 32V8C40 3.58172 36.4183 0 32 0H8Z" fill="#F0F5FE"/>
<path d="M13.0402 9.97139C13.2682 9.66848 13.304 9.26785 13.1347 8.92911C12.9653 8.59037 12.6233 8.37866 12.2439 8.37866H5.51953V10.3183H10.3547L5.74101 16.4693C5.51301 16.7723 5.47719 17.1729 5.64656 17.5116C5.81593 17.8504 6.15793 18.0621 6.53738 18.0621H13.2633V16.1225H8.42813L13.0419 9.97139H13.0402Z" fill="#0033C9"/>
<path d="M30.6107 10.3135C28.474 10.3135 26.7363 12.0511 26.7363 14.1878C26.7363 16.3245 28.474 18.0622 30.6107 18.0622C32.7473 18.0622 34.485 16.3245 34.485 14.1878C34.485 12.0511 32.7473 10.3135 30.6107 10.3135ZM30.6107 16.1209C29.544 16.1209 28.6776 15.2529 28.6776 14.1878C28.6776 13.1227 29.5456 12.2547 30.6107 12.2547C31.6758 12.2547 32.5438 13.1227 32.5438 14.1878C32.5438 15.2529 31.6758 16.1209 30.6107 16.1209Z" fill="#0033C9"/>
<path d="M9.38995 20.9724C7.25328 20.9724 5.51562 22.7101 5.51562 24.8468V31.6216H7.45522V28.1983C8.02522 28.5289 8.68479 28.7211 9.38832 28.7211C11.525 28.7211 13.2627 26.9834 13.2627 24.8468C13.2627 22.7101 11.525 20.9724 9.38832 20.9724H9.38995ZM9.38995 26.7799C8.32325 26.7799 7.45685 25.9118 7.45685 24.8468C7.45685 23.7817 8.32488 22.9137 9.38995 22.9137C10.455 22.9137 11.3231 23.7817 11.3231 24.8468C11.3231 25.9118 10.455 26.7799 9.38995 26.7799Z" fill="#00CF6A"/>
<path d="M28.5817 20.9739L26.52 25.7879L24.5592 20.9739H22.4648L25.4451 28.2959L24.0201 31.6214H26.1307L30.694 20.9739H28.5817Z" fill="#00CF6A"/>
<path d="M21.7285 16.1209V10.3135H19.7856V11.0219C19.188 10.5838 18.4616 10.3232 17.675 10.3232C15.6377 10.3232 13.9863 12.056 13.9863 14.1927C13.9863 16.3294 15.6377 18.0605 17.675 18.0605C18.6277 18.0605 19.4941 17.6778 20.1488 17.0557C20.5462 17.6615 21.2285 18.0622 22.007 18.0622H22.6942V16.1209H21.7285ZM17.8558 16.1209C16.7907 16.1209 15.9259 15.2578 15.9259 14.1911C15.9259 13.1244 16.7891 12.2612 17.8558 12.2612C18.9225 12.2612 19.7856 13.1244 19.7856 14.1911C19.7856 15.2578 18.9209 16.1209 17.8558 16.1209Z" fill="#0033C9"/>
<path d="M21.7285 26.7799V20.9724H19.7856V21.6808C19.188 21.2428 18.4616 20.9822 17.675 20.9822C15.6377 20.9822 13.9863 22.715 13.9863 24.8516C13.9863 26.9883 15.6377 28.7195 17.675 28.7195C18.6277 28.7195 19.4941 28.3368 20.1488 27.7146C20.5462 28.3205 21.2285 28.7211 22.007 28.7211H22.6942V26.7799H21.7285ZM17.8558 26.7799C16.7907 26.7799 15.9259 25.9167 15.9259 24.85C15.9259 23.7833 16.7891 22.9202 17.8558 22.9202C18.9225 22.9202 19.7856 23.7833 19.7856 24.85C19.7856 25.9167 18.9209 26.7799 17.8558 26.7799Z" fill="#00CF6A"/>
<path d="M25.3722 16.1208V8.37866H23.4277V15.8375C23.4277 17.0654 24.4228 18.0621 25.6507 18.0621H26.3445V16.1208H25.3722Z" fill="#0033C9"/>
</g>
<defs>
<clipPath id="clip0_1_5054">
<rect width="40" height="40" fill="white"/>
</clipPath>
</defs>
</svg>
