<svg width="40" height="40" viewBox="0 0 40 40" fill="none" xmlns="http://www.w3.org/2000/svg">
<g clip-path="url(#clip0_1_5122)">
<path d="M17 37.8C8.5 36.3 2 28.9 2 20C2 10.1 10.1 2 20 2C29.9 2 38 10.1 38 20C38 28.9 31.5 36.3 23 37.8L22 37H18L17 37.8Z" fill="url(#paint0_linear_1_5122)"/>
<path d="M27 25L27.8 20H23V16.5C23 15.1 23.5 14 25.7 14H28V9.4C26.7 9.2 25.3 9 24 9C19.9 9 17 11.5 17 16V20H12.5V25H17V37.7C18 37.9 19 38 20 38C21 38 22 37.9 23 37.7V25H27Z" fill="white"/>
</g>
<defs>
<linearGradient id="paint0_linear_1_5122" x1="20" y1="36.754" x2="20" y2="2" gradientUnits="userSpaceOnUse">
<stop stop-color="#0062E0"/>
<stop offset="1" stop-color="#19AFFF"/>
</linearGradient>
<clipPath id="clip0_1_5122">
<rect width="36" height="36" fill="white" transform="translate(2 2)"/>
</clipPath>
</defs>
</svg>
