<svg width="40" height="40" viewBox="0 0 40 40" fill="none" xmlns="http://www.w3.org/2000/svg">
<path fill-rule="evenodd" clip-rule="evenodd" d="M20 2C9.86006 2 2 9.4275 2 19.46C2 24.7076 4.15065 29.2423 7.65301 32.3743C7.94702 32.6375 8.12447 33.0061 8.13658 33.4007L8.23461 36.6025C8.26587 37.6239 9.32084 38.2884 10.2554 37.8759L13.8282 36.2987C14.131 36.1651 14.4704 36.1403 14.7895 36.2281C16.4313 36.6796 18.1787 36.92 20 36.92C30.14 36.92 38.0001 29.4925 38.0001 19.46C38.0001 9.4275 30.14 2 20 2Z" fill="url(#paint0_radial_1_5127)"/>
<path fill-rule="evenodd" clip-rule="evenodd" d="M9.19163 24.5653L14.4792 16.1766C15.3203 14.842 17.1213 14.5097 18.3833 15.4562L22.5887 18.6102C22.9745 18.8997 23.5054 18.8982 23.8897 18.6065L29.5693 14.296C30.3274 13.7208 31.3169 14.628 30.8096 15.433L25.5221 23.8219C24.6809 25.1563 22.8798 25.4886 21.618 24.5422L17.4125 21.388C17.0267 21.0986 16.4957 21.1002 16.1115 21.3918L10.4319 25.7022C9.67384 26.2775 8.68421 25.3703 9.19163 24.5653Z" fill="white"/>
<defs>
<radialGradient id="paint0_radial_1_5127" cx="0" cy="0" r="1" gradientUnits="userSpaceOnUse" gradientTransform="translate(8.92906 37.8075) scale(39.2255 39.2255)">
<stop stop-color="#0099FF"/>
<stop offset="0.609754" stop-color="#A033FF"/>
<stop offset="0.934823" stop-color="#FF5280"/>
<stop offset="1" stop-color="#FF7061"/>
</radialGradient>
</defs>
</svg>
