<svg width="40" height="40" viewBox="0 0 40 40" fill="none" xmlns="http://www.w3.org/2000/svg">
<g clip-path="url(#clip0_1_5657)">
<rect width="40" height="40" fill="white"/>
<path d="M39.2129 11.449C40.2624 17.0781 40.2624 22.8026 39.2129 28.5271C38.2588 33.9654 33.9654 38.2588 28.5271 39.2129C22.898 40.2624 17.1735 40.2624 11.449 39.2129C6.01073 38.2588 1.81276 34.0608 0.858676 28.6225C-0.286225 22.9934 -0.286225 17.1735 0.858676 11.449C1.81276 6.01073 6.01073 1.81276 11.449 0.858676C17.0781 -0.286225 22.898 -0.286225 28.6225 0.858676C34.0608 1.81276 38.2588 6.01073 39.2129 11.449Z" fill="white"/>
<path fill-rule="evenodd" clip-rule="evenodd" d="M38.2293 28.3468C39.2571 22.7405 39.2565 17.1393 38.2298 11.6323L39.2129 11.449C40.2624 17.0781 40.2624 22.8026 39.2129 28.5271L38.2293 28.3468ZM28.5271 39.2129C33.9654 38.2588 38.2588 33.9654 39.2129 28.5271L38.2279 28.3543C37.3466 33.3779 33.3779 37.3466 28.3543 38.2279L28.5271 39.2129ZM11.449 39.2129C17.1735 40.2624 22.898 40.2624 28.5271 39.2129L28.3438 38.2298C22.8369 39.2565 17.2356 39.2571 11.6293 38.2293L11.449 39.2129ZM28.6225 0.858676L28.4497 1.84363C33.4733 2.72496 37.3466 6.59823 38.2279 11.6218L39.2129 11.449C38.2588 6.01073 34.0608 1.81276 28.6225 0.858676ZM11.449 0.858676C17.0781 -0.286225 22.898 -0.286225 28.6225 0.858676L28.4264 1.83926C22.8303 0.720026 17.1448 0.720683 11.6483 1.83861L11.449 0.858676ZM0.858676 11.449C1.81276 6.01073 6.01073 1.81276 11.449 0.858676L11.6218 1.84363C6.59823 2.72496 2.72496 6.59823 1.84363 11.6218L0.858676 11.449ZM0.858676 11.449L1.83926 11.6451C0.720026 17.2413 0.720683 22.9267 1.83861 28.4232L0.858676 28.6225C-0.286225 22.9934 -0.286225 17.1735 0.858676 11.449ZM0.858676 28.6225C1.81276 34.0608 6.01073 38.2588 11.449 39.2129L11.6218 38.2279C6.59823 37.3466 2.72496 33.4733 1.84363 28.4497L0.858676 28.6225Z" fill="url(#paint0_linear_1_5657)"/>
<path fill-rule="evenodd" clip-rule="evenodd" d="M20.1655 8.00575C18.1403 7.97238 16.0846 8.08559 14.1317 8.31113C12.062 8.55016 10.4863 10.2949 10.3308 12.4613C9.97617 17.4021 9.84528 22.4989 10.2488 27.673C10.4105 29.7468 11.9675 31.4112 13.9962 31.6566C18.0714 32.1497 22.0046 32.0892 25.8794 31.6194C27.904 31.3739 29.454 29.7544 29.6207 27.7144C29.9033 24.2574 30.03 20.1334 29.994 16.7174C29.9796 15.3502 28.9644 14.1901 27.5702 13.9569L25.393 13.5928C24.1624 13.3869 23.1876 12.4409 22.9451 11.217L22.761 10.2877C22.4995 8.96814 21.4204 8.02643 20.1655 8.00575ZM13.9023 6.32433C15.9356 6.08951 18.0792 5.9711 20.1984 6.00602C22.4842 6.04369 24.296 7.74484 24.7229 9.89893L24.907 10.8282C24.9878 11.2362 25.3127 11.5516 25.7229 11.6202L27.9001 11.9843C30.2043 12.3697 31.9688 14.314 31.9939 16.6964C32.0305 20.1671 31.9021 24.3528 31.6141 27.8773C31.3705 30.8566 29.0948 33.2442 26.1201 33.6049C22.1022 34.092 18.0066 34.1564 13.756 33.6421C10.7453 33.2779 8.48779 30.8154 8.25485 27.8285C7.84102 22.5221 7.977 17.3189 8.33596 12.3182C8.55387 9.2824 10.7908 6.68367 13.9023 6.32433Z" fill="#0033C9"/>
<path fill-rule="evenodd" clip-rule="evenodd" d="M13.5 17C13.5 16.4477 13.9477 16 14.5 16H25.5C26.0523 16 26.5 16.4477 26.5 17C26.5 17.5523 26.0523 18 25.5 18H14.5C13.9477 18 13.5 17.5523 13.5 17ZM13.5 22C13.5 21.4477 13.9477 21 14.5 21H25.5C26.0523 21 26.5 21.4477 26.5 22C26.5 22.5523 26.0523 23 25.5 23H14.5C13.9477 23 13.5 22.5523 13.5 22ZM14.5 26C13.9477 26 13.5 26.4477 13.5 27C13.5 27.5523 13.9477 28 14.5 28H20.5C21.0523 28 21.5 27.5523 21.5 27C21.5 26.4477 21.0523 26 20.5 26H14.5Z" fill="#00CF6A"/>
</g>
<defs>
<linearGradient id="paint0_linear_1_5657" x1="-2.81746e-08" y1="8.19672" x2="40.9761" y2="9.50848" gradientUnits="userSpaceOnUse">
<stop stop-color="#F0F6FF"/>
<stop offset="0.635417" stop-color="#E8F0FD"/>
<stop offset="1" stop-color="#EEF4FE"/>
</linearGradient>
<clipPath id="clip0_1_5657">
<rect width="40" height="40" fill="white"/>
</clipPath>
</defs>
</svg>
