<svg width="40" height="40" viewBox="0 0 40 40" fill="none" xmlns="http://www.w3.org/2000/svg">
<g clip-path="url(#clip0_1_5642)">
<rect width="40" height="40" fill="white"/>
<path fill-rule="evenodd" clip-rule="evenodd" d="M38.2293 28.3468C39.2571 22.7405 39.2565 17.1393 38.2298 11.6323L39.2129 11.449C40.2624 17.0781 40.2624 22.8026 39.2129 28.5271L38.2293 28.3468ZM28.5271 39.2129C33.9654 38.2588 38.2588 33.9654 39.2129 28.5271L38.2279 28.3543C37.3466 33.3779 33.3779 37.3466 28.3543 38.2279L28.5271 39.2129ZM11.449 39.2129C17.1735 40.2624 22.898 40.2624 28.5271 39.2129L28.3438 38.2298C22.8369 39.2565 17.2356 39.2571 11.6293 38.2293L11.449 39.2129ZM28.6225 0.858676L28.4497 1.84363C33.4733 2.72496 37.3466 6.59823 38.2279 11.6218L39.2129 11.449C38.2588 6.01073 34.0608 1.81276 28.6225 0.858676ZM11.449 0.858676C17.0781 -0.286225 22.898 -0.286225 28.6225 0.858676L28.4264 1.83926C22.8303 0.720026 17.1448 0.720683 11.6483 1.83861L11.449 0.858676ZM0.858676 11.449C1.81276 6.01073 6.01073 1.81276 11.449 0.858676L11.6218 1.84363C6.59823 2.72496 2.72496 6.59823 1.84363 11.6218L0.858676 11.449ZM0.858676 11.449L1.83926 11.6451C0.720026 17.2413 0.720683 22.9267 1.83861 28.4232L0.858676 28.6225C-0.286225 22.9934 -0.286225 17.1735 0.858676 11.449ZM0.858676 28.6225C1.81276 34.0608 6.01073 38.2588 11.449 39.2129L11.6218 38.2279C6.59823 37.3466 2.72496 33.4733 1.84363 28.4497L0.858676 28.6225Z" fill="url(#paint0_linear_1_5642)"/>
<path d="M17.125 26.0938V13.0938H23V26.0938L19.9688 24.4688L17.125 26.0938Z" fill="#00CF6A"/>
<path d="M22.8502 8.29964L19.9688 12.6875L25.2934 12.6875C25.5298 12.6875 25.7635 12.6386 25.98 12.544L26.7856 12.1919C28.3349 11.5147 28.9511 9.82284 28.1459 8.45708C27.043 6.58651 24.089 6.49868 22.8502 8.29964Z" fill="#00CF6A"/>
<path d="M16.9501 8.29964L19.9688 12.6875L14.3584 12.6875C14.1318 12.6875 13.9075 12.6426 13.6983 12.5553L12.8273 12.1919C11.2042 11.5147 10.5586 9.82284 11.4022 8.45708C12.5576 6.58651 15.6523 6.49868 16.9501 8.29964Z" fill="#00CF6A"/>
<path fill-rule="evenodd" clip-rule="evenodd" d="M25.5787 6.00195C26.8905 6.04095 28.2518 6.66773 29.0073 7.94917C29.9104 9.48087 29.521 11.2498 28.3221 12.3657C30.1895 13.1568 31.4848 14.9591 31.6701 17.0433C31.8375 18.9251 31.9375 20.8554 31.9375 22.8437C31.9375 24.832 31.8375 26.7623 31.6701 28.6442C31.4361 31.2765 29.4315 33.459 26.7401 33.7228C24.8033 33.9127 22.642 34 20.1719 34H18.3438C18.2823 34 18.2222 33.9945 18.1638 33.9838C16.3557 33.9502 14.7192 33.8635 13.2159 33.7168C10.5249 33.4542 8.51083 31.2782 8.27215 28.6422C8.10181 26.761 8 24.8313 8 22.8437C8 20.856 8.10181 18.9264 8.27214 17.0453C8.45272 15.0511 9.64944 13.3201 11.3867 12.4818C10.0488 11.3806 9.55796 9.53998 10.5514 7.93155C11.3425 6.65079 12.7535 6.03996 14.0944 6.00191C15.4359 5.96384 16.881 6.49319 17.7614 7.71498L17.774 7.73283L19.9494 10.8951L22.0143 7.75071L22.0263 7.73288C22.8694 6.50717 24.2668 5.96295 25.5787 6.00195ZM23.6795 8.85847L21.8218 11.6875L25.2935 11.6875C25.3919 11.6875 25.4893 11.6671 25.5795 11.6277L26.3851 11.2756C27.4525 10.809 27.7485 9.75201 27.2845 8.96494C26.9371 8.3758 26.27 8.02339 25.5193 8.00107C24.7722 7.97886 24.0761 8.28826 23.6795 8.85847ZM20.1719 32C22.5972 32 24.6906 31.9141 26.545 31.7324C28.2187 31.5683 29.5236 30.2035 29.678 28.467C29.8409 26.6354 29.9375 24.7648 29.9375 22.8437C29.9375 21.8088 29.9095 20.7886 29.8581 19.7812H24.0312C24.0208 19.7812 24.0104 19.7811 24 19.7808V26.0938C24 26.4454 23.8153 26.7712 23.5136 26.9518C23.2119 27.1324 22.8374 27.1412 22.5275 26.9751L19.9842 25.6117L17.6211 26.962C17.3116 27.1389 16.9314 27.1376 16.6231 26.9587C16.3148 26.7797 16.125 26.4502 16.125 26.0938V19.7812H10.0809C10.0286 20.7886 10 21.8088 10 22.8437C10 24.7629 10.0983 26.6318 10.264 28.4618C10.4212 30.1984 11.7315 31.5624 13.4101 31.7262C15.3163 31.9122 17.4699 32 19.9688 32H20.1719ZM24 17.7817C24.0104 17.7814 24.0208 17.7812 24.0312 17.7812H29.7257C29.7105 17.5939 29.6946 17.407 29.678 17.2205C29.5236 15.484 28.2187 14.1192 26.545 13.9551C25.7438 13.8766 24.8979 13.816 24 13.7724V17.7817ZM16.125 13.7697V17.7812H10.2159C10.2312 17.5956 10.2473 17.4105 10.264 17.2257C10.4212 15.4892 11.7315 14.1251 13.4101 13.9613C14.2627 13.8781 15.1647 13.8146 16.125 13.7697ZM18.125 14.0938V24.3706L19.4726 23.6005C19.7717 23.4296 20.1376 23.4247 20.4412 23.5874L22 24.423V14.0938H18.125ZM18.067 11.6875L16.1331 8.87636C15.7146 8.30211 14.9666 7.97797 14.1511 8.00111C13.3314 8.02437 12.6173 8.39274 12.253 8.98255C11.789 9.73387 12.0534 10.7855 13.2123 11.269L14.0834 11.6324C14.1705 11.6688 14.264 11.6875 14.3584 11.6875L18.067 11.6875Z" fill="#0033C9"/>
</g>
<defs>
<linearGradient id="paint0_linear_1_5642" x1="-2.81746e-08" y1="8.19672" x2="40.9761" y2="9.50848" gradientUnits="userSpaceOnUse">
<stop stop-color="#F0F6FF"/>
<stop offset="0.635417" stop-color="#E8F0FD"/>
<stop offset="1" stop-color="#EEF4FE"/>
</linearGradient>
<clipPath id="clip0_1_5642">
<rect width="40" height="40" fill="white"/>
</clipPath>
</defs>
</svg>
