<svg width="40" height="40" viewBox="0 0 40 40" fill="none" xmlns="http://www.w3.org/2000/svg">
<g clip-path="url(#clip0_1_5625)">
<rect width="40" height="40" fill="white"/>
<path d="M39.2129 11.449C40.2624 17.0781 40.2624 22.8026 39.2129 28.5271C38.2588 33.9654 33.9654 38.2588 28.5271 39.2129C22.898 40.2624 17.1735 40.2624 11.449 39.2129C6.01073 38.2588 1.81276 34.0608 0.858676 28.6225C-0.286225 22.9934 -0.286225 17.1735 0.858676 11.449C1.81276 6.01073 6.01073 1.81276 11.449 0.858676C17.0781 -0.286225 22.898 -0.286225 28.6225 0.858676C34.0608 1.81276 38.2588 6.01073 39.2129 11.449Z" fill="white"/>
<path fill-rule="evenodd" clip-rule="evenodd" d="M38.2293 28.3468C39.2571 22.7405 39.2565 17.1393 38.2298 11.6323L39.2129 11.449C40.2624 17.0781 40.2624 22.8026 39.2129 28.5271L38.2293 28.3468ZM28.5271 39.2129C33.9654 38.2588 38.2588 33.9654 39.2129 28.5271L38.2279 28.3543C37.3466 33.3779 33.3779 37.3466 28.3543 38.2279L28.5271 39.2129ZM11.449 39.2129C17.1735 40.2624 22.898 40.2624 28.5271 39.2129L28.3438 38.2298C22.8369 39.2565 17.2356 39.2571 11.6293 38.2293L11.449 39.2129ZM28.6225 0.858676L28.4497 1.84363C33.4733 2.72496 37.3466 6.59823 38.2279 11.6218L39.2129 11.449C38.2588 6.01073 34.0608 1.81276 28.6225 0.858676ZM11.449 0.858676C17.0781 -0.286225 22.898 -0.286225 28.6225 0.858676L28.4264 1.83926C22.8303 0.720026 17.1448 0.720683 11.6483 1.83861L11.449 0.858676ZM0.858676 11.449C1.81276 6.01073 6.01073 1.81276 11.449 0.858676L11.6218 1.84363C6.59823 2.72496 2.72496 6.59823 1.84363 11.6218L0.858676 11.449ZM0.858676 11.449L1.83926 11.6451C0.720026 17.2413 0.720683 22.9267 1.83861 28.4232L0.858676 28.6225C-0.286225 22.9934 -0.286225 17.1735 0.858676 11.449ZM0.858676 28.6225C1.81276 34.0608 6.01073 38.2588 11.449 39.2129L11.6218 38.2279C6.59823 37.3466 2.72496 33.4733 1.84363 28.4497L0.858676 28.6225Z" fill="url(#paint0_linear_1_5625)"/>
<path d="M22.3633 10.177C22.6669 10.0729 23.2845 9.87456 23.9346 10.1125C24.6271 10.3661 25.1308 10.9111 25.4941 11.4963C25.8629 12.0904 26.1456 12.8191 26.3613 13.5998C26.7935 15.1643 27 17.0993 27 19.0002C27 20.9011 26.7934 22.8353 26.3613 24.3997C26.1456 25.1804 25.8629 25.909 25.4941 26.5032C25.1308 27.0884 24.6272 27.6333 23.9346 27.887C23.2845 28.1249 22.6669 27.9276 22.3633 27.8235L16 25.6409V30.0002C15.9999 31.9331 14.4329 33.5002 12.5 33.5002C10.5671 33.5002 9.00013 31.9331 9 30.0002V23.2395L8.83496 23.1838C6.89961 22.52 6.0001 20.6938 6 19.0002C6 17.3066 6.89941 15.4795 8.83496 14.8157L22.3633 10.177ZM11 30.0002C11.0001 30.8286 11.6717 31.5002 12.5 31.5002C13.3283 31.5002 13.9999 30.8286 14 30.0002V24.9543L11 23.926V30.0002ZM23.2607 12.0022C23.2122 12.0081 23.1375 12.0258 23.0127 12.0686L9.48438 16.7073C8.5406 17.0309 8 17.9493 8 19.0002C8.0001 20.0511 8.54069 20.9686 9.48438 21.2922L23.0127 25.9309C23.1376 25.9737 23.2122 25.9924 23.2607 25.9983C23.2648 25.9988 23.2685 25.999 23.2715 25.9993C23.3854 25.9486 23.5727 25.8064 23.7949 25.4485C24.0284 25.0722 24.2477 24.5401 24.4336 23.8674C24.8045 22.5248 25 20.7793 25 19.0002C25 17.2211 24.8045 15.4747 24.4336 14.1321C24.2478 13.4595 24.0284 12.9272 23.7949 12.551C23.5728 12.1933 23.3853 12.0508 23.2715 12.0002C23.2685 12.0005 23.2648 12.0017 23.2607 12.0022Z" fill="#0033C9"/>
<path d="M28.0517 24.1833C28.2266 23.6596 28.7926 23.3769 29.3164 23.5515L32.3164 24.5515C32.8403 24.7261 33.1237 25.2922 32.9492 25.8161C32.7746 26.34 32.2075 26.6236 31.6836 26.4489L28.6836 25.4489C28.1598 25.2741 27.8771 24.7071 28.0517 24.1833ZM33 18.6999C33.5523 18.6999 34 19.1476 34 19.6999C34 20.2522 33.5523 20.6999 33 20.6999H30C29.4477 20.6999 29 20.2522 29 19.6999C29 19.1476 29.4477 18.6999 30 18.6999H33ZM32.2256 13.0388C32.7566 12.887 33.3102 13.1942 33.4619 13.7253C33.6135 14.2562 33.3062 14.8097 32.7754 14.9616L29.2754 15.9616C28.7445 16.1133 28.191 15.8058 28.039 15.2751C27.8873 14.7441 28.1946 14.1905 28.7256 14.0388L32.2256 13.0388Z" fill="#00CF6A"/>
</g>
<defs>
<linearGradient id="paint0_linear_1_5625" x1="-2.81746e-08" y1="8.19672" x2="40.9761" y2="9.50848" gradientUnits="userSpaceOnUse">
<stop stop-color="#F0F6FF"/>
<stop offset="0.635417" stop-color="#E8F0FD"/>
<stop offset="1" stop-color="#EEF4FE"/>
</linearGradient>
<clipPath id="clip0_1_5625">
<rect width="40" height="40" fill="white"/>
</clipPath>
</defs>
</svg>
