<svg width="40" height="40" viewBox="0 0 40 40" fill="none" xmlns="http://www.w3.org/2000/svg">
<g clip-path="url(#clip0_1_5477)">
<path d="M39.2129 11.449C40.2624 17.0781 40.2624 22.8026 39.2129 28.5271C38.2588 33.9654 33.9654 38.2588 28.5271 39.2129C22.898 40.2624 17.1735 40.2624 11.449 39.2129C6.01073 38.2588 1.81276 34.0608 0.858676 28.6225C-0.286225 22.9934 -0.286225 17.1735 0.858676 11.449C1.81276 6.01073 6.01073 1.81276 11.449 0.858676C17.0781 -0.286225 22.898 -0.286225 28.6225 0.858676C34.0608 1.81276 38.2588 6.01073 39.2129 11.449Z" fill="white"/>
<path fill-rule="evenodd" clip-rule="evenodd" d="M38.2293 28.3468C39.2571 22.7405 39.2565 17.1393 38.2298 11.6323L39.2129 11.449C40.2624 17.0781 40.2624 22.8026 39.2129 28.5271L38.2293 28.3468ZM28.5271 39.2129C33.9654 38.2588 38.2588 33.9654 39.2129 28.5271L38.2279 28.3543C37.3466 33.3779 33.3779 37.3466 28.3543 38.2279L28.5271 39.2129ZM11.449 39.2129C17.1735 40.2624 22.898 40.2624 28.5271 39.2129L28.3438 38.2298C22.8369 39.2565 17.2356 39.2571 11.6293 38.2293L11.449 39.2129ZM28.6225 0.858676L28.4497 1.84363C33.4733 2.72496 37.3466 6.59823 38.2279 11.6218L39.2129 11.449C38.2588 6.01073 34.0608 1.81276 28.6225 0.858676ZM11.449 0.858676C17.0781 -0.286225 22.898 -0.286225 28.6225 0.858676L28.4264 1.83926C22.8303 0.720026 17.1448 0.720683 11.6483 1.83861L11.449 0.858676ZM0.858676 11.449C1.81276 6.01073 6.01073 1.81276 11.449 0.858676L11.6218 1.84363C6.59823 2.72496 2.72496 6.59823 1.84363 11.6218L0.858676 11.449ZM0.858676 11.449L1.83926 11.6451C0.720026 17.2413 0.720683 22.9267 1.83861 28.4232L0.858676 28.6225C-0.286225 22.9934 -0.286225 17.1735 0.858676 11.449ZM0.858676 28.6225C1.81276 34.0608 6.01073 38.2588 11.449 39.2129L11.6218 38.2279C6.59823 37.3466 2.72496 33.4733 1.84363 28.4497L0.858676 28.6225Z" fill="url(#paint0_linear_1_5477)"/>
<path d="M20.7324 15H24C24.5523 15 25 14.5523 25 14V12C25 10.8954 24.1046 10 23 10H21V14C21 14.3643 20.9026 14.7058 20.7324 15Z" fill="#00CF6A"/>
<path d="M20 9C20 7.89543 19.1046 7 18 7H13C11.8954 7 11 7.89543 11 9V14C11 14.5523 11.4477 15 12 15H19C19.5523 15 20 14.5523 20 14V9Z" fill="#00CF6A"/>
<path d="M12.5062 32.8857C13.0348 32.8857 13.4633 32.4572 13.4633 31.9286C13.4633 31.4 13.0348 30.9714 12.5062 30.9714C11.9775 30.9714 11.549 31.4 11.549 31.9286C11.549 32.4572 11.9775 32.8857 12.5062 32.8857Z" fill="#0033C9"/>
<path d="M24.9491 32.8857C25.4778 32.8857 25.9063 32.4572 25.9063 31.9286C25.9063 31.4 25.4778 30.9714 24.9491 30.9714C24.4205 30.9714 23.992 31.4 23.992 31.9286C23.992 32.4572 24.4205 32.8857 24.9491 32.8857Z" fill="#0033C9"/>
<path fill-rule="evenodd" clip-rule="evenodd" d="M32.6417 8.43555C30.4571 8.43555 28.5617 9.94341 28.0706 12.072L27.0719 16.4H11.9366C10.3964 16.4 9.01674 17.6735 9.19063 19.3469C9.4848 22.1778 10.3747 24.2718 11.1093 25.6327C11.5788 26.5024 12.3557 27.2779 13.4427 27.5701C14.5036 27.8553 16.2628 28.1429 19.0518 28.1429C21.8407 28.1429 23.5999 27.8553 24.6609 27.5701C25.7466 27.2782 26.5915 26.4751 26.9407 25.4083C27.2082 24.5911 27.4387 23.5402 27.7092 22.2857L27.7658 22.0226C27.9219 21.2976 28.0953 20.492 28.3004 19.5975C28.3807 19.4898 28.4405 19.3641 28.4727 19.2248L30.0194 12.5217C30.3011 11.3006 31.3885 10.4355 32.6417 10.4355H33.6486C34.2009 10.4355 34.6486 9.98783 34.6486 9.43555C34.6486 8.88326 34.2009 8.43555 33.6486 8.43555H32.6417ZM11.1799 19.1402C11.1431 18.7859 11.4382 18.4 11.9366 18.4H26.5258C26.2379 19.6168 26.009 20.6803 25.8113 21.5983L25.7541 21.8642C25.4769 23.1499 25.2683 24.0885 25.04 24.7861C24.9002 25.213 24.5736 25.5225 24.1416 25.6387C23.287 25.8684 21.7083 26.1429 19.0518 26.1429C16.3953 26.1429 14.8166 25.8684 13.962 25.6387C13.5312 25.5229 13.1464 25.1961 12.8693 24.6827C12.226 23.4909 11.4407 21.6494 11.1799 19.1402Z" fill="#0033C9"/>
<path fill-rule="evenodd" clip-rule="evenodd" d="M10.5488 31.9286C10.5488 30.8477 11.4251 29.9714 12.506 29.9714C13.5869 29.9714 14.4631 30.8477 14.4631 31.9286C14.4631 33.0095 13.5869 33.8857 12.506 33.8857C11.4251 33.8857 10.5488 33.0095 10.5488 31.9286ZM12.506 31.9714C12.5296 31.9714 12.5488 31.9522 12.5488 31.9286C12.5488 31.9049 12.5296 31.8857 12.506 31.8857C12.4823 31.8857 12.4631 31.9049 12.4631 31.9286C12.4631 31.9522 12.4823 31.9714 12.506 31.9714Z" fill="#0033C9"/>
<path fill-rule="evenodd" clip-rule="evenodd" d="M24.9493 29.9714C23.8684 29.9714 22.9922 30.8477 22.9922 31.9286C22.9922 33.0095 23.8684 33.8857 24.9493 33.8857C26.0302 33.8857 26.9065 33.0095 26.9065 31.9286C26.9065 30.8477 26.0302 29.9714 24.9493 29.9714ZM24.9922 31.9286C24.9922 31.9522 24.973 31.9714 24.9493 31.9714C24.9257 31.9714 24.9065 31.9522 24.9065 31.9286C24.9065 31.9049 24.9257 31.8857 24.9493 31.8857C24.973 31.8857 24.9922 31.9049 24.9922 31.9286Z" fill="#0033C9"/>
</g>
<defs>
<linearGradient id="paint0_linear_1_5477" x1="-2.81746e-08" y1="8.19672" x2="40.9761" y2="9.50848" gradientUnits="userSpaceOnUse">
<stop stop-color="#F0F6FF"/>
<stop offset="0.635417" stop-color="#E8F0FD"/>
<stop offset="1" stop-color="#EEF4FE"/>
</linearGradient>
<clipPath id="clip0_1_5477">
<rect width="40" height="40" fill="white"/>
</clipPath>
</defs>
</svg>
