<svg width="40" height="40" viewBox="0 0 40 40" fill="none" xmlns="http://www.w3.org/2000/svg">
<g clip-path="url(#clip0_1_5492)">
<path d="M39.2129 11.449V11.449C40.2624 17.0781 40.2624 22.8026 39.2129 28.5271V28.5271C38.2588 33.9654 33.9654 38.2588 28.5271 39.2129V39.2129C22.898 40.2624 17.1735 40.2624 11.449 39.2129V39.2129C6.01073 38.2588 1.81276 34.0608 0.858676 28.6225V28.6225C-0.286225 22.9934 -0.286225 17.1735 0.858676 11.449V11.449C1.81276 6.01073 6.01073 1.81276 11.449 0.858676V0.858676C17.0781 -0.286225 22.898 -0.286225 28.6225 0.858676V0.858676C34.0608 1.81276 38.2588 6.01073 39.2129 11.449Z" fill="white"/>
<path fill-rule="evenodd" clip-rule="evenodd" d="M38.2293 28.3468C39.2571 22.7405 39.2565 17.1393 38.2298 11.6323L39.2129 11.449C40.2624 17.0781 40.2624 22.8026 39.2129 28.5271L38.2293 28.3468ZM28.5271 39.2129C33.9654 38.2588 38.2588 33.9654 39.2129 28.5271L38.2279 28.3543C37.3466 33.3779 33.3779 37.3466 28.3543 38.2279L28.5271 39.2129ZM11.449 39.2129C17.1735 40.2624 22.898 40.2624 28.5271 39.2129L28.3438 38.2298C22.8369 39.2565 17.2356 39.2571 11.6293 38.2293L11.449 39.2129ZM28.6225 0.858676L28.4497 1.84363C33.4733 2.72496 37.3466 6.59823 38.2279 11.6218L39.2129 11.449C38.2588 6.01073 34.0608 1.81276 28.6225 0.858676ZM11.449 0.858676C17.0781 -0.286225 22.898 -0.286225 28.6225 0.858676L28.4264 1.83926C22.8303 0.720026 17.1448 0.720683 11.6483 1.83861L11.449 0.858676ZM0.858676 11.449C1.81276 6.01073 6.01073 1.81276 11.449 0.858676L11.6218 1.84363C6.59823 2.72496 2.72496 6.59823 1.84363 11.6218L0.858676 11.449ZM0.858676 11.449L1.83926 11.6451C0.720026 17.2413 0.720683 22.9267 1.83861 28.4232L0.858676 28.6225C-0.286225 22.9934 -0.286225 17.1735 0.858676 11.449ZM0.858676 28.6225C1.81276 34.0608 6.01073 38.2588 11.449 39.2129L11.6218 38.2279C6.59823 37.3466 2.72496 33.4733 1.84363 28.4497L0.858676 28.6225Z" fill="#EEF4FE"/>
<path d="M16.666 28.3332V32.4998C16.666 32.4998 18.9367 32.9165 20.416 32.9165C21.8953 32.9165 24.166 32.4998 24.166 32.4998V28.3332C24.166 27.4127 23.4198 26.6665 22.4993 26.6665H18.3327C17.4122 26.6665 16.666 27.4127 16.666 28.3332Z" fill="#00CF6A"/>
<path d="M30.2657 24.8337C30.8175 24.8112 31.2832 25.2409 31.3058 25.7927C31.3533 26.9545 31.21 28.4473 30.5899 29.7937C29.9546 31.1732 28.8104 32.4039 26.9268 32.8953C26.2089 33.0825 25.465 33.2244 24.714 33.3328C24.6048 33.4046 24.4819 33.4583 24.3468 33.4832L24.338 33.4851L24.3175 33.489L24.2384 33.5027C24.1706 33.5146 24.0727 33.5314 23.9513 33.5515C23.7087 33.5917 23.3693 33.6454 22.9825 33.699C22.2215 33.8043 21.2278 33.9167 20.4161 33.9167C19.6045 33.9167 18.6108 33.8043 17.8497 33.699C17.4629 33.6454 17.1235 33.5917 16.8809 33.5515C16.7595 33.5314 16.6616 33.5146 16.5938 33.5027L16.5147 33.489L16.4942 33.4851L16.4854 33.4832C16.3546 33.4591 16.2346 33.4089 16.128 33.3406C15.3591 33.2314 14.5972 33.0869 13.8624 32.8953C11.9788 32.4039 10.8346 31.1732 10.1993 29.7937C9.57927 28.4473 9.43597 26.9545 9.48349 25.7927C9.50607 25.2409 9.9717 24.8112 10.5235 24.8337C11.0752 24.8565 11.5041 25.3231 11.4815 25.8748C11.4421 26.8398 11.5704 27.9907 12.0157 28.9578C12.4459 29.8917 13.1613 30.6451 14.3673 30.9597C14.7896 31.0699 15.2245 31.1616 15.6661 31.241V28.3337C15.6661 26.861 16.8603 25.6667 18.3331 25.6667H22.4991C23.9719 25.6667 25.1661 26.861 25.1661 28.3337V31.2332C25.593 31.1554 26.0133 31.0663 26.422 30.9597C27.6279 30.6451 28.3433 29.8917 28.7735 28.9578C29.2189 27.9907 29.3471 26.8398 29.3077 25.8748C29.2851 25.3231 29.7141 24.8565 30.2657 24.8337ZM18.3331 27.6667C17.9649 27.6667 17.6661 27.9655 17.6661 28.3337V31.4529C18.4903 31.5383 19.418 31.5943 20.3946 31.6042C21.3882 31.5942 22.3312 31.5369 23.1661 31.449V28.3337C23.1661 27.9656 22.8673 27.6667 22.4991 27.6667H18.3331ZM26.6817 6.38647C28.1036 6.38647 29.5016 7.06493 30.2618 8.37378C31.3178 10.192 32.6778 12.8936 33.4239 14.7156C33.468 14.8233 33.4906 14.9347 33.4962 15.0447C33.6645 15.5038 33.8088 15.9462 33.92 16.3601C34.1187 17.0997 34.2538 17.8869 34.1358 18.5378C33.947 20.0334 33.2073 21.1541 32.1778 21.8933C31.1645 22.6209 29.9159 22.949 28.714 22.991C27.5107 23.0329 26.279 22.7907 25.254 22.2927C24.8194 22.0816 24.4015 21.814 24.0382 21.4871C23.4898 22.1571 22.7744 22.6001 22.003 22.8591C21.8914 22.9396 21.7618 22.9989 21.6183 23.0281C21.1974 23.1135 20.7485 23.1548 20.2921 23.1462C19.8357 23.1548 19.3867 23.1135 18.9659 23.0281C18.8221 22.9989 18.6919 22.9398 18.5802 22.8591C17.8091 22.6001 17.0942 22.1568 16.546 21.4871C16.1827 21.814 15.7648 22.0816 15.3302 22.2927C14.3051 22.7907 13.0735 23.0329 11.8702 22.991C10.6682 22.949 9.41965 22.6209 8.40634 21.8933C7.37687 21.1541 6.63715 20.0334 6.44833 18.5378C6.33033 17.8869 6.46551 17.0997 6.66415 16.3601C6.87796 15.5642 7.21182 14.6628 7.60946 13.74C8.4054 11.893 9.49337 9.87293 10.5089 8.28589C11.3083 7.03651 12.6938 6.38659 14.0968 6.38647H26.6817ZM14.0968 8.38647C13.2936 8.38659 12.5831 8.75514 12.1934 9.36401C11.2333 10.8645 10.1973 12.7886 9.44638 14.531C9.07066 15.4029 8.7759 16.2082 8.59579 16.8787C8.40488 17.5894 8.38279 18.0106 8.41806 18.1873C8.42315 18.2127 8.42668 18.2386 8.42978 18.2644C8.54277 19.2059 8.97847 19.8412 9.57333 20.2683C10.1924 20.7127 11.0306 20.9612 11.9395 20.9929C12.8472 21.0246 13.7508 20.8366 14.4561 20.4939C15.1726 20.1458 15.5767 19.6963 15.712 19.2634C15.8441 18.8407 16.2389 18.5556 16.6817 18.5623C17.1244 18.5689 17.5104 18.8655 17.63 19.2917C17.9707 20.5087 19.0388 21.131 20.2921 21.1541C21.5453 21.131 22.6135 20.5087 22.9542 19.2917C23.0737 18.8655 23.4597 18.5689 23.9024 18.5623C24.3453 18.5556 24.74 18.8407 24.8722 19.2634C25.0074 19.6963 25.4115 20.1458 26.128 20.4939C26.8334 20.8366 27.737 21.0246 28.6446 20.9929C29.5535 20.9612 30.3918 20.7127 31.0108 20.2683C31.6057 19.8412 32.0414 19.2059 32.1544 18.2644C32.1575 18.2386 32.161 18.2127 32.1661 18.1873C32.2014 18.0106 32.1793 17.5894 31.9884 16.8787C31.8083 16.2082 31.5135 15.4029 31.1378 14.531C30.3869 12.7886 29.3508 10.8645 28.3907 9.36401C28.0255 8.79318 27.3781 8.43318 26.6368 8.39038L26.4874 8.38647H14.0968ZM23.0558 11.0583C23.608 11.0583 24.0558 11.5061 24.0558 12.0583C24.0556 12.6105 23.608 13.0583 23.0558 13.0583H18.1505C17.5983 13.0583 17.1506 12.6105 17.1505 12.0583C17.1505 11.5061 17.5982 11.0583 18.1505 11.0583H23.0558Z" fill="#0033C9"/>
</g>
<defs>
<clipPath id="clip0_1_5492">
<rect width="40" height="40" fill="white"/>
</clipPath>
</defs>
</svg>
