<svg width="40" height="40" viewBox="0 0 40 40" fill="none" xmlns="http://www.w3.org/2000/svg">
<g clip-path="url(#clip0_1_5590)">
<rect width="40" height="40" fill="white"/>
<path d="M39.2129 11.449C40.2624 17.0781 40.2624 22.8026 39.2129 28.5271C38.2588 33.9654 33.9654 38.2588 28.5271 39.2129C22.898 40.2624 17.1735 40.2624 11.449 39.2129C6.01073 38.2588 1.81276 34.0608 0.858676 28.6225C-0.286225 22.9934 -0.286225 17.1735 0.858676 11.449C1.81276 6.01073 6.01073 1.81276 11.449 0.858676C17.0781 -0.286225 22.898 -0.286225 28.6225 0.858676C34.0608 1.81276 38.2588 6.01073 39.2129 11.449Z" fill="white"/>
<path fill-rule="evenodd" clip-rule="evenodd" d="M38.2293 28.3468C39.2571 22.7405 39.2565 17.1393 38.2298 11.6323L39.2129 11.449C40.2624 17.0781 40.2624 22.8026 39.2129 28.5271L38.2293 28.3468ZM28.5271 39.2129C33.9654 38.2588 38.2588 33.9654 39.2129 28.5271L38.2279 28.3543C37.3466 33.3779 33.3779 37.3466 28.3543 38.2279L28.5271 39.2129ZM11.449 39.2129C17.1735 40.2624 22.898 40.2624 28.5271 39.2129L28.3438 38.2298C22.8369 39.2565 17.2356 39.2571 11.6293 38.2293L11.449 39.2129ZM28.6225 0.858676L28.4497 1.84363C33.4733 2.72496 37.3466 6.59823 38.2279 11.6218L39.2129 11.449C38.2588 6.01073 34.0608 1.81276 28.6225 0.858676ZM11.449 0.858676C17.0781 -0.286225 22.898 -0.286225 28.6225 0.858676L28.4264 1.83926C22.8303 0.720026 17.1448 0.720683 11.6483 1.83861L11.449 0.858676ZM0.858676 11.449C1.81276 6.01073 6.01073 1.81276 11.449 0.858676L11.6218 1.84363C6.59823 2.72496 2.72496 6.59823 1.84363 11.6218L0.858676 11.449ZM0.858676 11.449L1.83926 11.6451C0.720026 17.2413 0.720683 22.9267 1.83861 28.4232L0.858676 28.6225C-0.286225 22.9934 -0.286225 17.1735 0.858676 11.449ZM0.858676 28.6225C1.81276 34.0608 6.01073 38.2588 11.449 39.2129L11.6218 38.2279C6.59823 37.3466 2.72496 33.4733 1.84363 28.4497L0.858676 28.6225Z" fill="url(#paint0_linear_1_5590)"/>
<path fill-rule="evenodd" clip-rule="evenodd" d="M23.0565 24C22.7789 24 22.4953 24.0228 22.1917 24.0552C22.1611 24.0584 22.1272 24.0732 22.0981 24.1023C22.0691 24.1314 22.0553 24.1643 22.0523 24.1934C22.0215 24.4946 22 24.7782 22 25.0565C22 25.3349 22.0215 25.6185 22.0523 25.9197C22.0553 25.9487 22.0691 25.9817 22.0981 26.0108C22.1272 26.0399 22.1611 26.0546 22.1917 26.0579C22.4953 26.0903 22.7789 26.1131 23.0565 26.1131C23.3342 26.1131 23.6178 26.0903 23.9214 26.0579C23.952 26.0546 23.9858 26.0399 24.0149 26.0108C24.0439 25.9817 24.0578 25.9487 24.0608 25.9197C24.0915 25.6185 24.1131 25.3349 24.1131 25.0565C24.1131 24.7782 24.0915 24.4946 24.0608 24.1934C24.0578 24.1643 24.0439 24.1314 24.0149 24.1023C23.9858 24.0732 23.952 24.0584 23.9214 24.0552C23.6178 24.0228 23.3342 24 23.0565 24ZM21.9794 22.0665C22.3096 22.0312 22.6744 22 23.0565 22C23.4387 22 23.8035 22.0312 24.1336 22.0665C25.1397 22.1738 25.9472 22.9794 26.0504 23.9902C26.084 24.3188 26.1131 24.6794 26.1131 25.0565C26.1131 25.4337 26.084 25.7943 26.0504 26.1229C25.9472 27.1336 25.1397 27.9392 24.1336 28.0466C23.8035 28.0818 23.4387 28.1131 23.0565 28.1131C22.6744 28.1131 22.3096 28.0818 21.9794 28.0466C20.9734 27.9392 20.1658 27.1336 20.0626 26.1229C20.0291 25.7943 20 25.4337 20 25.0565C20 24.6794 20.0291 24.3188 20.0626 23.9902C20.1658 22.9794 20.9734 22.1738 21.9794 22.0665Z" fill="#00CF6A"/>
<path fill-rule="evenodd" clip-rule="evenodd" d="M21.375 29C21.9273 29 22.375 29.4477 22.375 30L22.375 31.3834L23.056 31.3834C23.6083 31.3834 24.056 31.8311 24.056 32.3834C24.056 32.9357 23.6083 33.3834 23.056 33.3834L21.375 33.3834C20.8227 33.3834 20.375 32.9357 20.375 32.3834L20.375 30C20.375 29.4477 20.8227 29 21.375 29Z" fill="#00CF6A"/>
<path fill-rule="evenodd" clip-rule="evenodd" d="M30.3379 33.3833C29.7856 33.3833 29.3379 32.9356 29.3379 32.3833L29.3379 31.6708L28.6569 31.6708C28.1046 31.6708 27.6569 31.2231 27.6569 30.6708C27.6569 30.1185 28.1046 29.6708 28.6569 29.6708L30.3379 29.6708C30.8902 29.6708 31.3379 30.1185 31.3379 30.6708L31.3379 32.3833C31.3379 32.9356 30.8902 33.3833 30.3379 33.3833Z" fill="#00CF6A"/>
<path fill-rule="evenodd" clip-rule="evenodd" d="M31.3672 28C31.3672 28.5523 30.9195 29 30.3672 29L28.6862 29C28.1339 29 27.6862 28.5523 27.6862 28C27.6862 27.4477 28.1339 27 28.6862 27L30.3672 27C30.9195 27 31.3672 27.4477 31.3672 28Z" fill="#00CF6A"/>
<path fill-rule="evenodd" clip-rule="evenodd" d="M26.1191 33.3677C25.5669 33.3677 25.1191 32.92 25.1191 32.3677L25.1191 29.9999C25.1191 29.4476 25.5669 28.9999 26.1191 28.9999C26.6714 28.9999 27.1191 29.4476 27.1191 29.9999L27.1191 32.3677C27.1191 32.92 26.6714 33.3677 26.1191 33.3677Z" fill="#00CF6A"/>
<path fill-rule="evenodd" clip-rule="evenodd" d="M30.3359 26.0564C29.7837 26.0564 29.3359 25.6087 29.3359 25.0564L29.3359 24.3439L28 24.3439C27.4477 24.3439 27 23.8962 27 23.3439C27 22.7916 27.4477 22.3439 28 22.3439L30.3359 22.3439C30.6012 22.3439 30.8555 22.4492 31.043 22.6368C31.2306 22.8243 31.3359 23.0787 31.3359 23.3439L31.3359 25.0564C31.3359 25.6087 30.8882 26.0564 30.3359 26.0564Z" fill="#00CF6A"/>
<path fill-rule="evenodd" clip-rule="evenodd" d="M12.7416 8.00197C12.0957 8.00197 11.5349 8.29784 11.2301 8.77413C10.4104 10.0552 9.52508 11.699 8.88412 13.1864C8.56336 13.9308 8.31312 14.6145 8.16105 15.1807C7.99808 15.7873 7.98714 16.1211 8.01048 16.2379C8.01559 16.2634 8.0197 16.2891 8.0228 16.3149C8.11479 17.0815 8.46592 17.5907 8.94436 17.9343C9.44704 18.2952 10.1369 18.5021 10.8956 18.5286C11.653 18.555 12.4046 18.3982 12.9867 18.1154C13.58 17.8272 13.8895 17.4669 13.9897 17.1463C14.1221 16.7227 14.5173 16.4367 14.961 16.4433C15.4048 16.4499 15.7913 16.7477 15.9109 17.175C16.1802 18.1365 17.0278 18.6503 18.0566 18.669C19.0855 18.6503 19.9331 18.1365 20.2024 17.175C20.322 16.7477 20.7085 16.4499 21.1522 16.4433C21.596 16.4367 21.9912 16.7227 22.1236 17.1463C22.2237 17.4669 22.5333 17.8272 23.1265 18.1154C23.7087 18.3982 24.4603 18.555 25.2177 18.5286C25.9764 18.5021 26.6662 18.2952 27.1689 17.9343C27.6474 17.5907 27.9985 17.0815 28.0905 16.3149C28.0936 16.2891 28.0977 16.2634 28.1028 16.2379C28.1261 16.1211 28.1152 15.7873 27.9522 15.1807C27.8002 14.6145 27.5499 13.9308 27.2292 13.1864C26.5882 11.699 25.7029 10.0552 24.8831 8.77413C24.5784 8.29784 24.0176 8.00197 23.3717 8.00197H17.9663H12.7416ZM17.9663 5.99805H12.7416C11.4948 5.99805 10.2576 6.57599 9.54221 7.69405C8.66702 9.0618 7.72988 10.8013 7.0438 12.3934C6.70104 13.1888 6.41161 13.9688 6.22574 14.6608C6.05484 15.297 5.93135 15.9972 6.03745 16.5886C6.20537 17.9105 6.86159 18.9058 7.77556 19.562C7.84038 19.6086 7.90626 19.6533 7.9731 19.6961C7.7544 21.9243 7.8525 24.1424 8.35633 25.9475C8.87265 27.7974 9.90503 29.4872 11.7466 29.9676C12.7594 30.2318 14.931 30.7824 18.0539 30.7824C18.6062 30.7824 19.0539 30.3347 19.0539 29.7824C19.0539 29.2301 18.6062 28.7824 18.0539 28.7824C15.1768 28.7824 13.1934 28.2781 12.2514 28.0323C11.4476 27.8226 10.73 27.0124 10.2827 25.4098C9.90179 24.0451 9.78153 22.2993 9.91701 20.4357C10.2199 20.4898 10.5248 20.5208 10.8258 20.5313C11.8794 20.5681 12.9599 20.3564 13.8624 19.9179C14.2011 19.7534 14.5305 19.5484 14.8265 19.301C15.2963 19.8305 15.8877 20.1876 16.5213 20.4032C16.6294 20.4778 16.7539 20.5322 16.8907 20.5599C17.2592 20.6348 17.6541 20.672 18.0566 20.6645C18.4592 20.672 18.8541 20.6348 19.2226 20.5599C19.3593 20.5322 19.4839 20.4778 19.5919 20.4032C20.2256 20.1876 20.8169 19.8305 21.2868 19.301C21.5828 19.5484 21.9122 19.7534 22.2509 19.9179C23.1534 20.3564 24.2339 20.5681 25.2875 20.5313C26.3398 20.4946 27.44 20.2066 28.3377 19.562C29.2517 18.9058 29.9079 17.9105 30.0758 16.5886C30.1819 15.9972 30.0584 15.297 29.8875 14.6608C29.7924 14.3067 29.6702 13.9295 29.5275 13.539C29.5199 13.4365 29.4963 13.3335 29.4553 13.2332C28.8123 11.663 27.6424 9.33911 26.7337 7.77457C26.0525 6.60176 24.8024 5.99805 23.5381 5.99805H23.3717H17.9663ZM16.2168 10.0059C15.6634 10.0059 15.2148 10.4545 15.2148 11.0078C15.2148 11.5612 15.6634 12.0098 16.2168 12.0098H20.425C20.9784 12.0098 21.427 11.5612 21.427 11.0078C21.427 10.4545 20.9784 10.0059 20.425 10.0059H16.2168Z" fill="#0033C9"/>
</g>
<defs>
<linearGradient id="paint0_linear_1_5590" x1="-2.81746e-08" y1="8.19672" x2="40.9761" y2="9.50848" gradientUnits="userSpaceOnUse">
<stop stop-color="#F0F6FF"/>
<stop offset="0.635417" stop-color="#E8F0FD"/>
<stop offset="1" stop-color="#EEF4FE"/>
</linearGradient>
<clipPath id="clip0_1_5590">
<rect width="40" height="40" fill="white"/>
</clipPath>
</defs>
</svg>
