<svg width="40" height="40" viewBox="0 0 40 40" fill="none" xmlns="http://www.w3.org/2000/svg">
<g clip-path="url(#clip0_1_5562)">
<rect width="40" height="40" fill="white"/>
<g clip-path="url(#clip1_1_5562)">
<path d="M39.2129 11.449C40.2624 17.0781 40.2624 22.8026 39.2129 28.5271C38.2588 33.9654 33.9654 38.2588 28.5271 39.2129C22.898 40.2624 17.1735 40.2624 11.449 39.2129C6.01073 38.2588 1.81276 34.0608 0.858676 28.6225C-0.286225 22.9934 -0.286225 17.1735 0.858676 11.449C1.81276 6.01073 6.01073 1.81276 11.449 0.858676C17.0781 -0.286225 22.898 -0.286225 28.6225 0.858676C34.0608 1.81276 38.2588 6.01073 39.2129 11.449Z" fill="white"/>
<path fill-rule="evenodd" clip-rule="evenodd" d="M38.2293 28.3468C39.2571 22.7405 39.2565 17.1393 38.2298 11.6323L39.2129 11.449C40.2624 17.0781 40.2624 22.8026 39.2129 28.5271L38.2293 28.3468ZM28.5271 39.2129C33.9654 38.2588 38.2588 33.9654 39.2129 28.5271L38.2279 28.3543C37.3466 33.3779 33.3779 37.3466 28.3543 38.2279L28.5271 39.2129ZM11.449 39.2129C17.1735 40.2624 22.898 40.2624 28.5271 39.2129L28.3438 38.2298C22.8369 39.2565 17.2356 39.2571 11.6293 38.2293L11.449 39.2129ZM28.6225 0.858676L28.4497 1.84363C33.4733 2.72496 37.3466 6.59823 38.2279 11.6218L39.2129 11.449C38.2588 6.01073 34.0608 1.81276 28.6225 0.858676ZM11.449 0.858676C17.0781 -0.286225 22.898 -0.286225 28.6225 0.858676L28.4264 1.83926C22.8303 0.720026 17.1448 0.720683 11.6483 1.83861L11.449 0.858676ZM0.858676 11.449C1.81276 6.01073 6.01073 1.81276 11.449 0.858676L11.6218 1.84363C6.59823 2.72496 2.72496 6.59823 1.84363 11.6218L0.858676 11.449ZM0.858676 11.449L1.83926 11.6451C0.720026 17.2413 0.720683 22.9267 1.83861 28.4232L0.858676 28.6225C-0.286225 22.9934 -0.286225 17.1735 0.858676 11.449ZM0.858676 28.6225C1.81276 34.0608 6.01073 38.2588 11.449 39.2129L11.6218 38.2279C6.59823 37.3466 2.72496 33.4733 1.84363 28.4497L0.858676 28.6225Z" fill="url(#paint0_linear_1_5562)"/>
</g>
<path fill-rule="evenodd" clip-rule="evenodd" d="M11.6525 26.418C12.2048 26.417 12.6533 26.8639 12.6543 27.4162L12.6599 30.4353C12.792 31.4417 13.6531 32.1956 15.22 32.2217C20.5484 32.3102 24.2162 31.9103 29.3956 30.693L29.3957 30.693C30.1976 30.5046 30.7572 30.1626 31.092 29.7731C31.4129 29.3997 31.5733 28.9331 31.5109 28.3546L31.3834 27.1715C30.9293 26.9536 30.5188 26.6575 30.1728 26.2973C29.7902 25.899 29.8029 25.266 30.2011 24.8834C30.5994 24.5008 31.2324 24.5135 31.6151 24.9118C31.8749 25.1822 32.2117 25.3887 32.5934 25.5004C32.9817 25.6141 33.2633 25.9506 33.3067 26.3529L33.4994 28.1402C33.62 29.2588 33.296 30.2771 32.6088 31.0767C31.9354 31.8601 30.9632 32.3792 29.8531 32.64C24.5143 33.8947 20.6818 34.3127 15.1868 34.2214L15.1868 34.2214C12.9593 34.1843 10.9207 32.9665 10.6658 30.6024C10.662 30.5674 10.6601 30.5322 10.66 30.497L10.6544 27.4198C10.6533 26.8676 11.1002 26.419 11.6525 26.418Z" fill="#0033C9"/>
<path fill-rule="evenodd" clip-rule="evenodd" d="M21.9844 8.53032C16.85 10.6459 13.4567 12.4604 9.23246 15.8883C8.5726 16.4238 8.16682 16.9945 7.9956 17.5159C7.8334 18.0098 7.86554 18.4959 8.14809 18.9853L8.75113 20.0298C10.1515 20.0629 11.506 20.7635 12.2551 22.0611C13.0043 23.3587 12.9338 24.8819 12.2622 26.1112L12.8653 27.1557C13.3858 28.0574 14.5205 28.4309 16.0554 27.7789C21.1351 25.6212 24.4436 23.7059 28.847 20.3936L28.847 20.3936C29.5335 19.8772 29.9261 19.3188 30.0844 18.8116C30.2358 18.3264 30.1948 17.8272 29.9018 17.3196L29.2987 16.2751C27.8985 16.2419 26.5441 15.5413 25.795 14.2438C25.0459 12.9463 25.1164 11.4231 25.7878 10.1939L25.1847 9.14927C24.6758 8.26794 23.4554 7.92418 21.9844 8.53032ZM21.209 6.64867L21.5955 7.58661L21.209 6.64866C23.1764 5.83804 25.7191 6.00476 26.9471 8.1317L27.8618 9.71589C28.0688 10.0744 28.0379 10.5227 27.7837 10.8495C27.2234 11.5698 27.139 12.5014 27.5575 13.2262C27.976 13.9511 28.825 14.3438 29.729 14.2187C30.1391 14.162 30.5427 14.3594 30.7497 14.7179L31.6643 16.3021C32.2397 17.2987 32.3489 18.3864 32.0272 19.4177C31.7123 20.4269 31.0085 21.3144 30.0703 22.02C25.5361 25.4307 22.0841 27.4292 16.8511 29.6521C14.7471 30.5457 12.3191 30.28 11.1028 28.1733L10.1882 26.5892C9.98118 26.2306 10.0121 25.7823 10.2663 25.4555C10.8268 24.7352 10.9112 23.8035 10.4927 23.0786C10.0742 22.3538 9.22506 21.961 8.32102 22.0862C7.91088 22.143 7.50723 21.9456 7.30021 21.587L6.38562 20.0029C5.79976 18.9882 5.72801 17.8981 6.06207 16.8809C6.3871 15.8911 7.07774 15.0159 7.95009 14.308L7.95009 14.308C12.3668 10.7239 15.945 8.81769 21.209 6.64867Z" fill="#0033C9"/>
<path d="M21.8454 14.7818L21.1245 17.2267C21.0985 17.2836 21.0863 17.3458 21.0888 17.4083C21.0913 17.4708 21.1084 17.5319 21.1389 17.5866L22.7474 19.5684C22.7937 19.6251 22.823 19.6937 22.832 19.7663C22.841 19.8389 22.8294 19.9126 22.7985 19.9789C22.7676 20.0452 22.7186 20.1014 22.6572 20.1412C22.5958 20.181 22.5244 20.2026 22.4513 20.2037L19.9028 20.3053C19.8404 20.3096 19.7798 20.3279 19.7254 20.3587C19.671 20.3895 19.6241 20.4321 19.5884 20.4834L18.2497 22.5827C18.2104 22.6441 18.1547 22.6932 18.0889 22.7245C18.0231 22.7558 17.9498 22.768 17.8774 22.7597C17.805 22.7514 17.7364 22.723 17.6794 22.6777C17.6223 22.6323 17.5792 22.5719 17.5548 22.5033L16.6991 20.1017C16.6794 20.0423 16.645 19.9889 16.599 19.9464C16.553 19.9039 16.4969 19.8738 16.4361 19.8589L13.9741 19.1971C13.9038 19.1783 13.8401 19.14 13.7904 19.0868C13.7406 19.0336 13.7068 18.9674 13.6928 18.8959C13.6788 18.8244 13.6851 18.7504 13.7111 18.6823C13.737 18.6143 13.7816 18.5548 13.8396 18.5108L15.8627 16.959C15.9109 16.9193 15.9497 16.8692 15.9761 16.8125C16.0025 16.7559 16.0159 16.694 16.0152 16.6314L15.9136 14.083C15.9137 14.0159 15.931 13.95 15.964 13.8916C15.997 13.8333 16.0445 13.7844 16.1019 13.7498C16.1593 13.7152 16.2247 13.696 16.2917 13.694C16.3588 13.6921 16.4251 13.7075 16.4845 13.7387L18.588 15.1844C18.6413 15.2184 18.7019 15.2392 18.7648 15.2451C18.8277 15.2511 18.8911 15.242 18.9498 15.2187L21.3296 14.3055C21.3978 14.2784 21.4723 14.2712 21.5444 14.2846C21.6166 14.298 21.6835 14.3315 21.7374 14.3813C21.7913 14.4311 21.8301 14.4951 21.8492 14.566C21.8683 14.6368 21.867 14.7116 21.8454 14.7818Z" fill="#00CF6A"/>
<path fill-rule="evenodd" clip-rule="evenodd" d="M16.6325 14.6818L16.7091 16.6037C16.7094 16.6105 16.7096 16.6173 16.7096 16.6241C16.7114 16.7903 16.6758 16.9547 16.6057 17.1054C16.5355 17.256 16.4325 17.389 16.3042 17.4946C16.2981 17.4997 16.2919 17.5046 16.2856 17.5094L14.7503 18.6871L16.6114 19.1874C16.7827 19.231 16.9404 19.3167 17.0703 19.4366C17.2002 19.5566 17.2981 19.707 17.3552 19.8742L18.0002 21.6845L19.0041 20.1103C19.0092 20.1023 19.0145 20.0944 19.02 20.0865C19.115 19.9502 19.2394 19.8369 19.384 19.755C19.5286 19.6731 19.6897 19.6246 19.8555 19.6131C19.8622 19.6126 19.869 19.6123 19.8758 19.612L21.8269 19.5342L20.6009 18.0237C20.5755 17.9925 20.5529 17.9591 20.5334 17.924C20.45 17.7743 20.4031 17.6071 20.3962 17.4359C20.3902 17.2851 20.4155 17.135 20.4702 16.9949L21.0076 15.1723L19.202 15.8653C19.0425 15.9278 18.8706 15.9519 18.7 15.9358C18.5278 15.9194 18.3619 15.8625 18.2159 15.7695C18.2091 15.7652 18.2024 15.7607 18.1957 15.7561L16.6325 14.6818ZM22.2103 20.0066C22.21 20.0062 22.2097 20.0059 22.2094 20.0055L22.2103 20.0066ZM14.1544 18.5269C14.1546 18.527 14.1547 18.527 14.1549 18.5271ZM16.2723 13.0005C16.4587 12.995 16.6434 13.0379 16.8084 13.1248C16.8324 13.1374 16.8557 13.1515 16.8781 13.1669L18.8425 14.517L21.0789 13.6588C21.2674 13.5849 21.4729 13.5654 21.6719 13.6024C21.8726 13.6398 22.0587 13.733 22.2087 13.8715C22.3587 14.01 22.4665 14.1881 22.5197 14.3852C22.5724 14.5807 22.5693 14.787 22.5107 14.9808L21.8199 17.3238L23.2859 19.13C23.2861 19.1303 23.2863 19.1305 23.2865 19.1307C23.4147 19.2884 23.496 19.4789 23.5211 19.6806C23.5463 19.8825 23.514 20.0875 23.428 20.2719C23.342 20.4564 23.2058 20.6129 23.0349 20.7235C22.8672 20.8321 22.6727 20.8922 22.473 20.8971L20.0874 20.9922L18.8347 22.9566C18.7254 23.1273 18.5705 23.264 18.3875 23.351C18.2044 23.438 18.0006 23.472 17.7993 23.4489C17.5979 23.4259 17.407 23.3468 17.2484 23.2207C17.0898 23.0947 16.9698 22.9268 16.9019 22.736C16.9019 22.7359 16.9018 22.7358 16.9018 22.7357C16.9018 22.7357 16.9018 22.7358 16.9018 22.7357L16.1005 20.4869L13.7952 19.8672C13.795 19.8672 13.7949 19.8671 13.7947 19.8671C13.5991 19.8146 13.4222 19.7083 13.284 19.5603C13.1456 19.4122 13.0516 19.2282 13.0127 19.0293C12.9737 18.8304 12.9913 18.6246 13.0635 18.4352C13.1354 18.2465 13.2586 18.0817 13.4192 17.9593L15.3165 16.504L15.2211 14.1105C15.2207 14.1012 15.2205 14.0918 15.2205 14.0824C15.2206 13.8959 15.2689 13.7126 15.3607 13.5502C15.4525 13.3879 15.5846 13.2519 15.7443 13.1556C15.904 13.0593 16.0859 13.0059 16.2723 13.0005Z" fill="#00CF6A"/>
</g>
<defs>
<linearGradient id="paint0_linear_1_5562" x1="-2.81746e-08" y1="8.19672" x2="40.9761" y2="9.50848" gradientUnits="userSpaceOnUse">
<stop stop-color="#F0F6FF"/>
<stop offset="0.635417" stop-color="#E8F0FD"/>
<stop offset="1" stop-color="#EEF4FE"/>
</linearGradient>
<clipPath id="clip0_1_5562">
<rect width="40" height="40" fill="white"/>
</clipPath>
<clipPath id="clip1_1_5562">
<rect width="40" height="40" fill="white"/>
</clipPath>
</defs>
</svg>
