<svg width="40" height="40" viewBox="0 0 40 40" fill="none" xmlns="http://www.w3.org/2000/svg">
<g clip-path="url(#clip0_1_5578)">
<rect width="40" height="40" fill="white"/>
<path d="M39.2129 11.449C40.2624 17.0781 40.2624 22.8026 39.2129 28.5271C38.2588 33.9654 33.9654 38.2588 28.5271 39.2129C22.898 40.2624 17.1735 40.2624 11.449 39.2129C6.01073 38.2588 1.81276 34.0608 0.858676 28.6225C-0.286225 22.9934 -0.286225 17.1735 0.858676 11.449C1.81276 6.01073 6.01073 1.81276 11.449 0.858676C17.0781 -0.286225 22.898 -0.286225 28.6225 0.858676C34.0608 1.81276 38.2588 6.01073 39.2129 11.449Z" fill="white"/>
<path fill-rule="evenodd" clip-rule="evenodd" d="M38.2293 28.3468C39.2571 22.7405 39.2565 17.1393 38.2298 11.6323L39.2129 11.449C40.2624 17.0781 40.2624 22.8026 39.2129 28.5271L38.2293 28.3468ZM28.5271 39.2129C33.9654 38.2588 38.2588 33.9654 39.2129 28.5271L38.2279 28.3543C37.3466 33.3779 33.3779 37.3466 28.3543 38.2279L28.5271 39.2129ZM11.449 39.2129C17.1735 40.2624 22.898 40.2624 28.5271 39.2129L28.3438 38.2298C22.8369 39.2565 17.2356 39.2571 11.6293 38.2293L11.449 39.2129ZM28.6225 0.858676L28.4497 1.84363C33.4733 2.72496 37.3466 6.59823 38.2279 11.6218L39.2129 11.449C38.2588 6.01073 34.0608 1.81276 28.6225 0.858676ZM11.449 0.858676C17.0781 -0.286225 22.898 -0.286225 28.6225 0.858676L28.4264 1.83926C22.8303 0.720026 17.1448 0.720683 11.6483 1.83861L11.449 0.858676ZM0.858676 11.449C1.81276 6.01073 6.01073 1.81276 11.449 0.858676L11.6218 1.84363C6.59823 2.72496 2.72496 6.59823 1.84363 11.6218L0.858676 11.449ZM0.858676 11.449L1.83926 11.6451C0.720026 17.2413 0.720683 22.9267 1.83861 28.4232L0.858676 28.6225C-0.286225 22.9934 -0.286225 17.1735 0.858676 11.449ZM0.858676 28.6225C1.81276 34.0608 6.01073 38.2588 11.449 39.2129L11.6218 38.2279C6.59823 37.3466 2.72496 33.4733 1.84363 28.4497L0.858676 28.6225Z" fill="url(#paint0_linear_1_5578)"/>
<path fill-rule="evenodd" clip-rule="evenodd" d="M24.5799 16.5032C25.0078 16.5375 25.366 16.841 25.4701 17.2575L26.2808 20.5H28C28.5523 20.5 29 20.9477 29 21.5C29 22.0523 28.5523 22.5 28 22.5H25.5C25.0411 22.5 24.6411 22.1877 24.5299 21.7426L24.2498 20.6224L22.4191 24.8939C22.2658 25.2518 21.9186 25.4882 21.5294 25.4996C21.1402 25.511 20.7797 25.2955 20.6056 24.9472L19.5 22.7361L18.3944 24.9472C18.2153 25.3055 17.8396 25.5223 17.4397 25.4982C17.0399 25.4741 16.693 25.2136 16.5583 24.8364L14.9771 20.4091L14.4363 21.8511C14.29 22.2414 13.9168 22.5 13.5 22.5H11.5C10.9477 22.5 10.5 22.0523 10.5 21.5C10.5 20.9477 10.9477 20.5 11.5 20.5H12.807L14.0637 17.1489C14.211 16.7559 14.5882 16.4967 15.0079 16.5001C15.4276 16.5034 15.8006 16.7684 15.9417 17.1637L17.6536 21.9568L18.6056 20.0528C18.775 19.714 19.1212 19.5 19.5 19.5C19.8788 19.5 20.225 19.714 20.3944 20.0528L21.4302 22.1243L23.5809 17.1061C23.7499 16.7115 24.152 16.4689 24.5799 16.5032Z" fill="#00CF6A"/>
<path fill-rule="evenodd" clip-rule="evenodd" d="M14.45 10.8125C11.1346 10.8125 8.4375 13.5134 8.4375 16.8625C8.4375 20.9256 10.3134 24.1811 12.674 26.5999C15.046 29.0302 17.8499 30.5525 19.5279 31.1253L19.537 31.1284C19.618 31.157 19.7858 31.1875 20 31.1875C20.2142 31.1875 20.382 31.157 20.463 31.1284L20.4721 31.1252C22.1501 30.5524 24.954 29.0302 27.326 26.5999C29.6866 24.1811 31.5625 20.9256 31.5625 16.8625C31.5625 13.5134 28.8654 10.8125 25.55 10.8125C23.5972 10.8125 21.8462 11.7614 20.7526 13.234C20.5758 13.4721 20.2966 13.6125 20 13.6125C19.7034 13.6125 19.4242 13.4721 19.2474 13.234C18.1532 11.7606 16.4143 10.8125 14.45 10.8125ZM6.5625 16.8625C6.5625 12.4866 10.0904 8.9375 14.45 8.9375C16.6209 8.9375 18.5807 9.81998 20.0004 11.2434C21.4231 9.81955 23.3902 8.9375 25.55 8.9375C29.9096 8.9375 33.4375 12.4866 33.4375 16.8625C33.4375 21.5494 31.2634 25.2501 28.6678 27.9095C26.0854 30.5554 23.0293 32.2326 21.0821 32.8983C20.7392 33.0184 20.3466 33.0625 20 33.0625C19.6534 33.0625 19.2608 33.0184 18.9179 32.8983C16.9707 32.2326 13.9146 30.5554 11.3322 27.9095C8.73665 25.2501 6.5625 21.5494 6.5625 16.8625Z" fill="#0033C9"/>
</g>
<defs>
<linearGradient id="paint0_linear_1_5578" x1="-2.81746e-08" y1="8.19672" x2="40.9761" y2="9.50848" gradientUnits="userSpaceOnUse">
<stop stop-color="#F0F6FF"/>
<stop offset="0.635417" stop-color="#E8F0FD"/>
<stop offset="1" stop-color="#EEF4FE"/>
</linearGradient>
<clipPath id="clip0_1_5578">
<rect width="40" height="40" fill="white"/>
</clipPath>
</defs>
</svg>
