<svg width="40" height="40" viewBox="0 0 40 40" fill="none" xmlns="http://www.w3.org/2000/svg">
<g clip-path="url(#clip0_1_5529)">
<rect width="40" height="40" fill="white"/>
<path d="M39.2129 11.449C40.2624 17.0781 40.2624 22.8026 39.2129 28.5271C38.2588 33.9654 33.9654 38.2588 28.5271 39.2129C22.898 40.2624 17.1735 40.2624 11.449 39.2129C6.01073 38.2588 1.81276 34.0608 0.858676 28.6225C-0.286225 22.9934 -0.286225 17.1735 0.858676 11.449C1.81276 6.01073 6.01073 1.81276 11.449 0.858676C17.0781 -0.286225 22.898 -0.286225 28.6225 0.858676C34.0608 1.81276 38.2588 6.01073 39.2129 11.449Z" fill="white"/>
<path fill-rule="evenodd" clip-rule="evenodd" d="M38.2293 28.3468C39.2571 22.7405 39.2565 17.1393 38.2298 11.6323L39.2129 11.449C40.2624 17.0781 40.2624 22.8026 39.2129 28.5271L38.2293 28.3468ZM28.5271 39.2129C33.9654 38.2588 38.2588 33.9654 39.2129 28.5271L38.2279 28.3543C37.3466 33.3779 33.3779 37.3466 28.3543 38.2279L28.5271 39.2129ZM11.449 39.2129C17.1735 40.2624 22.898 40.2624 28.5271 39.2129L28.3438 38.2298C22.8369 39.2565 17.2356 39.2571 11.6293 38.2293L11.449 39.2129ZM28.6225 0.858676L28.4497 1.84363C33.4733 2.72496 37.3466 6.59823 38.2279 11.6218L39.2129 11.449C38.2588 6.01073 34.0608 1.81276 28.6225 0.858676ZM11.449 0.858676C17.0781 -0.286225 22.898 -0.286225 28.6225 0.858676L28.4264 1.83926C22.8303 0.720026 17.1448 0.720683 11.6483 1.83861L11.449 0.858676ZM0.858676 11.449C1.81276 6.01073 6.01073 1.81276 11.449 0.858676L11.6218 1.84363C6.59823 2.72496 2.72496 6.59823 1.84363 11.6218L0.858676 11.449ZM0.858676 11.449L1.83926 11.6451C0.720026 17.2413 0.720683 22.9267 1.83861 28.4232L0.858676 28.6225C-0.286225 22.9934 -0.286225 17.1735 0.858676 11.449ZM0.858676 28.6225C1.81276 34.0608 6.01073 38.2588 11.449 39.2129L11.6218 38.2279C6.59823 37.3466 2.72496 33.4733 1.84363 28.4497L0.858676 28.6225Z" fill="url(#paint0_linear_1_5529)"/>
<path fill-rule="evenodd" clip-rule="evenodd" d="M7.36889 11.161C8.41676 9.28104 10.4359 8 12.7503 8H24.3753C24.9276 8 25.3753 8.44772 25.3753 9V20.5002C25.3753 22.4733 23.7651 24.0835 21.7919 24.0835H20.5003C19.948 24.0835 19.5003 23.6358 19.5003 23.0835C19.5003 22.5312 19.948 22.0835 20.5003 22.0835H21.7919C22.6605 22.0835 23.3753 21.3687 23.3753 20.5002V10H12.7503C11.1897 10 9.82464 10.8631 9.11585 12.1348C8.84697 12.6172 8.23792 12.7903 7.75551 12.5214C7.2731 12.2525 7.1 11.6435 7.36889 11.161Z" fill="#0033C9"/>
<path fill-rule="evenodd" clip-rule="evenodd" d="M23.3757 9.19556C23.3757 8.64327 23.8234 8.19556 24.3757 8.19556H26.7524C28.0475 8.19556 29.2251 8.89663 29.8646 9.99802C29.8948 10.0499 29.9202 10.1045 29.9405 10.1609L32.1492 16.2857C32.2597 16.5921 32.2141 16.9332 32.0268 17.1997C31.8396 17.4663 31.5343 17.6249 31.2085 17.6249H29.5423C29.3842 17.6249 29.2507 17.7585 29.2507 17.9166V21.7916C29.2507 21.9497 29.3842 22.0833 29.5423 22.0833H33.4173C33.9696 22.0833 34.4173 22.531 34.4173 23.0833V26.9583C34.4173 29.6547 32.2388 31.8333 29.5423 31.8333H28.2507C27.6984 31.8333 27.2507 31.3856 27.2507 30.8333C27.2507 29.9647 26.5359 29.2499 25.6673 29.2499C24.7988 29.2499 24.084 29.9647 24.084 30.8333C24.084 31.3856 23.6363 31.8333 23.084 31.8333H17.9173C17.365 31.8333 16.9173 31.3856 16.9173 30.8333C16.9173 29.9647 16.2025 29.2499 15.334 29.2499C14.4654 29.2499 13.7507 29.9647 13.7507 30.8333C13.7507 31.3856 13.3029 31.8333 12.7507 31.8333H11.459C8.76253 31.8333 6.58398 29.6547 6.58398 26.9583C6.58398 26.406 7.0317 25.9583 7.58398 25.9583C8.13627 25.9583 8.58398 26.406 8.58398 26.9583C8.58398 28.5502 9.8671 29.8333 11.459 29.8333H11.8931C12.3279 28.3439 13.7077 27.2499 15.334 27.2499C16.9603 27.2499 18.3401 28.3439 18.7749 29.8333H22.2264C22.6612 28.3439 24.041 27.2499 25.6673 27.2499C27.2936 27.2499 28.6734 28.3439 29.1082 29.8333H29.5423C31.1342 29.8333 32.4173 28.5502 32.4173 26.9583V24.0833H29.5423C28.2796 24.0833 27.2507 23.0543 27.2507 21.7916V17.9166C27.2507 16.6539 28.2796 15.6249 29.5423 15.6249H29.7849L28.0934 10.9343C27.7959 10.4744 27.2912 10.1956 26.7524 10.1956H25.3757L25.3757 20.4999C25.3757 22.4731 23.7654 24.0833 21.7923 24.0833H20.5007C19.9484 24.0833 19.5007 23.6356 19.5007 23.0833C19.5007 22.531 19.9484 22.0833 20.5007 22.0833H21.7923C22.6609 22.0833 23.3757 21.3685 23.3757 20.4999L23.3757 9.19556Z" fill="#0033C9"/>
<path d="M15.3333 33.4167C16.7601 33.4167 17.9167 32.2601 17.9167 30.8333C17.9167 29.4066 16.7601 28.25 15.3333 28.25C13.9066 28.25 12.75 29.4066 12.75 30.8333C12.75 32.2601 13.9066 33.4167 15.3333 33.4167Z" fill="#00CF6A" stroke="#0033C9" stroke-width="2" stroke-linecap="round" stroke-linejoin="round"/>
<path d="M25.6673 33.4167C27.0941 33.4167 28.2507 32.2601 28.2507 30.8333C28.2507 29.4066 27.0941 28.25 25.6673 28.25C24.2406 28.25 23.084 29.4066 23.084 30.8333C23.084 32.2601 24.2406 33.4167 25.6673 33.4167Z" fill="#00CF6A" stroke="#0033C9" stroke-width="2" stroke-linecap="round" stroke-linejoin="round"/>
<path fill-rule="evenodd" clip-rule="evenodd" d="M29.5417 17.625C29.3835 17.625 29.25 17.7585 29.25 17.9167V21.7917C29.25 21.9498 29.3835 22.0833 29.5417 22.0833H32.4167V20.765L30.6268 17.625H29.5417ZM27.25 17.9167C27.25 16.654 28.279 15.625 29.5417 15.625H31.2079C31.5671 15.625 31.8988 15.8177 32.0767 16.1298L34.2854 20.0048C34.3714 20.1557 34.4167 20.3263 34.4167 20.5V23.0833C34.4167 23.6356 33.969 24.0833 33.4167 24.0833H29.5417C28.279 24.0833 27.25 23.0544 27.25 21.7917V17.9167Z" fill="#0033C9"/>
<path fill-rule="evenodd" clip-rule="evenodd" d="M6.58398 15.3335C6.58398 14.7812 7.0317 14.3335 7.58398 14.3335H15.334C15.8863 14.3335 16.334 14.7812 16.334 15.3335C16.334 15.8858 15.8863 16.3335 15.334 16.3335H7.58398C7.0317 16.3335 6.58398 15.8858 6.58398 15.3335Z" fill="#0033C9"/>
<path fill-rule="evenodd" clip-rule="evenodd" d="M6.58398 19.2085C6.58398 18.6562 7.0317 18.2085 7.58398 18.2085H12.7507C13.3029 18.2085 13.7507 18.6562 13.7507 19.2085C13.7507 19.7608 13.3029 20.2085 12.7507 20.2085H7.58398C7.0317 20.2085 6.58398 19.7608 6.58398 19.2085Z" fill="#0033C9"/>
<path fill-rule="evenodd" clip-rule="evenodd" d="M6.58398 23.0835C6.58398 22.5312 7.0317 22.0835 7.58398 22.0835H10.1673C10.7196 22.0835 11.1673 22.5312 11.1673 23.0835C11.1673 23.6358 10.7196 24.0835 10.1673 24.0835H7.58398C7.0317 24.0835 6.58398 23.6358 6.58398 23.0835Z" fill="#0033C9"/>
</g>
<defs>
<linearGradient id="paint0_linear_1_5529" x1="-2.81746e-08" y1="8.19672" x2="40.9761" y2="9.50848" gradientUnits="userSpaceOnUse">
<stop stop-color="#F0F6FF"/>
<stop offset="0.635417" stop-color="#E8F0FD"/>
<stop offset="1" stop-color="#EEF4FE"/>
</linearGradient>
<clipPath id="clip0_1_5529">
<rect width="40" height="40" fill="white"/>
</clipPath>
</defs>
</svg>
