<svg width="40" height="40" viewBox="0 0 40 40" fill="none" xmlns="http://www.w3.org/2000/svg">
<g clip-path="url(#clip0_1_5607)">
<rect width="40" height="40" fill="white"/>
<path d="M39.2129 11.449C40.2624 17.0781 40.2624 22.8026 39.2129 28.5271C38.2588 33.9654 33.9654 38.2588 28.5271 39.2129C22.898 40.2624 17.1735 40.2624 11.449 39.2129C6.01073 38.2588 1.81276 34.0608 0.858676 28.6225C-0.286225 22.9934 -0.286225 17.1735 0.858676 11.449C1.81276 6.01073 6.01073 1.81276 11.449 0.858676C17.0781 -0.286225 22.898 -0.286225 28.6225 0.858676C34.0608 1.81276 38.2588 6.01073 39.2129 11.449Z" fill="white"/>
<path fill-rule="evenodd" clip-rule="evenodd" d="M38.2293 28.3468C39.2571 22.7405 39.2565 17.1393 38.2298 11.6323L39.2129 11.449C40.2624 17.0781 40.2624 22.8026 39.2129 28.5271L38.2293 28.3468ZM28.5271 39.2129C33.9654 38.2588 38.2588 33.9654 39.2129 28.5271L38.2279 28.3543C37.3466 33.3779 33.3779 37.3466 28.3543 38.2279L28.5271 39.2129ZM11.449 39.2129C17.1735 40.2624 22.898 40.2624 28.5271 39.2129L28.3438 38.2298C22.8369 39.2565 17.2356 39.2571 11.6293 38.2293L11.449 39.2129ZM28.6225 0.858676L28.4497 1.84363C33.4733 2.72496 37.3466 6.59823 38.2279 11.6218L39.2129 11.449C38.2588 6.01073 34.0608 1.81276 28.6225 0.858676ZM11.449 0.858676C17.0781 -0.286225 22.898 -0.286225 28.6225 0.858676L28.4264 1.83926C22.8303 0.720026 17.1448 0.720683 11.6483 1.83861L11.449 0.858676ZM0.858676 11.449C1.81276 6.01073 6.01073 1.81276 11.449 0.858676L11.6218 1.84363C6.59823 2.72496 2.72496 6.59823 1.84363 11.6218L0.858676 11.449ZM0.858676 11.449L1.83926 11.6451C0.720026 17.2413 0.720683 22.9267 1.83861 28.4232L0.858676 28.6225C-0.286225 22.9934 -0.286225 17.1735 0.858676 11.449ZM0.858676 28.6225C1.81276 34.0608 6.01073 38.2588 11.449 39.2129L11.6218 38.2279C6.59823 37.3466 2.72496 33.4733 1.84363 28.4497L0.858676 28.6225Z" fill="url(#paint0_linear_1_5607)"/>
<path d="M15.2904 9.76985C15.2904 11.4439 13.9333 12.8009 12.2593 12.8009C10.5853 12.8009 9.22821 11.4439 9.22821 9.76985C9.22821 8.09583 10.5853 6.73877 12.2593 6.73877C13.9333 6.73877 15.2904 8.09583 15.2904 9.76985Z" fill="#00CF6A"/>
<path d="M7.02867 18.0482C6.68918 15.2253 9.38828 13.1799 12.2315 13.1799C15.0958 13.1799 17.8344 15.2533 17.4861 18.0964C17.4605 18.3056 17.4298 18.5238 17.3942 18.7548C17.2825 19.4778 16.6493 19.9999 15.9177 19.9999H8.60349C7.86706 19.9999 7.23193 19.4707 7.1231 18.7423C7.08653 18.4976 7.05504 18.2675 7.02867 18.0482Z" fill="#00CF6A"/>
<path fill-rule="evenodd" clip-rule="evenodd" d="M12.2592 5.60229C9.95745 5.60229 8.09149 7.46826 8.09149 9.77004C8.09149 10.9033 8.54377 11.9309 9.27768 12.6822C8.69652 12.9467 8.15836 13.2889 7.68829 13.7002C6.46453 14.7709 5.67879 16.3421 5.90031 18.1841C5.92822 18.4162 5.96124 18.6572 5.99909 18.9105C6.19402 20.215 7.32425 21.1367 8.60366 21.1367H15.9178C17.187 21.1367 18.317 20.2284 18.5177 18.9284C18.5548 18.6879 18.5872 18.4578 18.6145 18.2347C18.8418 16.3792 18.0456 14.7953 16.8119 13.7165C16.3425 13.306 15.8056 12.9633 15.2261 12.6971C15.9686 11.9446 16.427 10.9108 16.427 9.77004C16.427 7.46826 14.561 5.60229 12.2592 5.60229ZM10.3648 9.77004C10.3648 8.72377 11.213 7.87561 12.2592 7.87561C13.3055 7.87561 14.1537 8.72377 14.1537 9.77004C14.1537 10.8163 13.3055 11.6645 12.2592 11.6645C11.213 11.6645 10.3648 10.8163 10.3648 9.77004ZM8.15736 17.9126C8.03939 16.9317 8.43346 16.0688 9.18519 15.4111C9.95359 14.7388 11.0688 14.3168 12.2317 14.3168C13.4037 14.3168 14.5346 14.745 15.3155 15.4278C16.0801 16.0965 16.479 16.9708 16.3581 17.9584C16.3341 18.1537 16.3052 18.36 16.271 18.5815C16.2484 18.7277 16.1119 18.8634 15.9178 18.8634H8.60366C8.41019 18.8634 8.27018 18.7267 8.24744 18.5745C8.21214 18.3383 8.1822 18.1192 8.15736 17.9126Z" fill="#0033C9"/>
<path d="M30.4526 22.8285C30.4526 24.5355 29.0688 25.9193 27.3619 25.9193C25.6549 25.9193 24.2711 24.5355 24.2711 22.8285C24.2711 21.1216 25.6549 19.7378 27.3619 19.7378C29.0688 19.7378 30.4526 21.1216 30.4526 22.8285Z" fill="#00CF6A"/>
<path d="M22.0292 31.2702C21.683 28.3917 24.4352 26.3062 27.3344 26.3062C30.2551 26.3062 33.0475 28.4203 32.6924 31.3193C32.6663 31.5326 32.635 31.7551 32.5987 31.9907C32.4848 32.728 31.8391 33.2603 31.0931 33.2603H23.635C22.8841 33.2603 22.2364 32.7207 22.1255 31.978C22.0882 31.7284 22.0561 31.4938 22.0292 31.2702Z" fill="#00CF6A"/>
<path fill-rule="evenodd" clip-rule="evenodd" d="M27.3608 18.5786C25.0137 18.5786 23.111 20.4813 23.111 22.8285C23.111 23.9843 23.5723 25.0323 24.321 25.7984C23.7286 26.0682 23.18 26.4171 22.7007 26.8363C21.4529 27.9281 20.6517 29.5303 20.8775 31.4085C20.906 31.6452 20.9397 31.891 20.9783 32.1493C21.177 33.4795 22.3296 34.4194 23.6342 34.4194H31.0923C32.3865 34.4194 33.5388 33.4931 33.7434 32.1675C33.7813 31.9223 33.8143 31.6876 33.8422 31.4602C34.0739 29.5681 33.262 27.953 32.0041 26.853C31.5251 26.4342 30.9774 26.0846 30.3862 25.8132C31.1434 25.0458 31.6107 23.9917 31.6107 22.8285C31.6107 20.4813 29.708 18.5786 27.3608 18.5786ZM25.4292 22.8285C25.4292 21.7617 26.294 20.8969 27.3608 20.8969C28.4276 20.8969 29.2924 21.7617 29.2924 22.8285C29.2924 23.8953 28.4276 24.7601 27.3608 24.7601C26.294 24.7601 25.4292 23.8953 25.4292 22.8285ZM23.1792 31.1317C23.0589 30.1315 23.4607 29.2517 24.2272 28.5811C25.0107 27.8956 26.1479 27.4652 27.3336 27.4652C28.5287 27.4652 29.6818 27.9018 30.478 28.5981C31.2577 29.2799 31.6644 30.1715 31.5411 31.1784C31.5167 31.3776 31.4872 31.5879 31.4523 31.8138C31.4293 31.9628 31.2902 32.1011 31.0923 32.1011H23.6342C23.437 32.1011 23.2943 31.9618 23.2711 31.8067C23.2351 31.5658 23.2045 31.3423 23.1792 31.1317Z" fill="#0033C9"/>
<path fill-rule="evenodd" clip-rule="evenodd" d="M21 8C21 7.44772 21.4477 7 22 7H27C30.3137 7 33 9.68629 33 13V16C33 16.5523 32.5523 17 32 17C31.4477 17 31 16.5523 31 16V13C31 10.7909 29.2091 9 27 9H22C21.4477 9 21 8.55228 21 8Z" fill="#0033C9"/>
<path fill-rule="evenodd" clip-rule="evenodd" d="M18 32C18 32.5523 17.5523 33 17 33H13C9.68629 33 7 30.3137 7 27V24C7 23.4477 7.44771 23 8 23C8.55229 23 9 23.4477 9 24V27C9 29.2091 10.7909 31 13 31H17C17.5523 31 18 31.4477 18 32Z" fill="#0033C9"/>
</g>
<defs>
<linearGradient id="paint0_linear_1_5607" x1="-2.81746e-08" y1="8.19672" x2="40.9761" y2="9.50848" gradientUnits="userSpaceOnUse">
<stop stop-color="#F0F6FF"/>
<stop offset="0.635417" stop-color="#E8F0FD"/>
<stop offset="1" stop-color="#EEF4FE"/>
</linearGradient>
<clipPath id="clip0_1_5607">
<rect width="40" height="40" fill="white"/>
</clipPath>
</defs>
</svg>
