<svg width="40" height="40" viewBox="0 0 40 40" fill="none" xmlns="http://www.w3.org/2000/svg">
<g clip-path="url(#clip0_1_5512)">
<rect width="40" height="40" fill="white"/>
<g clip-path="url(#clip1_1_5512)">
<path d="M39.2129 11.449V11.449C40.2624 17.0781 40.2624 22.8026 39.2129 28.5271V28.5271C38.2588 33.9654 33.9654 38.2588 28.5271 39.2129V39.2129C22.898 40.2624 17.1735 40.2624 11.449 39.2129V39.2129C6.01073 38.2588 1.81276 34.0608 0.858676 28.6225V28.6225C-0.286225 22.9934 -0.286225 17.1735 0.858676 11.449V11.449C1.81276 6.01073 6.01073 1.81276 11.449 0.858676V0.858676C17.0781 -0.286225 22.898 -0.286225 28.6225 0.858676V0.858676C34.0608 1.81276 38.2588 6.01073 39.2129 11.449Z" fill="white"/>
<path fill-rule="evenodd" clip-rule="evenodd" d="M38.2293 28.3468C39.2571 22.7405 39.2565 17.1393 38.2298 11.6323L39.2129 11.449C40.2624 17.0781 40.2624 22.8026 39.2129 28.5271L38.2293 28.3468ZM28.5271 39.2129C33.9654 38.2588 38.2588 33.9654 39.2129 28.5271L38.2279 28.3543C37.3466 33.3779 33.3779 37.3466 28.3543 38.2279L28.5271 39.2129ZM11.449 39.2129C17.1735 40.2624 22.898 40.2624 28.5271 39.2129L28.3438 38.2298C22.8369 39.2565 17.2356 39.2571 11.6293 38.2293L11.449 39.2129ZM28.6225 0.858676L28.4497 1.84363C33.4733 2.72496 37.3466 6.59823 38.2279 11.6218L39.2129 11.449C38.2588 6.01073 34.0608 1.81276 28.6225 0.858676ZM11.449 0.858676C17.0781 -0.286225 22.898 -0.286225 28.6225 0.858676L28.4264 1.83926C22.8303 0.720026 17.1448 0.720683 11.6483 1.83861L11.449 0.858676ZM0.858676 11.449C1.81276 6.01073 6.01073 1.81276 11.449 0.858676L11.6218 1.84363C6.59823 2.72496 2.72496 6.59823 1.84363 11.6218L0.858676 11.449ZM0.858676 11.449L1.83926 11.6451C0.720026 17.2413 0.720683 22.9267 1.83861 28.4232L0.858676 28.6225C-0.286225 22.9934 -0.286225 17.1735 0.858676 11.449ZM0.858676 28.6225C1.81276 34.0608 6.01073 38.2588 11.449 39.2129L11.6218 38.2279C6.59823 37.3466 2.72496 33.4733 1.84363 28.4497L0.858676 28.6225Z" fill="url(#paint0_linear_1_5512)"/>
</g>
<path d="M15.1352 8H25.3869C26.1546 8 26.8604 8.42049 27.2062 9.10598C27.7526 10.189 28.562 13.0755 29.0455 14.4975C28.6149 14.4816 28.1813 14.465 27.745 14.4484C25.3279 14.3559 22.8249 14.2602 20.261 14.2602C17.6971 14.2602 15.1941 14.3559 12.777 14.4484C12.3407 14.465 11.9072 14.4816 11.4766 14.4975C11.9601 13.0755 12.7695 10.189 13.3159 9.10597C13.6617 8.42049 14.3675 8 15.1352 8Z" fill="white"/>
<path d="M11.6221 20.9069C12.2025 24.2006 13.2899 28.9486 13.8838 31.1856C14.1241 32.091 14.9448 32.7129 15.8815 32.7129H24.6403C25.5771 32.7129 26.3978 32.091 26.6381 31.1856C27.232 28.9486 28.3193 24.2006 28.8997 20.9069C28.5171 20.9211 28.1321 20.9358 27.745 20.9506C25.3279 21.0431 22.8249 21.1388 20.261 21.1388C17.6971 21.1388 15.1941 21.0431 12.777 20.9506C12.3898 20.9358 12.0048 20.9211 11.6221 20.9069Z" fill="white"/>
<path fill-rule="evenodd" clip-rule="evenodd" d="M12.4231 8.65554C12.9446 7.62188 14.0027 7 15.1353 7H25.3869C26.5195 7 27.5775 7.62189 28.099 8.65555L27.2062 9.10598L28.099 8.65555C28.4147 9.28125 28.777 10.3545 29.1019 11.3699C29.2375 11.7939 29.3683 12.2133 29.4917 12.6088C29.6785 13.2079 29.8483 13.7523 29.9922 14.1756C30.0982 14.4871 30.0441 14.8308 29.8476 15.0947C29.6511 15.3586 29.3374 15.509 29.0086 15.4968C28.5772 15.4809 28.143 15.4643 27.7068 15.4476C25.287 15.3551 22.8027 15.2602 20.261 15.2602C17.7192 15.2602 15.235 15.3551 12.8152 15.4476L12.815 15.4476C12.3789 15.4643 11.9448 15.4809 11.5135 15.4968C11.1847 15.509 10.871 15.3586 10.6745 15.0947C10.478 14.8308 10.4239 14.4871 10.5299 14.1756C10.6738 13.7524 10.8436 13.2079 11.0304 12.6088C11.1538 12.2133 11.2846 11.7939 11.4203 11.3699C11.7452 10.3544 12.1074 9.28124 12.4231 8.65554L13.3159 9.10597L12.4231 8.65554ZM15.1353 9C14.7323 9 14.3789 9.21909 14.2087 9.5564C13.978 10.0137 13.6624 10.9253 13.3251 11.9794C13.2014 12.3662 13.0753 12.77 12.9532 13.1614C12.9235 13.2565 12.894 13.351 12.8649 13.4443C15.2409 13.3534 17.72 13.2602 20.261 13.2602C22.8021 13.2602 25.2811 13.3534 27.6573 13.4443C27.6281 13.351 27.5986 13.2565 27.5689 13.1613C27.4467 12.7699 27.3207 12.3661 27.197 11.9794C26.8597 10.9253 26.5441 10.0137 26.3134 9.55641C26.1432 9.21909 25.7898 9 25.3869 9H15.1353ZM10.8682 20.2499C11.0667 20.0222 11.3574 19.8963 11.6593 19.9076C12.0414 19.9218 12.4256 19.9365 12.8115 19.9512L12.8152 19.9514C15.235 20.0439 17.7192 20.1388 20.261 20.1388C22.8027 20.1388 25.287 20.0439 27.7068 19.9514L27.7106 19.9512C28.0964 19.9365 28.4806 19.9218 28.8626 19.9076C29.1644 19.8963 29.4552 20.0222 29.6537 20.2499C29.8521 20.4777 29.937 20.7829 29.8846 21.0804C29.2987 24.4051 28.205 29.1808 27.6047 31.4422C27.2462 32.7926 26.0235 33.7129 24.6403 33.7129H15.8815C14.4984 33.7129 13.2757 32.7926 12.9172 31.4422C12.3169 29.1808 11.2232 24.4051 10.6373 21.0804C10.5849 20.7829 10.6698 20.4777 10.8682 20.2499ZM12.8321 21.9535C13.4322 25.0841 14.3328 28.9796 14.8503 30.929C14.9725 31.3893 15.3912 31.7129 15.8815 31.7129H24.6403C25.1306 31.7129 25.5494 31.3893 25.6716 30.929C26.1891 28.9796 27.0897 25.0841 27.6898 21.9535C25.3038 22.0447 22.8137 22.1388 20.261 22.1388C17.7083 22.1388 15.2181 22.0447 12.8321 21.9535Z" fill="#0033C9"/>
<path d="M9.31264 19.8257C9.46068 20.429 10.0024 20.8495 10.6233 20.8709C13.6964 20.9769 16.9275 21.1388 20.2615 21.1388C23.5955 21.1388 26.8266 20.9769 29.8997 20.8709C30.5205 20.8495 31.0623 20.429 31.2103 19.8257C31.6272 18.1269 31.6272 17.2721 31.2103 15.5733C31.0623 14.97 30.5205 14.5495 29.8997 14.5281C26.8266 14.4221 23.5955 14.2603 20.2615 14.2603C16.9275 14.2603 13.6964 14.4221 10.6233 14.5281C10.0024 14.5495 9.46068 14.97 9.31264 15.5733C8.89579 17.2721 8.89579 18.1269 9.31264 19.8257Z" fill="#00CF6A"/>
<path fill-rule="evenodd" clip-rule="evenodd" d="M12.8279 15.4472C12.0988 15.4751 11.3754 15.5028 10.6578 15.5275C10.4625 15.5342 10.3201 15.6639 10.2838 15.8116C10.084 16.6259 10 17.176 10 17.6995C10 18.223 10.084 18.7731 10.2838 19.5874C10.3201 19.7351 10.4625 19.8648 10.6578 19.8715C11.3754 19.8963 12.0988 19.9239 12.8279 19.9518C15.2416 20.0441 17.7186 20.1388 20.2615 20.1388C22.8043 20.1388 25.2814 20.0441 27.695 19.9518C28.4242 19.9239 29.1475 19.8963 29.8652 19.8715C30.0604 19.8648 30.2029 19.7351 30.2391 19.5874C30.4389 18.7731 30.5229 18.223 30.5229 17.6995C30.5229 17.176 30.4389 16.6259 30.2391 15.8116C30.2029 15.6639 30.0604 15.5342 29.8652 15.5275C29.1475 15.5028 28.4242 15.4751 27.695 15.4472C25.2814 15.355 22.8043 15.2603 20.2615 15.2603C17.7186 15.2603 15.2416 15.355 12.8279 15.4472ZM12.727 13.4496C15.1475 13.357 17.6765 13.2603 20.2615 13.2603C22.8464 13.2603 25.3755 13.357 27.7959 13.4496C28.5188 13.4772 29.232 13.5045 29.9341 13.5287C30.9806 13.5648 31.9217 14.2761 32.1815 15.335C32.3985 16.2195 32.5229 16.9462 32.5229 17.6995C32.5229 18.4529 32.3985 19.1796 32.1815 20.064C31.9217 21.1229 30.9806 21.8343 29.9341 21.8703C29.232 21.8946 28.5188 21.9218 27.7959 21.9495C25.3754 22.0421 22.8464 22.1388 20.2615 22.1388C17.6765 22.1388 15.1475 22.0421 12.727 21.9495C12.0041 21.9218 11.2909 21.8946 10.5888 21.8703C9.54238 21.8343 8.60129 21.1229 8.34145 20.064C8.12442 19.1796 8 18.4529 8 17.6995C8 16.9462 8.12442 16.2195 8.34145 15.335C8.60129 14.2761 9.54238 13.5648 10.5888 13.5287C11.2909 13.5045 12.0041 13.4772 12.727 13.4496Z" fill="#0033C9"/>
</g>
<defs>
<linearGradient id="paint0_linear_1_5512" x1="-2.81746e-08" y1="8.19672" x2="40.9761" y2="9.50848" gradientUnits="userSpaceOnUse">
<stop stop-color="#F0F6FF"/>
<stop offset="0.635417" stop-color="#E8F0FD"/>
<stop offset="1" stop-color="#EEF4FE"/>
</linearGradient>
<clipPath id="clip0_1_5512">
<rect width="40" height="40" fill="white"/>
</clipPath>
<clipPath id="clip1_1_5512">
<rect width="40" height="40" fill="white"/>
</clipPath>
</defs>
</svg>
