<svg width="40" height="40" viewBox="0 0 40 40" fill="none" xmlns="http://www.w3.org/2000/svg">
<g clip-path="url(#clip0_1_3456)">
<path d="M39.2129 11.449C40.2624 17.0781 40.2624 22.8026 39.2129 28.5271C38.2588 33.9654 33.9654 38.2588 28.5271 39.2129C22.898 40.2624 17.1735 40.2624 11.449 39.2129C6.01073 38.2588 1.81276 34.0608 0.858676 28.6225C-0.286225 22.9934 -0.286225 17.1735 0.858676 11.449C1.81276 6.01073 6.01073 1.81276 11.449 0.858676C17.0781 -0.286225 22.898 -0.286225 28.6225 0.858676C34.0608 1.81276 38.2588 6.01073 39.2129 11.449Z" fill="white"/>
<path fill-rule="evenodd" clip-rule="evenodd" d="M38.2293 28.3468C39.2571 22.7405 39.2565 17.1393 38.2298 11.6323L39.2129 11.449C40.2624 17.0781 40.2624 22.8026 39.2129 28.5271L38.2293 28.3468ZM28.5271 39.2129C33.9654 38.2588 38.2588 33.9654 39.2129 28.5271L38.2279 28.3543C37.3466 33.3779 33.3779 37.3466 28.3543 38.2279L28.5271 39.2129ZM11.449 39.2129C17.1735 40.2624 22.898 40.2624 28.5271 39.2129L28.3438 38.2298C22.8369 39.2565 17.2356 39.2571 11.6293 38.2293L11.449 39.2129ZM28.6225 0.858676L28.4497 1.84363C33.4733 2.72496 37.3466 6.59823 38.2279 11.6218L39.2129 11.449C38.2588 6.01073 34.0608 1.81276 28.6225 0.858676ZM11.449 0.858676C17.0781 -0.286225 22.898 -0.286225 28.6225 0.858676L28.4264 1.83926C22.8303 0.720026 17.1448 0.720683 11.6483 1.83861L11.449 0.858676ZM0.858676 11.449C1.81276 6.01073 6.01073 1.81276 11.449 0.858676L11.6218 1.84363C6.59823 2.72496 2.72496 6.59823 1.84363 11.6218L0.858676 11.449ZM0.858676 11.449L1.83926 11.6451C0.720026 17.2413 0.720683 22.9267 1.83861 28.4232L0.858676 28.6225C-0.286225 22.9934 -0.286225 17.1735 0.858676 11.449ZM0.858676 28.6225C1.81276 34.0608 6.01073 38.2588 11.449 39.2129L11.6218 38.2279C6.59823 37.3466 2.72496 33.4733 1.84363 28.4497L0.858676 28.6225Z" fill="#EEF4FE"/>
<path fill-rule="evenodd" clip-rule="evenodd" d="M18.9628 6.73357C19.7349 6.42217 20.6034 6.42177 21.3763 6.73461C25.8509 8.5457 30.2835 10.8521 33.5018 14.1678C34.8318 15.5381 33.657 17.4999 31.9642 17.4999H29.0018V24.4999C29.0018 25.0522 28.5541 25.4999 28.0018 25.4999C27.4495 25.4999 27.0018 25.0522 27.0018 24.4999V17.4999H21.0018C21.0018 20.6666 21.0021 23.8333 21.0021 26.9999C21.0021 27.5522 20.5544 27.9999 20.0021 27.9999H12.0021C11.1414 27.9999 10.5586 28.3154 10.1278 28.8146C9.66756 29.3478 9.33777 30.1463 9.1579 31.1397C9.11916 31.3537 9.18312 31.5475 9.33642 31.7084C9.49814 31.8782 9.75476 31.9999 10.0501 31.9999H18.5334C19.0857 31.9999 19.5334 32.4477 19.5334 32.9999C19.5334 33.5522 19.0857 33.9999 18.5334 33.9999H10.0501C8.43469 33.9999 6.85379 32.6397 7.1899 30.7833C7.40577 29.5911 7.83596 28.4089 8.61383 27.5077C9.22475 26.8 10.0225 26.2999 11.0018 26.0986V17.4999H8.17056C7.30344 17.4999 6.59411 17.0164 6.26884 16.3475C5.93772 15.6666 6.01539 14.8065 6.64251 14.168C9.90328 10.8476 14.4805 8.54123 18.9628 6.73357ZM13.0018 17.4999V25.9999H19.0018V17.4999H13.0018ZM20.5634 8.62723C20.3111 8.52509 20.0269 8.52488 19.7732 8.6272C15.7086 10.2664 11.4944 12.2546 8.54787 14.9488C8.35052 15.1292 8.48131 15.4494 8.74872 15.4494H31.5975C31.8639 15.4494 31.995 15.1314 31.7993 14.9506C28.8771 12.2521 24.6066 10.2637 20.5634 8.62723Z" fill="#0033C9"/>
<path fill-rule="evenodd" clip-rule="evenodd" d="M31.9551 30.4103C31.9551 29.5724 31.331 29 30.6889 29L29.4564 29C28.9042 29 28.4564 28.5523 28.4564 28C28.4564 27.4477 28.9042 27 29.4564 27L30.6889 27C32.55 27 33.9551 28.5858 33.9551 30.4103C33.9551 32.2347 32.55 33.8205 30.6889 33.8205L29.4564 33.8205C28.9042 33.8205 28.4564 33.3728 28.4564 32.8205C28.4564 32.2682 28.9042 31.8205 29.4564 31.8205L30.6889 31.8205C31.331 31.8205 31.9551 31.2481 31.9551 30.4103ZM29.343 30.4526C29.343 31.0048 28.8953 31.4526 28.343 31.4526L26.5834 31.4526C26.0311 31.4526 25.5834 31.0048 25.5834 30.4526C25.5834 29.9003 26.0311 29.4526 26.5834 29.4526L28.343 29.4526C28.8953 29.4526 29.343 29.9003 29.343 30.4526ZM26.5002 28C26.5002 28.5523 26.0524 29 25.5002 29L24.3074 29C23.6434 29 23.0015 29.5914 23.0015 30.4526C23.0015 31.3137 23.6434 31.9051 24.3074 31.9051L25.5002 31.9051C26.0524 31.9051 26.5002 32.3528 26.5002 32.9051C26.5002 33.4574 26.0524 33.9051 25.5002 33.9051L24.3074 33.9051C22.4245 33.9051 21.0015 32.3004 21.0015 30.4526C21.0015 28.6047 22.4245 27 24.3074 27L25.5002 27C26.0524 27 26.5002 27.4477 26.5002 28Z" fill="#00CF6A"/>
</g>
<defs>
<clipPath id="clip0_1_3456">
<rect width="40" height="40" fill="white"/>
</clipPath>
</defs>
</svg>
