<svg width="40" height="40" viewBox="0 0 40 40" fill="none" xmlns="http://www.w3.org/2000/svg">
<g clip-path="url(#clip0_1_5874)">
<rect width="40" height="40" fill="white"/>
<path d="M39.2129 11.449C40.2624 17.0781 40.2624 22.8026 39.2129 28.5271C38.2588 33.9654 33.9654 38.2588 28.5271 39.2129C22.898 40.2624 17.1735 40.2624 11.449 39.2129C6.01073 38.2588 1.81276 34.0608 0.858676 28.6225C-0.286225 22.9934 -0.286225 17.1735 0.858676 11.449C1.81276 6.01073 6.01073 1.81276 11.449 0.858676C17.0781 -0.286225 22.898 -0.286225 28.6225 0.858676C34.0608 1.81276 38.2588 6.01073 39.2129 11.449Z" fill="white"/>
<path fill-rule="evenodd" clip-rule="evenodd" d="M38.2293 28.3468C39.2571 22.7405 39.2565 17.1393 38.2298 11.6323L39.2129 11.449C40.2624 17.0781 40.2624 22.8026 39.2129 28.5271L38.2293 28.3468ZM28.5271 39.2129C33.9654 38.2588 38.2588 33.9654 39.2129 28.5271L38.2279 28.3543C37.3466 33.3779 33.3779 37.3466 28.3543 38.2279L28.5271 39.2129ZM11.449 39.2129C17.1735 40.2624 22.898 40.2624 28.5271 39.2129L28.3438 38.2298C22.8369 39.2565 17.2356 39.2571 11.6293 38.2293L11.449 39.2129ZM28.6225 0.858676L28.4497 1.84363C33.4733 2.72496 37.3466 6.59823 38.2279 11.6218L39.2129 11.449C38.2588 6.01073 34.0608 1.81276 28.6225 0.858676ZM11.449 0.858676C17.0781 -0.286225 22.898 -0.286225 28.6225 0.858676L28.4264 1.83926C22.8303 0.720026 17.1448 0.720683 11.6483 1.83861L11.449 0.858676ZM0.858676 11.449C1.81276 6.01073 6.01073 1.81276 11.449 0.858676L11.6218 1.84363C6.59823 2.72496 2.72496 6.59823 1.84363 11.6218L0.858676 11.449ZM0.858676 11.449L1.83926 11.6451C0.720026 17.2413 0.720683 22.9267 1.83861 28.4232L0.858676 28.6225C-0.286225 22.9934 -0.286225 17.1735 0.858676 11.449ZM0.858676 28.6225C1.81276 34.0608 6.01073 38.2588 11.449 39.2129L11.6218 38.2279C6.59823 37.3466 2.72496 33.4733 1.84363 28.4497L0.858676 28.6225Z" fill="url(#paint0_linear_1_5874)"/>
<path fill-rule="evenodd" clip-rule="evenodd" d="M11.3675 11.0427C13.2641 10.8764 15.3806 10.7998 17.7992 10.7998C20.2178 10.7998 22.3343 10.8764 24.2309 11.0427C26.8933 11.276 28.9258 13.4062 29.12 16.0448C29.1672 16.687 29.1992 17.3073 29.1992 17.7998C29.1992 18.3521 28.7515 18.7998 28.1992 18.7998C27.6469 18.7998 27.1992 18.3521 27.1992 17.7998C27.1992 17.3795 27.1713 16.8154 27.1254 16.1916C27.0012 14.5043 25.7148 13.1804 24.0562 13.035C22.4939 12.8981 20.7604 12.8231 18.7992 12.8045V28.7998H19.5992C20.1515 28.7998 20.5992 29.2475 20.5992 29.7998C20.5992 30.3521 20.1515 30.7998 19.5992 30.7998H17.7992C15.3806 30.7998 13.2641 30.7232 11.3675 30.5569C8.70756 30.3238 6.66923 28.2023 6.4271 25.5795C6.28374 24.0266 6.19922 22.4355 6.19922 20.7997C6.19922 19.164 6.28374 17.573 6.42709 16.0201C6.66923 13.3973 8.70756 11.2758 11.3675 11.0427ZM16.7992 28.7952V12.8045C14.838 12.8231 13.1046 12.8981 11.5422 13.035C9.88119 13.1806 8.57523 14.5076 8.41863 16.204C8.28016 17.7038 8.19922 19.2331 8.19922 20.7997C8.19922 22.3664 8.28016 23.8957 8.41863 25.3956C8.57523 27.092 9.8812 28.419 11.5422 28.5646C13.1046 28.7015 14.838 28.7765 16.7992 28.7952Z" fill="#0033C9"/>
<path fill-rule="evenodd" clip-rule="evenodd" d="M6.19922 17.7998C6.19922 17.2475 6.64693 16.7998 7.19922 16.7998H27.7992C28.3515 16.7998 28.7992 17.2475 28.7992 17.7998C28.7992 18.3521 28.3515 18.7998 27.7992 18.7998H7.19922C6.64693 18.7998 6.19922 18.3521 6.19922 17.7998Z" fill="#0033C9"/>
<path fill-rule="evenodd" clip-rule="evenodd" d="M23.4648 7.20075C22.7301 7.17891 22.0472 7.48467 21.6611 8.04606L18.824 12.1706C18.511 12.6256 17.8884 12.7407 17.4334 12.4277C16.9783 12.1147 16.8632 11.4921 17.1762 11.0371L20.0133 6.9126C20.8469 5.70073 22.2282 5.16311 23.5242 5.20164C24.8201 5.24016 26.1658 5.85941 26.9129 7.12646L26.1207 7.59349L26.9129 7.12646C28.0469 9.04989 27.1199 11.3506 25.1126 12.228L23.9962 12.716C23.4901 12.9372 22.9005 12.7062 22.6794 12.2002C22.4582 11.6941 22.6891 11.1046 23.1952 10.8834L24.3116 10.3954C25.3551 9.93929 25.6417 8.90829 25.19 8.14223L26.0514 7.63434L25.19 8.14223C24.8511 7.56748 24.1996 7.2226 23.4648 7.20075Z" fill="#0033C9"/>
<path fill-rule="evenodd" clip-rule="evenodd" d="M12.2723 7.20079C13.0748 7.17802 13.8091 7.49864 14.2165 8.06396L17.1886 12.1885C17.5115 12.6365 18.1365 12.738 18.5846 12.4151C19.0326 12.0922 19.1341 11.4673 18.8112 11.0192L15.839 6.89469C14.9686 5.68676 13.5404 5.164 12.2155 5.20159C10.8913 5.23917 9.49659 5.84247 8.7144 7.10884C7.50428 9.06803 8.52102 11.3742 10.5833 12.2346L11.7529 12.7226C12.2626 12.9352 12.8482 12.6944 13.0608 12.1847C13.2735 11.675 13.0327 11.0894 12.523 10.8768L11.3534 10.3888C10.2194 9.91571 9.9649 8.89015 10.416 8.15984C10.7714 7.58442 11.4691 7.22358 12.2723 7.20079Z" fill="#0033C9"/>
<path d="M29.9322 21.3186L30.5687 21.9613C30.3194 22.5441 30.4141 23.2237 30.8643 23.6783C31.3145 24.1328 31.9931 24.2341 32.5783 23.9905L33.2148 24.6332C33.8191 25.2434 33.7572 26.1133 33.1338 26.9018C31.4191 29.0709 30.0485 30.4315 27.8579 32.1269C27.0849 32.7251 26.1928 32.7961 25.5885 32.1859L24.9521 31.5433C25.2014 30.9604 25.1067 30.2808 24.6565 29.8262C24.2063 29.3716 23.5276 29.2704 22.9424 29.514L22.306 28.8714C21.7017 28.2612 21.8104 27.3899 22.3869 26.6027C24.0125 24.3832 25.4457 23.0555 27.6629 21.3776C28.396 20.8228 29.3279 20.7085 29.9322 21.3186Z" fill="#00CF6A"/>
</g>
<defs>
<linearGradient id="paint0_linear_1_5874" x1="-2.81746e-08" y1="8.19672" x2="40.9761" y2="9.50848" gradientUnits="userSpaceOnUse">
<stop stop-color="#F0F6FF"/>
<stop offset="0.635417" stop-color="#E8F0FD"/>
<stop offset="1" stop-color="#EEF4FE"/>
</linearGradient>
<clipPath id="clip0_1_5874">
<rect width="40" height="40" fill="white"/>
</clipPath>
</defs>
</svg>
