<svg width="40" height="40" viewBox="0 0 40 40" fill="none" xmlns="http://www.w3.org/2000/svg">
<g clip-path="url(#clip0_1_4535)">
<path d="M39.2129 11.449V11.449C40.2624 17.0781 40.2624 22.8026 39.2129 28.5271V28.5271C38.2588 33.9654 33.9654 38.2588 28.5271 39.2129V39.2129C22.898 40.2624 17.1735 40.2624 11.449 39.2129V39.2129C6.01073 38.2588 1.81276 34.0608 0.858676 28.6225V28.6225C-0.286225 22.9934 -0.286225 17.1735 0.858676 11.449V11.449C1.81276 6.01073 6.01073 1.81276 11.449 0.858676V0.858676C17.0781 -0.286225 22.898 -0.286225 28.6225 0.858676V0.858676C34.0608 1.81276 38.2588 6.01073 39.2129 11.449Z" fill="white"/>
<path fill-rule="evenodd" clip-rule="evenodd" d="M38.0326 28.3107C39.056 22.7281 39.0554 17.1515 38.0332 11.669L39.2128 11.449L38.0309 11.6564C37.1642 6.71573 33.3558 2.90741 28.4152 2.04062L28.6225 0.858676C34.0608 1.81276 38.2588 6.01073 39.2129 11.449C40.2624 17.0781 40.2624 22.8026 39.2129 28.5271L38.0326 28.3107ZM28.5271 39.2129C33.9654 38.2588 38.2588 33.9654 39.2129 28.5271L38.0309 28.3198C37.1642 33.2604 33.2604 37.1642 28.3198 38.0309L28.5271 39.2129ZM11.449 39.2129C17.1735 40.2624 22.898 40.2624 28.5271 39.2129L28.3072 38.0332C22.8247 39.0554 17.2481 39.056 11.6654 38.0326L11.449 39.2128L11.6564 38.0309C6.71573 37.1642 2.90741 33.3558 2.04062 28.4152L0.858676 28.6225L2.0346 28.3834C0.922065 22.9134 0.921277 17.2548 2.03537 11.6844L0.858676 11.449L2.04062 11.6564C2.90741 6.71573 6.71573 2.90741 11.6564 2.04062L11.449 0.858676L11.6882 2.0346C17.1582 0.922065 22.8167 0.921277 28.3872 2.03537L28.6225 0.858676C22.898 -0.286225 17.0781 -0.286225 11.449 0.858676C6.01073 1.81276 1.81276 6.01073 0.858676 11.449C-0.286225 17.1735 -0.286225 22.9934 0.858676 28.6225C1.81276 34.0608 6.01073 38.2588 11.449 39.2129Z" fill="#EEF4FE"/>
<path d="M18.7453 7.4488C19.5224 7.00014 20.4798 7.00014 21.2569 7.4488L30.2421 12.6366C31.0192 13.0852 31.4979 13.9144 31.4979 14.8117V25.1872C31.4979 26.0845 31.0192 26.9137 30.2421 27.3623L21.2569 32.5501C20.4798 32.9987 19.5224 32.9987 18.7453 32.5501L9.76005 27.3623C8.98297 26.9137 8.50427 26.0845 8.50427 25.1872V14.8117C8.50427 13.9144 8.98297 13.0852 9.76005 12.6366L18.7453 7.4488Z" fill="url(#paint0_linear_1_4535)"/>
<path d="M18.9278 9.28462C19.5912 8.90155 20.4087 8.90155 21.0722 9.28462L28.7441 13.7141C29.4076 14.0972 29.8163 14.8051 29.8163 15.5713V24.4302C29.8163 25.1964 29.4076 25.9043 28.7441 26.2874L21.0722 30.7169C20.4087 31.0999 19.5912 31.0999 18.9278 30.7169L11.2559 26.2874C10.5924 25.9043 10.1837 25.1964 10.1837 24.4302V15.5713C10.1837 14.8051 10.5924 14.0972 11.2559 13.7141L18.9278 9.28462Z" fill="url(#paint1_linear_1_4535)"/>
<path d="M26.4241 10.4322L21.2569 7.4488C20.4798 7.00014 19.5224 7.00014 18.7453 7.4488L9.76005 12.6366C8.98297 13.0852 8.50427 13.9144 8.50427 14.8117V25.1872C8.50427 26.0845 8.98297 26.9137 9.76005 27.3623L13.1827 29.3384L26.4241 10.4322Z" fill="url(#paint2_linear_1_4535)"/>
<path fill-rule="evenodd" clip-rule="evenodd" d="M18.4748 6.98331C19.4184 6.43851 20.5809 6.43851 21.5245 6.98331L30.5098 12.1711C31.4534 12.7159 32.0347 13.7227 32.0347 14.8123V25.1878C32.0347 26.2774 31.4534 27.2842 30.5098 27.829L21.5245 33.0168C20.5809 33.5616 19.4184 33.5616 18.4748 33.0168L9.48953 27.829C8.54594 27.2842 7.96466 26.2774 7.96466 25.1878V14.8123C7.96466 13.7227 8.54594 12.7159 9.48953 12.1711L18.4748 6.98331ZM20.9863 7.9155C20.3758 7.56298 19.6235 7.56298 19.013 7.9155L10.0277 13.1033C9.41716 13.4558 9.04104 14.1073 9.04104 14.8123V25.1878C9.04104 25.8928 9.41716 26.5443 10.0277 26.8968L19.013 32.0846C19.6235 32.4371 20.3758 32.4371 20.9863 32.0846L29.9716 26.8968C30.5822 26.5443 30.9583 25.8928 30.9583 25.1878V14.8123C30.9583 14.1073 30.5822 13.4558 29.9716 13.1033L20.9863 7.9155Z" fill="url(#paint3_linear_1_4535)"/>
<path fill-rule="evenodd" clip-rule="evenodd" d="M21.2569 7.4488C20.4798 7.00014 19.5224 7.00014 18.7453 7.4488L9.76005 12.6366C8.98297 13.0852 8.50427 13.9144 8.50427 14.8117V25.1872C8.50427 26.0845 8.98297 26.9137 9.76005 27.3623L18.7453 32.5501C19.5224 32.9987 20.4798 32.9987 21.2569 32.5501L30.2421 27.3623C31.0192 26.9137 31.4979 26.0845 31.4979 25.1872V14.8117C31.4979 13.9144 31.0192 13.0852 30.2421 12.6366L21.2569 7.4488ZM19.0144 7.91489C19.625 7.56238 20.3772 7.56238 20.9878 7.9149L29.973 13.1027C30.5836 13.4552 30.9597 14.1066 30.9597 14.8117V25.1872C30.9597 25.8922 30.5836 26.5437 29.973 26.8962L20.9878 32.084C20.3772 32.4365 19.625 32.4365 19.0144 32.084L10.0291 26.8962C9.41858 26.5437 9.04246 25.8922 9.04246 25.1872V14.8117C9.04246 14.1066 9.41858 13.4552 10.0291 13.1027L19.0144 7.91489Z" fill="url(#paint4_linear_1_4535)"/>
<mask id="mask0_1_4535" style="mask-type:alpha" maskUnits="userSpaceOnUse" x="10" y="8" width="20" height="24">
<path d="M18.9271 9.28462C19.5906 8.90155 20.4081 8.90155 21.0716 9.28462L28.7435 13.7141C29.407 14.0972 29.8157 14.8051 29.8157 15.5713V24.4302C29.8157 25.1964 29.407 25.9043 28.7435 26.2874L21.0716 30.7169C20.4081 31.0999 19.5906 31.0999 18.9271 30.7169L11.2553 26.2874C10.5918 25.9043 10.183 25.1964 10.183 24.4302V15.5713C10.183 14.8051 10.5918 14.0972 11.2553 13.7141L18.9271 9.28462Z" fill="url(#paint5_linear_1_4535)"/>
</mask>
<g mask="url(#mask0_1_4535)">
<g clip-path="url(#clip1_1_4535)">
<path opacity="0.3" d="M21.5956 8.44824C20.3212 8.857 18.9266 8.857 17.6522 8.40015L17.4358 8.54441C18.1331 8.80891 18.8785 8.92913 19.648 8.92913C20.3693 8.92913 21.0906 8.80891 21.7879 8.56846L21.5956 8.44824ZM30.6364 19.0519L29.4341 20.3744L30.6364 20.9034V20.687L29.7227 20.3023L30.6364 19.2924V19.0279V19.0519ZM8.61145 20.4465L9.54919 20.8312L8.61145 21.8892V22.1777L9.78964 20.8553L9.88582 20.7591L8.61145 20.2301V20.4465Z" fill="url(#paint6_linear_1_4535)"/>
<path opacity="0.3" d="M29.338 12.9447C29.338 12.9447 29.1215 12.7764 29.0254 12.7042L30.6604 15.9984V15.5415L29.362 12.9447H29.338ZM30.6364 17.2727L27.4625 20.8313L30.6364 22.2019V22.0095L27.775 20.7592L30.6364 17.5613V17.2727ZM19.672 31.0022C18.8545 31.0022 18.061 31.1225 17.3156 31.387L17.532 31.5072C18.2053 31.2908 18.9266 31.1946 19.672 31.1946C20.4174 31.1946 21.0666 31.2908 21.7398 31.5072L21.9322 31.387C21.2109 31.1465 20.4174 31.0263 19.648 31.0263L19.672 31.0022ZM8.61145 18.9318V19.1482L11.5449 20.3985L8.61145 23.6446V23.9331L11.7613 20.4226L11.8575 20.3264L8.61145 18.9559V18.9318ZM8.70763 25.1594C8.80381 25.6884 9.04425 26.1693 9.40492 26.578L8.70763 25.1594ZM10.2705 12.6802C10.2705 12.6802 10.1022 12.7764 10.0301 12.8485L8.61145 15.6617V16.0705L10.3427 12.6321L10.2705 12.6802ZM22.918 9.19372L22.4131 9.38608C22.4131 9.38608 22.2207 9.48226 22.1246 9.48226C21.3311 9.77079 20.4895 9.91506 19.648 9.91506C18.6862 9.91506 17.7484 9.74675 16.8828 9.38608L16.3538 9.16968L16.1615 9.26586L16.8347 9.55439C17.7484 9.91506 18.6862 10.1074 19.672 10.1074C20.5376 10.1074 21.4032 9.96315 22.2207 9.65057C22.3169 9.65057 22.4131 9.57844 22.5093 9.55439L23.1344 9.2899L22.9421 9.19372H22.918Z" fill="url(#paint7_linear_1_4535)"/>
<path opacity="0.3" d="M22.9421 30.4732C21.8841 30.0404 20.8021 29.824 19.672 29.824C18.6621 29.824 17.6763 29.9923 16.7145 30.329C16.6183 30.377 16.4981 30.4251 16.4019 30.4492L15.9932 30.6175L16.2096 30.7137L16.4741 30.6175C16.4741 30.6175 16.6905 30.5213 16.7867 30.4973C17.7004 30.1847 18.6862 29.9923 19.672 29.9923C20.7781 29.9923 21.836 30.2087 22.87 30.6175L23.0623 30.7137L23.2787 30.5934L22.9421 30.4732ZM27.0056 21.6969C26.5969 21.5286 26.1881 21.3603 25.7794 21.192L29.8189 16.6956L29.867 16.6235L27.4625 11.7905L27.1499 11.6463L29.6506 16.6235L25.4427 21.2882L25.587 21.3363C26.0439 21.5046 26.5007 21.6729 26.9095 21.8652L30.2517 23.3079L27.9434 27.9004L28.256 27.7321L30.4681 23.3079L30.5162 23.2117L27.0056 21.6729V21.6969ZM13.8773 19.8455L13.757 19.7974C13.3483 19.6531 12.9636 19.4848 12.6029 19.3405L9.06832 17.8738L12.1941 11.5501L11.8815 11.7184L8.80383 17.946L12.5308 19.5089C12.8433 19.6531 13.204 19.7974 13.5647 19.9176L9.50113 24.438L9.45304 24.4861L11.1121 27.8283L11.4247 27.9726L9.69349 24.5101L13.9013 19.8455H13.8773ZM24.2165 9.93908L22.87 10.4921C22.87 10.4921 22.6536 10.5883 22.5574 10.6123C21.6437 10.9249 20.6819 11.1173 19.6961 11.1173C18.566 11.1173 17.508 10.9009 16.4981 10.4921L15.1035 9.91504L14.8871 10.0353L16.426 10.6604C17.484 11.0932 18.566 11.3096 19.7201 11.3096C20.73 11.3096 21.7158 11.1413 22.6536 10.8047C22.7497 10.7566 22.894 10.7085 22.9902 10.6845L24.4569 10.0834L24.2646 9.96313L24.2165 9.93908Z" fill="url(#paint8_linear_1_4535)"/>
<path opacity="0.3" d="M23.3989 29.3673C22.2207 28.8864 20.9704 28.6459 19.672 28.6459C18.5178 28.6459 17.3877 28.8383 16.3298 29.223C16.1855 29.2711 16.0653 29.3192 15.9451 29.3432L14.6947 29.8482L14.9111 29.9443L16.0172 29.5115C16.1374 29.4394 16.2817 29.4154 16.4019 29.3673C17.4358 28.9826 18.5419 28.8142 19.672 28.8142C20.9223 28.8142 22.1486 29.0547 23.3027 29.5356L24.3607 29.9684L24.5771 29.8482L23.3989 29.3432V29.3673ZM26.5247 22.779C26.0919 22.5867 25.6351 22.4184 25.1782 22.2741C24.6733 22.1058 24.1683 21.9615 23.6394 21.8172L28.4242 16.5274L28.4723 16.4553L25.611 10.7567L25.5629 10.6605H25.4908L23.3027 11.5742C23.2066 11.6223 23.0623 11.6704 22.9421 11.6944C21.8841 12.0792 20.8021 12.2715 19.672 12.2715C18.3976 12.2715 17.1713 12.007 16.0172 11.5502L13.8532 10.6365H13.781L10.4148 17.3449L12.9635 18.451C13.3242 18.5953 13.7089 18.7636 14.1417 18.8838C14.6467 19.0521 15.1275 19.1964 15.6565 19.3406L10.8957 24.6545L10.8476 24.7026L12.9395 28.8864L13.2521 29.0787L11.064 24.7026L15.897 19.3166L15.9932 19.2204L15.8489 19.1723C15.2718 19.0521 14.7188 18.8838 14.1658 18.6914C13.757 18.5712 13.3723 18.4029 13.0357 18.2586L10.6552 17.2488L13.8291 10.8769L15.921 11.7425C17.0752 12.2234 18.3495 12.4639 19.6479 12.4639C20.778 12.4639 21.9081 12.2715 22.9902 11.8868C23.1104 11.8387 23.2546 11.7906 23.3749 11.7666L25.4668 10.901L28.2078 16.4312L23.3989 21.8172L23.3027 21.9134L23.447 21.9615C24 22.0817 24.5771 22.25 25.1061 22.4424C25.587 22.5867 26.0198 22.779 26.4285 22.9473L28.6166 23.8851L26.0679 28.9826L26.3805 28.8142L28.833 23.8851L28.8811 23.7889L26.5247 22.755V22.779Z" fill="url(#paint9_linear_1_4535)"/>
<path opacity="0.3" d="M26.0439 23.8371C25.6351 23.6688 25.2023 23.5004 24.7695 23.3321C23.6394 22.9715 22.4852 22.707 21.3311 22.5868L26.9816 16.3111L27.0297 16.263L24.9618 12.1514L23.7356 12.6563C23.6153 12.7284 23.447 12.7525 23.3028 12.8246C22.1486 13.2334 20.8983 13.4498 19.648 13.4498C18.2293 13.4498 16.8588 13.1853 15.5363 12.6563L14.4062 12.1754H14.3101L12.0018 16.7679L13.4204 17.345C13.733 17.4893 14.1177 17.6576 14.5024 17.7778C15.6325 18.1385 16.7867 18.403 17.9408 18.5232L12.2903 24.7989L12.2422 24.871L14.3101 28.9586L15.5363 28.4536C15.6806 28.3815 15.8249 28.3575 15.9691 28.2853C17.1473 27.8766 18.3736 27.6602 19.648 27.6602C21.0666 27.6602 22.4372 27.9247 23.7356 28.4536L24.8897 28.9345H24.9859L27.222 24.4622L27.2701 24.3661L26.0439 23.8371ZM24.8897 28.7181L23.8077 28.2853C22.4852 27.7564 21.0907 27.4678 19.648 27.4678C18.3496 27.4678 17.0992 27.6842 15.897 28.117C15.7527 28.1892 15.5844 28.2132 15.4642 28.2853L14.3822 28.7181L12.4586 24.895L18.3255 18.3789H18.1332C16.9069 18.2587 15.7046 17.9942 14.5505 17.5855C14.1658 17.4652 13.8292 17.321 13.4685 17.1767L12.2422 16.6718L14.3822 12.4159L15.4642 12.8487C16.7867 13.4017 18.2053 13.6662 19.648 13.6662C20.9223 13.6662 22.1967 13.4498 23.3749 13.017C23.5192 12.9689 23.6875 12.9208 23.8077 12.8487L24.8897 12.4159L26.8133 16.239L20.9704 22.7551H21.1628C22.365 22.8753 23.5673 23.1398 24.7214 23.5485C25.1542 23.6928 25.587 23.8611 25.9717 24.0294L27.0297 24.5103L24.8897 28.7422V28.7181Z" fill="url(#paint10_linear_1_4535)"/>
<path d="M24.2405 24.4384C22.1246 23.7171 20.177 23.5969 18.566 23.7411L24.2405 17.4174L25.3466 16.1911L24.2405 13.979L24.0963 14.0271C23.952 14.0992 23.7837 14.1473 23.6394 14.1954C22.365 14.6523 21.0185 14.8927 19.672 14.8927C18.1332 14.8927 16.6424 14.6042 15.2238 14.0271L15.0795 13.979L13.9494 16.2392L14.1177 16.3113C14.4303 16.4556 14.7669 16.5758 15.0795 16.672C16.5462 17.1769 18.0851 17.4174 19.648 17.4174C20.0087 17.4174 20.3934 17.4174 20.754 17.3693L15.0795 23.693L13.9734 24.9193L15.0795 27.1314L15.2238 27.0833C15.368 27.0112 15.5363 26.9631 15.6806 26.915C16.955 26.4582 18.3015 26.2177 19.648 26.2177C21.1868 26.2177 22.6776 26.5063 24.0963 27.0833L24.2405 27.1314L25.3706 24.8712C24.9859 24.7029 24.6012 24.5587 24.2405 24.4384Z" fill="#006725" fill-opacity="0.64"/>
</g>
</g>
</g>
<defs>
<linearGradient id="paint0_linear_1_4535" x1="26.4946" y1="31.2449" x2="15.0114" y2="8.82095" gradientUnits="userSpaceOnUse">
<stop stop-color="#086333"/>
<stop offset="1" stop-color="#039844"/>
</linearGradient>
<linearGradient id="paint1_linear_1_4535" x1="17.5531" y1="33.0934" x2="10.2776" y2="10.9428" gradientUnits="userSpaceOnUse">
<stop stop-color="#24A062"/>
<stop offset="0.547524" stop-color="#1FC571"/>
<stop offset="1" stop-color="#08F067"/>
</linearGradient>
<linearGradient id="paint2_linear_1_4535" x1="12.1697" y1="6.78303" x2="15.4663" y2="29.5831" gradientUnits="userSpaceOnUse">
<stop stop-color="#C5FFB6" stop-opacity="0.55"/>
<stop offset="0.292441" stop-color="#D4FEAA" stop-opacity="0.393926"/>
<stop offset="1" stop-color="#AEFB8A" stop-opacity="0"/>
</linearGradient>
<linearGradient id="paint3_linear_1_4535" x1="26.7972" y1="31.7151" x2="14.8683" y2="8.30791" gradientUnits="userSpaceOnUse">
<stop stop-color="#1EC36D"/>
<stop offset="1" stop-color="#99FFC6"/>
</linearGradient>
<linearGradient id="paint4_linear_1_4535" x1="26.4946" y1="31.2449" x2="15.0114" y2="8.82095" gradientUnits="userSpaceOnUse">
<stop stop-color="#1A9053"/>
<stop offset="1" stop-color="#24DE75"/>
</linearGradient>
<linearGradient id="paint5_linear_1_4535" x1="17.5525" y1="33.0934" x2="10.277" y2="10.9428" gradientUnits="userSpaceOnUse">
<stop stop-color="#24A062"/>
<stop offset="0.547524" stop-color="#1FC571"/>
<stop offset="1" stop-color="#08F067"/>
</linearGradient>
<linearGradient id="paint6_linear_1_4535" x1="18.6927" y1="24.2517" x2="24.8438" y2="8.67027" gradientUnits="userSpaceOnUse">
<stop stop-color="#0F673C"/>
<stop offset="0.539408" stop-color="#D5D5D5"/>
<stop offset="0.746741" stop-color="#0F663B"/>
</linearGradient>
<linearGradient id="paint7_linear_1_4535" x1="18.7037" y1="34.8697" x2="31.9552" y2="14.1429" gradientUnits="userSpaceOnUse">
<stop stop-color="#0F673C"/>
<stop offset="0.539408" stop-color="#D5D5D5"/>
<stop offset="0.746741" stop-color="#0F663B"/>
</linearGradient>
<linearGradient id="paint8_linear_1_4535" x1="18.742" y1="33.8445" x2="30.7787" y2="13.9335" gradientUnits="userSpaceOnUse">
<stop stop-color="#0F673C"/>
<stop offset="0.539408" stop-color="#D5D5D5"/>
<stop offset="0.746741" stop-color="#0F663B"/>
</linearGradient>
<linearGradient id="paint9_linear_1_4535" x1="18.8672" y1="32.8784" x2="30.4894" y2="15.2867" gradientUnits="userSpaceOnUse">
<stop stop-color="#0F673C"/>
<stop offset="0.539408" stop-color="#D5D5D5"/>
<stop offset="0.746741" stop-color="#0F663B"/>
</linearGradient>
<linearGradient id="paint10_linear_1_4535" x1="18.9904" y1="31.4886" x2="29.2847" y2="16.67" gradientUnits="userSpaceOnUse">
<stop stop-color="#0F673C"/>
<stop offset="0.539408" stop-color="#D5D5D5"/>
<stop offset="0.746741" stop-color="#0F663B"/>
</linearGradient>
<clipPath id="clip0_1_4535">
<rect width="40" height="40" fill="white"/>
</clipPath>
<clipPath id="clip1_1_4535">
<rect width="21.097" height="23.0149" fill="white" transform="translate(9.88336 8.49243)"/>
</clipPath>
</defs>
</svg>
