<svg width="40" height="40" viewBox="0 0 40 40" fill="none" xmlns="http://www.w3.org/2000/svg">
<g clip-path="url(#clip0_1_6245)">
<path d="M39.2129 11.449V11.449C40.2624 17.0781 40.2624 22.8026 39.2129 28.5271V28.5271C38.2588 33.9654 33.9654 38.2588 28.5271 39.2129V39.2129C22.898 40.2624 17.1735 40.2624 11.449 39.2129V39.2129C6.01073 38.2588 1.81276 34.0608 0.858676 28.6225V28.6225C-0.286225 22.9934 -0.286225 17.1735 0.858676 11.449V11.449C1.81276 6.01073 6.01073 1.81276 11.449 0.858676V0.858676C17.0781 -0.286225 22.898 -0.286225 28.6225 0.858676V0.858676C34.0608 1.81276 38.2588 6.01073 39.2129 11.449Z" fill="white"/>
<path fill-rule="evenodd" clip-rule="evenodd" d="M38.2293 28.3468C39.2571 22.7405 39.2565 17.1393 38.2298 11.6323L39.2129 11.449C40.2624 17.0781 40.2624 22.8026 39.2129 28.5271L38.2293 28.3468ZM28.5271 39.2129C33.9654 38.2588 38.2588 33.9654 39.2129 28.5271L38.2279 28.3543C37.3466 33.3779 33.3779 37.3466 28.3543 38.2279L28.5271 39.2129ZM11.449 39.2129C17.1735 40.2624 22.898 40.2624 28.5271 39.2129L28.3438 38.2298C22.8369 39.2565 17.2356 39.2571 11.6293 38.2293L11.449 39.2129ZM28.6225 0.858676L28.4497 1.84363C33.4733 2.72496 37.3466 6.59823 38.2279 11.6218L39.2129 11.449C38.2588 6.01073 34.0608 1.81276 28.6225 0.858676ZM11.449 0.858676C17.0781 -0.286225 22.898 -0.286225 28.6225 0.858676L28.4264 1.83926C22.8303 0.720026 17.1448 0.720683 11.6483 1.83861L11.449 0.858676ZM0.858676 11.449C1.81276 6.01073 6.01073 1.81276 11.449 0.858676L11.6218 1.84363C6.59823 2.72496 2.72496 6.59823 1.84363 11.6218L0.858676 11.449ZM0.858676 11.449L1.83926 11.6451C0.720026 17.2413 0.720683 22.9267 1.83861 28.4232L0.858676 28.6225C-0.286225 22.9934 -0.286225 17.1735 0.858676 11.449ZM0.858676 28.6225C1.81276 34.0608 6.01073 38.2588 11.449 39.2129L11.6218 38.2279C6.59823 37.3466 2.72496 33.4733 1.84363 28.4497L0.858676 28.6225Z" fill="#EEF4FE"/>
<path d="M32.2694 31.2781L26.8191 32.269L27.5552 31.533C28.0404 31.0477 28.3402 30.4126 28.3625 29.7267C28.4292 27.6721 28.4148 22.4801 27.3146 12.9453H30.783L33.2604 29.7916L32.2694 31.2781Z" fill="#00CF6A"/>
<path d="M10.7852 11.8854C19.9192 11.4829 23.6088 11.4687 29.5205 11.8483C30.8209 11.932 31.9428 12.8448 32.2451 14.1393C33.6203 20.0282 34.0564 26.0723 34.1953 29.3181C34.277 31.2281 32.9366 32.8867 31.0205 33.154C27.126 33.6969 18.9309 34.4617 9.33984 33.1462C7.39577 32.8794 5.9855 31.1939 6.02539 29.2477C6.17023 22.1814 6.93336 17.4911 8.08301 13.9108C8.47006 12.7059 9.58093 11.9385 10.7852 11.8854ZM29.3916 13.8444C23.5811 13.4713 19.9715 13.4825 10.873 13.8835C10.4436 13.9024 10.1003 14.1712 9.98731 14.5231C8.91625 17.8589 8.16681 22.3414 8.02442 29.2888C8.00501 30.2357 8.68866 31.0379 9.61133 31.1647C18.9615 32.4473 26.961 31.7 30.7441 31.1725C31.6169 31.0507 32.2357 30.3073 32.1973 29.404C32.0606 26.2096 31.632 20.3063 30.2979 14.5934C30.2019 14.1829 29.8385 13.8731 29.3916 13.8444Z" fill="#0033C9"/>
<path d="M15.9278 11.9551C15.9278 9.77099 17.6979 8.00015 19.8819 8C22.0661 8 23.837 9.7709 23.837 11.9551C23.8372 12.5072 24.2848 12.9551 24.837 12.9551C25.3892 12.9551 25.8369 12.5072 25.837 11.9551C25.837 8.66633 23.1707 6 19.8819 6C16.5933 6.00015 13.9278 8.66642 13.9278 11.9551C13.928 12.5072 14.3756 12.9551 14.9278 12.9551C15.4798 12.9548 15.9277 12.5071 15.9278 11.9551Z" fill="#0033CC"/>
<path d="M14.8221 16.9523C15.3455 16.7759 15.9123 17.0569 16.0887 17.5803L16.8212 19.7512C16.9973 20.2743 16.7162 20.8412 16.1932 21.0178C15.6699 21.1942 15.1021 20.9132 14.9256 20.3898L14.1942 18.2189C14.0178 17.6956 14.2988 17.1288 14.8221 16.9523Z" fill="#0033CC"/>
<path d="M18.4791 16.9523C19.0024 16.7759 19.5692 17.0569 19.7457 17.5803L20.4781 19.7512C20.6543 20.2743 20.3731 20.8412 19.8502 21.0178C19.3268 21.1942 18.759 20.9132 18.5826 20.3898L17.8512 18.2189C17.6747 17.6956 17.9557 17.1288 18.4791 16.9523Z" fill="#0033CC"/>
<path d="M21.7884 22.5867C22.1975 22.2161 22.8297 22.2471 23.2005 22.656C23.5714 23.0652 23.5404 23.6982 23.1311 24.0691C21.144 25.87 18.7299 26.4369 16.6761 26.2702C15.6511 26.1871 14.6914 25.9201 13.8977 25.5105C13.1173 25.1076 12.4224 24.5264 12.0491 23.7712C11.8045 23.2762 12.0073 22.6761 12.5022 22.4314C12.9973 22.1867 13.5973 22.3896 13.8421 22.8845C13.9643 23.1317 14.2674 23.4506 14.8147 23.7331C15.3489 24.0089 16.0478 24.2129 16.8382 24.2771C18.4153 24.405 20.2628 23.9693 21.7884 22.5867Z" fill="#0033CC"/>
<path d="M21.691 21.1646C21.8868 20.6483 22.4637 20.3888 22.98 20.5845C23.4963 20.7804 23.7568 21.3573 23.5611 21.8736C23.4412 22.1896 23.4085 22.6292 23.5708 22.9625C23.6965 23.2203 24.0585 23.6585 25.2857 23.7799C25.8352 23.8342 26.2365 24.324 26.1822 24.8736C26.1278 25.4232 25.638 25.8244 25.0884 25.7701C23.3887 25.6019 22.2868 24.8951 21.772 23.8385C21.2941 22.8573 21.4449 21.8134 21.691 21.1646Z" fill="#0033CC"/>
</g>
<defs>
<clipPath id="clip0_1_6245">
<rect width="40" height="40" fill="white"/>
</clipPath>
</defs>
</svg>
