<svg width="40" height="40" viewBox="0 0 40 40" fill="none" xmlns="http://www.w3.org/2000/svg">
<g clip-path="url(#clip0_1_4754)">
<path d="M39.2129 11.449V11.449C40.2624 17.0781 40.2624 22.8026 39.2129 28.5271V28.5271C38.2588 33.9654 33.9654 38.2588 28.5271 39.2129V39.2129C22.898 40.2624 17.1735 40.2624 11.449 39.2129V39.2129C6.01073 38.2588 1.81276 34.0608 0.858676 28.6225V28.6225C-0.286225 22.9934 -0.286225 17.1735 0.858676 11.449V11.449C1.81276 6.01073 6.01073 1.81276 11.449 0.858676V0.858676C17.0781 -0.286225 22.898 -0.286225 28.6225 0.858676V0.858676C34.0608 1.81276 38.2588 6.01073 39.2129 11.449Z" fill="white"/>
<path fill-rule="evenodd" clip-rule="evenodd" d="M38.2293 28.3468C39.2571 22.7405 39.2565 17.1393 38.2298 11.6323L39.2129 11.449C40.2624 17.0781 40.2624 22.8026 39.2129 28.5271L38.2293 28.3468ZM28.5271 39.2129C33.9654 38.2588 38.2588 33.9654 39.2129 28.5271L38.2279 28.3543C37.3466 33.3779 33.3779 37.3466 28.3543 38.2279L28.5271 39.2129ZM11.449 39.2129C17.1735 40.2624 22.898 40.2624 28.5271 39.2129L28.3438 38.2298C22.8369 39.2565 17.2356 39.2571 11.6293 38.2293L11.449 39.2129ZM28.6225 0.858676L28.4497 1.84363C33.4733 2.72496 37.3466 6.59823 38.2279 11.6218L39.2129 11.449C38.2588 6.01073 34.0608 1.81276 28.6225 0.858676ZM11.449 0.858676C17.0781 -0.286225 22.898 -0.286225 28.6225 0.858676L28.4264 1.83926C22.8303 0.720026 17.1448 0.720683 11.6483 1.83861L11.449 0.858676ZM0.858676 11.449C1.81276 6.01073 6.01073 1.81276 11.449 0.858676L11.6218 1.84363C6.59823 2.72496 2.72496 6.59823 1.84363 11.6218L0.858676 11.449ZM0.858676 11.449L1.83926 11.6451C0.720026 17.2413 0.720683 22.9267 1.83861 28.4232L0.858676 28.6225C-0.286225 22.9934 -0.286225 17.1735 0.858676 11.449ZM0.858676 28.6225C1.81276 34.0608 6.01073 38.2588 11.449 39.2129L11.6218 38.2279C6.59823 37.3466 2.72496 33.4733 1.84363 28.4497L0.858676 28.6225Z" fill="#EEF4FE"/>
<path d="M15.2427 30.8429C17.0336 30.8429 18.4854 29.391 18.4854 27.6001H11.9999C11.9999 29.391 13.4517 30.8429 15.2427 30.8429Z" fill="white"/>
<path fill-rule="evenodd" clip-rule="evenodd" d="M10.9999 27.6001C10.9999 27.0478 11.4476 26.6001 11.9999 26.6001H18.4854C19.0377 26.6001 19.4854 27.0478 19.4854 27.6001C19.4854 29.9433 17.5859 31.8429 15.2427 31.8429C12.8994 31.8429 10.9999 29.9433 10.9999 27.6001ZM13.2346 28.6001C13.6022 29.3368 14.3633 29.8429 15.2427 29.8429C16.122 29.8429 16.8831 29.3368 17.2507 28.6001H13.2346Z" fill="#0033C9"/>
<path d="M29.643 30.9546C31.434 30.9546 32.8858 29.5027 32.8858 27.7118C32.8858 25.9208 31.434 24.469 29.643 24.469C27.8521 24.469 26.4003 25.9208 26.4003 27.7118C26.4003 29.5027 27.8521 30.9546 29.643 30.9546Z" fill="white"/>
<path fill-rule="evenodd" clip-rule="evenodd" d="M29.643 25.469C28.4044 25.469 27.4003 26.4731 27.4003 27.7118C27.4003 28.9504 28.4044 29.9546 29.643 29.9546C30.8817 29.9546 31.8858 28.9504 31.8858 27.7118C31.8858 26.4731 30.8817 25.469 29.643 25.469ZM25.4003 27.7118C25.4003 25.3686 27.2998 23.469 29.643 23.469C31.9863 23.469 33.8858 25.3686 33.8858 27.7118C33.8858 30.055 31.9863 31.9546 29.643 31.9546C27.2998 31.9546 25.4003 30.055 25.4003 27.7118Z" fill="#0033C9"/>
<path fill-rule="evenodd" clip-rule="evenodd" d="M14.0703 13.0326L14.0703 11C14.0703 10.4477 14.518 10 15.0703 10C15.6226 10 16.0703 10.4477 16.0703 11L16.0703 13.0326C16.0703 13.5848 15.6226 14.0326 15.0703 14.0326C14.518 14.0326 14.0703 13.5848 14.0703 13.0326Z" fill="#0033C9"/>
<path fill-rule="evenodd" clip-rule="evenodd" d="M23.7655 24.2761C23.7655 24.8284 23.3178 25.2761 22.7655 25.2761L7.37673 25.2761C6.82444 25.2761 6.37673 24.8284 6.37673 24.2761C6.37673 23.7238 6.82444 23.2761 7.37673 23.2761L22.7655 23.2761C23.3178 23.2761 23.7655 23.7238 23.7655 24.2761Z" fill="#0033C9"/>
<path d="M7.20726 19.6602C7.13449 20.3568 7.71128 20.9273 8.41165 20.9273H21.727C22.4274 20.9273 23.0042 20.3568 22.9314 19.6602C22.4845 15.3821 19.7027 13.0015 15.0693 13.0015C10.4359 13.0015 7.65417 15.3821 7.20726 19.6602Z" fill="#00CF6A"/>
<path fill-rule="evenodd" clip-rule="evenodd" d="M8.92158 13.9643C10.4799 12.6409 12.5861 12.0015 15.0699 12.0015C17.5536 12.0015 19.6599 12.6409 21.2182 13.9643C22.7842 15.2943 23.6823 17.2178 23.9265 19.5563C24.0684 20.9141 22.9475 21.9273 21.7276 21.9273H8.41219C7.19226 21.9273 6.07137 20.9141 6.21321 19.5563C6.45751 17.2178 7.35557 15.2943 8.92158 13.9643ZM10.2162 15.4888C9.12128 16.4187 8.40501 17.8245 8.20239 19.7641C8.19891 19.7975 8.20669 19.8265 8.23811 19.859C8.27386 19.8958 8.33471 19.9273 8.41219 19.9273H21.7276C21.805 19.9273 21.8659 19.8958 21.9017 19.859C21.9331 19.8265 21.9409 19.7975 21.9374 19.7641C21.7348 17.8245 21.0185 16.4187 19.9235 15.4888C18.8209 14.5523 17.2195 14.0015 15.0699 14.0015C12.9202 14.0015 11.3189 14.5523 10.2162 15.4888Z" fill="#0033C9"/>
<path fill-rule="evenodd" clip-rule="evenodd" d="M29.4673 24.7633C28.9353 24.9115 28.3838 24.6005 28.2356 24.0684L24.9221 12.1791L22.1758 9.98067C21.7446 9.63553 21.6749 9.00622 22.02 8.57506C22.3652 8.1439 22.9945 8.07417 23.4256 8.41931L26.4238 10.8193C26.5875 10.9504 26.7058 11.1295 26.7621 11.3315L30.1621 23.5315C30.3104 24.0635 29.9993 24.615 29.4673 24.7633Z" fill="#0033C9"/>
<path fill-rule="evenodd" clip-rule="evenodd" d="M26.5975 15.2C26.5975 14.6477 27.0452 14.2 27.5975 14.2H29.7975C30.3498 14.2 30.7975 14.6477 30.7975 15.2C30.7975 15.7522 30.3498 16.2 29.7975 16.2H27.5975C27.0452 16.2 26.5975 15.7522 26.5975 15.2Z" fill="#0033C9"/>
</g>
<defs>
<clipPath id="clip0_1_4754">
<rect width="40" height="40" fill="white"/>
</clipPath>
</defs>
</svg>
