<svg width="40" height="40" viewBox="0 0 40 40" fill="none" xmlns="http://www.w3.org/2000/svg">
<g clip-path="url(#clip0_1_3742)">
<path d="M39.2129 11.449V11.449C40.2624 17.0781 40.2624 22.8026 39.2129 28.5271V28.5271C38.2588 33.9654 33.9654 38.2588 28.5271 39.2129V39.2129C22.898 40.2624 17.1735 40.2624 11.449 39.2129V39.2129C6.01073 38.2588 1.81276 34.0608 0.858676 28.6225V28.6225C-0.286225 22.9934 -0.286225 17.1735 0.858676 11.449V11.449C1.81276 6.01073 6.01073 1.81276 11.449 0.858676V0.858676C17.0781 -0.286225 22.898 -0.286225 28.6225 0.858676V0.858676C34.0608 1.81276 38.2588 6.01073 39.2129 11.449Z" fill="white"/>
<path fill-rule="evenodd" clip-rule="evenodd" d="M38.2293 28.3468C39.2571 22.7405 39.2565 17.1393 38.2298 11.6323L39.2129 11.449C40.2624 17.0781 40.2624 22.8026 39.2129 28.5271L38.2293 28.3468ZM28.5271 39.2129C33.9654 38.2588 38.2588 33.9654 39.2129 28.5271L38.2279 28.3543C37.3466 33.3779 33.3779 37.3466 28.3543 38.2279L28.5271 39.2129ZM11.449 39.2129C17.1735 40.2624 22.898 40.2624 28.5271 39.2129L28.3438 38.2298C22.8369 39.2565 17.2356 39.2571 11.6293 38.2293L11.449 39.2129ZM28.6225 0.858676L28.4497 1.84363C33.4733 2.72496 37.3466 6.59823 38.2279 11.6218L39.2129 11.449C38.2588 6.01073 34.0608 1.81276 28.6225 0.858676ZM11.449 0.858676C17.0781 -0.286225 22.898 -0.286225 28.6225 0.858676L28.4264 1.83926C22.8303 0.720026 17.1448 0.720683 11.6483 1.83861L11.449 0.858676ZM0.858676 11.449C1.81276 6.01073 6.01073 1.81276 11.449 0.858676L11.6218 1.84363C6.59823 2.72496 2.72496 6.59823 1.84363 11.6218L0.858676 11.449ZM0.858676 11.449L1.83926 11.6451C0.720026 17.2413 0.720683 22.9267 1.83861 28.4232L0.858676 28.6225C-0.286225 22.9934 -0.286225 17.1735 0.858676 11.449ZM0.858676 28.6225C1.81276 34.0608 6.01073 38.2588 11.449 39.2129L11.6218 38.2279C6.59823 37.3466 2.72496 33.4733 1.84363 28.4497L0.858676 28.6225Z" fill="#EEF4FE"/>
<path d="M12.6543 23.5097C13.146 23.7613 13.3406 24.3638 13.0891 24.8555L10.4763 29.9623C9.99965 30.8939 10.6762 32 11.7226 32H28.4742C29.5206 32 30.1971 30.8939 29.7205 29.9623L27.1077 24.8555C26.8561 24.3638 27.0508 23.7613 27.5425 23.5097C28.0341 23.2582 28.6366 23.4528 28.8882 23.9445L31.501 29.0514C32.6585 31.3137 31.0154 34 28.4742 34H11.7226C9.18134 34 7.53828 31.3137 8.69577 29.0514L11.3086 23.9445C11.5601 23.4528 12.1626 23.2582 12.6543 23.5097Z" fill="#0033C9"/>
<path fill-rule="evenodd" clip-rule="evenodd" d="M19.4859 27.8579L19.482 27.8555L19.4752 27.8514L19.453 27.8379C19.4345 27.8265 19.4086 27.8104 19.3758 27.7897C19.3102 27.7482 19.2168 27.6881 19.0998 27.6098C18.8658 27.4531 18.5363 27.2232 18.1431 26.9232C17.3582 26.3243 16.3115 25.4399 15.2625 24.2951C13.1764 22.0185 10.9998 18.6202 10.9998 14.3312C10.9998 12.2436 11.9411 9.78379 13.6885 8.27155C15.3838 6.80452 17.6558 6 19.9998 6C22.3438 6 24.6157 6.80452 26.311 8.27155C28.0585 9.78379 28.9998 12.2436 28.9998 14.3312C28.9998 18.6202 26.8231 22.0185 24.737 24.2951C23.688 25.4399 22.6413 26.3243 21.8564 26.9232C21.4632 27.2232 21.1337 27.4531 20.8997 27.6098C20.7827 27.6881 20.6894 27.7482 20.6237 27.7897C20.5909 27.8104 20.565 27.8265 20.5465 27.8379L20.5243 27.8514L20.5175 27.8555L20.5136 27.8579C20.1972 28.0474 19.8023 28.0474 19.4859 27.8579ZM20.5136 27.8579L20.001 27.0021C20.2572 27.4299 20.3853 27.6439 20.4493 27.7509C20.5125 27.8565 20.5134 27.858 20.5136 27.8579ZM19.9998 27L19.4859 27.8579C19.4861 27.858 19.487 27.8565 19.5502 27.7508C19.6144 27.6436 19.7428 27.4291 19.9998 27ZM19.9998 25.8027C19.8216 25.6788 19.6037 25.5219 19.3564 25.3332C18.6413 24.7875 17.688 23.9816 16.737 22.9439C14.8231 20.8552 12.9998 17.9192 12.9998 14.3312C12.9998 12.7467 13.7442 10.8683 14.9973 9.78389C16.3026 8.65427 18.1003 8 19.9998 8C21.8992 8 23.6969 8.65427 25.0022 9.78389C26.2553 10.8683 26.9998 12.7467 26.9998 14.3312C26.9998 17.9192 25.1764 20.8552 23.2625 22.9439C22.3115 23.9816 21.3582 24.7875 20.6431 25.3332C20.3958 25.5219 20.1779 25.6788 19.9998 25.8027Z" fill="#0033C9"/>
<path d="M23.3996 14.4012C23.3996 16.279 21.8774 17.8012 19.9996 17.8012C18.1218 17.8012 16.5996 16.279 16.5996 14.4012C16.5996 12.5235 18.1218 11.0012 19.9996 11.0012C21.8774 11.0012 23.3996 12.5235 23.3996 14.4012Z" fill="#00CF6A"/>
</g>
<defs>
<clipPath id="clip0_1_3742">
<rect width="40" height="40" fill="white"/>
</clipPath>
</defs>
</svg>
