<svg width="40" height="40" viewBox="0 0 40 40" fill="none" xmlns="http://www.w3.org/2000/svg">
<g clip-path="url(#clip0_1_4638)">
<path d="M39.2129 11.449V11.449C40.2624 17.0781 40.2624 22.8026 39.2129 28.5271V28.5271C38.2588 33.9654 33.9654 38.2588 28.5271 39.2129V39.2129C22.898 40.2624 17.1735 40.2624 11.449 39.2129V39.2129C6.01073 38.2588 1.81276 34.0608 0.858676 28.6225V28.6225C-0.286225 22.9934 -0.286225 17.1735 0.858676 11.449V11.449C1.81276 6.01073 6.01073 1.81276 11.449 0.858676V0.858676C17.0781 -0.286225 22.898 -0.286225 28.6225 0.858676V0.858676C34.0608 1.81276 38.2588 6.01073 39.2129 11.449Z" fill="white"/>
<path fill-rule="evenodd" clip-rule="evenodd" d="M38.2293 28.3468C39.2571 22.7405 39.2565 17.1393 38.2298 11.6323L39.2129 11.449C40.2624 17.0781 40.2624 22.8026 39.2129 28.5271L38.2293 28.3468ZM28.5271 39.2129C33.9654 38.2588 38.2588 33.9654 39.2129 28.5271L38.2279 28.3543C37.3466 33.3779 33.3779 37.3466 28.3543 38.2279L28.5271 39.2129ZM11.449 39.2129C17.1735 40.2624 22.898 40.2624 28.5271 39.2129L28.3438 38.2298C22.8369 39.2565 17.2356 39.2571 11.6293 38.2293L11.449 39.2129ZM28.6225 0.858676L28.4497 1.84363C33.4733 2.72496 37.3466 6.59823 38.2279 11.6218L39.2129 11.449C38.2588 6.01073 34.0608 1.81276 28.6225 0.858676ZM11.449 0.858676C17.0781 -0.286225 22.898 -0.286225 28.6225 0.858676L28.4264 1.83926C22.8303 0.720026 17.1448 0.720683 11.6483 1.83861L11.449 0.858676ZM0.858676 11.449C1.81276 6.01073 6.01073 1.81276 11.449 0.858676L11.6218 1.84363C6.59823 2.72496 2.72496 6.59823 1.84363 11.6218L0.858676 11.449ZM0.858676 11.449L1.83926 11.6451C0.720026 17.2413 0.720683 22.9267 1.83861 28.4232L0.858676 28.6225C-0.286225 22.9934 -0.286225 17.1735 0.858676 11.449ZM0.858676 28.6225C1.81276 34.0608 6.01073 38.2588 11.449 39.2129L11.6218 38.2279C6.59823 37.3466 2.72496 33.4733 1.84363 28.4497L0.858676 28.6225Z" fill="#EEF4FE"/>
<path fill-rule="evenodd" clip-rule="evenodd" d="M22.0995 8.53064C22.0306 8.53862 21.9616 8.54661 21.8926 8.55459C21.3937 8.61227 20.9952 9.01259 20.9396 9.50769C20.9359 9.54084 20.9322 9.57398 20.9285 9.60712C20.7644 11.0686 20.6016 12.5197 20.6016 13.9999C20.6016 14.5522 20.1538 14.9999 19.6016 14.9999C19.0493 14.9999 18.6016 14.5522 18.6016 13.9999C18.6016 12.4059 18.7755 10.8572 18.9365 9.42323C18.9417 9.37694 18.9469 9.33077 18.9521 9.28473C19.1119 7.86005 20.2429 6.73198 21.663 6.56782C21.7415 6.55875 21.8203 6.5496 21.8995 6.54041C23.3095 6.37683 24.8342 6.19995 26.4016 6.19995C27.969 6.19995 29.4936 6.37683 30.9036 6.54041C30.9828 6.5496 31.0617 6.55875 31.1402 6.56782C32.5602 6.73198 33.6912 7.86005 33.851 9.28473C33.8562 9.33078 33.8614 9.37696 33.8666 9.42325C34.0276 10.8572 34.2016 12.4059 34.2016 13.9999C34.2016 15.594 34.0276 17.1427 33.8666 18.5767C33.8614 18.6229 33.8562 18.6691 33.851 18.7152C33.6912 20.1399 32.5602 21.2679 31.1401 21.4321C31.0648 21.4408 30.989 21.4496 30.913 21.4584C29.9398 21.5713 28.9116 21.6905 27.8616 21.7537C27.3103 21.7869 26.8365 21.3668 26.8034 20.8156C26.7702 20.2643 27.1902 19.7905 27.7415 19.7573C28.7337 19.6976 29.7094 19.5845 30.6927 19.4705C30.7652 19.4621 30.8378 19.4537 30.9104 19.4453C31.4095 19.3876 31.808 18.9873 31.8635 18.4922L31.8747 18.3928C32.0387 16.9313 32.2016 15.4802 32.2016 13.9999C32.2016 12.5197 32.0387 11.0686 31.8747 9.60713L31.8635 9.50769C31.808 9.01259 31.4095 8.61227 30.9105 8.55459C30.8415 8.54661 30.7726 8.53862 30.7037 8.53064C29.2691 8.36442 27.8497 8.19995 26.4016 8.19995C24.9534 8.19995 23.534 8.36442 22.0995 8.53064Z" fill="#0033C9"/>
<path fill-rule="evenodd" clip-rule="evenodd" d="M24.8008 10.3999C25.3531 10.3999 25.8008 10.8476 25.8008 11.3999V17.1999C25.8008 17.7522 25.3531 18.1999 24.8008 18.1999C24.2485 18.1999 23.8008 17.7522 23.8008 17.1999V11.3999C23.8008 10.8476 24.2485 10.3999 24.8008 10.3999Z" fill="#00CF6A"/>
<path fill-rule="evenodd" clip-rule="evenodd" d="M23.8008 11.2C23.8008 10.6477 24.2485 10.2 24.8008 10.2H26.8008C27.5964 10.2 28.3595 10.516 28.9221 11.0786C29.4847 11.6412 29.8008 12.4043 29.8008 13.2C29.8008 13.9956 29.4847 14.7587 28.9221 15.3213C28.3595 15.8839 27.5964 16.2 26.8008 16.2H24.8008C24.2485 16.2 23.8008 15.7522 23.8008 15.2C23.8008 14.6477 24.2485 14.2 24.8008 14.2H26.8008C27.066 14.2 27.3204 14.0946 27.5079 13.9071C27.6954 13.7195 27.8008 13.4652 27.8008 13.2C27.8008 12.9347 27.6954 12.6804 27.5079 12.4928C27.3204 12.3053 27.066 12.2 26.8008 12.2H24.8008C24.2485 12.2 23.8008 11.7522 23.8008 11.2Z" fill="#00CF6A"/>
<path d="M23.3653 22.9105C23.3033 21.6961 22.9518 20.5181 22.3566 19.3854C22.1514 18.9949 21.7713 18.7307 21.3389 18.6439C19.8797 18.3512 18.7624 18.2085 16.9802 18.2085C15.2012 18.2085 14.0333 18.3507 12.6371 18.6424C12.2205 18.7294 11.8542 18.9837 11.6531 19.359C11.0592 20.4675 10.7062 21.6646 10.6395 22.8776C10.0675 23.0009 9.49027 23.1362 8.90263 23.2808C8.31615 23.4252 7.86345 23.8923 7.70353 24.4747C7.69502 24.5057 7.68648 24.5368 7.67793 24.5678C7.44384 25.4192 7.20117 26.3017 7.20117 27.2062C7.20117 28.057 7.41586 28.8883 7.63617 29.6925C7.82897 30.3963 8.45631 30.9097 9.18533 30.942C9.67194 30.9636 10.1631 30.9868 10.6586 31.0103C12.707 31.1073 14.8283 31.2077 17.0012 31.2077C19.174 31.2077 21.2953 31.1073 23.3438 31.0103C23.8392 30.9868 24.3304 30.9636 24.817 30.942C25.546 30.9097 26.1734 30.3963 26.3662 29.6925C26.5865 28.8883 26.8012 28.057 26.8012 27.2062C26.8012 26.3017 26.5585 25.4192 26.3244 24.5679C26.3179 24.5441 26.3114 24.5204 26.3049 24.4967C26.1417 23.9029 25.6738 23.4309 25.0738 23.2919C24.5092 23.1611 23.9397 23.0321 23.3653 22.9105Z" fill="white"/>
<path fill-rule="evenodd" clip-rule="evenodd" d="M12.4326 17.6635C13.8945 17.3581 15.1309 17.2085 16.9802 17.2085C18.8364 17.2085 20.02 17.3594 21.5356 17.6635C22.2357 17.8039 22.8838 18.239 23.2418 18.9202C23.7721 19.9295 24.1346 20.9883 24.2899 22.088C24.6292 22.1634 24.9659 22.2404 25.2996 22.3177C26.2776 22.5444 27.0144 23.3045 27.2691 24.2318L27.2691 24.2318L27.2886 24.3027L27.2886 24.3027L27.3026 24.3534C27.5279 25.1724 27.8012 26.1657 27.8012 27.2062C27.8012 28.2087 27.5486 29.161 27.3306 29.9567C27.0262 31.0682 26.0354 31.889 24.8613 31.941C24.3764 31.9625 23.8868 31.9857 23.3911 32.0092L23.3806 32.0097C21.3386 32.1063 19.1977 32.2077 17.0012 32.2077C14.8046 32.2077 12.6636 32.1063 10.6216 32.0097L10.6113 32.0092C10.1156 31.9857 9.6259 31.9625 9.14102 31.941C7.96698 31.889 6.97618 31.0682 6.67171 29.9567C6.45373 29.161 6.20117 28.2087 6.20117 27.2062C6.20117 26.1657 6.47445 25.1724 6.69978 24.3534C6.70444 24.3364 6.70909 24.3195 6.71372 24.3027L6.73922 24.2099C6.98843 23.3023 7.70148 22.5467 8.6636 22.3098C9.01698 22.2228 9.36766 22.1389 9.71655 22.0588C9.87406 20.9561 10.2371 19.8845 10.7717 18.8867C11.1253 18.2266 11.7545 17.8052 12.4326 17.6635ZM10.7466 23.8776C10.2199 23.9924 9.6866 24.1177 9.14167 24.2518C8.93082 24.3037 8.73848 24.4822 8.66784 24.7395L8.64214 24.833C8.40179 25.7071 8.20117 26.4593 8.20117 27.2062C8.20117 27.9053 8.378 28.6156 8.60064 29.4283C8.68176 29.7244 8.94565 29.9304 9.22963 29.943C9.71773 29.9646 10.2101 29.9879 10.705 30.0114L10.7058 30.0114C12.7577 30.1085 14.8557 30.2077 17.0012 30.2077C19.1466 30.2077 21.2447 30.1085 23.2965 30.0114L23.2983 30.0113C23.7929 29.9879 24.2849 29.9646 24.7727 29.943C25.0567 29.9304 25.3206 29.7245 25.4017 29.4283C25.6243 28.6156 25.8012 27.9053 25.8012 27.2062C25.8012 26.4593 25.6006 25.7071 25.3602 24.833C25.3602 24.833 25.3602 24.833 25.3602 24.833L25.3406 24.7616C25.269 24.5012 25.07 24.3175 24.8481 24.2661C24.2864 24.136 23.7238 24.0086 23.1581 23.8888C22.7146 23.7949 22.3898 23.4143 22.3666 22.9615C22.3129 21.9104 22.0084 20.8727 21.4713 19.8505C21.419 19.7509 21.307 19.6574 21.1422 19.6244C19.7394 19.343 18.6883 19.2085 16.9802 19.2085C15.2715 19.2085 14.1721 19.3433 12.8416 19.6212C12.6864 19.6537 12.583 19.7409 12.5346 19.8312C12.1812 20.4909 11.9265 21.1794 11.7787 21.8776H13.8012C14.3535 21.8776 14.8012 22.3253 14.8012 22.8776C14.8012 23.4299 14.3535 23.8776 13.8012 23.8776H10.7466Z" fill="#0033C9"/>
<path d="M12.6485 32.8953C13.6689 32.8953 14.4962 32.0681 14.4962 31.0476C14.4962 30.0272 13.6689 29.2 12.6485 29.2C11.628 29.2 10.8008 30.0272 10.8008 31.0476C10.8008 32.0681 11.628 32.8953 12.6485 32.8953Z" fill="white"/>
<path fill-rule="evenodd" clip-rule="evenodd" d="M12.6485 30.2C12.1803 30.2 11.8008 30.5795 11.8008 31.0476C11.8008 31.5158 12.1803 31.8953 12.6485 31.8953C13.1167 31.8953 13.4962 31.5158 13.4962 31.0476C13.4962 30.5795 13.1167 30.2 12.6485 30.2ZM9.80078 31.0476C9.80078 29.4749 11.0757 28.2 12.6485 28.2C14.2212 28.2 15.4962 29.4749 15.4962 31.0476C15.4962 32.6204 14.2212 33.8953 12.6485 33.8953C11.0757 33.8953 9.80078 32.6204 9.80078 31.0476Z" fill="#0033C9"/>
<path d="M21.4493 32.8953C22.4697 32.8953 23.297 32.0681 23.297 31.0476C23.297 30.0272 22.4697 29.2 21.4493 29.2C20.4288 29.2 19.6016 30.0272 19.6016 31.0476C19.6016 32.0681 20.4288 32.8953 21.4493 32.8953Z" fill="white"/>
<path fill-rule="evenodd" clip-rule="evenodd" d="M21.4493 30.2C20.9811 30.2 20.6016 30.5795 20.6016 31.0476C20.6016 31.5158 20.9811 31.8953 21.4493 31.8953C21.9174 31.8953 22.297 31.5158 22.297 31.0476C22.297 30.5795 21.9174 30.2 21.4493 30.2ZM18.6016 31.0476C18.6016 29.4749 19.8765 28.2 21.4493 28.2C23.022 28.2 24.297 29.4749 24.297 31.0476C24.297 32.6204 23.022 33.8953 21.4493 33.8953C19.8765 33.8953 18.6016 32.6204 18.6016 31.0476Z" fill="#0033C9"/>
</g>
<defs>
<clipPath id="clip0_1_4638">
<rect width="40" height="40" fill="white"/>
</clipPath>
</defs>
</svg>
