<svg width="40" height="40" viewBox="0 0 40 40" fill="none" xmlns="http://www.w3.org/2000/svg">
<g clip-path="url(#clip0_1_4700)">
<path d="M39.2129 11.449V11.449C40.2624 17.0781 40.2624 22.8026 39.2129 28.5271V28.5271C38.2588 33.9654 33.9654 38.2588 28.5271 39.2129V39.2129C22.898 40.2624 17.1735 40.2624 11.449 39.2129V39.2129C6.01073 38.2588 1.81276 34.0608 0.858676 28.6225V28.6225C-0.286225 22.9934 -0.286225 17.1735 0.858676 11.449V11.449C1.81276 6.01073 6.01073 1.81276 11.449 0.858676V0.858676C17.0781 -0.286225 22.898 -0.286225 28.6225 0.858676V0.858676C34.0608 1.81276 38.2588 6.01073 39.2129 11.449Z" fill="white"/>
<path fill-rule="evenodd" clip-rule="evenodd" d="M38.2293 28.3468C39.2571 22.7405 39.2565 17.1393 38.2298 11.6323L39.2129 11.449C40.2624 17.0781 40.2624 22.8026 39.2129 28.5271L38.2293 28.3468ZM28.5271 39.2129C33.9654 38.2588 38.2588 33.9654 39.2129 28.5271L38.2279 28.3543C37.3466 33.3779 33.3779 37.3466 28.3543 38.2279L28.5271 39.2129ZM11.449 39.2129C17.1735 40.2624 22.898 40.2624 28.5271 39.2129L28.3438 38.2298C22.8369 39.2565 17.2356 39.2571 11.6293 38.2293L11.449 39.2129ZM28.6225 0.858676L28.4497 1.84363C33.4733 2.72496 37.3466 6.59823 38.2279 11.6218L39.2129 11.449C38.2588 6.01073 34.0608 1.81276 28.6225 0.858676ZM11.449 0.858676C17.0781 -0.286225 22.898 -0.286225 28.6225 0.858676L28.4264 1.83926C22.8303 0.720026 17.1448 0.720683 11.6483 1.83861L11.449 0.858676ZM0.858676 11.449C1.81276 6.01073 6.01073 1.81276 11.449 0.858676L11.6218 1.84363C6.59823 2.72496 2.72496 6.59823 1.84363 11.6218L0.858676 11.449ZM0.858676 11.449L1.83926 11.6451C0.720026 17.2413 0.720683 22.9267 1.83861 28.4232L0.858676 28.6225C-0.286225 22.9934 -0.286225 17.1735 0.858676 11.449ZM0.858676 28.6225C1.81276 34.0608 6.01073 38.2588 11.449 39.2129L11.6218 38.2279C6.59823 37.3466 2.72496 33.4733 1.84363 28.4497L0.858676 28.6225Z" fill="#EEF4FE"/>
<path fill-rule="evenodd" clip-rule="evenodd" d="M11.3675 12.0427C13.2641 11.8764 15.3806 11.7998 17.7992 11.7998C20.2178 11.7998 22.3343 11.8764 24.2309 12.0427C26.8933 12.276 28.9258 14.4062 29.12 17.0448C29.1672 17.687 29.1992 18.3073 29.1992 18.7998C29.1992 19.3521 28.7515 19.7998 28.1992 19.7998C27.6469 19.7998 27.1992 19.3521 27.1992 18.7998C27.1992 18.3795 27.1713 17.8154 27.1254 17.1916C27.0012 15.5043 25.7148 14.1804 24.0562 14.035C22.4939 13.8981 20.7604 13.8231 18.7992 13.8045V29.7998H19.5992C20.1515 29.7998 20.5992 30.2475 20.5992 30.7998C20.5992 31.3521 20.1515 31.7998 19.5992 31.7998H17.7992C15.3806 31.7998 13.2641 31.7232 11.3675 31.5569C8.70756 31.3238 6.66923 29.2023 6.4271 26.5795C6.28374 25.0266 6.19922 23.4355 6.19922 21.7997C6.19922 20.164 6.28374 18.573 6.42709 17.0201C6.66923 14.3973 8.70756 12.2758 11.3675 12.0427ZM16.7992 29.7952V13.8045C14.838 13.8231 13.1046 13.8981 11.5422 14.035C9.88119 14.1806 8.57523 15.5076 8.41863 17.204C8.28016 18.7038 8.19922 20.2331 8.19922 21.7997C8.19922 23.3664 8.28016 24.8957 8.41863 26.3956C8.57523 28.092 9.8812 29.419 11.5422 29.5646C13.1046 29.7015 14.838 29.7765 16.7992 29.7952Z" fill="#0033C9"/>
<path fill-rule="evenodd" clip-rule="evenodd" d="M6.19922 18.7998C6.19922 18.2475 6.64693 17.7998 7.19922 17.7998H27.7992C28.3515 17.7998 28.7992 18.2475 28.7992 18.7998C28.7992 19.3521 28.3515 19.7998 27.7992 19.7998H7.19922C6.64693 19.7998 6.19922 19.3521 6.19922 18.7998Z" fill="#0033C9"/>
<path fill-rule="evenodd" clip-rule="evenodd" d="M23.4648 8.201C22.7301 8.17916 22.0472 8.48492 21.6611 9.0463L18.824 13.1708C18.511 13.6258 17.8884 13.741 17.4334 13.428C16.9783 13.115 16.8632 12.4924 17.1762 12.0373L20.0133 7.91284C20.8469 6.70098 22.2282 6.16335 23.5242 6.20188C24.8201 6.24041 26.1658 6.85965 26.9129 8.1267L26.1207 8.59374L26.9129 8.1267C28.0469 10.0501 27.1199 12.3509 25.1126 13.2283L23.9962 13.7162C23.4901 13.9374 22.9005 13.7065 22.6794 13.2004C22.4582 12.6944 22.6891 12.1048 23.1952 11.8836L24.3116 11.3957C25.3551 10.9395 25.6417 9.90854 25.19 9.14247L26.0514 8.63459L25.19 9.14247C24.8511 8.56773 24.1996 8.22284 23.4648 8.201Z" fill="#0033C9"/>
<path fill-rule="evenodd" clip-rule="evenodd" d="M12.2723 8.20103C13.0748 8.17826 13.8091 8.49889 14.2165 9.0642L17.1886 13.1887C17.5115 13.6368 18.1365 13.7382 18.5846 13.4154C19.0326 13.0925 19.1341 12.4675 18.8112 12.0194L15.839 7.89493C14.9686 6.687 13.5404 6.16424 12.2155 6.20184C10.8913 6.23942 9.49659 6.84271 8.7144 8.10908C7.50428 10.0683 8.52102 12.3744 10.5833 13.2349L11.7529 13.7228C12.2626 13.9355 12.8482 13.6947 13.0608 13.185C13.2735 12.6753 13.0327 12.0897 12.523 11.877L11.3534 11.3891C10.2194 10.916 9.9649 9.89039 10.416 9.16009C10.7714 8.58466 11.4691 8.22383 12.2723 8.20103Z" fill="#0033C9"/>
<path d="M27.998 34C31.3118 34 33.998 31.3137 33.998 28C33.998 24.6863 31.3118 22 27.998 22C24.6843 22 21.998 24.6863 21.998 28C21.998 31.3137 24.6843 34 27.998 34Z" fill="#00CF6A"/>
</g>
<defs>
<clipPath id="clip0_1_4700">
<rect width="40" height="40" fill="white"/>
</clipPath>
</defs>
</svg>
