<svg width="40" height="40" viewBox="0 0 40 40" fill="none" xmlns="http://www.w3.org/2000/svg">
<g clip-path="url(#clip0_1_4829)">
<path d="M39.2129 11.449V11.449C40.2624 17.0781 40.2624 22.8026 39.2129 28.5271V28.5271C38.2588 33.9654 33.9654 38.2588 28.5271 39.2129V39.2129C22.898 40.2624 17.1735 40.2624 11.449 39.2129V39.2129C6.01073 38.2588 1.81276 34.0608 0.858676 28.6225V28.6225C-0.286225 22.9934 -0.286225 17.1735 0.858676 11.449V11.449C1.81276 6.01073 6.01073 1.81276 11.449 0.858676V0.858676C17.0781 -0.286225 22.898 -0.286225 28.6225 0.858676V0.858676C34.0608 1.81276 38.2588 6.01073 39.2129 11.449Z" fill="white"/>
<path fill-rule="evenodd" clip-rule="evenodd" d="M38.2293 28.3468C39.2571 22.7405 39.2565 17.1393 38.2298 11.6323L39.2129 11.449C40.2624 17.0781 40.2624 22.8026 39.2129 28.5271L38.2293 28.3468ZM28.5271 39.2129C33.9654 38.2588 38.2588 33.9654 39.2129 28.5271L38.2279 28.3543C37.3466 33.3779 33.3779 37.3466 28.3543 38.2279L28.5271 39.2129ZM11.449 39.2129C17.1735 40.2624 22.898 40.2624 28.5271 39.2129L28.3438 38.2298C22.8369 39.2565 17.2356 39.2571 11.6293 38.2293L11.449 39.2129ZM28.6225 0.858676L28.4497 1.84363C33.4733 2.72496 37.3466 6.59823 38.2279 11.6218L39.2129 11.449C38.2588 6.01073 34.0608 1.81276 28.6225 0.858676ZM11.449 0.858676C17.0781 -0.286225 22.898 -0.286225 28.6225 0.858676L28.4264 1.83926C22.8303 0.720026 17.1448 0.720683 11.6483 1.83861L11.449 0.858676ZM0.858676 11.449C1.81276 6.01073 6.01073 1.81276 11.449 0.858676L11.6218 1.84363C6.59823 2.72496 2.72496 6.59823 1.84363 11.6218L0.858676 11.449ZM0.858676 11.449L1.83926 11.6451C0.720026 17.2413 0.720683 22.9267 1.83861 28.4232L0.858676 28.6225C-0.286225 22.9934 -0.286225 17.1735 0.858676 11.449ZM0.858676 28.6225C1.81276 34.0608 6.01073 38.2588 11.449 39.2129L11.6218 38.2279C6.59823 37.3466 2.72496 33.4733 1.84363 28.4497L0.858676 28.6225Z" fill="#EEF4FE"/>
<path fill-rule="evenodd" clip-rule="evenodd" d="M20.1791 12.6001C20.7314 12.6001 21.1791 13.0478 21.1791 13.6001V14.3623C21.7626 14.4904 22.2511 14.726 22.6273 14.9637C22.9434 15.1635 23.1889 15.3699 23.358 15.5291C23.4431 15.6091 23.5102 15.6785 23.5585 15.7309C23.5827 15.7572 23.6024 15.7793 23.6174 15.7966L23.6363 15.8188L23.6432 15.827L23.646 15.8304L23.6472 15.8318L23.6478 15.8325C23.6481 15.8329 23.6483 15.8332 22.8747 16.4669L23.6483 15.8332C23.9983 16.2605 23.9356 16.8905 23.5084 17.2405C23.0833 17.5887 22.4574 17.5284 22.1064 17.107C22.1064 17.107 22.1064 17.107 22.1064 17.107C22.1049 17.1051 22.1034 17.1033 22.1019 17.1015M22.1062 17.1067C22.104 17.1042 22.098 17.0973 22.0883 17.0868C22.0688 17.0656 22.0348 17.0302 21.9874 16.9855C21.8916 16.8954 21.7463 16.7729 21.5587 16.6543C21.1831 16.4169 20.6731 16.2157 20.0518 16.2741C18.7433 16.3972 18.2844 17.1961 18.2844 17.8795C18.2844 18.1902 18.3446 18.3682 18.402 18.4732C18.458 18.5756 18.5428 18.6665 18.6855 18.7551C19.0253 18.9661 19.5249 19.078 20.2785 19.231C20.2988 19.2351 20.3193 19.2393 20.34 19.2435C20.9853 19.3742 21.8518 19.5497 22.5418 19.9932C22.9241 20.2388 23.2722 20.5756 23.5179 21.0387C23.7618 21.4984 23.8747 22.0258 23.8747 22.6104C23.8747 23.4286 23.4686 24.1128 22.94 24.602C22.4604 25.0458 21.843 25.3697 21.1791 25.5587V26.4001C21.1791 26.9524 20.7314 27.4001 20.1791 27.4001C19.6268 27.4001 19.1791 26.9524 19.1791 26.4001V25.7215C18.1582 25.6053 17.1149 25.1757 16.2501 24.3114C15.8595 23.9209 15.8593 23.2878 16.2497 22.8971C16.6402 22.5065 17.2733 22.5064 17.664 22.8968C18.4805 23.7129 19.5834 23.8903 20.5102 23.667C20.9739 23.5553 21.3447 23.3533 21.5816 23.1341C21.8173 22.916 21.8747 22.7306 21.8747 22.6104C21.8747 22.2847 21.8129 22.0925 21.7511 21.9761C21.6911 21.863 21.6025 21.7669 21.4606 21.6757C21.1247 21.4598 20.6272 21.3426 19.8805 21.191C19.8496 21.1847 19.818 21.1784 19.7859 21.1719C19.1507 21.0436 18.3045 20.8728 17.6303 20.4541C17.2488 20.2171 16.8968 19.8893 16.6471 19.4325C16.3988 18.9783 16.2844 18.4565 16.2844 17.8795C16.2844 16.3107 17.3118 14.8401 19.1791 14.3951V13.6001C19.1791 13.0478 19.6268 12.6001 20.1791 12.6001" fill="#00D16B"/>
<path fill-rule="evenodd" clip-rule="evenodd" d="M10.9712 16.0678C10.9621 16.4677 10.7157 16.8238 10.3445 16.973L8.36862 17.7676C8.11313 17.8704 7.82658 17.8632 7.57655 17.7478C7.32651 17.6325 7.13511 17.4191 7.04749 17.158L6.37582 15.1569C6.24909 14.7793 6.3585 14.3626 6.65436 14.0959C6.95021 13.8293 7.37609 13.7636 7.73852 13.9288L10.3861 15.1352C10.7501 15.3011 10.9802 15.6679 10.9712 16.0678Z" fill="#0033CC"/>
<path fill-rule="evenodd" clip-rule="evenodd" d="M20.0493 8.6001C15.1108 8.6001 10.9037 11.7684 9.34391 16.1988C9.16051 16.7198 8.58952 16.9934 8.06858 16.81C7.54764 16.6266 7.27401 16.0556 7.45741 15.5347C9.28879 10.3329 14.2319 6.6001 20.0493 6.6001C27.4267 6.6001 33.4007 12.6032 33.4007 20.0001C33.4007 27.397 27.4267 33.4001 20.0493 33.4001C14.4847 33.4001 9.71997 29.9844 7.71384 25.1358C7.50269 24.6254 7.74522 24.0406 8.25555 23.8294C8.76588 23.6183 9.35075 23.8608 9.5619 24.3711C11.2709 28.5015 15.3254 31.4001 20.0493 31.4001C26.3148 31.4001 31.4007 26.2998 31.4007 20.0001C31.4007 13.7003 26.3148 8.6001 20.0493 8.6001Z" fill="#0033C9"/>
</g>
<defs>
<clipPath id="clip0_1_4829">
<rect width="40" height="40" fill="white"/>
</clipPath>
</defs>
</svg>
