<svg width="40" height="40" viewBox="0 0 40 40" fill="none" xmlns="http://www.w3.org/2000/svg">
<g clip-path="url(#clip0_1_5281)">
<path d="M39.2129 11.449V11.449C40.2624 17.0781 40.2624 22.8026 39.2129 28.5271V28.5271C38.2588 33.9654 33.9654 38.2588 28.5271 39.2129V39.2129C22.898 40.2624 17.1735 40.2624 11.449 39.2129V39.2129C6.01073 38.2588 1.81276 34.0608 0.858676 28.6225V28.6225C-0.286225 22.9934 -0.286225 17.1735 0.858676 11.449V11.449C1.81276 6.01073 6.01073 1.81276 11.449 0.858676V0.858676C17.0781 -0.286225 22.898 -0.286225 28.6225 0.858676V0.858676C34.0608 1.81276 38.2588 6.01073 39.2129 11.449Z" fill="white"/>
<path fill-rule="evenodd" clip-rule="evenodd" d="M38.2293 28.3468C39.2571 22.7405 39.2565 17.1393 38.2298 11.6323L39.2129 11.449C40.2624 17.0781 40.2624 22.8026 39.2129 28.5271L38.2293 28.3468ZM28.5271 39.2129C33.9654 38.2588 38.2588 33.9654 39.2129 28.5271L38.2279 28.3543C37.3466 33.3779 33.3779 37.3466 28.3543 38.2279L28.5271 39.2129ZM11.449 39.2129C17.1735 40.2624 22.898 40.2624 28.5271 39.2129L28.3438 38.2298C22.8369 39.2565 17.2356 39.2571 11.6293 38.2293L11.449 39.2129ZM28.6225 0.858676L28.4497 1.84363C33.4733 2.72496 37.3466 6.59823 38.2279 11.6218L39.2129 11.449C38.2588 6.01073 34.0608 1.81276 28.6225 0.858676ZM11.449 0.858676C17.0781 -0.286225 22.898 -0.286225 28.6225 0.858676L28.4264 1.83926C22.8303 0.720026 17.1448 0.720683 11.6483 1.83861L11.449 0.858676ZM0.858676 11.449C1.81276 6.01073 6.01073 1.81276 11.449 0.858676L11.6218 1.84363C6.59823 2.72496 2.72496 6.59823 1.84363 11.6218L0.858676 11.449ZM0.858676 11.449L1.83926 11.6451C0.720026 17.2413 0.720683 22.9267 1.83861 28.4232L0.858676 28.6225C-0.286225 22.9934 -0.286225 17.1735 0.858676 11.449ZM0.858676 28.6225C1.81276 34.0608 6.01073 38.2588 11.449 39.2129L11.6218 38.2279C6.59823 37.3466 2.72496 33.4733 1.84363 28.4497L0.858676 28.6225Z" fill="#EEF4FE"/>
<path d="M6 12.5576V8.89017C6 8.35575 6.3797 7.90004 6.89717 7.72852C8.21924 7.29033 9.16824 6.65806 10.4736 6.10073C10.8076 5.95814 11.1884 5.96796 11.5162 6.12365C12.7874 6.72745 13.7342 7.35053 15.0589 7.74937C15.5971 7.91138 16 8.37582 16 8.92657V12.5576C16 15.3324 12.7169 17.5446 11.0503 18C9.38361 17.5446 6 15.3324 6 12.5576Z" fill="#00CF6A"/>
<path fill-rule="evenodd" clip-rule="evenodd" d="M19.4756 15.1957C18.7485 14.4162 18.2592 13.6634 17.8616 12.7358C17.2624 11.338 18.397 10 19.7251 10H28.0728C29.4008 10 30.5354 11.338 29.9363 12.7358C29.5163 13.7157 28.9939 14.5005 28.197 15.3279C31.0237 17.0618 34.0012 20.4101 34.0012 25.9569C34.0012 27.8769 33.5715 29.4157 32.8194 30.6296C32.0674 31.8434 31.0327 32.6682 29.9249 33.2239C27.7494 34.315 25.2205 34.3999 23.7261 34.3999C22.2317 34.3999 19.7028 34.315 17.5273 33.2238C16.4195 32.6682 15.3849 31.8434 14.6329 30.6296C13.8809 29.4157 13.4512 27.8769 13.4512 25.9569C13.4512 20.2657 16.5856 16.8889 19.4756 15.1957ZM21.6748 14.55C20.6206 13.5985 20.1151 12.8985 19.7224 12L19.7251 12H28.0728L28.0755 12C27.7065 12.8443 27.2379 13.5133 26.3081 14.3804C26.296 14.3756 26.2839 14.3709 26.2719 14.3662L26.2427 14.441C26.2036 14.477 26.1638 14.5133 26.1231 14.55H21.6748ZM26.276 16.55H21.2961C21.2599 16.55 21.2239 16.548 21.1882 16.5442C18.5974 17.8019 15.4512 20.6821 15.4512 25.9569C15.4512 27.5724 15.8098 28.7317 16.3331 29.5762C16.8564 30.4209 17.584 31.0148 18.424 31.4361C20.1439 32.2988 22.2525 32.3999 23.7261 32.3999C25.1997 32.3999 27.3083 32.2988 29.0283 31.4361C29.8683 31.0148 30.5959 30.4209 31.1192 29.5762C31.6425 28.7317 32.0012 27.5724 32.0012 25.9569C32.0012 20.6903 28.8646 17.8108 26.276 16.55Z" fill="#0033CC"/>
<path fill-rule="evenodd" clip-rule="evenodd" d="M23.752 18.6001C24.3042 18.6001 24.752 19.0478 24.752 19.6001V19.9869C25.1358 20.0858 25.4632 20.2348 25.7257 20.3863C25.983 20.5348 26.184 20.6888 26.3241 20.8092C26.3945 20.8697 26.4507 20.9227 26.492 20.9636C26.5127 20.9841 26.5298 21.0017 26.5432 21.0158L26.5605 21.0343L26.5671 21.0415L26.5699 21.0446L26.5712 21.046C26.5715 21.0463 26.5723 21.0473 25.8446 21.7001L26.5723 21.0473C26.9411 21.4584 26.9068 22.0906 26.4957 22.4594C26.0876 22.8255 25.4617 22.7944 25.0918 22.3918L25.0849 22.3849C25.0739 22.374 25.0523 22.3533 25.0207 22.3262C24.9567 22.2712 24.8566 22.1939 24.726 22.1185C24.465 21.9679 24.1069 21.8378 23.6669 21.8756C23.163 21.9189 22.8795 22.0851 22.7314 22.2308C22.5827 22.3769 22.5217 22.5469 22.5217 22.7086C22.5217 22.8727 22.5554 22.9343 22.5647 22.9498C22.5748 22.9668 22.6007 23.0026 22.6878 23.052C22.9147 23.1807 23.2654 23.2555 23.8571 23.3652L23.9148 23.3759C24.4039 23.4662 25.0989 23.5945 25.6612 23.9244C25.9792 24.111 26.2862 24.3769 26.5076 24.7577C26.7291 25.1389 26.828 25.572 26.828 26.0359C26.828 26.7506 26.4402 27.3128 26.0005 27.6843C25.6468 27.9832 25.2128 28.2043 24.752 28.3471V28.8001C24.752 29.3524 24.3042 29.8001 23.752 29.8001C23.1997 29.8001 22.752 29.3524 22.752 28.8001V28.4925C22.0017 28.3778 21.242 28.0635 20.5955 27.4735C20.1875 27.1012 20.1586 26.4687 20.5309 26.0608C20.9032 25.6528 21.5357 25.6239 21.9436 25.9962C22.5046 26.5081 23.2903 26.6362 23.9722 26.4862C24.3102 26.4119 24.563 26.2806 24.7096 26.1567C24.7932 26.0861 24.8202 26.0396 24.8279 26.0219C24.8261 25.8558 24.7919 25.7861 24.7783 25.7626C24.7642 25.7383 24.7347 25.6997 24.649 25.6494C24.4264 25.5188 24.0781 25.4403 23.4925 25.3317L23.4121 25.3168C22.9299 25.2282 22.2505 25.1032 21.7013 24.7918C21.3846 24.6122 21.0741 24.3536 20.8488 23.9772C20.6225 23.5994 20.5217 23.1688 20.5217 22.7086C20.5217 21.4549 21.3721 20.3924 22.752 20.0139V19.6001C22.752 19.0478 23.1997 18.6001 23.752 18.6001Z" fill="#0033C9"/>
</g>
<defs>
<clipPath id="clip0_1_5281">
<rect width="40" height="40" fill="white"/>
</clipPath>
</defs>
</svg>
