<svg width="40" height="40" viewBox="0 0 40 40" fill="none" xmlns="http://www.w3.org/2000/svg">
<g clip-path="url(#clip0_1_3627)">
<path d="M39.2129 11.449V11.449C40.2624 17.0781 40.2624 22.8026 39.2129 28.5271V28.5271C38.2588 33.9654 33.9654 38.2588 28.5271 39.2129V39.2129C22.898 40.2624 17.1735 40.2624 11.449 39.2129V39.2129C6.01073 38.2588 1.81276 34.0608 0.858676 28.6225V28.6225C-0.286225 22.9934 -0.286225 17.1735 0.858676 11.449V11.449C1.81276 6.01073 6.01073 1.81276 11.449 0.858676V0.858676C17.0781 -0.286225 22.898 -0.286225 28.6225 0.858676V0.858676C34.0608 1.81276 38.2588 6.01073 39.2129 11.449Z" fill="white"/>
<path fill-rule="evenodd" clip-rule="evenodd" d="M38.2293 28.3468C39.2571 22.7405 39.2565 17.1393 38.2298 11.6323L39.2129 11.449C40.2624 17.0781 40.2624 22.8026 39.2129 28.5271L38.2293 28.3468ZM28.5271 39.2129C33.9654 38.2588 38.2588 33.9654 39.2129 28.5271L38.2279 28.3543C37.3466 33.3779 33.3779 37.3466 28.3543 38.2279L28.5271 39.2129ZM11.449 39.2129C17.1735 40.2624 22.898 40.2624 28.5271 39.2129L28.3438 38.2298C22.8369 39.2565 17.2356 39.2571 11.6293 38.2293L11.449 39.2129ZM28.6225 0.858676L28.4497 1.84363C33.4733 2.72496 37.3466 6.59823 38.2279 11.6218L39.2129 11.449C38.2588 6.01073 34.0608 1.81276 28.6225 0.858676ZM11.449 0.858676C17.0781 -0.286225 22.898 -0.286225 28.6225 0.858676L28.4264 1.83926C22.8303 0.720026 17.1448 0.720683 11.6483 1.83861L11.449 0.858676ZM0.858676 11.449C1.81276 6.01073 6.01073 1.81276 11.449 0.858676L11.6218 1.84363C6.59823 2.72496 2.72496 6.59823 1.84363 11.6218L0.858676 11.449ZM0.858676 11.449L1.83926 11.6451C0.720026 17.2413 0.720683 22.9267 1.83861 28.4232L0.858676 28.6225C-0.286225 22.9934 -0.286225 17.1735 0.858676 11.449ZM0.858676 28.6225C1.81276 34.0608 6.01073 38.2588 11.449 39.2129L11.6218 38.2279C6.59823 37.3466 2.72496 33.4733 1.84363 28.4497L0.858676 28.6225Z" fill="#EEF4FE"/>
<path d="M18.9069 31L19.9973 27.1091H25.6131L25.9948 31C28.2801 31 30.9264 31 31.9377 30.1636C33.1632 29.1501 32.9919 24.5974 32.9919 22C32.9919 17 30.9927 15 25.9948 15H19.9973C14.9994 15 13.0003 17 13.0003 22C13 24.4999 12.9639 29.8047 13.8363 30.1636C14.7086 30.8545 16.6215 31 18.9069 31Z" fill="#00CF6A"/>
<path fill-rule="evenodd" clip-rule="evenodd" d="M13.9173 15.918C15.3212 14.5136 17.3997 14 19.9973 14H25.9948C28.5925 14 30.671 14.5136 32.0748 15.918C33.4785 17.3223 33.9919 19.4015 33.9919 22C33.9919 22.2572 33.9937 22.5387 33.9956 22.8377C34.0031 24.0063 34.0124 25.4428 33.922 26.745C33.8651 27.5651 33.7662 28.379 33.5882 29.0739C33.4214 29.725 33.1386 30.4682 32.5751 30.9342C32.1686 31.2704 31.6616 31.4754 31.17 31.6111C30.668 31.7497 30.1089 31.8355 29.541 31.8907C28.4188 32 27.1461 32 26.0222 32H25.9948C25.4803 32 25.0498 31.6096 24.9996 31.0976L24.7064 28.1091H20.7556L19.8698 31.2699C19.7488 31.7016 19.3552 32 18.9069 32C17.7523 32 16.6464 31.9639 15.7025 31.8312C14.8308 31.7086 13.9476 31.486 13.2989 31.0111C12.9209 30.7921 12.7295 30.4272 12.6372 30.2209C12.5114 29.94 12.4236 29.6122 12.3576 29.2874C12.2241 28.6304 12.1436 27.7995 12.0928 26.944C11.9982 25.3512 11.9994 23.531 12.0002 22.2864C12.0002 22.1871 12.0003 22.0915 12.0003 22M13.9173 15.918C12.5137 17.3223 12.0003 19.4015 12.0003 22ZM15.3319 17.332C14.4865 18.1777 14.0003 19.5985 14.0003 22C14.0003 22.0902 14.0002 22.1838 14.0002 22.2803C13.9995 23.5337 13.9985 25.296 14.0893 26.8254C14.1385 27.6534 14.2125 28.3723 14.3176 28.889C14.3653 29.1241 14.4125 29.2811 14.4501 29.3742C14.4524 29.376 14.4548 29.3779 14.4571 29.3797C14.6744 29.5518 15.1447 29.7331 15.9809 29.8506C16.5987 29.9375 17.3301 29.9792 18.1504 29.9937L19.0344 26.8392C19.1554 26.4075 19.549 26.1091 19.9973 26.1091H25.6131C26.1276 26.1091 26.5581 26.4994 26.6084 27.0115L26.9013 29.9981C27.7553 29.9928 28.5964 29.9733 29.3471 29.9002C29.8529 29.8509 30.2878 29.7799 30.6378 29.6832C30.9982 29.5837 31.2012 29.4751 31.3005 29.393C31.3496 29.3523 31.505 29.1464 31.6508 28.5776C31.7852 28.0527 31.8734 27.376 31.9268 26.6065C32.0113 25.3886 32.003 24.056 31.9957 22.8922C31.9938 22.5809 31.9919 22.2817 31.9919 22C31.9919 19.5985 31.5057 18.1777 30.6603 17.332C29.8151 16.4864 28.3951 16 25.9948 16H19.9973C17.5971 16 16.1771 16.4864 15.3319 17.332ZM14.4871 29.4505C14.4871 29.4505 14.4829 29.4454 14.4756 29.4312C14.4837 29.4427 14.4871 29.4505 14.4871 29.4505Z" fill="#0033C9"/>
<path d="M19.0293 18C19.5816 18 20.0293 18.4477 20.0293 19V20H21C21.5523 20 22 20.4477 22 21C22 21.5523 21.5523 22 21 22H20.0293V23C20.0293 23.5523 19.5816 24 19.0293 24C18.477 24 18.0293 23.5523 18.0293 23V22H17C16.4477 22 16 21.5523 16 21C16 20.4477 16.4477 20 17 20H18.0293V19C18.0293 18.4477 18.477 18 19.0293 18Z" fill="#0033C9"/>
<path d="M27.3184 18.0681C27.8706 18.0681 28.3184 18.5158 28.3184 19.0681V19.089C28.3184 19.6413 27.8706 20.089 27.3184 20.089C26.7661 20.089 26.3184 19.6413 26.3184 19.089V19.0681C26.3184 18.5158 26.7661 18.0681 27.3184 18.0681Z" fill="#0033C9"/>
<path d="M24.2832 21.1141C24.2832 20.5618 24.7309 20.1141 25.2832 20.1141H25.2947C25.847 20.1141 26.2947 20.5618 26.2947 21.1141C26.2947 21.6664 25.847 22.1141 25.2947 22.1141H25.2832C24.7309 22.1141 24.2832 21.6664 24.2832 21.1141Z" fill="#0033C9"/>
<path d="M29.3555 20.1141C28.8032 20.1141 28.3555 20.5618 28.3555 21.1141C28.3555 21.6664 28.8032 22.1141 29.3555 22.1141H29.367C29.9193 22.1141 30.367 21.6664 30.367 21.1141C30.367 20.5618 29.9193 20.1141 29.367 20.1141H29.3555Z" fill="#0033C9"/>
<path d="M28.3184 23.1393C28.3184 22.5871 27.8706 22.1393 27.3184 22.1393C26.7661 22.1393 26.3184 22.5871 26.3184 23.1393V23.1603C26.3184 23.7126 26.7661 24.1603 27.3184 24.1603C27.8706 24.1603 28.3184 23.7126 28.3184 23.1603V23.1393Z" fill="#0033C9"/>
<path fill-rule="evenodd" clip-rule="evenodd" d="M24.5576 9.79723C19.9036 9.208 14.0908 9.08922 8.96113 9.7892C8.5927 9.83947 8.31582 10.1171 8.26426 10.4662C7.7492 13.9536 7.53716 19.1966 8.18153 22.7362C8.23628 23.0369 8.51538 23.3159 8.94382 23.3533L9.24086 23.3796C9.79096 23.4288 10.197 23.9146 10.1479 24.4647C10.0987 25.0147 9.61291 25.4208 9.06282 25.3717L8.7696 25.3457C7.57036 25.2409 6.45175 24.4011 6.21387 23.0944C5.51582 19.2599 5.75336 13.7785 6.28572 10.174C6.47009 8.92576 7.45927 7.9756 8.69072 7.80756C14.0209 7.08022 20.0115 7.20569 24.8088 7.81307C26.0893 7.97519 27.0966 8.9727 27.2792 10.2459C27.3088 10.4517 27.3364 10.6522 27.3625 10.8495C27.4351 11.397 27.0501 11.8996 26.5026 11.9722C25.9551 12.0448 25.4525 11.6598 25.3799 11.1123C25.3546 10.9219 25.328 10.7285 25.2995 10.5299C25.2441 10.1434 24.9405 9.84571 24.5576 9.79723Z" fill="#0033C9"/>
</g>
<defs>
<clipPath id="clip0_1_3627">
<rect width="40" height="40" fill="white"/>
</clipPath>
</defs>
</svg>
