<svg width="40" height="40" viewBox="0 0 40 40" fill="none" xmlns="http://www.w3.org/2000/svg">
<g clip-path="url(#clip0_1_4297)">
<path d="M39.2129 11.449V11.449C40.2624 17.0781 40.2624 22.8026 39.2129 28.5271V28.5271C38.2588 33.9654 33.9654 38.2588 28.5271 39.2129V39.2129C22.898 40.2624 17.1735 40.2624 11.449 39.2129V39.2129C6.01073 38.2588 1.81276 34.0608 0.858676 28.6225V28.6225C-0.286225 22.9934 -0.286225 17.1735 0.858676 11.449V11.449C1.81276 6.01073 6.01073 1.81276 11.449 0.858676V0.858676C17.0781 -0.286225 22.898 -0.286225 28.6225 0.858676V0.858676C34.0608 1.81276 38.2588 6.01073 39.2129 11.449Z" fill="white"/>
<path fill-rule="evenodd" clip-rule="evenodd" d="M38.2293 28.3468C39.2571 22.7405 39.2565 17.1393 38.2298 11.6323L39.2129 11.449C40.2624 17.0781 40.2624 22.8026 39.2129 28.5271L38.2293 28.3468ZM28.5271 39.2129C33.9654 38.2588 38.2588 33.9654 39.2129 28.5271L38.2279 28.3543C37.3466 33.3779 33.3779 37.3466 28.3543 38.2279L28.5271 39.2129ZM11.449 39.2129C17.1735 40.2624 22.898 40.2624 28.5271 39.2129L28.3438 38.2298C22.8369 39.2565 17.2356 39.2571 11.6293 38.2293L11.449 39.2129ZM28.6225 0.858676L28.4497 1.84363C33.4733 2.72496 37.3466 6.59823 38.2279 11.6218L39.2129 11.449C38.2588 6.01073 34.0608 1.81276 28.6225 0.858676ZM11.449 0.858676C17.0781 -0.286225 22.898 -0.286225 28.6225 0.858676L28.4264 1.83926C22.8303 0.720026 17.1448 0.720683 11.6483 1.83861L11.449 0.858676ZM0.858676 11.449C1.81276 6.01073 6.01073 1.81276 11.449 0.858676L11.6218 1.84363C6.59823 2.72496 2.72496 6.59823 1.84363 11.6218L0.858676 11.449ZM0.858676 11.449L1.83926 11.6451C0.720026 17.2413 0.720683 22.9267 1.83861 28.4232L0.858676 28.6225C-0.286225 22.9934 -0.286225 17.1735 0.858676 11.449ZM0.858676 28.6225C1.81276 34.0608 6.01073 38.2588 11.449 39.2129L11.6218 38.2279C6.59823 37.3466 2.72496 33.4733 1.84363 28.4497L0.858676 28.6225Z" fill="#EEF4FE"/>
<path fill-rule="evenodd" clip-rule="evenodd" d="M6.9303 10.9863C7.16169 9.4403 8.51281 8.2797 10.0984 8.33516C13.2949 8.44697 16.611 8.53975 20.0346 8.53975C23.4532 8.53975 26.7676 8.49247 29.9315 8.3596C31.5269 8.2926 32.9089 9.45077 33.1439 11.0191C33.1733 11.2156 33.2033 11.4136 33.2336 11.6133C33.5388 13.6276 33.8681 15.8009 33.8681 18.0319C33.8681 20.2631 33.5387 22.4369 33.2334 24.4516C33.202 24.6587 33.1709 24.8642 33.1404 25.0678C32.9079 26.6205 31.5475 27.7805 29.9589 27.7214C26.749 27.6019 23.4627 27.5242 20.0346 27.5242C17.1704 27.5242 14.4172 27.6102 11.6995 27.6951C11.1556 27.7121 10.6131 27.729 10.0714 27.7452C8.49287 27.7925 7.16252 26.6305 6.9336 25.0997C6.90166 24.8861 6.86899 24.6705 6.83604 24.453C6.53066 22.4377 6.20117 20.2633 6.20117 18.0319C6.20117 15.8007 6.53058 13.6268 6.8359 11.6118C6.86776 11.4015 6.89936 11.193 6.9303 10.9863ZM10.0284 10.3339C9.48234 10.3148 8.99261 10.7188 8.90827 11.2823C8.87748 11.4881 8.84639 11.6936 8.81532 11.8991C8.50738 13.9352 8.20117 15.96 8.20117 18.0319C8.20117 20.1037 8.50731 22.1281 8.81516 24.1638C8.84741 24.377 8.87968 24.5903 8.91161 24.8039C8.99537 25.364 9.47695 25.7621 10.0116 25.7461C10.548 25.7301 11.087 25.7132 11.6288 25.6963C14.3469 25.6113 17.1363 25.5242 20.0346 25.5242C23.4931 25.5242 26.8048 25.6026 30.0333 25.7228C30.5845 25.7433 31.0779 25.3366 31.1625 24.7717C31.1928 24.5694 31.2233 24.3673 31.2539 24.1652C31.5618 22.1289 31.8681 20.1039 31.8681 18.0319C31.8681 15.9598 31.5618 13.9344 31.2537 11.8976C31.2244 11.7037 31.195 11.5097 31.166 11.3155C31.0808 10.7471 30.5787 10.3342 30.0154 10.3578C26.8144 10.4923 23.4702 10.5397 20.0346 10.5397C16.5763 10.5397 13.2332 10.446 10.0284 10.3339Z" fill="#0033C9"/>
<path d="M18.8751 21.1673C20.5522 20.2826 22.8867 18.891 22.8867 17.9999C22.8867 17.1088 20.5522 15.7173 18.8751 14.8326C18.1015 14.4245 17.2013 14.9964 17.2013 15.871L17.2013 20.1288C17.2013 21.0035 18.1015 21.5754 18.8751 21.1673Z" fill="#00CF6A"/>
<path fill-rule="evenodd" clip-rule="evenodd" d="M20.9264 17.226C20.1892 16.6964 19.2341 16.1526 18.4085 15.7171C18.3749 15.6994 18.3525 15.6977 18.3383 15.6984C18.3213 15.6993 18.3004 15.7049 18.2785 15.7186C18.2362 15.745 18.2013 15.7931 18.2013 15.8711L18.2013 20.1289C18.2013 20.2069 18.2362 20.2549 18.2785 20.2814C18.3004 20.295 18.3213 20.3006 18.3383 20.3015C18.3525 20.3022 18.3749 20.3006 18.4085 20.2828C19.2341 19.8473 20.1892 19.3035 20.9264 18.7739C21.298 18.5069 21.5784 18.2688 21.7558 18.0737C21.7809 18.0461 21.802 18.0215 21.8195 18C21.802 17.9784 21.7809 17.9538 21.7558 17.9262C21.5784 17.7311 21.298 17.493 20.9264 17.226ZM23.2357 16.5809C23.5106 16.8832 23.8867 17.3804 23.8867 18C23.8867 18.6195 23.5106 19.1167 23.2357 19.419C22.9229 19.7631 22.515 20.0953 22.0933 20.3982C21.244 21.0083 20.1933 21.6026 19.3417 22.0518C17.8649 22.8308 16.2013 21.714 16.2013 20.1289L16.2013 15.8711C16.2013 14.2859 17.8649 13.1691 19.3417 13.9481C20.1933 14.3974 21.244 14.9916 22.0933 15.6017C22.515 15.9047 22.9229 16.2368 23.2357 16.5809Z" fill="#00CF6A"/>
<path fill-rule="evenodd" clip-rule="evenodd" d="M13.918 32.7999C13.918 32.2476 14.3657 31.7999 14.918 31.7999H25.1505C25.7028 31.7999 26.1505 32.2476 26.1505 32.7999C26.1505 33.3522 25.7028 33.7999 25.1505 33.7999H14.918C14.3657 33.7999 13.918 33.3522 13.918 32.7999Z" fill="#0033C9"/>
<path fill-rule="evenodd" clip-rule="evenodd" d="M20.0352 25.5298C20.5874 25.5298 21.0352 25.9775 21.0352 26.5298L21.0352 32.8C21.0352 33.3523 20.5874 33.8 20.0352 33.8C19.4829 33.8 19.0352 33.3523 19.0352 32.8L19.0352 26.5298C19.0352 25.9775 19.4829 25.5298 20.0352 25.5298Z" fill="#0033C9"/>
</g>
<defs>
<clipPath id="clip0_1_4297">
<rect width="40" height="40" fill="white"/>
</clipPath>
</defs>
</svg>
