<svg width="40" height="40" viewBox="0 0 40 40" fill="none" xmlns="http://www.w3.org/2000/svg">
<g clip-path="url(#clip0_1_5983)">
<path d="M39.2129 11.449V11.449C40.2624 17.0781 40.2624 22.8026 39.2129 28.5271V28.5271C38.2588 33.9654 33.9654 38.2588 28.5271 39.2129V39.2129C22.898 40.2624 17.1735 40.2624 11.449 39.2129V39.2129C6.01073 38.2588 1.81276 34.0608 0.858676 28.6225V28.6225C-0.286225 22.9934 -0.286225 17.1735 0.858676 11.449V11.449C1.81276 6.01073 6.01073 1.81276 11.449 0.858676V0.858676C17.0781 -0.286225 22.898 -0.286225 28.6225 0.858676V0.858676C34.0608 1.81276 38.2588 6.01073 39.2129 11.449Z" fill="white"/>
<path fill-rule="evenodd" clip-rule="evenodd" d="M38.2293 28.3468C39.2571 22.7405 39.2565 17.1393 38.2298 11.6323L39.2129 11.449C40.2624 17.0781 40.2624 22.8026 39.2129 28.5271L38.2293 28.3468ZM28.5271 39.2129C33.9654 38.2588 38.2588 33.9654 39.2129 28.5271L38.2279 28.3543C37.3466 33.3779 33.3779 37.3466 28.3543 38.2279L28.5271 39.2129ZM11.449 39.2129C17.1735 40.2624 22.898 40.2624 28.5271 39.2129L28.3438 38.2298C22.8369 39.2565 17.2356 39.2571 11.6293 38.2293L11.449 39.2129ZM28.6225 0.858676L28.4497 1.84363C33.4733 2.72496 37.3466 6.59823 38.2279 11.6218L39.2129 11.449C38.2588 6.01073 34.0608 1.81276 28.6225 0.858676ZM11.449 0.858676C17.0781 -0.286225 22.898 -0.286225 28.6225 0.858676L28.4264 1.83926C22.8303 0.720026 17.1448 0.720683 11.6483 1.83861L11.449 0.858676ZM0.858676 11.449C1.81276 6.01073 6.01073 1.81276 11.449 0.858676L11.6218 1.84363C6.59823 2.72496 2.72496 6.59823 1.84363 11.6218L0.858676 11.449ZM0.858676 11.449L1.83926 11.6451C0.720026 17.2413 0.720683 22.9267 1.83861 28.4232L0.858676 28.6225C-0.286225 22.9934 -0.286225 17.1735 0.858676 11.449ZM0.858676 28.6225C1.81276 34.0608 6.01073 38.2588 11.449 39.2129L11.6218 38.2279C6.59823 37.3466 2.72496 33.4733 1.84363 28.4497L0.858676 28.6225Z" fill="#EEF4FE"/>
<path fill-rule="evenodd" clip-rule="evenodd" d="M25.2268 25.1121C22.6997 25.2745 19.9629 25.4 17.4008 25.4C14.8494 25.4 12.2395 25.2756 9.77597 25.1141C8.92307 25.0581 8.23645 24.3945 8.15225 23.5471C7.95878 21.5999 7.80078 19.557 7.80078 17.6C7.80078 15.6429 7.95878 13.6 8.15225 11.6528C8.2373 10.7968 8.9056 10.2211 9.66729 10.2559C10.0432 10.2731 10.5126 10.2791 11.2401 10.2505C11.792 10.2287 12.2217 9.76375 12.2 9.21189C12.1783 8.66004 11.7133 8.23028 11.1614 8.25201C10.4826 8.27874 10.0705 8.27225 9.75861 8.258C7.83858 8.17025 6.34241 9.6398 6.16205 11.4551C5.96632 13.425 5.80078 15.5445 5.80078 17.6C5.80078 19.6554 5.96632 21.7749 6.16205 23.7448C6.34326 25.5687 7.81928 26.9901 9.64514 27.1098C10.3293 27.1546 11.0265 27.1968 11.7323 27.2343C11.7954 27.8027 11.8899 28.4906 11.997 29.1227C12.256 30.6511 13.5431 31.5997 14.9547 31.6936C17.4908 31.8623 20.2373 31.9999 22.9329 31.9999C25.3078 31.9999 27.7085 31.8931 29.9753 31.7524C31.9508 31.6298 33.5827 30.1173 33.7471 28.1013C33.9503 25.6093 34.1463 21.5387 33.8448 16.8279C33.7436 15.2453 32.5786 13.8969 30.9155 13.744C30.1943 13.6777 29.4221 13.6283 28.8284 13.6089C28.7917 13.2494 28.7488 12.8688 28.6996 12.4313C28.6675 12.1457 28.6325 11.8351 28.5948 11.4911C28.5347 10.9421 28.041 10.5458 27.4919 10.6059C26.9429 10.666 26.5466 11.1598 26.6067 11.7088C26.6451 12.0594 26.6804 12.3728 26.7126 12.6595L26.7128 12.6606C26.9167 14.4729 27.0008 15.2205 27.0008 17.6C27.0008 19.5861 26.941 21.6424 26.8069 23.5729C26.7497 24.3961 26.0829 25.0571 25.2268 25.1121ZM28.9708 15.6156C28.991 16.1641 29.0008 16.7957 29.0008 17.6C29.0008 19.6237 28.94 21.727 28.8021 23.7115C28.6732 25.5664 27.178 26.9908 25.3551 27.108C22.806 27.2718 20.0224 27.4 17.4008 27.4C16.1886 27.4 14.9667 27.3726 13.7567 27.3269C13.8129 27.7861 13.8869 28.3045 13.9689 28.7886C14.0512 29.2741 14.4608 29.6563 15.0874 29.698C17.6038 29.8654 20.3007 29.9999 22.9329 29.9999C25.2509 29.9999 27.6067 29.8955 29.8514 29.7562C30.8783 29.6925 31.6736 28.9209 31.7537 27.9388C31.9515 25.5136 32.1426 21.5439 31.8489 16.9556C31.8051 16.2707 31.3319 15.7907 30.7324 15.7356C30.1178 15.6791 29.4801 15.637 28.9708 15.6156Z" fill="#0033C9"/>
<path d="M14.4086 8.24642C14.6732 10.5092 15.2837 13.4692 15.3985 13.911C15.5828 14.6203 16.0743 15.2007 16.7501 15.3296C17.1245 15.4011 18.4237 15.5861 19.7855 15.5998C21.1474 15.5861 22.4763 15.4011 22.8507 15.3296C23.5265 15.2007 24.0179 14.6203 24.2023 13.911C24.3171 13.4692 24.9276 10.5092 25.1921 8.24642C25.2869 7.43577 24.5479 6.89361 23.8743 7.29194C23.1793 7.70294 22.5509 8.14313 22.1754 8.41696C21.9854 8.55553 21.7209 8.4833 21.6149 8.26636C21.281 7.58316 20.8217 6.77522 20.4068 6.21967C20.0813 5.78387 19.5195 5.78387 19.194 6.21967C18.779 6.77522 18.3198 7.58316 17.9859 8.26636C17.8798 8.4833 17.6154 8.55553 17.4254 8.41696C17.0499 8.14313 16.4215 7.70294 15.7265 7.29194C15.0529 6.89361 14.3139 7.43577 14.4086 8.24642Z" fill="#00CF6A"/>
<path d="M11.5996 19.8C11.0473 19.8 10.5996 20.2478 10.5996 20.8C10.5996 21.3523 11.0473 21.8 11.5996 21.8H15.7996C16.3519 21.8 16.7996 21.3523 16.7996 20.8C16.7996 20.2478 16.3519 19.8 15.7996 19.8H11.5996Z" fill="#00CF6A"/>
<path d="M19.2012 19.8C18.6489 19.8 18.2012 20.2478 18.2012 20.8C18.2012 21.3523 18.6489 21.8 19.2012 21.8H23.2012C23.7535 21.8 24.2012 21.3523 24.2012 20.8C24.2012 20.2478 23.7535 19.8 23.2012 19.8H19.2012Z" fill="#00CF6A"/>
</g>
<defs>
<clipPath id="clip0_1_5983">
<rect width="40" height="40" fill="white"/>
</clipPath>
</defs>
</svg>
