<svg width="40" height="40" viewBox="0 0 40 40" fill="none" xmlns="http://www.w3.org/2000/svg">
<g clip-path="url(#clip0_1_5438)">
<path d="M39.2129 11.449V11.449C40.2624 17.0781 40.2624 22.8026 39.2129 28.5271V28.5271C38.2588 33.9654 33.9654 38.2588 28.5271 39.2129V39.2129C22.898 40.2624 17.1735 40.2624 11.449 39.2129V39.2129C6.01073 38.2588 1.81276 34.0608 0.858676 28.6225V28.6225C-0.286225 22.9934 -0.286225 17.1735 0.858676 11.449V11.449C1.81276 6.01073 6.01073 1.81276 11.449 0.858676V0.858676C17.0781 -0.286225 22.898 -0.286225 28.6225 0.858676V0.858676C34.0608 1.81276 38.2588 6.01073 39.2129 11.449Z" fill="white"/>
<path d="M11.5488 1.34863C17.1115 0.217257 22.8642 0.216603 28.5244 1.34863L28.6221 0.858398L28.5361 1.35156C33.767 2.26928 37.8029 6.30434 38.7207 11.5352L39.2129 11.4492L38.7217 11.541C39.7597 17.1088 39.7593 22.7714 38.7207 28.4365L39.2129 28.5273L38.7207 28.4404C37.803 33.6714 33.6714 37.803 28.4404 38.7207L28.5205 39.1758L28.4355 38.7217C22.8675 39.7598 17.2045 39.7594 11.5391 38.7207L11.4668 39.1143L11.5352 38.7207C6.30434 37.8029 2.26928 33.767 1.35156 28.5361L0.858398 28.6221L1.34863 28.5225C0.217301 22.9598 0.216595 17.2071 1.34863 11.5469L0.858398 11.4492L1.35156 11.5352C2.26936 6.30449 6.30449 2.26936 11.5352 1.35156L11.4492 0.858398L11.5488 1.34863Z" stroke="#F0F5FE"/>
<rect x="19.498" y="14.332" width="8.6651" height="4.18315" fill="white"/>
<path d="M21.6845 15.3777C21.0244 15.3777 20.4893 15.9128 20.4893 16.5729C20.4893 17.233 21.0244 17.7681 21.6845 17.7681C22.3446 17.7681 22.8797 17.233 22.8797 16.5729C22.8797 15.9128 22.3446 15.3777 21.6845 15.3777Z" fill="#00CF6A"/>
<path d="M26.1664 15.3777C25.5064 15.3777 24.9713 15.9128 24.9713 16.5729C24.9713 17.233 25.5064 17.7681 26.1664 17.7681C26.8265 17.7681 27.3616 17.233 27.3616 16.5729C27.3616 15.9128 26.8265 15.3777 26.1664 15.3777Z" fill="#00CF6A"/>
<path fill-rule="evenodd" clip-rule="evenodd" d="M27.9449 10.7977C28.3962 11.1216 27.9449 13.2889 27.9449 13.2889C29.0371 14.1048 29.6263 15.4252 29.4994 16.7766C29.2706 18.7198 27.6065 20.1787 25.6383 20.1647H22.2788C20.3059 20.2363 18.5964 18.8179 18.3175 16.8763C18.1921 15.5248 18.7797 14.2045 19.8719 13.3886C19.8719 13.3886 19.5209 11.2212 19.8719 10.8974C20.2229 10.5735 22.2035 11.7693 22.6047 12.2177C23.4459 12.0769 24.8187 12.0081 25.6383 12.2177C26.0395 11.7693 27.4936 10.4739 27.9449 10.7977ZM19.5929 16.5729C19.5929 15.4177 20.5293 14.4813 21.6845 14.4813C22.7382 14.4813 23.6099 15.2605 23.7549 16.2741H24.096C24.241 15.2605 25.1127 14.4813 26.1664 14.4813C27.3216 14.4813 28.258 15.4177 28.258 16.5729C28.258 17.728 27.3216 18.6644 26.1664 18.6644C25.2189 18.6644 24.4186 18.0344 24.1615 17.1705H23.6895C23.4323 18.0344 22.632 18.6644 21.6845 18.6644C20.5293 18.6644 19.5929 17.728 19.5929 16.5729Z" fill="#00CF6A"/>
<path fill-rule="evenodd" clip-rule="evenodd" d="M21.92 5.57143C23.5118 5.2788 25.1499 5.36172 26.7041 5.8136C28.2582 6.26548 29.6854 7.07384 30.8721 8.17436C32.0588 9.27488 32.9723 10.6372 33.5399 12.1529C34.1075 13.6686 34.3135 15.2958 34.1415 16.9051C33.9695 18.5145 33.4243 20.0614 32.5493 21.423C32.2507 21.8876 31.632 22.0221 31.1674 21.7235C30.7027 21.4249 30.5682 20.8062 30.8668 20.3416C31.5736 19.2419 32.0139 17.9925 32.1528 16.6926C32.2917 15.3928 32.1254 14.0785 31.6669 12.8543C31.2085 11.63 30.4707 10.5297 29.5122 9.64084C28.5537 8.75195 27.4009 8.09904 26.1457 7.73407C24.8904 7.36909 23.5673 7.30211 22.2816 7.53847C20.9959 7.77483 19.7831 8.30799 18.7398 9.09554C17.6964 9.88309 16.8512 10.9033 16.2715 12.075C15.6918 13.2466 15.3936 14.5374 15.4005 15.8446C15.4034 16.3969 14.9581 16.847 14.4058 16.8499C13.8536 16.8529 13.4035 16.4075 13.4005 15.8552C13.3919 14.2368 13.7612 12.6387 14.4789 11.188C15.1967 9.7374 16.2431 8.4743 17.5349 7.49923C18.8267 6.52417 20.3282 5.86406 21.92 5.57143Z" fill="#0033C9"/>
<path d="M18.88 27.5146L18.5501 24.0244C18.428 22.7317 17.505 21.656 16.2459 21.3389L12.7801 20.466C11.5543 20.1572 10.2881 20.0398 9.02633 20.1179L6.80066 20.2556V29.3423L14.0342 32.7123C17.1244 34.1519 20.6743 34.2408 23.8327 32.9576L31.2124 29.9592C32.2975 29.5183 32.8614 28.3172 32.5073 27.2006C32.152 26.0801 30.9926 25.4234 29.8488 25.6948L20.7552 27.8531L18.88 27.5146Z" fill="white"/>
<path fill-rule="evenodd" clip-rule="evenodd" d="M12.6304 21.6064C11.5031 21.3221 10.3386 21.214 9.17822 21.2858L7.94556 21.3622L7.94556 28.7689L14.4434 31.8002C17.2845 33.1256 20.5494 33.2074 23.4533 32.026L30.6705 29.0897C31.2595 28.85 31.5655 28.1981 31.3736 27.5919C31.1807 26.9828 30.5505 26.6259 29.929 26.7736L20.9545 28.9065C20.8203 28.9383 20.6811 28.9421 20.5454 28.9176L18.7156 28.5869C18.7007 28.5845 18.6859 28.5819 18.6712 28.5789L13.4244 27.6305C12.8809 27.5323 12.52 27.0121 12.6182 26.4686C12.7165 25.9251 13.2367 25.5642 13.7801 25.6624L17.7523 26.3804L17.5528 24.2663C17.4706 23.3952 16.8489 22.6703 16.0005 22.4563L12.6304 21.6064ZM19.7961 26.7498L19.544 24.0784C19.3822 22.3644 18.1588 20.938 16.4896 20.517L13.1195 19.6671C11.7921 19.3323 10.4209 19.205 9.05454 19.2897L6.88372 19.4242C6.35646 19.4568 5.94556 19.894 5.94556 20.4223L5.94556 29.4058C5.94556 29.7944 6.17065 30.1478 6.52279 30.3121L13.5979 33.6127C16.9433 35.1734 20.7877 35.2697 24.2071 33.8785L31.4242 30.9422C32.9791 30.3096 33.787 28.5885 33.2803 26.9881C32.7711 25.3802 31.1074 24.4378 29.4665 24.8278L20.6954 26.9123L19.7961 26.7498Z" fill="#0033CC"/>
</g>
<defs>
<clipPath id="clip0_1_5438">
<rect width="40" height="40" fill="white"/>
</clipPath>
</defs>
</svg>
