<svg width="40" height="40" viewBox="0 0 40 40" fill="none" xmlns="http://www.w3.org/2000/svg">
<g clip-path="url(#clip0_1_4281)">
<path d="M39.2129 11.449V11.449C40.2624 17.0781 40.2624 22.8026 39.2129 28.5271V28.5271C38.2588 33.9654 33.9654 38.2588 28.5271 39.2129V39.2129C22.898 40.2624 17.1735 40.2624 11.449 39.2129V39.2129C6.01073 38.2588 1.81276 34.0608 0.858676 28.6225V28.6225C-0.286225 22.9934 -0.286225 17.1735 0.858676 11.449V11.449C1.81276 6.01073 6.01073 1.81276 11.449 0.858676V0.858676C17.0781 -0.286225 22.898 -0.286225 28.6225 0.858676V0.858676C34.0608 1.81276 38.2588 6.01073 39.2129 11.449Z" fill="white"/>
<path fill-rule="evenodd" clip-rule="evenodd" d="M38.2293 28.3468C39.2571 22.7405 39.2565 17.1393 38.2298 11.6323L39.2129 11.449C40.2624 17.0781 40.2624 22.8026 39.2129 28.5271L38.2293 28.3468ZM28.5271 39.2129C33.9654 38.2588 38.2588 33.9654 39.2129 28.5271L38.2279 28.3543C37.3466 33.3779 33.3779 37.3466 28.3543 38.2279L28.5271 39.2129ZM11.449 39.2129C17.1735 40.2624 22.898 40.2624 28.5271 39.2129L28.3438 38.2298C22.8369 39.2565 17.2356 39.2571 11.6293 38.2293L11.449 39.2129ZM28.6225 0.858676L28.4497 1.84363C33.4733 2.72496 37.3466 6.59823 38.2279 11.6218L39.2129 11.449C38.2588 6.01073 34.0608 1.81276 28.6225 0.858676ZM11.449 0.858676C17.0781 -0.286225 22.898 -0.286225 28.6225 0.858676L28.4264 1.83926C22.8303 0.720026 17.1448 0.720683 11.6483 1.83861L11.449 0.858676ZM0.858676 11.449C1.81276 6.01073 6.01073 1.81276 11.449 0.858676L11.6218 1.84363C6.59823 2.72496 2.72496 6.59823 1.84363 11.6218L0.858676 11.449ZM0.858676 11.449L1.83926 11.6451C0.720026 17.2413 0.720683 22.9267 1.83861 28.4232L0.858676 28.6225C-0.286225 22.9934 -0.286225 17.1735 0.858676 11.449ZM0.858676 28.6225C1.81276 34.0608 6.01073 38.2588 11.449 39.2129L11.6218 38.2279C6.59823 37.3466 2.72496 33.4733 1.84363 28.4497L0.858676 28.6225Z" fill="#EEF4FE"/>
<path d="M17.6829 25.9942C17.5338 26.0561 17.3876 26.1237 17.2444 26.1968C16.2787 26.6901 16.2698 27.9642 17.0118 28.755L18.5865 30.4332C19.3829 31.282 20.7306 31.282 21.5271 30.4332L23.1017 28.755C23.8438 27.9642 23.8349 26.6901 22.8692 26.1968C22.726 26.1237 22.5797 26.0561 22.4307 25.9942C21.6794 25.6821 20.8722 25.5214 20.0568 25.5214C19.2414 25.5214 18.4342 25.6821 17.6829 25.9942Z" fill="#00CF6A"/>
<path fill-rule="evenodd" clip-rule="evenodd" d="M20.0567 26.5214C19.3727 26.5214 18.6959 26.6563 18.0664 26.9177C17.9416 26.9696 17.8191 27.0262 17.6993 27.0874C17.5638 27.1566 17.4961 27.2622 17.4857 27.4272C17.4738 27.6166 17.5489 27.866 17.741 28.0708L19.3157 29.7489C19.7171 30.1767 20.3964 30.1767 20.7978 29.7489L22.3725 28.0708C22.5646 27.866 22.6397 27.6166 22.6278 27.4272C22.6174 27.2622 22.5497 27.1566 22.4142 27.0874C22.2944 27.0262 22.1719 26.9696 22.047 26.9177C21.4176 26.6563 20.7408 26.5214 20.0567 26.5214ZM17.2993 25.0707C18.1724 24.708 19.11 24.5214 20.0567 24.5214C21.0035 24.5214 21.9411 24.708 22.8142 25.0707C22.9875 25.1426 23.1575 25.2213 23.324 25.3063C24.1542 25.7304 24.5739 26.5085 24.6238 27.3015C24.6723 28.0702 24.3809 28.8532 23.8309 29.4393L22.2563 31.1174C21.0648 32.3872 19.0487 32.3872 17.8572 31.1174L16.2826 29.4393C15.7326 28.8532 15.4412 28.0702 15.4896 27.3015C15.5396 26.5085 15.9593 25.7304 16.7895 25.3063C16.956 25.2213 17.126 25.1426 17.2993 25.0707Z" fill="#0033C9"/>
<path fill-rule="evenodd" clip-rule="evenodd" d="M20.0078 19.301C18.5455 19.301 17.0981 19.5855 15.7489 20.138C14.3996 20.6904 13.1757 21.4996 12.147 22.5182C11.7545 22.9068 11.1214 22.9036 10.7328 22.5112C10.3442 22.1187 10.3473 21.4856 10.7398 21.097C11.9557 19.893 13.4007 18.9383 14.991 18.2871C16.5814 17.636 18.2863 17.301 20.0078 17.301C21.7293 17.301 23.4342 17.636 25.0245 18.2871C26.6149 18.9383 28.0598 19.893 29.2758 21.097C29.6682 21.4856 29.6713 22.1187 29.2828 22.5112C28.8942 22.9036 28.261 22.9068 27.8686 22.5182C26.8399 21.4996 25.6159 20.6904 24.2667 20.138C22.9174 19.5855 21.47 19.301 20.0078 19.301Z" fill="#0033C9"/>
<path fill-rule="evenodd" clip-rule="evenodd" d="M19.9979 12.2001C17.7497 12.2001 15.5238 12.6362 13.4476 13.4831C11.3714 14.33 9.48612 15.5709 7.89899 17.1341C7.50551 17.5217 6.87237 17.5169 6.48482 17.1234C6.09726 16.7299 6.10207 16.0968 6.49554 15.7092C8.2698 13.9617 10.3756 12.5762 12.6922 11.6312C15.0088 10.6863 17.4913 10.2001 19.9979 10.2001C22.5046 10.2001 24.9871 10.6863 27.3037 11.6312C29.6203 12.5762 31.7261 13.9617 33.5004 15.7092C33.8938 16.0968 33.8986 16.7299 33.5111 17.1234C33.1235 17.5169 32.4904 17.5217 32.0969 17.1341C30.5098 15.5709 28.6245 14.33 26.5483 13.4831C24.4721 12.6362 22.2462 12.2001 19.9979 12.2001Z" fill="#0033C9"/>
</g>
<defs>
<clipPath id="clip0_1_4281">
<rect width="40" height="40" fill="white"/>
</clipPath>
</defs>
</svg>
