<svg width="40" height="40" viewBox="0 0 40 40" fill="none" xmlns="http://www.w3.org/2000/svg">
<path d="M39.2129 11.449C40.2624 17.0781 40.2624 22.8026 39.2129 28.5271C38.2588 33.9654 33.9654 38.2588 28.5271 39.2129C22.898 40.2624 17.1735 40.2624 11.449 39.2129C6.01073 38.2588 1.81276 34.0608 0.858676 28.6225C-0.286225 22.9934 -0.286225 17.1735 0.858676 11.449C1.81276 6.01073 6.01073 1.81276 11.449 0.858676C17.0781 -0.286225 22.898 -0.286225 28.6225 0.858676C34.0608 1.81276 38.2588 6.01073 39.2129 11.449Z" fill="white"/>
<path fill-rule="evenodd" clip-rule="evenodd" d="M38.2279 11.6218C37.3466 6.59823 33.4733 2.72496 28.4497 1.84363L28.4381 1.84158L28.4264 1.83926C22.8303 0.720027 17.1448 0.720684 11.6483 1.83861L11.6351 1.8413L11.6218 1.84363C6.59823 2.72496 2.72496 6.59823 1.84363 11.6218L1.84158 11.6335L1.83926 11.6451C0.720027 17.2413 0.720684 22.9267 1.83861 28.4232L1.8413 28.4365L1.84363 28.4497C2.72496 33.4733 6.59823 37.3466 11.6218 38.2279L11.6293 38.2292C17.2356 39.2571 22.8369 39.2565 28.3438 38.2298L28.3543 38.2279C33.3779 37.3465 37.3466 33.3779 38.2279 28.3543L38.2292 28.3468C39.2571 22.7405 39.2565 17.1393 38.2298 11.6323L38.2279 11.6218ZM11.449 39.2129C17.1735 40.2624 22.898 40.2624 28.5271 39.2129C33.9654 38.2588 38.2588 33.9654 39.2129 28.5271C40.2624 22.8026 40.2624 17.0781 39.2129 11.449C38.2588 6.01073 34.0608 1.81276 28.6225 0.858676C22.898 -0.286225 17.0781 -0.286225 11.449 0.858676C6.01073 1.81276 1.81276 6.01073 0.858676 11.449C-0.286225 17.1735 -0.286225 22.9934 0.858676 28.6225C1.81276 34.0608 6.01073 38.2588 11.449 39.2129Z" fill="#F5F9FF"/>
<path fill-rule="evenodd" clip-rule="evenodd" d="M18 6C20.0907 6 21.7678 5.99798 23.082 6.18945C24.4337 6.3864 25.5455 6.8056 26.417 7.75C27.2913 8.69756 27.656 9.96827 27.8291 11.4492C28.0022 12.9298 28 14.8037 28 17.0791V19.2461C28 19.7984 27.5523 20.2461 27 20.2461C26.4478 20.246 26 19.7983 26 19.2461V17.0791C26 16.8468 25.9992 16.6202 25.999 16.3994H10.001C10.0008 16.6202 10 16.8468 10 17.0791V19.2461C10 21.564 10.001 23.4795 10.1592 24.9941C10.3214 26.5479 10.6312 27.4366 11.0527 27.8936C11.5314 28.4123 12.0473 28.6838 12.9727 28.834C13.9739 28.9964 15.3418 29 17.5 29C18.0523 29 18.5 29.4477 18.5 30C18.5 30.5523 18.0523 31 17.5 31C15.4158 31 13.8519 31.0032 12.6523 30.8086C11.377 30.6017 10.4224 30.1597 9.58301 29.25C8.68664 28.2785 8.33716 26.803 8.16992 25.2012C7.99858 23.5598 8 21.526 8 19.2461V17.0791C8 14.8037 7.99881 12.9299 8.17188 11.4492C8.345 9.96828 8.70869 8.69755 9.58301 7.75C10.4545 6.80554 11.5664 6.38644 12.918 6.18945C14.2321 5.99798 15.9094 6 18 6ZM18 8C15.8485 8 14.3436 8.00241 13.207 8.16797C12.108 8.32811 11.4992 8.62261 11.0527 9.10645C10.6092 9.58724 10.3146 10.3434 10.1582 11.6807C10.0689 12.4449 10.0325 13.34 10.0156 14.3994H25.9844C25.9675 13.34 25.9311 12.4449 25.8418 11.6807C25.6854 10.3433 25.3909 9.58722 24.9473 9.10645C24.5008 8.62267 23.8929 8.32811 22.7939 8.16797C21.6573 8.00236 20.1519 8 18 8Z" fill="#0033C9"/>
<path d="M13 9C13.5522 9.00013 14 9.4478 14 10V13C14 13.5522 13.5522 13.9999 13 14C12.4477 14 12 13.5523 12 13V10C12 9.44772 12.4477 9 13 9Z" fill="#00CF6A"/>
<path d="M13.5 25.5996C14.0521 25.5996 14.4997 26.0476 14.5 26.5996C14.5 27.1519 14.0523 27.5996 13.5 27.5996H12.5C11.9479 27.5994 11.5 27.1518 11.5 26.5996C11.5003 26.0477 11.9481 25.5998 12.5 25.5996H13.5Z" fill="#0033C9"/>
<path d="M18.5 25.5996C19.0521 25.5996 19.4997 26.0476 19.5 26.5996C19.5 27.1519 19.0523 27.5996 18.5 27.5996H17.5C16.9479 27.5994 16.5 27.1518 16.5 26.5996C16.5003 26.0477 16.9481 25.5998 17.5 25.5996H18.5Z" fill="#0033C9"/>
<path d="M13.5 21.5996C14.0521 21.5996 14.4997 22.0476 14.5 22.5996C14.5 23.1519 14.0523 23.5996 13.5 23.5996H12.5C11.9479 23.5994 11.5 23.1518 11.5 22.5996C11.5003 22.0477 11.9481 21.5998 12.5 21.5996H13.5Z" fill="#0033C9"/>
<path d="M18.5 21.5996C19.0521 21.5996 19.4997 22.0476 19.5 22.5996C19.5 23.1519 19.0523 23.5996 18.5 23.5996H17.5C16.9479 23.5994 16.5 23.1518 16.5 22.5996C16.5003 22.0477 16.9481 21.5998 17.5 21.5996H18.5Z" fill="#0033C9"/>
<path d="M13.6025 17.6055C14.1065 17.6568 14.4997 18.0822 14.5 18.5996C14.5 19.1519 14.0523 19.5996 13.5 19.5996H12.5C11.9479 19.5994 11.5 19.1518 11.5 18.5996C11.5003 18.0477 11.9481 17.5998 12.5 17.5996H13.5L13.6025 17.6055Z" fill="#0033C9"/>
<path d="M18.5 17.5996C19.0522 17.5996 19.4998 18.0475 19.5 18.5996C19.5 19.1519 19.0523 19.5996 18.5 19.5996H17.5C16.9479 19.5994 16.5 19.1518 16.5 18.5996C16.5002 18.0476 16.948 17.5998 17.5 17.5996H18.5Z" fill="#0033C9"/>
<path d="M23.5 17.5996C24.0522 17.5996 24.4998 18.0475 24.5 18.5996C24.5 19.1519 24.0523 19.5996 23.5 19.5996H22.5C21.9479 19.5994 21.5 19.1518 21.5 18.5996C21.5002 18.0476 21.948 17.5998 22.5 17.5996H23.5Z" fill="#0033C9"/>
<path d="M26 34C29.3137 34 32 31.3137 32 28C32 24.6863 29.3137 22 26 22C22.6863 22 20 24.6863 20 28C20 31.3137 22.6863 34 26 34Z" fill="#00CF6A"/>
<path d="M26.1827 23.6504C26.5969 23.6504 26.9327 23.9862 26.9327 24.4004V24.6416C27.2005 24.72 27.4283 24.8347 27.6094 24.9492C27.7925 25.0649 27.9348 25.1847 28.0333 25.2773C28.0828 25.3239 28.1225 25.3651 28.1514 25.3965C28.1658 25.4121 28.1773 25.4258 28.1866 25.4365L28.1993 25.4502L28.2051 25.459L28.2061 25.46C28.2063 25.4602 28.2075 25.4608 27.6339 25.9307L28.2071 25.4609C28.4694 25.7813 28.4227 26.2531 28.1026 26.5156C27.7845 26.7762 27.3164 26.732 27.0528 26.418L27.0049 26.3701C26.9615 26.3293 26.8943 26.2725 26.8077 26.2178C26.6339 26.1079 26.4075 26.0202 26.1348 26.0459C25.8122 26.0763 25.6324 26.1912 25.5352 26.2959C25.4341 26.4049 25.382 26.5451 25.3819 26.6924C25.3819 26.8303 25.4087 26.8894 25.419 26.9082C25.4283 26.9251 25.4456 26.9481 25.4962 26.9795C25.6388 27.068 25.864 27.1227 26.2794 27.207C26.293 27.2098 26.3071 27.212 26.3214 27.2148C26.6601 27.2833 27.16 27.3846 27.5645 27.6445C27.795 27.7926 28.0097 27.9987 28.1612 28.2842C28.3113 28.5671 28.377 28.8858 28.377 29.2266C28.377 29.7396 28.1222 30.16 27.8077 30.4512C27.5615 30.679 27.2576 30.8491 26.9327 30.9619V31.2568C26.9327 31.671 26.5969 32.0068 26.1827 32.0068C25.7687 32.0066 25.4327 31.6709 25.4327 31.2568V31.0781C24.9044 30.9828 24.3746 30.7375 23.9268 30.29C23.6339 29.9972 23.634 29.5225 23.9268 29.2295C24.2196 28.9366 24.6944 28.9358 24.9874 29.2285C25.363 29.604 25.8733 29.6903 26.3106 29.585C26.5293 29.5322 26.6934 29.4391 26.7891 29.3506C26.8353 29.3079 26.8578 29.2727 26.8682 29.252C26.873 29.2423 26.8752 29.2357 26.876 29.2324C26.8768 29.2294 26.877 29.2272 26.877 29.2266C26.877 29.0802 26.8496 29.0129 26.836 28.9873C26.8237 28.9643 26.804 28.9384 26.754 28.9062C26.6143 28.8165 26.3907 28.7601 25.9805 28.6768C25.9619 28.673 25.9427 28.669 25.9229 28.665C25.5891 28.5979 25.0996 28.4995 24.7042 28.2539C24.4743 28.1111 24.2571 27.9095 24.1026 27.627C23.9493 27.3463 23.8819 27.0298 23.8819 26.6924C23.882 25.7975 24.4426 24.9706 25.4327 24.665V24.4004C25.4327 23.9863 25.7687 23.6506 26.1827 23.6504Z" fill="white"/>
</svg>
