<svg width="40" height="40" viewBox="0 0 40 40" fill="none" xmlns="http://www.w3.org/2000/svg">
<g clip-path="url(#clip0_1_4660)">
<path d="M39.2129 11.449V11.449C40.2624 17.0781 40.2624 22.8026 39.2129 28.5271V28.5271C38.2588 33.9654 33.9654 38.2588 28.5271 39.2129V39.2129C22.898 40.2624 17.1735 40.2624 11.449 39.2129V39.2129C6.01073 38.2588 1.81276 34.0608 0.858676 28.6225V28.6225C-0.286225 22.9934 -0.286225 17.1735 0.858676 11.449V11.449C1.81276 6.01073 6.01073 1.81276 11.449 0.858676V0.858676C17.0781 -0.286225 22.898 -0.286225 28.6225 0.858676V0.858676C34.0608 1.81276 38.2588 6.01073 39.2129 11.449Z" fill="white"/>
<path fill-rule="evenodd" clip-rule="evenodd" d="M38.2293 28.3468C39.2571 22.7405 39.2565 17.1393 38.2298 11.6323L39.2129 11.449C40.2624 17.0781 40.2624 22.8026 39.2129 28.5271L38.2293 28.3468ZM28.5271 39.2129C33.9654 38.2588 38.2588 33.9654 39.2129 28.5271L38.2279 28.3543C37.3466 33.3779 33.3779 37.3466 28.3543 38.2279L28.5271 39.2129ZM11.449 39.2129C17.1735 40.2624 22.898 40.2624 28.5271 39.2129L28.3438 38.2298C22.8369 39.2565 17.2356 39.2571 11.6293 38.2293L11.449 39.2129ZM28.6225 0.858676L28.4497 1.84363C33.4733 2.72496 37.3466 6.59823 38.2279 11.6218L39.2129 11.449C38.2588 6.01073 34.0608 1.81276 28.6225 0.858676ZM11.449 0.858676C17.0781 -0.286225 22.898 -0.286225 28.6225 0.858676L28.4264 1.83926C22.8303 0.720026 17.1448 0.720683 11.6483 1.83861L11.449 0.858676ZM0.858676 11.449C1.81276 6.01073 6.01073 1.81276 11.449 0.858676L11.6218 1.84363C6.59823 2.72496 2.72496 6.59823 1.84363 11.6218L0.858676 11.449ZM0.858676 11.449L1.83926 11.6451C0.720026 17.2413 0.720683 22.9267 1.83861 28.4232L0.858676 28.6225C-0.286225 22.9934 -0.286225 17.1735 0.858676 11.449ZM0.858676 28.6225C1.81276 34.0608 6.01073 38.2588 11.449 39.2129L11.6218 38.2279C6.59823 37.3466 2.72496 33.4733 1.84363 28.4497L0.858676 28.6225Z" fill="#EEF4FE"/>
<path fill-rule="evenodd" clip-rule="evenodd" d="M11.797 10.2C10.9342 10.2 10.2768 10.6907 10.0936 11.3793C9.16936 14.8537 8.20117 21.2859 8.20117 24.9666C8.20117 26.247 8.54234 27.2495 9.08466 27.9651C9.62234 28.6746 10.4014 29.1616 11.3985 29.3513C12.7387 29.6064 15.2519 29.8 17.6262 29.8C18.1785 29.8 18.6262 30.2477 18.6262 30.8C18.6262 31.3522 18.1785 31.8 17.6262 31.8C15.1879 31.8 12.5365 31.6038 11.0246 31.3161C9.57184 31.0396 8.3457 30.3013 7.49065 29.173C6.64024 28.0509 6.20117 26.6029 6.20117 24.9666C6.20117 21.0817 7.20058 14.4749 8.16086 10.8651C8.61461 9.15945 10.1824 8.19995 11.797 8.19995H22.972C24.5992 8.19995 26.1195 9.16407 26.6477 10.7968C27.0159 11.9353 27.4444 13.4289 27.779 14.9904C27.8947 15.5304 27.5507 16.062 27.0107 16.1778C26.4707 16.2935 25.9391 15.9495 25.8234 15.4095C25.506 13.9284 25.0971 12.5015 24.7448 11.4124C24.5104 10.6879 23.8223 10.2 22.972 10.2H11.797Z" fill="#0033C9"/>
<path fill-rule="evenodd" clip-rule="evenodd" d="M17.402 16.2C16.0765 16.2 15.002 15.1254 15.002 13.8V13.2C15.002 12.6477 14.5542 12.2 14.002 12.2C13.4497 12.2 13.002 12.6477 13.002 13.2V13.8C13.002 16.23 14.9719 18.2 17.402 18.2C19.832 18.2 21.802 16.23 21.802 13.8V13.2C21.802 12.6477 21.3542 12.2 20.802 12.2C20.2497 12.2 19.802 12.6477 19.802 13.2V13.8C19.802 15.1254 18.7274 16.2 17.402 16.2Z" fill="#0033C9"/>
<path d="M23.7628 19.6H29.2385C29.6486 19.6 30.0256 19.8246 30.2103 20.1907C30.5021 20.7692 30.9345 22.311 31.1927 23.0705C30.9627 23.062 30.7311 23.0532 30.4981 23.0443C29.207 22.9949 27.8701 22.9438 26.5006 22.9438C25.1312 22.9438 23.7942 22.9949 22.5031 23.0443C22.2701 23.0532 22.0386 23.062 21.8086 23.0705C22.0668 22.311 22.4992 20.7692 22.791 20.1907C22.9757 19.8246 23.3527 19.6 23.7628 19.6Z" fill="white"/>
<path d="M21.8863 26.494C22.1963 28.2533 22.7771 30.7893 23.0943 31.9842C23.2227 32.4678 23.6611 32.8 24.1614 32.8H28.8398C29.3401 32.8 29.7785 32.4678 29.9069 31.9842C30.2241 30.7893 30.8049 28.2533 31.1149 26.494C30.9105 26.5016 30.7049 26.5094 30.4981 26.5174C29.207 26.5667 27.8701 26.6178 26.5006 26.6178C25.1312 26.6178 23.7942 26.5667 22.5032 26.5174C22.2963 26.5094 22.0907 26.5016 21.8863 26.494Z" fill="white"/>
<path fill-rule="evenodd" clip-rule="evenodd" d="M21.8982 19.7403C22.2586 19.026 22.9879 18.6 23.7628 18.6H29.2385C30.0135 18.6 30.7427 19.026 31.1031 19.7403C31.2915 20.1137 31.4959 20.7246 31.6665 21.258C31.7419 21.4934 31.8128 21.7208 31.8789 21.9327C31.9768 22.2468 32.0641 22.5268 32.1395 22.7486C32.2454 23.0601 32.1913 23.4038 31.9948 23.6677C31.7984 23.9316 31.4846 24.082 31.1558 24.0698C30.9251 24.0613 30.6928 24.0524 30.4599 24.0435C29.1661 23.9941 27.848 23.9438 26.5006 23.9438C25.1533 23.9438 23.8351 23.9941 22.5414 24.0435C22.3084 24.0524 22.0762 24.0613 21.8455 24.0698C21.5167 24.082 21.203 23.9316 21.0065 23.6677C20.81 23.4038 20.7559 23.0601 20.8618 22.7486C20.9372 22.5268 21.0246 22.2468 21.1225 21.9328C21.1886 21.7208 21.2595 21.4934 21.3348 21.258C21.5054 20.7246 21.7098 20.1137 21.8982 19.7403V19.7403ZM23.7628 20.6C23.7175 20.6 23.6929 20.6232 23.6838 20.6411C23.5804 20.8462 23.4227 21.2954 23.2397 21.8675C23.2239 21.9167 23.208 21.9668 23.1919 22.0175C24.2598 21.9782 25.3683 21.9438 26.5006 21.9438C27.633 21.9438 28.7415 21.9782 29.8094 22.0175C29.7934 21.9668 29.7774 21.9167 29.7617 21.8675C29.5786 21.2954 29.4209 20.8462 29.3175 20.6411C29.3084 20.6232 29.2838 20.6 29.2385 20.6H23.7628ZM21.1324 25.837C21.3308 25.6093 21.6216 25.4834 21.9235 25.4947C22.1283 25.5023 22.3342 25.5102 22.5407 25.5181L22.5414 25.5181C23.8351 25.5676 25.1533 25.6178 26.5006 25.6178C27.848 25.6178 29.1661 25.5676 30.4599 25.5181L30.4604 25.5181C30.6669 25.5102 30.8729 25.5023 31.0777 25.4947C31.3796 25.4834 31.6704 25.6093 31.8688 25.837C32.0673 26.0648 32.1521 26.37 32.0997 26.6675C31.7842 28.4577 31.1971 31.0216 30.8734 32.2408C30.6269 33.1694 29.7865 33.8 28.8398 33.8H24.1614C23.2147 33.8 22.3743 33.1694 22.1278 32.2408C21.8042 31.0216 21.217 28.4577 20.9015 26.6675C20.8491 26.37 20.9339 26.0648 21.1324 25.837ZM23.1034 27.5408C23.4138 29.0794 23.8179 30.8124 24.0609 31.7276C24.0711 31.7661 24.1075 31.8 24.1614 31.8H28.8398C28.8937 31.8 28.9301 31.7661 28.9404 31.7276C29.1833 30.8124 29.5875 29.0794 29.8978 27.5408C28.8027 27.5815 27.6642 27.6178 26.5006 27.6178C25.337 27.6178 24.1985 27.5815 23.1034 27.5408Z" fill="#00CF6A"/>
<path d="M20.5936 25.6587C20.6968 26.1368 21.1291 26.4666 21.6179 26.4842C23.1799 26.5405 24.816 26.6179 26.5015 26.6179C28.1869 26.6179 29.8231 26.5405 31.3851 26.4842C31.8739 26.4666 32.3062 26.1368 32.4094 25.6587C32.5524 24.9961 32.5524 24.5656 32.4094 23.903C32.3062 23.4249 31.8739 23.0952 31.3851 23.0776C29.8231 23.0213 28.1869 22.9438 26.5015 22.9438C24.816 22.9438 23.1799 23.0213 21.6179 23.0776C21.1291 23.0952 20.6968 23.4249 20.5936 23.903C20.4506 24.5656 20.4506 24.9961 20.5936 25.6587Z" fill="white"/>
<path fill-rule="evenodd" clip-rule="evenodd" d="M22.5496 24.0433C22.2498 24.0548 21.9513 24.0662 21.6539 24.0769C21.6224 24.0781 21.5973 24.0894 21.5825 24.1011C21.5757 24.1065 21.5728 24.1106 21.5719 24.112C21.5713 24.1129 21.5713 24.1131 21.5711 24.114C21.4581 24.6375 21.4581 24.9242 21.5711 25.4477C21.5713 25.4487 21.5713 25.4489 21.5719 25.4498C21.5728 25.4511 21.5757 25.4553 21.5825 25.4606C21.5973 25.4723 21.6224 25.4837 21.6539 25.4848C21.9513 25.4955 22.2498 25.507 22.5496 25.5184C23.8394 25.5677 25.153 25.6179 26.5015 25.6179C27.8499 25.6179 29.1635 25.5677 30.4534 25.5184C30.7532 25.507 31.0517 25.4955 31.3491 25.4848C31.3806 25.4837 31.4057 25.4723 31.4204 25.4606C31.4272 25.4553 31.4301 25.4511 31.431 25.4498C31.4316 25.4489 31.4317 25.4487 31.4319 25.4477C31.5449 24.9242 31.5449 24.6375 31.4319 24.114C31.4317 24.1134 31.4317 24.1131 31.4315 24.1128C31.4314 24.1126 31.4312 24.1123 31.431 24.112C31.4301 24.1106 31.4272 24.1065 31.4204 24.1011C31.4057 24.0894 31.3806 24.0781 31.3491 24.0769C31.0517 24.0662 30.7532 24.0548 30.4534 24.0433C29.1635 23.994 27.8499 23.9438 26.5015 23.9438C25.153 23.9438 23.8394 23.994 22.5496 24.0433ZM22.4585 22.0453C23.7506 21.9959 25.111 21.9438 26.5015 21.9438C27.8919 21.9438 29.2523 21.9959 30.5445 22.0453C30.8404 22.0566 31.1328 22.0678 31.4211 22.0782C32.3214 22.1107 33.1778 22.7236 33.3868 23.6921C33.5599 24.4937 33.5599 25.0681 33.3868 25.8697C33.1778 26.8382 32.3214 27.4511 31.4211 27.4835C31.1328 27.4939 30.8404 27.5051 30.5444 27.5164C29.2523 27.5659 27.8919 27.6179 26.5015 27.6179C25.111 27.6179 23.7506 27.5659 22.4585 27.5164C22.1625 27.5051 21.8702 27.4939 21.5818 27.4835C20.6815 27.4511 19.8251 26.8382 19.6161 25.8697C19.4431 25.0681 19.4431 24.4937 19.6161 23.6921C19.8251 22.7236 20.6815 22.1107 21.5818 22.0782C21.8702 22.0678 22.1625 22.0566 22.4585 22.0453Z" fill="#00CF6A"/>
</g>
<defs>
<clipPath id="clip0_1_4660">
<rect width="40" height="40" fill="white"/>
</clipPath>
</defs>
</svg>
