<svg width="40" height="40" viewBox="0 0 40 40" fill="none" xmlns="http://www.w3.org/2000/svg">
<g clip-path="url(#clip0_1_4314)">
<path d="M39.2129 11.449V11.449C40.2624 17.0781 40.2624 22.8026 39.2129 28.5271V28.5271C38.2588 33.9654 33.9654 38.2588 28.5271 39.2129V39.2129C22.898 40.2624 17.1735 40.2624 11.449 39.2129V39.2129C6.01073 38.2588 1.81276 34.0608 0.858676 28.6225V28.6225C-0.286225 22.9934 -0.286225 17.1735 0.858676 11.449V11.449C1.81276 6.01073 6.01073 1.81276 11.449 0.858676V0.858676C17.0781 -0.286225 22.898 -0.286225 28.6225 0.858676V0.858676C34.0608 1.81276 38.2588 6.01073 39.2129 11.449Z" fill="white"/>
<path fill-rule="evenodd" clip-rule="evenodd" d="M38.2293 28.3468C39.2571 22.7405 39.2565 17.1393 38.2298 11.6323L39.2129 11.449C40.2624 17.0781 40.2624 22.8026 39.2129 28.5271L38.2293 28.3468ZM28.5271 39.2129C33.9654 38.2588 38.2588 33.9654 39.2129 28.5271L38.2279 28.3543C37.3466 33.3779 33.3779 37.3466 28.3543 38.2279L28.5271 39.2129ZM11.449 39.2129C17.1735 40.2624 22.898 40.2624 28.5271 39.2129L28.3438 38.2298C22.8369 39.2565 17.2356 39.2571 11.6293 38.2293L11.449 39.2129ZM28.6225 0.858676L28.4497 1.84363C33.4733 2.72496 37.3466 6.59823 38.2279 11.6218L39.2129 11.449C38.2588 6.01073 34.0608 1.81276 28.6225 0.858676ZM11.449 0.858676C17.0781 -0.286225 22.898 -0.286225 28.6225 0.858676L28.4264 1.83926C22.8303 0.720026 17.1448 0.720683 11.6483 1.83861L11.449 0.858676ZM0.858676 11.449C1.81276 6.01073 6.01073 1.81276 11.449 0.858676L11.6218 1.84363C6.59823 2.72496 2.72496 6.59823 1.84363 11.6218L0.858676 11.449ZM0.858676 11.449L1.83926 11.6451C0.720026 17.2413 0.720683 22.9267 1.83861 28.4232L0.858676 28.6225C-0.286225 22.9934 -0.286225 17.1735 0.858676 11.449ZM0.858676 28.6225C1.81276 34.0608 6.01073 38.2588 11.449 39.2129L11.6218 38.2279C6.59823 37.3466 2.72496 33.4733 1.84363 28.4497L0.858676 28.6225Z" fill="#EEF4FE"/>
<path d="M9.42498 8.58321C8.07619 11.7927 8.08759 26.3771 8.32544 30.7232C8.37757 31.6757 9.21284 32.395 10.2149 32.395H22.2885C23.2906 32.395 24.1259 31.6757 24.178 30.7232C24.4159 26.3771 24.4272 11.7927 23.0785 8.58321C19.5999 7.27227 12.7999 7.27227 9.42498 8.58321Z" fill="white"/>
<path fill-rule="evenodd" clip-rule="evenodd" d="M10.2101 9.3651C9.99443 10.099 9.80037 11.3072 9.64594 12.883C9.46414 14.7379 9.34745 16.9727 9.27978 19.2566C9.14434 23.8275 9.20695 28.5309 9.32394 30.6685C9.34334 31.0229 9.67319 31.395 10.2149 31.395H22.2885C22.8302 31.395 23.1601 31.0229 23.1795 30.6685C23.2965 28.5309 23.3591 23.8275 23.2237 19.2566C23.156 16.9727 23.0393 14.7379 22.8575 12.883C22.7034 11.3106 22.5098 10.1042 22.2947 9.36982C20.7225 8.8699 18.4953 8.60001 16.2129 8.60001C13.9315 8.60001 11.7333 8.86967 10.2101 9.3651ZM16.2129 6.60001C18.8263 6.60001 21.5319 6.9317 23.4311 7.64745C23.6881 7.7443 23.8939 7.94259 24.0004 8.19578C24.4045 9.15742 24.6646 10.8173 24.848 12.6879C25.0359 14.606 25.1544 16.8907 25.2228 19.1974C25.3594 23.8076 25.2974 28.5694 25.1765 30.7778C25.0916 32.3284 23.751 33.395 22.2885 33.395H10.2149C8.75248 33.395 7.41179 32.3284 7.32693 30.7778C7.20607 28.5694 7.14405 23.8076 7.28066 19.1974C7.349 16.8907 7.46749 14.606 7.65548 12.6879C7.8388 10.8173 8.09895 9.15742 8.50308 8.19578C8.60813 7.94582 8.81017 7.74923 9.0629 7.65106C10.9165 6.93105 13.6018 6.60001 16.2129 6.60001Z" fill="#0033C9"/>
<path d="M24.0521 15.5923H28.4573C30.0092 15.5923 31.3444 16.313 31.6327 17.7644C32.0749 19.9911 32.3627 27.5754 31.8564 32.3951H22.2891C23.2911 32.3951 24.1264 31.6758 24.1785 30.7233C24.3319 27.9205 24.3911 19.4275 24.0521 15.5923Z" fill="#00CF6A"/>
<path fill-rule="evenodd" clip-rule="evenodd" d="M23.3145 14.9171C23.5039 14.7101 23.7716 14.5923 24.0521 14.5923H28.4573C30.2704 14.5923 32.1959 15.4665 32.6135 17.5696C32.8532 18.7768 33.036 21.3075 33.1 24.0843C33.1644 26.882 33.1103 30.0302 32.8509 32.4996C32.7974 33.0086 32.3682 33.3951 31.8564 33.3951H22.2891C21.7368 33.3951 21.2891 32.9474 21.2891 32.3951C21.2891 31.8428 21.7368 31.3951 22.2891 31.3951C22.8308 31.3951 23.1606 31.023 23.18 30.6686C23.3319 27.893 23.3894 19.4514 23.056 15.6804C23.0313 15.4009 23.1251 15.124 23.3145 14.9171ZM25.0718 31.3951H30.9442C31.1205 29.195 31.1562 26.5481 31.1005 24.1304C31.0365 21.3535 30.8543 18.9787 30.6518 17.9592C30.493 17.1594 29.748 16.5923 28.4573 16.5923H25.1275C25.3819 20.8142 25.3188 28.1884 25.177 30.7779C25.1652 30.9935 25.1292 31.1998 25.0718 31.3951Z" fill="#0033C9"/>
<path fill-rule="evenodd" clip-rule="evenodd" d="M16.252 27.2179C16.8042 27.2179 17.252 27.6656 17.252 28.2179V32.4C17.252 32.9523 16.8042 33.4 16.252 33.4C15.6997 33.4 15.252 32.9523 15.252 32.4V28.2179C15.252 27.6656 15.6997 27.2179 16.252 27.2179Z" fill="#0033C9"/>
<path fill-rule="evenodd" clip-rule="evenodd" d="M14.2773 22.6789C14.2773 22.1266 14.7251 21.6789 15.2773 21.6789H17.2279C17.7801 21.6789 18.2279 22.1266 18.2279 22.6789C18.2279 23.2311 17.7801 23.6789 17.2279 23.6789H15.2773C14.7251 23.6789 14.2773 23.2311 14.2773 22.6789Z" fill="#0033C9"/>
<path fill-rule="evenodd" clip-rule="evenodd" d="M14.2773 17.8788C14.2773 17.3265 14.7251 16.8788 15.2773 16.8788H17.2279C17.7801 16.8788 18.2279 17.3265 18.2279 17.8788C18.2279 18.4311 17.7801 18.8788 17.2279 18.8788H15.2773C14.7251 18.8788 14.2773 18.4311 14.2773 17.8788Z" fill="#0033C9"/>
<path fill-rule="evenodd" clip-rule="evenodd" d="M14.2773 13.0789C14.2773 12.5266 14.7251 12.0789 15.2773 12.0789H17.2279C17.7801 12.0789 18.2279 12.5266 18.2279 13.0789C18.2279 13.6312 17.7801 14.0789 17.2279 14.0789H15.2773C14.7251 14.0789 14.2773 13.6312 14.2773 13.0789Z" fill="#0033C9"/>
</g>
<defs>
<clipPath id="clip0_1_4314">
<rect width="40" height="40" fill="white"/>
</clipPath>
</defs>
</svg>
