<svg width="40" height="40" viewBox="0 0 40 40" fill="none" xmlns="http://www.w3.org/2000/svg">
<path d="M39.2129 11.449V11.449C40.2624 17.0781 40.2624 22.8026 39.2129 28.5271V28.5271C38.2588 33.9654 33.9654 38.2588 28.5271 39.2129V39.2129C22.898 40.2624 17.1735 40.2624 11.449 39.2129V39.2129C6.01073 38.2588 1.81276 34.0608 0.858676 28.6225V28.6225C-0.286225 22.9934 -0.286225 17.1735 0.858676 11.449V11.449C1.81276 6.01073 6.01073 1.81276 11.449 0.858676V0.858676C17.0781 -0.286225 22.898 -0.286225 28.6225 0.858676V0.858676C34.0608 1.81276 38.2588 6.01073 39.2129 11.449Z" fill="white"/>
<path fill-rule="evenodd" clip-rule="evenodd" d="M38.2279 11.6218L38.2279 11.6218C37.3466 6.59823 33.4733 2.72496 28.4497 1.84363L28.4381 1.84158L28.4264 1.83926C22.8303 0.720027 17.1448 0.720684 11.6483 1.83861L11.6351 1.8413L11.6218 1.84363C6.59823 2.72496 2.72496 6.59823 1.84363 11.6218L1.84158 11.6335L1.83926 11.6451C0.720027 17.2413 0.720684 22.9267 1.83861 28.4232L1.8413 28.4365L1.84363 28.4497C2.72496 33.4733 6.59823 37.3466 11.6218 38.2279L11.6293 38.2292C17.2356 39.2571 22.8369 39.2565 28.3438 38.2298L28.3543 38.2279L28.3543 38.2279C33.3779 37.3466 37.3466 33.3779 38.2279 28.3543L38.2292 28.3468C39.2571 22.7405 39.2565 17.1393 38.2298 11.6323L38.2279 11.6218ZM11.449 39.2129C17.1735 40.2624 22.898 40.2624 28.5271 39.2129C33.9654 38.2588 38.2588 33.9654 39.2129 28.5271C40.2624 22.8026 40.2624 17.0781 39.2129 11.449C38.2588 6.01073 34.0608 1.81276 28.6225 0.858676C22.898 -0.286225 17.0781 -0.286225 11.449 0.858676C6.01073 1.81276 1.81276 6.01073 0.858676 11.449C-0.286225 17.1735 -0.286225 22.9934 0.858676 28.6225C1.81276 34.0608 6.01073 38.2588 11.449 39.2129Z" fill="#F5F9FF"/>
<path d="M14.7015 7.27541C14.6442 6.7441 14.1671 6.35979 13.6358 6.41702C12.9101 6.4952 12.1908 6.5786 11.4825 6.66071L11.3346 6.67786C8.89285 6.96086 6.9456 8.90472 6.67089 11.3516C6.58649 12.1033 6.50087 12.8672 6.42121 13.6387C6.36632 14.1703 6.75274 14.6457 7.28429 14.7006C7.81585 14.7555 8.29125 14.3691 8.34613 13.8375C8.42477 13.0758 8.50945 12.3202 8.59396 11.5675C8.76771 10.0199 10.0064 8.77991 11.5574 8.60015L11.7037 8.58319C12.4135 8.50089 13.1255 8.41835 13.8431 8.34105C14.3744 8.28382 14.7587 7.80671 14.7015 7.27541Z" fill="#0033C9"/>
<path d="M26.3546 6.41702C25.8233 6.35979 25.3462 6.7441 25.2889 7.27541C25.2317 7.80671 25.616 8.28382 26.1473 8.34105C26.8649 8.41834 27.5767 8.50087 28.2865 8.58317L28.433 8.60015C29.984 8.77991 31.2227 10.0199 31.3965 11.5675C31.481 12.3202 31.5656 13.0758 31.6443 13.8375C31.6992 14.3691 32.1746 14.7555 32.7061 14.7006C33.2377 14.6457 33.6241 14.1703 33.5692 13.6387C33.4895 12.8672 33.4039 12.1033 33.3195 11.3516C33.0448 8.90472 31.0976 6.96086 28.6558 6.67786L28.5079 6.66071C27.7997 6.5786 27.0803 6.4952 26.3546 6.41702Z" fill="#0033C9"/>
<path fill-rule="evenodd" clip-rule="evenodd" d="M16.0398 11.2342C15.3768 11.2342 14.7355 11.2885 14.1344 11.3526C12.6825 11.5076 11.5144 12.6739 11.3657 14.1306C11.3047 14.7284 11.254 15.3637 11.254 16.0201C11.254 16.6764 11.3047 17.3117 11.3657 17.9095C11.5144 19.3662 12.6825 20.5326 14.1344 20.6875C14.7355 20.7516 15.3768 20.8059 16.0398 20.8059C16.7028 20.8059 17.3441 20.7516 17.9453 20.6875C19.3972 20.5326 20.5652 19.3662 20.714 17.9095C20.775 17.3117 20.8257 16.6764 20.8257 16.0201C20.8257 15.3637 20.775 14.7284 20.714 14.1306C20.5652 12.6739 19.3972 11.5076 17.9453 11.3526C17.3441 11.2885 16.7028 11.2342 16.0398 11.2342ZM14.3397 13.2769C14.9152 13.2155 15.4779 13.1694 16.0398 13.1694C16.6018 13.1694 17.1644 13.2155 17.7399 13.2769C18.2864 13.3352 18.7334 13.7845 18.7888 14.3272C18.8472 14.8985 18.8905 15.4594 18.8905 16.0201C18.8905 16.5808 18.8472 17.1416 18.7888 17.713C18.7334 18.2556 18.2864 18.7049 17.7399 18.7633C17.1644 18.8247 16.6018 18.8707 16.0398 18.8707C15.4779 18.8707 14.9152 18.8247 14.3397 18.7633C13.7932 18.7049 13.3462 18.2556 13.2908 17.713C13.2325 17.1416 13.1892 16.5808 13.1892 16.0201C13.1892 15.4594 13.2325 14.8985 13.2908 14.3272C13.3462 13.7845 13.7932 13.3352 14.3397 13.2769Z" fill="#0033C9"/>
<path d="M13.6358 33.5479C14.1671 33.6051 14.6442 33.2208 14.7015 32.6895C14.7587 32.1582 14.3744 31.6811 13.8431 31.6238C13.1256 31.5465 12.4138 31.464 11.7041 31.3817L11.5574 31.3647C10.0064 31.185 8.76771 29.945 8.59396 28.3974C8.50945 27.6446 8.42477 26.889 8.34613 26.1274C8.29125 25.5958 7.81585 25.2094 7.28429 25.2643C6.75274 25.3192 6.36632 25.7946 6.42121 26.3261C6.50087 27.0977 6.58649 27.8615 6.67089 28.6133C6.9456 31.0602 8.89285 33.004 11.3346 33.287L11.4825 33.3042C12.1908 33.3863 12.9101 33.4697 13.6358 33.5479Z" fill="#0033C9"/>
<path d="M12.9169 23.62C13.4513 23.62 13.8845 24.0532 13.8845 24.5876L13.8845 26.1671C13.8845 26.5164 14.1676 26.7995 14.5169 26.7995L16.0379 26.7995C16.5723 26.7995 17.0055 27.2327 17.0055 27.7671C17.0055 28.3015 16.5723 28.7347 16.0379 28.7347H14.5169C13.0989 28.7347 11.9493 27.5851 11.9493 26.1671V24.5876C11.9493 24.0532 12.3825 23.62 12.9169 23.62Z" fill="#0033C9"/>
<path d="M26.7192 17C26.7192 17.5343 27.1524 17.9675 27.6868 17.9675C28.2212 17.9675 28.6544 17.5343 28.6544 17V14.0409C28.6544 12.8438 27.6839 11.8734 26.4868 11.8734L23.5985 11.8734C23.0641 11.8734 22.631 12.3066 22.631 12.8409C22.631 13.3753 23.0641 13.8085 23.5985 13.8085L26.4868 13.8085C26.6152 13.8085 26.7192 13.9126 26.7192 14.0409L26.7192 17Z" fill="#0033C9"/>
<path d="M26.834 19.2002C31.1418 19.2002 34.6338 22.6922 34.6338 27C34.6338 31.3078 31.1418 34.7998 26.834 34.7998C22.5262 34.7998 19.0342 31.3078 19.0342 27C19.0342 22.6922 22.5262 19.2002 26.834 19.2002ZM26.834 22.1855C24.175 22.1855 22.0195 24.341 22.0195 27C22.0195 29.659 24.175 31.8145 26.834 31.8145C29.493 31.8145 31.6484 29.659 31.6484 27C31.6484 24.341 29.493 22.1855 26.834 22.1855Z" fill="#00CF6A" stroke="white" stroke-width="1.6"/>
<path fill-rule="evenodd" clip-rule="evenodd" d="M26.8346 33.307C30.3181 33.307 33.1419 30.4831 33.1419 26.9997C33.1419 23.5163 30.3181 20.6924 26.8346 20.6924C23.3512 20.6924 20.5273 23.5163 20.5273 26.9997C20.5273 30.4831 23.3512 33.307 26.8346 33.307ZM21.5699 25.0401C21.3877 25.5293 21.4117 26.1061 21.7832 26.4728C22.0033 26.6901 22.2912 26.8639 22.6575 26.9521C22.8461 26.9975 23.0474 27.0175 23.2473 27.0374C23.7062 27.083 24.1581 27.128 24.434 27.4773C24.598 27.6849 24.7208 27.9797 24.7208 28.398C24.6147 29.1454 24.8158 30.511 26.3144 30.5546L26.3366 30.5552C26.6709 30.5648 27.0444 30.5755 27.2067 30.8658C27.3557 31.1324 27.4316 31.5374 27.4686 32.1041C27.4851 32.3575 27.7074 32.5521 27.9562 32.5016C29.0045 32.2888 29.9467 31.7839 30.6943 31.0755C30.8078 30.968 31.0188 30.6188 31.0399 30.4638C31.0886 30.1068 30.9841 29.8387 30.8348 29.4554C30.7934 29.3492 30.7486 29.2342 30.7027 29.1061C30.7027 28.8923 30.7027 27.69 29.2952 27.336C29.0606 26.9819 28.3803 26.4155 27.5358 26.9819C26.9035 27.3 25.7598 27.6181 25.7384 26.6521C25.7371 26.5961 25.7392 26.5388 25.7413 26.4815C25.7485 26.2803 25.7558 26.0795 25.6198 25.9375C25.4825 25.7941 25.2407 25.6582 24.84 25.5982C24.7909 25.5908 24.7405 25.5846 24.6897 25.5784C24.4203 25.5454 24.1402 25.5111 23.9933 25.2925C23.8356 25.0578 23.8392 24.6827 24.3689 24.1498C24.7208 23.7958 25.5653 23.4418 26.1283 24.8579C26.5862 25.6711 27.9584 25.211 27.1839 24.1498C26.8321 23.6777 26.5506 22.5921 28.2396 22.0257C28.5075 21.9358 28.4245 21.606 28.1497 21.54C27.7274 21.4385 27.2866 21.3848 26.8331 21.3848C24.4214 21.3848 22.3648 22.9053 21.5699 25.0401Z" fill="#00CF6A"/>
</svg>
