<svg width="40" height="40" viewBox="0 0 40 40" fill="none" xmlns="http://www.w3.org/2000/svg">
<g clip-path="url(#clip0_1_4096)">
<path d="M39.2129 11.449V11.449C40.2624 17.0781 40.2624 22.8026 39.2129 28.5271V28.5271C38.2588 33.9654 33.9654 38.2588 28.5271 39.2129V39.2129C22.898 40.2624 17.1735 40.2624 11.449 39.2129V39.2129C6.01073 38.2588 1.81276 34.0608 0.858676 28.6225V28.6225C-0.286225 22.9934 -0.286225 17.1735 0.858676 11.449V11.449C1.81276 6.01073 6.01073 1.81276 11.449 0.858676V0.858676C17.0781 -0.286225 22.898 -0.286225 28.6225 0.858676V0.858676C34.0608 1.81276 38.2588 6.01073 39.2129 11.449Z" fill="white"/>
<path fill-rule="evenodd" clip-rule="evenodd" d="M38.2293 28.3468C39.2571 22.7405 39.2565 17.1393 38.2298 11.6323L39.2129 11.449C40.2624 17.0781 40.2624 22.8026 39.2129 28.5271L38.2293 28.3468ZM28.5271 39.2129C33.9654 38.2588 38.2588 33.9654 39.2129 28.5271L38.2279 28.3543C37.3466 33.3779 33.3779 37.3466 28.3543 38.2279L28.5271 39.2129ZM11.449 39.2129C17.1735 40.2624 22.898 40.2624 28.5271 39.2129L28.3438 38.2298C22.8369 39.2565 17.2356 39.2571 11.6293 38.2293L11.449 39.2129ZM28.6225 0.858676L28.4497 1.84363C33.4733 2.72496 37.3466 6.59823 38.2279 11.6218L39.2129 11.449C38.2588 6.01073 34.0608 1.81276 28.6225 0.858676ZM11.449 0.858676C17.0781 -0.286225 22.898 -0.286225 28.6225 0.858676L28.4264 1.83926C22.8303 0.720026 17.1448 0.720683 11.6483 1.83861L11.449 0.858676ZM0.858676 11.449C1.81276 6.01073 6.01073 1.81276 11.449 0.858676L11.6218 1.84363C6.59823 2.72496 2.72496 6.59823 1.84363 11.6218L0.858676 11.449ZM0.858676 11.449L1.83926 11.6451C0.720026 17.2413 0.720683 22.9267 1.83861 28.4232L0.858676 28.6225C-0.286225 22.9934 -0.286225 17.1735 0.858676 11.449ZM0.858676 28.6225C1.81276 34.0608 6.01073 38.2588 11.449 39.2129L11.6218 38.2279C6.59823 37.3466 2.72496 33.4733 1.84363 28.4497L0.858676 28.6225Z" fill="#EEF4FE"/>
<path fill-rule="evenodd" clip-rule="evenodd" d="M20.6296 8.20359C20.2121 7.99775 19.7304 7.98707 19.3134 8.17169C18.2015 8.6639 17.2205 9.17974 16.2289 9.70116C15.9699 9.83735 15.7102 9.97393 15.4472 10.1106C14.1893 10.7641 12.8848 11.4034 11.3465 11.9241C10.6445 12.1618 10.2012 12.7673 10.2012 13.3964V20.559C10.2012 24.3101 11.8558 26.849 13.9477 28.6017C15.9614 30.2889 18.3811 31.2423 20.1096 31.7583C21.8282 31.2437 24.1934 30.2924 26.1542 28.6094C28.1905 26.8616 29.8012 24.3215 29.8012 20.559V13.4718C29.8012 12.8252 29.3314 12.2038 28.5933 11.9778C26.4619 11.325 24.7071 10.3743 22.9333 9.41317C22.1789 9.00447 21.4212 8.59391 20.6296 8.20359ZM18.5038 6.34287C19.4714 5.91455 20.5733 5.946 21.514 6.40977C22.4569 6.87469 23.289 7.32627 24.077 7.75394C25.7612 8.66804 27.2442 9.47292 29.1789 10.0654C30.6345 10.5112 31.8012 11.824 31.8012 13.4718V20.559C31.8012 24.9908 29.8662 28.059 27.4568 30.1271C25.078 32.1688 22.2488 33.2311 20.3834 33.7618C20.2045 33.8127 20.015 33.8127 19.8361 33.7618C17.9759 33.2325 15.0951 32.1723 12.6632 30.1348C10.2009 28.0717 8.20117 25.0022 8.20117 20.559V13.3964C8.20117 11.8004 9.29975 10.5055 10.7052 10.0297C12.0971 9.55858 13.2941 8.97542 14.5251 8.33582C14.7708 8.20816 15.0191 8.07756 15.271 7.94505C16.269 7.42011 17.3241 6.86508 18.5038 6.34287Z" fill="#0033C9"/>
<path fill-rule="evenodd" clip-rule="evenodd" d="M20.002 15.8C20.5542 15.8 21.002 16.2478 21.002 16.8L21.002 23.2C21.002 23.7523 20.5542 24.2 20.002 24.2C19.4497 24.2 19.002 23.7523 19.002 23.2L19.002 16.8C19.002 16.2478 19.4497 15.8 20.002 15.8Z" fill="#00CF6A"/>
<path fill-rule="evenodd" clip-rule="evenodd" d="M24.2012 20C24.2012 20.5523 23.7535 21 23.2012 21L16.8012 21C16.2489 21 15.8012 20.5523 15.8012 20C15.8012 19.4477 16.2489 19 16.8012 19L23.2012 19C23.7535 19 24.2012 19.4477 24.2012 20Z" fill="#00CF6A"/>
</g>
<defs>
<clipPath id="clip0_1_4096">
<rect width="40" height="40" fill="white"/>
</clipPath>
</defs>
</svg>
