<svg width="40" height="40" viewBox="0 0 40 40" fill="none" xmlns="http://www.w3.org/2000/svg">
<g clip-path="url(#clip0_1_4111)">
<path d="M39.2129 11.449V11.449C40.2624 17.0781 40.2624 22.8026 39.2129 28.5271V28.5271C38.2588 33.9654 33.9654 38.2588 28.5271 39.2129V39.2129C22.898 40.2624 17.1735 40.2624 11.449 39.2129V39.2129C6.01073 38.2588 1.81276 34.0608 0.858676 28.6225V28.6225C-0.286225 22.9934 -0.286225 17.1735 0.858676 11.449V11.449C1.81276 6.01073 6.01073 1.81276 11.449 0.858676V0.858676C17.0781 -0.286225 22.898 -0.286225 28.6225 0.858676V0.858676C34.0608 1.81276 38.2588 6.01073 39.2129 11.449Z" fill="white"/>
<path fill-rule="evenodd" clip-rule="evenodd" d="M38.2293 28.3468C39.2571 22.7405 39.2565 17.1393 38.2298 11.6323L39.2129 11.449C40.2624 17.0781 40.2624 22.8026 39.2129 28.5271L38.2293 28.3468ZM28.5271 39.2129C33.9654 38.2588 38.2588 33.9654 39.2129 28.5271L38.2279 28.3543C37.3466 33.3779 33.3779 37.3466 28.3543 38.2279L28.5271 39.2129ZM11.449 39.2129C17.1735 40.2624 22.898 40.2624 28.5271 39.2129L28.3438 38.2298C22.8369 39.2565 17.2356 39.2571 11.6293 38.2293L11.449 39.2129ZM28.6225 0.858676L28.4497 1.84363C33.4733 2.72496 37.3466 6.59823 38.2279 11.6218L39.2129 11.449C38.2588 6.01073 34.0608 1.81276 28.6225 0.858676ZM11.449 0.858676C17.0781 -0.286225 22.898 -0.286225 28.6225 0.858676L28.4264 1.83926C22.8303 0.720026 17.1448 0.720683 11.6483 1.83861L11.449 0.858676ZM0.858676 11.449C1.81276 6.01073 6.01073 1.81276 11.449 0.858676L11.6218 1.84363C6.59823 2.72496 2.72496 6.59823 1.84363 11.6218L0.858676 11.449ZM0.858676 11.449L1.83926 11.6451C0.720026 17.2413 0.720683 22.9267 1.83861 28.4232L0.858676 28.6225C-0.286225 22.9934 -0.286225 17.1735 0.858676 11.449ZM0.858676 28.6225C1.81276 34.0608 6.01073 38.2588 11.449 39.2129L11.6218 38.2279C6.59823 37.3466 2.72496 33.4733 1.84363 28.4497L0.858676 28.6225Z" fill="#EEF4FE"/>
<path d="M32.8932 15.1374C31.3107 13.3498 23.2001 8.79993 20.0277 8.79993C16.8552 8.79993 9.57357 13.5649 7.57227 15.1374C8.75919 16.5149 17.6611 21.6655 20.5995 21.6655C23.7935 21.6655 32.2998 16.7127 32.8932 15.1374Z" fill="#00CF6A"/>
<path fill-rule="evenodd" clip-rule="evenodd" d="M9.18935 15.1877C9.48584 15.4012 9.83892 15.6408 10.2379 15.8986C11.2591 16.5582 12.5505 17.3171 13.8991 18.0354C15.2494 18.7544 16.6399 19.4236 17.8613 19.9102C19.1253 20.4136 20.0746 20.6655 20.5995 20.6655C21.2004 20.6655 22.1839 20.417 23.4216 19.9351C24.6266 19.466 25.967 18.8184 27.2383 18.1167C28.5103 17.4146 29.6904 16.6709 30.5779 16.0169C30.9682 15.7293 31.2893 15.4684 31.5324 15.244C31.1727 14.9556 30.6946 14.6111 30.1126 14.2289C29.1118 13.5718 27.8803 12.8525 26.596 12.1859C25.3104 11.5186 23.9889 10.913 22.8074 10.4769C21.597 10.0301 20.6344 9.79993 20.0277 9.79993C19.4366 9.79993 18.5359 10.0344 17.401 10.4955C16.294 10.9452 15.0639 11.5683 13.8511 12.2506C12.0564 13.2601 10.3456 14.3729 9.18935 15.1877ZM16.6482 8.64257C17.8333 8.16108 19.0325 7.79993 20.0277 7.79993C21.0071 7.79993 22.248 8.1385 23.5 8.60065C24.781 9.07349 26.1809 9.71708 27.5173 10.4107C28.855 11.105 30.1461 11.8584 31.2103 12.5571C32.2471 13.2379 33.1504 13.9193 33.6419 14.4746C33.8877 14.7522 33.9597 15.1429 33.829 15.4899C33.6709 15.9098 33.3292 16.2904 33.0211 16.5887C32.6819 16.9171 32.2501 17.2692 31.7643 17.6271C30.7902 18.3448 29.5329 19.1346 28.2048 19.8677C26.8762 20.601 25.4541 21.2901 24.1472 21.7989C22.8732 22.2949 21.5956 22.6655 20.5995 22.6655C19.6552 22.6655 18.3898 22.2735 17.1212 21.7682C15.81 21.2459 14.3499 20.5414 12.959 19.8006C11.5665 19.0591 10.2262 18.272 9.15269 17.5785C8.61635 17.2321 8.13893 16.904 7.75143 16.6128C7.38075 16.3341 7.03788 16.0492 6.8147 15.7901C6.63645 15.5833 6.55056 15.3125 6.57695 15.0407C6.60335 14.769 6.73973 14.5198 6.95445 14.3511C8.00203 13.528 10.3668 11.9158 12.8705 10.5074C14.1248 9.80184 15.4351 9.13541 16.6482 8.64257Z" fill="#0033C9"/>
<path fill-rule="evenodd" clip-rule="evenodd" d="M13.6367 18.1876C14.189 18.1876 14.6367 18.6353 14.6367 19.1876V24.5712C14.6367 24.5551 14.6372 24.5569 14.6428 24.5766C14.6551 24.6207 14.6925 24.7542 14.8051 24.9757C14.9476 25.2559 15.1655 25.5872 15.4498 25.901C16.0282 26.5391 16.7799 27.002 17.6393 27.002H23.0714C23.1993 27.002 23.4858 26.9506 23.8866 26.7871C24.2695 26.631 24.6911 26.3992 25.0786 26.1073C25.8901 25.496 26.36 24.7787 26.36 24.0947V19.5688C26.36 19.0165 26.8077 18.5688 27.36 18.5688C27.9122 18.5688 28.36 19.0165 28.36 19.5688V24.0947C28.36 25.6978 27.305 26.9342 26.282 27.7048C25.7522 28.1038 25.1791 28.42 24.6418 28.6391C24.1223 28.8509 23.563 29.002 23.0714 29.002H17.6393C16.0209 29.002 14.7714 28.1306 13.9679 27.244C13.5613 26.7954 13.2431 26.3166 13.0222 25.882C12.8219 25.4878 12.6367 25.0045 12.6367 24.5712V19.1876C12.6367 18.6353 13.0844 18.1876 13.6367 18.1876Z" fill="#0033C9"/>
<path fill-rule="evenodd" clip-rule="evenodd" d="M9.35742 15.9308C9.90971 15.9308 10.3574 16.3785 10.3574 16.9308L10.3574 26.7734C10.3574 27.3256 9.90971 27.7734 9.35742 27.7734C8.80514 27.7734 8.35742 27.3256 8.35742 26.7734L8.35742 16.9308C8.35742 16.3785 8.80514 15.9308 9.35742 15.9308Z" fill="#0033C9"/>
<path fill-rule="evenodd" clip-rule="evenodd" d="M9.55047 27.8435C9.01022 27.8435 8.57227 28.2815 8.57227 28.8217C8.57227 29.362 9.01022 29.7999 9.55047 29.7999C10.0907 29.7999 10.5287 29.362 10.5287 28.8217C10.5287 28.2815 10.0907 27.8435 9.55047 27.8435ZM6.57227 28.8217C6.57227 27.1769 7.90565 25.8435 9.55047 25.8435C11.1953 25.8435 12.5287 27.1769 12.5287 28.8217C12.5287 30.4666 11.1953 31.7999 9.55047 31.7999C7.90565 31.7999 6.57227 30.4666 6.57227 28.8217Z" fill="#0033C9"/>
</g>
<defs>
<clipPath id="clip0_1_4111">
<rect width="40" height="40" fill="white"/>
</clipPath>
</defs>
</svg>
