<svg width="40" height="40" viewBox="0 0 40 40" fill="none" xmlns="http://www.w3.org/2000/svg">
<g clip-path="url(#clip0_1_4482)">
<path d="M39.2129 11.449V11.449C40.2624 17.0781 40.2624 22.8026 39.2129 28.5271V28.5271C38.2588 33.9654 33.9654 38.2588 28.5271 39.2129V39.2129C22.898 40.2624 17.1735 40.2624 11.449 39.2129V39.2129C6.01073 38.2588 1.81276 34.0608 0.858676 28.6225V28.6225C-0.286225 22.9934 -0.286225 17.1735 0.858676 11.449V11.449C1.81276 6.01073 6.01073 1.81276 11.449 0.858676V0.858676C17.0781 -0.286225 22.898 -0.286225 28.6225 0.858676V0.858676C34.0608 1.81276 38.2588 6.01073 39.2129 11.449Z" fill="white"/>
<path fill-rule="evenodd" clip-rule="evenodd" d="M38.0326 28.3107C39.056 22.7281 39.0554 17.1515 38.0332 11.669L39.2128 11.449L38.0309 11.6564C37.1642 6.71573 33.3558 2.90741 28.4152 2.04062L28.6225 0.858676C34.0608 1.81276 38.2588 6.01073 39.2129 11.449C40.2624 17.0781 40.2624 22.8026 39.2129 28.5271L38.0326 28.3107ZM28.5271 39.2129C33.9654 38.2588 38.2588 33.9654 39.2129 28.5271L38.0309 28.3198C37.1642 33.2604 33.2604 37.1642 28.3198 38.0309L28.5271 39.2129ZM11.449 39.2129C17.1735 40.2624 22.898 40.2624 28.5271 39.2129L28.3072 38.0332C22.8247 39.0554 17.2481 39.056 11.6654 38.0326L11.449 39.2128L11.6564 38.0309C6.71573 37.1642 2.90741 33.3558 2.04062 28.4152L0.858676 28.6225L2.0346 28.3834C0.922065 22.9134 0.921277 17.2548 2.03537 11.6844L0.858676 11.449L2.04062 11.6564C2.90741 6.71573 6.71573 2.90741 11.6564 2.04062L11.449 0.858676L11.6882 2.0346C17.1582 0.922065 22.8167 0.921277 28.3872 2.03537L28.6225 0.858676C22.898 -0.286225 17.0781 -0.286225 11.449 0.858676C6.01073 1.81276 1.81276 6.01073 0.858676 11.449C-0.286225 17.1735 -0.286225 22.9934 0.858676 28.6225C1.81276 34.0608 6.01073 38.2588 11.449 39.2129Z" fill="#EEF4FE"/>
<path d="M18.7449 7.44952C19.522 7.00088 20.4794 7.00088 21.2565 7.44952L30.2417 12.6372C31.0188 13.0858 31.4975 13.9149 31.4975 14.8122V25.1875C31.4975 26.0848 31.0188 26.9139 30.2417 27.3626L21.2565 32.5502C20.4794 32.9989 19.522 32.9989 18.7449 32.5502L9.75968 27.3626C8.98261 26.9139 8.50391 26.0848 8.50391 25.1875V14.8122C8.50391 13.9149 8.98261 13.0858 9.75968 12.6372L18.7449 7.44952Z" fill="#211936"/>
<path d="M18.9316 9.28437C19.5951 8.9013 20.4125 8.9013 21.076 9.28437L28.7479 13.7137C29.4114 14.0968 29.8201 14.8047 29.8201 15.5709V24.4296C29.8201 25.1957 29.4114 25.9037 28.7479 26.2867L21.076 30.7161C20.4125 31.0992 19.5951 31.0992 18.9316 30.7161L11.2597 26.2867C10.5962 25.9037 10.1875 25.1957 10.1875 24.4296V15.5709C10.1875 14.8047 10.5962 14.0968 11.2597 13.7137L18.9316 9.28437Z" fill="url(#paint0_linear_1_4482)"/>
<g clip-path="url(#clip1_1_4482)">
<path opacity="0.3" d="M21.5932 8.44872C20.3189 8.85747 18.9243 8.85747 17.65 8.40063L17.4336 8.5449C18.1308 8.80938 18.8762 8.92961 19.6456 8.92961C20.3669 8.92961 21.0883 8.80938 21.7855 8.56894L21.5932 8.44872ZM30.6338 19.0522L29.4316 20.3746L30.6338 20.9036V20.6872L29.7201 20.3025L30.6338 19.2926V19.0281V19.0522ZM8.60938 20.4467L9.5471 20.8314L8.60938 21.8894V22.1779L9.78754 20.8555L9.88371 20.7593L8.60938 20.2303V20.4467Z" fill="url(#paint1_linear_1_4482)"/>
<path opacity="0.3" d="M29.3354 12.9453C29.3354 12.9453 29.119 12.777 29.0228 12.7049L30.6578 15.9989V15.5421L29.3594 12.9453H29.3354ZM30.6338 17.2733L27.46 20.8318L30.6338 22.2023V22.01L27.7725 20.7597L30.6338 17.5618V17.2733ZM19.6697 31.0025C18.8522 31.0025 18.0587 31.1227 17.3133 31.3872L17.5297 31.5074C18.203 31.291 18.9243 31.1948 19.6697 31.1948C20.415 31.1948 21.0642 31.291 21.7375 31.5074L21.9298 31.3872C21.2085 31.1467 20.415 31.0265 19.6456 31.0265L19.6697 31.0025ZM8.60938 18.9323V19.1487L11.5428 20.399L8.60938 23.645V23.9335L11.7592 20.4231L11.8553 20.3269L8.60938 18.9564V18.9323ZM8.70555 25.1597C8.80173 25.6887 9.04217 26.1696 9.40283 26.5783L8.70555 25.1597ZM10.2684 12.6808C10.2684 12.6808 10.1001 12.777 10.028 12.8492L8.60938 15.6623V16.0711L10.3406 12.6328L10.2684 12.6808ZM22.9156 9.19445L22.4107 9.38681C22.4107 9.38681 22.2183 9.48298 22.1222 9.48298C21.3287 9.77151 20.4872 9.91578 19.6456 9.91578C18.6839 9.91578 17.7461 9.74747 16.8805 9.38681L16.3516 9.17041L16.1592 9.26659L16.8325 9.55512C17.7461 9.91578 18.6839 10.1081 19.6697 10.1081C20.5353 10.1081 21.4008 9.96387 22.2183 9.65129C22.3145 9.65129 22.4107 9.57916 22.5069 9.55512L23.132 9.29063L22.9397 9.19445H22.9156Z" fill="url(#paint2_linear_1_4482)"/>
<path opacity="0.3" d="M22.9387 30.4732C21.8808 30.0404 20.7988 29.824 19.6687 29.824C18.6589 29.824 17.6731 29.9924 16.7113 30.329C16.6151 30.3771 16.4949 30.4251 16.3987 30.4492L15.99 30.6175L16.2064 30.7137L16.4709 30.6175C16.4709 30.6175 16.6872 30.5213 16.7834 30.4973C17.6971 30.1847 18.6829 29.9924 19.6687 29.9924C20.7747 29.9924 21.8327 30.2088 22.8666 30.6175L23.0589 30.7137L23.2753 30.5935L22.9387 30.4732ZM27.0022 21.6971C26.5934 21.5288 26.1847 21.3605 25.7759 21.1922L29.8153 16.696L29.8634 16.6238L27.459 11.791L27.1464 11.6467L29.647 16.6238L25.4393 21.2884L25.5836 21.3365C26.0404 21.5048 26.4972 21.6731 26.906 21.8654L30.2481 23.3081L27.9399 27.9005L28.2525 27.7322L30.4645 23.3081L30.5126 23.2119L27.0022 21.6731V21.6971ZM13.8741 19.8457L13.7539 19.7977C13.3451 19.6534 12.9604 19.4851 12.5997 19.3408L9.06527 17.8741L12.191 11.5505L11.8784 11.7188L8.80078 17.9463L12.5276 19.5091C12.8402 19.6534 13.2009 19.7977 13.5615 19.9179L9.49806 24.4382L9.44997 24.4863L11.109 27.8284L11.4216 27.9727L9.69041 24.5103L13.8981 19.8457H13.8741ZM24.2131 9.93957L22.8666 10.4926C22.8666 10.4926 22.6502 10.5888 22.554 10.6128C21.6403 10.9254 20.6786 11.1177 19.6928 11.1177C18.5627 11.1177 17.5047 10.9013 16.4949 10.4926L15.1003 9.91553L14.8839 10.0357L16.4228 10.6609C17.4807 11.0937 18.5627 11.3101 19.7168 11.3101C20.7267 11.3101 21.7125 11.1418 22.6502 10.8052C22.7464 10.7571 22.8906 10.709 22.9868 10.6849L24.4535 10.0838L24.2611 9.96362L24.2131 9.93957Z" fill="url(#paint3_linear_1_4482)"/>
<path opacity="0.3" d="M23.394 29.3673C22.2158 28.8864 20.9655 28.646 19.6671 28.646C18.513 28.646 17.3829 28.8384 16.325 29.2231C16.1807 29.2711 16.0605 29.3192 15.9403 29.3433L14.69 29.8482L14.9064 29.9444L16.0124 29.5116C16.1327 29.4395 16.2769 29.4154 16.3971 29.3673C17.431 28.9826 18.5371 28.8143 19.6671 28.8143C20.9174 28.8143 22.1437 29.0547 23.2978 29.5356L24.3557 29.9684L24.5721 29.8482L23.394 29.3433V29.3673ZM26.5197 22.7792C26.0869 22.5869 25.6301 22.4186 25.1732 22.2743C24.6683 22.106 24.1634 21.9617 23.6344 21.8175L28.4192 16.5278L28.4673 16.4556L25.606 10.7572L25.5579 10.661H25.4858L23.2978 11.5747C23.2016 11.6228 23.0574 11.6709 22.9371 11.6949C21.8792 12.0796 20.7972 12.272 19.6671 12.272C18.3928 12.272 17.1665 12.0075 16.0124 11.5506L13.8485 10.637H13.7763L10.4102 17.3453L12.9588 18.4513C13.3195 18.5956 13.7042 18.7639 14.137 18.8841C14.6419 19.0524 15.1228 19.1967 15.6518 19.3409L10.891 24.6547L10.843 24.7028L12.9348 28.8864L13.2474 29.0788L11.0593 24.7028L15.8922 19.3169L15.9884 19.2207L15.8441 19.1726C15.2671 19.0524 14.7141 18.8841 14.161 18.6917C13.7523 18.5715 13.3676 18.4032 13.031 18.2589L10.6506 17.2491L13.8244 10.8774L15.9163 11.743C17.0704 12.2239 18.3447 12.4643 19.6431 12.4643C20.7732 12.4643 21.9032 12.272 22.9852 11.8873C23.1054 11.8392 23.2497 11.7911 23.3699 11.767L25.4618 10.9014L28.2028 16.4316L23.394 21.8175L23.2978 21.9136L23.4421 21.9617C23.9951 22.082 24.5721 22.2503 25.1011 22.4426C25.582 22.5869 26.0148 22.7792 26.4235 22.9475L28.6115 23.8853L26.0629 28.9826L26.3754 28.8143L28.8279 23.8853L28.876 23.7891L26.5197 22.7552V22.7792Z" fill="url(#paint4_linear_1_4482)"/>
<path opacity="0.3" d="M26.0398 23.8373C25.6311 23.669 25.1983 23.5007 24.7655 23.3324C23.6354 22.9717 22.4813 22.7072 21.3272 22.587L26.9775 16.3115L27.0256 16.2634L24.9578 12.1519L23.7316 12.6568C23.6114 12.7289 23.443 12.753 23.2988 12.8251C22.1447 13.2338 20.8944 13.4502 19.6441 13.4502C18.2255 13.4502 16.855 13.1858 15.5325 12.6568L14.4025 12.1759H14.3063L11.998 16.7683L13.4166 17.3454C13.7292 17.4896 14.1139 17.658 14.4986 17.7782C15.6287 18.1388 16.7828 18.4033 17.9369 18.5235L12.2866 24.7991L12.2385 24.8712L14.3063 28.9587L15.5325 28.4538C15.6768 28.3816 15.8211 28.3576 15.9653 28.2855C17.1435 27.8767 18.3697 27.6603 19.6441 27.6603C21.0627 27.6603 22.4332 27.9248 23.7316 28.4538L24.8857 28.9346H24.9819L27.218 24.4624L27.2661 24.3663L26.0398 23.8373ZM24.8857 28.7182L23.8037 28.2855C22.4813 27.7565 21.0867 27.4679 19.6441 27.4679C18.3457 27.4679 17.0954 27.6843 15.8932 28.1171C15.7489 28.1893 15.5806 28.2133 15.4604 28.2855L14.3784 28.7182L12.4549 24.8952L18.3216 18.3793H18.1293C16.903 18.2591 15.7008 17.9946 14.5467 17.5858C14.162 17.4656 13.8254 17.3213 13.4647 17.1771L12.2385 16.6721L14.3784 12.4163L15.4604 12.8491C16.7828 13.4021 18.2014 13.6666 19.6441 13.6666C20.9184 13.6666 22.1927 13.4502 23.3709 13.0174C23.5152 12.9694 23.6835 12.9213 23.8037 12.8491L24.8857 12.4163L26.8092 16.2394L20.9665 22.7553H21.1589C22.3611 22.8755 23.5633 23.14 24.7174 23.5488C25.1502 23.693 25.583 23.8613 25.9677 24.0296L27.0256 24.5105L24.8857 28.7423V28.7182Z" fill="url(#paint5_linear_1_4482)"/>
<path d="M24.2381 24.4387C22.1223 23.7174 20.1747 23.5971 18.5637 23.7414L24.2381 17.4178L25.3442 16.1916L24.2381 13.9795L24.0939 14.0276C23.9496 14.0997 23.7813 14.1478 23.637 14.1959C22.3627 14.6527 21.0162 14.8932 19.6698 14.8932C18.1309 14.8932 16.6402 14.6046 15.2216 14.0276L15.0773 13.9795L13.9473 16.2396L14.1156 16.3118C14.4281 16.456 14.7648 16.5763 15.0773 16.6724C16.544 17.1774 18.0829 17.4178 19.6457 17.4178C20.0064 17.4178 20.3911 17.4178 20.7517 17.3697L15.0773 23.6933L13.9713 24.9196L15.0773 27.1316L15.2216 27.0835C15.3659 27.0114 15.5342 26.9633 15.6784 26.9152C16.9528 26.4584 18.2992 26.2179 19.6457 26.2179C21.1845 26.2179 22.6753 26.5065 24.0939 27.0835L24.2381 27.1316L25.3682 24.8715C24.9835 24.7032 24.5988 24.5589 24.2381 24.4387Z" fill="url(#paint6_linear_1_4482)"/>
</g>
<path d="M18.8545 7.44944C19.6315 7.00091 20.5883 7.00089 21.3652 7.44944L30.3506 12.6369C31.1276 13.0856 31.6064 13.9145 31.6064 14.8117V25.1867C31.6064 26.084 31.1276 26.9139 30.3506 27.3625L21.3652 32.55C20.5884 32.9984 19.6314 32.9984 18.8545 32.55L9.86914 27.3625C9.09208 26.9139 8.61328 26.084 8.61328 25.1867V14.8117C8.61331 13.9145 9.09211 13.0856 9.86914 12.6369L18.8545 7.44944ZM21.1104 9.28342C20.4513 8.90035 19.6385 8.90035 18.9795 9.28342L11.3604 13.7131C10.7013 14.0962 10.2949 14.8044 10.2949 15.5705V24.4289C10.295 25.195 10.7014 25.9033 11.3604 26.2864L18.9795 30.7151C19.6385 31.0981 20.4513 31.0981 21.1104 30.7151L28.7295 26.2864C29.3885 25.9033 29.7949 25.195 29.7949 24.4289V15.5705C29.7949 14.8044 29.3885 14.0962 28.7295 13.7131L21.1104 9.28342Z" fill="#211936"/>
<path fill-rule="evenodd" clip-rule="evenodd" d="M18.475 6.98354C19.4186 6.43875 20.5811 6.43876 21.5247 6.98354L30.51 12.1712C31.4536 12.716 32.0348 13.7228 32.0348 14.8123V25.1876C32.0348 26.2772 31.4536 27.284 30.51 27.8288L21.5247 33.0164C20.5811 33.5612 19.4186 33.5612 18.475 33.0164L9.48972 27.8288C8.54612 27.284 7.96484 26.2772 7.96484 25.1876V14.8123C7.96484 13.7228 8.54612 12.716 9.48972 12.1712L18.475 6.98354ZM20.9865 7.91571C20.376 7.56321 19.6237 7.56321 19.0132 7.91571L10.0279 13.1034C9.41735 13.4559 9.04123 14.1073 9.04123 14.8123V25.1876C9.04123 25.8926 9.41735 26.5441 10.0279 26.8966L19.0132 32.0842C19.6237 32.4367 20.376 32.4367 20.9865 32.0842L29.9718 26.8966C30.5823 26.5441 30.9585 25.8926 30.9585 25.1876V14.8123C30.9585 14.1073 30.5823 13.4559 29.9718 13.1034L20.9865 7.91571Z" fill="url(#paint7_linear_1_4482)"/>
<path fill-rule="evenodd" clip-rule="evenodd" d="M21.2565 7.44952C20.4794 7.00088 19.522 7.00088 18.7449 7.44952L9.75968 12.6372C8.98261 13.0858 8.50391 13.9149 8.50391 14.8122V25.1875C8.50391 26.0848 8.98261 26.9139 9.75968 27.3626L18.7449 32.5502C19.522 32.9989 20.4794 32.9989 21.2565 32.5502L30.2417 27.3626C31.0188 26.9139 31.4975 26.0848 31.4975 25.1875V14.8122C31.4975 13.9149 31.0188 13.0858 30.2417 12.6372L21.2565 7.44952ZM19.014 7.91561C19.6246 7.5631 20.3768 7.5631 20.9874 7.91561L29.9727 13.1032C30.5832 13.4558 30.9593 14.1072 30.9593 14.8122V25.1875C30.9593 25.8925 30.5832 26.544 29.9727 26.8965L20.9874 32.0841C20.3768 32.4366 19.6246 32.4366 19.014 32.0841L10.0288 26.8965C9.41822 26.544 9.0421 25.8925 9.0421 25.1875V14.8122C9.0421 14.1072 9.41822 13.4558 10.0288 13.1032L19.014 7.91561Z" fill="#D6AB60"/>
<path d="M26.4237 10.4328L21.2565 7.44952C20.4794 7.00088 19.522 7.00088 18.7449 7.44952L9.75968 12.6372C8.98261 13.0858 8.50391 13.9149 8.50391 14.8122V25.1875C8.50391 26.0848 8.98261 26.9139 9.75968 27.3626L13.1823 29.3386L26.4237 10.4328Z" fill="url(#paint8_linear_1_4482)"/>
</g>
<defs>
<linearGradient id="paint0_linear_1_4482" x1="10.1875" y1="20.0002" x2="20.3457" y2="21.5948" gradientUnits="userSpaceOnUse">
<stop stop-color="#343237"/>
<stop offset="1" stop-color="#0F0F13"/>
</linearGradient>
<linearGradient id="paint1_linear_1_4482" x1="14.9928" y1="19.2807" x2="17.7468" y2="9.8551" gradientUnits="userSpaceOnUse">
<stop stop-color="#686868"/>
<stop offset="0.48" stop-color="#D5D5D5"/>
<stop offset="1" stop-color="#5A5A5A"/>
</linearGradient>
<linearGradient id="paint2_linear_1_4482" x1="14.9998" y1="26.8101" x2="21.4125" y2="13.2584" gradientUnits="userSpaceOnUse">
<stop stop-color="#686868"/>
<stop offset="0.48" stop-color="#D5D5D5"/>
<stop offset="1" stop-color="#5A5A5A"/>
</linearGradient>
<linearGradient id="paint3_linear_1_4482" x1="15.0936" y1="26.34" x2="20.851" y2="13.4725" gradientUnits="userSpaceOnUse">
<stop stop-color="#686868"/>
<stop offset="0.48" stop-color="#D5D5D5"/>
<stop offset="1" stop-color="#5A5A5A"/>
</linearGradient>
<linearGradient id="paint4_linear_1_4482" x1="15.7622" y1="25.9032" x2="21.4269" y2="14.3186" gradientUnits="userSpaceOnUse">
<stop stop-color="#686868"/>
<stop offset="0.48" stop-color="#D5D5D5"/>
<stop offset="1" stop-color="#5A5A5A"/>
</linearGradient>
<linearGradient id="paint5_linear_1_4482" x1="16.4233" y1="25.4244" x2="21.4983" y2="15.5539" gradientUnits="userSpaceOnUse">
<stop stop-color="#686868"/>
<stop offset="0.48" stop-color="#D5D5D5"/>
<stop offset="1" stop-color="#5A5A5A"/>
</linearGradient>
<linearGradient id="paint6_linear_1_4482" x1="15.5397" y1="13.8793" x2="27.5572" y2="18.6552" gradientUnits="userSpaceOnUse">
<stop stop-color="#77FFB6"/>
<stop offset="0.426182" stop-color="#10FF01"/>
<stop offset="1" stop-color="#53FF8B"/>
</linearGradient>
<linearGradient id="paint7_linear_1_4482" x1="7.96484" y1="7.43603" x2="9.66666" y2="34.5157" gradientUnits="userSpaceOnUse">
<stop offset="0.10456" stop-color="#FFE9C4"/>
<stop offset="0.472835" stop-color="#8F5D09"/>
<stop offset="0.840149" stop-color="#FFD590"/>
<stop offset="0.987506" stop-color="#885100"/>
</linearGradient>
<linearGradient id="paint8_linear_1_4482" x1="12.1693" y1="6.78377" x2="15.4657" y2="29.5834" gradientUnits="userSpaceOnUse">
<stop stop-color="#7089B8" stop-opacity="0.55"/>
<stop offset="0.544611" stop-color="#F1F0C9" stop-opacity="0.24"/>
<stop offset="0.797392" stop-color="#9B9783" stop-opacity="0.105395"/>
<stop offset="1" stop-color="#7C7769" stop-opacity="0"/>
</linearGradient>
<clipPath id="clip0_1_4482">
<rect width="40" height="40" fill="white"/>
</clipPath>
<clipPath id="clip1_1_4482">
<rect width="21.0965" height="23.0143" fill="white" transform="translate(9.88281 8.49292)"/>
</clipPath>
</defs>
</svg>
