<svg width="40" height="40" viewBox="0 0 40 40" fill="none" xmlns="http://www.w3.org/2000/svg">
<g clip-path="url(#clip0_1_5342)">
<rect width="40" height="40" fill="white"/>
<path d="M39.2129 11.449V11.449C40.2624 17.0781 40.2624 22.8026 39.2129 28.5271V28.5271C38.2588 33.9654 33.9654 38.2588 28.5271 39.2129V39.2129C22.898 40.2624 17.1735 40.2624 11.449 39.2129V39.2129C6.01073 38.2588 1.81276 34.0608 0.858676 28.6225V28.6225C-0.286225 22.9934 -0.286225 17.1735 0.858676 11.449V11.449C1.81276 6.01073 6.01073 1.81276 11.449 0.858676V0.858676C17.0781 -0.286225 22.898 -0.286225 28.6225 0.858676V0.858676C34.0608 1.81276 38.2588 6.01073 39.2129 11.449Z" fill="white"/>
<path fill-rule="evenodd" clip-rule="evenodd" d="M38.2293 28.3468C39.2571 22.7405 39.2565 17.1393 38.2298 11.6323L39.2129 11.449C40.2624 17.0781 40.2624 22.8026 39.2129 28.5271L38.2293 28.3468ZM28.5271 39.2129C33.9654 38.2588 38.2588 33.9654 39.2129 28.5271L38.2279 28.3543C37.3466 33.3779 33.3779 37.3466 28.3543 38.2279L28.5271 39.2129ZM11.449 39.2129C17.1735 40.2624 22.898 40.2624 28.5271 39.2129L28.3438 38.2298C22.8369 39.2565 17.2356 39.2571 11.6293 38.2293L11.449 39.2129ZM28.6225 0.858676L28.4497 1.84363C33.4733 2.72496 37.3466 6.59823 38.2279 11.6218L39.2129 11.449C38.2588 6.01073 34.0608 1.81276 28.6225 0.858676ZM11.449 0.858676C17.0781 -0.286225 22.898 -0.286225 28.6225 0.858676L28.4264 1.83926C22.8303 0.720026 17.1448 0.720683 11.6483 1.83861L11.449 0.858676ZM0.858676 11.449C1.81276 6.01073 6.01073 1.81276 11.449 0.858676L11.6218 1.84363C6.59823 2.72496 2.72496 6.59823 1.84363 11.6218L0.858676 11.449ZM0.858676 11.449L1.83926 11.6451C0.720026 17.2413 0.720683 22.9267 1.83861 28.4232L0.858676 28.6225C-0.286225 22.9934 -0.286225 17.1735 0.858676 11.449ZM0.858676 28.6225C1.81276 34.0608 6.01073 38.2588 11.449 39.2129L11.6218 38.2279C6.59823 37.3466 2.72496 33.4733 1.84363 28.4497L0.858676 28.6225Z" fill="#F0F5FE"/>
<path fill-rule="evenodd" clip-rule="evenodd" d="M8.96514 9C9.61143 9 10.1354 9.52392 10.1354 10.1702V27.169C10.1354 28.4513 11.1748 29.4907 12.4571 29.4907H31.0321C31.6784 29.4907 32.2023 30.0147 32.2023 30.661C32.2023 31.3072 31.6784 31.8312 31.0321 31.8312H12.4571C9.88223 31.8312 7.79492 29.7439 7.79492 27.169V10.1702C7.79492 9.52392 8.31885 9 8.96514 9Z" fill="#0033C9"/>
<path fill-rule="evenodd" clip-rule="evenodd" d="M25.4569 11.3657C25.7991 11.3485 26.1317 11.4821 26.3669 11.7313L31.4469 17.1147C31.8905 17.5847 31.869 18.3254 31.399 18.7689C30.9289 19.2125 30.1883 19.191 29.7447 18.721L25.6066 14.3358L18.5624 23.4933C18.1718 24.0012 17.4453 24.1005 16.9327 23.716L13.4408 21.0971C12.9238 20.7093 12.819 19.9758 13.2068 19.4588C13.5945 18.9417 14.328 18.837 14.8451 19.2247L17.4122 21.15L24.5883 11.821C24.7972 11.5494 25.1147 11.383 25.4569 11.3657Z" fill="#00CF6A"/>
</g>
<defs>
<clipPath id="clip0_1_5342">
<rect width="40" height="40" fill="white"/>
</clipPath>
</defs>
</svg>
