<svg width="40" height="40" viewBox="0 0 40 40" fill="none" xmlns="http://www.w3.org/2000/svg">
<g clip-path="url(#clip0_1_4432)">
<path d="M39.2129 11.449V11.449C40.2624 17.0781 40.2624 22.8026 39.2129 28.5271V28.5271C38.2588 33.9654 33.9654 38.2588 28.5271 39.2129V39.2129C22.898 40.2624 17.1735 40.2624 11.449 39.2129V39.2129C6.01073 38.2588 1.81276 34.0608 0.858676 28.6225V28.6225C-0.286225 22.9934 -0.286225 17.1735 0.858676 11.449V11.449C1.81276 6.01073 6.01073 1.81276 11.449 0.858676V0.858676C17.0781 -0.286225 22.898 -0.286225 28.6225 0.858676V0.858676C34.0608 1.81276 38.2588 6.01073 39.2129 11.449Z" fill="white"/>
<path fill-rule="evenodd" clip-rule="evenodd" d="M38.2293 28.3468C39.2571 22.7405 39.2565 17.1393 38.2298 11.6323L39.2129 11.449C40.2624 17.0781 40.2624 22.8026 39.2129 28.5271L38.2293 28.3468ZM28.5271 39.2129C33.9654 38.2588 38.2588 33.9654 39.2129 28.5271L38.2279 28.3543C37.3466 33.3779 33.3779 37.3466 28.3543 38.2279L28.5271 39.2129ZM11.449 39.2129C17.1735 40.2624 22.898 40.2624 28.5271 39.2129L28.3438 38.2298C22.8369 39.2565 17.2356 39.2571 11.6293 38.2293L11.449 39.2129ZM28.6225 0.858676L28.4497 1.84363C33.4733 2.72496 37.3466 6.59823 38.2279 11.6218L39.2129 11.449C38.2588 6.01073 34.0608 1.81276 28.6225 0.858676ZM11.449 0.858676C17.0781 -0.286225 22.898 -0.286225 28.6225 0.858676L28.4264 1.83926C22.8303 0.720026 17.1448 0.720683 11.6483 1.83861L11.449 0.858676ZM0.858676 11.449C1.81276 6.01073 6.01073 1.81276 11.449 0.858676L11.6218 1.84363C6.59823 2.72496 2.72496 6.59823 1.84363 11.6218L0.858676 11.449ZM0.858676 11.449L1.83926 11.6451C0.720026 17.2413 0.720683 22.9267 1.83861 28.4232L0.858676 28.6225C-0.286225 22.9934 -0.286225 17.1735 0.858676 11.449ZM0.858676 28.6225C1.81276 34.0608 6.01073 38.2588 11.449 39.2129L11.6218 38.2279C6.59823 37.3466 2.72496 33.4733 1.84363 28.4497L0.858676 28.6225Z" fill="#EEF4FE"/>
<path d="M26.2441 9.19995L26.2441 10.3883" stroke="white" stroke-width="2.4" stroke-linecap="round"/>
<path d="M26.2441 17.1544L26.2441 18.3428" stroke="white" stroke-width="2.4" stroke-linecap="round"/>
<path d="M8.93516 15C8.67625 15 8.42794 15.1029 8.24486 15.2859C8.06178 15.469 7.95892 15.7173 7.95892 15.9762L7.95892 24.4735L7.95892 24.4737V24.4741C7.9594 25.1435 8.18739 25.793 8.60552 26.3159L11.6888 30.1759C12.0335 30.6074 11.9631 31.2367 11.5316 31.5813C11.1 31.926 10.4708 31.8556 10.1261 31.4241L7.04318 27.5645C6.34185 26.6873 5.95952 25.5977 5.95892 24.4746V15.9762C5.95892 15.1869 6.27249 14.4299 6.83064 13.8717C7.3888 13.3136 8.14582 13 8.93516 13C9.72451 13 10.4815 13.3136 11.0397 13.8717C11.5978 14.4299 11.9114 15.1869 11.9114 15.9762V19.861C12.172 19.7875 12.4437 19.7492 12.7193 19.7492C13.5085 19.7492 14.2654 20.0627 14.8235 20.6206L15.6419 21.439C17.6818 23.4795 18.8279 26.2467 18.8279 29.132V30.8C18.8279 31.3522 18.3802 31.8 17.8279 31.8C17.2756 31.8 16.8279 31.3522 16.8279 30.8V29.132C16.8279 26.7771 15.8925 24.5186 14.2276 22.8531L12.7193 21.7492L14.2275 22.853L13.4095 22.0351L13.4094 22.035C13.2263 21.852 12.9781 21.7492 12.7193 21.7492C12.4606 21.7492 12.2124 21.852 12.0293 22.0348L12.0292 22.035L12.0291 22.0351C11.8462 22.2181 11.7435 22.4663 11.7435 22.725C11.7435 22.9839 11.8463 23.2321 12.0292 23.4151L12.0293 23.4152L13.4264 24.8123C13.8169 25.2029 13.8169 25.836 13.4264 26.2266C13.0359 26.6171 12.4027 26.6171 12.0122 26.2266L10.6149 24.8292C10.0569 24.2711 9.7435 23.5142 9.7435 22.725C9.7435 22.3862 9.80128 22.0533 9.9114 21.7395V15.9762C9.9114 15.7173 9.80855 15.469 9.62547 15.2859C9.44239 15.1029 9.19408 15 8.93516 15Z" fill="#0033C9"/>
<path d="M28.8862 13.8717C29.4444 13.3136 30.2014 13 30.9907 13C31.7801 13 32.5371 13.3136 33.0952 13.8717C33.6534 14.4299 33.967 15.1869 33.967 15.9762V24.4741C33.9671 25.597 33.5855 26.6867 32.8849 27.5643L32.8847 27.5645L29.8018 31.4241C29.4571 31.8556 28.8278 31.926 28.3963 31.5813C27.9648 31.2367 27.8944 30.6074 28.2391 30.1759L31.3219 26.3165C31.7396 25.7933 31.967 25.1436 31.967 24.4741V15.9762C31.967 15.7173 31.8641 15.469 31.681 15.2859C31.498 15.1029 31.2496 15 30.9907 15C30.7318 15 30.4835 15.1029 30.3004 15.2859C30.1173 15.469 30.0145 15.7173 30.0145 15.9762V21.7401C30.1245 22.0537 30.1822 22.3864 30.1822 22.725C30.1822 23.5142 29.8687 24.2711 29.3108 24.8292L27.9135 26.2266C27.523 26.6171 26.8898 26.6171 26.4993 26.2266C26.1087 25.836 26.1087 25.2029 26.4993 24.8123L27.8964 23.4152L27.8965 23.4151C28.0794 23.2321 28.1822 22.9839 28.1822 22.725C28.1822 22.4663 28.0795 22.2181 27.8966 22.0351L27.8965 22.035L27.8964 22.0348C27.7133 21.852 27.4651 21.7492 27.2064 21.7492C26.9476 21.7492 26.6993 21.852 26.5163 22.035L25.1022 20.6206C25.6603 20.0627 26.4172 19.7492 27.2064 19.7492C27.4821 19.7492 27.7538 19.7875 28.0145 19.861V15.9762C28.0145 15.1869 28.3281 14.4299 28.8862 13.8717Z" fill="#0033C9"/>
<path d="M25.1022 20.6206L26.5162 22.0351L25.6981 22.8531C24.0332 24.5186 23.0978 26.7771 23.0978 29.132V30.8C23.0978 31.3522 22.6501 31.8 22.0978 31.8C21.5455 31.8 21.0978 31.3522 21.0978 30.8V29.132C21.0978 26.2467 22.2438 23.4795 24.2838 21.439L25.1022 20.6206Z" fill="#0033C9"/>
<path d="M18.6854 8.35504C19.1846 8.51463 19.6646 8.79318 20.1191 9.18433C20.5736 8.79318 21.0536 8.51463 21.5528 8.35504C22.3608 8.0967 23.15 8.17376 23.8287 8.49231C25.1398 9.10763 25.938 10.556 25.959 11.9852C25.9591 11.9901 25.9591 11.995 25.9591 11.9999C25.9591 14.0348 24.7663 15.7764 23.5912 16.9448C22.9901 17.5425 22.3531 18.0319 21.7888 18.3782C21.507 18.5511 21.2299 18.6966 20.9729 18.8022C20.7415 18.8974 20.4331 19 20.1191 19C19.8051 19 19.4968 18.8974 19.2653 18.8022C19.0083 18.6966 18.7312 18.5511 18.4494 18.3782C17.8851 18.0319 17.2481 17.5425 16.647 16.9448C15.4719 15.7764 14.2791 14.0348 14.2791 11.9999C14.2791 11.995 14.2791 11.9901 14.2792 11.9852C14.3002 10.556 15.0985 9.10763 16.4095 8.49231C17.0882 8.17376 17.8774 8.0967 18.6854 8.35504Z" fill="#00CF6A"/>
</g>
<defs>
<clipPath id="clip0_1_4432">
<rect width="40" height="40" fill="white"/>
</clipPath>
</defs>
</svg>
