<svg width="40" height="40" viewBox="0 0 40 40" fill="none" xmlns="http://www.w3.org/2000/svg">
<g clip-path="url(#clip0_1_3556)">
<path d="M39.2129 11.449V11.449C40.2624 17.0781 40.2624 22.8026 39.2129 28.5271V28.5271C38.2588 33.9654 33.9654 38.2588 28.5271 39.2129V39.2129C22.898 40.2624 17.1735 40.2624 11.449 39.2129V39.2129C6.01073 38.2588 1.81276 34.0608 0.858676 28.6225V28.6225C-0.286225 22.9934 -0.286225 17.1735 0.858676 11.449V11.449C1.81276 6.01073 6.01073 1.81276 11.449 0.858676V0.858676C17.0781 -0.286225 22.898 -0.286225 28.6225 0.858676V0.858676C34.0608 1.81276 38.2588 6.01073 39.2129 11.449Z" fill="white"/>
<path fill-rule="evenodd" clip-rule="evenodd" d="M38.2293 28.3468C39.2571 22.7405 39.2565 17.1393 38.2298 11.6323L39.2129 11.449C40.2624 17.0781 40.2624 22.8026 39.2129 28.5271L38.2293 28.3468ZM28.5271 39.2129C33.9654 38.2588 38.2588 33.9654 39.2129 28.5271L38.2279 28.3543C37.3466 33.3779 33.3779 37.3466 28.3543 38.2279L28.5271 39.2129ZM11.449 39.2129C17.1735 40.2624 22.898 40.2624 28.5271 39.2129L28.3438 38.2298C22.8369 39.2565 17.2356 39.2571 11.6293 38.2293L11.449 39.2129ZM28.6225 0.858676L28.4497 1.84363C33.4733 2.72496 37.3466 6.59823 38.2279 11.6218L39.2129 11.449C38.2588 6.01073 34.0608 1.81276 28.6225 0.858676ZM11.449 0.858676C17.0781 -0.286225 22.898 -0.286225 28.6225 0.858676L28.4264 1.83926C22.8303 0.720026 17.1448 0.720683 11.6483 1.83861L11.449 0.858676ZM0.858676 11.449C1.81276 6.01073 6.01073 1.81276 11.449 0.858676L11.6218 1.84363C6.59823 2.72496 2.72496 6.59823 1.84363 11.6218L0.858676 11.449ZM0.858676 11.449L1.83926 11.6451C0.720026 17.2413 0.720683 22.9267 1.83861 28.4232L0.858676 28.6225C-0.286225 22.9934 -0.286225 17.1735 0.858676 11.449ZM0.858676 28.6225C1.81276 34.0608 6.01073 38.2588 11.449 39.2129L11.6218 38.2279C6.59823 37.3466 2.72496 33.4733 1.84363 28.4497L0.858676 28.6225Z" fill="#EEF4FE"/>
<path d="M17.6466 8.09942C18.0529 7.95135 18.5051 7.96107 18.9117 8.12776L19.2391 8.26205C21.802 9.31351 23.8526 10.1548 26.5442 10.8199C27.6476 11.0926 28.4124 12.0341 28.4124 13.0851V19.5007C28.4124 20.053 28.8601 20.5007 29.4124 20.5007C29.9647 20.5007 30.4124 20.053 30.4124 19.5007V13.0851C30.4124 11.03 28.9358 9.35079 27.024 8.87835C24.478 8.24919 22.5503 7.4585 19.9578 6.39512L19.6703 6.27723C18.8094 5.92427 17.8426 5.89935 16.9618 6.22029C16.2441 6.48183 15.5816 6.7303 14.9495 6.96736C13.0669 7.67344 11.4541 8.27834 9.4544 8.82602C7.59808 9.33444 6.19922 10.9927 6.19922 12.99V19.5007C6.19922 23.6735 8.29419 26.5328 10.819 28.4316C11.0567 28.6103 11.2986 28.781 11.5433 28.9437C11.5463 28.9457 11.5492 28.9477 11.5522 28.9497C12.2344 29.4028 12.9387 29.7952 13.637 30.1346C15.3144 30.9499 16.9558 31.4589 18.17 31.769C18.3483 31.8145 18.5276 31.809 18.6925 31.7617C19.2949 31.6071 19.9883 31.4056 20.7302 31.1453C21.2513 30.9624 21.5256 30.3918 21.3427 29.8706C21.1599 29.3495 20.5892 29.0752 20.068 29.2581C19.4771 29.4654 18.9181 29.6326 18.417 29.7664C17.0623 29.4056 15.2841 28.8089 13.5903 27.8536C13.783 27.6486 13.9898 27.4555 14.2097 27.2758C15.3655 26.3311 16.8125 25.8149 18.3054 25.8149C19.0467 25.8149 19.7767 25.9422 20.4654 26.186C20.986 26.3704 21.5575 26.0977 21.7418 25.5771C21.9261 25.0565 21.6535 24.485 21.1329 24.3007C20.2314 23.9815 19.2758 23.8149 18.3054 23.8149C16.3512 23.8149 14.457 24.4905 12.9439 25.7273C12.5656 26.0365 12.2169 26.3761 11.9006 26.7414C9.80072 25.1226 8.19922 22.8285 8.19922 19.5007V12.99C8.19922 11.9654 8.92438 11.0448 9.98271 10.755C12.0782 10.1811 13.8028 9.53411 15.71 8.81865C16.3299 8.58609 16.9691 8.34629 17.6466 8.09942Z" fill="#0033C9"/>
<path fill-rule="evenodd" clip-rule="evenodd" d="M13.5703 17.615C13.5703 14.9994 15.6907 12.879 18.3063 12.879C20.9219 12.879 23.0422 14.9994 23.0422 17.615C23.0422 20.2306 20.9219 22.351 18.3063 22.351C15.6907 22.351 13.5703 20.2306 13.5703 17.615ZM18.3063 14.879C16.7952 14.879 15.5703 16.104 15.5703 17.615C15.5703 19.126 16.7952 20.351 18.3063 20.351C19.8173 20.351 21.0422 19.126 21.0422 17.615C21.0422 16.104 19.8173 14.879 18.3063 14.879Z" fill="#0033C9"/>
<path fill-rule="evenodd" clip-rule="evenodd" d="M33.9138 28.3429C33.9138 31.4672 31.381 34 28.2567 34C25.1324 34 22.5996 31.4672 22.5996 28.3429C22.5996 25.2186 25.1324 22.6858 28.2567 22.6858C31.381 22.6858 33.9138 25.2186 33.9138 28.3429ZM30.5332 27.4525C30.9179 27.0563 30.9086 26.4232 30.5124 26.0384C30.1161 25.6537 29.483 25.663 29.0983 26.0592C28.2663 26.9161 27.7092 27.7453 27.2082 28.8716L26.63 28.2754C26.2455 27.8789 25.6124 27.8692 25.216 28.2536C24.8195 28.6381 24.8097 29.2712 25.1942 29.6677L26.8565 31.382C27.0981 31.631 27.4515 31.7371 27.7902 31.6623C28.129 31.5874 28.4048 31.3423 28.5189 31.0146C29.1412 29.2268 29.6395 28.3728 30.5332 27.4525Z" fill="#00CF6A"/>
</g>
<defs>
<clipPath id="clip0_1_3556">
<rect width="40" height="40" fill="white"/>
</clipPath>
</defs>
</svg>
