<svg width="36" height="36" viewBox="0 0 36 36" fill="none" xmlns="http://www.w3.org/2000/svg">
<path d="M22.6398 26.6484L9.54207 30.4354C9.07778 30.5698 8.5877 30.2994 8.45326 29.8351L2.03451 7.63835C1.90007 7.17406 2.17052 6.68398 2.63481 6.54954L15.7326 2.76254C16.1969 2.6281 16.6869 2.89855 16.8214 3.36283L23.2401 25.5603C23.3746 26.0246 23.1041 26.5139 22.6398 26.6484Z" fill="#FFB666"/>
<path d="M8.7582 25.7912L16.3877 28.4565L22.6407 26.6486C23.105 26.5142 23.3755 26.0241 23.241 25.5598L16.8223 3.3623C16.7035 2.95195 16.3072 2.69323 15.8953 2.73153C15.8734 2.77139 15.8538 2.81282 15.839 2.85737L8.2181 24.6711C8.05865 25.1276 8.30173 25.6317 8.7582 25.7912Z" fill="#8A3200" fill-opacity="0.16"/>
<path d="M15.3179 9.55982L16.7514 9.14556C17.0398 9.06193 17.2079 8.75709 17.125 8.46789L16.7287 7.09847C16.6451 6.80927 16.3403 6.64122 16.0511 6.72485L14.6176 7.13912C14.3284 7.22275 14.1603 7.52759 14.2439 7.81679L14.6402 9.18621C14.7239 9.47541 15.0287 9.64346 15.3179 9.55982Z" fill="#F5FEFF"/>
<path d="M13.3726 10.1226L11.9391 10.5369C11.6499 10.6205 11.345 10.4525 11.2614 10.1633L10.8651 8.79385C10.7815 8.50465 10.9495 8.19981 11.2387 8.11618L12.6722 7.70191C12.9614 7.61828 13.2663 7.78633 13.3499 8.07553L13.7462 9.44495C13.8298 9.73415 13.661 10.039 13.3726 10.1226Z" fill="#F5FEFF"/>
<path d="M8.56022 11.5139L9.99373 11.0997C10.2829 11.016 10.451 10.7112 10.3673 10.422L9.97106 9.05259C9.88743 8.76339 9.58259 8.59534 9.29339 8.67897L7.85988 9.09324C7.57068 9.17687 7.40263 9.48171 7.48626 9.77091L7.88255 11.1403C7.96618 11.4295 8.27102 11.5976 8.56022 11.5139Z" fill="#F5FEFF"/>
<path d="M5.18138 12.491L6.61489 12.0767C6.90409 11.9931 7.07214 11.6883 6.98851 11.3991L6.59222 10.0297C6.50859 9.74045 6.20375 9.5724 5.91455 9.65603L4.48104 10.0703C4.19184 10.1539 4.02379 10.4588 4.10742 10.748L4.50371 12.1174C4.58734 12.4066 4.89218 12.5746 5.18138 12.491Z" fill="#F5FEFF"/>
<path d="M7.57665 15.4051L6.14314 15.8194C5.85393 15.903 5.5491 15.735 5.46546 15.4458L5.06918 14.0764C4.98554 13.7872 5.15359 13.4823 5.4428 13.3987L6.87631 12.9844C7.16551 12.9008 7.47034 13.0689 7.55398 13.3581L7.95026 14.7275C8.0339 15.0167 7.86585 15.3215 7.57665 15.4051Z" fill="#F5FEFF"/>
<path d="M9.52198 14.8423L10.9555 14.4281C11.2447 14.3445 11.4127 14.0396 11.3291 13.7504L10.9328 12.381C10.8492 12.0918 10.5443 11.9237 10.2551 12.0074L8.82164 12.4216C8.53243 12.5053 8.36438 12.8101 8.44802 13.0993L8.8443 14.4687C8.92794 14.7579 9.23277 14.926 9.52198 14.8423Z" fill="#F5FEFF"/>
<path d="M14.3343 13.4507L12.9008 13.8649C12.6116 13.9486 12.3068 13.7805 12.2231 13.4913L11.8269 12.1219C11.7432 11.8327 11.9113 11.5279 12.2005 11.4442L13.634 11.03C13.9232 10.9463 14.228 11.1144 14.3117 11.4036L14.7079 12.773C14.7916 13.0622 14.6235 13.367 14.3343 13.4507Z" fill="#F5FEFF"/>
<path d="M16.2797 12.8882L17.7132 12.474C18.0024 12.3903 18.1704 12.0855 18.0868 11.7963L17.6905 10.4269C17.6069 10.1377 17.302 9.96962 17.0128 10.0533L15.5793 10.4675C15.2901 10.5512 15.1221 10.856 15.2057 11.1452L15.602 12.5146C15.6856 12.8038 15.9905 12.9719 16.2797 12.8882Z" fill="#F5FEFF"/>
<path d="M8.54014 18.7346L7.10663 19.1489C6.81743 19.2325 6.51259 19.0644 6.42896 18.7752L6.03267 17.4058C5.94904 17.1166 6.11709 16.8118 6.40629 16.7282L7.8398 16.3139C8.129 16.2303 8.43384 16.3983 8.51747 16.6875L8.91376 18.0569C8.99739 18.3461 8.82934 18.651 8.54014 18.7346Z" fill="#F5FEFF"/>
<path d="M10.4855 18.1715L11.919 17.7572C12.2082 17.6736 12.3762 17.3687 12.2926 17.0795L11.8963 15.7101C11.8127 15.4209 11.5078 15.2528 11.2186 15.3365L9.78513 15.7507C9.49593 15.8344 9.32788 16.1392 9.41151 16.4284L9.8078 17.7978C9.89143 18.087 10.1963 18.2551 10.4855 18.1715Z" fill="#F5FEFF"/>
<path d="M15.2978 16.7805L13.8643 17.1947C13.5751 17.2784 13.2703 17.1103 13.1866 16.8211L12.7904 15.4517C12.7067 15.1625 12.8748 14.8577 13.164 14.774L14.5975 14.3598C14.8867 14.2761 15.1915 14.4442 15.2752 14.7334L15.6714 16.1028C15.7551 16.392 15.5862 16.6968 15.2978 16.7805Z" fill="#F5FEFF"/>
<path d="M17.2432 16.2177L18.6767 15.8034C18.9651 15.7198 19.1331 15.4149 19.0503 15.1257L18.654 13.7563C18.5704 13.4671 18.2655 13.2991 17.9763 13.3827L16.5428 13.797C16.2536 13.8806 16.0856 14.1854 16.1692 14.4746L16.5655 15.8441C16.6491 16.1333 16.9539 16.3013 17.2432 16.2177Z" fill="#F5FEFF"/>
<path d="M9.50155 22.0627L8.06804 22.4769C7.77884 22.5605 7.474 22.3925 7.39037 22.1033L6.99408 20.7339C6.91045 20.4447 7.0785 20.1398 7.3677 20.0562L8.80121 19.6419C9.09041 19.5583 9.39525 19.7264 9.47888 20.0156L9.87517 21.385C9.9588 21.6742 9.79075 21.9798 9.50155 22.0627Z" fill="#F5FEFF"/>
<path d="M11.4469 21.4999L12.8804 21.0856C13.1696 21.0027 13.3376 20.6971 13.254 20.4079L12.8577 19.0385C12.7741 18.7493 12.4693 18.5813 12.18 18.6649L10.7465 19.0791C10.4573 19.1628 10.2893 19.4676 10.3729 19.7568L10.7692 21.1262C10.8528 21.4154 11.1577 21.5835 11.4469 21.4999Z" fill="#F5FEFF"/>
<path d="M16.2592 20.1096L14.8257 20.5238C14.5365 20.6075 14.2317 20.4394 14.148 20.1502L13.7518 18.7808C13.6681 18.4916 13.8362 18.1868 14.1254 18.1031L15.5589 17.6889C15.8481 17.6052 16.1529 17.7733 16.2366 18.0625L16.6328 19.4319C16.7165 19.7203 16.5484 20.0259 16.2592 20.1096Z" fill="#F5FEFF"/>
<path d="M18.2056 19.5468L19.6391 19.1325C19.9283 19.0489 20.0964 18.7433 20.0127 18.4548L19.6164 17.0854C19.5328 16.7962 19.228 16.6282 18.9388 16.7118L17.5053 17.1261C17.2161 17.2097 17.048 17.5145 17.1316 17.8037L17.5279 19.1732C17.6116 19.4624 17.9164 19.6304 18.2056 19.5468Z" fill="#F5FEFF"/>
<path d="M10.4717 25.4164L9.03814 25.8307C8.74894 25.9143 8.4441 25.7463 8.36047 25.4571L7.96418 24.0877C7.88055 23.7985 8.0486 23.4936 8.3378 23.41L9.77131 22.9957C10.0605 22.9121 10.3654 23.0802 10.449 23.3694L10.8453 24.7388C10.9289 25.028 10.7609 25.3328 10.4717 25.4164Z" fill="#F5FEFF"/>
<path d="M12.417 24.8543L13.8505 24.4401C14.1397 24.3564 14.3077 24.0516 14.2241 23.7624L13.8278 22.393C13.7442 22.1038 13.4394 21.9357 13.1502 22.0194L11.7166 22.4336C11.4274 22.5173 11.2594 22.8221 11.343 23.1113L11.7393 24.4807C11.8229 24.7699 12.1278 24.938 12.417 24.8543Z" fill="#F5FEFF"/>
<path d="M17.23 23.463L15.7965 23.8773C15.5073 23.9609 15.2025 23.7929 15.1188 23.5037L14.7226 22.1343C14.6389 21.845 14.807 21.5402 15.0962 21.4566L16.5297 21.0423C16.8189 20.9587 17.1237 21.1267 17.2074 21.4159L17.6036 22.7853C17.6873 23.0746 17.5192 23.3794 17.23 23.463Z" fill="#F5FEFF"/>
<path d="M19.1754 22.8995L20.6089 22.4853C20.8981 22.4016 21.0661 22.0968 20.9825 21.8076L20.5862 20.4382C20.5026 20.149 20.1977 19.9809 19.9085 20.0646L18.475 20.4788C18.1858 20.5625 18.0178 20.8673 18.1014 21.1565L18.4977 22.5259C18.5813 22.8151 18.8862 22.9832 19.1754 22.8995Z" fill="#F5FEFF"/>
<path d="M11.4418 28.7706L10.0082 29.1849C9.71904 29.2685 9.41421 29.1004 9.33057 28.8112L8.93429 27.4418C8.85065 27.1526 9.0187 26.8478 9.30791 26.7641L10.7414 26.3499C11.0306 26.2663 11.3355 26.4343 11.4191 26.7235L11.8154 28.0929C11.899 28.3821 11.731 28.687 11.4418 28.7706Z" fill="#F5FEFF"/>
<path d="M13.3874 28.2081L14.8209 27.7939C15.1094 27.7102 15.2782 27.4054 15.1946 27.1162L14.7983 25.7468C14.7146 25.4576 14.4098 25.2895 14.1206 25.3732L12.6871 25.7874C12.3979 25.8711 12.2298 26.1759 12.3135 26.4651L12.7098 27.8345C12.7934 28.1237 13.0982 28.2918 13.3874 28.2081Z" fill="#F5FEFF"/>
<path d="M18.1998 26.8168L16.7663 27.2311C16.4771 27.3147 16.1722 27.1467 16.0886 26.8575L15.6923 25.488C15.6087 25.1988 15.7767 24.894 16.0659 24.8104L17.4994 24.3961C17.7886 24.3125 18.0935 24.4805 18.1771 24.7697L18.5734 26.1391C18.6563 26.4283 18.4882 26.7332 18.1998 26.8168Z" fill="#F5FEFF"/>
<path d="M20.1444 26.2537L21.5779 25.8394C21.8671 25.7558 22.0352 25.4509 21.9515 25.1617L21.5553 23.7923C21.4716 23.5031 21.1668 23.3351 20.8776 23.4187L19.4441 23.833C19.1549 23.9166 18.9868 24.2214 19.0705 24.5106L19.4667 25.8801C19.5504 26.1693 19.8552 26.3373 20.1444 26.2537Z" fill="#F5FEFF"/>
<path d="M25.3127 29.2034L11.0965 24.2371C10.5924 24.0609 10.3239 23.5041 10.5 23L17.4709 2.65058C17.647 2.14644 18.2038 1.87796 18.7079 2.05407L32.9241 7.02042C33.4283 7.19653 33.6968 7.75333 33.5207 8.25748L26.5498 28.6069C26.3737 29.111 25.8177 29.3795 25.3127 29.2034Z" fill="#FF8888"/>
<path d="M18.7569 9.5761L17.2013 9.03225C16.8879 8.92261 16.7205 8.57645 16.8301 8.26222L17.3498 6.77568C17.4594 6.46231 17.8056 6.29484 18.1198 6.40448L19.6754 6.94833C19.9888 7.05797 20.1562 7.40413 20.0466 7.71836L19.5269 9.2049C19.4173 9.51827 19.0703 9.68574 18.7569 9.5761Z" fill="#F5FEFF"/>
<path d="M22.4241 10.8569L20.8685 10.313C20.5551 10.2034 20.3876 9.85723 20.4973 9.54301L21.017 8.05647C21.1266 7.7431 21.4728 7.57563 21.787 7.68526L23.3426 8.22912C23.656 8.33875 23.8234 8.68492 23.7138 8.99915L23.1941 10.4857C23.0845 10.7991 22.7383 10.9665 22.4241 10.8569Z" fill="#F5FEFF"/>
<path d="M24.5357 11.5954L26.0913 12.1384C26.4055 12.248 26.7517 12.0805 26.8613 11.768L27.381 10.2815C27.4906 9.96725 27.3231 9.62108 27.0098 9.51144L25.4542 8.96759C25.1399 8.85795 24.7938 9.02543 24.6841 9.33879L24.1645 10.8253C24.0548 11.1396 24.2223 11.4857 24.5357 11.5954Z" fill="#F5FEFF"/>
<path d="M29.7596 13.4188L28.204 12.8758C27.8906 12.7661 27.7232 12.42 27.8328 12.1057L28.3525 10.6192C28.4621 10.3058 28.8083 10.1384 29.1225 10.248L30.6781 10.7918C30.9915 10.9015 31.159 11.2477 31.0493 11.5619L30.5296 13.0484C30.4191 13.3609 30.073 13.5284 29.7596 13.4188Z" fill="#F5FEFF"/>
<path d="M15.9397 12.6464L17.4953 13.1894C17.8087 13.299 18.1557 13.1316 18.2653 12.8191L18.785 11.3325C18.8947 11.0183 18.7272 10.6721 18.4138 10.5625L16.8582 10.0186C16.544 9.90902 16.1978 10.0765 16.0882 10.3899L15.5685 11.8764C15.4589 12.1906 15.6263 12.5368 15.9397 12.6464Z" fill="#F5FEFF"/>
<path d="M19.6065 13.9272L21.1621 14.4702C21.4763 14.5798 21.8225 14.4132 21.9321 14.099L22.4518 12.6125C22.5615 12.2982 22.394 11.9521 22.0806 11.8424L20.525 11.2994C20.2108 11.1898 19.8646 11.3573 19.755 11.6706L19.2353 13.1572C19.1257 13.4714 19.2931 13.8176 19.6065 13.9272Z" fill="#F5FEFF"/>
<path d="M23.2737 15.2088L24.8293 15.7518C25.1435 15.8614 25.4897 15.6948 25.5993 15.3806L26.119 13.894C26.2286 13.5798 26.0612 13.2336 25.7478 13.124L24.1922 12.581C23.878 12.4714 23.5318 12.6388 23.4222 12.9522L22.9025 14.4387C22.7929 14.753 22.9603 15.0991 23.2737 15.2088Z" fill="#F5FEFF"/>
<path d="M26.942 16.4896L28.4976 17.0325C28.811 17.1422 29.1572 16.9756 29.2668 16.6613L29.7874 15.1748C29.897 14.8606 29.7295 14.5144 29.4161 14.4048L27.8605 13.8618C27.5463 13.7521 27.2002 13.9196 27.0905 14.233L26.5708 15.7195C26.4612 16.0338 26.6287 16.3799 26.942 16.4896Z" fill="#F5FEFF"/>
<path d="M14.6774 16.2591L16.233 16.8021C16.5463 16.9117 16.8934 16.7451 17.003 16.4317L17.5227 14.9452C17.6323 14.6309 17.4648 14.2848 17.1515 14.1751L15.5959 13.6313C15.2816 13.5217 14.9355 13.6891 14.8258 14.0025L14.3062 15.489C14.1965 15.8033 14.364 16.1494 14.6774 16.2591Z" fill="#F5FEFF"/>
<path d="M18.3449 17.5402L19.9005 18.0832C20.2139 18.1929 20.5609 18.0263 20.6706 17.712L21.1902 16.2255C21.2999 15.9113 21.1324 15.5651 20.819 15.4555L19.2634 14.9125C18.9492 14.8028 18.603 14.9703 18.4934 15.2837L17.9737 16.7702C17.8641 17.0844 18.0316 17.4306 18.3449 17.5402Z" fill="#F5FEFF"/>
<path d="M22.0117 18.8203L23.5673 19.3641C23.8816 19.4737 24.2277 19.3071 24.3374 18.992L24.857 17.5055C24.9667 17.1913 24.7992 16.8451 24.4858 16.7355L22.9302 16.1925C22.616 16.0828 22.2698 16.2503 22.1602 16.5637L21.6405 18.0502C21.5309 18.3644 21.6984 18.7106 22.0117 18.8203Z" fill="#F5FEFF"/>
<path d="M25.6789 20.103L27.2345 20.646C27.5487 20.7556 27.8949 20.5881 28.0046 20.2747L28.5242 18.7882C28.6339 18.474 28.4664 18.1278 28.153 18.0182L26.5974 17.4752C26.2832 17.3656 25.937 17.533 25.8274 17.8464L25.3077 19.3329C25.1981 19.6472 25.3656 19.9933 25.6789 20.103Z" fill="#F5FEFF"/>
<path d="M13.4154 19.8725L14.971 20.4155C15.2844 20.5251 15.6305 20.3576 15.741 20.0443L16.2607 18.5577C16.3703 18.2435 16.2029 17.8973 15.8895 17.7877L14.3339 17.2447C14.0197 17.1351 13.6735 17.3025 13.5639 17.6159L13.0442 19.1024C12.9346 19.4167 13.102 19.7628 13.4154 19.8725Z" fill="#F5FEFF"/>
<path d="M17.0826 21.1529L18.6382 21.6967C18.9515 21.8064 19.2986 21.6389 19.4082 21.3255L19.9279 19.839C20.0375 19.5248 19.8701 19.1786 19.5567 19.069L18.0011 18.5251C17.6869 18.4155 17.3407 18.5829 17.2311 18.8963L16.7114 20.3828C16.6017 20.6971 16.7692 21.0432 17.0826 21.1529Z" fill="#F5FEFF"/>
<path d="M20.7494 22.434L22.305 22.9779C22.6192 23.0875 22.9654 22.9201 23.075 22.6058L23.5947 21.1193C23.7043 20.8051 23.5369 20.4589 23.2235 20.3493L21.6679 19.8063C21.3537 19.6966 21.0075 19.8641 20.8979 20.1775L20.3782 21.664C20.2685 21.9782 20.436 22.3244 20.7494 22.434Z" fill="#F5FEFF"/>
<path d="M24.4166 23.716L25.9722 24.259C26.2864 24.3686 26.6326 24.2011 26.7422 23.8878L27.2619 22.4012C27.3715 22.087 27.204 21.7408 26.8907 21.6312L25.3351 21.0882C25.0209 20.9786 24.6747 21.146 24.5651 21.4594L24.0454 22.946C23.9357 23.2602 24.1032 23.6063 24.4166 23.716Z" fill="#F5FEFF"/>
<path d="M12.1438 23.5108L13.6994 24.0547C14.0128 24.1643 14.359 23.9977 14.4695 23.6835L14.9891 22.197C15.0988 21.8827 14.9313 21.5366 14.6179 21.4269L13.0623 20.8831C12.7481 20.7734 12.4019 20.9409 12.2923 21.2543L11.7726 22.7408C11.663 23.055 11.8305 23.4012 12.1438 23.5108Z" fill="#F5FEFF"/>
<path d="M15.811 24.7924L17.3666 25.3363C17.68 25.4459 18.027 25.2793 18.1366 24.9651L18.6563 23.4785C18.766 23.1643 18.5985 22.8181 18.2851 22.7085L16.7295 22.1646C16.4153 22.055 16.0691 22.2225 15.9595 22.5358L15.4398 24.0224C15.3302 24.3366 15.4977 24.6828 15.811 24.7924Z" fill="#F5FEFF"/>
<path d="M19.4778 26.0743L21.0334 26.6182C21.3476 26.727 21.6938 26.5604 21.8034 26.247L22.3231 24.7605C22.4328 24.4462 22.2653 24.1001 21.9519 23.9904L20.3963 23.4466C20.0821 23.3369 19.7359 23.5044 19.6263 23.8178L19.1066 25.3043C18.997 25.6185 19.1645 25.9647 19.4778 26.0743Z" fill="#F5FEFF"/>
<path d="M23.145 27.3563L24.7006 27.8993C25.0148 28.0089 25.361 27.8414 25.4706 27.5289L25.9903 26.0424C26.1 25.7282 25.9325 25.382 25.6191 25.2724L24.0635 24.7285C23.7493 24.6189 23.4031 24.7863 23.2935 25.0997L22.7738 26.5862C22.6642 26.9005 22.8316 27.2466 23.145 27.3563Z" fill="#F5FEFF"/>
<circle cx="25.9997" cy="21.9997" r="7.9997" fill="#2465CE"/>
<path d="M30.7995 15.6003C32.7423 17.0597 33.9995 19.3828 33.9997 21.9998C33.9997 26.4179 30.4178 29.9998 25.9997 29.9998C23.3823 29.9997 21.0587 28.7428 19.5993 26.7996C20.9364 27.8042 22.5988 28.4001 24.4001 28.4001C28.818 28.4 32.399 24.8181 32.3991 20.4001C32.3991 18.5991 31.8038 16.9374 30.7995 15.6003Z" fill="black" fill-opacity="0.16"/>
<path d="M30.0985 23.8161C31.396 21.5304 30.5949 18.6256 28.3092 17.3281C26.0235 16.0306 23.1187 16.8316 21.8211 19.1174C20.5236 21.4031 21.3247 24.3079 23.6104 25.6054C25.8961 26.903 28.8009 26.1019 30.0985 23.8161Z" fill="white"/>
<path d="M25.3345 22.8604L26.004 23.0814C26.541 23.2588 26.8545 23.223 26.9903 22.8116C27.1262 22.4001 26.8957 22.1848 26.3587 22.0074L25.6892 21.7864C25.1522 21.609 24.8387 21.6448 24.7029 22.0562C24.567 22.4677 24.7975 22.683 25.3345 22.8604ZM26.8315 20.0134L26.4828 19.8983C25.9458 19.7209 25.6323 19.7567 25.508 20.1333C25.3836 20.5099 25.6142 20.7252 26.1512 20.9025L26.4999 21.0177C27.0369 21.195 27.3503 21.1593 27.4747 20.7827C27.599 20.4061 27.3685 20.1907 26.8315 20.0134ZM26.6611 18.8898L27.3027 19.1017C28.3139 19.4356 29.0892 20.1092 28.7461 21.1484C28.631 21.4971 28.4226 21.7299 27.9887 21.896C28.3684 22.2921 28.4232 22.782 28.2712 23.2423C27.9419 24.2395 26.9276 24.4538 25.8327 24.0922L24.8703 23.7744C23.7754 23.4129 23.088 22.6368 23.4173 21.6395C23.5693 21.1792 23.9051 20.8183 24.446 20.7262C24.1963 20.3344 24.1676 20.0232 24.2827 19.6745C24.6259 18.6354 25.6499 18.5559 26.6611 18.8898Z" fill="#444444"/>
<path d="M22.3955 14.8572C24.6098 16.8694 26 19.773 26 23.0007C25.9999 25.5108 25.1565 27.8225 23.7412 29.6736C20.4232 28.6987 18.0001 25.6332 18 21.9998C18 18.8784 19.7882 16.1755 22.3955 14.8572Z" fill="black" fill-opacity="0.16"/>
<circle cx="13" cy="23" r="11" fill="#FF4343"/>
<path d="M19.5999 14.1995C22.2716 16.2063 24.0003 19.4015 24.0003 23.0002C24.0001 29.0751 19.0752 34.0001 13.0003 34.0002C9.40157 34.0002 6.20639 32.2716 4.19953 29.5999C6.03811 30.9811 8.32347 31.8 10.8001 31.8C16.8751 31.8 21.8 26.8751 21.8001 20.8C21.8001 18.3234 20.9812 16.038 19.5999 14.1995Z" fill="black" fill-opacity="0.16"/>
<path d="M18.6836 23.5501C19.3923 20.0062 17.0939 16.5588 13.55 15.85C10.0061 15.1413 6.55864 17.4397 5.84993 20.9836C5.14122 24.5276 7.43961 27.975 10.9835 28.6837C14.5274 29.3924 17.9749 27.094 18.6836 23.5501Z" fill="white"/>
<path d="M13.55 24.2137C13.55 24.7717 13.4501 25.1714 13.2503 25.4125C13.0505 25.6468 12.7473 25.7639 12.3408 25.7639C12.0721 25.7639 11.8551 25.7226 11.6897 25.6399C11.5243 25.5572 11.3969 25.4056 11.3073 25.1851C11.2246 24.9647 11.1798 24.6684 11.1729 24.2963L11.1523 20.4414C10.8216 20.4414 10.5494 20.3828 10.3358 20.2657C10.1222 20.1417 10.0154 19.9384 10.0154 19.6559C10.0154 19.4286 10.1119 19.2425 10.3048 19.0979C10.5046 18.9463 10.7802 18.8705 11.1316 18.8705C11.2694 18.8705 11.4623 18.8739 11.7104 18.8808C11.9653 18.8808 12.1444 18.8808 12.2478 18.8808C12.7576 18.8808 13.0987 18.9669 13.2709 19.1392C13.4501 19.3046 13.5397 19.5974 13.5397 20.0177L13.55 24.2137Z" fill="#444444"/>
</svg>
