<svg width="40" height="40" viewBox="0 0 40 40" fill="none" xmlns="http://www.w3.org/2000/svg">
<g clip-path="url(#clip0_1_3457)">
<path d="M39.2129 11.449V11.449C40.2624 17.0781 40.2624 22.8026 39.2129 28.5271V28.5271C38.2588 33.9654 33.9654 38.2588 28.5271 39.2129V39.2129C22.898 40.2624 17.1735 40.2624 11.449 39.2129V39.2129C6.01073 38.2588 1.81276 34.0608 0.858676 28.6225V28.6225C-0.286225 22.9934 -0.286225 17.1735 0.858676 11.449V11.449C1.81276 6.01073 6.01073 1.81276 11.449 0.858676V0.858676C17.0781 -0.286225 22.898 -0.286225 28.6225 0.858676V0.858676C34.0608 1.81276 38.2588 6.01073 39.2129 11.449Z" fill="white"/>
<path fill-rule="evenodd" clip-rule="evenodd" d="M38.2293 28.3468C39.2571 22.7405 39.2565 17.1393 38.2298 11.6323L39.2129 11.449C40.2624 17.0781 40.2624 22.8026 39.2129 28.5271L38.2293 28.3468ZM28.5271 39.2129C33.9654 38.2588 38.2588 33.9654 39.2129 28.5271L38.2279 28.3543C37.3466 33.3779 33.3779 37.3466 28.3543 38.2279L28.5271 39.2129ZM11.449 39.2129C17.1735 40.2624 22.898 40.2624 28.5271 39.2129L28.3438 38.2298C22.8369 39.2565 17.2356 39.2571 11.6293 38.2293L11.449 39.2129ZM28.6225 0.858676L28.4497 1.84363C33.4733 2.72496 37.3466 6.59823 38.2279 11.6218L39.2129 11.449C38.2588 6.01073 34.0608 1.81276 28.6225 0.858676ZM11.449 0.858676C17.0781 -0.286225 22.898 -0.286225 28.6225 0.858676L28.4264 1.83926C22.8303 0.720026 17.1448 0.720683 11.6483 1.83861L11.449 0.858676ZM0.858676 11.449C1.81276 6.01073 6.01073 1.81276 11.449 0.858676L11.6218 1.84363C6.59823 2.72496 2.72496 6.59823 1.84363 11.6218L0.858676 11.449ZM0.858676 11.449L1.83926 11.6451C0.720026 17.2413 0.720683 22.9267 1.83861 28.4232L0.858676 28.6225C-0.286225 22.9934 -0.286225 17.1735 0.858676 11.449ZM0.858676 28.6225C1.81276 34.0608 6.01073 38.2588 11.449 39.2129L11.6218 38.2279C6.59823 37.3466 2.72496 33.4733 1.84363 28.4497L0.858676 28.6225Z" fill="#EEF4FE"/>
<path d="M12.1021 17.7609C12.2074 18.7921 13.0403 19.6253 14.071 19.7353C14.6778 19.8001 15.2987 19.8518 15.9305 19.8518C16.5622 19.8518 17.1831 19.8001 17.79 19.7353C18.8206 19.6253 19.6535 18.7921 19.7588 17.7609C19.8204 17.158 19.8689 16.541 19.8689 15.9134C19.8689 15.2857 19.8204 14.6688 19.7588 14.0659C19.6535 13.0347 18.8206 12.2015 17.79 12.0915C17.1831 12.0267 16.5622 11.975 15.9305 11.975C15.2987 11.975 14.6778 12.0267 14.071 12.0915C13.0403 12.2015 12.2074 13.0347 12.1021 14.0659C12.0405 14.6688 11.9921 15.2857 11.9921 15.9134C11.9921 16.541 12.0405 17.158 12.1021 17.7609Z" fill="#00CF6A"/>
<path d="M13.4527 6.00584C14.0018 5.94669 14.4949 6.34388 14.554 6.89298C14.6132 7.44209 14.216 7.93518 13.6669 7.99433C12.9267 8.07406 12.1924 8.1592 11.4602 8.24409L11.3093 8.26158C9.71038 8.4469 8.43344 9.7252 8.25433 11.3206C8.16716 12.097 8.07981 12.8763 7.9987 13.662C7.94197 14.2113 7.45064 14.6107 6.90128 14.554C6.35192 14.4973 5.95255 14.0059 6.00927 13.4566C6.09144 12.6607 6.17976 11.8728 6.26681 11.0974C6.55027 8.57263 8.55952 6.56689 11.079 6.27488L11.2316 6.25719C11.9621 6.1725 12.7041 6.08647 13.4527 6.00584Z" fill="#0033C9"/>
<path d="M26.5713 6.00584C26.0222 5.94669 25.5291 6.34388 25.47 6.89298C25.4108 7.44209 25.808 7.93518 26.3571 7.99433C27.0972 8.07405 27.8314 8.15917 28.5634 8.24405L28.7147 8.26158C30.3136 8.4469 31.5906 9.7252 31.7697 11.3206C31.8568 12.097 31.9442 12.8763 32.0253 13.662C32.082 14.2113 32.5734 14.6107 33.1227 14.554C33.6721 14.4973 34.0715 14.0059 34.0147 13.4566C33.9326 12.6607 33.8442 11.8728 33.7572 11.0974C33.4737 8.57263 31.4645 6.56689 28.945 6.27488L28.7924 6.25719C28.0619 6.1725 27.3199 6.08647 26.5713 6.00584Z" fill="#0033C9"/>
<path fill-rule="evenodd" clip-rule="evenodd" d="M15.9299 10.975C15.2459 10.975 14.5844 11.0309 13.9643 11.0971C12.4657 11.257 11.2602 12.4608 11.1067 13.9642C11.0437 14.5809 10.9915 15.2363 10.9915 15.9134C10.9915 16.5904 11.0437 17.2458 11.1067 17.8625C11.2602 19.366 12.4657 20.5697 13.9643 20.7296C14.5844 20.7958 15.2459 20.8518 15.9299 20.8518C16.6139 20.8518 17.2754 20.7958 17.8955 20.7296C19.394 20.5697 20.5996 19.366 20.7531 17.8625C20.816 17.2458 20.8683 16.5904 20.8683 15.9134C20.8683 15.2363 20.816 14.5809 20.7531 13.9642C20.5996 12.4608 19.394 11.257 17.8955 11.0971C17.2754 11.0309 16.6139 10.975 15.9299 10.975ZM14.1765 13.0858C14.7701 13.0225 15.3504 12.975 15.9299 12.975C16.5094 12.975 17.0897 13.0225 17.6833 13.0858C18.246 13.1459 18.7064 13.6086 18.7634 14.1674C18.8236 14.7567 18.8683 15.3351 18.8683 15.9134C18.8683 16.4916 18.8236 17.07 18.7634 17.6593C18.7064 18.2181 18.246 18.6809 17.6833 18.7409C17.0897 18.8043 16.5094 18.8518 15.9299 18.8518C15.3504 18.8518 14.7701 18.8043 14.1765 18.7409C13.6137 18.6809 13.1534 18.2181 13.0964 17.6593C13.0362 17.07 12.9915 16.4916 12.9915 15.9134C12.9915 15.3351 13.0362 14.7567 13.0964 14.1674C13.1534 13.6086 13.6137 13.1459 14.1765 13.0858Z" fill="#0033C9"/>
<path d="M25.47 33.1071C25.5291 33.6562 26.0222 34.0534 26.5713 33.9943C27.3196 33.9137 28.0613 33.8277 28.7915 33.743L28.945 33.7252C31.4645 33.4332 33.4737 31.4275 33.7572 28.9027C33.8442 28.1273 33.9326 27.3394 34.0147 26.5436C34.0715 25.9942 33.6721 25.5029 33.1227 25.4461C32.5734 25.3894 32.082 25.7888 32.0253 26.3382C31.9442 27.1238 31.8568 27.9031 31.7697 28.6796C31.5906 30.2749 30.3136 31.5532 28.7147 31.7385L28.5638 31.756L28.5627 31.7561C27.8311 31.841 27.0968 31.9261 26.3571 32.0058C25.808 32.0649 25.4108 32.558 25.47 33.1071Z" fill="#0033C9"/>
<path d="M14.554 33.1071C14.4949 33.6562 14.0018 34.0534 13.4527 33.9943C12.7042 33.9137 11.9623 33.8276 11.2318 33.743L11.079 33.7252C8.55952 33.4332 6.55027 31.4275 6.26681 28.9027C6.17976 28.1273 6.09144 27.3394 6.00927 26.5436C5.95255 25.9942 6.35192 25.5029 6.90128 25.4461C7.45064 25.3894 7.94197 25.7888 7.9987 26.3382C8.07981 27.1238 8.16716 27.9031 8.25433 28.6796C8.43344 30.2749 9.71038 31.5532 11.3093 31.7385L11.4602 31.756L11.4613 31.7561C12.1931 31.841 12.9271 31.9261 13.6669 32.0058C14.216 32.0649 14.6132 32.558 14.554 33.1071Z" fill="#0033C9"/>
<path d="M13.7122 24.7504C13.7122 24.1981 13.2645 23.7504 12.7122 23.7504C12.1599 23.7504 11.7122 24.1981 11.7122 24.7504L11.7122 28.0299C11.7122 28.5822 12.1599 29.0299 12.7122 29.0299H15.9314C16.4837 29.0299 16.9314 28.5822 16.9314 28.0299C16.9314 27.4777 16.4837 27.0299 15.9314 27.0299L13.7122 27.0299L13.7122 24.7504Z" fill="#0033C9"/>
<path d="M27.9446 29.0299C27.3923 29.0299 26.9446 28.5822 26.9446 28.0299V25.7503L24.7254 25.7503C24.1731 25.7503 23.7254 25.3026 23.7254 24.7503C23.7254 24.198 24.1731 23.7503 24.7254 23.7503H27.9446C28.4969 23.7503 28.9446 24.198 28.9446 24.7503V28.0299C28.9446 28.5822 28.4969 29.0299 27.9446 29.0299Z" fill="#0033C9"/>
<path d="M28.0032 20.9515C28.5555 20.9515 29.0032 20.5038 29.0032 19.9515C29.0032 19.3993 28.5555 18.9515 28.0032 18.9515H24.784C24.2317 18.9515 23.784 19.3993 23.784 19.9515C23.784 20.5038 24.2317 20.9515 24.784 20.9515H28.0032Z" fill="#0033C9"/>
<path d="M19.8665 28.9998C19.3142 28.9998 18.8665 28.552 18.8665 27.9998V24.7805C18.8665 24.2282 19.3142 23.7805 19.8665 23.7805C20.4188 23.7805 20.8665 24.2282 20.8665 24.7805V27.9998C20.8665 28.552 20.4188 28.9998 19.8665 28.9998Z" fill="#0033C9"/>
<path d="M26.9446 15.9133C26.9446 16.4656 27.3923 16.9133 27.9446 16.9133C28.4969 16.9133 28.9446 16.4656 28.9446 15.9133V12.6338C28.9446 12.0815 28.4969 11.6338 27.9446 11.6338L24.7254 11.6338C24.1731 11.6338 23.7254 12.0815 23.7254 12.6338C23.7254 13.186 24.1731 13.6338 24.7254 13.6338H26.9446V15.9133Z" fill="#0033C9"/>
</g>
<defs>
<clipPath id="clip0_1_3457">
<rect width="40" height="40" fill="white"/>
</clipPath>
</defs>
</svg>
