<svg width="40" height="40" viewBox="0 0 40 40" fill="none" xmlns="http://www.w3.org/2000/svg">
<g clip-path="url(#clip0_1_3644)">
<path d="M39.2129 11.449V11.449C40.2624 17.0781 40.2624 22.8026 39.2129 28.5271V28.5271C38.2588 33.9654 33.9654 38.2588 28.5271 39.2129V39.2129C22.898 40.2624 17.1735 40.2624 11.449 39.2129V39.2129C6.01073 38.2588 1.81276 34.0608 0.858676 28.6225V28.6225C-0.286225 22.9934 -0.286225 17.1735 0.858676 11.449V11.449C1.81276 6.01073 6.01073 1.81276 11.449 0.858676V0.858676C17.0781 -0.286225 22.898 -0.286225 28.6225 0.858676V0.858676C34.0608 1.81276 38.2588 6.01073 39.2129 11.449Z" fill="white"/>
<path fill-rule="evenodd" clip-rule="evenodd" d="M38.2293 28.3468C39.2571 22.7405 39.2565 17.1393 38.2298 11.6323L39.2129 11.449C40.2624 17.0781 40.2624 22.8026 39.2129 28.5271L38.2293 28.3468ZM28.5271 39.2129C33.9654 38.2588 38.2588 33.9654 39.2129 28.5271L38.2279 28.3543C37.3466 33.3779 33.3779 37.3466 28.3543 38.2279L28.5271 39.2129ZM11.449 39.2129C17.1735 40.2624 22.898 40.2624 28.5271 39.2129L28.3438 38.2298C22.8369 39.2565 17.2356 39.2571 11.6293 38.2293L11.449 39.2129ZM28.6225 0.858676L28.4497 1.84363C33.4733 2.72496 37.3466 6.59823 38.2279 11.6218L39.2129 11.449C38.2588 6.01073 34.0608 1.81276 28.6225 0.858676ZM11.449 0.858676C17.0781 -0.286225 22.898 -0.286225 28.6225 0.858676L28.4264 1.83926C22.8303 0.720026 17.1448 0.720683 11.6483 1.83861L11.449 0.858676ZM0.858676 11.449C1.81276 6.01073 6.01073 1.81276 11.449 0.858676L11.6218 1.84363C6.59823 2.72496 2.72496 6.59823 1.84363 11.6218L0.858676 11.449ZM0.858676 11.449L1.83926 11.6451C0.720026 17.2413 0.720683 22.9267 1.83861 28.4232L0.858676 28.6225C-0.286225 22.9934 -0.286225 17.1735 0.858676 11.449ZM0.858676 28.6225C1.81276 34.0608 6.01073 38.2588 11.449 39.2129L11.6218 38.2279C6.59823 37.3466 2.72496 33.4733 1.84363 28.4497L0.858676 28.6225Z" fill="#EEF4FE"/>
<path d="M17.5996 27C17.0473 27 16.5996 27.4477 16.5996 28C16.5996 28.5523 17.0473 29 17.5996 29H21.7996C22.3519 29 22.7996 28.5523 22.7996 28C22.7996 27.4477 22.3519 27 21.7996 27H17.5996Z" fill="#0033C9"/>
<path fill-rule="evenodd" clip-rule="evenodd" d="M10.2097 31.0237C10.314 32.3818 11.3521 33.4946 12.7073 33.6314C17.5782 34.1229 22.021 34.1229 26.8919 33.6314C28.2471 33.4946 29.2852 32.3818 29.3895 31.0237C29.4266 30.5413 29.4649 30.056 29.5034 29.5678C29.747 26.4806 29.9996 23.28 29.9996 20C29.9996 16.72 29.747 13.5196 29.5034 10.4324C29.4649 9.94421 29.4266 9.45864 29.3895 8.97627C29.2852 7.61818 28.2471 6.50537 26.8919 6.36862C22.021 5.87713 17.5782 5.87713 12.7073 6.36862C11.3521 6.50537 10.314 7.61818 10.2097 8.97627C10.1727 9.45867 10.1344 9.94404 10.0958 10.4322C9.85218 13.5195 9.59961 16.72 9.59961 20C9.59961 23.28 9.85218 26.4805 10.0958 29.5677C10.1344 30.0559 10.1727 30.5414 10.2097 31.0237ZM27.9996 20C27.9996 23.1949 27.754 26.3095 27.5103 29.401C27.4716 29.8914 27.433 30.3812 27.3954 30.8706C27.3616 31.3102 27.0363 31.6067 26.6911 31.6415C21.9537 32.1195 17.6455 32.1195 12.9081 31.6415C12.5629 31.6067 12.2376 31.3101 12.2038 30.8706C12.1663 30.3812 12.1276 29.8914 12.089 29.401C11.8452 26.3095 11.5996 23.1949 11.5996 20C11.5996 16.8051 11.8452 13.6905 12.089 10.599C12.1276 10.1086 12.1663 9.61883 12.2038 9.12941C12.2376 8.68985 12.5629 8.39335 12.9081 8.35852C17.6455 7.88049 21.9537 7.88049 26.6911 8.35852C27.0363 8.39335 27.3616 8.68985 27.3954 9.12941C27.433 9.61884 27.4716 10.1086 27.5103 10.599C27.754 13.6905 27.9996 16.8051 27.9996 20Z" fill="#0033C9"/>
<path d="M17.5434 16.6531C18.3199 16.3544 19.1545 16.2 19.9988 16.2C20.8432 16.2 21.6777 16.3544 22.4542 16.6531C23.2306 16.9517 23.9314 17.3877 24.5183 17.9327C24.923 18.3085 25.5558 18.2851 25.9316 17.8804C26.3074 17.4758 26.284 16.843 25.8793 16.4672C25.1007 15.7441 24.1802 15.1741 23.1722 14.7864C22.1642 14.3987 21.0861 14.2 19.9988 14.2C18.9116 14.2 17.8335 14.3987 16.8255 14.7864C15.8174 15.1741 14.8969 15.7441 14.1183 16.4672C13.7136 16.843 13.6903 17.4758 14.0661 17.8804C14.4419 18.2851 15.0746 18.3085 15.4793 17.9327C16.0662 17.3877 16.767 16.9517 17.5434 16.6531Z" fill="#00CF6A"/>
<path d="M19.9277 19.7646C19.4492 19.7646 18.9755 19.8592 18.5338 20.0429C18.0921 20.2266 17.691 20.4959 17.3537 20.8351C16.9643 21.2268 16.3311 21.2286 15.9395 20.8393C15.5478 20.4499 15.546 19.8167 15.9354 19.4251C16.4585 18.8988 17.0806 18.4812 17.7657 18.1963C18.4509 17.9113 19.1856 17.7646 19.9277 17.7646C20.6697 17.7646 21.4044 17.9113 22.0896 18.1963C22.7747 18.4812 23.3968 18.8988 23.9199 19.4251C24.3093 19.8167 24.3075 20.4499 23.9158 20.8393C23.5242 21.2286 22.891 21.2268 22.5016 20.8351C22.1643 20.4959 21.7633 20.2266 21.3215 20.0429C20.8798 19.8592 20.4061 19.7646 19.9277 19.7646Z" fill="#00CF6A"/>
<path d="M18.9291 21.783C18.8066 21.8347 18.6885 21.8955 18.5758 21.9647C18.2662 22.155 18.2642 22.5778 18.5108 22.8448L19.4454 23.8565C19.7159 24.1494 20.1787 24.1494 20.4493 23.8565L21.3839 22.8448C21.6304 22.5778 21.6284 22.155 21.3189 21.9647C21.2061 21.8955 21.0881 21.8347 20.9656 21.783C20.6433 21.647 20.2971 21.577 19.9473 21.577C19.5976 21.577 19.2513 21.647 18.9291 21.783Z" fill="#00CF6A"/>
</g>
<defs>
<clipPath id="clip0_1_3644">
<rect width="40" height="40" fill="white"/>
</clipPath>
</defs>
</svg>
