<svg width="40" height="40" viewBox="0 0 40 40" fill="none" xmlns="http://www.w3.org/2000/svg">
<g clip-path="url(#clip0_1_6266)">
<path d="M11.5488 1.34863C17.1115 0.217257 22.8642 0.216603 28.5244 1.34863L28.6221 0.858398L28.5361 1.35156C33.767 2.26928 37.8029 6.30434 38.7207 11.5352L39.2129 11.4492L38.7217 11.541C39.7597 17.1088 39.7593 22.7714 38.7207 28.4365L39.2129 28.5273L38.7207 28.4404C37.803 33.6714 33.6714 37.803 28.4404 38.7207L28.5205 39.1758L28.4355 38.7217C22.8675 39.7598 17.2045 39.7594 11.5391 38.7207L11.4668 39.1143L11.5352 38.7207C6.30434 37.8029 2.26928 33.767 1.35156 28.5361L0.858398 28.6221L1.34863 28.5225C0.217301 22.9598 0.216595 17.2071 1.34863 11.5469L0.858398 11.4492L1.35156 11.5352C2.26936 6.30449 6.30449 2.26936 11.5352 1.35156L11.4492 0.858398L11.5488 1.34863Z" fill="white" stroke="#F2F6F7"/>
<path d="M10.501 15.0166C10.4768 13.5239 10.7806 12.0385 11.3955 10.6758C12.1586 8.98454 13.3714 7.54848 14.8975 6.541C16.4239 5.53328 18.199 4.99728 20.0137 4.99999C21.8285 5.00277 23.6023 5.54421 25.126 6.55663C26.6491 7.56874 27.8578 9.0086 28.6162 10.7021C29.2233 12.0579 29.523 13.5338 29.499 15.0166C29.4899 15.5686 29.0345 16.0089 28.4824 16C27.9303 15.991 27.4901 15.5355 27.499 14.9834C27.5183 13.7902 27.2771 12.6052 26.791 11.5195C26.1836 10.1631 25.2198 9.0208 24.0185 8.22264C22.8179 7.42489 21.4277 7.00216 20.0107 6.99999C18.5939 6.99786 17.2028 7.41602 16 8.20995C14.7967 9.00433 13.83 10.1436 13.2187 11.498C12.7263 12.5893 12.4816 13.7822 12.501 14.9834C12.5099 15.5355 12.0697 15.991 11.5176 16C10.9655 16.0089 10.5101 15.5686 10.501 15.0166Z" fill="#00CF6A"/>
<path d="M20.0004 9.25C20.4144 9.25018 20.7504 9.5859 20.7504 10V10.1787C21.1199 10.252 21.4298 10.3903 21.6683 10.5312C21.8648 10.6474 22.0187 10.7675 22.1254 10.8613C22.1789 10.9084 22.222 10.9497 22.2533 10.9814C22.2689 10.9973 22.2813 11.0116 22.2914 11.0225C22.2964 11.0278 22.3014 11.0321 22.3051 11.0361C22.3068 11.0381 22.3085 11.0404 22.3099 11.042L22.3129 11.0449V11.0459C22.3091 11.0496 22.2647 11.0889 21.764 11.5273L22.3138 11.0459C22.5867 11.3575 22.5551 11.8316 22.2435 12.1045C21.9514 12.3602 21.5167 12.349 21.2386 12.0898L21.1849 12.0352C21.1761 12.0262 21.1587 12.0089 21.1342 11.9873C21.0841 11.9433 21.0065 11.8819 20.9056 11.8223C20.7034 11.7027 20.4275 11.6002 20.0902 11.6299C19.7045 11.6639 19.4838 11.795 19.3656 11.9141C19.2463 12.0344 19.1927 12.1797 19.1927 12.3223C19.1928 12.4592 19.2211 12.517 19.2328 12.5371C19.2446 12.5573 19.2688 12.5887 19.3363 12.6279C19.5121 12.7299 19.7825 12.7889 20.2357 12.875C20.6133 12.9467 21.1723 13.0448 21.6195 13.3135C21.8624 13.4595 22.0942 13.6657 22.2601 13.958C22.4258 14.25 22.4994 14.5819 22.4994 14.9385C22.4994 15.4791 22.2128 15.9107 21.8773 16.2012C21.5647 16.4716 21.1677 16.6612 20.7504 16.7686V17C20.7504 17.4141 20.4144 17.7498 20.0004 17.75C19.5862 17.75 19.2504 17.4142 19.2504 17V16.8076C18.7208 16.7012 18.1916 16.4604 17.7377 16.0361C17.4353 15.7534 17.4191 15.2791 17.7015 14.9766C17.9843 14.6741 18.4585 14.6579 18.7611 14.9404C19.197 15.3479 19.8027 15.4466 20.3246 15.3291C20.5838 15.2707 20.7803 15.1673 20.8959 15.0674C20.9762 14.9979 20.9955 14.9527 20.9994 14.9385C20.9994 14.7917 20.9706 14.725 20.9554 14.6982C20.9406 14.6721 20.9128 14.6397 20.8461 14.5996C20.6734 14.4959 20.405 14.4338 19.9564 14.3486C19.5837 14.2779 19.0273 14.1825 18.5834 13.9248C18.3414 13.7842 18.1068 13.5829 17.9379 13.2939C17.7689 13.0047 17.6928 12.6755 17.6927 12.3223C17.6927 11.4097 18.2738 10.6107 19.2504 10.2822V10C19.2504 9.58579 19.5862 9.25 20.0004 9.25Z" fill="#00CF6A"/>
<path d="M31.7027 17.6663C31.7571 17.6684 31.8882 17.6737 32.0406 17.7161L32.1988 17.7718L32.2965 17.8206C32.6327 18.011 32.7555 18.3226 32.7975 18.4778L32.817 18.5716L33.0094 19.596C33.1934 20.547 33.3642 21.3045 33.6119 22.0755C33.9395 23.0951 34.4116 24.1681 35.2594 25.7337C35.3522 25.9052 35.4385 26.1778 35.3609 26.4974C35.2852 26.8089 35.0926 27.0021 34.9586 27.1018C34.8376 27.1919 34.7195 27.2403 34.6441 27.2669C34.6356 27.2732 34.63 27.2794 34.6256 27.2825C34.6148 27.2901 34.6051 27.2968 34.6002 27.3001C34.5981 27.3015 34.5964 27.3023 34.5953 27.303L34.5914 27.305L34.5924 27.306H34.5904L32.7203 28.6927L32.7164 28.6956C32.6941 28.712 32.5304 28.8392 32.3297 28.9163C32.2438 28.9493 32.1001 28.9914 31.9205 28.9935C31.8149 29.0071 31.7218 29.0135 31.6627 29.0052C31.5729 28.9804 31.4348 28.9243 31.3854 28.8977C31.3615 28.8835 31.3272 28.8591 31.3023 28.8421L28.1178 30.8665C28.2279 31.3354 28.1173 31.7657 27.9361 32.1048C27.6007 32.7323 26.9341 33.2287 26.3229 33.6009C25.0338 34.3855 23.2274 35.0608 21.9801 35.4446L21.9547 35.4524L21.9293 35.4593C21.077 35.6724 20.269 35.9166 19.4625 35.9817C18.5886 36.0523 17.7224 35.9229 16.6109 35.5061C15.4108 35.0561 14.4587 34.2198 13.7301 33.3099C12.2865 31.5069 10.5907 29.921 8.69492 28.6018L8.60703 28.5403C8.59602 28.5545 8.58589 28.57 8.57481 28.5843L8.56992 28.5901C8.20815 29.0487 7.47714 29.2527 6.89903 28.8284L4.83946 27.3157C4.28826 26.9108 4.25 26.2052 4.53867 25.7356L4.55821 25.7054C6.05504 22.9356 6.57856 21.7144 7.87852 18.4524L7.90098 18.3977L7.9293 18.345C8.17454 17.8945 8.7013 17.6189 9.24082 17.7268L9.34824 17.7532L11.8834 18.5042C12.5221 18.6935 12.8483 19.3461 12.6871 19.9446L14.9391 19.7278L16.5973 19.5218C18.6036 19.2717 19.7916 21.7015 18.3619 23.1311L16.3746 25.1184C15.6784 25.8147 15.6369 26.4492 15.9088 26.8362C16.1129 27.1268 16.3463 27.4092 16.5768 27.6458C16.7854 27.8601 17.0698 27.9957 17.3297 28.0257C17.5777 28.0542 17.7463 27.9855 17.857 27.8724C18.0429 27.6824 18.1509 27.5 18.4215 27.1409C18.6529 26.8339 18.9887 26.4296 19.5045 26.1585C19.9697 25.914 20.5059 25.7332 21.0797 25.7415C21.6514 25.7498 22.194 25.9473 22.6676 26.3362L26.7828 29.345L30.1363 27.2132C29.0916 25.4447 28.4804 23.6021 27.9879 21.7454L23.8639 20.3538C23.3408 20.177 23.0603 19.6094 23.2369 19.0862C23.4136 18.5632 23.9804 18.2828 24.5035 18.4593L27.4977 19.469C27.5349 19.0054 27.8424 18.5789 28.3385 18.4319L28.3678 18.4241L30.9156 17.7542C30.9186 17.7533 30.9223 17.7521 30.9254 17.7513L30.9459 17.7454V17.7464C31.0878 17.7084 31.2724 17.6837 31.4059 17.6731C31.49 17.6665 31.5954 17.6621 31.7027 17.6663ZM15.1764 21.7142L15.1627 21.7161L15.149 21.7171L12.1773 22.0042C11.8778 23.046 11.5352 23.9451 11.0826 24.8294C10.7236 25.5309 10.3025 26.2098 9.79844 26.9329L9.83653 26.9602C11.8901 28.3892 13.7279 30.1069 15.2916 32.0599C15.8731 32.786 16.5506 33.3471 17.3131 33.6331C18.2094 33.9692 18.7787 34.0307 19.3014 33.9886C19.8858 33.9414 20.4318 33.772 21.4146 33.5257C22.6002 33.1594 24.2093 32.5463 25.2828 31.8929C25.6905 31.6447 25.9342 31.4383 26.065 31.2981L21.4869 27.9505L21.4527 27.9251L21.4205 27.8977C21.279 27.7746 21.1638 27.7432 21.0514 27.7415C20.915 27.7395 20.7125 27.7832 20.4352 27.929C20.3243 27.9872 20.207 28.0957 20.0191 28.345C19.8705 28.5423 19.5921 28.9586 19.2867 29.2708C18.6662 29.9051 17.8438 30.0974 17.1012 30.012C16.3707 29.9279 15.6648 29.5759 15.1441 29.0413C14.8369 28.7258 14.5352 28.3611 14.2721 27.9866C13.1731 26.4226 13.9707 24.6943 14.9605 23.7044L16.9479 21.7171C16.9815 21.6834 16.9855 21.6618 16.9869 21.6517C16.9893 21.6344 16.9867 21.6061 16.9713 21.5745C16.9559 21.543 16.9346 21.5237 16.9195 21.5149C16.9105 21.5097 16.8908 21.5003 16.8443 21.5061L15.1764 21.7142ZM9.46348 19.8733C8.41146 22.4973 7.8335 23.8116 6.59922 26.1263L7.45371 26.7542C7.5069 26.6836 7.56165 26.6151 7.61289 26.5462C8.33529 25.5746 8.85983 24.7706 9.27598 23.9661L10.4537 20.7161C10.4952 20.5506 10.5359 20.3799 10.5768 20.2034L9.46348 19.8733ZM29.649 20.1536C29.6948 20.3507 29.7411 20.5405 29.7877 20.7239C30.3344 22.8743 30.9639 24.8276 32.1324 26.639L33.0973 25.9231C32.4498 24.6692 32.0244 23.674 31.7076 22.6878C31.4094 21.7594 31.2136 20.8571 31.0113 19.7952L29.649 20.1536Z" fill="#0033CC"/>
</g>
<defs>
<clipPath id="clip0_1_6266">
<rect width="40" height="40" fill="white"/>
</clipPath>
</defs>
</svg>
