<svg width="40" height="40" viewBox="0 0 40 40" fill="none" xmlns="http://www.w3.org/2000/svg">
<g clip-path="url(#clip0_1_5669)">
<rect width="40" height="40" fill="white"/>
<path d="M39.2129 11.449C40.2624 17.0781 40.2624 22.8026 39.2129 28.5271C38.2588 33.9654 33.9654 38.2588 28.5271 39.2129C22.898 40.2624 17.1735 40.2624 11.449 39.2129C6.01073 38.2588 1.81276 34.0608 0.858676 28.6225C-0.286225 22.9934 -0.286225 17.1735 0.858676 11.449C1.81276 6.01073 6.01073 1.81276 11.449 0.858676C17.0781 -0.286225 22.898 -0.286225 28.6225 0.858676C34.0608 1.81276 38.2588 6.01073 39.2129 11.449Z" fill="white"/>
<path fill-rule="evenodd" clip-rule="evenodd" d="M38.2293 28.3468C39.2571 22.7405 39.2565 17.1393 38.2298 11.6323L39.2129 11.449C40.2624 17.0781 40.2624 22.8026 39.2129 28.5271L38.2293 28.3468ZM28.5271 39.2129C33.9654 38.2588 38.2588 33.9654 39.2129 28.5271L38.2279 28.3543C37.3466 33.3779 33.3779 37.3466 28.3543 38.2279L28.5271 39.2129ZM11.449 39.2129C17.1735 40.2624 22.898 40.2624 28.5271 39.2129L28.3438 38.2298C22.8369 39.2565 17.2356 39.2571 11.6293 38.2293L11.449 39.2129ZM28.6225 0.858676L28.4497 1.84363C33.4733 2.72496 37.3466 6.59823 38.2279 11.6218L39.2129 11.449C38.2588 6.01073 34.0608 1.81276 28.6225 0.858676ZM11.449 0.858676C17.0781 -0.286225 22.898 -0.286225 28.6225 0.858676L28.4264 1.83926C22.8303 0.720026 17.1448 0.720683 11.6483 1.83861L11.449 0.858676ZM0.858676 11.449C1.81276 6.01073 6.01073 1.81276 11.449 0.858676L11.6218 1.84363C6.59823 2.72496 2.72496 6.59823 1.84363 11.6218L0.858676 11.449ZM0.858676 11.449L1.83926 11.6451C0.720026 17.2413 0.720683 22.9267 1.83861 28.4232L0.858676 28.6225C-0.286225 22.9934 -0.286225 17.1735 0.858676 11.449ZM0.858676 28.6225C1.81276 34.0608 6.01073 38.2588 11.449 39.2129L11.6218 38.2279C6.59823 37.3466 2.72496 33.4733 1.84363 28.4497L0.858676 28.6225Z" fill="url(#paint0_linear_1_5669)"/>
<path d="M27.2254 19.0387C27.7565 18.8869 28.31 19.1942 28.4618 19.7252C28.6133 20.2561 28.306 20.8097 27.7752 20.9615L24.2752 21.9615C23.7443 22.1132 23.1908 21.8058 23.0389 21.275C22.8872 20.744 23.1944 20.1904 23.7254 20.0387L27.2254 19.0387ZM29.1834 13.5514C29.7073 13.3768 30.2743 13.6595 30.4491 14.1832C30.6237 14.7072 30.3402 15.2742 29.8162 15.4488L23.8162 17.4488C23.2923 17.6234 22.7262 17.3399 22.5516 16.816C22.377 16.2922 22.6598 15.7262 23.1834 15.5514L29.1834 13.5514Z" fill="#00CF6A"/>
<path fill-rule="evenodd" clip-rule="evenodd" d="M28.9071 7.16225C29.2953 7.0916 29.6637 7.04993 29.9949 7.02261C30.0219 7.02039 30.049 7.01927 30.076 7.01927H30.1162C32.2108 6.8688 33.957 8.44778 33.957 10.5512V26.1099C33.957 27.8273 32.5819 29.4053 30.8353 29.6214L30.8318 29.6219L30.4078 29.6728C27.6918 30.0315 23.4416 31.421 21.0475 32.7276C20.6945 32.9263 20.2939 32.9965 19.9488 32.9965C19.6061 32.9965 19.2153 32.9274 18.8671 32.7421L18.8309 32.7242C18.8199 32.7188 18.8089 32.7131 18.798 32.7072C16.4024 31.4105 12.1547 30.03 9.44807 29.672L9.44388 29.6714L9.07193 29.6206C7.32852 29.4013 5.95695 27.8252 5.95695 26.1099V10.5383C5.95695 8.44296 7.70418 6.83393 9.82692 7.00964C12.7162 7.2415 17.0009 8.65507 19.4506 10.1647L19.7691 10.3538L19.7733 10.3563C19.7757 10.3577 19.778 10.3591 19.7803 10.3605C19.7803 10.3605 19.7945 10.3678 19.8247 10.3752C19.8602 10.384 19.906 10.3901 19.957 10.3901C20.0079 10.3901 20.0537 10.384 20.0892 10.3752C20.1143 10.369 20.128 10.3631 20.1322 10.3612L20.338 10.2294C20.3435 10.2259 20.3489 10.2224 20.3545 10.219C21.2346 9.67979 22.3285 9.15393 23.4959 8.68892C23.4985 8.68788 23.501 8.68685 23.5036 8.68584C25.2609 7.9954 27.2267 7.43361 28.9071 7.16225ZM9.66489 8.93653C8.6888 8.85534 7.91044 9.56627 7.91044 10.5383V26.1099C7.91044 26.8673 8.56698 27.6095 9.32088 27.7028L9.32556 27.7034L9.33007 27.704L9.3333 27.7044L9.70684 27.7555L9.70918 27.7558C12.3866 28.1104 16.3287 29.3449 18.9803 30.6255V12.1246C18.9049 12.0909 18.8309 12.0525 18.759 12.0088L18.4387 11.8186L18.4341 11.8158C18.4308 11.8139 18.4275 11.8119 18.4243 11.8099C16.2369 10.4597 12.2454 9.1433 9.66787 8.93677L9.66489 8.93653ZM30.1556 27.7554C27.4922 28.1061 23.5882 29.3305 20.9337 30.61V12.1245C21.0117 12.0897 21.0882 12.0498 21.1623 12.0042C21.1675 12.001 21.1727 11.9978 21.1778 11.9945L21.3908 11.8581C21.8234 11.5936 22.3294 11.3248 22.8872 11.0619L24.8407 10.2498M24.8407 10.2498L28.1106 9.28667L30.0243 8.96315C30.0639 8.94212 29.9885 8.98889 30.0243 8.96315L30.05 8.95879C30.0726 8.95673 30.0951 8.95474 30.1174 8.95282H30.1542C30.1815 8.95282 30.2088 8.95169 30.236 8.94943C31.2215 8.86746 32.0035 9.57562 32.0035 10.5512V26.1099C32.0035 26.8668 31.3479 27.6084 30.5947 27.7026L30.593 27.7028L30.1667 27.754L30.1556 27.7554M28.0965 9.28906C27.0476 9.52394 25.9195 9.85691 24.8407 10.2498L28.1106 9.28667L30.0243 8.96315L30.05 8.95879L28.0965 9.28906Z" fill="#0033C9"/>
</g>
<defs>
<linearGradient id="paint0_linear_1_5669" x1="-2.81746e-08" y1="8.19672" x2="40.9761" y2="9.50848" gradientUnits="userSpaceOnUse">
<stop stop-color="#F0F6FF"/>
<stop offset="0.635417" stop-color="#E8F0FD"/>
<stop offset="1" stop-color="#EEF4FE"/>
</linearGradient>
<clipPath id="clip0_1_5669">
<rect width="40" height="40" fill="white"/>
</clipPath>
</defs>
</svg>
