<svg width="40" height="40" viewBox="0 0 40 40" fill="none" xmlns="http://www.w3.org/2000/svg">
<path d="M19.7859 2.31978C19.7859 2.32046 19.7865 2.32101 19.7872 2.321C24.4432 2.19248 28.958 3.96193 32.3247 7.23788C35.6942 10.5141 37.6404 15.0245 37.7329 19.7679C37.7329 29.666 29.8894 37.708 20.1752 37.7724C15.526 37.8889 11.0229 36.112 7.66072 32.8407C4.301 29.562 2.3596 25.0565 2.26959 20.323C2.24526 10.4303 10.0783 2.38367 19.7847 2.31856C19.7854 2.31856 19.7859 2.3191 19.7859 2.31978Z" fill="#FFBB33"/>
<path d="M19.8474 7.63839C23.1069 7.54818 26.2676 8.78681 28.6245 11.0802C30.9832 13.3736 32.3455 16.5308 32.4103 19.8512C32.4103 26.7799 26.9199 32.4092 20.1199 32.4543C16.8655 32.5359 13.7133 31.292 11.3598 29.0021C9.00796 26.707 7.64899 23.5532 7.58598 20.2398C7.56895 13.3146 13.0525 7.68176 19.8474 7.63666V7.63839Z" fill="url(#paint0_linear_1_1767)"/>
<path fill-rule="evenodd" clip-rule="evenodd" d="M26.1154 16.3389C26.1154 16.3389 26.7988 13.0565 26.1154 12.5661C25.4319 12.0756 22.5842 13.8865 21.9767 14.5657C21.3454 14.5138 20.7094 14.5138 20.0782 14.5657C19.3924 14.5539 18.7042 14.6034 18.0278 14.7166C17.4203 14.0375 14.4207 12.2265 13.8891 12.717C13.3576 13.2074 13.8891 16.4898 13.8891 16.4898C12.2351 17.7254 11.3452 19.725 11.535 21.7718C11.9574 24.7122 14.5465 26.8604 17.5342 26.7519H22.6222C25.6028 26.7731 28.123 24.5637 28.4695 21.6209C28.6617 19.5741 27.7694 17.5745 26.1154 16.3389ZM20.7571 20.775C20.9066 19.5229 21.9793 18.5514 23.2797 18.5514C24.6822 18.5514 25.8213 19.6809 25.8213 21.0768C25.8213 22.4681 24.6822 23.5999 23.2774 23.5999C21.9959 23.5999 20.9375 22.6567 20.7619 21.4305H19.6465C19.4733 22.6567 18.4125 23.5999 17.131 23.5999C15.7285 23.5999 14.5918 22.4704 14.5918 21.0745C14.5918 19.6832 15.7285 18.5514 17.131 18.5514C18.4315 18.5514 19.5041 19.5229 19.6536 20.775H20.7571ZM23.2792 19.1807C24.3329 19.1807 25.1848 20.0296 25.1848 21.0742C25.1848 22.1212 24.3305 22.9701 23.2792 22.9701C22.2256 22.9701 21.3713 22.1212 21.3713 21.0742L21.376 21.1355L21.3808 21.1025L21.3784 21.053C21.3855 20.0155 22.2327 19.1807 23.2769 19.1807H23.2792ZM19.0334 21.0742C19.0334 20.0296 18.1815 19.1807 17.1302 19.1807L17.1278 19.1831C16.0766 19.1831 15.2246 20.0296 15.2246 21.0742C15.2246 22.1188 16.0766 22.9677 17.1278 22.9677C18.1791 22.9677 19.0334 22.1212 19.0334 21.0742ZM15.2083 14.3598L15.1039 14.3739C14.9188 14.4258 14.8998 14.5508 14.9663 14.7842L15.0256 14.9587L15.149 15.2794C15.3199 15.6685 15.467 15.7274 15.7114 15.6567C15.9772 15.5812 15.9013 15.2417 15.7114 14.8644L15.5287 14.5932C15.4005 14.4164 15.2914 14.3197 15.1015 14.3739L15.2083 14.3598ZM23.8189 14.8647L23.9993 14.5959V14.5936C24.1274 14.4167 24.2389 14.32 24.4264 14.3743C24.6495 14.4379 24.6305 14.6101 24.5047 14.9591L24.4264 15.1666C24.2366 15.657 24.0847 15.7325 23.8189 15.657C23.5531 15.5816 23.629 15.242 23.8189 14.8647Z" fill="#FFDB1F"/>
<defs>
<linearGradient id="paint0_linear_1_1767" x1="7.43204" y1="8.72628" x2="5.81277" y2="41.3239" gradientUnits="userSpaceOnUse">
<stop stop-color="#E25626"/>
<stop offset="1" stop-color="#FFA200"/>
</linearGradient>
</defs>
</svg>
