<svg width="40" height="40" viewBox="0 0 40 40" fill="none" xmlns="http://www.w3.org/2000/svg">
<path d="M39.2129 11.449C40.2624 17.0781 40.2624 22.8026 39.2129 28.5271C38.2588 33.9654 33.9654 38.2588 28.5271 39.2129C22.898 40.2624 17.1735 40.2624 11.449 39.2129C6.01073 38.2588 1.81276 34.0608 0.858676 28.6225C-0.286225 22.9934 -0.286225 17.1735 0.858676 11.449C1.81276 6.01073 6.01073 1.81276 11.449 0.858676C17.0781 -0.286225 22.898 -0.286225 28.6225 0.858676C34.0608 1.81276 38.2588 6.01073 39.2129 11.449Z" fill="white"/>
<path fill-rule="evenodd" clip-rule="evenodd" d="M38.2279 11.6218L38.2279 11.6218C37.3466 6.59823 33.4733 2.72496 28.4497 1.84363L28.4381 1.84158L28.4264 1.83926C22.8303 0.720027 17.1448 0.720684 11.6483 1.83861L11.6351 1.8413L11.6218 1.84363C6.59823 2.72496 2.72496 6.59823 1.84363 11.6218L1.84158 11.6335L1.83926 11.6451C0.720027 17.2413 0.720684 22.9267 1.83861 28.4232L1.8413 28.4365L1.84363 28.4497C2.72496 33.4733 6.59823 37.3466 11.6218 38.2279L11.6293 38.2292C17.2356 39.2571 22.8369 39.2565 28.3438 38.2298L28.3543 38.2279L28.3543 38.2279C33.3779 37.3466 37.3466 33.3779 38.2279 28.3543L38.2292 28.3468C39.2571 22.7405 39.2565 17.1393 38.2298 11.6323L38.2279 11.6218ZM11.449 39.2129C17.1735 40.2624 22.898 40.2624 28.5271 39.2129C33.9654 38.2588 38.2588 33.9654 39.2129 28.5271C40.2624 22.8026 40.2624 17.0781 39.2129 11.449C38.2588 6.01073 34.0608 1.81276 28.6225 0.858676C22.898 -0.286225 17.0781 -0.286225 11.449 0.858676C6.01073 1.81276 1.81276 6.01073 0.858676 11.449C-0.286225 17.1735 -0.286225 22.9934 0.858676 28.6225C1.81276 34.0608 6.01073 38.2588 11.449 39.2129Z" fill="#F5F9FF"/>
<path d="M17.2471 12.5811C17.2471 10.0276 15.1774 7.95724 12.624 7.95703C10.0705 7.95703 8 10.0275 8 12.5811C8.00011 13.8168 8.55637 15.0089 9.5498 16.2988C10.3867 17.3854 11.456 18.4487 12.623 19.6064C13.7903 18.4485 14.8603 17.3856 15.6973 16.2988C16.6907 15.0089 17.247 13.8168 17.2471 12.5811ZM13.7324 12.5811C13.7324 11.9688 13.2363 11.4719 12.624 11.4717C12.0116 11.4717 11.5146 11.9686 11.5146 12.5811C11.5149 13.1933 12.0117 13.6895 12.624 13.6895C13.2361 13.6892 13.7322 13.1932 13.7324 12.5811ZM15.7324 12.5811C15.7322 14.2977 14.3407 15.6892 12.624 15.6895C10.9072 15.6895 9.51485 14.2979 9.51465 12.5811C9.51465 10.8641 10.907 9.47168 12.624 9.47168C14.3408 9.47189 15.7324 10.8642 15.7324 12.5811ZM19.2471 12.5811C19.247 14.4508 18.3974 16.0705 17.2822 17.5186C16.1767 18.954 14.7037 20.3509 13.3311 21.7236C12.9407 22.114 12.3075 22.1137 11.917 21.7236C10.5443 20.3509 9.07033 18.954 7.96484 17.5186C6.84971 16.0705 6.00012 14.4507 6 12.5811C6 8.92292 8.96589 5.95703 12.624 5.95703C16.282 5.95724 19.2471 8.92305 19.2471 12.5811Z" fill="#0033C9"/>
<path d="M23.8867 29.6782V17.0209L23.8945 16.8959C23.9308 16.6081 24.0913 16.3478 24.3369 16.186C24.6177 16.0011 24.9724 15.9694 25.2812 16.102L32.4727 19.1909L32.8311 19.3461C32.9445 19.3968 33.0499 19.4466 33.1416 19.4946C33.2729 19.5633 33.5346 19.7034 33.7305 19.9624L33.8096 20.0815L33.8984 20.2602C34.0481 20.6253 34.0286 21.0267 33.8555 21.3725L33.7559 21.5405C33.5413 21.852 33.2224 22.005 33.0654 22.0776C32.9708 22.1214 32.8621 22.1665 32.7451 22.2124L32.375 22.353L25.8867 24.7905V29.6782C25.8867 30.2305 25.439 30.6782 24.8867 30.6782C24.3344 30.6782 23.8867 30.2305 23.8867 29.6782ZM25.8867 22.6538L30.998 20.7338L25.8867 18.5385V22.6538Z" fill="#0033C9"/>
<path d="M25.8701 31.9092C25.8699 31.297 25.373 30.8008 24.7607 30.8008C24.1487 30.801 23.6526 31.2971 23.6523 31.9092C23.6523 32.5214 24.1485 33.0183 24.7607 33.0186C25.3732 33.0186 25.8701 32.5216 25.8701 31.9092ZM27.8701 31.9092C27.8701 33.6262 26.4777 35.0186 24.7607 35.0186C23.044 35.0183 21.6523 33.626 21.6523 31.9092C21.6526 30.1926 23.0441 28.801 24.7607 28.8008C26.4776 28.8008 27.8699 30.1924 27.8701 31.9092Z" fill="#0033C9"/>
<path d="M16.2275 20.8066L17.7256 20.8135C18.1582 20.8207 18.5288 20.836 18.8506 20.8652C19.4421 20.9191 19.9312 21.0262 20.4023 21.2559L20.6035 21.3623L20.6523 21.3926C21.066 21.6603 21.3602 21.9971 21.5449 22.3896C21.7222 22.7665 21.7725 23.1386 21.789 23.4336L21.7968 23.6494L21.7841 23.918C21.7775 23.9928 21.7611 24.0993 21.7412 24.2051L21.6767 24.4883C21.6474 24.589 21.6224 24.6635 21.5976 24.7275L21.5205 24.9062C21.1614 25.6924 20.4673 26.6127 18.9804 27.2207L18.9795 27.2197L13.7715 29.4346C12.1593 30.1199 10.9979 30.6149 10.2099 31.0117C9.81527 31.2105 9.55696 31.3634 9.39841 31.4814C9.38826 31.489 9.3797 31.4972 9.37106 31.5039C9.41099 31.5536 9.48979 31.6291 9.63376 31.7109L9.76852 31.7627C9.84332 31.7855 9.95146 31.812 10.1035 31.8379C10.3958 31.8876 10.7876 31.9256 11.3066 31.9512C12.3474 32.0025 13.7854 32.0029 15.7539 32.0029H18.7939L18.8965 32.0078C19.4007 32.0591 19.7939 32.4852 19.7939 33.0029C19.7937 33.5204 19.4005 33.9458 18.8965 33.9971L18.7939 34.0029H15.7539C13.8081 34.0029 12.3101 34.0026 11.208 33.9482C10.6558 33.921 10.1743 33.8786 9.76852 33.8096C9.42362 33.7509 9.07808 33.6646 8.77341 33.5166L8.6445 33.4492C7.7807 32.9578 7.0529 31.9957 7.43747 30.8398L7.50192 30.6777C7.67207 30.3139 7.96578 30.0543 8.20407 29.877C8.50143 29.6556 8.88112 29.4418 9.31052 29.2256C10.1707 28.7924 11.4057 28.267 12.9892 27.5938L18.2109 25.374L18.2236 25.3691L18.3974 25.2939C19.2305 24.91 19.5401 24.4278 19.7011 24.0752L19.7324 24.0068C19.7346 24.0011 19.7413 23.9829 19.7568 23.9297L19.7607 23.9121C19.7654 23.8909 19.7699 23.8637 19.7754 23.835C19.7808 23.8063 19.7857 23.7792 19.789 23.7578C19.7903 23.7499 19.7914 23.7442 19.792 23.7402L19.7968 23.6572L19.792 23.5449C19.7823 23.3737 19.7583 23.29 19.7353 23.2412C19.7208 23.2103 19.6905 23.1581 19.5888 23.0879C19.3864 22.9772 19.148 22.9 18.6699 22.8564C18.4043 22.8323 18.0888 22.8199 17.6924 22.8135L16.2275 22.8066H15.6699C15.1176 22.8066 14.6699 22.3589 14.6699 21.8066C14.6699 21.2544 15.1176 20.8067 15.6699 20.8066H16.2275Z" fill="#00CF6A"/>
</svg>
