<svg width="40" height="40" viewBox="0 0 40 40" fill="none" xmlns="http://www.w3.org/2000/svg">
<g clip-path="url(#clip0_1_5006)">
<path d="M39.2129 11.449V11.449C40.2624 17.0781 40.2624 22.8026 39.2129 28.5271V28.5271C38.2588 33.9654 33.9654 38.2588 28.5271 39.2129V39.2129C22.898 40.2624 17.1735 40.2624 11.449 39.2129V39.2129C6.01073 38.2588 1.81276 34.0608 0.858676 28.6225V28.6225C-0.286225 22.9934 -0.286225 17.1735 0.858676 11.449V11.449C1.81276 6.01073 6.01073 1.81276 11.449 0.858676V0.858676C17.0781 -0.286225 22.898 -0.286225 28.6225 0.858676V0.858676C34.0608 1.81276 38.2588 6.01073 39.2129 11.449Z" fill="white"/>
<path fill-rule="evenodd" clip-rule="evenodd" d="M38.2293 28.3468C39.2571 22.7405 39.2565 17.1393 38.2298 11.6323L39.2129 11.449C40.2624 17.0781 40.2624 22.8026 39.2129 28.5271L38.2293 28.3468ZM28.5271 39.2129C33.9654 38.2588 38.2588 33.9654 39.2129 28.5271L38.2279 28.3543C37.3466 33.3779 33.3779 37.3466 28.3543 38.2279L28.5271 39.2129ZM11.449 39.2129C17.1735 40.2624 22.898 40.2624 28.5271 39.2129L28.3438 38.2298C22.8369 39.2565 17.2356 39.2571 11.6293 38.2293L11.449 39.2129ZM28.6225 0.858676L28.4497 1.84363C33.4733 2.72496 37.3466 6.59823 38.2279 11.6218L39.2129 11.449C38.2588 6.01073 34.0608 1.81276 28.6225 0.858676ZM11.449 0.858676C17.0781 -0.286225 22.898 -0.286225 28.6225 0.858676L28.4264 1.83926C22.8303 0.720026 17.1448 0.720683 11.6483 1.83861L11.449 0.858676ZM0.858676 11.449C1.81276 6.01073 6.01073 1.81276 11.449 0.858676L11.6218 1.84363C6.59823 2.72496 2.72496 6.59823 1.84363 11.6218L0.858676 11.449ZM0.858676 11.449L1.83926 11.6451C0.720026 17.2413 0.720683 22.9267 1.83861 28.4232L0.858676 28.6225C-0.286225 22.9934 -0.286225 17.1735 0.858676 11.449ZM0.858676 28.6225C1.81276 34.0608 6.01073 38.2588 11.449 39.2129L11.6218 38.2279C6.59823 37.3466 2.72496 33.4733 1.84363 28.4497L0.858676 28.6225Z" fill="#EEF4FE"/>
<path d="M14.4999 8.65002C14.8141 8.65002 15.1135 8.78444 15.3222 9.01917L19.3222 13.5192C19.7257 13.9731 19.6852 14.6683 19.2314 15.0719C18.7774 15.4754 18.0823 15.4348 17.6787 14.9811L15.6005 12.6432V29.7496C15.6005 30.3571 15.1075 30.8502 14.4999 30.8502C13.8926 30.85 13.4003 30.357 13.4003 29.7496V12.6432L11.3222 14.9811C10.9186 15.4349 10.2234 15.4754 9.76947 15.0719C9.31558 14.6683 9.2751 13.9732 9.67865 13.5192L13.6787 9.01917C13.8873 8.78459 14.186 8.65014 14.4999 8.65002Z" fill="#0033C9"/>
<path d="M26.3106 30.2483C26.1682 30.4084 25.9642 30.5 25.75 30.5C25.5358 30.5 25.3318 30.4084 25.1895 30.2483L21.1895 25.7483C20.9143 25.4387 20.9421 24.9646 21.2517 24.6894C21.5613 24.4143 22.0354 24.4421 22.3106 24.7517L25 27.7774V9.75C25 9.33579 25.3358 9 25.75 9C26.1642 9 26.5 9.33579 26.5 9.75V27.7774L29.1895 24.7517C29.4646 24.4421 29.9387 24.4143 30.2483 24.6894C30.5579 24.9646 30.5858 25.4387 30.3106 25.7483L26.3106 30.2483Z" fill="#00CF6A"/>
<path fill-rule="evenodd" clip-rule="evenodd" d="M24.6504 9.75002C24.6504 9.14251 25.1429 8.65002 25.7504 8.65002C26.3579 8.65002 26.8504 9.14251 26.8504 9.75002V26.8568L28.9283 24.5192C29.3319 24.0652 30.0271 24.0243 30.4812 24.4279C30.9353 24.8315 30.9762 25.5268 30.5726 25.9808L26.5726 30.4808C26.3638 30.7157 26.0646 30.85 25.7504 30.85C25.4362 30.85 25.137 30.7157 24.9283 30.4808L20.9283 25.9808C20.5246 25.5268 20.5655 24.8315 21.0196 24.4279L21.2506 24.6877L21.0196 24.4279C21.4737 24.0243 22.1689 24.0652 22.5726 24.5192L24.6504 26.8568V9.75002ZM25.7504 9.35002C25.5295 9.35002 25.3504 9.52911 25.3504 9.75002V27.7774C25.3504 27.9227 25.2606 28.0529 25.1248 28.1045C24.989 28.1562 24.8353 28.1185 24.7388 28.0099L22.0494 24.9843C21.9026 24.8192 21.6498 24.8043 21.4847 24.9511C21.3195 25.0978 21.3047 25.3507 21.4514 25.5158L21.1902 25.748L21.4514 25.5158L25.4514 30.0158L25.1898 30.2483L25.4514 30.0158C25.5273 30.1012 25.6361 30.15 25.7504 30.15C25.8647 30.15 25.9735 30.1012 26.0494 30.0158L30.0494 25.5158C30.1961 25.3507 30.1813 25.0978 30.0161 24.9511C29.851 24.8043 29.5982 24.8192 29.4514 24.9843L26.762 28.0099C26.6655 28.1185 26.5118 28.1562 26.376 28.1045C26.2402 28.0529 26.1504 27.9227 26.1504 27.7774V9.75002C26.1504 9.52911 25.9713 9.35002 25.7504 9.35002Z" fill="#00CF6A"/>
</g>
<defs>
<clipPath id="clip0_1_5006">
<rect width="40" height="40" fill="white"/>
</clipPath>
</defs>
</svg>
