<svg width="40" height="40" viewBox="0 0 40 40" fill="none" xmlns="http://www.w3.org/2000/svg">
<g clip-path="url(#clip0_1_4511)">
<path d="M39.2129 11.449V11.449C40.2624 17.0781 40.2624 22.8026 39.2129 28.5271V28.5271C38.2588 33.9654 33.9654 38.2588 28.5271 39.2129V39.2129C22.898 40.2624 17.1735 40.2624 11.449 39.2129V39.2129C6.01073 38.2588 1.81276 34.0608 0.858676 28.6225V28.6225C-0.286225 22.9934 -0.286225 17.1735 0.858676 11.449V11.449C1.81276 6.01073 6.01073 1.81276 11.449 0.858676V0.858676C17.0781 -0.286225 22.898 -0.286225 28.6225 0.858676V0.858676C34.0608 1.81276 38.2588 6.01073 39.2129 11.449Z" fill="white"/>
<path fill-rule="evenodd" clip-rule="evenodd" d="M38.0326 28.3107C39.056 22.7281 39.0554 17.1515 38.0332 11.669L39.2128 11.449L38.0309 11.6564C37.1642 6.71573 33.3558 2.90741 28.4152 2.04062L28.6225 0.858676C34.0608 1.81276 38.2588 6.01073 39.2129 11.449C40.2624 17.0781 40.2624 22.8026 39.2129 28.5271L38.0326 28.3107ZM28.5271 39.2129C33.9654 38.2588 38.2588 33.9654 39.2129 28.5271L38.0309 28.3198C37.1642 33.2604 33.2604 37.1642 28.3198 38.0309L28.5271 39.2129ZM11.449 39.2129C17.1735 40.2624 22.898 40.2624 28.5271 39.2129L28.3072 38.0332C22.8247 39.0554 17.2481 39.056 11.6654 38.0326L11.449 39.2128L11.6564 38.0309C6.71573 37.1642 2.90741 33.3558 2.04062 28.4152L0.858676 28.6225L2.0346 28.3834C0.922065 22.9134 0.921277 17.2548 2.03537 11.6844L0.858676 11.449L2.04062 11.6564C2.90741 6.71573 6.71573 2.90741 11.6564 2.04062L11.449 0.858676L11.6882 2.0346C17.1582 0.922065 22.8167 0.921277 28.3872 2.03537L28.6225 0.858676C22.898 -0.286225 17.0781 -0.286225 11.449 0.858676C6.01073 1.81276 1.81276 6.01073 0.858676 11.449C-0.286225 17.1735 -0.286225 22.9934 0.858676 28.6225C1.81276 34.0608 6.01073 38.2588 11.449 39.2129Z" fill="#EEF4FE"/>
<path d="M18.7432 7.44929C19.5203 7.00063 20.4777 7.00063 21.2548 7.44929L30.24 12.637C31.0171 13.0857 31.4958 13.9149 31.4958 14.8122V25.1877C31.4958 26.085 31.0171 26.9141 30.24 27.3628L21.2548 32.5506C20.4777 32.9992 19.5203 32.9992 18.7432 32.5506L9.75797 27.3628C8.9809 26.9141 8.5022 26.085 8.5022 25.1877V14.8122C8.5022 13.9149 8.9809 13.0857 9.75798 12.637L18.7432 7.44929Z" fill="#C2852D"/>
<path d="M18.9261 9.28389C19.5896 8.90081 20.4071 8.90081 21.0705 9.28389L28.7424 13.7134C29.4059 14.0964 29.8146 14.8044 29.8146 15.5705V24.4295C29.8146 25.1956 29.4059 25.9036 28.7424 26.2867L21.0705 30.7161C20.4071 31.0992 19.5896 31.0992 18.9261 30.7161L11.2542 26.2867C10.5907 25.9036 10.182 25.1956 10.182 24.4295V15.5705C10.182 14.8044 10.5907 14.0964 11.2542 13.7134L18.9261 9.28389Z" fill="url(#paint0_linear_1_4511)"/>
<g clip-path="url(#clip1_1_4511)">
<path opacity="0.3" d="M21.5947 8.44848C20.3203 8.85724 18.9258 8.85724 17.6514 8.40039L17.435 8.54466C18.1323 8.80915 18.8777 8.92937 19.6471 8.92937C20.3684 8.92937 21.0898 8.80915 21.7871 8.5687L21.5947 8.44848ZM30.6355 19.0522L29.4333 20.3746L30.6355 20.9036V20.6872L29.7218 20.3025L30.6355 19.2926V19.0281V19.0522ZM8.6106 20.4468L9.54834 20.8315L8.6106 21.8894V22.178L9.78878 20.8555L9.88496 20.7593L8.6106 20.2304V20.4468Z" fill="url(#paint1_linear_1_4511)"/>
<path opacity="0.3" d="M29.3371 12.9449C29.3371 12.9449 29.1207 12.7766 29.0245 12.7045L30.6596 15.9986V15.5418L29.3611 12.9449H29.3371ZM30.6355 17.273L27.4616 20.8316L30.6355 22.2021V22.0098L27.7742 20.7594L30.6355 17.5615V17.273ZM19.6711 31.0025C18.8536 31.0025 18.0601 31.1227 17.3148 31.3872L17.5312 31.5074C18.2044 31.291 18.9258 31.1948 19.6711 31.1948C20.4165 31.1948 21.0657 31.291 21.739 31.5074L21.9313 31.3872C21.21 31.1467 20.4165 31.0265 19.6471 31.0265L19.6711 31.0025ZM8.6106 18.9321V19.1485L11.544 20.3988L8.6106 23.6448V23.9333L11.7604 20.4228L11.8566 20.3266L8.6106 18.9561V18.9321ZM8.70677 25.1596C8.80295 25.6886 9.0434 26.1695 9.40407 26.5783L8.70677 25.1596ZM10.2697 12.6804C10.2697 12.6804 10.1014 12.7766 10.0292 12.8488L8.6106 15.662V16.0707L10.3418 12.6324L10.2697 12.6804ZM22.9172 9.19397L22.4122 9.38632C22.4122 9.38632 22.2199 9.4825 22.1237 9.4825C21.3302 9.77104 20.4887 9.91531 19.6471 9.91531C18.6853 9.91531 17.7476 9.74699 16.882 9.38632L16.353 9.16992L16.1606 9.2661L16.8339 9.55464C17.7476 9.91531 18.6853 10.1077 19.6711 10.1077C20.5367 10.1077 21.4024 9.9634 22.2199 9.65082C22.3161 9.65082 22.4122 9.57868 22.5084 9.55464L23.1336 9.29015L22.9412 9.19397H22.9172Z" fill="url(#paint2_linear_1_4511)"/>
<path opacity="0.3" d="M22.9412 30.4735C21.8833 30.0407 20.8013 29.8243 19.6712 29.8243C18.6613 29.8243 17.6755 29.9926 16.7137 30.3292C16.6175 30.3773 16.4973 30.4254 16.4011 30.4494L15.9923 30.6177L16.2087 30.7139L16.4732 30.6177C16.4732 30.6177 16.6896 30.5216 16.7858 30.4975C17.6995 30.1849 18.6853 29.9926 19.6712 29.9926C20.7772 29.9926 21.8352 30.209 22.8691 30.6177L23.0615 30.7139L23.2779 30.5937L22.9412 30.4735ZM27.0048 21.6972C26.596 21.5289 26.1873 21.3605 25.7785 21.1922L29.818 16.6959L29.8661 16.6237L27.4616 11.7908L27.1491 11.6465L29.6497 16.6237L25.4419 21.2884L25.5862 21.3365C26.043 21.5048 26.4998 21.6731 26.9086 21.8655L30.2508 23.3082L27.9425 27.9007L28.2551 27.7324L30.4672 23.3082L30.5153 23.212L27.0048 21.6731V21.6972ZM13.8764 19.8457L13.7562 19.7976C13.3474 19.6534 12.9627 19.4851 12.602 19.3408L9.06747 17.8741L12.1933 11.5503L11.8807 11.7186L8.80298 17.9462L12.5299 19.5091C12.8425 19.6534 13.2032 19.7976 13.5638 19.9179L9.50027 24.4383L9.45218 24.4863L11.1113 27.8286L11.4238 27.9728L9.69263 24.5104L13.9004 19.8457H13.8764ZM24.2156 9.93933L22.8691 10.4924C22.8691 10.4924 22.6527 10.5885 22.5565 10.6126C21.6428 10.9252 20.681 11.1175 19.6952 11.1175C18.5651 11.1175 17.5071 10.9011 16.4973 10.4924L15.1027 9.91528L14.8863 10.0355L16.4251 10.6607C17.4831 11.0935 18.5651 11.3099 19.7193 11.3099C20.7291 11.3099 21.715 11.1416 22.6527 10.8049C22.7489 10.7568 22.8932 10.7088 22.9893 10.6847L24.4561 10.0836L24.2637 9.96337L24.2156 9.93933Z" fill="url(#paint3_linear_1_4511)"/>
<path opacity="0.3" d="M23.3981 29.3675C22.2199 28.8866 20.9695 28.6462 19.6711 28.6462C18.517 28.6462 17.3869 28.8385 16.3289 29.2232C16.1847 29.2713 16.0644 29.3194 15.9442 29.3435L14.6939 29.8484L14.9103 29.9446L16.0163 29.5118C16.1366 29.4396 16.2808 29.4156 16.4011 29.3675C17.435 28.9828 18.541 28.8145 19.6711 28.8145C20.9215 28.8145 22.1477 29.0549 23.3019 29.5358L24.3598 29.9686L24.5762 29.8484L23.3981 29.3435V29.3675ZM26.5239 22.7793C26.0911 22.5869 25.6342 22.4186 25.1774 22.2743C24.6724 22.106 24.1675 21.9618 23.6385 21.8175L28.4234 16.5277L28.4715 16.4555L25.6102 10.7569L25.5621 10.6608H25.4899L23.3019 11.5745C23.2057 11.6225 23.0614 11.6706 22.9412 11.6947C21.8832 12.0794 20.8012 12.2718 19.6711 12.2718C18.3968 12.2718 17.1705 12.0073 16.0163 11.5504L13.8523 10.6367H13.7802L10.4139 17.3452L12.9627 18.4512C13.3233 18.5955 13.7081 18.7638 14.1409 18.884C14.6458 19.0524 15.1267 19.1966 15.6557 19.3409L10.8948 24.6548L10.8467 24.7028L12.9386 28.8866L13.2512 29.079L11.0631 24.7028L15.8961 19.3168L15.9923 19.2207L15.848 19.1726C15.271 19.0524 14.7179 18.884 14.1649 18.6917C13.7561 18.5715 13.3714 18.4031 13.0348 18.2589L10.6544 17.249L13.8283 10.8772L15.9202 11.7428C17.0743 12.2237 18.3487 12.4641 19.6471 12.4641C20.7772 12.4641 21.9073 12.2718 22.9893 11.887C23.1095 11.839 23.2538 11.7909 23.374 11.7668L25.4659 10.9012L28.207 16.4315L23.3981 21.8175L23.3019 21.9137L23.4461 21.9618C23.9992 22.082 24.5762 22.2503 25.1052 22.4426C25.5861 22.5869 26.0189 22.7793 26.4277 22.9476L28.6157 23.8853L26.067 28.9828L26.3796 28.8145L28.8322 23.8853L28.8802 23.7891L26.5239 22.7552V22.7793Z" fill="url(#paint4_linear_1_4511)"/>
<path opacity="0.3" d="M26.043 23.8373C25.6342 23.669 25.2014 23.5007 24.7686 23.3324C23.6385 22.9717 22.4844 22.7072 21.3302 22.587L26.9807 16.3113L27.0288 16.2632L24.961 12.1516L23.7347 12.6565C23.6145 12.7287 23.4462 12.7527 23.3019 12.8249C22.1478 13.2336 20.8974 13.45 19.6471 13.45C18.2285 13.45 16.8579 13.1855 15.5355 12.6565L14.4054 12.1757H14.3092L12.0009 16.7682L13.4196 17.3453C13.7321 17.4895 14.1168 17.6578 14.5016 17.7781C15.6317 18.1387 16.7858 18.4032 17.9399 18.5234L12.2895 24.7991L12.2414 24.8712L14.3092 28.9588L15.5355 28.4539C15.6797 28.3818 15.824 28.3577 15.9683 28.2856C17.1465 27.8768 18.3728 27.6604 19.6471 27.6604C21.0658 27.6604 22.4363 27.9249 23.7347 28.4539L24.8889 28.9348H24.985L27.2212 24.4625L27.2693 24.3663L26.043 23.8373ZM24.8889 28.7184L23.8068 28.2856C22.4844 27.7566 21.0898 27.4681 19.6471 27.4681C18.3487 27.4681 17.0984 27.6845 15.8962 28.1173C15.7519 28.1894 15.5836 28.2134 15.4633 28.2856L14.3813 28.7184L12.4578 24.8953L18.3247 18.3792H18.1323C16.906 18.259 15.7038 17.9945 14.5496 17.5857C14.1649 17.4655 13.8283 17.3212 13.4676 17.1769L12.2414 16.672L14.3813 12.4161L15.4633 12.8489C16.7858 13.4019 18.2044 13.6664 19.6471 13.6664C20.9215 13.6664 22.1959 13.45 23.374 13.0172C23.5183 12.9691 23.6866 12.921 23.8068 12.8489L24.8889 12.4161L26.8124 16.2392L20.9696 22.7553H21.1619C22.3642 22.8755 23.5664 23.14 24.7205 23.5488C25.1533 23.693 25.5861 23.8614 25.9709 24.0297L27.0288 24.5106L24.8889 28.7424V28.7184Z" fill="url(#paint5_linear_1_4511)"/>
<path d="M24.2397 24.4387C22.1237 23.7173 20.1761 23.5971 18.5651 23.7414L24.2397 17.4176L25.3457 16.1914L24.2397 13.9792L24.0954 14.0273C23.9511 14.0995 23.7828 14.1476 23.6385 14.1957C22.3642 14.6525 21.0177 14.8929 19.6712 14.8929C18.1323 14.8929 16.6415 14.6044 15.2229 14.0273L15.0786 13.9792L13.9485 16.2394L14.1169 16.3116C14.4294 16.4558 14.7661 16.5761 15.0786 16.6723C16.5454 17.1772 18.0842 17.4176 19.6471 17.4176C20.0078 17.4176 20.3925 17.4176 20.7532 17.3695L15.0786 23.6933L13.9726 24.9196L15.0786 27.1317L15.2229 27.0836C15.3672 27.0115 15.5355 26.9634 15.6798 26.9153C16.9541 26.4584 18.3006 26.218 19.6471 26.218C21.186 26.218 22.6768 26.5065 24.0954 27.0836L24.2397 27.1317L25.3698 24.8715C24.985 24.7032 24.6003 24.5589 24.2397 24.4387Z" fill="url(#paint6_linear_1_4511)"/>
</g>
<path fill-rule="evenodd" clip-rule="evenodd" d="M18.4748 6.9833C19.4184 6.43851 20.5809 6.43851 21.5245 6.98331L30.5098 12.1711C31.4534 12.7159 32.0347 13.7227 32.0347 14.8123V25.1878C32.0347 26.2774 31.4534 27.2842 30.5098 27.829L21.5245 33.0168C20.5809 33.5616 19.4184 33.5616 18.4748 33.0168L9.48953 27.829C8.54594 27.2842 7.96466 26.2774 7.96466 25.1878V14.8123C7.96466 13.7227 8.54594 12.7159 9.48953 12.1711L18.4748 6.9833ZM20.9863 7.9155C20.3758 7.56298 19.6235 7.56298 19.013 7.9155L10.0277 13.1033C9.41716 13.4558 9.04104 14.1073 9.04104 14.8123V25.1878C9.04104 25.8928 9.41716 26.5443 10.0277 26.8968L19.013 32.0846C19.6235 32.4371 20.3758 32.4371 20.9863 32.0846L29.9716 26.8968C30.5822 26.5443 30.9583 25.8928 30.9583 25.1878V14.8123C30.9583 14.1073 30.5822 13.4558 29.9716 13.1033L20.9863 7.9155Z" fill="url(#paint7_linear_1_4511)"/>
<path d="M18.7421 7.44873C19.5191 7.00008 20.4767 7.0001 21.2538 7.44873L30.2391 12.6362C31.0161 13.0848 31.4949 13.9138 31.495 14.811V25.187C31.4949 26.0842 31.0162 26.9132 30.2391 27.3618L21.2538 32.5493C20.4767 32.998 19.5191 32.998 18.7421 32.5493L9.75769 27.3618C8.98067 26.9132 8.50191 26.0842 8.50183 25.187V14.811C8.50192 13.9138 8.98068 13.0848 9.75769 12.6362L18.7421 7.44873ZM21.0702 9.28271C20.4067 8.89967 19.5891 8.89973 18.9257 9.28271L11.2538 13.7124C10.5903 14.0955 10.1815 14.8037 10.1815 15.5698V24.4282C10.1815 25.1944 10.5903 25.9026 11.2538 26.2856L18.9257 30.7153C19.5891 31.0983 20.4067 31.0984 21.0702 30.7153L28.7421 26.2856C29.4055 25.9025 29.8143 25.1943 29.8143 24.4282V15.5698C29.8143 14.8037 29.4055 14.0955 28.7421 13.7124L21.0702 9.28271Z" fill="#C2852D"/>
<path fill-rule="evenodd" clip-rule="evenodd" d="M21.2548 7.44929C20.4777 7.00063 19.5203 7.00063 18.7432 7.44929L9.75798 12.637C8.9809 13.0857 8.5022 13.9149 8.5022 14.8122V25.1877C8.5022 26.085 8.9809 26.9141 9.75797 27.3628L18.7432 32.5506C19.5203 32.9992 20.4777 32.9992 21.2548 32.5506L30.24 27.3628C31.0171 26.9141 31.4958 26.085 31.4958 25.1877V14.8122C31.4958 13.9149 31.0171 13.0857 30.24 12.637L21.2548 7.44929ZM19.0123 7.91538C19.6229 7.56287 20.3751 7.56287 20.9857 7.91538L29.9709 13.1031C30.5815 13.4557 30.9576 14.1071 30.9576 14.8122V25.1877C30.9576 25.8927 30.5815 26.5442 29.9709 26.8967L20.9857 32.0845C20.3751 32.437 19.6229 32.437 19.0123 32.0845L10.0271 26.8967C9.41651 26.5442 9.04039 25.8927 9.04039 25.1877V14.8122C9.04039 14.1071 9.41651 13.4557 10.0271 13.1031L19.0123 7.91538Z" fill="#B89B68" fill-opacity="0.53"/>
<path d="M26.4237 10.4322L21.2564 7.4488C20.4794 7.00014 19.522 7.00014 18.7449 7.4488L9.75962 12.6366C8.98255 13.0852 8.50385 13.9144 8.50385 14.8117V25.1872C8.50385 26.0845 8.98254 26.9137 9.75962 27.3623L13.1823 29.3384L26.4237 10.4322Z" fill="url(#paint8_linear_1_4511)"/>
</g>
<defs>
<linearGradient id="paint0_linear_1_4511" x1="17.5514" y1="33.0927" x2="10.276" y2="10.9421" gradientUnits="userSpaceOnUse">
<stop stop-color="#BC8931"/>
<stop offset="0.547524" stop-color="#F6D98E"/>
<stop offset="1" stop-color="#FACE7E"/>
</linearGradient>
<linearGradient id="paint1_linear_1_4511" x1="15.1624" y1="23.2435" x2="24.472" y2="7.58212" gradientUnits="userSpaceOnUse">
<stop stop-color="#AB761B"/>
<stop offset="0.48" stop-color="#D5D5D5"/>
<stop offset="1" stop-color="#AD791F"/>
</linearGradient>
<linearGradient id="paint2_linear_1_4511" x1="15.1696" y1="33.2349" x2="32.339" y2="15.4001" gradientUnits="userSpaceOnUse">
<stop stop-color="#AB761B"/>
<stop offset="0.48" stop-color="#D5D5D5"/>
<stop offset="1" stop-color="#AD791F"/>
</linearGradient>
<linearGradient id="paint3_linear_1_4511" x1="15.2618" y1="32.3224" x2="31.1895" y2="14.8245" gradientUnits="userSpaceOnUse">
<stop stop-color="#AB761B"/>
<stop offset="0.48" stop-color="#D5D5D5"/>
<stop offset="1" stop-color="#AD791F"/>
</linearGradient>
<linearGradient id="paint4_linear_1_4511" x1="15.9072" y1="31.4637" x2="30.7769" y2="16.5161" gradientUnits="userSpaceOnUse">
<stop stop-color="#AB761B"/>
<stop offset="0.48" stop-color="#D5D5D5"/>
<stop offset="1" stop-color="#AD791F"/>
</linearGradient>
<linearGradient id="paint5_linear_1_4511" x1="16.5429" y1="30.2587" x2="29.4577" y2="17.912" gradientUnits="userSpaceOnUse">
<stop stop-color="#AB761B"/>
<stop offset="0.48" stop-color="#D5D5D5"/>
<stop offset="1" stop-color="#AD791F"/>
</linearGradient>
<linearGradient id="paint6_linear_1_4511" x1="17.7513" y1="-0.722282" x2="25.3838" y2="31.9692" gradientUnits="userSpaceOnUse">
<stop stop-color="#B98A39"/>
<stop offset="1" stop-color="#A46D0D"/>
</linearGradient>
<linearGradient id="paint7_linear_1_4511" x1="13.6581" y1="9.10322" x2="19.0719" y2="33.4883" gradientUnits="userSpaceOnUse">
<stop stop-color="#FCF3C5"/>
<stop offset="0.519478" stop-color="#C99E55"/>
<stop offset="1" stop-color="#FFE49E"/>
</linearGradient>
<linearGradient id="paint8_linear_1_4511" x1="12.1693" y1="6.78303" x2="15.4658" y2="29.5831" gradientUnits="userSpaceOnUse">
<stop stop-color="#FFEDB6" stop-opacity="0.55"/>
<stop offset="0.292441" stop-color="#FEE9AA" stop-opacity="0.393926"/>
<stop offset="1" stop-color="#FBDF8A" stop-opacity="0"/>
</linearGradient>
<clipPath id="clip0_1_4511">
<rect width="40" height="40" fill="white"/>
</clipPath>
<clipPath id="clip1_1_4511">
<rect width="21.097" height="23.0149" fill="white" transform="translate(9.88257 6.57471)"/>
</clipPath>
</defs>
</svg>
