<svg width="40" height="40" viewBox="0 0 40 40" fill="none" xmlns="http://www.w3.org/2000/svg">
<g clip-path="url(#clip0_1_4071)">
<path d="M39.2129 11.449V11.449C40.2624 17.0781 40.2624 22.8026 39.2129 28.5271V28.5271C38.2588 33.9654 33.9654 38.2588 28.5271 39.2129V39.2129C22.898 40.2624 17.1735 40.2624 11.449 39.2129V39.2129C6.01073 38.2588 1.81276 34.0608 0.858676 28.6225V28.6225C-0.286225 22.9934 -0.286225 17.1735 0.858676 11.449V11.449C1.81276 6.01073 6.01073 1.81276 11.449 0.858676V0.858676C17.0781 -0.286225 22.898 -0.286225 28.6225 0.858676V0.858676C34.0608 1.81276 38.2588 6.01073 39.2129 11.449Z" fill="white"/>
<path fill-rule="evenodd" clip-rule="evenodd" d="M38.2293 28.3468C39.2571 22.7405 39.2565 17.1393 38.2298 11.6323L39.2129 11.449C40.2624 17.0781 40.2624 22.8026 39.2129 28.5271L38.2293 28.3468ZM28.5271 39.2129C33.9654 38.2588 38.2588 33.9654 39.2129 28.5271L38.2279 28.3543C37.3466 33.3779 33.3779 37.3466 28.3543 38.2279L28.5271 39.2129ZM11.449 39.2129C17.1735 40.2624 22.898 40.2624 28.5271 39.2129L28.3438 38.2298C22.8369 39.2565 17.2356 39.2571 11.6293 38.2293L11.449 39.2129ZM28.6225 0.858676L28.4497 1.84363C33.4733 2.72496 37.3466 6.59823 38.2279 11.6218L39.2129 11.449C38.2588 6.01073 34.0608 1.81276 28.6225 0.858676ZM11.449 0.858676C17.0781 -0.286225 22.898 -0.286225 28.6225 0.858676L28.4264 1.83926C22.8303 0.720026 17.1448 0.720683 11.6483 1.83861L11.449 0.858676ZM0.858676 11.449C1.81276 6.01073 6.01073 1.81276 11.449 0.858676L11.6218 1.84363C6.59823 2.72496 2.72496 6.59823 1.84363 11.6218L0.858676 11.449ZM0.858676 11.449L1.83926 11.6451C0.720026 17.2413 0.720683 22.9267 1.83861 28.4232L0.858676 28.6225C-0.286225 22.9934 -0.286225 17.1735 0.858676 11.449ZM0.858676 28.6225C1.81276 34.0608 6.01073 38.2588 11.449 39.2129L11.6218 38.2279C6.59823 37.3466 2.72496 33.4733 1.84363 28.4497L0.858676 28.6225Z" fill="#EEF4FE"/>
<path d="M14.5371 25.757C14.5371 32.8278 20.844 33.2 23.812 33.2C26.78 33.2 33.0871 32.8278 33.0871 25.757C33.0871 19.445 28.9317 16.2441 25.9943 15.0978C24.4639 14.5007 23.1602 14.5007 21.6298 15.0978C18.6924 16.2441 14.5371 19.445 14.5371 25.757Z" fill="white"/>
<path fill-rule="evenodd" clip-rule="evenodd" d="M17.6132 33.0239C19.7887 34.115 22.3176 34.2 23.812 34.2C25.3064 34.2 27.8354 34.115 30.0109 33.0239C31.1187 32.4683 32.1533 31.6434 32.9053 30.4296C33.6574 29.2157 34.0871 27.677 34.0871 25.757C34.0871 18.9081 29.5478 15.411 26.3578 14.1662C24.5937 13.4779 23.0304 13.4778 21.2663 14.1663C18.0763 15.411 13.5371 18.9081 13.5371 25.757C13.5371 27.677 13.9668 29.2157 14.7189 30.4296C15.4709 31.6434 16.5055 32.4683 17.6132 33.0239ZM16.419 29.3763C15.8958 28.5317 15.5371 27.3724 15.5371 25.757C15.5371 19.9818 19.3085 17.0771 21.9933 16.0294C23.2899 15.5235 24.3342 15.5235 25.6308 16.0294C28.3156 17.0771 32.0871 19.9818 32.0871 25.757C32.0871 27.3724 31.7284 28.5317 31.2052 29.3763C30.6819 30.2209 29.9542 30.8149 29.1142 31.2361C27.3942 32.0988 25.2856 32.2 23.812 32.2C22.3384 32.2 20.2299 32.0988 18.5099 31.2362C17.6699 30.8149 16.9423 30.2209 16.419 29.3763Z" fill="#0033C9"/>
<path fill-rule="evenodd" clip-rule="evenodd" d="M24.728 22.1185C24.467 21.9678 24.1088 21.8377 23.6689 21.8755C23.165 21.9188 22.8815 22.0851 22.7333 22.2307C22.5847 22.3768 22.5236 22.5468 22.5236 22.7086C22.5236 22.8726 22.5574 22.9343 22.5667 22.9498C22.5768 22.9667 22.6027 23.0026 22.6898 23.052C22.9167 23.1806 23.2673 23.2554 23.8591 23.3651C23.878 23.3686 23.8972 23.3722 23.9168 23.3758C24.4059 23.4661 25.1008 23.5944 25.6631 23.9243C25.9812 24.1109 26.2882 24.3768 26.5095 24.7577C26.731 25.1389 26.8299 25.572 26.8299 26.0359C26.8299 26.7505 26.4422 27.3127 26.0024 27.6843C25.5603 28.0579 24.9926 28.31 24.4037 28.4395C23.2319 28.6972 21.7384 28.5147 20.5974 27.4734C20.1895 27.1012 20.1605 26.4686 20.5328 26.0607C20.9051 25.6528 21.5376 25.6238 21.9456 25.9961C22.5065 26.508 23.2922 26.6361 23.9741 26.4862C24.3121 26.4118 24.565 26.2805 24.7116 26.1566C24.7951 26.086 24.8222 26.0395 24.8299 26.0218C24.828 25.8557 24.7939 25.786 24.7803 25.7626C24.7661 25.7382 24.7367 25.6996 24.651 25.6493C24.4284 25.5187 24.0801 25.4402 23.4945 25.3316C23.4684 25.3268 23.4415 25.3218 23.414 25.3168C22.9318 25.2281 22.2525 25.1032 21.7032 24.7917C21.3866 24.6121 21.0761 24.3535 20.8507 23.9771C20.6245 23.5993 20.5236 23.1688 20.5236 22.7086C20.5236 21.2429 21.686 20.0385 23.4977 19.8829C24.4475 19.8013 25.2127 20.0891 25.7276 20.3862C25.9849 20.5347 26.1859 20.6887 26.326 20.8091C26.3965 20.8697 26.4526 20.9226 26.494 20.9636C26.5147 20.9841 26.5317 21.0016 26.5451 21.0157L26.5625 21.0342L26.5691 21.0415L26.5719 21.0445L26.5731 21.0459L26.5737 21.0466C26.574 21.0469 26.5743 21.0472 25.8466 21.7001L26.5743 21.0472C26.9431 21.4583 26.9088 22.0906 26.4977 22.4594C26.0896 22.8255 25.4636 22.7943 25.0937 22.3918C25.0937 22.3917 25.0937 22.3917 25.0937 22.3917C25.0925 22.3905 25.0902 22.3881 25.0868 22.3848C25.0759 22.374 25.0542 22.3532 25.0226 22.3261C24.9587 22.2711 24.8586 22.1938 24.728 22.1185ZM24.8325 26.0139C24.8326 26.0139 24.8324 26.0154 24.8313 26.0183C24.8318 26.0153 24.8324 26.0138 24.8325 26.0139Z" fill="#0033C9"/>
<path fill-rule="evenodd" clip-rule="evenodd" d="M23.7539 18.6C24.3062 18.6 24.7539 19.0477 24.7539 19.6L24.7539 20.8688C24.7539 21.4211 24.3062 21.8688 23.7539 21.8688C23.2016 21.8688 22.7539 21.4211 22.7539 20.8688L22.7539 19.6C22.7539 19.0477 23.2016 18.6 23.7539 18.6Z" fill="#0033C9"/>
<path fill-rule="evenodd" clip-rule="evenodd" d="M23.7539 26.5311C24.3062 26.5311 24.7539 26.9788 24.7539 27.5311L24.7539 28.8C24.7539 29.3523 24.3062 29.8 23.7539 29.8C23.2016 29.8 22.7539 29.3523 22.7539 28.8L22.7539 27.5311C22.7539 26.9788 23.2016 26.5311 23.7539 26.5311Z" fill="#0033C9"/>
<path d="M21.0339 15.3499C19.6882 14.1826 19.0227 13.3182 18.5185 12.1418C18.2396 11.4912 18.7551 10.7999 19.4628 10.7999H27.8105C28.5183 10.7999 29.0337 11.4912 28.7549 12.1418C28.2506 13.3182 27.5852 14.1826 26.2395 15.3499H21.0339Z" fill="white"/>
<path fill-rule="evenodd" clip-rule="evenodd" d="M19.4607 11.8C19.8534 12.6985 20.3589 13.3984 21.413 14.3499H25.8614C26.9156 13.3984 27.4211 12.6985 27.8137 11.8C27.8129 11.7999 27.812 11.7999 27.8111 11.7999H19.4634C19.4625 11.7999 19.4616 11.7999 19.4607 11.8ZM17.5999 12.5357C17.0007 11.1379 18.1353 9.79993 19.4634 9.79993H27.8111C29.1391 9.79993 30.2737 11.1379 29.6746 12.5357C29.0945 13.889 28.3192 14.8702 26.8953 16.1053C26.7135 16.2631 26.4808 16.3499 26.24 16.3499H21.0344C20.7937 16.3499 20.561 16.2631 20.3791 16.1053C18.9553 14.8702 18.1799 13.889 17.5999 12.5357Z" fill="#0033C9"/>
<path fill-rule="evenodd" clip-rule="evenodd" d="M16.7883 14.3128C16.8889 13.2625 16.6174 12.2651 16.081 11.4471C15.7782 10.9852 15.9072 10.3653 16.3691 10.0625C16.8309 9.75969 17.4508 9.88864 17.7536 10.3505C18.5303 11.5352 18.9247 12.9842 18.7792 14.5033C18.4394 18.0533 15.2861 20.6556 11.7362 20.3158C8.18622 19.976 5.58389 16.8227 5.9237 13.2727C6.26352 9.72278 9.41681 7.12045 12.9668 7.46027L12.7762 9.45117C10.3258 9.2166 8.14917 11.0129 7.9146 13.4633C7.68004 15.9137 9.47634 18.0903 11.9268 18.3249C14.3772 18.5595 16.5538 16.7632 16.7883 14.3128Z" fill="#0033C9"/>
<path fill-rule="evenodd" clip-rule="evenodd" d="M16.5898 14.2937C16.6859 13.2903 16.4267 12.3381 15.9144 11.5567C15.551 11.0024 15.7058 10.2586 16.26 9.89521C16.8142 9.53184 17.5581 9.68659 17.9215 10.2408C18.7222 11.4622 19.1288 12.9564 18.9789 14.5224C18.6286 18.1823 15.3776 20.8652 11.7177 20.5149C8.05781 20.1645 5.37487 16.9136 5.72522 13.2537C6.07556 9.59375 9.32651 6.91081 12.9864 7.26116L12.7577 9.65023C10.4173 9.4262 8.33833 11.1419 8.11429 13.4824C7.89026 15.8228 9.60595 17.9018 11.9464 18.1258C14.2869 18.3498 16.3658 16.6341 16.5898 14.2937Z" fill="#00CF6A"/>
<path fill-rule="evenodd" clip-rule="evenodd" d="M13.1772 5.27028C14.2767 5.37554 15.0827 6.35222 14.9775 7.45176L14.884 8.42811C14.9725 8.35546 15.0657 8.28683 15.1636 8.22264C16.6416 7.25367 18.6253 7.66632 19.5942 9.14432C20.6352 10.7321 21.1648 12.678 20.97 14.713C20.5144 19.4724 16.2868 22.9614 11.5273 22.5058C6.76785 22.0502 3.27888 17.8226 3.73448 13.0631C4.19008 8.30366 8.41771 4.81469 13.1772 5.27028ZM13.7544 11.3845C13.4071 11.5845 12.9966 11.6823 12.5673 11.6412C11.3264 11.5224 10.2241 12.432 10.1054 13.673C9.98657 14.9139 10.8962 16.0161 12.1372 16.1349C13.3781 16.2537 14.4803 15.344 14.5991 14.1031C14.6503 13.5685 14.5138 13.0679 14.2419 12.6533C13.9821 12.2569 13.8216 11.8243 13.7544 11.3845ZM10.9666 7.37488C8.19853 7.96297 6.00932 10.2875 5.72538 13.2537C5.37504 16.9136 8.05797 20.1646 11.7179 20.5149C15.3778 20.8652 18.6287 18.1823 18.9791 14.5224C19.129 12.9564 18.7224 11.4622 17.9217 10.2409C17.5583 9.68662 16.8144 9.53187 16.2602 9.89524C15.7059 10.2586 15.5512 11.0025 15.9145 11.5567C16.4268 12.3381 16.6861 13.2904 16.59 14.2937C16.366 16.6342 14.287 18.3499 11.9466 18.1258C9.60612 17.9018 7.89042 15.8228 8.11446 13.4824C8.3385 11.1419 10.4174 9.42622 12.7579 9.65026L12.9866 7.26118C12.2929 7.19478 11.6139 7.23735 10.9666 7.37488Z" fill="white"/>
<path fill-rule="evenodd" clip-rule="evenodd" d="M11.9855 6.08274C12.4101 5.72955 13.0406 5.78744 13.3938 6.21203L14.7423 7.83318C15.0726 8.23029 15.0462 8.81364 14.6812 9.17919L13.3034 10.5593C12.9132 10.9502 12.28 10.9507 11.8892 10.5605C11.4983 10.1703 11.4978 9.53716 11.888 9.14631L12.6217 8.41133L11.8562 7.49103C11.503 7.06644 11.5609 6.43593 11.9855 6.08274Z" fill="#00CF6A"/>
</g>
<defs>
<clipPath id="clip0_1_4071">
<rect width="40" height="40" fill="white"/>
</clipPath>
</defs>
</svg>
