<svg width="40" height="40" viewBox="0 0 40 40" fill="none" xmlns="http://www.w3.org/2000/svg">
<g clip-path="url(#clip0_1_5791)">
<rect width="40" height="40" fill="white"/>
<path fill-rule="evenodd" clip-rule="evenodd" d="M38.2293 28.3468C39.2571 22.7405 39.2565 17.1393 38.2298 11.6323L39.2129 11.449C40.2624 17.0781 40.2624 22.8026 39.2129 28.5271L38.2293 28.3468ZM28.5271 39.2129C33.9654 38.2588 38.2588 33.9654 39.2129 28.5271L38.2279 28.3543C37.3466 33.3779 33.3779 37.3466 28.3543 38.2279L28.5271 39.2129ZM11.449 39.2129C17.1735 40.2624 22.898 40.2624 28.5271 39.2129L28.3438 38.2298C22.8369 39.2565 17.2356 39.2571 11.6293 38.2293L11.449 39.2129ZM28.6225 0.858676L28.4497 1.84363C33.4733 2.72496 37.3466 6.59823 38.2279 11.6218L39.2129 11.449C38.2588 6.01073 34.0608 1.81276 28.6225 0.858676ZM11.449 0.858676C17.0781 -0.286225 22.898 -0.286225 28.6225 0.858676L28.4264 1.83926C22.8303 0.720026 17.1448 0.720683 11.6483 1.83861L11.449 0.858676ZM0.858676 11.449C1.81276 6.01073 6.01073 1.81276 11.449 0.858676L11.6218 1.84363C6.59823 2.72496 2.72496 6.59823 1.84363 11.6218L0.858676 11.449ZM0.858676 11.449L1.83926 11.6451C0.720026 17.2413 0.720683 22.9267 1.83861 28.4232L0.858676 28.6225C-0.286225 22.9934 -0.286225 17.1735 0.858676 11.449ZM0.858676 28.6225C1.81276 34.0608 6.01073 38.2588 11.449 39.2129L11.6218 38.2279C6.59823 37.3466 2.72496 33.4733 1.84363 28.4497L0.858676 28.6225Z" fill="#F0F5FE"/>
<path fill-rule="evenodd" clip-rule="evenodd" d="M11.6335 14.034V16.6006C11.6335 17.0609 11.2604 17.434 10.8001 17.434C10.3399 17.434 9.9668 17.0609 9.9668 16.6006V12.1915C9.9668 9.85854 11.8581 7.96729 14.191 7.96729H26.2001C27.544 7.96729 28.6335 9.05673 28.6335 10.4006V12.4377C31.2597 12.8446 33.4187 14.9742 33.5621 17.7506C33.609 18.658 33.6328 19.6543 33.6328 20.9584C33.6328 22.8178 33.5844 24.534 33.4912 26.2142C33.331 29.1003 31.0215 31.3538 28.1949 31.6367C26.1045 31.846 23.9244 32.034 21.6904 32.034C19.3727 32.034 17.1124 31.8316 14.9501 31.613C12.281 31.3431 9.9918 29.2096 9.96876 26.4075C9.96498 25.9473 10.335 25.5711 10.7952 25.5673C11.2554 25.5636 11.6316 25.9336 11.6354 26.3938C11.6505 28.2288 13.1731 29.7582 15.1178 29.9548C17.2736 30.1728 19.4627 30.3673 21.6904 30.3673C23.837 30.3673 25.9484 30.1866 28.0288 29.9784C30.0886 29.7722 31.7151 28.139 31.8271 26.1219C31.9186 24.4734 31.9661 22.7881 31.9661 20.9584C31.9661 19.6751 31.9427 18.7084 31.8977 17.8366C31.7875 15.7036 29.9301 14.034 27.7192 14.034L11.6335 14.034ZM11.6335 12.1915C11.6335 10.779 12.7785 9.63395 14.191 9.63395H26.2001C26.6236 9.63395 26.9668 9.9772 26.9668 10.4006V12.3673L11.6335 12.3673V12.1915Z" fill="#0033CC"/>
<rect x="27.5996" y="19.2007" width="2.4" height="5.2" rx="1.2" fill="#00D16B"/>
<path d="M17.1641 21.6495C17.1636 21.6583 17.1639 21.6671 17.1631 21.6759C17.1618 21.6906 17.1593 21.7052 17.1572 21.7199C17.1552 21.7342 17.1532 21.7486 17.1504 21.7628C17.1484 21.773 17.1459 21.783 17.1436 21.7931C17.1398 21.8091 17.1356 21.8251 17.1309 21.8409C17.1284 21.8492 17.1248 21.8572 17.1221 21.8654C17.1161 21.8833 17.1108 21.9015 17.1035 21.9191C17.0998 21.9281 17.0948 21.9365 17.0908 21.9454C17.0844 21.9596 17.0776 21.9736 17.0703 21.9874C17.0611 22.005 17.0515 22.0223 17.041 22.0392C17.038 22.044 17.0353 22.0491 17.0322 22.0538C17.019 22.0743 17.0044 22.094 16.9893 22.1134C16.9873 22.116 16.9854 22.1187 16.9834 22.1212L15.3838 24.1212C15.0963 24.4806 14.5713 24.5395 14.2119 24.2521C13.8525 23.9646 13.7945 23.4396 14.082 23.0802L14.6201 22.4083L8.33301 22.4083C7.87292 22.4082 7.5 22.0354 7.5 21.5753C7.50002 21.1152 7.87293 20.7425 8.33301 20.7423L14.5791 20.7423L14.082 20.1212C13.7947 19.7619 13.8527 19.2378 14.2119 18.9503C14.5713 18.6628 15.0963 18.7208 15.3838 19.0802L16.9834 21.0802C16.9885 21.0865 16.9932 21.0933 16.998 21.0997C17.0095 21.1149 17.021 21.1299 17.0312 21.1456C17.0377 21.1554 17.0429 21.1659 17.0488 21.1759C17.0552 21.1867 17.0625 21.1971 17.0684 21.2081C17.0773 21.2248 17.0851 21.2419 17.0928 21.2589C17.0962 21.2665 17.1004 21.2737 17.1035 21.2814C17.1113 21.3002 17.1167 21.3198 17.123 21.339C17.1254 21.3462 17.1287 21.3532 17.1309 21.3605C17.1353 21.3753 17.139 21.3904 17.1426 21.4054C17.1452 21.4165 17.1482 21.4275 17.1504 21.4386C17.1532 21.4529 17.1552 21.4672 17.1572 21.4816C17.1593 21.4962 17.1617 21.5108 17.1631 21.5255C17.1633 21.5281 17.1629 21.5307 17.1631 21.5333L17.166 21.589L17.166 21.6134C17.1658 21.6255 17.1648 21.6375 17.1641 21.6495Z" fill="#00D16B"/>
</g>
<defs>
<clipPath id="clip0_1_5791">
<rect width="40" height="40" fill="white"/>
</clipPath>
</defs>
</svg>
