<svg width="40" height="40" viewBox="0 0 40 40" fill="none" xmlns="http://www.w3.org/2000/svg">
<g clip-path="url(#clip0_1_5996)">
<path d="M39.2129 11.449V11.449C40.2624 17.0781 40.2624 22.8026 39.2129 28.5271V28.5271C38.2588 33.9654 33.9654 38.2588 28.5271 39.2129V39.2129C22.898 40.2624 17.1735 40.2624 11.449 39.2129V39.2129C6.01073 38.2588 1.81276 34.0608 0.858676 28.6225V28.6225C-0.286225 22.9934 -0.286225 17.1735 0.858676 11.449V11.449C1.81276 6.01073 6.01073 1.81276 11.449 0.858676V0.858676C17.0781 -0.286225 22.898 -0.286225 28.6225 0.858676V0.858676C34.0608 1.81276 38.2588 6.01073 39.2129 11.449Z" fill="white"/>
<path fill-rule="evenodd" clip-rule="evenodd" d="M38.2293 28.3468C39.2571 22.7405 39.2565 17.1393 38.2298 11.6323L39.2129 11.449C40.2624 17.0781 40.2624 22.8026 39.2129 28.5271L38.2293 28.3468ZM28.5271 39.2129C33.9654 38.2588 38.2588 33.9654 39.2129 28.5271L38.2279 28.3543C37.3466 33.3779 33.3779 37.3466 28.3543 38.2279L28.5271 39.2129ZM11.449 39.2129C17.1735 40.2624 22.898 40.2624 28.5271 39.2129L28.3438 38.2298C22.8369 39.2565 17.2356 39.2571 11.6293 38.2293L11.449 39.2129ZM28.6225 0.858676L28.4497 1.84363C33.4733 2.72496 37.3466 6.59823 38.2279 11.6218L39.2129 11.449C38.2588 6.01073 34.0608 1.81276 28.6225 0.858676ZM11.449 0.858676C17.0781 -0.286225 22.898 -0.286225 28.6225 0.858676L28.4264 1.83926C22.8303 0.720026 17.1448 0.720683 11.6483 1.83861L11.449 0.858676ZM0.858676 11.449C1.81276 6.01073 6.01073 1.81276 11.449 0.858676L11.6218 1.84363C6.59823 2.72496 2.72496 6.59823 1.84363 11.6218L0.858676 11.449ZM0.858676 11.449L1.83926 11.6451C0.720026 17.2413 0.720683 22.9267 1.83861 28.4232L0.858676 28.6225C-0.286225 22.9934 -0.286225 17.1735 0.858676 11.449ZM0.858676 28.6225C1.81276 34.0608 6.01073 38.2588 11.449 39.2129L11.6218 38.2279C6.59823 37.3466 2.72496 33.4733 1.84363 28.4497L0.858676 28.6225Z" fill="#EEF4FE"/>
<path fill-rule="evenodd" clip-rule="evenodd" d="M10.498 18.5797C15.5967 24.1723 24.3993 24.1723 29.498 18.5797C29.4564 16.7207 29.2463 14.904 29.043 13.1451C29.0038 12.8066 28.9649 12.4703 28.9276 12.1362C28.8364 11.3222 28.121 10.6723 27.2143 10.5737C26.8623 10.5355 26.508 10.4956 26.1513 10.4554C24.164 10.2317 22.106 10 19.998 10C17.89 10 15.8321 10.2317 13.8448 10.4554C13.4881 10.4956 13.1337 10.5355 12.7818 10.5737C11.8751 10.6723 11.1596 11.3222 11.0685 12.1362C11.0312 12.4703 10.9923 12.8066 10.9531 13.145C10.7498 14.9039 10.5397 16.7207 10.498 18.5797ZM17.2445 12C16.5572 12 16 12.5572 16 13.2445V19.1184C16 19.6053 16.3947 20 16.8816 20C17.3669 20 17.7609 19.6078 17.7632 19.1226L17.7831 14.9157L17.9036 15.1084L18.5542 16.0964L19.1679 16.9863C19.5678 17.5661 20.4259 17.5618 20.82 16.978L21.3012 16.2651L21.8313 15.4699L22.2169 14.8675L22.2368 19.1226C22.2391 19.6078 22.6331 20 23.1184 20C23.6053 20 24 19.6053 24 19.1184V13.2357C24 12.5533 23.4467 12 22.7643 12C22.3344 12 21.9353 12.2234 21.7107 12.59L21.6145 12.747L21.3253 13.2048L20.9398 13.8313L20.5783 14.4096L20.2651 14.9157L20 15.3253L19.759 14.9398L19.3735 14.3133L18.6506 13.1566L18.2651 12.5301C18.0549 12.1999 17.6907 12 17.2994 12H17.2445Z" fill="#00CF6A"/>
<path d="M23 25C23 24.4477 23.4477 24 24 24H26C26.5523 24 27 24.4477 27 25C27 25.5523 26.5523 26 26 26H24C23.4477 26 23 25.5523 23 25Z" fill="#0033C9"/>
<path d="M13 25C13 24.4477 13.4477 24 14 24H16C16.5523 24 17 24.4477 17 25C17 25.5523 16.5523 26 16 26H14C13.4477 26 13 25.5523 13 25Z" fill="#0033C9"/>
<path fill-rule="evenodd" clip-rule="evenodd" d="M29.9572 25.676C29.8263 26.7951 29.1135 27.7334 28.1309 28.1838L30.5424 31.9621C30.8396 32.4277 30.7031 33.0459 30.2375 33.3431C29.772 33.6402 29.1537 33.5037 28.8566 33.0382L28.1833 31.9833C28.1239 31.9942 28.0627 32 28.0002 32H12.0002C11.9371 32 11.8753 31.9941 11.8154 31.9829L11.1419 33.0382C10.8447 33.5037 10.2265 33.6402 9.76094 33.3431C9.2954 33.0459 9.15888 32.4277 9.45602 31.9621L11.8679 28.1833C10.886 27.7326 10.1736 26.7947 10.0428 25.676C10.0189 25.4722 9.99455 25.2666 9.96997 25.0594L9.96872 25.0489C9.74248 23.1414 9.5 21.0971 9.5 19C9.5 18.8552 9.50116 18.7106 9.50338 18.5663L9.5 18.5573C9.50448 18.3577 9.51084 18.1587 9.51887 17.9602C9.58007 16.2279 9.78004 14.5419 9.96872 12.9511C9.99255 12.7503 10.0162 12.5509 10.0394 12.3532C10.0519 12.2435 10.0642 12.1341 10.0764 12.025C10.2215 10.729 11.2852 9.80209 12.5107 9.60199C12.6209 9.57797 12.7333 9.55969 12.8474 9.54746C13.1404 9.51607 13.4369 9.48348 13.7362 9.45057C15.4122 9.26631 17.1841 9.0715 19.0003 9.01574C19.0002 9.01057 19.0002 9.00539 19.0002 9.00019L19.0001 8L17 8C16.4477 8 16 7.55229 16 7C16 6.44772 16.4477 6 17 6L23 6C23.5523 6 24 6.44772 24 7C24 7.55229 23.5523 8 23 8L21.0001 8L21.0002 9.00003C21.0002 9.00528 21.0002 9.01052 21.0001 9.01575C22.8162 9.07154 24.5875 9.26628 26.2634 9.45052C26.5629 9.48345 26.8594 9.51605 27.1526 9.54746C27.2673 9.55974 27.3801 9.57814 27.4908 9.60232C28.7155 9.8031 29.7781 10.7298 29.923 12.025L29.9521 12.2827L29.9572 12.324C29.9815 12.5313 30.0063 12.7404 30.0313 12.9511C30.2234 14.5711 30.4273 16.2898 30.4844 18.0557C30.4907 18.2225 30.4957 18.3897 30.4995 18.5573L30.4966 18.565C30.4988 18.7098 30.5 18.8547 30.5 19C30.5 21.0971 30.2575 23.1414 30.0313 25.0489C30.0063 25.2596 29.9815 25.4687 29.9572 25.676ZM20 29C22.0734 29 24.1008 28.7868 26.0094 28.5774L26.9174 30L13.0811 30L13.9892 28.5772C15.8982 28.7867 17.9261 29 20 29ZM19.9998 11C17.9568 11 15.9538 11.2245 13.9583 11.4492L13.9573 11.4493C13.6014 11.4894 13.2454 11.5294 12.8915 11.5679L12.8858 11.5685C12.4318 11.6897 12.085 12.08 12.0292 12.5564L12.0262 12.5823C12.0006 12.8068 11.9745 13.0326 11.9485 13.2577L11.9482 13.2599C11.7647 14.8471 11.5812 16.4389 11.5166 18.0558C11.515 18.1025 11.5135 18.1493 11.5121 18.1962C16.1578 22.967 23.8424 22.9668 28.4879 18.1956L28.4862 18.1429C28.4249 16.4961 28.238 14.8751 28.0512 13.2593C28.0231 13.0159 27.9949 12.772 27.9672 12.5291C27.9017 12.0652 27.5597 11.6876 27.1146 11.5686L27.108 11.5679C26.7541 11.5294 26.3982 11.4894 26.0422 11.4493L26.0412 11.4492C24.0458 11.2245 22.0426 11 19.9998 11ZM28.4353 20.9142C23.4813 24.7273 16.5188 24.7275 11.5648 20.9146C11.6486 22.2266 11.8023 23.5245 11.9557 24.8205C11.9803 25.0281 12.0049 25.2361 12.0292 25.4436C12.0919 25.9795 12.5228 26.4063 13.0605 26.4639C13.3622 26.4962 13.6639 26.5294 13.9659 26.5625C15.9552 26.7808 17.9527 27 20 27C22.0473 27 24.0448 26.7808 26.0341 26.5625L26.0356 26.5623C26.337 26.5293 26.6383 26.4962 26.9395 26.4639C27.4772 26.4063 27.9081 25.9795 27.9708 25.4436C27.9949 25.2372 28.0194 25.0301 28.0439 24.8237L28.0442 24.8212L28.0443 24.8202C28.1978 23.5239 28.3514 22.2263 28.4353 20.9142Z" fill="#0033C9"/>
</g>
<defs>
<clipPath id="clip0_1_5996">
<rect width="40" height="40" fill="white"/>
</clipPath>
</defs>
</svg>
