<svg width="40" height="40" viewBox="0 0 40 40" fill="none" xmlns="http://www.w3.org/2000/svg">
<g clip-path="url(#clip0_1_3876)">
<path d="M39.2129 11.449V11.449C40.2624 17.0781 40.2624 22.8026 39.2129 28.5271V28.5271C38.2588 33.9654 33.9654 38.2588 28.5271 39.2129V39.2129C22.898 40.2624 17.1735 40.2624 11.449 39.2129V39.2129C6.01073 38.2588 1.81276 34.0608 0.858676 28.6225V28.6225C-0.286225 22.9934 -0.286225 17.1735 0.858676 11.449V11.449C1.81276 6.01073 6.01073 1.81276 11.449 0.858676V0.858676C17.0781 -0.286225 22.898 -0.286225 28.6225 0.858676V0.858676C34.0608 1.81276 38.2588 6.01073 39.2129 11.449Z" fill="white"/>
<path fill-rule="evenodd" clip-rule="evenodd" d="M38.2293 28.3468C39.2571 22.7405 39.2565 17.1393 38.2298 11.6323L39.2129 11.449C40.2624 17.0781 40.2624 22.8026 39.2129 28.5271L38.2293 28.3468ZM28.5271 39.2129C33.9654 38.2588 38.2588 33.9654 39.2129 28.5271L38.2279 28.3543C37.3466 33.3779 33.3779 37.3466 28.3543 38.2279L28.5271 39.2129ZM11.449 39.2129C17.1735 40.2624 22.898 40.2624 28.5271 39.2129L28.3438 38.2298C22.8369 39.2565 17.2356 39.2571 11.6293 38.2293L11.449 39.2129ZM28.6225 0.858676L28.4497 1.84363C33.4733 2.72496 37.3466 6.59823 38.2279 11.6218L39.2129 11.449C38.2588 6.01073 34.0608 1.81276 28.6225 0.858676ZM11.449 0.858676C17.0781 -0.286225 22.898 -0.286225 28.6225 0.858676L28.4264 1.83926C22.8303 0.720026 17.1448 0.720683 11.6483 1.83861L11.449 0.858676ZM0.858676 11.449C1.81276 6.01073 6.01073 1.81276 11.449 0.858676L11.6218 1.84363C6.59823 2.72496 2.72496 6.59823 1.84363 11.6218L0.858676 11.449ZM0.858676 11.449L1.83926 11.6451C0.720026 17.2413 0.720683 22.9267 1.83861 28.4232L0.858676 28.6225C-0.286225 22.9934 -0.286225 17.1735 0.858676 11.449ZM0.858676 28.6225C1.81276 34.0608 6.01073 38.2588 11.449 39.2129L11.6218 38.2279C6.59823 37.3466 2.72496 33.4733 1.84363 28.4497L0.858676 28.6225Z" fill="#EEF4FE"/>
<path d="M16.691 15.9284C19.1211 15.9284 21.091 13.9585 21.091 11.5284C21.091 9.09837 19.1211 7.12842 16.691 7.12842C14.261 7.12842 12.291 9.09837 12.291 11.5284C12.291 13.9585 14.261 15.9284 16.691 15.9284Z" fill="white"/>
<path fill-rule="evenodd" clip-rule="evenodd" d="M16.691 8.12842C14.8132 8.12842 13.291 9.65065 13.291 11.5284C13.291 13.4062 14.8132 14.9284 16.691 14.9284C18.5688 14.9284 20.091 13.4062 20.091 11.5284C20.091 9.65065 18.5688 8.12842 16.691 8.12842ZM11.291 11.5284C11.291 8.54608 13.7087 6.12842 16.691 6.12842C19.6734 6.12842 22.091 8.54608 22.091 11.5284C22.091 14.5108 19.6734 16.9284 16.691 16.9284C13.7087 16.9284 11.291 14.5108 11.291 11.5284Z" fill="#0033C9"/>
<path fill-rule="evenodd" clip-rule="evenodd" d="M9.84292 22.1324C9.83381 22.1443 9.81443 22.1721 9.78807 22.2237C9.73092 22.3357 9.66676 22.5099 9.60745 22.7573C9.49125 23.2421 9.41942 23.8973 9.40021 24.6658C9.48205 25.6828 9.75838 28.119 10.2355 30.0936C10.3652 30.6304 10.0352 31.1708 9.49838 31.3005C8.96155 31.4302 8.4212 31.1002 8.29148 30.5634C7.77136 28.4109 7.483 25.8091 7.4023 24.7712L7.39844 24.7215L7.39953 24.6717C7.41851 23.8051 7.49821 22.9767 7.66254 22.2911C7.74474 21.9482 7.85483 21.6121 8.00656 21.3148C8.15472 21.0244 8.37454 20.708 8.70812 20.4852C10.9373 18.9964 13.6173 18.1285 16.4969 18.1285C19.3766 18.1285 22.0566 18.9964 24.2858 20.4852C24.7704 20.8089 25.031 21.3404 25.1846 21.7834C25.3494 22.2591 25.4537 22.8202 25.5167 23.4075C25.6432 24.5872 25.6181 26.0187 25.4793 27.414C25.4711 27.4974 25.4628 27.58 25.4547 27.662C25.24 29.824 25.0699 31.5367 24.7058 33.1488C24.5841 33.6875 24.0488 34.0256 23.5101 33.9039C22.9714 33.7822 22.6333 33.2469 22.755 32.7082C23.0913 31.2189 23.2504 29.6188 23.4723 27.386C23.4779 27.3297 23.4835 27.2731 23.4892 27.2161C23.6187 25.9135 23.6359 24.6259 23.5281 23.6209C23.4739 23.1159 23.3919 22.7183 23.2948 22.4384C23.2194 22.2206 23.1592 22.1443 23.1517 22.1329C21.2457 20.8664 18.959 20.1285 16.4969 20.1285C14.0352 20.1285 11.7487 20.8662 9.84292 22.1324Z" fill="#0033C9"/>
<path d="M19.4947 28.9448C19.2406 28.5636 8.88678 28.0394 8.88678 28.0394C8.88678 29.0051 9.68352 32.2042 10.6976 32.9285H19.4947C19.8568 32.2042 20.219 30.0312 19.4947 28.9448Z" fill="white"/>
<path fill-rule="evenodd" clip-rule="evenodd" d="M8.93735 27.0406L8.88678 28.0394C8.93735 27.0406 8.93725 27.0406 8.93735 27.0406L9.05487 27.0467L9.38526 27.064C9.66981 27.0792 10.0764 27.1012 10.565 27.1288C11.5418 27.1841 12.8482 27.2617 14.1635 27.3514C15.4764 27.441 16.808 27.5432 17.8316 27.6477C18.3407 27.6996 18.7905 27.7539 19.129 27.8098C19.2949 27.8372 19.4595 27.8691 19.5997 27.9078C19.6676 27.9266 19.7589 27.9547 19.8523 27.9967C19.8536 27.9973 19.855 27.9979 19.8566 27.9986C19.9104 28.0226 20.1544 28.1315 20.3267 28.3901C20.8741 29.2111 20.9493 30.3001 20.9004 31.1311C20.8504 31.9812 20.6512 32.8515 20.3891 33.3757C20.2197 33.7145 19.8735 33.9285 19.4947 33.9285H10.6976C10.4891 33.9285 10.2859 33.8634 10.1163 33.7422C9.66597 33.4205 9.33706 32.9117 9.10007 32.457C8.84849 31.9744 8.63383 31.42 8.46014 30.8813C8.12295 29.8354 7.88678 28.6774 7.88678 28.0394C7.88678 27.7654 7.9992 27.5034 8.19778 27.3146C8.39636 27.1258 8.6637 27.0268 8.93735 27.0406ZM10.048 29.103C10.1257 29.455 10.2312 29.8567 10.3637 30.2676C10.5159 30.7399 10.6906 31.1815 10.8736 31.5326C10.9648 31.7076 11.0461 31.8365 11.1128 31.9285H18.7749C18.833 31.6732 18.8836 31.3572 18.9038 31.0137C18.934 30.5018 18.8869 30.0774 18.7917 29.7812C18.5158 29.736 18.1191 29.6874 17.6284 29.6373C16.6392 29.5363 15.3347 29.436 14.0274 29.3468C12.7225 29.2578 11.4245 29.1806 10.4521 29.1256C10.3101 29.1176 10.1751 29.1101 10.048 29.103Z" fill="#0033C9"/>
<path fill-rule="evenodd" clip-rule="evenodd" d="M20.9845 19.3922C21.46 19.6731 21.6177 20.2863 21.3367 20.7618L16.6287 28.7292C16.3477 29.2047 15.7345 29.3624 15.259 29.0814C14.7835 28.8005 14.6258 28.1873 14.9068 27.7118L19.6148 19.7444C19.8958 19.2689 20.509 19.1112 20.9845 19.3922Z" fill="#0033C9"/>
<path d="M25.1993 12.0437V8.50972C25.1993 8.14019 25.4553 7.82561 25.8011 7.69542C27.1152 7.20071 27.9948 6.66911 29.2829 6.06609C29.4823 5.97273 29.7137 5.97885 29.9089 6.08087C31.1647 6.73746 32.0448 7.25692 33.3667 7.70986C33.7273 7.83345 33.9993 8.1549 33.9993 8.53617V12.0437C33.9993 14.3285 31.1102 16.303 29.6435 16.7285C28.1769 16.303 25.1993 14.3285 25.1993 12.0437Z" fill="#00CF6A"/>
</g>
<defs>
<clipPath id="clip0_1_3876">
<rect width="40" height="40" fill="white"/>
</clipPath>
</defs>
</svg>
