<svg width="40" height="40" viewBox="0 0 40 40" fill="none" xmlns="http://www.w3.org/2000/svg">
<g clip-path="url(#clip0_1_3916)">
<path d="M39.2129 11.449V11.449C40.2624 17.0781 40.2624 22.8026 39.2129 28.5271V28.5271C38.2588 33.9654 33.9654 38.2588 28.5271 39.2129V39.2129C22.898 40.2624 17.1735 40.2624 11.449 39.2129V39.2129C6.01073 38.2588 1.81276 34.0608 0.858676 28.6225V28.6225C-0.286225 22.9934 -0.286225 17.1735 0.858676 11.449V11.449C1.81276 6.01073 6.01073 1.81276 11.449 0.858676V0.858676C17.0781 -0.286225 22.898 -0.286225 28.6225 0.858676V0.858676C34.0608 1.81276 38.2588 6.01073 39.2129 11.449Z" fill="white"/>
<path fill-rule="evenodd" clip-rule="evenodd" d="M38.2293 28.3468C39.2571 22.7405 39.2565 17.1393 38.2298 11.6323L39.2129 11.449C40.2624 17.0781 40.2624 22.8026 39.2129 28.5271L38.2293 28.3468ZM28.5271 39.2129C33.9654 38.2588 38.2588 33.9654 39.2129 28.5271L38.2279 28.3543C37.3466 33.3779 33.3779 37.3466 28.3543 38.2279L28.5271 39.2129ZM11.449 39.2129C17.1735 40.2624 22.898 40.2624 28.5271 39.2129L28.3438 38.2298C22.8369 39.2565 17.2356 39.2571 11.6293 38.2293L11.449 39.2129ZM28.6225 0.858676L28.4497 1.84363C33.4733 2.72496 37.3466 6.59823 38.2279 11.6218L39.2129 11.449C38.2588 6.01073 34.0608 1.81276 28.6225 0.858676ZM11.449 0.858676C17.0781 -0.286225 22.898 -0.286225 28.6225 0.858676L28.4264 1.83926C22.8303 0.720026 17.1448 0.720683 11.6483 1.83861L11.449 0.858676ZM0.858676 11.449C1.81276 6.01073 6.01073 1.81276 11.449 0.858676L11.6218 1.84363C6.59823 2.72496 2.72496 6.59823 1.84363 11.6218L0.858676 11.449ZM0.858676 11.449L1.83926 11.6451C0.720026 17.2413 0.720683 22.9267 1.83861 28.4232L0.858676 28.6225C-0.286225 22.9934 -0.286225 17.1735 0.858676 11.449ZM0.858676 28.6225C1.81276 34.0608 6.01073 38.2588 11.449 39.2129L11.6218 38.2279C6.59823 37.3466 2.72496 33.4733 1.84363 28.4497L0.858676 28.6225Z" fill="#EEF4FE"/>
<path fill-rule="evenodd" clip-rule="evenodd" d="M10.2692 8.81935C9.89262 8.87657 9.51552 8.93388 9.13759 8.98933C8.6636 9.05887 8.31905 9.44073 8.2924 9.88039C7.87389 16.7832 7.87389 23.2794 8.2924 30.1823C8.30803 30.4401 8.42631 30.7797 8.62711 31.0554C8.83459 31.3402 9.01895 31.414 9.09703 31.4218C9.09214 31.4213 9.09313 31.4211 9.10046 31.4196C9.13151 31.4132 9.27621 31.3832 9.57008 31.2085C9.89445 31.0157 10.2606 30.7328 10.6484 30.41C10.7902 30.2919 10.9459 30.1588 11.1019 30.0256C11.3305 29.8302 11.5599 29.6343 11.7459 29.4851C11.9122 29.3518 12.0926 29.2153 12.268 29.1082C12.3951 29.0306 12.7056 28.8461 13.0831 28.8461C13.615 28.8461 14.0441 29.1341 14.2965 29.3273C14.5801 29.5444 14.8711 29.8294 15.1382 30.0958L15.2801 30.2375C15.7545 30.712 16.2352 31.1927 16.7776 31.5852L19.9531 29.2036C20.2149 29.0072 20.7347 28.7396 21.3451 28.9505C21.7801 29.1008 22.2285 29.4107 22.589 29.6759C22.7823 29.8181 22.9818 29.9719 23.1742 30.1203L23.1782 30.1233C23.3753 30.2752 23.5665 30.4226 23.7562 30.5627C24.1458 30.8505 24.4732 31.0649 24.7373 31.1846C24.7906 31.2088 24.8343 31.2259 24.8693 31.238C24.9399 31.0982 25.02 30.8755 25.0971 30.5523C25.2583 29.8767 25.3664 28.9386 25.4319 27.8259C25.5622 25.6103 25.5144 22.8955 25.4741 20.6106L25.4741 20.6083C25.4643 20.0561 25.9041 19.6006 26.4563 19.5909C27.0085 19.5811 27.464 20.0209 27.4737 20.5731L27.4746 20.6194C27.5143 22.8756 27.5633 25.6512 27.4284 27.9433C27.3608 29.0927 27.2446 30.1691 27.0425 31.0164C26.9418 31.4384 26.8097 31.8482 26.6257 32.1953C26.4498 32.5273 26.1613 32.9247 25.6863 33.1283C25.0159 33.4156 24.3442 33.2023 23.9116 33.0062C23.4443 32.7944 22.9755 32.4725 22.568 32.1715C22.3606 32.0183 22.1546 31.8595 21.9617 31.7108L21.9572 31.7073C21.7597 31.5551 21.5771 31.4144 21.4038 31.2869C21.209 31.1436 21.0547 31.0393 20.9357 30.9667L17.832 33.2945C17.2843 33.7053 16.4834 33.8012 15.833 33.3644C15.048 32.8373 14.3809 32.1683 13.8757 31.6617C13.8241 31.6101 13.7743 31.5601 13.7262 31.5121C13.4711 31.2578 13.279 31.0736 13.122 30.9477C13.0845 30.9762 13.0428 31.0087 12.9967 31.0457C12.8219 31.1859 12.6464 31.3362 12.4486 31.5057C12.2925 31.6395 12.1225 31.7851 11.9279 31.9471C11.5248 32.2827 11.0588 32.6503 10.592 32.9277C10.1643 33.1819 9.54968 33.4772 8.89776 33.4119C8.0475 33.3267 7.40851 32.7792 7.0106 32.233C6.60602 31.6777 6.33689 30.9767 6.29606 30.3033C5.87267 23.3199 5.87267 16.7428 6.29606 9.75936C6.38233 8.33645 7.47503 7.21184 8.84726 7.01051C9.20477 6.95806 9.56814 6.90269 9.93672 6.84654C11.9787 6.53542 14.1805 6.19995 16.4308 6.19995C18.3206 6.19995 20.1575 6.43455 21.894 6.69133C22.4404 6.77211 22.8178 7.2805 22.737 7.82685C22.6562 8.37319 22.1478 8.7506 21.6015 8.66981C19.8818 8.41552 18.1659 8.19995 16.4308 8.19995C14.3453 8.19995 12.3141 8.50861 10.2692 8.81935ZM13.3552 30.7908C13.3549 30.7914 13.3478 30.7954 13.3344 30.801C13.3487 30.793 13.3554 30.7902 13.3552 30.7908ZM24.7988 31.3532L24.801 31.3508C24.7995 31.3525 24.7988 31.3533 24.7988 31.3532Z" fill="#0033C9"/>
<path fill-rule="evenodd" clip-rule="evenodd" d="M12.6738 16.0615C12.6738 13.8779 14.444 12.1077 16.6277 12.1077C18.8113 12.1077 20.5815 13.8779 20.5815 16.0615C20.5815 17.3912 19.9252 18.5675 18.9188 19.2843C19.3806 19.4874 19.8163 19.7525 20.2129 20.075C21.1623 20.8469 21.8336 21.9034 22.1283 23.085C22.1481 23.1641 22.1581 23.2454 22.1581 23.327V24.9231C22.1581 25.4754 21.7104 25.9231 21.1581 25.9231C20.6058 25.9231 20.1581 25.4754 20.1581 24.9231V23.4575C19.955 22.7415 19.5351 22.1015 18.9513 21.6268C18.2965 21.0945 17.476 20.8031 16.6288 20.8031C15.7816 20.8031 14.9612 21.0945 14.3064 21.6268C13.7226 22.1015 13.3027 22.7415 13.0996 23.4574L13.0996 24.9224C13.0996 25.4747 12.6519 25.9231 12.0996 25.9231C11.5473 25.9231 11.0996 25.4754 11.0996 24.9231V23.327C11.0996 23.2454 11.1096 23.1641 11.1293 23.0849C11.4241 21.9034 12.0953 20.8469 13.0447 20.075C13.441 19.7528 13.8762 19.488 14.3375 19.2849C13.3306 18.5682 12.6738 17.3916 12.6738 16.0615ZM16.6277 14.1077C15.5486 14.1077 14.6738 14.9824 14.6738 16.0615C14.6738 17.1406 15.5486 18.0154 16.6277 18.0154C17.7068 18.0154 18.5815 17.1406 18.5815 16.0615C18.5815 14.9824 17.7068 14.1077 16.6277 14.1077Z" fill="#0033C9"/>
<path d="M24.4004 12.0437V8.50972C24.4004 8.14019 24.6564 7.82561 25.0022 7.69542C26.3163 7.20071 27.1959 6.66911 28.484 6.06609C28.6834 5.97273 28.9148 5.97885 29.11 6.08087C30.3658 6.73746 31.246 7.25692 32.5678 7.70986C32.9284 7.83345 33.2004 8.1549 33.2004 8.53617V12.0437C33.2004 14.3285 30.3113 16.303 28.8446 16.7285C27.378 16.303 24.4004 14.3285 24.4004 12.0437Z" fill="#00CF6A"/>
</g>
<defs>
<clipPath id="clip0_1_3916">
<rect width="40" height="40" fill="white"/>
</clipPath>
</defs>
</svg>
