<svg width="40" height="40" viewBox="0 0 40 40" fill="none" xmlns="http://www.w3.org/2000/svg">
<g clip-path="url(#clip0_1_5462)">
<rect width="40" height="40" fill="white"/>
<path d="M11.5488 1.34863C17.1115 0.217257 22.8642 0.216603 28.5244 1.34863L28.6221 0.858398L28.5361 1.35156C33.767 2.26928 37.8029 6.30434 38.7207 11.5352L39.2129 11.4492L38.7217 11.541C39.7597 17.1088 39.7593 22.7714 38.7207 28.4365L39.2129 28.5273L38.7207 28.4404C37.803 33.6714 33.6714 37.803 28.4404 38.7207L28.5205 39.1758L28.4355 38.7217C22.8675 39.7598 17.2045 39.7594 11.5391 38.7207L11.4668 39.1143L11.5352 38.7207C6.30434 37.8029 2.26928 33.767 1.35156 28.5361L0.858398 28.6221L1.34863 28.5225C0.217301 22.9598 0.216595 17.2071 1.34863 11.5469L0.858398 11.4492L1.35156 11.5352C2.26936 6.30449 6.30449 2.26936 11.5352 1.35156L11.4492 0.858398L11.5488 1.34863Z" stroke="#F0F5FE"/>
<path fill-rule="evenodd" clip-rule="evenodd" d="M19.9604 5.70043C21.0728 5.71447 22.1284 6.13662 23.0885 6.82308C23.1024 6.83306 23.1161 6.84335 23.1296 6.85397L31.4805 13.4362C31.7452 13.6448 31.8996 13.9631 31.8996 14.3001V26.0001C31.8996 29.2586 29.2581 31.9001 25.9996 31.9001H13.9996C10.7411 31.9001 8.09961 29.2586 8.09961 26.0001L8.09961 14.3001C8.09961 13.9645 8.25278 13.6473 8.51557 13.4386L16.8045 6.85667C16.8045 6.85661 16.8044 6.85673 16.8045 6.85667C17.7685 6.09082 18.8363 5.68625 19.9604 5.70043ZM19.9327 7.90026C19.3882 7.89339 18.8019 8.07958 18.173 8.57921L10.2996 14.8312L10.2996 26.0001C10.2996 28.0435 11.9562 29.7001 13.9996 29.7001H25.9996C28.0431 29.7001 29.6996 28.0435 29.6996 26.0001V14.8337L21.7888 8.59842C21.1048 8.11385 20.4837 7.90721 19.9327 7.90026Z" fill="#0033CC"/>
<path fill-rule="evenodd" clip-rule="evenodd" d="M19.9609 5.70031C21.0733 5.71435 22.1289 6.1365 23.089 6.82296C23.0969 6.82867 23.1049 6.83449 23.1127 6.84041L34.0636 15.1226C34.5481 15.4891 34.6439 16.1789 34.2774 16.6635C33.9109 17.148 33.2211 17.2438 32.7365 16.8773L21.7979 8.60437C21.1105 8.11546 20.4865 7.90712 19.9332 7.90014C19.3887 7.89327 18.8024 8.07945 18.1735 8.57909L18.1551 8.59335L7.26598 16.8755C6.78243 17.2433 6.0923 17.1494 5.72453 16.6659C5.35675 16.1823 5.4506 15.4922 5.93414 15.1244L16.8145 6.84899C17.7761 6.08792 18.8404 5.68617 19.9609 5.70031Z" fill="#0033CC"/>
<path d="M14.3984 21.9755L14.3984 17.5989C14.3984 17.1868 14.7242 16.836 15.1644 16.6908C16.8368 16.1391 17.9564 15.1462 19.5957 14.4737C19.8495 14.3696 20.1441 14.3764 20.3924 14.4902C21.9908 15.2224 23.111 16.2018 24.7933 16.7069C25.2523 16.8447 25.5984 17.2032 25.5984 17.6284V21.9755C25.5984 24.5235 21.9214 26.7255 20.0547 27.2C18.1881 26.7255 14.3984 24.5235 14.3984 21.9755Z" fill="#00CF6A"/>
<path fill-rule="evenodd" clip-rule="evenodd" d="M19.8223 17.8C20.3746 17.8 20.8223 18.2478 20.8223 18.8V22.7819C20.8223 23.3342 20.3746 23.7819 19.8223 23.7819C19.27 23.7819 18.8223 23.3342 18.8223 22.7819V18.8C18.8223 18.2478 19.27 17.8 19.8223 17.8Z" fill="white"/>
<path fill-rule="evenodd" clip-rule="evenodd" d="M22.7969 20.8075C22.7969 21.3598 22.3492 21.8075 21.7969 21.8075L17.7969 21.8075C17.2446 21.8075 16.7969 21.3598 16.7969 20.8075C16.7969 20.2552 17.2446 19.8075 17.7969 19.8075L21.7969 19.8075C22.3492 19.8075 22.7969 20.2552 22.7969 20.8075Z" fill="white"/>
</g>
<defs>
<clipPath id="clip0_1_5462">
<rect width="40" height="40" fill="white"/>
</clipPath>
</defs>
</svg>
