<svg width="40" height="40" viewBox="0 0 40 40" fill="none" xmlns="http://www.w3.org/2000/svg">
<path d="M39.2129 11.449C40.2624 17.0781 40.2624 22.8026 39.2129 28.5271C38.2588 33.9654 33.9654 38.2588 28.5271 39.2129C22.898 40.2624 17.1735 40.2624 11.449 39.2129C6.01073 38.2588 1.81276 34.0608 0.858676 28.6225C-0.286225 22.9934 -0.286225 17.1735 0.858676 11.449C1.81276 6.01073 6.01073 1.81276 11.449 0.858676C17.0781 -0.286225 22.898 -0.286225 28.6225 0.858676C34.0608 1.81276 38.2588 6.01073 39.2129 11.449Z" fill="white"/>
<path fill-rule="evenodd" clip-rule="evenodd" d="M38.2279 11.6218L38.2279 11.6218C37.3466 6.59823 33.4733 2.72496 28.4497 1.84363L28.4381 1.84158L28.4264 1.83926C22.8303 0.720027 17.1448 0.720684 11.6483 1.83861L11.6351 1.8413L11.6218 1.84363C6.59823 2.72496 2.72496 6.59823 1.84363 11.6218L1.84158 11.6335L1.83926 11.6451C0.720027 17.2413 0.720684 22.9267 1.83861 28.4232L1.8413 28.4365L1.84363 28.4497C2.72496 33.4733 6.59823 37.3466 11.6218 38.2279L11.6293 38.2292C17.2356 39.2571 22.8369 39.2565 28.3438 38.2298L28.3543 38.2279L28.3543 38.2279C33.3779 37.3466 37.3466 33.3779 38.2279 28.3543L38.2292 28.3468C39.2571 22.7405 39.2565 17.1393 38.2298 11.6323L38.2279 11.6218ZM11.449 39.2129C17.1735 40.2624 22.898 40.2624 28.5271 39.2129C33.9654 38.2588 38.2588 33.9654 39.2129 28.5271C40.2624 22.8026 40.2624 17.0781 39.2129 11.449C38.2588 6.01073 34.0608 1.81276 28.6225 0.858676C22.898 -0.286225 17.0781 -0.286225 11.449 0.858676C6.01073 1.81276 1.81276 6.01073 0.858676 11.449C-0.286225 17.1735 -0.286225 22.9934 0.858676 28.6225C1.81276 34.0608 6.01073 38.2588 11.449 39.2129Z" fill="#F5F9FF"/>
<path d="M21.7783 25.8135C22.232 27.5256 22.2326 30.0383 26.2949 30.7959L22.4404 33.334H19.082L18.9131 31.0508L21.7783 25.8135Z" fill="#00CF6A"/>
<path d="M15.1699 11C15.7734 11 16.3679 11.0444 16.9502 11.1035C18.1513 11.2254 19.1267 12.2007 19.2432 13.4023C19.2992 13.9805 19.3408 14.5708 19.3408 15.1699C19.3408 15.7691 19.2991 16.3593 19.2432 16.9375C19.1268 18.1393 18.1514 19.1145 16.9502 19.2363C16.3679 19.2954 15.7735 19.3408 15.1699 19.3408C14.5664 19.3408 13.972 19.2954 13.3896 19.2363C12.1886 19.1143 11.214 18.1392 11.0977 16.9375C11.0417 16.3593 11 15.7691 11 15.1699C11 14.5708 11.0417 13.9805 11.0977 13.4023C11.2142 12.2008 12.1886 11.2255 13.3896 11.1035C13.972 11.0444 14.5664 11 15.1699 11Z" fill="#00CF6A"/>
<path d="M26.1064 6C28.6932 6.00007 30.7101 6.69985 32.0752 8.08594C33.4369 9.46861 34 11.3822 34 13.5V17.0186C33.9998 17.5707 33.5522 18.0186 33 18.0186C32.4478 18.0186 32.0002 17.5707 32 17.0186V13.5C32 11.7179 31.5291 10.3816 30.6504 9.48926C29.7751 8.60047 28.345 8.00007 26.1064 8H13.8936C11.655 8.00007 10.2249 8.60047 9.34961 9.48926C8.47089 10.3816 8 11.7179 8 13.5V26.5C8 28.2821 8.47089 29.6184 9.34961 30.5107C10.2249 31.3995 11.655 31.9999 13.8936 32H15.4893C16.0415 32 16.4893 32.4477 16.4893 33C16.4893 33.5523 16.0415 34 15.4893 34H13.8936C11.3068 33.9999 9.28989 33.3002 7.9248 31.9141C6.56313 30.5314 6 28.6178 6 26.5V13.5C6 11.3822 6.56313 9.46861 7.9248 8.08594C9.28989 6.69985 11.3068 6.00007 13.8936 6H26.1064Z" fill="#0033C9"/>
<path d="M27.79 19.3457C28.9342 18.2148 30.7779 18.2184 31.917 19.3574L33.1504 20.5908C34.2935 21.734 34.2934 23.5873 33.1504 24.7305C32.7599 25.1209 32.1269 25.1208 31.7363 24.7305C31.3458 24.3399 31.3458 23.7069 31.7363 23.3164C32.0983 22.9543 32.0983 22.367 31.7363 22.0049L30.502 20.7715C30.1398 20.4097 29.5534 20.4096 29.1914 20.7715C29.187 20.7758 29.1822 20.7799 29.1777 20.7842L21.2061 28.4648L20.6328 31.7891L24.1055 31.249L26.1807 29.7314C26.6264 29.4054 27.2521 29.5025 27.5781 29.9482C27.9042 30.394 27.8071 31.0196 27.3613 31.3457L25.0908 33.0068C24.9619 33.1011 24.8121 33.1639 24.6543 33.1885L19.5654 33.9795C19.2474 34.0288 18.925 33.9218 18.6992 33.6924C18.4736 33.4629 18.3722 33.1385 18.4268 32.8213L19.29 27.8037L19.3291 27.6494C19.3803 27.4997 19.467 27.3638 19.582 27.2529L27.79 19.3457Z" fill="#0033C9"/>
<path d="M30.5518 25.7568C30.7188 25.4145 31.2802 25.4145 31.4482 25.7568L32.2002 27.2842L33.7217 28.0391C33.8927 28.1234 34 28.2985 34 28.4893C33.9998 28.6799 33.8926 28.8542 33.7217 28.9385L32.2002 29.6934L31.4482 31.2207C31.3642 31.3914 31.1901 31.5 31 31.5C30.8099 31.5 30.6358 31.3914 30.5518 31.2207L29.7998 29.6934L28.2783 28.9385C28.1074 28.8542 28.0002 28.6799 28 28.4893C28 28.2985 28.1073 28.1234 28.2783 28.0391L29.7998 27.2842L30.5518 25.7568Z" fill="#0033C9"/>
<path d="M12 23C12.5523 23 13 23.4477 13 24V26.5C13 26.7761 13.2239 27 13.5 27H16L16.1025 27.0049C16.6067 27.0562 17 27.4823 17 28C17 28.5177 16.6067 28.9438 16.1025 28.9951L16 29H13.5C12.1193 29 11 27.8807 11 26.5V24C11 23.4477 11.4477 23 12 23Z" fill="#0033C9"/>
<path fill-rule="evenodd" clip-rule="evenodd" d="M15.1699 10C15.8212 10 16.4533 10.0477 17.0518 10.1084C18.7251 10.2783 20.0758 11.6286 20.2383 13.3066C20.2958 13.9008 20.3408 14.5259 20.3408 15.1699C20.3408 15.8142 20.2958 16.4398 20.2383 17.0342C20.0758 18.7122 18.725 20.0615 17.0518 20.2314C16.4533 20.2922 15.8212 20.3408 15.1699 20.3408C14.5188 20.3408 13.8874 20.2921 13.2891 20.2314C11.6157 20.0617 10.2651 18.7122 10.1025 17.0342C10.045 16.4398 10 15.8142 10 15.1699C10 14.5259 10.045 13.9008 10.1025 13.3066C10.265 11.6286 11.6156 10.2782 13.2891 10.1084C13.8874 10.0477 14.5188 10 15.1699 10ZM15.1699 12C14.6142 12 14.0574 12.0412 13.4912 12.0986C12.7622 12.1726 12.163 12.7736 12.0928 13.499C12.0383 14.0612 12 14.6158 12 15.1699C12 15.7242 12.0383 16.2796 12.0928 16.8418C12.1632 17.5671 12.7623 18.1682 13.4912 18.2422C14.0574 18.2996 14.6142 18.3408 15.1699 18.3408C15.7259 18.3408 16.2832 18.2997 16.8496 18.2422C17.5785 18.1682 18.1766 17.5671 18.2471 16.8418C18.3015 16.2796 18.3408 15.7242 18.3408 15.1699C18.3408 14.6158 18.3015 14.0612 18.2471 13.499C18.1768 12.7736 17.5786 12.1726 16.8496 12.0986C16.2832 12.0412 15.7259 12 15.1699 12Z" fill="#0033C9"/>
<path d="M26.5 11C27.8807 11 29 12.1193 29 13.5V16C29 16.5523 28.5523 17 28 17C27.4477 17 27 16.5523 27 16V13.5C27 13.2239 26.7761 13 26.5 13H24L23.8975 12.9951C23.3933 12.9438 23 12.5177 23 12C23 11.4823 23.3933 11.0562 23.8975 11.0049L24 11H26.5Z" fill="#0033C9"/>
</svg>
