<svg width="40" height="40" viewBox="0 0 40 40" fill="none" xmlns="http://www.w3.org/2000/svg">
<g clip-path="url(#clip0_1_4001)">
<path d="M39.2129 11.449V11.449C40.2624 17.0781 40.2624 22.8026 39.2129 28.5271V28.5271C38.2588 33.9654 33.9654 38.2588 28.5271 39.2129V39.2129C22.898 40.2624 17.1735 40.2624 11.449 39.2129V39.2129C6.01073 38.2588 1.81276 34.0608 0.858676 28.6225V28.6225C-0.286225 22.9934 -0.286225 17.1735 0.858676 11.449V11.449C1.81276 6.01073 6.01073 1.81276 11.449 0.858676V0.858676C17.0781 -0.286225 22.898 -0.286225 28.6225 0.858676V0.858676C34.0608 1.81276 38.2588 6.01073 39.2129 11.449Z" fill="white"/>
<path fill-rule="evenodd" clip-rule="evenodd" d="M38.2293 28.3468C39.2571 22.7405 39.2565 17.1393 38.2298 11.6323L39.2129 11.449C40.2624 17.0781 40.2624 22.8026 39.2129 28.5271L38.2293 28.3468ZM28.5271 39.2129C33.9654 38.2588 38.2588 33.9654 39.2129 28.5271L38.2279 28.3543C37.3466 33.3779 33.3779 37.3466 28.3543 38.2279L28.5271 39.2129ZM11.449 39.2129C17.1735 40.2624 22.898 40.2624 28.5271 39.2129L28.3438 38.2298C22.8369 39.2565 17.2356 39.2571 11.6293 38.2293L11.449 39.2129ZM28.6225 0.858676L28.4497 1.84363C33.4733 2.72496 37.3466 6.59823 38.2279 11.6218L39.2129 11.449C38.2588 6.01073 34.0608 1.81276 28.6225 0.858676ZM11.449 0.858676C17.0781 -0.286225 22.898 -0.286225 28.6225 0.858676L28.4264 1.83926C22.8303 0.720026 17.1448 0.720683 11.6483 1.83861L11.449 0.858676ZM0.858676 11.449C1.81276 6.01073 6.01073 1.81276 11.449 0.858676L11.6218 1.84363C6.59823 2.72496 2.72496 6.59823 1.84363 11.6218L0.858676 11.449ZM0.858676 11.449L1.83926 11.6451C0.720026 17.2413 0.720683 22.9267 1.83861 28.4232L0.858676 28.6225C-0.286225 22.9934 -0.286225 17.1735 0.858676 11.449ZM0.858676 28.6225C1.81276 34.0608 6.01073 38.2588 11.449 39.2129L11.6218 38.2279C6.59823 37.3466 2.72496 33.4733 1.84363 28.4497L0.858676 28.6225Z" fill="#EEF4FE"/>
<path d="M15.0576 23.1224C14.1522 14.9744 18.1616 10.965 19.843 9.28363C23.9817 12.905 25.275 16.785 24.887 23.1224C22.6107 23.5363 17.17 23.2518 15.0576 23.1224Z" fill="#00CF6A"/>
<path fill-rule="evenodd" clip-rule="evenodd" d="M19.7363 10.6831C22.7011 10.6131 25.5576 11.6456 27.6801 13.5339C29.3048 14.9793 30.3961 16.8334 30.8463 18.8357C31.0125 19.5747 30.6081 20.3171 29.8327 20.604C28.0436 21.2661 24.8165 22.1356 20.0092 22.249C15.202 22.3625 11.9374 21.6462 10.119 21.0693C9.33099 20.8192 8.89207 20.0968 9.02317 19.3508C9.3784 17.3294 10.3811 15.4259 11.9358 13.9055C13.9668 11.9192 16.7714 10.753 19.7363 10.6831ZM29.0095 12.0396C26.4946 9.80229 23.1411 8.60215 19.6891 8.68362C16.2371 8.76509 12.9438 10.1221 10.5374 12.4756C8.6922 14.2802 7.48308 16.5594 7.05336 19.0046C6.73698 20.8048 7.83801 22.4438 9.51415 22.9756C11.5398 23.6184 15.0246 24.3672 20.0564 24.2485C25.0882 24.1297 28.5338 23.2173 30.5269 22.4797C32.1761 21.8694 33.1986 20.1803 32.7976 18.397C32.253 15.9748 30.9377 13.7551 29.0095 12.0396Z" fill="#0033C9"/>
<path fill-rule="evenodd" clip-rule="evenodd" d="M19.9749 6.10782C19.4228 6.12085 18.9857 6.57901 18.9988 7.13114L19.0595 9.70532C19.0725 10.2574 19.5307 10.6945 20.0828 10.6814C20.635 10.6684 21.072 10.2103 21.059 9.65813L20.9982 7.08395C20.9852 6.53182 20.527 6.09479 19.9749 6.10782Z" fill="#0033C9"/>
<path fill-rule="evenodd" clip-rule="evenodd" d="M20.1316 22.3253C20.6839 22.3239 21.1328 22.7704 21.1342 23.3227L21.1521 30.0971C21.1521 31.1833 20.7206 32.2251 19.9526 32.9932C19.1845 33.7612 18.1428 34.1927 17.0565 34.1927C15.9703 34.1927 14.9286 33.7612 14.1605 32.9932C13.3924 32.2251 12.9609 31.1833 12.9609 30.0971C12.9609 29.5448 13.4087 29.0971 13.9609 29.0971C14.5132 29.0971 14.9609 29.5448 14.9609 30.0971C14.9609 30.6529 15.1817 31.1859 15.5747 31.5789C15.9677 31.9719 16.5007 32.1927 17.0565 32.1927C17.6123 32.1927 18.1453 31.9719 18.5383 31.5789C18.9311 31.1862 19.1518 30.6536 19.1521 30.0982C19.1521 30.0979 19.1521 30.0975 19.1521 30.0971L19.1343 23.328C19.1328 22.7757 19.5793 22.3268 20.1316 22.3253Z" fill="#0033C9"/>
</g>
<defs>
<clipPath id="clip0_1_4001">
<rect width="40" height="40" fill="white"/>
</clipPath>
</defs>
</svg>
