<svg width="40" height="40" viewBox="0 0 40 40" fill="none" xmlns="http://www.w3.org/2000/svg">
<g clip-path="url(#clip0_1_6225)">
<path d="M39.2129 11.449C40.2624 17.0781 40.2624 22.8026 39.2129 28.5271C38.2588 33.9654 33.9654 38.2588 28.5271 39.2129C22.898 40.2624 17.1735 40.2624 11.449 39.2129C6.01073 38.2588 1.81276 34.0608 0.858676 28.6225C-0.286225 22.9934 -0.286225 17.1735 0.858676 11.449C1.81276 6.01073 6.01073 1.81276 11.449 0.858676C17.0781 -0.286225 22.898 -0.286225 28.6225 0.858676C34.0608 1.81276 38.2588 6.01073 39.2129 11.449Z" fill="white"/>
<path d="M21.1058 6.86355C22.3577 6.20792 23.8973 6.51536 24.8021 7.60085L30.6156 14.5764C31.3326 15.4369 31.203 16.7184 30.3285 17.4182L29.3851 18.1731C29.0495 18.4417 28.653 18.5824 28.2533 18.6057L27.4701 21.7425C27.3361 22.278 26.7937 22.6036 26.2582 22.47C25.7225 22.3361 25.3969 21.7938 25.5306 21.2581L26.4232 17.6848L22.2181 12.7151L15.6039 15.6087C15.526 15.6427 15.4465 15.6701 15.3666 15.6936L13.975 21.7249C13.8507 22.2628 13.3137 22.5989 12.7758 22.4749C12.2379 22.3506 11.9019 21.8136 12.0258 21.2757L13.4222 15.2219C13.3584 15.1609 13.2969 15.0961 13.2406 15.0257L12.4779 14.0725C11.6923 13.0903 11.9975 11.6347 13.1117 11.051L21.1058 6.86355ZM21.0004 15.0003C22.1049 15.0003 23.0004 15.8957 23.0004 17.0003C23.0004 18.1048 22.1049 19.0002 21.0004 19.0003C19.8958 19.0003 19.0004 18.1048 19.0004 17.0003C19.0004 15.8957 19.8958 15.0003 21.0004 15.0003ZM23.266 8.88113C22.9644 8.51935 22.4508 8.41648 22.0336 8.63503L14.0394 12.8235L14.8021 13.7766L21.4164 10.8831C22.2266 10.5286 23.1742 10.7481 23.7455 11.4231L28.1351 16.6116L29.0795 15.8567L23.266 8.88113Z" fill="#00CF6A"/>
<path d="M24.5987 29.7411C25.9802 28.557 28.019 28.557 29.4005 29.7411L29.7823 30.0673C30.2517 30.4694 30.931 30.5107 31.4454 30.1679C31.9049 29.8616 32.5257 29.9858 32.8321 30.4452C33.1384 30.9047 33.0143 31.5256 32.5547 31.8319C31.2949 32.6718 29.6302 32.5712 28.4805 31.5858L28.0987 31.2587C27.4662 30.717 26.5328 30.7167 25.9005 31.2587C24.519 32.4428 22.4812 32.4428 21.0997 31.2587C20.4672 30.7166 19.5329 30.7166 18.9005 31.2587C17.519 32.4428 15.4812 32.4428 14.0997 31.2587C13.4672 30.7166 12.5329 30.7165 11.9005 31.2587L11.5196 31.5858C10.37 32.5712 8.70523 32.6718 7.44537 31.8319C6.98591 31.5256 6.8617 30.9047 7.16803 30.4452C7.47437 29.9857 8.09523 29.8616 8.55475 30.1679C9.06905 30.5107 9.74851 30.4695 10.2178 30.0673L10.5997 29.7411C11.9811 28.557 14.019 28.557 15.4005 29.7411C16.033 30.2832 16.9672 30.2832 17.5997 29.7411C18.9811 28.557 21.019 28.557 22.4005 29.7411C23.0328 30.2831 23.9662 30.2828 24.5987 29.7411ZM24.5987 25.7411C25.9802 24.557 28.019 24.557 29.4005 25.7411L29.7823 26.0673C30.2517 26.4694 30.931 26.5107 31.4454 26.1679C31.9049 25.8616 32.5257 25.9858 32.8321 26.4452C33.1384 26.9047 33.0143 27.5256 32.5547 27.8319C31.2949 28.6718 29.6302 28.5712 28.4805 27.5858L28.0987 27.2587C27.4662 26.717 26.5328 26.7167 25.9005 27.2587C24.519 28.4428 22.4812 28.4428 21.0997 27.2587C20.4672 26.7166 19.5329 26.7166 18.9005 27.2587C17.519 28.4428 15.4812 28.4428 14.0997 27.2587C13.4672 26.7166 12.5329 26.7165 11.9005 27.2587L11.5196 27.5858C10.37 28.5712 8.70523 28.6718 7.44537 27.8319C6.98591 27.5256 6.8617 26.9047 7.16803 26.4452C7.47437 25.9857 8.09523 25.8616 8.55475 26.1679C9.06905 26.5107 9.74851 26.4695 10.2178 26.0673L10.5997 25.7411C11.9811 24.557 14.019 24.557 15.4005 25.7411C16.033 26.2832 16.9672 26.2832 17.5997 25.7411C18.9811 24.557 21.019 24.557 22.4005 25.7411C23.0328 26.2831 23.9662 26.2828 24.5987 25.7411ZM24.5987 21.7411C25.9802 20.557 28.019 20.557 29.4005 21.7411L29.7823 22.0673C30.2517 22.4694 30.931 22.5107 31.4454 22.1679C31.9049 21.8616 32.5257 21.9858 32.8321 22.4452C33.1384 22.9047 33.0143 23.5256 32.5547 23.8319C31.2949 24.6718 29.6302 24.5712 28.4805 23.5858L28.0987 23.2587C27.4662 22.717 26.5328 22.7167 25.9005 23.2587C24.519 24.4428 22.4812 24.4428 21.0997 23.2587C20.4672 22.7166 19.5329 22.7166 18.9005 23.2587C17.519 24.4428 15.4812 24.4428 14.0997 23.2587C13.4672 22.7166 12.5329 22.7165 11.9005 23.2587L11.5196 23.5858C10.37 24.5712 8.70523 24.6718 7.44537 23.8319C6.98591 23.5256 6.8617 22.9047 7.16803 22.4452C7.47437 21.9857 8.09523 21.8616 8.55475 22.1679C9.06905 22.5107 9.74851 22.4695 10.2178 22.0673L10.5997 21.7411C11.9811 20.557 14.019 20.557 15.4005 21.7411C16.033 22.2832 16.9672 22.2832 17.5997 21.7411C18.9811 20.557 21.019 20.557 22.4005 21.7411C23.0328 22.2831 23.9662 22.2828 24.5987 21.7411Z" fill="#0033C9"/>
<path fill-rule="evenodd" clip-rule="evenodd" d="M38.2293 28.3468C39.2571 22.7405 39.2565 17.1393 38.2298 11.6323L39.2129 11.449C40.2624 17.0781 40.2624 22.8026 39.2129 28.5271L38.2293 28.3468ZM28.5271 39.2129C33.9654 38.2588 38.2588 33.9654 39.2129 28.5271L38.2279 28.3543C37.3466 33.3779 33.3779 37.3466 28.3543 38.2279L28.5271 39.2129ZM11.449 39.2129C17.1735 40.2624 22.898 40.2624 28.5271 39.2129L28.3438 38.2298C22.8369 39.2565 17.2356 39.2571 11.6293 38.2293L11.449 39.2129ZM28.6225 0.858676L28.4497 1.84363C33.4733 2.72496 37.3466 6.59823 38.2279 11.6218L39.2129 11.449C38.2588 6.01073 34.0608 1.81276 28.6225 0.858676ZM11.449 0.858676C17.0781 -0.286225 22.898 -0.286225 28.6225 0.858676L28.4264 1.83926C22.8303 0.720026 17.1448 0.720683 11.6483 1.83861L11.449 0.858676ZM0.858676 11.449C1.81276 6.01073 6.01073 1.81276 11.449 0.858676L11.6218 1.84363C6.59823 2.72496 2.72496 6.59823 1.84363 11.6218L0.858676 11.449ZM0.858676 11.449L1.83926 11.6451C0.720026 17.2413 0.720683 22.9267 1.83861 28.4232L0.858676 28.6225C-0.286225 22.9934 -0.286225 17.1735 0.858676 11.449ZM0.858676 28.6225C1.81276 34.0608 6.01073 38.2588 11.449 39.2129L11.6218 38.2279C6.59823 37.3466 2.72496 33.4733 1.84363 28.4497L0.858676 28.6225Z" fill="#EEF4FE"/>
</g>
<defs>
<clipPath id="clip0_1_6225">
<rect width="40" height="40" fill="white"/>
</clipPath>
</defs>
</svg>
