<svg width="40" height="40" viewBox="0 0 40 40" fill="none" xmlns="http://www.w3.org/2000/svg">
<g clip-path="url(#clip0_1_3984)">
<path d="M39.2129 11.449V11.449C40.2624 17.0781 40.2624 22.8026 39.2129 28.5271V28.5271C38.2588 33.9654 33.9654 38.2588 28.5271 39.2129V39.2129C22.898 40.2624 17.1735 40.2624 11.449 39.2129V39.2129C6.01073 38.2588 1.81276 34.0608 0.858676 28.6225V28.6225C-0.286225 22.9934 -0.286225 17.1735 0.858676 11.449V11.449C1.81276 6.01073 6.01073 1.81276 11.449 0.858676V0.858676C17.0781 -0.286225 22.898 -0.286225 28.6225 0.858676V0.858676C34.0608 1.81276 38.2588 6.01073 39.2129 11.449Z" fill="white"/>
<path fill-rule="evenodd" clip-rule="evenodd" d="M38.2293 28.3468C39.2571 22.7405 39.2565 17.1393 38.2298 11.6323L39.2129 11.449C40.2624 17.0781 40.2624 22.8026 39.2129 28.5271L38.2293 28.3468ZM28.5271 39.2129C33.9654 38.2588 38.2588 33.9654 39.2129 28.5271L38.2279 28.3543C37.3466 33.3779 33.3779 37.3466 28.3543 38.2279L28.5271 39.2129ZM11.449 39.2129C17.1735 40.2624 22.898 40.2624 28.5271 39.2129L28.3438 38.2298C22.8369 39.2565 17.2356 39.2571 11.6293 38.2293L11.449 39.2129ZM28.6225 0.858676L28.4497 1.84363C33.4733 2.72496 37.3466 6.59823 38.2279 11.6218L39.2129 11.449C38.2588 6.01073 34.0608 1.81276 28.6225 0.858676ZM11.449 0.858676C17.0781 -0.286225 22.898 -0.286225 28.6225 0.858676L28.4264 1.83926C22.8303 0.720026 17.1448 0.720683 11.6483 1.83861L11.449 0.858676ZM0.858676 11.449C1.81276 6.01073 6.01073 1.81276 11.449 0.858676L11.6218 1.84363C6.59823 2.72496 2.72496 6.59823 1.84363 11.6218L0.858676 11.449ZM0.858676 11.449L1.83926 11.6451C0.720026 17.2413 0.720683 22.9267 1.83861 28.4232L0.858676 28.6225C-0.286225 22.9934 -0.286225 17.1735 0.858676 11.449ZM0.858676 28.6225C1.81276 34.0608 6.01073 38.2588 11.449 39.2129L11.6218 38.2279C6.59823 37.3466 2.72496 33.4733 1.84363 28.4497L0.858676 28.6225Z" fill="#EEF4FE"/>
<path fill-rule="evenodd" clip-rule="evenodd" d="M30.6355 13.8028C30.086 13.7482 29.6847 13.2584 29.7393 12.7089C29.9251 10.8375 29.9507 9.71678 29.8168 8.12007C28.2201 7.98624 27.0994 8.01179 25.228 8.19764C24.6785 8.25223 24.1887 7.85095 24.1341 7.30137C24.0795 6.75179 24.4808 6.26202 25.0304 6.20744C27.3316 5.97888 28.6281 5.97829 30.8377 6.2079C31.3082 6.25679 31.6801 6.62867 31.729 7.09918C31.9586 9.30879 31.958 10.6053 31.7295 12.9065C31.6749 13.4561 31.1851 13.8574 30.6355 13.8028Z" fill="#00CF6A"/>
<path fill-rule="evenodd" clip-rule="evenodd" d="M31.5117 6.49668C31.9001 6.88929 31.8967 7.52245 31.5041 7.91087L21.6016 17.7077C21.212 18.0932 20.5847 18.0932 20.195 17.7077L17.176 14.7209L9.50408 22.3109C9.11147 22.6993 8.47831 22.6959 8.08989 22.3033C7.70147 21.9107 7.70487 21.2775 8.09748 20.8891L16.4727 12.6033C16.8623 12.2179 17.4897 12.2179 17.8793 12.6033L20.8983 15.5901L30.0975 6.48909C30.4901 6.10067 31.1232 6.10406 31.5117 6.49668Z" fill="#00CF6A"/>
<path fill-rule="evenodd" clip-rule="evenodd" d="M11.4008 27.4C11.2006 27.4 10.9964 27.4115 10.7857 27.431C10.3153 27.4745 9.89009 27.8986 9.85033 28.4302C9.82088 28.824 9.80078 29.2125 9.80078 29.6C9.80078 29.9875 9.82088 30.376 9.85033 30.7697C9.89009 31.3014 10.3153 31.7254 10.7857 31.7689C10.9964 31.7884 11.2006 31.8 11.4008 31.8C11.601 31.8 11.8052 31.7884 12.0158 31.7689C12.4862 31.7254 12.9115 31.3014 12.9512 30.7697C12.9807 30.376 13.0008 29.9875 13.0008 29.6C13.0008 29.2125 12.9807 28.824 12.9512 28.4302C12.9115 27.8986 12.4862 27.4745 12.0158 27.431C11.8052 27.4115 11.601 27.4 11.4008 27.4ZM10.6015 25.4395C10.8571 25.4158 11.1246 25.4 11.4008 25.4C11.6769 25.4 11.9445 25.4158 12.2 25.4395C13.7025 25.5784 14.8377 26.8369 14.9457 28.281C14.9772 28.703 15.0008 29.145 15.0008 29.6C15.0008 30.0549 14.9772 30.4969 14.9457 30.9189C14.8377 32.363 13.7025 33.6215 12.2 33.7604C11.9445 33.7841 11.6769 33.8 11.4008 33.8C11.1246 33.8 10.8571 33.7841 10.6015 33.7604C9.09907 33.6215 7.9639 32.363 7.8559 30.9189C7.82434 30.4969 7.80078 30.0549 7.80078 29.6C7.80078 29.145 7.82434 28.703 7.8559 28.281C7.9639 26.8369 9.09907 25.5784 10.6015 25.4395Z" fill="#0033C9"/>
<path fill-rule="evenodd" clip-rule="evenodd" d="M20.1996 23.4C20.0003 23.4 19.7909 23.4211 19.5648 23.4582C19.1363 23.5285 18.7396 23.9557 18.709 24.5054C18.6521 25.5251 18.5996 26.5535 18.5996 27.6C18.5996 28.6464 18.6521 29.6748 18.709 30.6945C18.7396 31.2443 19.1363 31.6714 19.5648 31.7418C19.7909 31.7789 20.0003 31.8 20.1996 31.8C20.3989 31.8 20.6083 31.7789 20.8344 31.7418C21.2629 31.6714 21.6596 31.2443 21.6903 30.6945C21.7471 29.6748 21.7996 28.6464 21.7996 27.6C21.7996 26.5535 21.7471 25.5251 21.6903 24.5054C21.6596 23.9557 21.2629 23.5285 20.8344 23.4582C20.6083 23.4211 20.3989 23.4 20.1996 23.4ZM19.2408 21.4846C19.5392 21.4356 19.8614 21.4 20.1996 21.4C20.5378 21.4 20.86 21.4356 21.1584 21.4846C22.6245 21.7253 23.611 23.0269 23.6872 24.3941C23.744 25.4143 23.7996 26.4922 23.7996 27.6C23.7996 28.7077 23.744 29.7856 23.6872 30.8058C23.611 32.173 22.6245 33.4746 21.1584 33.7153C20.86 33.7643 20.5378 33.8 20.1996 33.8C19.8614 33.8 19.5392 33.7643 19.2408 33.7153C17.7747 33.4746 16.7882 32.173 16.7121 30.8058C16.6552 29.7856 16.5996 28.7077 16.5996 27.6C16.5996 26.4922 16.6552 25.4143 16.7121 24.3941C16.7882 23.0269 17.7747 21.7253 19.2408 21.4846Z" fill="#0033C9"/>
<path fill-rule="evenodd" clip-rule="evenodd" d="M29.0004 17.8C28.803 17.8 28.5808 17.8392 28.313 17.9161C27.9102 18.0318 27.5659 18.4633 27.5472 18.9837C27.5403 19.1756 27.5333 19.368 27.5262 19.5609C27.4641 21.2651 27.4004 23.011 27.4004 24.8C27.4004 26.5889 27.4641 28.3348 27.5262 30.0391C27.5333 30.232 27.5403 30.4244 27.5472 30.6163C27.5659 31.1367 27.9102 31.5682 28.313 31.6839C28.5808 31.7608 28.803 31.8 29.0004 31.8C29.1978 31.8 29.42 31.7608 29.6878 31.6839C30.0906 31.5682 30.4349 31.1367 30.4536 30.6163C30.4605 30.4244 30.4675 30.232 30.4745 30.0391C30.5367 28.3348 30.6004 26.5889 30.6004 24.8C30.6004 23.011 30.5367 21.2651 30.4745 19.5609C30.4675 19.368 30.4605 19.1756 30.4536 18.9837C30.4349 18.4633 30.0906 18.0318 29.6878 17.9161C29.42 17.8392 29.1978 17.8 29.0004 17.8ZM27.7608 15.9938C28.1253 15.8891 28.5461 15.8 29.0004 15.8C29.4547 15.8 29.8755 15.8891 30.2399 15.9938C31.57 16.3759 32.4062 17.6303 32.4523 18.9118C32.4592 19.1032 32.4662 19.2958 32.4733 19.4894C32.5353 21.1893 32.6004 22.9723 32.6004 24.8C32.6004 26.6277 32.5353 28.4106 32.4733 30.1105C32.4662 30.3042 32.4592 30.4968 32.4523 30.6882C32.4062 31.9696 31.57 33.2241 30.2399 33.6062C29.8755 33.7108 29.4547 33.8 29.0004 33.8C28.5461 33.8 28.1253 33.7108 27.7608 33.6062C26.4308 33.2241 25.5946 31.9696 25.5485 30.6882C25.5416 30.4968 25.5346 30.3042 25.5275 30.1105C25.4655 28.4106 25.4004 26.6277 25.4004 24.8C25.4004 22.9723 25.4655 21.1893 25.5275 19.4894C25.5346 19.2958 25.5416 19.1032 25.5485 18.9118C25.5946 17.6303 26.4308 16.3759 27.7608 15.9938Z" fill="#0033C9"/>
</g>
<defs>
<clipPath id="clip0_1_3984">
<rect width="40" height="40" fill="white"/>
</clipPath>
</defs>
</svg>
