<svg width="40" height="40" viewBox="0 0 40 40" fill="none" xmlns="http://www.w3.org/2000/svg">
<g clip-path="url(#clip0_1_4128)">
<path d="M39.2129 11.449V11.449C40.2624 17.0781 40.2624 22.8026 39.2129 28.5271V28.5271C38.2588 33.9654 33.9654 38.2588 28.5271 39.2129V39.2129C22.898 40.2624 17.1735 40.2624 11.449 39.2129V39.2129C6.01073 38.2588 1.81276 34.0608 0.858676 28.6225V28.6225C-0.286225 22.9934 -0.286225 17.1735 0.858676 11.449V11.449C1.81276 6.01073 6.01073 1.81276 11.449 0.858676V0.858676C17.0781 -0.286225 22.898 -0.286225 28.6225 0.858676V0.858676C34.0608 1.81276 38.2588 6.01073 39.2129 11.449Z" fill="white"/>
<path fill-rule="evenodd" clip-rule="evenodd" d="M38.2293 28.3468C39.2571 22.7405 39.2565 17.1393 38.2298 11.6323L39.2129 11.449C40.2624 17.0781 40.2624 22.8026 39.2129 28.5271L38.2293 28.3468ZM28.5271 39.2129C33.9654 38.2588 38.2588 33.9654 39.2129 28.5271L38.2279 28.3543C37.3466 33.3779 33.3779 37.3466 28.3543 38.2279L28.5271 39.2129ZM11.449 39.2129C17.1735 40.2624 22.898 40.2624 28.5271 39.2129L28.3438 38.2298C22.8369 39.2565 17.2356 39.2571 11.6293 38.2293L11.449 39.2129ZM28.6225 0.858676L28.4497 1.84363C33.4733 2.72496 37.3466 6.59823 38.2279 11.6218L39.2129 11.449C38.2588 6.01073 34.0608 1.81276 28.6225 0.858676ZM11.449 0.858676C17.0781 -0.286225 22.898 -0.286225 28.6225 0.858676L28.4264 1.83926C22.8303 0.720026 17.1448 0.720683 11.6483 1.83861L11.449 0.858676ZM0.858676 11.449C1.81276 6.01073 6.01073 1.81276 11.449 0.858676L11.6218 1.84363C6.59823 2.72496 2.72496 6.59823 1.84363 11.6218L0.858676 11.449ZM0.858676 11.449L1.83926 11.6451C0.720026 17.2413 0.720683 22.9267 1.83861 28.4232L0.858676 28.6225C-0.286225 22.9934 -0.286225 17.1735 0.858676 11.449ZM0.858676 28.6225C1.81276 34.0608 6.01073 38.2588 11.449 39.2129L11.6218 38.2279C6.59823 37.3466 2.72496 33.4733 1.84363 28.4497L0.858676 28.6225Z" fill="#EEF4FE"/>
<path fill-rule="evenodd" clip-rule="evenodd" d="M23.1218 10.0932C19.2293 9.78396 14.962 10.0256 11.3778 10.5856C11.0575 10.6356 10.8005 10.9005 10.7648 11.2476C10.1916 16.814 9.92108 22.6305 10.717 28.54C10.7597 28.8571 11.0057 29.1087 11.3248 29.1582C17.378 30.098 23.0841 29.9613 28.7044 29.1394C29.0251 29.0925 29.2704 28.8479 29.3199 28.5408C29.8893 25.0089 30.0721 21.1629 29.8421 17.4621C29.8078 16.9108 30.2269 16.4362 30.7781 16.402C31.3294 16.3677 31.804 16.7868 31.8382 17.338C32.0771 21.1821 31.8881 25.1765 31.2944 28.8591C31.1039 30.041 30.1656 30.947 28.9938 31.1184C23.2066 31.9647 17.2973 32.1094 11.018 31.1346C9.82645 30.9496 8.8963 30.0049 8.73494 28.807C7.90867 22.6725 8.19503 16.678 8.77527 11.0427C8.90151 9.81676 9.82703 8.80362 11.0691 8.60955C14.7859 8.02881 19.2113 7.77623 23.2802 8.09951C23.8307 8.14325 24.2416 8.62502 24.1978 9.17557C24.1541 9.72612 23.6723 10.137 23.1218 10.0932Z" fill="#0033C9"/>
<path fill-rule="evenodd" clip-rule="evenodd" d="M21.474 17.1364C21.1709 16.9447 20.7658 16.7862 20.2743 16.8325C19.2254 16.9311 18.8916 17.5554 18.8916 18.0636C18.8916 18.3104 18.9393 18.4381 18.9747 18.5028C19.0087 18.5651 19.0621 18.6258 19.167 18.691C19.4314 18.8552 19.8305 18.9471 20.4836 19.0797C20.5032 19.0837 20.5231 19.0877 20.5434 19.0918C21.0907 19.2026 21.8562 19.3575 22.4704 19.7521C22.8149 19.9735 23.1315 20.2792 23.3553 20.7008C23.5772 21.1191 23.6775 21.5947 23.6775 22.1138C23.6775 22.8645 23.3048 23.4861 22.8311 23.9244C22.3586 24.3617 21.7409 24.6656 21.0879 24.8229C19.7814 25.1376 18.1383 24.9051 16.9044 23.6718C16.5138 23.2814 16.5136 22.6482 16.904 22.2576C17.2945 21.867 17.9276 21.8668 18.3183 22.2572C18.9758 22.9145 19.8659 23.0601 20.6196 22.8785C20.9967 22.7877 21.2909 22.6248 21.4727 22.4565C21.6534 22.2893 21.6775 22.1666 21.6775 22.1138C21.6775 21.8536 21.6283 21.7132 21.5885 21.6382C21.5505 21.5665 21.4933 21.5016 21.3891 21.4347C21.1286 21.2672 20.7317 21.1709 20.0856 21.0397C20.0574 21.034 20.0286 21.0282 19.9992 21.0222C19.4601 20.9135 18.7119 20.7627 18.1118 20.39C17.768 20.1765 17.4475 19.8787 17.2198 19.4622C16.9934 19.0482 16.8916 18.5768 16.8916 18.0636C16.8916 16.4875 18.0468 15.0332 20.087 14.8413C21.1401 14.7422 21.9835 15.0924 22.5426 15.4457C22.8224 15.6226 23.0398 15.8053 23.1899 15.9466C23.2654 16.0177 23.3253 16.0795 23.3687 16.1266C23.3905 16.1502 23.4083 16.1703 23.4221 16.1861L23.4396 16.2067L23.4462 16.2145L23.4489 16.2178L23.4501 16.2192C23.4503 16.2196 23.4512 16.2206 22.6775 16.8542L23.4512 16.2206C23.8011 16.6478 23.7385 17.2779 23.3112 17.6278C22.8865 17.9757 22.2614 17.9159 21.9103 17.4955M21.905 17.4892L21.9059 17.4903L21.9075 17.4923L21.9103 17.4955C21.9086 17.4937 21.9047 17.4892 21.8985 17.4825C21.8839 17.4666 21.8572 17.4387 21.8193 17.4031C21.7426 17.3309 21.6254 17.232 21.474 17.1364M21.905 17.4892C21.905 17.4892 21.905 17.4892 21.905 17.4892Z" fill="#0033C9"/>
<path fill-rule="evenodd" clip-rule="evenodd" d="M20.3691 13.4C20.9214 13.4 21.3691 13.8477 21.3691 14.4L21.3691 15.8243C21.3691 16.3766 20.9214 16.8243 20.3691 16.8243C19.8169 16.8243 19.3691 16.3766 19.3691 15.8243L19.3691 14.4C19.3691 13.8477 19.8169 13.4 20.3691 13.4Z" fill="#0033C9"/>
<path fill-rule="evenodd" clip-rule="evenodd" d="M20.3691 22.9339C20.9214 22.9339 21.3691 23.3816 21.3691 23.9339L21.3691 25.3583C21.3691 25.9105 20.9214 26.3583 20.3691 26.3583C19.8169 26.3583 19.3691 25.9105 19.3691 25.3583L19.3691 23.9339C19.3691 23.3816 19.8169 22.9339 20.3691 22.9339Z" fill="#0033C9"/>
<path fill-rule="evenodd" clip-rule="evenodd" d="M29.982 12.1753C29.637 11.744 29.0077 11.6741 28.5764 12.0191L26.5764 13.6191C26.1452 13.9641 26.0753 14.5934 26.4203 15.0246C26.7653 15.4559 27.3946 15.5258 27.8258 15.1808L29.8258 13.5808C30.2571 13.2358 30.327 12.6065 29.982 12.1753Z" fill="#00CF6A"/>
<path fill-rule="evenodd" clip-rule="evenodd" d="M24.4203 12.1753C24.7653 11.744 25.3946 11.6741 25.8258 12.0191L27.8258 13.6191C28.2571 13.9641 28.327 14.5934 27.982 15.0246C27.637 15.4559 27.0077 15.5258 26.5765 15.1808L24.5765 13.5808C24.1452 13.2358 24.0753 12.6065 24.4203 12.1753Z" fill="#00CF6A"/>
<path fill-rule="evenodd" clip-rule="evenodd" d="M27.1757 6.19991C26.6234 6.19991 26.1757 6.64763 26.1757 7.19991L26.1757 13.9999C26.1757 14.5522 26.6234 14.9999 27.1757 14.9999C27.728 14.9999 28.1757 14.5522 28.1757 13.9999L28.1757 7.19991C28.1757 6.64763 27.728 6.19991 27.1757 6.19991Z" fill="#00CF6A"/>
</g>
<defs>
<clipPath id="clip0_1_4128">
<rect width="40" height="40" fill="white"/>
</clipPath>
</defs>
</svg>
