<svg width="40" height="40" viewBox="0 0 40 40" fill="none" xmlns="http://www.w3.org/2000/svg">
<g clip-path="url(#clip0_1_5808)">
<rect width="40" height="40" fill="white"/>
<g clip-path="url(#clip1_1_5808)">
<path fill-rule="evenodd" clip-rule="evenodd" d="M38.2293 28.3468C39.2571 22.7405 39.2565 17.1393 38.2298 11.6323L39.2129 11.449C40.2624 17.0781 40.2624 22.8026 39.2129 28.5271L38.2293 28.3468ZM28.5271 39.2129C33.9654 38.2588 38.2588 33.9654 39.2129 28.5271L38.2279 28.3543C37.3466 33.3779 33.3779 37.3466 28.3543 38.2279L28.5271 39.2129ZM11.449 39.2129C17.1735 40.2624 22.898 40.2624 28.5271 39.2129L28.3438 38.2298C22.8369 39.2565 17.2356 39.2571 11.6293 38.2293L11.449 39.2129ZM28.6225 0.858676L28.4497 1.84363C33.4733 2.72496 37.3466 6.59823 38.2279 11.6218L39.2129 11.449C38.2588 6.01073 34.0608 1.81276 28.6225 0.858676ZM11.449 0.858676C17.0781 -0.286225 22.898 -0.286225 28.6225 0.858676L28.4264 1.83926C22.8303 0.720026 17.1448 0.720683 11.6483 1.83861L11.449 0.858676ZM0.858676 11.449C1.81276 6.01073 6.01073 1.81276 11.449 0.858676L11.6218 1.84363C6.59823 2.72496 2.72496 6.59823 1.84363 11.6218L0.858676 11.449ZM0.858676 11.449L1.83926 11.6451C0.720026 17.2413 0.720683 22.9267 1.83861 28.4232L0.858676 28.6225C-0.286225 22.9934 -0.286225 17.1735 0.858676 11.449ZM0.858676 28.6225C1.81276 34.0608 6.01073 38.2588 11.449 39.2129L11.6218 38.2279C6.59823 37.3466 2.72496 33.4733 1.84363 28.4497L0.858676 28.6225Z" fill="#F0F5FE"/>
</g>
<path d="M16.6621 6.2002C19.3366 6.2002 21.9456 6.46403 24.4229 6.94824C25.6815 7.19427 26.6183 8.24155 26.7139 9.52441C26.8626 11.5236 27.002 14.7724 27.002 17.5C27.002 18.0523 26.5542 18.5 26.002 18.5C25.4497 18.5 25.002 18.0523 25.002 17.5C25.002 17.0921 24.9981 16.672 24.9922 16.2461C23.2593 16.6326 21.5339 16.8699 19.8662 16.9932C19.6264 18.6925 18.1679 20 16.4023 20C14.6128 20 13.138 18.6569 12.9287 16.9238C10.999 16.7486 9.33718 16.4676 8.08496 16.1904C8.03109 17.4762 8.00196 18.7789 8.00195 20.0928C8.00195 23.6581 8.23639 27.103 8.57812 30.4277C8.62114 30.8456 8.91733 31.1362 9.28516 31.1807C11.8454 31.489 16.7495 31.8827 19.3604 31.5098C19.907 31.4317 20.414 31.8117 20.4922 32.3584C20.5703 32.9051 20.1902 33.4121 19.6436 33.4902C16.738 33.9053 11.5877 33.473 9.04688 33.167C7.70202 33.005 6.72229 31.93 6.58887 30.6318C6.24237 27.2606 6.00195 23.7449 6.00195 20.0928C6.00197 16.4403 6.21877 12.8757 6.58203 9.51855C6.71981 8.24681 7.66369 7.19514 8.93848 6.95312C11.4246 6.48134 13.9862 6.20023 16.6621 6.2002ZM16.4023 15C15.5739 15 14.9023 15.6716 14.9023 16.5C14.9023 17.3284 15.5739 18 16.4023 18C17.2308 18 17.9023 17.3284 17.9023 16.5C17.9023 15.6716 17.2308 15 16.4023 15ZM16.6621 8.2002C14.1278 8.20023 11.692 8.46622 9.31152 8.91797C8.91942 8.9924 8.61522 9.31933 8.57031 9.73438C8.41431 11.1761 8.2873 12.6564 8.19238 14.165C9.43056 14.4564 11.1879 14.7657 13.2646 14.9463C13.837 13.7927 15.0273 13 16.4023 13C17.8019 13 19.0094 13.8217 19.5693 15.0088C21.3169 14.8867 23.1314 14.635 24.9453 14.2051C24.8918 12.4992 24.8068 10.8567 24.7188 9.67285C24.6903 9.29275 24.418 8.98421 24.04 8.91016C21.6874 8.45027 19.2061 8.2002 16.6621 8.2002Z" fill="#0033C9"/>
<path d="M27.502 20.125C31.5751 20.125 34.877 23.4269 34.877 27.5C34.877 31.5731 31.5751 34.875 27.502 34.875C23.4289 34.875 20.127 31.5731 20.127 27.5C20.127 23.4269 23.4289 20.125 27.502 20.125Z" fill="#00D16B" stroke="white" stroke-width="1.75" stroke-linecap="round" stroke-linejoin="round"/>
<path d="M27.4512 22.4092C27.9431 22.4092 28.3418 22.8079 28.3418 23.2998V23.5873C28.66 23.6805 28.9303 23.8165 29.1455 23.9525C29.3629 24.0899 29.5318 24.2318 29.6488 24.3419C29.7077 24.3973 29.7546 24.4457 29.789 24.4831C29.8063 24.5018 29.8205 24.5178 29.8316 24.5307L29.8461 24.5476L29.8516 24.5542L29.8539 24.557L29.855 24.5582C29.855 24.5582 29.8559 24.5594 29.1835 25.1102L29.8559 24.5594C30.1676 24.94 30.1118 25.5011 29.7313 25.8128C29.3536 26.1222 28.7979 26.0695 28.4849 25.6965L28.4796 25.6907C28.4708 25.6812 28.4535 25.663 28.4281 25.6391C28.3765 25.5905 28.2968 25.5232 28.1938 25.4582C27.9874 25.3277 27.7188 25.2241 27.395 25.2545C27.0118 25.2906 26.7987 25.427 26.6832 25.5513C26.5629 25.6809 26.5012 25.8474 26.5012 26.0225C26.5012 26.1862 26.5327 26.2557 26.5449 26.2781C26.5559 26.2982 26.5758 26.3258 26.6362 26.3633C26.8055 26.4685 27.0726 26.5327 27.566 26.6329L27.6166 26.6431C28.0189 26.7244 28.6124 26.8443 29.0928 27.153C29.3665 27.3289 29.6209 27.5738 29.8009 27.9129C29.9792 28.2491 30.0576 28.6272 30.0576 29.032C30.0576 29.6414 29.7549 30.1401 29.3813 30.4858C29.0887 30.7566 28.728 30.9604 28.3418 31.0944V31.4422C28.3418 31.9341 27.9431 32.3328 27.4512 32.3328C26.9593 32.3328 26.5605 31.9341 26.5605 31.4422V31.2307C25.9333 31.1174 25.3043 30.8255 24.7727 30.2941C24.4248 29.9464 24.4247 29.3825 24.7724 29.0346C25.1201 28.6867 25.6841 28.6866 26.032 29.0343C26.4074 29.4095 26.896 29.5411 27.3509 29.4987C27.3583 29.4979 27.3657 29.4972 27.3731 29.4965C27.4511 29.4883 27.528 29.4749 27.6031 29.4569C27.8631 29.3942 28.0578 29.2837 28.1715 29.1785C28.2265 29.1275 28.2538 29.0862 28.2661 29.0615C28.2721 29.0496 28.2745 29.0418 28.2754 29.038C28.2763 29.0345 28.2763 29.032 28.2763 29.032C28.2763 28.8578 28.2435 28.7782 28.2274 28.7478C28.2128 28.7204 28.1894 28.6899 28.1298 28.6515C27.9639 28.545 27.6987 28.4774 27.2115 28.3785L27.1428 28.3646C26.7464 28.2849 26.1659 28.1681 25.6964 27.8765C25.4233 27.7069 25.1654 27.4681 24.9819 27.1325C24.7997 26.7991 24.72 26.4234 24.72 26.0225C24.72 24.9596 25.3845 23.9748 26.5605 23.6119V23.2998C26.5605 22.8079 26.9593 22.4092 27.4512 22.4092Z" fill="white"/>
</g>
<defs>
<clipPath id="clip0_1_5808">
<rect width="40" height="40" fill="white"/>
</clipPath>
<clipPath id="clip1_1_5808">
<rect width="40" height="40" fill="white"/>
</clipPath>
</defs>
</svg>
