<svg width="40" height="40" viewBox="0 0 40 40" fill="none" xmlns="http://www.w3.org/2000/svg">
<g clip-path="url(#clip0_1_4991)">
<path d="M39.2129 11.449V11.449C40.2624 17.0781 40.2624 22.8026 39.2129 28.5271V28.5271C38.2588 33.9654 33.9654 38.2588 28.5271 39.2129V39.2129C22.898 40.2624 17.1735 40.2624 11.449 39.2129V39.2129C6.01073 38.2588 1.81276 34.0608 0.858676 28.6225V28.6225C-0.286225 22.9934 -0.286225 17.1735 0.858676 11.449V11.449C1.81276 6.01073 6.01073 1.81276 11.449 0.858676V0.858676C17.0781 -0.286225 22.898 -0.286225 28.6225 0.858676V0.858676C34.0608 1.81276 38.2588 6.01073 39.2129 11.449Z" fill="white"/>
<path fill-rule="evenodd" clip-rule="evenodd" d="M38.2293 28.3468C39.2571 22.7405 39.2565 17.1393 38.2298 11.6323L39.2129 11.449C40.2624 17.0781 40.2624 22.8026 39.2129 28.5271L38.2293 28.3468ZM28.5271 39.2129C33.9654 38.2588 38.2588 33.9654 39.2129 28.5271L38.2279 28.3543C37.3466 33.3779 33.3779 37.3466 28.3543 38.2279L28.5271 39.2129ZM11.449 39.2129C17.1735 40.2624 22.898 40.2624 28.5271 39.2129L28.3438 38.2298C22.8369 39.2565 17.2356 39.2571 11.6293 38.2293L11.449 39.2129ZM28.6225 0.858676L28.4497 1.84363C33.4733 2.72496 37.3466 6.59823 38.2279 11.6218L39.2129 11.449C38.2588 6.01073 34.0608 1.81276 28.6225 0.858676ZM11.449 0.858676C17.0781 -0.286225 22.898 -0.286225 28.6225 0.858676L28.4264 1.83926C22.8303 0.720026 17.1448 0.720683 11.6483 1.83861L11.449 0.858676ZM0.858676 11.449C1.81276 6.01073 6.01073 1.81276 11.449 0.858676L11.6218 1.84363C6.59823 2.72496 2.72496 6.59823 1.84363 11.6218L0.858676 11.449ZM0.858676 11.449L1.83926 11.6451C0.720026 17.2413 0.720683 22.9267 1.83861 28.4232L0.858676 28.6225C-0.286225 22.9934 -0.286225 17.1735 0.858676 11.449ZM0.858676 28.6225C1.81276 34.0608 6.01073 38.2588 11.449 39.2129L11.6218 38.2279C6.59823 37.3466 2.72496 33.4733 1.84363 28.4497L0.858676 28.6225Z" fill="#EEF4FE"/>
<path d="M23.8453 13.2414L18.1714 13.7132C18.8858 14.0664 19.6364 14.5706 20.2231 15.2792L20.2222 15.2786C20.3259 15.4032 20.4241 15.5349 20.5167 15.6734L19.1841 16.0327L19.1487 15.9829C18.7932 15.4824 18.2943 15.0411 17.6658 14.6712C17.1062 14.3418 16.4692 14.0846 15.7714 13.9054C15.6874 13.8839 15.601 13.863 15.5163 13.844L15.4369 13.8262L15.8329 12.9445L21.5081 12.4727C21.3477 12.3923 21.1915 12.3079 21.0418 12.2198C20.3975 11.8406 19.8649 11.4 19.4553 10.9069C19.3634 10.7977 19.2787 10.6851 19.1997 10.5705L19.1601 10.5126L20.4927 10.1533L20.5281 10.2031C20.8836 10.7027 21.3831 11.1443 22.0115 11.5142C22.5711 11.8436 23.209 12.1013 23.9061 12.2801C23.9909 12.302 24.0764 12.3225 24.1619 12.3419L24.2415 12.3599L23.8453 13.2414Z" fill="#00CF6A"/>
<path d="M26.0631 26.7124C26.282 26.7983 26.604 26.6127 26.8228 26.2739L27.9156 24.5786C28.1629 24.1951 28.1936 23.7506 27.984 23.5874C27.7741 23.425 27.4031 23.6047 27.1559 23.9878L27.0309 24.1812V21.2437L27.1559 21.2935C27.4029 21.3907 27.774 21.1423 27.984 20.7378C28.1937 20.3327 28.1623 19.9252 27.9156 19.8267L26.8228 19.3931C26.655 19.3268 26.4277 19.4202 26.232 19.6196L26.15 19.7124L26.1432 19.7212L26.0689 19.8218L26.0631 19.8315L24.9703 21.5269C24.7232 21.9105 24.692 22.3541 24.902 22.5171C25.0989 22.6689 25.4374 22.5211 25.6822 22.187L25.6852 22.1821L25.7271 22.1226L25.7301 22.1167L25.8551 21.9224V24.8599L25.7301 24.811C25.4829 24.7132 25.1119 24.9619 24.902 25.3667C24.6922 25.772 24.7232 26.1806 24.9703 26.2788L26.0631 26.7124Z" fill="#0033C9"/>
<path d="M15.1275 26.7827C15.2053 26.7673 15.2663 26.7185 15.3033 26.6431C15.3401 26.5678 15.3514 26.4679 15.3365 26.356L15.1539 24.9819L16.0367 24.563C16.1058 24.5312 16.1549 24.4675 16.1793 24.3804C16.2038 24.2926 16.2018 24.184 16.1734 24.0669C16.1451 23.9498 16.0917 23.8287 16.0191 23.7183C15.9472 23.6088 15.8597 23.5135 15.7662 23.4438L14.5846 22.5552L14.0728 21.0728C14.0675 21.0574 14.0618 21.0412 14.0553 21.0259C14.0088 20.9176 13.9435 20.8132 13.8668 20.7231C13.7901 20.6332 13.7039 20.5607 13.6168 20.5122C13.5298 20.4638 13.4447 20.4413 13.3697 20.4468C13.2946 20.4524 13.2317 20.4862 13.1881 20.5444C13.186 20.5472 13.1842 20.5503 13.1822 20.5532L12.6256 21.4019L11.443 20.8911C11.3493 20.8503 11.2603 20.8411 11.1871 20.8647C11.1139 20.8885 11.0586 20.9438 11.0279 21.0249C10.9972 21.1063 10.9919 21.2104 11.0133 21.3247C11.0346 21.439 11.0821 21.5597 11.149 21.6724L11.9908 23.0903L11.776 24.2622C11.7589 24.3553 11.7686 24.4671 11.8033 24.5845C11.8381 24.7019 11.8962 24.821 11.9723 24.9272C12.0484 25.0336 12.1395 25.1231 12.234 25.186C12.3284 25.2489 12.4233 25.2833 12.5074 25.2837L13.5387 25.2856L14.5943 26.5073C14.6763 26.604 14.7687 26.6813 14.8619 26.73C14.957 26.7795 15.0496 26.7981 15.1275 26.7827Z" fill="#0033C9"/>
<path fill-rule="evenodd" clip-rule="evenodd" d="M20.0006 34.3774C20.7462 34.3774 21.4239 34.1827 22.15 33.8647C22.8567 33.5552 23.6744 33.0981 24.6832 32.5356L30.8297 29.1089C31.3514 28.8181 31.8068 28.5653 32.1637 28.3169C32.5388 28.0558 32.8717 27.756 33.1187 27.3354C33.3657 26.915 33.4659 26.4786 33.5113 26.0239C33.5545 25.5912 33.5533 25.0695 33.5533 24.4722V15.5327C33.5533 14.9355 33.5545 14.4145 33.5113 13.9819C33.4659 13.5272 33.3657 13.0909 33.1187 12.6704C32.8718 12.2498 32.5388 11.9501 32.1637 11.689C31.807 11.4406 31.352 11.1878 30.8307 10.897L24.6842 7.46924C23.6752 6.90647 22.8579 6.44886 22.151 6.13916C21.4246 5.82092 20.7466 5.6265 20.0006 5.62646C19.2544 5.62647 18.5758 5.82084 17.8492 6.13916C17.1423 6.44889 16.325 6.90648 15.316 7.46924L9.17051 10.897C8.64893 11.1879 8.19331 11.4405 7.83652 11.689C7.46155 11.9501 7.12937 12.25 6.88242 12.6704C6.63548 13.0909 6.53524 13.5273 6.48984 13.9819C6.44668 14.4145 6.44785 14.9355 6.44785 15.5327V24.4722C6.44785 25.0695 6.44666 25.5912 6.48984 26.0239C6.53526 26.4786 6.63542 26.915 6.88242 27.3354C7.1295 27.7561 7.4623 28.0557 7.8375 28.3169C8.19438 28.5653 8.64981 28.8181 9.17148 29.1089L15.318 32.5356C16.3266 33.098 17.1435 33.5553 17.8502 33.8647C18.5765 34.1828 19.2547 34.3774 20.0006 34.3774ZM9.83164 12.8208C9.92838 12.7665 10.0317 12.7068 10.1441 12.644L16.2906 9.21533C17.3324 8.63426 18.0533 8.23348 18.6519 7.97119C19.2311 7.71746 19.6265 7.62647 20.0006 7.62646C20.3746 7.6265 20.7693 7.71759 21.3482 7.97119C21.947 8.23351 22.6684 8.6341 23.7105 9.21533L29.8561 12.644C29.9679 12.7065 30.0703 12.7667 30.1666 12.8208L19.9996 18.3608L9.83164 12.8208ZM20.9996 20.0942L31.4859 14.3794C31.5022 14.3705 31.5172 14.3597 31.5328 14.3501C31.5507 14.6375 31.5533 15.0055 31.5533 15.5327V24.4722C31.5533 25.1088 31.5521 25.5141 31.5211 25.8247C31.4923 26.1132 31.4438 26.2382 31.3941 26.3228C31.3445 26.4072 31.2588 26.5098 31.0211 26.6753C30.7649 26.8536 30.412 27.0519 29.8561 27.3618L23.7096 30.7886C22.6678 31.3694 21.9468 31.7706 21.3482 32.0327C21.2241 32.0871 21.1084 32.1342 20.9996 32.1743V20.0942ZM18.6529 32.0327C18.0544 31.7706 17.3334 31.3694 16.2916 30.7886L10.1451 27.3618C9.5891 27.0518 9.23628 26.8536 8.98008 26.6753C8.74241 26.5099 8.6567 26.4072 8.60703 26.3228C8.55738 26.2382 8.50886 26.1132 8.48008 25.8247C8.44909 25.5141 8.44785 25.1088 8.44785 24.4722V15.5327C8.44785 15.0061 8.44954 14.6383 8.46738 14.3511C8.48283 14.3606 8.49812 14.3706 8.51426 14.3794L18.9996 20.0942V32.1733C18.8914 32.1334 18.7763 32.0867 18.6529 32.0327Z" fill="#0033C9"/>
</g>
<defs>
<clipPath id="clip0_1_4991">
<rect width="40" height="40" fill="white"/>
</clipPath>
</defs>
</svg>
