<svg width="40" height="40" viewBox="0 0 40 40" fill="none" xmlns="http://www.w3.org/2000/svg">
<g clip-path="url(#clip0_1_6077)">
<path d="M39.2129 11.449V11.449C40.2624 17.0781 40.2624 22.8026 39.2129 28.5271V28.5271C38.2588 33.9654 33.9654 38.2588 28.5271 39.2129V39.2129C22.898 40.2624 17.1735 40.2624 11.449 39.2129V39.2129C6.01073 38.2588 1.81276 34.0608 0.858676 28.6225V28.6225C-0.286225 22.9934 -0.286225 17.1735 0.858676 11.449V11.449C1.81276 6.01073 6.01073 1.81276 11.449 0.858676V0.858676C17.0781 -0.286225 22.898 -0.286225 28.6225 0.858676V0.858676C34.0608 1.81276 38.2588 6.01073 39.2129 11.449Z" fill="white"/>
<path d="M11.4494 0.858596C17.0782 -0.286216 22.8979 -0.286182 28.6221 0.858596C34.0604 1.81268 38.2588 6.01111 39.2129 11.4494C40.2624 17.0784 40.2624 22.803 39.2129 28.5274C38.2588 33.9655 33.9655 38.2588 28.5274 39.2129C22.8984 40.2624 17.1738 40.2624 11.4494 39.2129C6.01111 38.2588 1.81268 34.0604 0.858596 28.6221C-0.286181 22.9933 -0.286216 17.1736 0.858596 11.4494C1.81268 6.01111 6.01111 1.81268 11.4494 0.858596ZM28.4268 1.83906C22.8307 0.719839 17.145 0.721148 11.6486 1.83906L11.6349 1.84101L11.6222 1.84394C6.59865 2.72527 2.72527 6.59865 1.84394 11.6222L1.84199 11.6339L1.83906 11.6457C0.789856 16.892 0.725644 22.2167 1.64277 27.3907L1.83906 28.4229L1.84101 28.4366L1.84394 28.4503C2.69788 33.3166 6.35939 37.1036 11.1544 38.1367L11.6222 38.2276L11.6291 38.2295C17.2353 39.2573 22.8369 39.2562 28.3438 38.2295L28.3546 38.2276C33.3779 37.3462 37.3462 33.3779 38.2276 28.3546L38.2295 28.3467C39.2573 22.7405 39.2562 17.1389 38.2295 11.632L38.2276 11.6222C37.3463 6.59881 33.4736 2.72543 28.4503 1.84394L28.4385 1.84199L28.4268 1.83906Z" fill="#F0F5FE"/>
<path fill-rule="evenodd" clip-rule="evenodd" d="M17.1641 27.9196C18.8829 27.9198 20.2762 29.314 20.2764 31.0328C20.2761 32.7517 18.8829 34.1449 17.1641 34.1451C15.445 34.1451 14.051 32.7518 14.0508 31.0328C14.051 29.3138 15.445 27.9196 17.1641 27.9196ZM17.1641 29.9196C16.5496 29.9196 16.051 30.4184 16.0508 31.0328C16.051 31.6472 16.5496 32.1451 17.1641 32.1451C17.7783 32.1449 18.2761 31.6471 18.2764 31.0328C18.2762 30.4185 17.7783 29.9198 17.1641 29.9196Z" fill="#0033C9"/>
<path fill-rule="evenodd" clip-rule="evenodd" d="M28.1387 27.9196C29.8575 27.9198 31.2508 29.314 31.251 31.0328C31.2508 32.7517 29.8575 34.1449 28.1387 34.1451C26.4196 34.1451 25.0256 32.7518 25.0254 31.0328C25.0256 29.3138 26.4196 27.9196 28.1387 27.9196ZM28.1387 29.9196C27.5242 29.9196 27.0256 30.4184 27.0254 31.0328C27.0256 31.6472 27.5242 32.1451 28.1387 32.1451C28.7529 32.1449 29.2508 31.6471 29.251 31.0328C29.2508 30.4185 28.753 29.9198 28.1387 29.9196Z" fill="#0033C9"/>
<path fill-rule="evenodd" clip-rule="evenodd" d="M11.6533 6.19983C13.4431 6.19997 15.0079 7.40708 15.4619 9.13831L16.0771 11.4869H30.5693C32.5702 11.4869 34.1641 13.2486 33.8291 15.277C33.3535 18.1543 32.6326 21.5043 31.8105 24.0602C31.349 25.4953 30.117 26.5258 28.6084 26.7018C27.3298 26.851 25.3724 26.9996 22.6504 26.9996C19.9868 26.9996 17.9973 26.8569 16.6611 26.7115C15.0139 26.5323 13.7097 25.3695 13.249 23.8258C12.6074 21.676 12.074 19.4764 11.5557 17.3199C11.0965 15.4096 10.6489 13.5356 10.1445 11.7252H9.01465C7.69814 11.7251 6.42692 10.7528 6.37988 9.27112C6.37668 9.17005 6.375 9.06678 6.375 8.96252C6.375 8.85817 6.37667 8.75412 6.37988 8.65295C6.42715 7.17147 7.69828 6.19997 9.01465 6.19983H11.6533ZM9.01465 8.19983C8.60851 8.19996 8.38678 8.47614 8.37891 8.71643C8.3763 8.79869 8.375 8.8814 8.375 8.96252C8.375 9.04352 8.3763 9.12552 8.37891 9.20764C8.38654 9.44804 8.60829 9.72509 9.01465 9.72522H10.9004L11.0635 9.73792C11.4383 9.79985 11.7517 10.072 11.8604 10.4459C12.4666 12.5322 12.9826 14.7008 13.5 16.8531C14.0195 19.0143 14.5411 21.1631 15.165 23.2535C15.4087 24.0701 16.0745 24.6355 16.876 24.7233C18.1395 24.8607 20.0581 24.9996 22.6504 24.9996C25.2996 24.9996 27.1797 24.8552 28.377 24.7155C29.0958 24.6315 29.6822 24.1476 29.9072 23.4479C30.6879 21.0207 31.3895 17.776 31.8564 14.9508C31.9811 14.1948 31.3908 13.4869 30.5693 13.4869H15.3066C14.8521 13.4869 14.4542 13.1805 14.3389 12.7408L13.5273 9.64612C13.3039 8.79432 12.5339 8.19997 11.6533 8.19983H9.01465Z" fill="#0033C9"/>
<path d="M22.9971 16.2244C23.4076 15.855 24.0397 15.8882 24.4092 16.2986L26.3037 18.4031C26.4613 18.5783 26.5448 18.7941 26.5576 19.0125C26.5751 19.0866 26.5859 19.1635 26.5859 19.2429C26.5859 19.321 26.5755 19.3966 26.5586 19.4695C26.5644 19.7156 26.4813 19.9645 26.3037 20.1619L24.4092 22.2664C24.0398 22.6767 23.4075 22.7098 22.9971 22.3406C22.5866 21.9712 22.5535 21.339 22.9229 20.9285L23.54 20.2429H19.7109C19.1587 20.2429 18.711 19.7952 18.7109 19.2429C18.7109 18.6907 19.1587 18.2429 19.7109 18.2429H23.4688L22.9229 17.6365C22.5534 17.226 22.5866 16.5939 22.9971 16.2244Z" fill="#00CF6A"/>
</g>
<defs>
<clipPath id="clip0_1_6077">
<rect width="40" height="40" fill="white"/>
</clipPath>
</defs>
</svg>
