<svg width="40" height="40" viewBox="0 0 40 40" fill="none" xmlns="http://www.w3.org/2000/svg">
<g clip-path="url(#clip0_1_5360)">
<path d="M39.2129 11.449C40.2624 17.0781 40.2624 22.8026 39.2129 28.5271C38.2588 33.9654 33.9654 38.2588 28.5271 39.2129C22.898 40.2624 17.1735 40.2624 11.449 39.2129C6.01073 38.2588 1.81276 34.0608 0.858676 28.6225C-0.286225 22.9934 -0.286225 17.1735 0.858676 11.449C1.81276 6.01073 6.01073 1.81276 11.449 0.858676C17.0781 -0.286225 22.898 -0.286225 28.6225 0.858676C34.0608 1.81276 38.2588 6.01073 39.2129 11.449Z" fill="white"/>
<path fill-rule="evenodd" clip-rule="evenodd" d="M38.2293 28.3468C39.2571 22.7405 39.2565 17.1393 38.2298 11.6323L39.2129 11.449C40.2624 17.0781 40.2624 22.8026 39.2129 28.5271L38.2293 28.3468ZM28.5271 39.2129C33.9654 38.2588 38.2588 33.9654 39.2129 28.5271L38.2279 28.3543C37.3466 33.3779 33.3779 37.3466 28.3543 38.2279L28.5271 39.2129ZM11.449 39.2129C17.1735 40.2624 22.898 40.2624 28.5271 39.2129L28.3438 38.2298C22.8369 39.2565 17.2356 39.2571 11.6293 38.2293L11.449 39.2129ZM28.6225 0.858676L28.4497 1.84363C33.4733 2.72496 37.3466 6.59823 38.2279 11.6218L39.2129 11.449C38.2588 6.01073 34.0608 1.81276 28.6225 0.858676ZM11.449 0.858676C17.0781 -0.286225 22.898 -0.286225 28.6225 0.858676L28.4264 1.83926C22.8303 0.720026 17.1448 0.720683 11.6483 1.83861L11.449 0.858676ZM0.858676 11.449C1.81276 6.01073 6.01073 1.81276 11.449 0.858676L11.6218 1.84363C6.59823 2.72496 2.72496 6.59823 1.84363 11.6218L0.858676 11.449ZM0.858676 11.449L1.83926 11.6451C0.720026 17.2413 0.720683 22.9267 1.83861 28.4232L0.858676 28.6225C-0.286225 22.9934 -0.286225 17.1735 0.858676 11.449ZM0.858676 28.6225C1.81276 34.0608 6.01073 38.2588 11.449 39.2129L11.6218 38.2279C6.59823 37.3466 2.72496 33.4733 1.84363 28.4497L0.858676 28.6225Z" fill="#EEF4FE"/>
<path fill-rule="evenodd" clip-rule="evenodd" d="M7.7384 8.89288C8.45242 7.777 9.68712 7.2002 10.9316 7.2002H21.7069C22.9688 7.2002 24.2164 7.80273 24.8963 8.97324C25.8032 10.5347 26.9707 12.8541 27.6125 14.4212C27.8218 14.9323 27.5771 15.5163 27.066 15.7256C26.5549 15.9349 25.971 15.6902 25.7617 15.1792C25.1607 13.7116 24.0364 11.4749 23.1668 9.97773C22.8898 9.50077 22.3502 9.2002 21.7069 9.2002H10.9316C10.2869 9.2002 9.72721 9.49549 9.42304 9.97084C8.60488 11.2495 7.7213 12.89 7.0816 14.3745C6.76147 15.1174 6.51172 15.7998 6.35994 16.3648C6.19729 16.9703 6.18637 17.3034 6.20967 17.42C6.21476 17.4454 6.21886 17.4711 6.22196 17.4969C6.31377 18.2619 6.66422 18.7702 7.14172 19.1131C7.64342 19.4733 8.3319 19.6798 9.08916 19.7062C9.84505 19.7326 10.5952 19.5761 11.1762 19.2939C11.7683 19.0062 12.0772 18.6466 12.1772 18.3266C12.3093 17.9039 12.7038 17.6184 13.1466 17.625C13.5895 17.6316 13.9752 17.9288 14.0946 18.3553C14.4279 19.5455 15.6491 20.0482 17.0019 19.7736C17.5432 19.6637 18.071 20.0134 18.1809 20.5546C18.2908 21.0959 17.9411 21.6237 17.3998 21.7336C15.9692 22.024 14.1402 21.7479 13.0123 20.4772C12.7169 20.724 12.3881 20.9286 12.0501 21.0928C11.1494 21.5304 10.071 21.7417 9.01943 21.705C7.96918 21.6684 6.87117 21.381 5.9752 20.7376C5.06303 20.0827 4.40809 19.0894 4.2405 17.77C4.1346 17.1798 4.25785 16.4809 4.42842 15.846C4.61392 15.1554 4.90279 14.3769 5.24488 13.583C5.92962 11.994 6.86493 10.258 7.7384 8.89288Z" fill="#0033C9"/>
<path fill-rule="evenodd" clip-rule="evenodd" d="M7.87548 23.0011C8.42731 23.0237 8.85634 23.4893 8.83376 24.0411C8.80053 24.8533 8.90913 25.814 9.27793 26.6149C9.63152 27.3827 10.213 27.9935 11.197 28.2502C13.6449 28.8888 16.5777 28.8887 18.6942 28.6644C19.2434 28.6062 19.7358 29.0042 19.794 29.5534C19.8522 30.1026 19.4542 30.595 18.905 30.6532C16.6524 30.8919 13.4566 30.9066 10.6922 30.1854C9.03075 29.752 8.01999 28.6646 7.46131 27.4515C6.91784 26.2713 6.79415 24.9683 6.83544 23.9594C6.85802 23.4076 7.32366 22.9785 7.87548 23.0011Z" fill="#0033C9"/>
<path fill-rule="evenodd" clip-rule="evenodd" d="M13.4004 12.2002C13.4004 11.6479 13.8481 11.2002 14.4004 11.2002H18.6004C19.1527 11.2002 19.6004 11.6479 19.6004 12.2002C19.6004 12.7525 19.1527 13.2002 18.6004 13.2002H14.4004C13.8481 13.2002 13.4004 12.7525 13.4004 12.2002Z" fill="#0033C9"/>
<path fill-rule="evenodd" clip-rule="evenodd" d="M28.1409 18.5148C24.5597 18.5148 21.6566 21.4179 21.6566 24.999C21.6566 28.5802 24.5597 31.4833 28.1409 31.4833C31.722 31.4833 34.6251 28.5802 34.6251 24.999C34.6251 21.4179 31.722 18.5148 28.1409 18.5148ZM20.0566 24.999C20.0566 20.5342 23.6761 16.9148 28.1409 16.9148C32.6057 16.9148 36.2251 20.5342 36.2251 24.999C36.2251 29.4638 32.6057 33.0833 28.1409 33.0833C23.6761 33.0833 20.0566 29.4638 20.0566 24.999Z" fill="#00CF6A"/>
<path fill-rule="evenodd" clip-rule="evenodd" d="M28.1417 32.2833C32.1646 32.2833 35.4259 29.0221 35.4259 24.9991C35.4259 20.9761 32.1646 17.7148 28.1417 17.7148C24.1187 17.7148 20.8574 20.9761 20.8574 24.9991C20.8574 29.0221 24.1187 32.2833 28.1417 32.2833ZM22.0614 22.736C21.851 23.3009 21.8788 23.9671 22.3078 24.3906C22.562 24.6416 22.8945 24.8423 23.3176 24.9441C23.5353 24.9966 23.7678 25.0197 23.9987 25.0426C24.5286 25.0953 25.0505 25.1473 25.3691 25.5506C25.5586 25.7905 25.7004 26.1309 25.7004 26.614C25.5779 27.4771 25.8101 29.0542 27.5409 29.1046L27.5665 29.1054C27.9526 29.1164 28.3839 29.1288 28.5713 29.4641C28.7435 29.7719 28.8311 30.2396 28.8738 30.8942C28.8929 31.1867 29.1496 31.4115 29.437 31.3532C30.6476 31.1074 31.7358 30.5243 32.5991 29.7063C32.7302 29.582 32.9739 29.1788 32.9983 28.9998C33.0545 28.5874 32.9339 28.2779 32.7614 27.8351C32.7137 27.7126 32.6619 27.5798 32.6088 27.4317C32.6088 27.1849 32.6088 25.7963 30.9833 25.3875C30.7124 24.9786 29.9267 24.3244 28.9514 24.9786C28.2212 25.346 26.9003 25.7133 26.8756 24.5977C26.8742 24.533 26.8766 24.4668 26.879 24.4006C26.8873 24.1683 26.8957 23.9364 26.7387 23.7723C26.5801 23.6067 26.3008 23.4499 25.8381 23.3805C25.7814 23.372 25.7232 23.3649 25.6645 23.3577C25.3533 23.3195 25.0299 23.2799 24.8603 23.0275C24.6781 22.7565 24.6822 22.3233 25.294 21.7078C25.7004 21.2989 26.6757 20.8902 27.3259 22.5255C27.8548 23.4648 29.4395 22.9333 28.5451 21.7078C28.1387 21.1626 27.8136 19.9088 29.7642 19.2546C30.0736 19.1509 29.9777 18.77 29.6605 18.6937C29.1727 18.5765 28.6636 18.5145 28.1399 18.5145C25.3546 18.5145 22.9795 20.2706 22.0614 22.736Z" fill="#00CF6A"/>
</g>
<defs>
<clipPath id="clip0_1_5360">
<rect width="40" height="40" fill="white"/>
</clipPath>
</defs>
</svg>
