<svg width="40" height="40" viewBox="0 0 40 40" fill="none" xmlns="http://www.w3.org/2000/svg">
<g clip-path="url(#clip0_1_4681)">
<path d="M39.2129 11.449V11.449C40.2624 17.0781 40.2624 22.8026 39.2129 28.5271V28.5271C38.2588 33.9654 33.9654 38.2588 28.5271 39.2129V39.2129C22.898 40.2624 17.1735 40.2624 11.449 39.2129V39.2129C6.01073 38.2588 1.81276 34.0608 0.858676 28.6225V28.6225C-0.286225 22.9934 -0.286225 17.1735 0.858676 11.449V11.449C1.81276 6.01073 6.01073 1.81276 11.449 0.858676V0.858676C17.0781 -0.286225 22.898 -0.286225 28.6225 0.858676V0.858676C34.0608 1.81276 38.2588 6.01073 39.2129 11.449Z" fill="white"/>
<path fill-rule="evenodd" clip-rule="evenodd" d="M38.2293 28.3468C39.2571 22.7405 39.2565 17.1393 38.2298 11.6323L39.2129 11.449C40.2624 17.0781 40.2624 22.8026 39.2129 28.5271L38.2293 28.3468ZM28.5271 39.2129C33.9654 38.2588 38.2588 33.9654 39.2129 28.5271L38.2279 28.3543C37.3466 33.3779 33.3779 37.3466 28.3543 38.2279L28.5271 39.2129ZM11.449 39.2129C17.1735 40.2624 22.898 40.2624 28.5271 39.2129L28.3438 38.2298C22.8369 39.2565 17.2356 39.2571 11.6293 38.2293L11.449 39.2129ZM28.6225 0.858676L28.4497 1.84363C33.4733 2.72496 37.3466 6.59823 38.2279 11.6218L39.2129 11.449C38.2588 6.01073 34.0608 1.81276 28.6225 0.858676ZM11.449 0.858676C17.0781 -0.286225 22.898 -0.286225 28.6225 0.858676L28.4264 1.83926C22.8303 0.720026 17.1448 0.720683 11.6483 1.83861L11.449 0.858676ZM0.858676 11.449C1.81276 6.01073 6.01073 1.81276 11.449 0.858676L11.6218 1.84363C6.59823 2.72496 2.72496 6.59823 1.84363 11.6218L0.858676 11.449ZM0.858676 11.449L1.83926 11.6451C0.720026 17.2413 0.720683 22.9267 1.83861 28.4232L0.858676 28.6225C-0.286225 22.9934 -0.286225 17.1735 0.858676 11.449ZM0.858676 28.6225C1.81276 34.0608 6.01073 38.2588 11.449 39.2129L11.6218 38.2279C6.59823 37.3466 2.72496 33.4733 1.84363 28.4497L0.858676 28.6225Z" fill="#EEF4FE"/>
<path fill-rule="evenodd" clip-rule="evenodd" d="M11.797 10.2C10.9342 10.2 10.2768 10.6907 10.0936 11.3793C9.16936 14.8537 8.20117 21.2859 8.20117 24.9666C8.20117 26.247 8.54234 27.2495 9.08466 27.9651C9.62234 28.6746 10.4014 29.1616 11.3985 29.3513C12.7387 29.6064 16.2519 29.8 18.6262 29.8C19.1785 29.8 19.6262 30.2477 19.6262 30.8C19.6262 31.3522 19.1785 31.8 18.6262 31.8C16.1879 31.8 12.5365 31.6038 11.0246 31.3161C9.57184 31.0396 8.3457 30.3013 7.49065 29.173C6.64024 28.0509 6.20117 26.6029 6.20117 24.9666C6.20117 21.0817 7.20058 14.4749 8.16086 10.8651C8.61461 9.15945 10.1824 8.19995 11.797 8.19995H22.972C24.5992 8.19995 26.1195 9.16407 26.6477 10.7968C27.0159 11.9353 27.4444 13.4289 27.779 14.9904C27.8947 15.5304 27.5507 16.062 27.0107 16.1778C26.4707 16.2935 25.9391 15.9495 25.8234 15.4095C25.506 13.9284 25.0971 12.5015 24.7448 11.4124C24.5104 10.6879 23.8223 10.2 22.972 10.2H11.797Z" fill="#0033C9"/>
<path d="M33.4668 20.3311L32.3525 21.5859L26.2217 28.4922L23.4004 31.6572C23.2364 31.7168 23.0729 31.7809 22.9141 31.8467L22.8516 31.8721L21.7646 29.6689L22.8789 28.4141L29.0098 21.5078L28.7627 21.5264C28.3813 21.5558 27.9968 21.5703 27.6152 21.5703C25.9723 21.5703 24.3692 21.3039 22.8359 20.7773C22.4952 20.6605 22.1578 20.5304 21.8242 20.3877L21.752 20.3574L22.8516 18.1279L22.9141 18.1533C24.4068 18.7708 25.9887 19.084 27.6152 19.084C29.0629 19.084 30.4812 18.8347 31.8301 18.3428C31.9936 18.2834 32.1569 18.2193 32.3164 18.1533L32.3789 18.1279L33.4668 20.3311ZM26.4707 28.4717C28.1606 28.3311 30.1939 28.4603 32.3945 29.2207C32.7521 29.3442 33.114 29.4832 33.4795 29.6416L32.3789 31.8721L32.3164 31.8457C30.8234 31.2283 29.2414 30.9151 27.6152 30.915C26.3488 30.915 25.1047 31.1068 23.9092 31.4844L26.4707 28.4717Z" fill="#00CF6A"/>
<path fill-rule="evenodd" clip-rule="evenodd" d="M17.402 16.2C16.0765 16.2 15.002 15.1254 15.002 13.8V13.2C15.002 12.6477 14.5542 12.2 14.002 12.2C13.4497 12.2 13.002 12.6477 13.002 13.2V13.8C13.002 16.23 14.9719 18.2 17.402 18.2C19.832 18.2 21.802 16.23 21.802 13.8V13.2C21.802 12.6477 21.3542 12.2 20.802 12.2C20.2497 12.2 19.802 12.6477 19.802 13.2V13.8C19.802 15.1254 18.7274 16.2 17.402 16.2Z" fill="#0033C9"/>
</g>
<defs>
<clipPath id="clip0_1_4681">
<rect width="40" height="40" fill="white"/>
</clipPath>
</defs>
</svg>
