<svg width="40" height="40" viewBox="0 0 40 40" fill="none" xmlns="http://www.w3.org/2000/svg">
<g clip-path="url(#clip0_1_3812)">
<path d="M39.7129 11.449V11.449C40.7624 17.0781 40.7624 22.8026 39.7129 28.5271V28.5271C38.7588 33.9654 34.4654 38.2588 29.0271 39.2129V39.2129C23.398 40.2624 17.6735 40.2624 11.949 39.2129V39.2129C6.51073 38.2588 2.31276 34.0608 1.35868 28.6225V28.6225C0.213775 22.9934 0.213775 17.1735 1.35868 11.449V11.449C2.31276 6.01073 6.51073 1.81276 11.949 0.858676V0.858676C17.5781 -0.286225 23.398 -0.286225 29.1225 0.858676V0.858676C34.5608 1.81276 38.7588 6.01073 39.7129 11.449Z" fill="white"/>
<path fill-rule="evenodd" clip-rule="evenodd" d="M38.7293 28.3468C39.7571 22.7405 39.7565 17.1393 38.7298 11.6323L39.7129 11.449C40.7624 17.0781 40.7624 22.8026 39.7129 28.5271L38.7293 28.3468ZM29.0271 39.2129C34.4654 38.2588 38.7588 33.9654 39.7129 28.5271L38.7279 28.3543C37.8466 33.3779 33.8779 37.3466 28.8543 38.2279L29.0271 39.2129ZM11.949 39.2129C17.6735 40.2624 23.398 40.2624 29.0271 39.2129L28.8438 38.2298C23.3369 39.2565 17.7356 39.2571 12.1293 38.2293L11.949 39.2129ZM29.1225 0.858676L28.9497 1.84363C33.9733 2.72496 37.8466 6.59823 38.7279 11.6218L39.7129 11.449C38.7588 6.01073 34.5608 1.81276 29.1225 0.858676ZM11.949 0.858676C17.5781 -0.286225 23.398 -0.286225 29.1225 0.858676L28.9264 1.83926C23.3303 0.720026 17.6448 0.720683 12.1483 1.83861L11.949 0.858676ZM1.35868 11.449C2.31276 6.01073 6.51073 1.81276 11.949 0.858676L12.1218 1.84363C7.09823 2.72496 3.22496 6.59823 2.34363 11.6218L1.35868 11.449ZM1.35868 11.449L2.33926 11.6451C1.22003 17.2413 1.22068 22.9267 2.33861 28.4232L1.35868 28.6225C0.213775 22.9934 0.213775 17.1735 1.35868 11.449ZM1.35868 28.6225C2.31276 34.0608 6.51073 38.2588 11.949 39.2129L12.1218 38.2279C7.09823 37.3466 3.22496 33.4733 2.34363 28.4497L1.35868 28.6225Z" fill="#EEF4FE"/>
<path d="M25.0239 30.3802C23.5452 30.3802 22.3466 29.1816 22.3466 27.7029C22.3466 26.2243 23.5452 25.0256 25.0239 25.0256C26.5025 25.0256 27.7012 26.2243 27.7012 27.7029C27.7012 29.1816 26.5025 30.3802 25.0239 30.3802Z" fill="#00CF6A"/>
<path fill-rule="evenodd" clip-rule="evenodd" d="M25.0239 26.0256C25.9502 26.0256 26.7012 26.7766 26.7012 27.7029C26.7012 28.6293 25.9502 29.3802 25.0239 29.3802C24.0975 29.3802 23.3466 28.6293 23.3466 27.7029C23.3466 26.7766 24.0975 26.0256 25.0239 26.0256ZM28.7012 27.7029C28.7012 25.672 27.0548 24.0256 25.0239 24.0256C22.993 24.0256 21.3466 25.672 21.3466 27.7029C21.3466 29.7338 22.993 31.3802 25.0239 31.3802C27.0548 31.3802 28.7012 29.7338 28.7012 27.7029Z" fill="#0033CC"/>
<path d="M13.8247 30.3802C12.346 30.3802 11.1474 29.1816 11.1474 27.7029C11.1474 26.2243 12.346 25.0256 13.8247 25.0256C15.3033 25.0256 16.502 26.2243 16.502 27.7029C16.502 29.1816 15.3033 30.3802 13.8247 30.3802Z" fill="#00CF6A"/>
<path fill-rule="evenodd" clip-rule="evenodd" d="M20.5357 10H20.5278C19.3414 10 17.3694 10.0109 15.4477 10.0701C13.5579 10.1283 11.6195 10.2351 10.5564 10.4453C9.74342 10.6061 8.76492 11.1046 7.98311 11.8396C7.19132 12.5841 6.5 13.6713 6.5 15.0313V24.0439C6.5 24.9347 6.59204 26.0283 7.09812 26.9374C7.6557 27.9391 8.64139 28.5883 10.0884 28.6516L10.273 28.6597C10.6941 30.2268 12.1247 31.3803 13.8247 31.3803C15.4171 31.3803 16.7731 30.3681 17.2844 28.9521C18.3438 28.9816 19.4164 29 20.5 29C21.0606 29 21.6182 28.9951 22.1725 28.9862L22.1406 26.9865C21.5958 26.9952 21.0489 27 20.5 27C19.4676 27 18.4426 26.983 17.4259 26.9552C17.0804 25.2829 15.5993 24.0257 13.8247 24.0257C12.1565 24.0257 10.7477 25.1365 10.2977 26.6589L10.1757 26.6535C9.37164 26.6183 9.04131 26.3162 8.84563 25.9647C8.59845 25.5207 8.5 24.8591 8.5 24.0439V22.0257H32.3027C32.3674 22.0257 32.4307 22.0196 32.492 22.0078C32.4975 22.2682 32.5 22.5219 32.5 22.767C32.5 23.7257 32.2541 24.6903 31.9595 25.7508C31.8187 26.2573 31.3553 26.6303 30.8243 26.6535C30.177 26.6818 29.524 26.7123 28.8671 26.7429C28.4925 26.7604 28.1166 26.778 27.739 26.7952L27.8304 28.7931C28.2087 28.7758 28.5856 28.7583 28.9597 28.7408C29.6172 28.7101 30.2678 28.6797 30.9116 28.6516C32.3147 28.5902 33.5157 27.6205 33.8865 26.2862C34.1763 25.2432 34.5 24.0334 34.5 22.767C34.5 20.9487 34.3729 18.5712 33.824 16.392C33.2844 14.2501 32.2795 12.0699 30.3442 10.9595C30.2961 10.9319 30.2457 10.9083 30.1936 10.889C28.9223 10.4186 27.0476 10.2084 25.2929 10.1051C23.5082 10 21.7134 10 20.5357 10ZM32.3879 20.0293C32.3599 20.0269 32.3314 20.0257 32.3027 20.0257H25.9027V15.6257C25.9027 15.0734 25.455 14.6257 24.9027 14.6257C24.3505 14.6257 23.9027 15.0734 23.9027 15.6257V20.0257H16.1027V15.6257C16.1027 15.0734 15.655 14.6257 15.1027 14.6257C14.5504 14.6257 14.1027 15.0734 14.1027 15.6257V20.0257H8.5V15.0313C8.5 14.3886 8.82442 13.7938 9.3531 13.2967C9.89176 12.7903 10.5385 12.4876 10.9444 12.4073C11.8169 12.2348 13.5852 12.1284 15.5092 12.0691C17.4013 12.0109 19.3502 12 20.5278 12C21.7102 12 23.4534 12.0002 25.1754 12.1016C26.8838 12.2022 28.449 12.3973 29.4197 12.7361C30.5949 13.4499 31.3945 14.9351 31.8845 16.8805C32.1405 17.8964 32.2969 18.9783 32.3879 20.0293ZM13.8247 26.0257C14.751 26.0257 15.502 26.7767 15.502 27.703C15.502 28.6294 14.751 29.3803 13.8247 29.3803C12.8983 29.3803 12.1474 28.6294 12.1474 27.703C12.1474 26.7767 12.8983 26.0257 13.8247 26.0257Z" fill="#0033C9"/>
</g>
<defs>
<clipPath id="clip0_1_3812">
<rect width="40" height="40" fill="white"/>
</clipPath>
</defs>
</svg>
