<svg width="40" height="40" viewBox="0 0 40 40" fill="none" xmlns="http://www.w3.org/2000/svg">
<g clip-path="url(#clip0_1_3828)">
<path d="M39.2129 11.449V11.449C40.2624 17.0781 40.2624 22.8026 39.2129 28.5271V28.5271C38.2588 33.9654 33.9654 38.2588 28.5271 39.2129V39.2129C22.898 40.2624 17.1735 40.2624 11.449 39.2129V39.2129C6.01073 38.2588 1.81276 34.0608 0.858676 28.6225V28.6225C-0.286225 22.9934 -0.286225 17.1735 0.858676 11.449V11.449C1.81276 6.01073 6.01073 1.81276 11.449 0.858676V0.858676C17.0781 -0.286225 22.898 -0.286225 28.6225 0.858676V0.858676C34.0608 1.81276 38.2588 6.01073 39.2129 11.449Z" fill="white"/>
<path fill-rule="evenodd" clip-rule="evenodd" d="M38.2293 28.3468C39.2571 22.7405 39.2565 17.1393 38.2298 11.6323L39.2129 11.449C40.2624 17.0781 40.2624 22.8026 39.2129 28.5271L38.2293 28.3468ZM28.5271 39.2129C33.9654 38.2588 38.2588 33.9654 39.2129 28.5271L38.2279 28.3543C37.3466 33.3779 33.3779 37.3466 28.3543 38.2279L28.5271 39.2129ZM11.449 39.2129C17.1735 40.2624 22.898 40.2624 28.5271 39.2129L28.3438 38.2298C22.8369 39.2565 17.2356 39.2571 11.6293 38.2293L11.449 39.2129ZM28.6225 0.858676L28.4497 1.84363C33.4733 2.72496 37.3466 6.59823 38.2279 11.6218L39.2129 11.449C38.2588 6.01073 34.0608 1.81276 28.6225 0.858676ZM11.449 0.858676C17.0781 -0.286225 22.898 -0.286225 28.6225 0.858676L28.4264 1.83926C22.8303 0.720026 17.1448 0.720683 11.6483 1.83861L11.449 0.858676ZM0.858676 11.449C1.81276 6.01073 6.01073 1.81276 11.449 0.858676L11.6218 1.84363C6.59823 2.72496 2.72496 6.59823 1.84363 11.6218L0.858676 11.449ZM0.858676 11.449L1.83926 11.6451C0.720026 17.2413 0.720683 22.9267 1.83861 28.4232L0.858676 28.6225C-0.286225 22.9934 -0.286225 17.1735 0.858676 11.449ZM0.858676 28.6225C1.81276 34.0608 6.01073 38.2588 11.449 39.2129L11.6218 38.2279C6.59823 37.3466 2.72496 33.4733 1.84363 28.4497L0.858676 28.6225Z" fill="#EEF4FE"/>
<path d="M31.8268 18.1796H14.8066C14.844 16.3205 15.0321 14.5038 15.2143 12.7449C15.2494 12.4064 15.2842 12.0701 15.3177 11.736C15.3993 10.922 16.0402 10.2721 16.8524 10.1736C17.1677 10.1353 17.4851 10.0955 17.8046 10.0553C19.5849 9.83155 21.4284 9.59985 23.3167 9.59985C25.2051 9.59985 27.0486 9.83155 28.8289 10.0553C29.1483 10.0955 29.4658 10.1353 29.7811 10.1736C30.5932 10.2721 31.2342 10.922 31.3158 11.736C31.3493 12.0701 31.3841 12.4064 31.4192 12.7449C31.6014 14.5038 31.7895 16.3205 31.8268 18.1796Z" fill="#00CF6A"/>
<path fill-rule="evenodd" clip-rule="evenodd" d="M29.5878 11.1574C25.1235 10.6129 21.0074 10.6129 16.5431 11.1574C15.9948 11.2243 15.4962 10.8341 15.4293 10.2859C15.3625 9.73766 15.7527 9.23903 16.3009 9.17215C20.926 8.60798 25.2048 8.60798 29.83 9.17215C31.1107 9.32838 32.2099 10.2582 32.4927 11.5674C33.4238 15.8774 34.0735 20.916 33.903 25.6359C33.8477 27.1662 32.6411 28.3687 31.1442 28.4811C28.5479 28.676 25.7937 28.7587 23.0654 28.7298C21.0146 28.7515 18.9496 28.7102 16.9484 28.6056C16.3969 28.5767 15.9731 28.1063 16.002 27.5547C16.0308 27.0032 16.5013 26.5795 17.0528 26.6083C19.0141 26.7108 21.0408 26.7513 23.0547 26.7298H23.0761C25.7551 26.7585 28.4559 26.6772 30.9945 26.4867C31.5057 26.4483 31.8869 26.0459 31.9043 25.5637C32.0671 21.0571 31.4455 16.1912 30.5378 11.9898C30.4451 11.5607 30.0725 11.2166 29.5878 11.1574Z" fill="#0033C9"/>
<path fill-rule="evenodd" clip-rule="evenodd" d="M28.8008 27C29.3531 27 29.8008 27.4477 29.8008 28V30.8C29.8008 31.3523 29.3531 31.8 28.8008 31.8C28.2485 31.8 27.8008 31.3523 27.8008 30.8V28C27.8008 27.4477 28.2485 27 28.8008 27Z" fill="#0033C9"/>
<path fill-rule="evenodd" clip-rule="evenodd" d="M14.8008 18.8C14.8008 18.2478 15.2485 17.8 15.8008 17.8H32.4008C32.9531 17.8 33.4008 18.2478 33.4008 18.8C33.4008 19.3523 32.9531 19.8 32.4008 19.8H15.8008C15.2485 19.8 14.8008 19.3523 14.8008 18.8Z" fill="#0033C9"/>
<path fill-rule="evenodd" clip-rule="evenodd" d="M27.65 23.0103C27.7937 22.8372 27.8801 22.6147 27.8801 22.3721C27.8801 21.8198 27.4324 21.3721 26.8801 21.3721C25.9437 21.3721 25.2754 22.157 25.2754 23.0103C25.2754 23.8636 25.9437 24.6486 26.8801 24.6486C27.4324 24.6486 27.8801 24.2009 27.8801 23.6486C27.8801 23.406 27.7937 23.1835 27.65 23.0103Z" fill="#0033C9"/>
<path fill-rule="evenodd" clip-rule="evenodd" d="M26.1098 23.0104C25.966 23.1836 25.8796 23.406 25.8796 23.6487C25.8796 24.201 26.3273 24.6487 26.8796 24.6487C27.816 24.6487 28.4844 23.8637 28.4844 23.0104C28.4844 22.1571 27.816 21.3722 26.8796 21.3722C26.3273 21.3722 25.8796 21.8199 25.8796 22.3722C25.8796 22.6148 25.966 22.8372 26.1098 23.0104Z" fill="#0033C9"/>
<path fill-rule="evenodd" clip-rule="evenodd" d="M20.5211 23.0103C20.6648 22.8372 20.7512 22.6147 20.7512 22.3721C20.7512 21.8198 20.3035 21.3721 19.7512 21.3721C18.8148 21.3721 18.1465 22.157 18.1465 23.0103C18.1465 23.8636 18.8148 24.6486 19.7512 24.6486C20.3035 24.6486 20.7512 24.2009 20.7512 23.6486C20.7512 23.406 20.6648 23.1835 20.5211 23.0103Z" fill="#0033C9"/>
<path fill-rule="evenodd" clip-rule="evenodd" d="M18.9809 23.0104C18.8371 23.1836 18.7507 23.406 18.7507 23.6487C18.7507 24.201 19.1984 24.6487 19.7507 24.6487C20.6871 24.6487 21.3555 23.8637 21.3555 23.0104C21.3555 22.1571 20.6871 21.3722 19.7507 21.3722C19.1984 21.3722 18.7507 21.8199 18.7507 22.3722C18.7507 22.6148 18.8371 22.8372 18.9809 23.0104Z" fill="#0033C9"/>
<path fill-rule="evenodd" clip-rule="evenodd" d="M18 27C18.5523 27 19 27.4477 19 28V30.8C19 31.3523 18.5523 31.8 18 31.8C17.4477 31.8 17 31.3523 17 30.8V28C17 27.4477 17.4477 27 18 27Z" fill="#0033C9"/>
<path fill-rule="evenodd" clip-rule="evenodd" d="M11.7612 10.191C11.7806 12.1285 11.8008 14.1408 11.8008 16.2C11.8008 18.2591 11.7806 20.2714 11.7612 22.2089C11.7545 22.8828 11.7478 23.5476 11.7421 24.2022C11.7379 24.6846 11.5879 25.5557 10.7827 25.9934C10.5631 26.1128 10.2999 26.2 10.0008 26.2C9.70161 26.2 9.43849 26.1128 9.21888 25.9934C8.41371 25.5557 8.26362 24.6845 8.25943 24.2022C8.25374 23.5476 8.24708 22.8828 8.24033 22.2089C8.22093 20.2714 8.20078 18.2591 8.20078 16.2C8.20078 14.1408 8.22093 12.1285 8.24034 10.191C8.24708 9.51713 8.25374 8.85232 8.25943 8.19774C8.26362 7.71535 8.41371 6.84422 9.21888 6.4065C9.43849 6.28711 9.70161 6.19995 10.0008 6.19995C10.2999 6.19995 10.5631 6.28711 10.7827 6.4065C11.5879 6.84422 11.7379 7.71535 11.7421 8.19774C11.7478 8.85233 11.7545 9.51713 11.7612 10.191Z" fill="#0033C9"/>
<path d="M8.58583 23.692C7.91468 23.7645 7.41093 24.3286 7.38247 25.0031C7.28707 27.264 7.28707 29.1358 7.38247 31.3966C7.41093 32.0711 7.91467 32.6352 8.58583 32.7077C9.72244 32.8306 10.6783 32.8306 11.8149 32.7077C12.4861 32.6352 12.9898 32.0711 13.0183 31.3966C13.1137 29.1358 13.1137 27.264 13.0183 25.0031C12.9898 24.3286 12.4861 23.7645 11.8149 23.692C10.6783 23.5691 9.72244 23.5691 8.58583 23.692Z" fill="white"/>
<path fill-rule="evenodd" clip-rule="evenodd" d="M12.0192 31.3545C12.1134 29.1217 12.1134 27.278 12.0192 25.0452C12.0105 24.8399 11.8623 24.7029 11.7075 24.6862C10.6423 24.5711 9.75845 24.5711 8.69326 24.6862C8.53845 24.7029 8.39025 24.8399 8.38158 25.0452C8.28737 27.278 8.28737 29.1217 8.38158 31.3545C8.39025 31.5598 8.53845 31.6968 8.69326 31.7135C9.75845 31.8286 10.6423 31.8286 11.7075 31.7135C11.8623 31.6968 12.0105 31.5598 12.0192 31.3545ZM14.0174 24.9609C14.114 27.2499 14.114 29.1498 14.0174 31.4388C13.9691 32.5824 13.1099 33.5736 11.9224 33.702C10.7143 33.8325 9.68642 33.8325 8.47839 33.702C7.2909 33.5736 6.43161 32.5824 6.38336 31.4388C6.28677 29.1498 6.28677 27.2499 6.38336 24.9609C6.43161 23.8173 7.2909 22.8261 8.47839 22.6978C9.68642 22.5672 10.7143 22.5672 11.9224 22.6978C13.1099 22.8261 13.9691 23.8173 14.0174 24.9609Z" fill="#0033C9"/>
<path d="M6.80078 16.3999L12.8008 18.7999V21.5999L6.80078 19.1999V16.3999Z" fill="white"/>
<path d="M6.80078 9.59985L12.8008 11.9999V14.7999L6.80078 12.3999V9.59985Z" fill="white"/>
</g>
<defs>
<clipPath id="clip0_1_3828">
<rect width="40" height="40" fill="white"/>
</clipPath>
</defs>
</svg>
