<svg width="40" height="40" viewBox="0 0 40 40" fill="none" xmlns="http://www.w3.org/2000/svg">
<g clip-path="url(#clip0_1_6022)">
<path d="M39.2129 11.449V11.449C40.2624 17.0781 40.2624 22.8026 39.2129 28.5271V28.5271C38.2588 33.9654 33.9654 38.2588 28.5271 39.2129V39.2129C22.898 40.2624 17.1735 40.2624 11.449 39.2129V39.2129C6.01073 38.2588 1.81276 34.0608 0.858676 28.6225V28.6225C-0.286225 22.9934 -0.286225 17.1735 0.858676 11.449V11.449C1.81276 6.01073 6.01073 1.81276 11.449 0.858676V0.858676C17.0781 -0.286225 22.898 -0.286225 28.6225 0.858676V0.858676C34.0608 1.81276 38.2588 6.01073 39.2129 11.449Z" fill="white"/>
<path fill-rule="evenodd" clip-rule="evenodd" d="M38.2293 28.3468C39.2571 22.7405 39.2565 17.1393 38.2298 11.6323L39.2129 11.449C40.2624 17.0781 40.2624 22.8026 39.2129 28.5271L38.2293 28.3468ZM28.5271 39.2129C33.9654 38.2588 38.2588 33.9654 39.2129 28.5271L38.2279 28.3543C37.3466 33.3779 33.3779 37.3466 28.3543 38.2279L28.5271 39.2129ZM11.449 39.2129C17.1735 40.2624 22.898 40.2624 28.5271 39.2129L28.3438 38.2298C22.8369 39.2565 17.2356 39.2571 11.6293 38.2293L11.449 39.2129ZM28.6225 0.858676L28.4497 1.84363C33.4733 2.72496 37.3466 6.59823 38.2279 11.6218L39.2129 11.449C38.2588 6.01073 34.0608 1.81276 28.6225 0.858676ZM11.449 0.858676C17.0781 -0.286225 22.898 -0.286225 28.6225 0.858676L28.4264 1.83926C22.8303 0.720026 17.1448 0.720683 11.6483 1.83861L11.449 0.858676ZM0.858676 11.449C1.81276 6.01073 6.01073 1.81276 11.449 0.858676L11.6218 1.84363C6.59823 2.72496 2.72496 6.59823 1.84363 11.6218L0.858676 11.449ZM0.858676 11.449L1.83926 11.6451C0.720026 17.2413 0.720683 22.9267 1.83861 28.4232L0.858676 28.6225C-0.286225 22.9934 -0.286225 17.1735 0.858676 11.449ZM0.858676 28.6225C1.81276 34.0608 6.01073 38.2588 11.449 39.2129L11.6218 38.2279C6.59823 37.3466 2.72496 33.4733 1.84363 28.4497L0.858676 28.6225Z" fill="#EEF4FE"/>
<path fill-rule="evenodd" clip-rule="evenodd" d="M20 14.2865C17.1206 14.2865 14.7865 16.6206 14.7865 19.5C14.7865 22.3794 17.1206 24.7135 20 24.7135C22.8794 24.7135 25.2135 22.3794 25.2135 19.5C25.2135 16.6206 22.8794 14.2865 20 14.2865ZM13.5 19.5C13.5 15.9101 16.4101 13 20 13C23.5899 13 26.5 15.9101 26.5 19.5C26.5 23.0899 23.5899 26 20 26C16.4101 26 13.5 23.0899 13.5 19.5Z" fill="#00CF6A"/>
<path d="M20.001 12.6748C23.7703 12.6748 26.8262 15.7307 26.8262 19.5C26.8262 23.2693 23.7703 26.3252 20.001 26.3252C16.2316 26.3252 13.1758 23.2693 13.1758 19.5C13.1758 15.7307 16.2316 12.6748 20.001 12.6748ZM20.001 13C16.4111 13 13.501 15.9101 13.501 19.5C13.501 23.0899 16.4111 26 20.001 26C23.5908 26 26.501 23.0899 26.501 19.5C26.501 15.9101 23.5908 13 20.001 13ZM20.001 14.2861C22.8803 14.2861 25.2148 16.6206 25.2148 19.5C25.2148 22.3794 22.8803 24.7139 20.001 24.7139C17.1216 24.7139 14.7871 22.3794 14.7871 19.5C14.7871 16.6206 17.1216 14.2861 20.001 14.2861ZM20.001 14.6113C17.3011 14.6113 15.1123 16.8001 15.1123 19.5C15.1123 22.1999 17.3011 24.3887 20.001 24.3887C22.7008 24.3887 24.8896 22.1999 24.8896 19.5C24.8896 16.8001 22.7008 14.6113 20.001 14.6113Z" fill="#00CF6A"/>
<circle cx="20.0007" cy="19.4999" r="5.41667" fill="white"/>
<path fill-rule="evenodd" clip-rule="evenodd" d="M20.0013 25.3569C23.2359 25.3569 25.8581 22.7347 25.8581 19.5001C25.8581 16.2655 23.2359 13.6433 20.0013 13.6433C16.7667 13.6433 14.1445 16.2655 14.1445 19.5001C14.1445 22.7347 16.7667 25.3569 20.0013 25.3569ZM15.1126 17.6805C14.9434 18.1347 14.9657 18.6703 15.3107 19.0109C15.515 19.2127 15.7824 19.374 16.1226 19.4559C16.2977 19.498 16.4846 19.5166 16.6702 19.5351C17.0963 19.5775 17.5159 19.6192 17.7721 19.9435C17.9244 20.1364 18.0385 20.4101 18.0385 20.7985C17.9399 21.4925 18.1267 22.7606 19.5183 22.8011L19.5388 22.8017C19.8493 22.8106 20.196 22.8205 20.3468 23.0901C20.4852 23.3376 20.5556 23.7137 20.59 24.2399C20.6053 24.4752 20.8118 24.6559 21.0428 24.609C22.0162 24.4114 22.8911 23.9425 23.5852 23.2848C23.6907 23.1849 23.8866 22.8607 23.9062 22.7168C23.9514 22.3852 23.8544 22.1364 23.7157 21.7804C23.6773 21.6818 23.6357 21.575 23.5931 21.456C23.5931 21.2576 23.5931 20.1411 22.2861 19.8123C22.0683 19.4836 21.4366 18.9576 20.6524 19.4836C20.0652 19.779 19.0032 20.0744 18.9834 19.1774C18.9822 19.1253 18.9841 19.0721 18.986 19.0189C18.9928 18.8321 18.9995 18.6457 18.8732 18.5137C18.7458 18.3806 18.5212 18.2545 18.1492 18.1987C18.1036 18.1919 18.0568 18.1861 18.0096 18.1803C17.7594 18.1497 17.4994 18.1178 17.363 17.9149C17.2165 17.697 17.2198 17.3486 17.7117 16.8537C18.0385 16.525 18.8226 16.1964 19.3454 17.5113C19.7706 18.2664 21.0448 17.8391 20.3256 16.8537C19.9989 16.4154 19.7375 15.4073 21.3059 14.8813C21.5546 14.7979 21.4776 14.4917 21.2225 14.4304C20.8303 14.3361 20.4209 14.2862 19.9999 14.2862C17.7604 14.2862 15.8508 15.6982 15.1126 17.6805Z" fill="#00CF6A"/>
<path d="M24.001 28L24.1035 28.0049C24.6079 28.056 25.001 28.4822 25.001 29C25.001 29.5178 24.6079 29.944 24.1035 29.9951L24.001 30L16.0039 30C15.4516 30 15.0039 29.5523 15.0039 29C15.0039 28.4477 15.4516 28 16.0039 28L24.001 28Z" fill="#0033C9"/>
<path d="M8 30.9805V12.0068C8 10.35 9.34315 9.00684 11 9.00684H27L27.2568 9.01367C29.8989 9.14736 32 11.3316 32 14.0068V28.9805L31.9932 29.2373C31.8638 31.7943 29.8138 33.8442 27.2568 33.9736L27 33.9805V31.9805C28.6569 31.9805 30 30.6373 30 28.9805V14.0068C30 12.35 28.6569 11.0068 27 11.0068H11C10.4477 11.0068 10 11.4546 10 12.0068V30.9805C10 31.5328 10.4477 31.9805 11 31.9805V33.9805C9.39489 33.9805 8.08421 32.7199 8.00391 31.1348L8 30.9805ZM27 31.9805V33.9805H11V31.9805H27Z" fill="#0033C9"/>
<path d="M25.3895 6.09974L11 10L29 9.98015C28.9309 9.35382 28.7747 8.60686 28.556 7.6128C28.2401 6.17661 26.3313 5.79001 25.3895 6.09974Z" fill="#00CF6A"/>
<path d="M25.1094 5.13963C25.8276 4.91394 26.7602 4.96626 27.5576 5.26463C28.3346 5.55544 29.1664 6.15656 29.4775 7.1865L29.5322 7.39842L29.6855 8.10252C29.8279 8.77481 29.9372 9.3537 29.9941 9.8701L30.1162 10.9785L11.001 11L10.7383 9.03514L25.1094 5.13963ZM26.8564 7.13768C26.3974 6.96601 25.9214 6.97776 25.7021 7.04978L25.6768 7.0576L25.6514 7.06443L18.54 8.99119L27.8232 8.98143C27.7566 8.64615 27.6756 8.26661 27.5791 7.8281L27.5488 7.72557C27.4597 7.49069 27.2416 7.28184 26.8564 7.13768Z" fill="#0033C9"/>
</g>
<defs>
<clipPath id="clip0_1_6022">
<rect width="40" height="40" fill="white"/>
</clipPath>
</defs>
</svg>
