<svg width="40" height="40" viewBox="0 0 40 40" fill="none" xmlns="http://www.w3.org/2000/svg">
<g clip-path="url(#clip0_1_5330)">
<path d="M39.2129 11.449V11.449C40.2624 17.0781 40.2624 22.8026 39.2129 28.5271V28.5271C38.2588 33.9654 33.9654 38.2588 28.5271 39.2129V39.2129C22.898 40.2624 17.1735 40.2624 11.449 39.2129V39.2129C6.01073 38.2588 1.81276 34.0608 0.858676 28.6225V28.6225C-0.286225 22.9934 -0.286225 17.1735 0.858676 11.449V11.449C1.81276 6.01073 6.01073 1.81276 11.449 0.858676V0.858676C17.0781 -0.286225 22.898 -0.286225 28.6225 0.858676V0.858676C34.0608 1.81276 38.2588 6.01073 39.2129 11.449Z" fill="white"/>
<path fill-rule="evenodd" clip-rule="evenodd" d="M38.2293 28.3468C39.2571 22.7405 39.2565 17.1393 38.2298 11.6323L39.2129 11.449C40.2624 17.0781 40.2624 22.8026 39.2129 28.5271L38.2293 28.3468ZM28.5271 39.2129C33.9654 38.2588 38.2588 33.9654 39.2129 28.5271L38.2279 28.3543C37.3466 33.3779 33.3779 37.3466 28.3543 38.2279L28.5271 39.2129ZM11.449 39.2129C17.1735 40.2624 22.898 40.2624 28.5271 39.2129L28.3438 38.2298C22.8369 39.2565 17.2356 39.2571 11.6293 38.2293L11.449 39.2129ZM28.6225 0.858676L28.4497 1.84363C33.4733 2.72496 37.3466 6.59823 38.2279 11.6218L39.2129 11.449C38.2588 6.01073 34.0608 1.81276 28.6225 0.858676ZM11.449 0.858676C17.0781 -0.286225 22.898 -0.286225 28.6225 0.858676L28.4264 1.83926C22.8303 0.720026 17.1448 0.720683 11.6483 1.83861L11.449 0.858676ZM0.858676 11.449C1.81276 6.01073 6.01073 1.81276 11.449 0.858676L11.6218 1.84363C6.59823 2.72496 2.72496 6.59823 1.84363 11.6218L0.858676 11.449ZM0.858676 11.449L1.83926 11.6451C0.720026 17.2413 0.720683 22.9267 1.83861 28.4232L0.858676 28.6225C-0.286225 22.9934 -0.286225 17.1735 0.858676 11.449ZM0.858676 28.6225C1.81276 34.0608 6.01073 38.2588 11.449 39.2129L11.6218 38.2279C6.59823 37.3466 2.72496 33.4733 1.84363 28.4497L0.858676 28.6225Z" fill="#F0F5FE"/>
<path d="M33.8331 21.8266C34.0569 22.01 34.1996 22.2885 34.1996 22.6003V29.0003C34.1996 29.5526 33.7519 30.0003 33.1996 30.0003C32.6473 30.0003 32.1996 29.5526 32.1996 29.0003V24.9717L25.5076 31.4978C25.159 31.8378 24.6162 31.8773 24.2221 31.5913L20.4626 28.8632L15.8975 33.316C15.5021 33.7016 14.869 33.6937 14.4834 33.2983C14.0977 32.903 14.1056 32.2699 14.501 31.8842L19.6695 26.8429C20.0181 26.5029 20.5609 26.4634 20.955 26.7494L24.7146 29.4776L30.7412 23.6003H27.5996C27.0473 23.6003 26.5996 23.1526 26.5996 22.6003C26.5996 22.0481 27.0473 21.6003 27.5996 21.6003H33.177C33.4096 21.5952 33.6435 21.6708 33.8331 21.8266Z" fill="#00CF6A"/>
<path d="M11.5937 10.5056L11.8771 10.4809C14.6161 10.2425 17.4032 10 20.2531 10C23.1032 10 25.8904 10.2426 28.6294 10.4809L28.9125 10.5056C30.3758 10.6327 31.5773 11.7623 31.79 13.2044C31.9535 14.3129 32.1062 15.4216 32.2029 16.5408C32.2505 17.091 32.7351 17.4985 33.2853 17.451C33.8355 17.4034 34.243 16.9188 34.1955 16.3686C34.0934 15.1868 33.9333 14.0291 33.7686 12.9126C33.4197 10.5473 31.4654 8.71991 29.0857 8.51307L28.7751 8.48605C26.0563 8.24936 23.192 8 20.2531 8C17.3144 8 14.4502 8.24934 11.7313 8.48603L11.4206 8.51307C9.04085 8.71991 7.08662 10.5473 6.73778 12.9126C6.46278 14.7772 6.19922 16.7593 6.19922 18.8C6.19922 20.8406 6.46278 22.8227 6.73779 24.6874C7.08662 27.0526 9.04085 28.88 11.4205 29.0869C11.9707 29.1348 12.4556 28.7275 12.5034 28.1773C12.5512 27.6271 12.144 27.1423 11.5938 27.0944C10.1306 26.9672 8.92907 25.8377 8.71638 24.3956C8.4424 22.5378 8.19922 20.6817 8.19922 18.8C8.19922 16.9182 8.4424 15.0621 8.71638 13.2044C8.92907 11.7623 10.1306 10.6327 11.5937 10.5056Z" fill="#0033C9"/>
<path d="M12.1992 14.6001C12.1992 14.0478 12.6469 13.6001 13.1992 13.6001H23.9992C24.5515 13.6001 24.9992 14.0478 24.9992 14.6001C24.9992 15.1524 24.5515 15.6001 23.9992 15.6001H13.1992C12.6469 15.6001 12.1992 15.1524 12.1992 14.6001Z" fill="#0033C9"/>
<path d="M12.1992 19.8C12.1992 19.2478 12.6469 18.8 13.1992 18.8H16.3992C16.9515 18.8 17.3992 19.2478 17.3992 19.8C17.3992 20.3523 16.9515 20.8 16.3992 20.8H13.1992C12.6469 20.8 12.1992 20.3523 12.1992 19.8Z" fill="#0033C9"/>
</g>
<defs>
<clipPath id="clip0_1_5330">
<rect width="40" height="40" fill="white"/>
</clipPath>
</defs>
</svg>
