<svg width="40" height="40" viewBox="0 0 40 40" fill="none" xmlns="http://www.w3.org/2000/svg">
<g clip-path="url(#clip0_1_3570)">
<path d="M39.2129 11.449V11.449C40.2624 17.0781 40.2624 22.8026 39.2129 28.5271V28.5271C38.2588 33.9654 33.9654 38.2588 28.5271 39.2129V39.2129C22.898 40.2624 17.1735 40.2624 11.449 39.2129V39.2129C6.01073 38.2588 1.81276 34.0608 0.858676 28.6225V28.6225C-0.286225 22.9934 -0.286225 17.1735 0.858676 11.449V11.449C1.81276 6.01073 6.01073 1.81276 11.449 0.858676V0.858676C17.0781 -0.286225 22.898 -0.286225 28.6225 0.858676V0.858676C34.0608 1.81276 38.2588 6.01073 39.2129 11.449Z" fill="white"/>
<path fill-rule="evenodd" clip-rule="evenodd" d="M38.2293 28.3468C39.2571 22.7405 39.2565 17.1393 38.2298 11.6323L39.2129 11.449C40.2624 17.0781 40.2624 22.8026 39.2129 28.5271L38.2293 28.3468ZM28.5271 39.2129C33.9654 38.2588 38.2588 33.9654 39.2129 28.5271L38.2279 28.3543C37.3466 33.3779 33.3779 37.3466 28.3543 38.2279L28.5271 39.2129ZM11.449 39.2129C17.1735 40.2624 22.898 40.2624 28.5271 39.2129L28.3438 38.2298C22.8369 39.2565 17.2356 39.2571 11.6293 38.2293L11.449 39.2129ZM28.6225 0.858676L28.4497 1.84363C33.4733 2.72496 37.3466 6.59823 38.2279 11.6218L39.2129 11.449C38.2588 6.01073 34.0608 1.81276 28.6225 0.858676ZM11.449 0.858676C17.0781 -0.286225 22.898 -0.286225 28.6225 0.858676L28.4264 1.83926C22.8303 0.720026 17.1448 0.720683 11.6483 1.83861L11.449 0.858676ZM0.858676 11.449C1.81276 6.01073 6.01073 1.81276 11.449 0.858676L11.6218 1.84363C6.59823 2.72496 2.72496 6.59823 1.84363 11.6218L0.858676 11.449ZM0.858676 11.449L1.83926 11.6451C0.720026 17.2413 0.720683 22.9267 1.83861 28.4232L0.858676 28.6225C-0.286225 22.9934 -0.286225 17.1735 0.858676 11.449ZM0.858676 28.6225C1.81276 34.0608 6.01073 38.2588 11.449 39.2129L11.6218 38.2279C6.59823 37.3466 2.72496 33.4733 1.84363 28.4497L0.858676 28.6225Z" fill="#EEF4FE"/>
<path fill-rule="evenodd" clip-rule="evenodd" d="M20 8C13.3726 8 8 13.3726 8 20C8 26.6274 13.3726 32 20 32C26.6274 32 32 26.6274 32 20C32 13.3726 26.6274 8 20 8ZM6 20C6 12.268 12.268 6 20 6C27.732 6 34 12.268 34 20C34 27.732 27.732 34 20 34C12.268 34 6 27.732 6 20Z" fill="#0033C9"/>
<path d="M17.0396 19.5916C16.1559 19.5916 15.4396 20.3079 15.4396 21.1916C15.4396 22.0753 16.1559 22.7916 17.0396 22.7916C17.9232 22.7916 18.6396 22.0753 18.6396 21.1916C18.6396 20.3079 17.9232 19.5916 17.0396 19.5916Z" fill="#00CF6A"/>
<path d="M23.0396 19.5916C22.1559 19.5916 21.4396 20.3079 21.4396 21.1916C21.4396 22.0753 22.1559 22.7916 23.0396 22.7916C23.9232 22.7916 24.6396 22.0753 24.6396 21.1916C24.6396 20.3079 23.9232 19.5916 23.0396 19.5916Z" fill="#00CF6A"/>
<path fill-rule="evenodd" clip-rule="evenodd" d="M25.4204 13.4604C26.0246 13.8939 25.4204 16.7954 25.4204 16.7954C26.8825 17.8876 27.6713 19.6552 27.5013 21.4644C27.1951 24.0657 24.9673 26.0188 22.3326 26H17.8351C15.1941 26.0959 12.9055 24.197 12.5321 21.5978C12.3643 19.7886 13.1509 18.021 14.613 16.9288C14.613 16.9288 14.1431 14.0273 14.613 13.5938C15.0829 13.1602 17.7344 14.761 18.2714 15.3613C19.3976 15.1729 21.2354 15.0808 22.3326 15.3613C22.8696 14.761 24.8163 13.0268 25.4204 13.4604ZM14.2396 21.1916C14.2396 19.6452 15.4932 18.3916 17.0396 18.3916C18.4501 18.3916 19.6171 19.4347 19.8112 20.7916H20.2679C20.462 19.4347 21.629 18.3916 23.0396 18.3916C24.5859 18.3916 25.8396 19.6452 25.8396 21.1916C25.8396 22.738 24.5859 23.9916 23.0396 23.9916C21.7711 23.9916 20.6997 23.1482 20.3555 21.9916H19.7236C19.3794 23.1482 18.308 23.9916 17.0396 23.9916C15.4932 23.9916 14.2396 22.738 14.2396 21.1916Z" fill="#00CF6A"/>
</g>
<defs>
<clipPath id="clip0_1_3570">
<rect width="40" height="40" fill="white"/>
</clipPath>
</defs>
</svg>
