<svg width="40" height="40" viewBox="0 0 40 40" fill="none" xmlns="http://www.w3.org/2000/svg">
<path d="M39.2129 11.449V11.449C40.2624 17.0781 40.2624 22.8026 39.2129 28.5271V28.5271C38.2588 33.9654 33.9654 38.2588 28.5271 39.2129V39.2129C22.898 40.2624 17.1735 40.2624 11.449 39.2129V39.2129C6.01073 38.2588 1.81276 34.0608 0.858676 28.6225V28.6225C-0.286225 22.9934 -0.286225 17.1735 0.858676 11.449V11.449C1.81276 6.01073 6.01073 1.81276 11.449 0.858676V0.858676C17.0781 -0.286225 22.898 -0.286225 28.6225 0.858676V0.858676C34.0608 1.81276 38.2588 6.01073 39.2129 11.449Z" fill="white"/>
<path fill-rule="evenodd" clip-rule="evenodd" d="M38.2279 11.6218L38.2279 11.6218C37.3466 6.59823 33.4733 2.72496 28.4497 1.84363L28.4381 1.84158L28.4264 1.83926C22.8303 0.720027 17.1448 0.720684 11.6483 1.83861L11.6351 1.8413L11.6218 1.84363C6.59823 2.72496 2.72496 6.59823 1.84363 11.6218L1.84158 11.6335L1.83926 11.6451C0.720027 17.2413 0.720684 22.9267 1.83861 28.4232L1.8413 28.4365L1.84363 28.4497C2.72496 33.4733 6.59823 37.3466 11.6218 38.2279L11.6293 38.2292C17.2356 39.2571 22.8369 39.2565 28.3438 38.2298L28.3543 38.2279L28.3543 38.2279C33.3779 37.3466 37.3466 33.3779 38.2279 28.3543L38.2292 28.3468C39.2571 22.7405 39.2565 17.1393 38.2298 11.6323L38.2279 11.6218ZM11.449 39.2129C17.1735 40.2624 22.898 40.2624 28.5271 39.2129C33.9654 38.2588 38.2588 33.9654 39.2129 28.5271C40.2624 22.8026 40.2624 17.0781 39.2129 11.449C38.2588 6.01073 34.0608 1.81276 28.6225 0.858676C22.898 -0.286225 17.0781 -0.286225 11.449 0.858676C6.01073 1.81276 1.81276 6.01073 0.858676 11.449C-0.286225 17.1735 -0.286225 22.9934 0.858676 28.6225C1.81276 34.0608 6.01073 38.2588 11.449 39.2129Z" fill="#F5F9FF"/>
<path d="M26.7596 15.7998H13.2396H9.59961L11.2514 10.8442C11.5924 9.82138 11.7629 9.30995 12.0791 8.93183C12.3583 8.59793 12.7169 8.33947 13.122 8.18016C13.5807 7.99976 14.1198 7.99976 15.198 7.99976H24.8013C25.8794 7.99976 26.4185 7.99976 26.8773 8.18016C27.2823 8.33947 27.6409 8.59793 27.9201 8.93183C28.2363 9.30995 28.4068 9.82138 28.7478 10.8442L30.3996 15.7998H26.7596Z" fill="#00CF6A"/>
<path d="M18.1868 25.1394L18.2893 25.1443C18.7934 25.1957 19.1868 25.6218 19.1868 26.1394C19.1868 26.657 18.7934 27.0831 18.2893 27.1345L18.1868 27.1394H14.4827C14.3067 28.9632 12.7706 30.3892 10.9006 30.3894H10.2503C9.83304 30.3894 9.49014 30.3919 9.18775 30.362L8.89771 30.32C7.55894 30.0537 6.49396 29.056 6.13209 27.7556L6.06959 27.4919C5.99557 27.1198 6.00025 26.6955 6.00025 26.1394V22.6296C6.00025 21.5487 6.0001 20.5449 6.05591 19.7068C6.10967 18.8996 6.22152 18.0895 6.53443 17.4753L6.62525 17.3044C6.90867 16.7986 7.27821 16.349 7.71509 15.9753L6.55298 15.3943L6.46412 15.3435C6.03599 15.0722 5.87417 14.5156 6.10572 14.0525C6.33728 13.5893 6.87983 13.3844 7.35377 13.5642L7.44752 13.6052L9.01588 14.3894L10.303 10.5281L10.5276 9.85911C10.746 9.22851 10.9624 8.70972 11.3128 8.29075L11.4631 8.1218C11.8248 7.74071 12.2665 7.4427 12.7571 7.24973L13.0159 7.16184C13.631 6.98662 14.33 6.99973 15.1985 6.99973H24.802C25.7947 6.99973 26.5657 6.98329 27.2434 7.24973L27.4514 7.3386C27.9274 7.56119 28.3495 7.88628 28.6877 8.29075L28.8528 8.50852C29.2136 9.03675 29.4228 9.70403 29.6975 10.5281L30.9836 14.3894L32.553 13.6052C33.047 13.3582 33.6478 13.5585 33.8948 14.0525C34.1418 14.5464 33.9415 15.1473 33.4475 15.3943L32.2844 15.9753C32.7216 16.3491 33.0917 16.7984 33.3752 17.3044L33.4661 17.4753L33.5081 17.5691C33.691 18.0414 33.4905 18.585 33.0295 18.82C32.5684 19.055 32.0103 18.898 31.7356 18.4724L31.6838 18.3835L31.5725 18.1833C31.3336 17.7939 31.006 17.4661 30.6165 17.2273L30.4172 17.1159C30.1646 16.9872 29.8289 16.8974 29.2405 16.8493C28.6403 16.8003 27.8686 16.7995 26.76 16.7995H13.2405C12.1319 16.7995 11.3602 16.8003 10.76 16.8493C10.3186 16.8854 10.0198 16.9453 9.79127 17.0271L9.58326 17.1159C9.10596 17.3592 8.70655 17.7292 8.42798 18.1833L8.31666 18.3835C8.20454 18.6037 8.10353 19.0514 8.05103 19.8396C8.00059 20.5969 8.00025 21.5264 8.00025 22.6296V26.1394C8.00025 26.7908 8.00468 26.9711 8.03052 27.1013L8.05884 27.2185C8.21961 27.7966 8.69317 28.2407 9.28834 28.3591L9.40162 28.3747C9.53772 28.387 9.76122 28.3894 10.2503 28.3894H10.9006C11.784 28.3892 12.5 27.6731 12.5003 26.7898C12.5003 25.8785 13.2394 25.1394 14.1506 25.1394H18.1868ZM14.8001 19.6286C15.3523 19.6286 15.8001 20.0764 15.8001 20.6286C15.7999 21.1808 15.3522 21.6286 14.8001 21.6286H12.0794C11.5274 21.6284 11.0795 21.1806 11.0794 20.6286C11.0794 20.0765 11.5272 19.6288 12.0794 19.6286H14.8001ZM15.1985 8.99973C14.1807 8.99974 13.8184 9.01254 13.5833 9.07884L13.4885 9.11106C13.3016 9.18461 13.1308 9.29242 12.9846 9.42845L12.8469 9.57298C12.7231 9.72105 12.6285 9.9192 12.4338 10.4743L12.2004 11.1609L10.9758 14.8327C11.6038 14.8005 12.3508 14.7995 13.2405 14.7995H26.76C27.6492 14.7995 28.3959 14.8006 29.0237 14.8327L27.8001 11.1609C27.4782 10.1954 27.3513 9.85518 27.2141 9.65305L27.1536 9.57298C27.0248 9.41903 26.8687 9.29071 26.6936 9.19505L26.512 9.11106C26.2724 9.01685 25.9654 8.99974 24.802 8.99973H15.1985Z" fill="#0033C9"/>
<path d="M31.75 24.6667C31.75 23.194 30.5557 21.9998 29.083 21.9998C27.6104 21.9999 26.417 23.1941 26.417 24.6667C26.417 24.7891 26.4247 24.909 26.4404 25.0261L26.4834 25.3728C26.4899 25.4403 26.4982 25.5434 26.4922 25.6609L26.4814 25.783C26.459 25.9398 26.4219 26.0719 26.3613 26.2058L26.292 26.3406C26.2288 26.4537 26.147 26.5585 26.0683 26.6462L25.8662 26.8533L22.75 29.9695V30.9998H23.7802L26.8965 27.8835L27.1035 27.6814C27.1912 27.6027 27.2961 27.521 27.4092 27.4578L27.5439 27.3884C27.6778 27.3279 27.8099 27.2908 27.9668 27.2683L28.0888 27.2576C28.2063 27.2515 28.3094 27.2598 28.3769 27.2664C28.4768 27.276 28.5989 27.2926 28.7236 27.3093L28.9013 27.3269C28.9612 27.3309 29.0218 27.3328 29.083 27.3328C30.5556 27.3328 31.7498 26.1394 31.75 24.6667ZM29.0898 23.6667L29.1914 23.6716C29.6958 23.7227 30.0898 24.1489 30.0898 24.6667C30.0897 25.1845 29.6956 25.6098 29.1914 25.6609L29.0898 25.6667H29.083C28.531 25.6666 28.0832 25.2188 28.083 24.6667C28.083 24.1146 28.5308 23.6669 29.083 23.6667H29.0898ZM33.75 24.6667C33.7498 27.2439 31.6602 29.3328 29.083 29.3328C28.9771 29.3328 28.8719 29.33 28.7676 29.323L28.457 29.2917C28.41 29.2854 28.3692 29.2799 28.333 29.2751L25.1875 32.4207C25.1334 32.4747 25.0378 32.5756 24.915 32.6707L24.7832 32.7625C24.6751 32.8287 24.5597 32.8816 24.4394 32.9207L24.3174 32.9548C24.1052 33.0058 23.8909 32.9998 23.789 32.9998H22.7275C22.573 32.9998 22.3971 33.0004 22.2451 32.988C22.1223 32.978 21.9668 32.9567 21.7998 32.8972L21.6299 32.824C21.3646 32.6888 21.1421 32.4836 20.9873 32.2312L20.9258 32.1199C20.8087 31.8901 20.7751 31.6684 20.7617 31.5046C20.7493 31.3527 20.75 31.1767 20.75 31.0222V29.9607C20.75 29.8588 20.744 29.6446 20.7949 29.4324L20.8291 29.3103C20.8682 29.1901 20.9211 29.0746 20.9873 28.9666L21.0791 28.8347C21.1741 28.712 21.275 28.6163 21.3291 28.5623L24.4521 25.4392L24.4736 25.4158L24.458 25.2927C24.4304 25.0875 24.417 24.8785 24.417 24.6667C24.417 22.0895 26.5058 19.9999 29.083 19.9998C31.6603 19.9998 33.75 22.0894 33.75 24.6667Z" fill="#0033C9"/>
</svg>
