<svg width="40" height="40" viewBox="0 0 40 40" fill="none" xmlns="http://www.w3.org/2000/svg">
<g clip-path="url(#clip0_1_4150)">
<path d="M39.2129 11.449V11.449C40.2624 17.0781 40.2624 22.8026 39.2129 28.5271V28.5271C38.2588 33.9654 33.9654 38.2588 28.5271 39.2129V39.2129C22.898 40.2624 17.1735 40.2624 11.449 39.2129V39.2129C6.01073 38.2588 1.81276 34.0608 0.858676 28.6225V28.6225C-0.286225 22.9934 -0.286225 17.1735 0.858676 11.449V11.449C1.81276 6.01073 6.01073 1.81276 11.449 0.858676V0.858676C17.0781 -0.286225 22.898 -0.286225 28.6225 0.858676V0.858676C34.0608 1.81276 38.2588 6.01073 39.2129 11.449Z" fill="white"/>
<path fill-rule="evenodd" clip-rule="evenodd" d="M38.2293 28.3468C39.2571 22.7405 39.2565 17.1393 38.2298 11.6323L39.2129 11.449C40.2624 17.0781 40.2624 22.8026 39.2129 28.5271L38.2293 28.3468ZM28.5271 39.2129C33.9654 38.2588 38.2588 33.9654 39.2129 28.5271L38.2279 28.3543C37.3466 33.3779 33.3779 37.3466 28.3543 38.2279L28.5271 39.2129ZM11.449 39.2129C17.1735 40.2624 22.898 40.2624 28.5271 39.2129L28.3438 38.2298C22.8369 39.2565 17.2356 39.2571 11.6293 38.2293L11.449 39.2129ZM28.6225 0.858676L28.4497 1.84363C33.4733 2.72496 37.3466 6.59823 38.2279 11.6218L39.2129 11.449C38.2588 6.01073 34.0608 1.81276 28.6225 0.858676ZM11.449 0.858676C17.0781 -0.286225 22.898 -0.286225 28.6225 0.858676L28.4264 1.83926C22.8303 0.720026 17.1448 0.720683 11.6483 1.83861L11.449 0.858676ZM0.858676 11.449C1.81276 6.01073 6.01073 1.81276 11.449 0.858676L11.6218 1.84363C6.59823 2.72496 2.72496 6.59823 1.84363 11.6218L0.858676 11.449ZM0.858676 11.449L1.83926 11.6451C0.720026 17.2413 0.720683 22.9267 1.83861 28.4232L0.858676 28.6225C-0.286225 22.9934 -0.286225 17.1735 0.858676 11.449ZM0.858676 28.6225C1.81276 34.0608 6.01073 38.2588 11.449 39.2129L11.6218 38.2279C6.59823 37.3466 2.72496 33.4733 1.84363 28.4497L0.858676 28.6225Z" fill="#EEF4FE"/>
<path fill-rule="evenodd" clip-rule="evenodd" d="M21.5569 16.6542C21.1813 16.4168 20.6713 16.2156 20.05 16.274C18.7415 16.3971 18.2826 17.196 18.2826 17.8794C18.2826 18.1901 18.3428 18.3681 18.4002 18.4731C18.4562 18.5755 18.541 18.6664 18.6837 18.755C19.0235 18.966 19.5231 19.0779 20.2767 19.2309C20.297 19.235 20.3175 19.2392 20.3382 19.2434C20.9835 19.3741 21.85 19.5496 22.54 19.9931C22.9223 20.2387 23.2704 20.5755 23.5161 21.0386C23.76 21.4983 23.8729 22.0257 23.8729 22.6103C23.8729 23.4285 23.4668 24.1127 22.9382 24.6019C22.4107 25.09 21.7163 25.4332 20.9768 25.6113C19.4971 25.9677 17.6412 25.7034 16.2483 24.3113C15.8577 23.9208 15.8575 23.2877 16.2479 22.897C16.6384 22.5064 17.2715 22.5063 17.6622 22.8967C18.4787 23.7128 19.5816 23.8902 20.5084 23.6669C20.9721 23.5552 21.3429 23.3532 21.5798 23.134C21.8155 22.9159 21.8729 22.7305 21.8729 22.6103C21.8729 22.2846 21.8111 22.0924 21.7493 21.976C21.6893 21.8629 21.6007 21.7668 21.4588 21.6756C21.1229 21.4597 20.6254 21.3425 19.8787 21.1909C19.8478 21.1846 19.8162 21.1783 19.7841 21.1718C19.1489 21.0435 18.3027 20.8727 17.6285 20.454C17.247 20.217 16.895 19.8892 16.6453 19.4324C16.397 18.9782 16.2826 18.4564 16.2826 17.8794C16.2826 16.1281 17.5629 14.4991 19.8627 14.2828C21.0456 14.1715 21.9939 14.5644 22.6255 14.9636C22.9416 15.1634 23.1871 15.3698 23.3562 15.529C23.4413 15.609 23.5084 15.6784 23.5567 15.7308C23.5809 15.7571 23.6006 15.7792 23.6156 15.7965L23.6345 15.8187L23.6414 15.8269L23.6442 15.8303L23.6454 15.8317L23.646 15.8324C23.6463 15.8328 23.6465 15.8331 22.8827 16.4588L23.6465 15.8331C23.9965 16.2604 23.9338 16.8904 23.5066 17.2404C23.0815 17.5886 22.4556 17.5283 22.1046 17.1069M21.5569 16.6542C21.7445 16.7728 21.8898 16.8953 21.9856 16.9854ZM21.9856 16.9854C22.033 17.0301 22.067 17.0655 22.0865 17.0867ZM22.0865 17.0867C22.0962 17.0972 22.1022 17.1041 22.1044 17.1066ZM22.1044 17.1066L22.1028 17.1046ZM22.1028 17.1046L22.1012 17.1028ZM22.1012 17.1028L22.1003 17.1017ZM22.0998 17.101C22.0998 17.101 22.0998 17.101 22.0998 17.101L22.1002 17.1016C22.1001 17.1014 22.1 17.1012 22.0998 17.101Z" fill="#00CF6A"/>
<path fill-rule="evenodd" clip-rule="evenodd" d="M20.1759 12.6C20.7282 12.6 21.1759 13.0477 21.1759 13.6L21.1759 15.2637C21.1759 15.816 20.7282 16.2637 20.1759 16.2637C19.6236 16.2637 19.1759 15.816 19.1759 15.2637L19.1759 13.6C19.1759 13.0477 19.6236 12.6 20.1759 12.6Z" fill="#00CF6A"/>
<path fill-rule="evenodd" clip-rule="evenodd" d="M20.1759 23.7362C20.7282 23.7362 21.1759 24.1839 21.1759 24.7362L21.1759 26.4C21.1759 26.9522 20.7282 27.4 20.1759 27.4C19.6236 27.4 19.1759 26.9522 19.1759 26.4L19.1759 24.7362C19.1759 24.1839 19.6236 23.7362 20.1759 23.7362Z" fill="#00CF6A"/>
<path fill-rule="evenodd" clip-rule="evenodd" d="M8.49976 19.6858C9.05124 19.656 9.52246 20.0789 9.55225 20.6304C9.83582 25.8794 14.0482 30.1724 19.4148 30.4423C24.0708 30.6766 28.1679 27.8106 29.6986 23.6526C29.8894 23.1343 30.4643 22.8688 30.9825 23.0596C31.5008 23.2504 31.7663 23.8252 31.5755 24.3435C29.7511 29.2992 24.869 32.7192 19.3143 32.4398C12.9142 32.1179 7.89339 26.9991 7.55516 20.7383C7.52537 20.1868 7.94828 19.7156 8.49976 19.6858ZM8.81608 17.3474C8.29285 17.1706 8.012 16.6031 8.18878 16.0799C9.92 10.9558 14.8897 7.38587 20.5603 7.67113C26.8858 7.98933 31.8638 12.9932 32.3057 19.1542C32.3452 19.7051 31.9306 20.1836 31.3797 20.2231C30.8289 20.2627 30.3503 19.8481 30.3108 19.2972C29.9404 14.1319 25.7637 9.93541 20.4598 9.6686C15.7065 9.42949 11.5359 12.4215 10.0836 16.7201C9.90678 17.2433 9.33931 17.5241 8.81608 17.3474Z" fill="#0033C9"/>
<path fill-rule="evenodd" clip-rule="evenodd" d="M6.58664 22.9835C6.35322 22.6587 6.33582 22.226 6.54241 21.8835L7.64235 20.0598C7.78457 19.824 8.01774 19.6573 8.28686 19.599C8.55599 19.5406 8.83725 19.5959 9.06433 19.7517L10.805 20.9457C11.1334 21.171 11.2968 21.5697 11.221 21.9607C11.1452 22.3517 10.8445 22.6604 10.4557 22.7466L7.61512 23.3763C7.2246 23.4628 6.82006 23.3084 6.58664 22.9835Z" fill="#0033C9"/>
<path fill-rule="evenodd" clip-rule="evenodd" d="M33.4691 17.7057C33.669 18.0573 33.6375 18.4947 33.3891 18.814L31.9891 20.614C31.65 21.0499 31.0218 21.1284 30.5858 20.7894L28.7858 19.3894C28.4665 19.1411 28.3282 18.7249 28.4355 18.3349C28.5427 17.9449 28.8743 17.6579 29.2757 17.6078L32.4758 17.2078C32.8771 17.1576 33.2691 17.3541 33.4691 17.7057Z" fill="#0033C9"/>
</g>
<defs>
<clipPath id="clip0_1_4150">
<rect width="40" height="40" fill="white"/>
</clipPath>
</defs>
</svg>
