<svg width="40" height="40" viewBox="0 0 40 40" fill="none" xmlns="http://www.w3.org/2000/svg">
<g clip-path="url(#clip0_1_3528)">
<path d="M39.2129 11.449V11.449C40.2624 17.0781 40.2624 22.8026 39.2129 28.5271V28.5271C38.2588 33.9654 33.9654 38.2588 28.5271 39.2129V39.2129C22.898 40.2624 17.1735 40.2624 11.449 39.2129V39.2129C6.01073 38.2588 1.81276 34.0608 0.858676 28.6225V28.6225C-0.286225 22.9934 -0.286225 17.1735 0.858676 11.449V11.449C1.81276 6.01073 6.01073 1.81276 11.449 0.858676V0.858676C17.0781 -0.286225 22.898 -0.286225 28.6225 0.858676V0.858676C34.0608 1.81276 38.2588 6.01073 39.2129 11.449Z" fill="white"/>
<path fill-rule="evenodd" clip-rule="evenodd" d="M38.2293 28.3468C39.2571 22.7405 39.2565 17.1393 38.2298 11.6323L39.2129 11.449C40.2624 17.0781 40.2624 22.8026 39.2129 28.5271L38.2293 28.3468ZM28.5271 39.2129C33.9654 38.2588 38.2588 33.9654 39.2129 28.5271L38.2279 28.3543C37.3466 33.3779 33.3779 37.3466 28.3543 38.2279L28.5271 39.2129ZM11.449 39.2129C17.1735 40.2624 22.898 40.2624 28.5271 39.2129L28.3438 38.2298C22.8369 39.2565 17.2356 39.2571 11.6293 38.2293L11.449 39.2129ZM28.6225 0.858676L28.4497 1.84363C33.4733 2.72496 37.3466 6.59823 38.2279 11.6218L39.2129 11.449C38.2588 6.01073 34.0608 1.81276 28.6225 0.858676ZM11.449 0.858676C17.0781 -0.286225 22.898 -0.286225 28.6225 0.858676L28.4264 1.83926C22.8303 0.720026 17.1448 0.720683 11.6483 1.83861L11.449 0.858676ZM0.858676 11.449C1.81276 6.01073 6.01073 1.81276 11.449 0.858676L11.6218 1.84363C6.59823 2.72496 2.72496 6.59823 1.84363 11.6218L0.858676 11.449ZM0.858676 11.449L1.83926 11.6451C0.720026 17.2413 0.720683 22.9267 1.83861 28.4232L0.858676 28.6225C-0.286225 22.9934 -0.286225 17.1735 0.858676 11.449ZM0.858676 28.6225C1.81276 34.0608 6.01073 38.2588 11.449 39.2129L11.6218 38.2279C6.59823 37.3466 2.72496 33.4733 1.84363 28.4497L0.858676 28.6225Z" fill="#EEF4FE"/>
<path d="M7 20C7 27.1797 12.8203 33 20 33C24.6315 33 28.6974 30.578 31 26.9314L20 20V7C12.8203 7 7 12.8203 7 20Z" fill="#00CF6A"/>
<path fill-rule="evenodd" clip-rule="evenodd" d="M31.6275 27.7969C29.1159 31.5362 24.845 34 19.998 34C12.2661 34 5.99805 27.732 5.99805 20C5.99805 12.268 12.2661 6 19.998 6C20.5503 6 20.998 6.44772 20.998 7V19.5187L30.6701 25.5969C31.5187 23.9421 31.998 22.0642 31.998 20.0713C31.998 14.8682 28.7259 10.4353 24.1413 8.73855C23.6233 8.54686 23.3588 7.97159 23.5505 7.45363C23.7422 6.93568 24.3175 6.67119 24.8354 6.86288C30.1848 8.84258 33.998 14.01 33.998 20.0713C33.998 22.8082 33.2196 25.3658 31.8723 27.5287C31.8071 27.6333 31.7239 27.7239 31.6275 27.7969ZM7.99805 20C7.99805 13.7093 12.8385 8.54922 18.998 8.04107V20.0713C18.998 20.4152 19.1748 20.735 19.466 20.918L29.555 27.2582C27.3619 30.1414 23.8967 32 19.998 32C13.3706 32 7.99805 26.6274 7.99805 20Z" fill="#0033C9"/>
</g>
<defs>
<clipPath id="clip0_1_3528">
<rect width="40" height="40" fill="white"/>
</clipPath>
</defs>
</svg>
