<svg width="40" height="40" viewBox="0 0 40 40" fill="none" xmlns="http://www.w3.org/2000/svg">
<g clip-path="url(#clip0_1_3584)">
<path d="M39.2129 11.449V11.449C40.2624 17.0781 40.2624 22.8026 39.2129 28.5271V28.5271C38.2588 33.9654 33.9654 38.2588 28.5271 39.2129V39.2129C22.898 40.2624 17.1735 40.2624 11.449 39.2129V39.2129C6.01073 38.2588 1.81276 34.0608 0.858676 28.6225V28.6225C-0.286225 22.9934 -0.286225 17.1735 0.858676 11.449V11.449C1.81276 6.01073 6.01073 1.81276 11.449 0.858676V0.858676C17.0781 -0.286225 22.898 -0.286225 28.6225 0.858676V0.858676C34.0608 1.81276 38.2588 6.01073 39.2129 11.449Z" fill="white"/>
<path fill-rule="evenodd" clip-rule="evenodd" d="M38.2293 28.3468C39.2571 22.7405 39.2565 17.1393 38.2298 11.6323L39.2129 11.449C40.2624 17.0781 40.2624 22.8026 39.2129 28.5271L38.2293 28.3468ZM28.5271 39.2129C33.9654 38.2588 38.2588 33.9654 39.2129 28.5271L38.2279 28.3543C37.3466 33.3779 33.3779 37.3466 28.3543 38.2279L28.5271 39.2129ZM11.449 39.2129C17.1735 40.2624 22.898 40.2624 28.5271 39.2129L28.3438 38.2298C22.8369 39.2565 17.2356 39.2571 11.6293 38.2293L11.449 39.2129ZM28.6225 0.858676L28.4497 1.84363C33.4733 2.72496 37.3466 6.59823 38.2279 11.6218L39.2129 11.449C38.2588 6.01073 34.0608 1.81276 28.6225 0.858676ZM11.449 0.858676C17.0781 -0.286225 22.898 -0.286225 28.6225 0.858676L28.4264 1.83926C22.8303 0.720026 17.1448 0.720683 11.6483 1.83861L11.449 0.858676ZM0.858676 11.449C1.81276 6.01073 6.01073 1.81276 11.449 0.858676L11.6218 1.84363C6.59823 2.72496 2.72496 6.59823 1.84363 11.6218L0.858676 11.449ZM0.858676 11.449L1.83926 11.6451C0.720026 17.2413 0.720683 22.9267 1.83861 28.4232L0.858676 28.6225C-0.286225 22.9934 -0.286225 17.1735 0.858676 11.449ZM0.858676 28.6225C1.81276 34.0608 6.01073 38.2588 11.449 39.2129L11.6218 38.2279C6.59823 37.3466 2.72496 33.4733 1.84363 28.4497L0.858676 28.6225Z" fill="#EEF4FE"/>
<path fill-rule="evenodd" clip-rule="evenodd" d="M32.1529 20.7512C32.2042 19.4972 32.2146 18.2566 32.1842 17.0081H8.21815C8.15818 19.4708 8.25706 21.9049 8.51559 24.4736C8.60054 25.3176 9.30396 25.9988 10.2072 26.0711C10.6683 26.108 11.1252 26.1459 11.5806 26.1837C13.9124 26.3772 16.2038 26.5673 18.8138 26.6002C19.366 26.6071 19.808 27.0604 19.8011 27.6127C19.7941 28.1649 19.3408 28.6069 18.7886 28.6C16.1025 28.5662 13.733 28.3694 11.3995 28.1756L11.3982 28.1755C10.9473 28.1381 10.4978 28.1007 10.0477 28.0647C8.23942 27.9201 6.71311 26.5363 6.52565 24.6739C6.22473 21.6842 6.13284 18.86 6.25113 15.9672C6.30275 14.7048 6.39434 13.4309 6.52567 12.1261C6.71304 10.2645 8.23916 8.87713 10.0528 8.74098C10.445 8.71154 10.8402 8.68123 11.2384 8.6507C14.102 8.43109 17.1143 8.20007 20.2012 8.20007C23.288 8.20007 26.3003 8.43108 29.164 8.65069C29.5621 8.68123 29.9573 8.71154 30.3495 8.74098C32.1632 8.87713 33.6893 10.2645 33.8767 12.1261C34.008 13.4309 34.0996 14.7048 34.1512 15.9672C34.2178 17.5961 34.2178 19.204 34.1512 20.8329C34.1287 21.3847 33.663 21.8138 33.1112 21.7912C32.5594 21.7687 32.1303 21.303 32.1529 20.7512ZM32.1012 15.0081L8.30119 15.0081C8.35271 14.1265 8.42416 13.235 8.51562 12.3264C8.60066 11.4815 9.30372 10.8028 10.2025 10.7354C10.5988 10.7056 10.9962 10.6752 11.3949 10.6446C14.2648 10.4247 17.1965 10.2001 20.2012 10.2001C23.2058 10.2001 26.1372 10.4247 29.0071 10.6446C29.4058 10.6751 29.8035 10.7056 30.1998 10.7354C31.0986 10.8028 31.8017 11.4815 31.8867 12.3264C31.9782 13.235 32.0496 14.1265 32.1012 15.0081Z" fill="#0033C9"/>
<path d="M11.8008 21.8C11.2485 21.8 10.8008 22.2478 10.8008 22.8C10.8008 23.3523 11.2485 23.8 11.8008 23.8H15.8008C16.3531 23.8 16.8008 23.3523 16.8008 22.8C16.8008 22.2478 16.3531 21.8 15.8008 21.8H11.8008Z" fill="#0033C9"/>
<path fill-rule="evenodd" clip-rule="evenodd" d="M28 34.0001C31.3137 34.0001 34 31.3138 34 28.0001C34 24.6864 31.3137 22.0001 28 22.0001C24.6863 22.0001 22 24.6864 22 28.0001C22 31.3138 24.6863 34.0001 28 34.0001ZM28.0254 25.0183C28.5777 25.0183 29.0254 25.466 29.0254 26.0183V27.0258H30C30.5523 27.0258 31 27.4735 31 28.0258C31 28.578 30.5523 29.0258 30 29.0258H29.0254V30.0001C29.0254 30.5524 28.5777 31.0001 28.0254 31.0001C27.4731 31.0001 27.0254 30.5524 27.0254 30.0001V29.0258H26C25.4477 29.0258 25 28.578 25 28.0258C25 27.4735 25.4477 27.0258 26 27.0258H27.0254V26.0183C27.0254 25.466 27.4731 25.0183 28.0254 25.0183Z" fill="#00CF6A"/>
</g>
<defs>
<clipPath id="clip0_1_3584">
<rect width="40" height="40" fill="white"/>
</clipPath>
</defs>
</svg>
