<svg width="40" height="40" viewBox="0 0 40 40" fill="none" xmlns="http://www.w3.org/2000/svg">
<g clip-path="url(#clip0_1_4901)">
<path d="M39.2129 11.449V11.449C40.2624 17.0781 40.2624 22.8026 39.2129 28.5271V28.5271C38.2588 33.9654 33.9654 38.2588 28.5271 39.2129V39.2129C22.898 40.2624 17.1735 40.2624 11.449 39.2129V39.2129C6.01073 38.2588 1.81276 34.0608 0.858676 28.6225V28.6225C-0.286225 22.9934 -0.286225 17.1735 0.858676 11.449V11.449C1.81276 6.01073 6.01073 1.81276 11.449 0.858676V0.858676C17.0781 -0.286225 22.898 -0.286225 28.6225 0.858676V0.858676C34.0608 1.81276 38.2588 6.01073 39.2129 11.449Z" fill="white"/>
<path fill-rule="evenodd" clip-rule="evenodd" d="M38.2293 28.3468C39.2571 22.7405 39.2565 17.1393 38.2298 11.6323L39.2129 11.449C40.2624 17.0781 40.2624 22.8026 39.2129 28.5271L38.2293 28.3468ZM28.5271 39.2129C33.9654 38.2588 38.2588 33.9654 39.2129 28.5271L38.2279 28.3543C37.3466 33.3779 33.3779 37.3466 28.3543 38.2279L28.5271 39.2129ZM11.449 39.2129C17.1735 40.2624 22.898 40.2624 28.5271 39.2129L28.3438 38.2298C22.8369 39.2565 17.2356 39.2571 11.6293 38.2293L11.449 39.2129ZM28.6225 0.858676L28.4497 1.84363C33.4733 2.72496 37.3466 6.59823 38.2279 11.6218L39.2129 11.449C38.2588 6.01073 34.0608 1.81276 28.6225 0.858676ZM11.449 0.858676C17.0781 -0.286225 22.898 -0.286225 28.6225 0.858676L28.4264 1.83926C22.8303 0.720026 17.1448 0.720683 11.6483 1.83861L11.449 0.858676ZM0.858676 11.449C1.81276 6.01073 6.01073 1.81276 11.449 0.858676L11.6218 1.84363C6.59823 2.72496 2.72496 6.59823 1.84363 11.6218L0.858676 11.449ZM0.858676 11.449L1.83926 11.6451C0.720026 17.2413 0.720683 22.9267 1.83861 28.4232L0.858676 28.6225C-0.286225 22.9934 -0.286225 17.1735 0.858676 11.449ZM0.858676 28.6225C1.81276 34.0608 6.01073 38.2588 11.449 39.2129L11.6218 38.2279C6.59823 37.3466 2.72496 33.4733 1.84363 28.4497L0.858676 28.6225Z" fill="#EEF4FE"/>
<path fill-rule="evenodd" clip-rule="evenodd" d="M14.0872 9C11.6287 9 9.7217 9.28492 8.50331 10.5033C7.28492 11.7217 7 13.6287 7 16.0872V16.7035C7 17.214 7.41388 17.6279 7.92442 17.6279C9.11481 17.6279 10.0814 18.5945 10.0814 19.7849C10.0814 20.9753 9.11481 21.9419 7.92442 21.9419C7.41388 21.9419 7 22.3557 7 22.8663V23.4826C7 25.9411 7.28492 27.8481 8.50331 29.0665C9.7217 30.2848 11.6287 30.5698 14.0872 30.5698H26.4128C28.8713 30.5698 30.7783 30.2848 31.9967 29.0665C33.2151 27.8481 33.5 25.9411 33.5 23.4826C33.5 22.972 33.0861 22.5581 32.5756 22.5581C31.3852 22.5581 30.4186 21.5915 30.4186 20.4012C30.4186 19.2108 31.3852 18.2442 32.5756 18.2442C33.0861 18.2442 33.5 17.8303 33.5 17.3198V16.0872C33.5 13.6287 33.2151 11.7217 31.9967 10.5033C30.7783 9.28492 28.8713 9 26.4128 9H14.0872ZM11.9302 19.7849C11.9302 17.8918 10.6154 16.3044 8.84959 15.8866C8.86726 13.5514 9.1975 12.4238 9.81064 11.8106C10.4411 11.1802 11.6155 10.8488 14.0872 10.8488H26.4128C28.8845 10.8488 30.0589 11.1802 30.6894 11.8106C31.3198 12.4411 31.6512 13.6155 31.6512 16.0872V16.5027C29.885 16.9202 28.5698 18.5078 28.5698 20.4012C28.5698 22.2897 29.8783 23.874 31.6377 24.2965C31.5697 26.2211 31.2462 27.2023 30.6894 27.7591C30.0589 28.3896 28.8845 28.7209 26.4128 28.7209H14.0872C11.6155 28.7209 10.4411 28.3896 9.81064 27.7591C9.1975 27.146 8.86726 26.0184 8.84959 23.6832C10.6154 23.2654 11.9302 21.6779 11.9302 19.7849Z" fill="#0033C9"/>
<path d="M24.6007 16.4328C24.9617 16.0718 24.9617 15.4865 24.6007 15.1255C24.2397 14.7645 23.6544 14.7645 23.2934 15.1255L15.898 22.5208C15.537 22.8818 15.537 23.4672 15.898 23.8282C16.259 24.1892 16.8443 24.1892 17.2053 23.8282L24.6007 16.4328Z" fill="#00CF6A"/>
<path d="M22.7078 23.1745C22.7078 22.4938 23.2597 21.9419 23.9404 21.9419H23.9515C24.6322 21.9419 25.184 22.4938 25.184 23.1745C25.184 23.8552 24.6322 24.4071 23.9515 24.4071H23.9404C23.2597 24.4071 22.7078 23.8552 22.7078 23.1745Z" fill="#00CF6A"/>
<path d="M16.5451 15.1629C15.8643 15.1629 15.3125 15.7147 15.3125 16.3954C15.3125 17.0762 15.8643 17.628 16.5451 17.628H16.5561C17.2369 17.628 17.7887 17.0762 17.7887 16.3954C17.7887 15.7147 17.2369 15.1629 16.5561 15.1629H16.5451Z" fill="#00CF6A"/>
</g>
<defs>
<clipPath id="clip0_1_4901">
<rect width="40" height="40" fill="white"/>
</clipPath>
</defs>
</svg>
