<svg width="40" height="40" viewBox="0 0 40 40" fill="none" xmlns="http://www.w3.org/2000/svg">
<g clip-path="url(#clip0_1_3471)">
<path d="M39.2129 11.449V11.449C40.2624 17.0781 40.2624 22.8026 39.2129 28.5271V28.5271C38.2588 33.9654 33.9654 38.2588 28.5271 39.2129V39.2129C22.898 40.2624 17.1735 40.2624 11.449 39.2129V39.2129C6.01073 38.2588 1.81276 34.0608 0.858676 28.6225V28.6225C-0.286225 22.9934 -0.286225 17.1735 0.858676 11.449V11.449C1.81276 6.01073 6.01073 1.81276 11.449 0.858676V0.858676C17.0781 -0.286225 22.898 -0.286225 28.6225 0.858676V0.858676C34.0608 1.81276 38.2588 6.01073 39.2129 11.449Z" fill="white"/>
<path fill-rule="evenodd" clip-rule="evenodd" d="M38.2293 28.3468C39.2571 22.7405 39.2565 17.1393 38.2298 11.6323L39.2129 11.449C40.2624 17.0781 40.2624 22.8026 39.2129 28.5271L38.2293 28.3468ZM28.5271 39.2129C33.9654 38.2588 38.2588 33.9654 39.2129 28.5271L38.2279 28.3543C37.3466 33.3779 33.3779 37.3466 28.3543 38.2279L28.5271 39.2129ZM11.449 39.2129C17.1735 40.2624 22.898 40.2624 28.5271 39.2129L28.3438 38.2298C22.8369 39.2565 17.2356 39.2571 11.6293 38.2293L11.449 39.2129ZM28.6225 0.858676L28.4497 1.84363C33.4733 2.72496 37.3466 6.59823 38.2279 11.6218L39.2129 11.449C38.2588 6.01073 34.0608 1.81276 28.6225 0.858676ZM11.449 0.858676C17.0781 -0.286225 22.898 -0.286225 28.6225 0.858676L28.4264 1.83926C22.8303 0.720026 17.1448 0.720683 11.6483 1.83861L11.449 0.858676ZM0.858676 11.449C1.81276 6.01073 6.01073 1.81276 11.449 0.858676L11.6218 1.84363C6.59823 2.72496 2.72496 6.59823 1.84363 11.6218L0.858676 11.449ZM0.858676 11.449L1.83926 11.6451C0.720026 17.2413 0.720683 22.9267 1.83861 28.4232L0.858676 28.6225C-0.286225 22.9934 -0.286225 17.1735 0.858676 11.449ZM0.858676 28.6225C1.81276 34.0608 6.01073 38.2588 11.449 39.2129L11.6218 38.2279C6.59823 37.3466 2.72496 33.4733 1.84363 28.4497L0.858676 28.6225Z" fill="#EEF4FE"/>
<path d="M13.4526 6.00584C14.0017 5.94669 14.4948 6.34388 14.554 6.89298C14.6131 7.44209 14.2159 7.93518 13.6668 7.99433C12.9266 8.07406 12.1923 8.1592 11.4602 8.24409L11.3092 8.26158C9.71032 8.4469 8.43337 9.7252 8.25427 11.3206C8.1671 12.097 8.07975 12.8763 7.99864 13.662C7.94191 14.2113 7.45058 14.6107 6.90122 14.554C6.35185 14.4973 5.95249 14.0059 6.00921 13.4566C6.09138 12.6607 6.1797 11.8728 6.26675 11.0974C6.55021 8.57263 8.55946 6.56689 11.079 6.27488L11.2315 6.25719C11.9621 6.1725 12.704 6.08647 13.4526 6.00584Z" fill="#0033C9"/>
<path d="M26.5713 6.00584C26.0222 5.94669 25.5291 6.34388 25.4699 6.89298C25.4108 7.44209 25.808 7.93518 26.3571 7.99433C27.0971 8.07405 27.8313 8.15917 28.5634 8.24405L28.7146 8.26158C30.3136 8.4469 31.5905 9.7252 31.7696 11.3206C31.8568 12.097 31.9441 12.8763 32.0252 13.662C32.082 14.2113 32.5733 14.6107 33.1227 14.554C33.672 14.4973 34.0714 14.0059 34.0147 13.4566C33.9325 12.6607 33.8442 11.8728 33.7571 11.0974C33.4737 8.57263 31.4644 6.56689 28.9449 6.27488L28.7923 6.25719C28.0618 6.1725 27.3199 6.08647 26.5713 6.00584Z" fill="#0033C9"/>
<path d="M25.4699 33.1071C25.5291 33.6562 26.0222 34.0534 26.5713 33.9943C27.3196 33.9137 28.0612 33.8277 28.7914 33.743L28.9449 33.7252C31.4644 33.4332 33.4737 31.4275 33.7571 28.9027C33.8442 28.1273 33.9325 27.3394 34.0147 26.5436C34.0714 25.9942 33.672 25.5029 33.1227 25.4461C32.5733 25.3894 32.082 25.7888 32.0252 26.3382C31.9441 27.1238 31.8568 27.9031 31.7696 28.6796C31.5905 30.2749 30.3136 31.5532 28.7146 31.7385L28.5637 31.756L28.5627 31.7561C27.831 31.841 27.0967 31.9261 26.3571 32.0058C25.808 32.0649 25.4108 32.558 25.4699 33.1071Z" fill="#0033C9"/>
<path d="M14.554 33.1071C14.4948 33.6562 14.0017 34.0534 13.4526 33.9943C12.7041 33.9137 11.9622 33.8276 11.2318 33.743L11.079 33.7252C8.55946 33.4332 6.55021 31.4275 6.26675 28.9027C6.1797 28.1273 6.09138 27.3394 6.00921 26.5436C5.95249 25.9942 6.35185 25.5029 6.90122 25.4461C7.45058 25.3894 7.94191 25.7888 7.99864 26.3382C8.07975 27.1238 8.1671 27.9031 8.25427 28.6796C8.43337 30.2749 9.71032 31.5532 11.3092 31.7385L11.4602 31.756L11.4612 31.7561C12.193 31.841 12.927 31.9261 13.6668 32.0058C14.2159 32.0649 14.6131 32.558 14.554 33.1071Z" fill="#0033C9"/>
<path d="M13 27H10V13H13V27Z" fill="#00CF6A"/>
<path d="M16 27H14V13H16V27Z" fill="#00CF6A"/>
<path d="M21 27H17V13H21V27Z" fill="#00CF6A"/>
<path d="M24 27H22V13H24V27Z" fill="#00CF6A"/>
<path d="M26 27H25V13H26V27Z" fill="#00CF6A"/>
<path d="M30 27H27V13H30V27Z" fill="#00CF6A"/>
</g>
<defs>
<clipPath id="clip0_1_3471">
<rect width="40" height="40" fill="white"/>
</clipPath>
</defs>
</svg>
