<svg width="40" height="40" viewBox="0 0 40 40" fill="none" xmlns="http://www.w3.org/2000/svg">
<g clip-path="url(#clip0_1_4017)">
<path d="M39.2129 11.449V11.449C40.2624 17.0781 40.2624 22.8026 39.2129 28.5271V28.5271C38.2588 33.9654 33.9654 38.2588 28.5271 39.2129V39.2129C22.898 40.2624 17.1735 40.2624 11.449 39.2129V39.2129C6.01073 38.2588 1.81276 34.0608 0.858676 28.6225V28.6225C-0.286225 22.9934 -0.286225 17.1735 0.858676 11.449V11.449C1.81276 6.01073 6.01073 1.81276 11.449 0.858676V0.858676C17.0781 -0.286225 22.898 -0.286225 28.6225 0.858676V0.858676C34.0608 1.81276 38.2588 6.01073 39.2129 11.449Z" fill="white"/>
<path fill-rule="evenodd" clip-rule="evenodd" d="M38.2293 28.3468C39.2571 22.7405 39.2565 17.1393 38.2298 11.6323L39.2129 11.449C40.2624 17.0781 40.2624 22.8026 39.2129 28.5271L38.2293 28.3468ZM28.5271 39.2129C33.9654 38.2588 38.2588 33.9654 39.2129 28.5271L38.2279 28.3543C37.3466 33.3779 33.3779 37.3466 28.3543 38.2279L28.5271 39.2129ZM11.449 39.2129C17.1735 40.2624 22.898 40.2624 28.5271 39.2129L28.3438 38.2298C22.8369 39.2565 17.2356 39.2571 11.6293 38.2293L11.449 39.2129ZM28.6225 0.858676L28.4497 1.84363C33.4733 2.72496 37.3466 6.59823 38.2279 11.6218L39.2129 11.449C38.2588 6.01073 34.0608 1.81276 28.6225 0.858676ZM11.449 0.858676C17.0781 -0.286225 22.898 -0.286225 28.6225 0.858676L28.4264 1.83926C22.8303 0.720026 17.1448 0.720683 11.6483 1.83861L11.449 0.858676ZM0.858676 11.449C1.81276 6.01073 6.01073 1.81276 11.449 0.858676L11.6218 1.84363C6.59823 2.72496 2.72496 6.59823 1.84363 11.6218L0.858676 11.449ZM0.858676 11.449L1.83926 11.6451C0.720026 17.2413 0.720683 22.9267 1.83861 28.4232L0.858676 28.6225C-0.286225 22.9934 -0.286225 17.1735 0.858676 11.449ZM0.858676 28.6225C1.81276 34.0608 6.01073 38.2588 11.449 39.2129L11.6218 38.2279C6.59823 37.3466 2.72496 33.4733 1.84363 28.4497L0.858676 28.6225Z" fill="#EEF4FE"/>
<path d="M10.4059 29.0555C10.5191 31.0664 12.0764 32.6637 14.0462 32.7335C18.6203 32.8955 24.1753 32.7248 27.0522 32.6101C28.1383 32.5668 28.9888 31.6524 28.9888 30.5417V14.8184C28.9888 13.7077 28.1383 12.7933 27.0522 12.75C23.8068 12.6206 17.1532 12.42 12.3445 12.7061C11.3606 12.7646 10.5871 13.565 10.5161 14.5695C10.1685 19.4899 10.1318 24.1831 10.4059 29.0555Z" fill="white"/>
<path fill-rule="evenodd" clip-rule="evenodd" d="M27.0124 13.7492C23.7656 13.6197 17.1573 13.4215 12.4039 13.7043C11.9517 13.7312 11.5514 14.1055 11.5136 14.64C11.169 19.5188 11.1326 24.1698 11.4044 28.9993C11.4903 30.5266 12.6601 31.6837 14.0816 31.7341C18.6157 31.8946 24.1391 31.7254 27.0124 31.6109C27.5365 31.59 27.9888 31.1417 27.9888 30.5417V14.8184C27.9888 14.2184 27.5365 13.77 27.0124 13.7492ZM12.2851 11.7078C17.1491 11.4184 23.8479 11.6214 27.092 11.7507C28.7402 11.8164 29.9888 13.1969 29.9888 14.8184V30.5417C29.9888 32.1631 28.7402 33.5436 27.092 33.6093C24.2115 33.7241 18.6248 33.8962 14.0108 33.7328C11.4926 33.6436 9.54787 31.6061 9.40751 29.1117C9.13095 24.1964 9.16806 19.4609 9.51861 14.499C9.62277 13.0245 10.7696 11.798 12.2851 11.7078Z" fill="#0033C9"/>
<path d="M11.0958 13.2751C11.0954 13.2755 11.0963 13.2746 11.0958 13.2751C14.2484 8.38512 20.9445 6.25122 26.6277 7.34601L26.6277 12.7334C23.2537 12.6047 16.9522 12.4319 12.3446 12.7061C11.8573 12.7351 11.4201 12.9474 11.0958 13.2751Z" fill="white"/>
<path fill-rule="evenodd" clip-rule="evenodd" d="M10.2601 12.7246C13.6827 7.42527 20.8272 5.2104 26.816 6.36406C27.2867 6.45473 27.6268 6.86665 27.6268 7.346L27.6268 12.7334C27.6268 13.0053 27.5162 13.2654 27.3203 13.4539C27.1245 13.6424 26.8603 13.7431 26.5887 13.7327C23.2144 13.6039 16.9568 13.4334 12.4031 13.7043C12.1745 13.7179 11.9658 13.8168 11.8057 13.9785C11.7905 13.9939 11.7747 14.0089 11.7585 14.0233L11.7489 14.0316C11.7459 14.0342 11.7368 14.0421 11.7248 14.0518C11.7194 14.0562 11.7064 14.0666 11.6894 14.0792C11.6809 14.0855 11.6657 14.0966 11.6459 14.1096C11.6358 14.1163 11.6214 14.1256 11.6036 14.1361C11.5871 14.1458 11.5593 14.1617 11.5235 14.1786C11.5051 14.1874 11.4803 14.1985 11.4504 14.2098C11.4215 14.2208 11.379 14.2355 11.3262 14.248C11.3039 14.2531 11.255 14.2622 11.2286 14.2662C11.1972 14.2699 11.1285 14.2746 11.0912 14.2752C11.0862 14.275 11.0804 14.2748 11.0742 14.2745C11.1181 14.2743 11.188 14.2705 11.2209 14.267C11.2506 14.2627 11.305 14.2526 11.3296 14.247C11.3506 14.2417 11.3894 14.2306 11.4071 14.225C11.4224 14.2198 11.4508 14.2095 11.464 14.2044C11.4956 14.1918 11.5217 14.1796 11.5407 14.1702C11.5601 14.1605 11.5765 14.1516 11.5892 14.1443C11.6022 14.1369 11.6134 14.1302 11.6225 14.1246C11.6403 14.1135 11.6547 14.1038 11.6647 14.0968C11.6842 14.0834 11.6992 14.0719 11.7074 14.0656C11.7165 14.0585 11.7239 14.0526 11.7289 14.0484C11.7387 14.0404 11.7464 14.0338 11.7505 14.0302C11.7534 14.0277 11.7561 14.0253 11.7584 14.0232C11.7631 14.0191 11.7666 14.0159 11.7686 14.0141L11.7837 14L11.798 13.9863C11.7997 13.9846 11.8023 13.9819 11.8057 13.9785C11.806 13.9782 11.8062 13.978 11.8065 13.9777L11.095 13.275L10.2546 12.7332C10.2528 12.736 10.2509 12.7389 10.249 12.7419C10.242 12.7531 10.2334 12.7672 10.224 12.7839C10.2148 12.8002 10.203 12.8221 10.1906 12.8485C10.1785 12.8741 10.1622 12.9116 10.1466 12.9583C10.1419 12.9727 10.1341 12.9997 10.1279 13.0223C10.1313 13.0087 10.1346 12.9962 10.1371 12.9876C10.1533 12.9336 10.1713 12.8904 10.1845 12.8614C10.1982 12.8313 10.2112 12.8065 10.2214 12.7883C10.2318 12.7696 10.2414 12.7538 10.2492 12.7415C10.2529 12.7355 10.2566 12.7299 10.2601 12.7246ZM10.3596 12.5975L10.3515 12.6063C10.3549 12.6026 10.3577 12.5995 10.3596 12.5975ZM13.8009 11.6349C16.8479 8.88168 21.4322 7.63493 25.6268 8.19589L25.6268 11.6966C22.5092 11.5902 17.7723 11.4845 13.8009 11.6349ZM10.1192 13.0582C10.1202 13.0533 10.1211 13.0488 10.1219 13.0449C10.1235 13.0385 10.1256 13.0307 10.1279 13.0223C10.125 13.034 10.1219 13.0465 10.1192 13.0582ZM10.1062 13.1315C10.1084 13.1145 10.1106 13.0992 10.1125 13.0883C10.1142 13.0799 10.1165 13.0694 10.1192 13.0582C10.1151 13.0784 10.1101 13.1064 10.1062 13.1315ZM10.0993 13.191C10.0998 13.1824 10.1003 13.1747 10.1008 13.1683C10.1021 13.158 10.104 13.1452 10.1062 13.1315C10.1037 13.1505 10.1013 13.1715 10.0993 13.191ZM10.0967 13.2894C10.0959 13.2667 10.0955 13.2463 10.0958 13.2315C10.0965 13.2202 10.0978 13.2061 10.0993 13.191C10.0978 13.2187 10.0968 13.2556 10.0967 13.2894ZM10.1021 13.3809C10.1002 13.3679 10.0987 13.3563 10.0977 13.3465C10.097 13.3308 10.0967 13.3107 10.0967 13.2894C10.0978 13.3184 10.0997 13.3512 10.1021 13.3809ZM10.1271 13.5134C10.1185 13.4827 10.1116 13.4549 10.1076 13.4343C10.1056 13.4193 10.1037 13.4008 10.1021 13.3809C10.1078 13.419 10.1171 13.4683 10.1271 13.5134ZM10.166 13.6379C10.1586 13.6216 10.1523 13.6067 10.1474 13.594C10.1409 13.5721 10.1338 13.5437 10.1271 13.5134C10.1383 13.5536 10.1523 13.5986 10.166 13.6379ZM10.2472 13.7956C10.2234 13.7593 10.2026 13.7249 10.1891 13.699C10.1819 13.6819 10.174 13.6609 10.166 13.6379C10.1873 13.6849 10.2176 13.7436 10.2472 13.7956ZM10.3387 13.9244C10.3248 13.9099 10.3125 13.8964 10.3024 13.8844C10.286 13.8612 10.2668 13.8299 10.2472 13.7956C10.2759 13.8393 10.3089 13.8859 10.3387 13.9244ZM10.4847 14.0601C10.4438 14.0294 10.4056 13.9985 10.3798 13.9742C10.3675 13.9605 10.3535 13.9434 10.3387 13.9244C10.38 13.9672 10.4348 14.018 10.4847 14.0601ZM10.6044 14.1437C10.5898 14.1364 10.5765 14.1294 10.565 14.1228C10.5426 14.1074 10.5145 14.0853 10.4847 14.0601C10.5251 14.0905 10.5681 14.1206 10.6044 14.1437ZM10.7708 14.2171C10.7244 14.2011 10.6779 14.1834 10.646 14.1688C10.6338 14.162 10.6197 14.1535 10.6044 14.1437C10.6536 14.1685 10.7169 14.1962 10.7708 14.2171ZM10.8691 14.2481C10.86 14.2463 10.8515 14.2446 10.8439 14.2428C10.8243 14.237 10.7988 14.2279 10.7708 14.2171C10.8058 14.2291 10.8408 14.2402 10.8691 14.2481ZM10.8691 14.2481C10.9133 14.2567 10.9718 14.2652 11.0178 14.2703C10.9757 14.2665 10.9291 14.261 10.8982 14.2556C10.8897 14.2537 10.8799 14.2511 10.8691 14.2481ZM11.0178 14.2703C11.0385 14.2721 11.0581 14.2736 11.0742 14.2745C11.0709 14.2745 11.0678 14.2745 11.0648 14.2744C11.0522 14.2737 11.036 14.2723 11.0178 14.2703Z" fill="#0033C9"/>
<path fill-rule="evenodd" clip-rule="evenodd" d="M20.6074 20.7334C20.4095 20.6083 20.1569 20.5119 19.8539 20.5404C19.4844 20.5752 19.29 20.7051 19.1902 20.8126C19.0848 20.926 19.0302 21.0721 19.0302 21.2278C19.0302 21.3818 19.0596 21.4363 19.063 21.4426C19.0631 21.4428 19.0629 21.4424 19.063 21.4426C19.0655 21.4472 19.0747 21.4646 19.123 21.4945C19.2779 21.5907 19.5308 21.6535 20.0378 21.7564C20.0556 21.76 20.0739 21.7637 20.0927 21.7675C20.4994 21.8496 21.1188 21.9746 21.6229 22.2986C21.9126 22.4848 22.1836 22.7451 22.3754 23.1065C22.5654 23.4646 22.6474 23.865 22.6474 24.2889C22.6474 24.9415 22.3232 25.4723 21.9294 25.8367C21.5368 26.2 21.0304 26.4469 20.5032 26.5739C19.4482 26.828 18.1144 26.6417 17.1114 25.6392C16.7208 25.2488 16.7206 24.6156 17.1111 24.225C17.5015 23.8344 18.1347 23.8342 18.5253 24.2246C18.9519 24.651 19.5327 24.7505 20.0348 24.6295C20.2862 24.569 20.469 24.4631 20.571 24.3688C20.6224 24.3212 20.6412 24.2896 20.6474 24.2761C20.6458 24.1205 20.6163 24.0583 20.6087 24.0439C20.6026 24.0325 20.591 24.0128 20.5416 23.9811C20.3907 23.8841 20.1399 23.818 19.6398 23.7164C19.6166 23.7117 19.5924 23.7069 19.5675 23.7019C19.1667 23.6213 18.5605 23.4995 18.0678 23.1935C17.7788 23.014 17.5039 22.7601 17.3082 22.402C17.1138 22.0464 17.0302 21.6481 17.0302 21.2278C17.0302 19.9062 18.0036 18.7056 19.6666 18.5492C20.5311 18.4679 21.2221 18.7559 21.6759 19.0428C21.9031 19.1864 22.0796 19.3347 22.2021 19.4499C22.2637 19.5079 22.313 19.5588 22.3494 19.5983C22.3676 19.618 22.3827 19.635 22.3947 19.6488L22.4102 19.667L22.4162 19.6742L22.4188 19.6773L22.42 19.6787C22.4202 19.6791 22.4211 19.6801 21.6663 20.2983L22.4211 19.6801C22.771 20.1073 22.7084 20.7374 22.2811 21.0873C21.8538 21.4373 21.2238 21.3746 20.8738 20.9474L21.6474 20.3137C20.8738 20.9474 20.8736 20.9471 20.8738 20.9474L20.8749 20.9486L20.8758 20.9498L20.8776 20.952L20.8805 20.9554L20.8835 20.9589C20.8835 20.9589 20.8822 20.9574 20.8791 20.9541C20.8716 20.9459 20.8555 20.929 20.8314 20.9064C20.7824 20.8602 20.706 20.7958 20.6074 20.7334Z" fill="#00CF6A"/>
<path fill-rule="evenodd" clip-rule="evenodd" d="M19.9043 17.2C20.4566 17.2 20.9043 17.6477 20.9043 18.2L20.9043 19.5353C20.9043 20.0876 20.4566 20.5353 19.9043 20.5353C19.352 20.5353 18.9043 20.0876 18.9043 19.5353L18.9043 18.2C18.9043 17.6477 19.352 17.2 19.9043 17.2Z" fill="#00CF6A"/>
<path fill-rule="evenodd" clip-rule="evenodd" d="M19.9043 24.6646C20.4566 24.6646 20.9043 25.1123 20.9043 25.6646L20.9043 26.9999C20.9043 27.5522 20.4566 27.9999 19.9043 27.9999C19.352 27.9999 18.9043 27.5522 18.9043 26.9999L18.9043 25.6646C18.9043 25.1123 19.352 24.6646 19.9043 24.6646Z" fill="#00CF6A"/>
</g>
<defs>
<clipPath id="clip0_1_4017">
<rect width="40" height="40" fill="white"/>
</clipPath>
</defs>
</svg>
