<svg width="40" height="40" viewBox="0 0 40 40" fill="none" xmlns="http://www.w3.org/2000/svg">
<g clip-path="url(#clip0_1_6211)">
<path d="M39.2129 11.449V11.449C40.2624 17.0781 40.2624 22.8026 39.2129 28.5271V28.5271C38.2588 33.9654 33.9654 38.2588 28.5271 39.2129V39.2129C22.898 40.2624 17.1735 40.2624 11.449 39.2129V39.2129C6.01073 38.2588 1.81276 34.0608 0.858676 28.6225V28.6225C-0.286225 22.9934 -0.286225 17.1735 0.858676 11.449V11.449C1.81276 6.01073 6.01073 1.81276 11.449 0.858676V0.858676C17.0781 -0.286225 22.898 -0.286225 28.6225 0.858676V0.858676C34.0608 1.81276 38.2588 6.01073 39.2129 11.449Z" fill="white"/>
<path fill-rule="evenodd" clip-rule="evenodd" d="M38.2293 28.3468C39.2571 22.7405 39.2565 17.1393 38.2298 11.6323L39.2129 11.449C40.2624 17.0781 40.2624 22.8026 39.2129 28.5271L38.2293 28.3468ZM28.5271 39.2129C33.9654 38.2588 38.2588 33.9654 39.2129 28.5271L38.2279 28.3543C37.3466 33.3779 33.3779 37.3466 28.3543 38.2279L28.5271 39.2129ZM11.449 39.2129C17.1735 40.2624 22.898 40.2624 28.5271 39.2129L28.3438 38.2298C22.8369 39.2565 17.2356 39.2571 11.6293 38.2293L11.449 39.2129ZM28.6225 0.858676L28.4497 1.84363C33.4733 2.72496 37.3466 6.59823 38.2279 11.6218L39.2129 11.449C38.2588 6.01073 34.0608 1.81276 28.6225 0.858676ZM11.449 0.858676C17.0781 -0.286225 22.898 -0.286225 28.6225 0.858676L28.4264 1.83926C22.8303 0.720026 17.1448 0.720683 11.6483 1.83861L11.449 0.858676ZM0.858676 11.449C1.81276 6.01073 6.01073 1.81276 11.449 0.858676L11.6218 1.84363C6.59823 2.72496 2.72496 6.59823 1.84363 11.6218L0.858676 11.449ZM0.858676 11.449L1.83926 11.6451C0.720026 17.2413 0.720683 22.9267 1.83861 28.4232L0.858676 28.6225C-0.286225 22.9934 -0.286225 17.1735 0.858676 11.449ZM0.858676 28.6225C1.81276 34.0608 6.01073 38.2588 11.449 39.2129L11.6218 38.2279C6.59823 37.3466 2.72496 33.4733 1.84363 28.4497L0.858676 28.6225Z" fill="#EEF4FE"/>
<path fill-rule="evenodd" clip-rule="evenodd" d="M20.352 5.95898C22.0968 5.95898 23.3557 7.13744 24.1157 8.46289L24.2612 8.72949L24.2953 8.80273C25.2789 11.1275 25.9075 12.3181 26.2719 12.9121C26.3496 13.0387 26.4135 13.134 26.4633 13.2051L30.7104 13.7871L30.7338 13.791C32.3164 14.0448 34.0044 14.8409 34.5776 16.5557C35.1571 18.2901 34.2489 19.9077 33.0971 21.0088L30.0366 23.9512C30.0334 23.9556 30.0274 23.9656 30.019 23.9805C29.999 24.0157 29.9741 24.0694 29.9535 24.1387C29.9331 24.2073 29.9239 24.2652 29.9213 24.3057C29.9204 24.3199 29.9212 24.3306 29.9213 24.3369L30.7953 27.9717C31.1833 29.5911 31.1848 31.7204 29.4955 32.9053C27.8385 34.0672 25.7844 33.4409 24.309 32.6025L24.308 32.6016L20.6069 30.4941C20.6 30.4918 20.5858 30.4875 20.5639 30.4824C20.5153 30.4713 20.445 30.461 20.3588 30.4609C20.2735 30.461 20.2012 30.4706 20.1489 30.4824C20.0921 30.4953 20.0796 30.5051 20.101 30.4932L16.4008 32.6016L16.3998 32.6006C14.9211 33.4444 12.8714 34.0621 11.2162 32.9004C9.53071 31.7171 9.52204 29.5955 9.91253 27.9717L10.7856 24.3369C10.7857 24.3306 10.7865 24.3199 10.7856 24.3057C10.783 24.2652 10.7747 24.2072 10.7543 24.1387C10.7337 24.0694 10.7089 24.0157 10.6889 23.9805C10.6801 23.965 10.6734 23.9554 10.6703 23.9512L7.60687 21.0059C6.46247 19.9049 5.55989 18.2898 6.13421 16.5596C6.7041 14.843 8.38984 14.0441 9.97405 13.79L13.9106 13.1602C13.9177 13.1577 13.93 13.1545 13.9457 13.1475C13.987 13.129 14.0436 13.0981 14.1059 13.0537C14.1684 13.0092 14.2135 12.9677 14.2407 12.9385C14.2481 12.9305 14.2528 12.9232 14.2563 12.9189L16.4369 8.72559L16.4379 8.72363C17.1836 7.29646 18.4941 5.95924 20.352 5.95898ZM20.352 8.04102C19.6145 8.04128 18.8639 8.5751 18.2826 9.6875L16.0961 13.8916C15.9327 14.2125 15.642 14.5147 15.3149 14.748C14.9867 14.9821 14.6119 15.1553 14.27 15.2119L14.267 15.2129H14.2631L10.3041 15.8457C9.03129 16.0498 8.31762 16.5898 8.1098 17.2158C7.90723 17.8266 8.15027 18.6401 9.05023 19.5059L12.1313 22.4688C12.4121 22.7389 12.6263 23.1311 12.7494 23.5449C12.8718 23.9561 12.9072 24.4008 12.8198 24.7822V24.7842L12.8188 24.7861L12.8168 24.7959L11.9369 28.458C11.5934 29.8865 11.8399 30.7952 12.4125 31.1973C13.0143 31.6193 14.0435 31.5499 15.3696 30.793L15.3705 30.792L19.0776 28.6816L19.0854 28.6768L19.0883 28.6758L19.0893 28.6748C19.4465 28.4765 19.9063 28.3799 20.3588 28.3799C20.8129 28.3799 21.2718 28.4768 21.6244 28.6777L25.3364 30.792C26.6694 31.5495 27.7002 31.6219 28.3002 31.2012C28.8709 30.8009 29.1145 29.8939 28.7709 28.459L27.891 24.7959L27.8881 24.7871V24.7842L27.8871 24.7822C27.7998 24.4009 27.8361 23.956 27.9584 23.5449C28.0816 23.1311 28.2958 22.7389 28.5766 22.4688L31.6547 19.5078L31.8207 19.3418C32.5928 18.537 32.794 17.7877 32.603 17.2158C32.3945 16.592 31.6832 16.0537 30.4203 15.8477L25.8022 15.2158C25.7014 15.202 25.6027 15.1741 25.5102 15.1318L25.9428 14.1846C25.5429 15.0592 25.5107 15.1249 25.5063 15.1289L25.4916 15.123C25.4857 15.1202 25.4798 15.1172 25.4741 15.1143C25.4623 15.1083 25.4502 15.1019 25.4389 15.0957C25.4165 15.0833 25.3951 15.0699 25.3744 15.0566C25.3332 15.0302 25.2941 15.0016 25.2573 14.9717C25.1843 14.9124 25.1115 14.8425 25.0385 14.7607C24.8944 14.5993 24.7187 14.3615 24.4975 14.001C24.0581 13.2848 23.3891 11.9995 22.3989 9.66309C21.8254 8.56725 21.0841 8.04102 20.352 8.04102Z" fill="#0033C9"/>
<path d="M25.3684 21.5846C25.8188 21.2281 26.4734 21.3036 26.8304 21.7535C27.1874 22.2039 27.1117 22.8593 26.6614 23.2164C24.493 24.9353 22.0804 25.2836 19.9983 25.0387C17.9399 24.7965 16.1561 23.9723 15.1097 23.2614C14.6345 22.9384 14.5107 22.2914 14.8333 21.816C15.1564 21.3408 15.8042 21.2168 16.2796 21.5397C17.0853 22.0871 18.556 22.7729 20.2415 22.9713C21.9037 23.1669 23.7265 22.8861 25.3684 21.5846Z" fill="#00CF6A"/>
<path d="M17.3821 15.858C17.9249 15.6695 18.5185 15.9569 18.7073 16.4996L19.7659 19.5436C19.9547 20.0865 19.6671 20.6799 19.1243 20.8688C18.5814 21.0576 17.9879 20.7701 17.7991 20.2272L16.7405 17.1832C16.552 16.6404 16.8393 16.0468 17.3821 15.858Z" fill="#00CF6A"/>
<path d="M22.6712 15.858C23.2139 15.6695 23.8075 15.957 23.9964 16.4996L25.054 19.5436C25.2427 20.0864 24.9561 20.6799 24.4134 20.8688C23.8704 21.0576 23.277 20.7701 23.0882 20.2272L22.0296 17.1832C21.841 16.6404 22.1283 16.0468 22.6712 15.858Z" fill="#00CF6A"/>
</g>
<defs>
<clipPath id="clip0_1_6211">
<rect width="40" height="40" fill="white"/>
</clipPath>
</defs>
</svg>
