<svg width="40" height="40" viewBox="0 0 40 40" fill="none" xmlns="http://www.w3.org/2000/svg">
<g clip-path="url(#clip0_1_3612)">
<path d="M39.2129 11.449V11.449C40.2624 17.0781 40.2624 22.8026 39.2129 28.5271V28.5271C38.2588 33.9654 33.9654 38.2588 28.5271 39.2129V39.2129C22.898 40.2624 17.1735 40.2624 11.449 39.2129V39.2129C6.01073 38.2588 1.81276 34.0608 0.858676 28.6225V28.6225C-0.286225 22.9934 -0.286225 17.1735 0.858676 11.449V11.449C1.81276 6.01073 6.01073 1.81276 11.449 0.858676V0.858676C17.0781 -0.286225 22.898 -0.286225 28.6225 0.858676V0.858676C34.0608 1.81276 38.2588 6.01073 39.2129 11.449Z" fill="white"/>
<path fill-rule="evenodd" clip-rule="evenodd" d="M38.2293 28.3468C39.2571 22.7405 39.2565 17.1393 38.2298 11.6323L39.2129 11.449C40.2624 17.0781 40.2624 22.8026 39.2129 28.5271L38.2293 28.3468ZM28.5271 39.2129C33.9654 38.2588 38.2588 33.9654 39.2129 28.5271L38.2279 28.3543C37.3466 33.3779 33.3779 37.3466 28.3543 38.2279L28.5271 39.2129ZM11.449 39.2129C17.1735 40.2624 22.898 40.2624 28.5271 39.2129L28.3438 38.2298C22.8369 39.2565 17.2356 39.2571 11.6293 38.2293L11.449 39.2129ZM28.6225 0.858676L28.4497 1.84363C33.4733 2.72496 37.3466 6.59823 38.2279 11.6218L39.2129 11.449C38.2588 6.01073 34.0608 1.81276 28.6225 0.858676ZM11.449 0.858676C17.0781 -0.286225 22.898 -0.286225 28.6225 0.858676L28.4264 1.83926C22.8303 0.720026 17.1448 0.720683 11.6483 1.83861L11.449 0.858676ZM0.858676 11.449C1.81276 6.01073 6.01073 1.81276 11.449 0.858676L11.6218 1.84363C6.59823 2.72496 2.72496 6.59823 1.84363 11.6218L0.858676 11.449ZM0.858676 11.449L1.83926 11.6451C0.720026 17.2413 0.720683 22.9267 1.83861 28.4232L0.858676 28.6225C-0.286225 22.9934 -0.286225 17.1735 0.858676 11.449ZM0.858676 28.6225C1.81276 34.0608 6.01073 38.2588 11.449 39.2129L11.6218 38.2279C6.59823 37.3466 2.72496 33.4733 1.84363 28.4497L0.858676 28.6225Z" fill="#EEF4FE"/>
<path d="M7.66223 24.058C9.36624 29.2423 14.2465 32.9855 20.0011 32.9855C25.7557 32.9855 30.636 29.2423 32.34 24.058C32.34 24.058 27.9141 27.9131 20.0011 27.9131C12.088 27.9131 7.66223 24.058 7.66223 24.058Z" fill="#00CF6A"/>
<path fill-rule="evenodd" clip-rule="evenodd" d="M20.002 8.02899C13.3905 8.02899 8.03094 13.3886 8.03094 20C8.03094 26.6114 13.3905 31.971 20.002 31.971C26.6134 31.971 31.973 26.6114 31.973 20C31.973 13.3886 26.6134 8.02899 20.002 8.02899ZM6.00195 20C6.00195 12.268 12.27 6 20.002 6C27.7339 6 34.002 12.268 34.002 20C34.002 27.732 27.7339 34 20.002 34C12.27 34 6.00195 27.732 6.00195 20Z" fill="#0033C9"/>
<path fill-rule="evenodd" clip-rule="evenodd" d="M20.7891 6.37443C20.5964 6.13753 20.3073 6 20.002 6C19.6966 6 19.4075 6.13753 19.2149 6.37443C17.7163 8.21734 16.387 9.91877 15.4527 12.0218C14.6065 13.9263 14.1036 16.1107 14.0093 18.9856H7.01645C6.45616 18.9856 6.00195 19.4398 6.00195 20C6.00195 20.5603 6.45616 21.0145 7.01645 21.0145H14.0108C14.109 23.7633 14.6122 25.9349 15.4498 27.8568C16.3812 29.9941 17.7039 31.7675 19.2149 33.6256C19.4075 33.8625 19.6966 34 20.002 34C20.3073 34 20.5964 33.8625 20.7891 33.6256C22.3001 31.7675 23.6227 29.9941 24.5542 27.8568C25.3918 25.9349 25.895 23.7633 25.9932 21.0145H32.9875C33.5477 21.0145 34.002 20.5603 34.002 20C34.002 19.4398 33.5477 18.9856 32.9875 18.9856H25.995C25.9015 16.0821 25.3987 13.8947 24.5506 11.9943C23.6156 9.89919 22.2848 8.2137 20.7891 6.37443ZM23.9649 18.9856C23.8729 16.3262 23.413 14.424 22.6978 12.8212C22.0334 11.3324 21.132 10.06 20.0026 8.63361C18.8743 10.0628 17.9718 11.3491 17.3069 12.8456C16.5915 14.4556 16.1322 16.3568 16.0394 18.9856H23.9649ZM16.0412 21.0145C16.1376 23.5092 16.5945 25.405 17.3098 27.0461C17.9759 28.5746 18.8814 29.9196 20.002 31.3587C21.1226 29.9196 22.028 28.5746 22.6942 27.0461C23.4094 25.405 23.8664 23.5092 23.9628 21.0145H16.0412Z" fill="#0033C9"/>
</g>
<defs>
<clipPath id="clip0_1_3612">
<rect width="40" height="40" fill="white"/>
</clipPath>
</defs>
</svg>
