<svg width="40" height="40" viewBox="0 0 40 40" fill="none" xmlns="http://www.w3.org/2000/svg">
<g clip-path="url(#clip0_1_5387)">
<path d="M39.2129 11.449C40.2624 17.0781 40.2624 22.8026 39.2129 28.5271C38.2588 33.9654 33.9654 38.2588 28.5271 39.2129C22.898 40.2624 17.1735 40.2624 11.449 39.2129C6.01073 38.2588 1.81276 34.0608 0.858676 28.6225C-0.286225 22.9934 -0.286225 17.1735 0.858676 11.449C1.81276 6.01073 6.01073 1.81276 11.449 0.858676C17.0781 -0.286225 22.898 -0.286225 28.6225 0.858676C34.0608 1.81276 38.2588 6.01073 39.2129 11.449Z" fill="white"/>
<path fill-rule="evenodd" clip-rule="evenodd" d="M38.2293 28.3468C39.2571 22.7405 39.2565 17.1393 38.2298 11.6323L39.2129 11.449C40.2624 17.0781 40.2624 22.8026 39.2129 28.5271L38.2293 28.3468ZM28.5271 39.2129C33.9654 38.2588 38.2588 33.9654 39.2129 28.5271L38.2279 28.3543C37.3466 33.3779 33.3779 37.3466 28.3543 38.2279L28.5271 39.2129ZM11.449 39.2129C17.1735 40.2624 22.898 40.2624 28.5271 39.2129L28.3438 38.2298C22.8369 39.2565 17.2356 39.2571 11.6293 38.2293L11.449 39.2129ZM28.6225 0.858676L28.4497 1.84363C33.4733 2.72496 37.3466 6.59823 38.2279 11.6218L39.2129 11.449C38.2588 6.01073 34.0608 1.81276 28.6225 0.858676ZM11.449 0.858676C17.0781 -0.286225 22.898 -0.286225 28.6225 0.858676L28.4264 1.83926C22.8303 0.720026 17.1448 0.720683 11.6483 1.83861L11.449 0.858676ZM0.858676 11.449C1.81276 6.01073 6.01073 1.81276 11.449 0.858676L11.6218 1.84363C6.59823 2.72496 2.72496 6.59823 1.84363 11.6218L0.858676 11.449ZM0.858676 11.449L1.83926 11.6451C0.720026 17.2413 0.720683 22.9267 1.83861 28.4232L0.858676 28.6225C-0.286225 22.9934 -0.286225 17.1735 0.858676 11.449ZM0.858676 28.6225C1.81276 34.0608 6.01073 38.2588 11.449 39.2129L11.6218 38.2279C6.59823 37.3466 2.72496 33.4733 1.84363 28.4497L0.858676 28.6225Z" fill="#EEF4FE"/>
<path fill-rule="evenodd" clip-rule="evenodd" d="M17.5998 4.43718C18.8623 2.96593 21.139 2.96593 22.4015 4.43718L24.7399 7.16247C24.9851 7.44824 25.3518 7.60012 25.7273 7.57144L29.3079 7.29792C31.2409 7.15026 32.8508 8.76016 32.7031 10.6932L32.4296 14.2738C32.4009 14.6493 32.5528 15.0159 32.8386 15.2611L35.5639 17.5996C37.0351 18.862 37.0351 21.1388 35.5639 22.4012L32.8386 24.7397C32.5528 24.9849 32.4009 25.3516 32.4296 25.727L32.7031 29.3076C32.8508 31.2406 31.2409 32.8506 29.3079 32.7029L25.7273 32.4294C25.3518 32.4007 24.9851 32.5526 24.7399 32.8383L22.4015 35.5636C21.139 37.0349 18.8623 37.0349 17.5999 35.5636L15.2614 32.8383C15.0162 32.5526 14.6495 32.4007 14.274 32.4294L10.6934 32.7029C8.76041 32.8505 7.15051 31.2407 7.29817 29.3076L7.48521 26.8591C7.52688 26.3136 8.00287 25.9051 8.54836 25.9468C9.09386 25.9885 9.50229 26.4645 9.46062 27.01L9.27358 29.4585C9.2184 30.181 9.82008 30.7827 10.5425 30.7275L14.1231 30.454C15.1277 30.3772 16.1088 30.7836 16.7649 31.5482L19.1034 34.2735C19.5752 34.8234 20.4261 34.8234 20.8979 34.2735L23.2364 31.5482C23.8925 30.7836 24.8736 30.3772 25.8782 30.454L29.4588 30.7275C30.1812 30.7827 30.7829 30.181 30.7277 29.4585L30.4542 25.8779C30.3775 24.8733 30.7838 23.8923 31.5485 23.2362L34.2738 20.8977C34.8236 20.4259 34.8236 19.575 34.2737 19.1031L31.5485 16.7647C30.7838 16.1086 30.3775 15.1275 30.4542 14.1229L30.7277 10.5423C30.7829 9.81983 30.1812 9.21815 29.4588 9.27334L25.8782 9.54685C24.8736 9.62359 23.8925 9.21722 23.2364 8.4526L20.8979 5.72731C20.4261 5.17745 19.5752 5.17745 19.1034 5.72731L16.7649 8.4526C16.1088 9.21722 15.1277 9.62359 14.1231 9.54685L10.5425 9.27334C9.82008 9.21815 9.2184 9.81983 9.27358 10.5423L9.5471 14.1229C9.62384 15.1275 9.21747 16.1086 8.45285 16.7647L5.72755 19.1031C5.17769 19.575 5.17769 20.4259 5.72755 20.8977L7.2728 22.2236C7.68799 22.5799 7.73576 23.2052 7.3795 23.6204C7.02324 24.0356 6.39786 24.0834 5.98267 23.7271L4.43742 22.4012C2.96617 21.1388 2.96617 18.862 4.43742 17.5996L7.16272 15.2611C7.44849 15.0159 7.60036 14.6493 7.57168 14.2738L7.29817 10.6932C7.15051 8.76016 8.7604 7.15026 10.6934 7.29792L14.274 7.57144C14.6495 7.60012 15.0162 7.44824 15.2614 7.16247L17.5998 4.43718Z" fill="#0033C9"/>
<path fill-rule="evenodd" clip-rule="evenodd" d="M17.4455 22.6492V21.6649L18.9423 23.0837C19.0063 23.1443 19.0808 23.191 19.1613 23.2217C19.2417 23.2524 19.3269 23.2666 19.4123 23.2639C19.4976 23.2612 19.5819 23.2415 19.6605 23.2057C19.739 23.1699 19.8107 23.1184 19.871 23.0535C19.9314 22.9885 19.9792 22.9114 20.0111 22.8262C20.043 22.7409 20.0581 22.6495 20.0553 22.5575C20.0524 22.4656 20.0316 22.3755 19.9945 22.2927C19.9575 22.2099 19.9051 22.1363 19.8411 22.0756L18.8681 21.153C19.1898 21.0306 19.471 20.8113 19.6714 20.5196C19.9117 20.1698 20.0184 19.7408 19.9683 19.314C19.9183 18.8874 19.7159 18.4974 19.4033 18.2157C19.0912 17.9344 18.6893 17.7799 18.2753 17.7781H16.7818C16.61 17.7781 16.4427 17.8469 16.3173 17.9734C16.1915 18.1005 16.1181 18.276 16.1181 18.4625V22.6492C16.1181 22.8357 16.1915 23.0112 16.3173 23.1383C16.4427 23.2648 16.61 23.3336 16.7818 23.3336C16.9536 23.3336 17.1209 23.2648 17.2462 23.1383C17.372 23.0112 17.4455 22.8357 17.4455 22.6492ZM17.4455 19.1469H18.2753L18.2811 19.1468C18.3344 19.145 18.3872 19.1541 18.4363 19.1732C18.4855 19.1923 18.5294 19.2209 18.5659 19.2565C18.6023 19.2921 18.6305 19.334 18.6494 19.379C18.6683 19.4241 18.6778 19.4718 18.6778 19.5197C18.6778 19.5676 18.6683 19.6154 18.6494 19.6604C18.6305 19.7055 18.6023 19.7473 18.5659 19.7829C18.5294 19.8185 18.4855 19.8471 18.4363 19.8662C18.3872 19.8853 18.3344 19.8943 18.2811 19.8925H17.4455V19.1469Z" fill="#00CF6A"/>
<path fill-rule="evenodd" clip-rule="evenodd" d="M23.2088 17.833L20.9134 17.8323C20.7415 17.8323 20.5742 17.9011 20.4489 18.0277C20.3231 18.1547 20.2496 18.3303 20.2496 18.5167V22.6205C20.2496 23.0118 20.5591 23.3049 20.9133 23.3049H23.2088C23.3807 23.3049 23.5479 23.2361 23.6733 23.1096C23.7991 22.9825 23.8725 22.8069 23.8725 22.6205C23.8725 22.434 23.7991 22.2585 23.6733 22.1314C23.5479 22.0049 23.3807 21.9361 23.2088 21.9361H21.577V21.3252H23.1779C23.3497 21.3252 23.517 21.2564 23.6423 21.1298C23.7681 21.0028 23.8416 20.8272 23.8416 20.6407C23.8416 20.4543 23.7681 20.2787 23.6423 20.1517C23.517 20.0251 23.3497 19.9563 23.1779 19.9563H21.577V19.2018H23.2088C23.3807 19.2018 23.5479 19.133 23.6733 19.0065C23.7991 18.8794 23.8725 18.7038 23.8725 18.5174C23.8725 18.3309 23.7991 18.1554 23.6733 18.0283C23.5479 17.9018 23.3806 17.833 23.2088 17.833Z" fill="#00CF6A"/>
<path fill-rule="evenodd" clip-rule="evenodd" d="M27.1147 17.833L24.8186 17.8323C24.6468 17.8323 24.4795 17.9011 24.3541 18.0277C24.2283 18.1547 24.1549 18.3303 24.1549 18.5167V22.6205C24.1549 23.012 24.4652 23.3049 24.8186 23.3049H27.1147C27.2866 23.3049 27.4538 23.2361 27.5792 23.1096C27.705 22.9825 27.7785 22.8069 27.7785 22.6205C27.7785 22.434 27.705 22.2585 27.5792 22.1314C27.4538 22.0049 27.2866 21.9361 27.1147 21.9361H25.4823V21.3252H27.0838C27.2556 21.3252 27.4229 21.2564 27.5482 21.1298C27.674 21.0028 27.7475 20.8272 27.7475 20.6407C27.7475 20.4543 27.674 20.2787 27.5482 20.1517C27.4229 20.0251 27.2556 19.9563 27.0838 19.9563H25.4823V19.2018H27.1147C27.2866 19.2018 27.4538 19.133 27.5792 19.0065C27.705 18.8794 27.7785 18.7038 27.7785 18.5174C27.7785 18.3309 27.705 18.1554 27.5792 18.0283C27.4539 17.9018 27.2865 17.833 27.1147 17.833Z" fill="#00CF6A"/>
<path fill-rule="evenodd" clip-rule="evenodd" d="M12.4222 18.0277C12.2964 18.1547 12.2229 18.3303 12.2229 18.5167V22.6198C12.2229 22.8063 12.2964 22.9819 12.4222 23.1089C12.5475 23.2355 12.7148 23.3043 12.8866 23.3043C13.0584 23.3043 13.2257 23.2355 13.3511 23.1089C13.4769 22.9819 13.5503 22.8063 13.5503 22.6198V21.3245H15.1518C15.3236 21.3245 15.4909 21.2557 15.6162 21.1292C15.742 21.0021 15.8155 20.8266 15.8155 20.6401C15.8155 20.4536 15.742 20.2781 15.6162 20.151C15.4909 20.0245 15.3236 19.9557 15.1518 19.9557H13.5503V19.2012H15.1828C15.3546 19.2012 15.5219 19.1324 15.6472 19.0058C15.773 18.8788 15.8465 18.7032 15.8465 18.5167C15.8465 18.3303 15.773 18.1547 15.6472 18.0277C15.5219 17.9011 15.3546 17.8323 15.1828 17.8323H12.8866C12.7148 17.8323 12.5475 17.9011 12.4222 18.0277Z" fill="#00CF6A"/>
</g>
<defs>
<clipPath id="clip0_1_5387">
<rect width="40" height="40" fill="white"/>
</clipPath>
</defs>
</svg>
