<svg width="40" height="40" viewBox="0 0 40 40" fill="none" xmlns="http://www.w3.org/2000/svg">
<g clip-path="url(#clip0_1_3930)">
<path d="M39.2129 11.449V11.449C40.2624 17.0781 40.2624 22.8026 39.2129 28.5271V28.5271C38.2588 33.9654 33.9654 38.2588 28.5271 39.2129V39.2129C22.898 40.2624 17.1735 40.2624 11.449 39.2129V39.2129C6.01073 38.2588 1.81276 34.0608 0.858676 28.6225V28.6225C-0.286225 22.9934 -0.286225 17.1735 0.858676 11.449V11.449C1.81276 6.01073 6.01073 1.81276 11.449 0.858676V0.858676C17.0781 -0.286225 22.898 -0.286225 28.6225 0.858676V0.858676C34.0608 1.81276 38.2588 6.01073 39.2129 11.449Z" fill="white"/>
<path fill-rule="evenodd" clip-rule="evenodd" d="M38.2293 28.3468C39.2571 22.7405 39.2565 17.1393 38.2298 11.6323L39.2129 11.449C40.2624 17.0781 40.2624 22.8026 39.2129 28.5271L38.2293 28.3468ZM28.5271 39.2129C33.9654 38.2588 38.2588 33.9654 39.2129 28.5271L38.2279 28.3543C37.3466 33.3779 33.3779 37.3466 28.3543 38.2279L28.5271 39.2129ZM11.449 39.2129C17.1735 40.2624 22.898 40.2624 28.5271 39.2129L28.3438 38.2298C22.8369 39.2565 17.2356 39.2571 11.6293 38.2293L11.449 39.2129ZM28.6225 0.858676L28.4497 1.84363C33.4733 2.72496 37.3466 6.59823 38.2279 11.6218L39.2129 11.449C38.2588 6.01073 34.0608 1.81276 28.6225 0.858676ZM11.449 0.858676C17.0781 -0.286225 22.898 -0.286225 28.6225 0.858676L28.4264 1.83926C22.8303 0.720026 17.1448 0.720683 11.6483 1.83861L11.449 0.858676ZM0.858676 11.449C1.81276 6.01073 6.01073 1.81276 11.449 0.858676L11.6218 1.84363C6.59823 2.72496 2.72496 6.59823 1.84363 11.6218L0.858676 11.449ZM0.858676 11.449L1.83926 11.6451C0.720026 17.2413 0.720683 22.9267 1.83861 28.4232L0.858676 28.6225C-0.286225 22.9934 -0.286225 17.1735 0.858676 11.449ZM0.858676 28.6225C1.81276 34.0608 6.01073 38.2588 11.449 39.2129L11.6218 38.2279C6.59823 37.3466 2.72496 33.4733 1.84363 28.4497L0.858676 28.6225Z" fill="#EEF4FE"/>
<path d="M25.2012 12.0437V8.50972C25.2012 8.14019 25.4571 7.82561 25.803 7.69542C27.1171 7.20071 27.9967 6.66911 29.2848 6.06609C29.4842 5.97273 29.7156 5.97885 29.9107 6.08087C31.1666 6.73746 32.0467 7.25692 33.3685 7.70986C33.7292 7.83345 34.0012 8.1549 34.0012 8.53617V12.0437C34.0012 14.3285 31.1121 16.303 29.6454 16.7285C28.1788 16.303 25.2012 14.3285 25.2012 12.0437Z" fill="#00CF6A"/>
<path fill-rule="evenodd" clip-rule="evenodd" d="M25.4004 21.187V21.12C25.4004 19.9988 25.4004 18.8344 25.3618 17.6946C25.3431 17.1426 24.8805 16.7103 24.3285 16.729C23.7766 16.7477 23.3442 17.2103 23.3629 17.7623C23.4003 18.8654 23.4004 19.9986 23.4004 21.1284C23.4004 23.6389 23.3969 26.1361 23.0101 28.1943C22.8997 28.7817 22.4454 29.2486 21.8454 29.38C20.2736 29.7243 18.8254 29.7284 16.4004 29.7284C13.9754 29.7284 12.5271 29.7243 10.9553 29.38C10.3554 29.2486 9.90105 28.7817 9.79065 28.1943C9.40385 26.1361 9.40039 23.6389 9.40039 21.1284C9.40039 18.618 9.40385 16.1208 9.79065 14.0626C9.90105 13.4752 10.3554 13.0083 10.9553 12.8769C12.5271 12.5326 13.9754 12.5284 16.4004 12.5284C18.4136 12.5284 19.7463 12.5307 21.0497 12.7294C21.5957 12.8126 22.1057 12.4375 22.189 11.8915C22.2722 11.3456 21.8971 10.8355 21.3511 10.7522C21.1023 10.7143 20.8532 10.6828 20.6016 10.6567V8.72842C20.6016 7.29248 19.4375 6.12842 18.0016 6.12842L14.4016 6.12842C12.9656 6.12842 11.8016 7.29248 11.8016 8.72842V10.703C11.3776 10.7576 10.9567 10.8292 10.5274 10.9232C9.15961 11.2228 8.08675 12.3008 7.82507 13.6932C7.40034 15.9532 7.40036 18.6274 7.40039 21.0698L7.40039 21.187C7.40036 23.6295 7.40034 26.3037 7.82507 28.5637C8.08675 29.9561 9.15961 31.0341 10.5274 31.3337C10.6859 31.3684 10.8432 31.4 11 31.4289V32.7284C11 33.2807 11.4477 33.7284 12 33.7284C12.5523 33.7284 13 33.2807 13 32.7284V31.6661C13.9968 31.7285 15.0622 31.7285 16.327 31.7284H16.4738C17.7386 31.7285 18.804 31.7285 19.8008 31.6661V32.7284C19.8008 33.2807 20.2485 33.7284 20.8008 33.7284C21.3531 33.7284 21.8008 33.2807 21.8008 32.7284V31.4289C21.9576 31.4 22.1149 31.3684 22.2734 31.3337C23.6412 31.0341 24.714 29.9561 24.9757 28.5637C25.4004 26.3037 25.4004 23.6295 25.4004 21.187ZM18.6016 8.72842V10.5428C17.9423 10.5284 17.2375 10.5284 16.4582 10.5284L16.3269 10.5284C15.3942 10.5284 14.5699 10.5284 13.8016 10.5534V8.72842C13.8016 8.39705 14.0702 8.12842 14.4016 8.12842L18.0016 8.12842C18.3329 8.12842 18.6016 8.39705 18.6016 8.72842Z" fill="#0033C9"/>
<path d="M20.9506 16.7497C20.2842 16.0766 19.2172 16.2607 18.562 16.945C18.2231 17.2989 17.8657 17.6808 17.5014 18.0762C16.441 17.5863 15.2693 17.1229 14.4724 16.8201C13.9108 16.6067 13.2372 16.7674 12.8389 17.1987C12.3835 17.6919 12.43 18.3824 12.9537 18.7779C13.573 19.2455 14.425 19.8762 15.2559 20.4495C15.2786 20.4652 15.3016 20.4805 15.3248 20.4953C14.6896 21.2147 14.1083 21.8828 13.6523 22.4105C13.1272 22.3248 12.5878 22.2554 12.1689 22.2065C11.7295 22.1551 11.3272 22.4475 11.2252 22.8822C11.1233 23.3168 11.353 23.7604 11.7684 23.9136C12.2138 24.0779 12.8067 24.288 13.3735 24.4625C13.5462 25.035 13.7543 25.6339 13.917 26.0837C14.0687 26.5033 14.5079 26.7353 14.9383 26.6323C15.3686 26.5293 15.6581 26.123 15.6073 25.6792C15.5585 25.2537 15.4893 24.705 15.4037 24.1717C15.9039 23.7198 16.5325 23.1486 17.2112 22.5243C17.2706 22.6142 17.336 22.7001 17.4072 22.781C18.0759 23.5406 18.8035 24.314 19.3415 24.875C19.7964 25.3494 20.4805 25.3082 20.907 24.7894C21.28 24.3356 21.3522 23.6404 21.0713 23.1049C20.6895 22.377 20.1192 21.3234 19.5306 20.3571C19.9609 19.9471 20.3773 19.5448 20.7609 19.1658C21.4347 18.5002 21.6171 17.4228 20.9506 16.7497Z" fill="#0033C9"/>
</g>
<defs>
<clipPath id="clip0_1_3930">
<rect width="40" height="40" fill="white"/>
</clipPath>
</defs>
</svg>
