<svg width="40" height="40" viewBox="0 0 40 40" fill="none" xmlns="http://www.w3.org/2000/svg">
<g clip-path="url(#clip0_1_3728)">
<path d="M39.2129 11.449V11.449C40.2624 17.0781 40.2624 22.8026 39.2129 28.5271V28.5271C38.2588 33.9654 33.9654 38.2588 28.5271 39.2129V39.2129C22.898 40.2624 17.1735 40.2624 11.449 39.2129V39.2129C6.01073 38.2588 1.81276 34.0608 0.858676 28.6225V28.6225C-0.286225 22.9934 -0.286225 17.1735 0.858676 11.449V11.449C1.81276 6.01073 6.01073 1.81276 11.449 0.858676V0.858676C17.0781 -0.286225 22.898 -0.286225 28.6225 0.858676V0.858676C34.0608 1.81276 38.2588 6.01073 39.2129 11.449Z" fill="white"/>
<path fill-rule="evenodd" clip-rule="evenodd" d="M38.2293 28.3468C39.2571 22.7405 39.2565 17.1393 38.2298 11.6323L39.2129 11.449C40.2624 17.0781 40.2624 22.8026 39.2129 28.5271L38.2293 28.3468ZM28.5271 39.2129C33.9654 38.2588 38.2588 33.9654 39.2129 28.5271L38.2279 28.3543C37.3466 33.3779 33.3779 37.3466 28.3543 38.2279L28.5271 39.2129ZM11.449 39.2129C17.1735 40.2624 22.898 40.2624 28.5271 39.2129L28.3438 38.2298C22.8369 39.2565 17.2356 39.2571 11.6293 38.2293L11.449 39.2129ZM28.6225 0.858676L28.4497 1.84363C33.4733 2.72496 37.3466 6.59823 38.2279 11.6218L39.2129 11.449C38.2588 6.01073 34.0608 1.81276 28.6225 0.858676ZM11.449 0.858676C17.0781 -0.286225 22.898 -0.286225 28.6225 0.858676L28.4264 1.83926C22.8303 0.720026 17.1448 0.720683 11.6483 1.83861L11.449 0.858676ZM0.858676 11.449C1.81276 6.01073 6.01073 1.81276 11.449 0.858676L11.6218 1.84363C6.59823 2.72496 2.72496 6.59823 1.84363 11.6218L0.858676 11.449ZM0.858676 11.449L1.83926 11.6451C0.720026 17.2413 0.720683 22.9267 1.83861 28.4232L0.858676 28.6225C-0.286225 22.9934 -0.286225 17.1735 0.858676 11.449ZM0.858676 28.6225C1.81276 34.0608 6.01073 38.2588 11.449 39.2129L11.6218 38.2279C6.59823 37.3466 2.72496 33.4733 1.84363 28.4497L0.858676 28.6225Z" fill="#EEF4FE"/>
<path fill-rule="evenodd" clip-rule="evenodd" d="M12.9924 20.3453C12.991 20.3458 12.9891 20.3467 12.9862 20.3492L9 23.8864V28.9586C9 29.5338 9.46628 30.0001 10.0415 30.0001H15.9585C16.5337 30.0001 17 29.5338 17 28.9586V23.8864L13.0138 20.3492C13.0109 20.3467 13.009 20.3458 13.0076 20.3453C13.0057 20.3446 13.0031 20.344 13 20.344C12.9969 20.344 12.9943 20.3446 12.9924 20.3453ZM11.6588 18.8533C12.424 18.1742 13.576 18.1742 14.3412 18.8533L18.6637 22.6889C18.8776 22.8787 19 23.1509 19 23.4369V28.9586C19 30.6384 17.6383 32.0001 15.9585 32.0001H10.0415C8.36171 32.0001 7 30.6384 7 28.9586V23.4369C7 23.1509 7.1224 22.8787 7.33628 22.6889L11.6588 18.8533Z" fill="#00CF6A"/>
<path d="M18.4592 11.1519C18.4951 10.9559 18.5295 10.794 18.5607 10.664C20.0183 10.2338 22.1006 10 24.2601 10C26.4344 10 28.5572 10.2371 30.0624 10.6765C30.2551 11.3121 30.4334 12.3462 30.5772 13.706C30.7505 15.3459 30.862 17.324 30.9267 19.3483C31.0562 23.4001 30.9962 27.5677 30.8847 29.4577C30.8736 29.6462 30.6429 30 30.0747 30H21.2568C20.7045 30 20.2568 30.4477 20.2568 31C20.2568 31.5523 20.7045 32 21.2568 32H30.0747C31.4244 32 32.7926 31.0772 32.8812 29.5755C32.9973 27.6093 33.0566 23.3787 32.9257 19.2844C32.8602 17.2355 32.7466 15.2036 32.5661 13.4958C32.3908 11.8378 32.1401 10.3391 31.7414 9.45951C31.6286 9.21047 31.4186 9.01852 31.1605 8.92833C29.3449 8.29399 26.7588 8 24.2601 8C21.7636 8 19.197 8.29341 17.4251 8.93152C17.1709 9.02304 16.9646 9.21349 16.8531 9.45951C16.6976 9.80255 16.5829 10.294 16.4918 10.7925C16.3956 11.3193 16.3094 11.951 16.2373 12.6308C16.093 13.9902 16 15.5865 16 17C16 17.5523 16.4477 18 17 18C17.5523 18 18 17.5523 18 17C18 15.6635 18.0886 14.1378 18.2261 12.8419C18.2949 12.194 18.3747 11.6147 18.4592 11.1519Z" fill="#0033C9"/>
<path d="M25.5996 17.8C25.0473 17.8 24.5996 18.2477 24.5996 18.8C24.5996 19.3523 25.0473 19.8 25.5996 19.8H27.5501C28.1024 19.8 28.5501 19.3523 28.5501 18.8C28.5501 18.2477 28.1024 17.8 27.5501 17.8H25.5996Z" fill="#0033C9"/>
<path d="M24.5996 23.6C24.5996 23.0477 25.0473 22.6 25.5996 22.6H27.5501C28.1024 22.6 28.5501 23.0477 28.5501 23.6C28.5501 24.1523 28.1024 24.6 27.5501 24.6H25.5996C25.0473 24.6 24.5996 24.1523 24.5996 23.6Z" fill="#0033C9"/>
<path d="M25.5996 13C25.0473 13 24.5996 13.4477 24.5996 14C24.5996 14.5523 25.0473 15 25.5996 15H27.5501C28.1024 15 28.5501 14.5523 28.5501 14C28.5501 13.4477 28.1024 13 27.5501 13H25.5996Z" fill="#0033C9"/>
</g>
<defs>
<clipPath id="clip0_1_3728">
<rect width="40" height="40" fill="white"/>
</clipPath>
</defs>
</svg>
