<svg width="40" height="40" viewBox="0 0 40 40" fill="none" xmlns="http://www.w3.org/2000/svg">
<g clip-path="url(#clip0_1_3514)">
<path d="M39.2129 11.449V11.449C40.2624 17.0781 40.2624 22.8026 39.2129 28.5271V28.5271C38.2588 33.9654 33.9654 38.2588 28.5271 39.2129V39.2129C22.898 40.2624 17.1735 40.2624 11.449 39.2129V39.2129C6.01073 38.2588 1.81276 34.0608 0.858676 28.6225V28.6225C-0.286225 22.9934 -0.286225 17.1735 0.858676 11.449V11.449C1.81276 6.01073 6.01073 1.81276 11.449 0.858676V0.858676C17.0781 -0.286225 22.898 -0.286225 28.6225 0.858676V0.858676C34.0608 1.81276 38.2588 6.01073 39.2129 11.449Z" fill="white"/>
<path fill-rule="evenodd" clip-rule="evenodd" d="M38.2293 28.3468C39.2571 22.7405 39.2565 17.1393 38.2298 11.6323L39.2129 11.449C40.2624 17.0781 40.2624 22.8026 39.2129 28.5271L38.2293 28.3468ZM28.5271 39.2129C33.9654 38.2588 38.2588 33.9654 39.2129 28.5271L38.2279 28.3543C37.3466 33.3779 33.3779 37.3466 28.3543 38.2279L28.5271 39.2129ZM11.449 39.2129C17.1735 40.2624 22.898 40.2624 28.5271 39.2129L28.3438 38.2298C22.8369 39.2565 17.2356 39.2571 11.6293 38.2293L11.449 39.2129ZM28.6225 0.858676L28.4497 1.84363C33.4733 2.72496 37.3466 6.59823 38.2279 11.6218L39.2129 11.449C38.2588 6.01073 34.0608 1.81276 28.6225 0.858676ZM11.449 0.858676C17.0781 -0.286225 22.898 -0.286225 28.6225 0.858676L28.4264 1.83926C22.8303 0.720026 17.1448 0.720683 11.6483 1.83861L11.449 0.858676ZM0.858676 11.449C1.81276 6.01073 6.01073 1.81276 11.449 0.858676L11.6218 1.84363C6.59823 2.72496 2.72496 6.59823 1.84363 11.6218L0.858676 11.449ZM0.858676 11.449L1.83926 11.6451C0.720026 17.2413 0.720683 22.9267 1.83861 28.4232L0.858676 28.6225C-0.286225 22.9934 -0.286225 17.1735 0.858676 11.449ZM0.858676 28.6225C1.81276 34.0608 6.01073 38.2588 11.449 39.2129L11.6218 38.2279C6.59823 37.3466 2.72496 33.4733 1.84363 28.4497L0.858676 28.6225Z" fill="#EEF4FE"/>
<path fill-rule="evenodd" clip-rule="evenodd" d="M10.9242 14.1921C10.8831 14.1973 10.8413 14.1999 10.7988 14.1999C10.2465 14.1999 9.79883 13.7522 9.79883 13.1999V12.1908C9.79883 9.7658 11.7647 7.79993 14.1897 7.79993H26.1988C27.6348 7.79993 28.7988 8.96399 28.7988 10.3999V12.2958C31.433 12.7671 33.5826 14.9289 33.7279 17.7413C33.775 18.6522 33.7988 19.6516 33.7988 20.9577C33.7988 22.8201 33.7504 24.5393 33.6569 26.2227C33.4919 29.1957 31.1141 31.5112 28.2108 31.8019C26.1195 32.0113 23.9325 32.2 21.6897 32.2C19.0194 32.2 16.4132 31.9314 13.9559 31.6782C13.6003 31.6416 13.2478 31.6053 12.8987 31.5701C12.3492 31.5148 11.9485 31.0245 12.0039 30.475C12.0592 29.9255 12.5495 29.5249 13.099 29.5802C13.4547 29.616 13.8111 29.6527 14.1681 29.6894C16.6331 29.943 19.1299 30.2 21.6897 30.2C23.8276 30.2 25.9321 30.02 28.0116 29.8118C29.9946 29.6133 31.5529 28.0422 31.66 26.1119C31.7513 24.4667 31.7988 22.7844 31.7988 20.9577C31.7988 19.6765 31.7755 18.7127 31.7306 17.8445C31.6254 15.8075 29.8484 14.2 27.7185 14.2L11.0499 14.2C11.0074 14.2 10.9654 14.1973 10.9242 14.1921ZM11.7988 12.1908C11.7988 10.8704 12.8693 9.79993 14.1897 9.79993H26.1988C26.5302 9.79993 26.7988 10.0686 26.7988 10.3999V12.2L11.7988 12.2V12.1908Z" fill="#0033C9"/>
<path fill-rule="evenodd" clip-rule="evenodd" d="M11.9992 27.9999C15.2025 27.9999 17.7992 25.4031 17.7992 22.1999C17.7992 18.9966 15.2025 16.3999 11.9992 16.3999C8.79596 16.3999 6.19922 18.9966 6.19922 22.1999C6.19922 25.4031 8.79596 27.9999 11.9992 27.9999ZM13.0257 20.4182C13.0257 19.8659 12.578 19.4182 12.0257 19.4182C11.4735 19.4182 11.0257 19.8659 11.0257 20.4182V22.2302L9.49046 23.1397C9.0153 23.4212 8.8583 24.0346 9.1398 24.5097C9.4213 24.9849 10.0347 25.1419 10.5098 24.8604L12.5354 23.6604C12.8394 23.4804 13.0257 23.1533 13.0257 22.8V20.4182Z" fill="#00CF6A"/>
<path d="M28 19.9999C28 19.4476 28.4477 18.9999 29 18.9999C29.5523 18.9999 30 19.4476 30 19.9999V22.9999C30 23.5522 29.5523 23.9999 29 23.9999C28.4477 23.9999 28 23.5522 28 22.9999V19.9999Z" fill="#00CF6A"/>
</g>
<defs>
<clipPath id="clip0_1_3514">
<rect width="40" height="40" fill="white"/>
</clipPath>
</defs>
</svg>
