<svg width="40" height="40" viewBox="0 0 40 40" fill="none" xmlns="http://www.w3.org/2000/svg">
<g clip-path="url(#clip0_1_3798)">
<path d="M39.2129 11.449V11.449C40.2624 17.0781 40.2624 22.8026 39.2129 28.5271V28.5271C38.2588 33.9654 33.9654 38.2588 28.5271 39.2129V39.2129C22.898 40.2624 17.1735 40.2624 11.449 39.2129V39.2129C6.01073 38.2588 1.81276 34.0608 0.858676 28.6225V28.6225C-0.286225 22.9934 -0.286225 17.1735 0.858676 11.449V11.449C1.81276 6.01073 6.01073 1.81276 11.449 0.858676V0.858676C17.0781 -0.286225 22.898 -0.286225 28.6225 0.858676V0.858676C34.0608 1.81276 38.2588 6.01073 39.2129 11.449Z" fill="white"/>
<path fill-rule="evenodd" clip-rule="evenodd" d="M38.2293 28.3468C39.2571 22.7405 39.2565 17.1393 38.2298 11.6323L39.2129 11.449C40.2624 17.0781 40.2624 22.8026 39.2129 28.5271L38.2293 28.3468ZM28.5271 39.2129C33.9654 38.2588 38.2588 33.9654 39.2129 28.5271L38.2279 28.3543C37.3466 33.3779 33.3779 37.3466 28.3543 38.2279L28.5271 39.2129ZM11.449 39.2129C17.1735 40.2624 22.898 40.2624 28.5271 39.2129L28.3438 38.2298C22.8369 39.2565 17.2356 39.2571 11.6293 38.2293L11.449 39.2129ZM28.6225 0.858676L28.4497 1.84363C33.4733 2.72496 37.3466 6.59823 38.2279 11.6218L39.2129 11.449C38.2588 6.01073 34.0608 1.81276 28.6225 0.858676ZM11.449 0.858676C17.0781 -0.286225 22.898 -0.286225 28.6225 0.858676L28.4264 1.83926C22.8303 0.720026 17.1448 0.720683 11.6483 1.83861L11.449 0.858676ZM0.858676 11.449C1.81276 6.01073 6.01073 1.81276 11.449 0.858676L11.6218 1.84363C6.59823 2.72496 2.72496 6.59823 1.84363 11.6218L0.858676 11.449ZM0.858676 11.449L1.83926 11.6451C0.720026 17.2413 0.720683 22.9267 1.83861 28.4232L0.858676 28.6225C-0.286225 22.9934 -0.286225 17.1735 0.858676 11.449ZM0.858676 28.6225C1.81276 34.0608 6.01073 38.2588 11.449 39.2129L11.6218 38.2279C6.59823 37.3466 2.72496 33.4733 1.84363 28.4497L0.858676 28.6225Z" fill="#EEF4FE"/>
<path d="M22.0409 17.4208C22.6853 16.7318 23.7348 16.5464 24.3903 17.2242C25.0458 17.902 24.8665 18.9869 24.2037 19.6571C23.8264 20.0387 23.4169 20.4438 22.9936 20.8567C23.5726 21.8297 24.1335 22.8907 24.509 23.6236C24.7853 24.1628 24.7143 24.8629 24.3474 25.3198C23.9279 25.8423 23.255 25.8837 22.8076 25.406C22.2784 24.8411 21.5627 24.0623 20.9051 23.2975C20.835 23.216 20.7706 23.1295 20.7122 23.039C20.0447 23.6677 19.4263 24.2428 18.9344 24.6979C19.0186 25.2349 19.0867 25.7874 19.1346 26.2159C19.1846 26.6627 18.8999 27.0719 18.4766 27.1756C18.0533 27.2793 17.6212 27.0457 17.472 26.6231C17.3121 26.1702 17.1074 25.5671 16.9375 24.9906C16.38 24.815 15.7968 24.6033 15.3587 24.438C14.9501 24.2837 14.7242 23.837 14.8245 23.3993C14.9247 22.9616 15.3205 22.6672 15.7526 22.7189C16.1647 22.7682 16.6952 22.838 17.2117 22.9244C17.6603 22.393 18.2319 21.7203 18.8568 20.9958C18.8339 20.9809 18.8113 20.9656 18.789 20.9498C17.9718 20.3724 17.1337 19.7374 16.5246 19.2665C16.0095 18.8683 15.9637 18.1729 16.4116 17.6763C16.8034 17.242 17.4659 17.0802 18.0183 17.295C18.8022 17.5999 19.9547 18.0666 20.9977 18.5599C21.356 18.1618 21.7075 17.7772 22.0409 17.4208Z" fill="#00CF6A"/>
<path fill-rule="evenodd" clip-rule="evenodd" d="M25.6004 31.8622C25.6909 31.8442 25.7818 31.8252 25.873 31.8052C27.2408 31.5056 28.3136 30.4276 28.5753 29.0352C29.0001 26.7753 29 24.1011 29 21.6586V21.5414C29 19.0989 29.0001 16.4247 28.5753 14.1648C28.3136 12.7724 27.2408 11.6944 25.873 11.3948C25.3093 11.2713 24.7598 11.1865 24.1992 11.1281V8.6C24.1992 7.16406 23.0352 6 21.5992 6L17.9992 6C16.5633 6 15.3992 7.16406 15.3992 8.6V11.1748C14.976 11.2294 14.5556 11.3009 14.127 11.3948C12.7592 11.6944 11.6864 12.7724 11.4247 14.1648C10.9999 16.4247 11 19.0989 11 21.5414L11 21.6586C11 24.1011 10.9999 26.7753 11.4247 29.0352C11.6864 30.4276 12.7592 31.5056 14.127 31.8052C14.2185 31.8253 14.3096 31.8443 14.4004 31.8623L14.4004 32.8C14.4004 33.4627 14.9377 34 15.6004 34C16.2631 34 16.8004 33.4627 16.8004 32.8V32.1494C17.7397 32.2 18.7463 32.2 19.9266 32.2H20.0734C21.254 32.2 22.2609 32.2 23.2004 32.1493V32.8C23.2004 33.4627 23.7377 34 24.4004 34C25.0631 34 25.6004 33.4627 25.6004 32.8V31.8622ZM27 21.6C27 19.0896 26.9965 16.5923 26.6097 14.5342C26.4993 13.9468 26.045 13.4799 25.4451 13.3485C23.8733 13.0042 22.425 13 20 13C17.575 13 16.1267 13.0042 14.5549 13.3485C13.955 13.4799 13.5007 13.9468 13.3903 14.5342C13.0035 16.5923 13 19.0896 13 21.6C13 24.1104 13.0035 26.6077 13.3903 28.6658C13.5007 29.2533 13.955 29.7201 14.5549 29.8515C14.8497 29.9161 15.14 29.9687 15.4333 30.0115C15.4879 30.0039 15.5437 30 15.6004 30C15.7598 30 15.9119 30.0311 16.051 30.0875C17.1456 30.1981 18.3455 30.2 20 30.2C21.6551 30.2 22.8552 30.198 23.9501 30.0874C24.0891 30.031 24.2411 30 24.4004 30C24.457 30 24.5126 30.0039 24.5671 30.0115C24.8602 29.9686 25.1505 29.9161 25.4451 29.8515C26.045 29.7201 26.4993 29.2533 26.6097 28.6658C26.9965 26.6077 27 24.1104 27 21.6ZM19.9266 11C18.993 11 18.1681 11 17.3992 11.025V8.6C17.3992 8.26863 17.6678 8 17.9992 8L21.5992 8C21.9306 8 22.1992 8.26863 22.1992 8.6V11.0142C21.5452 11 20.8466 11 20.0734 11H19.9266Z" fill="#0033C9"/>
</g>
<defs>
<clipPath id="clip0_1_3798">
<rect width="40" height="40" fill="white"/>
</clipPath>
</defs>
</svg>
