<svg width="40" height="40" viewBox="0 0 40 40" fill="none" xmlns="http://www.w3.org/2000/svg">
<g clip-path="url(#clip0_1_3756)">
<path d="M39.2129 11.449V11.449C40.2624 17.0781 40.2624 22.8026 39.2129 28.5271V28.5271C38.2588 33.9654 33.9654 38.2588 28.5271 39.2129V39.2129C22.898 40.2624 17.1735 40.2624 11.449 39.2129V39.2129C6.01073 38.2588 1.81276 34.0608 0.858676 28.6225V28.6225C-0.286225 22.9934 -0.286225 17.1735 0.858676 11.449V11.449C1.81276 6.01073 6.01073 1.81276 11.449 0.858676V0.858676C17.0781 -0.286225 22.898 -0.286225 28.6225 0.858676V0.858676C34.0608 1.81276 38.2588 6.01073 39.2129 11.449Z" fill="white"/>
<path fill-rule="evenodd" clip-rule="evenodd" d="M38.2293 28.3468C39.2571 22.7405 39.2565 17.1393 38.2298 11.6323L39.2129 11.449C40.2624 17.0781 40.2624 22.8026 39.2129 28.5271L38.2293 28.3468ZM28.5271 39.2129C33.9654 38.2588 38.2588 33.9654 39.2129 28.5271L38.2279 28.3543C37.3466 33.3779 33.3779 37.3466 28.3543 38.2279L28.5271 39.2129ZM11.449 39.2129C17.1735 40.2624 22.898 40.2624 28.5271 39.2129L28.3438 38.2298C22.8369 39.2565 17.2356 39.2571 11.6293 38.2293L11.449 39.2129ZM28.6225 0.858676L28.4497 1.84363C33.4733 2.72496 37.3466 6.59823 38.2279 11.6218L39.2129 11.449C38.2588 6.01073 34.0608 1.81276 28.6225 0.858676ZM11.449 0.858676C17.0781 -0.286225 22.898 -0.286225 28.6225 0.858676L28.4264 1.83926C22.8303 0.720026 17.1448 0.720683 11.6483 1.83861L11.449 0.858676ZM0.858676 11.449C1.81276 6.01073 6.01073 1.81276 11.449 0.858676L11.6218 1.84363C6.59823 2.72496 2.72496 6.59823 1.84363 11.6218L0.858676 11.449ZM0.858676 11.449L1.83926 11.6451C0.720026 17.2413 0.720683 22.9267 1.83861 28.4232L0.858676 28.6225C-0.286225 22.9934 -0.286225 17.1735 0.858676 11.449ZM0.858676 28.6225C1.81276 34.0608 6.01073 38.2588 11.449 39.2129L11.6218 38.2279C6.59823 37.3466 2.72496 33.4733 1.84363 28.4497L0.858676 28.6225Z" fill="#EEF4FE"/>
<path d="M29 16H11C11.0395 14.0499 11.2385 12.1442 11.4311 10.2991C11.4682 9.94406 11.505 9.59127 11.5405 9.24084C11.6268 8.38693 12.3046 7.70522 13.1635 7.60186C13.497 7.56173 13.8327 7.51987 14.1706 7.47775C16.0533 7.24305 18.0029 7 20 7C21.9971 7 23.9467 7.24305 25.8294 7.47775C26.1673 7.51987 26.503 7.56173 26.8365 7.60186C27.6954 7.70522 28.3732 8.38693 28.4595 9.24084C28.495 9.59128 28.5318 9.94407 28.5689 10.2991C28.7615 12.1442 28.9605 14.0499 29 16Z" fill="#00CF6A"/>
<path fill-rule="evenodd" clip-rule="evenodd" d="M20 6C17.939 6 15.9269 6.2465 14.051 6.4763C13.7964 6.5075 13.5442 6.53839 13.2948 6.56831C11.8343 6.74354 10.6767 7.90879 10.5231 9.37776C10.4971 9.62617 10.4704 9.87685 10.4435 10.1296L10.4435 10.1298L10.4434 10.1301L10.4434 10.1301L10.4434 10.1301C10.2289 12.1458 10 14.2959 10 16.5C10 18.7041 10.2289 20.8541 10.4434 22.8698C10.4704 23.1228 10.4971 23.3737 10.5231 23.6222C10.6643 24.9726 11.6539 26.0664 12.9475 26.3703L9.54778 31.8745C9.25756 32.3444 9.4032 32.9606 9.87308 33.2508C10.343 33.541 10.9592 33.3954 11.2494 32.9255L12.4397 30.9982C12.4594 30.9994 12.4792 31 12.4991 31H27.5983C27.6498 31 27.7004 30.9961 27.7498 30.9886L28.9461 32.9255C29.2363 33.3954 29.8525 33.541 30.3224 33.2508C30.7923 32.9606 30.9379 32.3444 30.6477 31.8745L27.2206 26.3259C28.4311 25.9701 29.3419 24.9135 29.4769 23.6222C29.5029 23.3737 29.5296 23.1228 29.5566 22.8698C29.7711 20.8541 30 18.7041 30 16.5C30 14.2959 29.7711 12.1459 29.5566 10.1302L29.5562 10.127L29.5555 10.1206C29.529 9.87084 29.5026 9.62319 29.4769 9.37776C29.3233 7.90879 28.1657 6.74354 26.7052 6.56832C26.4558 6.53839 26.2036 6.5075 25.949 6.4763C24.0731 6.2465 22.061 6 20 6ZM13.674 29L15.1233 26.6534C16.6855 26.8375 18.3269 27 20 27C21.7385 27 23.4423 26.8246 25.0588 26.6318L26.5215 29H13.674ZM14.2987 8.46105C16.1856 8.23036 18.0698 8 20 8C21.9302 8 23.8144 8.23036 25.7013 8.46105L25.7015 8.46107L25.7016 8.46109C25.9566 8.49227 26.2117 8.52345 26.467 8.55408C27.0064 8.61879 27.4319 9.05138 27.4878 9.58579C27.5141 9.83762 27.5409 10.0896 27.5677 10.3418C27.7313 11.8813 27.8958 13.4287 27.9654 15H12.0346C12.1042 13.4287 12.2687 11.8813 12.4323 10.3418L12.4323 10.3415C12.4591 10.0896 12.4859 9.83733 12.5122 9.58578C12.5681 9.05138 12.9936 8.61879 13.533 8.55407C13.7883 8.52345 14.0437 8.49223 14.2987 8.46105ZM12.004 17C12.0346 18.9166 12.2341 20.7932 12.4323 22.6582C12.4591 22.9103 12.4859 23.1625 12.5122 23.4142C12.5681 23.9486 12.9936 24.3812 13.533 24.4459C13.7884 24.4766 14.0436 24.5078 14.2987 24.5389L14.2988 24.539C16.1856 24.7696 18.0699 25 20 25C21.9302 25 23.8144 24.7696 25.7013 24.5389L25.7035 24.5387C25.9579 24.5076 26.2123 24.4765 26.467 24.4459C27.0064 24.3812 27.4319 23.9486 27.4878 23.4142C27.5141 23.1624 27.5409 22.9104 27.5677 22.6582C27.7659 20.7932 27.9654 18.9166 27.996 17H12.004ZM16.4591 18.9725L16.4368 18.9722C15.5004 18.9722 14.832 19.7572 14.832 20.6105C14.832 21.4568 15.4896 22.236 16.414 22.2486L16.4363 22.2488C17.3727 22.2488 18.041 21.4639 18.041 20.6106C18.041 19.7642 17.3835 18.9851 16.4591 18.9725ZM23.588 18.9725L23.5657 18.9722C22.6293 18.9722 21.9609 19.7572 21.9609 20.6105C21.9609 21.4568 22.6185 22.236 23.5429 22.2486L23.5652 22.2488C24.5016 22.2488 25.1699 21.4639 25.1699 20.6106C25.1699 19.7642 24.5124 18.9851 23.588 18.9725Z" fill="#0033C9"/>
</g>
<defs>
<clipPath id="clip0_1_3756">
<rect width="40" height="40" fill="white"/>
</clipPath>
</defs>
</svg>
