<svg width="40" height="40" viewBox="0 0 40 40" fill="none" xmlns="http://www.w3.org/2000/svg">
<g clip-path="url(#clip0_1_5911)">
<path d="M39.2129 11.449V11.449C40.2624 17.0781 40.2624 22.8026 39.2129 28.5271V28.5271C38.2588 33.9654 33.9654 38.2588 28.5271 39.2129V39.2129C22.898 40.2624 17.1735 40.2624 11.449 39.2129V39.2129C6.01073 38.2588 1.81276 34.0608 0.858676 28.6225V28.6225C-0.286225 22.9934 -0.286225 17.1735 0.858676 11.449V11.449C1.81276 6.01073 6.01073 1.81276 11.449 0.858676V0.858676C17.0781 -0.286225 22.898 -0.286225 28.6225 0.858676V0.858676C34.0608 1.81276 38.2588 6.01073 39.2129 11.449Z" fill="white"/>
<path fill-rule="evenodd" clip-rule="evenodd" d="M38.2293 28.3468C39.2571 22.7405 39.2565 17.1393 38.2298 11.6323L39.2129 11.449C40.2624 17.0781 40.2624 22.8026 39.2129 28.5271L38.2293 28.3468ZM28.5271 39.2129C33.9654 38.2588 38.2588 33.9654 39.2129 28.5271L38.2279 28.3543C37.3466 33.3779 33.3779 37.3466 28.3543 38.2279L28.5271 39.2129ZM11.449 39.2129C17.1735 40.2624 22.898 40.2624 28.5271 39.2129L28.3438 38.2298C22.8369 39.2565 17.2356 39.2571 11.6293 38.2293L11.449 39.2129ZM28.6225 0.858676L28.4497 1.84363C33.4733 2.72496 37.3466 6.59823 38.2279 11.6218L39.2129 11.449C38.2588 6.01073 34.0608 1.81276 28.6225 0.858676ZM11.449 0.858676C17.0781 -0.286225 22.898 -0.286225 28.6225 0.858676L28.4264 1.83926C22.8303 0.720026 17.1448 0.720683 11.6483 1.83861L11.449 0.858676ZM0.858676 11.449C1.81276 6.01073 6.01073 1.81276 11.449 0.858676L11.6218 1.84363C6.59823 2.72496 2.72496 6.59823 1.84363 11.6218L0.858676 11.449ZM0.858676 11.449L1.83926 11.6451C0.720026 17.2413 0.720683 22.9267 1.83861 28.4232L0.858676 28.6225C-0.286225 22.9934 -0.286225 17.1735 0.858676 11.449ZM0.858676 28.6225C1.81276 34.0608 6.01073 38.2588 11.449 39.2129L11.6218 38.2279C6.59823 37.3466 2.72496 33.4733 1.84363 28.4497L0.858676 28.6225Z" fill="#EEF4FE"/>
<path fill-rule="evenodd" clip-rule="evenodd" d="M23.4752 7.504C20.2959 6.64548 16.1215 7.14384 16.1215 7.14384L16.1224 7.14128L12.9624 7.454L12.9034 7.46024C12.358 7.52217 11.8335 7.69166 11.3548 7.95457C10.8446 8.23474 10.3864 8.62115 10.0101 9.09678C9.63477 9.57131 9.34082 10.1349 9.15835 10.771L6.44121 20.2343C6.17975 21.145 6.10277 22.0787 6.18675 22.9878C6.27073 23.8963 6.51555 24.7814 6.89861 25.596C7.28191 26.4109 7.80414 27.156 8.44315 27.7834C9.08341 28.4118 9.84185 28.923 10.6964 29.2676L16.9944 31.8084L16.9874 31.7973C17.0439 31.8237 17.1003 31.8492 17.1567 31.8739L17.5836 32.0461C21.3282 33.4287 24.6496 31.3399 24.6496 31.3399L24.6495 31.341L29.4568 28.4243C29.7001 28.2766 29.9313 28.1069 30.1473 27.9165C30.3635 27.7257 30.5643 27.5144 30.747 27.2835C30.93 27.0525 31.0947 26.802 31.238 26.5337C31.3815 26.2652 31.5038 25.9785 31.6015 25.6752L34.1384 17.8113L34.1326 17.8125C35.8574 12.6669 31.6608 10.484 30.8503 10.1166L24.8134 7.97806L24.8112 7.98344C24.7927 7.97472 24.7741 7.96612 24.7555 7.95752L23.4752 7.504ZM10.852 28.7425C10.8249 28.7316 10.7978 28.7205 10.7709 28.7092L10.852 28.7425ZM28.8613 17.1539L28.8672 17.1024L28.8755 17.0148L28.8768 16.9992C28.8794 16.9683 28.8816 16.9373 28.8836 16.9066L28.8864 16.857L28.8896 16.7838L28.8904 16.7601C28.8915 16.7203 28.8922 16.6807 28.8925 16.641L28.8924 16.5874L28.8917 16.5419C28.8912 16.5105 28.8905 16.4792 28.8893 16.448C28.8868 16.3811 28.8828 16.3143 28.8774 16.2477C28.8741 16.2063 28.8702 16.165 28.8658 16.1238L28.8581 16.0571L28.8501 15.9953L28.8394 15.9207L28.8251 15.8329L28.8097 15.7474L28.8013 15.7046L28.7882 15.6419L28.7696 15.5591C28.7474 15.4639 28.7222 15.3694 28.6942 15.2761L28.6696 15.1969L28.6437 15.1183L28.6192 15.0477L28.5906 14.9698L28.5607 14.8925L28.5458 14.8553L28.5148 14.781C28.4666 14.668 28.4139 14.5571 28.3571 14.4485L28.32 14.379L28.2976 14.3384L28.2626 14.2768L28.239 14.2364L28.1821 14.1426L28.1502 14.0923C28.1206 14.0462 28.0903 14.0006 28.059 13.9556C28.0161 13.8936 27.9716 13.8327 27.9256 13.7729L27.8983 13.7377L27.8678 13.6994L27.82 13.6407L27.7712 13.583L27.7201 13.5244L27.6632 13.4617L27.6283 13.4244L27.5744 13.3683C27.5111 13.3036 27.4458 13.2409 27.3785 13.1802L27.3106 13.1201L27.2461 13.0653L27.1843 13.0147L27.1355 12.9761L27.107 12.9542C27.0231 12.89 26.9366 12.8287 26.8478 12.7706L26.7638 12.7169L26.6928 12.6738L26.6292 12.6367L26.5622 12.5993L26.4836 12.5574L26.4491 12.5396L26.3785 12.5046L26.2946 12.4651L26.2349 12.4383L26.1979 12.4222L26.1552 12.4043C26.0957 12.3797 26.0355 12.3563 25.9745 12.3343L17.474 9.262C17.399 9.41941 17.3335 9.58449 17.2788 9.7566L17.2565 9.82923L14.7664 18.2048C14.5457 18.9476 14.4774 19.7088 14.5426 20.4493C14.6079 21.1893 14.8065 21.9099 15.1199 22.5718C15.4336 23.2343 15.8624 23.8388 16.3883 24.3464C16.9151 24.8549 17.5398 25.2666 18.2444 25.5421H18.2445L25.3066 26.7831C25.3429 26.7972 25.3793 26.8109 25.4157 26.8241L28.6817 17.9925C28.7022 17.9273 28.7213 17.8619 28.7388 17.7964L28.7639 17.6979L28.7818 17.6212C28.793 17.5712 28.8034 17.5212 28.8129 17.4711L28.8265 17.3959L28.839 17.3186L28.8533 17.2192L28.8613 17.1539ZM28.8613 17.1539L28.8631 17.1393L28.859 17.1742L28.8613 17.1539Z" fill="#1AD5FF"/>
<path d="M21.6029 29.1762C26.5591 29.1762 30.5769 24.3547 30.5769 18.4071C30.5769 12.4594 26.5591 7.63794 21.6029 7.63794C16.6467 7.63794 12.6289 12.4594 12.6289 18.4071C12.6289 24.3547 16.6467 29.1762 21.6029 29.1762Z" fill="#19D5FF"/>
<path fill-rule="evenodd" clip-rule="evenodd" d="M25.4663 12.4808C26.0198 12.6807 26.5117 12.9897 26.9269 13.3773C27.3426 13.7653 27.6811 14.2318 27.9275 14.7458C28.1739 15.2598 28.3277 15.8212 28.3745 16.3986C28.4211 16.9757 28.3606 17.5681 28.1784 18.1453L24.7288 28.7241C24.5051 29.433 24.152 30.0525 23.706 30.5652C23.261 31.0767 22.7239 31.482 22.1305 31.7644C21.5387 32.0459 20.8912 32.2052 20.2231 32.2263C19.5569 32.2471 18.8701 32.1307 18.1977 31.8602L10.3164 28.6769C9.52786 28.3599 8.82802 27.8893 8.23716 27.3104C7.64736 26.7323 7.16529 26.0456 6.81157 25.2944C6.45792 24.5435 6.23208 23.7273 6.15474 22.8897C6.0775 22.0514 6.14887 21.1905 6.39057 20.3512L9.00761 11.1011C9.16967 10.5388 9.42996 10.0409 9.7625 9.62168C10.0954 9.20182 10.5009 8.86082 10.9523 8.61398C11.4046 8.36642 11.9031 8.21327 12.4205 8.16951C12.9392 8.12561 13.477 8.19175 14.0067 8.38308L25.4663 12.4808Z" fill="#4DEAFF"/>
<path fill-rule="evenodd" clip-rule="evenodd" d="M30.0111 21.6158C30.6781 20.6948 31.0987 20.8112 31.5054 21.2764L31.5505 21.3294L31.5957 21.3852C31.6031 21.3947 31.6107 21.4043 31.6182 21.414L31.6634 21.4733L31.7087 21.5348L31.7542 21.5982L31.823 21.6965L32.0845 22.0784L32.1594 22.1853L32.2104 22.2565L32.2887 22.3628L32.3422 22.4329L32.3969 22.5023C32.4061 22.5138 32.4153 22.5252 32.4246 22.5366L32.4811 22.6043C32.5192 22.6491 32.5581 22.693 32.598 22.7357L32.6586 22.7988C32.8655 23.0086 33.0949 23.1713 33.3268 23.307L33.4088 23.3538L33.4907 23.3985L33.5725 23.4414L33.6538 23.4826L33.7347 23.5224L33.9329 23.6167L34.1603 23.7238L34.2326 23.7588L34.303 23.7938L34.3711 23.8291L34.4368 23.8647L34.4998 23.9009C34.8699 24.1205 35.0882 24.3827 34.9651 24.8777C34.81 25.5015 33.998 25.6651 33.0683 25.5418L32.9646 25.5269L32.86 25.5098C32.8425 25.5067 32.825 25.5036 32.8075 25.5003L32.702 25.4798C32.5788 25.4545 32.4547 25.4248 32.3309 25.3911L32.225 25.3612C32.2074 25.356 32.1898 25.3507 32.1722 25.3454L32.0668 25.3126C32.0318 25.3014 31.9969 25.2899 31.9621 25.278L31.8581 25.2415C31.8409 25.2353 31.8236 25.229 31.8064 25.2226L31.7039 25.1835L31.6025 25.1427C31.4682 25.0873 31.3375 25.0275 31.212 24.9639L31.1189 24.9157C31.1036 24.9075 31.0883 24.8993 31.0732 24.8909L30.9834 24.8406C30.9391 24.8151 30.8957 24.7891 30.8533 24.7626L30.7698 24.7092L30.5319 24.5512L30.4193 24.4749L30.3114 24.3999L30.242 24.3507L30.1748 24.3019L30.1098 24.2535L30.047 24.2053L29.9866 24.1574L29.9286 24.1095L29.873 24.0618C29.8639 24.0538 29.8549 24.0459 29.8461 24.0379L29.7942 23.99C29.7858 23.9821 29.7774 23.9741 29.7692 23.9661L29.7212 23.9181C29.2074 23.388 29.1729 22.8106 29.9392 21.7166L30.0111 21.6158Z" fill="#1AD5FF"/>
<path d="M17.6392 22.1779C17.4986 21.9979 17.2392 21.9674 17.0601 22.1096C16.6985 22.3967 16.2184 22.492 15.7677 22.3538C15.317 22.2158 14.9721 21.8678 14.8325 21.4271C14.7634 21.2089 14.5314 21.0889 14.3143 21.1593C14.0974 21.2297 13.9778 21.4635 14.0469 21.6814C14.2678 22.3786 14.8139 22.9299 15.5254 23.1479C16.237 23.3659 16.9973 23.2148 17.5696 22.7606C17.7484 22.6186 17.7797 22.3578 17.6392 22.1779Z" fill="#002A66" stroke="#002A66" stroke-width="0.0872084"/>
<path d="M11.8553 19.8518C12.7721 19.8518 13.5154 19.1057 13.5154 18.1853C13.5154 17.2649 12.7721 16.5188 11.8553 16.5188C10.9384 16.5188 10.1951 17.2649 10.1951 18.1853C10.1951 19.1057 10.9384 19.8518 11.8553 19.8518Z" fill="#002A66"/>
<path d="M11.8546 19.9877C12.847 19.9877 13.6506 19.1803 13.6506 18.1854C13.6506 17.1905 12.847 16.3831 11.8546 16.3831C10.8622 16.3831 10.0586 17.1905 10.0586 18.1854C10.0586 19.1803 10.8622 19.9877 11.8546 19.9877Z" stroke="white" stroke-opacity="0.5" stroke-width="0.271616"/>
<path d="M11.5233 18.0187C11.7984 18.0187 12.0214 17.7949 12.0214 17.5188C12.0214 17.2426 11.7984 17.0188 11.5233 17.0188C11.2483 17.0188 11.0253 17.2426 11.0253 17.5188C11.0253 17.7949 11.2483 18.0187 11.5233 18.0187Z" fill="white"/>
<path d="M21.8159 23.661C22.7983 23.661 23.5946 22.8615 23.5946 21.8754C23.5946 20.8893 22.7983 20.0898 21.8159 20.0898C20.8335 20.0898 20.0371 20.8893 20.0371 21.8754C20.0371 22.8615 20.8335 23.661 21.8159 23.661Z" fill="#002A66"/>
<path d="M21.8169 23.7969C22.8748 23.7969 23.7315 22.9361 23.7315 21.8755C23.7315 20.8148 22.8748 19.9541 21.8169 19.9541C20.759 19.9541 19.9023 20.8148 19.9023 21.8755C19.9023 22.9361 20.759 23.7969 21.8169 23.7969Z" stroke="white" stroke-opacity="0.5" stroke-width="0.271616"/>
<path d="M21.2836 21.6966C21.5783 21.6966 21.8173 21.4568 21.8173 21.1609C21.8173 20.8651 21.5783 20.6252 21.2836 20.6252C20.9889 20.6252 20.75 20.8651 20.75 21.1609C20.75 21.4568 20.9889 21.6966 21.2836 21.6966Z" fill="white"/>
<path d="M31.9715 15.2969H31.4541C31.3269 15.3108 31.2007 15.3324 31.0761 15.3614C30.131 15.5568 29.3772 16.0608 28.8574 17.5029H31.2737C31.3512 17.503 31.4269 17.4803 31.4915 17.4375C31.5561 17.3948 31.6067 17.334 31.6368 17.2627L32.2756 15.756C32.2969 15.7058 32.3055 15.6511 32.3005 15.5968C32.2955 15.5425 32.2772 15.4902 32.247 15.4447C32.2169 15.3992 32.176 15.3619 32.1279 15.3361C32.0799 15.3103 32.0261 15.2968 31.9715 15.2969Z" fill="#00B5FF"/>
<path d="M31.0428 15.2998C28.7005 15.3707 26.5275 17.1207 26.1353 19.5276L26.0337 20.1214C26.0236 20.1782 26.026 20.2366 26.0409 20.2923C26.0558 20.348 26.0827 20.3999 26.1199 20.444C26.157 20.4883 26.2033 20.5237 26.2557 20.548C26.308 20.5722 26.3651 20.5847 26.4228 20.5845H27.8405C27.9315 20.5849 28.0198 20.5537 28.0905 20.4963C28.1612 20.4388 28.2097 20.3587 28.2279 20.2695L28.4508 19.1291C28.5421 18.577 28.6801 18.0337 28.8635 17.505C29.3833 16.063 30.1386 15.5589 31.0821 15.3637C31.2067 15.3345 31.333 15.313 31.4602 15.299C31.4602 15.299 31.0861 15.2982 31.0428 15.2998Z" fill="#0066FF"/>
<path d="M23.2959 17.5022H23.8134C23.9403 17.4882 24.0663 17.4667 24.1907 17.4376C25.1358 17.2423 25.8903 16.7382 26.4093 15.2961H23.9937C23.9161 15.2959 23.8401 15.3188 23.7754 15.3616C23.7106 15.4045 23.66 15.4656 23.6299 15.5371L22.9912 17.0431C22.9698 17.0933 22.9612 17.1481 22.9662 17.2025C22.9712 17.2569 22.9897 17.3092 23.0199 17.3547C23.0501 17.4002 23.0912 17.4375 23.1393 17.4632C23.1875 17.489 23.2413 17.5024 23.2959 17.5022Z" fill="#00B5FF"/>
<path d="M24.2227 17.4992C26.565 17.4283 28.7379 15.6783 29.1301 13.2722L29.2349 12.676C29.245 12.6192 29.2426 12.5608 29.2277 12.5051C29.2128 12.4494 29.1858 12.3975 29.1488 12.3534C29.1116 12.3092 29.0653 12.2737 29.0129 12.2494C28.9606 12.2252 28.9035 12.2127 28.8458 12.2129H27.4282C27.3366 12.2127 27.2477 12.2445 27.177 12.3027C27.1063 12.3609 27.0581 12.442 27.0407 12.5318L26.8217 13.6723C26.73 14.2244 26.5917 14.7676 26.4083 15.2963C25.8893 16.7384 25.1339 17.2424 24.1896 17.4377C24.0653 17.4668 23.9393 17.4884 23.8124 17.5023C23.8124 17.5023 24.1825 17.5007 24.2227 17.4992Z" fill="#0066FF"/>
<path d="M6.35202 16.3094C6.77354 16.42 7.38665 16.4569 7.6932 16.4569L7.11842 18.743C6.86295 18.6816 6.35202 18.5587 5.9305 18.3005C5.50897 18.0424 4.91225 17.4632 5.01081 16.8625C5.12577 16.1619 5.93049 16.1988 6.35202 16.3094Z" fill="#3EE4FF"/>
</g>
<defs>
<clipPath id="clip0_1_5911">
<rect width="40" height="40" fill="white"/>
</clipPath>
</defs>
</svg>
