<svg width="40" height="40" viewBox="0 0 40 40" fill="none" xmlns="http://www.w3.org/2000/svg">
<g clip-path="url(#clip0_1_4792)">
<path d="M39.2129 11.449V11.449C40.2624 17.0781 40.2624 22.8026 39.2129 28.5271V28.5271C38.2588 33.9654 33.9654 38.2588 28.5271 39.2129V39.2129C22.898 40.2624 17.1735 40.2624 11.449 39.2129V39.2129C6.01073 38.2588 1.81276 34.0608 0.858676 28.6225V28.6225C-0.286225 22.9934 -0.286225 17.1735 0.858676 11.449V11.449C1.81276 6.01073 6.01073 1.81276 11.449 0.858676V0.858676C17.0781 -0.286225 22.898 -0.286225 28.6225 0.858676V0.858676C34.0608 1.81276 38.2588 6.01073 39.2129 11.449Z" fill="white"/>
<path fill-rule="evenodd" clip-rule="evenodd" d="M38.2293 28.3468C39.2571 22.7405 39.2565 17.1393 38.2298 11.6323L39.2129 11.449C40.2624 17.0781 40.2624 22.8026 39.2129 28.5271L38.2293 28.3468ZM28.5271 39.2129C33.9654 38.2588 38.2588 33.9654 39.2129 28.5271L38.2279 28.3543C37.3466 33.3779 33.3779 37.3466 28.3543 38.2279L28.5271 39.2129ZM11.449 39.2129C17.1735 40.2624 22.898 40.2624 28.5271 39.2129L28.3438 38.2298C22.8369 39.2565 17.2356 39.2571 11.6293 38.2293L11.449 39.2129ZM28.6225 0.858676L28.4497 1.84363C33.4733 2.72496 37.3466 6.59823 38.2279 11.6218L39.2129 11.449C38.2588 6.01073 34.0608 1.81276 28.6225 0.858676ZM11.449 0.858676C17.0781 -0.286225 22.898 -0.286225 28.6225 0.858676L28.4264 1.83926C22.8303 0.720026 17.1448 0.720683 11.6483 1.83861L11.449 0.858676ZM0.858676 11.449C1.81276 6.01073 6.01073 1.81276 11.449 0.858676L11.6218 1.84363C6.59823 2.72496 2.72496 6.59823 1.84363 11.6218L0.858676 11.449ZM0.858676 11.449L1.83926 11.6451C0.720026 17.2413 0.720683 22.9267 1.83861 28.4232L0.858676 28.6225C-0.286225 22.9934 -0.286225 17.1735 0.858676 11.449ZM0.858676 28.6225C1.81276 34.0608 6.01073 38.2588 11.449 39.2129L11.6218 38.2279C6.59823 37.3466 2.72496 33.4733 1.84363 28.4497L0.858676 28.6225Z" fill="#EEF4FE"/>
<path fill-rule="evenodd" clip-rule="evenodd" d="M10.7564 12.1506C10.325 12.1873 9.89469 12.2239 9.46511 12.2588C9.09932 12.2885 8.79262 12.5726 8.73626 12.9454C8.71351 13.0959 8.69059 13.246 8.66772 13.3959C8.43213 14.9395 8.20117 16.4527 8.20117 18C8.20117 19.5474 8.43213 21.0606 8.66772 22.6042C8.69059 22.7541 8.71351 22.9042 8.73626 23.0547C8.79261 23.4274 9.09935 23.7116 9.46521 23.7413C9.73776 23.7634 10.0114 23.7863 10.2855 23.8095C10.8359 23.8561 11.2442 24.34 11.1976 24.8904C11.151 25.4407 10.6671 25.849 10.1168 25.8024C9.84368 25.7793 9.57266 25.7566 9.30339 25.7347C8.0026 25.6291 6.95235 24.6343 6.75873 23.3537C6.73572 23.2015 6.71219 23.0477 6.68843 22.8924C6.45563 21.371 6.20117 19.708 6.20117 18C6.20117 16.2921 6.45563 14.6291 6.68843 13.1077C6.71219 12.9524 6.73572 12.7986 6.75873 12.6464C6.95234 11.3659 8.00245 10.371 9.30329 10.2654C9.71676 10.2318 10.1361 10.1961 10.5607 10.1599C12.6101 9.98516 14.7817 9.80005 17.0012 9.80005C19.2208 9.80005 21.3937 9.98528 23.4443 10.1601C23.9036 10.1992 24.3568 10.2379 24.803 10.2738C26.0207 10.3718 27.0713 11.2655 27.2775 12.5217C27.3159 12.7552 27.3549 13.0051 27.3911 13.2584C27.4693 13.8052 27.0895 14.3118 26.5428 14.39C25.9961 14.4682 25.4895 14.0884 25.4112 13.5417C25.3773 13.3045 25.3405 13.0684 25.3039 12.8457C25.2549 12.5467 24.9957 12.2957 24.6425 12.2673C24.1771 12.2299 23.7107 12.1902 23.2432 12.1504C21.1971 11.9762 19.1274 11.8 17.0012 11.8C14.8748 11.8 12.8037 11.9763 10.7564 12.1506Z" fill="#0033C9"/>
<path d="M13.7418 28.8233C13.8704 29.6483 14.5496 30.285 15.382 30.3507C17.8213 30.5431 20.3735 30.8 23.0012 30.8C25.6288 30.8 28.1811 30.5431 30.6203 30.3507C31.4527 30.285 32.132 29.6483 32.2605 28.8233C32.512 27.2087 32.8012 25.5272 32.8012 23.8C32.8012 22.0729 32.512 20.3914 32.2605 18.7768C32.132 17.9518 31.4527 17.3151 30.6203 17.2494C28.1811 17.057 25.6288 16.8 23.0012 16.8C20.3735 16.8 17.8213 17.057 15.382 17.2494C14.5496 17.3151 13.8704 17.9518 13.7418 18.7768C13.4903 20.3914 13.2012 22.0729 13.2012 23.8C13.2012 25.5272 13.4903 27.2087 13.7418 28.8233Z" fill="white"/>
<path d="M22.6233 26.4923C24.0489 25.7403 26.0332 24.5575 26.0332 23.8001C26.0332 23.0426 24.0489 21.8599 22.6233 21.1078C21.9658 20.761 21.2006 21.2471 21.2006 21.9905L21.2006 25.6097C21.2006 26.3531 21.9657 26.8392 22.6233 26.4923Z" fill="#00CF6A"/>
<path fill-rule="evenodd" clip-rule="evenodd" d="M24.3612 23.152C23.7352 22.7023 22.9239 22.2404 22.2224 21.8703C22.1957 21.8562 22.1789 21.8553 22.169 21.8558C22.1566 21.8564 22.1408 21.8605 22.1238 21.8711C22.0913 21.8915 22.0639 21.9285 22.0639 21.9905L22.0639 25.6097C22.0639 25.6716 22.0913 25.7087 22.1238 25.7291C22.1408 25.7397 22.1566 25.7438 22.169 25.7444C22.1789 25.7449 22.1957 25.744 22.2224 25.7299C22.9239 25.3598 23.7352 24.8978 24.3612 24.4482C24.6767 24.2215 24.9144 24.0196 25.0643 23.8547C25.0826 23.8346 25.0983 23.8164 25.1118 23.8001C25.0983 23.7838 25.0826 23.7656 25.0643 23.7455C24.9144 23.5805 24.6767 23.3787 24.3612 23.152ZM26.34 22.5858C26.574 22.8432 26.8965 23.2687 26.8965 23.8001C26.8965 24.3315 26.574 24.757 26.34 25.0144C26.0733 25.3078 25.7258 25.5906 25.367 25.8483C24.6445 26.3674 23.7508 26.8728 23.0268 27.2548C21.7631 27.9214 20.3398 26.9655 20.3398 25.6097L20.3398 21.9905C20.3398 20.6346 21.7631 19.6788 23.0268 20.3454L22.6246 21.1078L23.0268 20.3454C23.7508 20.7273 24.6445 21.2327 25.367 21.7518C25.7258 22.0095 26.0733 22.2924 26.34 22.5858Z" fill="#00CF6A"/>
<path fill-rule="evenodd" clip-rule="evenodd" d="M16.7538 18.141C16.3217 18.1767 15.8908 18.2124 15.4607 18.2463C15.0956 18.2751 14.788 18.558 14.7299 18.9307C14.7092 19.0639 14.6883 19.1967 14.6675 19.3292C14.4316 20.8318 14.2012 22.2999 14.2012 23.8C14.2012 25.3002 14.4316 26.7683 14.6675 28.2709C14.6883 28.4034 14.7092 28.5362 14.7299 28.6694C14.788 29.0421 15.0956 29.325 15.4607 29.3538C15.8908 29.3877 16.3217 29.4234 16.7538 29.4591C18.8011 29.6285 20.8736 29.8 23.0012 29.8C25.1288 29.8 27.2013 29.6285 29.2485 29.4591C29.6806 29.4234 30.1116 29.3877 30.5417 29.3538C30.9068 29.325 31.2144 29.0421 31.2724 28.6694C31.2932 28.5362 31.314 28.4034 31.3348 28.2709C31.5707 26.7683 31.8012 25.3002 31.8012 23.8C31.8012 22.2999 31.5707 20.8318 31.3348 19.3292C31.314 19.1967 31.2932 19.0639 31.2724 18.9307C31.2144 18.558 30.9068 18.2751 30.5417 18.2463C30.1116 18.2124 29.6806 18.1767 29.2486 18.141C27.2013 17.9716 25.1288 17.8 23.0012 17.8C20.8736 17.8 18.8011 17.9716 16.7538 18.141ZM16.5634 16.1497C18.6128 15.9799 20.783 15.8 23.0012 15.8C25.2194 15.8 27.3896 15.9799 29.4389 16.1497C29.8644 16.185 30.2846 16.2198 30.699 16.2525C31.9987 16.3551 33.0496 17.3456 33.2486 18.6229C33.2699 18.7598 33.2917 18.8981 33.3136 19.0377C33.5462 20.5154 33.8012 22.1354 33.8012 23.8C33.8012 25.4647 33.5462 27.0847 33.3136 28.5624C33.2917 28.702 33.2699 28.8403 33.2486 28.9772C33.0496 30.2545 31.9987 31.245 30.699 31.3476C30.2846 31.3803 29.8644 31.4151 29.439 31.4503C27.3896 31.6202 25.2194 31.8 23.0012 31.8C20.783 31.8 18.6128 31.6202 16.5634 31.4504C16.138 31.4151 15.7177 31.3803 15.3034 31.3476C14.0037 31.245 12.9527 30.2545 12.7538 28.9772C12.7324 28.8403 12.7107 28.702 12.6887 28.5624C12.4561 27.0847 12.2012 25.4647 12.2012 23.8C12.2012 22.1354 12.4561 20.5154 12.6887 19.0377C12.7107 18.8981 12.7324 18.7598 12.7538 18.6229C12.9527 17.3456 14.0037 16.3551 15.3034 16.2525C15.7177 16.2198 16.138 16.185 16.5634 16.1497Z" fill="#0033C9"/>
</g>
<defs>
<clipPath id="clip0_1_4792">
<rect width="40" height="40" fill="white"/>
</clipPath>
</defs>
</svg>
