<svg width="40" height="40" viewBox="0 0 40 40" fill="none" xmlns="http://www.w3.org/2000/svg">
<g clip-path="url(#clip0_1_4371)">
<path d="M39.2129 11.449V11.449C40.2624 17.0781 40.2624 22.8026 39.2129 28.5271V28.5271C38.2588 33.9654 33.9654 38.2588 28.5271 39.2129V39.2129C22.898 40.2624 17.1735 40.2624 11.449 39.2129V39.2129C6.01073 38.2588 1.81276 34.0608 0.858676 28.6225V28.6225C-0.286225 22.9934 -0.286225 17.1735 0.858676 11.449V11.449C1.81276 6.01073 6.01073 1.81276 11.449 0.858676V0.858676C17.0781 -0.286225 22.898 -0.286225 28.6225 0.858676V0.858676C34.0608 1.81276 38.2588 6.01073 39.2129 11.449Z" fill="white"/>
<path fill-rule="evenodd" clip-rule="evenodd" d="M38.2293 28.3468C39.2571 22.7405 39.2565 17.1393 38.2298 11.6323L39.2129 11.449C40.2624 17.0781 40.2624 22.8026 39.2129 28.5271L38.2293 28.3468ZM28.5271 39.2129C33.9654 38.2588 38.2588 33.9654 39.2129 28.5271L38.2279 28.3543C37.3466 33.3779 33.3779 37.3466 28.3543 38.2279L28.5271 39.2129ZM11.449 39.2129C17.1735 40.2624 22.898 40.2624 28.5271 39.2129L28.3438 38.2298C22.8369 39.2565 17.2356 39.2571 11.6293 38.2293L11.449 39.2129ZM28.6225 0.858676L28.4497 1.84363C33.4733 2.72496 37.3466 6.59823 38.2279 11.6218L39.2129 11.449C38.2588 6.01073 34.0608 1.81276 28.6225 0.858676ZM11.449 0.858676C17.0781 -0.286225 22.898 -0.286225 28.6225 0.858676L28.4264 1.83926C22.8303 0.720026 17.1448 0.720683 11.6483 1.83861L11.449 0.858676ZM0.858676 11.449C1.81276 6.01073 6.01073 1.81276 11.449 0.858676L11.6218 1.84363C6.59823 2.72496 2.72496 6.59823 1.84363 11.6218L0.858676 11.449ZM0.858676 11.449L1.83926 11.6451C0.720026 17.2413 0.720683 22.9267 1.83861 28.4232L0.858676 28.6225C-0.286225 22.9934 -0.286225 17.1735 0.858676 11.449ZM0.858676 28.6225C1.81276 34.0608 6.01073 38.2588 11.449 39.2129L11.6218 38.2279C6.59823 37.3466 2.72496 33.4733 1.84363 28.4497L0.858676 28.6225Z" fill="#EEF4FE"/>
<path fill-rule="evenodd" clip-rule="evenodd" d="M23.7665 8.19995C25.9945 8.19995 27.8007 10.0061 27.8007 12.2341C27.8007 14.4621 25.9945 16.2683 23.7665 16.2683C21.5385 16.2683 19.7324 14.4621 19.7324 12.2341C19.7324 10.0061 21.5385 8.19995 23.7665 8.19995ZM29.8007 12.2341C29.8007 8.90153 27.0991 6.19995 23.7665 6.19995C20.4339 6.19995 17.7324 8.90153 17.7324 12.2341C17.7324 15.5667 20.4339 18.2683 23.7665 18.2683C27.0991 18.2683 29.8007 15.5667 29.8007 12.2341Z" fill="#0033C9"/>
<path fill-rule="evenodd" clip-rule="evenodd" d="M10.6826 11.3053C12.0531 11.3053 13.1641 12.4163 13.1641 13.7868C13.1641 15.1573 12.0531 16.2683 10.6826 16.2683C9.31205 16.2683 8.20104 15.1573 8.20104 13.7868C8.20104 12.4163 9.31205 11.3053 10.6826 11.3053ZM15.1641 13.7868C15.1641 11.3117 13.1576 9.3053 10.6826 9.3053C8.20748 9.3053 6.20104 11.3117 6.20104 13.7868C6.20104 16.2619 8.20748 18.2683 10.6826 18.2683C13.1576 18.2683 15.1641 16.2619 15.1641 13.7868Z" fill="#0033C9"/>
<path d="M31.5527 22.4182C31.5527 22.4182 28.9242 23.5757 26.9436 24.461L26.3999 21.5999L23.9999 20.7999V32.9999L26.3999 31.7999L26.9436 28.9868C28.9242 29.872 31.5527 31.0296 31.5527 31.0296V22.4182Z" fill="#00CF6A"/>
<path fill-rule="evenodd" clip-rule="evenodd" d="M19.0467 21.6477C17.3132 21.6477 15.6142 21.7958 13.9259 21.9436C13.7555 21.9586 13.5843 21.9735 13.4145 21.9882C12.8826 22.0343 12.4423 22.4482 12.3634 22.9793C12.1757 24.2433 11.9999 25.4752 11.9999 26.7238C11.9999 27.9724 12.1757 29.2044 12.3634 30.4684C12.4423 30.9994 12.8826 31.4134 13.4145 31.4594C13.5846 31.4742 13.7553 31.4891 13.926 31.504C15.6142 31.6518 17.3132 31.8 19.0467 31.8C20.7802 31.8 22.4792 31.6518 24.1675 31.504L24.1688 31.5039C24.339 31.489 24.5093 31.4741 24.6789 31.4594C25.2108 31.4134 25.6511 30.9994 25.73 30.4684C25.8096 29.9327 25.8872 29.4029 25.9505 28.869C25.988 28.5532 26.1734 28.274 26.45 28.1171C26.7266 27.9601 27.0613 27.9441 27.3516 28.0738C28.3401 28.5157 29.491 29.0257 30.3953 29.4256C30.4486 29.4492 30.5012 29.4724 30.5527 29.4952V23.9526C30.5012 23.9754 30.4487 23.9986 30.3953 24.0222C29.491 24.4221 28.3401 24.9322 27.3517 25.374C27.0613 25.5038 26.7266 25.4877 26.45 25.3307C26.1735 25.1738 25.988 24.8946 25.9506 24.5788C25.8872 24.0449 25.8096 23.515 25.73 22.9793C25.6511 22.4482 25.2108 22.0343 24.6789 21.9882C24.509 21.9735 24.3385 21.9586 24.168 21.9437C22.4797 21.7959 20.7803 21.6477 19.0467 21.6477ZM31.1497 21.503C31.4589 21.3668 31.816 21.396 32.099 21.5807C32.3821 21.7653 32.5527 22.0803 32.5527 22.4182V31.0296C32.5527 31.3675 32.3821 31.6826 32.099 31.8672C31.816 32.0518 31.4589 32.081 31.1497 31.9448L30.7075 31.7499C30.4299 31.6274 30.0391 31.4549 29.5865 31.2548C29.0371 31.0118 28.3962 30.728 27.7555 30.4433C27.7397 30.5504 27.724 30.6567 27.7083 30.7623C27.4938 32.2063 26.3089 33.3258 24.8514 33.452C24.6825 33.4666 24.5128 33.4815 24.3419 33.4964L24.323 33.4981C22.6527 33.6443 20.8746 33.8 19.0467 33.8C17.2188 33.8 15.4407 33.6443 13.7704 33.4981L13.7515 33.4964C13.5807 33.4815 13.4109 33.4666 13.242 33.452C11.7845 33.3258 10.5997 32.2063 10.3851 30.7623C10.1994 29.5119 9.99988 28.1409 9.99988 26.7238C9.99988 25.3068 10.1994 23.9358 10.3851 22.6854C10.5997 21.2413 11.7845 20.1219 13.242 19.9957C13.411 19.9811 13.5807 19.9662 13.7515 19.9513L13.7704 19.9496C15.4407 19.8034 17.2188 19.6477 19.0467 19.6477C20.8746 19.6477 22.6528 19.8034 24.3231 19.9496L24.3419 19.9513C24.5128 19.9662 24.6825 19.9811 24.8514 19.9957C26.3089 20.1219 27.4938 21.2413 27.7083 22.6854C27.724 22.791 27.7397 22.8974 27.7555 23.0046C28.3962 22.7198 29.0371 22.436 29.5865 22.1931C30.0391 21.9929 30.4299 21.8204 30.7075 21.698L31.1497 21.503Z" fill="#0033C9"/>
</g>
<defs>
<clipPath id="clip0_1_4371">
<rect width="40" height="40" fill="white"/>
</clipPath>
</defs>
</svg>
