<svg width="40" height="40" viewBox="0 0 40 40" fill="none" xmlns="http://www.w3.org/2000/svg">
<g clip-path="url(#clip0_1_3895)">
<path d="M39.2129 11.449V11.449C40.2624 17.0781 40.2624 22.8026 39.2129 28.5271V28.5271C38.2588 33.9654 33.9654 38.2588 28.5271 39.2129V39.2129C22.898 40.2624 17.1735 40.2624 11.449 39.2129V39.2129C6.01073 38.2588 1.81276 34.0608 0.858676 28.6225V28.6225C-0.286225 22.9934 -0.286225 17.1735 0.858676 11.449V11.449C1.81276 6.01073 6.01073 1.81276 11.449 0.858676V0.858676C17.0781 -0.286225 22.898 -0.286225 28.6225 0.858676V0.858676C34.0608 1.81276 38.2588 6.01073 39.2129 11.449Z" fill="white"/>
<path fill-rule="evenodd" clip-rule="evenodd" d="M38.2293 28.3468C39.2571 22.7405 39.2565 17.1393 38.2298 11.6323L39.2129 11.449C40.2624 17.0781 40.2624 22.8026 39.2129 28.5271L38.2293 28.3468ZM28.5271 39.2129C33.9654 38.2588 38.2588 33.9654 39.2129 28.5271L38.2279 28.3543C37.3466 33.3779 33.3779 37.3466 28.3543 38.2279L28.5271 39.2129ZM11.449 39.2129C17.1735 40.2624 22.898 40.2624 28.5271 39.2129L28.3438 38.2298C22.8369 39.2565 17.2356 39.2571 11.6293 38.2293L11.449 39.2129ZM28.6225 0.858676L28.4497 1.84363C33.4733 2.72496 37.3466 6.59823 38.2279 11.6218L39.2129 11.449C38.2588 6.01073 34.0608 1.81276 28.6225 0.858676ZM11.449 0.858676C17.0781 -0.286225 22.898 -0.286225 28.6225 0.858676L28.4264 1.83926C22.8303 0.720026 17.1448 0.720683 11.6483 1.83861L11.449 0.858676ZM0.858676 11.449C1.81276 6.01073 6.01073 1.81276 11.449 0.858676L11.6218 1.84363C6.59823 2.72496 2.72496 6.59823 1.84363 11.6218L0.858676 11.449ZM0.858676 11.449L1.83926 11.6451C0.720026 17.2413 0.720683 22.9267 1.83861 28.4232L0.858676 28.6225C-0.286225 22.9934 -0.286225 17.1735 0.858676 11.449ZM0.858676 28.6225C1.81276 34.0608 6.01073 38.2588 11.449 39.2129L11.6218 38.2279C6.59823 37.3466 2.72496 33.4733 1.84363 28.4497L0.858676 28.6225Z" fill="#EEF4FE"/>
<path d="M24.5239 30.3804C23.0453 30.3804 21.8466 29.1817 21.8466 27.7031C21.8466 26.2244 23.0453 25.0258 24.5239 25.0258C26.0026 25.0258 27.2012 26.2244 27.2012 27.7031C27.2012 29.1817 26.0026 30.3804 24.5239 30.3804Z" fill="#00D16B"/>
<path fill-rule="evenodd" clip-rule="evenodd" d="M28.2004 27.7031C28.2004 25.6721 26.554 24.0258 24.5231 24.0258C22.4921 24.0258 20.8458 25.6721 20.8458 27.7031C20.8458 29.734 22.4921 31.3804 24.5231 31.3804C26.554 31.3804 28.2004 29.734 28.2004 27.7031ZM24.5231 26.0258C25.4494 26.0258 26.2004 26.7767 26.2004 27.7031C26.2004 28.6294 25.4494 29.3804 24.5231 29.3804C23.5967 29.3804 22.8458 28.6294 22.8458 27.7031C22.8458 26.7767 23.5967 26.0258 24.5231 26.0258Z" fill="#0033CC"/>
<path d="M13.3247 30.3804C11.8461 30.3804 10.6474 29.1817 10.6474 27.7031C10.6474 26.2244 11.8461 25.0258 13.3247 25.0258C14.8033 25.0258 16.002 26.2244 16.002 27.7031C16.002 29.1817 14.8033 30.3804 13.3247 30.3804Z" fill="#00D16B"/>
<path d="M13.3243 24.0258C11.2934 24.0258 9.64655 25.6726 9.64655 27.7035C9.64678 29.7342 11.2935 31.3802 13.3243 31.3802C15.3549 31.38 17.0008 29.7341 17.001 27.7035C17.001 25.6727 15.355 24.026 13.3243 24.0258ZM13.3243 26.0258C14.2504 26.026 15.001 26.7773 15.001 27.7035C15.0008 28.6295 14.2503 29.38 13.3243 29.3802C12.3981 29.3802 11.6468 28.6296 11.6465 27.7035C11.6465 26.7771 12.3979 26.0258 13.3243 26.0258Z" fill="#0033CC"/>
<path d="M16.5323 27.1189C15.9803 27.1019 15.519 27.5356 15.502 28.0876C15.4851 28.6396 15.9188 29.1009 16.4708 29.1179C17.6314 29.1537 18.8091 29.1765 20.0001 29.1765C20.6782 29.1765 21.3519 29.169 22.0206 29.156C22.5309 29.1461 22.5174 28.6384 22.504 28.1257C22.5029 28.0837 22.5018 28.0415 22.501 27.9998C22.5002 27.9565 22.4996 27.9149 22.4991 27.8748C22.4934 27.4026 22.4903 27.1461 21.9815 27.156C21.3242 27.1688 20.6636 27.1765 20.0001 27.1765C18.8344 27.1765 17.6778 27.1542 16.5323 27.1189ZM20.0274 10.2C18.8592 10.2 16.9168 10.2111 15.0245 10.2703C13.1646 10.3284 11.2535 10.4347 10.2042 10.6453C9.39806 10.8071 8.43184 11.3078 7.66119 12.0427C6.87979 12.788 6.20135 13.8723 6.20123 15.2253V24.2253C6.20123 25.114 6.2917 26.2047 6.78912 27.1111C7.33776 28.1106 8.31225 28.7652 9.74811 28.8289C9.98282 28.8393 10.2185 28.8492 10.4551 28.8601L10.9542 28.8835L11.0479 26.8855L10.5469 26.863C10.3096 26.8521 10.073 26.8413 9.83698 26.8308C9.05685 26.7962 8.73502 26.4998 8.54205 26.1482C8.29805 25.7033 8.20123 25.0402 8.20123 24.2253V22.0261H31.7862C31.7944 22.3452 31.7979 22.6549 31.7979 22.9509C31.7979 23.9101 31.5557 24.8747 31.2657 25.9334C31.1256 26.4448 30.6692 26.8083 30.1622 26.8308C29.8642 26.844 29.4557 26.8569 29.0391 26.8709C28.5648 26.8867 28.0797 26.9034 27.7354 26.9197C27.1839 26.9458 26.975 27.4482 27.001 27.9998C27.0272 28.5514 27.2785 28.9438 27.8301 28.9177C28.1751 28.9014 28.6602 28.8848 29.1339 28.8689C29.5488 28.855 29.9551 28.842 30.251 28.8289C31.6481 28.7669 32.8309 27.7885 33.1944 26.4617C33.4797 25.42 33.7979 24.2135 33.7979 22.9509C33.7979 21.7533 33.7435 20.3227 33.5547 18.8709C33.4835 18.3233 32.9813 17.9373 32.4337 18.0085C31.8863 18.0799 31.5003 18.5812 31.5714 19.1287C31.6103 19.4284 31.6434 19.7287 31.671 20.0261H25.4014V15.6257C25.4014 15.0735 24.9536 14.6258 24.4014 14.6257C23.8491 14.6257 23.4014 15.0734 23.4014 15.6257V20.0261H15.6016V15.6257C15.6016 15.0736 15.1538 14.6259 14.6016 14.6257C14.0493 14.6257 13.6016 15.0734 13.6016 15.6257V20.0261H8.20123V15.2253C8.20135 14.5789 8.52291 13.9843 9.04108 13.49C9.57023 12.9853 10.2039 12.6853 10.5977 12.6062C11.4539 12.4344 13.1924 12.3285 15.087 12.2693C16.9493 12.2111 18.8681 12.2 20.0274 12.2C20.6735 12.2 21.4903 12.2 22.3819 12.2175C22.9339 12.2282 23.3906 11.7891 23.4014 11.2371C23.4121 10.685 22.973 10.2284 22.421 10.2175C21.5083 10.1996 20.6744 10.2 20.0294 10.2H20.0274Z" fill="#0033CC"/>
<path d="M25.2012 12.0437V8.50972C25.2012 8.14019 25.4572 7.82561 25.803 7.69542C27.1171 7.20071 27.9967 6.66911 29.2848 6.06609C29.4842 5.97273 29.7157 5.97885 29.9108 6.08087C31.1667 6.73746 32.0468 7.25692 33.3686 7.70986C33.7293 7.83345 34.0012 8.1549 34.0012 8.53617V12.0437C34.0012 14.3285 31.1121 16.303 29.6455 16.7285C28.1788 16.303 25.2012 14.3285 25.2012 12.0437Z" fill="#00CF6A"/>
</g>
<defs>
<clipPath id="clip0_1_3895">
<rect width="40" height="40" fill="white"/>
</clipPath>
</defs>
</svg>
