<svg width="40" height="40" viewBox="0 0 40 40" fill="none" xmlns="http://www.w3.org/2000/svg">
<g clip-path="url(#clip0_1_3946)">
<path d="M39.2129 11.449C40.2624 17.0781 40.2624 22.8026 39.2129 28.5271C38.2588 33.9654 33.9654 38.2588 28.5271 39.2129C22.898 40.2624 17.1735 40.2624 11.449 39.2129C6.01073 38.2588 1.81276 34.0608 0.858676 28.6225C-0.286225 22.9934 -0.286225 17.1735 0.858676 11.449C1.81276 6.01073 6.01073 1.81276 11.449 0.858676C17.0781 -0.286225 22.898 -0.286225 28.6225 0.858676C34.0608 1.81276 38.2588 6.01073 39.2129 11.449Z" fill="white"/>
<path fill-rule="evenodd" clip-rule="evenodd" d="M38.2293 28.3468C39.2571 22.7405 39.2565 17.1393 38.2298 11.6323L39.2129 11.449C40.2624 17.0781 40.2624 22.8026 39.2129 28.5271L38.2293 28.3468ZM28.5271 39.2129C33.9654 38.2588 38.2588 33.9654 39.2129 28.5271L38.2279 28.3543C37.3466 33.3779 33.3779 37.3466 28.3543 38.2279L28.5271 39.2129ZM11.449 39.2129C17.1735 40.2624 22.898 40.2624 28.5271 39.2129L28.3438 38.2298C22.8369 39.2565 17.2356 39.2571 11.6293 38.2293L11.449 39.2129ZM28.6225 0.858676L28.4497 1.84363C33.4733 2.72496 37.3466 6.59823 38.2279 11.6218L39.2129 11.449C38.2588 6.01073 34.0608 1.81276 28.6225 0.858676ZM11.449 0.858676C17.0781 -0.286225 22.898 -0.286225 28.6225 0.858676L28.4264 1.83926C22.8303 0.720026 17.1448 0.720683 11.6483 1.83861L11.449 0.858676ZM0.858676 11.449C1.81276 6.01073 6.01073 1.81276 11.449 0.858676L11.6218 1.84363C6.59823 2.72496 2.72496 6.59823 1.84363 11.6218L0.858676 11.449ZM0.858676 11.449L1.83926 11.6451C0.720026 17.2413 0.720683 22.9267 1.83861 28.4232L0.858676 28.6225C-0.286225 22.9934 -0.286225 17.1735 0.858676 11.449ZM0.858676 28.6225C1.81276 34.0608 6.01073 38.2588 11.449 39.2129L11.6218 38.2279C6.59823 37.3466 2.72496 33.4733 1.84363 28.4497L0.858676 28.6225Z" fill="#EEF4FE"/>
<path fill-rule="evenodd" clip-rule="evenodd" d="M17.3459 9.96981C15.2866 9.96359 13.2277 10.0666 11.0715 10.2797C10.2821 10.3577 9.64511 11.0129 9.58013 11.8538C9.55037 12.239 9.51989 12.6252 9.48933 13.0126C9.27129 15.7756 9.04883 18.5949 9.04883 21.4847C9.04883 24.3746 9.27129 27.1938 9.48933 29.9569C9.51989 30.3442 9.55037 30.7304 9.58013 31.1156C9.64511 31.9564 10.2822 32.6117 11.0717 32.6897C15.2567 33.1033 19.0834 33.1033 23.2684 32.6897C24.0579 32.6117 24.695 31.9564 24.76 31.1156C24.7897 30.7304 24.8202 30.3442 24.8508 29.9568C25.0688 27.1938 25.2913 24.3745 25.2913 21.4847C25.2913 20.9324 25.739 20.4847 26.2913 20.4847C26.8436 20.4847 27.2913 20.9324 27.2913 21.4847C27.2913 24.4592 27.062 27.362 26.8443 30.1187C26.8137 30.5053 26.7834 30.889 26.754 31.2697C26.6182 33.0272 25.2689 34.5018 23.4651 34.68C19.1493 35.1065 15.1908 35.1065 10.875 34.68C9.07117 34.5018 7.7219 33.0272 7.58608 31.2697C7.55666 30.889 7.52635 30.5053 7.49582 30.1187C7.27809 27.362 7.04883 24.4592 7.04883 21.4847C7.04883 18.5102 7.27809 15.6074 7.49581 12.8508C7.52635 12.4641 7.55666 12.0804 7.58608 11.6997C7.72189 9.9423 9.07092 8.46766 10.8749 8.2894C13.0936 8.07015 15.2203 7.96338 17.3519 7.96982C17.9042 7.97149 18.3506 8.42055 18.3489 8.97283C18.3472 9.52512 17.8982 9.97148 17.3459 9.96981Z" fill="#0033CC"/>
<path fill-rule="evenodd" clip-rule="evenodd" d="M14.2617 29.3335C14.2617 28.7812 14.7094 28.3335 15.2617 28.3335H19.7163C20.2686 28.3335 20.7163 28.7812 20.7163 29.3335C20.7163 29.8858 20.2686 30.3335 19.7163 30.3335H15.2617C14.7094 30.3335 14.2617 29.8858 14.2617 29.3335Z" fill="#0033C9"/>
<path d="M22.6172 12.0616V8.90244C22.6172 8.41404 22.9546 7.99654 23.416 7.8366C24.6709 7.4017 25.5626 6.76741 26.7947 6.20919C27.1039 6.06906 27.4597 6.07868 27.7629 6.23151C28.9632 6.83652 29.8534 7.46127 31.1113 7.85618C31.5921 8.00712 31.9505 8.43214 31.9505 8.93605V12.0616C31.9505 15.6718 28.8863 17.0033 27.3308 17.4546C25.7752 17.0033 22.6172 15.6718 22.6172 12.0616Z" fill="#00CF6A"/>
</g>
<defs>
<clipPath id="clip0_1_3946">
<rect width="40" height="40" fill="white"/>
</clipPath>
</defs>
</svg>
