<svg width="40" height="40" viewBox="0 0 40 40" fill="none" xmlns="http://www.w3.org/2000/svg">
<g clip-path="url(#clip0_1_3965)">
<path d="M39.2129 11.449V11.449C40.2624 17.0781 40.2624 22.8026 39.2129 28.5271V28.5271C38.2588 33.9654 33.9654 38.2588 28.5271 39.2129V39.2129C22.898 40.2624 17.1735 40.2624 11.449 39.2129V39.2129C6.01073 38.2588 1.81276 34.0608 0.858676 28.6225V28.6225C-0.286225 22.9934 -0.286225 17.1735 0.858676 11.449V11.449C1.81276 6.01073 6.01073 1.81276 11.449 0.858676V0.858676C17.0781 -0.286225 22.898 -0.286225 28.6225 0.858676V0.858676C34.0608 1.81276 38.2588 6.01073 39.2129 11.449Z" fill="white"/>
<path fill-rule="evenodd" clip-rule="evenodd" d="M38.2293 28.3468C39.2571 22.7405 39.2565 17.1393 38.2298 11.6323L39.2129 11.449C40.2624 17.0781 40.2624 22.8026 39.2129 28.5271L38.2293 28.3468ZM28.5271 39.2129C33.9654 38.2588 38.2588 33.9654 39.2129 28.5271L38.2279 28.3543C37.3466 33.3779 33.3779 37.3466 28.3543 38.2279L28.5271 39.2129ZM11.449 39.2129C17.1735 40.2624 22.898 40.2624 28.5271 39.2129L28.3438 38.2298C22.8369 39.2565 17.2356 39.2571 11.6293 38.2293L11.449 39.2129ZM28.6225 0.858676L28.4497 1.84363C33.4733 2.72496 37.3466 6.59823 38.2279 11.6218L39.2129 11.449C38.2588 6.01073 34.0608 1.81276 28.6225 0.858676ZM11.449 0.858676C17.0781 -0.286225 22.898 -0.286225 28.6225 0.858676L28.4264 1.83926C22.8303 0.720026 17.1448 0.720683 11.6483 1.83861L11.449 0.858676ZM0.858676 11.449C1.81276 6.01073 6.01073 1.81276 11.449 0.858676L11.6218 1.84363C6.59823 2.72496 2.72496 6.59823 1.84363 11.6218L0.858676 11.449ZM0.858676 11.449L1.83926 11.6451C0.720026 17.2413 0.720683 22.9267 1.83861 28.4232L0.858676 28.6225C-0.286225 22.9934 -0.286225 17.1735 0.858676 11.449ZM0.858676 28.6225C1.81276 34.0608 6.01073 38.2588 11.449 39.2129L11.6218 38.2279C6.59823 37.3466 2.72496 33.4733 1.84363 28.4497L0.858676 28.6225Z" fill="#EEF4FE"/>
<path fill-rule="evenodd" clip-rule="evenodd" d="M9 19.656C9 15.759 12.1591 12.6 16.056 12.6H16.744C20.6409 12.6 23.8 15.7591 23.8 19.656V26.7428C23.8 28.4312 22.4313 29.8 20.7429 29.8H12.0571C10.3687 29.8 9 28.4312 9 26.7428V19.656ZM16.056 14.6C13.2636 14.6 11 16.8636 11 19.656V26.7428C11 27.3267 11.4733 27.8 12.0571 27.8H20.7429C21.3267 27.8 21.8 27.3267 21.8 26.7428V19.656C21.8 16.8636 19.5363 14.6 16.744 14.6H16.056Z" fill="#0033C9"/>
<path d="M14.0925 30.7826C14.1547 31.7551 14.8789 32.6162 15.8448 32.7452C16.0935 32.7785 16.3454 32.8 16.6 32.8C16.8546 32.8 17.1065 32.7785 17.3552 32.7452C18.3211 32.6162 19.0453 31.7551 19.1075 30.7826C19.1571 30.0082 19.2 29.2121 19.2 28.4C19.2 27.5879 19.1571 26.7918 19.1075 26.0174C19.0453 25.0449 18.3211 24.1838 17.3552 24.0548C17.1065 24.0215 16.8546 24 16.6 24C16.3454 24 16.0935 24.0215 15.8448 24.0548C14.8789 24.1838 14.1547 25.0449 14.0925 26.0174C14.0429 26.7918 14 27.5879 14 28.4C14 29.2121 14.0429 30.0082 14.0925 30.7826Z" fill="white"/>
<path fill-rule="evenodd" clip-rule="evenodd" d="M16.6 25C16.4012 25 16.1951 25.0168 15.9772 25.046C15.536 25.1049 15.1257 25.5304 15.0905 26.0813C15.0412 26.8509 15 27.621 15 28.4C15 29.179 15.0412 29.9491 15.0905 30.7187C15.1257 31.2696 15.536 31.6951 15.9772 31.754C16.1951 31.7832 16.4012 31.8 16.6 31.8C16.7988 31.8 17.0049 31.7832 17.2228 31.754C17.664 31.6951 18.0743 31.2696 18.1095 30.7187C18.1588 29.9491 18.2 29.179 18.2 28.4C18.2 27.621 18.1588 26.8509 18.1095 26.0813C18.0743 25.5304 17.664 25.1049 17.2228 25.046C17.0049 25.0168 16.7988 25 16.6 25ZM15.7124 23.0636C15.992 23.0262 16.2897 23 16.6 23C16.9103 23 17.208 23.0262 17.4876 23.0636C18.9782 23.2627 20.0162 24.5594 20.1055 25.9535C20.1553 26.7327 20.2 27.5547 20.2 28.4C20.2 29.2453 20.1553 30.0673 20.1055 30.8465C20.0162 32.2406 18.9782 33.5373 17.4876 33.7364C17.208 33.7738 16.9103 33.8 16.6 33.8C16.2897 33.8 15.992 33.7738 15.7124 33.7364C14.2218 33.5373 13.1838 32.2406 13.0945 30.8465C13.0447 30.0673 13 29.2453 13 28.4C13 27.5547 13.0447 26.7327 13.0945 25.9535C13.1838 24.5594 14.2218 23.2627 15.7124 23.0636Z" fill="#0033C9"/>
<path fill-rule="evenodd" clip-rule="evenodd" d="M16.3992 8.19995C15.1842 8.19995 14.1992 9.18492 14.1992 10.4C14.1992 11.615 15.1842 12.6 16.3992 12.6C17.6142 12.6 18.5992 11.615 18.5992 10.4C18.5992 9.18492 17.6142 8.19995 16.3992 8.19995ZM12.1992 10.4C12.1992 8.08035 14.0796 6.19995 16.3992 6.19995C18.7188 6.19995 20.5992 8.08035 20.5992 10.4C20.5992 12.7195 18.7188 14.6 16.3992 14.6C14.0796 14.6 12.1992 12.7195 12.1992 10.4Z" fill="#0033C9"/>
<path fill-rule="evenodd" clip-rule="evenodd" d="M7 10C7 9.44772 7.44772 9 8 9H12.6V11H8C7.44772 11 7 10.5523 7 10ZM21.8 11H20.4V9H21.8C22.3523 9 22.8 9.44772 22.8 10C22.8 10.5523 22.3523 11 21.8 11Z" fill="#0033C9"/>
<path fill-rule="evenodd" clip-rule="evenodd" d="M16.4004 16.6C16.9527 16.6 17.4004 17.0477 17.4004 17.6V20C17.4004 20.5523 16.9527 21 16.4004 21C15.8481 21 15.4004 20.5523 15.4004 20V17.6C15.4004 17.0477 15.8481 16.6 16.4004 16.6Z" fill="#0033C9"/>
<path d="M25.1992 12.1153V8.58125C25.1992 8.21172 25.4552 7.89714 25.801 7.76695C27.1151 7.27225 27.9947 6.74064 29.2828 6.13762C29.4822 6.04426 29.7136 6.05038 29.9088 6.1524C31.1647 6.80899 32.0448 7.32846 33.3666 7.78139C33.7273 7.90498 33.9992 8.22644 33.9992 8.60771V12.1153C33.9992 14.4 31.1101 16.3745 29.6435 16.8C28.1768 16.3745 25.1992 14.4 25.1992 12.1153Z" fill="#00CF6A"/>
</g>
<defs>
<clipPath id="clip0_1_3965">
<rect width="40" height="40" fill="white"/>
</clipPath>
</defs>
</svg>
