<svg width="40" height="40" viewBox="0 0 40 40" fill="none" xmlns="http://www.w3.org/2000/svg">
<g clip-path="url(#clip0_1_3700)">
<path d="M39.2129 11.449V11.449C40.2624 17.0781 40.2624 22.8026 39.2129 28.5271V28.5271C38.2588 33.9654 33.9654 38.2588 28.5271 39.2129V39.2129C22.898 40.2624 17.1735 40.2624 11.449 39.2129V39.2129C6.01073 38.2588 1.81276 34.0608 0.858676 28.6225V28.6225C-0.286225 22.9934 -0.286225 17.1735 0.858676 11.449V11.449C1.81276 6.01073 6.01073 1.81276 11.449 0.858676V0.858676C17.0781 -0.286225 22.898 -0.286225 28.6225 0.858676V0.858676C34.0608 1.81276 38.2588 6.01073 39.2129 11.449Z" fill="white"/>
<path fill-rule="evenodd" clip-rule="evenodd" d="M38.2293 28.3468C39.2571 22.7405 39.2565 17.1393 38.2298 11.6323L39.2129 11.449C40.2624 17.0781 40.2624 22.8026 39.2129 28.5271L38.2293 28.3468ZM28.5271 39.2129C33.9654 38.2588 38.2588 33.9654 39.2129 28.5271L38.2279 28.3543C37.3466 33.3779 33.3779 37.3466 28.3543 38.2279L28.5271 39.2129ZM11.449 39.2129C17.1735 40.2624 22.898 40.2624 28.5271 39.2129L28.3438 38.2298C22.8369 39.2565 17.2356 39.2571 11.6293 38.2293L11.449 39.2129ZM28.6225 0.858676L28.4497 1.84363C33.4733 2.72496 37.3466 6.59823 38.2279 11.6218L39.2129 11.449C38.2588 6.01073 34.0608 1.81276 28.6225 0.858676ZM11.449 0.858676C17.0781 -0.286225 22.898 -0.286225 28.6225 0.858676L28.4264 1.83926C22.8303 0.720026 17.1448 0.720683 11.6483 1.83861L11.449 0.858676ZM0.858676 11.449C1.81276 6.01073 6.01073 1.81276 11.449 0.858676L11.6218 1.84363C6.59823 2.72496 2.72496 6.59823 1.84363 11.6218L0.858676 11.449ZM0.858676 11.449L1.83926 11.6451C0.720026 17.2413 0.720683 22.9267 1.83861 28.4232L0.858676 28.6225C-0.286225 22.9934 -0.286225 17.1735 0.858676 11.449ZM0.858676 28.6225C1.81276 34.0608 6.01073 38.2588 11.449 39.2129L11.6218 38.2279C6.59823 37.3466 2.72496 33.4733 1.84363 28.4497L0.858676 28.6225Z" fill="#EEF4FE"/>
<path d="M12.2601 8.71042C14.6128 8.25054 17.0931 8 19.6371 8C22.1716 8 24.6075 8.26574 26.9882 8.71751C27.3803 8.79192 27.6848 9.11878 27.7297 9.53384C28.086 12.826 28.2977 16.5183 28.2977 20.093C28.2977 23.6583 28.0634 27.1026 27.7217 30.4274C27.678 30.853 27.365 31.1892 26.9623 31.2636C25.7264 31.4919 24.4727 31.6785 23.199 31.8048C22.6494 31.8593 22.248 32.3491 22.3025 32.8987C22.357 33.4482 22.8468 33.8496 23.3964 33.7951C24.7341 33.6624 26.0438 33.4671 27.3257 33.2303C28.6196 32.9913 29.5786 31.9224 29.7112 30.6318C30.0577 27.2606 30.2977 23.7452 30.2977 20.093C30.2977 16.4403 30.0814 12.676 29.7181 9.31869C29.5805 8.0467 28.6361 6.99454 27.3611 6.75258C24.8748 6.28076 22.3132 6 19.6371 6C16.9626 6 14.3538 6.26332 11.8765 6.74757C10.6191 6.99334 9.68458 8.03678 9.57375 9.31065C9.32788 12.1364 9.09766 17.1874 9.09766 20.093C9.09766 20.6453 9.54537 21.093 10.0977 21.093C10.6499 21.093 11.0977 20.6453 11.0977 20.093C11.0977 17.2513 11.3248 12.2585 11.5662 9.48401C11.6 9.09618 11.8805 8.78463 12.2601 8.71042Z" fill="#0033C9"/>
<path d="M9.09766 23.9999C9.09766 23.4477 9.54537 22.9999 10.0977 22.9999C12.6568 22.9999 15.1112 24.0166 16.9208 25.8262C18.7304 27.6358 19.7471 30.0902 19.7471 32.6494C19.7471 33.2016 19.2994 33.6494 18.7471 33.6494C18.1948 33.6494 17.7471 33.2016 17.7471 32.6494C17.7471 30.6206 16.9412 28.6749 15.5066 27.2404C14.0721 25.8059 12.1264 24.9999 10.0977 24.9999C9.54537 24.9999 9.09766 24.5522 9.09766 23.9999Z" fill="#0033C9"/>
<path d="M9.09766 29.6494C9.09766 29.0971 9.54537 28.6494 10.0977 28.6494C11.1585 28.6494 12.1759 29.0708 12.9261 29.821C13.6762 30.5711 14.0977 31.5885 14.0977 32.6494C14.0977 33.2017 13.6499 33.6494 13.0977 33.6494C12.5454 33.6494 12.0977 33.2017 12.0977 32.6494C12.0977 32.119 11.8869 31.6103 11.5119 31.2352C11.1368 30.8601 10.6281 30.6494 10.0977 30.6494C9.54537 30.6494 9.09766 30.2017 9.09766 29.6494Z" fill="#0033C9"/>
<path fill-rule="evenodd" clip-rule="evenodd" d="M13.5623 20.2574H16.1164L16.1268 20.6141C16.1389 21.028 16.4779 21.3572 16.8919 21.3572H17.6372C18.0599 21.3572 18.4026 21.0145 18.4026 20.5918V20.2574H18.7369C19.1597 20.2574 19.5024 19.9147 19.5024 19.492V19.1009C19.5024 18.6782 19.1597 18.3355 18.7369 18.3355H18.3828L18.4005 14.5879C18.4025 14.1638 18.0593 13.8188 17.6351 13.8188H15.8793C15.6039 13.8188 15.3497 13.9668 15.2137 14.2063L12.8967 18.2858C12.8313 18.401 12.7969 18.5313 12.7969 18.6638V19.492C12.7969 19.9147 13.1396 20.2574 13.5623 20.2574ZM15.3136 18.3355L16.2244 16.6971V18.3355H15.3136Z" fill="#00CF6A"/>
<path d="M25.433 13.9576C25.192 13.9143 24.9493 13.8826 24.705 13.8627C24.3543 13.8335 24.0035 13.8188 23.6527 13.8188C23.0588 13.8188 22.5223 13.87 22.0458 13.9757C21.5551 14.0773 21.1257 14.2673 20.7671 14.5524C20.4034 14.8401 20.137 15.241 19.957 15.7341L19.9554 15.7385C19.7823 16.2343 19.702 16.8477 19.702 17.5667C19.702 18.4488 19.8034 19.1843 20.023 19.7567L20.0235 19.7581C20.2524 20.3466 20.6515 20.7848 21.2125 21.0571L21.2161 21.0588C21.7628 21.3161 22.4874 21.432 23.3644 21.432C24.0162 21.432 24.5656 21.3923 25.0064 21.3087L25.0107 21.3079C25.3395 21.241 25.6448 21.1547 25.9257 21.048C26.2246 20.9345 26.3969 20.647 26.3969 20.3519V17.4369C26.3969 17.013 26.0524 16.6698 25.6285 16.6714L23.7105 16.6788C23.2889 16.6804 22.948 17.0226 22.948 17.4442V17.9803C22.948 18.3888 23.2742 18.7397 23.7016 18.7353C23.7793 18.7345 23.8589 18.7329 23.9404 18.7304L23.9454 18.7302L23.9504 18.7299C24.0518 18.7238 24.1503 18.7163 24.246 18.7075C24.242 18.8044 24.24 18.9046 24.24 19.0082V19.3196L23.8683 19.3392H23.578C23.0997 19.3392 22.7653 19.2873 22.5514 19.2041C22.3871 19.1316 22.2683 19.0051 22.1957 18.7904C22.1181 18.5307 22.0725 18.1291 22.0725 17.5667C22.0725 17.0038 22.1606 16.6506 22.2871 16.4533C22.4202 16.2457 22.6001 16.1142 22.8411 16.05L22.8435 16.0493L22.8458 16.0487C23.1372 15.9663 23.4866 15.9223 23.8983 15.9223C24.1868 15.9223 24.4715 15.9361 24.7524 15.9635L24.7532 15.9636C24.8226 15.9702 24.9891 15.9925 25.1687 16.0178C25.6289 16.0825 26.0445 15.7267 26.0445 15.2583V14.6989C26.0445 14.3458 25.7994 14.0235 25.433 13.9576Z" fill="#00CF6A"/>
</g>
<defs>
<clipPath id="clip0_1_3700">
<rect width="40" height="40" fill="white"/>
</clipPath>
</defs>
</svg>
