<svg width="41" height="40" viewBox="0 0 41 40" fill="none" xmlns="http://www.w3.org/2000/svg">
<path d="M39.2129 11.449V11.449C40.2624 17.0781 40.2624 22.8026 39.2129 28.5271V28.5271C38.2588 33.9654 33.9654 38.2588 28.5271 39.2129V39.2129C22.898 40.2624 17.1735 40.2624 11.449 39.2129V39.2129C6.01073 38.2588 1.81276 34.0608 0.858676 28.6225V28.6225C-0.286225 22.9934 -0.286225 17.1735 0.858676 11.449V11.449C1.81276 6.01073 6.01073 1.81276 11.449 0.858676V0.858676C17.0781 -0.286225 22.898 -0.286225 28.6225 0.858676V0.858676C34.0608 1.81276 38.2588 6.01073 39.2129 11.449Z" fill="white"/>
<path fill-rule="evenodd" clip-rule="evenodd" d="M38.0326 28.3107C39.056 22.7281 39.0554 17.1515 38.0332 11.669L39.2128 11.449L38.0309 11.6564C37.1642 6.71573 33.3558 2.90741 28.4152 2.04062L28.6225 0.858676C34.0608 1.81276 38.2588 6.01073 39.2129 11.449C40.2624 17.0781 40.2624 22.8026 39.2129 28.5271L38.0326 28.3107ZM28.5271 39.2129C33.9654 38.2588 38.2588 33.9654 39.2129 28.5271L38.0309 28.3198C37.1642 33.2604 33.2604 37.1642 28.3198 38.0309L28.5271 39.2129ZM11.449 39.2129C17.1735 40.2624 22.898 40.2624 28.5271 39.2129L28.3072 38.0332C22.8247 39.0554 17.2481 39.056 11.6654 38.0326L11.449 39.2128L11.6564 38.0309C6.71573 37.1642 2.90741 33.3558 2.04062 28.4152L0.858676 28.6225L2.0346 28.3834C0.922065 22.9134 0.921277 17.2548 2.03537 11.6844L0.858676 11.449L2.04062 11.6564C2.90741 6.71573 6.71573 2.90741 11.6564 2.04062L11.449 0.858676L11.6882 2.0346C17.1582 0.922065 22.8167 0.921277 28.3872 2.03537L28.6225 0.858676C22.898 -0.286225 17.0781 -0.286225 11.449 0.858676C6.01073 1.81276 1.81276 6.01073 0.858676 11.449C-0.286225 17.1735 -0.286225 22.9934 0.858676 28.6225C1.81276 34.0608 6.01073 38.2588 11.449 39.2129Z" fill="#F0F5FE"/>
<path d="M12.4174 7.13329C14.4931 6.06332 16.8482 5.45923 19.3443 5.45923C27.0363 5.45923 33.3884 11.1957 34.3561 18.6239C34.5904 20.3881 34.5064 22.1387 34.1426 23.8092C33.662 26.0347 32.6922 28.078 31.3513 29.8212C30.0181 31.5595 28.302 33.019 26.2855 34.0566C24.7614 34.8442 23.0864 35.3806 21.3153 35.6109C13.8922 36.595 6.71101 31.9445 4.72079 24.5169C4.07281 22.0986 4.04857 19.6602 4.54946 17.3723C5.02959 15.1603 5.99319 13.1285 7.32408 11.3933C8.66232 9.64321 10.3881 8.1747 12.4174 7.13329Z" fill="#0068FF"/>
<path d="M18.4648 35.7166C15.8202 35.5633 13.2919 34.7147 11.1172 33.308L25.3122 19.5527L32.8669 21.4407L18.4648 35.7166Z" fill="#F0FF44"/>
<path d="M11.6725 33.6502C9.22822 32.2134 7.18402 30.0938 5.85156 27.4711L17.0119 17.6206L22.6848 22.8422L11.6725 33.6502Z" fill="#F63333"/>
<path d="M6.33506 28.3496C5.63906 27.1801 5.09041 25.8964 4.72079 24.517C4.30971 22.9828 4.14967 21.4406 4.21548 19.9338L18.5025 7.0752L23.3709 12.9597L6.33506 28.3496Z" fill="#323131"/>
<circle cx="25.6449" cy="14.2977" r="10.1976" fill="white"/>
<path d="M17.194 9.44496L22.7917 10.4915C22.821 10.4969 22.8422 10.522 22.8422 10.5518C22.8453 13.3805 23.103 17.1183 23.5674 18.8862C23.5844 18.9509 23.498 18.9964 23.454 18.9461C20.1969 15.2262 17.7736 11.914 17.1233 9.51979C17.1114 9.47622 17.1496 9.43666 17.194 9.44496Z" fill="#334C65"/>
<path d="M32.8228 20.9551C33.5883 19.1866 34.6066 15.1998 33.2801 11.6507C33.256 11.5862 33.3364 11.5355 33.3807 11.5883C34.1186 12.4676 35.2855 14.2436 35.4141 16.0004C35.3852 17.1366 34.8401 19.685 32.9123 21.0297C32.8617 21.065 32.7983 21.0116 32.8228 20.9551Z" fill="#334C65"/>
<path d="M26.6643 22.4868C27.5415 21.9625 28.9901 19.2987 29.5045 15.9743C29.5137 15.915 29.4422 15.8781 29.4002 15.921C27.1774 18.1898 23.3055 21.153 18.9054 19.7672C18.8414 19.7471 18.7917 19.827 18.8423 19.8711C20.1913 21.0441 23.0566 22.8695 26.6402 22.4946C26.6489 22.4937 26.6569 22.4913 26.6643 22.4868Z" fill="#334C65"/>
<path d="M34.6603 9.53695C34.6715 9.558 34.6699 9.583 34.6556 9.60208C33.815 10.7205 32.1365 12.802 29.9732 15.1051C29.8003 15.2892 29.4838 15.1146 29.5388 14.868C29.9129 13.1907 30.299 10.5083 29.9344 8.35461C29.9105 8.21389 30.0079 8.07987 30.1502 8.06889C31.096 7.99588 32.7342 7.95323 33.9107 8.35416C33.9229 8.35832 33.9332 8.3661 33.9407 8.37664C34.1605 8.68869 34.4622 9.16634 34.6603 9.53695Z" fill="#66798B"/>
<path d="M19.7995 22.6538C18.3429 21.4095 16.2362 16.7681 18.7377 13.7295C18.7714 13.6886 18.7434 13.6258 18.6905 13.6282C17.3132 13.6904 16.0011 14.6832 15.521 15.4339C15.5136 15.4456 15.5106 15.4591 15.5121 15.4729C15.7948 18.048 17.135 20.7713 19.7995 22.6538Z" fill="#66798B"/>
<path d="M27.017 6.63266C27.0563 7.34477 26.1304 7.97487 24.949 8.04003C23.7675 8.1052 22.7779 7.58075 22.7386 6.86865C22.6994 6.15655 23.6253 5.52645 24.8067 5.46128C25.9881 5.39612 26.9777 5.92056 27.017 6.63266Z" fill="#66798B"/>
<path d="M29.8292 8.13654C30.2573 10.4594 29.8509 13.2252 29.4647 14.918C29.4261 15.0871 29.6532 15.1896 29.7473 15.0439C31.4805 12.3609 32.4185 9.50577 32.537 8.19064C32.5399 8.15874 32.5177 8.13167 32.486 8.12688C31.7022 8.0084 30.3585 8.00496 29.8794 8.06569C29.8451 8.07005 29.823 8.10247 29.8292 8.13654Z" fill="#00CF6A"/>
<path d="M29.4174 16.4639C29.0005 19.8208 27.686 21.7108 26.7732 22.4679C26.7656 22.4743 26.7573 22.4783 26.7476 22.4803C25.8888 22.6555 23.8693 22.483 23.0276 22.1709C22.9788 22.1528 22.9778 22.0874 23.0243 22.064C26.1879 20.471 29.097 18.0232 29.4174 16.4639Z" fill="#00CF6A"/>
<path d="M22.8452 14.0954C21.6582 13.3869 19.203 11.6348 17.1582 9.57389C17.1171 9.53249 17.1504 9.46336 17.2082 9.47129C18.4043 9.63528 20.6764 10.1271 22.8038 10.5052C22.8333 10.5104 22.8547 10.5357 22.8547 10.5657C22.8547 11.3885 22.8564 12.7016 22.9374 14.0383C22.9403 14.0877 22.8877 14.1208 22.8452 14.0954Z" fill="#FFDA44"/>
<path d="M25.2166 22.1034C30.8486 22.1034 35.4142 17.5378 35.4142 11.9058C35.4142 11.7045 35.4084 11.5046 35.3968 11.3062C35.6867 12.2522 35.8427 13.2567 35.8427 14.2977C35.8427 19.9297 31.2771 24.4953 25.6451 24.4953C20.2144 24.4953 15.7753 20.2503 15.4648 14.8974C16.7432 19.0696 20.6256 22.1034 25.2166 22.1034Z" fill="#55719A" fill-opacity="0.6"/>
<path opacity="0.6" d="M34.6015 19.1772C35.3928 17.7278 35.8425 16.0653 35.8425 14.2977C35.8425 8.66572 31.2769 4.1001 25.6449 4.1001C21.431 4.1001 17.814 6.65606 16.2598 10.3022C17.9897 7.13362 21.352 4.98411 25.2164 4.98411C30.8484 4.98411 35.414 9.54973 35.414 15.1817C35.414 16.5997 35.1245 17.9502 34.6015 19.1772Z" fill="#B0DDFF"/>
</svg>
