<svg width="40" height="40" viewBox="0 0 40 40" fill="none" xmlns="http://www.w3.org/2000/svg">
<g clip-path="url(#clip0_1_6196)">
<path d="M39.2129 11.449V11.449C40.2624 17.0781 40.2624 22.8026 39.2129 28.5271V28.5271C38.2588 33.9654 33.9654 38.2588 28.5271 39.2129V39.2129C22.898 40.2624 17.1735 40.2624 11.449 39.2129V39.2129C6.01073 38.2588 1.81276 34.0608 0.858676 28.6225V28.6225C-0.286225 22.9934 -0.286225 17.1735 0.858676 11.449V11.449C1.81276 6.01073 6.01073 1.81276 11.449 0.858676V0.858676C17.0781 -0.286225 22.898 -0.286225 28.6225 0.858676V0.858676C34.0608 1.81276 38.2588 6.01073 39.2129 11.449Z" fill="white"/>
<path fill-rule="evenodd" clip-rule="evenodd" d="M38.2293 28.3468C39.2571 22.7405 39.2565 17.1393 38.2298 11.6323L39.2129 11.449C40.2624 17.0781 40.2624 22.8026 39.2129 28.5271L38.2293 28.3468ZM28.5271 39.2129C33.9654 38.2588 38.2588 33.9654 39.2129 28.5271L38.2279 28.3543C37.3466 33.3779 33.3779 37.3466 28.3543 38.2279L28.5271 39.2129ZM11.449 39.2129C17.1735 40.2624 22.898 40.2624 28.5271 39.2129L28.3438 38.2298C22.8369 39.2565 17.2356 39.2571 11.6293 38.2293L11.449 39.2129ZM28.6225 0.858676L28.4497 1.84363C33.4733 2.72496 37.3466 6.59823 38.2279 11.6218L39.2129 11.449C38.2588 6.01073 34.0608 1.81276 28.6225 0.858676ZM11.449 0.858676C17.0781 -0.286225 22.898 -0.286225 28.6225 0.858676L28.4264 1.83926C22.8303 0.720026 17.1448 0.720683 11.6483 1.83861L11.449 0.858676ZM0.858676 11.449C1.81276 6.01073 6.01073 1.81276 11.449 0.858676L11.6218 1.84363C6.59823 2.72496 2.72496 6.59823 1.84363 11.6218L0.858676 11.449ZM0.858676 11.449L1.83926 11.6451C0.720026 17.2413 0.720683 22.9267 1.83861 28.4232L0.858676 28.6225C-0.286225 22.9934 -0.286225 17.1735 0.858676 11.449ZM0.858676 28.6225C1.81276 34.0608 6.01073 38.2588 11.449 39.2129L11.6218 38.2279C6.59823 37.3466 2.72496 33.4733 1.84363 28.4497L0.858676 28.6225Z" fill="#EEF4FE"/>
<path d="M32.2779 29.0417C32.2779 29.8467 31.6246 30.5 30.8196 30.5H25.5V13H30.8196C31.6246 13 32.2779 13.6533 32.2779 14.4583V18.3809C31.6858 18.7218 31.194 19.2127 30.8521 19.8042C30.5101 20.3957 30.3301 21.0668 30.3301 21.75C30.3301 22.4332 30.5101 23.1043 30.8521 23.6958C31.194 24.2873 31.6858 24.7782 32.2779 25.1191V29.0417Z" fill="#00CF6A"/>
<path d="M18 25.0001C18.5523 25.0001 19 25.4478 19 26.0001C19 26.5523 18.5523 27.0001 18 27.0001H14C13.4477 27.0001 13 26.5523 13 26.0001C13 25.4478 13.4477 25.0001 14 25.0001H18Z" fill="#0033C9"/>
<path d="M26 23.0001C26.5523 23.0001 27 23.4478 27 24.0001V25.0001C27 25.5523 26.5523 26.0001 26 26.0001C25.4477 26.0001 25 25.5523 25 25.0001V24.0001C25 23.4478 25.4477 23.0001 26 23.0001Z" fill="#0033C9"/>
<path d="M21 22.0001C21.5523 22.0001 22 22.4478 22 23.0001C22 23.5523 21.5523 24.0001 21 24.0001H14C13.4477 24.0001 13 23.5523 13 23.0001C13 22.4478 13.4477 22.0001 14 22.0001H21Z" fill="#0033C9"/>
<path d="M26 18.0001C26.5523 18.0001 27 18.4478 27 19.0001V20.0001C27 20.5523 26.5523 21.0001 26 21.0001C25.4477 21.0001 25 20.5523 25 20.0001V19.0001C25 18.4478 25.4477 18.0001 26 18.0001Z" fill="#0033C9"/>
<path fill-rule="evenodd" clip-rule="evenodd" d="M27.2676 7.67292C28.633 7.3651 29.6512 8.51098 29.9141 9.59772L30.5596 12.0001H31.5C32.8803 12.0001 34 13.1198 34 14.5001V18.5342C34 18.8919 33.809 19.223 33.499 19.4014C33.0424 19.6643 32.6632 20.0429 32.3994 20.4991C32.1357 20.9553 31.9961 21.4731 31.9961 22.0001C31.9961 22.527 32.1357 23.0448 32.3994 23.501C32.6632 23.9572 33.0424 24.3358 33.499 24.5987C33.809 24.7772 34 25.1082 34 25.4659V29.5001C34 30.8803 32.8803 32.0001 31.5 32.0001H8.5C7.11973 32.0001 6.00003 30.8803 6 29.5001V25.4659C6 25.1082 6.19101 24.7772 6.50098 24.5987C6.9576 24.3358 7.33683 23.9572 7.60059 23.501C7.86434 23.0448 8.0039 22.527 8.00391 22.0001C8.00391 21.4731 7.86433 20.9553 7.60059 20.4991C7.33683 20.0429 6.9576 19.6643 6.50098 19.4014C6.19101 19.223 6.00002 18.8919 6 18.5342V14.5001C6 13.1198 7.11972 12.0001 8.5 12.0001H9.87598L27.2471 7.6778L27.2676 7.67292ZM8.5 14.0001C8.22428 14.0001 8 14.2243 8 14.5001V18.0001C8.53879 18.4035 8.99305 18.9118 9.33203 19.4981C9.7717 20.2586 10.0039 21.1216 10.0039 22.0001C10.0039 22.8785 9.77171 23.7415 9.33203 24.502C8.99314 25.0881 8.53858 25.5957 8 25.9991V29.5001C8.00003 29.7758 8.2243 30.0001 8.5 30.0001H25V29.0001C25 28.4478 25.4477 28.0001 26 28.0001C26.5523 28.0001 27 28.4478 27 29.0001V30.0001H31.5C31.7757 30.0001 32 29.7758 32 29.5001V25.9991C31.4614 25.5957 31.0069 25.0881 30.668 24.502C30.2283 23.7415 29.9961 22.8785 29.9961 22.0001C29.9961 21.1216 30.2283 20.2586 30.668 19.4981C31.007 18.9118 31.4612 18.4035 32 18.0001V14.5001C32 14.2244 31.7757 14.0001 31.5 14.0001H27V15.0001C27 15.5523 26.5523 16.0001 26 16.0001C25.4477 16.0001 25 15.5523 25 15.0001V14.0001H8.5ZM18.1611 12.0001H28.4883L27.9834 10.1153C27.9799 10.1024 27.9766 10.0893 27.9736 10.0762C27.9272 9.87035 27.8272 9.73334 27.7471 9.66706C27.7176 9.64271 27.6965 9.63428 27.6855 9.62995L18.1611 12.0001Z" fill="#0033C9"/>
</g>
<defs>
<clipPath id="clip0_1_6196">
<rect width="40" height="40" fill="white"/>
</clipPath>
</defs>
</svg>
