<svg width="40" height="40" viewBox="0 0 40 40" fill="none" xmlns="http://www.w3.org/2000/svg">
<g clip-path="url(#clip0_1_4974)">
<path d="M39.2129 11.449V11.449C40.2624 17.0781 40.2624 22.8026 39.2129 28.5271V28.5271C38.2588 33.9654 33.9654 38.2588 28.5271 39.2129V39.2129C22.898 40.2624 17.1735 40.2624 11.449 39.2129V39.2129C6.01073 38.2588 1.81276 34.0608 0.858676 28.6225V28.6225C-0.286225 22.9934 -0.286225 17.1735 0.858676 11.449V11.449C1.81276 6.01073 6.01073 1.81276 11.449 0.858676V0.858676C17.0781 -0.286225 22.898 -0.286225 28.6225 0.858676V0.858676C34.0608 1.81276 38.2588 6.01073 39.2129 11.449Z" fill="white"/>
<path fill-rule="evenodd" clip-rule="evenodd" d="M38.2293 28.3468C39.2571 22.7405 39.2565 17.1393 38.2298 11.6323L39.2129 11.449C40.2624 17.0781 40.2624 22.8026 39.2129 28.5271L38.2293 28.3468ZM28.5271 39.2129C33.9654 38.2588 38.2588 33.9654 39.2129 28.5271L38.2279 28.3543C37.3466 33.3779 33.3779 37.3466 28.3543 38.2279L28.5271 39.2129ZM11.449 39.2129C17.1735 40.2624 22.898 40.2624 28.5271 39.2129L28.3438 38.2298C22.8369 39.2565 17.2356 39.2571 11.6293 38.2293L11.449 39.2129ZM28.6225 0.858676L28.4497 1.84363C33.4733 2.72496 37.3466 6.59823 38.2279 11.6218L39.2129 11.449C38.2588 6.01073 34.0608 1.81276 28.6225 0.858676ZM11.449 0.858676C17.0781 -0.286225 22.898 -0.286225 28.6225 0.858676L28.4264 1.83926C22.8303 0.720026 17.1448 0.720683 11.6483 1.83861L11.449 0.858676ZM0.858676 11.449C1.81276 6.01073 6.01073 1.81276 11.449 0.858676L11.6218 1.84363C6.59823 2.72496 2.72496 6.59823 1.84363 11.6218L0.858676 11.449ZM0.858676 11.449L1.83926 11.6451C0.720026 17.2413 0.720683 22.9267 1.83861 28.4232L0.858676 28.6225C-0.286225 22.9934 -0.286225 17.1735 0.858676 11.449ZM0.858676 28.6225C1.81276 34.0608 6.01073 38.2588 11.449 39.2129L11.6218 38.2279C6.59823 37.3466 2.72496 33.4733 1.84363 28.4497L0.858676 28.6225Z" fill="#EEF4FE"/>
<path fill-rule="evenodd" clip-rule="evenodd" d="M23.7362 6.00781C26.5073 6.00781 28.4582 8.26892 28.1229 11C28.0555 11.5479 27.5539 11.993 27.0018 11.9932C26.4499 11.9929 26.0558 11.5479 26.1229 11C26.3259 9.34604 25.1399 7.99243 23.4931 7.99219H14.0712C12.4145 7.99219 10.9071 9.32542 10.705 10.9697L8.4872 29.0303C8.28559 30.6745 9.46534 32.0078 11.122 32.0078H17.8788C17.9182 32.0031 17.9582 32 17.9989 32H20.7499C22.3237 31.8954 23.7153 30.6061 23.9091 29.0303L24.7724 22C24.8398 21.4522 25.3425 21.0072 25.8944 21.0068C26.4466 21.0068 26.8395 21.452 26.7724 22L26.5194 24.0547C26.564 24.0701 26.6081 24.0882 26.6513 24.1104L29.2548 25.4492C30.2318 25.9516 30.8568 26.9485 30.8827 28.0469L30.9501 30.9297C30.9896 32.6136 29.6355 34 27.9511 34H17.9989C17.9582 34 17.9182 33.9969 17.8788 33.9922H10.8788C8.11755 33.9922 6.15097 31.7709 6.4872 29.0303L8.70497 10.9697C9.04171 8.22913 11.5531 6.00788 14.3143 6.00781H23.7362ZM25.9091 29.0303C25.7722 30.144 25.2766 31.172 24.5507 32H27.9511C28.5125 32 28.9642 31.5379 28.9511 30.9766L28.8827 28.0938C28.874 27.7278 28.6661 27.396 28.3407 27.2285L26.2606 26.1592L25.9091 29.0303Z" fill="#0033C9"/>
<path d="M13.3866 18.2383C13.9385 18.2385 14.3235 18.6819 14.247 19.2285L14.0106 20.9121H15.7108C16.2628 20.9123 16.6478 21.3557 16.5712 21.9023C16.4943 22.4491 15.9846 22.8923 15.4325 22.8926H13.6327C12.5834 22.8926 11.8509 22.0499 11.997 21.0107L12.247 19.2285C12.324 18.6818 12.8345 18.2383 13.3866 18.2383Z" fill="#0033C9"/>
<path d="M22.3866 18.2383C22.9385 18.2385 23.3235 18.6819 23.247 19.2285L22.997 21.0107C22.8509 22.0498 21.8812 22.8924 20.8319 22.8926H19.0321C18.4799 22.8925 18.0939 22.4492 18.1708 21.9023C18.2478 21.3556 18.7583 20.9122 19.3104 20.9121H21.0106L21.247 19.2285C21.324 18.6818 21.8345 18.2383 22.3866 18.2383Z" fill="#0033C9"/>
<path d="M16.9628 12C17.5149 12.0001 17.9009 12.4434 17.8241 12.9902C17.7473 13.5371 17.2367 13.9804 16.6845 13.9805H14.9843L14.7479 15.6641C14.671 16.2107 14.1613 16.654 13.6093 16.6543C13.057 16.6543 12.6712 16.2109 12.7479 15.6641L12.9989 13.8818C13.145 12.8429 14.1138 12.0002 15.163 12H16.9628Z" fill="#0033C9"/>
<path d="M22.3622 12C23.4115 12 24.1449 12.8428 23.9989 13.8818L23.7479 15.6641C23.671 16.2107 23.1613 16.654 22.6093 16.6543C22.057 16.6543 21.6712 16.2109 21.7479 15.6641L21.9843 13.9805H20.2841C19.7321 13.9802 19.3469 13.537 19.4237 12.9902C19.5006 12.4435 20.0103 12.0003 20.5624 12H22.3622Z" fill="#0033C9"/>
<path d="M31.5473 12.1456C31.8863 11.9123 32.3407 11.9618 32.5693 12.2764C34.5769 15.0394 34.3321 18.638 31.977 21.4533L31.7425 21.7234C31.459 22.0375 30.9965 22.0878 30.6983 21.8551C30.3853 21.6102 30.3539 21.1317 30.6531 20.7995C32.7383 18.487 32.9988 15.5129 31.3185 13.2003C31.0772 12.8681 31.1918 12.3906 31.5473 12.1456Z" fill="#00CF6A"/>
<path d="M29.501 13.3118C29.8181 13.1694 30.1913 13.2413 30.3913 13.5166C31.9182 15.6188 31.6758 18.3858 29.7808 20.488C29.4974 20.802 29.0348 20.8522 28.7367 20.6197L28.7377 20.6187C28.4247 20.3739 28.3925 19.8962 28.6915 19.564C30.0999 18.0016 30.2754 16.003 29.1405 14.4405C28.8991 14.1083 29.0145 13.6299 29.3703 13.3849L29.501 13.3118Z" fill="#00CF6A"/>
<path d="M26.8382 14.3569C27.1866 14.1434 27.6361 14.2146 27.8458 14.5463C28.8249 16.0959 28.6179 18.0569 27.3093 19.5785C27.0324 19.8996 26.5708 19.9587 26.2671 19.7342C25.9487 19.4985 25.9029 19.0233 26.195 18.6834C27.064 17.6727 27.1914 16.4202 26.5469 15.4001C26.3263 15.0504 26.4744 14.5804 26.8382 14.3569Z" fill="#00CF6A"/>
</g>
<defs>
<clipPath id="clip0_1_4974">
<rect width="40" height="40" fill="white"/>
</clipPath>
</defs>
</svg>
