<svg width="40" height="40" viewBox="0 0 40 40" fill="none" xmlns="http://www.w3.org/2000/svg">
<g clip-path="url(#clip0_1_6188)">
<path d="M39.2129 11.449C40.2624 17.0781 40.2624 22.8026 39.2129 28.5271C38.2588 33.9654 33.9654 38.2588 28.5271 39.2129C22.898 40.2624 17.1735 40.2624 11.449 39.2129C6.01073 38.2588 1.81276 34.0608 0.858676 28.6225C-0.286225 22.9934 -0.286225 17.1735 0.858676 11.449C1.81276 6.01073 6.01073 1.81276 11.449 0.858676C17.0781 -0.286225 22.898 -0.286225 28.6225 0.858676C34.0608 1.81276 38.2588 6.01073 39.2129 11.449Z" fill="white"/>
<path fill-rule="evenodd" clip-rule="evenodd" d="M38.2293 28.3468C39.2571 22.7405 39.2565 17.1393 38.2298 11.6323L39.2129 11.449C40.2624 17.0781 40.2624 22.8026 39.2129 28.5271L38.2293 28.3468ZM28.5271 39.2129C33.9654 38.2588 38.2588 33.9654 39.2129 28.5271L38.2279 28.3543C37.3466 33.3779 33.3779 37.3466 28.3543 38.2279L28.5271 39.2129ZM11.449 39.2129C17.1735 40.2624 22.898 40.2624 28.5271 39.2129L28.3438 38.2298C22.8369 39.2565 17.2356 39.2571 11.6293 38.2293L11.449 39.2129ZM28.6225 0.858676L28.4497 1.84363C33.4733 2.72496 37.3466 6.59823 38.2279 11.6218L39.2129 11.449C38.2588 6.01073 34.0608 1.81276 28.6225 0.858676ZM11.449 0.858676C17.0781 -0.286225 22.898 -0.286225 28.6225 0.858676L28.4264 1.83926C22.8303 0.720026 17.1448 0.720683 11.6483 1.83861L11.449 0.858676ZM0.858676 11.449C1.81276 6.01073 6.01073 1.81276 11.449 0.858676L11.6218 1.84363C6.59823 2.72496 2.72496 6.59823 1.84363 11.6218L0.858676 11.449ZM0.858676 11.449L1.83926 11.6451C0.720026 17.2413 0.720683 22.9267 1.83861 28.4232L0.858676 28.6225C-0.286225 22.9934 -0.286225 17.1735 0.858676 11.449ZM0.858676 28.6225C1.81276 34.0608 6.01073 38.2588 11.449 39.2129L11.6218 38.2279C6.59823 37.3466 2.72496 33.4733 1.84363 28.4497L0.858676 28.6225Z" fill="#EEF4FE"/>
<path d="M14.4866 8.30701C14.9064 6.0469 17.0738 4.52556 19.3372 4.93396L31.0764 7.05212C33.3436 7.4612 34.8286 9.6477 34.4084 11.9115L30.7229 31.7513V31.7523C30.3028 34.0122 28.1355 35.5337 25.8723 35.1254L14.1321 33.0072C11.8648 32.598 10.3805 30.4108 10.801 28.1469L14.4866 8.30701Z" fill="#691ACD" stroke="white" stroke-width="2"/>
<path d="M21.2499 5.294C23.5313 4.88225 25.7203 6.40192 26.1325 8.68326L26.1324 8.68424L29.7364 28.6486C30.148 30.9301 28.6285 33.1192 26.3471 33.5312L14.4378 35.6806C12.1562 36.0923 9.96705 34.5729 9.55515 32.2913L5.95118 12.3269C5.53935 10.0453 7.05977 7.85526 9.3415 7.44342L21.2499 5.294Z" fill="#913AFF" stroke="white" stroke-width="2"/>
<path d="M16.1689 20.9171C15.5596 17.5416 17.4887 14.2907 20.6024 13.0972C19.5998 12.856 18.5306 12.8144 17.4489 13.0096C13.3087 13.757 10.5532 17.6912 11.2943 21.797C12.0354 25.9028 15.9925 28.6254 20.1327 27.8781C21.2144 27.6828 22.2016 27.2701 23.0566 26.6935C19.7222 26.664 16.7782 24.2926 16.1689 20.9171Z" fill="#FFC700"/>
<path d="M21.1974 16.7387C21.5338 17.5147 21.9026 18.3236 22.5496 18.7918C23.1631 19.2359 24.1017 19.3656 24.6129 19.3474C24.4509 19.4464 24.2773 19.5281 24.1024 19.6104C23.6409 19.8276 23.17 20.0492 22.8767 20.604C22.5865 21.1529 22.4723 22.0476 22.3742 22.8159C22.363 22.9038 22.352 22.9901 22.341 23.074C22.2507 22.8962 22.1699 22.7168 22.0901 22.5397C21.8383 21.9809 21.5964 21.444 21.0992 21.0466C20.5409 20.6003 19.7819 20.4802 19.0419 20.3632L19.0119 20.3584C19.7136 20.0767 20.3463 19.773 20.7508 19.1165C21.0606 18.6139 21.1828 17.5781 21.1974 16.7387Z" fill="#FFC700"/>
</g>
<defs>
<clipPath id="clip0_1_6188">
<rect width="40" height="40" fill="white"/>
</clipPath>
</defs>
</svg>
