<svg width="40" height="40" viewBox="0 0 40 40" fill="none" xmlns="http://www.w3.org/2000/svg">
<g clip-path="url(#clip0_1_5025)">
<path d="M39.2129 11.449V11.449C40.2624 17.0781 40.2624 22.8026 39.2129 28.5271V28.5271C38.2588 33.9654 33.9654 38.2588 28.5271 39.2129V39.2129C22.898 40.2624 17.1735 40.2624 11.449 39.2129V39.2129C6.01073 38.2588 1.81276 34.0608 0.858676 28.6225V28.6225C-0.286225 22.9934 -0.286225 17.1735 0.858676 11.449V11.449C1.81276 6.01073 6.01073 1.81276 11.449 0.858676V0.858676C17.0781 -0.286225 22.898 -0.286225 28.6225 0.858676V0.858676C34.0608 1.81276 38.2588 6.01073 39.2129 11.449Z" fill="white"/>
<path fill-rule="evenodd" clip-rule="evenodd" d="M38.2293 28.3468C39.2571 22.7405 39.2565 17.1393 38.2298 11.6323L39.2129 11.449C40.2624 17.0781 40.2624 22.8026 39.2129 28.5271L38.2293 28.3468ZM28.5271 39.2129C33.9654 38.2588 38.2588 33.9654 39.2129 28.5271L38.2279 28.3543C37.3466 33.3779 33.3779 37.3466 28.3543 38.2279L28.5271 39.2129ZM11.449 39.2129C17.1735 40.2624 22.898 40.2624 28.5271 39.2129L28.3438 38.2298C22.8369 39.2565 17.2356 39.2571 11.6293 38.2293L11.449 39.2129ZM28.6225 0.858676L28.4497 1.84363C33.4733 2.72496 37.3466 6.59823 38.2279 11.6218L39.2129 11.449C38.2588 6.01073 34.0608 1.81276 28.6225 0.858676ZM11.449 0.858676C17.0781 -0.286225 22.898 -0.286225 28.6225 0.858676L28.4264 1.83926C22.8303 0.720026 17.1448 0.720683 11.6483 1.83861L11.449 0.858676ZM0.858676 11.449C1.81276 6.01073 6.01073 1.81276 11.449 0.858676L11.6218 1.84363C6.59823 2.72496 2.72496 6.59823 1.84363 11.6218L0.858676 11.449ZM0.858676 11.449L1.83926 11.6451C0.720026 17.2413 0.720683 22.9267 1.83861 28.4232L0.858676 28.6225C-0.286225 22.9934 -0.286225 17.1735 0.858676 11.449ZM0.858676 28.6225C1.81276 34.0608 6.01073 38.2588 11.449 39.2129L11.6218 38.2279C6.59823 37.3466 2.72496 33.4733 1.84363 28.4497L0.858676 28.6225Z" fill="#EEF4FE"/>
<path d="M17.5996 27C17.0473 27 16.5996 27.4477 16.5996 28C16.5996 28.5523 17.0473 29 17.5996 29H21.7996C22.3519 29 22.7996 28.5523 22.7996 28C22.7996 27.4477 22.3519 27 21.7996 27H17.5996Z" fill="#0033C9"/>
<path fill-rule="evenodd" clip-rule="evenodd" d="M10.2097 31.0237C10.314 32.3818 11.3521 33.4946 12.7073 33.6314C17.5782 34.1229 22.021 34.1229 26.8919 33.6314C28.2471 33.4946 29.2852 32.3818 29.3895 31.0237C29.4266 30.5413 29.4649 30.056 29.5034 29.5678C29.747 26.4806 29.9996 23.28 29.9996 20C29.9996 16.72 29.747 13.5196 29.5034 10.4324C29.4649 9.94421 29.4266 9.45864 29.3895 8.97627C29.2852 7.61818 28.2471 6.50537 26.8919 6.36862C22.021 5.87713 17.5782 5.87713 12.7073 6.36862C11.3521 6.50537 10.314 7.61818 10.2097 8.97627C10.1727 9.45867 10.1344 9.94404 10.0958 10.4322C9.85218 13.5195 9.59961 16.72 9.59961 20C9.59961 23.28 9.85218 26.4805 10.0958 29.5677C10.1344 30.0559 10.1727 30.5414 10.2097 31.0237ZM27.9996 20C27.9996 23.1949 27.754 26.3095 27.5103 29.401C27.4716 29.8914 27.433 30.3812 27.3954 30.8706C27.3616 31.3102 27.0363 31.6067 26.6911 31.6415C21.9537 32.1195 17.6455 32.1195 12.9081 31.6415C12.5629 31.6067 12.2376 31.3101 12.2038 30.8706C12.1663 30.3812 12.1276 29.8914 12.089 29.401C11.8452 26.3095 11.5996 23.1949 11.5996 20C11.5996 16.8051 11.8452 13.6905 12.089 10.599C12.1276 10.1086 12.1663 9.61883 12.2038 9.12941C12.2376 8.68985 12.5629 8.39335 12.9081 8.35852C17.6455 7.88049 21.9537 7.88049 26.6911 8.35852C27.0363 8.39335 27.3616 8.68985 27.3954 9.12941C27.433 9.61884 27.4716 10.1086 27.5103 10.599C27.754 13.6905 27.9996 16.8051 27.9996 20Z" fill="#0033C9"/>
<path fill-rule="evenodd" clip-rule="evenodd" d="M13.5662 21.4386H16.1203L16.1307 21.7952C16.1428 22.2091 16.4818 22.5384 16.8958 22.5384H17.6411C18.0638 22.5384 18.4065 22.1957 18.4065 21.7729V21.4386H18.7409C19.1636 21.4386 19.5063 21.0959 19.5063 20.6731V20.2821C19.5063 19.8593 19.1636 19.5166 18.7409 19.5166H18.3867L18.4044 15.7691C18.4064 15.3449 18.0632 15 17.639 15H15.8832C15.6078 15 15.3536 15.1479 15.2176 15.3874L12.9006 19.4669C12.8352 19.5822 12.8008 19.7124 12.8008 19.8449V20.6731C12.8008 21.0959 13.1435 21.4386 13.5662 21.4386ZM15.3175 19.5166L16.2283 17.8783V19.5166H15.3175Z" fill="#00CF6A"/>
<path d="M25.4369 15.1388C25.1959 15.0954 24.9532 15.0638 24.7089 15.0438C24.3582 15.0146 24.0074 15 23.6566 15C23.0627 15 22.5262 15.0512 22.0497 15.1568C21.559 15.2584 21.1296 15.4484 20.771 15.7336C20.4073 16.0213 20.1409 16.4222 19.9609 16.9152L19.9594 16.9196C19.7862 17.4155 19.7059 18.0288 19.7059 18.7478C19.7059 19.6299 19.8073 20.3655 20.0269 20.9378L20.0274 20.9393C20.2563 21.5277 20.6554 21.966 21.2164 22.2382L21.22 22.2399C21.7667 22.4972 22.4913 22.6131 23.3683 22.6131C24.0201 22.6131 24.5695 22.5735 25.0103 22.4899L25.0146 22.489C25.3434 22.4222 25.6487 22.3358 25.9296 22.2292C26.2285 22.1156 26.4008 21.8281 26.4008 21.5331V18.618C26.4008 18.1941 26.0563 17.851 25.6324 17.8526L23.7144 17.8599C23.2928 17.8616 22.9519 18.2038 22.9519 18.6254V19.1615C22.9519 19.57 23.2781 19.9209 23.7055 19.9164C23.7832 19.9156 23.8628 19.914 23.9443 19.9115L23.9493 19.9114L23.9543 19.9111C24.0557 19.9049 24.1542 19.8975 24.2499 19.8887C24.2459 19.9855 24.2439 20.0857 24.2439 20.1893V20.5007L23.8722 20.5203H23.5819C23.1036 20.5203 22.7692 20.4684 22.5553 20.3853C22.391 20.3128 22.2722 20.1863 22.1996 19.9715C22.122 19.7118 22.0764 19.3103 22.0764 18.7478C22.0764 18.1849 22.1645 17.8317 22.291 17.6345C22.4241 17.4268 22.604 17.2954 22.845 17.2311L22.8474 17.2305L22.8497 17.2298C23.1411 17.1475 23.4905 17.1035 23.9022 17.1035C24.1907 17.1035 24.4754 17.1172 24.7563 17.1446L24.7571 17.1447C24.8265 17.1513 24.993 17.1736 25.1726 17.1989C25.6328 17.2637 26.0484 16.9078 26.0484 16.4395V15.88C26.0484 15.527 25.8033 15.2047 25.4369 15.1388Z" fill="#00CF6A"/>
</g>
<defs>
<clipPath id="clip0_1_5025">
<rect width="40" height="40" fill="white"/>
</clipPath>
</defs>
</svg>
