<svg width="40" height="40" viewBox="0 0 40 40" fill="none" xmlns="http://www.w3.org/2000/svg">
<g clip-path="url(#clip0_1_4915)">
<rect width="40" height="40" fill="white"/>
<path d="M39.2129 11.449C40.2624 17.0781 40.2624 22.8026 39.2129 28.5271C38.2588 33.9654 33.9654 38.2588 28.5271 39.2129C22.898 40.2624 17.1735 40.2624 11.449 39.2129C6.01073 38.2588 1.81276 34.0608 0.858676 28.6225C-0.286225 22.9934 -0.286225 17.1735 0.858676 11.449C1.81276 6.01073 6.01073 1.81276 11.449 0.858676C17.0781 -0.286225 22.898 -0.286225 28.6225 0.858676C34.0608 1.81276 38.2588 6.01073 39.2129 11.449Z" fill="white"/>
<path fill-rule="evenodd" clip-rule="evenodd" d="M38.2279 11.6218L38.2279 11.6218C37.3466 6.59823 33.4733 2.72496 28.4497 1.84363L28.4381 1.84158L28.4264 1.83926C22.8303 0.720027 17.1448 0.720684 11.6483 1.83861L11.6351 1.8413L11.6218 1.84363C6.59823 2.72496 2.72496 6.59823 1.84363 11.6218L1.84158 11.6335L1.83926 11.6451C0.720027 17.2413 0.720684 22.9267 1.83861 28.4232L1.8413 28.4365L1.84363 28.4497C2.72496 33.4733 6.59823 37.3466 11.6218 38.2279L11.6293 38.2292C17.2356 39.2571 22.8369 39.2565 28.3438 38.2298L28.3543 38.2279L28.3543 38.2279C33.3779 37.3466 37.3466 33.3779 38.2279 28.3543L38.2292 28.3468C39.2571 22.7405 39.2565 17.1393 38.2298 11.6323L38.2279 11.6218ZM11.449 39.2129C17.1735 40.2624 22.898 40.2624 28.5271 39.2129C33.9654 38.2588 38.2588 33.9654 39.2129 28.5271C40.2624 22.8026 40.2624 17.0781 39.2129 11.449C38.2588 6.01073 34.0608 1.81276 28.6225 0.858676C22.898 -0.286225 17.0781 -0.286225 11.449 0.858676C6.01073 1.81276 1.81276 6.01073 0.858676 11.449C-0.286225 17.1735 -0.286225 22.9934 0.858676 28.6225C1.81276 34.0608 6.01073 38.2588 11.449 39.2129Z" fill="#EEF4FE"/>
<path fill-rule="evenodd" clip-rule="evenodd" d="M14.8512 21.4806C15.1994 21.4806 15.4816 21.1984 15.4816 20.8502C15.4816 20.502 15.1994 20.2198 14.8512 20.2198V19.3193C14.0057 19.3193 13.3203 20.0047 13.3203 20.8502C13.3203 21.6957 14.0057 22.3811 14.8512 22.3811V21.4806Z" fill="#00CF6A"/>
<path fill-rule="evenodd" clip-rule="evenodd" d="M14.8512 21.4806C14.503 21.4806 14.2211 21.1984 14.2211 20.8502C14.2211 20.502 14.503 20.2198 14.8512 20.2198V19.3193C15.6967 19.3193 16.3824 20.0047 16.3824 20.8502C16.3824 21.6957 15.6967 22.3811 14.8512 22.3811V21.4806Z" fill="#00CF6A"/>
<path fill-rule="evenodd" clip-rule="evenodd" d="M14.8512 27.3622C15.1994 27.3622 15.4816 27.08 15.4816 26.7318C15.4816 26.3836 15.1994 26.1014 14.8512 26.1014V25.2009C14.0057 25.2009 13.3203 25.8863 13.3203 26.7318C13.3203 27.5773 14.0057 28.2627 14.8512 28.2627V27.3622Z" fill="#00CF6A"/>
<path fill-rule="evenodd" clip-rule="evenodd" d="M14.8512 27.3622C14.503 27.3622 14.2203 27.08 14.2203 26.7318C14.2203 26.3836 14.503 26.1014 14.8512 26.1014V25.2009C15.6967 25.2009 16.3816 25.8863 16.3816 26.7318C16.3816 27.5773 15.6967 28.2627 14.8512 28.2627V27.3622Z" fill="#00CF6A"/>
<path fill-rule="evenodd" clip-rule="evenodd" d="M20.2477 27.3622C20.5958 27.3622 20.8781 27.08 20.8781 26.7318C20.8781 26.3836 20.5958 26.1014 20.2477 26.1014V25.2009C19.4022 25.2009 18.7168 25.8863 18.7168 26.7318C18.7168 27.5773 19.4022 28.2627 20.2477 28.2627V27.3622Z" fill="#00CF6A"/>
<path fill-rule="evenodd" clip-rule="evenodd" d="M20.2477 27.3622C19.8995 27.3622 19.6176 27.08 19.6176 26.7318C19.6176 26.3836 19.8995 26.1014 20.2477 26.1014V25.2009C21.0932 25.2009 21.7789 25.8863 21.7789 26.7318C21.7789 27.5773 21.0932 28.2627 20.2477 28.2627V27.3622Z" fill="#00CF6A"/>
<path fill-rule="evenodd" clip-rule="evenodd" d="M20.0055 21.4809C20.3537 21.4809 20.6359 21.1986 20.6359 20.8505C20.6359 20.5023 20.3537 20.22 20.0055 20.22V19.3196C19.16 19.3196 18.4746 20.005 18.4746 20.8505C18.4746 21.6959 19.16 22.3813 20.0055 22.3813V21.4809Z" fill="#00CF6A"/>
<path fill-rule="evenodd" clip-rule="evenodd" d="M20.0055 21.4809C19.6573 21.4809 19.3754 21.1986 19.3754 20.8505C19.3754 20.5023 19.6573 20.22 20.0055 20.22V19.3196C20.851 19.3196 21.5367 20.005 21.5367 20.8505C21.5367 21.6959 20.851 22.3813 20.0055 22.3813V21.4809Z" fill="#00CF6A"/>
<path fill-rule="evenodd" clip-rule="evenodd" d="M25.1617 21.4806C25.5099 21.4806 25.7922 21.1984 25.7922 20.8502C25.7922 20.502 25.5099 20.2198 25.1617 20.2198V19.3193C24.3163 19.3193 23.6309 20.0047 23.6309 20.8502C23.6309 21.6957 24.3163 22.3811 25.1617 22.3811V21.4806Z" fill="#00CF6A"/>
<path fill-rule="evenodd" clip-rule="evenodd" d="M25.1617 21.4806C24.8136 21.4806 24.5309 21.1984 24.5309 20.8502C24.5309 20.502 24.8136 20.2198 25.1617 20.2198V19.3193C26.0072 19.3193 26.6922 20.0047 26.6922 20.8502C26.6922 21.6957 26.0072 22.3811 25.1617 22.3811V21.4806Z" fill="#00CF6A"/>
<path fill-rule="evenodd" clip-rule="evenodd" d="M14.4996 7C15.0519 7 15.4996 7.44772 15.4996 8V9.07493C16.9085 9.02542 18.3567 9 19.8889 9C21.1405 9 22.3359 9.01696 23.4996 9.05015V8C23.4996 7.44772 23.9473 7 24.4996 7C25.0519 7 25.4996 7.44772 25.4996 8V9.12425C25.9506 9.14483 26.3988 9.16791 26.8458 9.19344C26.8961 9.19632 26.9463 9.1998 26.9963 9.20388C29.7923 9.43201 32.1182 11.5357 32.5003 14.3624C32.9683 17.8246 33.1447 21.3566 32.8688 25.1531C32.8384 25.572 32.7573 26.0251 32.5725 26.4704C31.767 28.4106 30.099 30.4763 28.9829 31.7402C28.0178 32.833 26.6505 33.4327 25.2308 33.4866C20.6941 33.659 16.219 33.4956 13.1 33.313C10.1271 33.1389 7.74243 30.86 7.42664 27.9009C7.20872 25.8589 7 23.4269 7 21.5738C7 19.2631 7.21382 17.0103 7.45314 14.8565C7.79262 11.8013 10.2584 9.33525 13.3767 9.16888C13.4177 9.1667 13.4586 9.16453 13.4996 9.16239V8C13.4996 7.44772 13.9473 7 14.4996 7ZM9.2417 17C9.09998 18.5107 9 20.0342 9 21.5738C9 23.3139 9.19851 25.6568 9.41535 27.6887C9.62758 29.6774 11.2224 31.1996 13.2169 31.3164C16.0992 31.4851 20.1352 31.636 24.2819 31.5171C24.2671 31.2931 24.2523 31.0363 24.2394 30.752C24.1913 29.6912 24.1694 28.2378 24.2763 26.6772C24.3499 25.6039 25.2055 24.7639 26.2659 24.6891C27.9746 24.5686 29.3325 24.5891 30.271 24.6411C30.5062 24.6541 30.715 24.6691 30.8965 24.6843C31.0722 22.0186 31.0164 19.4837 30.7882 17H9.2417ZM30.403 15C30.3895 14.8782 30.3758 14.7536 30.362 14.6273C30.1544 12.7237 28.6496 11.2997 26.7317 11.1902C24.5455 11.0653 22.3274 11 19.8889 11C17.6127 11 15.5286 11.0569 13.4833 11.166C11.4297 11.2756 9.80133 12.8964 9.58934 15H30.403ZM30.2643 26.644C30.2304 26.642 30.1958 26.64 30.1605 26.638C29.2991 26.5903 28.0253 26.57 26.4066 26.6841C26.3286 26.6896 26.2761 26.7486 26.2716 26.8139C26.1714 28.2771 26.1916 29.6509 26.2373 30.6614C26.2472 30.8788 26.2582 31.0789 26.2694 31.2589C26.7359 31.0768 27.1526 30.7914 27.4838 30.4163C28.3787 29.4029 29.5111 27.9962 30.2643 26.644Z" fill="#0033C9"/>
</g>
<defs>
<clipPath id="clip0_1_4915">
<rect width="40" height="40" fill="white"/>
</clipPath>
</defs>
</svg>
