<svg width="40" height="40" viewBox="0 0 40 40" fill="none" xmlns="http://www.w3.org/2000/svg">
<g clip-path="url(#clip0_1_5683)">
<rect width="40" height="40" fill="white"/>
<path d="M39.2129 11.449C40.2624 17.0781 40.2624 22.8026 39.2129 28.5271C38.2588 33.9654 33.9654 38.2588 28.5271 39.2129C22.898 40.2624 17.1735 40.2624 11.449 39.2129C6.01073 38.2588 1.81276 34.0608 0.858676 28.6225C-0.286225 22.9934 -0.286225 17.1735 0.858676 11.449C1.81276 6.01073 6.01073 1.81276 11.449 0.858676C17.0781 -0.286225 22.898 -0.286225 28.6225 0.858676C34.0608 1.81276 38.2588 6.01073 39.2129 11.449Z" fill="white"/>
<path fill-rule="evenodd" clip-rule="evenodd" d="M38.2293 28.3468C39.2571 22.7405 39.2565 17.1393 38.2298 11.6323L39.2129 11.449C40.2624 17.0781 40.2624 22.8026 39.2129 28.5271L38.2293 28.3468ZM28.5271 39.2129C33.9654 38.2588 38.2588 33.9654 39.2129 28.5271L38.2279 28.3543C37.3466 33.3779 33.3779 37.3466 28.3543 38.2279L28.5271 39.2129ZM11.449 39.2129C17.1735 40.2624 22.898 40.2624 28.5271 39.2129L28.3438 38.2298C22.8369 39.2565 17.2356 39.2571 11.6293 38.2293L11.449 39.2129ZM28.6225 0.858676L28.4497 1.84363C33.4733 2.72496 37.3466 6.59823 38.2279 11.6218L39.2129 11.449C38.2588 6.01073 34.0608 1.81276 28.6225 0.858676ZM11.449 0.858676C17.0781 -0.286225 22.898 -0.286225 28.6225 0.858676L28.4264 1.83926C22.8303 0.720026 17.1448 0.720683 11.6483 1.83861L11.449 0.858676ZM0.858676 11.449C1.81276 6.01073 6.01073 1.81276 11.449 0.858676L11.6218 1.84363C6.59823 2.72496 2.72496 6.59823 1.84363 11.6218L0.858676 11.449ZM0.858676 11.449L1.83926 11.6451C0.720026 17.2413 0.720683 22.9267 1.83861 28.4232L0.858676 28.6225C-0.286225 22.9934 -0.286225 17.1735 0.858676 11.449ZM0.858676 28.6225C1.81276 34.0608 6.01073 38.2588 11.449 39.2129L11.6218 38.2279C6.59823 37.3466 2.72496 33.4733 1.84363 28.4497L0.858676 28.6225Z" fill="url(#paint0_linear_1_5683)"/>
<path d="M14 7.16355V15.5858C14 16.4767 15.0771 16.9229 15.7071 16.2929L18 14L20.2929 16.2929C20.9229 16.9229 22 16.4767 22 15.5858V7.01609C21.3612 7.00541 20.698 7 20 7C17.7542 7 15.8677 7.05598 14 7.16355Z" fill="#00CF6A"/>
<path d="M14.5 21C13.9477 21 13.5 21.4477 13.5 22C13.5 22.5523 13.9477 23 14.5 23H25.5C26.0523 23 26.5 22.5523 26.5 22C26.5 21.4477 26.0523 21 25.5 21H14.5Z" fill="#0033C9"/>
<path d="M13.5 27C13.5 26.4477 13.9477 26 14.5 26H20.5C21.0523 26 21.5 26.4477 21.5 27C21.5 27.5523 21.0523 28 20.5 28H14.5C13.9477 28 13.5 27.5523 13.5 27Z" fill="#0033C9"/>
<path fill-rule="evenodd" clip-rule="evenodd" d="M22.0706 6.01856C22.0528 6.01731 22.0348 6.01653 22.0167 6.01623C21.372 6.00545 20.7031 6 20 6C17.7363 6 15.8306 6.05646 13.9425 6.16521C13.8844 6.16855 13.8277 6.17681 13.7728 6.18956C13.4334 6.21134 13.0942 6.23494 12.7533 6.26035C10.3267 6.44118 8.41577 8.38876 8.27059 10.8142C8.09329 13.7761 8 16.8493 8 20C8 23.1507 8.09329 26.2239 8.27059 29.1858C8.41577 31.6112 10.3267 33.5588 12.7533 33.7396C15.0452 33.9104 17.2601 34 20 34C22.7399 34 24.9548 33.9104 27.2467 33.7397C29.6733 33.5588 31.5842 31.6112 31.7294 29.1858C31.9067 26.2239 32 23.1507 32 20C32 18.7042 31.9842 17.4216 31.9533 16.1545C31.9309 15.2355 31.6512 14.3349 31.1324 13.5653C29.3005 10.8478 27.836 9.14357 25.4277 7.1258C24.5959 6.42894 23.5531 6.05156 22.4838 6.02712C22.3471 6.024 22.2094 6.02115 22.0706 6.01856ZM15 8.12167C16.5487 8.04147 18.1502 8 20 8C20.3415 8 20.6744 8.00141 21 8.00422V15.5858L18.7071 13.2929C18.5196 13.1054 18.2652 13 18 13C17.7348 13 17.4804 13.1054 17.2929 13.2929L15 15.5858V8.12167ZM23 8.09581C23.4215 8.1914 23.814 8.38303 24.1432 8.65883C26.3855 10.5375 27.7289 12.0944 29.474 14.6832C29.7745 15.1289 29.9406 15.6569 29.9539 16.2033C29.9844 17.4541 30 18.7205 30 20C30 23.1115 29.9079 26.1447 29.733 29.0663C29.6474 30.4959 28.5227 31.639 27.0981 31.7452C24.8563 31.9122 22.6909 32 20 32C17.3091 32 15.1437 31.9122 12.9019 31.7452C11.4773 31.639 10.3526 30.4959 10.267 29.0663C10.0921 26.1447 10 23.1115 10 20C10 16.8885 10.0921 13.8553 10.267 10.9337C10.3526 9.50406 11.4773 8.36098 12.9019 8.25482C12.9346 8.25238 12.9673 8.24996 13 8.24755V15.5858C13 17.3676 15.1543 18.2599 16.4142 17L18 15.4142L19.5858 17C20.8457 18.2599 23 17.3676 23 15.5858V8.09581Z" fill="#0033C9"/>
</g>
<defs>
<linearGradient id="paint0_linear_1_5683" x1="-2.81746e-08" y1="8.19672" x2="40.9761" y2="9.50848" gradientUnits="userSpaceOnUse">
<stop stop-color="#F0F6FF"/>
<stop offset="0.635417" stop-color="#E8F0FD"/>
<stop offset="1" stop-color="#EEF4FE"/>
</linearGradient>
<clipPath id="clip0_1_5683">
<rect width="40" height="40" fill="white"/>
</clipPath>
</defs>
</svg>
