<svg width="40" height="40" viewBox="0 0 40 40" fill="none" xmlns="http://www.w3.org/2000/svg">
<g clip-path="url(#clip0_1_4215)">
<path d="M39.2129 11.449V11.449C40.2624 17.0781 40.2624 22.8026 39.2129 28.5271V28.5271C38.2588 33.9654 33.9654 38.2588 28.5271 39.2129V39.2129C22.898 40.2624 17.1735 40.2624 11.449 39.2129V39.2129C6.01073 38.2588 1.81276 34.0608 0.858676 28.6225V28.6225C-0.286225 22.9934 -0.286225 17.1735 0.858676 11.449V11.449C1.81276 6.01073 6.01073 1.81276 11.449 0.858676V0.858676C17.0781 -0.286225 22.898 -0.286225 28.6225 0.858676V0.858676C34.0608 1.81276 38.2588 6.01073 39.2129 11.449Z" fill="white"/>
<path fill-rule="evenodd" clip-rule="evenodd" d="M38.2293 28.3468C39.2571 22.7405 39.2565 17.1393 38.2298 11.6323L39.2129 11.449C40.2624 17.0781 40.2624 22.8026 39.2129 28.5271L38.2293 28.3468ZM28.5271 39.2129C33.9654 38.2588 38.2588 33.9654 39.2129 28.5271L38.2279 28.3543C37.3466 33.3779 33.3779 37.3466 28.3543 38.2279L28.5271 39.2129ZM11.449 39.2129C17.1735 40.2624 22.898 40.2624 28.5271 39.2129L28.3438 38.2298C22.8369 39.2565 17.2356 39.2571 11.6293 38.2293L11.449 39.2129ZM28.6225 0.858676L28.4497 1.84363C33.4733 2.72496 37.3466 6.59823 38.2279 11.6218L39.2129 11.449C38.2588 6.01073 34.0608 1.81276 28.6225 0.858676ZM11.449 0.858676C17.0781 -0.286225 22.898 -0.286225 28.6225 0.858676L28.4264 1.83926C22.8303 0.720026 17.1448 0.720683 11.6483 1.83861L11.449 0.858676ZM0.858676 11.449C1.81276 6.01073 6.01073 1.81276 11.449 0.858676L11.6218 1.84363C6.59823 2.72496 2.72496 6.59823 1.84363 11.6218L0.858676 11.449ZM0.858676 11.449L1.83926 11.6451C0.720026 17.2413 0.720683 22.9267 1.83861 28.4232L0.858676 28.6225C-0.286225 22.9934 -0.286225 17.1735 0.858676 11.449ZM0.858676 28.6225C1.81276 34.0608 6.01073 38.2588 11.449 39.2129L11.6218 38.2279C6.59823 37.3466 2.72496 33.4733 1.84363 28.4497L0.858676 28.6225Z" fill="#EEF4FE"/>
<path fill-rule="evenodd" clip-rule="evenodd" d="M12.5407 8.82935C12.1583 8.88747 11.7754 8.94565 11.3917 9.00195C10.9033 9.07361 10.5475 9.46724 10.52 9.92145C10.0949 16.9328 10.0949 23.5311 10.52 30.5424C10.5361 30.8076 10.6574 31.1553 10.8629 31.4374C11.0751 31.7287 11.2659 31.8074 11.3512 31.816C11.3478 31.8156 11.3488 31.8154 11.3548 31.8143C11.3842 31.8086 11.5336 31.7801 11.8412 31.5972C12.1718 31.4007 12.5444 31.1127 12.9384 30.7847C13.0829 30.6645 13.2413 30.5291 13.3998 30.3936C13.6318 30.1954 13.864 29.997 14.0528 29.8457C14.2216 29.7104 14.4041 29.5722 14.5815 29.464C14.7104 29.3853 15.0225 29.2001 15.4012 29.2001C15.9036 29.2001 16.343 29.4603 16.6131 29.6401C16.9238 29.8469 17.2538 30.1203 17.57 30.3905C17.6818 30.4861 17.794 30.583 17.9066 30.6802C18.4083 31.1136 18.9193 31.5549 19.457 31.93L20.2941 31.093C20.6846 30.7024 21.3178 30.7024 21.7083 31.093C22.0988 31.4835 22.0988 32.1167 21.7083 32.5072L20.7337 33.4818C20.1789 34.0366 19.2675 34.2054 18.536 33.722C17.8128 33.2442 17.1277 32.6515 16.5716 32.1703C16.4664 32.0793 16.3659 31.9923 16.2706 31.9109C15.9539 31.6403 15.7051 31.4383 15.5049 31.305C15.4913 31.296 15.4784 31.2876 15.4663 31.2799C15.4195 31.3148 15.3655 31.3567 15.3037 31.4062C15.126 31.5486 14.9474 31.7017 14.7462 31.874C14.5877 32.0099 14.4151 32.1577 14.2179 32.3219C13.8086 32.6626 13.3361 33.0353 12.8632 33.3164C12.4293 33.5743 11.8088 33.8718 11.152 33.806C10.2944 33.7202 9.64902 33.1678 9.24639 32.6151C8.83708 32.0533 8.56492 31.3442 8.52365 30.6635C8.09368 23.5716 8.09368 16.8923 8.52365 9.80042C8.6108 8.36296 9.71473 7.22658 11.1014 7.02313C11.4646 6.96984 11.8338 6.91359 12.2082 6.85655C14.2821 6.54058 16.517 6.20007 18.8012 6.20007C21.0854 6.20007 23.3203 6.54058 25.3941 6.85655C25.7686 6.91359 26.1377 6.96984 26.501 7.02313C27.8875 7.22657 28.9915 8.36269 29.0787 9.80025C29.2595 12.782 29.3643 15.6915 29.393 18.5902C29.3985 19.1424 28.9553 19.5945 28.403 19.6C27.8507 19.6055 27.3986 19.1622 27.3931 18.61C27.3647 15.7466 27.2612 12.8709 27.0823 9.92128C27.0548 9.46717 26.6992 9.07362 26.2106 9.00195C25.8269 8.94565 25.444 8.88747 25.0616 8.82935C22.9847 8.51375 20.9206 8.20007 18.8012 8.20007C16.6818 8.20007 14.6176 8.51375 12.5407 8.82935ZM15.6701 31.1458C15.6698 31.1464 15.6628 31.1503 15.6496 31.1558C15.6637 31.148 15.6703 31.1452 15.6701 31.1458Z" fill="#0033C9"/>
<path fill-rule="evenodd" clip-rule="evenodd" d="M14.1172 15.7963C14.1172 15.244 14.5649 14.7963 15.1172 14.7963H22.635C23.1873 14.7963 23.635 15.244 23.635 15.7963C23.635 16.3485 23.1873 16.7963 22.635 16.7963H15.1172C14.5649 16.7963 14.1172 16.3485 14.1172 15.7963Z" fill="#0033C9"/>
<path fill-rule="evenodd" clip-rule="evenodd" d="M14.1172 21.5271C14.1172 20.9748 14.5649 20.5271 15.1172 20.5271H19.6538C20.2061 20.5271 20.6538 20.9748 20.6538 21.5271C20.6538 22.0794 20.2061 22.5271 19.6538 22.5271H15.1172C14.5649 22.5271 14.1172 22.0794 14.1172 21.5271Z" fill="#0033C9"/>
<path d="M28 21C31.866 21 35 24.134 35 28C35 31.866 31.866 35 28 35C24.134 35 21 31.866 21 28C21 24.134 24.134 21 28 21ZM28.0244 25.8184C27.914 25.8185 27.8242 25.9082 27.8242 26.0186V28.2861L27.334 28.5762L25.8975 29.4277C25.8024 29.484 25.7708 29.6071 25.8271 29.7021C25.8834 29.7968 26.0057 29.8283 26.1006 29.7725L28.127 28.5723C28.1875 28.5363 28.2245 28.4708 28.2246 28.4004V26.0186C28.2246 25.9081 28.1349 25.8184 28.0244 25.8184Z" fill="#00D16B" stroke="white" stroke-width="2"/>
</g>
<defs>
<clipPath id="clip0_1_4215">
<rect width="40" height="40" fill="white"/>
</clipPath>
</defs>
</svg>
