<svg width="40" height="40" viewBox="0 0 40 40" fill="none" xmlns="http://www.w3.org/2000/svg">
<g clip-path="url(#clip0_1_3857)">
<path d="M39.2129 11.449V11.449C40.2624 17.0781 40.2624 22.8026 39.2129 28.5271V28.5271C38.2588 33.9654 33.9654 38.2588 28.5271 39.2129V39.2129C22.898 40.2624 17.1735 40.2624 11.449 39.2129V39.2129C6.01073 38.2588 1.81276 34.0608 0.858676 28.6225V28.6225C-0.286225 22.9934 -0.286225 17.1735 0.858676 11.449V11.449C1.81276 6.01073 6.01073 1.81276 11.449 0.858676V0.858676C17.0781 -0.286225 22.898 -0.286225 28.6225 0.858676V0.858676C34.0608 1.81276 38.2588 6.01073 39.2129 11.449Z" fill="white"/>
<path fill-rule="evenodd" clip-rule="evenodd" d="M38.2293 28.3468C39.2571 22.7405 39.2565 17.1393 38.2298 11.6323L39.2129 11.449C40.2624 17.0781 40.2624 22.8026 39.2129 28.5271L38.2293 28.3468ZM28.5271 39.2129C33.9654 38.2588 38.2588 33.9654 39.2129 28.5271L38.2279 28.3543C37.3466 33.3779 33.3779 37.3466 28.3543 38.2279L28.5271 39.2129ZM11.449 39.2129C17.1735 40.2624 22.898 40.2624 28.5271 39.2129L28.3438 38.2298C22.8369 39.2565 17.2356 39.2571 11.6293 38.2293L11.449 39.2129ZM28.6225 0.858676L28.4497 1.84363C33.4733 2.72496 37.3466 6.59823 38.2279 11.6218L39.2129 11.449C38.2588 6.01073 34.0608 1.81276 28.6225 0.858676ZM11.449 0.858676C17.0781 -0.286225 22.898 -0.286225 28.6225 0.858676L28.4264 1.83926C22.8303 0.720026 17.1448 0.720683 11.6483 1.83861L11.449 0.858676ZM0.858676 11.449C1.81276 6.01073 6.01073 1.81276 11.449 0.858676L11.6218 1.84363C6.59823 2.72496 2.72496 6.59823 1.84363 11.6218L0.858676 11.449ZM0.858676 11.449L1.83926 11.6451C0.720026 17.2413 0.720683 22.9267 1.83861 28.4232L0.858676 28.6225C-0.286225 22.9934 -0.286225 17.1735 0.858676 11.449ZM0.858676 28.6225C1.81276 34.0608 6.01073 38.2588 11.449 39.2129L11.6218 38.2279C6.59823 37.3466 2.72496 33.4733 1.84363 28.4497L0.858676 28.6225Z" fill="url(#paint0_linear_1_3857)"/>
<path fill-rule="evenodd" clip-rule="evenodd" d="M19.3253 6.70671C21.8144 6.38824 24.3428 6.7859 26.614 7.85307C28.8852 8.92024 30.8051 10.6127 32.1488 12.7321C33.4925 14.8515 34.2042 17.31 34.2005 19.8194C34.1968 22.3288 33.4779 24.7852 32.128 26.9006C30.7781 29.016 28.8532 30.7029 26.5788 31.7633C24.3045 32.8238 21.775 33.2141 19.2868 32.8883C16.7986 32.5625 14.4549 31.5342 12.5302 29.9239C12.1066 29.5695 12.0505 28.9389 12.4049 28.5153C12.7593 28.0917 13.39 28.0356 13.8136 28.39C15.4466 29.7563 17.4353 30.6288 19.5465 30.9052C21.6577 31.1816 23.8039 30.8505 25.7336 29.9507C27.6634 29.0509 29.2966 27.6197 30.442 25.8248C31.5874 24.0299 32.1974 21.9457 32.2005 19.8164C32.2036 17.6872 31.5998 15.6012 30.4597 13.803C29.3196 12.0047 27.6905 10.5687 25.7635 9.66321C23.8364 8.75773 21.6911 8.42033 19.5791 8.69054C17.4671 8.96076 15.4759 9.8274 13.8389 11.1889C13.4142 11.542 12.7837 11.4841 12.4306 11.0595C12.0774 10.6348 12.1354 10.0043 12.56 9.65119C14.4894 8.04658 16.8362 7.02518 19.3253 6.70671Z" fill="#0033C9"/>
<path fill-rule="evenodd" clip-rule="evenodd" d="M5.40039 14.8C5.40039 14.2478 5.84811 13.8 6.40039 13.8H10.4004C10.9527 13.8 11.4004 14.2478 11.4004 14.8C11.4004 15.3523 10.9527 15.8 10.4004 15.8H6.40039C5.84811 15.8 5.40039 15.3523 5.40039 14.8Z" fill="#00CF6A"/>
<path fill-rule="evenodd" clip-rule="evenodd" d="M6.59961 20C6.59961 19.4477 7.04732 19 7.59961 19H12.1996C12.7519 19 13.1996 19.4477 13.1996 20C13.1996 20.5523 12.7519 21 12.1996 21H7.59961C7.04732 21 6.59961 20.5523 6.59961 20Z" fill="#00CF6A"/>
<path fill-rule="evenodd" clip-rule="evenodd" d="M5.40039 25.2C5.40039 24.6477 5.84811 24.2 6.40039 24.2H10.4004C10.9527 24.2 11.4004 24.6477 11.4004 25.2C11.4004 25.7522 10.9527 26.2 10.4004 26.2H6.40039C5.84811 26.2 5.40039 25.7522 5.40039 25.2Z" fill="#00CF6A"/>
<path fill-rule="evenodd" clip-rule="evenodd" d="M22.2837 17.2553C21.9749 17.0771 21.5476 16.9213 21.0221 16.9664C20.4325 17.017 20.0856 17.2133 19.8954 17.4002C19.7047 17.5877 19.6231 17.8104 19.6231 18.0248C19.6231 18.2273 19.6651 18.3193 19.6889 18.359C19.7135 18.4002 19.7601 18.4542 19.8721 18.5177C20.1487 18.6746 20.5657 18.7614 21.2238 18.8834C21.2433 18.887 21.263 18.8907 21.2831 18.8944C21.8365 18.9966 22.5979 19.1374 23.2102 19.4966C23.5531 19.6978 23.8808 19.9824 24.1167 20.3883C24.3527 20.7944 24.4599 21.2587 24.4599 21.7621C24.4599 22.5174 24.0501 23.1172 23.5741 23.5194C23.0957 23.9237 22.4775 24.1994 21.8315 24.3415C20.5455 24.6243 18.9116 24.4226 17.6658 23.2857C17.2578 22.9134 17.2289 22.2809 17.6012 21.873C17.9735 21.465 18.606 21.4361 19.0139 21.8084C19.6797 22.416 20.6058 22.5632 21.4019 22.3881C21.797 22.3012 22.1004 22.1463 22.2833 21.9917C22.3725 21.9164 22.4191 21.8532 22.4411 21.813C22.4517 21.7936 22.4561 21.7804 22.458 21.7735C22.4598 21.767 22.4599 21.7637 22.4599 21.7621C22.4599 21.5464 22.4159 21.4422 22.3874 21.3932C22.3588 21.3438 22.3086 21.2865 22.1981 21.2216C21.9257 21.0618 21.5111 20.9708 20.8592 20.8499C20.831 20.8447 20.8022 20.8394 20.7729 20.834C20.2275 20.7336 19.4836 20.5966 18.8855 20.2574C18.544 20.0638 18.2128 19.787 17.9729 19.3864C17.7322 18.9843 17.6231 18.5235 17.6231 18.0248C17.6231 16.4537 18.868 15.1441 20.8509 14.9737C21.8863 14.8848 22.7207 15.1984 23.2834 15.5231C23.5646 15.6853 23.7841 15.8536 23.9368 15.9848C24.0135 16.0508 24.0745 16.1083 24.1191 16.1524C24.1414 16.1745 24.1597 16.1933 24.1739 16.2083L24.1921 16.2278L24.199 16.2352L24.2018 16.2384L24.2031 16.2398C24.2034 16.2401 24.2043 16.2411 23.4849 16.8864L24.2043 16.2411C24.5731 16.6522 24.5388 17.2844 24.1276 17.6532C23.7192 18.0196 23.0924 17.9881 22.7227 17.5845C22.7206 17.5823 22.7186 17.5801 22.7166 17.5778L22.7176 17.579L22.7194 17.5809L22.7227 17.5845C22.724 17.5859 22.7239 17.5857 22.7235 17.5854C22.7234 17.5853 22.7231 17.585 22.7227 17.5845C22.7211 17.5828 22.7175 17.5791 22.7119 17.5736C22.6977 17.5596 22.6713 17.5343 22.6334 17.5018C22.5569 17.436 22.4383 17.3445 22.2837 17.2553ZM22.7166 17.5778C22.7162 17.5774 22.7159 17.577 22.7155 17.5766L23.4599 16.9088C22.7155 17.5766 22.7163 17.5775 22.7166 17.5778Z" fill="#0033C9"/>
<path fill-rule="evenodd" clip-rule="evenodd" d="M21.1289 13.084C21.6812 13.084 22.1289 13.5317 22.1289 14.084L22.1289 15.9585C22.1289 16.5107 21.6812 16.9585 21.1289 16.9585C20.5766 16.9585 20.1289 16.5107 20.1289 15.9585L20.1289 14.084C20.1289 13.5317 20.5766 13.084 21.1289 13.084Z" fill="#0033C9"/>
<path fill-rule="evenodd" clip-rule="evenodd" d="M21.1289 22.4415C21.6812 22.4415 22.1289 22.8892 22.1289 23.4415L22.1289 25.316C22.1289 25.8683 21.6812 26.316 21.1289 26.316C20.5766 26.316 20.1289 25.8683 20.1289 25.316L20.1289 23.4415C20.1289 22.8892 20.5766 22.4415 21.1289 22.4415Z" fill="#0033C9"/>
</g>
<defs>
<linearGradient id="paint0_linear_1_3857" x1="-2.81746e-08" y1="8.19672" x2="40.9761" y2="9.50848" gradientUnits="userSpaceOnUse">
<stop stop-color="#F0F6FF"/>
<stop offset="0.635417" stop-color="#E8F0FD"/>
<stop offset="1" stop-color="#EEF4FE"/>
</linearGradient>
<clipPath id="clip0_1_3857">
<rect width="40" height="40" fill="white"/>
</clipPath>
</defs>
</svg>
