<svg width="40" height="40" viewBox="0 0 40 40" fill="none" xmlns="http://www.w3.org/2000/svg">
<path fill-rule="evenodd" clip-rule="evenodd" d="M11.1112 1.11108H28.889C34.4118 1.11108 38.889 5.58824 38.889 11.1111V28.8889C38.889 34.4117 34.4118 38.8889 28.889 38.8889H11.1112C5.58836 38.8889 1.11121 34.4117 1.11121 28.8889V11.1111C1.11121 5.58824 5.58836 1.11108 11.1112 1.11108ZM11.1112 2.2222C6.20201 2.2222 2.22232 6.20189 2.22232 11.1111V28.8889C2.22232 33.7981 6.20201 37.7778 11.1112 37.7778H28.889C33.7982 37.7778 37.7779 33.7981 37.7779 28.8889V11.1111C37.7779 6.20189 33.7982 2.2222 28.889 2.2222H11.1112Z" fill="#EEF4FE"/>
<path d="M2.22266 11.1111C2.22266 6.20186 6.20235 2.22217 11.1115 2.22217H28.8893C33.7985 2.22217 37.7782 6.20186 37.7782 11.1111V28.8888C37.7782 33.798 33.7985 37.7777 28.8893 37.7777H11.1115C6.20235 37.7777 2.22266 33.798 2.22266 28.8888V11.1111Z" fill="white"/>
<path d="M3.50098 20.05C3.54492 20.0687 3.57732 20.108 3.58789 20.1545C3.59833 20.2013 3.58473 20.2507 3.55273 20.2864L2.22266 21.7659V21.3206L3.19238 20.2424L2.22266 19.8323V19.51L3.50098 20.05Z" fill="url(#paint0_linear_1_3433)" fill-opacity="0.7"/>
<path d="M37.7783 18.7532L37.2227 19.3713L37.7783 19.6135V19.9368L36.915 19.5608C36.8715 19.5417 36.8392 19.5028 36.8291 19.4563C36.8192 19.4098 36.8325 19.3608 36.8643 19.3254L37.7783 18.3079V18.7532Z" fill="url(#paint1_linear_1_3433)" fill-opacity="0.7"/>
<path d="M20.2197 37.7561C20.4726 37.7561 20.7242 37.7637 20.9746 37.7776H19.499C19.7382 37.7648 19.9786 37.7561 20.2197 37.7561Z" fill="url(#paint2_linear_1_3433)" fill-opacity="0.7"/>
<path d="M6.41309 19.2981C6.45738 19.3168 6.49055 19.3566 6.50098 19.4036C6.51116 19.4505 6.49722 19.4999 6.46484 19.5354L2.22266 24.1897V23.7493L6.10352 19.4905L2.22266 17.8743V17.553L6.41309 19.2981Z" fill="url(#paint3_linear_1_3433)" fill-opacity="0.7"/>
<path d="M37.7783 16.3147L34.3301 20.095L37.7783 21.5764V21.8987L34.0225 20.2854C33.9786 20.2665 33.9459 20.2275 33.9355 20.1809C33.9254 20.134 33.9385 20.0845 33.9707 20.0491L37.7783 15.8733V16.3147Z" fill="url(#paint4_linear_1_3433)" fill-opacity="0.7"/>
<path d="M20.2256 35.4543C22.1421 35.4544 24.0006 35.8186 25.752 36.5334L28.7969 37.7776H28.0127L25.6396 36.8079C23.9243 36.1077 22.1039 35.7513 20.2256 35.7512C18.5572 35.7512 16.9209 36.0349 15.3711 36.595H15.3691C15.1792 36.6615 14.9983 36.7318 14.8203 36.8049L12.4434 37.7776H11.6582L14.708 36.5295C14.89 36.4548 15.0758 36.3832 15.2715 36.3147C16.8538 35.7431 18.5239 35.4543 20.2256 35.4543Z" fill="url(#paint5_linear_1_3433)" fill-opacity="0.7"/>
<path d="M2.29883 15.2239L8.2959 17.7581C8.92594 18.0267 9.57964 18.2762 10.2324 18.5002C10.2795 18.5164 10.3156 18.5556 10.3281 18.6038C10.3404 18.6517 10.3279 18.7026 10.2949 18.7395L3.35254 26.4602L8.86719 37.4915C8.73706 37.4576 8.6082 37.4206 8.48047 37.3811L3.05371 26.5256C3.04795 26.5176 3.04126 26.5095 3.03711 26.5002C3.01347 26.4469 3.0237 26.3846 3.0625 26.3411L9.9248 18.7063C9.50108 18.5573 9.07795 18.3988 8.66211 18.2307L8.18066 18.0315L2.22266 15.5129V14.7131L8.22754 2.70337C8.35745 2.65882 8.48854 2.61699 8.62109 2.57837L2.29883 15.2239Z" fill="url(#paint6_linear_1_3433)" fill-opacity="0.7"/>
<path d="M37.7783 25.7659L32.0654 37.1907C31.9319 37.2418 31.7967 37.2894 31.6602 37.3342L37.7783 25.1008V25.7659Z" fill="url(#paint7_linear_1_3433)" fill-opacity="0.7"/>
<path d="M31.9072 2.74927C32.0462 2.79944 32.1837 2.85262 32.3193 2.90942L37.4072 13.0813C37.4342 13.1356 37.4252 13.2011 37.3848 13.2463L30.5244 20.8782C31.2316 21.1298 31.9328 21.4043 32.6123 21.7014L37.7783 23.9543V24.2786L32.4932 21.9739C31.754 21.6507 30.9886 21.3522 30.2168 21.0833C30.1703 21.0668 30.1345 21.0285 30.1221 20.9807C30.1097 20.9327 30.1222 20.8809 30.1553 20.844L37.0957 13.1233L31.9072 2.74927Z" fill="url(#paint8_linear_1_3433)" fill-opacity="0.7"/>
<path d="M25.7461 3.05396L25.7451 3.05493C25.5599 3.12966 25.3716 3.20064 25.1777 3.27173C23.5952 3.8404 21.9271 4.13013 20.2217 4.13013C18.3085 4.13008 16.4467 3.76585 14.6953 3.05103L12.6641 2.22192H13.4482L14.8076 2.77661C16.5229 3.47669 18.3467 3.83321 20.2217 3.83325C21.8932 3.83325 23.5263 3.54935 25.0762 2.99243C25.2675 2.92227 25.452 2.85248 25.6328 2.77954L26.9932 2.22192H27.7764L25.7461 3.05396Z" fill="url(#paint9_linear_1_3433)" fill-opacity="0.7"/>
<path fill-rule="evenodd" clip-rule="evenodd" d="M30.1034 3.10963C30.1587 3.10901 30.2121 3.13942 30.2382 3.19166L35.0204 12.7561C35.0475 12.8106 35.0387 12.8769 34.998 12.9221L26.9394 21.887C27.8112 22.0962 28.6774 22.3461 29.5292 22.636C30.3046 22.9009 31.0741 23.1985 31.8144 23.5217L35.6581 25.1975C35.6953 25.2138 35.7244 25.2453 35.7382 25.2835C35.7518 25.3216 35.7495 25.3644 35.7314 25.4006L30.2382 36.387C30.2034 36.456 30.1204 36.4865 30.0488 36.4573L26.3886 34.9622C24.4321 34.1624 22.3578 33.7571 20.2255 33.7571C18.3256 33.7571 16.4638 34.0797 14.6952 34.7171C14.48 34.793 14.2689 34.8749 14.0605 34.9583L10.3984 36.4573C10.3267 36.4865 10.2438 36.456 10.2089 36.387L5.44035 26.8489C5.42226 26.8241 5.41119 26.794 5.41106 26.762V26.7551C5.41113 26.7072 5.43494 26.6643 5.4716 26.637L13.5126 17.6907C12.6391 17.4826 11.7729 17.2385 10.9238 16.9485C10.2613 16.7255 9.5988 16.4728 8.95598 16.2014L4.76848 14.4329C4.73081 14.417 4.70071 14.3853 4.68645 14.3469C4.67251 14.3088 4.67526 14.2662 4.69328 14.2297L10.2089 3.1985C10.2435 3.12922 10.3256 3.09816 10.3974 3.12721L14.0575 4.61939C16.0142 5.41924 18.0898 5.82447 20.2255 5.82447C22.1253 5.82443 23.9868 5.50172 25.7519 4.86451C25.9676 4.78838 26.1819 4.70526 26.3886 4.61939L30.0488 3.12037L30.1034 3.10963ZM26.5019 4.89381C26.2908 4.98149 26.0729 5.06664 25.8515 5.14478L25.8505 5.14381C24.0529 5.79252 22.1585 6.1213 20.2255 6.12135C18.0517 6.12134 15.938 5.70841 13.9452 4.89381L10.413 3.45338L5.02922 14.221L9.07121 15.928C9.70792 16.1967 10.3638 16.4466 11.0195 16.6672C11.9371 16.9806 12.8758 17.2436 13.8232 17.4612C13.8742 17.4731 13.9148 17.5108 13.9306 17.5608C13.9462 17.6107 13.9351 17.6654 13.9003 17.7044L5.73918 26.7825L10.412 36.1301L13.9491 34.6838C14.1584 34.6002 14.374 34.515 14.5956 34.4368C16.3967 33.7879 18.2922 33.4602 20.2255 33.4602C22.3959 33.4603 24.5083 33.8732 26.5009 34.6878L30.0341 36.1301L35.3954 25.4075L31.6962 23.7942C30.9638 23.4744 30.2015 23.1796 29.4335 22.9172C28.5119 22.6036 27.5744 22.335 26.6308 22.1174C26.5798 22.1057 26.5383 22.0677 26.5224 22.0178C26.5066 21.9678 26.5187 21.9124 26.5536 21.8733L34.7089 12.7981L30.0341 3.44752L26.5019 4.89381Z" fill="url(#paint10_linear_1_3433)" fill-opacity="0.7"/>
<path fill-rule="evenodd" clip-rule="evenodd" d="M29.1405 5.65602C29.1957 5.65547 29.2492 5.68599 29.2753 5.73805L32.6259 12.4402C32.6531 12.4947 32.6441 12.5609 32.6034 12.6062L23.0458 23.2381C25.0202 23.4449 26.9757 23.8728 28.8778 24.5232C29.5988 24.7689 30.3173 25.0473 31.0126 25.3513L32.9354 26.1912C32.9726 26.2074 33.0016 26.2381 33.0155 26.2761C33.0294 26.3144 33.0268 26.3569 33.0087 26.3933L29.2782 33.8582C29.2435 33.9275 29.1606 33.9578 29.0888 33.9285L27.1366 33.1316C24.942 32.2353 22.6134 31.7791 20.2206 31.7791C18.0893 31.7791 16.0026 32.1426 14.0184 32.8572C13.7768 32.9431 13.5372 33.036 13.3046 33.1316L11.3485 33.9324C11.2768 33.9617 11.1948 33.9304 11.16 33.8611L7.80849 27.1589C7.79829 27.1385 7.79291 27.1154 7.79286 27.0925V27.0828C7.79291 27.0462 7.8065 27.0104 7.83095 26.9832L17.4003 16.3347C15.4085 16.1282 13.4498 15.7047 11.5595 15.0632C10.9423 14.8532 10.3248 14.6202 9.72646 14.3679L7.4911 13.4256C7.45337 13.4096 7.42328 13.378 7.40907 13.3396C7.39514 13.3014 7.39779 13.2589 7.41591 13.2224L11.1561 5.73805L11.1903 5.69313C11.2314 5.65668 11.2918 5.64486 11.3456 5.66676L13.2977 6.46461C15.4924 7.36095 17.8215 7.81714 20.2177 7.81715C22.3487 7.8171 24.4348 7.45324 26.4188 6.74196C26.6607 6.65603 26.9009 6.56322 27.1337 6.46754L29.0858 5.66676L29.1405 5.65602ZM27.246 6.74293C27.0094 6.84014 26.7662 6.93455 26.5194 7.02223C24.503 7.74515 22.3829 8.11397 20.2177 8.11403C17.7833 8.11401 15.4161 7.65008 13.1854 6.73903L11.3593 5.99391L7.75185 13.2136L9.84169 14.0945C10.433 14.3438 11.0441 14.574 11.6552 14.782C13.6154 15.4471 15.6495 15.8791 17.7186 16.0711C17.7743 16.0762 17.8231 16.1119 17.8436 16.1638C17.8641 16.2161 17.8528 16.2754 17.8153 16.3172L8.11513 27.1091L11.3622 33.6043L13.1913 32.8562C13.4277 32.759 13.6712 32.6655 13.9179 32.5779L14.2968 32.4461C16.1995 31.8069 18.1904 31.4822 20.2206 31.4822C22.6516 31.4822 25.0185 31.9453 27.2489 32.8562L29.0741 33.6013L32.6727 26.4002L30.8934 25.6238C30.3778 25.3984 29.8491 25.1869 29.3163 24.9929L28.7821 24.8045C26.8089 24.1297 24.7781 23.6946 22.7284 23.5027C22.6726 23.4974 22.6238 23.4612 22.6034 23.4089C22.5832 23.3568 22.5943 23.2972 22.6317 23.2556L32.3143 12.4822L29.0712 5.99391L27.246 6.74293Z" fill="url(#paint11_linear_1_3433)" fill-opacity="0.7"/>
<path d="M30.1104 12.179L18.3066 25.3079C21.1272 25.0763 24.5208 25.2911 28.1904 26.5422H28.1865C28.833 26.7609 29.4895 27.0155 30.1553 27.3049L28.1865 31.2444L27.9424 31.1448C25.4885 30.1414 22.8894 29.6331 20.2168 29.6331C17.8371 29.6331 15.5089 30.0387 13.29 30.8362C13.0231 30.9327 12.7527 31.0357 12.4922 31.1418L12.248 31.2415L10.3271 27.4016L22.1338 14.2698C21.4972 14.318 20.8573 14.344 20.2207 14.344C17.4807 14.344 14.8047 13.9066 12.248 13.0383C11.6789 12.8486 11.1159 12.6324 10.5596 12.3977L10.2793 12.2786L12.248 8.33911L12.4922 8.43872C14.9427 9.43886 17.5444 9.94745 20.2168 9.94751C22.5967 9.94751 24.9287 9.54192 27.1445 8.74438C27.4146 8.64793 27.6817 8.54481 27.9453 8.43872L28.1904 8.33911L30.1104 12.179Z" fill="url(#paint12_linear_1_3433)"/>
<defs>
<linearGradient id="paint0_linear_1_3433" x1="7.9112" y1="21.7727" x2="8.24709" y2="16.111" gradientUnits="userSpaceOnUse">
<stop offset="0.0128956" stop-color="#E8E8E8"/>
<stop offset="0.429033" stop-color="#E8E8E8" stop-opacity="0.15"/>
<stop offset="0.839867" stop-color="#E8E8E8"/>
</linearGradient>
<linearGradient id="paint1_linear_1_3433" x1="7.9112" y1="21.7727" x2="8.24709" y2="16.111" gradientUnits="userSpaceOnUse">
<stop offset="0.0128956" stop-color="#E8E8E8"/>
<stop offset="0.429033" stop-color="#E8E8E8" stop-opacity="0.15"/>
<stop offset="0.839867" stop-color="#E8E8E8"/>
</linearGradient>
<linearGradient id="paint2_linear_1_3433" x1="7.9112" y1="37.8211" x2="19.7622" y2="6.28476" gradientUnits="userSpaceOnUse">
<stop offset="0.0128956" stop-color="#E8E8E8"/>
<stop offset="0.429033" stop-color="#E8E8E8" stop-opacity="0.15"/>
<stop offset="0.839867" stop-color="#E8E8E8"/>
</linearGradient>
<linearGradient id="paint3_linear_1_3433" x1="7.9112" y1="37.8211" x2="19.7622" y2="6.28476" gradientUnits="userSpaceOnUse">
<stop offset="0.0128956" stop-color="#E8E8E8"/>
<stop offset="0.429033" stop-color="#E8E8E8" stop-opacity="0.15"/>
<stop offset="0.839867" stop-color="#E8E8E8"/>
</linearGradient>
<linearGradient id="paint4_linear_1_3433" x1="7.9112" y1="37.8211" x2="19.7622" y2="6.28476" gradientUnits="userSpaceOnUse">
<stop offset="0.0128956" stop-color="#E8E8E8"/>
<stop offset="0.429033" stop-color="#E8E8E8" stop-opacity="0.15"/>
<stop offset="0.839867" stop-color="#E8E8E8"/>
</linearGradient>
<linearGradient id="paint5_linear_1_3433" x1="7.9112" y1="37.8483" x2="33.8829" y2="-4.72895" gradientUnits="userSpaceOnUse">
<stop offset="0.0128956" stop-color="#E8E8E8"/>
<stop offset="0.429033" stop-color="#E8E8E8" stop-opacity="0.15"/>
<stop offset="0.839867" stop-color="#E8E8E8"/>
</linearGradient>
<linearGradient id="paint6_linear_1_3433" x1="7.9112" y1="37.8483" x2="33.8829" y2="-4.72895" gradientUnits="userSpaceOnUse">
<stop offset="0.0128956" stop-color="#E8E8E8"/>
<stop offset="0.429033" stop-color="#E8E8E8" stop-opacity="0.15"/>
<stop offset="0.839867" stop-color="#E8E8E8"/>
</linearGradient>
<linearGradient id="paint7_linear_1_3433" x1="7.9112" y1="37.8483" x2="33.8829" y2="-4.72895" gradientUnits="userSpaceOnUse">
<stop offset="0.0128956" stop-color="#E8E8E8"/>
<stop offset="0.429033" stop-color="#E8E8E8" stop-opacity="0.15"/>
<stop offset="0.839867" stop-color="#E8E8E8"/>
</linearGradient>
<linearGradient id="paint8_linear_1_3433" x1="7.9112" y1="37.8483" x2="33.8829" y2="-4.72895" gradientUnits="userSpaceOnUse">
<stop offset="0.0128956" stop-color="#E8E8E8"/>
<stop offset="0.429033" stop-color="#E8E8E8" stop-opacity="0.15"/>
<stop offset="0.839867" stop-color="#E8E8E8"/>
</linearGradient>
<linearGradient id="paint9_linear_1_3433" x1="7.9112" y1="37.8483" x2="33.8829" y2="-4.72895" gradientUnits="userSpaceOnUse">
<stop offset="0.0128956" stop-color="#E8E8E8"/>
<stop offset="0.429033" stop-color="#E8E8E8" stop-opacity="0.15"/>
<stop offset="0.839867" stop-color="#E8E8E8"/>
</linearGradient>
<linearGradient id="paint10_linear_1_3433" x1="9.64839" y1="36.5347" x2="34.7699" y2="-1.8223" gradientUnits="userSpaceOnUse">
<stop offset="0.0128956" stop-color="#E8E8E8"/>
<stop offset="0.429033" stop-color="#E8E8E8" stop-opacity="0.15"/>
<stop offset="0.839867" stop-color="#E8E8E8"/>
</linearGradient>
<linearGradient id="paint11_linear_1_3433" x1="11.4998" y1="33.9999" x2="33.0333" y2="2.02244" gradientUnits="userSpaceOnUse">
<stop offset="0.0128956" stop-color="#E8E8E8"/>
<stop offset="0.429033" stop-color="#E8E8E8" stop-opacity="0.15"/>
<stop offset="0.839867" stop-color="#E8E8E8"/>
</linearGradient>
<linearGradient id="paint12_linear_1_3433" x1="20.2172" y1="8.33914" x2="20.2172" y2="31.2447" gradientUnits="userSpaceOnUse">
<stop stop-color="#00DA6A"/>
<stop offset="1" stop-color="#157428"/>
</linearGradient>
</defs>
</svg>
