<svg width="40" height="40" viewBox="0 0 40 40" fill="none" xmlns="http://www.w3.org/2000/svg">
<g clip-path="url(#clip0_1_3500)">
<path d="M39.2129 11.449V11.449C40.2624 17.0781 40.2624 22.8026 39.2129 28.5271V28.5271C38.2588 33.9654 33.9654 38.2588 28.5271 39.2129V39.2129C22.898 40.2624 17.1735 40.2624 11.449 39.2129V39.2129C6.01073 38.2588 1.81276 34.0608 0.858676 28.6225V28.6225C-0.286225 22.9934 -0.286225 17.1735 0.858676 11.449V11.449C1.81276 6.01073 6.01073 1.81276 11.449 0.858676V0.858676C17.0781 -0.286225 22.898 -0.286225 28.6225 0.858676V0.858676C34.0608 1.81276 38.2588 6.01073 39.2129 11.449Z" fill="white"/>
<path fill-rule="evenodd" clip-rule="evenodd" d="M38.2293 28.3468C39.2571 22.7405 39.2565 17.1393 38.2298 11.6323L39.2129 11.449C40.2624 17.0781 40.2624 22.8026 39.2129 28.5271L38.2293 28.3468ZM28.5271 39.2129C33.9654 38.2588 38.2588 33.9654 39.2129 28.5271L38.2279 28.3543C37.3466 33.3779 33.3779 37.3466 28.3543 38.2279L28.5271 39.2129ZM11.449 39.2129C17.1735 40.2624 22.898 40.2624 28.5271 39.2129L28.3438 38.2298C22.8369 39.2565 17.2356 39.2571 11.6293 38.2293L11.449 39.2129ZM28.6225 0.858676L28.4497 1.84363C33.4733 2.72496 37.3466 6.59823 38.2279 11.6218L39.2129 11.449C38.2588 6.01073 34.0608 1.81276 28.6225 0.858676ZM11.449 0.858676C17.0781 -0.286225 22.898 -0.286225 28.6225 0.858676L28.4264 1.83926C22.8303 0.720026 17.1448 0.720683 11.6483 1.83861L11.449 0.858676ZM0.858676 11.449C1.81276 6.01073 6.01073 1.81276 11.449 0.858676L11.6218 1.84363C6.59823 2.72496 2.72496 6.59823 1.84363 11.6218L0.858676 11.449ZM0.858676 11.449L1.83926 11.6451C0.720026 17.2413 0.720683 22.9267 1.83861 28.4232L0.858676 28.6225C-0.286225 22.9934 -0.286225 17.1735 0.858676 11.449ZM0.858676 28.6225C1.81276 34.0608 6.01073 38.2588 11.449 39.2129L11.6218 38.2279C6.59823 37.3466 2.72496 33.4733 1.84363 28.4497L0.858676 28.6225Z" fill="#EEF4FE"/>
<path fill-rule="evenodd" clip-rule="evenodd" d="M11.8008 14.2V16.5999C11.8008 17.1522 11.3531 17.5999 10.8008 17.5999C10.2485 17.5999 9.80078 17.1522 9.80078 16.5999V12.3909C9.80078 9.96588 11.7667 8 14.1917 8H26.2008C27.6367 8 28.8008 9.16406 28.8008 10.6V12.2958C31.435 12.7671 33.5846 14.9289 33.7299 17.7413C33.7769 18.6522 33.8008 19.6516 33.8008 20.9577C33.8008 22.7867 33.754 24.4216 33.6638 26.0239C33.4964 28.9968 31.1153 31.3113 28.2128 31.6019C26.1214 31.8113 23.9345 32 21.6917 32C19.365 32 17.0976 31.7969 14.9346 31.5782C12.1931 31.301 9.82723 29.107 9.80341 26.2082C9.79887 25.656 10.2429 25.2046 10.7952 25.2C11.3474 25.1955 11.7988 25.6395 11.8033 26.1918C11.8176 27.9301 13.2636 29.399 15.1358 29.5883C17.2911 29.8062 19.473 30 21.6917 30C23.8296 30 25.9341 29.8201 28.0135 29.6119C29.9973 29.4133 31.5583 27.8415 31.667 25.9115C31.755 24.3485 31.8008 22.7511 31.8008 20.9577C31.8008 19.6765 31.7774 18.7127 31.7325 17.8445C31.6273 15.8075 29.8503 14.2 27.7205 14.2L11.8008 14.2ZM11.8083 12.2C11.9056 10.9688 12.9355 10 14.1917 10H26.2008C26.5322 10 26.8008 10.2686 26.8008 10.6V12.2L11.8083 12.2Z" fill="#0033C9"/>
<path d="M9.38091 22.9754C9.72592 23.4066 9.65599 24.0359 9.22473 24.3809C8.79347 24.7259 8.16418 24.656 7.81917 24.2248L6.23058 22.239C6.17942 22.1776 6.1366 22.111 6.10228 22.041C5.96429 21.7608 5.96773 21.4344 6.10166 21.1603C6.13609 21.0899 6.17913 21.0229 6.23061 20.961L7.81917 18.9753C8.16418 18.5441 8.79347 18.4741 9.22473 18.8191C9.65599 19.1642 9.72592 19.7934 9.38091 20.2247L9.1011 20.5745L15 20.5745C15.5523 20.5745 16 21.0222 16 21.5745C16 22.1267 15.5523 22.5745 15 22.5745L9.06018 22.5745L9.38091 22.9754Z" fill="#00CF6A"/>
<path d="M29 19C28.4477 19 28 19.4477 28 20V23C28 23.5523 28.4477 24 29 24C29.5523 24 30 23.5523 30 23V20C30 19.4477 29.5523 19 29 19Z" fill="#00CF6A"/>
</g>
<defs>
<clipPath id="clip0_1_3500">
<rect width="40" height="40" fill="white"/>
</clipPath>
</defs>
</svg>
