<svg width="40" height="40" viewBox="0 0 40 40" fill="none" xmlns="http://www.w3.org/2000/svg">
<g clip-path="url(#clip0_1_6142)">
<path d="M11.5488 1.34863C17.1115 0.217257 22.8642 0.216603 28.5244 1.34863L28.6221 0.858398L28.5361 1.35156C33.767 2.26928 37.8029 6.30434 38.7207 11.5352L39.2129 11.4492L38.7217 11.541C39.7597 17.1088 39.7593 22.7714 38.7207 28.4365L39.2129 28.5273L38.7207 28.4404C37.803 33.6714 33.6714 37.803 28.4404 38.7207L28.5205 39.1758L28.4355 38.7217C22.8675 39.7598 17.2045 39.7594 11.5391 38.7207L11.4668 39.1143L11.5352 38.7207C6.30434 37.8029 2.26928 33.767 1.35156 28.5361L0.858398 28.6221L1.34863 28.5225C0.217301 22.9598 0.216595 17.2071 1.34863 11.5469L0.858398 11.4492L1.35156 11.5352C2.26936 6.30449 6.30449 2.26936 11.5352 1.35156L11.4492 0.858398L11.5488 1.34863Z" fill="white" stroke="#F0F5FE"/>
<path d="M11.5488 1.34863C17.1115 0.217257 22.8642 0.216603 28.5244 1.34863L28.6221 0.858398L28.5361 1.35156C33.767 2.26928 37.8029 6.30434 38.7207 11.5352L39.2129 11.4492L38.7217 11.541C39.7597 17.1088 39.7593 22.7714 38.7207 28.4365L39.2129 28.5273L38.7207 28.4404C37.803 33.6714 33.6714 37.803 28.4404 38.7207L28.5205 39.1758L28.4355 38.7217C22.8675 39.7598 17.2045 39.7594 11.5391 38.7207L11.4668 39.1143L11.5352 38.7207C6.30434 37.8029 2.26928 33.767 1.35156 28.5361L0.858398 28.6221L1.34863 28.5225C0.217301 22.9598 0.216595 17.2071 1.34863 11.5469L0.858398 11.4492L1.35156 11.5352C2.26936 6.30449 6.30449 2.26936 11.5352 1.35156L11.4492 0.858398L11.5488 1.34863Z" stroke="#F0F5FE"/>
<path d="M22.7799 12.3506C23.2023 11.91 23.9182 11.8808 24.3785 12.285C25.5193 13.2875 26.4309 14.484 27.0543 15.8085C27.6778 17.1335 27.9999 18.5585 28 19.9994C28 21.4403 27.6778 22.8653 27.0543 24.1903C26.4308 25.5151 25.5195 26.7122 24.3785 27.7148C23.9182 28.1193 23.2023 28.09 22.7799 27.6493C22.3578 27.2085 22.3882 26.523 22.8484 26.1187C23.7704 25.3084 24.4967 24.35 24.9906 23.3007C25.4842 22.2517 25.7374 21.1297 25.7374 19.9994C25.7373 18.8693 25.4842 17.748 24.9906 16.6991C24.4967 15.6499 23.7705 14.6904 22.8484 13.8802C22.3887 13.4757 22.3578 12.7912 22.7799 12.3506Z" fill="#00CF6A"/>
<path d="M18.9993 14.0039C19.4398 13.5798 20.1559 13.578 20.599 13.9997C21.4506 14.8101 22.1263 15.7726 22.5876 16.8324C23.0489 17.8924 23.287 19.0294 23.287 20.1771C23.2869 21.3248 23.0489 22.4618 22.5876 23.5218C22.1263 24.5816 21.4506 25.5452 20.599 26.3556C20.1558 26.7766 19.4395 26.7743 18.9993 26.3503C18.559 25.9262 18.5611 25.2404 19.0037 24.8186C19.6445 24.2088 20.1531 23.4844 20.4996 22.6883C20.846 21.8922 21.0243 21.0385 21.0244 20.1771C21.0243 19.3156 20.846 18.4622 20.4996 17.666C20.1531 16.8697 19.6446 16.1455 19.0037 15.5356C18.561 15.114 18.5593 14.4282 18.9993 14.0039Z" fill="#00CF6A"/>
<path d="M15.3667 15.7196C15.7892 15.2789 16.505 15.2497 16.9654 15.6541C17.6399 16.2468 18.181 16.9562 18.5519 17.7442C18.9229 18.5327 19.1153 19.3818 19.1153 20.2416C19.1153 21.1015 18.9229 21.9506 18.5519 22.7391C18.181 23.5271 17.64 24.2364 16.9654 24.8292C16.505 25.2337 15.7892 25.2044 15.3667 24.7636C14.9448 24.323 14.9754 23.6385 15.4352 23.2341C15.891 22.8337 16.2479 22.3621 16.4892 21.8495C16.7303 21.3371 16.8527 20.7907 16.8527 20.2416C16.8527 19.6926 16.7303 19.1462 16.4892 18.6338C16.2479 18.1213 15.8909 17.6496 15.4352 17.2492C14.9754 16.8447 14.9447 16.1603 15.3667 15.7196Z" fill="#00CF6A"/>
<path d="M12.2976 17.4047C12.7201 16.9639 13.4359 16.9346 13.8963 17.3391C14.3157 17.7078 14.6545 18.151 14.8873 18.6455C15.1201 19.1404 15.2419 19.6754 15.2419 20.2173C15.2418 20.7593 15.1202 21.2942 14.8873 21.7892C14.6544 22.2837 14.3158 22.7268 13.8963 23.0955C13.4361 23.4998 12.7201 23.4702 12.2976 23.0299C11.8755 22.5892 11.906 21.9037 12.3661 21.4993C12.5669 21.323 12.7214 21.1177 12.8246 20.8985C12.9275 20.6798 12.9792 20.4483 12.9793 20.2173C12.9793 19.9862 12.9275 19.7539 12.8246 19.535C12.7215 19.3161 12.5666 19.1105 12.3661 18.9342C11.9064 18.5298 11.8758 17.8453 12.2976 17.4047Z" fill="#00CF6A"/>
<path fill-rule="evenodd" clip-rule="evenodd" d="M20 6C27.732 6 34 12.268 34 20C34 27.732 27.732 34 20 34C12.268 34 6 27.732 6 20C6 12.268 12.268 6 20 6ZM20 8C13.3726 8 8 13.3726 8 20C8 26.6274 13.3726 32 20 32C26.6274 32 32 26.6274 32 20C32 13.3726 26.6274 8 20 8Z" fill="#0033C9"/>
</g>
<defs>
<clipPath id="clip0_1_6142">
<rect width="40" height="40" fill="white"/>
</clipPath>
</defs>
</svg>
