<svg width="40" height="40" viewBox="0 0 40 40" fill="none" xmlns="http://www.w3.org/2000/svg">
<g clip-path="url(#clip0_1_3484)">
<path d="M39.2129 11.449C40.2624 17.0781 40.2624 22.8026 39.2129 28.5271C38.2588 33.9654 33.9654 38.2588 28.5271 39.2129C22.898 40.2624 17.1735 40.2624 11.449 39.2129C6.01073 38.2588 1.81276 34.0608 0.858676 28.6225C-0.286225 22.9934 -0.286225 17.1735 0.858676 11.449C1.81276 6.01073 6.01073 1.81276 11.449 0.858676C17.0781 -0.286225 22.898 -0.286225 28.6225 0.858676C34.0608 1.81276 38.2588 6.01073 39.2129 11.449Z" fill="white"/>
<path fill-rule="evenodd" clip-rule="evenodd" d="M38.2293 28.3468C39.2571 22.7405 39.2565 17.1393 38.2298 11.6323L39.2129 11.449C40.2624 17.0781 40.2624 22.8026 39.2129 28.5271L38.2293 28.3468ZM28.5271 39.2129C33.9654 38.2588 38.2588 33.9654 39.2129 28.5271L38.2279 28.3543C37.3466 33.3779 33.3779 37.3466 28.3543 38.2279L28.5271 39.2129ZM11.449 39.2129C17.1735 40.2624 22.898 40.2624 28.5271 39.2129L28.3438 38.2298C22.8369 39.2565 17.2356 39.2571 11.6293 38.2293L11.449 39.2129ZM28.6225 0.858676L28.4497 1.84363C33.4733 2.72496 37.3466 6.59823 38.2279 11.6218L39.2129 11.449C38.2588 6.01073 34.0608 1.81276 28.6225 0.858676ZM11.449 0.858676C17.0781 -0.286225 22.898 -0.286225 28.6225 0.858676L28.4264 1.83926C22.8303 0.720026 17.1448 0.720683 11.6483 1.83861L11.449 0.858676ZM0.858676 11.449C1.81276 6.01073 6.01073 1.81276 11.449 0.858676L11.6218 1.84363C6.59823 2.72496 2.72496 6.59823 1.84363 11.6218L0.858676 11.449ZM0.858676 11.449L1.83926 11.6451C0.720026 17.2413 0.720683 22.9267 1.83861 28.4232L0.858676 28.6225C-0.286225 22.9934 -0.286225 17.1735 0.858676 11.449ZM0.858676 28.6225C1.81276 34.0608 6.01073 38.2588 11.449 39.2129L11.6218 38.2279C6.59823 37.3466 2.72496 33.4733 1.84363 28.4497L0.858676 28.6225Z" fill="#EEF4FE"/>
<path d="M26.1992 7.79993C27.6349 7.80014 28.7986 8.9639 28.7988 10.3995V12.297C31.4329 12.7683 33.5822 14.929 33.7275 17.7413C33.7746 18.6523 33.7988 19.652 33.7988 20.9581C33.7988 22.8204 33.7506 24.5395 33.6572 26.2228C33.4922 29.1957 31.1142 31.5112 28.2109 31.8019C26.1196 32.0113 23.9322 32.2003 21.6895 32.2003C19.0193 32.2003 16.4132 31.931 13.9561 31.6779C13.6005 31.6412 13.2475 31.6056 12.8984 31.5704C12.349 31.515 11.9486 31.0242 12.0039 30.4747C12.0593 29.9255 12.5494 29.5251 13.0986 29.5802C13.4544 29.616 13.811 29.6528 14.168 29.6896C16.6329 29.9432 19.1297 30.2003 21.6895 30.2003C23.8273 30.2003 25.9323 30.0198 28.0117 29.8116C29.9947 29.613 31.553 28.0416 31.6602 26.1115C31.7514 24.4665 31.7988 22.7845 31.7988 20.9581C31.7988 19.6771 31.7753 18.713 31.7305 17.8448C31.6252 15.8079 29.8485 14.2004 27.7188 14.2003H11.0498C11.0071 14.2003 10.9652 14.1958 10.9238 14.1906C10.8828 14.1957 10.8412 14.2003 10.7988 14.2003C10.2467 14.2003 9.79904 13.7524 9.79883 13.2003V12.1906C9.79898 9.76575 11.7646 7.80008 14.1895 7.79993H26.1992ZM14.1895 9.79993C12.8692 9.80008 11.799 10.8703 11.7988 12.1906V12.2003H26.7988V10.3995C26.7986 10.0685 26.5303 9.80014 26.1992 9.79993H14.1895Z" fill="#0033C9"/>
<path fill-rule="evenodd" clip-rule="evenodd" d="M17.7992 22.1999C17.7992 25.4031 15.2025 27.9999 11.9992 27.9999C8.79596 27.9999 6.19922 25.4031 6.19922 22.1999C6.19922 18.9966 8.79596 16.3999 11.9992 16.3999C15.2025 16.3999 17.7992 18.9966 17.7992 22.1999ZM12.9904 20.2841C12.9904 19.7503 12.5576 19.3175 12.0238 19.3175C11.4899 19.3175 11.0571 19.7503 11.0571 20.2841V21.2579H10.0659C9.532 21.2579 9.09921 21.6907 9.09921 22.2246C9.09921 22.7584 9.532 23.1912 10.0659 23.1912H11.0571V24.1332C11.0571 24.6671 11.4899 25.0999 12.0238 25.0999C12.5576 25.0999 12.9904 24.6671 12.9904 24.1332V23.1912H13.9325C14.4664 23.1912 14.8992 22.7584 14.8992 22.2246C14.8992 21.6907 14.4664 21.2579 13.9325 21.2579H12.9904V20.2841Z" fill="#00D16B"/>
<path d="M29 18.9999C28.4477 18.9999 28 19.4476 28 19.9999V22.9999C28 23.5522 28.4477 23.9999 29 23.9999C29.5523 23.9999 30 23.5522 30 22.9999V19.9999C30 19.4476 29.5523 18.9999 29 18.9999Z" fill="#00D16B"/>
</g>
<defs>
<clipPath id="clip0_1_3484">
<rect width="40" height="40" fill="white"/>
</clipPath>
</defs>
</svg>
