<svg width="40" height="40" viewBox="0 0 40 40" fill="none" xmlns="http://www.w3.org/2000/svg">
<g clip-path="url(#clip0_1_4418)">
<path d="M39.2129 11.449V11.449C40.2624 17.0781 40.2624 22.8026 39.2129 28.5271V28.5271C38.2588 33.9654 33.9654 38.2588 28.5271 39.2129V39.2129C22.898 40.2624 17.1735 40.2624 11.449 39.2129V39.2129C6.01073 38.2588 1.81276 34.0608 0.858676 28.6225V28.6225C-0.286225 22.9934 -0.286225 17.1735 0.858676 11.449V11.449C1.81276 6.01073 6.01073 1.81276 11.449 0.858676V0.858676C17.0781 -0.286225 22.898 -0.286225 28.6225 0.858676V0.858676C34.0608 1.81276 38.2588 6.01073 39.2129 11.449Z" fill="white"/>
<path fill-rule="evenodd" clip-rule="evenodd" d="M38.2293 28.3468C39.2571 22.7405 39.2565 17.1393 38.2298 11.6323L39.2129 11.449C40.2624 17.0781 40.2624 22.8026 39.2129 28.5271L38.2293 28.3468ZM28.5271 39.2129C33.9654 38.2588 38.2588 33.9654 39.2129 28.5271L38.2279 28.3543C37.3466 33.3779 33.3779 37.3466 28.3543 38.2279L28.5271 39.2129ZM11.449 39.2129C17.1735 40.2624 22.898 40.2624 28.5271 39.2129L28.3438 38.2298C22.8369 39.2565 17.2356 39.2571 11.6293 38.2293L11.449 39.2129ZM28.6225 0.858676L28.4497 1.84363C33.4733 2.72496 37.3466 6.59823 38.2279 11.6218L39.2129 11.449C38.2588 6.01073 34.0608 1.81276 28.6225 0.858676ZM11.449 0.858676C17.0781 -0.286225 22.898 -0.286225 28.6225 0.858676L28.4264 1.83926C22.8303 0.720026 17.1448 0.720683 11.6483 1.83861L11.449 0.858676ZM0.858676 11.449C1.81276 6.01073 6.01073 1.81276 11.449 0.858676L11.6218 1.84363C6.59823 2.72496 2.72496 6.59823 1.84363 11.6218L0.858676 11.449ZM0.858676 11.449L1.83926 11.6451C0.720026 17.2413 0.720683 22.9267 1.83861 28.4232L0.858676 28.6225C-0.286225 22.9934 -0.286225 17.1735 0.858676 11.449ZM0.858676 28.6225C1.81276 34.0608 6.01073 38.2588 11.449 39.2129L11.6218 38.2279C6.59823 37.3466 2.72496 33.4733 1.84363 28.4497L0.858676 28.6225Z" fill="#EEF4FE"/>
<path d="M32.0012 19.4362C32.0012 19.2654 31.9651 19.0966 31.8953 18.9407C31.4517 17.9506 30.8221 16.9805 30.2282 16.019C29.9479 15.5653 29.2307 15.5807 28.8586 15.9627C27.4067 17.2829 25.1049 17.2283 23.7173 15.8407L16.9094 22.776C18.3527 24.2094 18.3609 26.6142 16.9275 28.0574C16.5382 28.4366 16.5093 29.1617 16.9612 29.4636C17.8465 30.055 18.7458 30.6802 19.6696 31.0941C19.8254 31.1639 19.9943 31.2 20.165 31.2C20.3358 31.2 20.5047 31.1639 20.6605 31.0941C20.8164 31.0243 20.9557 30.9223 21.0694 30.7949L24.3793 27.503C24.5695 30.6474 28.5419 32.0614 30.7022 29.9011C32.9165 27.6868 31.43 23.7672 28.3042 23.5781L31.596 20.3406C31.7235 20.2269 31.8255 20.0876 31.8953 19.9317C31.9651 19.7758 32.0012 19.607 32.0012 19.4362Z" fill="#00CF6A"/>
<path fill-rule="evenodd" clip-rule="evenodd" d="M20.2366 8.59998C20.2067 8.59998 20.1772 8.60629 20.15 8.61849C20.1227 8.6307 20.0984 8.64852 20.0785 8.6708C20.0652 8.68567 20.0515 8.70015 20.0374 8.7142L16.7275 12.006C16.4475 12.2844 16.03 12.3721 15.6617 12.2297C15.2935 12.0874 15.0435 11.7417 15.0236 11.3474C14.9102 9.1009 12.008 7.98944 10.3989 9.59853C8.80994 11.1875 9.8968 14.1096 12.1478 14.2231C12.5441 14.2431 12.8911 14.4956 13.0321 14.8665C13.1731 15.2374 13.0815 15.6566 12.7986 15.9348L9.50678 19.1724C9.4952 19.1838 9.48334 19.1949 9.47122 19.2057C9.44894 19.2256 9.43111 19.2499 9.41891 19.2772C9.4067 19.3044 9.40039 19.3339 9.40039 19.3638C9.40039 19.3937 9.4067 19.4232 9.41891 19.4504C9.77425 20.2435 10.2882 21.024 10.8487 21.8754C10.886 21.932 10.9235 21.9889 10.9611 22.0462C12.7882 20.2542 15.7927 20.2582 17.6133 22.0664C19.4385 23.8791 19.4586 26.8942 17.6656 28.7322C17.6995 28.7549 17.7332 28.7775 17.7668 28.8C18.5839 29.3475 19.3258 29.8446 20.0776 30.1815C20.1048 30.1937 20.1344 30.2 20.1642 30.2C20.1941 30.2 20.2236 30.1937 20.2508 30.1815C20.2781 30.1693 20.3024 30.1514 20.3223 30.1291C20.3356 30.1143 20.3493 30.0998 20.3634 30.0858L23.6733 26.7939C23.952 26.5168 24.3671 26.4286 24.7344 26.5684C25.1017 26.7083 25.3529 27.0503 25.3767 27.4426C25.5132 29.7009 28.4254 30.7628 29.9943 29.1939C31.599 27.5892 30.5083 24.7132 28.243 24.5763C27.8487 24.5524 27.5054 24.2987 27.3669 23.9288C27.2284 23.5589 27.3205 23.1421 27.6022 22.8651L30.894 19.6275C30.9056 19.6161 30.9174 19.605 30.9296 19.5942C30.9518 19.5744 30.9697 19.55 30.9819 19.5228C30.9941 19.4955 31.0004 19.466 31.0004 19.4361C31.0004 19.4063 30.9941 19.3768 30.9819 19.3495C30.6271 18.5576 30.1424 17.7777 29.6196 16.9363C29.5781 16.8696 29.5364 16.8024 29.4945 16.7349C27.646 18.3809 24.763 18.3014 23.0093 16.5477C21.2536 14.7919 21.176 11.9041 22.8281 10.0559C22.7755 10.0228 22.7232 9.98984 22.6711 9.95706C21.8493 9.43971 21.0916 8.96279 20.3232 8.61849C20.2959 8.60629 20.2664 8.59998 20.2366 8.59998ZM19.3322 6.79331C19.6167 6.66586 19.9249 6.59998 20.2366 6.59998C20.5483 6.59998 20.8565 6.66586 21.1409 6.79331C22.0482 7.19981 22.9352 7.75903 23.7422 8.2678C23.854 8.33828 23.9642 8.40779 24.0728 8.47579C24.6518 8.83849 24.8732 9.44609 24.8818 9.96118C24.89 10.4585 24.7092 10.9931 24.3194 11.3886C23.3737 12.4466 23.4187 14.1286 24.4236 15.1335C25.4284 16.1384 27.1105 16.1834 28.1685 15.2377C28.5644 14.8476 29.0995 14.6678 29.5966 14.6776C30.1115 14.6876 30.7188 14.9116 31.0782 15.4934C31.1541 15.6164 31.2318 15.7413 31.3107 15.868C31.8276 16.6986 32.3923 17.6061 32.8071 18.5318C32.9345 18.8162 33.0004 19.1244 33.0004 19.4361C33.0004 19.7479 32.9345 20.056 32.8071 20.3405C32.6834 20.6164 32.5046 20.864 32.2817 21.068L30.225 23.0907C32.8593 24.4692 33.7454 28.2712 31.4085 30.6081C29.1232 32.8934 25.2645 32.0626 23.8825 29.4066L21.7918 31.4859C21.5886 31.7067 21.3426 31.8839 21.0686 32.0066C20.7841 32.1341 20.4759 32.2 20.1642 32.2C19.8525 32.2 19.5443 32.1341 19.2599 32.0066C18.3428 31.5958 17.4556 31.0001 16.6656 30.4698C16.5775 30.4106 16.4905 30.3523 16.4049 30.2951C15.8395 29.9174 15.6292 29.3086 15.6281 28.7917C15.627 28.284 15.8201 27.7436 16.2215 27.3483C17.2613 26.2964 17.2538 24.5282 16.2039 23.4855C15.1534 22.4421 13.3838 22.4473 12.3392 23.4962C11.9432 23.9001 11.4003 24.0928 10.8917 24.0895C10.3749 24.0861 9.76671 23.8722 9.39355 23.3027C9.32368 23.1961 9.25216 23.0877 9.17956 22.9776C8.63069 22.1455 8.02023 21.2201 7.59372 20.2682C7.46628 19.9837 7.40039 19.6755 7.40039 19.3638C7.40039 19.0521 7.46628 18.7439 7.59372 18.4594C7.71735 18.1835 7.89621 17.9359 8.11914 17.732L10.1656 15.7192C7.51128 14.3382 6.70396 10.4651 8.98473 8.18431C11.3073 5.86171 15.1606 6.72864 16.5276 9.38413L18.609 7.31406C18.8122 7.09329 19.0582 6.91608 19.3322 6.79331Z" fill="#0033C9"/>
</g>
<defs>
<clipPath id="clip0_1_4418">
<rect width="40" height="40" fill="white"/>
</clipPath>
</defs>
</svg>
