<svg width="40" height="40" viewBox="0 0 40 40" fill="none" xmlns="http://www.w3.org/2000/svg">
<g clip-path="url(#clip0_1_4735)">
<path d="M39.2129 11.449V11.449C40.2624 17.0781 40.2624 22.8026 39.2129 28.5271V28.5271C38.2588 33.9654 33.9654 38.2588 28.5271 39.2129V39.2129C22.898 40.2624 17.1735 40.2624 11.449 39.2129V39.2129C6.01073 38.2588 1.81276 34.0608 0.858676 28.6225V28.6225C-0.286225 22.9934 -0.286225 17.1735 0.858676 11.449V11.449C1.81276 6.01073 6.01073 1.81276 11.449 0.858676V0.858676C17.0781 -0.286225 22.898 -0.286225 28.6225 0.858676V0.858676C34.0608 1.81276 38.2588 6.01073 39.2129 11.449Z" fill="white"/>
<path fill-rule="evenodd" clip-rule="evenodd" d="M38.2293 28.3468C39.2571 22.7405 39.2565 17.1393 38.2298 11.6323L39.2129 11.449C40.2624 17.0781 40.2624 22.8026 39.2129 28.5271L38.2293 28.3468ZM28.5271 39.2129C33.9654 38.2588 38.2588 33.9654 39.2129 28.5271L38.2279 28.3543C37.3466 33.3779 33.3779 37.3466 28.3543 38.2279L28.5271 39.2129ZM11.449 39.2129C17.1735 40.2624 22.898 40.2624 28.5271 39.2129L28.3438 38.2298C22.8369 39.2565 17.2356 39.2571 11.6293 38.2293L11.449 39.2129ZM28.6225 0.858676L28.4497 1.84363C33.4733 2.72496 37.3466 6.59823 38.2279 11.6218L39.2129 11.449C38.2588 6.01073 34.0608 1.81276 28.6225 0.858676ZM11.449 0.858676C17.0781 -0.286225 22.898 -0.286225 28.6225 0.858676L28.4264 1.83926C22.8303 0.720026 17.1448 0.720683 11.6483 1.83861L11.449 0.858676ZM0.858676 11.449C1.81276 6.01073 6.01073 1.81276 11.449 0.858676L11.6218 1.84363C6.59823 2.72496 2.72496 6.59823 1.84363 11.6218L0.858676 11.449ZM0.858676 11.449L1.83926 11.6451C0.720026 17.2413 0.720683 22.9267 1.83861 28.4232L0.858676 28.6225C-0.286225 22.9934 -0.286225 17.1735 0.858676 11.449ZM0.858676 28.6225C1.81276 34.0608 6.01073 38.2588 11.449 39.2129L11.6218 38.2279C6.59823 37.3466 2.72496 33.4733 1.84363 28.4497L0.858676 28.6225Z" fill="#EEF4FE"/>
<path fill-rule="evenodd" clip-rule="evenodd" d="M9.7384 9.89264C10.4524 8.77676 11.6871 8.19995 12.9316 8.19995H23.7069C24.9688 8.19995 26.2164 8.80248 26.8963 9.973C27.8032 11.5345 28.9707 13.8538 29.6125 15.421C29.8218 15.9321 29.5771 16.5161 29.066 16.7254C28.5549 16.9347 27.971 16.69 27.7617 16.1789C27.1607 14.7113 26.0364 12.4747 25.1668 10.9775C24.8898 10.5005 24.3502 10.2 23.7069 10.2H12.9316C12.2869 10.2 11.7272 10.4952 11.423 10.9706C10.6049 12.2492 9.7213 13.8898 9.0816 15.3743C8.76147 16.1172 8.51172 16.7996 8.35994 17.3646C8.19729 17.9701 8.18637 18.3032 8.20967 18.4197C8.21476 18.4452 8.21886 18.4709 8.22196 18.4967C8.31377 19.2617 8.66422 19.77 9.14172 20.1128C9.64342 20.4731 10.3319 20.6796 11.0892 20.706C11.8451 20.7324 12.5952 20.5759 13.1762 20.2936C13.7683 20.006 14.0772 19.6463 14.1772 19.3264C14.3093 18.9036 14.7038 18.6181 15.1466 18.6248C15.5895 18.6314 15.9752 18.9285 16.0946 19.355C16.4279 20.5452 17.6491 21.048 19.0019 20.7733C19.5432 20.6635 20.071 21.0131 20.1809 21.5544C20.2908 22.0956 19.9411 22.6235 19.3998 22.7334C17.9692 23.0238 16.1402 22.7477 15.0123 21.4769C14.7169 21.7237 14.3881 21.9284 14.0501 22.0926C13.1494 22.5302 12.071 22.7415 11.0194 22.7048C9.96918 22.6681 8.87117 22.3807 7.9752 21.7374C7.06303 21.0824 6.40809 20.0891 6.2405 18.7697C6.1346 18.1795 6.25785 17.4807 6.42842 16.8457C6.61392 16.1551 6.90279 15.3766 7.24488 14.5828C7.92962 12.9938 8.86493 11.2577 9.7384 9.89264Z" fill="#0033C9"/>
<path fill-rule="evenodd" clip-rule="evenodd" d="M9.87548 24.0009C10.4273 24.0234 10.8563 24.4891 10.8338 25.0409C10.8005 25.8531 10.9091 26.8138 11.2779 27.6146C11.6315 28.3824 12.213 28.9933 13.197 29.25C15.6449 29.8885 18.5777 29.8884 20.6942 29.6641C21.2434 29.6059 21.7358 30.004 21.794 30.5532C21.8522 31.1024 21.4542 31.5948 20.905 31.653C18.6524 31.8917 15.4566 31.9063 12.6922 31.1852C11.0307 30.7518 10.02 29.6644 9.46131 28.4512C8.91784 27.2711 8.79415 25.968 8.83544 24.9591C8.85802 24.4073 9.32366 23.9783 9.87548 24.0009Z" fill="#0033C9"/>
<path fill-rule="evenodd" clip-rule="evenodd" d="M15.4004 13.2C15.4004 12.6477 15.8481 12.2 16.4004 12.2H20.6004C21.1527 12.2 21.6004 12.6477 21.6004 13.2C21.6004 13.7522 21.1527 14.2 20.6004 14.2H16.4004C15.8481 14.2 15.4004 13.7522 15.4004 13.2Z" fill="#0033C9"/>
<path d="M32.9885 24.692C32.9885 29.7333 27.8947 32.8 27.8947 32.8C27.8947 32.8 22.8008 29.7333 22.8008 24.692C22.8008 23.5169 23.3375 22.1287 24.2927 21.2978C25.248 20.4669 26.5437 20 27.8947 20C29.2456 20 30.5413 20.4669 31.4966 21.2978C32.4519 22.1287 32.9885 23.5169 32.9885 24.692Z" fill="white"/>
<path fill-rule="evenodd" clip-rule="evenodd" d="M28.4104 33.6568L27.8947 32.8L27.3789 33.6568C27.6962 33.8478 28.0931 33.8478 28.4104 33.6568ZM27.8947 31.5894C27.836 31.5462 27.7734 31.4993 27.7073 31.4486C27.2647 31.1091 26.6745 30.6076 26.0867 29.9628C24.8993 28.6604 23.8008 26.864 23.8008 24.692C23.8008 23.7667 24.2403 22.6688 24.949 22.0523C25.7095 21.3908 26.7673 21 27.8947 21C29.022 21 30.0798 21.3908 30.8403 22.0523C31.549 22.6688 31.9885 23.7667 31.9885 24.692C31.9885 26.864 30.89 28.6604 29.7026 29.9628C29.1148 30.6076 28.5247 31.1091 28.082 31.4486C28.0159 31.4993 27.9533 31.5462 27.8947 31.5894ZM27.3782 33.6564C27.3785 33.6566 27.3789 33.6568 27.8947 32.8C28.4104 33.6568 28.4108 33.6566 28.4111 33.6564L28.4119 33.6559L28.4138 33.6547L28.4191 33.6515L28.435 33.6418C28.448 33.6337 28.4658 33.6226 28.4879 33.6085C28.5323 33.5804 28.5944 33.5402 28.6717 33.4881C28.8263 33.3842 29.0422 33.2327 29.2992 33.0356C29.8116 32.6425 30.4949 32.0623 31.1806 31.3102C32.5402 29.8189 33.9885 27.5613 33.9885 24.692C33.9885 23.2671 33.3547 21.5887 32.1529 20.5433C31.0028 19.5429 29.4693 19 27.8947 19C26.32 19 24.7866 19.5429 23.6365 20.5433C22.4346 21.5887 21.8008 23.2671 21.8008 24.692C21.8008 27.5613 23.2492 29.8189 24.6087 31.3102C25.2944 32.0623 25.9777 32.6425 26.4901 33.0356C26.7471 33.2327 26.9631 33.3842 27.1176 33.4881C27.1949 33.5402 27.257 33.5804 27.3014 33.6085C27.3236 33.6226 27.3413 33.6337 27.3543 33.6418L27.3703 33.6515L27.3755 33.6547L27.3774 33.6559L27.3782 33.6564ZM28.4117 31.9441C28.4121 31.9443 28.4122 31.9444 28.412 31.9442L28.4117 31.9441Z" fill="#00CF6A"/>
<path d="M30.1146 24.8327C30.1146 26.059 29.1205 27.0531 27.8942 27.0531C26.6679 27.0531 25.6738 26.059 25.6738 24.8327C25.6738 23.6064 26.6679 22.6123 27.8942 22.6123C29.1205 22.6123 30.1146 23.6064 30.1146 24.8327Z" fill="#00CF6A"/>
</g>
<defs>
<clipPath id="clip0_1_4735">
<rect width="40" height="40" fill="white"/>
</clipPath>
</defs>
</svg>
