<svg width="40" height="40" viewBox="0 0 40 40" fill="none" xmlns="http://www.w3.org/2000/svg">
<g clip-path="url(#clip0_1_4958)">
<path d="M39.2129 11.449V11.449C40.2624 17.0781 40.2624 22.8026 39.2129 28.5271V28.5271C38.2588 33.9654 33.9654 38.2588 28.5271 39.2129V39.2129C22.898 40.2624 17.1735 40.2624 11.449 39.2129V39.2129C6.01073 38.2588 1.81276 34.0608 0.858676 28.6225V28.6225C-0.286225 22.9934 -0.286225 17.1735 0.858676 11.449V11.449C1.81276 6.01073 6.01073 1.81276 11.449 0.858676V0.858676C17.0781 -0.286225 22.898 -0.286225 28.6225 0.858676V0.858676C34.0608 1.81276 38.2588 6.01073 39.2129 11.449Z" fill="white"/>
<path fill-rule="evenodd" clip-rule="evenodd" d="M38.2293 28.3468C39.2571 22.7405 39.2565 17.1393 38.2298 11.6323L39.2129 11.449C40.2624 17.0781 40.2624 22.8026 39.2129 28.5271L38.2293 28.3468ZM28.5271 39.2129C33.9654 38.2588 38.2588 33.9654 39.2129 28.5271L38.2279 28.3543C37.3466 33.3779 33.3779 37.3466 28.3543 38.2279L28.5271 39.2129ZM11.449 39.2129C17.1735 40.2624 22.898 40.2624 28.5271 39.2129L28.3438 38.2298C22.8369 39.2565 17.2356 39.2571 11.6293 38.2293L11.449 39.2129ZM28.6225 0.858676L28.4497 1.84363C33.4733 2.72496 37.3466 6.59823 38.2279 11.6218L39.2129 11.449C38.2588 6.01073 34.0608 1.81276 28.6225 0.858676ZM11.449 0.858676C17.0781 -0.286225 22.898 -0.286225 28.6225 0.858676L28.4264 1.83926C22.8303 0.720026 17.1448 0.720683 11.6483 1.83861L11.449 0.858676ZM0.858676 11.449C1.81276 6.01073 6.01073 1.81276 11.449 0.858676L11.6218 1.84363C6.59823 2.72496 2.72496 6.59823 1.84363 11.6218L0.858676 11.449ZM0.858676 11.449L1.83926 11.6451C0.720026 17.2413 0.720683 22.9267 1.83861 28.4232L0.858676 28.6225C-0.286225 22.9934 -0.286225 17.1735 0.858676 11.449ZM0.858676 28.6225C1.81276 34.0608 6.01073 38.2588 11.449 39.2129L11.6218 38.2279C6.59823 37.3466 2.72496 33.4733 1.84363 28.4497L0.858676 28.6225Z" fill="#EEF4FE"/>
<path fill-rule="evenodd" clip-rule="evenodd" d="M16.7793 17.0002C18.6352 17.0003 19.8187 17.1513 21.334 17.4553C22.0341 17.5958 22.683 18.0309 23.041 18.7122C23.5712 19.7212 23.9336 20.7797 24.0889 21.8792C24.4281 21.9545 24.765 22.0323 25.0986 22.1096C26.0766 22.3363 26.8136 23.0965 27.0684 24.0237L27.0879 24.094L27.1016 24.1448C27.3269 24.9637 27.5995 25.957 27.5996 26.9973C27.5996 27.9998 27.3479 28.9526 27.1299 29.7483C26.8254 30.8598 25.8342 31.6806 24.6602 31.7327C24.5086 31.7394 24.3566 31.7462 24.2041 31.7532C23.8896 32.9837 22.7778 33.8948 21.4492 33.8948C20.2006 33.8948 19.142 33.0902 18.7578 31.9719C18.1109 31.9873 17.4578 31.9993 16.7998 31.9993C16.3086 31.9993 15.8201 31.9926 15.335 31.9836C14.9473 33.0956 13.8926 33.8948 12.6484 33.8948C11.3282 33.8948 10.221 32.9954 9.89844 31.7766C9.57662 31.7615 9.25681 31.7467 8.93945 31.7327C7.76561 31.6804 6.77518 30.8596 6.4707 29.7483C6.25272 28.9526 6 27.9998 6 26.9973C6.00007 25.957 6.27373 24.9637 6.49902 24.1448L6.5127 24.094L6.53809 24.0012C6.78734 23.0937 7.50085 22.3386 8.46289 22.1018C8.81616 22.0148 9.16684 21.93 9.51562 21.8499C9.67317 20.7473 10.0358 19.6756 10.5703 18.678C10.924 18.018 11.5534 17.597 12.2314 17.4553C13.6933 17.1499 14.93 17.0002 16.7793 17.0002ZM12.6484 30.1995C12.1803 30.1995 11.8008 30.579 11.8008 31.0471C11.8009 31.5152 12.1804 31.8948 12.6484 31.8948C13.1165 31.8948 13.496 31.5152 13.4961 31.0471C13.4961 30.5789 13.1166 30.1995 12.6484 30.1995ZM21.4492 30.1995C20.9811 30.1995 20.6016 30.579 20.6016 31.0471C20.6017 31.5152 20.9811 31.8948 21.4492 31.8948C21.9173 31.8948 22.2968 31.5152 22.2969 31.0471C22.2969 30.5789 21.9174 30.1995 21.4492 30.1995ZM16.7793 19.0002C15.0707 19.0002 13.971 19.1344 12.6406 19.4124C12.4855 19.4448 12.3815 19.532 12.333 19.6223C11.9796 20.2819 11.725 20.971 11.5771 21.6692H13.5996C14.1519 21.6692 14.5996 22.1169 14.5996 22.6692C14.5996 23.2214 14.1519 23.6692 13.5996 23.6692H10.5449C10.0184 23.7839 9.4852 23.9091 8.94043 24.0432C8.72972 24.0951 8.53754 24.2735 8.4668 24.5305L8.44141 24.6243C8.20109 25.4982 8.00007 26.2505 8 26.9973C8 27.6964 8.17678 28.4073 8.39941 29.22C8.48056 29.516 8.74443 29.722 9.02832 29.7346C9.383 29.7503 9.7401 29.7666 10.0986 29.7834C10.5644 28.8452 11.5299 28.1995 12.6484 28.1995C13.8446 28.1995 14.8663 28.9376 15.2881 29.9827C15.7894 29.9924 16.2933 29.9993 16.7998 29.9993C17.4757 29.9993 18.147 29.9865 18.8135 29.97C19.2383 28.9314 20.2578 28.1995 21.4492 28.1995C22.5587 28.1995 23.5173 28.8351 23.9873 29.761C24.1826 29.752 24.3773 29.7432 24.5713 29.7346C24.8552 29.722 25.119 29.516 25.2002 29.22C25.4228 28.4073 25.5996 27.6964 25.5996 26.9973C25.5995 26.2505 25.3995 25.4982 25.1592 24.6243L25.1396 24.553C25.0681 24.2926 24.8683 24.1093 24.6465 24.0579C24.0849 23.9277 23.5225 23.7997 22.957 23.6799C22.5136 23.586 22.1882 23.2059 22.165 22.7532C22.1113 21.7021 21.8076 20.664 21.2705 19.6418C21.2182 19.5423 21.1059 19.4494 20.9414 19.4163C19.5387 19.1349 18.4872 19.0003 16.7793 19.0002Z" fill="#0033C9"/>
<path fill-rule="evenodd" clip-rule="evenodd" d="M29.7891 6.14966C30.2585 6.14966 30.6387 6.52983 30.6387 6.99927V8.32935C30.6823 8.3344 30.7262 8.33996 30.7695 8.34497C31.989 8.48614 32.9604 9.45547 33.0977 10.679C33.1021 10.7184 33.1059 10.7584 33.1104 10.7981C33.2487 12.0296 33.3984 13.3598 33.3984 14.7288C33.3984 16.0978 33.2487 17.4279 33.1104 18.6594C33.1059 18.6991 33.1021 18.7391 33.0977 18.7786C32.9603 20.0021 31.9881 20.9706 30.7686 21.1116C30.7041 21.119 30.6393 21.1265 30.5742 21.134C29.7384 21.231 28.8549 21.3337 27.9531 21.3879C27.4797 21.4164 27.0724 21.0557 27.0439 20.5823C27.0155 20.1089 27.3763 19.7018 27.8496 19.6731C28.7018 19.6218 29.5402 19.5249 30.3848 19.427C30.4471 19.4198 30.5099 19.4127 30.5723 19.4055C31.0005 19.3558 31.3428 19.0121 31.3906 18.5872L31.4004 18.5012C31.5413 17.2462 31.6806 15.9999 31.6807 14.7288C31.6807 14.1492 31.6505 13.5746 31.6055 13.0022H21.793C21.748 13.5746 21.7178 14.1492 21.7178 14.7288C21.7176 15.203 21.3327 15.5872 20.8584 15.5872C20.3844 15.5869 20.0001 15.2028 20 14.7288C20 13.3598 20.1498 12.0296 20.2881 10.7981C20.2925 10.7584 20.2964 10.7184 20.3008 10.679C20.438 9.45547 21.4095 8.48614 22.6289 8.34497C22.6963 8.33718 22.765 8.32943 22.833 8.32153C22.8645 8.31788 22.8961 8.31446 22.9277 8.31079V6.99927C22.9277 6.52983 23.3079 6.14966 23.7773 6.14966C24.2468 6.14966 24.627 6.52983 24.627 6.99927V8.1311C25.3018 8.07141 25.9955 8.02954 26.6992 8.02954C27.4615 8.02954 28.2119 8.07994 28.9395 8.14771V6.99927C28.9395 6.52983 29.3196 6.14966 29.7891 6.14966ZM26.6992 9.74731C25.4554 9.74731 24.236 9.88873 23.0039 10.0315C22.9449 10.0383 22.8853 10.0452 22.8262 10.052C22.3978 10.1018 22.0555 10.4453 22.0078 10.8704C22.0046 10.8987 22.0012 10.927 21.998 10.9553C21.985 11.0712 21.9728 11.1873 21.96 11.303H31.4385C31.4256 11.1873 31.4134 11.0712 31.4004 10.9553L31.3906 10.8704C31.3429 10.4453 31.0006 10.1018 30.5723 10.052C30.5132 10.0452 30.4536 10.0383 30.3945 10.0315C29.1625 9.88873 27.943 9.74731 26.6992 9.74731Z" fill="#00CF6A"/>
<path d="M24.3047 15.9319C24.684 15.9319 24.9911 16.2391 24.9912 16.6184C24.9912 16.9979 24.6841 17.3059 24.3047 17.3059H24.2988C23.9194 17.3059 23.6113 16.9979 23.6113 16.6184C23.6115 16.239 23.9194 15.9319 24.2988 15.9319H24.3047Z" fill="#00CF6A"/>
<path d="M26.8477 15.9319C27.2271 15.9319 27.535 16.239 27.5352 16.6184C27.5352 16.9979 27.2271 17.3059 26.8477 17.3059H26.8418C26.4623 17.3059 26.1543 16.9979 26.1543 16.6184C26.1544 16.239 26.4624 15.9319 26.8418 15.9319H26.8477Z" fill="#00CF6A"/>
<path d="M29.3896 15.9319C29.7689 15.932 30.076 16.2391 30.0762 16.6184C30.0762 16.9978 29.769 17.3058 29.3896 17.3059H29.3828C29.0035 17.3057 28.6963 16.9977 28.6963 16.6184C28.6964 16.2392 29.0036 15.9321 29.3828 15.9319H29.3896Z" fill="#00CF6A"/>
<path d="M24.3047 13.8704C24.684 13.8704 24.991 14.1776 24.9912 14.5569C24.9912 14.9363 24.6841 15.2443 24.3047 15.2444H24.2988C23.9194 15.2444 23.6113 14.9364 23.6113 14.5569C23.6116 14.1776 23.9195 13.8704 24.2988 13.8704H24.3047Z" fill="#00CF6A"/>
<path d="M26.8477 13.8704C27.227 13.8704 27.5349 14.1776 27.5352 14.5569C27.5352 14.9364 27.2271 15.2444 26.8477 15.2444H26.8418C26.4623 15.2444 26.1543 14.9364 26.1543 14.5569C26.1545 14.1776 26.4625 13.8704 26.8418 13.8704H26.8477Z" fill="#00CF6A"/>
<path d="M29.3896 13.8704C29.7689 13.8705 30.0759 14.1777 30.0762 14.5569C30.0762 14.9363 29.769 15.2443 29.3896 15.2444H29.3828C29.0035 15.2442 28.6963 14.9362 28.6963 14.5569C28.6965 14.1778 29.0037 13.8706 29.3828 13.8704H29.3896Z" fill="#00CF6A"/>
</g>
<defs>
<clipPath id="clip0_1_4958">
<rect width="40" height="40" fill="white"/>
</clipPath>
</defs>
</svg>
