<svg width="40" height="40" viewBox="0 0 40 40" fill="none" xmlns="http://www.w3.org/2000/svg">
<g clip-path="url(#clip0_1_4403)">
<path d="M39.2129 11.449V11.449C40.2624 17.0781 40.2624 22.8026 39.2129 28.5271V28.5271C38.2588 33.9654 33.9654 38.2588 28.5271 39.2129V39.2129C22.898 40.2624 17.1735 40.2624 11.449 39.2129V39.2129C6.01073 38.2588 1.81276 34.0608 0.858676 28.6225V28.6225C-0.286225 22.9934 -0.286225 17.1735 0.858676 11.449V11.449C1.81276 6.01073 6.01073 1.81276 11.449 0.858676V0.858676C17.0781 -0.286225 22.898 -0.286225 28.6225 0.858676V0.858676C34.0608 1.81276 38.2588 6.01073 39.2129 11.449Z" fill="white"/>
<path fill-rule="evenodd" clip-rule="evenodd" d="M38.2293 28.3468C39.2571 22.7405 39.2565 17.1393 38.2298 11.6323L39.2129 11.449C40.2624 17.0781 40.2624 22.8026 39.2129 28.5271L38.2293 28.3468ZM28.5271 39.2129C33.9654 38.2588 38.2588 33.9654 39.2129 28.5271L38.2279 28.3543C37.3466 33.3779 33.3779 37.3466 28.3543 38.2279L28.5271 39.2129ZM11.449 39.2129C17.1735 40.2624 22.898 40.2624 28.5271 39.2129L28.3438 38.2298C22.8369 39.2565 17.2356 39.2571 11.6293 38.2293L11.449 39.2129ZM28.6225 0.858676L28.4497 1.84363C33.4733 2.72496 37.3466 6.59823 38.2279 11.6218L39.2129 11.449C38.2588 6.01073 34.0608 1.81276 28.6225 0.858676ZM11.449 0.858676C17.0781 -0.286225 22.898 -0.286225 28.6225 0.858676L28.4264 1.83926C22.8303 0.720026 17.1448 0.720683 11.6483 1.83861L11.449 0.858676ZM0.858676 11.449C1.81276 6.01073 6.01073 1.81276 11.449 0.858676L11.6218 1.84363C6.59823 2.72496 2.72496 6.59823 1.84363 11.6218L0.858676 11.449ZM0.858676 11.449L1.83926 11.6451C0.720026 17.2413 0.720683 22.9267 1.83861 28.4232L0.858676 28.6225C-0.286225 22.9934 -0.286225 17.1735 0.858676 11.449ZM0.858676 28.6225C1.81276 34.0608 6.01073 38.2588 11.449 39.2129L11.6218 38.2279C6.59823 37.3466 2.72496 33.4733 1.84363 28.4497L0.858676 28.6225Z" fill="#EEF4FE"/>
<path fill-rule="evenodd" clip-rule="evenodd" d="M24.8266 9.91087C26.2711 9.99642 27.579 10.139 28.3532 10.3839C29.6993 10.8096 30.7148 11.8882 31.4844 13.2246C32.259 14.5697 32.8525 16.2909 33.3084 18.2159C34.2192 22.0619 34.2518 24.3074 33.5357 26.696C33.1173 28.0914 32.2215 28.8801 31.2624 29.3013C30.3644 29.6958 29.4211 29.7623 28.8649 29.8015L28.8495 29.8026C27.3546 29.9081 25.763 29.2582 24.4546 27.688C23.5402 26.5906 22.8194 25.6682 22.5673 25.3359C22.5464 25.3084 22.527 25.2798 22.5091 25.2503C22.514 25.2585 22.512 25.2567 22.5024 25.2478C22.4492 25.1987 22.1611 24.9326 21.5049 24.9326H18.7302C18.074 24.9326 17.7859 25.1987 17.7327 25.2478C17.7231 25.2567 17.7211 25.2585 17.726 25.2503C17.7081 25.2798 17.6887 25.3084 17.6678 25.3359C17.4157 25.6682 16.6949 26.5906 15.7805 27.688C14.4721 29.2582 12.8805 29.9081 11.3856 29.8026L11.3702 29.8015C10.8141 29.7623 9.87069 29.6958 8.97269 29.3013C8.0136 28.8801 7.11781 28.0914 6.69946 26.696C5.98333 24.3074 6.01593 22.0619 6.92672 18.2159C7.3826 16.2909 7.97613 14.5697 8.75073 13.2246C9.52029 11.8882 10.5358 10.8096 11.8819 10.3839C12.5054 10.1867 13.706 10.0557 15.0602 9.96524C16.4633 9.87148 18.1663 9.81443 19.8833 9.80234C21.5999 9.79026 23.3434 9.82303 24.8266 9.91087ZM15.1935 11.9608C13.7891 12.0546 12.8379 12.1792 12.485 12.2908C11.8105 12.5041 11.1288 13.1028 10.4839 14.2227C9.84408 15.3337 9.30608 16.8476 8.87289 18.6768C8.00556 22.3393 8.03816 24.1969 8.61521 26.1216C8.84345 26.8829 9.28126 27.2524 9.777 27.4702C10.3254 27.7111 10.9489 27.7668 11.5265 27.8076C12.2947 27.8618 13.2894 27.5532 14.2441 26.4076C15.1115 25.3666 15.7969 24.4912 16.0509 24.158C16.43 23.5847 17.3503 22.9326 18.7302 22.9326H21.5049C22.8848 22.9326 23.8051 23.5847 24.1842 24.158C24.4382 24.4912 25.1236 25.3666 25.991 26.4076C26.9457 27.5532 27.9404 27.8618 28.7086 27.8076C29.2862 27.7668 29.9097 27.7111 30.4581 27.4702C30.9539 27.2524 31.3917 26.8829 31.6199 26.1216C32.1969 24.1969 32.2295 22.3393 31.3622 18.6768C30.929 16.8476 30.391 15.3337 29.7512 14.2227C29.1064 13.1028 28.4246 12.5041 27.7501 12.2908C27.245 12.131 26.1739 11.9942 24.7083 11.9074C23.2814 11.8229 21.5839 11.7904 19.8974 11.8023C18.2112 11.8142 16.5489 11.8702 15.1935 11.9608Z" fill="#0033C9"/>
<path d="M13.3347 16.3851C13.3347 15.756 13.8446 15.2461 14.4737 15.2461C15.1027 15.2461 15.6126 15.756 15.6126 16.3851V17.3817H16.6092C17.2383 17.3817 17.7482 17.8916 17.7482 18.5207C17.7482 19.1497 17.2383 19.6596 16.6092 19.6596H15.6126V20.6562C15.6126 21.2853 15.1027 21.7952 14.4737 21.7952C13.8446 21.7952 13.3347 21.2853 13.3347 20.6562V19.6596H12.3381C11.709 19.6596 11.1991 19.1497 11.1991 18.5207C11.1991 17.8916 11.709 17.3817 12.3381 17.3817H13.3347V16.3851Z" fill="#00CF6A"/>
<path d="M27.1772 16.3851C27.1772 17.0141 26.6673 17.5241 26.0383 17.5241C25.4092 17.5241 24.8993 17.0141 24.8993 16.3851C24.8993 15.756 25.4092 15.2461 26.0383 15.2461C26.6673 15.2461 27.1772 15.756 27.1772 16.3851Z" fill="#00CF6A"/>
<path d="M28.1026 19.5885C27.4736 19.5885 26.9636 19.0785 26.9636 18.4495C26.9636 17.8204 27.4736 17.3105 28.1026 17.3105C28.7316 17.3105 29.2416 17.8204 29.2416 18.4495C29.2416 19.0785 28.7316 19.5885 28.1026 19.5885Z" fill="#00CF6A"/>
<path d="M26.0383 21.6529C26.6673 21.6529 27.1772 21.1429 27.1772 20.5139C27.1772 19.8848 26.6673 19.3749 26.0383 19.3749C25.4092 19.3749 24.8993 19.8848 24.8993 20.5139C24.8993 21.1429 25.4092 21.6529 26.0383 21.6529Z" fill="#00CF6A"/>
<path d="M23.9737 19.5885C23.3447 19.5885 22.8347 19.0785 22.8347 18.4495C22.8347 17.8204 23.3447 17.3105 23.9737 17.3105C24.6027 17.3105 25.1127 17.8204 25.1127 18.4495C25.1127 19.0785 24.6027 19.5885 23.9737 19.5885Z" fill="#00CF6A"/>
</g>
<defs>
<clipPath id="clip0_1_4403">
<rect width="40" height="40" fill="white"/>
</clipPath>
</defs>
</svg>
