<svg width="40" height="40" viewBox="0 0 40 40" fill="none" xmlns="http://www.w3.org/2000/svg">
<g clip-path="url(#clip0_1_6055)">
<path d="M39.2129 11.449V11.449C40.2624 17.0781 40.2624 22.8026 39.2129 28.5271V28.5271C38.2588 33.9654 33.9654 38.2588 28.5271 39.2129V39.2129C22.898 40.2624 17.1735 40.2624 11.449 39.2129V39.2129C6.01073 38.2588 1.81276 34.0608 0.858676 28.6225V28.6225C-0.286225 22.9934 -0.286225 17.1735 0.858676 11.449V11.449C1.81276 6.01073 6.01073 1.81276 11.449 0.858676V0.858676C17.0781 -0.286225 22.898 -0.286225 28.6225 0.858676V0.858676C34.0608 1.81276 38.2588 6.01073 39.2129 11.449Z" fill="white"/>
<path fill-rule="evenodd" clip-rule="evenodd" d="M38.2293 28.3468C39.2571 22.7405 39.2565 17.1393 38.2298 11.6323L39.2129 11.449C40.2624 17.0781 40.2624 22.8026 39.2129 28.5271L38.2293 28.3468ZM28.5271 39.2129C33.9654 38.2588 38.2588 33.9654 39.2129 28.5271L38.2279 28.3543C37.3466 33.3779 33.3779 37.3466 28.3543 38.2279L28.5271 39.2129ZM11.449 39.2129C17.1735 40.2624 22.898 40.2624 28.5271 39.2129L28.3438 38.2298C22.8369 39.2565 17.2356 39.2571 11.6293 38.2293L11.449 39.2129ZM28.6225 0.858676L28.4497 1.84363C33.4733 2.72496 37.3466 6.59823 38.2279 11.6218L39.2129 11.449C38.2588 6.01073 34.0608 1.81276 28.6225 0.858676ZM11.449 0.858676C17.0781 -0.286225 22.898 -0.286225 28.6225 0.858676L28.4264 1.83926C22.8303 0.720026 17.1448 0.720683 11.6483 1.83861L11.449 0.858676ZM0.858676 11.449C1.81276 6.01073 6.01073 1.81276 11.449 0.858676L11.6218 1.84363C6.59823 2.72496 2.72496 6.59823 1.84363 11.6218L0.858676 11.449ZM0.858676 11.449L1.83926 11.6451C0.720026 17.2413 0.720683 22.9267 1.83861 28.4232L0.858676 28.6225C-0.286225 22.9934 -0.286225 17.1735 0.858676 11.449ZM0.858676 28.6225C1.81276 34.0608 6.01073 38.2588 11.449 39.2129L11.6218 38.2279C6.59823 37.3466 2.72496 33.4733 1.84363 28.4497L0.858676 28.6225Z" fill="#EEF4FE"/>
<path d="M9.08984 11.0908H30.908V21.9999H9.08984V11.0908Z" fill="#00CF6A"/>
<path d="M14.686 24.5985C15.2504 24.5985 15.7079 25.056 15.7079 25.6204C15.7078 26.1846 15.2503 26.6422 14.686 26.6422H13.3578C12.7935 26.6422 12.336 26.1846 12.3359 25.6204C12.3359 25.056 12.7934 24.5985 13.3578 24.5985H14.686Z" fill="#0033C9"/>
<path d="M26.6422 24.5985C27.2065 24.5986 27.6641 25.056 27.6641 25.6204C27.664 26.1846 27.2065 26.6422 26.6422 26.6422H25.314C24.7497 26.6422 24.2922 26.1846 24.2921 25.6204C24.2921 25.056 24.7496 24.5985 25.314 24.5985H26.6422Z" fill="#0033C9"/>
<path fill-rule="evenodd" clip-rule="evenodd" d="M20 6C22.6232 6 24.6843 5.99788 26.291 6.1936C27.9174 6.39177 29.2338 6.8078 30.2807 7.75636C31.3419 8.718 31.8206 9.94923 32.046 11.4687C32.1995 12.5028 32.2435 13.7379 32.2566 15.1969H32.9781L33.0819 15.2019C33.5974 15.2541 34 15.6896 34 16.2188C34 16.7481 33.5974 17.1836 33.0819 17.2357L32.9781 17.2407H32.2626V21.0259C32.2626 22.8106 32.2637 24.6832 32.1029 26.251C32.0224 27.0369 31.8969 27.7872 31.6948 28.4355C31.4971 29.0695 31.1951 29.708 30.6919 30.1639C29.9935 30.7966 29.1522 31.1232 28.1751 31.3036V33.2845C28.1749 33.8487 27.7174 34.3063 27.1532 34.3064C26.5889 34.3064 26.1314 33.8487 26.1313 33.2845V31.5072C25.1799 31.5469 24.078 31.5471 22.8102 31.5471H17.1898C15.922 31.5471 14.8201 31.5469 13.8687 31.5072V33.2845C13.8686 33.8487 13.411 34.3063 12.8468 34.3064C12.2825 34.3064 11.8251 33.8487 11.8249 33.2845V31.3036C10.8476 31.1232 10.0056 30.7968 9.30715 30.1639C8.80406 29.708 8.50189 29.0694 8.30423 28.4355C8.1021 27.7872 7.97763 27.0368 7.89707 26.251C7.73634 24.6832 7.7374 22.8106 7.7374 21.0259V17.2407H7.02188C6.45751 17.2407 6 16.7832 6 16.2188C6 15.6545 6.45751 15.1969 7.02188 15.1969H7.74339C7.7565 13.7379 7.80051 12.5028 7.95395 11.4687C8.17945 9.94917 8.65796 8.71801 9.7193 7.75636C10.7663 6.80774 12.0825 6.39176 13.709 6.1936C15.3158 5.99787 17.3768 6 20 6ZM9.78316 22.3501C9.7902 23.6867 9.81833 24.9545 9.92986 26.0425C10.0036 26.7619 10.1101 27.3625 10.2552 27.8278C10.4047 28.3072 10.5662 28.5457 10.6803 28.6491C11.0737 29.0055 11.6365 29.2425 12.6881 29.3706C13.7598 29.5011 15.1766 29.5033 17.1898 29.5033H22.8102C24.8234 29.5033 26.2402 29.5011 27.3119 29.3706C28.3635 29.2425 28.9263 29.0055 29.3197 28.6491C29.4338 28.5457 29.5943 28.307 29.7438 27.8278C29.8889 27.3625 29.9964 26.7619 30.0701 26.0425C30.1817 24.9545 30.2088 23.6867 30.2158 22.3501H9.78316ZM9.94283 12.0235C9.78512 13.2861 9.78117 14.9305 9.78117 17.2068V20.3064H18.9781V12.0295H10.0366C10.005 12.0295 9.97372 12.0263 9.94283 12.0235ZM29.9634 12.0295H21.0219V20.3064H30.2188V17.2068C30.2188 14.9304 30.2129 13.2861 30.0552 12.0235L29.9634 12.0295ZM20 8.04377C17.3244 8.04377 15.4108 8.04527 13.9565 8.2224C12.5223 8.3971 11.6906 8.72748 11.0915 9.27023C10.8662 9.47428 10.6773 9.70662 10.5186 9.98574H29.4814C29.3227 9.70656 29.1338 9.47431 28.9085 9.27023C28.3094 8.7274 27.4777 8.39712 26.0435 8.2224C24.5892 8.04525 22.6756 8.04377 20 8.04377Z" fill="#0033C9"/>
</g>
<defs>
<clipPath id="clip0_1_6055">
<rect width="40" height="40" fill="white"/>
</clipPath>
</defs>
</svg>
