<svg width="40" height="40" viewBox="0 0 40 40" fill="none" xmlns="http://www.w3.org/2000/svg">
<g clip-path="url(#clip0_1_3714)">
<path d="M39.0879 11.449V11.449C40.1374 17.0781 40.1374 22.8026 39.0879 28.5271V28.5271C38.1338 33.9654 33.8404 38.2588 28.4021 39.2129V39.2129C22.773 40.2624 17.0485 40.2624 11.324 39.2129V39.2129C5.88573 38.2588 1.68776 34.0608 0.733676 28.6225V28.6225C-0.411225 22.9934 -0.411225 17.1735 0.733676 11.449V11.449C1.68776 6.01073 5.88573 1.81276 11.324 0.858676V0.858676C16.9531 -0.286225 22.773 -0.286225 28.4975 0.858676V0.858676C33.9358 1.81276 38.1338 6.01073 39.0879 11.449Z" fill="white"/>
<path fill-rule="evenodd" clip-rule="evenodd" d="M38.2279 11.6218L38.2279 11.6218C37.3466 6.59823 33.4733 2.72496 28.4497 1.84363L28.4381 1.84158L28.4264 1.83926C22.8303 0.720027 17.1448 0.720684 11.6483 1.83861L11.6351 1.8413L11.6218 1.84363C6.59823 2.72496 2.72496 6.59823 1.84363 11.6218L1.84158 11.6335L1.83926 11.6451C0.720027 17.2413 0.720684 22.9267 1.83861 28.4232L1.8413 28.4365L1.84363 28.4497C2.72496 33.4733 6.59823 37.3466 11.6218 38.2279L11.6293 38.2292C17.2356 39.2571 22.8369 39.2565 28.3438 38.2298L28.3543 38.2279L28.3543 38.2279C33.3779 37.3466 37.3466 33.3779 38.2279 28.3543L38.2292 28.3468C39.2571 22.7405 39.2565 17.1393 38.2298 11.6323L38.2279 11.6218ZM11.449 39.2129C17.1735 40.2624 22.898 40.2624 28.5271 39.2129C33.9654 38.2588 38.2588 33.9654 39.2129 28.5271C40.2624 22.8026 40.2624 17.0781 39.2129 11.449C38.2588 6.01073 34.0608 1.81276 28.6225 0.858676C22.898 -0.286225 17.0781 -0.286225 11.449 0.858676C6.01073 1.81276 1.81276 6.01073 0.858676 11.449C-0.286225 17.1735 -0.286225 22.9934 0.858676 28.6225C1.81276 34.0608 6.01073 38.2588 11.449 39.2129Z" fill="#F0F5FE"/>
<path fill-rule="evenodd" clip-rule="evenodd" d="M20.0016 8.31421C17.1552 8.31421 14.8638 8.39986 12.492 8.56293C10.9531 8.66873 9.73434 9.89254 9.63795 11.4282C9.46436 14.194 9.37305 17.0612 9.37305 19.9999C9.37305 22.9387 9.46436 25.8058 9.63795 28.5717C9.73434 30.1073 10.9531 31.3311 12.492 31.4369C14.8638 31.6 17.1552 31.6856 20.0016 31.6856C22.848 31.6856 25.1394 31.6 27.5113 31.4369C29.0501 31.3311 30.2689 30.1073 30.3653 28.5717C30.5389 25.8058 30.6302 22.9387 30.6302 19.9999C30.6302 18.9332 30.6182 17.876 30.5945 16.8295C30.5767 16.0392 30.2546 15.2809 29.6958 14.7044L24.4551 9.29892C23.8716 8.69715 23.0846 8.34888 22.2634 8.33394C21.5438 8.32085 20.7944 8.31421 20.0016 8.31421ZM12.3548 6.56764C14.7729 6.40139 17.1101 6.31421 20.0016 6.31421C20.8056 6.31421 21.5671 6.32095 22.2998 6.33428C23.6662 6.35913 24.9515 6.93767 25.891 7.90676L31.1317 13.3123C32.0328 14.2417 32.5645 15.4778 32.594 16.7844C32.618 17.8459 32.6302 18.9182 32.6302 19.9999C32.6302 22.9799 32.5376 25.8888 32.3614 28.697C32.2019 31.2378 30.1844 33.2578 27.6484 33.4322C25.2304 33.5985 22.8932 33.6856 20.0016 33.6856C17.1101 33.6856 14.7729 33.5985 12.3548 33.4322C9.81882 33.2578 7.80136 31.2378 7.64188 28.697C7.46563 25.8888 7.37305 22.9799 7.37305 19.9999C7.37305 17.02 7.46563 14.111 7.64188 11.3029C7.80136 8.76207 9.81882 6.742 12.3548 6.56764Z" fill="#0033C9"/>
<path fill-rule="evenodd" clip-rule="evenodd" d="M25.2016 28.3357C24.594 28.3357 24.1016 27.8432 24.1016 27.2357L24.1016 19.2C24.1016 18.5925 24.594 18.1 25.2016 18.1C25.8091 18.1 26.3016 18.5925 26.3016 19.2L26.3016 27.2357C26.3016 27.8432 25.8091 28.3357 25.2016 28.3357Z" fill="#00CF6A"/>
<path fill-rule="evenodd" clip-rule="evenodd" d="M14.8012 28.3357C14.1937 28.3357 13.7012 27.8432 13.7012 27.2357L13.7012 24.4C13.7012 23.7924 14.1937 23.3 14.8012 23.3C15.4087 23.3 15.9012 23.7924 15.9012 24.4L15.9012 27.2357C15.9012 27.8432 15.4087 28.3357 14.8012 28.3357Z" fill="#00CF6A"/>
<path fill-rule="evenodd" clip-rule="evenodd" d="M20.0004 28.3357C19.3929 28.3357 18.9004 27.8432 18.9004 27.2357L18.9004 21.2C18.9004 20.5924 19.3929 20.1 20.0004 20.1C20.6079 20.1 21.1004 20.5924 21.1004 21.2L21.1004 27.2357C21.1004 27.8432 20.6079 28.3357 20.0004 28.3357Z" fill="#00CF6A"/>
</g>
<defs>
<clipPath id="clip0_1_3714">
<rect width="40" height="40" fill="white"/>
</clipPath>
</defs>
</svg>
