<svg width="40" height="40" viewBox="0 0 40 40" fill="none" xmlns="http://www.w3.org/2000/svg">
<g clip-path="url(#clip0_1_3414)">
<path d="M39.2129 11.449V11.449C40.2624 17.0781 40.2624 22.8026 39.2129 28.5271V28.5271C38.2588 33.9654 33.9654 38.2588 28.5271 39.2129V39.2129C22.898 40.2624 17.1735 40.2624 11.449 39.2129V39.2129C6.01073 38.2588 1.81276 34.0608 0.858676 28.6225V28.6225C-0.286225 22.9934 -0.286225 17.1735 0.858676 11.449V11.449C1.81276 6.01073 6.01073 1.81276 11.449 0.858676V0.858676C17.0781 -0.286225 22.898 -0.286225 28.6225 0.858676V0.858676C34.0608 1.81276 38.2588 6.01073 39.2129 11.449Z" fill="white"/>
<path fill-rule="evenodd" clip-rule="evenodd" d="M38.2293 28.3468C39.2571 22.7405 39.2565 17.1393 38.2298 11.6323L39.2129 11.449C40.2624 17.0781 40.2624 22.8026 39.2129 28.5271L38.2293 28.3468ZM28.5271 39.2129C33.9654 38.2588 38.2588 33.9654 39.2129 28.5271L38.2279 28.3543C37.3466 33.3779 33.3779 37.3466 28.3543 38.2279L28.5271 39.2129ZM11.449 39.2129C17.1735 40.2624 22.898 40.2624 28.5271 39.2129L28.3438 38.2298C22.8369 39.2565 17.2356 39.2571 11.6293 38.2293L11.449 39.2129ZM28.6225 0.858676L28.4497 1.84363C33.4733 2.72496 37.3466 6.59823 38.2279 11.6218L39.2129 11.449C38.2588 6.01073 34.0608 1.81276 28.6225 0.858676ZM11.449 0.858676C17.0781 -0.286225 22.898 -0.286225 28.6225 0.858676L28.4264 1.83926C22.8303 0.720026 17.1448 0.720683 11.6483 1.83861L11.449 0.858676ZM0.858676 11.449C1.81276 6.01073 6.01073 1.81276 11.449 0.858676L11.6218 1.84363C6.59823 2.72496 2.72496 6.59823 1.84363 11.6218L0.858676 11.449ZM0.858676 11.449L1.83926 11.6451C0.720026 17.2413 0.720683 22.9267 1.83861 28.4232L0.858676 28.6225C-0.286225 22.9934 -0.286225 17.1735 0.858676 11.449ZM0.858676 28.6225C1.81276 34.0608 6.01073 38.2588 11.449 39.2129L11.6218 38.2279C6.59823 37.3466 2.72496 33.4733 1.84363 28.4497L0.858676 28.6225Z" fill="url(#paint0_linear_1_3414)"/>
<path fill-rule="evenodd" clip-rule="evenodd" d="M14.0958 11.362C15.9849 10.9674 17.5786 10.7743 19.9721 10.7743C20.5764 10.7743 21.1274 10.7866 21.6462 10.8116C22.1978 10.8383 22.6234 11.3071 22.5968 11.8587C22.5701 12.4103 22.1013 12.8359 21.5497 12.8093C21.0678 12.786 20.5493 12.7743 19.9721 12.7743C17.7191 12.7743 16.2625 12.9526 14.5048 13.3198C14.2221 13.3788 14.0066 13.5439 13.8967 13.749C13.1844 15.0785 12.7684 16.5003 12.6899 17.9269C12.6652 18.3768 12.3426 18.7546 11.9021 18.8495C11.1668 19.008 10.4227 19.1823 9.66224 19.3696C9.27196 19.4656 8.94111 19.787 8.82154 20.2225L8.78801 20.3445C8.47603 21.4791 8.20117 22.5012 8.20117 23.5249C8.20117 24.4843 8.44369 25.449 8.73373 26.5077C8.87384 27.0192 9.32967 27.3822 9.8367 27.4047C10.4737 27.4329 11.1165 27.4634 11.763 27.494C14.4416 27.6208 17.1893 27.7507 19.9995 27.7507C22.8098 27.7507 25.5569 27.6208 28.2354 27.494C28.882 27.4634 29.5254 27.4329 30.1624 27.4047C30.6694 27.3822 31.1253 27.0192 31.2654 26.5077C31.5554 25.449 31.7979 24.4843 31.7979 23.5249C31.7979 22.5013 31.5231 21.4791 31.2111 20.3445C31.2111 20.3445 31.2111 20.3445 31.2111 20.3445L31.1855 20.2513C31.0392 19.7188 31.3523 19.1685 31.8849 19.0222C32.4174 18.8759 32.9677 19.189 33.114 19.7215L33.1395 19.8142L33.1542 19.8675C33.4505 20.945 33.7979 22.2079 33.7979 23.5249C33.7979 24.7877 33.4797 25.9944 33.1943 27.0361C32.8308 28.363 31.6481 29.3408 30.251 29.4027C29.6177 29.4308 28.9783 29.4611 28.3315 29.4917L28.33 29.4918L28.3197 29.4923C25.6509 29.6186 22.8609 29.7507 19.9995 29.7507C17.1382 29.7507 14.3482 29.6186 11.6794 29.4923L11.6676 29.4917C11.0208 29.4611 10.3814 29.4308 9.74809 29.4027C8.351 29.3408 7.16826 28.363 6.8048 27.0361C6.51941 25.9944 6.20117 24.7877 6.20117 23.5249C6.20117 22.2079 6.54856 20.945 6.84493 19.8675C6.84983 19.8497 6.85471 19.8319 6.85958 19.8142L6.89292 19.6929C7.19106 18.6071 8.04262 17.7085 9.18417 17.4275C9.71433 17.297 10.2394 17.172 10.7613 17.0536C10.9443 15.5784 11.4177 14.1409 12.1338 12.8045C12.549 12.0296 13.2902 11.5304 14.0958 11.362Z" fill="#0033C9"/>
<path d="M14.0885 30.9546C15.8794 30.9546 17.3313 29.5028 17.3313 27.7118C17.3313 25.9209 15.8794 24.4691 14.0885 24.4691C12.2975 24.4691 10.8457 25.9209 10.8457 27.7118C10.8457 29.5028 12.2975 30.9546 14.0885 30.9546Z" fill="white"/>
<path fill-rule="evenodd" clip-rule="evenodd" d="M14.0885 25.4691C12.8498 25.4691 11.8457 26.4732 11.8457 27.7118C11.8457 28.9505 12.8498 29.9546 14.0885 29.9546C15.3271 29.9546 16.3313 28.9505 16.3313 27.7118C16.3313 26.4732 15.3271 25.4691 14.0885 25.4691ZM9.8457 27.7118C9.8457 25.3686 11.7453 23.4691 14.0885 23.4691C16.4317 23.4691 18.3313 25.3686 18.3313 27.7118C18.3313 30.0551 16.4317 31.9546 14.0885 31.9546C11.7453 31.9546 9.8457 30.0551 9.8457 27.7118Z" fill="#0033C9"/>
<path d="M25.9107 30.9546C27.7017 30.9546 29.1535 29.5027 29.1535 27.7118C29.1535 25.9208 27.7017 24.469 25.9107 24.469C24.1198 24.469 22.668 25.9208 22.668 27.7118C22.668 29.5027 24.1198 30.9546 25.9107 30.9546Z" fill="white"/>
<path fill-rule="evenodd" clip-rule="evenodd" d="M25.9107 25.469C24.6721 25.469 23.668 26.4731 23.668 27.7118C23.668 28.9504 24.6721 29.9546 25.9107 29.9546C27.1494 29.9546 28.1535 28.9504 28.1535 27.7118C28.1535 26.4731 27.1494 25.469 25.9107 25.469ZM21.668 27.7118C21.668 25.3686 23.5675 23.469 25.9107 23.469C28.254 23.469 30.1535 25.3686 30.1535 27.7118C30.1535 30.055 28.254 31.9546 25.9107 31.9546C23.5675 31.9546 21.668 30.055 21.668 27.7118Z" fill="#0033C9"/>
<path fill-rule="evenodd" clip-rule="evenodd" d="M20 8.19995C20.5523 8.19995 21 8.64767 21 9.19995L21 11.6C21 12.1522 20.5523 12.6 20 12.6C19.4477 12.6 19 12.1522 19 11.6L19 9.19995C19 8.64767 19.4477 8.19995 20 8.19995Z" fill="#0033C9"/>
<path d="M25.2012 12.0437V8.50972C25.2012 8.14019 25.4571 7.82561 25.803 7.69542C27.1171 7.20071 27.9967 6.66911 29.2848 6.06609C29.4842 5.97273 29.7156 5.97885 29.9107 6.08087C31.1666 6.73746 32.0467 7.25692 33.3685 7.70986C33.7292 7.83345 34.0012 8.1549 34.0012 8.53617V12.0437C34.0012 14.3285 31.1121 16.303 29.6454 16.7285C28.1788 16.303 25.2012 14.3285 25.2012 12.0437Z" fill="#00CF6A"/>
</g>
<defs>
<linearGradient id="paint0_linear_1_3414" x1="-2.81746e-08" y1="8.19672" x2="40.9761" y2="9.50848" gradientUnits="userSpaceOnUse">
<stop stop-color="#F0F6FF"/>
<stop offset="0.635417" stop-color="#E8F0FD"/>
<stop offset="1" stop-color="#EEF4FE"/>
</linearGradient>
<clipPath id="clip0_1_3414">
<rect width="40" height="40" fill="white"/>
</clipPath>
</defs>
</svg>
