<svg width="40" height="40" viewBox="0 0 40 40" fill="none" xmlns="http://www.w3.org/2000/svg">
<path d="M2.22266 10.4888C2.22266 5.92328 5.92377 2.22217 10.4893 2.22217H29.5115C34.0771 2.22217 37.7782 5.92328 37.7782 10.4888V29.5111C37.7782 34.0766 34.0771 37.7777 29.5115 37.7777H10.4893C5.92377 37.7777 2.22266 34.0766 2.22266 29.5111V10.4888Z" fill="#0033C9"/>
<path opacity="0.7" d="M22.6736 2.23366C10.6412 4.81272 11.4797 8.12494 6.83085 8.12494C4.53188 8.12494 3.65137 7.49661 3.28143 6.45828C4.02779 5.13883 4.86112 4.34022 5.90279 3.61106C6.50755 3.18773 6.87501 3.02078 7.50001 2.77772C8.54168 2.37263 9.63082 2.22217 10.4167 2.22217C11.7202 2.22217 21.0328 2.23366 22.6736 2.23366Z" fill="#2871FF"/>
<path opacity="0.7" d="M36.7713 25.9291C37.0332 25.4221 37.3807 24.9864 37.7915 24.6182C37.7784 26.0418 37.709 24.8612 37.7784 29.514C37.8479 34.1668 33.959 37.7432 29.6534 37.7779C25.3479 37.8126 21.0827 37.7741 15.5909 37.7779C13.5027 37.7793 11.5284 37.7779 10.2437 37.7779C8.95898 37.7779 7.39648 37.1876 7.39648 37.1876C7.58852 37.1726 8.60894 37.0481 8.85482 36.9596C11.2798 36.0874 16.1481 32.502 17.7784 31.6668C20.3461 30.3513 23.8616 29.6735 27.2229 30.5557C31.5938 31.7028 35.4484 28.4901 36.7713 25.9291Z" fill="#2871FF"/>
<path fill-rule="evenodd" clip-rule="evenodd" d="M31.4571 12.4362C31.7616 12.4362 32.3068 12.5664 32.5091 12.7948C32.7114 13.0231 32.8062 13.3262 32.771 13.6293L30.9567 28.9219C30.7171 31.0785 28.8985 32.7111 26.7243 32.7111H13.2765C11.1034 32.7111 9.28374 31.0785 9.04311 28.9133L7.22984 13.6293C7.1947 13.3273 7.28947 13.0231 7.49177 12.7948C7.69407 12.5664 8.23924 12.4362 8.54376 12.4362H13.6119V11.5468C13.6119 9.26048 16.4772 6.38892 20.0004 6.38892C23.5237 6.38892 26.3889 8.74937 26.3889 11.5468V12.4362H31.4571ZM20.0004 8.52312C17.6516 8.52312 15.7414 9.70386 15.7414 11.5468V12.4362H24.2594V11.5468C24.2594 9.70386 22.3493 8.52312 20.0004 8.52312ZM27.8435 22.6177C27.8435 26.8783 24.3896 30.3323 20.1289 30.3323C15.8683 30.3323 12.4143 26.8783 12.4143 22.6177C12.4143 18.357 15.8683 14.9031 20.1289 14.9031C24.3896 14.9031 27.8435 18.357 27.8435 22.6177ZM21.2385 19.5441C20.8816 19.5142 20.5229 19.5142 20.1661 19.5441C19.7782 19.5377 19.3906 19.5664 19.0079 19.6299C18.6647 19.2438 16.9704 18.2143 16.6701 18.4932C16.3698 18.772 16.6701 20.6379 16.6701 20.6379C15.7358 21.3402 15.2324 22.4768 15.3404 23.6406C15.5804 25.3117 17.042 26.5327 18.7291 26.4717H20.1661H21.6031C23.2865 26.4832 24.7093 25.2268 24.906 23.5548C25.014 22.391 24.5106 21.2544 23.5763 20.5521C23.5763 20.5521 23.9623 18.6862 23.5763 18.4074C23.1902 18.1285 21.5816 19.158 21.2385 19.5441ZM17.6964 20.1661C17.8465 20.1232 17.8036 19.9302 17.6964 19.7157L17.5939 19.5623C17.5214 19.4609 17.4583 19.4069 17.3532 19.4369C17.2493 19.4666 17.2378 19.5374 17.2762 19.6707L17.3087 19.769L17.3796 19.9522C17.4752 20.1727 17.5587 20.2054 17.6964 20.1661ZM22.2762 19.7157C22.1689 19.9302 22.126 20.1232 22.2762 20.1661C22.4263 20.209 22.5121 20.1661 22.6193 19.8873L22.6638 19.769C22.7352 19.5709 22.7464 19.4732 22.6193 19.4369C22.5142 19.4069 22.4512 19.4609 22.3787 19.5623L22.2762 19.7157ZM19.9297 23.0742C19.8447 22.3627 19.2391 21.811 18.5047 21.811C17.712 21.811 17.0695 22.4536 17.0695 23.2462C17.0695 24.0389 17.712 24.6814 18.5047 24.6814C19.2292 24.6814 19.8284 24.1445 19.9259 23.4468H20.5546C20.6522 24.1445 21.2513 24.6814 21.9759 24.6814C22.7685 24.6814 23.4111 24.0389 23.4111 23.2462C23.4111 22.4536 22.7685 21.811 21.9759 21.811C21.2415 21.811 20.6359 22.3627 20.5509 23.0742H19.9297ZM20.8983 23.2883L20.8993 23.2799C20.9 23.2735 20.9003 23.2671 20.9003 23.2605C20.9003 23.2497 20.8994 23.2391 20.8976 23.2288C20.9072 22.6423 21.3856 22.1698 21.9744 22.1698C22.5692 22.1698 23.0514 22.652 23.0514 23.2468C23.0514 23.8416 22.5692 24.3237 21.9744 24.3237C21.3935 24.3237 20.9201 23.8638 20.8983 23.2883ZM18.5019 22.1698C17.9078 22.1698 17.4262 22.6514 17.4262 23.2456C17.4262 23.8397 17.9078 24.3213 18.5019 24.3213C19.0961 24.3213 19.5777 23.8397 19.5777 23.2456C19.5777 22.6514 19.0961 22.1698 18.5019 22.1698Z" fill="#EEF4FE"/>
</svg>
