<svg width="40" height="40" viewBox="0 0 40 40" fill="none" xmlns="http://www.w3.org/2000/svg">
<path d="M39.2129 11.449V11.449C40.2624 17.0781 40.2624 22.8026 39.2129 28.5271V28.5271C38.2588 33.9654 33.9654 38.2588 28.5271 39.2129V39.2129C22.898 40.2624 17.1735 40.2624 11.449 39.2129V39.2129C6.01073 38.2588 1.81276 34.0608 0.858676 28.6225V28.6225C-0.286225 22.9934 -0.286225 17.1735 0.858676 11.449V11.449C1.81276 6.01073 6.01073 1.81276 11.449 0.858676V0.858676C17.0781 -0.286225 22.898 -0.286225 28.6225 0.858676V0.858676C34.0608 1.81276 38.2588 6.01073 39.2129 11.449Z" fill="white"/>
<path fill-rule="evenodd" clip-rule="evenodd" d="M38.2293 28.3468C39.2571 22.7405 39.2565 17.1393 38.2298 11.6323L39.2129 11.449C40.2624 17.0781 40.2624 22.8026 39.2129 28.5271L38.2293 28.3468ZM28.5271 39.2129C33.9654 38.2588 38.2588 33.9654 39.2129 28.5271L38.2279 28.3543C37.3466 33.3779 33.3779 37.3466 28.3543 38.2279L28.5271 39.2129ZM11.449 39.2129C17.1735 40.2624 22.898 40.2624 28.5271 39.2129L28.3438 38.2298C22.8369 39.2565 17.2356 39.2571 11.6293 38.2293L11.449 39.2129ZM28.6225 0.858676L28.4497 1.84363C33.4733 2.72496 37.3466 6.59823 38.2279 11.6218L39.2129 11.449C38.2588 6.01073 34.0608 1.81276 28.6225 0.858676ZM11.449 0.858676C17.0781 -0.286225 22.898 -0.286225 28.6225 0.858676L28.4264 1.83926C22.8303 0.720026 17.1448 0.720683 11.6483 1.83861L11.449 0.858676ZM0.858676 11.449C1.81276 6.01073 6.01073 1.81276 11.449 0.858676L11.6218 1.84363C6.59823 2.72496 2.72496 6.59823 1.84363 11.6218L0.858676 11.449ZM0.858676 11.449L1.83926 11.6451C0.720026 17.2413 0.720683 22.9267 1.83861 28.4232L0.858676 28.6225C-0.286225 22.9934 -0.286225 17.1735 0.858676 11.449ZM0.858676 28.6225C1.81276 34.0608 6.01073 38.2588 11.449 39.2129L11.6218 38.2279C6.59823 37.3466 2.72496 33.4733 1.84363 28.4497L0.858676 28.6225Z" fill="#EEF4FE"/>
<path fill-rule="evenodd" clip-rule="evenodd" d="M23.1559 9.48114C17.6629 11.7445 14.0283 13.6877 9.5053 17.3581L8.87518 16.5816L9.5053 17.3581C8.79093 17.9378 8.34499 18.5608 8.15537 19.1382C7.97463 19.6886 8.01069 20.2342 8.32571 20.7798L8.99494 21.9389C10.4813 21.9582 11.9226 22.6942 12.7152 24.0671C13.5078 25.4399 13.4245 27.0561 12.6981 28.3529L13.3673 29.5121C13.9536 30.5275 15.2219 30.9221 16.8868 30.2149C22.3224 27.906 25.8646 25.8555 30.5764 22.3111L30.5764 22.3111C31.321 21.7511 31.754 21.1401 31.9299 20.5764C32.099 20.0344 32.0523 19.4755 31.727 18.9121L31.0577 17.7528C29.5715 17.7334 28.1304 16.9975 27.3378 15.6247C26.5452 14.2519 26.6284 12.6359 27.3547 11.3391L26.6855 10.1798C26.1107 9.18431 24.7495 8.82453 23.1559 9.48114ZM8.24506 15.8051C12.9572 11.9812 16.7735 9.94785 22.394 7.63197C24.4753 6.77439 27.136 6.9602 28.4175 9.17982L29.395 10.8729C29.5985 11.2253 29.5681 11.6658 29.3183 11.9869C28.6999 12.7819 28.6029 13.816 29.0698 14.6247C29.5367 15.4334 30.4808 15.8664 31.4784 15.7284C31.8815 15.6726 32.2781 15.8666 32.4815 16.2189L33.4591 17.9121C34.0619 18.9562 34.1757 20.0934 33.8391 21.1721C33.5093 22.2291 32.7705 23.1635 31.7786 23.9095L31.1775 23.1103L31.7787 23.9094C31.7787 23.9094 31.7786 23.9095 31.7786 23.9095C26.9382 27.5505 23.2551 29.6828 17.6687 32.0557C15.4446 33.0005 12.9052 32.7118 11.6352 30.5121L10.6577 28.819C10.4543 28.4666 10.4846 28.0261 10.7345 27.7049C11.353 26.91 11.4501 25.8758 10.9831 25.0671C10.5162 24.2583 9.57202 23.8253 8.57433 23.9634C8.17128 24.0192 7.7746 23.8253 7.57115 23.4729L6.59366 21.7798C5.98056 20.7179 5.90558 19.5788 6.25522 18.5142C6.59599 17.4765 7.32186 16.5543 8.24506 15.8051L8.24506 15.8051Z" fill="#0033C9"/>
<path d="M21.6423 15.7732L21.1188 17.5486C21.0999 17.5899 21.091 17.6351 21.0928 17.6805C21.0946 17.7259 21.1071 17.7702 21.1292 17.8099L22.2973 19.2491C22.3308 19.2903 22.3521 19.3401 22.3587 19.3928C22.3652 19.4455 22.3568 19.499 22.3344 19.5472C22.3119 19.5953 22.2764 19.6362 22.2318 19.665C22.1872 19.6939 22.1353 19.7096 22.0822 19.7104L20.2316 19.7842C20.1863 19.7873 20.1422 19.8006 20.1027 19.823C20.0632 19.8454 20.0292 19.8763 20.0033 19.9136L19.0311 21.438C19.0026 21.4826 18.9622 21.5182 18.9144 21.541C18.8666 21.5637 18.8134 21.5725 18.7608 21.5665C18.7083 21.5605 18.6584 21.5399 18.617 21.507C18.5756 21.474 18.5442 21.4301 18.5265 21.3803L17.9052 19.6364C17.8909 19.5932 17.8658 19.5544 17.8324 19.5236C17.799 19.4927 17.7584 19.4709 17.7142 19.4601L15.9264 18.9795C15.8753 18.9658 15.829 18.938 15.7929 18.8994C15.7568 18.8607 15.7323 18.8127 15.7221 18.7607C15.7119 18.7088 15.7165 18.6551 15.7353 18.6057C15.7542 18.5562 15.7865 18.5131 15.8287 18.4811L17.2977 17.3542C17.3328 17.3254 17.361 17.289 17.3801 17.2479C17.3993 17.2067 17.409 17.1618 17.4085 17.1164L17.3348 15.2657C17.3348 15.217 17.3474 15.1692 17.3714 15.1268C17.3953 15.0844 17.4298 15.0489 17.4715 15.0238C17.5132 14.9986 17.5607 14.9847 17.6093 14.9833C17.658 14.9819 17.7062 14.993 17.7493 15.0157L19.2768 16.0656C19.3155 16.0902 19.3595 16.1053 19.4052 16.1097C19.4509 16.114 19.4969 16.1074 19.5396 16.0905L21.2677 15.4273C21.3172 15.4076 21.3713 15.4024 21.4237 15.4121C21.4761 15.4219 21.5247 15.4462 21.5638 15.4824C21.603 15.5185 21.6311 15.565 21.645 15.6165C21.6589 15.6679 21.6579 15.7222 21.6423 15.7732Z" fill="#00CF6A"/>
<path fill-rule="evenodd" clip-rule="evenodd" d="M17.8129 15.6213L17.8723 17.1115C17.8735 17.2261 17.8488 17.3395 17.8004 17.4434C17.752 17.5473 17.681 17.6391 17.5925 17.7119L17.5801 17.7218L16.4 18.627L17.8311 19.0117C17.949 19.0417 18.0576 19.1006 18.1471 19.1832C18.2365 19.2658 18.3039 19.3694 18.3432 19.4845L18.8395 20.8775L19.613 19.6645C19.6165 19.6591 19.62 19.6538 19.6236 19.6486C19.6892 19.5546 19.775 19.4764 19.8747 19.4199C19.9744 19.3634 20.0856 19.33 20.1999 19.322L20.2135 19.3211L21.7112 19.2616L20.7699 18.1019C20.7529 18.081 20.7379 18.0587 20.7248 18.0353C20.6674 17.9321 20.635 17.8169 20.6303 17.6989C20.6261 17.5945 20.6438 17.4905 20.6819 17.3935L21.0959 15.9896L19.7079 16.5222C19.598 16.5653 19.4794 16.582 19.3619 16.5708C19.2432 16.5596 19.1288 16.5203 19.0283 16.4563L19.0148 16.4473L17.8129 15.6213ZM17.5963 14.5202C17.7247 14.5165 17.8518 14.546 17.9655 14.6058C17.9815 14.6143 17.9971 14.6237 18.012 14.6339L19.4561 15.6264L21.1002 14.9955C21.2301 14.9446 21.3716 14.9312 21.5088 14.9567C21.647 14.9824 21.7751 15.0466 21.8784 15.142C21.9817 15.2374 22.056 15.36 22.0926 15.4958C22.129 15.6305 22.1268 15.7727 22.0864 15.9062L21.5786 17.6281L22.6568 18.9564C22.745 19.0649 22.8015 19.1968 22.8188 19.3356C22.8361 19.4747 22.8138 19.6159 22.7546 19.7429C22.6954 19.8699 22.6016 19.9777 22.4839 20.0539C22.3683 20.1288 22.2342 20.1701 22.0966 20.1735L20.3427 20.2434L19.4221 21.6871C19.3468 21.8047 19.2397 21.8994 19.1137 21.9593C18.9876 22.0193 18.8472 22.0426 18.7085 22.0268C18.5699 22.0109 18.4384 21.9565 18.3291 21.8696C18.2199 21.7828 18.1373 21.6672 18.0905 21.5358C18.0905 21.5357 18.0905 21.5359 18.0905 21.5358L17.5014 19.8825L15.8068 19.4269C15.8067 19.4269 15.8069 19.427 15.8068 19.4269C15.6721 19.3908 15.5499 19.3175 15.4547 19.2156C15.3594 19.1135 15.2947 18.9868 15.2678 18.8498C15.241 18.7129 15.2531 18.5711 15.3028 18.4407C15.3524 18.3107 15.4372 18.1972 15.5478 18.1129L16.9424 17.0433L16.8722 15.2842C16.872 15.2779 16.8719 15.2716 16.8719 15.2654C16.872 15.1369 16.9052 15.0107 16.9684 14.8989C17.0316 14.787 17.1226 14.6934 17.2326 14.6271C17.3426 14.5607 17.4679 14.5239 17.5963 14.5202Z" fill="#00CF6A"/>
<path fill-rule="evenodd" clip-rule="evenodd" d="M25.865 21.6968C26.1429 22.1741 25.9812 22.7863 25.504 23.0642L20.4483 26.0079C19.9711 26.2858 19.3589 26.1242 19.081 25.6469C18.8031 25.1696 18.9647 24.5574 19.442 24.2795L24.4976 21.3358C24.9749 21.0579 25.5871 21.2195 25.865 21.6968Z" fill="#0033C9"/>
</svg>
