<svg width="40" height="40" viewBox="0 0 40 40" fill="none" xmlns="http://www.w3.org/2000/svg">
<g clip-path="url(#clip0_1_5547)">
<rect width="40" height="40" fill="white"/>
<g clip-path="url(#clip1_1_5547)">
<path d="M39.2129 11.449C40.2624 17.0781 40.2624 22.8026 39.2129 28.5271C38.2588 33.9654 33.9654 38.2588 28.5271 39.2129C22.898 40.2624 17.1735 40.2624 11.449 39.2129C6.01073 38.2588 1.81276 34.0608 0.858676 28.6225C-0.286225 22.9934 -0.286225 17.1735 0.858676 11.449C1.81276 6.01073 6.01073 1.81276 11.449 0.858676C17.0781 -0.286225 22.898 -0.286225 28.6225 0.858676C34.0608 1.81276 38.2588 6.01073 39.2129 11.449Z" fill="white"/>
<path fill-rule="evenodd" clip-rule="evenodd" d="M38.2293 28.3468C39.2571 22.7405 39.2565 17.1393 38.2298 11.6323L39.2129 11.449C40.2624 17.0781 40.2624 22.8026 39.2129 28.5271L38.2293 28.3468ZM28.5271 39.2129C33.9654 38.2588 38.2588 33.9654 39.2129 28.5271L38.2279 28.3543C37.3466 33.3779 33.3779 37.3466 28.3543 38.2279L28.5271 39.2129ZM11.449 39.2129C17.1735 40.2624 22.898 40.2624 28.5271 39.2129L28.3438 38.2298C22.8369 39.2565 17.2356 39.2571 11.6293 38.2293L11.449 39.2129ZM28.6225 0.858676L28.4497 1.84363C33.4733 2.72496 37.3466 6.59823 38.2279 11.6218L39.2129 11.449C38.2588 6.01073 34.0608 1.81276 28.6225 0.858676ZM11.449 0.858676C17.0781 -0.286225 22.898 -0.286225 28.6225 0.858676L28.4264 1.83926C22.8303 0.720026 17.1448 0.720683 11.6483 1.83861L11.449 0.858676ZM0.858676 11.449C1.81276 6.01073 6.01073 1.81276 11.449 0.858676L11.6218 1.84363C6.59823 2.72496 2.72496 6.59823 1.84363 11.6218L0.858676 11.449ZM0.858676 11.449L1.83926 11.6451C0.720026 17.2413 0.720683 22.9267 1.83861 28.4232L0.858676 28.6225C-0.286225 22.9934 -0.286225 17.1735 0.858676 11.449ZM0.858676 28.6225C1.81276 34.0608 6.01073 38.2588 11.449 39.2129L11.6218 38.2279C6.59823 37.3466 2.72496 33.4733 1.84363 28.4497L0.858676 28.6225Z" fill="url(#paint0_linear_1_5547)"/>
<path fill-rule="evenodd" clip-rule="evenodd" d="M20.6276 8.20335C20.2101 7.99751 19.7285 7.98682 19.3114 8.17145C18.1995 8.66365 17.2186 9.17949 16.227 9.70091C15.9679 9.83711 15.7082 9.97369 15.4452 10.1103C14.1873 10.7639 12.8829 11.4032 11.3446 11.9239C10.6425 12.1616 10.1992 12.7671 10.1992 13.3962V20.5587C10.1992 24.3098 11.8538 26.8488 13.9457 28.6015C15.9594 30.2887 18.3791 31.2421 20.1076 31.7581C21.8262 31.2434 24.1915 30.2921 26.1522 28.6092C28.1885 26.8614 29.7992 24.3213 29.7992 20.5587V13.4715C29.7992 12.825 29.3295 12.2036 28.5913 11.9775C26.4599 11.3248 24.7051 10.374 22.9313 9.41292C22.177 9.00423 21.4192 8.59366 20.6276 8.20335ZM18.5018 6.34263C19.4694 5.91431 20.5714 5.94575 21.512 6.40953C22.455 6.87445 23.287 7.32602 24.075 7.75369C25.7592 8.66779 27.2422 9.47268 29.177 10.0652C30.6326 10.5109 31.7992 11.8238 31.7992 13.4715V20.5587C31.7992 24.9905 29.8642 28.0588 27.4548 30.1268C25.0761 32.1686 22.2468 33.2308 20.3815 33.7616C20.2026 33.8125 20.0131 33.8125 19.8342 33.7616C17.9739 33.2323 15.0932 32.1721 12.6613 30.1345C10.1989 28.0714 8.19922 25.002 8.19922 20.5587V13.3962C8.19922 11.8002 9.29779 10.5053 10.7033 10.0295C12.0951 9.55833 13.2921 8.97517 14.5231 8.33558C14.7688 8.20791 15.0171 8.07732 15.269 7.9448C16.267 7.41986 17.3222 6.86484 18.5018 6.34263Z" fill="#0033C9"/>
</g>
<path d="M23.1825 14.4275C24.4711 14.3818 25.2071 14.4279 26.4325 14.6346C26.8989 14.7132 27.2465 15.1082 27.2655 15.5808C27.3152 16.8225 27.268 17.5584 27.0594 18.8308C26.97 19.3758 26.455 19.7454 25.91 19.656C25.3653 19.5665 24.9966 19.0524 25.0858 18.5076C25.1162 18.3218 25.141 18.1497 25.1639 17.9881L20.4461 22.4119C20.2494 22.5964 19.9861 22.6936 19.7166 22.6814C19.4474 22.6692 19.1947 22.5487 19.0155 22.3474L17.8045 20.9871L14.6883 23.9441C14.2877 24.3241 13.6554 24.3076 13.2752 23.907C12.8951 23.5064 12.9118 22.8741 13.3123 22.4939L17.1766 18.826C17.3729 18.6396 17.6366 18.5412 17.9071 18.5525C18.1776 18.5639 18.4321 18.6842 18.6121 18.8865L19.827 20.2508L23.9207 16.4119C23.7166 16.4129 23.4976 16.4179 23.2537 16.4265C22.7019 16.4461 22.2383 16.0145 22.2186 15.4627C22.199 14.9107 22.6305 14.4471 23.1825 14.4275Z" fill="#00CF6A"/>
</g>
<defs>
<linearGradient id="paint0_linear_1_5547" x1="-2.81746e-08" y1="8.19672" x2="40.9761" y2="9.50848" gradientUnits="userSpaceOnUse">
<stop stop-color="#F0F6FF"/>
<stop offset="0.635417" stop-color="#E8F0FD"/>
<stop offset="1" stop-color="#EEF4FE"/>
</linearGradient>
<clipPath id="clip0_1_5547">
<rect width="40" height="40" fill="white"/>
</clipPath>
<clipPath id="clip1_1_5547">
<rect width="40" height="40" fill="white"/>
</clipPath>
</defs>
</svg>
