<svg width="40" height="40" viewBox="0 0 40 40" fill="none" xmlns="http://www.w3.org/2000/svg">
<g clip-path="url(#clip0_1_6169)">
<g clip-path="url(#clip1_1_6169)">
<path d="M39.2129 11.449V11.449C40.2624 17.0781 40.2624 22.8026 39.2129 28.5271V28.5271C38.2588 33.9654 33.9654 38.2588 28.5271 39.2129V39.2129C22.898 40.2624 17.1735 40.2624 11.449 39.2129V39.2129C6.01073 38.2588 1.81276 34.0608 0.858676 28.6225V28.6225C-0.286225 22.9934 -0.286225 17.1735 0.858676 11.449V11.449C1.81276 6.01073 6.01073 1.81276 11.449 0.858676V0.858676C17.0781 -0.286225 22.898 -0.286225 28.6225 0.858676V0.858676C34.0608 1.81276 38.2588 6.01073 39.2129 11.449Z" fill="#C71716"/>
<path d="M19.5633 6.10482C19.8952 6.00171 20.2543 6.01897 20.577 6.15658C21.8792 6.71186 23.2095 7.59496 24.2274 8.73275C25.1883 9.80694 25.9117 11.1596 25.9911 12.7054C27.7998 12.5116 29.4909 13.0481 30.7899 13.7913C31.4942 14.1944 32.1071 14.671 32.5848 15.1566C33.0469 15.6263 33.4437 16.1666 33.6268 16.7132C33.7992 17.228 33.8159 17.8758 33.7528 18.5042C33.687 19.1581 33.5241 19.8925 33.2596 20.6253C32.7746 21.9687 31.897 23.4333 30.4998 24.3382C31.4937 26.1932 31.4413 28.1987 30.992 29.8089C30.7589 30.6445 30.4135 31.4015 30.0233 32.014C29.694 32.5308 29.2924 33.0091 28.8455 33.3236L28.6512 33.4476C28.1337 33.7464 27.3901 33.9086 26.6453 33.9701C25.8689 34.0341 24.9668 33.9986 24.0653 33.8158C23.524 33.706 23.1742 33.1783 23.284 32.637C23.3938 32.0958 23.9215 31.7461 24.4627 31.8558C25.1675 31.9988 25.8802 32.0265 26.4813 31.9769C27.1138 31.9247 27.511 31.797 27.6512 31.7161C27.7797 31.6419 28.041 31.404 28.3368 30.9398C28.6185 30.4975 28.8848 29.9221 29.0662 29.2718C29.4312 27.9637 29.4255 26.4632 28.6678 25.1507C28.6493 25.1187 28.6306 25.0865 28.6112 25.055C28.1201 24.258 28.4268 23.2186 29.2127 22.7826L29.3973 22.6712C30.3062 22.0886 30.9756 21.0631 31.3787 19.9466C31.5895 19.3627 31.7138 18.7891 31.7625 18.305C31.8137 17.7961 31.7723 17.4747 31.7303 17.349C31.6833 17.2086 31.5171 16.9229 31.159 16.5589C30.8164 16.2106 30.3504 15.845 29.7957 15.5277C28.6788 14.8886 27.2924 14.4966 25.8993 14.7347C24.8891 14.9074 23.9745 14.0814 23.9989 13.0853L23.9998 12.9867C23.9997 11.9521 23.5322 10.9545 22.7371 10.0658C21.9926 9.23355 21.0014 8.54933 19.9998 8.09017C18.9981 8.54931 18.007 9.23358 17.2625 10.0658C16.4676 10.9545 16 11.9521 15.9998 12.9867C15.9998 13.1896 16.015 13.39 16.0448 13.5863C16.1809 14.4849 15.3129 15.2 14.4627 14.9154C12.9546 14.4104 11.4129 14.7198 10.1483 15.3665C9.51937 15.6882 8.9842 16.0813 8.58871 16.4632C8.17467 16.8631 7.98143 17.1842 7.92953 17.3392C7.88422 17.4754 7.84268 17.8295 7.90805 18.3841C7.97022 18.9114 8.11829 19.5309 8.3641 20.1488C8.86653 21.4115 9.70077 22.4964 10.8328 22.9378C11.619 23.2442 12.0003 24.2059 11.5555 24.9769C10.7675 26.3418 10.762 27.9008 11.1405 29.2572C11.3287 29.9316 11.6056 30.5282 11.8983 30.9876C12.205 31.4691 12.478 31.7199 12.617 31.8001C12.7538 31.8789 13.141 31.9995 13.7674 32.0365C14.3617 32.0715 15.0694 32.0248 15.7752 31.8617C16.3132 31.7376 16.8501 32.0727 16.9745 32.6107C17.0988 33.1487 16.7633 33.6854 16.2254 33.8099C15.327 34.0176 14.4277 34.0795 13.6493 34.0335C12.9032 33.9895 12.1506 33.8396 11.617 33.5316C11.0816 33.2224 10.5989 32.6703 10.2118 32.0628C9.81055 31.4332 9.4546 30.6541 9.21469 29.7943C8.78187 28.2431 8.70704 26.3366 9.53695 24.5355C8.01672 23.7219 7.04946 22.2547 6.5057 20.888C6.19597 20.1094 6.00448 19.3197 5.92172 18.6175C5.84231 17.9435 5.85119 17.2471 6.03305 16.7035C6.23036 16.1144 6.67821 15.5276 7.20004 15.0238C7.74065 14.5018 8.4371 13.9944 9.23715 13.5853C10.5605 12.9086 12.2387 12.4698 14.0057 12.7533C14.0724 11.1876 14.8006 9.81802 15.7713 8.73275C16.7892 7.59486 18.1202 6.71191 19.4227 6.15658L19.5633 6.10482Z" fill="white"/>
<path d="M27.1225 17.208C27.5599 16.8711 28.1877 16.9524 28.5248 17.3896C28.8617 17.827 28.7804 18.4549 28.3432 18.792C27.5773 19.3821 27.1198 20.333 26.9164 21.1367C26.7938 21.6213 26.5611 22.245 25.9828 22.7412C25.1031 23.496 23.9831 24.0594 22.7309 24.376C22.3988 26.1961 22.1005 27.9967 22.0209 29.9805C21.9768 31.0817 21.1025 31.9999 20.0004 32C18.8982 32 18.0231 31.0818 17.9789 29.9805C17.8959 27.9116 17.5741 26.0421 17.225 24.1416C16.286 23.8114 15.4428 23.3362 14.7494 22.7412C14.1712 22.245 13.9385 21.6213 13.8159 21.1367C13.6125 20.3331 13.1549 19.3821 12.3891 18.792C11.9519 18.4549 11.8705 17.827 12.2075 17.3896C12.5446 16.9524 13.1724 16.8711 13.6098 17.208C14.8565 18.1687 15.4885 19.5911 15.7553 20.6455C15.8322 20.9492 15.923 21.1127 16.0522 21.2236C16.7084 21.7866 17.5981 22.2309 18.6342 22.4707C19.6607 22.288 20.7149 22.3124 21.7338 22.5449C22.926 22.3318 23.9481 21.8516 24.6801 21.2236C24.8093 21.1127 24.9011 20.9493 24.978 20.6455C25.2448 19.5911 25.8758 18.1686 27.1225 17.208ZM20.0004 16C21.6572 16.0001 23.0004 17.3432 23.0004 19C23.0004 20.6568 21.6572 21.9999 20.0004 22C18.3436 22 17.0004 20.6569 17.0004 19C17.0004 17.3431 18.3436 16 20.0004 16Z" fill="#FFC264"/>
</g>
</g>
<defs>
<clipPath id="clip0_1_6169">
<rect width="40" height="40" fill="white"/>
</clipPath>
<clipPath id="clip1_1_6169">
<rect width="40" height="40" fill="white"/>
</clipPath>
</defs>
</svg>
