<svg width="40" height="40" viewBox="0 0 40 40" fill="none" xmlns="http://www.w3.org/2000/svg">
<g clip-path="url(#clip0_1_3784)">
<path d="M39.2129 11.449V11.449C40.2624 17.0781 40.2624 22.8026 39.2129 28.5271V28.5271C38.2588 33.9654 33.9654 38.2588 28.5271 39.2129V39.2129C22.898 40.2624 17.1735 40.2624 11.449 39.2129V39.2129C6.01073 38.2588 1.81276 34.0608 0.858676 28.6225V28.6225C-0.286225 22.9934 -0.286225 17.1735 0.858676 11.449V11.449C1.81276 6.01073 6.01073 1.81276 11.449 0.858676V0.858676C17.0781 -0.286225 22.898 -0.286225 28.6225 0.858676V0.858676C34.0608 1.81276 38.2588 6.01073 39.2129 11.449Z" fill="white"/>
<path fill-rule="evenodd" clip-rule="evenodd" d="M38.2293 28.3468C39.2571 22.7405 39.2565 17.1393 38.2298 11.6323L39.2129 11.449C40.2624 17.0781 40.2624 22.8026 39.2129 28.5271L38.2293 28.3468ZM28.5271 39.2129C33.9654 38.2588 38.2588 33.9654 39.2129 28.5271L38.2279 28.3543C37.3466 33.3779 33.3779 37.3466 28.3543 38.2279L28.5271 39.2129ZM11.449 39.2129C17.1735 40.2624 22.898 40.2624 28.5271 39.2129L28.3438 38.2298C22.8369 39.2565 17.2356 39.2571 11.6293 38.2293L11.449 39.2129ZM28.6225 0.858676L28.4497 1.84363C33.4733 2.72496 37.3466 6.59823 38.2279 11.6218L39.2129 11.449C38.2588 6.01073 34.0608 1.81276 28.6225 0.858676ZM11.449 0.858676C17.0781 -0.286225 22.898 -0.286225 28.6225 0.858676L28.4264 1.83926C22.8303 0.720026 17.1448 0.720683 11.6483 1.83861L11.449 0.858676ZM0.858676 11.449C1.81276 6.01073 6.01073 1.81276 11.449 0.858676L11.6218 1.84363C6.59823 2.72496 2.72496 6.59823 1.84363 11.6218L0.858676 11.449ZM0.858676 11.449L1.83926 11.6451C0.720026 17.2413 0.720683 22.9267 1.83861 28.4232L0.858676 28.6225C-0.286225 22.9934 -0.286225 17.1735 0.858676 11.449ZM0.858676 28.6225C1.81276 34.0608 6.01073 38.2588 11.449 39.2129L11.6218 38.2279C6.59823 37.3466 2.72496 33.4733 1.84363 28.4497L0.858676 28.6225Z" fill="#EEF4FE"/>
<path d="M17.9238 10.3728L14.0385 14.3508L10.9602 12.5608C10.709 11.2497 10.8801 8.53293 13.5738 8.15527L17.9238 10.3728Z" fill="#00CF6A"/>
<path d="M29.2002 21.3999L25.8002 25.7999L28.0002 28.5999C29.3335 28.6666 32.0002 28.1199 32.0002 25.3999L29.2002 21.3999Z" fill="#00CF6A"/>
<path fill-rule="evenodd" clip-rule="evenodd" d="M24.6682 8.04859C26.5545 6.07855 29.879 5.33683 32.0689 7.54864C34.2495 9.75098 33.5223 13.0887 31.587 15.0003C30.7971 15.7805 29.9529 16.5994 29.0804 17.4351C30.4159 19.6752 31.677 22.0104 32.5455 23.6659C33.4315 25.3549 33.2123 27.5257 32.0218 28.9741C31.3275 29.8187 30.3823 30.3184 29.3765 30.375C28.3666 30.4319 27.3755 30.0369 26.6162 29.2451C25.3059 27.8787 23.5422 26.0048 21.8985 24.145C20.6779 25.2641 19.5424 26.2964 18.571 27.1754C18.7496 28.3517 18.8953 29.519 19.0018 30.4485C19.1869 32.0652 18.131 33.5424 16.5694 33.9161C15.0055 34.2903 13.3989 33.446 12.8447 31.9128C12.483 30.9124 12.0294 29.6123 11.6259 28.3191C10.3464 27.9118 9.06062 27.4542 8.07108 27.0893C6.54129 26.5251 5.72075 24.9041 6.08635 23.3456C6.45246 21.7848 7.91094 20.7029 9.53366 20.8925C10.4426 20.9987 11.5811 21.1435 12.7313 21.3209C13.6199 20.2944 14.6693 19.0889 15.8079 17.7941C13.9642 16.5006 12.1419 15.1492 10.7758 14.1176C8.9669 12.7516 8.84275 10.3354 10.3568 8.6957C11.6303 7.31652 13.7453 6.81592 15.5279 7.49325L15.1727 8.42805L15.5279 7.49325C17.3638 8.19081 20.003 9.23213 22.4973 10.3564C23.2406 9.55413 23.9696 8.77818 24.6682 8.04859ZM30.6477 8.95582C29.5074 7.80416 27.5004 7.98256 26.1127 9.4318C25.2714 10.3104 24.3831 11.2597 23.4761 12.2441C23.1819 12.5634 22.7154 12.6564 22.3212 12.4743C19.7029 11.2647 16.8002 10.1162 14.8176 9.36284C13.7939 8.97389 12.5429 9.27638 11.8262 10.0525C11.0648 10.8771 11.1732 11.9115 11.981 12.5215C13.523 13.6859 15.6391 15.2521 17.6983 16.6731C17.745 16.7053 17.7923 16.7367 17.8402 16.7673C18.0867 16.9245 18.252 17.1816 18.2927 17.471C18.3335 17.7604 18.2456 18.0532 18.0521 18.2723C16.4678 20.0666 15.0181 21.733 13.8804 23.0495C13.6532 23.3125 13.3056 23.4386 12.9626 23.3825C11.6712 23.1716 10.34 23.0003 9.30158 22.879C8.72886 22.8121 8.17688 23.1911 8.03349 23.8023C7.88959 24.4158 8.21685 25.0114 8.76308 25.2128C9.86782 25.6202 11.33 26.1383 12.7214 26.5665C13.0398 26.6645 13.2885 26.9145 13.3847 27.2334C13.8088 28.6394 14.322 30.1168 14.7255 31.2328C14.9292 31.7964 15.5174 32.1114 16.104 31.971C16.693 31.83 17.0836 31.2768 17.0148 30.6761C16.8939 29.6209 16.723 28.2664 16.5123 26.9544C16.4586 26.6199 16.5779 26.281 16.8293 26.0539C18.0772 24.9264 19.6455 23.5013 21.3385 21.944C21.5541 21.7456 21.8459 21.6518 22.1368 21.6873C22.4276 21.7229 22.6882 21.8842 22.8498 22.1286C22.9736 22.3159 23.1091 22.4938 23.2559 22.6605C24.9132 24.543 26.7203 26.464 28.0597 27.8608C28.437 28.2542 28.8687 28.4004 29.264 28.3782C29.6633 28.3557 30.1054 28.1558 30.4767 27.7041C31.1501 26.885 31.292 25.5817 30.7744 24.595C29.8246 22.7845 28.411 20.1734 26.9565 17.7853C26.7118 17.3835 26.7802 16.8656 27.1208 16.5411C28.1927 15.5198 29.2284 14.5189 30.1815 13.5774C31.6133 12.1631 31.7974 10.1169 30.6477 8.95582Z" fill="#0033C9"/>
</g>
<defs>
<clipPath id="clip0_1_3784">
<rect width="40" height="40" fill="white"/>
</clipPath>
</defs>
</svg>
