<svg width="40" height="40" viewBox="0 0 40 40" fill="none" xmlns="http://www.w3.org/2000/svg">
<g clip-path="url(#clip0_1_4809)">
<path d="M39.2129 11.449V11.449C40.2624 17.0781 40.2624 22.8026 39.2129 28.5271V28.5271C38.2588 33.9654 33.9654 38.2588 28.5271 39.2129V39.2129C22.898 40.2624 17.1735 40.2624 11.449 39.2129V39.2129C6.01073 38.2588 1.81276 34.0608 0.858676 28.6225V28.6225C-0.286225 22.9934 -0.286225 17.1735 0.858676 11.449V11.449C1.81276 6.01073 6.01073 1.81276 11.449 0.858676V0.858676C17.0781 -0.286225 22.898 -0.286225 28.6225 0.858676V0.858676C34.0608 1.81276 38.2588 6.01073 39.2129 11.449Z" fill="white"/>
<path fill-rule="evenodd" clip-rule="evenodd" d="M38.2293 28.3468C39.2571 22.7405 39.2565 17.1393 38.2298 11.6323L39.2129 11.449C40.2624 17.0781 40.2624 22.8026 39.2129 28.5271L38.2293 28.3468ZM28.5271 39.2129C33.9654 38.2588 38.2588 33.9654 39.2129 28.5271L38.2279 28.3543C37.3466 33.3779 33.3779 37.3466 28.3543 38.2279L28.5271 39.2129ZM11.449 39.2129C17.1735 40.2624 22.898 40.2624 28.5271 39.2129L28.3438 38.2298C22.8369 39.2565 17.2356 39.2571 11.6293 38.2293L11.449 39.2129ZM28.6225 0.858676L28.4497 1.84363C33.4733 2.72496 37.3466 6.59823 38.2279 11.6218L39.2129 11.449C38.2588 6.01073 34.0608 1.81276 28.6225 0.858676ZM11.449 0.858676C17.0781 -0.286225 22.898 -0.286225 28.6225 0.858676L28.4264 1.83926C22.8303 0.720026 17.1448 0.720683 11.6483 1.83861L11.449 0.858676ZM0.858676 11.449C1.81276 6.01073 6.01073 1.81276 11.449 0.858676L11.6218 1.84363C6.59823 2.72496 2.72496 6.59823 1.84363 11.6218L0.858676 11.449ZM0.858676 11.449L1.83926 11.6451C0.720026 17.2413 0.720683 22.9267 1.83861 28.4232L0.858676 28.6225C-0.286225 22.9934 -0.286225 17.1735 0.858676 11.449ZM0.858676 28.6225C1.81276 34.0608 6.01073 38.2588 11.449 39.2129L11.6218 38.2279C6.59823 37.3466 2.72496 33.4733 1.84363 28.4497L0.858676 28.6225Z" fill="#EEF4FE"/>
<path d="M18.5627 9.83461V9.83461C18.8775 11.5233 18.8775 13.2407 18.5627 14.958V14.958C18.2765 16.5895 16.9885 17.8775 15.357 18.1638V18.1638C13.6682 18.4786 11.9509 18.4786 10.2335 18.1638V18.1638C8.60205 17.8775 7.34266 16.6181 7.05643 14.9867V14.9867C6.71296 13.2979 6.71296 11.552 7.05643 9.83461V9.83461C7.34266 8.20312 8.60205 6.94373 10.2335 6.65751V6.65751C11.9223 6.31403 13.6682 6.31403 15.3856 6.65751V6.65751C17.0171 6.94373 18.2765 8.20312 18.5627 9.83461Z" fill="white"/>
<path fill-rule="evenodd" clip-rule="evenodd" d="M16.5955 14.5974C16.867 13.1164 16.8659 11.6456 16.5966 10.2012L18.5627 9.83461C18.8775 11.5233 18.8775 13.2407 18.5627 14.958L16.5955 14.5974ZM15.357 18.1638C16.9885 17.8775 18.2765 16.5895 18.5627 14.958L16.5928 14.6124C16.4521 15.4145 15.8135 16.0531 15.0114 16.1939L15.357 18.1638ZM10.2335 18.1638C11.9509 18.4786 13.6682 18.4786 15.357 18.1638L14.9904 16.1976C13.546 16.4669 12.0751 16.4681 10.5942 16.1966L10.2335 18.1638ZM7.05643 9.83461C6.71296 11.552 6.71296 13.2979 7.05643 14.9867C7.34266 16.6181 8.60205 17.8775 10.2335 18.1638L10.5791 16.1939C9.77704 16.0531 9.16706 15.4432 9.02635 14.6411L7.05643 14.9867L9.0163 14.588C8.72678 13.1645 8.72546 11.6875 9.01759 10.2268L7.05643 9.83461ZM10.2335 6.65751C8.60205 6.94373 7.34266 8.20312 7.05643 9.83461L9.02635 10.1802C9.16706 9.37811 9.77704 8.76814 10.5791 8.62742L10.2335 6.65751ZM15.3856 6.65751C17.0171 6.94373 18.2765 8.20312 18.5627 9.83461L16.5928 10.1802C16.4521 9.37811 15.8421 8.76814 15.04 8.62742L15.3856 6.65751ZM15.3856 6.65751C13.6682 6.31403 11.9223 6.31403 10.2335 6.65751L10.6322 8.61738C12.0557 8.32785 13.5327 8.32654 14.9934 8.61867L15.3856 6.65751Z" fill="#0033CC"/>
<path d="M18.5627 24.349V24.349C18.8775 26.094 18.8775 27.8686 18.5627 29.6432V29.6432C18.2765 31.3291 16.9885 32.66 15.357 32.9558V32.9558C13.6682 33.2811 11.9509 33.2811 10.2335 32.9558V32.9558C8.60205 32.66 7.34266 31.3587 7.05643 29.6728V29.6728C6.71296 27.9278 6.71296 26.1236 7.05643 24.349V24.349C7.34266 22.6631 8.60205 21.3618 10.2335 21.066V21.066C11.9223 20.7111 13.6682 20.7111 15.3856 21.066V21.066C17.0171 21.3618 18.2765 22.6631 18.5627 24.349Z" fill="white"/>
<path fill-rule="evenodd" clip-rule="evenodd" d="M16.5934 29.2938C16.8676 27.7484 16.8666 26.2123 16.5945 24.7041L18.5627 24.349C18.8775 26.094 18.8775 27.8686 18.5627 29.6432L16.5934 29.2938ZM15.357 32.9558L15.0002 30.9879C15.7689 30.8485 16.4397 30.1992 16.5909 29.3084L18.5627 29.6432C18.2765 31.3291 16.9885 32.66 15.357 32.9558ZM10.2335 21.066C8.60205 21.3618 7.34266 22.6631 7.05643 24.349C6.71296 26.1236 6.71296 27.9278 7.05643 29.6728C7.34266 31.3587 8.60205 32.66 10.2335 32.9558C11.9509 33.2811 13.6682 33.2811 15.357 32.9558L14.9786 30.9919C13.5419 31.2687 12.0793 31.2699 10.6058 30.9907L10.2335 32.9558L10.5903 30.9879C9.82162 30.8485 9.17945 30.2288 9.02821 29.338L7.05643 29.6728L9.01878 29.2865C8.72593 27.7987 8.72469 26.2548 9.01999 24.729L7.05643 24.349L9.02821 24.6838C9.17945 23.793 9.82162 23.1733 10.5903 23.0339L10.2335 21.066ZM10.2335 21.066L10.6449 23.0232C12.0601 22.7258 13.5282 22.7244 14.9808 23.0246L15.3856 21.066L15.0288 23.0339C15.7975 23.1733 16.4397 23.793 16.5909 24.6838L18.5627 24.349C18.2765 22.6631 17.0171 21.3618 15.3856 21.066C13.6682 20.7111 11.9223 20.7111 10.2335 21.066Z" fill="#0033CC"/>
<path d="M32.9548 24.349V24.349C33.2802 26.094 33.2802 27.8686 32.9548 29.6432V29.6432C32.6591 31.3291 31.3281 32.66 29.6422 32.9558V32.9558C27.8972 33.2811 26.1226 33.2811 24.348 32.9558V32.9558C22.6622 32.66 21.3608 31.3587 21.065 29.6728V29.6728C20.7101 27.9278 20.7101 26.1236 21.065 24.349V24.349C21.3608 22.6631 22.6622 21.3618 24.348 21.066V21.066C26.093 20.7111 27.8972 20.7111 29.6718 21.066V21.066C31.3577 21.3618 32.6591 22.6631 32.9548 24.349Z" fill="white"/>
<path fill-rule="evenodd" clip-rule="evenodd" d="M30.9876 29.2826C31.2696 27.7444 31.2685 26.2163 30.9887 24.7156L32.9548 24.349C33.2802 26.094 33.2802 27.8686 32.9548 29.6432L30.9876 29.2826ZM29.6422 32.9558C31.3281 32.66 32.6591 31.3291 32.9548 29.6432L30.9849 29.2976C30.8346 30.1541 30.1531 30.8356 29.2966 30.9859L29.6422 32.9558ZM24.348 32.9558L24.7087 30.9886C26.2469 31.2706 27.7749 31.2695 29.2757 30.9897L29.6422 32.9558C27.8972 33.2811 26.1226 33.2811 24.348 32.9558ZM21.065 24.349C20.7101 26.1236 20.7101 27.9278 21.065 29.6728C21.3608 31.3587 22.6622 32.66 24.348 32.9558L24.6936 30.9859C23.8371 30.8356 23.1852 30.1837 23.0349 29.3272L21.065 29.6728L23.0249 29.2742C22.7239 27.7944 22.7226 26.2591 23.0262 24.7412L21.065 24.349ZM24.348 21.066L24.6936 23.0359C23.8371 23.1862 23.1852 23.8381 23.0349 24.6946L21.065 24.349C21.3608 22.6631 22.6622 21.3618 24.348 21.066ZM29.6718 21.066C31.3577 21.3618 32.6591 22.6631 32.9548 24.349L30.9849 24.6946C30.8346 23.8381 30.1827 23.1862 29.3262 23.0359L29.6718 21.066ZM29.6718 21.066C27.8972 20.7111 26.093 20.7111 24.348 21.066L24.7466 23.0259C26.2264 22.7249 27.7617 22.7236 29.2796 23.0272L29.6718 21.066Z" fill="#0033CC"/>
<path d="M32.9548 9.83461V9.83461C33.2802 11.5233 33.2802 13.2407 32.9548 14.958V14.958C32.6591 16.5895 31.3281 17.8775 29.6422 18.1638V18.1638C27.8972 18.4786 26.1226 18.4786 24.348 18.1638V18.1638C22.6622 17.8775 21.3608 16.6181 21.065 14.9867V14.9867C20.7101 13.2979 20.7101 11.552 21.065 9.83461V9.83461C21.3608 8.20312 22.6622 6.94373 24.348 6.65751V6.65751C26.093 6.31403 27.8972 6.31403 29.6718 6.65751V6.65751C31.3577 6.94373 32.6591 8.20312 32.9548 9.83461Z" fill="white"/>
<path fill-rule="evenodd" clip-rule="evenodd" d="M30.9898 14.5858C31.2689 13.1123 31.2677 11.6497 30.9909 10.213L32.9548 9.83461C33.2802 11.5233 33.2802 13.2407 32.9548 14.958L30.9898 14.5858ZM29.6422 18.1638C31.3281 17.8775 32.6591 16.5895 32.9548 14.958L30.9869 14.6013C30.8475 15.37 30.1983 16.0407 29.3075 16.192L29.6422 18.1638ZM24.348 18.1638L24.6974 16.1945C26.2429 16.4687 27.7789 16.4677 29.2871 16.1955L29.6422 18.1638C27.8972 18.4786 26.1226 18.4786 24.348 18.1638ZM21.065 9.83461C20.7101 11.552 20.7101 13.2979 21.065 14.9867C21.3608 16.6181 22.6622 17.8775 24.348 18.1638L24.6828 16.192C23.792 16.0407 23.1723 15.3986 23.0329 14.6299L21.065 14.9867L23.0223 14.5753C22.7248 13.1601 22.7234 11.692 23.0236 10.2394L21.065 9.83461ZM24.348 6.65751L24.6828 8.62929C23.792 8.78053 23.1723 9.42269 23.0329 10.1914L21.065 9.83461C21.3608 8.20312 22.6622 6.94373 24.348 6.65751ZM29.6718 6.65751C31.3577 6.94373 32.6591 8.20312 32.9548 9.83461L30.9869 10.1914C30.8475 9.42269 30.2278 8.78053 29.337 8.62929L29.6718 6.65751ZM29.6718 6.65751C27.8972 6.31403 26.093 6.31403 24.348 6.65751L24.7343 8.61985C26.2221 8.327 27.7661 8.32577 29.2918 8.62106L29.6718 6.65751Z" fill="#00D16B"/>
</g>
<defs>
<clipPath id="clip0_1_4809">
<rect width="40" height="40" fill="white"/>
</clipPath>
</defs>
</svg>
