<svg width="40" height="40" viewBox="0 0 40 40" fill="none" xmlns="http://www.w3.org/2000/svg">
<g clip-path="url(#clip0_1_4718)">
<path d="M39.2129 11.449V11.449C40.2624 17.0781 40.2624 22.8026 39.2129 28.5271V28.5271C38.2588 33.9654 33.9654 38.2588 28.5271 39.2129V39.2129C22.898 40.2624 17.1735 40.2624 11.449 39.2129V39.2129C6.01073 38.2588 1.81276 34.0608 0.858676 28.6225V28.6225C-0.286225 22.9934 -0.286225 17.1735 0.858676 11.449V11.449C1.81276 6.01073 6.01073 1.81276 11.449 0.858676V0.858676C17.0781 -0.286225 22.898 -0.286225 28.6225 0.858676V0.858676C34.0608 1.81276 38.2588 6.01073 39.2129 11.449Z" fill="white"/>
<path fill-rule="evenodd" clip-rule="evenodd" d="M38.2293 28.3468C39.2571 22.7405 39.2565 17.1393 38.2298 11.6323L39.2129 11.449C40.2624 17.0781 40.2624 22.8026 39.2129 28.5271L38.2293 28.3468ZM28.5271 39.2129C33.9654 38.2588 38.2588 33.9654 39.2129 28.5271L38.2279 28.3543C37.3466 33.3779 33.3779 37.3466 28.3543 38.2279L28.5271 39.2129ZM11.449 39.2129C17.1735 40.2624 22.898 40.2624 28.5271 39.2129L28.3438 38.2298C22.8369 39.2565 17.2356 39.2571 11.6293 38.2293L11.449 39.2129ZM28.6225 0.858676L28.4497 1.84363C33.4733 2.72496 37.3466 6.59823 38.2279 11.6218L39.2129 11.449C38.2588 6.01073 34.0608 1.81276 28.6225 0.858676ZM11.449 0.858676C17.0781 -0.286225 22.898 -0.286225 28.6225 0.858676L28.4264 1.83926C22.8303 0.720026 17.1448 0.720683 11.6483 1.83861L11.449 0.858676ZM0.858676 11.449C1.81276 6.01073 6.01073 1.81276 11.449 0.858676L11.6218 1.84363C6.59823 2.72496 2.72496 6.59823 1.84363 11.6218L0.858676 11.449ZM0.858676 11.449L1.83926 11.6451C0.720026 17.2413 0.720683 22.9267 1.83861 28.4232L0.858676 28.6225C-0.286225 22.9934 -0.286225 17.1735 0.858676 11.449ZM0.858676 28.6225C1.81276 34.0608 6.01073 38.2588 11.449 39.2129L11.6218 38.2279C6.59823 37.3466 2.72496 33.4733 1.84363 28.4497L0.858676 28.6225Z" fill="#EEF4FE"/>
<path fill-rule="evenodd" clip-rule="evenodd" d="M20.002 10.541C20.5542 10.541 21.002 10.9887 21.002 11.541V13.4427C21.002 13.995 20.5542 14.4427 20.002 14.4427C19.4497 14.4427 19.002 13.995 19.002 13.4427V11.541C19.002 10.9887 19.4497 10.541 20.002 10.541Z" fill="#0033C9"/>
<path fill-rule="evenodd" clip-rule="evenodd" d="M9.22003 16.4166C9.46807 15.9231 10.0692 15.7242 10.5626 15.9722L12.0759 16.7329C12.5693 16.9809 12.7683 17.582 12.5202 18.0755C12.2722 18.5689 11.6711 18.7679 11.1776 18.5198L9.66438 17.7592C9.17093 17.5111 8.97199 16.91 9.22003 16.4166ZM30.7846 16.4166C31.0326 16.91 30.8337 17.5111 30.3402 17.7592L28.8269 18.5198C28.3335 18.7679 27.7324 18.5689 27.4843 18.0755C27.2363 17.582 27.4352 16.9809 27.9287 16.7329L29.442 15.9722C29.9354 15.7242 30.5365 15.9231 30.7846 16.4166Z" fill="#0033C9"/>
<path fill-rule="evenodd" clip-rule="evenodd" d="M20.0012 11.3999C13.5 11.3999 8.20117 16.7642 8.20117 23.4169C8.20117 23.545 8.20314 23.6727 8.20704 23.7999H13.2812C13.8335 23.7999 14.2812 24.2476 14.2812 24.7999C14.2812 25.3522 13.8335 25.7999 13.2812 25.7999H7.27257C6.76028 25.7999 6.33084 25.4128 6.27792 24.9032C6.22716 24.4145 6.20117 23.9186 6.20117 23.4169C6.20117 15.6914 12.3639 9.3999 20.0012 9.3999C27.6385 9.3999 33.8012 15.6914 33.8012 23.4169C33.8012 23.9186 33.7752 24.4145 33.7244 24.9032C33.6715 25.4128 33.2421 25.7999 32.7298 25.7999H26.8812C26.3289 25.7999 25.8812 25.3522 25.8812 24.7999C25.8812 24.2476 26.3289 23.7999 26.8812 23.7999H31.7953C31.7992 23.6727 31.8012 23.545 31.8012 23.4169C31.8012 16.7642 26.5024 11.3999 20.0012 11.3999Z" fill="#0033C9"/>
<path d="M23.0544 23.6572C22.403 22.5715 19.7116 20.0491 17.5058 18.1332C16.6976 17.4312 15.6007 18.1431 15.9229 19.1638C16.6875 21.586 17.6888 24.3186 18.4717 26.2759C20.0266 29.1402 24.773 26.5215 23.0544 23.6572Z" fill="#00CF6A"/>
<path fill-rule="evenodd" clip-rule="evenodd" d="M15.4004 30.7998C15.4004 30.2475 15.8481 29.7998 16.4004 29.7998H24.0004C24.5527 29.7998 25.0004 30.2475 25.0004 30.7998C25.0004 31.3521 24.5527 31.7998 24.0004 31.7998H16.4004C15.8481 31.7998 15.4004 31.3521 15.4004 30.7998Z" fill="#0033C9"/>
</g>
<defs>
<clipPath id="clip0_1_4718">
<rect width="40" height="40" fill="white"/>
</clipPath>
</defs>
</svg>
