<svg width="40" height="40" viewBox="0 0 40 40" fill="none" xmlns="http://www.w3.org/2000/svg">
<g clip-path="url(#clip0_1_5962)">
<rect width="40" height="40" fill="white"/>
<path d="M39.2129 11.449V11.449C40.2624 17.0781 40.2624 22.8026 39.2129 28.5271V28.5271C38.2588 33.9654 33.9654 38.2588 28.5271 39.2129V39.2129C22.898 40.2624 17.1735 40.2624 11.449 39.2129V39.2129C6.01073 38.2588 1.81276 34.0608 0.858676 28.6225V28.6225C-0.286225 22.9934 -0.286225 17.1735 0.858676 11.449V11.449C1.81276 6.01073 6.01073 1.81276 11.449 0.858676V0.858676C17.0781 -0.286225 22.898 -0.286225 28.6225 0.858676V0.858676C34.0608 1.81276 38.2588 6.01073 39.2129 11.449Z" fill="white"/>
<path fill-rule="evenodd" clip-rule="evenodd" d="M38.2293 28.3468C39.2571 22.7405 39.2565 17.1393 38.2298 11.6323L39.2129 11.449C40.2624 17.0781 40.2624 22.8026 39.2129 28.5271L38.2293 28.3468ZM28.5271 39.2129C33.9654 38.2588 38.2588 33.9654 39.2129 28.5271L38.2279 28.3543C37.3466 33.3779 33.3779 37.3466 28.3543 38.2279L28.5271 39.2129ZM11.449 39.2129C17.1735 40.2624 22.898 40.2624 28.5271 39.2129L28.3438 38.2298C22.8369 39.2565 17.2356 39.2571 11.6293 38.2293L11.449 39.2129ZM28.6225 0.858676L28.4497 1.84363C33.4733 2.72496 37.3466 6.59823 38.2279 11.6218L39.2129 11.449C38.2588 6.01073 34.0608 1.81276 28.6225 0.858676ZM11.449 0.858676C17.0781 -0.286225 22.898 -0.286225 28.6225 0.858676L28.4264 1.83926C22.8303 0.720026 17.1448 0.720683 11.6483 1.83861L11.449 0.858676ZM0.858676 11.449C1.81276 6.01073 6.01073 1.81276 11.449 0.858676L11.6218 1.84363C6.59823 2.72496 2.72496 6.59823 1.84363 11.6218L0.858676 11.449ZM0.858676 11.449L1.83926 11.6451C0.720026 17.2413 0.720683 22.9267 1.83861 28.4232L0.858676 28.6225C-0.286225 22.9934 -0.286225 17.1735 0.858676 11.449ZM0.858676 28.6225C1.81276 34.0608 6.01073 38.2588 11.449 39.2129L11.6218 38.2279C6.59823 37.3466 2.72496 33.4733 1.84363 28.4497L0.858676 28.6225Z" fill="#EEF4FE"/>
<path d="M23 5.80005C23.5523 5.80005 24 6.24776 24 6.80005C24 7.35233 23.5523 7.80005 23 7.80005H19.5996C18.164 7.80026 17.0002 8.96403 17 10.3997V12.2063C20.5645 12.2374 23.9901 12.392 25.3604 12.6125C25.9056 12.7004 26.2762 13.2138 26.1885 13.759C26.1007 14.3042 25.5872 14.6749 25.042 14.5872C25.0261 14.5846 25.0098 14.5829 24.9932 14.5803C24.9809 15.691 24.9409 17.5204 24.7979 19.6663C24.7611 20.2173 24.2845 20.6346 23.7334 20.5979C23.1826 20.5609 22.766 20.0844 22.8027 19.5334C22.9444 17.4081 22.9847 15.5996 22.9961 14.5178C19.0222 14.201 15.5094 14.2072 12.9365 14.2991C11.553 14.3485 10.4424 14.4232 9.68068 14.4846C9.58326 14.4925 9.49113 14.4997 9.40529 14.5071C9.45402 18.862 9.83756 25.3051 10.4649 28.9006C10.5945 29.6436 11.2712 30.2003 12.1934 30.2004H15C15.5523 30.2004 16 30.6482 16 31.2004C15.9998 31.7525 15.5522 32.2004 15 32.2004H12.1934C10.4721 32.2003 8.81987 31.1055 8.49513 29.2444C7.84433 25.5142 7.45817 18.9916 7.40626 14.5803C7.38855 14.583 7.37096 14.5855 7.35353 14.5881C6.80774 14.672 6.29691 14.2979 6.2129 13.7522C6.12903 13.2063 6.50394 12.6955 7.04982 12.6116C8.85592 12.3341 11.9067 12.2174 15 12.2024V10.3997C15.0002 7.85946 17.0594 5.80026 19.5996 5.80005H23Z" fill="#0033CC"/>
<path d="M22.377 22.3251C24.3614 22.1404 26.5409 22.1718 28.4756 22.3417C30.6246 22.5304 32.7464 23.9595 32.9463 26.4179C32.9792 26.8224 32.9908 27.2027 32.9941 27.5282H33.4004C33.9527 27.5282 34.4004 27.9759 34.4004 28.5282C34.4002 29.0803 33.9525 29.5282 33.4004 29.5282H32.9053L32.7236 31.2704C32.601 32.4444 31.6908 33.4249 30.4658 33.5478C27.5632 33.8389 23.3212 33.9188 20.2676 33.5683C19.0643 33.43 18.1999 32.457 18.0752 31.3251L17.8779 29.5282H17.4004C16.8482 29.5282 16.4006 29.0803 16.4004 28.5282C16.4004 27.9759 16.8481 27.5282 17.4004 27.5282H18.0107C18.0303 27.1079 18.0683 26.5909 18.1465 26.0468C18.4657 23.8272 20.3843 22.5107 22.377 22.3251ZM19.9199 29.7997L20.0635 31.1064C20.094 31.3835 20.291 31.5574 20.4961 31.581C23.3728 31.9112 27.4665 31.8394 30.2666 31.5585C30.4978 31.5351 30.706 31.344 30.7354 31.0624L30.8662 29.7997H19.9199ZM28.3008 24.3339C26.4626 24.1725 24.4059 24.1457 22.5625 24.3173C21.2396 24.4405 20.2818 25.2546 20.127 26.331C20.0651 26.7613 20.0302 27.1772 20.0117 27.5282H30.9951C30.9918 27.2475 30.98 26.9224 30.9521 26.58C30.855 25.3854 29.8027 24.4658 28.3008 24.3339Z" fill="#00CF6A"/>
</g>
<defs>
<clipPath id="clip0_1_5962">
<rect width="40" height="40" fill="white"/>
</clipPath>
</defs>
</svg>
