<svg width="40" height="40" viewBox="0 0 40 40" fill="none" xmlns="http://www.w3.org/2000/svg">
<g clip-path="url(#clip0_1_4055)">
<path d="M39.2129 11.449V11.449C40.2624 17.0781 40.2624 22.8026 39.2129 28.5271V28.5271C38.2588 33.9654 33.9654 38.2588 28.5271 39.2129V39.2129C22.898 40.2624 17.1735 40.2624 11.449 39.2129V39.2129C6.01073 38.2588 1.81276 34.0608 0.858676 28.6225V28.6225C-0.286225 22.9934 -0.286225 17.1735 0.858676 11.449V11.449C1.81276 6.01073 6.01073 1.81276 11.449 0.858676V0.858676C17.0781 -0.286225 22.898 -0.286225 28.6225 0.858676V0.858676C34.0608 1.81276 38.2588 6.01073 39.2129 11.449Z" fill="white"/>
<path fill-rule="evenodd" clip-rule="evenodd" d="M38.2293 28.3468C39.2571 22.7405 39.2565 17.1393 38.2298 11.6323L39.2129 11.449C40.2624 17.0781 40.2624 22.8026 39.2129 28.5271L38.2293 28.3468ZM28.5271 39.2129C33.9654 38.2588 38.2588 33.9654 39.2129 28.5271L38.2279 28.3543C37.3466 33.3779 33.3779 37.3466 28.3543 38.2279L28.5271 39.2129ZM11.449 39.2129C17.1735 40.2624 22.898 40.2624 28.5271 39.2129L28.3438 38.2298C22.8369 39.2565 17.2356 39.2571 11.6293 38.2293L11.449 39.2129ZM28.6225 0.858676L28.4497 1.84363C33.4733 2.72496 37.3466 6.59823 38.2279 11.6218L39.2129 11.449C38.2588 6.01073 34.0608 1.81276 28.6225 0.858676ZM11.449 0.858676C17.0781 -0.286225 22.898 -0.286225 28.6225 0.858676L28.4264 1.83926C22.8303 0.720026 17.1448 0.720683 11.6483 1.83861L11.449 0.858676ZM0.858676 11.449C1.81276 6.01073 6.01073 1.81276 11.449 0.858676L11.6218 1.84363C6.59823 2.72496 2.72496 6.59823 1.84363 11.6218L0.858676 11.449ZM0.858676 11.449L1.83926 11.6451C0.720026 17.2413 0.720683 22.9267 1.83861 28.4232L0.858676 28.6225C-0.286225 22.9934 -0.286225 17.1735 0.858676 11.449ZM0.858676 28.6225C1.81276 34.0608 6.01073 38.2588 11.449 39.2129L11.6218 38.2279C6.59823 37.3466 2.72496 33.4733 1.84363 28.4497L0.858676 28.6225Z" fill="#EEF4FE"/>
<path fill-rule="evenodd" clip-rule="evenodd" d="M13.9721 9.19123C13.9759 9.21593 13.9798 9.24138 13.9838 9.26755C14.0907 9.96378 14.2747 11.1628 14.4561 11.9973C14.5412 12.3889 14.3844 12.7934 14.0577 13.0253C12.9439 13.8157 12.1919 14.7637 11.7225 15.6028C11.2323 16.4791 11.1021 17.1386 11.1057 17.3256C11.1109 17.5941 11.0078 17.8534 10.8198 18.0451C10.6317 18.2368 10.3745 18.3448 10.1059 18.3448C9.34402 18.3448 8.86125 18.526 8.59475 18.7276C8.35572 18.9084 8.23633 19.1408 8.23633 19.4592V24.0457C8.23633 24.6382 8.56021 25.1833 9.08058 25.4666L12.2454 27.1897C12.6579 27.4143 12.8585 27.8957 12.7276 28.3468C12.5912 28.8166 12.6716 29.491 13.0346 30.112C13.3873 30.7154 13.9537 31.1762 14.6746 31.3148C15.7692 31.5253 16.4336 31.3194 16.8798 30.9995C17.3608 30.6547 17.7346 30.0729 18.0289 29.2804C18.1278 29.0142 18.3352 28.8026 18.5994 28.6984C18.8636 28.5942 19.1596 28.6072 19.4136 28.7342C19.4131 28.7339 19.43 28.7422 19.471 28.7555C19.5107 28.7684 19.5639 28.7832 19.6322 28.7986C19.7698 28.8297 19.9465 28.8586 20.1583 28.8823C20.5818 28.9295 21.1025 28.9509 21.6506 28.9397C22.7915 28.9163 23.8599 28.7556 24.3972 28.5147C24.6619 28.3961 24.9651 28.3982 25.2281 28.5206C25.4911 28.643 25.688 28.8736 25.7677 29.1525C25.9579 29.8182 26.4507 30.539 27.124 30.9413C27.7428 31.311 28.5715 31.4515 29.6346 30.9043C30.602 30.4063 30.9742 29.584 31.0071 28.5765C31.0416 27.5219 30.6853 26.3551 30.2551 25.4946C30.0956 25.1757 30.118 24.7961 30.3138 24.4982C30.8232 23.723 31.6 22.1047 31.8241 20.2136C32.045 18.3488 31.7271 16.2714 30.1391 14.4218C29.9683 14.223 29.7976 14.0335 29.6271 13.8531C27.6067 11.715 25.5863 10.8069 23.8239 10.433C22.2095 10.0905 20.789 10.1865 19.6476 10.2637C19.5218 10.2722 19.3994 10.2805 19.2805 10.2879C18.9443 10.3089 18.6202 10.1593 18.4181 9.88984C18.0086 9.34381 17.257 8.73096 15.1226 8.25181C14.762 8.17087 14.5493 8.20025 14.4352 8.23651C14.3278 8.27063 14.2528 8.3277 14.1892 8.40953C14.0411 8.60013 13.9651 8.92347 13.9721 9.19123ZM13.8294 6.33047C14.3518 6.16442 14.9345 6.15981 15.5607 6.30038C17.6212 6.76295 18.8431 7.40922 19.653 8.25824C20.7854 8.18094 22.4137 8.08933 24.239 8.47659C26.1562 8.88333 28.2694 9.80877 30.3483 11.7505C30.4887 11.5933 30.6361 11.4189 30.7825 11.232C31.2065 10.6905 31.5768 10.1006 31.7672 9.56114C31.951 9.04034 32.5222 8.76716 33.043 8.95097C33.5638 9.13478 33.837 9.70598 33.6531 10.2268C33.3602 11.0566 32.8444 11.8428 32.3572 12.4651C32.146 12.7347 31.9318 12.9842 31.7294 13.2049C33.7025 15.5557 34.0768 18.1987 33.8102 20.4489C33.582 22.3747 32.8835 24.0501 32.2803 25.1121C32.7057 26.1109 33.0473 27.3813 33.0061 28.6418C32.9559 30.1767 32.3212 31.7708 30.5499 32.6825C28.8744 33.5449 27.3118 33.3833 26.0981 32.6581C25.2737 32.1655 24.6407 31.4331 24.2311 30.6568C23.4347 30.8408 22.512 30.9225 21.6916 30.9393C21.073 30.952 20.4628 30.9287 19.9364 30.8699C19.8059 30.8554 19.672 30.8378 19.5382 30.8161C19.1899 31.4985 18.7145 32.1451 18.045 32.625C17.069 33.3246 15.8202 33.5718 14.2969 33.2788C12.9236 33.0147 11.9042 32.1414 11.3079 31.1212C10.865 30.3635 10.6245 29.4709 10.6702 28.6093L8.12424 27.2232C6.96059 26.5896 6.23633 25.3707 6.23633 24.0457V19.4592C6.23633 18.519 6.64555 17.6943 7.38821 17.1325C7.90077 16.7448 8.53495 16.5082 9.23983 16.4053C9.38076 15.8629 9.63031 15.2461 9.97701 14.6264C10.4952 13.7 11.274 12.6863 12.3752 11.7928C12.2264 11.002 12.0905 10.116 12.0083 9.58021C12.0008 9.53104 11.9937 9.48482 11.9871 9.4419C11.9824 9.41096 11.9791 9.37981 11.9772 9.34856C11.943 8.76756 12.0633 7.88576 12.61 7.18226C12.8976 6.81226 13.3002 6.49867 13.8294 6.33047Z" fill="#0033C9"/>
<path fill-rule="evenodd" clip-rule="evenodd" d="M14.6875 16.2944C15.2398 16.2944 15.6875 16.7421 15.6875 17.2944V19.2C15.6875 19.7523 15.2398 20.2 14.6875 20.2C14.1352 20.2 13.6875 19.7523 13.6875 19.2V17.2944C13.6875 16.7421 14.1352 16.2944 14.6875 16.2944Z" fill="#0033C9"/>
<path fill-rule="evenodd" clip-rule="evenodd" d="M20.4824 13.6697C20.4824 13.1174 20.9301 12.6697 21.4824 12.6697H24.7548C25.307 12.6697 25.7548 13.1174 25.7548 13.6697C25.7548 14.222 25.307 14.6697 24.7548 14.6697H21.4824C20.9301 14.6697 20.4824 14.222 20.4824 13.6697Z" fill="#00CF6A"/>
</g>
<defs>
<clipPath id="clip0_1_4055">
<rect width="40" height="40" fill="white"/>
</clipPath>
</defs>
</svg>
