<svg width="40" height="40" viewBox="0 0 40 40" fill="none" xmlns="http://www.w3.org/2000/svg">
<g clip-path="url(#clip0_1_4932)">
<rect width="40" height="40" fill="white"/>
<path d="M39.2129 11.449C40.2624 17.0781 40.2624 22.8026 39.2129 28.5271C38.2588 33.9654 33.9654 38.2588 28.5271 39.2129C22.898 40.2624 17.1735 40.2624 11.449 39.2129C6.01073 38.2588 1.81276 34.0608 0.858676 28.6225C-0.286225 22.9934 -0.286225 17.1735 0.858676 11.449C1.81276 6.01073 6.01073 1.81276 11.449 0.858676C17.0781 -0.286225 22.898 -0.286225 28.6225 0.858676C34.0608 1.81276 38.2588 6.01073 39.2129 11.449Z" fill="white"/>
<path fill-rule="evenodd" clip-rule="evenodd" d="M38.2279 11.6218L38.2279 11.6218C37.3466 6.59823 33.4733 2.72496 28.4497 1.84363L28.4381 1.84158L28.4264 1.83926C22.8303 0.720027 17.1448 0.720684 11.6483 1.83861L11.6351 1.8413L11.6218 1.84363C6.59823 2.72496 2.72496 6.59823 1.84363 11.6218L1.84158 11.6335L1.83926 11.6451C0.720027 17.2413 0.720684 22.9267 1.83861 28.4232L1.8413 28.4365L1.84363 28.4497C2.72496 33.4733 6.59823 37.3466 11.6218 38.2279L11.6293 38.2292C17.2356 39.2571 22.8369 39.2565 28.3438 38.2298L28.3543 38.2279L28.3543 38.2279C33.3779 37.3466 37.3466 33.3779 38.2279 28.3543L38.2292 28.3468C39.2571 22.7405 39.2565 17.1393 38.2298 11.6323L38.2279 11.6218ZM11.449 39.2129C17.1735 40.2624 22.898 40.2624 28.5271 39.2129C33.9654 38.2588 38.2588 33.9654 39.2129 28.5271C40.2624 22.8026 40.2624 17.0781 39.2129 11.449C38.2588 6.01073 34.0608 1.81276 28.6225 0.858676C22.898 -0.286225 17.0781 -0.286225 11.449 0.858676C6.01073 1.81276 1.81276 6.01073 0.858676 11.449C-0.286225 17.1735 -0.286225 22.9934 0.858676 28.6225C1.81276 34.0608 6.01073 38.2588 11.449 39.2129Z" fill="#EEF4FE"/>
<path d="M22 20C22 21.1046 21.1046 22 20 22C18.8954 22 18 21.1046 18 20C18 18.8954 18.8954 18 20 18C21.1046 18 22 18.8954 22 20Z" fill="#00CF6A"/>
<path fill-rule="evenodd" clip-rule="evenodd" d="M20.0007 18.6666C19.2643 18.6666 18.6673 19.2635 18.6673 19.9999C18.6673 20.7363 19.2643 21.3333 20.0007 21.3333C20.737 21.3333 21.334 20.7363 21.334 19.9999C21.334 19.2635 20.737 18.6666 20.0007 18.6666ZM17.334 19.9999C17.334 18.5272 18.5279 17.3333 20.0007 17.3333C21.4734 17.3333 22.6673 18.5272 22.6673 19.9999C22.6673 21.4727 21.4734 22.6666 20.0007 22.6666C18.5279 22.6666 17.334 21.4727 17.334 19.9999Z" fill="#00CF6A"/>
<path d="M25.5 13C25.5 14.1046 24.6046 15 23.5 15C22.3954 15 21.5 14.1046 21.5 13C21.5 11.8954 22.3954 11 23.5 11C24.6046 11 25.5 11.8954 25.5 13Z" fill="#00CF6A"/>
<path fill-rule="evenodd" clip-rule="evenodd" d="M23.5007 11.6666C22.7643 11.6666 22.1673 12.2635 22.1673 12.9999C22.1673 13.7363 22.7643 14.3333 23.5007 14.3333C24.237 14.3333 24.834 13.7363 24.834 12.9999C24.834 12.2635 24.237 11.6666 23.5007 11.6666ZM20.834 12.9999C20.834 11.5272 22.0279 10.3333 23.5007 10.3333C24.9734 10.3333 26.1673 11.5272 26.1673 12.9999C26.1673 14.4727 24.9734 15.6666 23.5007 15.6666C22.0279 15.6666 20.834 14.4727 20.834 12.9999Z" fill="#00CF6A"/>
<path d="M16 17C16 18.1046 15.1046 19 14 19C12.8954 19 12 18.1046 12 17C12 15.8954 12.8954 15 14 15C15.1046 15 16 15.8954 16 17Z" fill="#00CF6A"/>
<path fill-rule="evenodd" clip-rule="evenodd" d="M14.0007 15.6666C13.2643 15.6666 12.6673 16.2635 12.6673 16.9999C12.6673 17.7363 13.2643 18.3333 14.0007 18.3333C14.737 18.3333 15.334 17.7363 15.334 16.9999C15.334 16.2635 14.737 15.6666 14.0007 15.6666ZM11.334 16.9999C11.334 15.5272 12.5279 14.3333 14.0007 14.3333C15.4734 14.3333 16.6673 15.5272 16.6673 16.9999C16.6673 18.4727 15.4734 19.6666 14.0007 19.6666C12.5279 19.6666 11.334 18.4727 11.334 16.9999Z" fill="#00CF6A"/>
<path fill-rule="evenodd" clip-rule="evenodd" d="M19.6063 8C14.261 8 9.92774 12.3332 9.92774 17.6786C9.92774 20.0911 10.8091 22.2952 12.2688 23.9904C12.6291 24.4089 12.582 25.0403 12.1635 25.4006C11.745 25.761 11.1136 25.7139 10.7532 25.2954C8.99289 23.251 7.92774 20.5879 7.92774 17.6786C7.92774 11.2287 13.1564 6 19.6063 6C26.0562 6 31.2849 11.2287 31.2849 17.6786C31.2849 20.5879 30.2197 23.251 28.4594 25.2954C28.0991 25.7139 27.4677 25.761 27.0492 25.4006C26.6306 25.0403 26.5835 24.4089 26.9439 23.9904C28.4035 22.2952 29.2849 20.0911 29.2849 17.6786C29.2849 12.3332 24.9516 8 19.6063 8ZM15.69 27.6667C15.8425 27.1359 16.3965 26.8293 16.9273 26.9818C17.7769 27.226 18.6754 27.3571 19.6063 27.3571C20.5372 27.3571 21.4358 27.226 22.2854 26.9818C22.8162 26.8293 23.3701 27.1359 23.5227 27.6667C23.6752 28.1975 23.3686 28.7515 22.8378 28.904C21.8104 29.1993 20.7259 29.3571 19.6063 29.3571C18.4867 29.3571 17.4022 29.1993 16.3748 28.904C15.844 28.7515 15.5374 28.1975 15.69 27.6667Z" fill="#0033C9"/>
<path fill-rule="evenodd" clip-rule="evenodd" d="M16.1287 23.7606C16.6164 24.0197 16.8017 24.6252 16.5426 25.1129L12.5962 32.5415C12.3371 33.0292 11.7317 33.2145 11.2439 32.9554C10.7562 32.6963 10.5709 32.0909 10.83 31.6032L14.7764 24.1746C15.0355 23.6869 15.6409 23.5015 16.1287 23.7606Z" fill="#0033C9"/>
<path fill-rule="evenodd" clip-rule="evenodd" d="M23.0836 23.7606C23.5713 23.5015 24.1767 23.6869 24.4359 24.1746L28.3823 31.6032C28.6414 32.0909 28.456 32.6963 27.9683 32.9554C27.4806 33.2145 26.8752 33.0292 26.616 32.5415L22.6696 25.1129C22.4105 24.6252 22.5958 24.0197 23.0836 23.7606Z" fill="#0033C9"/>
<path fill-rule="evenodd" clip-rule="evenodd" d="M7.92773 33C7.92773 32.4477 8.37545 32 8.92773 32H29.3563C29.9086 32 30.3563 32.4477 30.3563 33C30.3563 33.5523 29.9086 34 29.3563 34H8.92773C8.37545 34 7.92773 33.5523 7.92773 33Z" fill="#0033CC"/>
<path fill-rule="evenodd" clip-rule="evenodd" d="M33.0709 12.9646C33.6232 12.9646 34.0709 13.4123 34.0709 13.9646V17.6789C34.0709 18.2312 33.6232 18.6789 33.0709 18.6789H30.2852C29.7329 18.6789 29.2852 18.2312 29.2852 17.6789C29.2852 17.1266 29.7329 16.6789 30.2852 16.6789H32.0709V13.9646C32.0709 13.4123 32.5186 12.9646 33.0709 12.9646Z" fill="#0033CC"/>
</g>
<defs>
<clipPath id="clip0_1_4932">
<rect width="40" height="40" fill="white"/>
</clipPath>
</defs>
</svg>
