<svg width="40" height="40" viewBox="0 0 40 40" fill="none" xmlns="http://www.w3.org/2000/svg">
<g clip-path="url(#clip0_1_5842)">
<rect width="40" height="40" fill="white"/>
<g clip-path="url(#clip1_1_5842)">
<path d="M39.2129 11.449C40.2624 17.0781 40.2624 22.8026 39.2129 28.5271C38.2588 33.9654 33.9654 38.2588 28.5271 39.2129C22.898 40.2624 17.1735 40.2624 11.449 39.2129C6.01073 38.2588 1.81276 34.0608 0.858676 28.6225C-0.286225 22.9934 -0.286225 17.1735 0.858676 11.449C1.81276 6.01073 6.01073 1.81276 11.449 0.858676C17.0781 -0.286225 22.898 -0.286225 28.6225 0.858676C34.0608 1.81276 38.2588 6.01073 39.2129 11.449Z" fill="white"/>
<path fill-rule="evenodd" clip-rule="evenodd" d="M38.2293 28.3468C39.2571 22.7405 39.2565 17.1393 38.2298 11.6323L39.2129 11.449C40.2624 17.0781 40.2624 22.8026 39.2129 28.5271L38.2293 28.3468ZM28.5271 39.2129C33.9654 38.2588 38.2588 33.9654 39.2129 28.5271L38.2279 28.3543C37.3466 33.3779 33.3779 37.3466 28.3543 38.2279L28.5271 39.2129ZM11.449 39.2129C17.1735 40.2624 22.898 40.2624 28.5271 39.2129L28.3438 38.2298C22.8369 39.2565 17.2356 39.2571 11.6293 38.2293L11.449 39.2129ZM28.6225 0.858676L28.4497 1.84363C33.4733 2.72496 37.3466 6.59823 38.2279 11.6218L39.2129 11.449C38.2588 6.01073 34.0608 1.81276 28.6225 0.858676ZM11.449 0.858676C17.0781 -0.286225 22.898 -0.286225 28.6225 0.858676L28.4264 1.83926C22.8303 0.720026 17.1448 0.720683 11.6483 1.83861L11.449 0.858676ZM0.858676 11.449C1.81276 6.01073 6.01073 1.81276 11.449 0.858676L11.6218 1.84363C6.59823 2.72496 2.72496 6.59823 1.84363 11.6218L0.858676 11.449ZM0.858676 11.449L1.83926 11.6451C0.720026 17.2413 0.720683 22.9267 1.83861 28.4232L0.858676 28.6225C-0.286225 22.9934 -0.286225 17.1735 0.858676 11.449ZM0.858676 28.6225C1.81276 34.0608 6.01073 38.2588 11.449 39.2129L11.6218 38.2279C6.59823 37.3466 2.72496 33.4733 1.84363 28.4497L0.858676 28.6225Z" fill="url(#paint0_linear_1_5842)"/>
</g>
<path d="M6.66602 14.466C6.66602 11.9993 7.98602 11.7993 9.62602 11.7993H30.3727C32.0127 11.7993 33.3327 11.9993 33.3327 14.466C33.3327 17.3327 32.0127 17.1327 30.3727 17.1327H9.62602C7.98602 17.1327 6.66602 17.3327 6.66602 14.466Z" fill="#00CF6A"/>
<path d="M23.5479 5.95842C23.9389 5.56844 24.5719 5.56931 24.9619 5.96037L29.7881 10.7992H30.373C31.1623 10.7993 32.2039 10.8268 33.0244 11.3764C33.9527 11.9981 34.333 13.0688 34.333 14.4662C34.333 15.9905 33.9882 17.152 32.9668 17.7406C32.7214 17.8821 32.4655 17.9699 32.2168 18.0268L30.0752 29.2016C29.8394 30.4329 29.5309 31.7975 28.5713 32.8031C27.5687 33.8537 26.0513 34.3334 23.8525 34.3334H15.8125C13.7438 34.3334 12.2355 33.8163 11.1982 32.766C10.1892 31.7441 9.78267 30.3685 9.55957 29.016L7.76562 18.0229C7.52204 17.9659 7.27134 17.879 7.03125 17.7406C6.01011 17.1519 5.66606 15.9903 5.66602 14.4662C5.66602 13.0688 6.04634 11.9981 6.97461 11.3764C7.79525 10.8269 8.83676 10.7992 9.62598 10.7992H10.2129L15.0381 5.96037C15.4281 5.56931 16.0621 5.56844 16.4531 5.95842C16.8439 6.34835 16.8447 6.98148 16.4551 7.37248L13.0371 10.7992H26.9629L23.5459 7.37248C23.1559 6.98142 23.1568 6.34841 23.5479 5.95842ZM11.5332 28.6908C11.7368 29.9242 12.0571 30.7896 12.6211 31.3608C13.1571 31.9035 14.0687 32.3334 15.8125 32.3334H23.8525C25.8005 32.3334 26.6633 31.905 27.124 31.4223C27.6275 30.8947 27.8662 30.0997 28.1104 28.8246L30.1611 18.1322H9.80957L11.5332 28.6908ZM17.0137 21.6664C17.566 21.6664 18.0137 22.1141 18.0137 22.6664V27.3998C18.0136 27.9521 17.5659 28.3998 17.0137 28.3998C16.4614 28.3998 16.0137 27.9521 16.0137 27.3998V22.6664C16.0137 22.1141 16.4614 21.6664 17.0137 21.6664ZM23.1465 21.6664C23.6988 21.6664 24.1465 22.1141 24.1465 22.6664V27.3998C24.1464 27.9521 23.6987 28.3998 23.1465 28.3998C22.5942 28.3998 22.1465 27.9521 22.1465 27.3998V22.6664C22.1465 22.1141 22.5942 21.6664 23.1465 21.6664ZM9.62598 12.7992C8.77556 12.7992 8.33724 12.8716 8.08789 13.0385C7.94617 13.1334 7.66602 13.397 7.66602 14.4662C7.66607 15.7984 7.97729 15.9774 8.0293 16.0072L8.03027 16.0082C8.10817 16.0531 8.25301 16.1001 8.54492 16.1215C8.7676 16.1379 8.99723 16.1363 9.28223 16.1342C9.38828 16.1334 9.50203 16.1322 9.62598 16.1322H30.373C30.4969 16.1323 30.6108 16.1334 30.7168 16.1342C31.0017 16.1363 31.2315 16.1379 31.4541 16.1215C31.7459 16.1 31.8909 16.0531 31.9688 16.0082L31.9697 16.0072C32.0223 15.977 32.333 15.7968 32.333 14.4662C32.333 13.397 32.0529 13.1334 31.9111 13.0385C31.6619 12.8715 31.2235 12.7993 30.373 12.7992H9.62598Z" fill="#0033C9"/>
</g>
<defs>
<linearGradient id="paint0_linear_1_5842" x1="-2.81746e-08" y1="8.19672" x2="40.9761" y2="9.50848" gradientUnits="userSpaceOnUse">
<stop stop-color="#F0F6FF"/>
<stop offset="0.635417" stop-color="#E8F0FD"/>
<stop offset="1" stop-color="#EEF4FE"/>
</linearGradient>
<clipPath id="clip0_1_5842">
<rect width="40" height="40" fill="white"/>
</clipPath>
<clipPath id="clip1_1_5842">
<rect width="40" height="40" fill="white"/>
</clipPath>
</defs>
</svg>
