<svg width="40" height="40" viewBox="0 0 40 40" fill="none" xmlns="http://www.w3.org/2000/svg">
<g clip-path="url(#clip0_1_3542)">
<path d="M39.2129 11.449V11.449C40.2624 17.0781 40.2624 22.8026 39.2129 28.5271V28.5271C38.2588 33.9654 33.9654 38.2588 28.5271 39.2129V39.2129C22.898 40.2624 17.1735 40.2624 11.449 39.2129V39.2129C6.01073 38.2588 1.81276 34.0608 0.858676 28.6225V28.6225C-0.286225 22.9934 -0.286225 17.1735 0.858676 11.449V11.449C1.81276 6.01073 6.01073 1.81276 11.449 0.858676V0.858676C17.0781 -0.286225 22.898 -0.286225 28.6225 0.858676V0.858676C34.0608 1.81276 38.2588 6.01073 39.2129 11.449Z" fill="white"/>
<path fill-rule="evenodd" clip-rule="evenodd" d="M38.2293 28.3468C39.2571 22.7405 39.2565 17.1393 38.2298 11.6323L39.2129 11.449C40.2624 17.0781 40.2624 22.8026 39.2129 28.5271L38.2293 28.3468ZM28.5271 39.2129C33.9654 38.2588 38.2588 33.9654 39.2129 28.5271L38.2279 28.3543C37.3466 33.3779 33.3779 37.3466 28.3543 38.2279L28.5271 39.2129ZM11.449 39.2129C17.1735 40.2624 22.898 40.2624 28.5271 39.2129L28.3438 38.2298C22.8369 39.2565 17.2356 39.2571 11.6293 38.2293L11.449 39.2129ZM28.6225 0.858676L28.4497 1.84363C33.4733 2.72496 37.3466 6.59823 38.2279 11.6218L39.2129 11.449C38.2588 6.01073 34.0608 1.81276 28.6225 0.858676ZM11.449 0.858676C17.0781 -0.286225 22.898 -0.286225 28.6225 0.858676L28.4264 1.83926C22.8303 0.720026 17.1448 0.720683 11.6483 1.83861L11.449 0.858676ZM0.858676 11.449C1.81276 6.01073 6.01073 1.81276 11.449 0.858676L11.6218 1.84363C6.59823 2.72496 2.72496 6.59823 1.84363 11.6218L0.858676 11.449ZM0.858676 11.449L1.83926 11.6451C0.720026 17.2413 0.720683 22.9267 1.83861 28.4232L0.858676 28.6225C-0.286225 22.9934 -0.286225 17.1735 0.858676 11.449ZM0.858676 28.6225C1.81276 34.0608 6.01073 38.2588 11.449 39.2129L11.6218 38.2279C6.59823 37.3466 2.72496 33.4733 1.84363 28.4497L0.858676 28.6225Z" fill="#EEF4FE"/>
<path d="M14.8869 14.7588C16.4309 14.7588 17.7588 14.6216 18.8508 14.3569C18.5581 15.6101 18.265 17.3628 18.0065 19.123C18.9035 20.627 21.3889 21.4507 25.172 21.4507C29.7272 21.4507 32.4009 20.2564 32.6858 18.1184C32.7894 19.5387 32.8666 20.9877 32.8666 22.4595C32.8666 24.518 32.7155 26.6562 32.5527 28.7012C32.3914 30.7258 30.8272 32.4104 28.8164 32.696C27.6274 32.8649 26.4106 33 25.1726 33C23.9345 33 22.7178 32.8649 21.5288 32.696C19.5179 32.4104 17.9537 30.7258 17.7925 28.7012C17.6442 26.8391 17.5056 24.8998 17.482 23.0137C17.2746 24.678 17.1458 25.8642 17.1458 25.8642C16.402 25.9428 15.6488 25.9939 14.8874 25.9939C14.1261 25.9939 13.3728 25.9428 12.6291 25.8642C12.1634 25.8149 11.7014 25.7549 11.2436 25.6899C9.23278 25.4043 7.66743 23.7198 7.49923 21.6958C7.33948 19.7733 7.19336 17.792 7.19336 15.7676C7.19336 14.3888 7.26115 12.667 7.35487 11.2468C7.4784 13.0237 9.18371 14.1839 12.1998 14.5937C13.004 14.7029 13.9014 14.7588 14.8869 14.7588Z" fill="#00CF6A"/>
<path d="M9.40259 8.86445C8.56886 9.27608 8.16899 9.76541 8.04421 10.3121C8.04708 10.3578 8.04684 10.4042 8.04331 10.4511C8.03182 10.6037 8.0206 10.7616 8.00971 11.2381C8.06124 11.7427 8.31466 12.1753 8.84002 12.5586C9.47396 13.021 10.5031 13.4013 11.9864 13.6029C12.5337 13.6772 12.9171 14.1811 12.8427 14.7284C12.7684 15.2756 12.2645 15.659 11.7172 15.5847C10.1761 15.3753 8.8558 14.9687 7.86632 14.3164C7.85289 14.8228 7.8454 15.3146 7.8454 15.7677C7.8454 16.1843 7.85173 16.5994 7.86321 17.0131C8.09759 18.1013 9.4402 19.2725 11.5101 19.4317C12.0607 19.4741 12.4728 19.9548 12.4304 20.5055C12.3881 21.0561 11.9074 21.4682 11.3567 21.4258C10.1609 21.3339 8.99609 20.9514 8.04604 20.3385C8.07826 20.7647 8.11265 21.1895 8.14784 21.613C8.27802 23.1795 9.49502 24.4809 11.0363 24.6998C11.4065 24.7524 11.7764 24.8012 12.1467 24.8434C12.6954 24.9059 13.0896 25.4014 13.0271 25.9501C12.9646 26.4989 12.4691 26.893 11.9204 26.8305C11.5268 26.7857 11.1379 26.7343 10.755 26.6799C8.27459 26.3276 6.36092 24.2601 6.15471 21.7786C5.84466 18.0475 5.9997 14.4491 5.9997 10.7222C5.9997 9.05342 6.991 7.82462 8.51719 7.07111C9.99746 6.34027 12.4071 6 14.8865 6C16.7846 6 18.4239 6.19959 19.7438 6.61155C21.0549 7.02075 22.1447 7.67019 22.799 8.63926C23.108 9.09699 22.9875 9.71857 22.5297 10.0276C22.072 10.3366 21.4504 10.2161 21.1414 9.75838C20.8355 9.30538 20.2203 8.85541 19.148 8.52072C18.0844 8.18878 16.662 8 14.8865 8C12.5408 8 10.4856 8.32973 9.40259 8.86445Z" fill="#0033C9"/>
<path fill-rule="evenodd" clip-rule="evenodd" d="M16.6325 17.7286C16.6325 17.7987 16.6342 17.868 16.6377 17.9366C16.5449 19.3632 16.4782 21.0764 16.4782 22.4596C16.4782 22.8117 16.4825 23.1657 16.4905 23.5209C16.4761 23.6111 16.474 23.7048 16.4857 23.8C16.4902 23.8363 16.4951 23.8725 16.5006 23.9085C16.549 25.5473 16.6695 27.2016 16.7953 28.7807C16.9932 31.2655 18.9074 33.3338 21.3878 33.6861C22.5939 33.8574 23.8646 34.0001 25.1722 34.0001C26.4799 34.0001 27.7505 33.8574 28.9567 33.6861C31.437 33.3338 33.8021 30.9848 34 28.5V18.5C34.0139 18.3651 34 18.1412 34 18C34 16.3312 32.7196 14.831 31.1934 14.0774C29.7131 13.3466 27.6511 13.0063 25.1717 13.0063C22.6922 13.0063 20.6302 13.3466 19.1499 14.0774C17.6238 14.831 16.6325 16.0598 16.6325 17.7286ZM20.0354 15.8708C19.1325 16.3165 18.7384 16.8534 18.6515 17.4557L18.6761 17.4575C18.6646 17.6098 18.6534 17.7672 18.6425 17.9289C18.7077 18.5606 19.0964 19.1228 20.0354 19.5863C21.1184 20.1211 22.826 20.4508 25.1717 20.4508C27.5173 20.4508 29.2249 20.1211 30.308 19.5863C31.1739 19.1588 31.5718 18.6474 31.6796 18.075C31.6706 17.9542 31.6919 17.6652 31.6919 17.4563C31.6052 16.8538 31.2112 16.3167 30.308 15.8708C29.2249 15.3361 27.5173 15.0063 25.1717 15.0063C22.826 15.0063 21.1184 15.3361 20.0354 15.8708ZM18.4782 22.4596C18.4782 22.0063 18.4857 21.5142 18.4991 21.0075C18.7029 21.1422 18.9204 21.2663 19.1499 21.3797C20.6302 22.1105 22.6922 22.4508 25.1717 22.4508C27.6511 22.4508 29.7131 22.1105 31.1934 21.3797C31.4222 21.2667 31.7967 21.1343 32 21C32.0153 21.4818 32 22.0145 32 22.5C32 22.9115 32.0112 23.0824 32 23.5C31.7662 24.5885 30.2723 25.9644 28.2018 26.1236C27.1978 26.2008 26.1889 26.2558 25.1723 26.2558C24.1557 26.2558 23.1468 26.2008 22.1428 26.1236C20.0716 25.9643 18.7286 24.7917 18.4955 23.7028C18.4843 23.2856 18.4782 22.8708 18.4782 22.4596ZM32 27C31.048 27.617 29.5555 28.0254 28.3552 28.1177C27.3234 28.1971 26.2591 28.2558 25.1723 28.2558C24.0856 28.2558 23.0212 28.1971 21.9895 28.1177C20.789 28.0254 19.6198 27.6403 18.6677 27.0232C18.7056 27.5584 18.7468 28.0922 18.789 28.6219C18.9136 30.1863 20.1278 31.4871 21.669 31.706C22.841 31.8724 24.0038 32.0001 25.1722 32.0001C26.3407 32.0001 27.5035 31.8724 28.6754 31.706C30.2167 31.4871 31.8754 30.0644 32 28.5C32.0422 27.9703 31.9621 27.5351 32 27Z" fill="#0033C9"/>
</g>
<defs>
<clipPath id="clip0_1_3542">
<rect width="40" height="40" fill="white"/>
</clipPath>
</defs>
</svg>
