<svg width="40" height="40" viewBox="0 0 40 40" fill="none" xmlns="http://www.w3.org/2000/svg">
<g clip-path="url(#clip0_1_4523)">
<path d="M39.2129 11.449V11.449C40.2624 17.0781 40.2624 22.8026 39.2129 28.5271V28.5271C38.2588 33.9654 33.9654 38.2588 28.5271 39.2129V39.2129C22.898 40.2624 17.1735 40.2624 11.449 39.2129V39.2129C6.01073 38.2588 1.81276 34.0608 0.858676 28.6225V28.6225C-0.286225 22.9934 -0.286225 17.1735 0.858676 11.449V11.449C1.81276 6.01073 6.01073 1.81276 11.449 0.858676V0.858676C17.0781 -0.286225 22.898 -0.286225 28.6225 0.858676V0.858676C34.0608 1.81276 38.2588 6.01073 39.2129 11.449Z" fill="white"/>
<path fill-rule="evenodd" clip-rule="evenodd" d="M38.0326 28.3107C39.056 22.7281 39.0554 17.1515 38.0332 11.669L39.2128 11.449L38.0309 11.6564C37.1642 6.71573 33.3558 2.90741 28.4152 2.04062L28.6225 0.858676C34.0608 1.81276 38.2588 6.01073 39.2129 11.449C40.2624 17.0781 40.2624 22.8026 39.2129 28.5271L38.0326 28.3107ZM28.5271 39.2129C33.9654 38.2588 38.2588 33.9654 39.2129 28.5271L38.0309 28.3198C37.1642 33.2604 33.2604 37.1642 28.3198 38.0309L28.5271 39.2129ZM11.449 39.2129C17.1735 40.2624 22.898 40.2624 28.5271 39.2129L28.3072 38.0332C22.8247 39.0554 17.2481 39.056 11.6654 38.0326L11.449 39.2128L11.6564 38.0309C6.71573 37.1642 2.90741 33.3558 2.04062 28.4152L0.858676 28.6225L2.0346 28.3834C0.922065 22.9134 0.921277 17.2548 2.03537 11.6844L0.858676 11.449L2.04062 11.6564C2.90741 6.71573 6.71573 2.90741 11.6564 2.04062L11.449 0.858676L11.6882 2.0346C17.1582 0.922065 22.8167 0.921277 28.3872 2.03537L28.6225 0.858676C22.898 -0.286225 17.0781 -0.286225 11.449 0.858676C6.01073 1.81276 1.81276 6.01073 0.858676 11.449C-0.286225 17.1735 -0.286225 22.9934 0.858676 28.6225C1.81276 34.0608 6.01073 38.2588 11.449 39.2129Z" fill="#EEF4FE"/>
<path d="M18.9261 9.28389C19.5896 8.90081 20.4071 8.90081 21.0705 9.28389L28.7424 13.7134C29.4059 14.0964 29.8146 14.8044 29.8146 15.5705V24.4295C29.8146 25.1956 29.4059 25.9036 28.7424 26.2867L21.0705 30.7161C20.4071 31.0992 19.5896 31.0992 18.9261 30.7161L11.2542 26.2867C10.5907 25.9036 10.182 25.1956 10.182 24.4295V15.5705C10.182 14.8044 10.5907 14.0964 11.2542 13.7134L18.9261 9.28389Z" fill="url(#paint0_linear_1_4523)"/>
<g clip-path="url(#clip1_1_4523)">
<path opacity="0.3" d="M21.5948 8.45026C20.3204 8.84097 18.9258 8.84097 17.6514 8.4043L17.435 8.54219C18.1323 8.795 18.8777 8.90992 19.6472 8.90992C20.3685 8.90992 21.0898 8.795 21.7871 8.56518L21.5948 8.45026ZM30.6356 18.5856L29.4333 19.8497L30.6356 20.3553V20.1485L29.7219 19.7807L30.6356 18.8155V18.5626V18.5856ZM8.61066 19.9186L9.5484 20.2863L8.61066 21.2976V21.5734L9.78885 20.3093L9.88502 20.2174L8.61066 19.7118V19.9186Z" fill="url(#paint1_linear_1_4523)"/>
<path opacity="0.3" d="M29.3372 12.7482C29.3372 12.7482 29.1208 12.5873 29.0246 12.5183L30.6596 15.667V15.2303L29.3612 12.7482H29.3372ZM30.6356 16.8851L27.4617 20.2865L30.6356 21.5965V21.4126L27.7743 20.2175L30.6356 17.1609V16.8851ZM19.6712 30.0082C18.8537 30.0082 18.0602 30.1231 17.3148 30.3759L17.5312 30.4908C18.2045 30.284 18.9258 30.192 19.6712 30.192C20.4166 30.192 21.0658 30.284 21.739 30.4908L21.9314 30.3759C21.2101 30.1461 20.4166 30.0312 19.6472 30.0312L19.6712 30.0082ZM8.61066 18.4709V18.6777L11.5441 19.8728L8.61066 22.9755V23.2513L11.7605 19.8958L11.8567 19.8039L8.61066 18.4938V18.4709ZM8.70684 24.4234C8.80301 24.929 9.04346 25.3887 9.40413 25.7794L8.70684 24.4234ZM10.2697 12.4954C10.2697 12.4954 10.1014 12.5873 10.0293 12.6562L8.61066 15.3452V15.7359L10.3419 12.4494L10.2697 12.4954ZM22.9172 9.16288L22.4123 9.34674C22.4123 9.34674 22.2199 9.43867 22.1238 9.43867C21.3303 9.71446 20.4887 9.85236 19.6472 9.85236C18.6854 9.85236 17.7476 9.69148 16.882 9.34674L16.353 9.13989L16.1607 9.23182L16.8339 9.50762C17.7476 9.85236 18.6854 10.0362 19.6712 10.0362C20.5368 10.0362 21.4024 9.89832 22.2199 9.59955C22.3161 9.59955 22.4123 9.5306 22.5085 9.50762L23.1336 9.25481L22.9413 9.16288H22.9172Z" fill="url(#paint2_linear_1_4523)"/>
<path opacity="0.3" d="M22.9413 29.5025C21.8833 29.0888 20.8013 28.882 19.6712 28.882C18.6614 28.882 17.6755 29.0428 16.7137 29.3646C16.6176 29.4106 16.4973 29.4565 16.4012 29.4795L15.9924 29.6404L16.2088 29.7323L16.4733 29.6404C16.4733 29.6404 16.6897 29.5485 16.7859 29.5255C17.6996 29.2267 18.6854 29.0428 19.6712 29.0428C20.7773 29.0428 21.8352 29.2497 22.8692 29.6404L23.0615 29.7323L23.2779 29.6174L22.9413 29.5025ZM27.0048 21.1138C26.5961 20.9529 26.1873 20.7921 25.7786 20.6312L29.8181 16.3334L29.8662 16.2645L27.4617 11.6449L27.1491 11.507L29.6498 16.2645L25.4419 20.7231L25.5862 20.7691C26.0431 20.93 26.4999 21.0908 26.9087 21.2747L30.2509 22.6537L27.9426 27.0433L28.2552 26.8825L30.4673 22.6537L30.5154 22.5617L27.0048 21.0908V21.1138ZM13.8765 19.3441L13.7562 19.2982C13.3475 19.1603 12.9628 18.9994 12.6021 18.8615L9.06753 17.4596L12.1933 11.4151L11.8808 11.576L8.80304 17.5285L12.53 19.0224C12.8425 19.1603 13.2032 19.2982 13.5639 19.4131L9.50033 23.7338L9.45225 23.7798L11.1113 26.9744L11.4239 27.1123L9.69269 23.8028L13.9005 19.3441H13.8765ZM24.2157 9.87528L22.8692 10.4039C22.8692 10.4039 22.6528 10.4958 22.5566 10.5188C21.6429 10.8176 20.6811 11.0014 19.6953 11.0014C18.5652 11.0014 17.5072 10.7946 16.4973 10.4039L15.1027 9.85229L14.8863 9.96721L16.4252 10.5648C17.4832 10.9784 18.5652 11.1853 19.7193 11.1853C20.7292 11.1853 21.715 11.0244 22.6528 10.7027C22.7489 10.6567 22.8932 10.6107 22.9894 10.5877L24.4561 10.0132L24.2638 9.89826L24.2157 9.87528Z" fill="url(#paint3_linear_1_4523)"/>
<path opacity="0.3" d="M23.3981 28.4453C22.2199 27.9856 20.9696 27.7558 19.6712 27.7558C18.5171 27.7558 17.387 27.9396 16.329 28.3074C16.1847 28.3533 16.0645 28.3993 15.9443 28.4223L14.694 28.9049L14.9104 28.9968L16.0164 28.5832C16.1366 28.5142 16.2809 28.4912 16.4011 28.4453C17.435 28.0775 18.5411 27.9167 19.6712 27.9167C20.9215 27.9167 22.1478 28.1465 23.3019 28.6061L24.3599 29.0198L24.5763 28.9049L23.3981 28.4223V28.4453ZM26.5239 22.148C26.0911 21.9641 25.6343 21.8033 25.1774 21.6654C24.6725 21.5045 24.1675 21.3666 23.6386 21.2287L28.4235 16.1725L28.4715 16.1036L25.6102 10.6567L25.5621 10.5647H25.49L23.3019 11.4381C23.2058 11.484 23.0615 11.53 22.9413 11.553C21.8833 11.9207 20.8013 12.1046 19.6712 12.1046C18.3968 12.1046 17.1706 11.8518 16.0164 11.4151L13.8524 10.5417H13.7803L10.414 16.9539L12.9627 18.0111C13.3234 18.149 13.7081 18.3099 14.1409 18.4248C14.6459 18.5857 15.1268 18.7236 15.6557 18.8615L10.8949 23.9407L10.8468 23.9866L12.9387 27.9856L13.2513 28.1695L11.0632 23.9866L15.8962 18.8385L15.9924 18.7466L15.8481 18.7006C15.271 18.5857 14.718 18.4248 14.165 18.2409C13.7562 18.126 13.3715 17.9652 13.0349 17.8273L10.6544 16.862L13.8283 10.7716L15.9202 11.599C17.0744 12.0586 18.3487 12.2884 19.6472 12.2884C20.7773 12.2884 21.9073 12.1046 22.9894 11.7368C23.1096 11.6909 23.2539 11.6449 23.3741 11.6219L25.466 10.7946L28.2071 16.0806L23.3981 21.2287L23.3019 21.3206L23.4462 21.3666C23.9992 21.4815 24.5763 21.6424 25.1053 21.8262C25.5862 21.9641 26.019 22.148 26.4277 22.3089L28.6158 23.2052L26.0671 28.0775L26.3797 27.9167L28.8322 23.2052L28.8803 23.1133L26.5239 22.125V22.148Z" fill="url(#paint4_linear_1_4523)"/>
<path opacity="0.3" d="M26.0431 23.1593C25.6343 22.9985 25.2015 22.8376 24.7687 22.6767C23.6386 22.332 22.4844 22.0791 21.3303 21.9642L26.9808 15.9658L27.0289 15.9198L24.961 11.9897L23.7348 12.4724C23.6145 12.5413 23.4462 12.5643 23.302 12.6333C22.1478 13.024 20.8975 13.2308 19.6472 13.2308C18.2285 13.2308 16.858 12.978 15.5355 12.4724L14.4054 12.0127H14.3093L12.001 16.4024L13.4196 16.954C13.7322 17.0919 14.1169 17.2528 14.5016 17.3677C15.6317 17.7124 16.7859 17.9652 17.94 18.0802L12.2895 24.0786L12.2414 24.1476L14.3093 28.0546L15.5355 27.572C15.6798 27.5031 15.8241 27.4801 15.9683 27.4111C17.1465 27.0204 18.3728 26.8136 19.6472 26.8136C21.0658 26.8136 22.4364 27.0664 23.7348 27.572L24.8889 28.0317H24.9851L27.2212 23.7569L27.2693 23.665L26.0431 23.1593ZM24.8889 27.8248L23.8069 27.4111C22.4844 26.9055 21.0899 26.6297 19.6472 26.6297C18.3488 26.6297 17.0984 26.8366 15.8962 27.2503C15.7519 27.3192 15.5836 27.3422 15.4634 27.4111L14.3814 27.8248L12.4578 24.1706L18.3247 17.9423H18.1324C16.9061 17.8273 15.7039 17.5745 14.5497 17.1838C14.165 17.0689 13.8284 16.931 13.4677 16.7931L12.2414 16.3105L14.3814 12.2426L15.4634 12.6562C16.7859 13.1848 18.2045 13.4377 19.6472 13.4377C20.9215 13.4377 22.1959 13.2308 23.3741 12.8171C23.5184 12.7712 23.6867 12.7252 23.8069 12.6562L24.8889 12.2426L26.8125 15.8968L20.9696 22.1251H21.162C22.3642 22.24 23.5665 22.4928 24.7206 22.8835C25.1534 23.0214 25.5862 23.1823 25.9709 23.3432L27.0289 23.8028L24.8889 27.8478V27.8248Z" fill="url(#paint5_linear_1_4523)"/>
<path d="M24.2397 23.7343C22.1238 23.0448 20.1762 22.9299 18.5652 23.0678L24.2397 17.0233L25.3458 15.8512L24.2397 13.7368L24.0955 13.7828C23.9512 13.8517 23.7829 13.8977 23.6386 13.9437C22.3642 14.3803 21.0177 14.6102 19.6712 14.6102C18.1324 14.6102 16.6416 14.3344 15.223 13.7828L15.0787 13.7368L13.9486 15.8972L14.1169 15.9661C14.4295 16.104 14.7661 16.2189 15.0787 16.3109C16.5454 16.7935 18.0843 17.0233 19.6472 17.0233C20.0079 17.0233 20.3926 17.0233 20.7532 16.9774L15.0787 23.0218L13.9727 24.1939L15.0787 26.3083L15.223 26.2624C15.3672 26.1934 15.5356 26.1475 15.6798 26.1015C16.9542 25.6648 18.3007 25.435 19.6472 25.435C21.1861 25.435 22.6768 25.7108 24.0955 26.2624L24.2397 26.3083L25.3698 24.148C24.9851 23.9871 24.6004 23.8492 24.2397 23.7343Z" fill="url(#paint6_linear_1_4523)"/>
</g>
<path d="M18.7424 7.44897C19.5195 7.00032 20.4771 7.00032 21.2542 7.44897L30.2395 12.6365C31.0165 13.0851 31.4953 13.914 31.4954 14.8113V25.1873C31.4953 26.0845 31.0165 26.9134 30.2395 27.3621L21.2542 32.5496C20.4771 32.9982 19.5195 32.9982 18.7424 32.5496L9.75708 27.3621C8.98028 26.9134 8.50229 26.0843 8.5022 25.1873V14.8113C8.50227 13.9142 8.98028 13.0851 9.75708 12.6365L18.7424 7.44897ZM21.0725 9.28296C20.4091 8.89993 19.5914 8.90003 18.928 9.28296L11.2561 13.7126C10.5926 14.0957 10.1838 14.8039 10.1838 15.5701V24.4285C10.1838 25.1946 10.5926 25.9028 11.2561 26.2859L18.928 30.7156C19.5914 31.0985 20.4091 31.0986 21.0725 30.7156L28.7444 26.2859C29.4077 25.9028 29.8167 25.1945 29.8167 24.4285V15.5701C29.8167 14.804 29.4077 14.0958 28.7444 13.7126L21.0725 9.28296Z" fill="#3B4D73"/>
<path fill-rule="evenodd" clip-rule="evenodd" d="M18.4748 6.9833C19.4184 6.43851 20.5809 6.43851 21.5245 6.98331L30.5098 12.1711C31.4534 12.7159 32.0347 13.7227 32.0347 14.8123V25.1878C32.0347 26.2774 31.4534 27.2842 30.5098 27.829L21.5245 33.0168C20.5809 33.5616 19.4184 33.5616 18.4748 33.0168L9.48953 27.829C8.54594 27.2842 7.96466 26.2774 7.96466 25.1878V14.8123C7.96466 13.7227 8.54594 12.7159 9.48953 12.1711L18.4748 6.9833ZM20.9863 7.9155C20.3758 7.56298 19.6235 7.56298 19.013 7.9155L10.0277 13.1033C9.41716 13.4558 9.04104 14.1073 9.04104 14.8123V25.1878C9.04104 25.8928 9.41716 26.5443 10.0277 26.8968L19.013 32.0846C19.6235 32.4371 20.3758 32.4371 20.9863 32.0846L29.9716 26.8968C30.5822 26.5443 30.9583 25.8928 30.9583 25.1878V14.8123C30.9583 14.1073 30.5822 13.4558 29.9716 13.1033L20.9863 7.9155Z" fill="url(#paint7_linear_1_4523)"/>
<path d="M26.422 10.4327L21.2548 7.44929C20.4777 7.00063 19.5203 7.00063 18.7432 7.44929L9.75798 12.637C8.9809 13.0857 8.5022 13.9149 8.5022 14.8122V25.1877C8.5022 26.085 8.9809 26.9141 9.75797 27.3628L13.1806 29.3389L26.422 10.4327Z" fill="url(#paint8_linear_1_4523)"/>
</g>
<defs>
<linearGradient id="paint0_linear_1_4523" x1="19.0484" y1="29.6106" x2="7.84181" y2="15.7571" gradientUnits="userSpaceOnUse">
<stop stop-color="#728DBF"/>
<stop offset="0.470267" stop-color="#7D9DD7"/>
<stop offset="1" stop-color="#DDE8FA"/>
</linearGradient>
<linearGradient id="paint1_linear_1_4523" x1="15.1625" y1="22.5918" x2="23.8641" y2="7.27676" gradientUnits="userSpaceOnUse">
<stop offset="0.0597444" stop-color="#8AA9E3"/>
<stop offset="0.545638" stop-color="#D5D5D5"/>
<stop offset="0.855137" stop-color="#4F70AB"/>
</linearGradient>
<linearGradient id="paint2_linear_1_4523" x1="15.1696" y1="32.142" x2="31.5359" y2="14.3559" gradientUnits="userSpaceOnUse">
<stop offset="0.0597444" stop-color="#8AA9E3"/>
<stop offset="0.545638" stop-color="#D5D5D5"/>
<stop offset="0.855137" stop-color="#4F70AB"/>
</linearGradient>
<linearGradient id="paint3_linear_1_4523" x1="15.2619" y1="31.2698" x2="30.4065" y2="13.8634" gradientUnits="userSpaceOnUse">
<stop offset="0.0597444" stop-color="#8AA9E3"/>
<stop offset="0.545638" stop-color="#D5D5D5"/>
<stop offset="0.855137" stop-color="#4F70AB"/>
</linearGradient>
<linearGradient id="paint4_linear_1_4523" x1="15.9072" y1="30.4489" x2="30.1024" y2="15.5201" gradientUnits="userSpaceOnUse">
<stop offset="0.0597444" stop-color="#8AA9E3"/>
<stop offset="0.545638" stop-color="#D5D5D5"/>
<stop offset="0.855137" stop-color="#4F70AB"/>
</linearGradient>
<linearGradient id="paint5_linear_1_4523" x1="16.5429" y1="29.2971" x2="28.8999" y2="16.9379" gradientUnits="userSpaceOnUse">
<stop offset="0.0597444" stop-color="#8AA9E3"/>
<stop offset="0.545638" stop-color="#D5D5D5"/>
<stop offset="0.855137" stop-color="#4F70AB"/>
</linearGradient>
<linearGradient id="paint6_linear_1_4523" x1="17.7514" y1="-0.315396" x2="24.7558" y2="31.0724" gradientUnits="userSpaceOnUse">
<stop stop-color="#566072"/>
<stop offset="1" stop-color="#3B4A6A"/>
</linearGradient>
<linearGradient id="paint7_linear_1_4523" x1="13.6581" y1="9.10322" x2="24.5802" y2="29.8799" gradientUnits="userSpaceOnUse">
<stop stop-color="#D9E0E5"/>
<stop offset="1" stop-color="#6C7FA0"/>
</linearGradient>
<linearGradient id="paint8_linear_1_4523" x1="12.1676" y1="6.78352" x2="15.4642" y2="29.5836" gradientUnits="userSpaceOnUse">
<stop stop-color="#ADC2EA" stop-opacity="0.55"/>
<stop offset="0.292441" stop-color="#ADC2EA" stop-opacity="0.393926"/>
<stop offset="1" stop-color="#ADC2EA" stop-opacity="0"/>
</linearGradient>
<clipPath id="clip0_1_4523">
<rect width="40" height="40" fill="white"/>
</clipPath>
<clipPath id="clip1_1_4523">
<rect width="21.097" height="21.9984" fill="white" transform="translate(9.88257 8.49243)"/>
</clipPath>
</defs>
</svg>
