<svg width="40" height="40" viewBox="0 0 40 40" fill="none" xmlns="http://www.w3.org/2000/svg">
<g clip-path="url(#clip0_1_6091)">
<path d="M11.5488 1.34863C17.1115 0.217257 22.8642 0.216603 28.5244 1.34863L28.5361 1.35156C33.767 2.26928 37.8029 6.30434 38.7207 11.5352L38.7217 11.541C39.7597 17.1088 39.7593 22.7714 38.7207 28.4365V28.4404C37.803 33.6714 33.6714 37.803 28.4404 38.7207L28.4355 38.7217C22.8675 39.7598 17.2045 39.7594 11.5391 38.7207H11.5352C6.46793 37.8316 2.5224 34.0164 1.44629 29.0234L1.35156 28.5361L1.34863 28.5225C0.217301 22.9598 0.216595 17.2071 1.34863 11.5469L1.35156 11.5352C2.26936 6.30449 6.30449 2.26936 11.5352 1.35156L11.5488 1.34863Z" fill="white" stroke="#F2F6F7"/>
<path d="M18.7463 6.47407C19.2522 6.44601 19.7074 6.80556 19.7883 7.31684C19.8745 7.86236 19.5018 8.37418 18.9562 8.4604C16.2433 8.88925 14.1448 10.02 12.423 11.8413C13.8198 11.7853 15.3142 11.7625 16.799 11.7602V11.7622C17.4342 11.7588 18.0458 11.7596 18.6047 11.7622C19.1568 11.7647 19.6031 12.214 19.6008 12.7661C19.5982 13.3183 19.1482 13.7647 18.5959 13.7622L16.759 13.7631C14.8262 13.774 12.697 13.816 11.2053 13.9047C10.7532 13.9317 10.3524 14.3059 10.3146 14.8403C9.96998 19.7191 9.93353 24.3702 10.2053 29.1997C10.2913 30.7267 11.4616 31.8836 12.883 31.934C17.4273 32.095 22.1564 32.0244 25.0129 31.9106C25.5368 31.8897 25.9892 31.442 25.9894 30.8422V19.6C25.9895 19.0479 26.4374 18.6003 26.9894 18.6C27.5417 18.6 27.9894 19.0478 27.9894 19.6V30.8422C27.9892 32.4635 26.7409 33.8439 25.093 33.9096C22.1956 34.0251 17.4149 34.0961 12.8117 33.9331C10.2937 33.8437 8.34865 31.8063 8.2082 29.312C7.93163 24.3968 7.96899 19.6605 8.31952 14.6987C8.3689 14.0011 8.6531 13.3601 9.09784 12.8676C11.3677 9.37669 14.3694 7.16152 18.6447 6.48579L18.7463 6.47407Z" fill="#0033C9"/>
<path fill-rule="evenodd" clip-rule="evenodd" d="M20.8984 23.3584C22.0641 23.4755 23 24.4521 23 25.6738C22.9998 26.9766 21.9353 27.9998 20.6631 28C19.47 28 18.4594 27.1003 18.3379 25.9141L18.3252 25.6738L18.3379 25.4326C18.4595 24.2464 19.47 23.3467 20.6631 23.3467L20.8984 23.3584ZM20.6631 24.8467C20.2006 24.8467 19.8252 25.2173 19.8252 25.6738C19.8254 26.1017 20.155 26.4538 20.5771 26.4961L20.6631 26.5C21.0965 26.4998 21.4533 26.1746 21.4961 25.7578L21.5 25.6738C21.5 25.2175 21.1253 24.8469 20.6631 24.8467Z" fill="#0033C9"/>
<path d="M20.4902 19.0723C20.8807 18.6823 21.5139 18.6822 21.9043 19.0723C22.2947 19.4626 22.2943 20.0958 21.9043 20.4863L15.4873 26.9033C15.0968 27.2937 14.4637 27.2938 14.0732 26.9033C13.683 26.5128 13.683 25.8797 14.0732 25.4893L20.4902 19.0723Z" fill="#0033C9"/>
<path fill-rule="evenodd" clip-rule="evenodd" d="M15.3369 18C16.6093 18 17.6746 19.0232 17.6748 20.3262C17.6748 21.6293 16.6095 22.6533 15.3369 22.6533C14.0645 22.6531 13 21.6292 13 20.3262C13.0002 19.0234 14.0647 18.0002 15.3369 18ZM15.3369 19.5C14.8748 19.5002 14.5002 19.87 14.5 20.3262C14.5 20.7542 14.8296 21.1062 15.252 21.1484L15.3369 21.1533C15.7704 21.1533 16.127 20.8279 16.1699 20.4111L16.1748 20.3262C16.1746 19.8699 15.7992 19.5 15.3369 19.5Z" fill="#0033C9"/>
<path fill-rule="evenodd" clip-rule="evenodd" d="M31.6797 7.74219C31.9103 8.29544 32.0175 8.99222 32.0176 9.84961V13.1504C32.0175 15.9 30.9177 16.9999 28.168 17H24.8682C24.0434 17 23.367 16.9002 22.8242 16.6875L31.6797 7.74219ZM29.0605 12C28.7017 12.0001 28.4102 12.2915 28.4102 12.6504V13.375H27.6533C27.2943 13.375 27.002 13.6664 27.002 14.0254C27.002 14.3843 27.2944 14.6758 27.6533 14.6758H28.4102V15.4004C28.4102 15.7592 28.7017 16.0506 29.0605 16.0508C29.4194 16.0506 29.7109 15.7592 29.7109 15.4004V14.6758H30.4033L30.5342 14.6621C30.8301 14.6013 31.0537 14.3393 31.0537 14.0254C31.0537 13.7115 30.8301 13.4495 30.5342 13.3887L30.4033 13.375H29.7109V12.6504C29.7109 12.2915 29.4194 12.0001 29.0605 12Z" fill="#00CF6A"/>
<path fill-rule="evenodd" clip-rule="evenodd" d="M28.168 6C29.3815 6.00003 30.2734 6.21466 30.8916 6.69043L21.75 15.9248C21.2456 15.3051 21.0176 14.3981 21.0176 13.1504V9.84961C21.0177 7.09985 22.1183 6 24.8682 6H28.168ZM22.7568 8.2627C22.3427 8.26449 22.0081 8.60152 22.0098 9.01562C22.0115 9.42983 22.3495 9.76441 22.7637 9.7627L25.3047 9.75L25.3809 9.74609C25.7589 9.70623 26.0533 9.38539 26.0518 8.99707C26.0501 8.60867 25.7535 8.29064 25.375 8.25391L25.2988 8.25L22.7568 8.2627Z" fill="#00CF6A"/>
</g>
<defs>
<clipPath id="clip0_1_6091">
<rect width="40" height="40" fill="white"/>
</clipPath>
</defs>
</svg>
