<svg width="40" height="40" viewBox="0 0 40 40" fill="none" xmlns="http://www.w3.org/2000/svg">
<g clip-path="url(#clip0_1_3598)">
<path d="M39.2129 11.449V11.449C40.2624 17.0781 40.2624 22.8026 39.2129 28.5271V28.5271C38.2588 33.9654 33.9654 38.2588 28.5271 39.2129V39.2129C22.898 40.2624 17.1735 40.2624 11.449 39.2129V39.2129C6.01073 38.2588 1.81276 34.0608 0.858676 28.6225V28.6225C-0.286225 22.9934 -0.286225 17.1735 0.858676 11.449V11.449C1.81276 6.01073 6.01073 1.81276 11.449 0.858676V0.858676C17.0781 -0.286225 22.898 -0.286225 28.6225 0.858676V0.858676C34.0608 1.81276 38.2588 6.01073 39.2129 11.449Z" fill="white"/>
<path fill-rule="evenodd" clip-rule="evenodd" d="M38.2293 28.3468C39.2571 22.7405 39.2565 17.1393 38.2298 11.6323L39.2129 11.449C40.2624 17.0781 40.2624 22.8026 39.2129 28.5271L38.2293 28.3468ZM28.5271 39.2129C33.9654 38.2588 38.2588 33.9654 39.2129 28.5271L38.2279 28.3543C37.3466 33.3779 33.3779 37.3466 28.3543 38.2279L28.5271 39.2129ZM11.449 39.2129C17.1735 40.2624 22.898 40.2624 28.5271 39.2129L28.3438 38.2298C22.8369 39.2565 17.2356 39.2571 11.6293 38.2293L11.449 39.2129ZM28.6225 0.858676L28.4497 1.84363C33.4733 2.72496 37.3466 6.59823 38.2279 11.6218L39.2129 11.449C38.2588 6.01073 34.0608 1.81276 28.6225 0.858676ZM11.449 0.858676C17.0781 -0.286225 22.898 -0.286225 28.6225 0.858676L28.4264 1.83926C22.8303 0.720026 17.1448 0.720683 11.6483 1.83861L11.449 0.858676ZM0.858676 11.449C1.81276 6.01073 6.01073 1.81276 11.449 0.858676L11.6218 1.84363C6.59823 2.72496 2.72496 6.59823 1.84363 11.6218L0.858676 11.449ZM0.858676 11.449L1.83926 11.6451C0.720026 17.2413 0.720683 22.9267 1.83861 28.4232L0.858676 28.6225C-0.286225 22.9934 -0.286225 17.1735 0.858676 11.449ZM0.858676 28.6225C1.81276 34.0608 6.01073 38.2588 11.449 39.2129L11.6218 38.2279C6.59823 37.3466 2.72496 33.4733 1.84363 28.4497L0.858676 28.6225Z" fill="#EEF4FE"/>
<path d="M19.2413 7.30912C15.0473 9.05156 10.8628 11.3496 7.91656 14.4401C7.33431 15.0509 7.79571 16 8.63953 16H31.1675C32.0114 16 32.4742 15.0498 31.8955 14.4357C28.986 11.3477 24.9349 9.05119 20.758 7.30965C20.2727 7.10727 19.727 7.10737 19.2413 7.30912Z" fill="#00CF6A"/>
<path fill-rule="evenodd" clip-rule="evenodd" d="M18.8866 6.23372C19.6587 5.92232 20.5272 5.92192 21.3002 6.23477C25.7748 8.04585 30.2073 10.3523 33.4256 13.6679C34.7557 15.0382 33.5808 17.0001 31.888 17.0001H8.09439C7.22727 17.0001 6.51794 16.5166 6.19267 15.8477C5.86155 15.1668 5.93922 14.3067 6.56634 13.6681C9.82711 10.3478 14.4044 8.04138 18.8866 6.23372ZM20.4872 8.12739C20.2349 8.02525 19.9507 8.02503 19.697 8.12735C15.6324 9.76659 11.4182 11.7547 8.47169 14.4489C8.27435 14.6294 8.40514 14.9496 8.67254 14.9496H31.5213C31.7877 14.9496 31.9189 14.6315 31.7231 14.4508C28.801 11.7522 24.5304 9.76387 20.4872 8.12739Z" fill="#0033C9"/>
<path fill-rule="evenodd" clip-rule="evenodd" d="M13 25.856V20.0002C13 19.4479 12.5523 19.0002 12 19.0002C11.4477 19.0002 11 19.4479 11 20.0002V25.9036C9.84989 26.062 8.92859 26.6075 8.24198 27.4118C7.4491 28.3405 7.01307 29.5591 6.79702 30.788C6.47146 32.6399 8.04469 34 9.66269 34H30.1427C31.7607 34 33.3339 32.6399 33.0084 30.788C32.7923 29.5591 32.3563 28.3405 31.5634 27.4118C30.916 26.6534 30.0599 26.1251 29 25.9345V20.0002C29 19.4479 28.5523 19.0002 28 19.0002C27.4477 19.0002 27 19.4479 27 20.0002V25.856H21V20C21 19.4477 20.5523 19 20 19C19.4477 19 19 19.4477 19 20V25.856H13ZM9.76309 28.7103C9.28609 29.2691 8.9481 30.1031 8.76681 31.1343C8.72878 31.3506 8.79416 31.5465 8.9484 31.7082C9.11076 31.8785 9.36739 32 9.66269 32H30.1427C30.438 32 30.6946 31.8785 30.857 31.7082C31.0112 31.5465 31.0766 31.3506 31.0386 31.1343C30.8573 30.1031 30.5193 29.2691 30.0423 28.7103C29.5951 28.1865 28.989 27.856 28.0947 27.856H11.7107C10.8164 27.856 10.2103 28.1865 9.76309 28.7103Z" fill="#0033C9"/>
</g>
<defs>
<clipPath id="clip0_1_3598">
<rect width="40" height="40" fill="white"/>
</clipPath>
</defs>
</svg>
