<svg width="40" height="40" viewBox="0 0 40 40" fill="none" xmlns="http://www.w3.org/2000/svg">
<g clip-path="url(#clip0_1_4354)">
<path d="M39.2129 11.449V11.449C40.2624 17.0781 40.2624 22.8026 39.2129 28.5271V28.5271C38.2588 33.9654 33.9654 38.2588 28.5271 39.2129V39.2129C22.898 40.2624 17.1735 40.2624 11.449 39.2129V39.2129C6.01073 38.2588 1.81276 34.0608 0.858676 28.6225V28.6225C-0.286225 22.9934 -0.286225 17.1735 0.858676 11.449V11.449C1.81276 6.01073 6.01073 1.81276 11.449 0.858676V0.858676C17.0781 -0.286225 22.898 -0.286225 28.6225 0.858676V0.858676C34.0608 1.81276 38.2588 6.01073 39.2129 11.449Z" fill="white"/>
<path fill-rule="evenodd" clip-rule="evenodd" d="M38.2293 28.3468C39.2571 22.7405 39.2565 17.1393 38.2298 11.6323L39.2129 11.449C40.2624 17.0781 40.2624 22.8026 39.2129 28.5271L38.2293 28.3468ZM28.5271 39.2129C33.9654 38.2588 38.2588 33.9654 39.2129 28.5271L38.2279 28.3543C37.3466 33.3779 33.3779 37.3466 28.3543 38.2279L28.5271 39.2129ZM11.449 39.2129C17.1735 40.2624 22.898 40.2624 28.5271 39.2129L28.3438 38.2298C22.8369 39.2565 17.2356 39.2571 11.6293 38.2293L11.449 39.2129ZM28.6225 0.858676L28.4497 1.84363C33.4733 2.72496 37.3466 6.59823 38.2279 11.6218L39.2129 11.449C38.2588 6.01073 34.0608 1.81276 28.6225 0.858676ZM11.449 0.858676C17.0781 -0.286225 22.898 -0.286225 28.6225 0.858676L28.4264 1.83926C22.8303 0.720026 17.1448 0.720683 11.6483 1.83861L11.449 0.858676ZM0.858676 11.449C1.81276 6.01073 6.01073 1.81276 11.449 0.858676L11.6218 1.84363C6.59823 2.72496 2.72496 6.59823 1.84363 11.6218L0.858676 11.449ZM0.858676 11.449L1.83926 11.6451C0.720026 17.2413 0.720683 22.9267 1.83861 28.4232L0.858676 28.6225C-0.286225 22.9934 -0.286225 17.1735 0.858676 11.449ZM0.858676 28.6225C1.81276 34.0608 6.01073 38.2588 11.449 39.2129L11.6218 38.2279C6.59823 37.3466 2.72496 33.4733 1.84363 28.4497L0.858676 28.6225Z" fill="#EEF4FE"/>
<path d="M7.20117 25.5481C7.20117 27.2705 8.54832 28.6881 10.2477 28.9685C12.431 29.3288 14.5372 29.8001 20.0012 29.8001C25.4652 29.8001 27.5714 29.3288 29.7546 28.9685C31.454 28.6881 32.8012 27.2705 32.8012 25.5481V13.959C32.8012 12.4503 31.7622 11.1513 30.2702 10.9274C28.0492 10.594 24.4776 10.2001 20.0012 10.2001C14.5372 10.2001 12.431 10.6714 10.2477 11.0317C8.54832 11.3121 7.20117 12.7297 7.20117 14.4521L7.20117 25.5481Z" fill="white"/>
<path fill-rule="evenodd" clip-rule="evenodd" d="M11.1097 11.9001C10.8753 11.9402 10.6437 11.9798 10.4105 12.0183C9.1348 12.2288 8.20117 13.2768 8.20117 14.4521L8.20117 25.5481C8.20117 26.7233 9.1348 27.7713 10.4105 27.9818C10.6437 28.0203 10.8753 28.0599 11.1097 28.1001C13.059 28.4337 15.1998 28.8001 20.0012 28.8001C24.8026 28.8001 26.9434 28.4337 28.8927 28.1001C29.1271 28.0599 29.3587 28.0203 29.5918 27.9818C30.8675 27.7713 31.8012 26.7233 31.8012 25.5481V13.959C31.8012 12.907 31.0874 12.0613 30.1217 11.9163C27.9412 11.589 24.4198 11.2001 20.0012 11.2001C15.1998 11.2001 13.059 11.5665 11.1097 11.9001ZM10.7796 9.9276C12.773 9.58678 15.0348 9.20007 20.0012 9.20007C24.5354 9.20007 28.1573 9.59906 30.4186 9.93848C32.437 10.2414 33.8012 11.9936 33.8012 13.959V25.5481C33.8012 27.8176 32.0405 29.6048 29.9174 29.9551C29.687 29.9932 29.4567 30.0325 29.2228 30.0725C27.2294 30.4134 24.9676 30.8001 20.0012 30.8001C15.0347 30.8001 12.773 30.4134 10.7796 30.0725C10.5456 30.0325 10.3154 29.9932 10.0849 29.9551C7.96184 29.6048 6.20117 27.8176 6.20117 25.5481L6.20117 14.4521C6.20117 12.1825 7.96184 10.3953 10.0849 10.045C10.3154 10.007 10.5456 9.9676 10.7796 9.9276Z" fill="#0033C9"/>
<path d="M32.8012 17.1549H7.20117V14.125C7.20117 12.5849 8.46954 11.3193 10.0708 11.0606C10.3624 11.0134 10.6509 10.9641 10.9446 10.9138C12.916 10.5766 15.1173 10.2001 20.0012 10.2001C24.5946 10.2001 28.2353 10.6149 30.4415 10.9534C31.8356 11.1673 32.8012 12.3241 32.8012 13.6631V17.1549Z" fill="#00CF6A"/>
<path fill-rule="evenodd" clip-rule="evenodd" d="M10.776 9.92817C12.7864 9.58426 15.046 9.20007 20.0012 9.20007C24.6538 9.20007 28.3459 9.62018 30.5932 9.96497C32.4735 10.2535 33.8012 11.8286 33.8012 13.6631V17.1549C33.8012 17.7072 33.3535 18.1549 32.8012 18.1549H7.20117C6.64889 18.1549 6.20117 17.7072 6.20117 17.1549V14.125C6.20117 11.997 7.92817 10.3938 9.91126 10.0734C10.1975 10.0271 10.4816 9.97853 10.776 9.92817ZM11.1296 11.8967L11.1109 11.8999C10.8188 11.9499 10.5264 11.9999 10.2303 12.0478C9.01091 12.2448 8.20117 13.1727 8.20117 14.125V16.1549H31.8012V13.6631C31.8012 12.8196 31.1976 12.0811 30.2899 11.9418C28.1247 11.6096 24.5353 11.2001 20.0012 11.2001C15.2021 11.2001 13.0578 11.5669 11.1296 11.8967Z" fill="#0033C9"/>
<path fill-rule="evenodd" clip-rule="evenodd" d="M22.3184 24.4875C22.3184 23.9353 22.7661 23.4875 23.3184 23.4875H27.6543C28.2066 23.4875 28.6543 23.9353 28.6543 24.4875C28.6543 25.0398 28.2066 25.4875 27.6543 25.4875H23.3184C22.7661 25.4875 22.3184 25.0398 22.3184 24.4875Z" fill="#0033C9"/>
</g>
<defs>
<clipPath id="clip0_1_4354">
<rect width="40" height="40" fill="white"/>
</clipPath>
</defs>
</svg>
