<svg width="40" height="40" viewBox="0 0 40 40" fill="none" xmlns="http://www.w3.org/2000/svg">
<g clip-path="url(#clip0_1_5940)">
<path d="M39.2129 11.449V11.449C40.2624 17.0781 40.2624 22.8026 39.2129 28.5271V28.5271C38.2588 33.9654 33.9654 38.2588 28.5271 39.2129V39.2129C22.898 40.2624 17.1735 40.2624 11.449 39.2129V39.2129C6.01073 38.2588 1.81276 34.0608 0.858676 28.6225V28.6225C-0.286225 22.9934 -0.286225 17.1735 0.858676 11.449V11.449C1.81276 6.01073 6.01073 1.81276 11.449 0.858676V0.858676C17.0781 -0.286225 22.898 -0.286225 28.6225 0.858676V0.858676C34.0608 1.81276 38.2588 6.01073 39.2129 11.449Z" fill="white"/>
<path fill-rule="evenodd" clip-rule="evenodd" d="M38.2293 28.3468C39.2571 22.7405 39.2565 17.1393 38.2298 11.6323L39.2129 11.449C40.2624 17.0781 40.2624 22.8026 39.2129 28.5271L38.2293 28.3468ZM28.5271 39.2129C33.9654 38.2588 38.2588 33.9654 39.2129 28.5271L38.2279 28.3543C37.3466 33.3779 33.3779 37.3466 28.3543 38.2279L28.5271 39.2129ZM11.449 39.2129C17.1735 40.2624 22.898 40.2624 28.5271 39.2129L28.3438 38.2298C22.8369 39.2565 17.2356 39.2571 11.6293 38.2293L11.449 39.2129ZM28.6225 0.858676L28.4497 1.84363C33.4733 2.72496 37.3466 6.59823 38.2279 11.6218L39.2129 11.449C38.2588 6.01073 34.0608 1.81276 28.6225 0.858676ZM11.449 0.858676C17.0781 -0.286225 22.898 -0.286225 28.6225 0.858676L28.4264 1.83926C22.8303 0.720026 17.1448 0.720683 11.6483 1.83861L11.449 0.858676ZM0.858676 11.449C1.81276 6.01073 6.01073 1.81276 11.449 0.858676L11.6218 1.84363C6.59823 2.72496 2.72496 6.59823 1.84363 11.6218L0.858676 11.449ZM0.858676 11.449L1.83926 11.6451C0.720026 17.2413 0.720683 22.9267 1.83861 28.4232L0.858676 28.6225C-0.286225 22.9934 -0.286225 17.1735 0.858676 11.449ZM0.858676 28.6225C1.81276 34.0608 6.01073 38.2588 11.449 39.2129L11.6218 38.2279C6.59823 37.3466 2.72496 33.4733 1.84363 28.4497L0.858676 28.6225Z" fill="#EEF4FE"/>
<path fill-rule="evenodd" clip-rule="evenodd" d="M17.8129 21.9805C18.3759 22.2088 18.6473 22.8502 18.419 23.4132L16.1277 29.0652C15.531 30.537 14.1015 31.4999 12.5134 31.4999H8.29961V32.5999C8.29961 33.2075 7.80712 33.7 7.19961 33.7C6.5921 33.7 6.09961 33.2075 6.09961 32.5999V27.1999C6.09961 26.5924 6.5921 26.0999 7.19961 26.0999C7.80712 26.0999 8.29961 26.5924 8.29961 27.1999V29.2999H12.5134C13.2057 29.2999 13.8288 28.8802 14.0889 28.2386L16.3802 22.5867C16.6084 22.0237 17.2499 21.7523 17.8129 21.9805Z" fill="#0033C9"/>
<path d="M22.7763 15.3865L30.7666 15.8852L30.5658 17.8751C30.3219 20.2929 28.1641 22.0551 25.7463 21.8112L22.5625 21.49L22.7763 15.3865Z" fill="#00CF6A"/>
<path fill-rule="evenodd" clip-rule="evenodd" d="M31.8659 14.9518L31.5608 17.9754C31.2615 20.9427 28.6133 23.1054 25.646 22.806L21.5304 22.3908L21.8129 14.3243L31.8659 14.9518ZM23.7398 16.4485L23.5948 20.5889L25.8468 20.8161C27.7151 21.0046 29.3824 19.6429 29.5709 17.7746L29.6674 16.8184L23.7398 16.4485Z" fill="#0033C9"/>
<path d="M33.238 11.31L33.1098 12.5803C32.8954 14.706 31.0483 16.2879 28.915 16.173L25.8894 16.0101C24.0962 15.9135 22.611 17.385 22.6907 19.179C22.7833 21.2613 21.0067 22.941 18.9329 22.7317L14.044 22.2385C9.86788 21.8172 6.82399 18.0901 7.24532 13.914L7.28548 13.516C7.70681 9.33984 11.4293 6.29548 15.6054 6.71682L30.7397 8.24375C32.2783 8.39898 33.3932 9.77143 33.238 11.31Z" fill="white"/>
<path fill-rule="evenodd" clip-rule="evenodd" d="M6.25 13.8136C5.77323 18.5392 9.21763 22.7566 13.9433 23.2334L18.8321 23.7266C21.5127 23.9971 23.8091 21.8261 23.6894 19.1346C23.6359 17.931 24.6323 16.9438 25.8353 17.0086L28.8608 17.1715C31.5275 17.3151 33.8363 15.3378 34.1044 12.6807L34.2326 11.4104C34.4429 9.32534 32.9309 7.45975 30.8397 7.24877L15.7054 5.72185C10.979 5.24499 6.76685 8.69071 6.29015 13.4156L6.25 13.8136ZM14.1441 21.2435C10.5174 20.8776 7.87401 17.641 8.2399 14.0143L8.28005 13.6164C8.64603 9.9889 11.8788 7.34592 15.5047 7.71175L30.639 9.23867C31.625 9.33815 32.3428 10.2175 32.2427 11.2096L32.1145 12.4799C31.9537 14.0742 30.5684 15.2606 28.9684 15.1744L25.9428 15.0115C23.5594 14.8832 21.5853 16.8389 21.6913 19.2234C21.7569 20.6965 20.5 21.8848 19.0329 21.7367L14.1441 21.2435Z" fill="#0033C9"/>
<rect x="13.7363" y="9.34277" width="2.8" height="1.6" rx="0.8" transform="rotate(5.76116 13.7363 9.34277)" fill="#00CF6A"/>
<rect x="17.3203" y="9.7041" width="6.4" height="1.6" rx="0.8" transform="rotate(5.76116 17.3203 9.7041)" fill="#00CF6A"/>
</g>
<defs>
<clipPath id="clip0_1_5940">
<rect width="40" height="40" fill="white"/>
</clipPath>
</defs>
</svg>
