<svg width="40" height="40" viewBox="0 0 40 40" fill="none" xmlns="http://www.w3.org/2000/svg">
<path d="M39.2129 11.449V11.449C40.2624 17.0781 40.2624 22.8026 39.2129 28.5271V28.5271C38.2588 33.9654 33.9654 38.2588 28.5271 39.2129V39.2129C22.898 40.2624 17.1735 40.2624 11.449 39.2129V39.2129C6.01073 38.2588 1.81276 34.0608 0.858676 28.6225V28.6225C-0.286225 22.9934 -0.286225 17.1735 0.858676 11.449V11.449C1.81276 6.01073 6.01073 1.81276 11.449 0.858676V0.858676C17.0781 -0.286225 22.898 -0.286225 28.6225 0.858676V0.858676C34.0608 1.81276 38.2588 6.01073 39.2129 11.449Z" fill="white"/>
<path fill-rule="evenodd" clip-rule="evenodd" d="M38.2293 28.3468C39.2571 22.7405 39.2565 17.1393 38.2298 11.6323L39.2129 11.449C40.2624 17.0781 40.2624 22.8026 39.2129 28.5271L38.2293 28.3468ZM28.5271 39.2129C33.9654 38.2588 38.2588 33.9654 39.2129 28.5271L38.2279 28.3543C37.3466 33.3779 33.3779 37.3466 28.3543 38.2279L28.5271 39.2129ZM11.449 39.2129C17.1735 40.2624 22.898 40.2624 28.5271 39.2129L28.3438 38.2298C22.8369 39.2565 17.2356 39.2571 11.6293 38.2293L11.449 39.2129ZM28.6225 0.858676L28.4497 1.84363C33.4733 2.72496 37.3466 6.59823 38.2279 11.6218L39.2129 11.449C38.2588 6.01073 34.0608 1.81276 28.6225 0.858676ZM11.449 0.858676C17.0781 -0.286225 22.898 -0.286225 28.6225 0.858676L28.4264 1.83926C22.8303 0.720026 17.1448 0.720683 11.6483 1.83861L11.449 0.858676ZM0.858676 11.449C1.81276 6.01073 6.01073 1.81276 11.449 0.858676L11.6218 1.84363C6.59823 2.72496 2.72496 6.59823 1.84363 11.6218L0.858676 11.449ZM0.858676 11.449L1.83926 11.6451C0.720026 17.2413 0.720683 22.9267 1.83861 28.4232L0.858676 28.6225C-0.286225 22.9934 -0.286225 17.1735 0.858676 11.449ZM0.858676 28.6225C1.81276 34.0608 6.01073 38.2588 11.449 39.2129L11.6218 38.2279C6.59823 37.3466 2.72496 33.4733 1.84363 28.4497L0.858676 28.6225Z" fill="#EEF4FE"/>
<path d="M26.6953 7.19995H13.4295C12.656 7.19995 11.9092 7.49216 11.37 8.04683C9.99835 9.458 7.7568 12.0107 8.02149 13.3122C8.52595 17.4457 15.0834 16.9497 15.9241 14.3042C16.7933 17.82 22.9933 17.8 23.5933 14C24.9933 17.9333 31.9933 16.64 31.5933 12.9033C31.469 11.7423 30.1249 9.77674 29.0982 8.3926C28.5358 7.63442 27.6393 7.19995 26.6953 7.19995Z" fill="#00CF6A"/>
<path fill-rule="evenodd" clip-rule="evenodd" d="M10.653 7.34983C11.3945 6.58695 12.4068 6.19995 13.4295 6.19995H26.6953C27.9436 6.19995 29.1432 6.77467 29.9014 7.79683C30.422 8.49876 31.0385 9.36825 31.5444 10.2217C32.0248 11.0321 32.5001 11.9795 32.5876 12.7968C32.7255 14.0851 32.2107 15.164 31.3942 15.9324C30.5981 16.6817 29.519 17.1412 28.4256 17.3154C26.8816 17.5614 25.0295 17.2524 23.7742 16.0735C22.8421 17.2878 21.3038 17.862 19.883 17.8952C18.4139 17.9296 16.7708 17.3927 15.7643 16.1714C15.4772 16.4022 15.1606 16.5941 14.8366 16.7489C13.9373 17.1785 12.8613 17.3857 11.8124 17.3497C10.7652 17.3138 9.66942 17.0321 8.77407 16.3999C7.86199 15.7559 7.20215 14.7754 7.03321 13.468C6.92203 12.8517 7.10805 12.2317 7.32393 11.7381C7.55723 11.2047 7.89893 10.6561 8.26867 10.139C9.01037 9.10168 9.9538 8.06911 10.653 7.34983ZM13.4295 8.19995C12.9052 8.19995 12.4239 8.39738 12.0871 8.74383C11.4146 9.43572 10.5514 10.3851 9.89556 11.3023C9.56654 11.7624 9.31175 12.1842 9.15634 12.5396C9.07933 12.7156 9.03527 12.8563 9.01444 12.9625C8.99408 13.0664 9.0011 13.1109 9.00142 13.1129C9.00143 13.1129 9.00144 13.113 9.00143 13.1129C9.00669 13.1388 9.01092 13.1649 9.01412 13.1911C9.10468 13.9331 9.45011 14.429 9.92765 14.7661C10.43 15.1208 11.1207 15.3248 11.881 15.3509C12.6396 15.3769 13.3921 15.2224 13.9745 14.9442C14.5697 14.6599 14.874 14.3069 14.9711 14.0014C15.1066 13.5747 15.5093 13.2902 15.9567 13.3048C16.4042 13.3194 16.7874 13.6296 16.8949 14.0642C17.1763 15.2025 18.3773 15.9299 19.8362 15.8958C21.2749 15.8621 22.4068 15.1023 22.6055 13.844C22.6768 13.3923 23.0454 13.0466 23.5007 13.0042C23.956 12.9619 24.382 13.2338 24.5354 13.6646C25.0092 14.996 26.4918 15.5983 28.1109 15.3403C28.8926 15.2158 29.576 14.8972 30.0236 14.4759C30.4508 14.0738 30.6611 13.5898 30.599 13.0097C30.5622 12.6661 30.3033 12.0502 29.824 11.2416C29.3701 10.4759 28.8011 9.67058 28.2951 8.98836C27.9285 8.49416 27.3349 8.19995 26.6953 8.19995H13.4295Z" fill="#0033C9"/>
<path fill-rule="evenodd" clip-rule="evenodd" d="M8.1998 22.8966C8.21957 22.359 8.66114 21.9333 9.19913 21.9333H30.7933C31.3456 21.9333 31.7933 22.3811 31.7933 22.9333C31.7933 24.7704 31.3035 26.5882 30.5278 28.0319C29.7737 29.4355 28.6403 30.6758 27.2343 31.0252C22.6658 32.1601 16.3405 32.0193 12.114 30.7925C10.3216 30.2722 9.34559 28.6656 8.83113 27.1823C8.30573 25.6674 8.15895 24.0074 8.1998 22.8966ZM10.2171 23.9333C10.2714 24.7331 10.4237 25.6707 10.7207 26.527C11.1603 27.7945 11.8184 28.6241 12.6715 28.8717C16.5538 29.9986 22.5203 30.1355 26.7521 29.0842C27.3558 28.9342 28.1226 28.2829 28.766 27.0853C29.2492 26.1859 29.6017 25.0841 29.7349 23.9333H10.2171Z" fill="#0033C9"/>
<path fill-rule="evenodd" clip-rule="evenodd" d="M19.9922 16C20.5445 16 20.9922 16.4477 20.9922 17V22.4C20.9922 22.9523 20.5445 23.4 19.9922 23.4C19.4399 23.4 18.9922 22.9523 18.9922 22.4V17C18.9922 16.4477 19.4399 16 19.9922 16Z" fill="#0033C9"/>
<path d="M13.7992 32.7999C15.2352 32.7999 16.3992 31.6358 16.3992 30.1999C16.3992 28.7639 15.2352 27.5999 13.7992 27.5999C12.3633 27.5999 11.1992 28.7639 11.1992 30.1999C11.1992 31.6358 12.3633 32.7999 13.7992 32.7999Z" fill="white"/>
<path fill-rule="evenodd" clip-rule="evenodd" d="M13.7992 28.5999C12.9156 28.5999 12.1992 29.3162 12.1992 30.1999C12.1992 31.0835 12.9156 31.7999 13.7992 31.7999C14.6829 31.7999 15.3992 31.0835 15.3992 30.1999C15.3992 29.3162 14.6829 28.5999 13.7992 28.5999ZM10.1992 30.1999C10.1992 28.2116 11.811 26.5999 13.7992 26.5999C15.7874 26.5999 17.3992 28.2116 17.3992 30.1999C17.3992 32.1881 15.7874 33.7999 13.7992 33.7999C11.811 33.7999 10.1992 32.1881 10.1992 30.1999Z" fill="#0033C9"/>
<path d="M25.7992 32.7999C27.2352 32.7999 28.3992 31.6358 28.3992 30.1999C28.3992 28.7639 27.2352 27.5999 25.7992 27.5999C24.3633 27.5999 23.1992 28.7639 23.1992 30.1999C23.1992 31.6358 24.3633 32.7999 25.7992 32.7999Z" fill="white"/>
<path fill-rule="evenodd" clip-rule="evenodd" d="M25.7992 28.5999C24.9156 28.5999 24.1992 29.3162 24.1992 30.1999C24.1992 31.0835 24.9156 31.7999 25.7992 31.7999C26.6829 31.7999 27.3992 31.0835 27.3992 30.1999C27.3992 29.3162 26.6829 28.5999 25.7992 28.5999ZM22.1992 30.1999C22.1992 28.2116 23.811 26.5999 25.7992 26.5999C27.7874 26.5999 29.3992 28.2116 29.3992 30.1999C29.3992 32.1881 27.7874 33.7999 25.7992 33.7999C23.811 33.7999 22.1992 32.1881 22.1992 30.1999Z" fill="#0033C9"/>
</svg>
