<svg width="40" height="40" viewBox="0 0 40 40" fill="none" xmlns="http://www.w3.org/2000/svg">
<g clip-path="url(#clip0_1_4263)">
<path d="M39.2129 11.449V11.449C40.2624 17.0781 40.2624 22.8026 39.2129 28.5271V28.5271C38.2588 33.9654 33.9654 38.2588 28.5271 39.2129V39.2129C22.898 40.2624 17.1735 40.2624 11.449 39.2129V39.2129C6.01073 38.2588 1.81276 34.0608 0.858676 28.6225V28.6225C-0.286225 22.9934 -0.286225 17.1735 0.858676 11.449V11.449C1.81276 6.01073 6.01073 1.81276 11.449 0.858676V0.858676C17.0781 -0.286225 22.898 -0.286225 28.6225 0.858676V0.858676C34.0608 1.81276 38.2588 6.01073 39.2129 11.449Z" fill="white"/>
<path fill-rule="evenodd" clip-rule="evenodd" d="M38.2293 28.3468C39.2571 22.7405 39.2565 17.1393 38.2298 11.6323L39.2129 11.449C40.2624 17.0781 40.2624 22.8026 39.2129 28.5271L38.2293 28.3468ZM28.5271 39.2129C33.9654 38.2588 38.2588 33.9654 39.2129 28.5271L38.2279 28.3543C37.3466 33.3779 33.3779 37.3466 28.3543 38.2279L28.5271 39.2129ZM11.449 39.2129C17.1735 40.2624 22.898 40.2624 28.5271 39.2129L28.3438 38.2298C22.8369 39.2565 17.2356 39.2571 11.6293 38.2293L11.449 39.2129ZM28.6225 0.858676L28.4497 1.84363C33.4733 2.72496 37.3466 6.59823 38.2279 11.6218L39.2129 11.449C38.2588 6.01073 34.0608 1.81276 28.6225 0.858676ZM11.449 0.858676C17.0781 -0.286225 22.898 -0.286225 28.6225 0.858676L28.4264 1.83926C22.8303 0.720026 17.1448 0.720683 11.6483 1.83861L11.449 0.858676ZM0.858676 11.449C1.81276 6.01073 6.01073 1.81276 11.449 0.858676L11.6218 1.84363C6.59823 2.72496 2.72496 6.59823 1.84363 11.6218L0.858676 11.449ZM0.858676 11.449L1.83926 11.6451C0.720026 17.2413 0.720683 22.9267 1.83861 28.4232L0.858676 28.6225C-0.286225 22.9934 -0.286225 17.1735 0.858676 11.449ZM0.858676 28.6225C1.81276 34.0608 6.01073 38.2588 11.449 39.2129L11.6218 38.2279C6.59823 37.3466 2.72496 33.4733 1.84363 28.4497L0.858676 28.6225Z" fill="#EEF4FE"/>
<path d="M16.3988 31.2308C16.3988 29.2488 15.2908 27.6906 14.4688 26.8072C13.9881 26.2906 13.2095 26.2906 12.7288 26.8072C11.9068 27.6906 10.7988 29.2488 10.7988 31.2308C10.7988 31.9653 11.0938 32.6697 11.6189 33.189C12.144 33.7083 12.8562 34.0001 13.5988 34.0001C14.3414 34.0001 15.0536 33.7083 15.5787 33.189C16.1038 32.6697 16.3988 31.9653 16.3988 31.2308Z" fill="#00CF6A"/>
<path fill-rule="evenodd" clip-rule="evenodd" d="M14.7988 13.0001C13.142 13.0001 11.7988 14.3432 11.7988 16.0001V21.6001C11.7988 21.7105 11.8884 21.8001 11.9988 21.8001H14.946C15.0564 21.8001 15.146 21.7105 15.146 21.6001V19.0162C15.146 18.0221 15.9519 17.2162 16.946 17.2162L28.7988 17.2162C29.3511 17.2162 29.7988 17.6639 29.7988 18.2162C29.7988 18.7684 29.3511 19.2162 28.7988 19.2162L17.146 19.2162V21.6001C17.146 22.8151 16.161 23.8001 14.946 23.8001H11.9988C10.7838 23.8001 9.79883 22.8151 9.79883 21.6001V16.0001C9.79883 13.2387 12.0374 11.0001 14.7988 11.0001H28.7988C29.3511 11.0001 29.7988 11.4478 29.7988 12.0001C29.7988 12.5524 29.3511 13.0001 28.7988 13.0001H14.7988Z" fill="#0033C9"/>
<path fill-rule="evenodd" clip-rule="evenodd" d="M29.5996 8.6001C30.1519 8.6001 30.5996 9.04781 30.5996 9.6001V19.8001C30.5996 20.3524 30.1519 20.8001 29.5996 20.8001C29.0473 20.8001 28.5996 20.3524 28.5996 19.8001V9.6001C28.5996 9.04781 29.0473 8.6001 29.5996 8.6001Z" fill="#0033C9"/>
<path fill-rule="evenodd" clip-rule="evenodd" d="M20.7988 7.40007C21.3511 7.40007 21.7988 7.84779 21.7988 8.40007V11.0001C21.7988 11.5524 21.3511 12.0001 20.7988 12.0001C20.2465 12.0001 19.7988 11.5524 19.7988 11.0001V8.40007C19.7988 7.84779 20.2465 7.40007 20.7988 7.40007Z" fill="#0033C9"/>
<path fill-rule="evenodd" clip-rule="evenodd" d="M16.998 7.20007C16.998 6.64779 17.4458 6.20007 17.998 6.20007H23.998C24.5503 6.20007 24.998 6.64779 24.998 7.20007C24.998 7.75236 24.5503 8.20007 23.998 8.20007H17.998C17.4458 8.20007 16.998 7.75236 16.998 7.20007Z" fill="#0033C9"/>
</g>
<defs>
<clipPath id="clip0_1_4263">
<rect width="40" height="40" fill="white"/>
</clipPath>
</defs>
</svg>
