<svg width="40" height="40" viewBox="0 0 40 40" fill="none" xmlns="http://www.w3.org/2000/svg">
<g clip-path="url(#clip0_1_5255)">
<path d="M39.2129 11.449V11.449C40.2624 17.0781 40.2624 22.8026 39.2129 28.5271V28.5271C38.2588 33.9654 33.9654 38.2588 28.5271 39.2129V39.2129C22.898 40.2624 17.1735 40.2624 11.449 39.2129V39.2129C6.01073 38.2588 1.81276 34.0608 0.858676 28.6225V28.6225C-0.286225 22.9934 -0.286225 17.1735 0.858676 11.449V11.449C1.81276 6.01073 6.01073 1.81276 11.449 0.858676V0.858676C17.0781 -0.286225 22.898 -0.286225 28.6225 0.858676V0.858676C34.0608 1.81276 38.2588 6.01073 39.2129 11.449Z" fill="white"/>
<path fill-rule="evenodd" clip-rule="evenodd" d="M38.2293 28.3468C39.2571 22.7405 39.2565 17.1393 38.2298 11.6323L39.2129 11.449C40.2624 17.0781 40.2624 22.8026 39.2129 28.5271L38.2293 28.3468ZM11.449 39.2129C17.1735 40.2624 22.898 40.2624 28.5271 39.2129C33.9654 38.2588 38.2588 33.9654 39.2129 28.5271L38.2279 28.3543C37.3466 33.3779 33.3779 37.3466 28.3543 38.2279L28.5271 39.2129L28.3438 38.2298C22.8369 39.2565 17.2356 39.2571 11.6293 38.2293L11.449 39.2128L11.6218 38.2279C6.59823 37.3466 2.72496 33.4733 1.84363 28.4497L0.858676 28.6225L1.83861 28.4232C0.720684 22.9267 0.720027 17.2413 1.83926 11.6451L0.858692 11.449L1.84363 11.6218C2.72496 6.59823 6.59823 2.72496 11.6218 1.84363L11.449 0.858676L11.6483 1.83861C17.1448 0.720684 22.8303 0.720027 28.4264 1.83926L28.6225 0.858676L28.4497 1.84363C33.4733 2.72496 37.3466 6.59823 38.2279 11.6218L39.2129 11.449C38.2588 6.01073 34.0608 1.81276 28.6225 0.858676C22.898 -0.286225 17.0781 -0.286225 11.449 0.858676C6.01073 1.81276 1.81276 6.01073 0.858676 11.449C-0.286225 17.1735 -0.286225 22.9934 0.858676 28.6225C1.81276 34.0608 6.01073 38.2588 11.449 39.2129Z" fill="#F0F5FE"/>
<path fill-rule="evenodd" clip-rule="evenodd" d="M16.5332 10.0198L16.5313 10.0093C16.3715 9.09843 15.6776 8.40449 14.7667 8.24469L14.7434 8.24059L14.7201 8.23594C13.145 7.92091 11.5515 7.92223 10.0154 8.23465L9.98899 8.24003L9.96241 8.24469C9.05155 8.40449 8.35761 9.09843 8.19782 10.0093L8.19372 10.0327L8.18906 10.0559C7.87404 11.631 7.87535 13.2245 8.18777 14.7606L8.19315 14.787L8.19782 14.8136C8.35761 15.7245 9.05155 16.4184 9.96241 16.5782L9.96994 16.5795L9.97747 16.5809C11.5729 16.8734 13.1582 16.8723 14.7152 16.582L14.7257 16.58L14.7362 16.5782C15.6471 16.4184 16.3715 15.6939 16.5313 14.7831L16.5327 14.7755L16.534 14.768C16.8265 13.1726 16.8254 11.5873 16.5351 10.0302L16.5332 10.0198ZM15.0818 18.5481C16.8221 18.2428 18.1959 16.8689 18.5012 15.1287C18.8371 13.2968 18.8371 11.465 18.5012 9.66369C18.1959 7.92343 16.8526 6.58008 15.1123 6.27478C13.2805 5.90841 11.4181 5.90841 9.61681 6.27478C7.87656 6.58008 6.53321 7.92343 6.2279 9.66369C5.86153 11.4955 5.86153 13.3579 6.2279 15.1592C6.53321 16.8995 7.87656 18.2428 9.61681 18.5481C11.4487 18.884 13.2805 18.884 15.0818 18.5481Z" fill="#0033C9"/>
<path d="M33.7493 9.66369C34.0851 11.465 34.0851 13.2968 33.7493 15.1287C33.444 16.8689 32.0701 18.2428 30.3299 18.5481C28.5285 18.884 26.6967 18.884 24.8649 18.5481C23.1246 18.2428 21.7813 16.8995 21.4759 15.1592C21.1096 13.3579 21.1096 11.4955 21.4759 9.66369C21.7813 7.92343 23.1246 6.58008 24.8649 6.27478C26.6662 5.90841 28.5285 5.90841 30.3604 6.27478C32.1006 6.58008 33.444 7.92343 33.7493 9.66369Z" fill="white"/>
<path fill-rule="evenodd" clip-rule="evenodd" d="M31.7812 10.0198L31.7794 10.0093C31.6196 9.09843 30.9256 8.40449 30.0148 8.24469L29.9914 8.24059L29.9682 8.23594C28.393 7.92091 26.7996 7.92223 25.2635 8.23465L25.237 8.24003L25.2105 8.24469C24.2996 8.40449 23.6057 9.09843 23.4459 10.0093L23.4418 10.0327L23.4371 10.0559C23.1221 11.631 23.1234 13.2245 23.4358 14.7606L23.4412 14.787L23.4459 14.8136C23.6057 15.7245 24.2996 16.4184 25.2105 16.5782L25.218 16.5795L25.2255 16.5809C26.8209 16.8734 28.4063 16.8723 29.9633 16.582L29.9738 16.58L29.9843 16.5782C30.8951 16.4184 31.6196 15.6939 31.7794 14.7831L31.7807 14.7755L31.7821 14.768C32.0746 13.1726 32.0735 11.5873 31.7832 10.0302L31.7812 10.0198ZM30.3299 18.5481C32.0701 18.2428 33.444 16.8689 33.7493 15.1287C34.0851 13.2968 34.0851 11.465 33.7493 9.66369C33.444 7.92343 32.1006 6.58008 30.3604 6.27478C28.5285 5.90841 26.6662 5.90841 24.8649 6.27478C23.1246 6.58008 21.7813 7.92343 21.4759 9.66369C21.1096 11.4955 21.1096 13.3579 21.4759 15.1592C21.7813 16.8995 23.1246 18.2428 24.8649 18.5481C26.6967 18.884 28.5285 18.884 30.3299 18.5481Z" fill="#0033C9"/>
<path fill-rule="evenodd" clip-rule="evenodd" d="M24.5 29C24.5 28.4477 24.9477 28 25.5 28H29C29.5523 28 30 28.4477 30 29C30 29.5523 29.5523 30 29 30H25.5C24.9477 30 24.5 29.5523 24.5 29Z" fill="#0033C9"/>
<path d="M22 28C22.5523 28 23 28.4477 23 29V31C23 31.5524 23.4477 32 23.9999 32H27.9999C28.5522 32 29 32.4477 29 33C29 33.5523 28.5523 34 28 34H23.9999C22.343 34 21 32.6568 21 31V29C21 28.4477 21.4477 28 22 28Z" fill="#0033C9"/>
<path fill-rule="evenodd" clip-rule="evenodd" d="M16.5332 25.2673L16.5313 25.2568C16.3715 24.3459 15.6776 23.652 14.7667 23.4922L14.7434 23.4881L14.7201 23.4834C13.145 23.1684 11.5515 23.1697 10.0154 23.4821L9.98899 23.4875L9.96241 23.4922C9.05155 23.652 8.35761 24.3459 8.19782 25.2568L8.19372 25.2802L8.18906 25.3034C7.87404 26.8785 7.87535 28.472 8.18777 30.0081L8.19315 30.0345L8.19782 30.0611C8.35761 30.972 9.05155 31.6659 9.96241 31.8257L9.96994 31.827L9.97747 31.8284C11.5729 32.1209 13.1582 32.1198 14.7152 31.8295L14.7257 31.8275L14.7362 31.8257C15.6471 31.6659 16.3715 30.9414 16.5313 30.0306L16.5327 30.023L16.534 30.0155C16.8265 28.4201 16.8254 26.8348 16.5351 25.2777L16.5332 25.2673ZM15.0818 33.7956C16.8221 33.4903 18.1959 32.1164 18.5012 30.3762C18.8371 28.5443 18.8371 26.7125 18.5012 24.9112C18.1959 23.1709 16.8526 21.8276 15.1123 21.5223C13.2805 21.1559 11.4181 21.1559 9.61681 21.5223C7.87656 21.8276 6.53321 23.1709 6.2279 24.9112C5.86153 26.743 5.86153 28.6054 6.2279 30.4067C6.53321 32.147 7.87656 33.4903 9.61681 33.7956C11.4487 34.1315 13.2805 34.1315 15.0818 33.7956Z" fill="#0033C9"/>
<path d="M13.9378 11.716V11.716C14.0217 12.1663 14.0217 12.6243 13.9378 13.0822V13.0822C13.8614 13.5173 13.518 13.8608 13.0829 13.9371V13.9371C12.6326 14.021 12.1746 14.021 11.7166 13.9371V13.9371C11.2816 13.8608 10.9457 13.5249 10.8694 13.0899V13.0899C10.7778 12.6395 10.7778 12.1739 10.8694 11.716V11.716C10.9457 11.2809 11.2816 10.9451 11.7166 10.8687V10.8687C12.167 10.7772 12.6326 10.7772 13.0905 10.8687V10.8687C13.5256 10.9451 13.8614 11.2809 13.9378 11.716Z" fill="#0033C9"/>
<path d="M29.137 11.716V11.716C29.221 12.1663 29.221 12.6243 29.137 13.0822V13.0822C29.0607 13.5173 28.7172 13.8608 28.2822 13.9371V13.9371C27.8318 14.021 27.3739 14.021 26.9159 13.9371V13.9371C26.4809 13.8608 26.145 13.5249 26.0687 13.0899V13.0899C25.9771 12.6395 25.9771 12.1739 26.0687 11.716V11.716C26.145 11.2809 26.4809 10.9451 26.9159 10.8687V10.8687C27.3662 10.7772 27.8318 10.7772 28.2898 10.8687V10.8687C28.7249 10.9451 29.0607 11.2809 29.137 11.716Z" fill="#0033C9"/>
<path d="M29.1859 11.716V11.716C29.2698 12.1663 29.2698 12.6243 29.1859 13.0822V13.0822C29.1095 13.5173 28.7661 13.8608 28.331 13.9371V13.9371C27.8807 14.021 27.4227 14.021 26.9647 13.9371V13.9371C26.5297 13.8608 26.1938 13.5249 26.1175 13.0899V13.0899C26.0259 12.6395 26.0259 12.1739 26.1175 11.716V11.716C26.1938 11.2809 26.5297 10.9451 26.9647 10.8687V10.8687C27.4151 10.7772 27.8807 10.7772 28.3386 10.8687V10.8687C28.7737 10.9451 29.1095 11.2809 29.1859 11.716Z" fill="#0033C9"/>
<path d="M13.9378 26.9159V26.9159C14.0217 27.3662 14.0217 27.8242 13.9378 28.2822V28.2822C13.8614 28.7172 13.518 29.0607 13.0829 29.137V29.137C12.6326 29.221 12.1746 29.221 11.7166 29.137V29.137C11.2816 29.0607 10.9457 28.7249 10.8694 28.2898V28.2898C10.7778 27.8395 10.7778 27.3739 10.8694 26.9159V26.9159C10.9457 26.4809 11.2816 26.145 11.7166 26.0687V26.0687C12.167 25.9771 12.6326 25.9771 13.0905 26.0687V26.0687C13.5256 26.145 13.8614 26.4809 13.9378 26.9159Z" fill="#0033C9"/>
<path fill-rule="evenodd" clip-rule="evenodd" d="M33 31.5C33.5523 31.5 34 31.0523 34 30.5L34 23C34 21.8954 33.1046 21 32 21L30 21C29.4477 21 29 21.4477 29 22C29 22.5523 29.4477 23 30 23L32 23L32 30.5C32 31.0523 32.4477 31.5 33 31.5Z" fill="#0033C9"/>
<path d="M26 20C26 23.3137 23.3137 26 20 26C16.6863 26 14 23.3137 14 20C14 16.6863 16.6863 14 20 14C23.3137 14 26 16.6863 26 20Z" fill="#00CF6A"/>
<path fill-rule="evenodd" clip-rule="evenodd" d="M28 20C28 24.4183 24.4183 28 20 28C15.5817 28 12 24.4183 12 20C12 15.5817 15.5817 12 20 12C24.4183 12 28 15.5817 28 20ZM20 26C23.3137 26 26 23.3137 26 20C26 16.6863 23.3137 14 20 14C16.6863 14 14 16.6863 14 20C14 23.3137 16.6863 26 20 26Z" fill="white"/>
<path fill-rule="evenodd" clip-rule="evenodd" d="M20.0252 16.4C20.5775 16.4 21.0252 16.8477 21.0252 17.4V20.6172L21.6605 19.9242C22.0337 19.5171 22.6662 19.4896 23.0734 19.8628C23.4805 20.236 23.508 20.8686 23.1348 21.2757L20.9348 23.6757C20.7135 23.9171 20.4011 24.025 20.0985 23.9951C19.8107 24.0235 19.5129 23.9275 19.2925 23.7071L16.8925 21.3071C16.502 20.9166 16.502 20.2834 16.8925 19.8929C17.283 19.5023 17.9162 19.5023 18.3067 19.8929L19.0252 20.6114V17.4C19.0252 16.8477 19.473 16.4 20.0252 16.4Z" fill="white"/>
</g>
<defs>
<clipPath id="clip0_1_5255">
<rect width="40" height="40" fill="white"/>
</clipPath>
</defs>
</svg>
