<svg width="40" height="40" viewBox="0 0 40 40" fill="none" xmlns="http://www.w3.org/2000/svg">
<g clip-path="url(#clip0_1_4231)">
<path d="M39.2128 11.449V11.449C40.2623 17.0781 40.2623 22.8026 39.2128 28.5271V28.5271C38.2587 33.9654 33.9653 38.2588 28.527 39.2129V39.2129C22.8979 40.2624 17.1734 40.2624 11.4489 39.2129V39.2129C6.01061 38.2588 1.81264 34.0608 0.858554 28.6225V28.6225C-0.286348 22.9934 -0.286348 17.1735 0.858554 11.449V11.449C1.81264 6.01073 6.01061 1.81276 11.4489 0.858676V0.858676C17.078 -0.286225 22.8979 -0.286225 28.6224 0.858676V0.858676C34.0607 1.81276 38.2587 6.01073 39.2128 11.449Z" fill="white"/>
<path fill-rule="evenodd" clip-rule="evenodd" d="M38.2292 28.3468C39.257 22.7405 39.2564 17.1393 38.2297 11.6323L39.2128 11.449C40.2623 17.0781 40.2623 22.8026 39.2128 28.5271L38.2292 28.3468ZM28.527 39.2129C33.9653 38.2588 38.2587 33.9654 39.2128 28.5271L38.2278 28.3543C37.3465 33.3779 33.3778 37.3466 28.3542 38.2279L28.527 39.2129ZM11.4489 39.2129C17.1734 40.2624 22.8979 40.2624 28.527 39.2129L28.3437 38.2298C22.8368 39.2565 17.2355 39.2571 11.6292 38.2293L11.4489 39.2129ZM28.6224 0.858676L28.4496 1.84363C33.4732 2.72496 37.3465 6.59823 38.2278 11.6218L39.2128 11.449C38.2587 6.01073 34.0607 1.81276 28.6224 0.858676ZM11.4489 0.858676C17.078 -0.286225 22.8979 -0.286225 28.6224 0.858676L28.4263 1.83926C22.8302 0.720026 17.1447 0.720683 11.6482 1.83861L11.4489 0.858676ZM0.858554 11.449C1.81264 6.01073 6.01061 1.81276 11.4489 0.858676L11.6217 1.84363C6.59811 2.72496 2.72484 6.59823 1.84351 11.6218L0.858554 11.449ZM0.858554 11.449L1.83913 11.6451C0.719904 17.2413 0.720561 22.9267 1.83849 28.4232L0.858554 28.6225C-0.286347 22.9934 -0.286347 17.1735 0.858554 11.449ZM0.858554 28.6225C1.81264 34.0608 6.01061 38.2588 11.4489 39.2129L11.6217 38.2279C6.59811 37.3466 2.72484 33.4733 1.84351 28.4497L0.858554 28.6225Z" fill="#EEF4FE"/>
<path d="M10.0067 24.4017L7.59811 24.4017C6.94721 27.0174 6.17367 32.7997 11.7776 32.7997L26.4102 32.7997C22.3932 32.7997 20.705 28.2765 22.2186 24.4017L10.0067 24.4017Z" fill="#00CF6A"/>
<path fill-rule="evenodd" clip-rule="evenodd" d="M27.4102 32.7997C27.4102 33.352 26.9624 33.7997 26.4102 33.7997L11.7776 33.7997C10.2005 33.7997 8.95555 33.3896 8.03183 32.6262C7.11426 31.8678 6.61778 30.8469 6.36995 29.8151C5.88531 27.7974 6.29419 25.5005 6.6277 24.1602C6.73861 23.7145 7.13884 23.4017 7.59811 23.4017L22.2186 23.4017C22.549 23.4017 22.858 23.5649 23.0444 23.8377C23.2307 24.1106 23.2703 24.4578 23.15 24.7656C22.4813 26.4774 22.5385 28.2945 23.1506 29.6395C23.7461 30.9482 24.8461 31.7997 26.4102 31.7997C26.9624 31.7997 27.4102 32.2474 27.4102 32.7997ZM22.1483 31.7997C21.8225 31.3971 21.5489 30.9485 21.3302 30.4679C20.6497 28.9726 20.4901 27.1648 20.8747 25.4017L8.39941 25.4017C8.16243 26.6035 8.01505 28.1007 8.31464 29.348C8.49257 30.0888 8.81276 30.6769 9.30593 31.0845C9.79294 31.487 10.5528 31.7997 11.7776 31.7997L22.1483 31.7997Z" fill="#0033C9"/>
<path fill-rule="evenodd" clip-rule="evenodd" d="M16.368 6.24699C16.4659 6.2159 16.568 6.20007 16.6707 6.20007H32.8552C33.3506 6.20007 33.7714 6.56285 33.8443 7.0529C33.9172 7.54295 33.6203 8.01251 33.1463 8.15675C32.253 8.4286 31.654 8.92933 31.2333 9.61511C30.796 10.3277 30.5277 11.2818 30.4056 12.4664C30.1673 14.7792 30.5098 17.645 30.8638 20.6074C30.876 20.7102 30.8883 20.8131 30.9006 20.9162C31.2559 23.8944 31.6116 27.0036 31.1775 29.3686C30.9566 30.5719 30.5129 31.7021 29.6564 32.5316C28.7786 33.3816 27.5883 33.8001 26.118 33.8001V31.8001C27.1946 31.8001 27.8418 31.5047 28.265 31.0949C28.7095 30.6644 29.0303 29.9886 29.2103 29.0075C29.5782 27.0035 29.2817 24.2299 28.9147 21.153C28.8982 21.0143 28.8815 20.8749 28.8647 20.7351C28.5215 17.8691 28.1543 14.803 28.4161 12.2614C28.5547 10.9167 28.8754 9.6337 29.5286 8.56915C29.6064 8.44235 29.6885 8.31926 29.7752 8.20007H16.8368C15.8486 8.56544 15.1597 9.40166 14.7118 10.6885C14.2378 12.0503 14.0838 13.7958 14.1313 15.6388C14.2261 19.3148 15.1109 23.0595 15.4078 24.1178L13.4821 24.658C13.1608 23.5127 12.2326 19.5928 12.132 15.6903C12.0818 13.7441 12.2344 11.722 12.8229 10.0311C13.4171 8.32385 14.5038 6.83903 16.368 6.24699Z" fill="#0033C9"/>
<path fill-rule="evenodd" clip-rule="evenodd" d="M18.6699 13.344C18.6699 12.7917 19.1176 12.344 19.6699 12.344L23.6283 12.344C24.1805 12.344 24.6283 12.7917 24.6283 13.344C24.6283 13.8963 24.1805 14.344 23.6283 14.344L19.6699 14.344C19.1176 14.344 18.6699 13.8963 18.6699 13.344Z" fill="#00CF6A"/>
<path fill-rule="evenodd" clip-rule="evenodd" d="M18.6699 18.8789C18.6699 18.3266 19.1176 17.8789 19.6699 17.8789L23.6283 17.8789C24.1805 17.8789 24.6283 18.3266 24.6283 18.8789C24.6283 19.4312 24.1805 19.8789 23.6283 19.8789L19.6699 19.8789C19.1176 19.8789 18.6699 19.4312 18.6699 18.8789Z" fill="#00CF6A"/>
</g>
<defs>
<clipPath id="clip0_1_4231">
<rect width="40" height="40" fill="white"/>
</clipPath>
</defs>
</svg>
