<svg width="40" height="40" viewBox="0 0 40 40" fill="none" xmlns="http://www.w3.org/2000/svg">
<g clip-path="url(#clip0_1_6135)">
<path d="M11.5488 1.34863C17.1115 0.217257 22.8642 0.216603 28.5244 1.34863L28.5361 1.35156C33.767 2.26928 37.8029 6.30434 38.7207 11.5352L38.7217 11.541C39.7597 17.1088 39.7593 22.7714 38.7207 28.4365V28.4404C37.803 33.6714 33.6714 37.803 28.4404 38.7207L28.4355 38.7217C22.8675 39.7598 17.2045 39.7594 11.5391 38.7207H11.5352C6.46793 37.8316 2.5224 34.0164 1.44629 29.0234L1.35156 28.5361L1.34863 28.5225C0.217301 22.9598 0.216595 17.2071 1.34863 11.5469L1.35156 11.5352C2.26936 6.30449 6.30449 2.26936 11.5352 1.35156L11.5488 1.34863Z" fill="white" stroke="#F0F5FE"/>
<path d="M11.4494 0.858596C17.0782 -0.286216 22.8979 -0.286182 28.6221 0.858596C34.0604 1.81268 38.2588 6.01111 39.2129 11.4494C40.2624 17.0784 40.2624 22.803 39.2129 28.5274C38.2588 33.9655 33.9655 38.2588 28.5274 39.2129C22.8984 40.2624 17.1738 40.2624 11.4494 39.2129C6.01111 38.2588 1.81268 34.0604 0.858596 28.6221C-0.286181 22.9933 -0.286216 17.1736 0.858596 11.4494C1.81268 6.01111 6.01111 1.81268 11.4494 0.858596ZM28.4268 1.83906C22.8307 0.719839 17.145 0.721148 11.6486 1.83906L11.4494 0.858596L11.6222 1.84394C6.59865 2.72527 2.72527 6.59865 1.84394 11.6222L0.858596 11.4494L1.83906 11.6457C0.719943 17.2415 0.721229 22.9267 1.83906 28.4229L0.858596 28.6221L1.84394 28.4503C2.72543 33.4736 6.59881 37.3463 11.6222 38.2276L11.4669 39.1143L11.6291 38.2295C17.2353 39.2573 22.8369 39.2562 28.3438 38.2295L28.5274 39.2129L28.3546 38.2276C33.3779 37.3462 37.3462 33.3779 38.2276 28.3546L39.2129 28.5274L38.2295 28.3467C39.2573 22.7405 39.2562 17.1389 38.2295 11.632L39.2129 11.4494L38.2276 11.6222C37.3463 6.59881 33.4736 2.72543 28.4503 1.84394L28.6221 0.858596L28.4268 1.83906Z" fill="#F0F5FE"/>
<path d="M24.5604 27.2C24.4015 27.5827 24.3137 28.0025 24.3137 28.4427C24.3137 30.2337 25.7656 31.6855 27.5565 31.6855C29.3474 31.6855 30.7993 30.2337 30.7993 28.4427C30.7993 28.0025 30.7115 27.5827 30.5526 27.2H24.5604Z" fill="#00CF6A"/>
<path d="M10.6463 27.2C10.4874 27.5827 10.3997 28.0025 10.3997 28.4427C10.3997 30.2337 11.8515 31.6855 13.6424 31.6855C15.4334 31.6855 16.8852 30.2337 16.8852 28.4427C16.8852 28.0025 16.7975 27.5827 16.6385 27.2H10.6463Z" fill="#00CF6A"/>
<path fill-rule="evenodd" clip-rule="evenodd" d="M21.6338 8.82037C21.7767 8.28702 22.325 7.97064 22.8584 8.11334L25.7686 8.89264C26.5171 9.09334 27.0371 9.77195 27.0371 10.5469V11.1514C27.1294 11.0988 27.2208 11.049 27.3105 11.003C27.948 10.6758 28.6181 10.4488 29.126 10.3145L29.2607 10.2862C29.8882 10.186 30.5181 10.5331 30.749 11.1446L30.792 11.2803L30.8564 11.5469C31.1437 12.8764 30.9345 14.0905 30.793 14.6817C30.6063 15.4609 29.8114 15.8813 29.0811 15.6602C28.2939 15.4216 27.601 15.0811 27.0371 14.7364V17.8614C27.6891 17.9191 28.3661 18.0157 29.0088 18.167C29.964 18.392 30.9721 18.7657 31.6787 19.419C32.725 20.3867 33.3097 21.7791 33.6494 23.0088C33.995 24.2597 34.1231 25.4749 34.1709 26.2159C34.2357 27.2223 33.421 27.9881 32.4902 27.9883H31.7744C31.7904 28.138 31.7998 28.2899 31.7998 28.4434C31.7995 30.7862 29.9005 32.6854 27.5576 32.6856C25.2146 32.6856 23.3148 30.7864 23.3145 28.4434C23.3145 28.2899 23.3238 28.138 23.3398 27.9883H21.7461C21.6984 27.9953 21.6493 28.0001 21.5996 28.0001H17.8623C17.8775 28.1459 17.8857 28.2939 17.8857 28.4434C17.8854 30.7862 15.9864 32.6854 13.6436 32.6856C11.3005 32.6856 9.4007 30.7864 9.40039 28.4434C9.40039 28.2939 9.40865 28.1459 9.42383 28.0001H9C8.22701 28 7.5999 27.3736 7.59961 26.6006V24.0001H5C4.44776 24.0001 4.00007 23.5523 4 23.0001C4.00006 22.4478 4.44775 22.0001 5 22.0001H10.4004C10.9525 22.0003 11.4003 22.448 11.4004 23.0001C11.4003 23.5522 10.9525 23.9998 10.4004 24.0001H9.59961V26.0001H17V25.9883H18.2666C17.976 25.4374 17.8179 24.806 17.835 24.1378L17.8936 21.8878C17.9342 20.3053 16.662 19.0002 15.0791 19.0001H8.83105C8.27881 19.0001 7.83112 18.5523 7.83105 18.0001C7.83111 17.4478 8.27881 17.0001 8.83105 17.0001H15.0791C17.7866 17.0002 19.9618 19.2319 19.8926 21.9385L19.835 24.1885C19.8113 25.1127 20.5009 25.886 21.3975 25.9883H25.0371V10.7667L22.3408 10.045C21.8076 9.90191 21.491 9.35365 21.6338 8.82037ZM11.4004 28.4434C11.4007 29.6818 12.4051 30.6856 13.6436 30.6856C14.8818 30.6854 15.8854 29.6817 15.8857 28.4434C15.8857 28.3613 15.8806 28.2798 15.8721 28.2003H11.4141C11.4055 28.2798 11.4004 28.3613 11.4004 28.4434ZM25.3145 28.4434C25.3148 29.6818 26.3192 30.6856 27.5576 30.6856C28.7959 30.6854 29.7995 29.6817 29.7998 28.4434C29.7998 28.3613 29.7947 28.2798 29.7861 28.2003H25.3281C25.3196 28.2798 25.3145 28.3613 25.3145 28.4434ZM27.0371 21.3477C27.0074 22.2196 27.007 23.523 27.0146 24.6212C27.0184 25.1551 27.0246 25.6361 27.0293 25.9883H32.1445C32.0866 25.3294 31.9689 24.436 31.7217 23.5411C31.4204 22.4505 30.9647 21.483 30.3213 20.8878C29.9953 20.5863 29.3919 20.3126 28.5498 20.1143C28.0702 20.0014 27.5534 19.9249 27.0371 19.8731V21.3477ZM28.9746 12.4561C28.7265 12.5467 28.4687 12.6565 28.2236 12.7823C28.1216 12.8347 28.0264 12.8874 27.9385 12.9405C28.2267 13.1262 28.5742 13.3218 28.9697 13.4922C29.0015 13.1843 29.0114 12.8293 28.9746 12.4561Z" fill="#0033C9"/>
<path d="M13.5996 12.2003C14.1519 12.2003 14.5996 12.648 14.5996 13.2003C14.5995 13.7525 14.1518 14.2003 13.5996 14.2003H6C5.44776 14.2003 5.00008 13.7525 5 13.2003C5 12.648 5.44772 12.2003 6 12.2003H13.5996Z" fill="#0033C9"/>
</g>
<defs>
<clipPath id="clip0_1_6135">
<rect width="40" height="40" fill="white"/>
</clipPath>
</defs>
</svg>
