<svg width="40" height="40" viewBox="0 0 40 40" fill="none" xmlns="http://www.w3.org/2000/svg">
<g clip-path="url(#clip0_1_4248)">
<path d="M39.2129 11.449V11.449C40.2624 17.0781 40.2624 22.8026 39.2129 28.5271V28.5271C38.2588 33.9654 33.9654 38.2588 28.5271 39.2129V39.2129C22.898 40.2624 17.1735 40.2624 11.449 39.2129V39.2129C6.01073 38.2588 1.81276 34.0608 0.858676 28.6225V28.6225C-0.286225 22.9934 -0.286225 17.1735 0.858676 11.449V11.449C1.81276 6.01073 6.01073 1.81276 11.449 0.858676V0.858676C17.0781 -0.286225 22.898 -0.286225 28.6225 0.858676V0.858676C34.0608 1.81276 38.2588 6.01073 39.2129 11.449Z" fill="white"/>
<path fill-rule="evenodd" clip-rule="evenodd" d="M38.2293 28.3468C39.2571 22.7405 39.2565 17.1393 38.2298 11.6323L39.2129 11.449C40.2624 17.0781 40.2624 22.8026 39.2129 28.5271L38.2293 28.3468ZM28.5271 39.2129C33.9654 38.2588 38.2588 33.9654 39.2129 28.5271L38.2279 28.3543C37.3466 33.3779 33.3779 37.3466 28.3543 38.2279L28.5271 39.2129ZM11.449 39.2129C17.1735 40.2624 22.898 40.2624 28.5271 39.2129L28.3438 38.2298C22.8369 39.2565 17.2356 39.2571 11.6293 38.2293L11.449 39.2129ZM28.6225 0.858676L28.4497 1.84363C33.4733 2.72496 37.3466 6.59823 38.2279 11.6218L39.2129 11.449C38.2588 6.01073 34.0608 1.81276 28.6225 0.858676ZM11.449 0.858676C17.0781 -0.286225 22.898 -0.286225 28.6225 0.858676L28.4264 1.83926C22.8303 0.720026 17.1448 0.720683 11.6483 1.83861L11.449 0.858676ZM0.858676 11.449C1.81276 6.01073 6.01073 1.81276 11.449 0.858676L11.6218 1.84363C6.59823 2.72496 2.72496 6.59823 1.84363 11.6218L0.858676 11.449ZM0.858676 11.449L1.83926 11.6451C0.720026 17.2413 0.720683 22.9267 1.83861 28.4232L0.858676 28.6225C-0.286225 22.9934 -0.286225 17.1735 0.858676 11.449ZM0.858676 28.6225C1.81276 34.0608 6.01073 38.2588 11.449 39.2129L11.6218 38.2279C6.59823 37.3466 2.72496 33.4733 1.84363 28.4497L0.858676 28.6225Z" fill="#EEF4FE"/>
<path fill-rule="evenodd" clip-rule="evenodd" d="M19.741 6.50182C21.4771 6.46828 23.1905 6.90005 24.7034 7.75231C26.2163 8.60456 27.4735 9.84624 28.3444 11.3484C29.2152 12.8502 29.6682 14.5576 29.6564 16.2936C29.6486 18.0952 29.1387 19.859 28.1838 21.3868C27.8889 21.8586 27.6093 22.2773 27.3614 22.6484C27.2842 22.764 27.2101 22.8749 27.1395 22.9814C26.8358 23.4401 26.5958 23.8203 26.4034 24.1993C26.0404 24.9147 25.8197 25.6783 25.8197 26.9552C25.8197 27.4777 25.6122 27.9787 25.2428 28.3481C24.8734 28.7175 24.3724 28.925 23.85 28.925H16.0075C15.485 28.925 14.984 28.7175 14.6146 28.3481C14.2452 27.9787 14.0377 27.4777 14.0377 26.9552C14.0377 25.6972 13.8378 24.9432 13.4988 24.2469C13.2376 23.7105 12.9065 23.2206 12.4589 22.5585C12.2578 22.2609 12.0331 21.9285 11.7807 21.5415C10.8322 20.087 10.2903 18.4052 10.2113 16.6706C10.1322 14.9359 10.5189 13.2118 11.3312 11.6771C12.1435 10.1424 13.3518 8.85308 14.8306 7.94303C16.3095 7.03298 18.0049 6.53535 19.741 6.50182ZM23.7218 9.49483C22.52 8.8178 21.1588 8.4748 19.7797 8.50144C18.4005 8.52808 17.0536 8.9234 15.8788 9.64635C14.704 10.3693 13.7442 11.3935 13.0989 12.6127C12.4536 13.8319 12.1464 15.2015 12.2092 16.5795C12.272 17.9575 12.7025 19.2936 13.456 20.449C13.651 20.748 13.8443 21.0341 14.0315 21.3112C14.522 22.037 14.9705 22.7008 15.297 23.3714C15.7845 24.3726 16.0344 25.4261 16.0377 26.925H23.8197C23.8234 25.3783 24.1056 24.3078 24.6199 23.2943C24.8678 22.8057 25.1625 22.3447 25.472 21.8772C25.5501 21.7593 25.6291 21.641 25.7094 21.5208C25.9542 21.1543 26.2106 20.7704 26.4878 20.3268C27.2458 19.1141 27.6505 17.714 27.6565 16.2838L27.6565 16.2811C27.666 14.9017 27.3061 13.5449 26.6142 12.3516C25.9223 11.1583 24.9236 10.1719 23.7218 9.49483Z" fill="#0033C9"/>
<path fill-rule="evenodd" clip-rule="evenodd" d="M20.943 14.133L20.2466 13.4153C20.943 14.133 20.943 14.133 20.943 14.133L20.9404 14.1354L20.9273 14.1483C20.9152 14.1603 20.8963 14.179 20.8715 14.204C20.8218 14.254 20.7482 14.3289 20.6563 14.4253C20.4722 14.6183 20.2162 14.8956 19.9319 15.2293C19.5478 15.6801 19.1287 16.2146 18.7666 16.7698L19.7522 16.5198C20.5633 16.3142 21.3905 16.5396 21.9291 17.1054C22.491 17.6955 22.6544 18.5752 22.2526 19.3992C21.8532 20.2185 21.3795 20.9907 21.0113 21.5515C20.8261 21.8337 20.6649 22.0664 20.5492 22.2296C20.4913 22.3113 20.4447 22.3758 20.412 22.4205L20.3737 22.4727L20.363 22.4871L20.3589 22.4927C20.3589 22.4927 20.3582 22.4935 19.5579 21.894L20.3582 22.4935C20.0271 22.9355 19.4004 23.0254 18.9583 22.6943C18.5164 22.3632 18.4265 21.7365 18.7575 21.2945C18.7575 21.2945 18.7576 21.2944 19.4954 21.8472L18.7575 21.2945L18.7588 21.2927L18.766 21.2831L18.7967 21.2412C18.8243 21.2034 18.8654 21.1466 18.9174 21.0732C19.0217 20.9261 19.1692 20.7132 19.3394 20.4539C19.6822 19.9318 20.1065 19.2375 20.4549 18.5228C20.4647 18.5026 20.4698 18.4877 20.4724 18.4777C20.4769 18.4809 20.4806 18.4844 20.4806 18.4844L20.4815 18.4853C20.4815 18.4853 20.4771 18.4792 20.4754 18.4681L20.4749 18.4642C20.4747 18.4668 20.4741 18.4712 20.4724 18.4777C20.4493 18.4611 20.3781 18.4244 20.2438 18.4585L18.341 18.941C17.7342 19.0949 17.1154 18.9059 16.7176 18.4696C16.3036 18.0154 16.1767 17.3375 16.4873 16.719C17.0162 15.6659 17.7922 14.6567 18.4095 13.9322C18.7227 13.5647 19.0045 13.2593 19.209 13.0449C19.3114 12.9376 19.3948 12.8526 19.4535 12.7936C19.4828 12.7641 19.506 12.741 19.5224 12.7249L19.5417 12.7059L19.5473 12.7004L19.55 12.6978C19.55 12.6978 19.5502 12.6976 20.2466 13.4153L19.55 12.6978C19.9463 12.3132 20.5796 12.3226 20.9642 12.7189C21.3487 13.1151 21.339 13.7483 20.943 14.133Z" fill="#00CF6A"/>
<path fill-rule="evenodd" clip-rule="evenodd" d="M16.2676 32.8C16.2676 32.2477 16.7153 31.8 17.2676 31.8L22.5902 31.8C23.1424 31.8 23.5902 32.2477 23.5902 32.8C23.5902 33.3523 23.1424 33.8 22.5902 33.8L17.2676 33.8C16.7153 33.8 16.2676 33.3523 16.2676 32.8Z" fill="#0033C9"/>
</g>
<defs>
<clipPath id="clip0_1_4248">
<rect width="40" height="40" fill="white"/>
</clipPath>
</defs>
</svg>
