<svg width="40" height="40" viewBox="0 0 40 40" fill="none" xmlns="http://www.w3.org/2000/svg">
<path d="M39.2129 11.449C40.2624 17.0781 40.2624 22.8026 39.2129 28.5271C38.2588 33.9654 33.9654 38.2588 28.5271 39.2129C22.898 40.2624 17.1735 40.2624 11.449 39.2129C6.01073 38.2588 1.81276 34.0608 0.858676 28.6225C-0.286225 22.9934 -0.286225 17.1735 0.858676 11.449C1.81276 6.01073 6.01073 1.81276 11.449 0.858676C17.0781 -0.286225 22.898 -0.286225 28.6225 0.858676C34.0608 1.81276 38.2588 6.01073 39.2129 11.449Z" fill="white"/>
<path fill-rule="evenodd" clip-rule="evenodd" d="M38.2279 11.6218L38.2279 11.6218C37.3466 6.59823 33.4733 2.72496 28.4497 1.84363L28.4381 1.84158L28.4264 1.83926C22.8303 0.720027 17.1448 0.720684 11.6483 1.83861L11.6351 1.8413L11.6218 1.84363C6.59823 2.72496 2.72496 6.59823 1.84363 11.6218L1.84158 11.6335L1.83926 11.6451C0.720027 17.2413 0.720684 22.9267 1.83861 28.4232L1.8413 28.4365L1.84363 28.4497C2.72496 33.4733 6.59823 37.3466 11.6218 38.2279L11.6293 38.2292C17.2356 39.2571 22.8369 39.2565 28.3438 38.2298L28.3543 38.2279L28.3543 38.2279C33.3779 37.3466 37.3466 33.3779 38.2279 28.3543L38.2292 28.3468C39.2571 22.7405 39.2565 17.1393 38.2298 11.6323L38.2279 11.6218ZM11.449 39.2129C17.1735 40.2624 22.898 40.2624 28.5271 39.2129C33.9654 38.2588 38.2588 33.9654 39.2129 28.5271C40.2624 22.8026 40.2624 17.0781 39.2129 11.449C38.2588 6.01073 34.0608 1.81276 28.6225 0.858676C22.898 -0.286225 17.0781 -0.286225 11.449 0.858676C6.01073 1.81276 1.81276 6.01073 0.858676 11.449C-0.286225 17.1735 -0.286225 22.9934 0.858676 28.6225C1.81276 34.0608 6.01073 38.2588 11.449 39.2129Z" fill="#F5F9FF"/>
<path fill-rule="evenodd" clip-rule="evenodd" d="M22.6488 8.66642C23.0271 8.72869 23.286 9.06771 23.2269 9.42387L23.1679 9.77392C23.4766 9.903 23.7272 10.0707 23.9176 10.2313C24.0903 10.377 24.2197 10.52 24.3074 10.628C24.3512 10.6821 24.3858 10.7282 24.4105 10.7634C24.4229 10.7811 24.4335 10.7963 24.4412 10.8081L24.4502 10.8239L24.4568 10.8327C24.4569 10.833 24.4496 10.8375 23.8582 11.1554L24.4568 10.8327C24.6506 11.1478 24.5401 11.5484 24.2097 11.726C23.8814 11.9025 23.4601 11.793 23.2647 11.4822L22.8502 11.0866C22.682 10.9772 22.471 10.8901 22.2148 10.8708C21.4857 10.8162 21.1895 11.1805 21.1347 11.5083C21.1082 11.6675 21.1276 11.7554 21.1449 11.8012C21.1615 11.8451 21.191 11.8905 21.2558 11.9444C21.4193 12.0802 21.683 12.1843 22.1161 12.3434C22.1289 12.3482 22.1422 12.3529 22.1554 12.3577C22.5185 12.4909 23.0267 12.6777 23.4051 13.0015C23.6172 13.1831 23.8011 13.416 23.9091 13.713C24.0162 14.0078 24.0338 14.3263 23.9781 14.6611C23.8974 15.1454 23.5749 15.5052 23.2033 15.7346C22.8863 15.9301 22.5072 16.0501 22.1138 16.0984L22.0484 16.4948C21.9888 16.8508 21.6342 17.0889 21.2561 17.0268C20.8777 16.9645 20.6188 16.6246 20.6782 16.2683L20.7273 15.9743C20.15 15.7978 19.5919 15.4562 19.1701 14.9032C18.9445 14.6073 19.0124 14.1984 19.3217 13.9903C19.6311 13.7824 20.0649 13.8538 20.2906 14.1496C20.6705 14.6478 21.2653 14.8424 21.8012 14.8103C22.0693 14.7942 22.2885 14.7217 22.4311 14.6337C22.5726 14.5462 22.602 14.4696 22.6077 14.4356C22.6356 14.2681 22.6177 14.1721 22.5985 14.1192C22.5802 14.0687 22.5476 14.0202 22.4835 13.9653C22.323 13.8279 22.0612 13.7205 21.6326 13.563C21.614 13.5562 21.5945 13.55 21.5751 13.5429C21.2174 13.4119 20.7213 13.2297 20.3502 12.9216C20.1377 12.7451 19.9501 12.5169 19.8389 12.2226C19.7283 11.93 19.7091 11.6139 19.7643 11.2828C19.9129 10.392 20.6589 9.66087 21.7953 9.56503L21.8565 9.1984C21.9161 8.84228 22.2706 8.60421 22.6488 8.66642ZM23.257 11.4732C23.2604 11.4782 23.2637 11.4808 23.2647 11.4822L23.2618 11.4784L23.256 11.472L23.257 11.4732ZM23.256 11.472C23.2475 11.4599 23.2329 11.4394 23.2116 11.4131C23.1669 11.3579 23.0973 11.2805 23.004 11.2018L23.256 11.472Z" fill="#00CF6A"/>
<ellipse cx="27" cy="28" rx="5.96095" ry="6" transform="rotate(90 27 28)" fill="#00CF6A"/>
<path d="M26.6742 23.6799C26.9421 23.5261 27.2849 23.551 27.528 23.756L29.1513 25.1251C29.4647 25.3893 29.5034 25.8564 29.2375 26.1678C28.9715 26.4789 28.5013 26.5166 28.188 26.2525L27.7906 25.9175V30.2511L28.188 29.916C28.5014 29.6518 28.9716 29.6903 29.2375 30.0017C29.5033 30.313 29.4645 30.7793 29.1513 31.0435L27.528 32.4126C27.2502 32.6465 26.8424 32.6466 26.5647 32.4126L24.9405 31.0435C24.6274 30.7793 24.5887 30.313 24.8542 30.0017C25.1201 29.6903 25.5903 29.6519 25.9038 29.916L26.3021 30.2511V25.9165L25.9038 26.2525L25.8427 26.2987C25.5319 26.5107 25.1034 26.4595 24.8542 26.1678C24.5883 25.8565 24.6272 25.3893 24.9405 25.1251L26.5647 23.756L26.6742 23.6799Z" fill="white"/>
<path fill-rule="evenodd" clip-rule="evenodd" d="M16.9403 6.21502C17.6699 5.94948 18.4814 5.97821 19.4668 6.04757C19.7482 6.06738 20.0599 6.0923 20.401 6.11975L24.5953 6.45658C24.9366 6.48404 25.2484 6.50909 25.5295 6.53453C26.5452 6.62648 27.2239 6.73213 27.8864 7.10426C28.5729 7.49003 29.1262 8.07054 29.4496 8.77688C29.7754 9.48872 29.7473 10.2765 29.6812 11.1626C29.6672 11.3499 29.6485 11.5516 29.6298 11.767L30.2995 12.1356C30.3158 12.1446 30.3321 12.1546 30.3479 12.1645C30.778 12.4341 31.1563 12.6702 31.4547 12.8968C31.7686 13.1354 32.0489 13.4025 32.2648 13.7639C32.6777 14.4553 32.6876 15.2353 32.7281 16.116C32.783 17.3107 32.8072 18.7359 32.8008 20.0377L32.7843 21.2859L32.7765 21.386C32.7146 21.8818 32.2834 22.2607 31.7696 22.2492C31.2561 22.2377 30.8422 21.8404 30.8024 21.3427L30.7995 21.2416L30.816 20.0252C30.8204 19.1357 30.8089 18.1868 30.784 17.2997L27.6402 19.5902C27.6348 19.5941 27.6293 19.5988 27.6238 19.6027C27.321 19.8139 26.6889 20.25 26.143 20.618C26.3164 20.9553 26.2856 21.3767 26.0296 21.6891C25.6835 22.1108 25.058 22.175 24.6331 21.8316L23.4149 20.8461L23.4101 20.8422C22.0853 19.7589 21.4236 19.4704 20.8652 19.4776C20.2618 19.4856 19.5075 19.8337 17.9889 20.8894L9.64193 26.9678C9.77201 27.2871 9.90899 27.4925 10.0393 27.6164C10.4678 28.0237 10.9971 28.2678 11.8854 28.4142C12.8141 28.5673 14.0215 28.5981 15.7686 28.6394C16.3257 28.6526 16.9765 28.6621 17.5547 28.6683L18.9057 28.677L19.0074 28.6818C19.5079 28.7308 19.8994 29.1494 19.9009 29.6596C19.9021 30.1694 19.5132 30.5902 19.0132 30.6421L18.9115 30.6479L17.5334 30.6393C16.9462 30.633 16.2867 30.6238 15.7212 30.6104C14.0308 30.5704 12.6596 30.5393 11.5608 30.3582C10.4218 30.1705 9.47347 29.8072 8.66701 29.0407C8.20347 28.6001 7.9012 28.0229 7.69402 27.4288C7.48521 26.8298 7.35164 26.1515 7.26083 25.4491C7.08031 24.0523 7.05309 22.4081 7.01758 20.8442C6.9818 19.2684 7.00068 17.7079 7.07379 16.1169C7.11426 15.2365 7.12443 14.4562 7.53702 13.7649C7.75293 13.4034 8.03315 13.1354 8.3472 12.8968C8.64554 12.6702 9.02378 12.4341 9.45392 12.1645L9.47524 12.1519L10.3087 11.6573C10.2814 11.0151 10.3162 10.415 10.5858 9.86052C10.944 9.12432 11.536 8.68089 12.1393 8.35632L12.1684 8.33996C12.5135 8.16935 13.2089 7.86712 14.282 7.58834L14.7646 7.47093L14.8645 7.4536C14.9842 7.43876 15.1029 7.44542 15.2153 7.47189C15.6509 6.89868 16.253 6.46522 16.9403 6.21502ZM9.01782 17.2275C8.98072 18.4238 8.97524 19.6075 9.00232 20.7999C9.03554 22.2627 9.06121 23.656 9.18936 24.8525L14.439 21.0289C13.6682 20.5479 12.8355 19.9916 12.2779 19.6027C12.2723 19.5988 12.2669 19.5942 12.2614 19.5902L9.01782 17.2275ZM19.3166 8.01275C18.278 7.93963 17.8859 7.96549 17.6158 8.06375C17.2405 8.20035 16.942 8.43409 16.7504 8.71432C16.6296 8.89105 16.539 9.17857 16.4461 10.1136C16.4226 10.3491 16.4006 10.6124 16.3743 10.9143L15.9906 16.8512C15.9556 17.3942 15.4842 17.8096 14.9371 17.778C14.3902 17.746 13.9749 17.2796 14.0097 16.7367L14.3915 10.7969L14.3935 10.7748C14.4202 10.4677 14.4447 10.1848 14.47 9.92981C14.4822 9.80772 14.498 9.68797 14.5117 9.56988C13.7563 9.7838 13.2823 9.99402 13.0697 10.0982C12.6634 10.3193 12.4785 10.5074 12.3748 10.7199C12.2981 10.8776 12.2526 11.1308 12.3167 12.0095C12.3327 12.2292 12.3554 12.474 12.3797 12.7563L12.5531 14.3596C12.6122 14.9005 12.2187 15.3854 11.6742 15.4433C11.1292 15.5007 10.6392 15.1085 10.58 14.5675L10.4996 13.839L10.4918 13.8448C10.0447 14.1251 9.76057 14.3048 9.55277 14.4626C9.35783 14.6108 9.28579 14.699 9.24363 14.7696C9.21996 14.8093 9.20002 14.8501 9.18257 14.9024L13.4282 17.9965C14.1638 18.5091 15.3304 19.2831 16.1689 19.7692L16.8327 19.287C16.8385 19.2828 16.8453 19.2786 16.8511 19.2745C18.309 18.2611 19.5403 17.5236 20.84 17.5066C22.1626 17.4896 23.3056 18.2139 24.605 19.2697C25.1375 18.9225 26.0419 18.297 26.4715 17.9974L30.6348 14.964C30.6133 14.8802 30.5895 14.8235 30.5573 14.7696C30.5151 14.699 30.4442 14.6099 30.2491 14.4617C30.0566 14.3154 29.7983 14.1516 29.406 13.9054L29.2887 14.9948L29.2732 15.0939C29.1696 15.5831 28.7076 15.9267 28.1965 15.8754C27.6515 15.8203 27.2574 15.3367 27.3156 14.7956L27.6335 11.8315C27.6598 11.5283 27.6827 11.2636 27.7003 11.0269C27.7702 10.0905 27.7297 9.79329 27.6412 9.59971C27.5007 9.29281 27.2481 9.01388 26.9018 8.81922C26.6413 8.67286 26.3434 8.58779 25.3386 8.49682C25.0696 8.47247 24.7686 8.44846 24.4247 8.4208L20.2304 8.083C19.8866 8.05534 19.586 8.03172 19.3166 8.01275Z" fill="#0033C9"/>
</svg>
