<svg width="40" height="40" viewBox="0 0 40 40" fill="none" xmlns="http://www.w3.org/2000/svg">
<g clip-path="url(#clip0_1_5863)">
<rect width="40" height="40" fill="white"/>
<path fill-rule="evenodd" clip-rule="evenodd" d="M38.2293 28.3468C39.2571 22.7405 39.2565 17.1393 38.2298 11.6323L39.2129 11.449C40.2624 17.0781 40.2624 22.8026 39.2129 28.5271L38.2293 28.3468ZM28.5271 39.2129C33.9654 38.2588 38.2588 33.9654 39.2129 28.5271L38.2279 28.3543C37.3466 33.3779 33.3779 37.3466 28.3543 38.2279L28.5271 39.2129ZM11.449 39.2129C17.1735 40.2624 22.898 40.2624 28.5271 39.2129L28.3438 38.2298C22.8369 39.2565 17.2356 39.2571 11.6293 38.2293L11.449 39.2129ZM28.6225 0.858676L28.4497 1.84363C33.4733 2.72496 37.3466 6.59823 38.2279 11.6218L39.2129 11.449C38.2588 6.01073 34.0608 1.81276 28.6225 0.858676ZM11.449 0.858676C17.0781 -0.286225 22.898 -0.286225 28.6225 0.858676L28.4264 1.83926C22.8303 0.720026 17.1448 0.720683 11.6483 1.83861L11.449 0.858676ZM0.858676 11.449C1.81276 6.01073 6.01073 1.81276 11.449 0.858676L11.6218 1.84363C6.59823 2.72496 2.72496 6.59823 1.84363 11.6218L0.858676 11.449ZM0.858676 11.449L1.83926 11.6451C0.720026 17.2413 0.720683 22.9267 1.83861 28.4232L0.858676 28.6225C-0.286225 22.9934 -0.286225 17.1735 0.858676 11.449ZM0.858676 28.6225C1.81276 34.0608 6.01073 38.2588 11.449 39.2129L11.6218 38.2279C6.59823 37.3466 2.72496 33.4733 1.84363 28.4497L0.858676 28.6225Z" fill="#F0F5FE"/>
<path d="M16.8008 8.19995V10.2609C14.1319 10.5399 11.3454 11.7693 9.46716 13.8016C7.28621 16.1615 6.60156 19.3026 6.60156 22.4C6.60156 22.6652 6.70692 22.9195 6.89446 23.1071C7.08199 23.2946 7.33635 23.4 7.60156 23.4H15.1561C15.7084 23.4 16.1561 22.9522 16.1561 22.4C16.1561 21.8477 15.7084 21.4 15.1561 21.4H8.62907C8.76696 18.9595 9.43664 16.7814 10.936 15.1591C12.6674 13.2856 15.4544 12.2 17.9523 12.2C20.4057 12.2 22.7762 13.2538 24.537 15.1591C25.4687 16.1672 26.1886 17.3698 26.6603 18.6846C26.8468 19.2044 27.4194 19.4747 27.9393 19.2882C28.4591 19.1017 28.7293 18.5291 28.5428 18.0092C27.984 16.4515 27.1268 15.0146 26.0058 13.8016C24.0829 11.7209 21.5244 10.4531 18.8008 10.234V8.19995H20.1917C20.744 8.19995 21.1917 7.75224 21.1917 7.19995C21.1917 6.64767 20.744 6.19995 20.1917 6.19995H15.4082C14.8559 6.19995 14.4082 6.64767 14.4082 7.19995C14.4082 7.75224 14.8559 8.19995 15.4082 8.19995H16.8008Z" fill="#4147D5"/>
<path d="M7.20117 25.7999C6.64889 25.7999 6.20117 26.2476 6.20117 26.7999C6.20117 27.3522 6.64889 27.7999 7.20117 27.7999H15.6012C16.1535 27.7999 16.6012 27.3522 16.6012 26.7999C16.6012 26.2476 16.1535 25.7999 15.6012 25.7999H7.20117Z" fill="#4147D5"/>
<path d="M22.9629 21.6001C22.9629 21.0478 22.5152 20.6001 21.9629 20.6001C21.4106 20.6001 20.9629 21.0478 20.9629 21.6001V25.5494C20.502 25.2234 20.2012 24.6863 20.2012 24.0789V21.6106C20.2012 21.0583 19.7535 20.6106 19.2012 20.6106C18.6489 20.6106 18.2012 21.0583 18.2012 21.6106V24.0789C18.2012 25.8176 19.3689 27.2835 20.9629 27.7353V33.1151C20.9629 33.6674 21.4106 34.1151 21.9629 34.1151C22.5152 34.1151 22.9629 33.6674 22.9629 33.1151V27.7561C24.5959 27.3302 25.8012 25.8453 25.8012 24.0789V21.6106C25.8012 21.0583 25.3535 20.6106 24.8012 20.6106C24.2489 20.6106 23.8012 21.0583 23.8012 21.6106V24.0789C23.8012 24.7193 23.4667 25.2816 22.9629 25.6007V21.6001Z" fill="#00CF6A"/>
<path fill-rule="evenodd" clip-rule="evenodd" d="M30.0195 26.9067C30.6533 27.0491 31.2225 27.3399 31.6759 27.8077C32.353 28.5063 32.6387 29.4628 32.6387 30.5032C32.6387 31.5436 32.353 32.5001 31.6759 33.1987C30.9942 33.902 30.0506 34.2053 29.0198 34.2053C27.989 34.2053 27.0454 33.902 26.3638 33.1987C25.6866 32.5001 25.4009 31.5436 25.4009 30.5032C25.4009 29.4628 25.6866 28.5063 26.3638 27.8077C26.817 27.34 27.386 27.0492 28.0195 26.9069V21.6105C28.0195 21.0582 28.4672 20.6105 29.0195 20.6105C29.5718 20.6105 30.0195 21.0582 30.0195 21.6105V26.9067ZM30.6387 30.5032C30.6387 31.1922 30.453 31.5867 30.2397 31.8068C30.0309 32.0223 29.665 32.2053 29.0198 32.2053C28.3746 32.2053 28.0087 32.0223 27.7999 31.8068C27.5866 31.5867 27.4009 31.1922 27.4009 30.5032C27.4009 29.8142 27.5866 29.4196 27.7999 29.1996C28.0087 28.9841 28.3746 28.8011 29.0198 28.8011C29.665 28.8011 30.0309 28.9841 30.2397 29.1996C30.453 29.4196 30.6387 29.8142 30.6387 30.5032Z" fill="#00CF6A"/>
</g>
<defs>
<clipPath id="clip0_1_5863">
<rect width="40" height="40" fill="white"/>
</clipPath>
</defs>
</svg>
