<svg width="40" height="40" viewBox="0 0 40 40" fill="none" xmlns="http://www.w3.org/2000/svg">
<g clip-path="url(#clip0_1_5297)">
<path d="M39.2129 11.449V11.449C40.2624 17.0781 40.2624 22.8026 39.2129 28.5271V28.5271C38.2588 33.9654 33.9654 38.2588 28.5271 39.2129V39.2129C22.898 40.2624 17.1735 40.2624 11.449 39.2129V39.2129C6.01073 38.2588 1.81276 34.0608 0.858676 28.6225V28.6225C-0.286225 22.9934 -0.286225 17.1735 0.858676 11.449V11.449C1.81276 6.01073 6.01073 1.81276 11.449 0.858676V0.858676C17.0781 -0.286225 22.898 -0.286225 28.6225 0.858676V0.858676C34.0608 1.81276 38.2588 6.01073 39.2129 11.449Z" fill="white"/>
<path fill-rule="evenodd" clip-rule="evenodd" d="M38.2293 28.3468C39.2571 22.7405 39.2565 17.1393 38.2298 11.6323L39.2129 11.449C40.2624 17.0781 40.2624 22.8026 39.2129 28.5271L38.2293 28.3468ZM28.5271 39.2129C33.9654 38.2588 38.2588 33.9654 39.2129 28.5271L38.2279 28.3543C37.3466 33.3779 33.3779 37.3466 28.3543 38.2279L28.5271 39.2129ZM11.449 39.2129C17.1735 40.2624 22.898 40.2624 28.5271 39.2129L28.3438 38.2298C22.8369 39.2565 17.2356 39.2571 11.6293 38.2293L11.449 39.2129ZM28.6225 0.858676L28.4497 1.84363C33.4733 2.72496 37.3466 6.59823 38.2279 11.6218L39.2129 11.449C38.2588 6.01073 34.0608 1.81276 28.6225 0.858676ZM11.449 0.858676C17.0781 -0.286225 22.898 -0.286225 28.6225 0.858676L28.4264 1.83926C22.8303 0.720026 17.1448 0.720683 11.6483 1.83861L11.449 0.858676ZM0.858676 11.449C1.81276 6.01073 6.01073 1.81276 11.449 0.858676L11.6218 1.84363C6.59823 2.72496 2.72496 6.59823 1.84363 11.6218L0.858676 11.449ZM0.858676 11.449L1.83926 11.6451C0.720026 17.2413 0.720683 22.9267 1.83861 28.4232L0.858676 28.6225C-0.286225 22.9934 -0.286225 17.1735 0.858676 11.449ZM0.858676 28.6225C1.81276 34.0608 6.01073 38.2588 11.449 39.2129L11.6218 38.2279C6.59823 37.3466 2.72496 33.4733 1.84363 28.4497L0.858676 28.6225Z" fill="#EEF4FE"/>
<path d="M12.9372 19.117C13.0303 20.0289 13.7669 20.7658 14.6784 20.863C15.215 20.9203 15.7642 20.9661 16.3229 20.9661C16.8816 20.9661 17.4307 20.9203 17.9674 20.863C18.8789 20.7658 19.6155 20.0289 19.7086 19.117C19.763 18.5837 19.8059 18.0381 19.8059 17.483C19.8059 16.9279 19.763 16.3824 19.7086 15.8491C19.6155 14.9372 18.8789 14.2003 17.9674 14.103C17.4307 14.0458 16.8816 14 16.3229 14C15.7642 14 15.215 14.0458 14.6784 14.103C13.7669 14.2003 13.0303 14.9372 12.9372 15.8491C12.8827 16.3824 12.8398 16.9279 12.8398 17.483C12.8398 18.0381 12.8827 18.5837 12.9372 19.117Z" fill="#00D16B"/>
<path fill-rule="evenodd" clip-rule="evenodd" d="M16.3217 13.0774C15.7148 13.0774 15.1282 13.127 14.5793 13.1856C13.2361 13.329 12.1557 14.4077 12.0181 15.7554C11.9624 16.3013 11.916 16.8824 11.916 17.4831C11.916 18.0838 11.9624 18.6648 12.0181 19.2107C12.1557 20.5585 13.2361 21.6372 14.5793 21.7805C15.1282 21.8391 15.7148 21.8888 16.3217 21.8888C16.9286 21.8888 17.5152 21.8391 18.0641 21.7805C19.4073 21.6372 20.4877 20.5585 20.6253 19.2107C20.681 18.6648 20.7274 18.0838 20.7274 17.4831C20.7274 16.8824 20.681 16.3013 20.6253 15.7554C20.4877 14.4077 19.4073 13.329 18.0641 13.1856C17.5152 13.127 16.9286 13.0774 16.3217 13.0774ZM14.7751 15.0205C15.2995 14.9645 15.8112 14.9227 16.3217 14.9227C16.8322 14.9227 17.3439 14.9645 17.8683 15.0205C18.3481 15.0717 18.7409 15.4668 18.7895 15.9429C18.8427 16.4635 18.8821 16.9736 18.8821 17.4831C18.8821 17.9926 18.8427 18.5026 18.7895 19.0233C18.7409 19.4994 18.3481 19.8944 17.8683 19.9456C17.3439 20.0016 16.8322 20.0435 16.3217 20.0435C15.8112 20.0435 15.2995 20.0016 14.7751 19.9456C14.2953 19.8944 13.9025 19.4994 13.8539 19.0233C13.8007 18.5026 13.7613 17.9926 13.7613 17.4831C13.7613 16.9736 13.8007 16.4635 13.8539 15.9429C13.9025 15.4668 14.2953 15.0717 14.7751 15.0205Z" fill="#0033C9"/>
<path d="M14.3941 25.2983C14.3941 24.7888 13.981 24.3757 13.4715 24.3757C12.9619 24.3757 12.5488 24.7888 12.5488 25.2983L12.5488 28.1987C12.5488 28.7083 12.9619 29.1214 13.4715 29.1214H16.3185C16.8281 29.1214 17.2412 28.7083 17.2412 28.1987C17.2412 27.6891 16.8281 27.2761 16.3185 27.2761H14.3941L14.3941 25.2983Z" fill="#0033C9"/>
<path d="M26.9465 29.1216C26.4369 29.1216 26.0238 28.7085 26.0238 28.1989V26.2212H24.0995C23.5899 26.2212 23.1768 25.8081 23.1768 25.2985C23.1768 24.789 23.5899 24.3759 24.0995 24.3759H26.9465C27.4561 24.3759 27.8691 24.789 27.8691 25.2985V28.1989C27.8691 28.7085 27.4561 29.1216 26.9465 29.1216Z" fill="#0033C9"/>
<path d="M26.9992 21.9772C27.5088 21.9772 27.9219 21.5641 27.9219 21.0545C27.9219 20.545 27.5088 20.1319 26.9992 20.1319H24.1522C23.6426 20.1319 23.2295 20.545 23.2295 21.0545C23.2295 21.5641 23.6426 21.9772 24.1522 21.9772H26.9992Z" fill="#0033C9"/>
<path d="M19.8035 29.0946C19.2939 29.0946 18.8809 28.6815 18.8809 28.172V25.3249C18.8809 24.8153 19.2939 24.4023 19.8035 24.4023C20.3131 24.4023 20.7262 24.8153 20.7262 25.3249V28.172C20.7262 28.6815 20.3131 29.0946 19.8035 29.0946Z" fill="#0033C9"/>
<path d="M26.0238 17.4832C26.0238 17.9928 26.4369 18.4059 26.9465 18.4059C27.4561 18.4059 27.8691 17.9928 27.8691 17.4832V14.5828C27.8691 14.0733 27.4561 13.6602 26.9465 13.6602L24.0995 13.6602C23.5899 13.6602 23.1768 14.0733 23.1768 14.5828C23.1768 15.0924 23.5899 15.5055 24.0995 15.5055H26.0238V17.4832Z" fill="#0033C9"/>
<path d="M14.5002 10C14.5002 10 14.5001 9.99874 14.4996 9.9948C14.4965 9.96565 14.4804 9.81565 14.4305 9.54184C14.38 9.26453 14.3075 8.92886 14.2218 8.60874C14.1636 8.39167 14.1042 8.20002 14.0475 8.0457C13.8214 8.09344 13.568 8.18739 13.3156 8.36612C12.8824 8.67285 12.3264 9.31834 11.9704 10.7425C11.8364 11.2783 11.2935 11.6041 10.7577 11.4701C10.2219 11.3362 9.89615 10.7933 10.0301 10.2575C10.474 8.48166 11.2514 7.37715 12.1599 6.73388C13.0589 6.09727 13.9635 6 14.5002 6C15.0076 6 15.324 6.31914 15.4465 6.46222C15.5925 6.63282 15.6979 6.82808 15.7729 6.98807C15.9273 7.3174 16.0546 7.72119 16.1537 8.09126C16.2554 8.47114 16.3393 8.86047 16.3981 9.18316C16.4508 9.47229 16.5002 9.79601 16.5002 10C16.5002 10.5523 16.0525 11 15.5002 11C14.948 11 14.5002 10.5523 14.5002 10Z" fill="#0033CC"/>
<path d="M25.0002 10C25.0002 10 25.0004 9.99874 25.0008 9.9948C25.004 9.96565 25.02 9.81565 25.07 9.54184C25.1205 9.26453 25.1929 8.92886 25.2787 8.60874C25.3368 8.39167 25.3963 8.20002 25.453 8.0457C25.6791 8.09344 25.9324 8.18739 26.1849 8.36612C26.618 8.67285 27.174 9.31834 27.5301 10.7425C27.664 11.2783 28.207 11.6041 28.7428 11.4701C29.2786 11.3362 29.6043 10.7933 29.4704 10.2575C29.0264 8.48166 28.2491 7.37715 27.3406 6.73388C26.4415 6.09727 25.537 6 25.0002 6C24.4929 6 24.1765 6.31914 24.054 6.46222C23.908 6.63282 23.8026 6.82808 23.7276 6.98807C23.5732 7.3174 23.4459 7.72119 23.3468 8.09126C23.245 8.47114 23.1612 8.86047 23.1024 9.18316C23.0497 9.47229 23.0002 9.79601 23.0002 10C23.0002 10.5523 23.448 11 24.0002 11C24.5525 11 25.0002 10.5523 25.0002 10Z" fill="#0033CC"/>
<path fill-rule="evenodd" clip-rule="evenodd" d="M31.9933 21.3727C31.9525 18.216 31.7296 15.1255 31.4314 12.1306C31.3099 10.9101 30.3923 9.88462 29.1374 9.70017C27.1466 9.40756 24.8643 9.23315 23.0927 9.1317C22.2041 9.08082 21.4384 9.04798 20.8943 9.02785C20.6222 9.01778 20.4053 9.01089 20.256 9.00649C19.7881 8.99273 20 8.99993 20 8.99993C19.9223 9.00179 19.8216 9.00421 19.744 9.0065C19.5947 9.01089 19.3778 9.01779 19.1057 9.02785C18.5616 9.04799 17.7959 9.08083 16.9073 9.13172C15.1357 9.23317 12.8534 9.40759 10.8626 9.70021C9.60769 9.88465 8.69012 10.9102 8.5686 12.1306C8.27041 15.1254 8.04752 18.2158 8.00672 21.3724C8.00188 21.6917 7.99966 22.0113 8.00004 22.3311C7.99744 25.1596 8.14845 28.0384 8.52896 30.9467C8.68539 32.1422 9.60721 33.0924 10.7976 33.2848C13.9479 33.7941 17.0062 34.0144 20.003 33.9991C22.9979 34.0141 25.8518 33.5088 29 32.9999C30.1904 32.8075 30.8436 32.1955 31 30.9999C31.3805 28.0917 32.0026 25.1597 32 22.3312C32.0003 22.0115 31.9981 21.6919 31.9933 21.3727ZM29.9154 18.7101C29.8197 16.5538 29.6499 14.424 29.4412 12.3287C29.4064 11.9793 29.1525 11.7239 28.8466 11.6789C26.9429 11.3991 24.7292 11.2287 22.9784 11.1284C22.1058 11.0785 21.3538 11.0462 20.8204 11.0265C20.2718 11.0062 19.7285 11.0062 19.1796 11.0265C18.6462 11.0462 17.8942 11.0785 17.0216 11.1284C15.2708 11.2287 13.0571 11.3991 11.1534 11.6789C10.8475 11.7239 10.5936 11.9794 10.5588 12.3288C10.3501 14.4241 10.1803 16.5538 10.0846 18.7101C10.0981 18.7861 10.1029 18.8648 10.0981 18.9452C10.0495 19.7583 10.019 20.5781 10.0065 21.4001C10.0026 21.7073 10.0004 22.0151 10 22.3233C10.0031 25.1635 9.9681 28.2199 10.3867 30.8952C10.4352 31.205 10.6804 31.4513 11 31.4999C13.8838 31.9388 17.0405 31.9838 20.0029 31.9991C22.9634 31.9835 25.8673 31.7297 28.7492 31.2911C29.0688 31.2425 29.314 30.9962 29.3624 30.6864C29.7811 28.0111 29.9969 25.1634 30 22.3232C29.9996 22.0152 29.9974 21.7076 29.9935 21.4005C29.981 20.5784 29.9505 19.7585 29.9019 18.9452C29.8971 18.8648 29.9019 18.7861 29.9154 18.7101Z" fill="#0033C9"/>
<path fill-rule="evenodd" clip-rule="evenodd" d="M9.01157 20.7283C9.56384 20.7331 10.0077 21.1847 10.0029 21.7369C9.97739 24.6855 10.1185 27.6755 10.5125 30.6872C10.5543 31.0063 10.7996 31.2591 11.1172 31.3105C17.259 32.3033 23.0475 32.1589 28.7496 31.2911C29.0693 31.2425 29.3144 30.9962 29.3629 30.6864C29.8101 27.8288 30.0256 24.7728 29.9976 21.7375C29.9925 21.1852 30.4361 20.7334 30.9883 20.7283C31.5406 20.7232 31.9924 21.1668 31.9975 21.719C32.0264 24.8578 31.8039 28.0236 31.3389 30.9956C31.154 32.1768 30.2229 33.09 29.0506 33.2684C23.1749 34.1626 17.1749 34.3157 10.7981 33.2848C9.60768 33.0924 8.68586 32.1423 8.52943 30.9467C8.1213 27.8273 7.97682 24.7432 8.00296 21.7196C8.00774 21.1674 8.45931 20.7235 9.01157 20.7283Z" fill="#00CF6A"/>
</g>
<defs>
<clipPath id="clip0_1_5297">
<rect width="40" height="40" fill="white"/>
</clipPath>
</defs>
</svg>
