<svg width="40" height="40" viewBox="0 0 40 40" fill="none" xmlns="http://www.w3.org/2000/svg">
<g clip-path="url(#clip0_1_1650)">
<path d="M39.2129 11.449V11.449C40.2624 17.0781 40.2624 22.8026 39.2129 28.5271V28.5271C38.2588 33.9654 33.9654 38.2588 28.5271 39.2129V39.2129C22.898 40.2624 17.1735 40.2624 11.449 39.2129V39.2129C6.01073 38.2588 1.81276 34.0608 0.858676 28.6225V28.6225C-0.286225 22.9934 -0.286225 17.1735 0.858676 11.449V11.449C1.81276 6.01073 6.01073 1.81276 11.449 0.858676V0.858676C17.0781 -0.286225 22.898 -0.286225 28.6225 0.858676V0.858676C34.0608 1.81276 38.2588 6.01073 39.2129 11.449Z" fill="white"/>
<path fill-rule="evenodd" clip-rule="evenodd" d="M38.2293 28.3468C39.2571 22.7405 39.2565 17.1393 38.2298 11.6323L39.2129 11.449C40.2624 17.0781 40.2624 22.8026 39.2129 28.5271L38.2293 28.3468ZM28.5271 39.2129C33.9654 38.2588 38.2588 33.9654 39.2129 28.5271L38.2279 28.3543C37.3466 33.3779 33.3779 37.3466 28.3543 38.2279L28.5271 39.2129ZM11.449 39.2129C17.1735 40.2624 22.898 40.2624 28.5271 39.2129L28.3438 38.2298C22.8369 39.2565 17.2356 39.2571 11.6293 38.2293L11.449 39.2129ZM28.6225 0.858676L28.4497 1.84363C33.4733 2.72496 37.3466 6.59823 38.2279 11.6218L39.2129 11.449C38.2588 6.01073 34.0608 1.81276 28.6225 0.858676ZM11.449 0.858676C17.0781 -0.286225 22.898 -0.286225 28.6225 0.858676L28.4264 1.83926C22.8303 0.720026 17.1448 0.720683 11.6483 1.83861L11.449 0.858676ZM0.858676 11.449C1.81276 6.01073 6.01073 1.81276 11.449 0.858676L11.6218 1.84363C6.59823 2.72496 2.72496 6.59823 1.84363 11.6218L0.858676 11.449ZM0.858676 11.449L1.83926 11.6451C0.720026 17.2413 0.720683 22.9267 1.83861 28.4232L0.858676 28.6225C-0.286225 22.9934 -0.286225 17.1735 0.858676 11.449ZM0.858676 28.6225C1.81276 34.0608 6.01073 38.2588 11.449 39.2129L11.6218 38.2279C6.59823 37.3466 2.72496 33.4733 1.84363 28.4497L0.858676 28.6225Z" fill="#EEF4FE"/>
<path fill-rule="evenodd" clip-rule="evenodd" d="M11.8106 11.6825C10.2002 13.7525 9.48083 16.5228 9.39995 19.2298C9.38346 19.7819 8.92258 20.216 8.37054 20.1995C7.8185 20.183 7.38435 19.7221 7.40085 19.1701C7.48978 16.1932 8.27996 12.9635 10.232 10.4544C12.2164 7.90372 15.3247 6.19995 19.8009 6.19995C24.2687 6.19995 27.3739 7.89735 29.359 10.4406C31.3118 12.9426 32.106 16.1643 32.1999 19.1372C32.2173 19.6892 31.784 20.1508 31.232 20.1682C30.68 20.1857 30.2183 19.7523 30.2009 19.2003C30.1155 16.4974 29.393 13.7347 27.7824 11.6712C26.2041 9.64905 23.6992 8.19995 19.8009 8.19995C15.8956 8.19995 13.3885 9.65423 11.8106 11.6825Z" fill="#0033C9"/>
<path d="M7.59961 22.6C7.59961 17.96 10.6472 16.8 12.171 16.8C14.9139 16.8 15.5996 19.12 15.5996 20.28V24.92C15.5996 27.704 13.3139 28.4 12.171 28.4C10.6472 28.4 7.59961 27.24 7.59961 22.6Z" fill="#00CF6A"/>
<path fill-rule="evenodd" clip-rule="evenodd" d="M8.63944 17.2217C9.79902 16.1625 11.1924 15.8 12.171 15.8C13.8747 15.8 15.0325 16.5438 15.7295 17.5265C16.3899 18.4574 16.5996 19.543 16.5996 20.28V24.92C16.5996 26.6317 15.8754 27.8015 14.9039 28.5114C13.9826 29.1847 12.9055 29.4 12.171 29.4C11.1924 29.4 9.79902 29.0376 8.63944 27.9784C7.44939 26.8913 6.59961 25.1572 6.59961 22.6C6.59961 20.0429 7.44939 18.3088 8.63944 17.2217ZM9.98835 18.6984C9.27364 19.3513 8.59961 20.5172 8.59961 22.6C8.59961 24.6829 9.27364 25.8488 9.98835 26.5017C10.7335 27.1825 11.6259 27.4 12.171 27.4C12.5794 27.4 13.2166 27.2674 13.7239 26.8967C14.1809 26.5626 14.5996 25.9924 14.5996 24.92V20.28C14.5996 19.8571 14.4665 19.2027 14.0983 18.6836C13.7667 18.2163 13.2102 17.8 12.171 17.8C11.6259 17.8 10.7335 18.0176 9.98835 18.6984Z" fill="#0033C9"/>
<path d="M32 22.6C32 17.96 28.9524 16.8 27.4286 16.8C24.6857 16.8 24 19.12 24 20.28V24.92C24 27.7041 26.2857 28.4 27.4286 28.4C28.9524 28.4 32 27.24 32 22.6Z" fill="#00CF6A"/>
<path fill-rule="evenodd" clip-rule="evenodd" d="M30.9602 17.2217C29.8006 16.1625 28.4072 15.8 27.4286 15.8C25.7249 15.8 24.5671 16.5438 23.8701 17.5265C23.2097 18.4574 23 19.543 23 20.28V24.92C23 26.6317 23.7242 27.8015 24.6957 28.5114C25.617 29.1847 26.6941 29.4 27.4286 29.4C28.4072 29.4 29.8006 29.0376 30.9602 27.9784C32.1502 26.8913 33 25.1572 33 22.6C33 20.0429 32.1502 18.3088 30.9602 17.2217ZM29.6113 18.6984C30.326 19.3513 31 20.5172 31 22.6C31 24.6829 30.326 25.8488 29.6113 26.5017C28.8661 27.1825 27.9738 27.4 27.4286 27.4C27.0202 27.4 26.383 27.2674 25.8757 26.8967C25.4187 26.5626 25 25.9924 25 24.92V20.28C25 19.8571 25.1331 19.2027 25.5013 18.6836C25.8329 18.2163 26.3894 17.8 27.4286 17.8C27.9738 17.8 28.8661 18.0176 29.6113 18.6984Z" fill="#0033C9"/>
<path fill-rule="evenodd" clip-rule="evenodd" d="M31.5541 25.001C32.1058 24.9768 32.5727 25.4045 32.5969 25.9562L31.598 26C32.5969 25.9562 32.5969 25.9559 32.5969 25.9562L32.5971 25.959L32.5972 25.9631L32.5977 25.9753L32.5989 26.0152C32.5998 26.0485 32.6007 26.0951 32.6011 26.1535C32.6018 26.2701 32.6005 26.4345 32.5926 26.6353C32.5768 27.0351 32.5344 27.5881 32.4264 28.1995C32.2193 29.3733 31.734 30.9806 30.5106 32.0086C29.8921 32.5283 29.0955 32.8734 28.3232 33.112C27.5385 33.3544 26.7054 33.5088 25.9574 33.6085C25.2061 33.7086 24.5201 33.7563 24.0227 33.7791C23.7733 33.7905 23.5696 33.7957 23.4268 33.7981C23.3553 33.7993 23.299 33.7998 23.2597 33.7999L23.2137 33.8L23.2007 33.8L23.1968 33.8L23.1955 33.8C23.1953 33.8 23.1946 33.7999 23.2013 32.8L23.1955 33.8C22.6432 33.7963 22.1976 33.3456 22.2013 32.7933C22.205 32.2412 22.6554 31.7966 23.2075 31.8L23.2087 31.8L23.2163 31.8L23.251 31.7999C23.2825 31.7998 23.3307 31.7994 23.3935 31.7984C23.5192 31.7963 23.7034 31.7916 23.9312 31.7812C24.3882 31.7602 25.0141 31.7165 25.6931 31.626C26.3751 31.5351 27.0904 31.3996 27.7329 31.2011C28.3877 30.9988 28.8971 30.7521 29.224 30.4774C29.8914 29.9166 30.2715 28.9024 30.4569 27.8519C30.5453 27.3511 30.5809 26.8913 30.5942 26.5563C30.6008 26.3897 30.6017 26.2562 30.6011 26.1668C30.6008 26.1222 30.6001 26.0887 30.5996 26.0677L30.5989 26.0458L30.5989 26.0438C30.5989 26.0437 30.5989 26.044 30.5989 26.0438M31.5541 25.001C31.0025 25.0252 30.5749 25.4923 30.5989 26.0438ZM23.2075 31.8C23.2075 31.8 23.2074 31.8 23.2075 31.8Z" fill="#0033C9"/>
</g>
<defs>
<clipPath id="clip0_1_1650">
<rect width="40" height="40" fill="white"/>
</clipPath>
</defs>
</svg>
