<svg width="40" height="40" viewBox="0 0 40 40" fill="none" xmlns="http://www.w3.org/2000/svg">
<g clip-path="url(#clip0_1_1632)">
<path d="M39.2129 11.449V11.449C40.2624 17.0781 40.2624 22.8026 39.2129 28.5271V28.5271C38.2588 33.9654 33.9654 38.2588 28.5271 39.2129V39.2129C22.898 40.2624 17.1735 40.2624 11.449 39.2129V39.2129C6.01073 38.2588 1.81276 34.0608 0.858676 28.6225V28.6225C-0.286225 22.9934 -0.286225 17.1735 0.858676 11.449V11.449C1.81276 6.01073 6.01073 1.81276 11.449 0.858676V0.858676C17.0781 -0.286225 22.898 -0.286225 28.6225 0.858676V0.858676C34.0608 1.81276 38.2588 6.01073 39.2129 11.449Z" fill="white"/>
<path fill-rule="evenodd" clip-rule="evenodd" d="M38.2293 28.3468C39.2571 22.7405 39.2565 17.1393 38.2298 11.6323L39.2129 11.449C40.2624 17.0781 40.2624 22.8026 39.2129 28.5271L38.2293 28.3468ZM28.5271 39.2129C33.9654 38.2588 38.2588 33.9654 39.2129 28.5271L38.2279 28.3543C37.3466 33.3779 33.3779 37.3466 28.3543 38.2279L28.5271 39.2129ZM11.449 39.2129C17.1735 40.2624 22.898 40.2624 28.5271 39.2129L28.3438 38.2298C22.8369 39.2565 17.2356 39.2571 11.6293 38.2293L11.449 39.2129ZM28.6225 0.858676L28.4497 1.84363C33.4733 2.72496 37.3466 6.59823 38.2279 11.6218L39.2129 11.449C38.2588 6.01073 34.0608 1.81276 28.6225 0.858676ZM11.449 0.858676C17.0781 -0.286225 22.898 -0.286225 28.6225 0.858676L28.4264 1.83926C22.8303 0.720026 17.1448 0.720683 11.6483 1.83861L11.449 0.858676ZM0.858676 11.449C1.81276 6.01073 6.01073 1.81276 11.449 0.858676L11.6218 1.84363C6.59823 2.72496 2.72496 6.59823 1.84363 11.6218L0.858676 11.449ZM0.858676 11.449L1.83926 11.6451C0.720026 17.2413 0.720683 22.9267 1.83861 28.4232L0.858676 28.6225C-0.286225 22.9934 -0.286225 17.1735 0.858676 11.449ZM0.858676 28.6225C1.81276 34.0608 6.01073 38.2588 11.449 39.2129L11.6218 38.2279C6.59823 37.3466 2.72496 33.4733 1.84363 28.4497L0.858676 28.6225Z" fill="#EEF4FE"/>
<path fill-rule="evenodd" clip-rule="evenodd" d="M25.7383 9.47771C25.8059 8.92958 26.3051 8.54001 26.8532 8.60759C27.4948 8.6867 28.0519 8.77593 28.5749 8.85969C28.6546 8.87247 28.7336 8.88512 28.812 8.89759C30.282 9.13144 31.5058 10.3282 31.603 11.8969C31.8983 16.6677 31.802 21.2988 31.7044 25.9946C31.6749 27.4121 31.6453 28.8354 31.6263 30.2703L31.626 30.2985L31.6111 30.5103C31.5009 32.0605 30.2796 33.3013 28.7281 33.4302C22.7935 33.9234 17.3631 33.9234 11.4285 33.4302C9.87656 33.3013 8.65591 32.0595 8.54501 30.5102C8.08656 24.1058 8.08656 18.2915 8.54501 11.8871C8.65683 10.3251 9.87139 9.14796 11.303 8.86688C11.7304 8.78296 12.206 8.69277 12.909 8.60738C13.4572 8.54078 13.9557 8.93123 14.0223 9.47949C14.0889 10.0277 13.6984 10.5262 13.1502 10.5928C12.5165 10.6698 12.0947 10.7496 11.6883 10.8294C11.0351 10.9577 10.5798 11.4728 10.5399 12.0299C10.0883 18.3393 10.0883 24.0581 10.5399 30.3674C10.5807 30.9374 11.0287 31.3901 11.5941 31.4371C17.4185 31.9211 22.7381 31.9211 28.5625 31.4371C29.1283 31.3901 29.5756 30.9377 29.6161 30.3685L29.6269 30.2152C29.6463 28.7559 29.6761 27.3202 29.7056 25.8992C29.8027 21.2206 29.8965 16.7008 29.6068 12.0205C29.5726 11.4686 29.1261 10.9727 28.4978 10.8727C28.4167 10.8598 28.336 10.8469 28.2554 10.834C27.7317 10.7502 27.2117 10.6669 26.6085 10.5926C26.0603 10.525 25.6708 10.0258 25.7383 9.47771Z" fill="#0033C9"/>
<path fill-rule="evenodd" clip-rule="evenodd" d="M15.6016 20.0001C15.6016 19.4478 16.0493 19.0001 16.6016 19.0001H23.4016C23.9538 19.0001 24.4016 19.4478 24.4016 20.0001C24.4016 20.5524 23.9538 21.0001 23.4016 21.0001H16.6016C16.0493 21.0001 15.6016 20.5524 15.6016 20.0001Z" fill="#00CF6A"/>
<path fill-rule="evenodd" clip-rule="evenodd" d="M20.002 15.8C20.5542 15.8 21.002 16.2478 21.002 16.8L21.002 23.6C21.002 24.1523 20.5542 24.6 20.002 24.6C19.4497 24.6 19.002 24.1523 19.002 23.6L19.002 16.8C19.002 16.2478 19.4497 15.8 20.002 15.8Z" fill="#00CF6A"/>
<path fill-rule="evenodd" clip-rule="evenodd" d="M16.6016 28.4C16.6016 27.8477 17.0493 27.4 17.6016 27.4H22.4016C22.9538 27.4 23.4016 27.8477 23.4016 28.4C23.4016 28.9523 22.9538 29.4 22.4016 29.4H17.6016C17.0493 29.4 16.6016 28.9523 16.6016 28.4Z" fill="#0033C9"/>
<path fill-rule="evenodd" clip-rule="evenodd" d="M12.6016 9.80007C12.6016 7.81185 14.2133 6.20007 16.2016 6.20007H23.8016C25.7898 6.20007 27.4016 7.81185 27.4016 9.80007C27.4016 11.7883 25.7898 13.4001 23.8016 13.4001H16.2016C14.2133 13.4001 12.6016 11.7883 12.6016 9.80007ZM16.2016 8.20007C15.3179 8.20007 14.6016 8.91642 14.6016 9.80007C14.6016 10.6837 15.3179 11.4001 16.2016 11.4001H23.8016C24.6852 11.4001 25.4016 10.6837 25.4016 9.80007C25.4016 8.91642 24.6852 8.20007 23.8016 8.20007H16.2016Z" fill="#0033C9"/>
</g>
<defs>
<clipPath id="clip0_1_1632">
<rect width="40" height="40" fill="white"/>
</clipPath>
</defs>
</svg>
