<svg width="40" height="40" viewBox="0 0 40 40" fill="none" xmlns="http://www.w3.org/2000/svg">
<g clip-path="url(#clip0_1_4860)">
<path d="M39.2129 11.449V11.449C40.2624 17.0781 40.2624 22.8026 39.2129 28.5271V28.5271C38.2588 33.9654 33.9654 38.2588 28.5271 39.2129V39.2129C22.898 40.2624 17.1735 40.2624 11.449 39.2129V39.2129C6.01073 38.2588 1.81276 34.0608 0.858676 28.6225V28.6225C-0.286225 22.9934 -0.286225 17.1735 0.858676 11.449V11.449C1.81276 6.01073 6.01073 1.81276 11.449 0.858676V0.858676C17.0781 -0.286225 22.898 -0.286225 28.6225 0.858676V0.858676C34.0608 1.81276 38.2588 6.01073 39.2129 11.449Z" fill="white"/>
<path fill-rule="evenodd" clip-rule="evenodd" d="M38.2293 28.3468C39.2571 22.7405 39.2565 17.1393 38.2298 11.6323L39.2129 11.449C40.2624 17.0781 40.2624 22.8026 39.2129 28.5271L38.2293 28.3468ZM28.5271 39.2129C33.9654 38.2588 38.2588 33.9654 39.2129 28.5271L38.2279 28.3543C37.3466 33.3779 33.3779 37.3466 28.3543 38.2279L28.5271 39.2129ZM11.449 39.2129C17.1735 40.2624 22.898 40.2624 28.5271 39.2129L28.3438 38.2298C22.8369 39.2565 17.2356 39.2571 11.6293 38.2293L11.449 39.2129ZM28.6225 0.858676L28.4497 1.84363C33.4733 2.72496 37.3466 6.59823 38.2279 11.6218L39.2129 11.449C38.2588 6.01073 34.0608 1.81276 28.6225 0.858676ZM11.449 0.858676C17.0781 -0.286225 22.898 -0.286225 28.6225 0.858676L28.4264 1.83926C22.8303 0.720026 17.1448 0.720683 11.6483 1.83861L11.449 0.858676ZM0.858676 11.449C1.81276 6.01073 6.01073 1.81276 11.449 0.858676L11.6218 1.84363C6.59823 2.72496 2.72496 6.59823 1.84363 11.6218L0.858676 11.449ZM0.858676 11.449L1.83926 11.6451C0.720026 17.2413 0.720683 22.9267 1.83861 28.4232L0.858676 28.6225C-0.286225 22.9934 -0.286225 17.1735 0.858676 11.449ZM0.858676 28.6225C1.81276 34.0608 6.01073 38.2588 11.449 39.2129L11.6218 38.2279C6.59823 37.3466 2.72496 33.4733 1.84363 28.4497L0.858676 28.6225Z" fill="#EEF4FE"/>
<path fill-rule="evenodd" clip-rule="evenodd" d="M10.0312 22.0312C10.5663 22.0312 11 22.465 11 23V25.292C11 28.0957 11.5679 29.8083 12.6037 30.8441C13.6396 31.88 15.3521 32.4478 18.1558 32.4478H21.8442C24.6479 32.4478 26.3604 31.88 27.3963 30.8441C28.4321 29.8083 29 28.0957 29 25.292V23C29 22.465 29.4337 22.0312 29.9688 22.0312C30.5038 22.0312 30.9375 22.465 30.9375 23V25.292C30.9375 28.2879 30.3428 30.6376 28.7663 32.2142C27.1898 33.7907 24.84 34.3853 21.8442 34.3853H18.1558C15.16 34.3853 12.8102 33.7907 11.2337 32.2142C9.65715 30.6376 9.0625 28.2879 9.0625 25.292V23C9.0625 22.465 9.49622 22.0312 10.0312 22.0312Z" fill="#0033C9"/>
<path d="M20.0013 19.9167C22.365 19.9167 24.1088 17.9921 23.8763 15.6283L23.0238 7H16.9917L16.1263 15.6283C15.8938 17.9921 17.6375 19.9167 20.0013 19.9167Z" fill="#00CF6A"/>
<path fill-rule="evenodd" clip-rule="evenodd" d="M16.0278 6.90332C16.0774 6.40822 16.4941 6.03125 16.9917 6.03125H23.0238C23.5219 6.03125 23.9389 6.40903 23.9878 6.90475L24.8403 15.5331C25.1287 18.4644 22.9397 20.8854 20.0013 20.8854C17.0628 20.8854 14.8739 18.4648 15.1622 15.5335L16.0278 6.90332ZM17.8681 7.96875L17.0904 15.7232C17.0903 15.7235 17.0904 15.7229 17.0904 15.7232C16.9142 17.5189 18.2125 18.9479 20.0013 18.9479C21.7902 18.9479 23.0886 17.5196 22.9122 15.7236L22.146 7.96875H17.8681Z" fill="#0033C9"/>
<path d="M28.1522 19.9167C30.7614 19.9167 32.6731 17.7983 32.4147 15.2021L32.0531 11.65C31.5881 8.29167 30.2964 7 26.9122 7H22.9727L23.8768 16.0546C24.0964 18.1858 26.021 19.9167 28.1522 19.9167Z" fill="#00CF6A"/>
<path fill-rule="evenodd" clip-rule="evenodd" d="M22.2544 6.34991C22.4381 6.14701 22.699 6.03125 22.9727 6.03125H26.9122C28.7036 6.03125 30.1681 6.36886 31.2347 7.354C32.2884 8.32736 32.7703 9.76686 33.0127 11.5171C33.0143 11.5287 33.0157 11.5403 33.0168 11.5519L33.3787 15.1062C33.6936 18.2706 31.3363 20.8854 28.1522 20.8854C25.5246 20.8854 23.1837 18.7793 22.9132 16.1539L22.9129 16.1508L22.0087 7.09626C21.9815 6.82394 22.0708 6.55282 22.2544 6.34991ZM24.043 7.96875L24.8405 15.9553C24.8405 15.9558 24.8406 15.9562 24.8406 15.9567C25.01 17.5932 26.5179 18.9479 28.1522 18.9479C30.1861 18.9479 31.652 17.3267 31.4509 15.2991C31.4508 15.2988 31.4508 15.2984 31.4508 15.298L31.0911 11.7658C30.868 10.1685 30.4724 9.28749 29.92 8.77725C29.3784 8.27698 28.5051 7.96875 26.9122 7.96875H24.043Z" fill="#0033C9"/>
<path d="M11.7859 19.9167C13.9171 19.9167 15.8417 18.1858 16.0484 16.0546L16.3326 13.2L16.9526 7H13.013C9.6288 7 8.33714 8.29167 7.87214 11.65L7.52339 15.2021C7.26505 17.7983 9.17672 19.9167 11.7859 19.9167Z" fill="#00CF6A"/>
<path fill-rule="evenodd" clip-rule="evenodd" d="M8.69055 7.354C9.75708 6.36886 11.2217 6.03125 13.013 6.03125H16.9526C17.2263 6.03125 17.4872 6.14703 17.6708 6.34996C17.8545 6.5529 17.9437 6.82405 17.9165 7.09639L17.0126 16.1481C17.0126 16.1486 17.0125 16.1491 17.0125 16.1496C16.7565 18.7802 14.4118 20.8854 11.7859 20.8854C8.60206 20.8854 6.24487 18.271 6.55934 15.1068C6.55936 15.1066 6.55932 15.1071 6.55934 15.1068L6.90803 11.5553C6.90928 11.5426 6.91079 11.5298 6.91255 11.5171C7.1549 9.76686 7.63679 8.32736 8.69055 7.354ZM8.83435 11.7641L8.48738 15.298C8.28559 17.3261 9.75162 18.9479 11.7859 18.9479C13.4219 18.9479 14.926 17.5923 15.0842 15.9611L15.0844 15.9586L15.8821 7.96875H13.013C11.4201 7.96875 10.5468 8.27698 10.0052 8.77725C9.45299 9.28731 9.05748 10.1679 8.83435 11.7641Z" fill="#0033C9"/>
<path fill-rule="evenodd" clip-rule="evenodd" d="M20.0001 24C23.3281 24 24.9709 25.8803 24.9709 29.2083V33C24.9709 33.6972 24.4057 34.2625 23.7084 34.2625H16.2918C15.5945 34.2625 15.0293 33.6972 15.0293 33V29.2083C15.0293 25.8803 16.6721 24 20.0001 24ZM17 29.2083V32.5H23V29.2083C23 27.2249 21.816 26 20.0001 26C18.1843 26 17 27.225 17 29.2083Z" fill="#0033C9"/>
</g>
<defs>
<clipPath id="clip0_1_4860">
<rect width="40" height="40" fill="white"/>
</clipPath>
</defs>
</svg>
