<svg width="40" height="40" viewBox="0 0 40 40" fill="none" xmlns="http://www.w3.org/2000/svg">
<g clip-path="url(#clip0_1_4881)">
<path d="M39.2129 11.449V11.449C40.2624 17.0781 40.2624 22.8026 39.2129 28.5271V28.5271C38.2588 33.9654 33.9654 38.2588 28.5271 39.2129V39.2129C22.898 40.2624 17.1735 40.2624 11.449 39.2129V39.2129C6.01073 38.2588 1.81276 34.0608 0.858676 28.6225V28.6225C-0.286225 22.9934 -0.286225 17.1735 0.858676 11.449V11.449C1.81276 6.01073 6.01073 1.81276 11.449 0.858676V0.858676C17.0781 -0.286225 22.898 -0.286225 28.6225 0.858676V0.858676C34.0608 1.81276 38.2588 6.01073 39.2129 11.449Z" fill="white"/>
<path fill-rule="evenodd" clip-rule="evenodd" d="M38.2293 28.3468C39.2571 22.7405 39.2565 17.1393 38.2298 11.6323L39.2129 11.449C40.2624 17.0781 40.2624 22.8026 39.2129 28.5271L38.2293 28.3468ZM28.5271 39.2129C33.9654 38.2588 38.2588 33.9654 39.2129 28.5271L38.2279 28.3543C37.3466 33.3779 33.3779 37.3466 28.3543 38.2279L28.5271 39.2129ZM11.449 39.2129C17.1735 40.2624 22.898 40.2624 28.5271 39.2129L28.3438 38.2298C22.8369 39.2565 17.2356 39.2571 11.6293 38.2293L11.449 39.2129ZM28.6225 0.858676L28.4497 1.84363C33.4733 2.72496 37.3466 6.59823 38.2279 11.6218L39.2129 11.449C38.2588 6.01073 34.0608 1.81276 28.6225 0.858676ZM11.449 0.858676C17.0781 -0.286225 22.898 -0.286225 28.6225 0.858676L28.4264 1.83926C22.8303 0.720026 17.1448 0.720683 11.6483 1.83861L11.449 0.858676ZM0.858676 11.449C1.81276 6.01073 6.01073 1.81276 11.449 0.858676L11.6218 1.84363C6.59823 2.72496 2.72496 6.59823 1.84363 11.6218L0.858676 11.449ZM0.858676 11.449L1.83926 11.6451C0.720026 17.2413 0.720683 22.9267 1.83861 28.4232L0.858676 28.6225C-0.286225 22.9934 -0.286225 17.1735 0.858676 11.449ZM0.858676 28.6225C1.81276 34.0608 6.01073 38.2588 11.449 39.2129L11.6218 38.2279C6.59823 37.3466 2.72496 33.4733 1.84363 28.4497L0.858676 28.6225Z" fill="#EEF4FE"/>
<path fill-rule="evenodd" clip-rule="evenodd" d="M27.0343 11.9823C27.5589 9.89716 29.4337 8.43555 31.5838 8.43555H32.6496C33.2019 8.43555 33.6496 8.88326 33.6496 9.43555C33.6496 9.98783 33.2019 10.4355 32.6496 10.4355H31.5838C30.3504 10.4355 29.2748 11.274 28.9739 12.4702L27.1692 19.6439C27.0345 20.1795 26.4911 20.5045 25.9555 20.3697C25.4199 20.235 25.0949 19.6916 25.2297 19.156L27.0343 11.9823Z" fill="#0033C9"/>
<path fill-rule="evenodd" clip-rule="evenodd" d="M10.9386 18.3999C10.4402 18.3999 10.1451 18.7858 10.1819 19.1401C10.4426 21.6493 11.228 23.4908 11.8713 24.6826C12.1484 25.196 12.5331 25.5227 12.9639 25.6386C13.8186 25.8683 15.3973 26.1428 18.0537 26.1428C20.7102 26.1428 22.2889 25.8683 23.1436 25.6386C23.5756 25.5224 23.9021 25.2129 24.0419 24.786C24.2703 24.0884 24.4789 23.1498 24.756 21.8641C24.7748 21.777 24.7938 21.6885 24.8132 21.5986C25.0108 20.6805 25.2398 19.6168 25.5278 18.3999H10.9386ZM8.19259 19.3468C8.01869 17.6734 9.39839 16.3999 10.9386 16.3999H26.8001C27.1081 16.3999 27.3988 16.5418 27.5883 16.7845C27.7778 17.0272 27.845 17.3437 27.7703 17.6424C27.3414 19.3581 27.0302 20.8035 26.7678 22.0225C26.7486 22.1114 26.7298 22.199 26.7111 22.2855C26.4407 23.5401 26.2102 24.5909 25.9427 25.4082C25.5934 26.475 24.7486 27.2781 23.6628 27.57C22.6019 27.8552 20.8427 28.1428 18.0537 28.1428C15.2648 28.1428 13.5056 27.8552 12.4447 27.57C11.3577 27.2778 10.5807 26.5023 10.1113 25.6326C9.3767 24.2717 8.48676 22.1777 8.19259 19.3468Z" fill="#0033C9"/>
<path d="M11.5079 32.8857C12.0365 32.8857 12.4651 32.4572 12.4651 31.9286C12.4651 31.4 12.0365 30.9714 11.5079 30.9714C10.9793 30.9714 10.5508 31.4 10.5508 31.9286C10.5508 32.4572 10.9793 32.8857 11.5079 32.8857Z" fill="#0033C9"/>
<path fill-rule="evenodd" clip-rule="evenodd" d="M11.5079 31.9714C11.5316 31.9714 11.5508 31.9522 11.5508 31.9286C11.5508 31.9049 11.5316 31.8857 11.5079 31.8857C11.4843 31.8857 11.4651 31.9049 11.4651 31.9286C11.4651 31.9522 11.4843 31.9714 11.5079 31.9714ZM9.55078 31.9286C9.55078 30.8477 10.427 29.9714 11.5079 29.9714C12.5888 29.9714 13.4651 30.8477 13.4651 31.9286C13.4651 33.0095 12.5888 33.8857 11.5079 33.8857C10.427 33.8857 9.55078 33.0095 9.55078 31.9286Z" fill="#0033C9"/>
<path d="M23.9493 32.8857C24.4779 32.8857 24.9065 32.4572 24.9065 31.9286C24.9065 31.4 24.4779 30.9714 23.9493 30.9714C23.4207 30.9714 22.9922 31.4 22.9922 31.9286C22.9922 32.4572 23.4207 32.8857 23.9493 32.8857Z" fill="#0033C9"/>
<path fill-rule="evenodd" clip-rule="evenodd" d="M23.9493 31.9714C23.973 31.9714 23.9922 31.9522 23.9922 31.9286C23.9922 31.9049 23.973 31.8857 23.9493 31.8857C23.9257 31.8857 23.9065 31.9049 23.9065 31.9286C23.9065 31.9522 23.9257 31.9714 23.9493 31.9714ZM21.9922 31.9286C21.9922 30.8477 22.8684 29.9714 23.9493 29.9714C25.0302 29.9714 25.9065 30.8477 25.9065 31.9286C25.9065 33.0095 25.0302 33.8857 23.9493 33.8857C22.8684 33.8857 21.9922 33.0095 21.9922 31.9286Z" fill="#0033C9"/>
<path fill-rule="evenodd" clip-rule="evenodd" d="M8.26267 10.6328C8.06798 10.116 8.32913 9.5392 8.84596 9.34451L11.0525 8.5133C11.4772 8.35334 11.9563 8.49937 12.2196 8.86899C12.2914 8.96987 12.4724 9.15373 12.7101 9.26678C12.9219 9.36755 13.1518 9.40331 13.4242 9.3007C13.6966 9.19809 13.8457 9.01956 13.9384 8.80407C14.0424 8.56232 14.0572 8.30474 14.0446 8.18152C13.9985 7.73008 14.2623 7.30422 14.6869 7.14426L17.0233 6.26416C17.5401 6.06947 18.1169 6.33062 18.3116 6.84745L20.5718 12.8475C20.7665 13.3643 20.5053 13.9411 19.9885 14.1358C19.4717 14.3305 18.8949 14.0693 18.7002 13.5525L16.7925 8.48829L16.0073 8.78407C15.9668 9.04348 15.8936 9.32019 15.7756 9.59445C15.5088 10.2147 14.9991 10.8447 14.1292 11.1723C13.2594 11.5 12.4607 11.3629 11.851 11.0729C11.5813 10.9446 11.3438 10.785 11.1422 10.6167L10.4868 10.8636L11.5204 13.6076C11.7151 14.1244 11.454 14.7012 10.9371 14.8959C10.4203 15.0906 9.84351 14.8295 9.64883 14.3126L8.26267 10.6328Z" fill="#00CF6A"/>
<path fill-rule="evenodd" clip-rule="evenodd" d="M19.6723 7.36266C19.786 6.92317 20.1816 6.61547 20.6355 6.61329L23.394 6.60003C23.6601 6.59875 23.9157 6.70354 24.1042 6.89122C24.2928 7.07889 24.3988 7.33397 24.3988 7.60002L24.3988 13.4C24.3988 13.9523 23.9511 14.4 23.3988 14.4C22.8465 14.4 22.3988 13.9523 22.3988 13.4L22.3988 8.60484L21.303 8.6101C21.175 8.83917 21.0102 9.07307 20.8043 9.28912C20.3386 9.778 19.6417 10.1915 18.7122 10.1964C18.1599 10.1994 17.7098 9.75404 17.7069 9.20176C17.704 8.64948 18.1493 8.1994 18.7016 8.19646C18.9926 8.19492 19.1945 8.07935 19.3564 7.90951C19.5379 7.71898 19.6412 7.48257 19.6723 7.36266Z" fill="#00CF6A"/>
</g>
<defs>
<clipPath id="clip0_1_4881">
<rect width="40" height="40" fill="white"/>
</clipPath>
</defs>
</svg>
