<svg width="40" height="40" viewBox="0 0 40 40" fill="none" xmlns="http://www.w3.org/2000/svg">
<g clip-path="url(#clip0_1_3686)">
<path d="M39.2129 11.449V11.449C40.2624 17.0781 40.2624 22.8026 39.2129 28.5271V28.5271C38.2588 33.9654 33.9654 38.2588 28.5271 39.2129V39.2129C22.898 40.2624 17.1735 40.2624 11.449 39.2129V39.2129C6.01073 38.2588 1.81276 34.0608 0.858676 28.6225V28.6225C-0.286225 22.9934 -0.286225 17.1735 0.858676 11.449V11.449C1.81276 6.01073 6.01073 1.81276 11.449 0.858676V0.858676C17.0781 -0.286225 22.898 -0.286225 28.6225 0.858676V0.858676C34.0608 1.81276 38.2588 6.01073 39.2129 11.449Z" fill="white"/>
<path fill-rule="evenodd" clip-rule="evenodd" d="M38.2293 28.3468C39.2571 22.7405 39.2565 17.1393 38.2298 11.6323L39.2129 11.449C40.2624 17.0781 40.2624 22.8026 39.2129 28.5271L38.2293 28.3468ZM28.5271 39.2129C33.9654 38.2588 38.2588 33.9654 39.2129 28.5271L38.2279 28.3543C37.3466 33.3779 33.3779 37.3466 28.3543 38.2279L28.5271 39.2129ZM11.449 39.2129C17.1735 40.2624 22.898 40.2624 28.5271 39.2129L28.3438 38.2298C22.8369 39.2565 17.2356 39.2571 11.6293 38.2293L11.449 39.2129ZM28.6225 0.858676L28.4497 1.84363C33.4733 2.72496 37.3466 6.59823 38.2279 11.6218L39.2129 11.449C38.2588 6.01073 34.0608 1.81276 28.6225 0.858676ZM11.449 0.858676C17.0781 -0.286225 22.898 -0.286225 28.6225 0.858676L28.4264 1.83926C22.8303 0.720026 17.1448 0.720683 11.6483 1.83861L11.449 0.858676ZM0.858676 11.449C1.81276 6.01073 6.01073 1.81276 11.449 0.858676L11.6218 1.84363C6.59823 2.72496 2.72496 6.59823 1.84363 11.6218L0.858676 11.449ZM0.858676 11.449L1.83926 11.6451C0.720026 17.2413 0.720683 22.9267 1.83861 28.4232L0.858676 28.6225C-0.286225 22.9934 -0.286225 17.1735 0.858676 11.449ZM0.858676 28.6225C1.81276 34.0608 6.01073 38.2588 11.449 39.2129L11.6218 38.2279C6.59823 37.3466 2.72496 33.4733 1.84363 28.4497L0.858676 28.6225Z" fill="#EEF4FE"/>
<path fill-rule="evenodd" clip-rule="evenodd" d="M12.2766 25.7668C11.6531 25.714 11.0342 25.6566 10.4263 25.6002C10.0393 25.5643 9.65649 25.5288 9.28003 25.4952C7.88209 25.3704 6.75733 24.29 6.56501 22.9058C6.54213 22.7411 6.51879 22.575 6.49526 22.4075C6.25753 20.7152 6 18.8821 6 17C6 15.1179 6.25753 13.2848 6.49526 11.5925C6.51879 11.425 6.54213 11.2589 6.56501 11.0942C6.75732 9.71001 7.88197 8.62963 9.27995 8.50479C9.65704 8.47112 10.039 8.43566 10.4253 8.3998C12.5149 8.20583 14.7323 8 17 8C19.2677 8 21.485 8.20583 23.5747 8.3998C23.961 8.43566 24.343 8.47112 24.72 8.50479C26.1181 8.62963 27.2427 9.71011 27.435 11.0943C27.4575 11.2564 27.4805 11.42 27.5036 11.5849C27.6466 12.6031 27.7968 13.6727 27.8938 14.766C28.4149 14.8111 28.9295 14.8587 29.4364 14.9056C29.8068 14.9398 30.173 14.9737 30.5347 15.0059C31.9324 15.1305 33.0573 16.2101 33.2506 17.5939C33.2717 17.7447 33.2931 17.8967 33.3147 18.05C33.5482 19.7053 33.8013 21.5003 33.8013 23.344C33.8013 25.1877 33.5482 26.9827 33.3147 28.638C33.2931 28.7913 33.2717 28.9433 33.2506 29.0941C33.0573 30.4779 31.9323 31.5575 30.5347 31.6821C30.173 31.7143 29.8068 31.7482 29.4364 31.7824C27.3836 31.9722 25.2046 32.1737 22.9759 32.1737C20.7471 32.1737 18.5681 31.9722 16.5153 31.7824C16.1449 31.7482 15.7787 31.7143 15.417 31.6821C14.0194 31.5575 12.8944 30.4779 12.7011 29.0941C12.6801 28.9434 12.6586 28.7915 12.637 28.6383C12.5074 27.7191 12.3717 26.7566 12.2766 25.7668ZM9.45784 10.4969C9.84815 10.462 10.239 10.4258 10.6306 10.3895C12.7213 10.1957 14.8332 10 17 10C19.1668 10 21.2787 10.1957 23.3694 10.3895C23.761 10.4258 24.1519 10.462 24.5422 10.4969C25.0067 10.5383 25.389 10.9015 25.454 11.3695C25.477 11.535 25.5002 11.7002 25.5233 11.8653C25.6519 12.7815 25.7797 13.6926 25.8707 14.6124C24.9196 14.553 23.9525 14.5143 22.9759 14.5143C20.7471 14.5143 18.5681 14.7158 16.5153 14.9056C16.145 14.9398 15.7787 14.9737 15.417 15.0059C14.0194 15.1305 12.8944 16.2101 12.7011 17.5939C12.6801 17.7447 12.6586 17.8967 12.637 18.0499C12.4036 19.7053 12.1504 21.5003 12.1504 23.344C12.1504 23.4793 12.1518 23.6143 12.1544 23.749C11.643 23.7045 11.1357 23.6574 10.6296 23.6105C10.2389 23.5742 9.84877 23.538 9.45792 23.5031C8.99328 23.4617 8.61099 23.0985 8.54598 22.6306C8.52342 22.4681 8.50067 22.3059 8.47795 22.1438C8.23779 20.4308 8 18.7347 8 17C8 15.2653 8.23777 13.5694 8.47792 11.8564C8.50065 11.6943 8.52342 11.5319 8.54598 11.3694C8.611 10.9015 8.99325 10.5384 9.45784 10.4969ZM15.5946 16.998C15.9686 16.9647 16.3431 16.9301 16.7182 16.8955C18.7728 16.7058 20.8475 16.5143 22.9759 16.5143C25.1042 16.5143 27.1789 16.7058 29.2335 16.8955C29.6087 16.9301 29.9832 16.9647 30.3572 16.998C30.8219 17.0394 31.2045 17.4026 31.2698 17.8706C31.2903 18.017 31.3109 18.1633 31.3314 18.3094L31.3317 18.3113C31.5678 19.9889 31.8013 21.6478 31.8013 23.344C31.8013 25.0401 31.5678 26.6991 31.3317 28.3766C31.3186 28.4697 31.3055 28.5627 31.2925 28.6558C31.2849 28.7097 31.2774 28.7635 31.2698 28.8174C31.2045 29.2854 30.8219 29.6485 30.3572 29.69C29.984 29.7232 29.6103 29.7577 29.236 29.7923L29.2335 29.7925C27.179 29.9822 25.1042 30.1737 22.9759 30.1737C20.8475 30.1737 18.7728 29.9822 16.7183 29.7925L16.7155 29.7923C16.3413 29.7577 15.9677 29.7232 15.5946 29.69C15.1298 29.6485 14.7472 29.2854 14.6819 28.8174C14.6613 28.6703 14.6407 28.5234 14.62 28.3767C14.3839 26.6991 14.1504 25.0402 14.1504 23.344C14.1504 21.6478 14.3839 19.9889 14.62 18.3113C14.6407 18.1646 14.6613 18.0176 14.6819 17.8706C14.7472 17.4026 15.1298 17.0394 15.5946 16.998Z" fill="#0033C9"/>
<path fill-rule="evenodd" clip-rule="evenodd" d="M17.1243 26.0892H19.5398L19.5496 26.4265C19.561 26.8179 19.8816 27.1293 20.2732 27.1293H20.978C21.3778 27.1293 21.7019 26.8052 21.7019 26.4054V26.0892H22.0181C22.4179 26.0892 22.742 25.7651 22.742 25.3653V24.9954C22.742 24.5956 22.4179 24.2715 22.0181 24.2715H21.6832L21.7 20.7273C21.7019 20.3262 21.3772 20 20.9761 20H19.3156C19.0551 20 18.8147 20.1399 18.6861 20.3664L16.4948 24.2245C16.4329 24.3335 16.4004 24.4567 16.4004 24.582V25.3653C16.4004 25.7651 16.7245 26.0892 17.1243 26.0892ZM18.7805 24.2715L19.6419 22.7221V24.2715H18.7805Z" fill="#00CF6A"/>
<path d="M28.3508 20.1312C28.1229 20.0903 27.8934 20.0603 27.6623 20.0415C27.3307 20.0138 26.9989 20 26.6672 20C26.1055 20 25.5981 20.0484 25.1474 20.1483C24.6834 20.2444 24.2773 20.4241 23.9381 20.6938C23.5941 20.9659 23.3422 21.345 23.172 21.8113L23.1705 21.8154C23.0068 22.2844 22.9309 22.8645 22.9309 23.5445C22.9309 24.3787 23.0267 25.0743 23.2344 25.6156L23.2349 25.617C23.4513 26.1735 23.8288 26.588 24.3594 26.8455L24.3628 26.8471C24.8798 27.0904 25.565 27.2 26.3945 27.2C27.011 27.2 27.5305 27.1625 27.9474 27.0835L27.9514 27.0826C28.2624 27.0194 28.5511 26.9378 28.8168 26.8369C29.0994 26.7295 29.2624 26.4576 29.2624 26.1785V23.4217C29.2624 23.0208 28.9366 22.6963 28.5357 22.6978L26.7218 22.7047C26.3231 22.7063 26.0007 23.0299 26.0007 23.4287V23.9357C26.0007 24.322 26.3091 24.6538 26.7134 24.6497C26.7868 24.6489 26.8621 24.6474 26.9392 24.645L26.9439 24.6449L26.9487 24.6446C27.0446 24.6388 27.1378 24.6317 27.2283 24.6234C27.2245 24.715 27.2226 24.8098 27.2226 24.9077V25.2023L26.871 25.2208H26.5965C26.1442 25.2208 25.8279 25.1717 25.6256 25.093C25.4703 25.0245 25.3579 24.9048 25.2892 24.7017C25.2158 24.4561 25.1726 24.0764 25.1726 23.5445C25.1726 23.0121 25.256 22.6781 25.3756 22.4915C25.5015 22.2951 25.6717 22.1708 25.8996 22.11L25.9018 22.1094L25.9041 22.1088C26.1796 22.0309 26.51 21.9893 26.8994 21.9893C27.1722 21.9893 27.4415 22.0023 27.7072 22.0283L27.7079 22.0283C27.7736 22.0346 27.931 22.0557 28.1009 22.0796C28.5361 22.1408 28.9292 21.8043 28.9292 21.3614V20.8323C28.9292 20.4984 28.6974 20.1936 28.3508 20.1312Z" fill="#00CF6A"/>
</g>
<defs>
<clipPath id="clip0_1_3686">
<rect width="40" height="40" fill="white"/>
</clipPath>
</defs>
</svg>
