<svg width="40" height="40" viewBox="0 0 40 40" fill="none" xmlns="http://www.w3.org/2000/svg">
<g clip-path="url(#clip0_1_4846)">
<path d="M39.2129 11.449V11.449C40.2624 17.0781 40.2624 22.8026 39.2129 28.5271V28.5271C38.2588 33.9654 33.9654 38.2588 28.5271 39.2129V39.2129C22.898 40.2624 17.1735 40.2624 11.449 39.2129V39.2129C6.01073 38.2588 1.81276 34.0608 0.858676 28.6225V28.6225C-0.286225 22.9934 -0.286225 17.1735 0.858676 11.449V11.449C1.81276 6.01073 6.01073 1.81276 11.449 0.858676V0.858676C17.0781 -0.286225 22.898 -0.286225 28.6225 0.858676V0.858676C34.0608 1.81276 38.2588 6.01073 39.2129 11.449Z" fill="white"/>
<path fill-rule="evenodd" clip-rule="evenodd" d="M38.2293 28.3468C39.2571 22.7405 39.2565 17.1393 38.2298 11.6323L39.2129 11.449C40.2624 17.0781 40.2624 22.8026 39.2129 28.5271L38.2293 28.3468ZM28.5271 39.2129C33.9654 38.2588 38.2588 33.9654 39.2129 28.5271L38.2279 28.3543C37.3466 33.3779 33.3779 37.3466 28.3543 38.2279L28.5271 39.2129ZM11.449 39.2129C17.1735 40.2624 22.898 40.2624 28.5271 39.2129L28.3438 38.2298C22.8369 39.2565 17.2356 39.2571 11.6293 38.2293L11.449 39.2129ZM28.6225 0.858676L28.4497 1.84363C33.4733 2.72496 37.3466 6.59823 38.2279 11.6218L39.2129 11.449C38.2588 6.01073 34.0608 1.81276 28.6225 0.858676ZM11.449 0.858676C17.0781 -0.286225 22.898 -0.286225 28.6225 0.858676L28.4264 1.83926C22.8303 0.720026 17.1448 0.720683 11.6483 1.83861L11.449 0.858676ZM0.858676 11.449C1.81276 6.01073 6.01073 1.81276 11.449 0.858676L11.6218 1.84363C6.59823 2.72496 2.72496 6.59823 1.84363 11.6218L0.858676 11.449ZM0.858676 11.449L1.83926 11.6451C0.720026 17.2413 0.720683 22.9267 1.83861 28.4232L0.858676 28.6225C-0.286225 22.9934 -0.286225 17.1735 0.858676 11.449ZM0.858676 28.6225C1.81276 34.0608 6.01073 38.2588 11.449 39.2129L11.6218 38.2279C6.59823 37.3466 2.72496 33.4733 1.84363 28.4497L0.858676 28.6225Z" fill="#EEF4FE"/>
<path fill-rule="evenodd" clip-rule="evenodd" d="M13.1069 9.21559C12.4085 9.95206 12 10.9967 12 12.2V14.3767C13.3553 15.6492 16.12 17.7 20.1 17.7C22.2551 17.7 24.1577 17.1007 25.6231 16.348C26.9071 15.6884 27.7844 14.949 28.2 14.4636V12.2C28.2 10.9967 27.7915 9.95206 27.0931 9.21559C26.4025 8.4873 25.3721 8 24 8H16.2C14.8279 8 13.7975 8.4873 13.1069 9.21559ZM28.2 17.1154C27.7101 17.4671 27.1507 17.8117 26.5369 18.127C24.8389 18.9993 22.6249 19.7 20.1 19.7C16.5117 19.7 13.779 18.2888 12 16.9756V27.8C12 29.0033 12.4085 30.0479 13.1069 30.7844C13.7975 31.5127 14.8279 32 16.2 32H24C25.3721 32 26.4025 31.5127 27.0931 30.7844C27.7915 30.0479 28.2 29.0033 28.2 27.8V17.1154ZM11.6556 7.83941C12.7525 6.6827 14.3221 6 16.2 6H24C25.8779 6 27.4475 6.6827 28.5444 7.83941C29.6335 8.98794 30.2 10.5433 30.2 12.2V27.8C30.2 29.4567 29.6335 31.0121 28.5444 32.1606C27.4475 33.3173 25.8779 34 24 34H16.2C14.3221 34 12.7525 33.3173 11.6556 32.1606C10.5665 31.0121 10 29.4567 10 27.8V12.2C10 10.5433 10.5665 8.98794 11.6556 7.83941Z" fill="#0033C9"/>
<circle cx="20.0992" cy="18.7" r="3.9" fill="#00D16B"/>
</g>
<defs>
<clipPath id="clip0_1_4846">
<rect width="40" height="40" fill="white"/>
</clipPath>
</defs>
</svg>
