<svg width="40" height="40" viewBox="0 0 40 40" fill="none" xmlns="http://www.w3.org/2000/svg">
<g clip-path="url(#clip0_1_4452)">
<path d="M39.2129 11.449V11.449C40.2624 17.0781 40.2624 22.8026 39.2129 28.5271V28.5271C38.2588 33.9654 33.9654 38.2588 28.5271 39.2129V39.2129C22.898 40.2624 17.1735 40.2624 11.449 39.2129V39.2129C6.01073 38.2588 1.81276 34.0608 0.858676 28.6225V28.6225C-0.286225 22.9934 -0.286225 17.1735 0.858676 11.449V11.449C1.81276 6.01073 6.01073 1.81276 11.449 0.858676V0.858676C17.0781 -0.286225 22.898 -0.286225 28.6225 0.858676V0.858676C34.0608 1.81276 38.2588 6.01073 39.2129 11.449Z" fill="white"/>
<path fill-rule="evenodd" clip-rule="evenodd" d="M38.0326 28.3107C39.056 22.7281 39.0554 17.1515 38.0332 11.669L39.2128 11.449L38.0309 11.6564C37.1642 6.71573 33.3558 2.90741 28.4152 2.04062L28.6225 0.858676C34.0608 1.81276 38.2588 6.01073 39.2129 11.449C40.2624 17.0781 40.2624 22.8026 39.2129 28.5271L38.0326 28.3107ZM28.5271 39.2129C33.9654 38.2588 38.2588 33.9654 39.2129 28.5271L38.0309 28.3198C37.1642 33.2604 33.2604 37.1642 28.3198 38.0309L28.5271 39.2129ZM11.449 39.2129C17.1735 40.2624 22.898 40.2624 28.5271 39.2129L28.3072 38.0332C22.8247 39.0554 17.2481 39.056 11.6654 38.0326L11.449 39.2128L11.6564 38.0309C6.71573 37.1642 2.90741 33.3558 2.04062 28.4152L0.858676 28.6225L2.0346 28.3834C0.922065 22.9134 0.921277 17.2548 2.03537 11.6844L0.858676 11.449L2.04062 11.6564C2.90741 6.71573 6.71573 2.90741 11.6564 2.04062L11.449 0.858676L11.6882 2.0346C17.1582 0.922065 22.8167 0.921277 28.3872 2.03537L28.6225 0.858676C22.898 -0.286225 17.0781 -0.286225 11.449 0.858676C6.01073 1.81276 1.81276 6.01073 0.858676 11.449C-0.286225 17.1735 -0.286225 22.9934 0.858676 28.6225C1.81276 34.0608 6.01073 38.2588 11.449 39.2129Z" fill="#F0F5FE"/>
<g clip-path="url(#clip1_1_4452)">
<g clip-path="url(#clip2_1_4452)">
<circle cx="20.808" cy="20.9823" r="11.0356" fill="#00CF6A"/>
<path d="M18.8064 8.46093C19.7638 8.24349 20.7671 8.52021 21.4777 9.19767L26.0205 13.5286C26.6423 14.1216 26.973 14.9577 26.9242 15.8156L26.5421 22.5079C26.4664 23.8353 25.5069 24.9456 24.2043 25.2121L17.6772 26.5471C16.9889 26.6878 16.2726 26.5765 15.6595 26.2335L10.0395 23.0895C9.06988 22.5472 8.49016 21.5032 8.5428 20.3935L8.89899 12.912C8.96153 11.5973 9.89272 10.4856 11.1761 10.1939L18.8064 8.46093Z" fill="url(#paint0_linear_1_4452)" stroke="#0029A1" stroke-width="0.624"/>
<path opacity="0.6" d="M25.2262 24.1548C25.2262 24.1548 20.401 20.4571 19.6954 20.2734C18.9897 20.0898 10.3721 21.7816 10.1483 22.2244C9.92441 22.6672 15.9328 25.9457 15.9328 25.9457C15.6575 25.9232 14.6378 25.3449 14.2334 25.0998L10.3587 22.9066C9.61854 22.4082 9.16633 21.7994 9.01489 21.1701C9.01489 21.1701 18.4394 19.48 19.046 19.0177C19.6527 18.5555 19.7776 8.76217 19.7776 8.76217C20.1821 8.81022 20.4846 8.91186 20.7288 9.06738C20.7288 9.06738 20.3292 18.7811 20.5482 19.3933C20.7672 20.0055 25.8899 23.5599 25.8899 23.5599C25.7597 23.7847 25.4593 24.0444 25.2262 24.1548Z" fill="#FCFDFF" fill-opacity="0.8"/>
<ellipse opacity="0.54" cx="17.4572" cy="23.275" rx="0.65931" ry="1.30929" transform="rotate(-91.9313 17.4572 23.275)" fill="white"/>
<ellipse cx="10.6111" cy="18.9611" rx="1.21716" ry="1.32522" transform="rotate(24.3766 10.6111 18.9611)" fill="white"/>
<ellipse cx="14.3045" cy="14.6922" rx="1.21424" ry="1.32522" transform="rotate(27.2292 14.3045 14.6922)" fill="white"/>
<ellipse cx="17.715" cy="10.7632" rx="1.14125" ry="1.24205" transform="rotate(28.5548 17.715 10.7632)" fill="white"/>
<ellipse opacity="0.7" cx="23.0672" cy="13.8997" rx="0.934731" ry="1.20581" transform="rotate(-16.7054 23.0672 13.8997)" fill="white"/>
<ellipse opacity="0.7" cx="24.6129" cy="18.9991" rx="0.781551" ry="1.05505" transform="rotate(162.443 24.6129 18.9991)" fill="white"/>
<path d="M31.7009 26.9995C32.1182 29.0544 30.0563 30.8905 27.0421 31.5028C24.0279 32.115 21.2411 31.2728 20.8237 29.2179L20.437 27.6923C21.0858 26.2493 23.423 24.7952 25.5687 24.3593C27.9798 23.8696 30.3426 24.0401 31.3651 25.3716L31.7009 26.9995Z" fill="#FF8D00"/>
<path d="M31.3959 25.7106C31.7381 27.3952 29.6825 29.7043 26.6683 30.3165C23.6541 30.9288 20.8227 29.6123 20.4805 27.9277C20.1383 26.2431 22.3045 24.3811 25.3187 23.7689C28.3329 23.1566 31.0537 24.026 31.3959 25.7106Z" fill="#FFEC45"/>
<ellipse cx="25.8672" cy="26.7192" rx="4.08562" ry="2.26973" transform="rotate(-11.4816 25.8672 26.7192)" fill="#FFC329"/>
<path d="M28.0302 22.0901C29.4383 23.3843 28.8983 25.844 26.9999 27.9094C25.1015 29.9749 22.5926 30.8445 21.1845 29.5503L20.0823 28.6306C19.7892 27.2177 20.7369 24.8928 22.0883 23.4224C23.6068 21.7702 25.4431 20.6314 26.9109 21.0675L28.0302 22.0901Z" fill="#FF8D00"/>
<path d="M27.115 21.3014C28.2693 22.3624 27.9872 25.168 26.0888 27.2335C24.1904 29.299 21.3947 29.8422 20.2403 28.7812C19.0859 27.7202 19.6891 25.1857 21.5875 23.1202C23.4859 21.0547 25.9606 20.2404 27.115 21.3014Z" fill="#FFEC45"/>
<ellipse cx="23.5718" cy="25.0054" rx="3.72646" ry="2.0702" transform="rotate(-47.4139 23.5718 25.0054)" fill="#FFC329"/>
<mask id="path-18-outside-1_1_4452" maskUnits="userSpaceOnUse" x="18.6542" y="19.8367" width="14" height="13" fill="black">
<rect fill="white" x="18.6542" y="19.8367" width="14" height="13"/>
<path d="M21.5878 23.1199C23.3892 21.16 25.709 20.3274 26.9276 21.1541C26.9292 21.1545 26.9309 21.1555 26.9325 21.156L26.9432 21.1658C27.0029 21.2073 27.061 21.2518 27.1151 21.3015C27.1364 21.3211 27.1563 21.3423 27.1766 21.363L28.0302 22.0896C28.5042 22.5253 28.7555 23.0937 28.8104 23.7341C30.2002 24.0332 31.1971 24.7346 31.3954 25.7107C31.3983 25.7252 31.3996 25.74 31.4022 25.7546L31.701 26.9998C32.1181 29.0545 30.0559 30.8905 27.0419 31.5027C24.0448 32.1114 21.2727 31.2822 20.8309 29.2527L20.5077 28.9792C20.4113 28.9205 20.3212 28.8555 20.2401 28.781C19.0858 27.72 19.6894 25.1853 21.5878 23.1199Z"/>
</mask>
<path d="M21.5878 23.1199L21.3963 22.9439L21.3963 22.9439L21.5878 23.1199ZM26.9276 21.1541L26.7816 21.3692C26.8039 21.3843 26.8283 21.3959 26.8541 21.4034L26.9276 21.1541ZM26.9325 21.156L27.1074 20.9636C27.0785 20.9373 27.044 20.9179 27.0065 20.9068L26.9325 21.156ZM26.9432 21.1658L26.7683 21.3582C26.7767 21.3657 26.7855 21.3727 26.7947 21.3792L26.9432 21.1658ZM27.1151 21.3015L27.2911 21.1101L27.2911 21.1101L27.1151 21.3015ZM27.1766 21.363L26.9908 21.5449C26.9963 21.5505 27.0021 21.5559 27.0081 21.561L27.1766 21.363ZM28.0302 22.0896L28.2062 21.898L28.1987 21.8916L28.0302 22.0896ZM28.8104 23.7341L28.5514 23.7563C28.5611 23.8702 28.6441 23.9643 28.7557 23.9883L28.8104 23.7341ZM31.3954 25.7107L31.6502 25.659L31.6502 25.6589L31.3954 25.7107ZM31.4022 25.7546L31.1462 25.8001C31.1471 25.8052 31.1482 25.8103 31.1494 25.8153L31.4022 25.7546ZM31.701 26.9998L31.956 26.948L31.9539 26.9391L31.701 26.9998ZM27.0419 31.5027L27.0936 31.7575H27.0936L27.0419 31.5027ZM20.8309 29.2527L21.085 29.1974C21.0728 29.1415 21.0425 29.0911 20.9989 29.0542L20.8309 29.2527ZM20.5077 28.9792L20.6756 28.7807C20.6654 28.7721 20.6544 28.7642 20.643 28.7572L20.5077 28.9792ZM20.2401 28.781L20.0642 28.9724L20.0642 28.9724L20.2401 28.781ZM21.5878 23.1199L21.7792 23.2958C22.6565 22.3413 23.6532 21.6695 24.5655 21.3362C25.4866 20.9997 26.2718 21.0233 26.7816 21.3692L26.9276 21.1541L27.0736 20.9389C26.3649 20.4581 25.3808 20.4847 24.387 20.8478C23.3845 21.2141 22.3205 21.9385 21.3963 22.9439L21.5878 23.1199ZM26.9276 21.1541L26.8541 21.4034C26.8429 21.4001 26.8342 21.3967 26.8297 21.3949C26.8255 21.3931 26.8221 21.3915 26.8231 21.392C26.8231 21.392 26.8243 21.3925 26.8256 21.3931C26.8269 21.3937 26.8292 21.3947 26.8319 21.3958C26.8371 21.398 26.8465 21.4017 26.8585 21.4052L26.9325 21.156L27.0065 20.9068C27.0177 20.9101 27.0262 20.9135 27.0306 20.9153C27.0347 20.917 27.0381 20.9186 27.037 20.918C27.0369 20.918 27.0358 20.9175 27.0344 20.9169C27.033 20.9163 27.0307 20.9153 27.0279 20.9141C27.0226 20.9119 27.0132 20.9082 27.0011 20.9047L26.9276 21.1541ZM26.9325 21.156L26.7576 21.3484L26.7683 21.3582L26.9432 21.1658L27.1181 20.9734L27.1074 20.9636L26.9325 21.156ZM26.9432 21.1658L26.7947 21.3792C26.8481 21.4164 26.8963 21.4535 26.9392 21.4929L27.1151 21.3015L27.2911 21.1101C27.2258 21.0501 27.1577 20.9983 27.0918 20.9524L26.9432 21.1658ZM27.1151 21.3015L26.9391 21.4929C26.9538 21.5064 26.9655 21.519 26.9908 21.5449L27.1766 21.363L27.3624 21.1812C27.3471 21.1655 27.3191 21.1359 27.2911 21.1101L27.1151 21.3015ZM27.1766 21.363L27.0081 21.561L27.8616 22.2876L28.0302 22.0896L28.1987 21.8916L27.3452 21.1651L27.1766 21.363ZM28.0302 22.0896L27.8542 22.281C28.275 22.6677 28.5013 23.173 28.5514 23.7563L28.8104 23.7341L29.0695 23.7119C29.0097 23.0144 28.7335 22.3829 28.2061 21.8982L28.0302 22.0896ZM28.8104 23.7341L28.7557 23.9883C30.1116 24.2801 30.9737 24.941 31.1406 25.7624L31.3954 25.7107L31.6502 25.6589C31.4205 24.5282 30.2889 23.7863 28.8651 23.4799L28.8104 23.7341ZM31.3954 25.7107L31.1406 25.7624C31.1403 25.7609 31.1404 25.7611 31.1414 25.7683C31.1421 25.7731 31.1438 25.7866 31.1462 25.8001L31.4022 25.7546L31.6582 25.7092C31.6582 25.7092 31.6581 25.7085 31.6578 25.7063C31.6574 25.7038 31.6571 25.7017 31.6565 25.697C31.6554 25.6895 31.6534 25.675 31.6502 25.659L31.3954 25.7107ZM31.4022 25.7546L31.1494 25.8153L31.4482 27.0604L31.701 26.9998L31.9539 26.9391L31.655 25.694L31.4022 25.7546ZM31.701 26.9998L31.4462 27.0515C31.6323 27.9682 31.2732 28.8547 30.4797 29.603C29.6833 30.3541 28.4625 30.9488 26.9901 31.2479L27.0419 31.5027L27.0936 31.7575C28.6352 31.4444 29.9526 30.8149 30.8365 29.9813C31.7234 29.1449 32.1868 28.086 31.9559 26.948L31.701 26.9998ZM27.0419 31.5027L26.9901 31.2479C25.5257 31.5453 24.1319 31.4876 23.0625 31.1211C21.9938 30.7547 21.2803 30.0947 21.085 29.1974L20.8309 29.2527L20.5769 29.308C20.8233 30.4401 21.7167 31.2095 22.8938 31.613C24.0702 32.0162 25.561 32.0688 27.0936 31.7575L27.0419 31.5027ZM20.8309 29.2527L20.9989 29.0542L20.6756 28.7807L20.5077 28.9792L20.3398 29.1778L20.663 29.4512L20.8309 29.2527ZM20.5077 28.9792L20.643 28.7572C20.5578 28.7053 20.482 28.6502 20.4161 28.5896L20.2401 28.781L20.0642 28.9724C20.1604 29.0608 20.2649 29.1358 20.3724 29.2013L20.5077 28.9792ZM20.2401 28.781L20.4161 28.5896C19.9394 28.1515 19.788 27.3705 20.0221 26.3873C20.2539 25.4136 20.8543 24.3021 21.7792 23.2958L21.5878 23.1199L21.3963 22.9439C20.4229 24.0031 19.7723 25.1917 19.5163 26.2669C19.2625 27.3326 19.3865 28.3495 20.0642 28.9724L20.2401 28.781Z" fill="#BF7604" mask="url(#path-18-outside-1_1_4452)"/>
</g>
</g>
</g>
<defs>
<linearGradient id="paint0_linear_1_4452" x1="16.2487" y1="9.09661" x2="18.9762" y2="26.0643" gradientUnits="userSpaceOnUse">
<stop offset="0.601818" stop-color="#0068FF"/>
<stop offset="1" stop-color="#003E99"/>
</linearGradient>
<clipPath id="clip0_1_4452">
<rect width="40" height="40" fill="white"/>
</clipPath>
<clipPath id="clip1_1_4452">
<rect width="28.8889" height="28.8889" fill="white" transform="translate(5.55469 5.55566)"/>
</clipPath>
<clipPath id="clip2_1_4452">
<rect width="28.8889" height="28.8889" fill="white" transform="translate(5.55469 5.55566)"/>
</clipPath>
</defs>
</svg>
