<svg width="40" height="40" viewBox="0 0 40 40" fill="none" xmlns="http://www.w3.org/2000/svg">
<g clip-path="url(#clip0_1_5890)">
<rect width="40" height="40" fill="white"/>
<path d="M39.2129 11.449V11.449C40.2624 17.0781 40.2624 22.8026 39.2129 28.5271V28.5271C38.2588 33.9654 33.9654 38.2588 28.5271 39.2129V39.2129C22.898 40.2624 17.1735 40.2624 11.449 39.2129V39.2129C6.01073 38.2588 1.81276 34.0608 0.858676 28.6225V28.6225C-0.286225 22.9934 -0.286225 17.1735 0.858676 11.449V11.449C1.81276 6.01073 6.01073 1.81276 11.449 0.858676V0.858676C17.0781 -0.286225 22.898 -0.286225 28.6225 0.858676V0.858676C34.0608 1.81276 38.2588 6.01073 39.2129 11.449Z" fill="white"/>
<path fill-rule="evenodd" clip-rule="evenodd" d="M38.2293 28.3468C39.2571 22.7405 39.2565 17.1393 38.2298 11.6323L39.2129 11.449C40.2624 17.0781 40.2624 22.8026 39.2129 28.5271L38.2293 28.3468ZM28.5271 39.2129C33.9654 38.2588 38.2588 33.9654 39.2129 28.5271L38.2279 28.3543C37.3466 33.3779 33.3779 37.3466 28.3543 38.2279L28.5271 39.2129ZM11.449 39.2129C17.1735 40.2624 22.898 40.2624 28.5271 39.2129L28.3438 38.2298C22.8369 39.2565 17.2356 39.2571 11.6293 38.2293L11.449 39.2129ZM28.6225 0.858676L28.4497 1.84363C33.4733 2.72496 37.3466 6.59823 38.2279 11.6218L39.2129 11.449C38.2588 6.01073 34.0608 1.81276 28.6225 0.858676ZM11.449 0.858676C17.0781 -0.286225 22.898 -0.286225 28.6225 0.858676L28.4264 1.83926C22.8303 0.720026 17.1448 0.720683 11.6483 1.83861L11.449 0.858676ZM0.858676 11.449C1.81276 6.01073 6.01073 1.81276 11.449 0.858676L11.6218 1.84363C6.59823 2.72496 2.72496 6.59823 1.84363 11.6218L0.858676 11.449ZM0.858676 11.449L1.83926 11.6451C0.720026 17.2413 0.720683 22.9267 1.83861 28.4232L0.858676 28.6225C-0.286225 22.9934 -0.286225 17.1735 0.858676 11.449ZM0.858676 28.6225C1.81276 34.0608 6.01073 38.2588 11.449 39.2129L11.6218 38.2279C6.59823 37.3466 2.72496 33.4733 1.84363 28.4497L0.858676 28.6225Z" fill="url(#paint0_linear_1_5890)"/>
<path fill-rule="evenodd" clip-rule="evenodd" d="M26.8713 12.6365C27.3625 10.5079 29.2579 9 31.4424 9H32.4494C33.0017 9 33.4494 9.44772 33.4494 10C33.4494 10.5523 33.0017 11 32.4494 11H31.4424C30.1892 11 29.1019 11.865 28.8201 13.0861L27.2734 19.7893C27.1493 20.3274 26.6124 20.663 26.0742 20.5388C25.5361 20.4147 25.2005 19.8778 25.3247 19.3396L26.8713 12.6365Z" fill="#0033CC"/>
<path fill-rule="evenodd" clip-rule="evenodd" d="M26.8424 16.9942C27.3782 17.1282 27.704 17.6711 27.57 18.2069C27.1411 19.9226 26.8299 21.368 26.5675 22.587C26.5484 22.6759 26.5295 22.7635 26.5109 22.85C26.2405 24.1045 26.01 25.1554 25.7424 25.9726C25.3932 27.0394 24.5483 27.8425 23.4626 28.1344C22.4017 28.4196 20.6425 28.7072 17.8535 28.7072C15.1473 28.7072 12.9182 28.4364 11.4057 28.1778C9.76294 27.8969 8.30043 26.874 7.57403 25.3121C6.78859 23.6233 6 21.1748 6 17.9643C6 17.4121 6.44772 16.9643 7 16.9643C7.55228 16.9643 8 17.4121 8 17.9643C8 20.8338 8.70213 22.995 9.38751 24.4687C9.81372 25.3852 10.6914 26.0266 11.7428 26.2064C13.164 26.4494 15.2789 26.7072 17.8535 26.7072C20.51 26.7072 22.0887 26.4328 22.9433 26.203C23.3754 26.0869 23.7019 25.7773 23.8417 25.3504C24.0701 24.6528 24.2787 23.7143 24.5558 22.4286C24.5746 22.3415 24.5936 22.253 24.613 22.1631C24.8752 20.9449 25.1926 19.4705 25.6298 17.7218C25.7637 17.186 26.3066 16.8603 26.8424 16.9942Z" fill="#0033CC"/>
<path d="M10.9571 32.886C11.4858 32.886 11.9143 32.4574 11.9143 31.9288C11.9143 31.4002 11.4858 30.9717 10.9571 30.9717C10.4285 30.9717 10 31.4002 10 31.9288C10 32.4574 10.4285 32.886 10.9571 32.886Z" fill="#0033CC"/>
<path fill-rule="evenodd" clip-rule="evenodd" d="M10.9571 31.9717C10.9808 31.9717 11 31.9525 11 31.9288C11 31.9052 10.9808 31.886 10.9571 31.886C10.9335 31.886 10.9143 31.9052 10.9143 31.9288C10.9143 31.9525 10.9335 31.9717 10.9571 31.9717ZM9 31.9288C9 30.8479 9.87624 29.9717 10.9571 29.9717C12.038 29.9717 12.9143 30.8479 12.9143 31.9288C12.9143 33.0097 12.038 33.886 10.9571 33.886C9.87624 33.886 9 33.0097 9 31.9288Z" fill="#0033CC"/>
<path d="M23.4005 32.886C23.9291 32.886 24.3576 32.4574 24.3576 31.9288C24.3576 31.4002 23.9291 30.9717 23.4005 30.9717C22.8719 30.9717 22.4434 31.4002 22.4434 31.9288C22.4434 32.4574 22.8719 32.886 23.4005 32.886Z" fill="#0033CC"/>
<path fill-rule="evenodd" clip-rule="evenodd" d="M23.4005 31.9717C23.4242 31.9717 23.4434 31.9525 23.4434 31.9288C23.4434 31.9052 23.4242 31.886 23.4005 31.886C23.3768 31.886 23.3576 31.9052 23.3576 31.9288C23.3576 31.9525 23.3768 31.9717 23.4005 31.9717ZM21.4434 31.9288C21.4434 30.8479 22.3196 29.9717 23.4005 29.9717C24.4814 29.9717 25.3576 30.8479 25.3576 31.9288C25.3576 33.0097 24.4814 33.886 23.4005 33.886C22.3196 33.886 21.4434 33.0097 21.4434 31.9288Z" fill="#0033CC"/>
<path fill-rule="evenodd" clip-rule="evenodd" d="M16.2379 9C16.7902 9 17.2379 9.44772 17.2379 10V19.4259C17.8141 18.8737 18.3693 18.3022 18.7265 17.8662C19.0765 17.439 19.7066 17.3765 20.1338 17.7265C20.561 18.0765 20.6236 18.7066 20.2736 19.1338C19.4395 20.1517 17.8085 21.6728 16.8681 22.4361C16.5009 22.7343 15.9749 22.7343 15.6077 22.4361C14.6611 21.6678 13.057 20.1474 12.2265 19.1338C11.8765 18.7066 11.9391 18.0765 12.3663 17.7265C12.7935 17.3765 13.4235 17.439 13.7736 17.8662C14.1292 18.3003 14.6731 18.8665 15.2379 19.4141L15.2379 10C15.2379 9.44772 15.6856 9 16.2379 9Z" fill="#00CF6A"/>
</g>
<defs>
<linearGradient id="paint0_linear_1_5890" x1="-2.81746e-08" y1="8.19672" x2="40.9761" y2="9.50848" gradientUnits="userSpaceOnUse">
<stop stop-color="#F0F6FF"/>
<stop offset="0.635417" stop-color="#E8F0FD"/>
<stop offset="1" stop-color="#EEF4FE"/>
</linearGradient>
<clipPath id="clip0_1_5890">
<rect width="40" height="40" fill="white"/>
</clipPath>
</defs>
</svg>
