<svg width="40" height="40" viewBox="0 0 40 40" fill="none" xmlns="http://www.w3.org/2000/svg">
<g clip-path="url(#clip0_1_4174)">
<path d="M39.2129 11.449V11.449C40.2624 17.0781 40.2624 22.8026 39.2129 28.5271V28.5271C38.2588 33.9654 33.9654 38.2588 28.5271 39.2129V39.2129C22.898 40.2624 17.1735 40.2624 11.449 39.2129V39.2129C6.01073 38.2588 1.81276 34.0608 0.858676 28.6225V28.6225C-0.286225 22.9934 -0.286225 17.1735 0.858676 11.449V11.449C1.81276 6.01073 6.01073 1.81276 11.449 0.858676V0.858676C17.0781 -0.286225 22.898 -0.286225 28.6225 0.858676V0.858676C34.0608 1.81276 38.2588 6.01073 39.2129 11.449Z" fill="white"/>
<path fill-rule="evenodd" clip-rule="evenodd" d="M38.2293 28.3468C39.2571 22.7405 39.2565 17.1393 38.2298 11.6323L39.2129 11.449C40.2624 17.0781 40.2624 22.8026 39.2129 28.5271L38.2293 28.3468ZM28.5271 39.2129C33.9654 38.2588 38.2588 33.9654 39.2129 28.5271L38.2279 28.3543C37.3466 33.3779 33.3779 37.3466 28.3543 38.2279L28.5271 39.2129ZM11.449 39.2129C17.1735 40.2624 22.898 40.2624 28.5271 39.2129L28.3438 38.2298C22.8369 39.2565 17.2356 39.2571 11.6293 38.2293L11.449 39.2129ZM28.6225 0.858676L28.4497 1.84363C33.4733 2.72496 37.3466 6.59823 38.2279 11.6218L39.2129 11.449C38.2588 6.01073 34.0608 1.81276 28.6225 0.858676ZM11.449 0.858676C17.0781 -0.286225 22.898 -0.286225 28.6225 0.858676L28.4264 1.83926C22.8303 0.720026 17.1448 0.720683 11.6483 1.83861L11.449 0.858676ZM0.858676 11.449C1.81276 6.01073 6.01073 1.81276 11.449 0.858676L11.6218 1.84363C6.59823 2.72496 2.72496 6.59823 1.84363 11.6218L0.858676 11.449ZM0.858676 11.449L1.83926 11.6451C0.720026 17.2413 0.720683 22.9267 1.83861 28.4232L0.858676 28.6225C-0.286225 22.9934 -0.286225 17.1735 0.858676 11.449ZM0.858676 28.6225C1.81276 34.0608 6.01073 38.2588 11.449 39.2129L11.6218 38.2279C6.59823 37.3466 2.72496 33.4733 1.84363 28.4497L0.858676 28.6225Z" fill="#EEF4FE"/>
<path fill-rule="evenodd" clip-rule="evenodd" d="M18.0174 8.20007C12.5961 8.20007 8.20117 12.595 8.20117 18.0164C8.20117 23.4377 12.5961 27.8326 18.0174 27.8326C18.5697 27.8326 19.0174 28.2803 19.0174 28.8326C19.0174 29.3849 18.5697 29.8326 18.0174 29.8326C11.4915 29.8326 6.20117 24.5423 6.20117 18.0164C6.20117 11.4904 11.4915 6.20007 18.0174 6.20007C24.5434 6.20007 29.8337 11.4904 29.8337 18.0164C29.8337 18.5686 29.386 19.0164 28.8337 19.0164C28.2814 19.0164 27.8337 18.5686 27.8337 18.0164C27.8337 12.595 23.4388 8.20007 18.0174 8.20007Z" fill="#0033C9"/>
<path d="M10.9452 22.1765C11.7175 22.1765 12.4582 21.8696 13.0043 21.3235C13.5505 20.7774 13.8573 20.0367 13.8573 19.2644V16.7683C13.8573 15.996 14.1641 15.2553 14.7102 14.7092C15.2563 14.163 15.997 13.8562 16.7693 13.8562C17.5417 13.8562 18.2824 13.5494 18.8285 13.0033C19.3746 12.4572 19.6814 11.7165 19.6814 10.9442V7.32727C19.139 7.24353 18.5833 7.20007 18.0174 7.20007C12.0438 7.20007 7.20117 12.0427 7.20117 18.0163C7.20117 19.4905 7.49609 20.8958 8.03014 22.1765H10.9452Z" fill="white"/>
<path fill-rule="evenodd" clip-rule="evenodd" d="M6.20117 18.0163C6.20117 11.4904 11.4915 6.20007 18.0174 6.20007C18.6346 6.20007 19.2413 6.24747 19.834 6.33899C20.3216 6.41427 20.6814 6.83391 20.6814 7.32727V10.9442C20.6814 11.9817 20.2692 12.9768 19.5356 13.7104C18.8019 14.4441 17.8069 14.8562 16.7693 14.8562C16.2622 14.8562 15.7759 15.0577 15.4173 15.4163C15.0587 15.7749 14.8573 16.2612 14.8573 16.7683V19.2644C14.8573 20.3019 14.4451 21.297 13.7114 22.0306C12.9778 22.7643 11.9827 23.1765 10.9452 23.1765H8.03014C7.62654 23.1765 7.26251 22.9338 7.10717 22.5613C6.52317 21.1609 6.20117 19.625 6.20117 18.0163ZM18.0174 8.20007C12.5961 8.20007 8.20117 12.595 8.20117 18.0163C8.20117 19.1233 8.38402 20.1858 8.72063 21.1765H10.9452C11.4523 21.1765 11.9386 20.975 12.2972 20.6164C12.6558 20.2578 12.8573 19.7715 12.8573 19.2644V16.7683C12.8573 15.7308 13.2694 14.7357 14.0031 14.0021C14.7367 13.2684 15.7318 12.8562 16.7693 12.8562C17.2765 12.8562 17.7628 12.6548 18.1214 12.2962C18.48 11.9376 18.6814 11.4513 18.6814 10.9442V8.22214C18.4621 8.20751 18.2407 8.20007 18.0174 8.20007Z" fill="#0033C9"/>
<path fill-rule="evenodd" clip-rule="evenodd" d="M22.5937 18.1844C22.0866 18.1844 21.6003 18.3858 21.2417 18.7444C20.8831 19.103 20.6816 19.5893 20.6816 20.0964C20.6816 20.6035 20.8831 21.0899 21.2417 21.4485C21.6322 21.839 21.6322 22.4722 21.2417 22.8627C20.8511 23.2532 20.218 23.2532 19.8275 22.8627C19.0938 22.129 18.6816 21.134 18.6816 20.0964C18.6816 19.0589 19.0938 18.0638 19.8275 17.3302C20.5611 16.5965 21.5562 16.1844 22.5937 16.1844H26.1436C27.2402 16.1904 28.3197 16.4568 29.2932 16.9617C29.6199 17.1311 29.8271 17.4663 29.8327 17.8343C29.8333 17.8716 29.8336 17.9089 29.8339 17.9462L29.8339 17.952L29.8339 18.0807C29.8339 18.633 29.3862 19.0807 28.8339 19.0807C28.4476 19.0807 28.1125 18.8617 27.946 18.5412C27.3716 18.3097 26.7573 18.1881 26.1352 18.1844H22.5937Z" fill="#0033C9"/>
<path d="M24.9256 29.2975C25.0659 29.7072 25.4721 29.9692 25.9029 29.9255C26.9424 29.8203 28.0315 29.7301 29.1289 29.5195C30.2264 29.3089 31.2715 28.9895 32.2761 28.7024C32.6924 28.5835 32.9728 28.1897 32.9514 27.7573C32.913 26.9772 32.8816 26.164 32.7259 25.3529C32.5703 24.5417 32.2984 23.7747 32.0453 23.0358C31.9051 22.6262 31.4989 22.3642 31.0681 22.4078C30.0286 22.5131 28.9395 22.6032 27.842 22.8138C26.7445 23.0244 25.6995 23.3439 24.6948 23.6309C24.2785 23.7499 23.9982 24.1436 24.0195 24.5761C24.058 25.3562 24.0893 26.1693 24.245 26.9805C24.4007 27.7916 24.6726 28.5586 24.9256 29.2975Z" fill="white"/>
<path fill-rule="evenodd" clip-rule="evenodd" d="M25.0214 24.5777C25.0229 24.6068 25.0243 24.6357 25.0257 24.6646C25.0623 25.413 25.0961 26.1061 25.2277 26.792C25.3594 27.4778 25.5845 28.1342 25.8276 28.843C25.837 28.8703 25.8464 28.8977 25.8558 28.9252C25.9918 28.9115 26.1273 28.8982 26.2623 28.8849C27.166 28.7957 28.0495 28.7085 28.9411 28.5374C29.8327 28.3663 30.6857 28.1202 31.5582 27.8685C31.6886 27.8309 31.8194 27.7932 31.9508 27.7555C31.9494 27.7265 31.9479 27.6975 31.9465 27.6686C31.91 26.9202 31.8761 26.2271 31.7445 25.5413C31.6129 24.8555 31.3877 24.1991 31.1447 23.4903C31.1353 23.463 31.1259 23.4355 31.1164 23.408C30.9804 23.4217 30.845 23.4351 30.71 23.4484C29.8063 23.5376 28.9227 23.6248 28.0311 23.7959C27.1395 23.967 26.2865 24.2131 25.414 24.4648C25.2836 24.5024 25.1529 24.5401 25.0214 24.5777ZM24.8457 22.547C25.7146 22.2961 26.6652 22.0215 27.6542 21.8317C28.6432 21.6419 29.6279 21.5451 30.5279 21.4565C30.677 21.4419 30.8239 21.4274 30.968 21.4128C31.8641 21.3221 32.7021 21.8652 32.992 22.7118C33.0097 22.7633 33.0276 22.8155 33.0457 22.8682C33.2803 23.5511 33.5493 24.334 33.7087 25.1644C33.868 25.9947 33.908 26.8216 33.9428 27.5428C33.9455 27.5985 33.9482 27.6536 33.9509 27.708C33.995 28.6018 33.4175 29.4165 32.5515 29.6639C32.4122 29.7037 32.2705 29.7446 32.1265 29.7862C31.2576 30.0372 30.307 30.3118 29.3181 30.5016C28.3291 30.6914 27.3443 30.7882 26.4443 30.8767C26.2952 30.8914 26.1484 30.9058 26.0042 30.9204C25.1081 31.0112 24.2701 30.4681 23.9802 29.6215C23.9626 29.57 23.9446 29.5178 23.9265 29.4651C23.6919 28.7822 23.4229 27.9993 23.2636 27.1689C23.1042 26.3385 23.0643 25.5117 23.0294 24.7905C23.0267 24.7348 23.0241 24.6797 23.0214 24.6253C22.9773 23.7315 23.5547 22.9168 24.4207 22.6693C24.56 22.6296 24.7018 22.5886 24.8457 22.547Z" fill="#0033C9"/>
<path d="M22.2208 31.8086C22.2837 32.2364 22.6341 32.5685 23.0649 32.6055C24.0714 32.692 25.1218 32.8 26.202 32.8C27.2821 32.8 28.3325 32.692 29.339 32.6055C29.7698 32.5685 30.1202 32.2364 30.1831 31.8086C30.2876 31.0974 30.402 30.3583 30.402 29.6C30.402 28.8417 30.2876 28.1027 30.1831 27.3915C30.1202 26.9637 29.7698 26.6316 29.339 26.5945C28.3325 26.5081 27.2821 26.4 26.202 26.4C25.1218 26.4 24.0714 26.5081 23.0649 26.5945C22.6341 26.6316 22.2837 26.9637 22.2208 27.3915C22.1163 28.1027 22.002 28.8417 22.002 29.6C22.002 30.3583 22.1163 31.0974 22.2208 31.8086Z" fill="#00CF6A"/>
<path fill-rule="evenodd" clip-rule="evenodd" d="M22.8025 27.5864C22.8013 27.5947 22.8001 27.603 22.7988 27.6114C22.6958 28.3117 22.6016 28.9519 22.6016 29.6001C22.6016 30.2482 22.6958 30.8884 22.7988 31.5888C22.8001 31.5971 22.8013 31.6054 22.8025 31.6137C22.9277 31.6245 23.0524 31.6355 23.1768 31.6465C24.0569 31.7241 24.9179 31.8001 25.8016 31.8001C26.6852 31.8001 27.5462 31.7241 28.4264 31.6465C28.5507 31.6355 28.6754 31.6245 28.8006 31.6137C28.8018 31.6054 28.8031 31.5971 28.8043 31.5888C28.9074 30.8884 29.0016 30.2482 29.0016 29.6001C29.0016 28.9519 28.9074 28.3117 28.8043 27.6114C28.8031 27.603 28.8018 27.5947 28.8006 27.5864C28.6754 27.5756 28.5507 27.5646 28.4264 27.5536C27.5462 27.476 26.6852 27.4001 25.8016 27.4001C24.9179 27.4001 24.0569 27.476 23.1768 27.5536C23.0524 27.5646 22.9277 27.5756 22.8025 27.5864ZM22.9896 25.5622C23.8652 25.4848 24.8226 25.4001 25.8016 25.4001C26.7806 25.4001 27.738 25.4848 28.6135 25.5622C28.7526 25.5746 28.8895 25.5867 29.0242 25.5982C29.9205 25.6752 30.6422 26.3627 30.7721 27.2461C30.7777 27.2842 30.7834 27.3226 30.7891 27.3614C30.8876 28.0287 31.0016 28.801 31.0016 29.6001C31.0016 30.3991 30.8876 31.1714 30.7891 31.8387C30.7834 31.8775 30.7777 31.9159 30.7721 31.954C30.6422 32.8374 29.9205 33.5249 29.0242 33.6019C28.8895 33.6134 28.7526 33.6256 28.6135 33.6379C27.738 33.7153 26.7806 33.8001 25.8016 33.8001C24.8226 33.8001 23.8652 33.7153 22.9896 33.6379C22.8506 33.6256 22.7136 33.6134 22.5789 33.6019C21.6827 33.5249 20.9609 32.8374 20.831 31.954C20.8254 31.9159 20.8198 31.8775 20.814 31.8387C20.7156 31.1714 20.6016 30.3991 20.6016 29.6001C20.6016 28.801 20.7156 28.0287 20.814 27.3614C20.8198 27.3226 20.8254 27.2842 20.831 27.2461C20.9609 26.3627 21.6827 25.6752 22.5789 25.5982C22.7136 25.5867 22.8506 25.5746 22.9896 25.5622Z" fill="#0033C9"/>
</g>
<defs>
<clipPath id="clip0_1_4174">
<rect width="40" height="40" fill="white"/>
</clipPath>
</defs>
</svg>
