<svg width="36" height="36" viewBox="0 0 36 36" fill="none" xmlns="http://www.w3.org/2000/svg">
<path d="M24.5 28.5C25.0523 28.5 25.5 28.8358 25.5 29.25C25.5 29.6642 25.0523 30 24.5 30H11C10.4477 30 10 29.6642 10 29.25C10 28.8358 10.4477 28.5 11 28.5H24.5Z" fill="#0068FF"/>
<path fill-rule="evenodd" clip-rule="evenodd" d="M13.1465 11.7266C13.3358 11.7342 13.5034 11.8019 13.5947 11.8418C13.8089 11.9355 14.0673 12.0916 14.335 12.2705C14.885 12.6381 15.6121 13.1946 16.3818 13.8389C17.909 15.1172 19.7038 16.823 20.6689 18.1865C22.0462 20.1324 21.9614 22.1886 20.5791 23.167C19.1968 24.1452 17.2298 23.5415 15.8525 21.5957C14.8838 20.227 13.9811 18.1163 13.3389 16.3301C13.0143 15.4273 12.7483 14.5854 12.5674 13.9307C12.4773 13.6044 12.4061 13.3167 12.3594 13.0869C12.3361 12.9726 12.3174 12.8629 12.3057 12.7656C12.2964 12.6889 12.2815 12.5497 12.3027 12.4092C12.3331 12.2081 12.4457 11.9892 12.6689 11.8496C12.8597 11.7304 13.0483 11.7226 13.1465 11.7266ZM14.1406 13.9727C14.3005 14.5104 14.5079 15.1463 14.751 15.8223C15.385 17.5856 16.232 19.5354 17.0771 20.7295C18.2129 22.3341 19.299 22.2353 19.7129 21.9424C20.1267 21.6493 20.5806 20.658 19.4453 19.0537C18.5966 17.8546 16.9247 16.2497 15.4189 14.9893C14.958 14.6034 14.5218 14.2576 14.1406 13.9727Z" fill="#0068FF"/>
<path d="M18 3.75C27.1127 3.75 34.5 11.1373 34.5 20.25C34.5 20.6642 34.1642 21 33.75 21H25.875C25.4608 21 25.125 20.6642 25.125 20.25C25.125 19.8358 25.4608 19.5 25.875 19.5H32.9814C32.8425 16.6775 31.9228 14.0605 30.4346 11.8594C30.4282 11.8639 30.4226 11.8696 30.416 11.874L28.166 13.374C27.8214 13.6038 27.3558 13.5106 27.126 13.166C26.8962 12.8214 26.9893 12.3557 27.334 12.126L29.5332 10.6592C26.931 7.53334 23.0823 5.48189 18.75 5.26855V8.25C18.75 8.66421 18.4142 9 18 9C17.5858 9 17.25 8.66421 17.25 8.25V5.26855C12.9175 5.4819 9.06808 7.53307 6.46582 10.6592L8.66602 12.126C9.01066 12.3557 9.10379 12.8214 8.87402 13.166C8.64424 13.5106 8.1786 13.6038 7.83398 13.374L5.58398 11.874C5.57719 11.8695 5.57105 11.8641 5.56445 11.8594C4.07644 14.0604 3.15753 16.6776 3.01855 19.5H10.125C10.5392 19.5 10.875 19.8358 10.875 20.25C10.875 20.6642 10.5392 21 10.125 21H2.25C1.83578 21 1.5 20.6642 1.5 20.25C1.5 11.1373 8.8873 3.75 18 3.75Z" fill="#0068FF"/>
</svg>
