<svg width="48" height="48" viewBox="0 0 48 48" fill="none" xmlns="http://www.w3.org/2000/svg">
<path d="M11.507 9.38965C16.7048 8.57752 22.8935 8.22419 28.5773 8.67578C29.1278 8.71959 29.539 9.20144 29.4953 9.75195C29.4515 10.3023 28.9695 10.7135 28.4191 10.6699C22.9117 10.2323 16.8807 10.5738 11.8156 11.3652C11.1783 11.4648 10.6811 11.9891 10.6125 12.6553C9.80536 20.4939 9.42207 28.7061 10.547 37.0586C10.6311 37.683 11.1158 38.1773 11.7414 38.2744C20.2964 39.6025 28.3587 39.4094 36.2931 38.249C36.9164 38.1578 37.402 37.6794 37.5002 37.0703C38.3055 32.0749 38.5635 26.6386 38.2384 21.4072C38.2042 20.8562 38.623 20.3812 39.174 20.3467C39.7252 20.3124 40.2003 20.732 40.2345 21.2832C40.5685 26.6578 40.3044 32.2426 39.4748 37.3887C39.2355 38.8726 38.0566 40.0119 36.5822 40.2275C28.481 41.4123 20.2157 41.6142 11.4347 40.251C9.93684 40.0184 8.76744 38.8314 8.56462 37.3262C7.40927 28.7485 7.80899 20.3577 8.62321 12.4502C8.78233 10.9051 9.948 9.63324 11.507 9.38965ZM24.5177 16.1279C25.0698 16.1281 25.5177 16.5758 25.5177 17.1279V18.2119C26.2634 18.3498 26.8843 18.6435 27.3556 18.9414C27.7227 19.1734 28.0082 19.4131 28.2043 19.5977C28.3026 19.6902 28.3805 19.7702 28.4357 19.8301C28.4632 19.8598 28.4855 19.8851 28.5021 19.9043L28.5236 19.9297L28.5304 19.9385L28.5353 19.9434L27.7853 20.5596L28.5363 19.9443C28.8861 20.3715 28.8227 21.0016 28.3957 21.3516C27.9702 21.6999 27.3441 21.6392 26.9933 21.2168C26.9929 21.2163 26.9921 21.2157 26.9914 21.2148C26.9875 21.2103 26.9789 21.2006 26.966 21.1865C26.9396 21.1579 26.895 21.111 26.8341 21.0537C26.7115 20.9383 26.5259 20.7827 26.2873 20.6318C25.8092 20.3297 25.1505 20.0679 24.3459 20.1436C22.6706 20.3013 22.0344 21.3474 22.0343 22.2783C22.0344 22.679 22.1129 22.928 22.2013 23.0898C22.2885 23.2492 22.4175 23.3832 22.6134 23.5049C23.0599 23.7821 23.7021 23.9226 24.5978 24.1045C24.6182 24.1086 24.6396 24.112 24.6603 24.1162C25.445 24.2753 26.4547 24.4807 27.2521 24.9932C27.6875 25.273 28.0799 25.6542 28.3566 26.1758C28.6315 26.6941 28.7628 27.2947 28.7629 27.9717C28.7628 28.8852 28.3086 29.6576 27.7023 30.2188C27.1172 30.7602 26.3471 31.1494 25.5177 31.3623V32.5322C25.5177 33.0844 25.0699 33.5321 24.5177 33.5322C23.9655 33.5322 23.5178 33.0845 23.5177 32.5322V31.5283C22.2736 31.4245 20.9887 30.9294 19.9338 29.875C19.5432 29.4846 19.5434 28.8516 19.9338 28.4609C20.3242 28.0705 20.9573 28.0696 21.3478 28.46C22.3891 29.5006 23.7934 29.7236 24.965 29.4414C25.5507 29.3002 26.0294 29.0419 26.3439 28.751C26.6571 28.4611 26.7628 28.1874 26.7629 27.9717C26.7628 27.5538 26.6828 27.2883 26.59 27.1133C26.499 26.9417 26.3659 26.8011 26.1711 26.6758C25.7285 26.3914 25.0881 26.2449 24.1994 26.0645C24.1651 26.0575 24.1301 26.0501 24.0949 26.043C23.3231 25.8869 22.3378 25.6877 21.5588 25.2041C21.124 24.9341 20.7273 24.5633 20.4465 24.0498C20.1671 23.5387 20.0344 22.9455 20.0343 22.2783C20.0344 20.446 21.2595 18.7177 23.5177 18.249V17.1279C23.5178 16.5757 23.9655 16.1279 24.5177 16.1279ZM34.0841 6.00684C34.6364 6.00692 35.0841 6.45461 35.0841 7.00684V15.0752L36.3068 14.0977C36.7379 13.7529 37.3671 13.823 37.7121 14.2539C38.0571 14.6852 37.9871 15.3151 37.5558 15.6602L34.7443 17.9092C34.7381 17.9142 34.7311 17.9181 34.7248 17.9229C34.705 17.9379 34.6849 17.9524 34.6642 17.9658C34.6601 17.9685 34.6557 17.971 34.6515 17.9736C34.6008 18.0055 34.5481 18.0327 34.4933 18.0547C34.4807 18.0598 34.468 18.0648 34.4552 18.0693C34.4387 18.0752 34.4222 18.081 34.4054 18.0859C34.3861 18.0917 34.3664 18.096 34.3468 18.1006C34.3364 18.103 34.3261 18.1053 34.3156 18.1074C34.2971 18.1111 34.2785 18.1136 34.2599 18.1162C34.2456 18.1182 34.2314 18.1207 34.217 18.1221C34.1994 18.1238 34.1818 18.1252 34.1642 18.126C34.1493 18.1266 34.1343 18.127 34.1193 18.127C34.105 18.1269 34.0907 18.1266 34.0763 18.126C34.0577 18.1252 34.0392 18.1239 34.0207 18.1221C34.0082 18.1208 33.9959 18.1189 33.9836 18.1172C33.9627 18.1143 33.9418 18.1116 33.9211 18.1074C33.9125 18.1057 33.9041 18.1035 33.8957 18.1016C33.8761 18.0971 33.8565 18.0926 33.8371 18.0869C33.8172 18.0811 33.798 18.0735 33.7785 18.0664C33.7678 18.0625 33.7569 18.059 33.7463 18.0547C33.7248 18.046 33.7037 18.0365 33.6828 18.0264C33.677 18.0236 33.6709 18.0215 33.6652 18.0186L33.6437 18.0078C33.6267 17.9986 33.6105 17.9878 33.5939 17.9775C33.5871 17.9733 33.5802 17.9693 33.5734 17.9648C33.5531 17.9516 33.5332 17.9377 33.5138 17.9229C33.5077 17.9182 33.5013 17.914 33.4953 17.9092L30.6838 15.6602C30.2525 15.3151 30.1825 14.6852 30.5275 14.2539C30.8725 13.8227 31.5025 13.7527 31.9338 14.0977L33.0841 15.0186V7.00684C33.0842 6.45455 33.5319 6.00684 34.0841 6.00684Z" fill="#001F3E"/>
</svg>
