<svg width="48" height="48" viewBox="0 0 48 48" fill="none" xmlns="http://www.w3.org/2000/svg">
<path fill-rule="evenodd" clip-rule="evenodd" d="M24.4639 8.51809C24.0935 8.36246 23.6767 8.36246 23.3063 8.51809C18.0396 10.7309 12.9251 13.7815 9.32221 17.6358C9.2764 17.6848 9.2687 17.7185 9.26652 17.7342C9.26364 17.7549 9.26603 17.7839 9.28211 17.8178C9.31287 17.8826 9.38561 17.9504 9.52348 17.9504H38.2467C38.3845 17.9504 38.4573 17.8826 38.4881 17.8178C38.5041 17.7839 38.5065 17.7549 38.5036 17.7342C38.5015 17.7185 38.4938 17.6848 38.448 17.6358C34.8451 13.7815 29.7306 10.7309 24.4639 8.51809ZM22.5316 6.67422C23.3975 6.31042 24.3727 6.31042 25.2386 6.67422C30.6518 8.94859 36.0444 12.1358 39.909 16.27C41.3169 17.7761 40.0846 19.9504 38.2467 19.9504H9.52348C7.68554 19.9504 6.45328 17.7761 7.86115 16.27C11.7258 12.1358 17.1183 8.94859 22.5316 6.67422Z" fill="#001F3E"/>
<path fill-rule="evenodd" clip-rule="evenodd" d="M10.7484 34.192C10.0968 34.9553 9.65241 36.0715 9.41649 37.4135C9.29652 38.096 9.87438 38.8399 10.8296 38.8399H36.9416C37.8968 38.8399 38.4747 38.096 38.3547 37.4135C38.1188 36.0715 37.6743 34.9553 37.0227 34.192C36.4009 33.4636 35.552 33.0063 34.3304 33.0063H13.4408C12.2191 33.0063 11.3702 33.4636 10.7484 34.192ZM9.22733 32.8934C10.2246 31.7252 11.627 31.0063 13.4408 31.0063H34.3304C36.1442 31.0063 37.5466 31.7252 38.5438 32.8934C39.5113 34.0267 40.0538 35.5275 40.3245 37.0672C40.7039 39.2255 38.8706 40.8399 36.9416 40.8399H10.8296C8.90054 40.8399 7.06729 39.2255 7.4467 37.0672C7.71738 35.5275 8.25985 34.0267 9.22733 32.8934Z" fill="#001F3E"/>
<path fill-rule="evenodd" clip-rule="evenodd" d="M13.4395 22.52C13.9917 22.52 14.4395 22.9677 14.4395 23.52V32.0064C14.4395 32.5587 13.9917 33.0064 13.4395 33.0064C12.8872 33.0064 12.4395 32.5587 12.4395 32.0064V23.52C12.4395 22.9677 12.8872 22.52 13.4395 22.52Z" fill="#001F3E"/>
<path fill-rule="evenodd" clip-rule="evenodd" d="M23.8848 22.52C24.4371 22.52 24.8848 22.9677 24.8848 23.52V32.0064C24.8848 32.5587 24.4371 33.0064 23.8848 33.0064C23.3325 33.0064 22.8848 32.5587 22.8848 32.0064V23.52C22.8848 22.9677 23.3325 22.52 23.8848 22.52Z" fill="#001F3E"/>
<path fill-rule="evenodd" clip-rule="evenodd" d="M34.33 22.52C34.8823 22.52 35.33 22.9677 35.33 23.52V32.0064C35.33 32.5587 34.8823 33.0064 34.33 33.0064C33.7777 33.0064 33.33 32.5587 33.33 32.0064V23.52C33.33 22.9677 33.7777 22.52 34.33 22.52Z" fill="#001F3E"/>
</svg>
