<svg width="48" height="48" viewBox="0 0 48 48" fill="none" xmlns="http://www.w3.org/2000/svg">
<path d="M3.66651 28.1865C3.21723 27.8181 2.55432 27.8836 2.18585 28.3329C1.81738 28.7821 1.8829 29.4451 2.33217 29.8135L6.52626 33.2532C6.70966 33.4036 6.92865 33.4817 7.14868 33.4909C7.48502 33.5053 7.82238 33.3584 8.03857 33.068L11.344 28.6283C11.691 28.1623 11.5945 27.5031 11.1284 27.1562C10.6623 26.8092 10.0032 26.9057 9.65623 27.3718L7.7904 29.8779L7.70597 29.5606C7.70323 29.5503 7.70034 29.54 7.69729 29.5298C7.17548 27.7838 6.83655 25.8655 6.83655 23.75C6.83655 14.2521 14.5297 6.559 24.0276 6.559C33.5255 6.559 41.2186 14.2521 41.2186 23.75C41.2186 33.248 33.5255 40.9411 24.0276 40.9411C20.4977 40.9411 17.2066 39.8707 14.4691 38.0457C13.9856 37.7234 13.3324 37.854 13.0101 38.3375C12.6878 38.821 12.8185 39.4742 13.3019 39.7965C16.3719 41.8431 20.0667 43.0453 24.0276 43.0452C34.6876 43.0452 43.3228 34.41 43.3228 23.75C43.3228 13.09 34.6876 4.45483 24.0276 4.45483C13.3676 4.45483 4.73238 13.09 4.73238 23.75C4.73238 25.9394 5.06044 27.9338 5.56965 29.7474L3.66651 28.1865Z" fill="#001F3E"/>
<path d="M24.4069 15.3334C24.4069 14.7524 23.9358 14.2813 23.3548 14.2813C22.7737 14.2813 22.3027 14.7524 22.3027 15.3334V23.2069C22.3027 23.9929 22.5192 24.815 22.8436 25.5209C23.1632 26.2165 23.6379 26.9084 24.246 27.3563L24.2476 27.3574L29.0411 30.908C29.508 31.2539 30.1669 31.1557 30.5127 30.6888C30.8585 30.2219 30.7604 29.563 30.2935 29.2172L25.4972 25.6645L25.4944 25.6624C25.2678 25.4957 24.985 25.1416 24.7556 24.6424C24.5307 24.1529 24.4069 23.6307 24.4069 23.2069V15.3334Z" fill="#001F3E"/>
</svg>
