<svg width="48" height="48" viewBox="0 0 48 48" fill="none" xmlns="http://www.w3.org/2000/svg">
<path d="M22.0898 5.225C23.316 4.66965 24.7214 4.70874 25.915 5.30996C27.2345 5.97464 28.4588 6.6729 29.624 7.3373C30.1884 7.6591 30.7394 7.97343 31.2803 8.27187C32.9628 9.20023 34.6291 10.0249 36.5732 10.6449C38.4128 11.2315 39.8789 12.8916 39.8789 14.9594V24.8109C39.8789 30.8008 37.3778 35.0022 34.2217 37.8686C31.0931 40.7098 27.3393 42.2279 24.7744 42.9613C24.5947 43.0127 24.4033 43.0127 24.2236 42.9613C21.6762 42.2329 17.6819 40.7226 14.3066 37.8949C10.9042 35.0445 8.11916 30.8385 8.11914 24.8109V14.8568C8.11914 12.8541 9.49948 11.2181 11.2734 10.5951C13.2203 9.9114 14.8905 9.0437 16.5986 8.10293C16.8916 7.94155 17.1865 7.7774 17.4844 7.61172C18.9102 6.81874 20.4052 5.988 22.0898 5.225ZM25.0156 7.09609C24.3535 6.76255 23.5817 6.74442 22.915 7.04629C21.3123 7.77222 19.9006 8.55682 18.4775 9.34805C18.174 9.51679 17.8701 9.68603 17.5635 9.85488C15.8319 10.8085 14.0438 11.7415 11.9355 12.4818C10.8442 12.8652 10.1191 13.8226 10.1191 14.8568V24.8109C10.1192 30.1292 12.5436 33.8087 15.5908 36.3617C18.5504 38.8411 22.0859 40.2418 24.498 40.9584C26.8762 40.2467 30.1618 38.8539 32.877 36.3881C35.6707 33.8509 37.8789 30.1669 37.8789 24.8109V14.9594C37.8789 13.8951 37.1102 12.9161 35.9658 12.5512C33.8426 11.8741 32.0461 10.9789 30.3135 10.0229C29.723 9.69706 29.1482 9.36897 28.5723 9.04043C27.4337 8.39099 26.2912 7.73864 25.0156 7.09609ZM23.3027 22.8031C23.5909 22.523 24.0194 22.4426 24.3896 22.599C24.7596 22.7555 25 23.1182 25 23.5199V30.2396C25 30.7919 24.5523 31.2396 24 31.2396C23.4477 31.2396 23 30.7919 23 30.2396V25.8178C22.9991 25.8182 22.998 25.8193 22.9971 25.8197C22.5004 26.061 21.9016 25.8535 21.6602 25.3568C21.4191 24.8602 21.6265 24.2623 22.123 24.0209C22.2209 23.9733 22.3973 23.8259 22.6445 23.5512C22.7435 23.4412 22.8363 23.331 22.9307 23.2191C22.9439 23.2035 22.9574 23.188 22.9707 23.1723C23.0655 23.06 23.1886 22.9141 23.3027 22.8031ZM24 18.0004C24.8284 18.0004 25.5 18.672 25.5 19.5004C25.4998 20.3286 24.8283 21.0004 24 21.0004C23.1717 21.0004 22.5002 20.3286 22.5 19.5004C22.5 18.672 23.1716 18.0004 24 18.0004Z" fill="#001F3E"/>
</svg>
