<svg width="48" height="48" viewBox="0 0 48 48" fill="none" xmlns="http://www.w3.org/2000/svg">
<path fill-rule="evenodd" clip-rule="evenodd" d="M23 7.02892C14.0766 7.54654 7 14.9469 7 24C7 33.3888 14.6112 41 24 41C29.5531 41 34.4849 38.3382 37.5886 34.217L23.4471 24.8332C23.1679 24.648 23 24.3351 23 24V7.02892ZM38.696 32.5515C40.1608 30.04 41 27.1192 41 24C41 17.1406 36.9374 11.228 31.0829 8.54097C30.5809 8.3106 30.3608 7.71694 30.5912 7.215C30.8215 6.71305 31.4152 6.49291 31.9171 6.72328C38.4557 9.72428 43 16.3304 43 24C43 27.8832 41.834 31.4972 39.8327 34.5071C36.4305 39.6241 30.6097 43 24 43C13.5066 43 5 34.4934 5 24C5 13.5066 13.5066 5 24 5C24.5523 5 25 5.44772 25 6V23.4634L38.696 32.5515Z" fill="#001F3E"/>
</svg>
