<svg width="48" height="48" viewBox="0 0 48 48" fill="none" xmlns="http://www.w3.org/2000/svg">
<path d="M31.5947 8.12012C33.2549 8.12012 34.6006 9.46582 34.6006 11.126V13.4873C37.8678 13.9901 40.5249 16.6385 40.7158 20.082C40.7992 21.5872 40.8418 23.162 40.8418 25.083C40.8418 27.5524 40.7706 30.1345 40.6348 32.6279C40.4389 36.2237 37.5635 39.0204 34.04 39.3623C31.2556 39.6325 28.3516 39.8799 25.376 39.8799C21.9177 39.8799 18.5427 39.5449 15.3418 39.2275C14.8785 39.1816 14.4186 39.1359 13.9629 39.0918C13.4133 39.0384 13.0112 38.5496 13.0645 38C13.1179 37.4505 13.6067 37.0483 14.1562 37.1016C14.6182 37.1463 15.0814 37.1923 15.5459 37.2383C18.7542 37.5561 22.0241 37.8799 25.376 37.8799C28.2488 37.8799 31.072 37.6414 33.8477 37.3721C36.4488 37.1195 38.4988 35.068 38.6377 32.5195C38.7716 30.0618 38.8418 27.5158 38.8418 25.083C38.8418 23.1934 38.7998 21.6556 38.7188 20.1924C38.5689 17.4935 36.2496 15.3994 33.4717 15.3994H11.5215C11.4385 15.3994 11.3583 15.3882 11.2812 15.3691C11.2042 15.3882 11.124 15.3994 11.041 15.3994C10.4887 15.3994 10.041 14.9517 10.041 14.3994V13.3711C10.0411 10.471 12.392 8.12029 15.292 8.12012H31.5947ZM13.7627 19.0068C17.9172 19.0069 21.2852 22.3748 21.2852 26.5293C21.2849 30.6836 17.917 34.0507 13.7627 34.0508C9.60834 34.0508 6.24047 30.6836 6.24023 26.5293C6.24023 22.3748 9.6082 19.0068 13.7627 19.0068ZM13.7627 21.0068C10.7128 21.0068 8.24023 23.4794 8.24023 26.5293C8.24047 29.579 10.7129 32.0508 13.7627 32.0508C16.8124 32.0507 19.2849 29.579 19.2852 26.5293C19.2852 23.4794 16.8126 21.0069 13.7627 21.0068ZM34.5605 23.04C35.3557 23.04 36.0008 23.6844 36.001 24.4795V28.7998C36.001 29.5951 35.3558 30.2402 34.5605 30.2402C33.7655 30.24 33.1211 29.5949 33.1211 28.7998V24.4795C33.1213 23.6845 33.7656 23.0403 34.5605 23.04ZM13.7949 23.0439C14.347 23.0441 14.7948 23.4918 14.7949 24.0439V25.5605H16.2695C16.8217 25.5605 17.2693 26.0084 17.2695 26.5605C17.2695 27.1128 16.8218 27.5605 16.2695 27.5605H14.7949V29.0361C14.7949 29.5883 14.3471 30.036 13.7949 30.0361C13.2426 30.0361 12.7949 29.5884 12.7949 29.0361V27.5605H11.2549C10.7026 27.5605 10.2549 27.1128 10.2549 26.5605C10.2551 26.0084 10.7027 25.5605 11.2549 25.5605H12.7949V24.0439C12.795 23.4918 13.2427 23.0439 13.7949 23.0439ZM15.292 10.1201C13.4965 10.1203 12.0411 11.5756 12.041 13.3711V13.3994H32.6006V11.126C32.6006 10.5704 32.1503 10.1201 31.5947 10.1201H15.292Z" fill="#001F3E"/>
</svg>
