<svg width="48" height="48" viewBox="0 0 48 48" fill="none" xmlns="http://www.w3.org/2000/svg">
<path fill-rule="evenodd" clip-rule="evenodd" d="M35.3402 31.4C35.6812 31.0188 37.2798 30.0026 37.6634 30.2779C38.0442 30.5518 37.6686 32.3702 37.6634 32.3951C38.5918 33.0886 39.0925 34.2112 38.9847 35.3599C38.7902 37.0118 37.3756 38.2527 35.7025 38.2408H32.847C31.1699 38.3017 29.716 37.0955 29.4789 35.4449C29.3724 34.2961 29.8718 33.1736 30.8002 32.4801C30.7981 32.4674 30.5028 30.6363 30.8002 30.3619C31.0986 30.0867 32.7824 31.1038 33.1234 31.4849C33.503 31.4214 33.8898 31.3934 34.2748 31.4C34.629 31.3709 34.9859 31.3709 35.3402 31.4ZM36.0707 33.9908C35.4845 33.9908 35.0092 34.4592 35.0052 35.0416L35.0062 35.0689L35.0033 35.0875L35.0062 35.1627C35.0613 35.699 35.5174 36.1176 36.0716 36.1178C36.6618 36.1178 37.142 35.641 37.142 35.0533C37.1419 34.467 36.6621 33.9908 36.0707 33.9908ZM32.6185 33.9918C32.0286 33.992 31.5502 34.4671 31.5502 35.0533C31.5502 35.6396 32.0286 36.1156 32.6185 36.1158C33.2086 36.1158 33.6888 35.641 33.6888 35.0533C33.6888 34.4671 33.2104 33.9909 32.6205 33.9908L32.6185 33.9918Z" fill="#001F3E"/>
<path fill-rule="evenodd" clip-rule="evenodd" d="M32.8832 25.2545C35.224 24.9373 37.5955 25.5629 39.475 26.9937C41.3543 28.4246 42.5884 30.5437 42.9056 32.8844C43.2228 35.225 42.5971 37.5958 41.1664 39.4752C39.7355 41.3546 37.6165 42.5886 35.2757 42.9058C32.9349 43.2231 30.5635 42.5975 28.6839 41.1666C26.8047 39.7357 25.5705 37.6166 25.2533 35.276C24.9362 32.9354 25.5618 30.5645 26.9925 28.6851C28.4234 26.8057 30.5425 25.5718 32.8832 25.2545ZM38.2631 28.5846C36.8056 27.4751 34.9668 26.9899 33.1517 27.2359C31.3368 27.4819 29.6939 28.4389 28.5843 29.8961C27.4748 31.3535 26.9898 33.1923 27.2357 35.0074C27.4817 36.8226 28.4384 38.4662 29.8959 39.5758C31.3533 40.6853 33.1921 41.1704 35.0072 40.9244C36.8221 40.6784 38.465 39.7214 39.5746 38.2642C40.6841 36.8068 41.1691 34.968 40.9232 33.1529C40.6772 31.3377 39.7205 29.6941 38.2631 28.5846Z" fill="#001F3E"/>
<path fill-rule="evenodd" clip-rule="evenodd" d="M27.3871 5.00252C28.9282 5.04834 30.5156 5.78364 31.3939 7.27303C32.4464 9.05829 31.9854 11.1295 30.5619 12.4273C33.6238 12.8366 35.8201 15.3757 36.0443 18.4049C36.0929 19.0615 36.1376 19.718 36.1791 20.3502C36.2916 22.0701 34.9224 23.5142 33.2084 23.5142H21.5355V37.7603C21.5355 37.8282 21.5279 37.8946 21.515 37.9586C21.5282 38.0235 21.5345 38.0909 21.5345 38.1598C21.5344 38.7119 21.0867 39.1598 20.5345 39.1598C20.3691 39.1597 20.2046 39.1574 20.0414 39.1568C20.0272 39.1574 20.0127 39.1597 19.9984 39.1598H18.3627C18.2894 39.1597 18.2175 39.1513 18.1488 39.1363C15.9896 39.0927 14.0321 38.9866 12.2328 38.8101C9.06148 38.4989 6.68126 35.9339 6.39781 32.817C6.18765 30.505 6.06287 28.1337 6.06285 25.692C6.06285 24.7671 6.07982 23.852 6.11364 22.9469C5.31924 22.3704 4.82143 21.4134 4.89098 20.3502C4.9324 19.718 4.97816 19.0614 5.02672 18.4049C5.24278 15.4855 7.29006 13.0203 10.1791 12.4791C8.66968 11.1897 8.14646 9.08667 9.26891 7.25838C10.1834 5.76938 11.8236 5.04761 13.3998 5.00252C14.9765 4.95752 16.6586 5.58372 17.6781 7.00643L20.5179 10.9693L23.2338 7.02206C24.2146 5.59605 25.8458 4.95685 27.3871 5.00252ZM8.09899 23.5142C8.07691 24.2343 8.06285 24.9603 8.06285 25.692C8.06287 28.065 8.18451 30.3756 8.39 32.6363C8.5919 34.854 10.2684 36.608 12.4281 36.8199C14.5274 37.0257 16.8685 37.1335 19.5355 37.1549V23.5142H8.09899ZM19.5355 13.9576C16.5596 13.9832 13.5278 14.124 10.9086 14.3931C8.78635 14.6114 7.18417 16.3465 7.02086 18.5523C6.97279 19.2023 6.9282 19.8534 6.88707 20.481C6.85083 21.0377 7.29437 21.5139 7.86168 21.5142H19.5355V13.9576ZM21.5355 21.5142H33.2084C33.7759 21.5142 34.2192 21.0379 34.183 20.481C34.1418 19.8533 34.0973 19.2023 34.0492 18.5523C33.8859 16.3466 32.2846 14.6115 30.1625 14.3931C27.5432 14.124 24.5114 13.9832 21.5355 13.9576V21.5142ZM13.4574 7.00155C12.4072 7.03159 11.463 7.5066 10.973 8.30428C10.3224 9.364 10.7343 10.7933 12.2406 11.4254L13.6849 12.0308C13.7591 12.062 13.8268 12.1025 13.889 12.148C15.4766 12.0514 17.1297 11.9919 18.7728 11.9674L16.0531 8.17147C15.495 7.39253 14.507 6.97172 13.4574 7.00155ZM27.3275 7.00155C26.3476 6.97261 25.4156 7.38033 24.8822 8.15584L22.2591 11.9664C23.8227 11.9892 25.3959 12.0434 26.9134 12.1314C26.9656 12.0953 27.0221 12.0631 27.0824 12.0367L28.4691 11.4312C29.8811 10.814 30.3142 9.38065 29.6713 8.28963C29.2012 7.49231 28.3078 7.03069 27.3275 7.00155Z" fill="#001F3E"/>
</svg>
