<svg width="48" height="48" viewBox="0 0 48 48" fill="none" xmlns="http://www.w3.org/2000/svg">
<path d="M8.39777 23.7204C8.66679 23.6622 8.94814 23.717 9.17512 23.8727L11.5042 25.4713C11.8326 25.6966 11.996 26.095 11.9202 26.486C11.8444 26.8769 11.5443 27.1858 11.1556 27.2721L10.0941 27.5065C11.5903 33.4153 16.7959 37.9186 23.2015 38.2409C29.5851 38.562 35.2017 34.6322 37.3001 28.9323C37.4909 28.414 38.066 28.1487 38.5843 28.3395C39.1021 28.5305 39.3676 29.1047 39.1771 29.6227C36.785 36.1205 30.3833 40.6043 23.1009 40.2379C15.7752 39.8693 9.82697 34.7071 8.13996 27.9401L7.35383 28.1149C6.96331 28.2015 6.55796 28.0472 6.32453 27.7223C6.09115 27.3975 6.07401 26.9642 6.28059 26.6217L7.75324 24.1813C7.89547 23.9456 8.12869 23.7787 8.39777 23.7204Z" fill="#001F3E"/>
<path d="M24.2366 14.361C24.7888 14.3612 25.2366 14.8088 25.2366 15.361V16.6608C26.0896 16.8034 26.7984 17.1348 27.3323 17.4723C27.7333 17.7258 28.0452 17.9878 28.2591 18.1891C28.3664 18.2901 28.4513 18.3772 28.5111 18.442C28.5407 18.4742 28.5646 18.5016 28.5823 18.5221L28.6048 18.5485L28.6126 18.5573L28.6155 18.5612L28.6165 18.5631C28.6127 18.5669 28.5589 18.6124 27.8441 19.1979L28.6175 18.5641C28.9671 18.9913 28.9049 19.6215 28.4779 19.9713C28.0523 20.3198 27.4253 20.2591 27.0745 19.8366C27.0745 19.8366 27.0729 19.8342 27.0716 19.8327C27.0665 19.8268 27.0556 19.815 27.0404 19.7985C27.0094 19.7649 26.9587 19.7108 26.889 19.6452C26.7485 19.5129 26.5365 19.335 26.264 19.1628C25.718 18.8177 24.9609 18.5161 24.0345 18.6032C22.1155 18.7837 21.3626 19.9932 21.3626 21.0885C21.3626 21.5492 21.4518 21.846 21.5609 22.0456C21.6686 22.2425 21.8278 22.404 22.0589 22.5475C22.5761 22.8686 23.3123 23.0282 24.3021 23.2292C24.3225 23.2333 24.3439 23.2377 24.3646 23.2419C25.2423 23.4199 26.3474 23.6435 27.2161 24.2018C27.6869 24.5044 28.1092 24.9148 28.4066 25.4753C28.7021 26.0324 28.8441 26.6822 28.8441 27.4206C28.8439 28.3973 28.3593 29.2288 27.7015 29.8376C27.0469 30.4432 26.1759 30.8773 25.2366 31.1051V32.4919C25.2365 33.0439 24.7887 33.4916 24.2366 33.4919C23.6844 33.4919 23.2367 33.044 23.2366 32.4919V31.2721C21.8445 31.1781 20.3986 30.6384 19.2171 29.4577C18.8265 29.0673 18.8267 28.4342 19.2171 28.0436C19.6075 27.6531 20.2406 27.6523 20.6312 28.0426C21.8215 29.2321 23.4252 29.485 24.7591 29.1637C25.426 29.003 25.977 28.7084 26.3431 28.3698C26.7078 28.0322 26.8439 27.6995 26.8441 27.4206C26.8441 26.9411 26.7524 26.6267 26.639 26.4128C26.5273 26.2024 26.3652 26.0325 26.1351 25.8844C25.6219 25.5547 24.8874 25.3887 23.9046 25.1891C23.8682 25.1817 23.8306 25.1742 23.7933 25.1667C22.9302 24.9921 21.852 24.7737 21.0032 24.2467C20.5333 23.9548 20.1073 23.5556 19.806 23.0045C19.5061 22.4558 19.3626 21.8155 19.3626 21.0885C19.3626 19.0818 20.7174 17.1819 23.2366 16.6989V15.361C23.2366 14.8087 23.6844 14.361 24.2366 14.361Z" fill="#001F3E"/>
<path d="M24.7347 7.76334C32.2673 8.14226 38.3424 13.5898 39.8275 20.6383L40.7376 20.5251C41.139 20.4749 41.5308 20.6715 41.7308 21.0231C41.9307 21.3747 41.899 21.8123 41.6507 22.1315L39.7777 24.5407C39.4386 24.9766 38.8103 25.0544 38.3743 24.7155L35.9652 22.8424C35.646 22.5942 35.5075 22.1777 35.6146 21.7878C35.7218 21.3978 36.0532 21.1105 36.4544 21.0602L37.8323 20.8874C36.4711 14.7868 31.1805 10.0907 24.6341 9.76138C18.1172 9.4336 12.4005 13.5356 10.4095 19.4284C10.2327 19.9516 9.66512 20.2321 9.14192 20.0553C8.61887 19.8786 8.33759 19.3118 8.51399 18.7887C10.7838 12.0704 17.3005 7.38937 24.7347 7.76334Z" fill="#001F3E"/>
</svg>
