<svg width="48" height="48" viewBox="0 0 48 48" fill="none" xmlns="http://www.w3.org/2000/svg">
<path d="M12.1055 39.4757C14.1069 39.8548 16.0978 39.8535 18.0537 39.4767L18.4316 41.4406C16.2238 41.8659 13.9787 41.8659 11.7334 41.4406L12.1055 39.4757Z" fill="#001F3E"/>
<path d="M30.1875 25.8956C32.469 25.4316 34.8282 25.4316 37.1484 25.8956C39.3524 26.2825 41.0537 27.9836 41.4404 30.1876L39.4707 30.5333C39.2295 29.1586 38.1774 28.1067 36.8027 27.8654L37.1484 25.8956L36.7559 27.8566C34.6923 27.4439 32.6023 27.4455 30.5859 27.8556L30.1875 25.8956L30.5332 27.8654C29.1584 28.1065 28.1065 29.1586 27.8652 30.5333L25.8945 30.1876L27.8564 30.5802C27.4438 32.6437 27.4444 34.7338 27.8545 36.7501L25.8945 37.1486L27.8652 36.8029C28.1065 38.1776 29.1584 39.2296 30.5332 39.4708L30.1875 41.4406L30.5479 39.4738C32.6317 39.8558 34.7059 39.8546 36.7432 39.4747L37.1094 41.4406C34.8279 41.8659 32.5077 41.8659 30.1875 41.4406C27.9833 41.0539 26.2813 39.3527 25.8945 37.1486C25.4305 34.867 25.4305 32.5078 25.8945 30.1876C26.2813 27.9834 27.9833 26.2823 30.1875 25.8956Z" fill="#001F3E"/>
<path d="M12.0898 27.8634C10.8195 28.0937 9.79002 29.1134 9.55078 30.5226L7.5791 30.1876L9.54297 30.5675C9.14209 32.6387 9.14263 34.7376 9.54102 36.7618L7.5791 37.1486L9.55078 36.8136C9.79002 38.2227 10.8195 39.2425 12.0898 39.4728L11.7334 41.4406C9.60033 41.0539 7.95338 39.3527 7.5791 37.1486C7.13003 34.867 7.13003 32.5078 7.5791 30.1876C7.95338 27.9835 9.60034 26.2823 11.7334 25.8956L12.0898 27.8634Z" fill="#001F3E"/>
<path d="M22.623 37.1095C22.2488 39.3137 20.5647 41.0538 18.4316 41.4406L18.0752 39.4728C19.3454 39.2424 20.4121 38.1836 20.6514 36.7745L22.623 37.1095Z" fill="#001F3E"/>
<path d="M41.4404 37.1095C41.0537 39.3137 39.3135 41.0538 37.1094 41.4406L36.7637 39.4708C38.1385 39.2296 39.2295 38.1386 39.4707 36.7638L41.4404 37.1095Z" fill="#001F3E"/>
<path d="M22.623 30.1876C23.0347 32.4691 23.0347 34.7894 22.623 37.1095L20.6533 36.7609C21.0243 34.6699 21.0242 32.5878 20.6553 30.5431L22.623 30.1876Z" fill="#001F3E"/>
<path d="M41.4404 30.1876C41.8658 32.4691 41.8658 34.7894 41.4404 37.1095L39.4736 36.7491C39.8557 34.6653 39.8544 32.5911 39.4746 30.5538L41.4404 30.1876Z" fill="#001F3E"/>
<path d="M11.7334 25.8956C13.9412 25.4317 16.2236 25.4317 18.4688 25.8956C20.6018 26.2823 22.2488 27.9835 22.623 30.1876L20.6514 30.5226C20.4121 29.1134 19.3826 28.0937 18.1123 27.8634L18.4688 25.8956L18.0645 27.8536C16.0839 27.4443 14.0789 27.4461 12.1445 27.8527L11.7334 25.8956Z" fill="#001F3E"/>
<path d="M12.0938 20.1339C14.1026 20.5022 16.1018 20.501 18.0654 20.1349L18.4316 22.1007C16.2238 22.5123 13.9786 22.5123 11.7334 22.1007L12.0938 20.1339Z" fill="#001F3E"/>
<path d="M41.4404 17.9093C41.0537 20.0424 39.3136 21.7265 37.1094 22.1007C34.8279 22.5124 32.5077 22.5123 30.1875 22.1007L30.5371 20.131C32.628 20.5019 34.7094 20.5018 36.7539 20.1329L37.1094 22.1007L36.7744 20.129C38.1835 19.8898 39.2423 18.823 39.4727 17.5529L41.4404 17.9093Z" fill="#001F3E"/>
<path d="M9.54004 11.6027C9.14231 13.5913 9.14395 15.6053 9.53906 17.548L7.5791 17.9464L9.54883 17.6007C9.77753 18.9043 10.7746 19.9021 12.0781 20.131L11.7334 22.1007C9.60029 21.7265 7.95333 20.0795 7.5791 17.9464C7.13011 15.7387 7.13013 13.4562 7.5791 11.2111L9.54004 11.6027Z" fill="#001F3E"/>
<path d="M22.623 17.9093C22.2488 20.0424 20.5648 21.7265 18.4316 22.1007L18.0859 20.131C19.3897 19.9023 20.4246 18.8673 20.6533 17.5636L22.623 17.9093Z" fill="#001F3E"/>
<path d="M30.1875 7.05676C32.469 6.60772 34.8283 6.6077 37.1484 7.05676C39.3524 7.43114 41.0538 9.07809 41.4404 11.2111L39.4727 11.5675C39.2424 10.2973 38.2225 9.26776 36.8135 9.02844L37.1484 7.05676L36.7676 9.02063C34.6963 8.61978 32.5975 8.62024 30.5732 9.01868L30.1875 7.05676L30.5225 9.02844C29.1133 9.26769 28.0936 10.2972 27.8633 11.5675L25.8945 11.2111L27.8535 11.6154C27.4442 13.596 27.446 15.6008 27.8525 17.5353L25.8945 17.9464L27.8633 17.59C28.0936 18.8602 29.1133 19.8898 30.5225 20.129L30.1875 22.1007C27.9833 21.7265 26.2812 20.0795 25.8945 17.9464C25.4306 15.7387 25.4306 13.4561 25.8945 11.2111C26.2812 9.07795 27.9833 7.43099 30.1875 7.05676Z" fill="#001F3E"/>
<path d="M22.623 11.2111C23.0346 13.4189 23.0347 15.6641 22.623 17.9093L20.6562 17.549C21.0246 15.54 21.0233 13.5409 20.6572 11.5773L22.623 11.2111Z" fill="#001F3E"/>
<path d="M41.4404 11.2111C41.8657 13.4189 41.8658 15.6641 41.4404 17.9093L39.4756 17.5372C39.8548 15.5358 39.8534 13.5449 39.4766 11.589L41.4404 11.2111Z" fill="#001F3E"/>
<path d="M12.0781 9.02649C10.7747 9.25532 9.77766 10.2524 9.54883 11.5558L7.5791 11.2111C7.95333 9.07795 9.60029 7.43099 11.7334 7.05676L12.0781 9.02649Z" fill="#001F3E"/>
<path d="M18.4688 7.05676C20.6019 7.43099 22.2488 9.07795 22.623 11.2111L20.6533 11.5558C20.4245 10.2523 19.4266 9.25519 18.123 9.02649L18.4688 7.05676Z" fill="#001F3E"/>
<path d="M11.7334 7.05676C13.9411 6.60779 16.2236 6.60778 18.4688 7.05676L18.0771 9.0177C16.0886 8.61998 14.0745 8.62164 12.1318 9.01672L11.7334 7.05676Z" fill="#001F3E"/>
</svg>
