<svg width="48" height="48" viewBox="0 0 48 48" fill="none" xmlns="http://www.w3.org/2000/svg">
<path d="M14.9043 32.8319C14.9043 32.2797 14.4566 31.8319 13.9043 31.8319H10.5849C10.0326 31.8319 9.58485 32.2797 9.58485 32.8319C9.58485 33.3842 10.0326 33.8319 10.5849 33.8319H13.9043C14.4566 33.8319 14.9043 33.3842 14.9043 32.8319Z" fill="#001F3E"/>
<path d="M22.2031 31.8319C22.7554 31.8319 23.2031 32.2797 23.2031 32.8319C23.2031 33.3842 22.7554 33.8319 22.2031 33.8319H18.0538C17.5015 33.8319 17.0538 33.3842 17.0538 32.8319C17.0538 32.2797 17.5015 31.8319 18.0538 31.8319H22.2031Z" fill="#001F3E"/>
<path fill-rule="evenodd" clip-rule="evenodd" d="M36.375 31.8462C37.2581 31.8159 38.145 31.7811 39.0368 31.7417C41.5481 31.6309 43.5 29.5523 43.5 27.0545V14.0767C43.5 11.7473 41.7876 9.71935 39.4157 9.47859C31.9351 8.71929 23.708 8.94862 15.9101 9.57384C13.4713 9.76937 11.625 11.8176 11.625 14.2446V15.7996C10.6735 15.8624 9.72614 15.9321 8.78505 16.0076C6.34633 16.2031 4.5 18.2514 4.5 20.6784V33.4882C4.5 35.9862 6.45249 38.0647 8.96363 38.1755C16.7381 38.5184 24.1369 38.5184 31.9114 38.1755C34.4225 38.0647 36.375 35.9862 36.375 33.4882V31.8462ZM39.2137 11.4684C31.9024 10.7262 23.8093 10.9469 16.0699 11.5674C14.6899 11.6781 13.625 12.8406 13.625 14.2446V15.6781C19.9249 15.3299 26.3437 15.3087 32.2907 15.9123C34.6626 16.1531 36.375 18.1811 36.375 20.5104V29.845C37.2288 29.8155 38.0864 29.7817 38.9486 29.7437C40.3749 29.6808 41.5 28.4979 41.5 27.0545V14.0767C41.5 12.7185 40.5105 11.6 39.2137 11.4684ZM32.0887 17.9021C24.7774 17.16 16.6843 17.3807 8.94489 18.0012C7.56487 18.1118 6.5 19.2743 6.5 20.6784V23.2455H34.375V20.5104C34.375 19.1522 33.3855 18.0337 32.0887 17.9021ZM34.375 25.2455H6.5V33.4882C6.5 34.9315 7.62542 36.1145 9.05177 36.1774C16.7675 36.5178 24.1074 36.5178 31.8232 36.1774C33.2496 36.1145 34.375 34.9315 34.375 33.4882V25.2455Z" fill="#001F3E"/>
</svg>
