<svg width="48" height="48" viewBox="0 0 48 48" fill="none" xmlns="http://www.w3.org/2000/svg">
<path d="M19.4591 4.875C22.0617 4.875 27.6742 5.32275 30.1475 5.68848L30.1827 5.69434L30.2179 5.70117C31.2416 5.92788 32.1538 6.30461 32.837 6.85645C33.5363 7.42135 34.0171 8.19538 34.0489 9.13867C34.0866 10.2576 34.1368 11.1747 34.1847 12.0605L34.1856 12.0889C34.234 12.9827 34.2813 13.8495 34.3106 14.8477C34.3268 15.3997 33.892 15.8608 33.3399 15.877C32.7879 15.8931 32.3268 15.4583 32.3106 14.9062C32.2822 13.9359 32.2369 13.0923 32.1886 12.1973L32.1876 12.1641C32.1398 11.2797 32.0893 10.3455 32.0509 9.20605C32.0427 8.96249 31.9299 8.6946 31.5802 8.41211C31.2193 8.12063 30.6378 7.84725 29.8194 7.66211C27.4135 7.31007 21.9414 6.875 19.4591 6.875C16.4932 6.87504 13.6026 7.31491 10.7276 7.75195C10.1997 7.8322 9.67186 7.9119 9.14462 7.98926C8.20961 8.12644 7.54193 8.82206 7.49716 9.56055C6.90757 19.2851 6.89112 28.3217 7.48056 38.0439C7.50631 38.4687 7.71735 39.0307 8.07333 39.501C8.43877 39.9836 8.82266 40.1998 9.08993 40.2266C9.192 40.2365 9.47982 40.1821 10.003 39.8711C10.488 39.5828 11.023 39.1674 11.5714 38.7109C11.781 38.5364 12.0037 38.3463 12.2237 38.1582C12.5392 37.8885 12.8503 37.6228 13.1095 37.415C13.3392 37.2309 13.5767 37.0519 13.8009 36.915C13.9768 36.8076 14.3279 36.6064 14.7354 36.6064C15.3713 36.6065 15.8901 36.9808 16.2198 37.2588C16.5856 37.5673 16.9664 37.9781 17.3321 38.3779C17.3746 38.4244 17.4173 38.4717 17.46 38.5186C18.1862 39.3137 18.9516 40.1519 19.8487 40.7783L19.8526 40.7764C19.8604 40.7734 19.8704 40.7692 19.88 40.7617L24.6183 37.0537C24.9239 36.8146 25.575 36.4582 26.3058 36.7803C26.8341 37.0131 27.3458 37.4678 27.7677 37.8779C28.0359 38.1387 28.3324 38.4483 28.6192 38.7471C28.7913 38.9264 28.9596 39.1025 29.1163 39.2617C29.5679 39.7206 29.9723 40.098 30.3292 40.3447C30.5119 40.4711 30.6391 40.5332 30.7198 40.5635C31.1911 40.0058 31.8567 38.9898 32.0304 37.9922C32.1252 37.4482 32.6436 37.084 33.1876 37.1787C33.7314 37.2735 34.0955 37.7911 34.0011 38.335C33.7191 39.9551 32.6684 41.3985 32.0841 42.041C31.9125 42.2297 31.6095 42.4885 31.1671 42.5645C30.3862 42.6984 29.6821 42.3294 29.1915 41.9902C28.6679 41.6282 28.1523 41.1323 27.6915 40.6641C27.4926 40.4619 27.3082 40.2699 27.1319 40.0859C26.8698 39.8124 26.6244 39.5568 26.3731 39.3125C26.0929 39.0401 25.875 38.8535 25.712 38.7373L21.1124 42.3369C20.4647 42.8436 19.5004 42.9697 18.7286 42.4346C17.6298 41.6726 16.7157 40.6707 16.0108 39.8975C15.9583 39.8398 15.9067 39.7834 15.8565 39.7285C15.4757 39.3121 15.18 38.9991 14.9298 38.7881C14.8655 38.7339 14.8137 38.6949 14.7735 38.667C14.6671 38.7378 14.5298 38.839 14.3595 38.9756C14.1114 39.1744 13.855 39.3949 13.5704 39.6387C13.3503 39.8272 13.1131 40.0296 12.8507 40.248C12.2869 40.7173 11.6519 41.2179 11.0245 41.5908C10.4361 41.9405 9.66871 42.2938 8.88974 42.2158C7.8519 42.1117 7.02133 41.4243 6.47958 40.709C5.9285 39.9812 5.5381 39.0497 5.48446 38.165C4.88999 28.3599 4.90673 19.2423 5.50107 9.43945C5.6151 7.55889 7.19254 6.25464 8.8536 6.01074C9.36047 5.93638 9.87464 5.85751 10.3946 5.77832C13.2668 5.34088 16.3283 4.87504 19.4591 4.875Z" fill="#001F3E"/>
<path fill-rule="evenodd" clip-rule="evenodd" d="M34.9727 18.4805C39.5643 18.4806 43.287 22.2024 43.2872 26.7939C43.2872 31.3857 39.5645 35.1083 34.9727 35.1084C30.3809 35.1084 26.6583 31.3858 26.6583 26.7939C26.6585 22.2023 30.381 18.4805 34.9727 18.4805ZM34.9718 30.5322C34.3204 30.5322 33.4585 30.7314 32.6183 31.0693C32.0481 31.2986 31.5465 31.5688 31.1671 31.833C32.2253 32.6335 33.5436 33.1084 34.9727 33.1084C36.4126 33.1084 37.7387 32.6249 38.8009 31.8135C38.4222 31.5572 37.9243 31.2954 37.3585 31.0713C36.5022 30.7322 35.6247 30.5322 34.9718 30.5322ZM34.9727 20.4805C31.4856 20.4805 28.6585 23.3069 28.6583 26.7939C28.6583 28.1241 29.0702 29.3582 29.7725 30.376C30.366 29.9182 31.1158 29.517 31.8722 29.2129C32.0774 29.1304 32.2891 29.0537 32.504 28.9824C31.8661 28.3484 31.4708 27.4704 31.4708 26.5C31.4709 24.5671 33.0378 23.0001 34.9708 23C36.9038 23 38.4707 24.567 38.4708 26.5C38.4708 27.4678 38.0783 28.3439 37.4434 28.9775C37.6649 29.0497 37.8832 29.1272 38.0948 29.2109C38.8457 29.5082 39.5949 29.8997 40.1905 30.3486C40.8816 29.3361 41.2872 28.1124 41.2872 26.7939C41.287 23.3069 38.4598 20.4806 34.9727 20.4805ZM34.9708 25C34.1424 25.0001 33.4709 25.6716 33.4708 26.5C33.4708 27.3285 34.1423 27.9999 34.9708 28C35.7993 28 36.4708 27.3285 36.4708 26.5C36.4707 25.6716 35.7993 25 34.9708 25Z" fill="#001F3E"/>
<path d="M21.1163 25.7939C21.6685 25.7939 22.1162 26.2418 22.1163 26.7939C22.1163 27.3462 21.6686 27.7939 21.1163 27.7939H14.4649C13.9126 27.7939 13.4649 27.3462 13.4649 26.7939C13.4651 26.2418 13.9127 25.7939 14.4649 25.7939H21.1163Z" fill="#001F3E"/>
<path d="M24.4425 16.3721C24.9946 16.3723 25.4425 16.8199 25.4425 17.3721C25.4423 17.924 24.9944 18.3718 24.4425 18.3721H14.4649C13.9128 18.3721 13.4651 17.9242 13.4649 17.3721C13.4649 16.8198 13.9126 16.3721 14.4649 16.3721H24.4425Z" fill="#001F3E"/>
</svg>
