<svg width="48" height="48" viewBox="0 0 48 48" fill="none" xmlns="http://www.w3.org/2000/svg">
<path fill-rule="evenodd" clip-rule="evenodd" d="M25.0002 5C26.8346 5 28.379 6.23528 28.8508 7.91895C29.1498 7.95666 29.4465 7.99477 29.7405 8.03223C30.2912 8.10239 30.8363 8.17184 31.385 8.23926C33.2169 8.46431 34.6947 9.94037 34.7971 11.835C34.8857 13.4752 34.9621 15.3466 35.0256 16.9033C35.0528 17.5683 35.0774 18.176 35.0998 18.6836C35.1241 19.2353 34.6964 19.7022 34.1448 19.7266C33.5932 19.7507 33.1261 19.3231 33.1018 18.7715L32.9231 14.4824C32.8854 13.6237 32.844 12.7557 32.8 11.9424C32.7525 11.0672 32.063 10.337 31.1418 10.2236C30.5954 10.1565 30.036 10.0859 29.4768 10.0146C29.2806 9.98966 29.0839 9.96431 28.8879 9.93945C28.4652 11.6951 26.8857 13 25.0002 13H15.0002C13.1076 12.9998 11.5229 11.6849 11.1077 9.91895C10.6529 9.98136 10.2231 10.0439 9.79809 10.1064C9.60417 10.135 9.41052 10.1632 9.21605 10.1914C8.27805 10.3276 7.57447 11.0726 7.51391 11.9551C6.92218 20.585 6.92218 29.9785 7.51391 38.6084C7.57521 39.4996 8.27599 40.2102 9.16527 40.2852C16.7184 40.9184 23.6209 40.9183 31.1741 40.2852C32.0632 40.2106 32.7654 39.4989 32.8284 38.6055L32.845 38.3613C32.883 37.8106 33.3607 37.3949 33.9114 37.4326C34.4623 37.4707 34.8782 37.9481 34.8401 38.499L34.8235 38.7461C34.6915 40.6199 33.2163 42.1211 31.3411 42.2783C23.6768 42.9208 16.6626 42.9209 8.99828 42.2783C7.12402 42.1209 5.64756 40.6208 5.51879 38.7451C4.92082 30.0241 4.92082 20.5394 5.51879 11.8184C5.64804 9.93358 7.12203 8.47412 8.92895 8.21191C9.11571 8.18484 9.30449 8.157 9.49535 8.12891C10.0185 8.05191 10.5632 7.97412 11.1555 7.89551C11.6349 6.22381 13.1745 5.00021 15.0002 5H25.0002ZM15.0002 7C13.8959 7.00026 13.0002 7.89559 13.0002 9C13.0002 10.1044 13.8959 10.9997 15.0002 11H25.0002C26.1048 11 27.0002 10.1046 27.0002 9C27.0002 7.89544 26.1048 7 25.0002 7H15.0002Z" fill="#001F3E"/>
<path fill-rule="evenodd" clip-rule="evenodd" d="M35.3967 22.1748C36.8817 20.4898 39.4602 20.5772 41.1262 22.0508C42.8299 23.5579 43.2076 26.1873 41.6213 27.8564L34.8489 34.9824C34.7321 35.1053 34.5858 35.1962 34.4241 35.2471L30.219 36.5693C29.4892 36.7986 28.7859 36.5454 28.3303 36.1318C27.8747 35.7183 27.5549 35.0421 27.7141 34.293L28.6116 30.0684C28.6473 29.9003 28.7265 29.7442 28.8401 29.6152L35.3967 22.1748ZM29.6848 34.6406L32.1379 33.8691L30.2112 32.1621L29.6848 34.6406ZM39.801 23.5488C38.8078 22.6704 37.5213 22.7899 36.8977 23.4971L31.0002 30.1885L34.0647 32.9043L40.1711 26.4785C40.8344 25.7806 40.8202 24.4504 39.801 23.5488Z" fill="#001F3E"/>
<path d="M21.303 30.1602C21.8551 30.1602 22.3027 30.6081 22.303 31.1602C22.303 31.7124 21.8553 32.1602 21.303 32.1602H14.6916C14.1396 32.1599 13.6916 31.7123 13.6916 31.1602C13.6919 30.6083 14.1397 30.1604 14.6916 30.1602H21.303Z" fill="#001F3E"/>
<path d="M25.6477 21.8086C26.1999 21.8086 26.6475 22.2565 26.6477 22.8086C26.6477 23.3609 26.2 23.8086 25.6477 23.8086H14.6916C14.1396 23.8083 13.6916 23.3607 13.6916 22.8086C13.6918 22.2566 14.1397 21.8088 14.6916 21.8086H25.6477Z" fill="#001F3E"/>
</svg>
