<svg width="48" height="48" viewBox="0 0 48 48" fill="none" xmlns="http://www.w3.org/2000/svg">
<path d="M30.6615 6.94252C32.9608 6.71416 34.4699 6.65606 36.3067 6.76769L24.6036 18.3355L20.0639 13.8443C19.6742 13.4588 19.0469 13.4588 18.6573 13.8443L6.86121 25.5144C6.4686 25.9028 6.4652 26.536 6.85362 26.9286C7.24204 27.3212 7.8752 27.3246 8.26781 26.9362L19.3606 15.9619L23.9 20.4528C24.2895 20.8382 24.9166 20.8383 25.3063 20.4531L37.6462 8.25587C37.7451 10.0223 37.6839 11.5101 37.4621 13.7432C37.4075 14.2927 37.8088 14.7825 38.3584 14.8371C38.908 14.8917 39.3977 14.4904 39.4523 13.9408C39.7716 10.7259 39.7723 8.92749 39.4519 5.84406C39.403 5.37355 39.0311 5.00166 38.5606 4.95277C35.4771 4.63236 33.6788 4.63301 30.4638 4.95231C29.9142 5.00689 29.5129 5.49666 29.5675 6.04624C29.6221 6.59582 30.1119 6.9971 30.6615 6.94252Z" fill="#001F3E"/>
<path fill-rule="evenodd" clip-rule="evenodd" d="M36.0155 18.4647C35.4281 18.4647 34.876 18.5801 34.3825 18.7218C32.6985 19.2056 31.6213 20.8044 31.5619 22.4538L31.5324 23.2673C31.4449 25.6624 31.3536 28.166 31.3536 30.7323C31.3536 33.2985 31.4449 35.8021 31.5324 38.1971L31.5619 39.0109C31.6213 40.6603 32.6985 42.2591 34.3825 42.7428C34.876 42.8846 35.4281 42.9999 36.0155 42.9999C36.603 42.9999 37.1551 42.8846 37.6486 42.7428C39.3326 42.2591 40.4098 40.6603 40.4692 39.0109L40.4987 38.1973C40.5861 35.8023 40.6775 33.2986 40.6775 30.7323C40.6775 28.166 40.5861 25.6624 40.4987 23.2674L40.4692 22.4538C40.4098 20.8044 39.3326 19.2056 37.6486 18.7218C37.1551 18.5801 36.603 18.4647 36.0155 18.4647ZM34.9346 20.6441C35.3315 20.5301 35.685 20.4647 36.0155 20.4647C36.3461 20.4647 36.6996 20.5301 37.0965 20.6441C37.8532 20.8615 38.4385 21.6373 38.4705 22.5257L38.5 23.3388C38.5875 25.7382 38.6775 28.2048 38.6775 30.7323C38.6775 33.2599 38.5875 35.7265 38.5 38.1259L38.4705 38.939C38.4385 39.8273 37.8532 40.6032 37.0965 40.8206C36.6996 40.9346 36.3461 40.9999 36.0155 40.9999C35.685 40.9999 35.3315 40.9346 34.9346 40.8206C34.1779 40.6032 33.5926 39.8273 33.5606 38.939L33.5311 38.1259C33.4436 35.7265 33.3536 33.2599 33.3536 30.7323C33.3536 28.2048 33.4436 25.7382 33.5311 23.3388L33.5606 22.5257C33.5926 21.6373 34.1779 20.8615 34.9346 20.6441Z" fill="#001F3E"/>
<path fill-rule="evenodd" clip-rule="evenodd" d="M22.3368 26.4659C22.7422 26.3993 23.173 26.3521 23.621 26.3521C24.069 26.3521 24.4998 26.3993 24.9053 26.4659C26.7583 26.7701 28.0272 28.4248 28.1252 30.1835C28.2053 31.6203 28.283 33.1284 28.283 34.676C28.283 36.36 28.1909 37.9997 28.1038 39.5511L28.0974 39.6662C28.0173 41.0933 27.1431 42.586 25.5421 42.9929C24.2679 43.3166 23.114 43.3065 21.7874 42.979C20.1623 42.5778 19.2241 41.0816 19.1407 39.5958L19.1381 39.5497C19.0511 37.9988 18.959 36.3597 18.959 34.676C18.959 33.1284 19.0367 31.6203 19.1168 30.1835C19.2148 28.4248 20.4837 26.7701 22.3368 26.4659ZM23.621 28.3521C23.3119 28.3521 22.994 28.3848 22.6608 28.4395C21.8454 28.5734 21.1661 29.3536 21.1137 30.2948C21.0337 31.7311 20.959 33.1896 20.959 34.676C20.959 36.3034 21.0484 37.8951 21.1363 39.4611L21.1376 39.4837C21.1826 40.2852 21.6679 40.8894 22.2668 41.0373C23.2964 41.2915 24.1158 41.2917 25.0495 41.0545C25.5984 40.915 26.0563 40.3418 26.1005 39.5541L26.1058 39.4596C26.1937 37.8942 26.283 36.3031 26.283 34.676C26.283 33.1896 26.2084 31.7311 26.1283 30.2948C26.0759 29.3536 25.3967 28.5734 24.5813 28.4395C24.248 28.3848 23.9301 28.3521 23.621 28.3521Z" fill="#001F3E"/>
<path fill-rule="evenodd" clip-rule="evenodd" d="M11.2265 31.9859C10.853 31.9859 10.4892 32.0074 10.1384 32.0398C8.23303 32.216 6.77919 33.8181 6.64101 35.6657C6.597 36.2543 6.56451 36.8659 6.56451 37.4929C6.56451 38.1199 6.597 38.7315 6.64101 39.3201C6.77919 41.1677 8.23303 42.7698 10.1384 42.946C10.4892 42.9785 10.853 42.9999 11.2265 42.9999C11.5999 42.9999 11.9638 42.9785 12.3146 42.946C14.2199 42.7698 15.6738 41.1677 15.812 39.3201C15.856 38.7315 15.8885 38.1199 15.8885 37.4929C15.8885 36.8659 15.856 36.2543 15.812 35.6657C15.6738 33.8181 14.2199 32.216 12.3146 32.0398C11.9638 32.0074 11.5999 31.9859 11.2265 31.9859ZM10.3226 34.0313C10.6285 34.003 10.929 33.9859 11.2265 33.9859C11.524 33.9859 11.8245 34.003 12.1304 34.0313C13.0037 34.1121 13.7476 34.8798 13.8175 35.8149C13.8594 36.3752 13.8885 36.9334 13.8885 37.4929C13.8885 38.0525 13.8594 38.6106 13.8175 39.1709C13.7476 40.1061 13.0037 40.8738 12.1304 40.9545C11.8245 40.9828 11.524 40.9999 11.2265 40.9999C10.929 40.9999 10.6285 40.9828 10.3226 40.9545C9.4493 40.8738 8.70538 40.1061 8.63544 39.1709C8.59353 38.6106 8.56451 38.0525 8.56451 37.4929C8.56451 36.9333 8.59353 36.3752 8.63544 35.8149C8.70538 34.8798 9.4493 34.1121 10.3226 34.0313Z" fill="#001F3E"/>
</svg>
