<svg width="48" height="48" viewBox="0 0 48 48" fill="none" xmlns="http://www.w3.org/2000/svg">
<path d="M8.57129 30.3518C9.1204 30.2952 9.61104 30.6943 9.66797 31.2434C9.74796 32.0177 9.83316 32.7877 9.91895 33.5539C10.1806 35.8913 12.0538 37.7654 14.3945 38.0363C15.1687 38.126 15.9464 38.2148 16.7285 38.299C17.2774 38.3584 17.6742 38.8517 17.6152 39.4006C17.5561 39.9497 17.0628 40.3474 16.5137 40.2883C15.7233 40.2032 14.9395 40.1133 14.165 40.0237C10.9034 39.6461 8.29742 37.044 7.93164 33.7766C7.8457 33.0089 7.75961 32.2325 7.67871 31.4494C7.62196 30.9001 8.02193 30.4085 8.57129 30.3518ZM39.4287 30.3518C39.9781 30.4085 40.378 30.9001 40.3213 31.4494C40.2404 32.2325 40.1543 33.0089 40.0684 33.7766C39.7026 37.044 37.0966 39.6461 33.835 40.0237C33.0605 40.1133 32.2767 40.2032 31.4863 40.2883C30.9372 40.3474 30.4439 39.9497 30.3848 39.4006C30.3258 38.8517 30.7226 38.3584 31.2715 38.299C32.0536 38.2148 32.8313 38.126 33.6055 38.0363C35.9462 37.7654 37.8194 35.8913 38.0811 33.5539C38.1668 32.7877 38.252 32.0177 38.332 31.2434C38.389 30.6943 38.8796 30.2952 39.4287 30.3518ZM41.7598 23.0002C42.3121 23.0002 42.7598 23.4479 42.7598 24.0002C42.7596 24.5524 42.312 25.0002 41.7598 25.0002H6.24023C5.68804 25.0002 5.24038 24.5524 5.24023 24.0002C5.24023 23.4479 5.68795 23.0002 6.24023 23.0002H41.7598ZM16.5137 7.64572C17.0626 7.58662 17.5559 7.98357 17.6152 8.53244C17.6743 9.08139 17.2774 9.57465 16.7285 9.634C15.9464 9.71821 15.1687 9.80807 14.3945 9.89768C12.054 10.1687 10.1808 12.042 9.91895 14.3791C9.83316 15.1454 9.74796 15.9154 9.66797 16.6897C9.61123 17.2389 9.12051 17.6388 8.57129 17.5822C8.02198 17.5255 7.62206 17.0339 7.67871 16.4846C7.7596 15.7016 7.84571 14.925 7.93164 14.1574C8.29742 10.8901 10.9034 8.28788 14.165 7.91037C14.9395 7.82074 15.7233 7.73082 16.5137 7.64572ZM31.4863 7.64572C32.2767 7.73082 33.0605 7.82074 33.835 7.91037C37.0966 8.28788 39.7026 10.8901 40.0684 14.1574C40.1543 14.925 40.2404 15.7016 40.3213 16.4846C40.3779 17.0339 39.978 17.5255 39.4287 17.5822C38.8795 17.6388 38.3888 17.2389 38.332 16.6897C38.252 15.9154 38.1668 15.1454 38.0811 14.3791C37.8192 12.042 35.946 10.1687 33.6055 9.89768C32.8313 9.80807 32.0536 9.71821 31.2715 9.634C30.7226 9.57465 30.3257 9.08139 30.3848 8.53244C30.4441 7.98357 30.9374 7.58662 31.4863 7.64572Z" fill="#001F3E"/>
</svg>
