<svg width="48" height="48" viewBox="0 0 48 48" fill="none" xmlns="http://www.w3.org/2000/svg">
<path d="M24.4032 29.8063C27.3873 29.8063 29.8063 27.3873 29.8063 24.4032C29.8063 21.4191 27.3873 19 24.4032 19C21.4191 19 19 21.4191 19 24.4032C19 27.3873 21.4191 29.8063 24.4032 29.8063Z" stroke="#001F3E" stroke-width="2" stroke-miterlimit="10" stroke-linecap="round" stroke-linejoin="round"/>
<path d="M6 25.5849V22.4151C6 20.542 7.5309 18.9931 9.42201 18.9931C12.6819 18.9931 14.0147 16.6877 12.3757 13.86C11.4392 12.2391 11.9975 10.1319 13.6365 9.19531L16.7523 7.41226C18.1751 6.56577 20.0122 7.07006 20.8587 8.4929L21.0568 8.8351C22.6778 11.6628 25.3434 11.6628 26.9823 8.8351L27.1804 8.4929C28.0269 7.07006 29.864 6.56577 31.2868 7.41226L34.4027 9.19531C36.0416 10.1319 36.6 12.2391 35.6634 13.86C34.0244 16.6877 35.3572 18.9931 38.6171 18.9931C40.4902 18.9931 42.0392 20.524 42.0392 22.4151V25.5849C42.0392 27.458 40.5083 29.0069 38.6171 29.0069C35.3572 29.0069 34.0244 31.3123 35.6634 34.1399C36.6 35.7789 36.0416 37.8681 34.4027 38.8047L31.2868 40.5877C29.864 41.4342 28.0269 40.9299 27.1804 39.5071L26.9823 39.1649C25.3614 36.3372 22.6958 36.3372 21.0568 39.1649L20.8587 39.5071C20.0122 40.9299 18.1751 41.4342 16.7523 40.5877L13.6365 38.8047C11.9975 37.8681 11.4392 35.7609 12.3757 34.1399C14.0147 31.3123 12.6819 29.0069 9.42201 29.0069C7.5309 29.0069 6 27.458 6 25.5849Z" stroke="#001F3E" stroke-width="2" stroke-miterlimit="10" stroke-linecap="round" stroke-linejoin="round"/>
</svg>
