<svg width="48" height="48" viewBox="0 0 48 48" fill="none" xmlns="http://www.w3.org/2000/svg">
<path d="M30.5 38C31.0523 38 31.5 38.4477 31.5 39C31.5 39.5523 31.0523 40 30.5 40H17C16.4477 40 16 39.5523 16 39C16 38.4477 16.4477 38 17 38H30.5ZM17.5293 15.6348C17.7817 15.6449 18.0051 15.7348 18.127 15.7881C18.4126 15.913 18.7572 16.1217 19.1143 16.3604C19.8476 16.8504 20.8165 17.5931 21.8428 18.4521C23.8791 20.1568 26.2727 22.4309 27.5596 24.249C29.3959 26.8436 29.2825 29.5842 27.4395 30.8887C25.5964 32.1931 22.9741 31.3892 21.1377 28.7949C19.846 26.9699 18.6425 24.1552 17.7861 21.7734C17.3533 20.5696 16.999 19.4473 16.7578 18.5742C16.6376 18.1392 16.5428 17.7556 16.4805 17.4492C16.4495 17.2969 16.4239 17.1511 16.4082 17.0215C16.3959 16.9193 16.376 16.7335 16.4043 16.5459C16.4448 16.2778 16.595 15.9859 16.8926 15.7998C17.1468 15.6409 17.3983 15.6295 17.5293 15.6348ZM18.8545 18.6299C19.0677 19.347 19.3438 20.1952 19.668 21.0967C20.5132 23.4475 21.6428 26.0465 22.7695 27.6387C24.284 29.7784 25.7324 29.6464 26.2842 29.2559C26.8359 28.865 27.4418 27.5435 25.9277 25.4043C24.7961 23.8054 22.5663 21.666 20.5586 19.9854C19.944 19.4709 19.3627 19.0098 18.8545 18.6299ZM24 5C36.1503 5 46 14.8497 46 27C46 27.5523 45.5523 28 45 28H34.5C33.9477 28 33.5 27.5523 33.5 27C33.5 26.4477 33.9477 26 34.5 26H43.9756C43.7903 22.2367 42.5642 18.7473 40.5801 15.8125C40.5714 15.8187 40.5636 15.8261 40.5547 15.832L37.5547 17.832C37.0952 18.1384 36.4744 18.0141 36.168 17.5547C35.8616 17.0952 35.9858 16.4743 36.4453 16.168L39.3779 14.2119C35.9083 10.0441 30.7764 7.30885 25 7.02441V11C25 11.5523 24.5523 12 24 12C23.4477 12 23 11.5523 23 11V7.02441C17.2234 7.30886 12.0908 10.0439 8.62109 14.2119L11.5547 16.168C12.0142 16.4743 12.1384 17.0952 11.832 17.5547C11.5256 18.0141 10.9048 18.1384 10.4453 17.832L7.44531 15.832C7.43618 15.8259 7.42781 15.8188 7.41895 15.8125C5.43499 18.7472 4.20971 22.2369 4.02441 26H13.5C14.0523 26 14.5 26.4477 14.5 27C14.5 27.5523 14.0523 28 13.5 28H3C2.44772 28 2 27.5523 2 27C2 14.8497 11.8497 5 24 5Z" fill="#001F3E"/>
</svg>
