<svg width="48" height="48" viewBox="0 0 48 48" fill="none" xmlns="http://www.w3.org/2000/svg">
<path d="M31.2305 14.6084C34.6749 14.6084 37.4914 15.0834 39.4844 16.0674C41.5227 17.0739 42.785 18.6745 42.7852 20.8193C42.7852 21.0228 42.7703 21.2214 42.748 21.415C42.8974 23.8415 42.9169 26.2454 42.8604 28.6377C42.9703 28.8217 43.0232 29.0422 42.9951 29.2715C42.9596 29.5607 42.8987 29.8421 42.8164 30.1152C42.7482 32.0156 42.6397 33.9101 42.5156 35.8037C42.2988 39.1127 39.7569 41.8578 36.4727 42.3242C34.7909 42.5631 33.0333 42.7598 31.2305 42.7598C29.4279 42.7597 27.6708 42.563 25.9893 42.3242C22.7048 41.8577 20.1644 39.1127 19.9424 35.8057C19.8137 33.8874 19.6976 31.9664 19.624 30.0391C19.5531 29.7897 19.499 29.534 19.4668 29.2715C19.4405 29.0568 19.4842 28.8494 19.5801 28.6729C19.5121 26.162 19.526 23.6385 19.6855 21.0938C19.6809 21.0034 19.6758 20.9117 19.6758 20.8193C19.676 18.6743 20.9389 17.0739 22.9775 16.0674C24.9704 15.0835 27.7861 14.6084 31.2305 14.6084ZM21.7764 33.0928C21.8259 33.9504 21.8797 34.81 21.9375 35.6719C22.0964 38.0386 23.9249 40.0116 26.2705 40.3447C27.9178 40.5787 29.5671 40.7597 31.2305 40.7598C32.8941 40.7598 34.5439 40.5787 36.1914 40.3447C38.5374 40.0115 40.3645 38.0385 40.5195 35.6729C40.5759 34.813 40.6273 33.9558 40.6748 33.1006C39.3292 34.1498 37.5391 34.821 35.6562 34.9658C34.2173 35.0765 32.7379 35.1582 31.2305 35.1582C29.7233 35.1582 28.2444 35.0765 26.8057 34.9658C24.918 34.8206 23.1231 34.1466 21.7764 33.0928ZM16.832 5.24023C19.4648 5.24023 21.7171 5.51739 23.5137 6.07812C25.3012 6.63611 26.7319 7.50541 27.5781 8.75879C27.8871 9.21651 27.7663 9.83843 27.3086 10.1475C26.851 10.4562 26.2299 10.3354 25.9209 9.87793C25.423 9.14051 24.466 8.47077 22.917 7.9873C21.3768 7.50665 19.3421 7.24023 16.832 7.24023C13.5214 7.24025 11.0596 7.70339 9.46387 8.49121C8.17745 9.12639 7.52123 9.92718 7.33496 10.8613C7.34113 10.9203 7.34347 10.9808 7.33887 11.042C7.32221 11.2632 7.30578 11.4923 7.29004 11.7275C7.36365 12.5772 7.78463 13.2973 8.61816 13.9053C9.58065 14.6072 11.0952 15.1538 13.2051 15.4404C13.7521 15.5149 14.1357 16.0183 14.0615 16.5654C13.9872 17.1127 13.4828 17.4962 12.9355 17.4219C10.6589 17.1126 8.77673 16.4959 7.43945 15.5205C7.32644 15.4381 7.21821 15.3521 7.11328 15.2646C7.07996 16.2444 7.06055 17.2091 7.06055 18.0742C7.06055 18.6745 7.07103 19.2726 7.08789 19.8682C7.44432 21.6399 9.54615 23.3707 12.5605 23.6025C13.1111 23.645 13.5228 24.1262 13.4805 24.6768C13.4381 25.2273 12.9577 25.6389 12.4072 25.5967C10.4741 25.448 8.63813 24.7454 7.28125 23.6475C7.34315 24.5339 7.41257 25.4152 7.48535 26.291C7.6828 28.667 9.52571 30.6423 11.8711 30.9756C12.392 31.0496 12.9144 31.1182 13.4375 31.1777C13.986 31.2404 14.3799 31.7365 14.3174 32.2852C14.2547 32.8336 13.7595 33.2274 13.2109 33.165C12.6646 33.1028 12.1234 33.0318 11.5898 32.9561C8.30536 32.4894 5.76581 29.7479 5.49219 26.457C5.32012 24.3864 5.1588 22.2474 5.09277 20.0615C5.08456 20.0086 5.07492 19.9558 5.06836 19.9023C5.05485 19.7923 5.05914 19.6841 5.08008 19.5811C5.06835 19.0812 5.06055 18.5786 5.06055 18.0742C5.06056 16.1363 5.15454 13.73 5.28516 11.7334C5.28018 11.6403 5.27735 11.5462 5.27734 11.4512C5.27734 9.30592 6.54025 7.70486 8.5791 6.69824C10.572 5.71436 13.3878 5.24025 16.832 5.24023ZM21.5518 24.6641C21.5266 26.3371 21.552 28.0078 21.6123 29.6816C22.2021 31.2889 24.1978 32.7593 26.959 32.9717C28.37 33.0802 29.7934 33.1582 31.2305 33.1582C32.6677 33.1582 34.0918 33.0802 35.5029 32.9717C38.233 32.7616 40.2139 31.3213 40.8281 29.7354C40.8844 28.0538 40.9058 26.3753 40.875 24.6934C40.4662 25.0236 40.0005 25.3174 39.4844 25.5723C37.4914 26.5562 34.6749 27.0312 31.2305 27.0312C27.7861 27.0312 24.9704 26.5562 22.9775 25.5723C22.4463 25.31 21.969 25.0061 21.5518 24.6641ZM31.2305 16.6084C27.9199 16.6084 25.458 17.0725 23.8623 17.8604C22.4953 18.5354 21.8389 19.3968 21.7031 20.4072L21.7373 20.4102C21.7198 20.642 21.7044 20.8739 21.6895 21.1055C21.7861 22.1708 22.4384 23.0762 23.8623 23.7793C25.458 24.5671 27.9199 25.0312 31.2305 25.0312C34.5411 25.0312 37.0029 24.5671 38.5986 23.7793C39.9169 23.1284 40.5722 22.3039 40.7393 21.3398C40.7194 21.0315 40.6982 20.7229 40.6738 20.4141L40.7568 20.4072C40.621 19.3968 39.9657 18.5353 38.5986 17.8604C37.0029 17.0725 34.5411 16.6084 31.2305 16.6084Z" fill="#001F3E"/>
</svg>
