<svg width="48" height="48" viewBox="0 0 48 48" fill="none" xmlns="http://www.w3.org/2000/svg">
<path d="M31.5596 7.87988C33.349 7.87988 34.7998 9.33071 34.7998 11.1201V14.208C38.2148 14.906 40.974 17.7327 41.1553 21.3896C41.2119 22.5334 41.2402 23.798 41.2402 25.418C41.2402 27.8088 41.1775 30.0224 41.0566 32.1865C40.8357 36.1425 37.6503 39.2143 33.7588 39.54C30.1814 39.8395 26.3023 40.1201 23.0059 40.1201C19.685 40.1201 16.4455 39.8356 13.3438 39.5342C10.1172 39.2206 7.3032 36.8452 6.83105 33.6113C6.78512 33.4966 6.75981 33.3714 6.75977 33.2402V13.627C6.75988 10.453 9.33287 7.88 12.5068 7.87988H31.5596ZM8.75977 32.6904L8.76855 32.9248C8.91396 35.3356 10.9637 37.2928 13.5371 37.543C16.6347 37.844 19.7903 38.1201 23.0059 38.1201C26.2105 38.1201 30.0156 37.8462 33.5918 37.5469C36.5468 37.2995 38.8973 34.979 39.0596 32.0752C39.1783 29.9496 39.2402 27.773 39.2402 25.418C39.2402 23.8218 39.2119 22.5912 39.1572 21.4883C39.0054 18.4246 36.3265 16.04 33.1572 16.04H8.75977V32.6904ZM34.4004 23.2803C35.3282 23.2803 36.0811 24.0321 36.0811 24.96V28.7998C36.0811 29.7276 35.3282 30.4795 34.4004 30.4795C33.4727 30.4793 32.7207 29.7275 32.7207 28.7998V24.96C32.7207 24.0322 33.4727 23.2804 34.4004 23.2803ZM12.5068 9.87988C10.4374 9.88 8.75988 11.5576 8.75977 13.627V14.04H32.7998V11.1201C32.7998 10.4353 32.2444 9.87988 31.5596 9.87988H12.5068Z" fill="#001F3E"/>
</svg>
