<svg width="48" height="48" viewBox="0 0 48 48" fill="none" xmlns="http://www.w3.org/2000/svg">
<path d="M29.3037 41.0552C29.3337 41.0866 29.3631 41.119 29.3936 41.15C27.7046 42.006 26.0847 42.5868 24.7744 42.9615C24.5948 43.0128 24.4033 43.0128 24.2236 42.9615C21.6762 42.233 17.6819 40.7226 14.3066 37.8951C10.9044 35.0447 8.11937 30.8382 8.11914 24.8111V14.856C8.11951 12.8537 9.49977 11.2172 11.2734 10.5943C13.2201 9.91063 14.8906 9.04377 16.5986 8.10309C16.8915 7.94178 17.1866 7.7775 17.4844 7.61188C18.9101 6.81896 20.4054 5.98713 22.0898 5.22419C23.3159 4.66905 24.7215 4.70901 25.915 5.31012C27.2344 5.97476 28.4588 6.6731 29.624 7.33747C30.1883 7.65919 30.7395 7.97268 31.2803 8.27106C32.9628 9.19943 34.629 10.0251 36.5732 10.6451C38.4126 11.2317 39.8785 12.8912 39.8789 14.9586V24.8111C39.8789 26.0052 39.777 27.1286 39.5928 28.1841C39.5054 28.1316 39.4166 28.0811 39.3271 28.0318C41.8914 29.4478 43.6288 32.1777 43.6289 35.314C43.6288 39.9057 39.9061 43.6284 35.3145 43.6285C32.9499 43.6285 30.8177 42.6399 29.3037 41.0552ZM35.3145 28.9996C31.8273 28.9996 29.0002 31.8269 29 35.314C29.0001 38.8012 31.8273 41.6285 35.3145 41.6285C38.8016 41.6284 41.6288 38.8011 41.6289 35.314C41.6287 31.827 38.8015 28.9997 35.3145 28.9996ZM24.2793 29.9996C18.9246 29.9996 16.6396 34.1294 15.9541 36.3004C15.9248 36.3929 15.8815 36.4783 15.8301 36.5552C18.7395 38.913 22.1501 40.2611 24.498 40.9586C25.5756 40.6361 26.8388 40.1723 28.1514 39.5338C27.421 38.2966 27 36.8546 27 35.314C27.0001 33.6443 27.4935 32.0903 28.3408 30.7877C28.3293 30.8054 28.318 30.8236 28.3066 30.8414C27.1786 30.3279 25.8402 29.9996 24.2793 29.9996ZM37.2002 32.9C37.5316 32.4584 38.1588 32.3686 38.6006 32.6998C39.042 33.0311 39.1308 33.6575 38.7998 34.0992L35.7998 38.0992C35.4923 38.5091 34.9248 38.6206 34.4854 38.357L31.9854 36.857C31.5121 36.5727 31.3585 35.9584 31.6426 35.4849C31.9268 35.0117 32.5412 34.8582 33.0146 35.1422L34.7412 36.1783L37.2002 32.9ZM25.0156 7.09626C24.3535 6.76281 23.5817 6.74464 22.915 7.04645C21.3124 7.77233 19.9005 8.55705 18.4775 9.34821C18.1741 9.51689 17.8699 9.68626 17.5635 9.85504C15.832 10.8086 14.0437 11.7417 11.9355 12.482C10.8446 12.8653 10.1195 13.8222 10.1191 14.856V24.8111C10.1193 29.32 11.8625 32.6516 14.25 35.1168C15.2581 32.4762 18.0995 27.9996 24.2793 27.9996C26.3766 27.9996 28.1534 28.4941 29.623 29.2545C29.5845 29.2907 29.5467 29.3278 29.5088 29.3648C31.0074 27.9023 33.0551 26.9996 35.3145 26.9996C36.1441 26.9996 36.9451 27.122 37.7012 27.3482C37.8161 26.5472 37.8789 25.7023 37.8789 24.8111V14.9586C37.8785 13.8946 37.1099 12.9152 35.9658 12.5504C33.8428 11.8733 32.046 10.979 30.3135 10.023C29.7232 9.69729 29.1481 9.36907 28.5723 9.04059C27.4339 8.39124 26.291 7.73872 25.0156 7.09626ZM24.5 14.9996C27.5371 14.9998 29.9996 17.4625 30 20.4996C29.9998 23.5368 27.5372 25.9993 24.5 25.9996C21.4626 25.9996 19.0002 23.537 19 20.4996C19.0004 17.4624 21.4627 14.9996 24.5 14.9996ZM24.5 16.9996C22.5673 16.9996 21.0004 18.5669 21 20.4996C21.0002 22.4324 22.5671 23.9996 24.5 23.9996C26.4327 23.9993 27.9998 22.4322 28 20.4996C27.9996 18.5671 26.4325 16.9998 24.5 16.9996ZM29.2158 40.9634C29.2446 40.9945 29.2745 41.0246 29.3037 41.0552C29.2744 41.0246 29.2446 40.9945 29.2158 40.9634Z" fill="#001F3E"/>
</svg>
