<svg width="48" height="48" viewBox="0 0 48 48" fill="none" xmlns="http://www.w3.org/2000/svg">
<path d="M16.122 5.24248C17.8359 5.19356 19.6578 5.87472 20.7597 7.4124L23.9823 11.9104L27.0673 7.42803C28.1274 5.88705 29.8923 5.19274 31.5653 5.24248C33.2382 5.29232 34.9546 6.09066 35.9032 7.69951C37.0794 9.69445 36.505 12.0249 34.829 13.4144C34.8349 13.415 34.8408 13.4157 34.8466 13.4163C38.2864 13.7698 40.7741 16.5793 41.0234 19.9495C41.077 20.6742 41.127 21.3982 41.1728 22.096C41.2487 23.2541 40.6957 24.2951 39.8183 24.9075C39.8185 24.9124 39.82 24.9172 39.8202 24.9222C39.8582 25.9335 39.8788 26.956 39.8788 27.9895C39.8788 30.6833 39.7409 33.2995 39.5107 35.8509C39.2042 39.2449 36.6177 42.0392 33.1679 42.3782C30.5045 42.6398 27.5244 42.7601 24.1073 42.7601H21.5986C21.5216 42.76 21.4469 42.7502 21.3749 42.7337C18.9886 42.6856 16.8265 42.5691 14.8398 42.3743C11.3899 42.0359 8.79801 39.2455 8.48918 35.8499C8.25729 33.2989 8.11906 30.683 8.11906 27.9895C8.11906 26.9559 8.13939 25.9336 8.17765 24.9222C8.17784 24.9173 8.17837 24.9124 8.17863 24.9075C7.30169 24.2951 6.74925 23.2538 6.82511 22.096C6.87084 21.3982 6.92093 20.6742 6.97453 19.9495C7.21536 16.6933 9.54581 13.9603 12.8056 13.4603C11.0377 12.0818 10.3942 9.72128 11.6454 7.68389C12.6333 6.07543 14.4086 5.29146 16.122 5.24248ZM10.163 25.4798C10.1365 26.3095 10.1191 27.1459 10.1191 27.9895C10.1191 30.6141 10.2542 33.1686 10.4814 35.6683C10.7083 38.165 12.5966 40.1449 15.0351 40.3841C17.6434 40.6398 20.5873 40.7601 23.9989 40.7601H24.1073C27.4796 40.7601 30.391 40.6405 32.9716 40.387C35.408 40.1477 37.294 38.1677 37.5194 35.6712C37.7451 33.1708 37.8788 30.6151 37.8788 27.9895C37.8788 27.1459 37.8621 26.3094 37.8359 25.4798H28.8398V31.68C28.8398 32.0373 28.6492 32.3676 28.3398 32.5462C28.0304 32.7247 27.6491 32.7248 27.3398 32.5462L24.0517 30.6448L20.6611 32.6058C20.3517 32.7846 19.9696 32.7844 19.6601 32.6058C19.3509 32.4272 19.1602 32.0975 19.1601 31.7405V25.4798H10.163ZM22.6298 14.9271C22.1404 14.9323 21.6499 14.9406 21.1601 14.9515V30.0071L23.2489 28.7991C23.5572 28.4482 24.08 28.3516 24.4999 28.594L26.8398 29.9466V14.9515C26.3493 14.9406 25.8581 14.9323 25.3681 14.9271L23.9989 14.9202L22.6298 14.9271ZM19.1601 15.014C17.1327 15.0926 15.1567 15.2206 13.3564 15.4056C10.9578 15.6521 9.15231 17.614 8.96867 20.097C8.91556 20.8151 8.86664 21.5335 8.82121 22.2269C8.77692 22.9027 9.31509 23.4796 10.0019 23.4798H19.1601V15.014ZM28.8398 23.4798H37.996C38.6829 23.4797 39.221 22.9028 39.1767 22.2269C39.1312 21.5335 39.0823 20.8151 39.0292 20.097C38.8456 17.6142 37.0409 15.6522 34.6425 15.4056C32.8425 15.2206 30.8667 15.0926 28.8398 15.014V23.4798ZM16.1796 7.2415C14.9922 7.27539 13.9139 7.81363 13.3505 8.73076C12.5925 9.96499 13.0861 11.6098 14.7987 12.3284L16.3935 12.9983C16.4797 13.0346 16.558 13.0816 16.6278 13.137C18.4554 13.025 20.3625 12.9572 22.2548 12.9319L19.1337 8.57744C18.4931 7.68356 17.3664 7.20772 16.1796 7.2415ZM31.5058 7.2415C30.394 7.20845 29.3274 7.67111 28.7148 8.56182L25.7079 12.9319C27.5105 12.9555 29.3271 13.0164 31.0761 13.1185C31.136 13.0738 31.202 13.0354 31.2734 13.0042L32.8046 12.3343C34.4147 11.6305 34.9267 9.98065 34.1806 8.71514C33.64 7.79854 32.6176 7.27462 31.5058 7.2415Z" fill="#001F3E"/>
</svg>
