<svg width="36" height="36" viewBox="0 0 36 36" fill="none" xmlns="http://www.w3.org/2000/svg">
<path fill-rule="evenodd" clip-rule="evenodd" d="M17.25 5.27169C10.5575 5.65991 5.25 11.2101 5.25 18C5.25 25.0416 10.9584 30.75 18 30.75C22.1648 30.75 25.8637 28.7536 28.1914 25.6627L17.5853 18.6249C17.3759 18.486 17.25 18.2513 17.25 18V5.27169ZM29.022 24.4136C30.1206 22.53 30.75 20.3394 30.75 18C30.75 12.8555 27.7031 8.42101 23.3122 6.40573C22.9357 6.23295 22.7706 5.7877 22.9434 5.41125C23.1161 5.03479 23.5614 4.86968 23.9378 5.04246C28.8418 7.29321 32.25 12.2478 32.25 18C32.25 20.9124 31.3755 23.6229 29.8745 25.8803C27.3229 29.7181 22.9573 32.25 18 32.25C10.1299 32.25 3.75 25.8701 3.75 18C3.75 10.1299 10.1299 3.75 18 3.75C18.4142 3.75 18.75 4.08579 18.75 4.5V17.5976L29.022 24.4136Z" fill="#0068FF"/>
</svg>
