<svg width="48" height="48" viewBox="0 0 48 48" fill="none" xmlns="http://www.w3.org/2000/svg">
<path fill-rule="evenodd" clip-rule="evenodd" d="M9.09277 22.166C10.9502 22.0513 12.8144 22.2239 14.6191 22.6777L19.5391 23.915C21.704 24.4594 23.2915 26.3079 23.502 28.5303L23.8955 32.6924L25.5791 32.9951L38.1592 30.0146C40.2721 29.514 42.414 30.7264 43.0713 32.7959C43.7271 34.8608 42.6835 37.083 40.6758 37.8975L30.2373 42.1318C25.5865 44.0185 20.3603 43.8882 15.8096 41.7715L5.57812 37.0127C5.22544 36.8486 5 36.4944 5 36.1055V23.3584C5.00009 22.8301 5.4112 22.3929 5.93848 22.3604L9.09277 22.166ZM14.1309 24.6172C12.5257 24.2136 10.8678 24.0601 9.21582 24.1621L7 24.2988V35.4678L16.6533 39.958C20.7008 41.8406 25.3488 41.9563 29.4854 40.2783L39.9248 36.0439C40.9646 35.6219 41.5047 34.4709 41.165 33.4014C40.8246 32.3295 39.7154 31.7009 38.6211 31.96L25.8369 34.9893C25.7034 35.0209 25.5648 35.0253 25.4297 35.001L22.8164 34.5293C22.8015 34.527 22.7862 34.5245 22.7715 34.5215L15.2959 33.1748C14.7524 33.0769 14.3913 32.5562 14.4893 32.0127C14.5873 31.4693 15.1069 31.1081 15.6504 31.2061L21.8525 32.3242L21.5107 28.7188C21.3801 27.3396 20.3952 26.1924 19.0518 25.8545L14.1309 24.6172Z" fill="#001F3E"/>
<path d="M32.4355 9.7998C32.9878 9.7998 33.4355 10.2475 33.4355 10.7998V11.3262C33.8978 11.4437 34.2873 11.6357 34.5918 11.8281C34.8695 12.0037 35.0853 12.1849 35.2344 12.3252C35.3093 12.3957 35.3689 12.4571 35.4121 12.5039C35.4337 12.5273 35.4512 12.5477 35.4648 12.5635L35.4824 12.584L35.4893 12.5918L35.4922 12.5947L35.4932 12.5967L35.4941 12.5977L35.5547 12.6797C35.8349 13.1022 35.755 13.6767 35.3545 14.0049C34.9299 14.3527 34.3043 14.2932 33.9531 13.873L33.9424 13.8604C33.9281 13.8448 33.9014 13.8172 33.8643 13.7822C33.7886 13.711 33.6727 13.6129 33.5234 13.5186C33.2243 13.3295 32.825 13.1733 32.3408 13.2188C31.3062 13.3161 30.9785 13.9311 30.9785 14.4297C30.9785 14.6727 31.0254 14.7978 31.0596 14.8604C31.0924 14.9203 31.1444 14.9792 31.2471 15.043C31.5074 15.2046 31.9013 15.2953 32.5488 15.4268L32.6084 15.4395C33.1504 15.5491 33.9106 15.7027 34.5205 16.0947C34.8629 16.3148 35.1779 16.6188 35.4004 17.0381C35.6211 17.4541 35.7207 17.927 35.7207 18.4424C35.7207 19.1893 35.3495 19.8076 34.8789 20.2432C34.4795 20.6127 33.976 20.8861 33.4355 21.0557V21.6572C33.4353 22.2093 32.9877 22.6572 32.4355 22.6572C31.8834 22.6572 31.4358 22.2093 31.4355 21.6572V21.2148C30.5818 21.0918 29.7172 20.7149 28.9941 19.9922C28.6037 19.6017 28.6038 18.9687 28.9941 18.5781C29.3846 18.1877 30.0176 18.1878 30.4082 18.5781C31.057 19.2265 31.9356 19.3706 32.6797 19.1914C33.0519 19.1017 33.3417 18.9408 33.5205 18.7754C33.6981 18.6111 33.7207 18.4915 33.7207 18.4424C33.7207 18.1861 33.6724 18.0484 33.6338 17.9756C33.597 17.9063 33.5413 17.8429 33.4395 17.7773C33.1831 17.6126 32.791 17.5168 32.1504 17.3867L32.0645 17.3701C31.5306 17.2625 30.7883 17.1123 30.1924 16.7422C29.8507 16.53 29.5312 16.2337 29.3047 15.8193C29.0797 15.4077 28.9785 14.9391 28.9785 14.4297C28.9785 13.0588 29.8582 11.781 31.4355 11.3555V10.7998C31.4355 10.2475 31.8833 9.7998 32.4355 9.7998Z" fill="#001F3E"/>
<path fill-rule="evenodd" clip-rule="evenodd" d="M32.1445 5C38.4958 5 43.6445 10.1487 43.6445 16.5C43.6445 22.8512 38.4958 28 32.1445 28C25.7933 28 20.6446 22.8512 20.6445 16.5C20.6445 10.1487 25.7933 5 32.1445 5ZM32.1445 7C26.8978 7 22.6445 11.2533 22.6445 16.5C22.6446 21.7467 26.8979 26 32.1445 26C37.3912 26 41.6445 21.7467 41.6445 16.5C41.6445 11.2533 37.3912 7 32.1445 7Z" fill="#001F3E"/>
</svg>
