<svg width="48" height="48" viewBox="0 0 48 48" fill="none" xmlns="http://www.w3.org/2000/svg">
<path d="M23.8926 26.3213C23.9284 26.3213 23.9641 26.3225 23.999 26.3262C24.8554 26.3811 25.533 27.0917 25.5332 27.9619C25.5332 28.8681 24.7988 29.6035 23.8926 29.6035L23.7246 29.5947C22.8974 29.5105 22.252 28.8113 22.252 27.9619C22.2521 27.0921 22.9293 26.3816 23.7852 26.3262C23.8204 26.3224 23.8563 26.3213 23.8926 26.3213Z" fill="#001F3E"/>
<path d="M19 16.8936C19 13.8445 21.8592 11.4981 24.8496 12.0928C26.7574 12.4723 28.3168 14.0307 28.6963 15.9385C28.8866 16.8955 28.7724 17.7819 28.3711 18.5713C27.9787 19.3431 27.3474 19.9525 26.6143 20.4424C25.9071 20.9149 25.4599 21.2348 25.1797 21.5264C24.9366 21.7793 24.8945 21.9324 24.8945 22.0869V23.5C24.8945 24.0523 24.4468 24.5 23.8945 24.5C23.3424 24.4998 22.8945 24.0521 22.8945 23.5V22.0869C22.8945 21.2789 23.2447 20.6542 23.7383 20.1406C24.1947 19.6658 24.8294 19.2294 25.5029 18.7793C26.0506 18.4134 26.3983 18.0399 26.5889 17.665C26.7705 17.3076 26.8446 16.8821 26.7344 16.3281C26.5126 15.2139 25.5742 14.2754 24.46 14.0537C22.7065 13.7049 21 15.1057 21 16.8936C20.9999 17.4457 20.5522 17.8936 20 17.8936C19.4478 17.8936 19.0001 17.4457 19 16.8936Z" fill="#001F3E"/>
<path fill-rule="evenodd" clip-rule="evenodd" d="M24 5C28.3613 5 32.562 5.24571 36.6553 5.66895C39.5378 5.96712 41.9032 8.1461 42.3174 11.0498C42.7515 14.0927 43 17.2627 43 20.4951C43 23.7077 42.7274 26.8238 42.3018 29.8389C41.8858 32.7851 39.4924 35.0191 36.5566 35.3174C32.5521 35.7241 28.4173 35.9845 24.1445 35.9902C21.1727 39.3452 18.7642 41.0946 14.7178 42.9121C14.4085 43.051 14.0494 43.024 13.7646 42.8398C13.4799 42.6556 13.3076 42.3392 13.3076 42V35.3691C12.9561 35.3366 12.6054 35.303 12.2568 35.2705L11.6348 35.2129C8.64634 34.9348 6.0703 32.7382 5.64355 29.6738C5.22983 26.7019 5 23.6439 5 20.4951C5 17.2393 5.23027 14.0337 5.67383 10.9619C6.08728 8.09866 8.42022 5.96025 11.2588 5.66211C15.3524 5.23214 19.6281 5 24 5ZM24 7C19.6983 7 15.4923 7.22769 11.4678 7.65039C9.50097 7.85697 7.93065 9.3282 7.65332 11.2471C7.22376 14.2219 7 17.3325 7 20.4951C7 23.5459 7.2232 26.5111 7.625 29.3975C7.91109 31.4525 9.66122 33.0207 11.8193 33.2217L12.4434 33.2793C13.092 33.3399 13.743 33.4008 14.3975 33.46C14.9127 33.5066 15.3076 33.9387 15.3076 34.4561V40.4219C18.3798 38.8893 20.3809 37.2748 22.9375 34.334C23.1285 34.1143 23.4062 33.9879 23.6973 33.9893C23.7981 33.9897 23.899 33.9902 24 33.9902C28.2437 33.9902 32.3575 33.7341 36.3545 33.3281C38.3992 33.1204 40.0384 31.5703 40.3223 29.5596C40.7378 26.616 41 23.5951 41 20.4951C41 17.3645 40.7597 14.289 40.3379 11.332C40.0582 9.37163 38.454 7.8655 36.4492 7.6582C32.417 7.24127 28.2855 7 24 7Z" fill="#001F3E"/>
</svg>
