<svg width="48" height="48" viewBox="0 0 48 48" fill="none" xmlns="http://www.w3.org/2000/svg">
<path d="M7.38916 31.4243C7.93837 31.3676 8.42987 31.7667 8.48682 32.3159C8.59 33.3153 8.70129 34.3072 8.81201 35.2934C9.05376 37.4456 10.7746 39.1676 12.9302 39.4174C12.9941 39.4248 13.0586 39.4325 13.1226 39.4399C14.0523 39.5477 14.986 39.6559 15.9272 39.7573C16.4764 39.8164 16.8741 40.3097 16.8149 40.8588C16.7557 41.4078 16.2623 41.8046 15.7134 41.7456C14.7635 41.6432 13.8213 41.5338 12.8931 41.4262C12.8286 41.4188 12.764 41.4122 12.6997 41.4047C9.62353 41.0481 7.17068 38.5977 6.82471 35.5161C6.71411 34.531 6.60179 33.5314 6.49756 32.5219C6.44084 31.9726 6.83987 31.4811 7.38916 31.4243Z" fill="#001F3E"/>
<path d="M40.646 31.4243C41.1953 31.4811 41.5943 31.9726 41.5376 32.5219C41.4334 33.5314 41.321 34.531 41.2104 35.5161C40.8645 38.5977 38.4116 41.0481 35.3354 41.4047C35.2712 41.4122 35.2065 41.4188 35.1421 41.4262C34.2138 41.5338 33.2716 41.6432 32.3218 41.7456C31.7728 41.8046 31.2794 41.4078 31.2202 40.8588C31.1611 40.3097 31.5588 39.8164 32.1079 39.7573C33.0492 39.6559 33.9829 39.5477 34.9126 39.4399C34.9766 39.4325 35.041 39.4248 35.105 39.4174C37.2605 39.1676 38.9814 37.4456 39.2231 35.2934C39.3339 34.3072 39.4452 33.3153 39.5483 32.3159C39.6053 31.7667 40.0968 31.3676 40.646 31.4243Z" fill="#001F3E"/>
<path d="M14.7417 29.2719C15.294 29.2719 15.7417 29.7196 15.7417 30.2719V33.4379H18.8315C19.3838 33.4379 19.8315 33.8857 19.8315 34.4379C19.8314 34.9901 19.3837 35.4379 18.8315 35.4379H14.7417C14.1897 35.4377 13.7418 34.9899 13.7417 34.4379V30.2719C13.7417 29.7198 14.1896 29.2722 14.7417 29.2719Z" fill="#001F3E"/>
<path d="M34.0952 29.2709C34.6474 29.2709 35.095 29.7189 35.0952 30.2709V34.4379C35.095 34.9901 34.6474 35.4379 34.0952 35.4379C33.5433 35.4377 33.0954 34.9899 33.0952 34.4379V31.2709H30.0063C29.4541 31.2709 29.0063 30.8232 29.0063 30.2709C29.0066 29.7189 29.4542 29.2709 30.0063 29.2709H34.0952Z" fill="#001F3E"/>
<path d="M23.8354 29.31C24.3877 29.31 24.8354 29.7577 24.8354 30.31V34.3989C24.8354 34.9512 24.3877 35.3989 23.8354 35.3989C23.2834 35.3986 22.8354 34.951 22.8354 34.3989V30.31C22.8354 29.7579 23.2834 29.3103 23.8354 29.31Z" fill="#001F3E"/>
<path d="M34.1694 23.1752C34.7217 23.1752 35.1694 23.623 35.1694 24.1752C35.1694 24.7275 34.7217 25.1752 34.1694 25.1752H30.0806C29.5283 25.1752 29.0806 24.7275 29.0806 24.1752C29.0806 23.623 29.5283 23.1752 30.0806 23.1752H34.1694Z" fill="#001F3E"/>
<path fill-rule="evenodd" clip-rule="evenodd" d="M18.8315 13.0424C19.6861 13.0424 20.5153 13.1121 21.2993 13.1958C23.0765 13.3854 24.508 14.8149 24.6899 16.5971C24.7695 17.3767 24.8345 18.1988 24.8345 19.0454C24.8345 19.892 24.7695 20.714 24.6899 21.4936C24.508 23.2759 23.0765 24.7053 21.2993 24.895C20.5153 24.9786 19.6861 25.0483 18.8315 25.0483C17.9768 25.0483 17.1469 24.9787 16.3628 24.895C14.5857 24.7053 13.1551 23.2758 12.9731 21.4936C12.8936 20.714 12.8276 19.892 12.8276 19.0454C12.8276 18.1987 12.8936 17.3767 12.9731 16.5971C13.1551 14.8149 14.5857 13.3855 16.3628 13.1958C17.1469 13.1121 17.9768 13.0424 18.8315 13.0424ZM18.8315 15.0424C18.0812 15.0424 17.3323 15.1042 16.5747 15.185C15.7335 15.275 15.0479 15.9628 14.9624 16.8002C14.8856 17.5524 14.8276 18.2976 14.8276 19.0454C14.8276 19.7932 14.8856 20.5383 14.9624 21.2905C15.0479 22.1279 15.7335 22.8157 16.5747 22.9057C17.3323 22.9866 18.0812 23.0483 18.8315 23.0483C19.5818 23.0483 20.3299 22.9866 21.0874 22.9057C21.9288 22.8159 22.6142 22.128 22.6997 21.2905C22.7765 20.5383 22.8345 19.7932 22.8345 19.0454C22.8345 18.2975 22.7765 17.5525 22.6997 16.8002C22.6142 15.9627 21.9288 15.2748 21.0874 15.185C20.3299 15.1042 19.5818 15.0424 18.8315 15.0424Z" fill="#001F3E"/>
<path d="M34.0952 13.8793C34.6475 13.8793 35.0952 14.3271 35.0952 14.8793V19.0454C35.0952 19.5976 34.6475 20.0454 34.0952 20.0454C33.5432 20.0451 33.0952 19.5975 33.0952 19.0454V15.8793H30.0063C29.4541 15.8793 29.0065 15.4315 29.0063 14.8793C29.0063 14.3271 29.4541 13.8793 30.0063 13.8793H34.0952Z" fill="#001F3E"/>
<path d="M15.7134 6.72798C16.2623 6.66899 16.7556 7.06584 16.8149 7.6147C16.8741 8.16381 16.4764 8.65711 15.9272 8.71626C14.986 8.81765 14.0523 8.92585 13.1226 9.03364C13.0586 9.04106 12.9941 9.04869 12.9302 9.05611C10.7747 9.30593 9.05384 11.028 8.81201 13.1801C8.70129 14.1663 8.59 15.1583 8.48682 16.1577C8.42996 16.7069 7.93843 17.106 7.38916 17.0493C6.83988 16.9925 6.44084 16.5009 6.49756 15.9516C6.60179 14.9421 6.71411 13.9425 6.82471 12.9575C7.17068 9.87582 9.62357 7.42642 12.6997 7.06978C12.764 7.06232 12.8286 7.05479 12.8931 7.04732C13.8213 6.93969 14.7635 6.8303 15.7134 6.72798Z" fill="#001F3E"/>
<path d="M32.3218 6.72798C33.2716 6.8303 34.2138 6.93969 35.1421 7.04732C35.2065 7.05479 35.2712 7.06233 35.3354 7.06978C38.4116 7.42643 40.8645 9.87583 41.2104 12.9575C41.321 13.9425 41.4334 14.9421 41.5376 15.9516C41.5943 16.5009 41.1953 16.9925 40.646 17.0493C40.0967 17.106 39.6052 16.7069 39.5483 16.1577C39.4452 15.1583 39.3339 14.1663 39.2231 13.1801C38.9813 11.028 37.2605 9.30594 35.105 9.05611C35.041 9.04869 34.9766 9.04106 34.9126 9.03364C33.9829 8.92585 33.0492 8.81765 32.1079 8.71626C31.5588 8.65711 31.1611 8.16381 31.2202 7.6147C31.2795 7.06584 31.7729 6.66898 32.3218 6.72798Z" fill="#001F3E"/>
</svg>
