<svg width="48" height="48" viewBox="0 0 48 48" fill="none" xmlns="http://www.w3.org/2000/svg">
<path d="M34.7984 30.4053C35.3505 30.4053 35.7981 30.8532 35.7984 31.4053V33.1309H37.48C38.0323 33.1309 38.48 33.5786 38.48 34.1309C38.4798 34.683 38.0322 35.1309 37.48 35.1309H35.7984V36.8105C35.7984 37.3628 35.3506 37.8105 34.7984 37.8105C34.2463 37.8103 33.7984 37.3627 33.7984 36.8105V35.1309H32.0513C31.4991 35.1309 31.0515 34.683 31.0513 34.1309C31.0513 33.5786 31.499 33.1309 32.0513 33.1309H33.7984V31.4053C33.7986 30.8533 34.2464 30.4055 34.7984 30.4053Z" fill="#001F3E"/>
<path fill-rule="evenodd" clip-rule="evenodd" d="M34.7652 25.9512C39.2631 25.9512 42.9096 29.5978 42.9097 34.0957C42.9097 38.5937 39.2631 42.2402 34.7652 42.2402C30.2673 42.2401 26.6206 38.5936 26.6206 34.0957C26.6207 29.5979 30.2673 25.9513 34.7652 25.9512ZM34.7652 27.9512C31.3719 27.9513 28.6207 30.7024 28.6206 34.0957C28.6206 37.489 31.3719 40.2401 34.7652 40.2402C38.1585 40.2402 40.9097 37.4891 40.9097 34.0957C40.9096 30.7024 38.1585 27.9512 34.7652 27.9512Z" fill="#001F3E"/>
<path fill-rule="evenodd" clip-rule="evenodd" d="M23.9995 8.12012C28.2013 8.12012 32.3019 8.4325 36.2154 8.73047C36.7667 8.77245 37.3143 8.81399 37.8579 8.85449C40.1554 9.02564 42.0801 10.7799 42.3179 13.124C42.4967 14.8875 42.6217 16.6093 42.6919 18.3145C42.7825 20.5144 42.7825 22.6858 42.6919 24.8857C42.6692 25.4374 42.2035 25.8663 41.6519 25.8438C41.1001 25.821 40.6711 25.3555 40.6939 24.8037C40.769 22.9787 40.7798 21.1743 40.7271 19.3555H7.272C7.17127 22.8305 7.30458 26.2551 7.67141 29.874C7.80598 31.2006 8.90747 32.2492 10.2945 32.3594C10.9299 32.4098 11.5604 32.4619 12.189 32.5137C15.3749 32.7762 18.5204 33.0353 22.1001 33.0801C22.6521 33.0872 23.0943 33.5407 23.0874 34.0928C23.0804 34.6449 22.6269 35.0869 22.0747 35.0801C18.4194 35.0344 15.1969 34.7687 12.0093 34.5059C11.3848 34.4544 10.7611 34.4031 10.1363 34.3535C7.84426 34.1715 5.91889 32.4204 5.68118 30.0752C5.27169 26.0353 5.14726 22.221 5.30813 18.3145C5.37835 16.6093 5.50242 14.8875 5.68118 13.124C5.91896 10.7801 7.84386 9.02584 10.1411 8.85449C10.6848 8.81399 11.2333 8.77245 11.7847 8.73047C15.6979 8.43251 19.7979 8.12013 23.9995 8.12012ZM23.9995 10.1201C19.8796 10.1201 15.8602 10.4264 11.9409 10.7246C11.389 10.7666 10.8385 10.8078 10.2906 10.8486C8.90756 10.9517 7.80599 11.9985 7.67141 13.3262C7.53286 14.693 7.42773 16.0317 7.35598 17.3555H40.6441C40.5723 16.0318 40.4672 14.6929 40.3286 13.3262C40.1941 11.9985 39.0924 10.9517 37.7095 10.8486C37.1614 10.8078 36.6112 10.7666 36.0591 10.7246C32.1396 10.4264 28.1197 10.1201 23.9995 10.1201Z" fill="#001F3E"/>
<path d="M18.2046 26.5801C18.7568 26.5801 19.2044 27.028 19.2046 27.5801C19.2046 28.1324 18.7569 28.5801 18.2046 28.5801H12.7749C12.2229 28.5798 11.7749 28.1322 11.7749 27.5801C11.7751 27.0281 12.223 26.5803 12.7749 26.5801H18.2046Z" fill="#001F3E"/>
</svg>
