<svg width="36" height="36" viewBox="0 0 36 36" fill="none" xmlns="http://www.w3.org/2000/svg">
<path d="M27.9004 24.6746C28.149 24.3435 28.6189 24.2768 28.9502 24.5252C29.2813 24.7737 29.3489 25.2437 29.1006 25.575L26.8506 28.575C26.62 28.8824 26.1938 28.966 25.8643 28.7684L23.9893 27.6434C23.6341 27.4303 23.5193 26.9693 23.7324 26.6141C23.9455 26.2592 24.4057 26.1435 24.7607 26.3563L26.0557 27.1336L27.9004 24.6746Z" fill="#0068FF"/>
<path fill-rule="evenodd" clip-rule="evenodd" d="M18.375 11.2498C20.653 11.2498 22.4997 13.0969 22.5 15.3748C22.4998 17.6528 20.6531 19.4998 18.375 19.4998C16.0969 19.4998 14.2502 17.6528 14.25 15.3748C14.2503 13.0969 16.097 11.2498 18.375 11.2498ZM18.375 12.7498C16.9254 12.7498 15.7503 13.9253 15.75 15.3748C15.7502 16.8244 16.9254 17.9998 18.375 17.9998C19.8246 17.9998 20.9998 16.8244 21 15.3748C20.9997 13.9253 19.8246 12.7498 18.375 12.7498Z" fill="#0068FF"/>
<path fill-rule="evenodd" clip-rule="evenodd" d="M16.5674 3.91877C17.487 3.50227 18.5413 3.53233 19.4365 3.98322C20.4261 4.48173 21.3448 5.00543 22.2188 5.50373C22.6419 5.74499 23.0554 5.98016 23.4609 6.20392C24.7228 6.90018 25.9725 7.5192 27.4307 7.9842C28.8103 8.42419 29.9101 9.6688 29.9102 11.2195V18.6082C29.9101 19.5042 29.8336 20.3465 29.6953 21.1385C31.5084 22.2291 32.7215 24.2154 32.7217 26.4852C32.7217 29.929 29.9292 32.7215 26.4854 32.7215C24.7385 32.7214 23.1603 32.0021 22.0283 30.8445C22.034 30.8503 22.0393 30.8564 22.0449 30.8621C20.7782 31.504 19.5637 31.9405 18.5811 32.2215C18.4465 32.26 18.3035 32.2599 18.1689 32.2215C16.2584 31.6752 13.262 30.5425 10.7305 28.4217C8.17866 26.2839 6.08994 23.1288 6.08984 18.6082V11.1424C6.09001 9.64062 7.12482 8.41337 8.45508 7.94611C9.91512 7.43337 11.1682 6.78346 12.4492 6.07795C12.669 5.95689 12.8908 5.8331 13.1143 5.7088C14.1834 5.11419 15.3042 4.4909 16.5674 3.91877ZM26.4854 21.7498C23.8702 21.75 21.7502 23.87 21.75 26.4852C21.75 29.1005 23.8701 31.2213 26.4854 31.2215C29.1008 31.2215 31.2217 29.1006 31.2217 26.4852C31.2215 23.8699 29.1007 21.7498 26.4854 21.7498ZM21.2295 23.1287C20.3838 22.744 19.3799 22.4999 18.21 22.4998C14.1933 22.4998 12.4797 25.5983 11.9658 27.2264C11.944 27.2952 11.9092 27.3566 11.8711 27.4139C14.0537 29.1835 16.6123 30.1952 18.374 30.7186C19.1818 30.4768 20.1283 30.1286 21.1123 29.6502C21.1152 29.6551 21.1182 29.66 21.1211 29.6649C20.5681 28.7337 20.25 27.6466 20.25 26.4852C20.2501 25.2495 20.6094 24.0976 21.2295 23.1287ZM18.7617 5.32306C18.2651 5.07292 17.6866 5.05852 17.1865 5.28498C15.9846 5.82935 14.9266 6.4182 13.8594 7.01154C13.6317 7.13812 13.4028 7.26476 13.1729 7.39142C11.8743 8.10662 10.5332 8.8059 8.95215 9.36115C8.13372 9.64861 7.59001 10.3668 7.58984 11.1424V18.6082C7.58993 21.9895 8.89908 24.486 10.6895 26.3348C11.4466 24.354 13.5775 20.9998 18.21 20.9998C19.7829 20.9999 21.1156 21.3699 22.2178 21.9403C22.2099 21.9476 22.2022 21.9553 22.1943 21.9627C23.3122 20.9017 24.8224 20.2499 26.4854 20.2498C27.1072 20.2498 27.7077 20.3411 28.2744 20.5106C28.3608 19.9099 28.4101 19.2767 28.4102 18.6082V11.2195C28.4101 10.4214 27.8328 9.6876 26.9746 9.41388C25.3825 8.90616 24.0356 8.23429 22.7363 7.5174C22.2935 7.27306 21.8617 7.0265 21.4297 6.78009C20.5759 6.29307 19.7183 5.80492 18.7617 5.32306Z" fill="#0068FF"/>
</svg>
