<svg width="40" height="40" viewBox="0 0 40 40" fill="none" xmlns="http://www.w3.org/2000/svg">
<g clip-path="url(#clip0_1_5744)">
<rect width="40" height="40" fill="white"/>
<path d="M39.2129 11.449C40.2624 17.0781 40.2624 22.8026 39.2129 28.5271C38.2588 33.9654 33.9654 38.2588 28.5271 39.2129C22.898 40.2624 17.1735 40.2624 11.449 39.2129C6.01073 38.2588 1.81276 34.0608 0.858676 28.6225C-0.286225 22.9934 -0.286225 17.1735 0.858676 11.449C1.81276 6.01073 6.01073 1.81276 11.449 0.858676C17.0781 -0.286225 22.898 -0.286225 28.6225 0.858676C34.0608 1.81276 38.2588 6.01073 39.2129 11.449Z" fill="white"/>
<path fill-rule="evenodd" clip-rule="evenodd" d="M38.2279 11.6218L38.2279 11.6218C37.3466 6.59823 33.4733 2.72496 28.4497 1.84363L28.4381 1.84158L28.4264 1.83926C22.8303 0.720026 17.1448 0.720683 11.6483 1.83861L11.6351 1.8413L11.6218 1.84363C6.59823 2.72496 2.72496 6.59823 1.84363 11.6218L1.84158 11.6335L1.83926 11.6451C0.720026 17.2413 0.720683 22.9267 1.83861 28.4232L1.8413 28.4365L1.84363 28.4497C2.72496 33.4733 6.59823 37.3466 11.6218 38.2279L11.6293 38.2292C17.2356 39.2571 22.8369 39.2565 28.3438 38.2298L28.3543 38.2279L28.3543 38.2279C33.3779 37.3466 37.3466 33.3779 38.2279 28.3543L38.2292 28.3468C39.2571 22.7405 39.2565 17.1393 38.2298 11.6323L38.2279 11.6218ZM28.5271 39.2129C33.9654 38.2588 38.2588 33.9654 39.2129 28.5271C40.2624 22.8026 40.2624 17.0781 39.2129 11.449C38.2588 6.01073 34.0608 1.81276 28.6225 0.858676C22.898 -0.286225 17.0781 -0.286225 11.449 0.858676C6.01073 1.81276 1.81276 6.01073 0.858676 11.449C-0.286225 17.1735 -0.286225 22.9934 0.858676 28.6225C1.81276 34.0608 6.01073 38.2588 11.449 39.2129C17.1735 40.2624 22.898 40.2624 28.5271 39.2129Z" fill="url(#paint0_linear_1_5744)"/>
<path fill-rule="evenodd" clip-rule="evenodd" d="M28.1605 29.8285C28.5917 29.7843 29.0218 29.7402 29.451 29.6978C29.8156 29.6618 30.1176 29.3729 30.1681 28.9991C30.1866 28.8622 30.2053 28.7256 30.2239 28.5893C30.4307 27.0746 30.6328 25.5935 30.6039 24.0844C30.5749 22.5745 30.3238 21.1498 30.0666 19.6911C29.9539 19.0516 29.8401 18.4056 29.7433 17.743C29.6634 17.1966 30.0417 16.6888 30.5882 16.609C31.1347 16.5291 31.6424 16.9074 31.7223 17.4539C31.8018 17.9981 31.9034 18.5758 32.0092 19.1775C32.2768 20.6987 32.5714 22.3731 32.6035 24.046C32.6356 25.7188 32.4121 27.3517 32.208 28.8422C32.1884 28.9852 32.169 29.1269 32.1501 29.2672C31.9767 30.5487 30.9452 31.5601 29.6475 31.6882C29.234 31.729 28.8147 31.772 28.3902 31.8156C26.3444 32.0257 24.1778 32.2482 21.9598 32.2908C19.7416 32.3334 17.5667 32.1941 15.5133 32.0627C15.0519 32.0331 14.5967 32.004 14.1485 31.9774C12.9319 31.9051 11.8636 31.0371 11.6299 29.7875C11.5886 29.5671 11.5466 29.332 11.507 29.0938C11.4166 28.549 11.785 28.034 12.3298 27.9436C12.8746 27.8531 13.3896 28.2215 13.48 28.7663C13.5169 28.9886 13.5565 29.21 13.5958 29.4198C13.6511 29.7156 13.9142 29.9599 14.267 29.9809C14.7342 30.0086 15.2024 30.0385 15.6718 30.0685C17.7208 30.1995 19.7946 30.332 21.9214 30.2912C24.0484 30.2504 26.1169 30.0382 28.1605 29.8285Z" fill="#0033C9"/>
<path fill-rule="evenodd" clip-rule="evenodd" d="M9.46026 17.2952C9.18002 17.626 8.90052 17.956 8.62039 18.2841C8.38259 18.5626 8.36507 18.9801 8.5876 19.2848C8.66708 19.3936 8.74625 19.5022 8.82526 19.6107C9.72093 20.8399 10.5961 22.041 11.6569 23.1018C12.7176 24.1625 13.9187 25.0377 15.148 25.9334C15.2564 26.0124 15.3651 26.0915 15.4739 26.171C15.7785 26.3935 16.196 26.376 16.4745 26.1382C16.8027 25.8581 17.1326 25.5786 17.4634 25.2983C19.0309 23.9705 20.6176 22.6263 22.122 21.1219C23.6265 19.6174 24.9707 18.0307 26.2985 16.4632C26.5788 16.1324 26.8583 15.8025 27.1384 15.4744C27.3762 15.1958 27.3937 14.7784 27.1712 14.4737C27.0917 14.3649 27.0125 14.2562 26.9335 14.1478C26.0378 12.9185 25.1627 11.7175 24.1019 10.6567C23.0412 9.59592 21.8401 8.72078 20.6108 7.82511C20.5024 7.7461 20.3937 7.66692 20.2849 7.58745C19.9803 7.36492 19.5628 7.38244 19.2843 7.62023C18.9561 7.90036 18.6262 8.17987 18.2954 8.4601C16.7279 9.78795 15.1412 11.1321 13.6368 12.6366C12.1323 14.141 10.7881 15.7278 9.46026 17.2952ZM7.91761 16.0219C9.24665 14.4526 10.654 12.7909 12.2225 11.2224C13.791 9.65388 15.4528 8.24649 17.022 6.91746C17.3478 6.64156 17.6695 6.36904 17.9857 6.09915C18.9772 5.25266 20.4207 5.20993 21.4646 5.97242C21.5765 6.05416 21.6897 6.13655 21.8039 6.2197C23.0133 7.10019 24.339 8.06537 25.5161 9.24248C26.6932 10.4196 27.6584 11.7453 28.5389 12.9547C28.6221 13.0689 28.7045 13.1821 28.7862 13.294C29.5487 14.3379 29.506 15.7814 28.6595 16.773C28.3896 17.0891 28.1171 17.4109 27.8412 17.7366C26.5121 19.3058 25.1047 20.9676 23.5362 22.5361C21.9678 24.1046 20.306 25.512 18.7368 26.841C18.411 27.1169 18.0892 27.3894 17.7731 27.6593C16.7816 28.5058 15.338 28.5485 14.2942 27.786C14.1823 27.7043 14.0691 27.6219 13.9549 27.5388C12.7455 26.6583 11.4197 25.6931 10.2426 24.516C9.06553 23.3389 8.10034 22.0131 7.21985 20.8037C7.1367 20.6895 7.05431 20.5764 6.97257 20.4645C6.21009 19.4206 6.25282 17.977 7.09931 16.9855C7.3692 16.6694 7.64172 16.3476 7.91761 16.0219Z" fill="#0033C9"/>
<path d="M14.8997 14.1431C14.8062 13.7422 15.166 13.3824 15.5669 13.4759L17.5664 13.9422C17.7075 13.9751 17.8558 13.9516 17.9798 13.8768L19.7373 12.8154C20.0898 12.6025 20.5431 12.8335 20.5781 13.2437L20.7524 15.2895C20.7647 15.4338 20.8329 15.5676 20.9425 15.6624L22.495 17.0059C22.8063 17.2753 22.7267 17.7779 22.3474 17.9379L20.4557 18.7359C20.3222 18.7922 20.216 18.8984 20.1597 19.0319L19.3617 20.9236C19.2017 21.3029 18.6991 21.3825 18.4297 21.0712L17.0862 19.5187C16.9914 19.4091 16.8576 19.341 16.7133 19.3287L14.6675 19.1543C14.2573 19.1193 14.0263 18.666 14.2392 18.3135L15.3006 16.556C15.3754 16.432 15.3989 16.2837 15.366 16.1426L14.8997 14.1431Z" fill="#00CF6A"/>
</g>
<defs>
<linearGradient id="paint0_linear_1_5744" x1="-2.81746e-08" y1="8.19672" x2="40.9761" y2="9.50848" gradientUnits="userSpaceOnUse">
<stop stop-color="#F0F6FF"/>
<stop offset="0.635417" stop-color="#E8F0FD"/>
<stop offset="1" stop-color="#EEF4FE"/>
</linearGradient>
<clipPath id="clip0_1_5744">
<rect width="40" height="40" fill="white"/>
</clipPath>
</defs>
</svg>
