<svg width="40" height="40" viewBox="0 0 40 40" fill="none" xmlns="http://www.w3.org/2000/svg">
<g clip-path="url(#clip0_1_5758)">
<rect width="40" height="40" fill="white"/>
<path d="M39.2129 11.449C40.2624 17.0781 40.2624 22.8026 39.2129 28.5271C38.2588 33.9654 33.9654 38.2588 28.5271 39.2129C22.898 40.2624 17.1735 40.2624 11.449 39.2129C6.01073 38.2588 1.81276 34.0608 0.858676 28.6225C-0.286225 22.9934 -0.286225 17.1735 0.858676 11.449C1.81276 6.01073 6.01073 1.81276 11.449 0.858676C17.0781 -0.286225 22.898 -0.286225 28.6225 0.858676C34.0608 1.81276 38.2588 6.01073 39.2129 11.449Z" fill="white"/>
<path fill-rule="evenodd" clip-rule="evenodd" d="M38.2279 11.6218L38.2279 11.6218C37.3466 6.59823 33.4733 2.72496 28.4497 1.84363L28.4381 1.84158L28.4264 1.83926C22.8303 0.720026 17.1448 0.720683 11.6483 1.83861L11.6351 1.8413L11.6218 1.84363C6.59823 2.72496 2.72496 6.59823 1.84363 11.6218L1.84158 11.6335L1.83926 11.6451C0.720026 17.2413 0.720683 22.9267 1.83861 28.4232L1.8413 28.4365L1.84363 28.4497C2.72496 33.4733 6.59823 37.3466 11.6218 38.2279L11.6293 38.2292C17.2356 39.2571 22.8369 39.2565 28.3438 38.2298L28.3543 38.2279L28.3543 38.2279C33.3779 37.3466 37.3466 33.3779 38.2279 28.3543L38.2292 28.3468C39.2571 22.7405 39.2565 17.1393 38.2298 11.6323L38.2279 11.6218ZM28.5271 39.2129C33.9654 38.2588 38.2588 33.9654 39.2129 28.5271C40.2624 22.8026 40.2624 17.0781 39.2129 11.449C38.2588 6.01073 34.0608 1.81276 28.6225 0.858676C22.898 -0.286225 17.0781 -0.286225 11.449 0.858676C6.01073 1.81276 1.81276 6.01073 0.858676 11.449C-0.286225 17.1735 -0.286225 22.9934 0.858676 28.6225C1.81276 34.0608 6.01073 38.2588 11.449 39.2129C17.1735 40.2624 22.898 40.2624 28.5271 39.2129Z" fill="url(#paint0_linear_1_5758)"/>
<path fill-rule="evenodd" clip-rule="evenodd" d="M9.1582 7.75342C9.71049 7.75342 10.1582 8.20113 10.1582 8.75342V27.6475C10.1582 29.0828 11.3218 30.2464 12.7571 30.2464H31.6512C32.2035 30.2464 32.6512 30.6941 32.6512 31.2464C32.6512 31.7987 32.2035 32.2464 31.6512 32.2464H12.7571C10.2172 32.2464 8.1582 30.1874 8.1582 27.6475V8.75342C8.1582 8.20113 8.60592 7.75342 9.1582 7.75342Z" fill="#0033C9"/>
<path fill-rule="evenodd" clip-rule="evenodd" d="M23.7615 10.9323C24.0537 10.8591 24.3634 10.9216 24.6044 11.1024L31.8021 16.5007C32.244 16.832 32.3335 17.4588 32.0021 17.9007C31.6708 18.3425 31.044 18.432 30.6021 18.1007L24.3897 13.4413L18.6125 25.821C18.4851 26.094 18.2415 26.295 17.9492 26.3682C17.657 26.4414 17.3474 26.3789 17.1064 26.1981L13.5075 23.499C13.0657 23.1676 12.9761 22.5408 13.3075 22.099C13.6389 21.6572 14.2657 21.5676 14.7075 21.899L17.321 23.8591L23.0982 11.4795C23.2256 11.2065 23.4693 11.0055 23.7615 10.9323Z" fill="#00CF6A"/>
</g>
<defs>
<linearGradient id="paint0_linear_1_5758" x1="-2.81746e-08" y1="8.19672" x2="40.9761" y2="9.50848" gradientUnits="userSpaceOnUse">
<stop stop-color="#F0F6FF"/>
<stop offset="0.635417" stop-color="#E8F0FD"/>
<stop offset="1" stop-color="#EEF4FE"/>
</linearGradient>
<clipPath id="clip0_1_5758">
<rect width="40" height="40" fill="white"/>
</clipPath>
</defs>
</svg>
