<svg width="40" height="40" viewBox="0 0 40 40" fill="none" xmlns="http://www.w3.org/2000/svg">
<g clip-path="url(#clip0_1_5695)">
<rect width="40" height="40" fill="white"/>
<path d="M39.2129 11.449C40.2624 17.0781 40.2624 22.8026 39.2129 28.5271C38.2588 33.9654 33.9654 38.2588 28.5271 39.2129C22.898 40.2624 17.1735 40.2624 11.449 39.2129C6.01073 38.2588 1.81276 34.0608 0.858676 28.6225C-0.286225 22.9934 -0.286225 17.1735 0.858676 11.449C1.81276 6.01073 6.01073 1.81276 11.449 0.858676C17.0781 -0.286225 22.898 -0.286225 28.6225 0.858676C34.0608 1.81276 38.2588 6.01073 39.2129 11.449Z" fill="white"/>
<path fill-rule="evenodd" clip-rule="evenodd" d="M38.2293 28.3468C39.2571 22.7405 39.2565 17.1393 38.2298 11.6323L39.2129 11.449C40.2624 17.0781 40.2624 22.8026 39.2129 28.5271L38.2293 28.3468ZM28.5271 39.2129C33.9654 38.2588 38.2588 33.9654 39.2129 28.5271L38.2279 28.3543C37.3466 33.3779 33.3779 37.3466 28.3543 38.2279L28.5271 39.2129ZM11.449 39.2129C17.1735 40.2624 22.898 40.2624 28.5271 39.2129L28.3438 38.2298C22.8369 39.2565 17.2356 39.2571 11.6293 38.2293L11.449 39.2129ZM28.6225 0.858676L28.4497 1.84363C33.4733 2.72496 37.3466 6.59823 38.2279 11.6218L39.2129 11.449C38.2588 6.01073 34.0608 1.81276 28.6225 0.858676ZM11.449 0.858676C17.0781 -0.286225 22.898 -0.286225 28.6225 0.858676L28.4264 1.83926C22.8303 0.720026 17.1448 0.720683 11.6483 1.83861L11.449 0.858676ZM0.858676 11.449C1.81276 6.01073 6.01073 1.81276 11.449 0.858676L11.6218 1.84363C6.59823 2.72496 2.72496 6.59823 1.84363 11.6218L0.858676 11.449ZM0.858676 11.449L1.83926 11.6451C0.720026 17.2413 0.720683 22.9267 1.83861 28.4232L0.858676 28.6225C-0.286225 22.9934 -0.286225 17.1735 0.858676 11.449ZM0.858676 28.6225C1.81276 34.0608 6.01073 38.2588 11.449 39.2129L11.6218 38.2279C6.59823 37.3466 2.72496 33.4733 1.84363 28.4497L0.858676 28.6225Z" fill="url(#paint0_linear_1_5695)"/>
<path fill-rule="evenodd" clip-rule="evenodd" d="M23.0632 7.88749C21.5018 7.13148 19.7906 6.73925 18.0571 6.74024C15.9735 6.74094 13.9291 7.30958 12.1422 8.38519C10.3554 9.46082 8.8929 11.003 7.91007 12.8469C6.92727 14.6908 6.46071 16.7677 6.55974 18.8565C6.63899 20.528 7.07808 22.1574 7.84114 23.6343L6.57771 27.424C6.10083 28.8544 7.31803 30.278 8.80512 30.0291L14.0584 29.15C15.3194 29.62 16.6556 29.8655 18.0066 29.8722C18.0912 29.8726 18.1757 29.8721 18.2602 29.8707C19.0445 30.7523 19.9967 31.4701 21.0625 31.9804C22.2701 32.5586 23.5922 32.8556 24.9302 32.8489C25.9504 32.8438 26.9596 32.6624 27.9142 32.3148L31.7888 32.9632C33.09 33.1809 34.155 31.9353 33.7378 30.6837L32.8233 27.9407C33.3824 26.8264 33.7043 25.603 33.7638 24.349C33.8402 22.7375 33.4802 21.1351 32.7219 19.7124C31.9636 18.2896 30.8351 17.0996 29.4561 16.2695C29.4343 16.2564 29.4125 16.2433 29.3906 16.2304C29.3617 16.071 29.3294 15.9121 29.2937 15.7538C28.9114 14.0567 28.1529 12.4679 27.0742 11.1058C25.9955 9.74377 24.6245 8.64353 23.0632 7.88749ZM29.5652 18.8424C29.5332 19.536 29.4389 20.2273 29.2825 20.908C28.8929 22.6033 28.1274 24.1888 27.0429 25.5461C25.9583 26.9035 24.5825 27.9977 23.0179 28.7469C22.319 29.0815 21.5905 29.3435 20.8438 29.5301C21.1833 29.7776 21.5454 29.9942 21.9262 30.1765C22.8614 30.6243 23.8848 30.8541 24.9202 30.8489C25.7845 30.8446 26.6387 30.6768 27.4387 30.3556C27.6091 30.2872 27.7951 30.2671 27.9762 30.2974L31.709 30.922L30.7901 28.1657C30.7004 27.8968 30.7291 27.6025 30.8689 27.3559C31.4057 26.4098 31.7142 25.3472 31.766 24.2543C31.8254 23.0022 31.5457 21.7575 30.957 20.6531C30.5945 19.973 30.1233 19.3618 29.5652 18.8424ZM18.058 8.74024C19.489 8.73939 20.902 9.06314 22.1915 9.68757C23.4811 10.312 24.6143 11.2211 25.5063 12.3475C26.3983 13.4739 27.0261 14.7885 27.3426 16.1933C27.659 17.5981 27.6558 19.0566 27.3333 20.46C27.0108 21.8634 26.3773 23.1752 25.4804 24.2977C24.5835 25.4201 23.4464 26.3243 22.1541 26.943C20.8619 27.5618 19.4475 27.8793 18.0165 27.8722C16.8221 27.8663 15.6416 27.6343 14.5361 27.1905C14.3657 27.1221 14.1797 27.1019 13.9985 27.1322L8.47504 28.0565L9.87553 23.8558C9.96517 23.5869 9.9365 23.2926 9.79664 23.0461C9.05513 21.739 8.62907 20.2714 8.5575 18.7618C8.4755 17.0324 8.86184 15.3133 9.67502 13.7876C10.4882 12.262 11.6975 10.9873 13.1737 10.0987C14.6498 9.21012 16.338 8.74078 18.058 8.74024Z" fill="#0033C9"/>
<path d="M14.5 18.5C14.5 19.3284 13.8284 20 13 20C12.1716 20 11.5 19.3284 11.5 18.5C11.5 17.6716 12.1716 17 13 17C13.8284 17 14.5 17.6716 14.5 18.5Z" fill="#00CF6A"/>
<path d="M19.5 18.5C19.5 19.3284 18.8284 20 18 20C17.1716 20 16.5 19.3284 16.5 18.5C16.5 17.6716 17.1716 17 18 17C18.8284 17 19.5 17.6716 19.5 18.5Z" fill="#00CF6A"/>
<path d="M23 20C23.8284 20 24.5 19.3284 24.5 18.5C24.5 17.6716 23.8284 17 23 17C22.1716 17 21.5 17.6716 21.5 18.5C21.5 19.3284 22.1716 20 23 20Z" fill="#00CF6A"/>
</g>
<defs>
<linearGradient id="paint0_linear_1_5695" x1="-2.81746e-08" y1="8.19672" x2="40.9761" y2="9.50848" gradientUnits="userSpaceOnUse">
<stop stop-color="#F0F6FF"/>
<stop offset="0.635417" stop-color="#E8F0FD"/>
<stop offset="1" stop-color="#EEF4FE"/>
</linearGradient>
<clipPath id="clip0_1_5695">
<rect width="40" height="40" fill="white"/>
</clipPath>
</defs>
</svg>
