<svg width="40" height="40" viewBox="0 0 40 40" fill="none" xmlns="http://www.w3.org/2000/svg">
<g clip-path="url(#clip0_1_5771)">
<rect width="40" height="40" fill="white"/>
<path d="M39.2129 11.449C40.2624 17.0781 40.2624 22.8026 39.2129 28.5271C38.2588 33.9654 33.9654 38.2588 28.5271 39.2129C22.898 40.2624 17.1735 40.2624 11.449 39.2129C6.01073 38.2588 1.81276 34.0608 0.858676 28.6225C-0.286225 22.9934 -0.286225 17.1735 0.858676 11.449C1.81276 6.01073 6.01073 1.81276 11.449 0.858676C17.0781 -0.286225 22.898 -0.286225 28.6225 0.858676C34.0608 1.81276 38.2588 6.01073 39.2129 11.449Z" fill="white"/>
<path fill-rule="evenodd" clip-rule="evenodd" d="M38.2279 11.6218L38.2279 11.6218C37.3466 6.59823 33.4733 2.72496 28.4497 1.84363L28.4381 1.84158L28.4264 1.83926C22.8303 0.720026 17.1448 0.720683 11.6483 1.83861L11.6351 1.8413L11.6218 1.84363C6.59823 2.72496 2.72496 6.59823 1.84363 11.6218L1.84158 11.6335L1.83926 11.6451C0.720026 17.2413 0.720683 22.9267 1.83861 28.4232L1.8413 28.4365L1.84363 28.4497C2.72496 33.4733 6.59823 37.3466 11.6218 38.2279L11.6293 38.2292C17.2356 39.2571 22.8369 39.2565 28.3438 38.2298L28.3543 38.2279L28.3543 38.2279C33.3779 37.3466 37.3466 33.3779 38.2279 28.3543L38.2292 28.3468C39.2571 22.7405 39.2565 17.1393 38.2298 11.6323L38.2279 11.6218ZM28.5271 39.2129C33.9654 38.2588 38.2588 33.9654 39.2129 28.5271C40.2624 22.8026 40.2624 17.0781 39.2129 11.449C38.2588 6.01073 34.0608 1.81276 28.6225 0.858676C22.898 -0.286225 17.0781 -0.286225 11.449 0.858676C6.01073 1.81276 1.81276 6.01073 0.858676 11.449C-0.286225 17.1735 -0.286225 22.9934 0.858676 28.6225C1.81276 34.0608 6.01073 38.2588 11.449 39.2129C17.1735 40.2624 22.898 40.2624 28.5271 39.2129Z" fill="url(#paint0_linear_1_5771)"/>
<path d="M18.5 6C20.4757 6 22.4049 6.16878 24.2588 6.37012C27.6059 6.73361 30.3015 9.42732 30.6504 12.7803C30.7748 13.9765 30.8853 15.2028 30.9473 16.4502C30.9747 17.0017 30.5495 17.4715 29.998 17.499C29.4465 17.5264 28.9767 17.1013 28.9492 16.5498C28.8898 15.3529 28.7838 14.1661 28.6611 12.9873C28.4102 10.5761 26.4573 8.62062 24.043 8.3584C22.2126 8.15962 20.3675 8 18.5 8C16.6325 8 14.7874 8.15962 12.957 8.3584C10.5426 8.62062 8.58973 10.5761 8.33887 12.9873C8.14969 14.8059 8 16.6416 8 18.5C8 20.3584 8.14969 22.1941 8.33887 24.0127C8.58974 26.4239 10.5426 28.3794 12.957 28.6416C14.7874 28.8404 16.6325 29 18.5 29C19.1804 29 19.4992 28.9798 20.0898 28.9414C20.1957 28.9345 20.3106 28.9269 20.4375 28.9189C20.9885 28.8844 21.4632 29.3026 21.498 29.8535C21.5327 30.4047 21.1137 30.8804 20.5625 30.915C20.4414 30.9227 20.3301 30.9297 20.2256 30.9365C19.6256 30.9756 19.2477 31 18.5 31C16.5243 31 14.5951 30.8312 12.7412 30.6299C9.39412 30.2664 6.69849 27.5727 6.34961 24.2197C6.15785 22.3764 6 20.4608 6 18.5C6 16.5392 6.15785 14.6236 6.34961 12.7803C6.69849 9.42727 9.39412 6.73361 12.7412 6.37012C14.5951 6.16878 16.5243 6 18.5 6Z" fill="#0033C9"/>
<path d="M26.1647 28.423H23.4862C22.7761 28.423 22.2971 27.7052 22.6207 27.0731C24.0408 24.2986 26.3078 21.5464 28.695 19.416C29.3397 18.8407 30.3029 19.365 30.2281 20.2257L29.8876 24.1426C30.9658 24.1874 32.1186 24.2907 33.0697 24.4956C33.5966 24.6091 33.8636 25.1617 33.6227 25.6438C32.702 27.4861 30.5495 30.3863 27.406 33.2889C26.7319 33.9112 25.6881 33.3232 25.8073 32.4135C26.049 30.5681 26.1647 29.1794 26.1647 28.423Z" fill="#00CF6A"/>
<path d="M12.6533 13C13.8753 13 14.9749 13.7443 15.4287 14.8789C15.5789 15.254 15.9426 15.5 16.3467 15.5H20.1533C20.5574 15.5 20.9211 15.254 21.0713 14.8789C21.5251 13.7443 22.6247 13 23.8467 13H29.5C30.0523 13 30.5 13.4477 30.5 14C30.5 14.5523 30.0523 15 29.5 15H23.8467C23.4426 15 23.0789 15.246 22.9287 15.6211C22.4749 16.7557 21.3753 17.5 20.1533 17.5H16.3467C15.1247 17.5 14.0251 16.7557 13.5713 15.6211C13.4211 15.246 13.0574 15 12.6533 15H7.5C6.94772 15 6.5 14.5523 6.5 14C6.5 13.4477 6.94772 13 7.5 13H12.6533Z" fill="#0033C9"/>
</g>
<defs>
<linearGradient id="paint0_linear_1_5771" x1="-2.81746e-08" y1="8.19672" x2="40.9761" y2="9.50848" gradientUnits="userSpaceOnUse">
<stop stop-color="#F0F6FF"/>
<stop offset="0.635417" stop-color="#E8F0FD"/>
<stop offset="1" stop-color="#EEF4FE"/>
</linearGradient>
<clipPath id="clip0_1_5771">
<rect width="40" height="40" fill="white"/>
</clipPath>
</defs>
</svg>
