<svg width="40" height="40" viewBox="0 0 40 40" fill="none" xmlns="http://www.w3.org/2000/svg">
<g clip-path="url(#clip0_1_5707)">
<path d="M39.2129 11.449C40.2624 17.0781 40.2624 22.8026 39.2129 28.5271C38.2588 33.9654 33.9654 38.2588 28.5271 39.2129C22.898 40.2624 17.1735 40.2624 11.449 39.2129C6.01073 38.2588 1.81276 34.0608 0.858676 28.6225C-0.286225 22.9934 -0.286225 17.1735 0.858676 11.449C1.81276 6.01073 6.01073 1.81276 11.449 0.858676C17.0781 -0.286225 22.898 -0.286225 28.6225 0.858676C34.0608 1.81276 38.2588 6.01073 39.2129 11.449Z" fill="white"/>
<path fill-rule="evenodd" clip-rule="evenodd" d="M38.2293 28.3468C39.2571 22.7405 39.2565 17.1393 38.2298 11.6323L39.2129 11.449C40.2624 17.0781 40.2624 22.8026 39.2129 28.5271L38.2293 28.3468ZM28.5271 39.2129C33.9654 38.2588 38.2588 33.9654 39.2129 28.5271L38.2279 28.3543C37.3466 33.3779 33.3779 37.3466 28.3543 38.2279L28.5271 39.2129ZM11.449 39.2129C17.1735 40.2624 22.898 40.2624 28.5271 39.2129L28.3438 38.2298C22.8369 39.2565 17.2356 39.2571 11.6293 38.2293L11.449 39.2129ZM28.6225 0.858676L28.4497 1.84363C33.4733 2.72496 37.3466 6.59823 38.2279 11.6218L39.2129 11.449C38.2588 6.01073 34.0608 1.81276 28.6225 0.858676ZM11.449 0.858676C17.0781 -0.286225 22.898 -0.286225 28.6225 0.858676L28.4264 1.83926C22.8303 0.720026 17.1448 0.720683 11.6483 1.83861L11.449 0.858676ZM0.858676 11.449C1.81276 6.01073 6.01073 1.81276 11.449 0.858676L11.6218 1.84363C6.59823 2.72496 2.72496 6.59823 1.84363 11.6218L0.858676 11.449ZM0.858676 11.449L1.83926 11.6451C0.720026 17.2413 0.720683 22.9267 1.83861 28.4232L0.858676 28.6225C-0.286225 22.9934 -0.286225 17.1735 0.858676 11.449ZM0.858676 28.6225C1.81276 34.0608 6.01073 38.2588 11.449 39.2129L11.6218 38.2279C6.59823 37.3466 2.72496 33.4733 1.84363 28.4497L0.858676 28.6225Z" fill="url(#paint0_linear_1_5707)"/>
<path fill-rule="evenodd" clip-rule="evenodd" d="M16.8534 8.59748C16.5073 8.00981 15.796 7.84271 15.2756 8.15827L15.2609 8.16699L13.0131 9.47806C12.3139 9.88525 12.0584 10.8256 12.4696 11.551C13.1649 12.7735 13.3495 14.1077 12.7301 15.2032C12.1069 16.3054 10.8661 16.8185 9.46877 16.8185C8.67797 16.8185 8 17.4882 8 18.3347V20.6654C8 21.5119 8.67797 22.1816 9.46877 22.1816C10.8661 22.1816 12.1069 22.6947 12.7301 23.7969C13.3493 24.8921 13.1643 26.2269 12.4696 27.4491M16.8534 8.59748L16.991 8.83961L16.9921 8.84155C17.679 10.0618 18.7292 10.9088 19.9951 10.9088C21.2601 10.9088 22.3134 10.0628 23.0067 8.84373L23.1465 8.59757C23.4926 8.00983 24.204 7.84269 24.7244 8.15827L24.7391 8.16699L26.9869 9.47806C27.6858 9.88509 27.9414 10.8249 27.5308 11.5502C26.8358 12.7726 26.6506 14.1078 27.2699 15.2032C27.8931 16.3054 29.1339 16.8185 30.5312 16.8185C31.3158 16.8185 32 17.4818 32 18.3347V20.6654C32 21.5119 31.322 22.1816 30.5312 22.1816C29.1339 22.1816 27.8931 22.6947 27.2699 23.7969C26.651 24.8915 26.8355 26.2256 27.5293 27.4472C27.9434 28.1887 27.6848 29.1156 26.9875 29.5217L24.7391 30.8331L24.7244 30.8418C24.204 31.1574 23.4926 30.9903 23.1466 30.4026L23.009 30.1605L23.0078 30.1583C22.3209 28.9382 21.2707 28.0913 20.0049 28.0913C18.7399 28.0913 17.6866 28.9373 16.9933 30.1564L16.8535 30.4026C16.5074 30.9903 15.796 31.1574 15.2756 30.8418L15.2609 30.8331L13.0131 29.522C12.314 29.1149 12.0585 28.1745 12.4696 27.4491M14.2466 6.44327C15.7766 5.52159 17.7085 6.09509 18.5833 7.59364L18.5892 7.60382L18.7342 7.85916C19.2167 8.71705 19.7122 8.90876 19.9951 8.90876C20.2796 8.90876 20.7789 8.71522 21.2679 7.85547L21.4167 7.59361C22.2914 6.09505 24.2234 5.52158 25.7534 6.44328L27.994 7.75012C29.6597 8.72021 30.2103 10.8791 29.2702 12.5374L29.2696 12.5385C28.7824 13.3952 28.8572 13.947 29.0109 14.2188C29.1608 14.484 29.5768 14.8185 30.5312 14.8185C32.4493 14.8185 34 16.4064 34 18.3347V20.6654C34 22.5735 32.4691 24.1816 30.5312 24.1816C29.5768 24.1816 29.1608 24.5161 29.0109 24.7813C28.8572 25.0531 28.7824 25.6049 29.2696 26.4615L29.2726 26.4668C30.208 28.1352 29.6608 30.2792 27.994 31.25L25.7534 32.5568C24.2234 33.4785 22.2915 32.905 21.4167 31.4065L21.4108 31.3963L21.2679 31.1446L21.2658 31.1409C20.7833 30.283 20.2878 30.0913 20.0049 30.0913C19.7204 30.0913 19.2211 30.2849 18.7321 31.1446L18.5833 31.4065C17.7086 32.9051 15.7766 33.4785 14.2466 32.5568L12.006 31.25C10.3407 30.2797 9.78979 28.1209 10.7298 26.4627L10.7304 26.4615C11.2176 25.6049 11.1428 25.0531 10.9891 24.7813C10.8392 24.5161 10.4232 24.1816 9.46877 24.1816C7.53093 24.1816 6 22.5735 6 20.6654V18.3347C6 16.4266 7.53093 14.8185 9.46877 14.8185C10.4232 14.8185 10.8392 14.484 10.9891 14.2188C11.1428 13.947 11.2176 13.3952 10.7304 12.5385L10.7298 12.5374C9.78979 10.8792 10.3402 8.72067 12.0054 7.75043L14.2466 6.44327Z" fill="#0033C9"/>
<path d="M23.4062 16.0817C23.4062 17.9287 21.9089 19.426 20.0618 19.426C18.2148 19.426 16.7175 17.9287 16.7175 16.0817C16.7175 14.2346 18.2148 12.7373 20.0618 12.7373C21.9089 12.7373 23.4062 14.2346 23.4062 16.0817Z" fill="#00CF6A"/>
<path d="M24.2483 22.1883C25.2203 23.271 24.2399 24.7543 22.7931 24.908C21.8173 25.0116 20.8347 25.0943 20.0613 25.0943C19.2879 25.0943 18.3053 25.0116 17.3295 24.908C15.8827 24.7543 14.9023 23.2709 15.8743 22.1882C16.0663 21.9743 16.2755 21.7743 16.5005 21.5904C17.5054 20.769 18.7634 20.3203 20.0613 20.3203C21.3592 20.3203 22.6172 20.769 23.6221 21.5904C23.8471 21.7743 24.0562 21.9743 24.2483 22.1883Z" fill="#00CF6A"/>
</g>
<defs>
<linearGradient id="paint0_linear_1_5707" x1="-2.81746e-08" y1="8.19672" x2="40.9761" y2="9.50848" gradientUnits="userSpaceOnUse">
<stop stop-color="#F0F6FF"/>
<stop offset="0.635417" stop-color="#E8F0FD"/>
<stop offset="1" stop-color="#EEF4FE"/>
</linearGradient>
<clipPath id="clip0_1_5707">
<rect width="40" height="40" fill="white"/>
</clipPath>
</defs>
</svg>
