<svg width="40" height="40" viewBox="0 0 40 40" fill="none" xmlns="http://www.w3.org/2000/svg">
<g clip-path="url(#clip0_1_5731)">
<rect width="40" height="40" fill="white"/>
<path d="M39.2129 11.449C40.2624 17.0781 40.2624 22.8026 39.2129 28.5271C38.2588 33.9654 33.9654 38.2588 28.5271 39.2129C22.898 40.2624 17.1735 40.2624 11.449 39.2129C6.01073 38.2588 1.81276 34.0608 0.858676 28.6225C-0.286225 22.9934 -0.286225 17.1735 0.858676 11.449C1.81276 6.01073 6.01073 1.81276 11.449 0.858676C17.0781 -0.286225 22.898 -0.286225 28.6225 0.858676C34.0608 1.81276 38.2588 6.01073 39.2129 11.449Z" fill="white"/>
<path fill-rule="evenodd" clip-rule="evenodd" d="M38.2279 11.6218L38.2279 11.6218C37.3466 6.59823 33.4733 2.72496 28.4497 1.84363L28.4381 1.84158L28.4264 1.83926C22.8303 0.720026 17.1448 0.720683 11.6483 1.83861L11.6351 1.8413L11.6218 1.84363C6.59823 2.72496 2.72496 6.59823 1.84363 11.6218L1.84158 11.6335L1.83926 11.6451C0.720026 17.2413 0.720683 22.9267 1.83861 28.4232L1.8413 28.4365L1.84363 28.4497C2.72496 33.4733 6.59823 37.3466 11.6218 38.2279L11.6293 38.2292C17.2356 39.2571 22.8369 39.2565 28.3438 38.2298L28.3543 38.2279L28.3543 38.2279C33.3779 37.3466 37.3466 33.3779 38.2279 28.3543L38.2292 28.3468C39.2571 22.7405 39.2565 17.1393 38.2298 11.6323L38.2279 11.6218ZM28.5271 39.2129C33.9654 38.2588 38.2588 33.9654 39.2129 28.5271C40.2624 22.8026 40.2624 17.0781 39.2129 11.449C38.2588 6.01073 34.0608 1.81276 28.6225 0.858676C22.898 -0.286225 17.0781 -0.286225 11.449 0.858676C6.01073 1.81276 1.81276 6.01073 0.858676 11.449C-0.286225 17.1735 -0.286225 22.9934 0.858676 28.6225C1.81276 34.0608 6.01073 38.2588 11.449 39.2129C17.1735 40.2624 22.898 40.2624 28.5271 39.2129Z" fill="url(#paint0_linear_1_5731)"/>
<path fill-rule="evenodd" clip-rule="evenodd" d="M18.0778 8.40403C18.0777 8.40406 18.0778 8.40399 18.0778 8.40403L11.111 11.2557C10.8537 11.3593 10.5655 11.5956 10.3377 11.9344C10.1098 12.2735 10 12.6295 10 12.9031V18.3906C10 24.0367 14.1207 29.3784 19.7643 30.9387C20.0038 31.0037 20.2712 31.0037 20.5107 30.9387C26.1543 29.3784 30.275 24.0367 30.275 18.3906L30.275 18.3883L30.2875 12.9031C30.2875 12.9027 30.2875 12.9023 30.2875 12.9019C30.2872 12.6321 30.1768 12.2773 29.9464 11.9363C29.7158 11.595 29.4257 11.3574 29.1723 11.254L22.2097 8.40403C22.2095 8.40395 22.2099 8.4041 22.2097 8.40403C20.8896 7.8656 19.3978 7.86551 18.0778 8.40403ZM17.3222 6.55222C19.1269 5.81593 21.1606 5.81593 22.9653 6.55222L22.9663 6.55265L29.9277 9.40215C29.9279 9.40225 29.9274 9.40205 29.9277 9.40215C30.624 9.68637 31.2031 10.2238 31.6036 10.8167C32.0042 11.4096 32.2875 12.1481 32.2875 12.9031L32.2875 12.9054L32.275 18.3906C32.275 18.3911 32.275 18.3916 32.275 18.3921C32.2743 24.9697 27.5212 31.0767 21.0413 32.867L21.0381 32.8679C20.4534 33.0273 19.8216 33.0273 19.2369 32.8679L19.2337 32.867C12.7533 31.0765 8 24.9688 8 18.3906V12.9031C8 12.1517 8.27774 11.4139 8.67792 10.8186C9.07771 10.2239 9.65728 9.68583 10.3611 9.40162L17.3222 6.55222Z" fill="#0033C9"/>
<path fill-rule="evenodd" clip-rule="evenodd" d="M24.5946 16.2929C24.9851 16.6834 24.9851 17.3166 24.5946 17.7071L19.2196 23.0821C18.8291 23.4726 18.1959 23.4726 17.8054 23.0821L15.7929 21.0696C15.4024 20.6791 15.4024 20.0459 15.7929 19.6554C16.1834 19.2649 16.8166 19.2649 17.2071 19.6554L18.5125 20.9608L23.1804 16.2929C23.5709 15.9024 24.2041 15.9024 24.5946 16.2929Z" fill="#00CF6A"/>
</g>
<defs>
<linearGradient id="paint0_linear_1_5731" x1="-2.81746e-08" y1="8.19672" x2="40.9761" y2="9.50848" gradientUnits="userSpaceOnUse">
<stop stop-color="#F0F6FF"/>
<stop offset="0.635417" stop-color="#E8F0FD"/>
<stop offset="1" stop-color="#EEF4FE"/>
</linearGradient>
<clipPath id="clip0_1_5731">
<rect width="40" height="40" fill="white"/>
</clipPath>
</defs>
</svg>
