<svg width="40" height="40" viewBox="0 0 40 40" fill="none" xmlns="http://www.w3.org/2000/svg">
<g clip-path="url(#clip0_1_5719)">
<rect width="40" height="40" fill="white"/>
<path d="M39.2129 11.449C40.2624 17.0781 40.2624 22.8026 39.2129 28.5271C38.2588 33.9654 33.9654 38.2588 28.5271 39.2129C22.898 40.2624 17.1735 40.2624 11.449 39.2129C6.01073 38.2588 1.81276 34.0608 0.858676 28.6225C-0.286225 22.9934 -0.286225 17.1735 0.858676 11.449C1.81276 6.01073 6.01073 1.81276 11.449 0.858676C17.0781 -0.286225 22.898 -0.286225 28.6225 0.858676C34.0608 1.81276 38.2588 6.01073 39.2129 11.449Z" fill="white"/>
<path fill-rule="evenodd" clip-rule="evenodd" d="M38.2293 28.3468C39.2571 22.7405 39.2565 17.1393 38.2298 11.6323L39.2129 11.449C40.2624 17.0781 40.2624 22.8026 39.2129 28.5271L38.2293 28.3468ZM28.5271 39.2129C33.9654 38.2588 38.2588 33.9654 39.2129 28.5271L38.2279 28.3543C37.3466 33.3779 33.3779 37.3466 28.3543 38.2279L28.5271 39.2129ZM11.449 39.2129C17.1735 40.2624 22.898 40.2624 28.5271 39.2129L28.3438 38.2298C22.8369 39.2565 17.2356 39.2571 11.6293 38.2293L11.449 39.2129ZM0.858676 11.449C-0.286225 17.1735 -0.286225 22.9934 0.858676 28.6225C1.81276 34.0608 6.01073 38.2588 11.449 39.2129L11.6218 38.2279C6.59823 37.3466 2.72496 33.4733 1.84363 28.4497L0.858676 28.6225L1.83861 28.4232C0.720683 22.9267 0.720026 17.2413 1.83926 11.6451L0.858676 11.449ZM11.449 0.858676C6.01073 1.81276 1.81276 6.01073 0.858676 11.449L1.84363 11.6218C2.72496 6.59823 6.59823 2.72496 11.6218 1.84363L11.449 0.858676ZM28.6225 0.858676C34.0608 1.81276 38.2588 6.01073 39.2129 11.449L38.2279 11.6218C37.3466 6.59823 33.4733 2.72496 28.4497 1.84363L28.6225 0.858676ZM28.6225 0.858676C22.898 -0.286225 17.0781 -0.286225 11.449 0.858676L11.6483 1.83861C17.1448 0.720683 22.8303 0.720026 28.4264 1.83926L28.6225 0.858676Z" fill="url(#paint0_linear_1_5719)"/>
<path fill-rule="evenodd" clip-rule="evenodd" d="M6.99805 26.75C6.99805 26.8682 7.01855 26.9816 7.0562 27.0869C7.4432 29.6831 9.70413 31.574 12.2735 31.8237C14.6614 32.0558 17.1644 32.2758 19.7325 32.2758C22.2805 32.2758 25.2749 32.0592 28.0286 31.8287C31.1318 31.5689 33.6797 29.1182 33.8565 25.952C33.9497 24.2819 33.998 22.5738 33.998 20.7294C33.998 19.4796 33.9759 18.5023 33.932 17.6171C33.7901 14.7532 31.6784 12.5336 29.0412 11.9145V9.72414C29.0412 8.21964 27.8215 7 26.317 7H11.652C9.08171 7 6.99805 9.08367 6.99805 11.654V26.75ZM8.99805 11.654C8.99805 10.1882 10.1863 9 11.652 9H26.317C26.7169 9 27.0412 9.32421 27.0412 9.72414V11.7413L8.99805 11.7414V11.654ZM8.99805 13.7414V26.3287C9.01575 28.1299 10.5231 29.6442 12.467 29.8331C14.8507 30.0648 17.2697 30.2758 19.7325 30.2758C22.1887 30.2758 25.1092 30.066 27.8618 29.8356C30.0285 29.6543 31.7415 27.9545 31.8596 25.8405C31.9507 24.2089 31.998 22.538 31.998 20.7294C31.998 19.5036 31.9763 18.5604 31.9345 17.7161C31.8242 15.4922 29.8751 13.7413 27.5466 13.7413L8.99805 13.7414Z" fill="#0033CC"/>
<rect x="27.998" y="19" width="2" height="5" rx="1" fill="#00CF6A"/>
</g>
<defs>
<linearGradient id="paint0_linear_1_5719" x1="-2.81746e-08" y1="8.19672" x2="40.9761" y2="9.50848" gradientUnits="userSpaceOnUse">
<stop stop-color="#F0F6FF"/>
<stop offset="0.635417" stop-color="#E8F0FD"/>
<stop offset="1" stop-color="#EEF4FE"/>
</linearGradient>
<clipPath id="clip0_1_5719">
<rect width="40" height="40" fill="white"/>
</clipPath>
</defs>
</svg>
