<svg width="40" height="40" viewBox="0 0 40 40" fill="none" xmlns="http://www.w3.org/2000/svg">
<path d="M18.7766 2.32365C19.5305 1.89212 20.4695 1.89212 21.2234 2.32365L34.8309 10.1128C35.6149 10.5616 36.0654 11.4002 35.9923 12.2751L35.1378 22.499C34.7781 26.7752 32.378 30.6564 28.6292 33.0262L21.3081 37.6255C20.5133 38.1248 19.4867 38.1248 18.6919 37.6255L11.3708 33.0262C7.62195 30.6564 5.22194 26.7752 4.86216 22.499L4.00772 12.2751C3.93461 11.4002 4.38506 10.5616 5.16908 10.1128L18.7766 2.32365Z" fill="url(#paint0_linear_1_5132)"/>
<path d="M23.166 24.0686C23.5069 24.0687 23.7832 24.3449 23.7832 24.6858V25.0969C23.7832 25.4377 23.5068 25.714 23.166 25.7141H16.7676C16.4267 25.714 16.1504 25.4377 16.1504 25.0969V24.6858C16.1504 24.3449 16.4267 24.0686 16.7676 24.0686H23.166ZM19.7168 9.94846C19.8619 9.81599 20.0835 9.81603 20.2285 9.94846L26.6787 15.8391C26.9345 16.0729 26.7685 16.4992 26.4219 16.4992H23.7832V22.2639C23.7832 22.5784 23.5283 22.833 23.2139 22.8332H16.7197C16.4053 22.833 16.1504 22.5784 16.1504 22.2639V16.4992H13.5235C13.1769 16.4992 13.011 16.0729 13.2666 15.8391L19.7168 9.94846Z" fill="#FFFBF4"/>
<defs>
<linearGradient id="paint0_linear_1_5132" x1="20.0022" y1="1.62227" x2="20.0022" y2="38.4462" gradientUnits="userSpaceOnUse">
<stop stop-color="#4ADE85"/>
<stop offset="1" stop-color="#6BEAB9"/>
</linearGradient>
</defs>
</svg>
