<svg width="24" height="24" viewBox="0 0 24 24" fill="none" xmlns="http://www.w3.org/2000/svg">
<path d="M10 17.75C9.58579 17.75 9.25 18.0858 9.25 18.5C9.25 18.9142 9.58579 19.25 10 19.25H14C14.4142 19.25 14.75 18.9142 14.75 18.5C14.75 18.0858 14.4142 17.75 14 17.75H10Z" fill="#0033C9"/>
<path d="M13.25 9C13.25 8.58579 12.9142 8.25 12.5 8.25C12.0858 8.25 11.75 8.58579 11.75 9V9.75H11C10.5858 9.75 10.25 10.0858 10.25 10.5C10.25 10.9142 10.5858 11.25 11 11.25H12.5C12.9142 11.25 13.25 10.9142 13.25 10.5V9Z" fill="#0033C9"/>
<path fill-rule="evenodd" clip-rule="evenodd" d="M7.25 10C7.25 7.37579 9.37579 5.25 12 5.25C14.6242 5.25 16.75 7.37579 16.75 10C16.75 10.8885 16.5017 11.7327 16.0615 12.4486C15.2406 13.8246 13.732 14.75 12 14.75C10.268 14.75 8.75935 13.8246 7.93847 12.4486C7.49828 11.7327 7.25 10.8885 7.25 10ZM12 6.75C10.2042 6.75 8.75 8.20421 8.75 10C8.75 10.6094 8.92051 11.1833 9.21836 11.6663L9.22465 11.6765C9.78446 12.6177 10.8141 13.25 12 13.25C13.1859 13.25 14.2156 12.6177 14.7754 11.6766L14.7816 11.6663C15.0794 11.1833 15.25 10.6094 15.25 10C15.25 8.20421 13.7958 6.75 12 6.75Z" fill="#0033C9"/>
<path fill-rule="evenodd" clip-rule="evenodd" d="M9 1.25C7.5603 1.25 6.35813 1.77327 5.51828 2.65893C4.68425 3.53846 4.25 4.72998 4.25 6V18C4.25 19.27 4.68425 20.4615 5.51828 21.3411C6.35813 22.2267 7.5603 22.75 9 22.75H15C16.4397 22.75 17.6419 22.2267 18.4817 21.3411C19.3157 20.4615 19.75 19.27 19.75 18V6C19.75 4.72998 19.3157 3.53846 18.4817 2.65893C17.6419 1.77327 16.4397 1.25 15 1.25H9ZM5.75 6C5.75 5.07002 6.06575 4.26154 6.60672 3.69107C7.14187 3.12672 7.9397 2.75 9 2.75H15C16.0603 2.75 16.8581 3.12672 17.3933 3.69107C17.9343 4.26154 18.25 5.07002 18.25 6V18C18.25 18.93 17.9343 19.7385 17.3933 20.3089C16.8581 20.8733 16.0603 21.25 15 21.25H9C7.9397 21.25 7.14187 20.8733 6.60672 20.3089C6.06575 19.7385 5.75 18.93 5.75 18V6Z" fill="#0033C9"/>
</svg>
