<svg width="24" height="24" viewBox="0 0 24 24" fill="none" xmlns="http://www.w3.org/2000/svg">
<path d="M19.1699 18.21C19.6883 18.21 20.1082 18.6301 20.1084 19.1484C20.1084 19.6669 19.6884 20.0879 19.1699 20.0879H19.1611C18.6429 20.0877 18.2227 19.6668 18.2227 19.1484C18.2228 18.6303 18.643 18.2102 19.1611 18.21H19.1699Z" fill="#001F3E"/>
<path fill-rule="evenodd" clip-rule="evenodd" d="M19.2383 15.6152C19.5818 15.0379 20.3379 14.8164 20.9404 15.1709L21.5742 15.5342C22.2151 15.9007 22.4315 16.72 22.0654 17.3535C22.0429 17.3924 22.0291 17.425 22.0205 17.4492C22.0456 17.4539 22.0796 17.457 22.124 17.457C22.8544 17.457 23.457 18.0516 23.457 18.79V19.4395C23.457 20.1699 22.8625 20.7724 22.124 20.7725C22.0796 20.7725 22.0456 20.7756 22.0205 20.7803C22.0291 20.8044 22.043 20.8362 22.0654 20.875L22.0674 20.8789C22.4302 21.5142 22.2158 22.3294 21.5742 22.6963L20.9404 23.0586C20.3379 23.4131 19.5818 23.1916 19.2383 22.6143C19.2371 22.6122 19.2355 22.6104 19.2344 22.6084L19.1943 22.5381L19.1924 22.5352C19.1705 22.4971 19.1501 22.4694 19.1338 22.4502C19.1168 22.4698 19.0962 22.4984 19.0732 22.5381L19.0332 22.6084C19.032 22.6104 19.0305 22.6122 19.0293 22.6143C18.6858 23.1916 17.9297 23.4131 17.3271 23.0586L16.6934 22.6963C16.0525 22.3298 15.8352 21.5095 16.2012 20.876C16.2237 20.8371 16.2385 20.8045 16.2471 20.7803C16.2221 20.7756 16.1879 20.7725 16.1436 20.7725C15.4051 20.7725 14.8105 20.1699 14.8105 19.4395V18.79C14.8106 18.0596 15.4051 17.457 16.1436 17.457C16.1879 17.457 16.2221 17.4539 16.2471 17.4492C16.2385 17.4251 16.2246 17.3932 16.2021 17.3545C15.8362 16.7211 16.0519 15.9008 16.6924 15.5342L17.3271 15.1709C17.9297 14.8164 18.6858 15.0379 19.0293 15.6152C19.0305 15.6173 19.032 15.62 19.0332 15.6221L19.0732 15.6914L19.0752 15.6943C19.097 15.7324 19.1165 15.7601 19.1328 15.7793C19.1498 15.7596 19.1713 15.7311 19.1943 15.6914L19.2344 15.6221C19.2356 15.6199 19.237 15.6174 19.2383 15.6152ZM20.2871 16.3252C20.0519 16.7308 19.6554 17.0742 19.1318 17.0742C18.608 17.074 18.2129 16.7297 17.9795 16.3232L17.9492 16.2705L17.3203 16.6309C17.3061 16.639 17.2952 16.6518 17.29 16.6709C17.2848 16.6904 17.2871 16.7081 17.2949 16.7217C17.53 17.1275 17.6307 17.6417 17.3691 18.0957C17.1075 18.5498 16.612 18.7206 16.1436 18.7207C16.1261 18.7207 16.109 18.7269 16.0947 18.7412C16.0801 18.7558 16.0742 18.7733 16.0742 18.79V19.4395C16.0742 19.4562 16.0801 19.4736 16.0947 19.4883C16.109 19.5026 16.1261 19.5088 16.1436 19.5088C16.612 19.5089 17.1075 19.6797 17.3691 20.1338C17.6308 20.5878 17.5299 21.1019 17.2949 21.5078C17.2871 21.5214 17.2848 21.539 17.29 21.5586C17.2952 21.5777 17.3061 21.5905 17.3203 21.5986L17.9492 21.959L17.9805 21.9043C18.2156 21.4988 18.6114 21.1554 19.1348 21.1553C19.6588 21.1553 20.0546 21.4997 20.2881 21.9062L20.2891 21.9072L20.3184 21.959L20.9473 21.5986C20.9765 21.5818 20.9907 21.5417 20.9707 21.5059C20.7366 21.1004 20.6365 20.5869 20.8975 20.1338C21.1592 19.6796 21.6555 19.5088 22.124 19.5088C22.1413 19.5088 22.1577 19.5024 22.1719 19.4883C22.1865 19.4736 22.1934 19.4562 22.1934 19.4395V18.79C22.1933 18.7728 22.1869 18.7564 22.1729 18.7422C22.1582 18.7276 22.1407 18.7207 22.124 18.7207C21.6555 18.7207 21.1592 18.5499 20.8975 18.0957C20.6362 17.6419 20.7368 17.1274 20.9717 16.7217C20.9795 16.7081 20.9828 16.6904 20.9775 16.6709C20.9724 16.6518 20.9614 16.639 20.9473 16.6309L20.3184 16.2705L20.2871 16.3252Z" fill="#001F3E"/>
<path d="M12 14.25C13.1121 14.25 14.1853 14.4105 15.1865 14.7119C15.5831 14.8314 15.8079 15.2499 15.6885 15.6465C15.569 16.043 15.1504 16.2678 14.7539 16.1484C13.8952 15.8899 12.9679 15.75 12 15.75C7.52296 15.7501 4.16016 18.6809 4.16016 22C4.16016 22.4142 3.82437 22.75 3.41016 22.75C2.99594 22.75 2.66016 22.4142 2.66016 22C2.66016 17.5792 6.99721 14.2501 12 14.25Z" fill="#001F3E"/>
<path fill-rule="evenodd" clip-rule="evenodd" d="M12 1.25C15.1756 1.25 17.75 3.82436 17.75 7C17.75 10.1756 15.1756 12.75 12 12.75C8.82436 12.75 6.25 10.1756 6.25 7C6.25 3.82436 8.82436 1.25 12 1.25ZM12 2.75C9.65279 2.75 7.75 4.65279 7.75 7C7.75 9.34721 9.65279 11.25 12 11.25C14.3472 11.25 16.25 9.34721 16.25 7C16.25 4.65279 14.3472 2.75 12 2.75Z" fill="#001F3E"/>
<path d="M19.1699 18.21C19.6883 18.21 20.1082 18.6301 20.1084 19.1484C20.1084 19.6669 19.6884 20.0879 19.1699 20.0879H19.1611C18.6429 20.0877 18.2227 19.6668 18.2227 19.1484C18.2228 18.6303 18.643 18.2102 19.1611 18.21H19.1699Z" fill="#001F3E"/>
<path fill-rule="evenodd" clip-rule="evenodd" d="M19.2383 15.6152C19.5818 15.0379 20.3379 14.8164 20.9404 15.1709L21.5742 15.5342C22.2151 15.9007 22.4315 16.72 22.0654 17.3535C22.0429 17.3924 22.0291 17.425 22.0205 17.4492C22.0456 17.4539 22.0796 17.457 22.124 17.457C22.8544 17.457 23.457 18.0516 23.457 18.79V19.4395C23.457 20.1699 22.8625 20.7724 22.124 20.7725C22.0796 20.7725 22.0456 20.7756 22.0205 20.7803C22.0291 20.8044 22.043 20.8362 22.0654 20.875L22.0674 20.8789C22.4302 21.5142 22.2158 22.3294 21.5742 22.6963L20.9404 23.0586C20.3379 23.4131 19.5818 23.1916 19.2383 22.6143C19.2371 22.6122 19.2355 22.6104 19.2344 22.6084L19.1943 22.5381L19.1924 22.5352C19.1705 22.4971 19.1501 22.4694 19.1338 22.4502C19.1168 22.4698 19.0962 22.4984 19.0732 22.5381L19.0332 22.6084C19.032 22.6104 19.0305 22.6122 19.0293 22.6143C18.6858 23.1916 17.9297 23.4131 17.3271 23.0586L16.6934 22.6963C16.0525 22.3298 15.8352 21.5095 16.2012 20.876C16.2237 20.8371 16.2385 20.8045 16.2471 20.7803C16.2221 20.7756 16.1879 20.7725 16.1436 20.7725C15.4051 20.7725 14.8105 20.1699 14.8105 19.4395V18.79C14.8106 18.0596 15.4051 17.457 16.1436 17.457C16.1879 17.457 16.2221 17.4539 16.2471 17.4492C16.2385 17.4251 16.2246 17.3932 16.2021 17.3545C15.8362 16.7211 16.0519 15.9008 16.6924 15.5342L17.3271 15.1709C17.9297 14.8164 18.6858 15.0379 19.0293 15.6152C19.0305 15.6173 19.032 15.62 19.0332 15.6221L19.0732 15.6914L19.0752 15.6943C19.097 15.7324 19.1165 15.7601 19.1328 15.7793C19.1498 15.7596 19.1713 15.7311 19.1943 15.6914L19.2344 15.6221C19.2356 15.6199 19.237 15.6174 19.2383 15.6152ZM20.2871 16.3252C20.0519 16.7308 19.6554 17.0742 19.1318 17.0742C18.608 17.074 18.2129 16.7297 17.9795 16.3232L17.9492 16.2705L17.3203 16.6309C17.3061 16.639 17.2952 16.6518 17.29 16.6709C17.2848 16.6904 17.2871 16.7081 17.2949 16.7217C17.53 17.1275 17.6307 17.6417 17.3691 18.0957C17.1075 18.5498 16.612 18.7206 16.1436 18.7207C16.1261 18.7207 16.109 18.7269 16.0947 18.7412C16.0801 18.7558 16.0742 18.7733 16.0742 18.79V19.4395C16.0742 19.4562 16.0801 19.4736 16.0947 19.4883C16.109 19.5026 16.1261 19.5088 16.1436 19.5088C16.612 19.5089 17.1075 19.6797 17.3691 20.1338C17.6308 20.5878 17.5299 21.1019 17.2949 21.5078C17.2871 21.5214 17.2848 21.539 17.29 21.5586C17.2952 21.5777 17.3061 21.5905 17.3203 21.5986L17.9492 21.959L17.9805 21.9043C18.2156 21.4988 18.6114 21.1554 19.1348 21.1553C19.6588 21.1553 20.0546 21.4997 20.2881 21.9062L20.2891 21.9072L20.3184 21.959L20.9473 21.5986C20.9765 21.5818 20.9907 21.5417 20.9707 21.5059C20.7366 21.1004 20.6365 20.5869 20.8975 20.1338C21.1592 19.6796 21.6555 19.5088 22.124 19.5088C22.1413 19.5088 22.1577 19.5024 22.1719 19.4883C22.1865 19.4736 22.1934 19.4562 22.1934 19.4395V18.79C22.1933 18.7728 22.1869 18.7564 22.1729 18.7422C22.1582 18.7276 22.1407 18.7207 22.124 18.7207C21.6555 18.7207 21.1592 18.5499 20.8975 18.0957C20.6362 17.6419 20.7368 17.1274 20.9717 16.7217C20.9795 16.7081 20.9828 16.6904 20.9775 16.6709C20.9724 16.6518 20.9614 16.639 20.9473 16.6309L20.3184 16.2705L20.2871 16.3252Z" fill="#001F3E"/>
<path d="M19.1699 18.21C19.6883 18.21 20.1082 18.6301 20.1084 19.1484C20.1084 19.6669 19.6884 20.0879 19.1699 20.0879H19.1611C18.6429 20.0877 18.2227 19.6668 18.2227 19.1484C18.2228 18.6303 18.643 18.2102 19.1611 18.21H19.1699Z" fill="#001F3E"/>
<path fill-rule="evenodd" clip-rule="evenodd" d="M19.2383 15.6152C19.5818 15.0379 20.3379 14.8164 20.9404 15.1709L21.5742 15.5342C22.2151 15.9007 22.4315 16.72 22.0654 17.3535C22.0429 17.3924 22.0291 17.425 22.0205 17.4492C22.0456 17.4539 22.0796 17.457 22.124 17.457C22.8544 17.457 23.457 18.0516 23.457 18.79V19.4395C23.457 20.1699 22.8625 20.7724 22.124 20.7725C22.0796 20.7725 22.0456 20.7756 22.0205 20.7803C22.0291 20.8044 22.043 20.8362 22.0654 20.875L22.0674 20.8789C22.4302 21.5142 22.2158 22.3294 21.5742 22.6963L20.9404 23.0586C20.3379 23.4131 19.5818 23.1916 19.2383 22.6143C19.2371 22.6122 19.2355 22.6104 19.2344 22.6084L19.1943 22.5381L19.1924 22.5352C19.1705 22.4971 19.1501 22.4694 19.1338 22.4502C19.1168 22.4698 19.0962 22.4984 19.0732 22.5381L19.0332 22.6084C19.032 22.6104 19.0305 22.6122 19.0293 22.6143C18.6858 23.1916 17.9297 23.4131 17.3271 23.0586L16.6934 22.6963C16.0525 22.3298 15.8352 21.5095 16.2012 20.876C16.2237 20.8371 16.2385 20.8045 16.2471 20.7803C16.2221 20.7756 16.1879 20.7725 16.1436 20.7725C15.4051 20.7725 14.8105 20.1699 14.8105 19.4395V18.79C14.8106 18.0596 15.4051 17.457 16.1436 17.457C16.1879 17.457 16.2221 17.4539 16.2471 17.4492C16.2385 17.4251 16.2246 17.3932 16.2021 17.3545C15.8362 16.7211 16.0519 15.9008 16.6924 15.5342L17.3271 15.1709C17.9297 14.8164 18.6858 15.0379 19.0293 15.6152C19.0305 15.6173 19.032 15.62 19.0332 15.6221L19.0732 15.6914L19.0752 15.6943C19.097 15.7324 19.1165 15.7601 19.1328 15.7793C19.1498 15.7596 19.1713 15.7311 19.1943 15.6914L19.2344 15.6221C19.2356 15.6199 19.237 15.6174 19.2383 15.6152ZM20.2871 16.3252C20.0519 16.7308 19.6554 17.0742 19.1318 17.0742C18.608 17.074 18.2129 16.7297 17.9795 16.3232L17.9492 16.2705L17.3203 16.6309C17.3061 16.639 17.2952 16.6518 17.29 16.6709C17.2848 16.6904 17.2871 16.7081 17.2949 16.7217C17.53 17.1275 17.6307 17.6417 17.3691 18.0957C17.1075 18.5498 16.612 18.7206 16.1436 18.7207C16.1261 18.7207 16.109 18.7269 16.0947 18.7412C16.0801 18.7558 16.0742 18.7733 16.0742 18.79V19.4395C16.0742 19.4562 16.0801 19.4736 16.0947 19.4883C16.109 19.5026 16.1261 19.5088 16.1436 19.5088C16.612 19.5089 17.1075 19.6797 17.3691 20.1338C17.6308 20.5878 17.5299 21.1019 17.2949 21.5078C17.2871 21.5214 17.2848 21.539 17.29 21.5586C17.2952 21.5777 17.3061 21.5905 17.3203 21.5986L17.9492 21.959L17.9805 21.9043C18.2156 21.4988 18.6114 21.1554 19.1348 21.1553C19.6588 21.1553 20.0546 21.4997 20.2881 21.9062L20.2891 21.9072L20.3184 21.959L20.9473 21.5986C20.9765 21.5818 20.9907 21.5417 20.9707 21.5059C20.7366 21.1004 20.6365 20.5869 20.8975 20.1338C21.1592 19.6796 21.6555 19.5088 22.124 19.5088C22.1413 19.5088 22.1577 19.5024 22.1719 19.4883C22.1865 19.4736 22.1934 19.4562 22.1934 19.4395V18.79C22.1933 18.7728 22.1869 18.7564 22.1729 18.7422C22.1582 18.7276 22.1407 18.7207 22.124 18.7207C21.6555 18.7207 21.1592 18.5499 20.8975 18.0957C20.6362 17.6419 20.7368 17.1274 20.9717 16.7217C20.9795 16.7081 20.9828 16.6904 20.9775 16.6709C20.9724 16.6518 20.9614 16.639 20.9473 16.6309L20.3184 16.2705L20.2871 16.3252Z" fill="#001F3E"/>
</svg>
