<svg width="24" height="24" viewBox="0 0 24 24" fill="none" xmlns="http://www.w3.org/2000/svg">
<path fill-rule="evenodd" clip-rule="evenodd" d="M12 1.25C8.82436 1.25 6.25 3.82436 6.25 7C6.25 10.1756 8.82436 12.75 12 12.75C15.1756 12.75 17.75 10.1756 17.75 7C17.75 3.82436 15.1756 1.25 12 1.25ZM7.75 7C7.75 4.65279 9.65279 2.75 12 2.75C14.3472 2.75 16.25 4.65279 16.25 7C16.25 9.34721 14.3472 11.25 12 11.25C9.65279 11.25 7.75 9.34721 7.75 7Z" fill="#001F3E"/>
<path fill-rule="evenodd" clip-rule="evenodd" d="M21.9507 15.1997C21.4072 14.6562 20.7969 14.3583 20.1337 14.4265C19.5116 14.4904 19.0277 14.8621 18.68 15.2097L18.1797 15.71C18.1735 15.7161 18.1673 15.7222 18.1613 15.7285L15.14 18.7498C14.9977 18.8921 14.8874 19.0644 14.8098 19.2178C14.7323 19.3711 14.66 19.5594 14.6294 19.7531L14.4378 21.1148C14.3749 21.5563 14.4911 22.0114 14.82 22.3404C15.1489 22.6693 15.6049 22.7854 16.0464 22.7225L17.3949 22.5328L17.4073 22.5309C17.5979 22.5008 17.7873 22.4301 17.9432 22.3521C18.0913 22.2781 18.2717 22.1664 18.4183 22.0128L21.3382 19.0929C21.4186 19.039 21.4889 18.9695 21.5439 18.8872L21.9507 18.4804C22.2983 18.1328 22.6711 17.6478 22.7329 17.0227C22.7987 16.3579 22.4972 15.7463 21.9507 15.1997ZM16.202 19.8091L18.4689 17.5421C18.767 18.0017 19.1578 18.3939 19.6162 18.6936L17.35 20.9597L17.3394 20.9706L17.3322 20.9758C17.3186 20.9852 17.2981 20.9976 17.2725 21.0105C17.247 21.0232 17.2219 21.0336 17.2005 21.041C17.1857 21.0461 17.1765 21.0484 17.1734 21.0491L15.9373 21.2231L16.1112 19.9877C16.1119 19.9847 16.114 19.9769 16.1183 19.9645C16.1252 19.9447 16.1353 19.9205 16.1483 19.8949C16.1613 19.8692 16.1747 19.8468 16.1866 19.8296C16.1952 19.8172 16.2008 19.8105 16.202 19.8091ZM19.5691 16.442C19.8079 16.9466 20.2121 17.3531 20.7149 17.5948L20.89 17.4198C21.1524 17.1574 21.2296 16.9823 21.2402 16.8749C21.2469 16.8072 21.2434 16.6138 20.89 16.2604C20.5435 15.9139 20.3538 15.9118 20.287 15.9186C20.1791 15.9297 20.003 16.008 19.7407 16.2704L19.5691 16.442Z" fill="#001F3E"/>
<path d="M4.16016 22C4.16016 18.6809 7.52305 15.75 12.0002 15.75C12.9681 15.75 13.8952 15.8896 14.7539 16.1481C15.1506 16.2676 15.5689 16.0428 15.6883 15.6462C15.8077 15.2496 15.583 14.8313 15.1864 14.7118C14.1851 14.4104 13.1123 14.25 12.0002 14.25C6.99731 14.25 2.66016 17.5791 2.66016 22C2.66016 22.4142 2.99594 22.75 3.41016 22.75C3.82437 22.75 4.16016 22.4142 4.16016 22Z" fill="#001F3E"/>
</svg>
