<svg width="24" height="24" viewBox="0 0 24 24" fill="none" xmlns="http://www.w3.org/2000/svg">
<path fill-rule="evenodd" clip-rule="evenodd" d="M15.8238 5.81188L18.3423 14.8487C17.0921 15.3098 16.2007 16.5119 16.2007 17.9222C16.2007 19.7309 17.6669 21.1971 19.4756 21.1971C21.2843 21.1971 22.7505 19.7309 22.7505 17.9222C22.7505 16.2398 21.482 14.8538 19.8492 14.6684L18.2499 8.92981H19.5958C20.01 8.92981 20.3458 8.59402 20.3458 8.17981C20.3458 7.7656 20.01 7.42981 19.5958 7.42981H17.8828C17.8659 7.42981 17.849 7.43037 17.8324 7.43148L17.2038 5.17619C17.1616 5.02469 17.0728 4.8903 16.9501 4.79202L14.6156 2.92331C14.2923 2.66445 13.8203 2.71675 13.5614 3.04012C13.3026 3.36349 13.3549 3.83547 13.6782 4.09433L15.8238 5.81188ZM19.4756 16.1473C18.4953 16.1473 17.7007 16.9419 17.7007 17.9222C17.7007 18.9025 18.4953 19.6971 19.4756 19.6971C20.4559 19.6971 21.2505 18.9025 21.2505 17.9222C21.2505 16.9419 20.4559 16.1473 19.4756 16.1473Z" fill="#0033CC"/>
<path fill-rule="evenodd" clip-rule="evenodd" d="M8.87695 5.74516C10.4807 5.8597 11.8485 6.35127 12.8956 7.24054C14.1082 8.27036 14.8049 9.76065 14.9945 11.5758C15.103 12.6141 14.2458 13.3903 13.3108 13.3903H2.94302C2.00802 13.3903 1.15084 12.6141 1.2593 11.5758C1.44892 9.76065 2.14557 8.27036 3.35818 7.24054C4.40532 6.35125 5.77312 5.85968 7.37695 5.74516V4.90985C7.37695 4.49564 7.71274 4.15985 8.12695 4.15985C8.54117 4.15985 8.87695 4.49564 8.87695 4.90985V5.74516ZM7.94673 7.22067C6.35826 7.25046 5.163 7.67572 4.32916 8.38387C3.46986 9.11364 2.90954 10.2157 2.75118 11.7316C2.74753 11.7666 2.75697 11.7975 2.78691 11.8284C2.8201 11.8626 2.87488 11.8903 2.94302 11.8903H13.3108C13.3789 11.8903 13.4337 11.8626 13.4669 11.8284C13.4968 11.7975 13.5063 11.7666 13.5026 11.7316C13.3443 10.2157 12.7839 9.11364 11.9246 8.38387C11.0908 7.67573 9.89559 7.25048 8.30717 7.22067C8.24944 7.23491 8.18908 7.24247 8.12695 7.24247C8.06482 7.24247 8.00446 7.23491 7.94673 7.22067Z" fill="#0033CC"/>
<path fill-rule="evenodd" clip-rule="evenodd" d="M4.98779 17.8359C4.98779 17.4217 5.32358 17.0859 5.73779 17.0859H10.7877C11.2019 17.0859 11.5377 17.4217 11.5377 17.8359C11.5377 19.6446 10.0714 21.1108 8.26272 21.1108C6.45403 21.1108 4.98779 19.6446 4.98779 17.8359ZM6.65357 18.5859C6.93622 19.1913 7.55048 19.6108 8.26272 19.6108C8.97496 19.6108 9.58922 19.1913 9.87188 18.5859H6.65357Z" fill="#0033CC"/>
<path d="M14.8682 15.2478C14.8682 15.662 14.5324 15.9978 14.1182 15.9978H2.13599C1.72177 15.9978 1.38599 15.662 1.38599 15.2478C1.38599 14.8336 1.72177 14.4978 2.13599 14.4978H14.1182C14.5324 14.4978 14.8682 14.8336 14.8682 15.2478Z" fill="#0033CC"/>
</svg>
