<svg width="24" height="24" viewBox="0 0 24 24" fill="none" xmlns="http://www.w3.org/2000/svg">
<path d="M13.36 3.0074L13.1986 3.02609C12.7976 3.07245 12.4773 3.39408 12.4326 3.79226L12.4239 3.87024C12.2963 5.00679 12.1694 6.1371 12.1694 7.29029C12.1694 7.7045 11.8336 8.04029 11.4194 8.04029C11.0052 8.04029 10.6694 7.7045 10.6694 7.29029C10.6694 6.0517 10.8046 4.84823 10.9299 3.73231L10.942 3.62504C11.0648 2.52967 11.9345 1.66223 13.0264 1.53601L13.2101 1.51473C14.3073 1.38744 15.492 1.25 16.7097 1.25C17.9275 1.25 19.1122 1.38744 20.2094 1.51473L20.3931 1.53601C21.4849 1.66223 22.3546 2.52967 22.4775 3.62504L22.4895 3.73232C22.6148 4.84824 22.75 6.05171 22.75 7.29029C22.75 8.52886 22.6148 9.73233 22.4895 10.8483L22.4775 10.9555C22.3546 12.0509 21.4849 12.9183 20.393 13.0446L20.2165 13.065C19.4592 13.1528 18.66 13.2455 17.8439 13.2946C17.4305 13.3195 17.0751 13.0045 17.0503 12.591C17.0254 12.1776 17.3404 11.8222 17.7539 11.7973C18.5266 11.7508 19.2864 11.6628 20.0513 11.5741L20.2208 11.5545C20.6219 11.5081 20.9422 11.1865 20.9868 10.7883L20.9956 10.7103C21.1231 9.57379 21.25 8.44347 21.25 7.29029C21.25 6.1371 21.1231 5.00679 20.9956 3.87024L20.9868 3.79227C20.9422 3.39408 20.6219 3.07245 20.2208 3.02609L20.0594 3.0074C18.9438 2.87813 17.838 2.75 16.7097 2.75C15.5814 2.75 14.4757 2.87813 13.36 3.0074Z" fill="#0033CC"/>
<path fill-rule="evenodd" clip-rule="evenodd" d="M15.5 4.81256C15.0858 4.81256 14.75 5.14835 14.75 5.56256C14.75 5.58724 14.7512 5.61164 14.7535 5.63571C14.7512 5.65978 14.75 5.68418 14.75 5.70886V9.94732C14.75 10.3615 15.0858 10.6973 15.5 10.6973C15.9142 10.6973 16.25 10.3615 16.25 9.94732V9.23564H16.9615C17.5481 9.23564 18.1106 9.00264 18.5253 8.58789C18.9401 8.17315 19.1731 7.61064 19.1731 7.0241C19.1731 6.43756 18.9401 5.87505 18.5253 5.46031C18.1106 5.04556 17.5481 4.81256 16.9615 4.81256H15.5ZM16.25 7.73564H16.9615C17.1502 7.73564 17.3312 7.66067 17.4647 7.52723C17.5981 7.39379 17.6731 7.21281 17.6731 7.0241C17.6731 6.83539 17.5981 6.65441 17.4647 6.52097C17.3312 6.38753 17.1502 6.31256 16.9615 6.31256H16.25V7.73564Z" fill="#0033CC"/>
<path fill-rule="evenodd" clip-rule="evenodd" d="M10.146 10.25C8.79322 10.25 7.8884 10.3595 6.81883 10.5829C6.31824 10.6875 5.85342 10.9987 5.59204 11.4865C5.20249 12.2136 4.9372 12.9943 4.82077 13.7979C4.56994 13.8556 4.31785 13.9159 4.06387 13.9784C3.35356 14.1533 2.82747 14.7111 2.64365 15.3806C2.24234 16.8421 2.18203 18.0853 2.5943 19.5903C2.81896 20.4104 3.54999 21.0161 4.4165 21.0545C4.60972 21.0631 4.80399 21.072 4.99945 21.0812C5.28743 21.8975 6.0657 22.4825 6.98061 22.4825C7.8368 22.4825 8.57333 21.9702 8.90036 21.2354C9.31711 21.2443 9.73758 21.2494 10.1613 21.2494C10.6083 21.2494 11.0517 21.2437 11.4909 21.2339C11.8176 21.9695 12.5545 22.4825 13.4113 22.4825C14.3274 22.4825 15.1065 21.8959 15.3936 21.0779C15.5653 21.0699 15.7361 21.0621 15.9061 21.0545C16.7726 21.0161 17.5037 20.4104 17.7283 19.5903C18.1383 18.0938 18.0837 16.8537 17.6834 15.3965C17.4954 14.7125 16.9519 14.1515 16.2299 13.9842C15.9902 13.9286 15.7485 13.8734 15.5049 13.8192C15.39 13.0178 15.1251 12.2464 14.7388 11.5112C14.4743 11.0077 13.9955 10.6865 13.4787 10.5829C12.3701 10.3605 11.5039 10.25 10.146 10.25ZM13.4113 18.282C12.4771 18.282 11.6854 18.8919 11.4126 19.7352C10.9976 19.7442 10.5805 19.7494 10.1613 19.7494C9.76562 19.7494 9.37174 19.7448 8.97977 19.7367C8.70741 18.8926 7.91532 18.282 6.98061 18.282C6.1043 18.282 5.35335 18.8187 5.0385 19.5813C4.8526 19.5727 4.66736 19.5642 4.48296 19.556C4.28399 19.5472 4.09814 19.4026 4.041 19.194C3.71031 17.9869 3.74886 17.0205 4.09011 15.7777C4.14001 15.596 4.27556 15.4711 4.42242 15.435C4.81982 15.3371 5.20871 15.2457 5.5927 15.1621H7.82285C8.23706 15.1621 8.57285 14.8263 8.57285 14.4121C8.57285 13.9978 8.23706 13.6621 7.82285 13.6621H6.36868C6.47699 13.1616 6.66067 12.6681 6.91422 12.1949C6.94666 12.1344 7.01718 12.0739 7.12558 12.0512C8.0966 11.8484 8.89864 11.75 10.146 11.75C11.3928 11.75 12.1596 11.8481 13.1837 12.0536C13.2989 12.0767 13.3756 12.1417 13.4109 12.2089C13.8023 12.9537 14.0239 13.7094 14.063 14.4743C14.0804 14.8139 14.324 15.0994 14.6566 15.1698C15.0698 15.2573 15.4809 15.3504 15.8913 15.4454C16.0461 15.4813 16.1864 15.61 16.2369 15.7939C16.5761 17.0283 16.6109 17.9919 16.2816 19.194C16.2245 19.4026 16.0386 19.5472 15.8397 19.556C15.6777 19.5632 15.5152 19.5706 15.3521 19.5782C15.0365 18.8172 14.2864 18.282 13.4113 18.282ZM6.38037 20.3823C6.38037 20.0508 6.64911 19.782 6.98061 19.782C7.31212 19.782 7.58085 20.0508 7.58085 20.3823C7.58085 20.7138 7.31212 20.9825 6.98061 20.9825C6.64911 20.9825 6.38037 20.7138 6.38037 20.3823ZM13.4113 19.782C13.0798 19.782 12.811 20.0508 12.811 20.3823C12.811 20.7138 13.0798 20.9825 13.4113 20.9825C13.7428 20.9825 14.0115 20.7138 14.0115 20.3823C14.0115 20.0508 13.7428 19.782 13.4113 19.782Z" fill="#0033CC"/>
</svg>
