<svg width="24" height="24" viewBox="0 0 24 24" fill="none" xmlns="http://www.w3.org/2000/svg">
<path d="M8.95534 5.33929C9.26871 5.37091 9.49714 5.65061 9.46553 5.96397C9.4338 6.27722 9.15413 6.50576 8.84084 6.47416L7.9897 6.38828C7.67651 6.35658 7.44804 6.07681 7.47951 5.7636C7.51112 5.4503 7.79091 5.22192 8.1042 5.25342L8.95534 5.33929Z" fill="#0033C9"/>
<path d="M14.0613 5.85444C14.3746 5.88605 14.6031 6.16575 14.5714 6.47912C14.5397 6.79238 14.2601 7.02091 13.9468 6.9893L10.5422 6.64581C10.2291 6.61397 10.0015 6.33435 10.033 6.02122C10.0646 5.70801 10.3435 5.4796 10.6567 5.51094L14.0613 5.85444Z" fill="#0033C9"/>
<path fill-rule="evenodd" clip-rule="evenodd" d="M19.7296 3.70359C21.2203 3.85398 22.2981 5.18403 22.1481 6.67033L22.0568 7.57589C21.9419 8.71348 21.3016 9.67478 20.3972 10.2401L20.245 11.3496C20.0316 13.4647 18.1435 15.0066 16.0284 14.7933L13.6965 14.5581C13.056 15.1892 12.1496 15.5484 11.1704 15.4496L10.7963 15.4119L9.23856 19.2554C8.81321 20.3045 7.79375 20.9908 6.66169 20.9908L3.65821 20.9911L3.65761 21.7753C3.65742 22.2082 3.30676 22.559 2.87382 22.559C2.44086 22.5589 2.09027 22.2081 2.09014 21.7752L2.08984 17.9256C2.08984 17.4926 2.44074 17.141 2.87374 17.141C3.3068 17.141 3.65829 17.4928 3.65829 17.9258L3.65843 19.4227L6.66191 19.4224C7.15528 19.4224 7.59909 19.1232 7.78452 18.666L9.1698 15.2478L7.68515 15.098C4.3166 14.758 1.8618 11.7514 2.20166 8.38277L2.23028 8.09906C2.57031 4.73117 5.57254 2.27526 8.94162 2.61517L19.7296 3.70359ZM8.79849 4.03375C6.21394 3.77299 3.90996 5.65659 3.64886 8.24218L3.62024 8.5259C3.35942 11.1111 5.24313 13.4185 7.82827 13.6794L11.3135 14.031C12.2174 14.1222 13.007 13.5014 13.1751 12.6533L13.2 12.1052C13.2023 12.0528 13.2058 12.0009 13.2108 11.9493C13.2967 10.3842 14.6384 9.15045 16.2396 9.23667L16.3119 9.24004C16.3356 9.24096 16.3594 9.24182 16.3832 9.24331L16.5179 9.251L18.396 9.35314C19.5364 9.4145 20.5234 8.56902 20.6382 7.43277L20.7296 6.52721C20.8009 5.81997 20.2894 5.19309 19.5865 5.12217L8.79849 4.03375ZM16.5161 10.6789L16.1626 10.6609C15.3051 10.6148 14.5946 11.3182 14.6327 12.1762C14.6436 12.421 14.6255 12.6597 14.5833 12.8896L14.5664 13.2128L16.1715 13.3748C17.5032 13.509 18.692 12.5382 18.8264 11.2065L18.933 10.8305L16.5161 10.6789Z" fill="#0033C9"/>
</svg>
