<svg width="24" height="24" viewBox="0 0 24 24" fill="none" xmlns="http://www.w3.org/2000/svg">
<path fill-rule="evenodd" clip-rule="evenodd" d="M8.50726 4.36069C9.98844 1.54644 14.0134 1.54644 15.4946 4.36069L21.5954 15.9521C23.3705 19.3422 19.7714 23.0388 16.3355 21.3208L13.0955 19.7008C12.4067 19.3564 11.5952 19.3564 10.9064 19.7008L7.66635 21.3208C4.23586 23.0361 0.617152 19.3467 2.40726 15.9507L8.50726 4.36069ZM14.1673 5.05931C13.2484 3.31356 10.7534 3.31356 9.83463 5.05931L3.73463 16.6493C2.62535 18.7531 4.8662 21.0438 6.99553 19.9792L10.2355 18.3592C11.3467 17.8036 12.6552 17.8036 13.7664 18.3592L17.0064 19.9792C19.1303 21.0411 21.3709 18.7583 20.2669 16.6486C20.2668 16.6484 20.267 16.6488 20.2669 16.6486L14.1673 5.05931Z" fill="#001F3E"/>
</svg>
