<svg width="24" height="24" viewBox="0 0 24 24" fill="none" xmlns="http://www.w3.org/2000/svg">
<path d="M22.75 16.1055C22.75 17.8563 22.5459 19.2523 21.6387 20.1494C20.7342 21.0437 19.3286 21.2451 17.5596 21.2451H6.44043C4.67256 21.25 3.26737 21.052 2.3623 20.1592C1.45426 19.2631 1.25002 17.8659 1.25 16.1152V9.25H22.75V16.1055ZM6 15.7549C5.58583 15.7549 5.25007 16.0907 5.25 16.5049C5.25 16.9191 5.58579 17.2549 6 17.2549H8C8.41421 17.2549 8.75 16.9191 8.75 16.5049C8.74993 16.0907 8.41417 15.7549 8 15.7549H6ZM10.5 15.7549C10.0858 15.7549 9.75007 16.0907 9.75 16.5049C9.75 16.9191 10.0858 17.2549 10.5 17.2549H14.5C14.9142 17.2549 15.25 16.9191 15.25 16.5049C15.2499 16.0907 14.9142 15.7549 14.5 15.7549H10.5ZM17.5498 2.75488C19.3233 2.75488 20.7309 2.9559 21.6367 3.84961C22.5207 4.72201 22.7367 6.06675 22.748 7.75H1.25195C1.26334 6.06679 1.47919 4.7229 2.36133 3.85059C3.26581 2.95628 4.67143 2.75488 6.44043 2.75488H17.5498Z" fill="#001F3E"/>
</svg>
