<svg width="24" height="24" viewBox="0 0 24 24" fill="none" xmlns="http://www.w3.org/2000/svg">
<g clip-path="url(#clip0_1_7930)">
<path d="M23.0295 14.7908C22.9291 14.6906 22.8024 14.621 22.6641 14.5899C22.5258 14.5589 22.3815 14.5677 22.248 14.6153C20.4535 15.2551 18.5143 15.3725 16.6557 14.954C14.7971 14.5355 13.0954 13.5983 11.7483 12.2511C10.4012 10.9039 9.46398 9.20216 9.0456 7.34353C8.62721 5.4849 8.74481 3.54571 9.38471 1.75125C9.43226 1.6177 9.44098 1.4734 9.40986 1.33508C9.37875 1.19677 9.30907 1.07011 9.2089 0.969788C9.10873 0.869464 8.98218 0.799584 8.84392 0.76825C8.70565 0.736917 8.56134 0.745412 8.42771 0.792753C6.80988 1.36406 5.34171 2.29284 4.13246 3.51C1.96468 5.67943 0.747223 8.62098 0.747803 11.6878C0.748383 14.7547 1.96695 17.6958 4.13555 19.8644C6.30416 22.033 9.24525 23.2516 12.3121 23.2522C15.379 23.2527 18.3205 22.0353 20.49 19.8675C21.7072 18.658 22.636 17.1896 23.2072 15.5715C23.2544 15.4379 23.2627 15.2936 23.2312 15.1554C23.1998 15.0172 23.1298 14.8908 23.0295 14.7908Z" fill="#001F3E"/>
</g>
<defs>
<clipPath id="clip0_1_7930">
<rect width="24" height="24" fill="white"/>
</clipPath>
</defs>
</svg>
