<svg width="24" height="24" viewBox="0 0 24 24" fill="none" xmlns="http://www.w3.org/2000/svg">
<path d="M20.4214 18.0926C20.4214 17.8986 20.349 17.7022 20.196 17.5492C19.8976 17.2508 19.4077 17.2508 19.1093 17.5492L16.6284 20.0301V2.69185C16.6284 2.26991 16.2816 1.9231 15.8597 1.9231C15.4378 1.9231 15.0909 2.26991 15.0909 2.69185L15.0909 20.0316L12.6085 17.5492C12.3101 17.2508 11.8202 17.2508 11.5218 17.5492C11.2234 17.8477 11.2234 18.3376 11.5218 18.636L15.3155 22.4298C15.6139 22.7282 16.1039 22.7282 16.4023 22.4298L20.196 18.636C20.349 18.483 20.4214 18.2867 20.4214 18.0926Z" fill="#001F3E"/>
<path d="M12.1215 6.48403C12.1215 6.67805 12.0491 6.87444 11.8961 7.02741C11.5977 7.32582 11.1078 7.32582 10.8094 7.02741L8.32852 4.54658V21.8848C8.32852 22.3067 7.9817 22.6536 7.55977 22.6536C7.13783 22.6536 6.79102 22.3067 6.79102 21.8848L6.79101 4.54502L4.30862 7.02741C4.01021 7.32582 3.52026 7.32582 3.22185 7.02741C2.92345 6.72901 2.92345 6.23906 3.22185 5.94065L7.0156 2.1469C7.31401 1.84849 7.80396 1.84849 8.10237 2.1469L11.8961 5.94065C12.0491 6.09363 12.1215 6.29001 12.1215 6.48403Z" fill="#001F3E"/>
</svg>
