<svg width="24" height="24" viewBox="0 0 24 24" fill="none" xmlns="http://www.w3.org/2000/svg">
<path fill-rule="evenodd" clip-rule="evenodd" d="M11.6943 1.25C9.60332 1.25 7.9082 2.94511 7.9082 5.03614C7.9082 5.97304 8.24851 6.83046 8.81225 7.49153C8.17141 7.68416 7.58306 8.03643 7.10637 8.52329L4.49857 10.9506C4.48915 10.9594 4.47996 10.9684 4.47101 10.9776C4.05838 11.4033 3.90168 12.0021 3.9004 12.5166C3.89912 13.0302 4.05267 13.6356 4.47919 14.0622C4.89957 14.4825 5.48556 14.6525 6.00555 14.6536C6.39354 14.6544 6.82139 14.5612 7.18844 14.3341C6.84006 14.6874 6.53121 15.0264 6.26976 15.3573C5.79734 15.9551 5.44306 16.5713 5.30581 17.2485C5.02144 18.6517 5.72646 19.9621 7.05306 21.4783C7.77942 22.3956 9.10316 22.576 10.0491 21.8823C11.0764 21.129 11.241 19.6587 10.4057 18.6969L10.3987 18.689C10.1336 18.3924 10.0435 18.2177 10.0164 18.1304C10.0022 18.0847 10.0048 18.0787 10.0219 18.045C10.0597 17.9704 10.1536 17.8503 10.377 17.6451C10.512 17.521 10.6556 17.3993 10.824 17.2565C10.8794 17.2095 10.9376 17.1602 10.999 17.1078H12.3355L12.4166 17.1776C12.6381 17.368 12.8194 17.5239 12.9745 17.6722C13.197 17.8849 13.2722 17.9982 13.2948 18.0516C13.2927 18.0575 13.2894 18.0658 13.2842 18.0769C13.2413 18.1679 13.1162 18.3423 12.7945 18.627C12.7698 18.6487 12.7467 18.6721 12.7251 18.697C11.8898 19.6588 12.0544 21.129 13.0817 21.8823C14.0304 22.578 15.3591 22.3945 16.084 21.4703C17.3138 19.9934 18.1154 18.7388 17.9497 17.373C17.867 16.691 17.5531 16.0659 17.0935 15.4485C16.6837 14.898 16.1311 14.3184 15.4558 13.6759V13.601L16.0237 14.0744C16.8041 14.842 18.0615 14.84 18.8394 14.0622C19.2659 13.6357 19.4195 13.0303 19.4182 12.5167C19.4169 12.0022 19.2603 11.4034 18.8476 10.9776C18.8387 10.9684 18.8295 10.9594 18.8201 10.9506L16.2122 8.52328C15.7493 8.0505 15.1811 7.70464 14.5618 7.50864C15.1343 6.84528 15.4805 5.98114 15.4805 5.03614C15.4805 2.94511 13.7854 1.25 11.6943 1.25ZM9.4082 5.03614C9.4082 3.77354 10.4317 2.75 11.6943 2.75C12.9569 2.75 13.9805 3.77354 13.9805 5.03614C13.9805 6.29874 12.9569 7.32228 11.6943 7.32228C10.4317 7.32228 9.4082 6.29874 9.4082 5.03614ZM7.44668 16.2872C7.73569 15.9215 8.10844 15.526 8.56947 15.0766L9.65042 16.2859C9.54684 16.375 9.44889 16.4608 9.36214 16.5405C9.11531 16.7673 8.85053 17.0384 8.68418 17.3664C8.49712 17.7351 8.44998 18.143 8.5836 18.5743C8.70378 18.9622 8.95717 19.3263 9.27585 19.6837C9.53294 19.9833 9.48091 20.4389 9.16205 20.6727C8.86529 20.8903 8.44915 20.8318 8.22397 20.5407C8.21457 20.5285 8.20479 20.5167 8.19465 20.5051C6.8994 19.0281 6.64216 18.2065 6.77592 17.5465C6.84823 17.1897 7.05032 16.7888 7.44668 16.2872ZM12.2774 15.6078H11.0561L10.2891 14.7496H13.0384L12.2774 15.6078ZM9.36278 11.9996V13.2496H13.9558V11.9996C13.9558 11.7086 14.1241 11.4438 14.3877 11.3204C14.6513 11.197 14.9624 11.2371 15.186 11.4235L17.0105 12.9442C17.0304 12.9607 17.0494 12.9783 17.0675 12.9969C17.2618 13.1964 17.5818 13.1984 17.7787 13.0015C17.8349 12.9453 17.9188 12.7797 17.9182 12.5203C17.9176 12.2732 17.8402 12.1015 17.7788 12.0307L15.1768 9.6088C15.1674 9.60004 15.1582 9.59103 15.1493 9.58179C14.6788 9.09635 14.0316 8.82234 13.3556 8.82234H9.96301C9.28698 8.82234 8.63981 9.09635 8.16931 9.58179C8.16035 9.59103 8.15116 9.60003 8.14175 9.6088L5.5398 12.0307C5.47844 12.1015 5.40101 12.2733 5.40039 12.5204C5.39975 12.7797 5.48371 12.9454 5.53985 13.0015C5.61199 13.0736 5.77816 13.1531 6.00873 13.1536C6.23965 13.1541 6.39746 13.0754 6.46276 13.0084C6.4695 13.0015 6.47637 12.9947 6.48336 12.9881L8.09621 11.4558C8.3136 11.2493 8.63311 11.1921 8.90864 11.3104C9.18418 11.4287 9.36278 11.6997 9.36278 11.9996ZM15.8903 16.3442C15.6135 15.9725 15.2382 15.5605 14.7501 15.0801L13.6799 16.2871C13.7988 16.3914 13.911 16.4922 14.0112 16.588C14.2601 16.8261 14.5283 17.1164 14.6769 17.4688C14.8485 17.8756 14.8367 18.3019 14.6408 18.717C14.4738 19.0708 14.1836 19.3954 13.8328 19.7108C13.6012 20.0102 13.6593 20.4458 13.9687 20.6727C14.2655 20.8903 14.6816 20.8318 14.9068 20.5407C14.9123 20.5335 14.918 20.5264 14.9238 20.5195C16.1897 19.0005 16.5402 18.2091 16.4607 17.5537C16.4206 17.2236 16.2614 16.8427 15.8903 16.3442Z" fill="#001F3E"/>
</svg>
