<svg width="24" height="24" viewBox="0 0 24 24" fill="none" xmlns="http://www.w3.org/2000/svg">
<path d="M7.46967 7.46954C7.76256 7.17665 8.23744 7.17665 8.53033 7.46954L12 10.9392L15.4697 7.46954C15.7626 7.17665 16.2374 7.17665 16.5303 7.46954C16.8232 7.76243 16.8232 8.23731 16.5303 8.5302L13.0607 11.9999L16.5302 15.4694C16.8231 15.7623 16.8231 16.2371 16.5302 16.53C16.2373 16.8229 15.7624 16.8229 15.4695 16.53L12 13.0605L8.53049 16.53C8.2376 16.8229 7.76273 16.8229 7.46983 16.53C7.17694 16.2371 7.17694 15.7623 7.46983 15.4694L10.9393 11.9999L7.46967 8.5302C7.17678 8.23731 7.17678 7.76243 7.46967 7.46954Z" fill="#001F3E"/>
<path fill-rule="evenodd" clip-rule="evenodd" d="M1.25 12C1.25 6.08579 6.08579 1.25 12 1.25C17.9142 1.25 22.75 6.08579 22.75 12C22.75 17.9142 17.9142 22.75 12 22.75C6.08579 22.75 1.25 17.9142 1.25 12ZM12 2.75C6.91421 2.75 2.75 6.91421 2.75 12C2.75 17.0858 6.91421 21.25 12 21.25C17.0858 21.25 21.25 17.0858 21.25 12C21.25 6.91421 17.0858 2.75 12 2.75Z" fill="#001F3E"/>
</svg>
