<svg width="24" height="24" viewBox="0 0 24 24" fill="none" xmlns="http://www.w3.org/2000/svg">
<path d="M14.8754 4.11609C16.4001 5.01483 17.5834 6.57526 18.0783 8.82014C22.6266 9.83262 24.3365 16.0066 20.7289 19.1696C19.6019 20.1918 18.1326 20.7612 16.6041 20.7498C16.1899 20.7467 15.8566 20.4085 15.8597 19.9943C15.8628 19.58 16.2011 19.2468 16.6153 19.2499C17.7644 19.2584 18.8729 18.8297 19.7252 18.0549C19.7274 18.0529 19.7295 18.051 19.7317 18.0491C19.7331 18.0478 19.7345 18.0466 19.736 18.0453C22.4902 15.6364 21.0439 10.7792 17.464 10.2304C17.0085 10.2424 16.5682 10.354 16.1548 10.5607C15.7843 10.7459 15.3338 10.5958 15.1485 10.2253C14.9633 9.85481 15.1134 9.40431 15.4839 9.21906C15.8222 9.04995 16.176 8.92304 16.5408 8.84083C16.0947 7.13563 15.182 6.03803 14.1137 5.40829C12.8784 4.68013 11.3597 4.5335 9.94615 4.90408C8.5326 5.27466 7.27733 6.14856 6.55197 7.39122C5.89054 8.52434 5.63399 10.0247 6.1774 11.8547C6.67934 11.9194 7.16844 12.0716 7.61983 12.3016C7.98891 12.4896 8.13568 12.9412 7.94766 13.3103C7.75964 13.6794 7.30802 13.8262 6.93894 13.6381C6.52102 13.4252 6.05926 13.3151 5.60193 13.3195C1.90261 13.6013 1.89761 18.9974 5.62248 19.2617C6.03565 19.2911 6.34682 19.6498 6.3175 20.063C6.28818 20.4761 5.92947 20.7873 5.51629 20.758C0.252343 20.3844 -0.0638507 13.0855 4.64859 11.9537C4.11912 9.89884 4.4111 8.08336 5.25652 6.63504C6.20771 5.00551 7.81807 3.91129 9.56577 3.45311C11.3134 2.99494 13.2516 3.15894 14.8754 4.11609Z" fill="#001F3E"/>
<path fill-rule="evenodd" clip-rule="evenodd" d="M12.7996 15.9999C12.7996 15.0213 11.5417 14.4313 10.8324 15.2591L8.38718 18.0436L8.38649 18.0444C8.17518 18.2842 7.88578 18.7614 8.12579 19.2883C8.36476 19.8128 8.91234 19.9099 9.22955 19.9099H9.47955V21.4899C9.47955 22.4684 10.7375 23.0584 11.4467 22.2306L13.8919 19.4461L13.8927 19.4452C14.104 19.2054 14.3933 18.7282 14.1533 18.2014C13.9144 17.6769 13.3668 17.5799 13.0496 17.5799H12.7996V15.9999ZM10.0618 18.4099L11.2996 17.0004V18.3299C11.2996 18.7441 11.6353 19.0799 12.0496 19.0799H12.2173L10.9796 20.4893V19.1599C10.9796 18.7456 10.6438 18.4099 10.2296 18.4099H10.0618Z" fill="#001F3E"/>
</svg>
