<svg width="24" height="24" viewBox="0 0 24 24" fill="none" xmlns="http://www.w3.org/2000/svg">
<path d="M12 1C12.5523 1 13 1.44772 13 2V2.07999C13 2.63227 12.5523 3.07999 12 3.07999C11.4477 3.07999 11 2.63227 11 2.07999V2C11 1.44772 11.4477 1 12 1Z" fill="#001F3E"/>
<path d="M4.15288 4.15288C4.5434 3.76235 5.17657 3.76235 5.56709 4.15288L5.6971 4.28288C6.08762 4.67341 6.08762 5.30657 5.6971 5.6971C5.30657 6.08762 4.67341 6.08762 4.28288 5.6971L4.15288 5.56709C3.76235 5.17657 3.76235 4.5434 4.15288 4.15288Z" fill="#001F3E"/>
<path d="M19.8471 4.15288C20.2376 4.5434 20.2376 5.17657 19.8471 5.56709L19.7171 5.6971C19.3266 6.08762 18.6934 6.08762 18.3029 5.6971C17.9124 5.30657 17.9124 4.67341 18.3029 4.28288L18.4329 4.15288C18.8234 3.76235 19.4566 3.76235 19.8471 4.15288Z" fill="#001F3E"/>
<path d="M1 12C1 11.4477 1.44772 11 2 11H2.08002C2.6323 11 3.08002 11.4477 3.08002 12C3.08002 12.5523 2.6323 13 2.08002 13H2C1.44772 13 1 12.5523 1 12Z" fill="#001F3E"/>
<path d="M20.92 12C20.92 11.4477 21.3677 11 21.92 11H22C22.5523 11 23 11.4477 23 12C23 12.5523 22.5523 13 22 13H21.92C21.3677 13 20.92 12.5523 20.92 12Z" fill="#001F3E"/>
<path d="M4.75 12C4.75 7.99579 7.99579 4.75 12 4.75C16.0042 4.75 19.25 7.99579 19.25 12C19.25 12.4142 18.9142 12.75 18.5 12.75C18.0858 12.75 17.75 12.4142 17.75 12C17.75 8.82421 15.1758 6.25 12 6.25C8.82421 6.25 6.25 8.82421 6.25 12C6.25 12.4142 5.91421 12.75 5.5 12.75C5.08579 12.75 4.75 12.4142 4.75 12Z" fill="#001F3E"/>
<path d="M4 14.25C3.58579 14.25 3.25 14.5858 3.25 15C3.25 15.4142 3.58579 15.75 4 15.75H20C20.4142 15.75 20.75 15.4142 20.75 15C20.75 14.5858 20.4142 14.25 20 14.25H4Z" fill="#001F3E"/>
<path d="M5.25 18C5.25 17.5858 5.58579 17.25 6 17.25H18C18.4142 17.25 18.75 17.5858 18.75 18C18.75 18.4142 18.4142 18.75 18 18.75H6C5.58579 18.75 5.25 18.4142 5.25 18Z" fill="#001F3E"/>
<path d="M9 20.25C8.58579 20.25 8.25 20.5858 8.25 21C8.25 21.4142 8.58579 21.75 9 21.75H15C15.4142 21.75 15.75 21.4142 15.75 21C15.75 20.5858 15.4142 20.25 15 20.25H9Z" fill="#001F3E"/>
</svg>
