<svg width="24" height="24" viewBox="0 0 24 24" fill="none" xmlns="http://www.w3.org/2000/svg">
<path d="M2.25 7C2.25 6.58579 2.58579 6.25 3 6.25H21C21.4142 6.25 21.75 6.58579 21.75 7C21.75 7.41421 21.4142 7.75 21 7.75H3C2.58579 7.75 2.25 7.41421 2.25 7Z" fill="#001F3E"/>
<path d="M2.25 12C2.25 11.5858 2.58579 11.25 3 11.25H15C15.4142 11.25 15.75 11.5858 15.75 12C15.75 12.4142 15.4142 12.75 15 12.75H3C2.58579 12.75 2.25 12.4142 2.25 12Z" fill="#001F3E"/>
<path d="M3 16.25C2.58579 16.25 2.25 16.5858 2.25 17C2.25 17.4142 2.58579 17.75 3 17.75H7C7.41421 17.75 7.75 17.4142 7.75 17C7.75 16.5858 7.41421 16.25 7 16.25H3Z" fill="#001F3E"/>
</svg>
