<svg width="24" height="24" viewBox="0 0 24 24" fill="none" xmlns="http://www.w3.org/2000/svg">
<path fill-rule="evenodd" clip-rule="evenodd" d="M6.15961 1.93072C6.83385 1.48618 7.70984 1.25 8.75979 1.25H15.2398C16.2897 1.25 17.1657 1.48618 17.84 1.93072C18.5208 2.3796 18.9545 3.01492 19.1454 3.72544C19.521 5.12387 18.944 6.70561 17.7636 7.77557V7.77557L13.115 12L17.7635 16.2243V16.2243C18.9437 17.2943 19.521 18.8762 19.1454 20.2746C18.9545 20.9851 18.5208 21.6204 17.84 22.0693C17.1657 22.5138 16.2897 22.75 15.2398 22.75H8.75979C7.70984 22.75 6.83385 22.5138 6.15961 22.0693C5.47879 21.6204 5.04506 20.9851 4.85421 20.2746C4.47865 18.8764 5.05541 17.2949 6.23539 16.2249L10.8846 12L6.2361 7.7757V7.7757C5.0559 6.70573 4.47861 5.12377 4.85421 3.72544C5.04506 3.01492 5.47879 2.3796 6.15961 1.93072ZM11.9998 10.9866L16.7554 6.66495C17.6049 5.89492 17.8986 4.86608 17.6967 4.11456C17.5988 3.75008 17.3819 3.4254 17.0143 3.18303C16.6401 2.93632 16.0698 2.75 15.2398 2.75H8.75979C7.92973 2.75 7.35947 2.93632 6.98527 3.18303C6.61766 3.4254 6.40076 3.75008 6.30286 4.11456C6.101 4.86608 6.39393 5.89427 7.24347 6.6643L11.9998 10.9866ZM11.9998 13.0134L7.24418 17.3351C6.39464 18.1051 6.101 19.1339 6.30286 19.8854C6.40076 20.2499 6.61766 20.5746 6.98527 20.817C7.35947 21.0637 7.92973 21.25 8.75979 21.25H15.2398C16.0698 21.25 16.6401 21.0637 17.0143 20.817C17.3819 20.5746 17.5988 20.2499 17.6967 19.8854C17.8986 19.1339 17.6056 18.1057 16.7561 17.3357L11.9998 13.0134Z" fill="#001F3E"/>
</svg>
