<svg width="24" height="24" viewBox="0 0 24 24" fill="none" xmlns="http://www.w3.org/2000/svg">
<path d="M11.5304 1.41484C11.8536 1.15576 12.3257 1.20774 12.5847 1.53093L14.4995 3.91955C14.6449 4.05978 14.7308 4.25598 14.7295 4.46387C14.7312 4.68554 14.635 4.90578 14.4486 5.05519C14.229 5.23126 13.9406 5.26366 13.697 5.16491C13.1397 5.04138 12.5745 4.97 11.9994 4.97C7.5036 4.97 3.85938 8.61423 3.85938 13.11C3.85938 17.6058 7.5036 21.25 11.9994 21.25C16.4952 21.25 20.1394 17.6058 20.1394 13.11C20.1394 11.2865 19.511 9.61207 18.4894 8.25002C18.2409 7.91865 18.308 7.44855 18.6394 7.20002C18.9708 6.95149 19.4409 7.01865 19.6894 7.35002C20.8879 8.94796 21.6394 10.9335 21.6394 13.11C21.6394 18.4342 17.3236 22.75 11.9994 22.75C6.67518 22.75 2.35938 18.4342 2.35938 13.11C2.35938 7.7858 6.67518 3.47 11.9994 3.47C12.0729 3.47 12.146 3.47096 12.2189 3.47284L11.4144 2.46913C11.1553 2.14594 11.2072 1.67392 11.5304 1.41484Z" fill="#001F3E"/>
<path d="M10.8493 10.08C10.5261 10.08 10.2393 10.2871 10.1375 10.5938L9.37753 12.8838C9.30166 13.1124 9.34023 13.3636 9.48122 13.559C9.62221 13.7543 9.84845 13.87 10.0894 13.87H12.3793C12.8083 13.87 13.1593 14.2174 13.1593 14.6501C13.1593 15.079 12.8119 15.43 12.3793 15.43H10.0894C9.67515 15.43 9.33936 15.7658 9.33936 16.18C9.33936 16.5942 9.67515 16.93 10.0894 16.93H12.3793C13.6467 16.93 14.6593 15.9011 14.6593 14.6501C14.6593 13.3827 13.6304 12.37 12.3793 12.37H11.1285L11.3906 11.58H13.9093C14.3235 11.58 14.6593 11.2443 14.6593 10.83C14.6593 10.4158 14.3235 10.08 13.9093 10.08H10.8493Z" fill="#001F3E"/>
</svg>
