<svg width="24" height="24" viewBox="0 0 24 24" fill="none" xmlns="http://www.w3.org/2000/svg">
<path d="M9.43018 13.8C9.01596 13.8 8.68018 14.1358 8.68018 14.55C8.68018 14.9643 9.01596 15.3 9.43018 15.3H14.4302C14.8444 15.3 15.1802 14.9643 15.1802 14.55C15.1802 14.1358 14.8444 13.8 14.4302 13.8H9.43018Z" fill="#001F3E"/>
<path fill-rule="evenodd" clip-rule="evenodd" d="M7 1.25C5.00536 1.25 3.45818 1.48116 2.46967 2.46967C1.48116 3.45818 1.25 5.00536 1.25 7V17C1.25 18.9946 1.48116 20.5418 2.46967 21.5303C3.45818 22.5188 5.00536 22.75 7 22.75H17C18.9946 22.75 20.5418 22.5188 21.5303 21.5303C22.5188 20.5418 22.75 18.9946 22.75 17V11C22.75 9.00536 22.5188 7.45818 21.5303 6.46967C20.5418 5.48116 18.9946 5.25 17 5.25H14C13.5677 5.25 13.4183 5.18362 13.3554 5.14563C13.2731 5.09587 13.2074 5.02285 12.9986 4.74816L11.4671 2.70605C11.2074 2.35915 10.9039 1.9538 10.435 1.67209C9.92831 1.36772 9.31493 1.25 8.5 1.25H7ZM2.75 7C2.75 4.99464 3.01884 4.04182 3.53033 3.53033C4.04182 3.01884 4.99464 2.75 7 2.75H8.5C9.18507 2.75 9.48669 2.85228 9.66253 2.95791C9.85612 3.07421 9.9971 3.24613 10.3 3.65L11.8 5.65L11.8029 5.65381L11.8342 5.6952C12.0015 5.91639 12.2295 6.21777 12.5796 6.42937C12.9717 6.66638 13.4323 6.75 14 6.75H17C19.0054 6.75 19.9582 7.01884 20.4697 7.53033C20.9812 8.04182 21.25 8.99464 21.25 11V17C21.25 19.0054 20.9812 19.9582 20.4697 20.4697C19.9582 20.9812 19.0054 21.25 17 21.25H7C4.99464 21.25 4.04182 20.9812 3.53033 20.4697C3.01884 19.9582 2.75 19.0054 2.75 17V7Z" fill="#001F3E"/>
</svg>
