<svg width="24" height="24" viewBox="0 0 24 24" fill="none" xmlns="http://www.w3.org/2000/svg">
<path fill-rule="evenodd" clip-rule="evenodd" d="M12 1.25C11.5858 1.25 11.25 1.58579 11.25 2V12C11.25 12.4142 11.5858 12.75 12 12.75H22C22.4142 12.75 22.75 12.4142 22.75 12C22.75 6.06294 17.9371 1.25 12 1.25ZM12.75 11.25V2.77997C17.2605 3.14188 20.8581 6.7395 21.22 11.25H12.75Z" fill="#001F3E"/>
<path d="M9.40954 4.74488C9.8154 4.66213 10.0773 4.26602 9.99457 3.86016C9.91182 3.4543 9.51571 3.19237 9.10985 3.27513C4.11889 4.2928 0.503207 9.09922 1.37923 14.5392L1.37953 14.5411C2.05143 18.6483 5.35026 21.9485 9.45949 22.6103C14.9222 23.4973 19.7285 19.8585 20.735 14.8477C20.8166 14.4416 20.5535 14.0463 20.1474 13.9647C19.7413 13.8831 19.346 14.1462 19.2644 14.5523C18.4109 18.8015 14.3372 21.8827 9.6999 21.1297L9.69887 21.1295C6.22887 20.571 3.42836 17.7718 2.86 14.2998C2.11662 9.6802 5.1808 5.60714 9.40954 4.74488Z" fill="#001F3E"/>
</svg>
