<svg width="24" height="24" viewBox="0 0 24 24" fill="none" xmlns="http://www.w3.org/2000/svg">
<path fill-rule="evenodd" clip-rule="evenodd" d="M5.58988 1.25C4.62047 1.25 3.7414 1.66198 2.98946 2.39989C2.3877 2.96904 1.94474 3.61754 1.66273 4.33343C1.38548 5.02733 1.24988 5.77184 1.24988 6.54C1.24988 7.69701 1.51707 8.88604 2.02865 10.101L2.02911 10.1021L2.02957 10.1032C2.53498 11.293 3.22463 12.4813 4.07102 13.6579L4.07229 13.6597L4.07356 13.6614C4.92665 14.8332 5.88138 15.9519 6.93699 17.0178L6.93954 17.0203L6.94212 17.0229C8.00812 18.0786 9.12659 19.0331 10.3075 19.8956L10.308 19.896L10.3084 19.8963C11.4893 20.7561 12.6884 21.4455 13.8959 21.96C15.1212 22.4821 16.3113 22.75 17.4499 22.75C18.2443 22.75 18.992 22.6021 19.6863 22.3131C20.4106 22.016 21.0398 21.5562 21.5953 20.944L21.5955 20.9438L21.5956 20.9436C21.938 20.5658 22.1983 20.1633 22.3981 19.7403C22.6146 19.2817 22.7199 18.8025 22.7199 18.33C22.7199 17.9351 22.6336 17.59 22.5062 17.2715L22.5015 17.2596L22.4964 17.2479C22.3232 16.8545 22.0454 16.5425 21.6908 16.2961L18.3779 13.9441L18.3716 13.9398C18.0938 13.7509 17.8168 13.5916 17.5339 13.4758C17.2361 13.354 16.9398 13.29 16.6399 13.29C16.2446 13.29 15.8881 13.4019 15.5611 13.5966C15.248 13.7639 14.9548 14.0047 14.6813 14.2779L13.9917 14.9584C13.9752 14.9509 13.9548 14.9417 13.9329 14.9322C13.6605 14.7841 13.2858 14.5248 12.805 14.118C12.2962 13.686 11.7923 13.2117 11.2603 12.6897C10.7566 12.1761 10.2899 11.6609 9.84974 11.1524C9.44788 10.6772 9.18287 10.3079 9.03321 10.0455C9.02309 10.0197 9.01373 9.99743 9.00676 9.98096L9.69551 9.26502C9.96415 8.99567 10.1967 8.70783 10.3669 8.40938C10.5671 8.07663 10.6799 7.70686 10.6799 7.32C10.6799 7.00645 10.5996 6.69713 10.4817 6.42039C10.3656 6.13798 10.2052 5.85904 10.0001 5.57396L7.68383 2.30921C7.42296 1.93393 7.08744 1.6723 6.7193 1.50141C6.363 1.33138 5.97306 1.25 5.58988 1.25ZM4.03602 3.47449C4.56281 2.95593 5.08175 2.75 5.58988 2.75C5.76485 2.75 5.93302 2.78783 6.07533 2.85614L6.08044 2.85859L6.08558 2.86097C6.23417 2.92955 6.35569 3.02601 6.45323 3.16691L6.45569 3.17046L8.7797 6.44611L8.78123 6.44823C8.93406 6.66049 9.03234 6.83904 9.09572 6.99397L9.09807 6.99973L9.10052 7.00544C9.16128 7.14722 9.17988 7.25575 9.17988 7.32C9.17988 7.40903 9.15502 7.51553 9.07923 7.64004L9.07292 7.6504L9.06696 7.66096C8.97884 7.81685 8.83557 8.00365 8.62955 8.20967L8.62442 8.2148L7.86347 9.00579C7.60547 9.26699 7.48988 9.59078 7.48988 9.93C7.48988 10.081 7.50996 10.2127 7.54227 10.3419L7.55263 10.3833L7.56763 10.4233C7.58723 10.4756 7.6069 10.522 7.61937 10.5514L7.6229 10.5597C7.63467 10.5875 7.63787 10.5959 7.63838 10.5973C7.63844 10.5974 7.63846 10.5975 7.63846 10.5975L7.65948 10.6605L7.69146 10.7191C7.9069 11.1141 8.25407 11.5888 8.70734 12.1245L8.71003 12.1276L8.71275 12.1308C9.17038 12.6596 9.66111 13.2016 10.1945 13.7453L10.1995 13.7503L10.2045 13.7553C10.7506 14.2912 11.285 14.7952 11.8345 15.2617L11.8349 15.2621L11.8354 15.2625C12.3776 15.7213 12.8535 16.0582 13.259 16.2728L13.2943 16.2915L13.3313 16.3064C13.3365 16.3084 13.3475 16.3132 13.3799 16.328L13.3877 16.3316C13.4149 16.3441 13.4532 16.3617 13.4944 16.3794L13.5103 16.3862L13.5265 16.3922C13.7161 16.4633 13.8918 16.48 14.0399 16.48C14.4183 16.48 14.7354 16.3341 14.9781 16.0924L15.7385 15.3421L15.7402 15.3403C15.9599 15.1207 16.1387 14.987 16.2768 14.9149L16.2987 14.9035L16.3198 14.8906C16.447 14.8132 16.5437 14.79 16.6399 14.79C16.72 14.79 16.8237 14.806 16.9659 14.8642C17.1215 14.9278 17.3027 15.0273 17.5221 15.1761L20.8293 17.5241L20.833 17.5266C20.9912 17.6362 21.0718 17.74 21.1188 17.8418C21.1877 18.0176 21.2199 18.1689 21.2199 18.33C21.2199 18.5775 21.1652 18.8383 21.0417 19.0997C20.9014 19.3967 20.7218 19.6742 20.4841 19.9364C20.0603 20.4034 19.6103 20.7232 19.1155 20.926L19.1134 20.9269L19.1114 20.9277C18.6063 21.1382 18.0547 21.25 17.4499 21.25C16.5485 21.25 15.5586 21.0379 14.4839 20.58C13.3916 20.1146 12.2909 19.4842 11.192 18.6842C10.074 17.8675 9.01338 16.9628 8.00024 15.9597C6.99738 14.9468 6.09336 13.887 5.28745 12.7803C4.49472 11.6779 3.86496 10.5871 3.41065 9.51788C2.96254 8.45329 2.74988 7.46268 2.74988 6.54C2.74988 5.94888 2.85402 5.39408 3.05624 4.88854L3.05702 4.88657L3.0578 4.88459C3.25494 4.38355 3.56979 3.91456 4.02454 3.48555L4.03034 3.48008L4.03602 3.47449Z" fill="#001F3E"/>
<path d="M15.2001 3.25001C14.7858 3.25001 14.4501 3.5858 14.4501 4.00001C14.4501 4.41423 14.7858 4.75001 15.2001 4.75001H19.2501V8.80001C19.2501 9.21423 19.5858 9.55001 20.0001 9.55001C20.4143 9.55001 20.7501 9.21423 20.7501 8.80001V4.00001C20.7501 3.5858 20.4143 3.25001 20.0001 3.25001H15.2001Z" fill="#001F3E"/>
</svg>
