<svg width="24" height="24" viewBox="0 0 24 24" fill="none" xmlns="http://www.w3.org/2000/svg">
<path fill-rule="evenodd" clip-rule="evenodd" d="M6.41909 4.59314C5.46978 5.14165 4.75012 6.39043 4.75012 8.43999V15.56C4.75012 17.6096 5.46978 18.8583 6.41909 19.4069C7.36828 19.9553 8.80933 19.9551 10.5853 18.9304L10.5858 18.9301L16.7653 15.3704C18.541 14.3457 19.2626 13.0972 19.2626 12C19.2626 10.9028 18.541 9.65424 16.7653 8.62961L10.5853 5.06961C8.80933 4.04484 7.36828 4.04469 6.41909 4.59314ZM11.3345 3.77011C9.2806 2.58512 7.24184 2.38537 5.66865 3.29435C4.09546 4.20334 3.25012 6.06955 3.25012 8.43999V15.56C3.25012 17.9304 4.09546 19.7967 5.66865 20.7056C7.24196 21.6147 9.28091 21.4148 11.335 20.2296L17.515 16.6696C19.5692 15.4842 20.7626 13.8178 20.7626 12C20.7626 10.1822 19.5692 8.51575 17.515 7.33038L11.3345 3.77011Z" fill="#001F3E"/>
</svg>
