<svg width="24" height="24" viewBox="0 0 24 24" fill="none" xmlns="http://www.w3.org/2000/svg">
<path d="M20.9132 9.32127C22.161 8.79314 22.968 7.41029 22.6401 6.08515C21.9844 3.43487 19.03 2.73729 16.6041 3.97483C13.3182 5.65106 9.58139 7.79995 6.82341 9.43178C6.37172 8.64604 5.90687 7.88355 5.51277 7.25309C4.93945 6.33595 3.78825 6.04372 2.82244 6.54557C1.85662 7.04743 1.36478 8.19342 1.69121 9.23885C2.09143 10.5206 2.66419 12.2495 3.24538 13.6466C3.2681 13.7012 3.29348 13.7536 3.3213 13.8038C3.72353 14.8022 4.79287 15.3161 5.83408 14.9553C7.02622 14.5422 8.65092 13.9734 10.4608 13.3232C10.4265 13.597 10.2256 14.0487 10.033 14.4819C9.85394 14.8847 9.68194 15.2715 9.65736 15.4848C9.52696 16.6161 10.3371 17.4926 11.4999 17.4999C12.5169 17.5063 13.5239 16.8436 13.9279 15.8798C14.1026 15.4631 14.4001 14.874 14.729 14.2228C15.2241 13.2423 15.7904 12.121 16.1158 11.2349C17.8164 10.5862 19.4715 9.93142 20.9132 9.32127Z" fill="#001F3E"/>
<path d="M2.26893 22.2308C1.85472 22.2308 1.51893 21.8951 1.51893 21.4808C1.51893 21.0666 1.85472 20.7308 2.26893 20.7308H21.6742C22.0884 20.7308 22.4242 21.0666 22.4242 21.4808C22.4242 21.8951 22.0884 22.2308 21.6742 22.2308H2.26893Z" fill="#001F3E"/>
</svg>
