<svg width="24" height="24" viewBox="0 0 24 24" fill="none" xmlns="http://www.w3.org/2000/svg">
<path d="M10.5098 14C10.5098 13.5858 10.174 13.25 9.75977 13.25C9.34555 13.25 9.00977 13.5858 9.00977 14V17.55C9.00977 17.9642 9.34555 18.3 9.75977 18.3C10.174 18.3 10.5098 17.9642 10.5098 17.55V14Z" fill="#001F3E"/>
<path d="M14.3599 13.25C14.7741 13.25 15.1099 13.5858 15.1099 14V17.55C15.1099 17.9642 14.7741 18.3 14.3599 18.3C13.9457 18.3 13.6099 17.9642 13.6099 17.55V14C13.6099 13.5858 13.9457 13.25 14.3599 13.25Z" fill="#001F3E"/>
<path fill-rule="evenodd" clip-rule="evenodd" d="M15.721 1.4704C15.4285 1.17711 14.9536 1.17645 14.6603 1.46894C14.367 1.76143 14.3664 2.2363 14.6589 2.5296L17.2222 5.09998H6.77771L9.341 2.5296C9.63349 2.2363 9.63284 1.76143 9.33954 1.46894C9.04624 1.17645 8.57137 1.1771 8.27888 1.4704L4.65931 5.09998H4.22C3.62803 5.09998 2.8469 5.12082 2.23138 5.53309C1.53518 5.99939 1.25 6.80187 1.25 7.84998C1.25 8.99329 1.50815 9.86451 2.27425 10.306C2.45445 10.4099 2.64204 10.4761 2.82486 10.5188L4.17011 18.7621C4.33744 19.7765 4.64211 20.808 5.39894 21.5745C6.17693 22.3624 7.30829 22.75 8.86011 22.75H14.8901C16.5392 22.75 17.677 22.3908 18.4289 21.6028C19.1488 20.8485 19.3799 19.8247 19.5567 18.9011L21.1638 10.5214C21.3502 10.4788 21.5418 10.412 21.7257 10.306C22.4918 9.86451 22.75 8.99329 22.75 7.84998C22.75 6.80187 22.4648 5.99939 21.7686 5.53309C21.1531 5.12082 20.372 5.09998 19.78 5.09998H19.3406L15.721 1.4704ZM19.6214 10.6H4.35795L5.65011 18.518C5.8028 19.4432 6.04322 20.0921 6.46628 20.5205C6.8683 20.9277 7.55194 21.25 8.86011 21.25H14.8901C16.3511 21.25 16.9983 20.9293 17.3438 20.5672C17.7214 20.1715 17.9004 19.5753 18.0835 18.619L19.6214 10.6ZM3.06612 6.77937C2.95982 6.85056 2.75 7.04808 2.75 7.84998C2.75 8.84934 2.98342 8.98352 3.02242 9.00594C3.08083 9.0396 3.19013 9.07574 3.40918 9.09184C3.5762 9.10411 3.74829 9.10282 3.96204 9.10121C4.04163 9.10062 4.12698 9.09998 4.22 9.09998H19.78C19.873 9.09998 19.9584 9.10062 20.038 9.10121C20.2517 9.10282 20.4238 9.10411 20.5908 9.09184C20.8099 9.07574 20.9183 9.04008 20.9767 9.00642C21.0158 8.98399 21.25 8.84934 21.25 7.84998C21.25 7.04808 21.0402 6.85056 20.9339 6.77937C20.7469 6.65413 20.418 6.59998 19.78 6.59998H4.22C3.58197 6.59998 3.2531 6.65413 3.06612 6.77937Z" fill="#001F3E"/>
</svg>
