<svg width="24" height="24" viewBox="0 0 24 24" fill="none" xmlns="http://www.w3.org/2000/svg">
<path d="M12.4686 1.41484C12.7918 1.67392 12.8438 2.14594 12.5847 2.46913L11.7801 3.47283C11.8529 3.47096 11.926 3.47 11.9994 3.47C17.3236 3.47 21.6394 7.7858 21.6394 13.11C21.6394 18.4342 17.3236 22.75 11.9994 22.75C6.67518 22.75 2.35938 18.4342 2.35938 13.11C2.35938 10.9335 3.1109 8.94796 4.30936 7.35002C4.55789 7.01865 5.02799 6.95149 5.35936 7.20002C5.69073 7.44855 5.75789 7.91865 5.50936 8.25002C4.48782 9.61207 3.85938 11.2865 3.85938 13.11C3.85938 17.6058 7.5036 21.25 11.9994 21.25C16.4952 21.25 20.1394 17.6058 20.1394 13.11C20.1394 8.61423 16.4952 4.97 11.9994 4.97C11.4245 4.97 10.8596 5.04132 10.3024 5.16476C10.0588 5.26369 9.77021 5.23134 9.55046 5.05519C9.3702 4.91069 9.27431 4.69994 9.26971 4.48572C9.26206 4.26915 9.34925 4.0635 9.50058 3.9183L11.4144 1.53093C11.6734 1.20774 12.1454 1.15576 12.4686 1.41484Z" fill="#001F3E"/>
<path d="M10.2896 10.83C10.2896 10.5194 10.098 10.2409 9.80791 10.1297C9.5178 10.0185 9.18919 10.0977 8.98159 10.3289L7.48159 11.9989C7.2048 12.307 7.23023 12.7812 7.53838 13.058C7.84654 13.3348 8.32073 13.3094 8.59752 13.0012L8.78956 12.7874V16.17C8.78956 16.5842 9.12534 16.92 9.53956 16.92C9.95377 16.92 10.2896 16.5842 10.2896 16.17V10.83Z" fill="#001F3E"/>
<path d="M12.8992 10.08C12.576 10.08 12.2892 10.2871 12.1874 10.5938L11.4273 12.8838C11.3515 13.1124 11.39 13.3636 11.531 13.559C11.672 13.7543 11.8983 13.87 12.1392 13.87H14.4291C14.8581 13.87 15.2092 14.2175 15.2092 14.6501C15.2092 15.079 14.8618 15.43 14.4291 15.43H12.1392C11.725 15.43 11.3892 15.7658 11.3892 16.18C11.3892 16.5942 11.725 16.93 12.1392 16.93H14.4291C15.6965 16.93 16.7092 15.9011 16.7092 14.6501C16.7092 13.3827 15.6802 12.37 14.4291 12.37H13.1783L13.4405 11.58H15.9592C16.3734 11.58 16.7092 11.2443 16.7092 10.83C16.7092 10.4158 16.3734 10.08 15.9592 10.08H12.8992Z" fill="#001F3E"/>
</svg>
