<svg width="24" height="24" viewBox="0 0 24 24" fill="none" xmlns="http://www.w3.org/2000/svg">
<path d="M7.58644 2.25437C7.99827 2.21003 8.36808 2.50795 8.41242 2.91978C8.45676 3.33161 8.15884 3.70141 7.74701 3.74575C7.28847 3.79512 6.83266 3.84745 6.37811 3.90006C5.07854 4.05048 4.0384 5.09167 3.89322 6.3885C3.84285 6.83838 3.79299 7.28978 3.74609 7.7438C3.70352 8.15582 3.33501 8.45532 2.92299 8.41276C2.51097 8.3702 2.21147 8.00168 2.25403 7.58966C2.30161 7.12908 2.35205 6.67253 2.40253 6.22162C2.62579 4.22731 4.21547 2.64036 6.20565 2.41001C6.66056 2.35736 7.12148 2.30443 7.58644 2.25437Z" fill="#001F3E"/>
<path d="M15.5882 2.91978C15.6325 2.50795 16.0023 2.21003 16.4141 2.25437C16.8791 2.30443 17.34 2.35736 17.7949 2.41001C19.7851 2.64036 21.3748 4.22731 21.598 6.22162C21.6485 6.67253 21.699 7.12908 21.7465 7.58966C21.7891 8.00168 21.4896 8.3702 21.0776 8.41276C20.6656 8.45532 20.297 8.15582 20.2545 7.7438C20.2076 7.28978 20.1577 6.83838 20.1074 6.3885C19.9622 5.09167 18.922 4.05048 17.6225 3.90006C17.1679 3.84745 16.7121 3.79512 16.2536 3.74575C15.8417 3.70141 15.5438 3.33161 15.5882 2.91978Z" fill="#001F3E"/>
<path d="M16.4141 21.7459C16.0023 21.7902 15.6325 21.4923 15.5882 21.0805C15.5438 20.6686 15.8417 20.2988 16.2536 20.2545C16.7121 20.2051 17.1679 20.1528 17.6225 20.1002C18.922 19.9498 19.9622 18.9086 20.1074 17.6117C20.1577 17.1619 20.2076 16.7105 20.2545 16.2564C20.297 15.8444 20.6656 15.5449 21.0776 15.5875C21.4896 15.63 21.7891 15.9986 21.7465 16.4106C21.699 16.8712 21.6485 17.3277 21.598 17.7786C21.3748 19.7729 19.7851 21.3599 17.7949 21.5902C17.34 21.6429 16.8791 21.6958 16.4141 21.7459Z" fill="#001F3E"/>
<path d="M8.41242 21.0805C8.36808 21.4923 7.99827 21.7902 7.58644 21.7459C7.12148 21.6958 6.66056 21.6429 6.20565 21.5902C4.21547 21.3599 2.62579 19.7729 2.40253 17.7786C2.35205 17.3277 2.30161 16.8712 2.25403 16.4106C2.21147 15.9986 2.51097 15.63 2.92299 15.5875C3.33501 15.5449 3.70352 15.8444 3.74609 16.2564C3.79299 16.7105 3.84285 17.1619 3.89322 17.6117C4.0384 18.9086 5.07854 19.9498 6.37811 20.1002C6.83266 20.1528 7.28847 20.2051 7.74701 20.2545C8.15884 20.2988 8.45676 20.6686 8.41242 21.0805Z" fill="#001F3E"/>
<path d="M7.5 7.75C7.91421 7.75 8.25 8.08579 8.25 8.5V10C8.25 10.4142 7.91421 10.75 7.5 10.75C7.08579 10.75 6.75 10.4142 6.75 10V8.5C6.75 8.08579 7.08579 7.75 7.5 7.75Z" fill="#001F3E"/>
<path d="M17.25 8.5C17.25 8.08579 16.9142 7.75 16.5 7.75C16.0858 7.75 15.75 8.08579 15.75 8.5V10C15.75 10.4142 16.0858 10.75 16.5 10.75C16.9142 10.75 17.25 10.4142 17.25 10V8.5Z" fill="#001F3E"/>
<path d="M12.0002 10.25C12.4144 10.25 12.7502 10.5858 12.7502 11V11.42C12.7502 12.6478 11.9363 13.7269 10.7557 14.0642L10.2062 14.2211C9.80796 14.3349 9.39284 14.1043 9.27905 13.706C9.16526 13.3078 9.39588 12.8927 9.79415 12.7789L10.3436 12.6219C10.8802 12.4686 11.2502 11.9781 11.2502 11.42V11C11.2502 10.5858 11.586 10.25 12.0002 10.25Z" fill="#001F3E"/>
<path d="M9.26765 16.2993C8.88066 16.1516 8.44721 16.3456 8.29951 16.7326C8.1518 17.1195 8.34578 17.553 8.73276 17.7007C10.7463 18.4692 13.2541 18.4692 15.2676 17.7007C15.6546 17.553 15.8486 17.1195 15.7009 16.7326C15.5532 16.3456 15.1197 16.1516 14.7328 16.2993C13.0637 16.9363 10.9367 16.9363 9.26765 16.2993Z" fill="#001F3E"/>
</svg>
