<svg width="24" height="24" viewBox="0 0 24 24" fill="none" xmlns="http://www.w3.org/2000/svg">
<path fill-rule="evenodd" clip-rule="evenodd" d="M10.9306 3.84695C10.9305 3.84714 10.9307 3.84676 10.9306 3.84695L9.17252 7.36306C8.98518 7.74391 8.67227 8.06932 8.35091 8.3076C8.02862 8.54656 7.62813 8.74957 7.21602 8.81955L7.21338 8.82L4.02376 9.34993C4.02363 9.34995 4.02388 9.34991 4.02376 9.34993C3.13416 9.49828 2.84436 9.84864 2.77741 10.0583C2.71023 10.2687 2.74379 10.7228 3.38079 11.3598L5.86079 13.8398C6.18318 14.1622 6.39883 14.5933 6.51775 15.0087C6.63676 15.4245 6.68127 15.9026 6.5823 16.3442L6.58119 16.3491L5.87117 19.4191C5.60675 20.5618 5.87421 20.9789 6.01003 21.078C6.14645 21.1776 6.62681 21.3051 7.63769 20.7052L10.6333 18.9319C11.0492 18.6898 11.5473 18.5901 12.0042 18.5901C12.4603 18.5901 12.9586 18.6896 13.3725 18.9347C13.3726 18.9348 13.3724 18.9347 13.3725 18.9347L16.3619 20.7044C16.3621 20.7045 16.3617 20.7043 16.3619 20.7044C17.381 21.3062 17.8609 21.1793 17.9949 21.0816C18.1276 20.9849 18.395 20.5703 18.1296 19.4186L17.4186 16.3442C17.3196 15.9026 17.3642 15.4245 17.4832 15.0087C17.6021 14.5933 17.8177 14.1622 18.1401 13.8398L20.6201 11.3598L20.6219 11.358C21.2631 10.7212 21.2947 10.2683 21.2277 10.0596C21.1601 9.84938 20.8679 9.49847 19.9775 9.34999C19.9774 9.34997 19.9777 9.35002 19.9775 9.34999L16.7875 8.81999C16.3712 8.7506 15.9676 8.54836 15.6427 8.30863C15.3191 8.06989 15.0059 7.74417 14.8184 7.36312L13.0589 3.84414C12.6381 2.99812 12.2105 2.82764 11.9992 2.82764C11.7866 2.82764 11.3563 3.00028 10.9306 3.84695ZM14.4017 3.17547C13.8724 2.11183 13.0452 1.32764 11.9992 1.32764C10.9544 1.32764 10.1245 2.11049 9.59034 3.17332L7.82964 6.69473L7.82691 6.70024C7.77408 6.80809 7.64779 6.96159 7.45751 7.10268C7.26786 7.24329 7.08389 7.32024 6.96596 7.34054C6.9656 7.3406 6.96525 7.34066 6.9649 7.34072L3.77753 7.87028C2.62743 8.06196 1.66154 8.62167 1.3485 9.60199C1.03568 10.5816 1.49712 11.5975 2.32013 12.4205L4.80013 14.9005C4.89773 14.9981 5.00709 15.182 5.07567 15.4215C5.14383 15.6597 5.14959 15.8756 5.11905 16.0141C5.11891 16.0148 5.11876 16.0155 5.11861 16.0161L4.40977 19.0811C4.40977 19.081 4.40976 19.0811 4.40977 19.0811C4.11422 20.3583 4.21673 21.6264 5.12588 22.2897C6.03447 22.9527 7.2741 22.6652 8.40322 21.9951L11.3876 20.2284C11.3883 20.228 11.3889 20.2277 11.3895 20.2273C11.5237 20.1499 11.7448 20.0901 12.0042 20.0901C12.2655 20.0901 12.4821 20.1507 12.6081 20.2254L15.5984 21.9955C16.7289 22.6633 17.97 22.956 18.8785 22.2937C19.7883 21.6304 19.8859 20.36 19.5913 19.0817L18.8823 16.0161C18.8822 16.0155 18.882 16.0148 18.8819 16.0141C18.8513 15.8756 18.8571 15.6597 18.9252 15.4215C18.9938 15.182 19.1032 14.9981 19.2008 14.9005L21.679 12.4223C21.6793 12.4219 21.6797 12.4216 21.68 12.4213C22.5082 11.5983 22.971 10.5816 22.6557 9.60063C22.3408 8.62093 21.3731 8.0619 20.2238 7.87034L17.0338 7.34034C17.0339 7.34036 17.0336 7.34032 17.0338 7.34034M14.4017 3.17547C14.4018 3.17569 14.4015 3.17526 14.4017 3.17547Z" fill="#001F3E"/>
</svg>
