<svg width="24" height="24" viewBox="0 0 24 24" fill="none" xmlns="http://www.w3.org/2000/svg">
<path fill-rule="evenodd" clip-rule="evenodd" d="M9.6084 2.47656C10.9602 1.78703 12.7599 1.84091 14.0244 2.66601C14.1115 2.7172 14.1965 2.77218 14.2793 2.83007L20.0264 6.85156C20.6027 7.25293 21.0888 7.87209 21.4287 8.52246C21.7688 9.17314 22 9.92543 22 10.6289V18.0605C22 20.5902 20.5912 21.9999 18.0469 22H5.95312C3.40775 21.9999 2 20.5984 2 18.0605V10.499C2 9.83905 2.20892 9.12436 2.51562 8.5C2.82243 7.87549 3.26098 7.27159 3.78516 6.86425L8.79883 2.96289C9.04801 2.76933 9.32073 2.60709 9.6084 2.47656ZM16.1201 8.39355C15.5123 7.76513 14.539 7.93726 13.9414 8.57617C13.6321 8.9068 12.9259 9.6192 12.5938 9.98828C11.6266 9.53087 10.5579 9.09815 9.83105 8.81543C9.31896 8.61628 8.70505 8.7664 8.3418 9.16894C7.92647 9.62941 7.96867 10.2743 8.44629 10.6435C9.01107 11.0802 9.7882 11.6688 10.5459 12.2041C10.5666 12.2187 10.5873 12.2333 10.6084 12.2471C10.0291 12.9188 9.49891 13.5425 9.08301 14.0352C8.60422 13.9551 8.11244 13.8904 7.73047 13.8447C7.32975 13.7968 6.96214 14.0697 6.86914 14.4756C6.77614 14.8814 6.98631 15.2954 7.36523 15.4385C7.7714 15.5918 8.31215 15.7883 8.8291 15.9512C8.9866 16.4856 9.17591 17.0449 9.32422 17.4648C9.46254 17.8565 9.86342 18.0735 10.2559 17.9775C10.6484 17.8814 10.9126 17.5012 10.8662 17.0869C10.8218 16.6896 10.7587 16.1774 10.6807 15.6797C11.1368 15.2578 11.7101 14.7245 12.3291 14.1416C12.3832 14.2254 12.4429 14.3054 12.5078 14.3809C13.1177 15.09 13.7818 15.8131 14.2725 16.3369C14.6874 16.7794 15.3113 16.7411 15.7002 16.2568C16.0404 15.8331 16.1058 15.1836 15.8496 14.6836C15.5014 14.004 14.9811 13.0204 14.4443 12.1182C14.8368 11.7354 15.5974 11.0032 15.9473 10.6494C16.5618 10.0279 16.728 9.02204 16.1201 8.39355Z" fill="#001F3E"/>
</svg>
