<svg width="24" height="24" viewBox="0 0 24 24" fill="none" xmlns="http://www.w3.org/2000/svg">
<path d="M8.39062 15.6549V5.49489C8.39062 4.87489 8.68062 4.28489 9.17062 3.91489L10.4506 2.92489C10.8806 2.49489 11.8206 2.26489 12.4906 2.26489H16.3906C17.7306 2.26489 19.0806 3.27489 19.3906 4.51489L21.8506 12.0049C22.1006 12.7149 22.0306 13.4149 21.6506 13.9549C21.2506 14.5149 20.5706 14.8349 19.7806 14.8349H15.6706C15.4006 14.8349 15.1506 14.9549 14.9806 15.1449C14.8106 15.3549 14.7306 15.6249 14.7706 15.9249L15.2906 19.1949C15.5006 20.1749 14.8506 21.2749 13.8706 21.6049C12.9606 21.9449 11.8906 21.4849 11.4606 20.8349L8.73062 16.7749C8.51062 16.4449 8.39062 16.0549 8.39062 15.6549Z" fill="#001F3E"/>
<path d="M4.18 17.6049H5.21C6.76 17.6049 7.39 17.0049 7.39 15.5249V5.46486C7.39 3.98486 6.76 3.38486 5.21 3.38486H4.18C2.63 3.38486 2 3.98486 2 5.46486V15.5249C2 17.0049 2.63 17.6049 4.18 17.6049Z" fill="#001F3E"/>
</svg>
