<svg width="24" height="24" viewBox="0 0 24 24" fill="none" xmlns="http://www.w3.org/2000/svg">
<path d="M12 1.25C16.2842 1.25 19.75 4.71579 19.75 9C19.75 10.3807 19.3945 11.6656 18.7715 12.7822L22.2549 16.2656L22.3418 16.3574C23.1764 17.2997 22.732 18.797 21.543 19.167L21.4219 19.2002L19.7754 19.5879L19.7764 19.5889C19.6653 19.616 19.6067 19.6899 19.5918 19.7588C19.5908 19.7637 19.59 19.7695 19.5889 19.7744L19.2383 21.2432L19.2393 21.2441C18.9064 22.6432 17.1292 23.0588 16.2031 21.9717V21.9727L11.999 17.1426L7.80177 21.9727L7.80274 21.9736C6.90751 23.0366 5.20389 22.6812 4.79493 21.3828L4.75978 21.2539L4.41017 19.7881L4.38185 19.7168C4.34568 19.654 4.28845 19.6141 4.23634 19.6025L4.22657 19.6006L2.57618 19.21C1.24809 18.8951 0.772731 17.2376 1.73927 16.2705L5.22657 12.7812C4.60413 11.665 4.25001 10.38 4.25001 9C4.25001 4.7158 7.71581 1.25001 12 1.25ZM2.79981 17.3311C2.66756 17.4639 2.73089 17.7055 2.92188 17.751L4.5713 18.1406H4.57032C5.17597 18.2785 5.65094 18.7369 5.83497 19.3154L5.86817 19.4336L5.86915 19.4365L6.21876 20.9062V20.9072C6.26564 21.1032 6.51936 21.1686 6.65528 21.0078L6.6631 20.998L10.4834 16.6006C8.73596 16.2611 7.20719 15.3329 6.09474 14.0342L2.79981 17.3311ZM17.9033 14.0352C16.791 15.3332 15.2624 16.2611 13.5156 16.6006L17.335 20.9883L17.3428 20.9971V20.998C17.4786 21.1593 17.7324 21.0926 17.7793 20.8965L18.1299 19.4268C18.2795 18.7638 18.7982 18.2837 19.4219 18.1318L19.4268 18.1309L21.0762 17.7402C21.2757 17.693 21.3222 17.4525 21.2041 17.3359L17.9033 14.0352ZM12 2.75C8.54424 2.75001 5.75001 5.54422 5.75001 9C5.75001 10.297 6.13346 11.4816 6.792 12.4707L6.9795 12.7344C7.88562 13.9398 9.20582 14.8035 10.7285 15.1104L11.0586 15.168L11.0801 15.1719C11.3753 15.224 11.6819 15.25 12 15.25C12.3182 15.25 12.6248 15.224 12.9199 15.1719L12.9414 15.168C14.7137 14.9097 16.2412 13.9028 17.208 12.4707C17.8666 11.4816 18.25 10.297 18.25 9C18.25 5.54421 15.4558 2.75 12 2.75ZM12.0039 4.75C12.6299 4.75033 13.0391 5.2208 13.251 5.64453L13.8174 6.77734L14.8389 6.94922C15.3134 7.0261 15.8615 7.2854 16.0479 7.87012C16.2333 8.45249 15.9402 8.98051 15.6006 9.32031L14.8115 10.1084L15.04 11.0889L15.0762 11.2744C15.1472 11.7296 15.1063 12.3189 14.6152 12.6797C14.0535 13.0919 13.3845 12.852 12.9688 12.6045V12.6055L12.0195 12.0449L11.0713 12.6055L11.0684 12.6074C10.6548 12.8487 9.9874 13.0841 9.42774 12.6777C8.86261 12.2669 8.89043 11.5561 9.00001 11.0889L9.22755 10.1084L8.43946 9.32031C8.10236 8.98316 7.80471 8.45659 7.9922 7.87207C8.17872 7.29101 8.72331 7.03347 9.18946 6.95117L9.19532 6.9502L10.2109 6.7793L10.7793 5.64453C10.9801 5.21747 11.3778 4.75 12.0039 4.75ZM11.5313 7.49512C11.4259 7.70584 11.263 7.87028 11.1123 7.9834C10.962 8.09614 10.7545 8.20867 10.5137 8.24902L9.63673 8.39648L10.3301 9.08984C10.5209 9.28078 10.6248 9.51804 10.6768 9.71094C10.7294 9.90619 10.7541 10.147 10.7041 10.3848C10.703 10.3899 10.7014 10.3953 10.7002 10.4004L10.5147 11.1914L11.3086 10.7236V10.7246C11.5424 10.5848 11.8027 10.5372 12.0195 10.5371C12.2362 10.5372 12.4968 10.585 12.7305 10.7246L12.7315 10.7236L13.5234 11.1914L13.3399 10.4004V10.3994C13.2794 10.1463 13.3057 9.89666 13.3623 9.69727C13.4198 9.4951 13.5295 9.2703 13.71 9.08984L14.4024 8.39648L13.5254 8.25V8.24902C13.2852 8.20951 13.077 8.10116 12.9229 7.9873C12.7679 7.87279 12.6048 7.70658 12.499 7.49512L12.0147 6.52734L11.5313 7.49512Z" fill="#001F3E"/>
</svg>
