<svg width="24" height="24" viewBox="0 0 24 24" fill="none" xmlns="http://www.w3.org/2000/svg">
<path fill-rule="evenodd" clip-rule="evenodd" d="M11.9979 1.25C9.90535 1.25 8.20898 2.94637 8.20898 5.03895C8.20898 7.13153 9.90535 8.8279 11.9979 8.8279C14.0905 8.8279 15.7869 7.13153 15.7869 5.03895C15.7869 2.94637 14.0905 1.25 11.9979 1.25ZM9.70898 5.03895C9.70898 3.7748 10.7338 2.75 11.9979 2.75C13.2621 2.75 14.2869 3.7748 14.2869 5.03895C14.2869 6.3031 13.2621 7.3279 11.9979 7.3279C10.7338 7.3279 9.70898 6.3031 9.70898 5.03895Z" fill="#001F3E"/>
<path fill-rule="evenodd" clip-rule="evenodd" d="M10.2676 22.7497C10.9509 22.7497 11.5697 22.4735 12.0185 22.0267C12.4726 22.4753 13.096 22.7497 13.7787 22.7497C15.1617 22.7497 16.2828 21.6286 16.2828 20.2456V19.0486L16.9202 18.7992C17.5828 18.5399 17.9191 17.8007 17.6793 17.1309L15.815 11.9236C15.5116 11.0745 14.3685 9.44727 12.1405 9.44727C10.0148 9.44727 8.71615 10.635 8.25544 11.9195L6.33224 17.1121C6.08065 17.7914 6.42562 18.5463 7.10387 18.8006L7.78614 19.0565V20.2682C7.78614 21.6387 8.89714 22.7497 10.2676 22.7497ZM9.66648 12.4284C9.91389 11.7356 10.6501 10.9473 12.1405 10.9473C13.5307 10.9473 14.2347 11.9588 14.4026 12.4289L16.2066 17.4677L15.4392 17.768C15.0433 17.9229 14.7828 18.3045 14.7828 18.7297V20.2456C14.7828 20.8001 14.3332 21.2497 13.7787 21.2497C13.2604 21.2497 12.8273 20.8552 12.7789 20.3392L12.7491 20.0211V18.1127C12.7491 17.6985 12.4133 17.3627 11.9991 17.3627C11.5849 17.3627 11.2491 17.6985 11.2491 18.1127V20.2682C11.2491 20.8103 10.8097 21.2497 10.2676 21.2497C9.72557 21.2497 9.28614 20.8103 9.28614 20.2682V18.7326C9.28614 18.3021 9.01911 17.9168 8.61604 17.7657L7.80272 17.4607L9.66353 12.4366L9.66648 12.4284Z" fill="#001F3E"/>
</svg>
