<svg width="24" height="24" viewBox="0 0 24 24" fill="none" xmlns="http://www.w3.org/2000/svg">
<path d="M8.80273 21.2783C10.8831 20.6878 13.0827 20.6878 15.1631 21.2783C15.5614 21.3916 15.7928 21.8067 15.6797 22.2051C15.5665 22.6034 15.1513 22.8348 14.7529 22.7217C12.9404 22.2072 11.0254 22.2072 9.21289 22.7217C8.81447 22.8348 8.3993 22.6034 8.28613 22.2051C8.17307 21.8067 8.4045 21.3916 8.80273 21.2783Z" fill="#001F3E"/>
<path fill-rule="evenodd" clip-rule="evenodd" d="M4.43359 11.7188C4.43359 7.04083 8.73576 3.37705 13.5801 4.43262H13.582C15.7151 4.90457 17.5908 6.31956 18.5713 8.29004C20.4808 12.1274 18.6103 16.1348 15.8105 18.0518V18.6592C15.8109 18.6711 15.8119 18.6883 15.8125 18.7197C15.8134 18.7673 15.8141 18.8328 15.8096 18.9062C15.8007 19.0499 15.7705 19.2603 15.6582 19.4756C15.3904 19.9891 14.8558 20.1943 14.2441 20.1943H9.56445C9.08597 20.1983 8.47322 20.1275 8.15723 19.5957C8.01776 19.3607 7.99621 19.122 7.99121 18.9814C7.98858 18.9071 7.99075 18.8348 7.99219 18.7812C7.99247 18.7706 7.9929 18.7605 7.99316 18.751C7.9944 18.7067 7.99512 18.6723 7.99512 18.6367V18.0605C6.02642 16.7157 4.43377 14.3227 4.43359 11.7188ZM13.2588 5.89746C9.36588 5.05012 5.93359 7.9823 5.93359 11.7188C5.93379 13.8525 7.35487 15.9353 9.13281 17.0098C9.35749 17.1456 9.49512 17.3888 9.49512 17.6514V18.6367C9.49512 18.6565 9.49442 18.676 9.49414 18.6943H14.2441C14.2691 18.6943 14.2918 18.6944 14.3115 18.6934C14.3111 18.6756 14.3106 18.6524 14.3105 18.6289V17.6426C14.3106 17.3799 14.448 17.1367 14.6729 17.001C17.1676 15.4948 18.7896 12.0971 17.2275 8.95801C16.4572 7.4102 14.9669 6.27572 13.2588 5.89746Z" fill="#001F3E"/>
<path d="M2.08008 11C2.63233 11 3.08008 11.4477 3.08008 12C3.08008 12.5523 2.63233 13 2.08008 13H2C1.44772 13 1 12.5523 1 12C1 11.4477 1.44772 11 2 11H2.08008Z" fill="#001F3E"/>
<path d="M22 11C22.5523 11 23 11.4477 23 12C23 12.5523 22.5523 13 22 13H21.9199C21.3677 13 20.9199 12.5523 20.9199 12C20.9199 11.4477 21.3677 11 21.9199 11H22Z" fill="#001F3E"/>
<path d="M4.15332 4.15332C4.54384 3.7628 5.17686 3.7628 5.56738 4.15332L5.69727 4.2832C6.08755 4.67375 6.08771 5.30682 5.69727 5.69727C5.30682 6.08771 4.67375 6.08755 4.2832 5.69727L4.15332 5.56738C3.7628 5.17686 3.7628 4.54384 4.15332 4.15332Z" fill="#001F3E"/>
<path d="M18.4326 4.15332C18.8231 3.7628 19.4562 3.7628 19.8467 4.15332C20.2372 4.54384 20.2372 5.17686 19.8467 5.56738L19.7168 5.69727C19.3263 6.08754 18.6932 6.08771 18.3027 5.69727C17.9123 5.30682 17.9125 4.67375 18.3027 4.2832L18.4326 4.15332Z" fill="#001F3E"/>
<path d="M12 1C12.5523 1 13 1.44772 13 2V2.08008C13 2.63232 12.5523 3.08008 12 3.08008C11.4477 3.08008 11 2.63232 11 2.08008V2C11 1.44772 11.4477 1 12 1Z" fill="#001F3E"/>
</svg>
