<svg width="24" height="24" viewBox="0 0 24 24" fill="none" xmlns="http://www.w3.org/2000/svg">
<path fill-rule="evenodd" clip-rule="evenodd" d="M15.5756 12.0215C14.7642 11.0072 13.2836 10.8138 12.246 11.603L11.9925 11.7985L11.7392 11.6094C10.6956 10.8273 9.22891 11.0155 8.41599 12.0294C7.603 13.0333 7.73363 14.5009 8.7073 15.3455L11.2813 17.6002C11.6855 17.9632 12.3044 17.9632 12.7087 17.6002L15.2857 15.3428C16.2553 14.489 16.3866 13.0351 15.5756 12.0215ZM12.4581 13.3338L13.1557 12.7956C13.538 12.5063 14.0962 12.5733 14.4043 12.9585C14.7132 13.3446 14.6641 13.8909 14.2943 14.2171L11.995 16.2313L9.69419 14.2158L9.69086 14.2129C9.32685 13.8978 9.27766 13.348 9.58233 12.9726L9.58564 12.9685C9.89286 12.5845 10.4444 12.5133 10.84 12.81L10.8413 12.811L11.5513 13.341C11.821 13.5423 12.1917 13.5393 12.4581 13.3338Z" fill="#001F3E"/>
<path fill-rule="evenodd" clip-rule="evenodd" d="M7 1.25C5.00536 1.25 3.45818 1.48116 2.46967 2.46967C1.48116 3.45818 1.25 5.00536 1.25 7V17C1.25 18.9946 1.48116 20.5418 2.46967 21.5303C3.45818 22.5188 5.00536 22.75 7 22.75H17C18.9946 22.75 20.5418 22.5188 21.5303 21.5303C22.5188 20.5418 22.75 18.9946 22.75 17V11C22.75 9.00536 22.5188 7.45818 21.5303 6.46967C20.5418 5.48116 18.9946 5.25 17 5.25H14C13.5677 5.25 13.4183 5.18362 13.3554 5.14563C13.2731 5.09587 13.2074 5.02285 12.9986 4.74816L11.4671 2.70605C11.2074 2.35915 10.9039 1.9538 10.435 1.67209C9.92831 1.36772 9.31493 1.25 8.5 1.25H7ZM2.75 7C2.75 4.99464 3.01884 4.04182 3.53033 3.53033C4.04182 3.01884 4.99464 2.75 7 2.75H8.5C9.18507 2.75 9.48669 2.85228 9.66253 2.95791C9.85612 3.07421 9.9971 3.24613 10.3 3.65L11.8 5.65L11.8029 5.65381L11.8342 5.6952C12.0015 5.91639 12.2295 6.21777 12.5796 6.42937C12.9717 6.66638 13.4323 6.75 14 6.75H17C19.0054 6.75 19.9582 7.01884 20.4697 7.53033C20.9812 8.04182 21.25 8.99464 21.25 11V17C21.25 19.0054 20.9812 19.9582 20.4697 20.4697C19.9582 20.9812 19.0054 21.25 17 21.25H7C4.99464 21.25 4.04182 20.9812 3.53033 20.4697C3.01884 19.9582 2.75 19.0054 2.75 17V7Z" fill="#001F3E"/>
</svg>
