<svg width="24" height="24" viewBox="0 0 24 24" fill="none" xmlns="http://www.w3.org/2000/svg">
<path d="M16.3404 15.6246C16.3996 15.2146 16.1152 14.8343 15.7052 14.7751C15.2953 14.716 14.915 15.0003 14.8558 15.4103C14.7687 16.0138 14.5032 16.5939 14.0492 17.0482C13.1974 17.8948 11.9539 18.1058 10.9098 17.6844C11.2883 17.6462 11.5837 17.3267 11.5837 16.9382C11.5837 16.524 11.248 16.1882 10.8337 16.1882H8.77197C8.35776 16.1882 8.02197 16.524 8.02197 16.9382V18.9999C8.02197 19.4142 8.35776 19.7499 8.77197 19.7499C9.18619 19.7499 9.52197 19.4142 9.52197 18.9999V18.6338C11.2317 19.801 13.5855 19.6249 15.1077 18.111L15.1091 18.1096C15.813 17.4057 16.2113 16.5189 16.3404 15.6246Z" fill="#001F3E"/>
<path d="M13.166 13.8118H15.0708C15.0781 13.8119 15.0854 13.8119 15.0926 13.8118H15.2278C15.642 13.8118 15.9778 13.476 15.9778 13.0618V11C15.9778 10.5858 15.642 10.25 15.2278 10.25C14.8136 10.25 14.4778 10.5858 14.4778 11V11.3681C12.7638 10.2001 10.4085 10.3724 8.89044 11.8905C8.18757 12.5933 7.7882 13.4722 7.659 14.3765C7.60042 14.7866 7.88535 15.1665 8.2954 15.2251C8.70545 15.2837 9.08535 14.9987 9.14392 14.5887C9.23095 13.9795 9.49568 13.4066 9.95111 12.9511C10.7959 12.1064 12.0383 11.8936 13.0864 12.3159C12.7096 12.3557 12.416 12.6744 12.416 13.0618C12.416 13.476 12.7518 13.8118 13.166 13.8118Z" fill="#001F3E"/>
<path fill-rule="evenodd" clip-rule="evenodd" d="M5.26399 7.33384C5.32874 5.85824 5.63571 4.41202 6.54093 3.28826C7.61038 1.96061 9.37164 1.25 12 1.25C14.6284 1.25 16.3896 1.96061 17.4591 3.28826C18.3643 4.41202 18.6713 5.85824 18.736 7.33384C19.9074 7.46853 20.8508 7.79017 21.5303 8.46967C22.5188 9.45818 22.75 11.0054 22.75 13V17C22.75 18.9946 22.5188 20.5418 21.5303 21.5303C20.5418 22.5188 18.9946 22.75 17 22.75H7C5.00536 22.75 3.45818 22.5188 2.46967 21.5303C1.48116 20.5418 1.25 18.9946 1.25 17V13C1.25 11.0054 1.48116 9.45818 2.46967 8.46967C3.14917 7.79017 4.09265 7.46853 5.26399 7.33384ZM6.77017 7.25107C6.84207 5.9894 7.11397 4.96802 7.70907 4.22924C8.38962 3.38439 9.62836 2.75 12 2.75C14.3716 2.75 15.6104 3.38439 16.2909 4.22924C16.886 4.96802 17.1579 5.9894 17.2298 7.25107C17.1539 7.25035 17.0773 7.25 17 7.25H7C6.92272 7.25 6.8461 7.25035 6.77017 7.25107ZM2.75 13C2.75 10.9946 3.01884 10.0418 3.53033 9.53033C4.04182 9.01884 4.99464 8.75 7 8.75H17C19.0054 8.75 19.9582 9.01884 20.4697 9.53033C20.9812 10.0418 21.25 10.9946 21.25 13V17C21.25 19.0054 20.9812 19.9582 20.4697 20.4697C19.9582 20.9812 19.0054 21.25 17 21.25H7C4.99464 21.25 4.04182 20.9812 3.53033 20.4697C3.01884 19.9582 2.75 19.0054 2.75 17V13Z" fill="#001F3E"/>
</svg>
