<svg width="24" height="24" viewBox="0 0 24 24" fill="none" xmlns="http://www.w3.org/2000/svg">
<path d="M15.1104 12.9492C15.4032 12.6566 15.8781 12.6566 16.1709 12.9492L16.9004 13.6797L17.6006 12.9795C17.8935 12.6869 18.3683 12.6867 18.6611 12.9795C18.9539 13.2723 18.9537 13.7471 18.6611 14.04L17.9609 14.7402L18.6807 15.46C18.9735 15.7529 18.9736 16.2276 18.6807 16.5205C18.3878 16.8132 17.9129 16.8133 17.6201 16.5205L16.9004 15.8008L16.1504 16.5508C15.8575 16.8432 15.3826 16.8435 15.0898 16.5508C14.797 16.2579 14.797 15.7822 15.0898 15.4893L15.8398 14.7402L15.1104 14.0107C14.8175 13.7178 14.8175 13.2421 15.1104 12.9492Z" fill="#001F3E"/>
<path fill-rule="evenodd" clip-rule="evenodd" d="M18.6709 1.25C20.195 1.25019 21.4404 2.49642 21.4404 4.02051V6.25C21.4404 6.79736 21.2729 7.36189 21.0557 7.83789C20.8424 8.3051 20.5496 8.75103 20.2314 9.07617C20.2258 9.08199 20.2215 9.08898 20.2158 9.09473C20.203 9.10781 20.1895 9.12071 20.1758 9.13281L19.3682 9.84473C21.1547 10.7539 22.3809 12.6107 22.3809 14.75C22.3809 15.7804 22.0912 16.7537 21.583 17.5869C20.6314 19.1852 18.8814 20.2498 16.8809 20.25C16.1939 20.25 15.5367 20.1228 14.9316 19.8926C14.8752 20.0665 14.8034 20.2347 14.7227 20.3906C14.5228 20.7766 14.2163 21.1808 13.8057 21.4277L12.4072 22.3301L12.3945 22.3379C11.9511 22.612 11.4623 22.742 10.9785 22.748C10.9179 22.7488 10.8573 22.7482 10.7969 22.7451C10.7923 22.7449 10.7878 22.7434 10.7832 22.7432C10.5778 22.7316 10.3749 22.6978 10.1777 22.6436C9.9169 22.5718 9.66613 22.4655 9.43555 22.3252C9.38472 22.2943 9.33495 22.2616 9.28613 22.2275C9.23712 22.1934 9.18937 22.1574 9.14258 22.1201C9.07154 22.0636 9.00383 22.0029 8.93848 21.9395C8.76072 21.7671 8.60578 21.5699 8.47949 21.3506C8.43784 21.2782 8.39833 21.204 8.36328 21.127C8.31161 21.0134 8.26745 20.8948 8.23145 20.7715C8.20747 20.6893 8.18831 20.6048 8.17188 20.5186C8.13908 20.3465 8.12012 20.1667 8.12012 19.9795V14.6299C8.12011 14.6026 8.11618 14.5744 8.11426 14.5449C8.09966 14.3303 8.03565 14.0589 7.91992 13.7715C7.7953 13.462 7.63557 13.186 7.49316 13.002L3.67676 8.98633C3.34977 8.65489 3.07895 8.22656 2.88965 7.80469C2.70053 7.3831 2.56064 6.89713 2.56055 6.4502V4.12988C2.56055 4.0965 2.56437 4.06336 2.56543 4.03027C2.61017 2.47271 3.81163 1.25025 5.33008 1.25H18.6709ZM5.33008 2.75977C4.68571 2.76001 4.11181 3.26628 4.06543 4.03027C4.06382 4.05985 4.06055 4.08979 4.06055 4.12012V6.4502C4.06059 6.60438 4.12057 6.8722 4.26172 7.18555C4.39625 7.48415 4.57352 7.75345 4.74414 7.93164L4.75098 7.93945L4.76465 7.95312L8.60449 11.9932C8.61911 12.0085 8.63322 12.0245 8.64648 12.041C8.65167 12.0475 8.65596 12.055 8.66113 12.0615C8.91532 12.3785 9.14622 12.7892 9.31543 13.2129C9.43573 13.5141 9.53502 13.8499 9.58496 14.1885C9.60704 14.3357 9.62011 14.4836 9.62012 14.6299V19.9805C9.62015 20.0423 9.62525 20.1025 9.63379 20.1611C9.65085 20.2785 9.68353 20.3895 9.73047 20.4922C10.0362 21.1601 10.9157 21.4848 11.6025 21.0625L13.0039 20.1592C13.0095 20.1556 13.0149 20.1519 13.0205 20.1484C13.0236 20.1466 13.0271 20.1454 13.0303 20.1436C13.1221 20.0896 13.2654 19.9429 13.3906 19.7012C13.497 19.4957 13.5542 19.2898 13.5674 19.1357C13.2976 18.9309 13.0471 18.7018 12.8203 18.4521C12.6023 18.2134 12.4073 17.955 12.2363 17.6816C12.2173 17.6513 12.1981 17.6206 12.1797 17.5898C11.6682 16.7624 11.3809 15.7775 11.3809 14.75C11.3809 11.7158 13.8466 9.25 16.8809 9.25C17.1605 9.25002 17.4356 9.27109 17.7041 9.31152L19.1553 8.03223C19.1685 8.01888 19.1808 8.00399 19.1943 7.98926C19.3588 7.8058 19.5439 7.52898 19.6904 7.20703C19.8534 6.84884 19.9404 6.50266 19.9404 6.24023V4.03027C19.9403 3.3347 19.3664 2.75996 18.6709 2.75977H5.33008ZM16.8809 10.75C14.6751 10.75 12.8809 12.5442 12.8809 14.75C12.8809 15.4978 13.0907 16.2028 13.4609 16.8086L13.4648 16.8154C13.4833 16.8463 13.5023 16.8769 13.5215 16.9072C13.6326 17.0817 13.7569 17.2476 13.8936 17.4023C14.1318 17.6706 14.4073 17.9035 14.7129 18.0908C14.7583 18.1187 14.8001 18.1515 14.8379 18.1875C15.4343 18.5442 16.1337 18.75 16.8809 18.75C18.3383 18.7498 19.6071 17.9756 20.2959 16.8164L20.3008 16.8086C20.6709 16.2029 20.8809 15.4977 20.8809 14.75C20.8809 12.8732 19.5811 11.2945 17.835 10.8652C17.8046 10.8617 17.7743 10.8559 17.7441 10.8486C17.5348 10.7979 17.311 10.7664 17.0781 10.7549C17.0316 10.7526 16.9847 10.7507 16.9375 10.75C16.9187 10.7497 16.8998 10.75 16.8809 10.75Z" fill="#001F3E"/>
</svg>
