<svg width="24" height="24" viewBox="0 0 24 24" fill="none" xmlns="http://www.w3.org/2000/svg">
<path d="M13 1.25C14.4397 1.25 15.6416 1.77353 16.4814 2.65918C17.3155 3.5387 17.75 4.72998 17.75 6V13.5C17.75 13.9142 17.4142 14.25 17 14.25C16.5858 14.25 16.25 13.9142 16.25 13.5V6C16.25 5.07019 15.9343 4.26187 15.3936 3.69141C14.8584 3.12706 14.0603 2.75 13 2.75H7C5.9397 2.75 5.1416 3.12706 4.60645 3.69141C4.06566 4.26187 3.75 5.07019 3.75 6V18C3.75 18.9298 4.06566 19.7381 4.60645 20.3086C5.1416 20.8729 5.9397 21.25 7 21.25H7.5C7.91421 21.25 8.25 21.5858 8.25 22C8.25 22.4142 7.91421 22.75 7.5 22.75H7C5.5603 22.75 4.3584 22.2265 3.51855 21.3408C2.68452 20.4613 2.25 19.27 2.25 18V6C2.25 4.72998 2.68452 3.5387 3.51855 2.65918C4.3584 1.77353 5.5603 1.25 7 1.25H13Z" fill="#001F3E"/>
<path fill-rule="evenodd" clip-rule="evenodd" d="M21.9355 15.2646C22.081 15.2642 22.2241 15.3026 22.3496 15.376C22.5399 15.4854 22.6792 15.6663 22.7363 15.8779C22.7933 16.0895 22.7637 16.315 22.6543 16.5049L21.1152 19.1631C21.7569 20.1579 22.0979 21.3169 22.0957 22.5H9.66992C9.66768 21.3169 10.0078 20.1579 10.6494 19.1631L9.11035 16.5049C9.00095 16.315 8.97131 16.0895 9.02832 15.8779C9.0854 15.6663 9.2248 15.4854 9.41504 15.376C9.54053 15.3026 9.68367 15.2642 9.8291 15.2646C9.97423 15.2648 10.1165 15.3035 10.2422 15.376C10.3679 15.4485 10.4733 15.5522 10.5459 15.6777L11.7959 17.834C12.9283 16.8454 14.3823 16.3008 15.8867 16.3008C17.391 16.3008 18.8442 16.8455 19.9766 17.834L21.2188 15.6777C21.2914 15.5522 21.3967 15.4485 21.5225 15.376C21.6481 15.3035 21.7904 15.2648 21.9355 15.2646ZM13.3799 19.6182C13.2595 19.6421 13.1484 19.7005 13.0615 19.7871C12.9746 19.8738 12.9156 19.9852 12.8916 20.1055C12.8677 20.2257 12.8798 20.3507 12.9268 20.4639C12.9738 20.577 13.0532 20.6741 13.1553 20.7422C13.2574 20.8103 13.3781 20.8467 13.501 20.8467C13.6656 20.8466 13.824 20.7813 13.9404 20.665C14.0569 20.5487 14.1221 20.3901 14.1221 20.2256C14.122 20.1032 14.0856 19.9836 14.0176 19.8818C13.9493 19.7799 13.8518 19.7003 13.7383 19.6533C13.6249 19.6065 13.5003 19.5943 13.3799 19.6182ZM18.1426 19.6182C18.0222 19.6421 17.9111 19.7004 17.8242 19.7871C17.7373 19.8738 17.6783 19.9852 17.6543 20.1055C17.6304 20.2256 17.6435 20.3507 17.6904 20.4639C17.7375 20.5769 17.817 20.6742 17.9189 20.7422C18.021 20.8101 18.141 20.8466 18.2637 20.8467C18.4283 20.8467 18.5866 20.7812 18.7031 20.665C18.8196 20.5487 18.8848 20.3901 18.8848 20.2256C18.8847 20.1031 18.8484 19.9837 18.7803 19.8818C18.7121 19.7799 18.6154 19.7003 18.502 19.6533C18.3884 19.6064 18.2631 19.5942 18.1426 19.6182Z" fill="#001F3E"/>
</svg>
