<svg width="24" height="24" viewBox="0 0 24 24" fill="none" xmlns="http://www.w3.org/2000/svg">
<path d="M3.89481 2.49637C4.84095 1.48504 6.3285 1.25 8.22 1.25H15.78C17.6715 1.25 19.1591 1.48504 20.1052 2.49637C21.0347 3.48991 21.25 5.03645 21.25 7.04001V11.3C21.25 11.7142 20.9142 12.05 20.5 12.05C20.0858 12.05 19.75 11.7142 19.75 11.3V7.04001C19.75 5.01357 19.4953 4.0401 19.0098 3.52114C18.5409 3.01996 17.6685 2.75 15.78 2.75H8.22C6.3315 2.75 5.45906 3.01996 4.99019 3.52114C4.50468 4.0401 4.25 5.01357 4.25 7.04001V18.3C4.25 18.9046 4.33408 19.3385 4.45025 19.6233C4.56542 19.9057 4.68815 19.9904 4.74794 20.0162C4.80225 20.0396 4.92947 20.0686 5.18132 19.9599C5.44052 19.848 5.78163 19.6077 6.18124 19.1788C6.18701 19.1726 6.19289 19.1665 6.19887 19.1605L6.20198 19.1574C7.3393 17.9598 9.1318 18.0578 10.1207 19.381L11.1305 20.7307C11.3787 21.0624 11.311 21.5324 10.9793 21.7805C10.6476 22.0287 10.1776 21.9609 9.92947 21.6293L8.91946 20.2793C8.49066 19.7055 7.78886 19.6606 7.28577 20.1944L7.27113 20.2095L7.26989 20.2108C6.78723 20.7271 6.28513 21.1171 5.77589 21.337C5.25617 21.5614 4.68652 21.6229 4.15457 21.3938C3.62811 21.1671 3.27521 20.7143 3.06131 20.1898C2.84842 19.6677 2.75 19.0254 2.75 18.3V7.04001C2.75 5.03645 2.96532 3.48991 3.89481 2.49637Z" fill="#001F3E"/>
<path d="M7.25 7C7.25 6.58579 7.58579 6.25 8 6.25H16C16.4142 6.25 16.75 6.58579 16.75 7C16.75 7.41421 16.4142 7.75 16 7.75H8C7.58579 7.75 7.25 7.41421 7.25 7Z" fill="#001F3E"/>
<path d="M9 10.25C8.58579 10.25 8.25 10.5858 8.25 11C8.25 11.4142 8.58579 11.75 9 11.75H15C15.4142 11.75 15.75 11.4142 15.75 11C15.75 10.5858 15.4142 10.25 15 10.25H9Z" fill="#001F3E"/>
<path d="M20.0706 17.5701C20.3747 17.2889 20.3933 16.8144 20.112 16.5103C19.8308 16.2062 19.3563 16.1877 19.0522 16.4689L17.4517 17.9491L16.9717 17.4692C16.6788 17.1763 16.204 17.1763 15.9111 17.4692C15.6182 17.7621 15.6182 18.2369 15.9111 18.5298L16.9011 19.5198C17.1859 19.8047 17.6449 19.8136 17.9406 19.5401L20.0706 17.5701Z" fill="#001F3E"/>
<path fill-rule="evenodd" clip-rule="evenodd" d="M15.0332 14.293C15.849 13.6429 16.8818 13.25 18 13.25C20.6242 13.25 22.75 15.3758 22.75 18C22.75 18.8874 22.5023 19.7306 22.0632 20.4459C21.8131 20.8725 21.4925 21.2534 21.122 21.5662C20.2871 22.3134 19.1927 22.75 18 22.75C16.268 22.75 14.7594 21.8246 13.9385 20.4486C13.4983 19.7327 13.25 18.8885 13.25 18C13.25 16.5058 13.9387 15.1617 15.0332 14.293ZM18 14.75C17.2385 14.75 16.5316 15.0169 15.9675 15.4665L15.9662 15.4675C15.221 16.0588 14.75 16.9745 14.75 18C14.75 18.6094 14.9205 19.1833 15.2184 19.6663L15.2247 19.6765C15.7845 20.6177 16.8141 21.25 18 21.25C18.8227 21.25 19.5645 20.9499 20.1283 20.4425C20.1348 20.4367 20.1414 20.431 20.148 20.4254C20.391 20.2216 20.6052 19.9684 20.7722 19.6821L20.7816 19.6663C21.0795 19.1833 21.25 18.6094 21.25 18C21.25 16.2042 19.7958 14.75 18 14.75Z" fill="#001F3E"/>
</svg>
