<svg width="24" height="24" viewBox="0 0 24 24" fill="none" xmlns="http://www.w3.org/2000/svg">
<path d="M10.3505 8.26363C11.0926 8.3197 11.8127 8.54381 12.4619 8.91793C13.0298 9.2453 13.531 9.6809 13.9414 10.1992L14.1113 10.4257L14.1533 10.4902C14.3408 10.8209 14.2504 11.247 13.9335 11.4716C13.6167 11.6961 13.1855 11.6399 12.9355 11.3535L12.8886 11.2929L12.7656 11.1298C12.4705 10.7572 12.1129 10.4483 11.7128 10.2177C11.2558 9.9543 10.7525 9.79866 10.2373 9.75973C9.72226 9.72086 9.2046 9.79903 8.7187 9.9902C8.29336 10.1576 7.89928 10.4086 7.55854 10.7314L7.41596 10.875L4.77827 13.6572C4.11472 14.387 3.74158 15.3695 3.74995 16.3964C3.75844 17.428 4.15135 18.4079 4.83198 19.1259C5.51133 19.8425 6.42156 20.2413 7.3642 20.25C8.30692 20.2586 9.22336 19.8765 9.91401 19.1728L11.4081 17.5966L11.4638 17.5429C11.7519 17.295 12.1869 17.3012 12.4687 17.5683C12.769 17.8532 12.7817 18.3273 12.497 18.6279L10.9941 20.2138L10.9843 20.2236C10.0169 21.2092 8.7128 21.7625 7.35053 21.75C5.98836 21.7375 4.69368 21.1608 3.74311 20.1582C2.79375 19.1566 2.26148 17.8093 2.24995 16.4091C2.23842 15.009 2.74834 13.6531 3.68061 12.6347L3.6894 12.625L6.3271 9.84274L6.52631 9.64352C7.00405 9.19069 7.56077 8.83404 8.16889 8.59469C8.86393 8.32117 9.60833 8.20757 10.3505 8.26363ZM16.6494 2.24996C18.0115 2.26245 19.3062 2.83908 20.2568 3.84176C21.2061 4.8433 21.7384 6.19062 21.7499 7.59078C21.7615 8.99089 21.2516 10.3469 20.3193 11.3652L20.3105 11.375L17.6728 14.1572C17.1534 14.7053 16.5257 15.1318 15.831 15.4052C15.136 15.6788 14.3916 15.7924 13.6494 15.7363C12.9073 15.6802 12.1872 15.4561 11.538 15.082C10.9701 14.7546 10.4689 14.319 10.0585 13.8007L9.88862 13.5742L9.84663 13.5097C9.65908 13.179 9.74952 12.7529 10.0664 12.5283C10.3832 12.3038 10.8144 12.36 11.0644 12.6464L11.1113 12.707L11.2343 12.8701C11.5294 13.2427 11.887 13.5516 12.2871 13.7822C12.7441 14.0456 13.2474 14.2013 13.7626 14.2402C14.2776 14.2791 14.7953 14.2009 15.2812 14.0097C15.7674 13.8184 16.2122 13.5173 16.5839 13.125L19.2216 10.3427C19.8852 9.61294 20.2583 8.63043 20.2499 7.60348C20.2414 6.57189 19.8485 5.59202 19.1679 4.87399C18.4886 4.15741 17.5783 3.75863 16.6357 3.74996C15.693 3.74132 14.7765 4.1234 14.0859 4.82711L12.581 6.40524L12.5253 6.45797C12.2366 6.70511 11.8015 6.69857 11.5205 6.43063C11.2208 6.14478 11.2103 5.66982 11.496 5.37008L13.0078 3.78414L13.0156 3.77633L13.2001 3.59664C14.1456 2.72361 15.3721 2.23825 16.6494 2.24996Z" fill="#001F3E"/>
</svg>
