<svg width="24" height="24" viewBox="0 0 24 24" fill="none" xmlns="http://www.w3.org/2000/svg">
<path d="M7.00098 3.91992C7.42291 3.91992 7.76953 4.26752 7.76953 4.68945V17.459L10.252 14.9766C10.5503 14.6783 11.0404 14.6784 11.3389 14.9766C11.6373 15.275 11.6373 15.7651 11.3389 16.0635L7.54492 19.8574C7.24656 20.1556 6.75734 20.1556 6.45898 19.8574L2.66504 16.0635C2.51212 15.9106 2.4395 15.7145 2.43945 15.5205C2.43945 15.3265 2.51206 15.1295 2.66504 14.9766C2.96347 14.6784 3.45364 14.6783 3.75195 14.9766L6.23242 17.458V4.68945C6.23242 4.26758 6.57913 3.92003 7.00098 3.91992Z" fill="#001F3E"/>
<path d="M15 16.25C15.4142 16.25 15.75 16.5858 15.75 17C15.75 17.4142 15.4142 17.75 15 17.75H13C12.5858 17.75 12.25 17.4142 12.25 17C12.25 16.5858 12.5858 16.25 13 16.25H15Z" fill="#001F3E"/>
<path d="M18 11.25C18.4142 11.25 18.75 11.5858 18.75 12C18.75 12.4142 18.4142 12.75 18 12.75H13C12.5858 12.75 12.25 12.4142 12.25 12C12.25 11.5858 12.5858 11.25 13 11.25H18Z" fill="#001F3E"/>
<path d="M20 6.25C20.4142 6.25 20.75 6.58579 20.75 7C20.75 7.41421 20.4142 7.75 20 7.75H13C12.5858 7.75 12.25 7.41421 12.25 7C12.25 6.58579 12.5858 6.25 13 6.25H20Z" fill="#001F3E"/>
</svg>
