<svg width="24" height="24" viewBox="0 0 24 24" fill="none" xmlns="http://www.w3.org/2000/svg">
<path d="M11.4976 10.2502C11.4976 9.83594 11.8333 9.50015 12.2476 9.50015H12.252C12.6663 9.50015 13.002 9.83594 13.002 10.2502C13.002 10.6644 12.6663 11.0002 12.252 11.0002L12.2476 11.0002C11.8333 11.0002 11.4976 10.6644 11.4976 10.2502Z" fill="#001F3E"/>
<path d="M7.50001 6.03206C7.0858 6.03205 6.75001 6.36784 6.75 6.78205C6.75 7.19626 7.08578 7.53205 7.49999 7.53206L17 7.53217C17.4142 7.53218 17.75 7.1964 17.75 6.78218C17.75 6.36797 17.4142 6.03218 17 6.03217L7.50001 6.03206Z" fill="#001F3E"/>
<path fill-rule="evenodd" clip-rule="evenodd" d="M3.60156 6.84799C3.60974 3.79895 6.07877 1.32703 9.12453 1.32703L15.3349 1.32703C18.384 1.3352 20.8559 3.80424 20.8559 6.85L20.8559 14.864C20.8559 15.5505 20.5412 16.2198 20.144 16.8081C19.7372 17.4105 19.1847 18.014 18.582 18.5858C17.375 19.7308 15.8846 20.8249 14.7198 21.6198C13.2695 22.6096 11.386 22.62 9.92416 21.6487C8.73305 20.8573 7.20118 19.7624 5.95908 18.6135C5.33887 18.0399 4.76983 17.4336 4.35067 16.8275C3.94174 16.2362 3.61592 15.5605 3.6157 14.8647L3.60156 6.84799ZM5.10156 6.85042L5.1157 14.864C5.1157 15.1098 5.24178 15.4789 5.58437 15.9743C5.91687 16.4551 6.39915 16.9773 6.97762 17.5124C8.13288 18.5809 9.58777 19.6242 10.7543 20.3994C11.7081 21.0332 12.9289 21.026 13.8742 20.3809C15.0143 19.6028 16.4284 18.5612 17.5496 17.4976C18.111 16.9651 18.5785 16.446 18.9008 15.9687C19.2326 15.4774 19.3559 15.1101 19.3559 14.864L19.3559 6.85C19.3559 4.6352 17.5574 2.83351 15.3319 2.82703H9.12453C6.90994 2.82703 5.10838 4.62518 5.10156 6.85042Z" fill="#001F3E"/>
</svg>
