<svg width="24" height="24" viewBox="0 0 24 24" fill="none" xmlns="http://www.w3.org/2000/svg">
<path fill-rule="evenodd" clip-rule="evenodd" d="M22.5301 2.53033C22.823 2.23744 22.823 1.76256 22.5301 1.46967C22.2372 1.17678 21.7623 1.17678 21.4695 1.46967L17.9806 4.95852C16.1828 3.68488 14.1335 2.97998 11.9998 2.97998C8.15186 2.97998 4.64826 5.24858 2.25734 9.00695C1.71214 9.86136 1.46484 10.9559 1.46484 12.005C1.46484 13.054 1.71213 14.1486 2.25731 15.003C3.01266 16.1886 3.88584 17.2323 4.84009 18.0993L1.46967 21.4697C1.17678 21.7626 1.17678 22.2375 1.46967 22.5304C1.76256 22.8233 2.23744 22.8233 2.53033 22.5304L10.0003 15.0604L10.0085 15.0521L15.0603 10.0003C15.0629 9.99763 15.0656 9.99493 15.0682 9.99222L22.5301 2.53033ZM14.4842 8.45495L16.9024 6.03677C15.3875 5.01885 13.7126 4.47998 11.9998 4.47998C8.78799 4.47998 5.71174 6.37118 3.52266 9.81252L3.52204 9.81351C3.16745 10.369 2.96484 11.1642 2.96484 12.005C2.96484 12.8457 3.16745 13.6409 3.52204 14.1965C4.22564 15.3009 5.03331 16.2574 5.90212 17.0372L8.45499 14.4844C7.96041 13.7816 7.66992 12.9266 7.66992 12C7.66992 9.60577 9.60571 7.66998 11.9999 7.66998C12.9264 7.66998 13.7815 7.96043 14.4842 8.45495ZM9.16992 12C9.16992 10.4342 10.4341 9.16998 11.9999 9.16998C12.5103 9.16998 12.9864 9.30391 13.399 9.54027L9.54021 13.399C9.30385 12.9865 9.16992 12.5104 9.16992 12Z" fill="#001F3E"/>
<path d="M19.58 7.34561C19.9028 7.086 20.3749 7.13719 20.6345 7.45995C21.0184 7.93722 21.3955 8.45007 21.7434 8.99815C22.288 9.85239 22.5351 10.9465 22.5351 11.995C22.5351 13.0441 22.2878 14.1386 21.7426 14.9931C19.3517 18.7514 15.8481 21.02 12.0001 21.02C10.6636 21.02 9.35494 20.7374 8.12907 20.2212C7.74732 20.0605 7.56815 19.6207 7.72889 19.239C7.88963 18.8572 8.32941 18.6781 8.71116 18.8388C9.76529 19.2826 10.8767 19.52 12.0001 19.52C15.212 19.52 18.2882 17.6288 20.4773 14.1875L20.4779 14.1865C20.8325 13.631 21.0351 12.8358 21.0351 11.995C21.0351 11.1543 20.8325 10.3591 20.4779 9.80354L20.4769 9.80189C20.1647 9.30997 19.8218 8.84282 19.4657 8.40009C19.2061 8.07733 19.2573 7.60522 19.58 7.34561Z" fill="#001F3E"/>
<path d="M16.2476 12.836C16.3228 12.4287 16.0534 12.0376 15.6461 11.9625C15.2387 11.8873 14.8476 12.1567 14.7725 12.564C14.5689 13.6682 13.6582 14.5789 12.5541 14.7825C12.1467 14.8576 11.8774 15.2487 11.9525 15.656C12.0276 16.0634 12.4187 16.3327 12.8261 16.2576C14.5419 15.9412 15.9312 14.5519 16.2476 12.836Z" fill="#001F3E"/>
</svg>
