<svg width="24" height="24" viewBox="0 0 24 24" fill="none" xmlns="http://www.w3.org/2000/svg">
<path fill-rule="evenodd" clip-rule="evenodd" d="M12.0183 8.24996C13.3643 8.24994 16.9403 8.25032 19.6365 8.79097C21.0824 9.08107 22.0857 10.3561 22.4324 11.8027C22.4641 11.9352 22.498 12.0719 22.532 12.2109C22.8771 13.6232 22.5336 15.1226 21.4968 15.9502C21.4951 17.7266 21.4719 18.3325 21.1013 19.6894C20.7655 20.9191 19.8117 21.9712 18.4715 22.2294C15.7705 22.7496 13.3807 22.75 12.0193 22.75H11.9812C10.6197 22.75 7.91829 22.7495 5.21755 22.2294C3.87709 21.9713 2.92355 20.9192 2.58767 19.6894C2.19828 18.2637 2.18941 17.6672 2.18923 15.6709C1.3993 14.7112 1.23335 13.196 1.56716 11.8027C1.91386 10.356 2.91699 9.08094 4.36306 8.79097C7.05902 8.25039 10.6339 8.24994 11.9802 8.24996H12.0183ZM15.3357 15.5039C14.4063 16.2794 13.2571 16.75 11.9998 16.75C10.7425 16.7499 9.59323 16.2794 8.66384 15.5039C7.73454 16.2792 6.58595 16.7499 5.32888 16.75C4.83531 16.75 4.2781 16.6991 3.72732 16.5859C3.71581 16.5835 3.70455 16.5796 3.69314 16.5771C3.70439 17.8194 3.75842 18.286 4.03396 19.2949C4.24371 20.0626 4.80787 20.6232 5.50075 20.7568C8.04828 21.2474 10.6235 21.25 12.0008 21.25C13.378 21.25 15.64 21.2473 18.1873 20.7568C18.8802 20.6233 19.4443 20.0626 19.6541 19.2949C19.9283 18.2908 19.9823 17.8238 19.9939 16.5947C19.546 16.6953 19.0973 16.7499 18.6717 16.75C17.4143 16.75 16.2651 16.2794 15.3357 15.5039ZM11.9998 9.74996C10.6383 9.74996 7.19502 9.75296 4.65798 10.2617C3.95335 10.403 3.28066 11.0859 3.02517 12.1523C3.00541 12.2347 2.98756 12.3146 2.97048 12.3916C2.72231 13.5102 3.19768 14.7516 4.29177 15.0918C4.62565 15.1955 4.97375 15.25 5.32888 15.25C6.37377 15.2499 7.35211 14.7807 8.11599 13.9609C8.25774 13.8089 8.45601 13.7227 8.66384 13.7226C8.87184 13.7226 9.07081 13.8088 9.21267 13.9609C9.97656 14.7808 10.9549 15.2499 11.9998 15.25C13.0448 15.25 14.0229 14.7808 14.7869 13.9609C14.9287 13.8086 15.1276 13.7226 15.3357 13.7226C15.5438 13.7226 15.7427 13.8087 15.8845 13.9609C16.6485 14.7808 17.6266 15.25 18.6717 15.25C18.943 15.2499 19.2098 15.2184 19.4695 15.1572C20.7371 14.8584 21.2768 13.4188 20.9734 12.1523C20.7179 11.0861 20.0461 10.4031 19.3416 10.2617C16.8046 9.75297 13.3614 9.74996 11.9998 9.74996Z" fill="#001F3E"/>
<path fill-rule="evenodd" clip-rule="evenodd" d="M10.4588 1.09761C11.1523 0.341155 12.3443 0.341165 13.0379 1.09761L14.0906 2.24605C14.8673 3.09348 15.124 4.29516 14.7605 5.3857C14.3287 6.68121 13.1078 7.54956 11.7488 7.54976C10.3896 7.54976 9.16802 6.68137 8.7361 5.3857C8.37259 4.29517 8.62934 3.09348 9.40603 2.24605L10.4588 1.09761ZM11.9324 2.11128C11.8333 2.00319 11.6633 2.00319 11.5642 2.11128L10.5115 3.25875C10.1028 3.70455 9.96781 4.33734 10.159 4.91109C10.3846 5.58809 11.0286 6.04976 11.7488 6.04976C12.4688 6.04956 13.112 5.58794 13.3377 4.91109C13.5288 4.33734 13.3938 3.70456 12.9851 3.25875L11.9324 2.11128Z" fill="#001F3E"/>
</svg>
