<svg width="24" height="24" viewBox="0 0 24 24" fill="none" xmlns="http://www.w3.org/2000/svg">
<path d="M8 11.25C7.58579 11.25 7.25 11.5858 7.25 12C7.25 12.4142 7.58579 12.75 8 12.75H16C16.4142 12.75 16.75 12.4142 16.75 12C16.75 11.5858 16.4142 11.25 16 11.25H8Z" fill="#001F3E"/>
<path fill-rule="evenodd" clip-rule="evenodd" d="M12 1.25C6.08579 1.25 1.25 6.08579 1.25 12C1.25 17.9142 6.08579 22.75 12 22.75C17.9142 22.75 22.75 17.9142 22.75 12C22.75 6.08579 17.9142 1.25 12 1.25ZM2.75 12C2.75 6.91421 6.91421 2.75 12 2.75C17.0858 2.75 21.25 6.91421 21.25 12C21.25 17.0858 17.0858 21.25 12 21.25C6.91421 21.25 2.75 17.0858 2.75 12Z" fill="#001F3E"/>
</svg>
