<svg width="24" height="24" viewBox="0 0 24 24" fill="none" xmlns="http://www.w3.org/2000/svg">
<path fill-rule="evenodd" clip-rule="evenodd" d="M17.335 13.1133C17.9162 12.9368 18.5448 12.9658 19.1104 13.2012L21.2373 14.0898C21.5365 14.2145 21.7698 14.4419 21.9248 14.6758C22.0798 14.9098 22.1989 15.2155 22.1992 15.5449L22.1953 17.2559C22.1948 19.4866 20.6207 21.5439 18.4766 22.1484L18.2891 22.1865C18.1622 22.2037 18.0331 22.2037 17.9062 22.1865L17.7188 22.1484L17.5195 22.0869C15.4776 21.4146 14 19.4173 14 17.2559V15.5449C14.0003 15.218 14.1172 14.9134 14.2725 14.6777C14.4276 14.4425 14.6609 14.2145 14.9629 14.0898L17.0889 13.2012L17.335 13.1133ZM18.582 14.5068C18.2743 14.3789 17.9249 14.3799 17.6172 14.5078L15.4912 15.3955C15.497 15.3931 15.4896 15.3953 15.4756 15.4072C15.4756 15.4072 15.4456 15.4365 15.4287 15.4619C15.4117 15.4878 15.4018 15.5113 15.3965 15.5273C15.3907 15.5451 15.3906 15.5512 15.3906 15.5449V17.2559C15.3907 18.8222 16.5861 20.3261 18.1338 20.7773C19.5813 20.3558 20.6609 19.0095 20.791 17.5498L20.8047 17.2539L20.8086 15.5459L20.8027 15.5293C20.7973 15.5133 20.7871 15.4895 20.7695 15.4629C20.7517 15.4361 20.7342 15.4173 20.7217 15.4062C20.7156 15.401 20.71 15.3975 20.707 15.3955H20.709L18.582 14.5068Z" fill="#001F3E"/>
<path fill-rule="evenodd" clip-rule="evenodd" d="M11.375 1.5C11.553 1.5 11.7712 1.52468 11.9707 1.60449L20.2383 4.91113C20.5534 5.03717 20.7995 5.26979 20.9639 5.51367C21.128 5.75722 21.25 6.07058 21.25 6.40527V7.61816C21.2498 8.50372 20.5282 9.22551 19.6426 9.22559H17.5713L17.5596 11.1074C17.5596 11.4879 17.2506 11.7959 16.8701 11.7959C16.4898 11.7956 16.1816 11.4878 16.1816 11.1074L16.1934 9.22559H11.9287V16.1152H12.5615C12.9418 16.1155 13.25 16.4243 13.25 16.8047C13.2498 17.1849 12.9417 17.4929 12.5615 17.4932H3.10742C2.98283 17.4932 2.87807 17.5981 2.87793 17.7227V19.79H12.5615C12.9417 19.7903 13.2499 20.0983 13.25 20.4785C13.25 20.8589 12.9418 21.1677 12.5615 21.168H2.18848C1.8082 21.1677 1.5 20.8589 1.5 20.4785V17.7227C1.50014 16.8371 2.22184 16.1153 3.10742 16.1152H5.17383V9.22559H3.10742C2.22185 9.22551 1.50015 8.50372 1.5 7.61816V6.40527C1.50001 6.07058 1.62197 5.75722 1.78613 5.51367C1.95053 5.26979 2.19664 5.03717 2.51172 4.91113L10.7793 1.60449C10.9788 1.52468 11.197 1.5 11.375 1.5ZM6.55176 16.1152H10.5508V9.22559H6.55176V16.1152ZM11.3008 2.88281C11.2924 2.88413 11.2868 2.88609 11.2842 2.88672L3.01465 6.19531C3.01465 6.19531 2.9999 6.20556 2.99023 6.21387C2.97044 6.23094 2.94844 6.25491 2.92871 6.28418C2.90905 6.31339 2.89515 6.34247 2.88672 6.36719C2.8788 6.39055 2.87793 6.40527 2.87793 6.40527V7.61816C2.87809 7.74273 2.98284 7.84758 3.10742 7.84766H19.6426C19.7672 7.84758 19.8719 7.74273 19.8721 7.61816V6.40527C19.8721 6.40527 19.8716 6.39163 19.8633 6.36719C19.8549 6.34247 19.8409 6.31339 19.8213 6.28418C19.8016 6.25491 19.7796 6.23094 19.7598 6.21387C19.7501 6.20556 19.7414 6.19908 19.7354 6.19531C19.7295 6.19171 19.7266 6.19043 19.7266 6.19043L11.4658 2.88672C11.4632 2.88609 11.4576 2.88413 11.4492 2.88281C11.4299 2.87976 11.4041 2.87793 11.375 2.87793C11.3459 2.87793 11.3201 2.87976 11.3008 2.88281Z" fill="#001F3E"/>
</svg>
