<svg width="24" height="24" viewBox="0 0 24 24" fill="none" xmlns="http://www.w3.org/2000/svg">
<path fill-rule="evenodd" clip-rule="evenodd" d="M12.4943 5.80786C12.3188 5.73764 12.1375 5.71922 11.9999 5.71922C11.8624 5.71922 11.6811 5.73764 11.5056 5.80786L6.25556 7.90785C5.98548 8.01588 5.78346 8.21075 5.65189 8.40593C5.52056 8.60075 5.4166 8.8594 5.4166 9.1467V9.9167C5.4166 10.6518 6.01489 11.25 6.74994 11.25H7.74985V16.25H6.49987C6.08566 16.25 5.74987 16.5858 5.74987 17C5.74987 17.4142 6.08566 17.75 6.49987 17.75H17.4999C17.9141 17.75 18.2499 17.4142 18.2499 17C18.2499 16.5858 17.9141 16.25 17.4999 16.25H16.2498V11.25H17.2499C17.985 11.25 18.5833 10.6518 18.5833 9.9167V9.1467C18.5833 8.8594 18.4793 8.60075 18.348 8.40592C18.2164 8.21075 18.0144 8.01588 17.7443 7.90785L12.4943 5.80786ZM17.0833 9.25898L11.9999 7.22566L6.9166 9.25898V9.75004H17.0833V9.25898ZM14.7498 11.25V16.25H12.7499V11.25H14.7498ZM11.2499 11.25H9.24985V16.25H11.2499V11.25Z" fill="#001F3E"/>
<path fill-rule="evenodd" clip-rule="evenodd" d="M11.9999 1.25C6.08569 1.25 1.24991 6.08579 1.24991 12C1.24991 17.9142 6.08569 22.75 11.9999 22.75C17.9141 22.75 22.7499 17.9142 22.7499 12C22.7499 6.08579 17.9141 1.25 11.9999 1.25ZM2.74991 12C2.74991 6.91421 6.91412 2.75 11.9999 2.75C17.0857 2.75 21.2499 6.91421 21.2499 12C21.2499 17.0858 17.0857 21.25 11.9999 21.25C6.91412 21.25 2.74991 17.0858 2.74991 12Z" fill="#001F3E"/>
</svg>
