<svg width="24" height="24" viewBox="0 0 24 24" fill="none" xmlns="http://www.w3.org/2000/svg">
<path d="M7.55198 6.17004C6.18325 7.38342 5.39132 9.3316 6.14694 11.8919C6.64942 11.9603 7.13841 12.1111 7.59477 12.3393C7.96525 12.5245 8.11542 12.975 7.93018 13.3455C7.74494 13.716 7.29443 13.8662 6.92395 13.6809C6.50516 13.4715 6.04683 13.3587 5.58069 13.3501H5.56787C1.86055 13.6444 1.84941 19.0343 5.56793 19.3301H16.635C17.7959 19.3387 18.9124 18.9088 19.7619 18.1279L19.7736 18.1173C20.9836 17.0512 21.394 15.5326 21.1591 14.0798C21.093 13.6709 21.3709 13.2858 21.7798 13.2197C22.1887 13.1536 22.5737 13.4315 22.6398 13.8404C22.9446 15.7253 22.4166 17.784 20.7712 19.2375C19.6422 20.2726 18.1622 20.8407 16.6268 20.8301H5.53946C5.52129 20.8301 5.50312 20.8294 5.485 20.8281C0.202595 20.4435 -0.113147 13.1264 4.61719 11.9853C3.86224 9.03184 4.80449 6.60114 6.55694 5.04759C8.43457 3.38308 11.2046 2.76259 13.6091 3.53609C14.0034 3.66294 14.2203 4.08542 14.0934 4.47973C13.9666 4.87405 13.5441 5.09088 13.1498 4.96403C11.2644 4.35753 9.04436 4.84705 7.55198 6.17004Z" fill="#001F3E"/>
<path fill-rule="evenodd" clip-rule="evenodd" d="M18.4692 4.25012C17.3037 4.25012 16.2324 4.7241 15.4647 5.50398C15.441 5.52807 15.4191 5.55358 15.3991 5.58033C14.6648 6.33989 14.2192 7.36973 14.2192 8.50012C14.2192 10.8443 16.125 12.7501 18.4692 12.7501C19.4634 12.7501 20.3981 12.3997 21.1184 11.8153C22.1006 11.0372 22.7192 9.83441 22.7192 8.50012C22.7192 6.15591 20.8134 4.25012 18.4692 4.25012ZM16.5254 6.57461C16.5503 6.55012 16.5733 6.52407 16.5943 6.49668C17.0817 6.03195 17.7453 5.75012 18.4692 5.75012C19.985 5.75012 21.2192 6.98434 21.2192 8.50012C21.2192 9.36393 20.8196 10.1396 20.1843 10.6416L20.1759 10.6483C19.7168 11.0219 19.1131 11.2501 18.4692 11.2501C16.9535 11.2501 15.7192 10.0159 15.7192 8.50012C15.7192 7.74801 16.0236 7.06857 16.5254 6.57461Z" fill="#001F3E"/>
</svg>
