<svg width="24" height="24" viewBox="0 0 24 24" fill="none" xmlns="http://www.w3.org/2000/svg">
<path fill-rule="evenodd" clip-rule="evenodd" d="M12.0194 4.25H12.0255C12.9168 4.25 14.2755 4.25 15.6265 4.33069C16.9548 4.41003 18.3742 4.57145 19.3367 4.93271C19.376 4.94748 19.414 4.96552 19.4504 4.98666C20.912 5.83733 21.6702 7.50616 22.0776 9.14672C22.4924 10.8167 22.5885 12.6395 22.5885 14.0346C22.5885 15.0026 22.3446 15.9281 22.1251 16.7293C21.8477 17.7417 20.9452 18.4877 19.8795 18.535C19.6476 18.5452 19.4146 18.5559 19.1804 18.5668C19.182 18.5236 19.1828 18.4801 19.1828 18.4365C19.1828 16.4558 17.5771 14.8501 15.5964 14.8501C13.6157 14.8501 12.01 16.4558 12.01 18.4365C12.01 18.56 12.0163 18.6821 12.0285 18.8025L11.9984 18.8025C11.5489 18.8025 11.1017 18.7982 10.6572 18.7907C10.6686 18.6741 10.6745 18.556 10.6745 18.4365C10.6745 16.4558 9.0688 14.8501 7.08811 14.8501C5.10741 14.8501 3.50174 16.4558 3.50174 18.4365L3.50179 18.4533C2.73555 18.2762 2.19277 17.8343 1.85787 17.224C1.47782 16.5315 1.4082 15.6975 1.4082 15.015V8.09523C1.4082 7.06143 1.92635 6.23201 2.52476 5.6613C3.11508 5.0983 3.85507 4.71555 4.47101 4.59199C5.27605 4.43048 6.74356 4.34849 8.17395 4.30381C9.62861 4.25836 11.1214 4.25 12.0194 4.25ZM14.4538 5.98797L14.6117 11.6697C14.6134 11.7311 14.564 11.7818 14.5026 11.7818H8.72387C8.66362 11.7818 8.61477 11.7329 8.61477 11.6727V5.99179C8.61477 5.93483 8.65796 5.88748 8.71476 5.88332C10.1074 5.78119 12.552 5.73278 14.3548 5.88262C14.41 5.8872 14.4523 5.93261 14.4538 5.98797ZM20.8271 11.7818H16.2481C16.1891 11.7818 16.1407 11.7348 16.1391 11.6757L15.9817 6.00876C15.9799 5.94519 16.0321 5.89354 16.0956 5.89738C16.8651 5.94397 18.3308 6.10496 18.8693 6.43634C19.5696 6.86726 20.7486 8.62803 20.9354 11.6661C20.9393 11.7285 20.8896 11.7818 20.8271 11.7818ZM7.03296 11.6727V5.99997C7.03296 5.93972 6.9842 5.89088 6.92396 5.89184C6.53402 5.89803 5.71935 5.93611 4.85114 6.05452C3.65114 6.21817 2.94205 7.30906 2.94205 8.18179V11.6732C2.94205 11.7334 2.99089 11.7818 3.05114 11.7818H6.92387C6.98411 11.7818 7.03296 11.7329 7.03296 11.6727Z" fill="#001F3E"/>
<path d="M15.5603 20.8729C14.2147 20.8729 13.1238 19.7821 13.1238 18.4365C13.1238 17.0908 14.2147 16 15.5603 16C16.9059 16 17.9967 17.0908 17.9967 18.4365C17.9967 19.7821 16.9059 20.8729 15.5603 20.8729Z" fill="#001F3E"/>
<path d="M7.08811 20.8729C5.74249 20.8729 4.65164 19.7821 4.65164 18.4365C4.65164 17.0908 5.74249 16 7.08811 16C8.43373 16 9.52457 17.0908 9.52457 18.4365C9.52457 19.7821 8.43373 20.8729 7.08811 20.8729Z" fill="#001F3E"/>
</svg>
