<svg width="24" height="24" viewBox="0 0 24 24" fill="none" xmlns="http://www.w3.org/2000/svg">
<path d="M18.5586 12.9238C19.7057 12.8308 20.5958 13.2951 21.2441 13.9336C21.4201 14.1002 21.4706 14.3135 21.377 14.3906C20.5198 15.0197 19.924 16.0253 20.0156 17.123C20.1073 18.2207 20.6565 19.0168 21.5938 19.5312C21.8061 19.6479 21.9256 19.8504 21.8496 20.0107C21.3705 20.9721 20.5549 22.3585 19.6426 22.9834C19.3286 23.2034 18.9556 23.3237 18.5723 23.3281C18.209 23.32 17.4261 22.973 17.4121 22.9668C17.364 22.9469 17.3149 22.929 17.2656 22.9121C16.9528 22.8049 16.6176 22.7579 16.2871 22.7598C15.8905 22.7603 15.4971 22.8306 15.125 22.9678C14.8174 23.0951 14.2461 23.328 13.9023 23.3281C13.1243 23.3281 12.448 22.7868 11.998 22.2275C11.7551 21.9266 11.5296 21.6142 11.3232 21.291C10.7485 20.3909 10.3271 19.4058 10.124 18.3438C9.83657 16.8534 9.99946 15.0893 11.1514 13.9541C11.7357 13.3734 12.4708 12.9568 13.541 12.9131C14.0943 12.9131 14.7169 13.0545 15.1377 13.2617C15.5583 13.4689 15.8909 13.469 16.1172 13.4688C16.5537 13.4688 16.9528 13.3403 17.3672 13.2061C17.4062 13.1934 17.4465 13.179 17.4883 13.165C17.7613 13.0736 18.0997 12.9611 18.5586 12.9238Z" fill="#001F3E"/>
<path d="M13 1.25C14.4397 1.25 15.6416 1.77353 16.4814 2.65918C17.3155 3.5387 17.75 4.72998 17.75 6V8.5C17.75 8.91421 17.4142 9.25 17 9.25C16.5858 9.25 16.25 8.91421 16.25 8.5V6C16.25 5.07019 15.9343 4.26187 15.3936 3.69141C14.8584 3.12706 14.0603 2.75 13 2.75H7C5.9397 2.75 5.1416 3.12706 4.60645 3.69141C4.06566 4.26187 3.75 5.07019 3.75 6V18C3.75 18.9298 4.06566 19.7381 4.60645 20.3086C5.1416 20.8729 5.9397 21.25 7 21.25H9.5C9.91421 21.25 10.25 21.5858 10.25 22C10.25 22.4142 9.91421 22.75 9.5 22.75H7C5.5603 22.75 4.3584 22.2265 3.51855 21.3408C2.68452 20.4613 2.25 19.27 2.25 18V6C2.25 4.72998 2.68452 3.5387 3.51855 2.65918C4.3584 1.77353 5.5603 1.25 7 1.25H13Z" fill="#001F3E"/>
<path d="M18.292 10.0029C18.3445 9.99634 18.424 9.99684 18.4844 10.0479C18.5203 10.0785 18.5405 10.1576 18.54 10.1826C18.5315 10.5712 18.434 11.3823 17.8232 12.0352C17.6466 12.2239 17.427 12.3995 17.1543 12.5479C17.1288 12.5617 17.1026 12.5755 17.0762 12.5889L17.0605 12.5967C16.9877 12.633 16.9112 12.6678 16.8311 12.7002C16.8064 12.7102 16.7812 12.7199 16.7559 12.7295C16.5642 12.8016 16.3518 12.8617 16.1172 12.9072L16.085 12.9131C16.0701 12.9144 16.0549 12.9144 16.04 12.9131C16.0136 12.9144 15.9868 12.9104 15.9619 12.9014C15.9372 12.8923 15.9148 12.8783 15.8955 12.8604C15.8762 12.8424 15.8604 12.8209 15.8496 12.7969C15.8388 12.7727 15.8326 12.7462 15.832 12.7197C15.8334 12.5925 15.8452 12.4195 15.8838 12.2217C15.8948 12.1653 15.908 12.1069 15.9238 12.0469C15.9408 11.9823 15.9609 11.9153 15.9844 11.8477L15.9893 11.833C16.0072 11.7823 16.0267 11.7306 16.0488 11.6787L16.0508 11.6758L16.0596 11.6543C16.1223 11.5113 16.2024 11.3657 16.3027 11.2217C16.3211 11.1954 16.3396 11.1687 16.3594 11.1426C16.7162 10.6707 17.3099 10.2303 18.292 10.0029Z" fill="#001F3E"/>
</svg>
