<svg width="24" height="24" viewBox="0 0 24 24" fill="none" xmlns="http://www.w3.org/2000/svg">
<path d="M21.5415 8.95357C15.7515 4.48211 8.2483 4.48211 2.45833 8.95357C2.1305 9.20675 1.6595 9.14623 1.40632 8.81839C1.15314 8.49056 1.21366 8.01956 1.5415 7.76638C7.87153 2.87784 16.1283 2.87784 22.4583 7.76638C22.7862 8.01956 22.8467 8.49056 22.5935 8.81839C22.3403 9.14623 21.8693 9.20675 21.5415 8.95357Z" fill="#001F3E"/>
<path d="M18.6417 12.4336C14.6117 9.32209 9.39841 9.32209 5.36842 12.4336C5.04056 12.6868 4.56956 12.6262 4.31642 12.2983C4.06329 11.9705 4.12386 11.4995 4.45172 11.2463C9.02173 7.71786 14.9884 7.71786 19.5584 11.2463C19.8863 11.4995 19.9469 11.9705 19.6937 12.2983C19.4406 12.6262 18.9696 12.6868 18.6417 12.4336Z" fill="#001F3E"/>
<path d="M16.5566 15.9443C13.8406 13.9538 10.4178 13.9012 7.66594 15.7796C7.32382 16.0131 6.85718 15.925 6.62366 15.5829C6.39014 15.2408 6.47818 14.7742 6.82029 14.5407C10.0992 12.3025 14.2161 12.3694 17.4433 14.7344C17.7774 14.9792 17.8497 15.4485 17.6049 15.7826C17.3601 16.1167 16.8907 16.1891 16.5566 15.9443Z" fill="#001F3E"/>
<path d="M10.2499 18.5C10.2499 17.5335 11.0334 16.75 11.9999 16.75C12.9664 16.75 13.7499 17.5335 13.7499 18.5C13.7499 19.4665 12.9664 20.25 11.9999 20.25C11.0334 20.25 10.2499 19.4665 10.2499 18.5Z" fill="#001F3E"/>
</svg>
