<svg width="24" height="24" viewBox="0 0 24 24" fill="none" xmlns="http://www.w3.org/2000/svg">
<path fill-rule="evenodd" clip-rule="evenodd" d="M17.0799 7.41001C17.0799 5.76893 16.5045 4.41557 15.3427 3.77356C14.1812 3.13177 12.7293 3.36449 11.3415 4.23458L8.43006 6.05923C8.21743 6.18389 7.98125 6.25001 7.75993 6.25001H6.32993C5.21432 6.25001 4.23986 6.52942 3.5496 7.21968C2.85934 7.90994 2.57993 8.8844 2.57993 10V14C2.57993 15.1156 2.85934 16.0901 3.5496 16.7803C4.23986 17.4706 5.21432 17.75 6.32993 17.75H7.75993C7.98125 17.75 8.21742 17.8161 8.43005 17.9408L11.3416 19.7655C12.7306 20.6363 14.1825 20.8655 15.3434 20.2223C16.504 19.5793 17.0799 18.2271 17.0799 16.59V7.41001ZM12.1383 5.50544C13.2705 4.7956 14.1137 4.80827 14.6172 5.08647C15.1203 5.36446 15.5799 6.0711 15.5799 7.41001V16.59C15.5799 17.923 15.1209 18.6308 14.6164 18.9102C14.1124 19.1895 13.2692 19.2036 12.1382 18.4945L9.21057 16.6597L9.20283 16.6551C8.77725 16.4024 8.27618 16.25 7.75993 16.25H6.32993C5.44553 16.25 4.92 16.0294 4.61026 15.7197C4.30052 15.4099 4.07993 14.8844 4.07993 14V10C4.07993 9.11562 4.30052 8.59008 4.61026 8.28034C4.92 7.9706 5.44553 7.75001 6.32993 7.75001H7.75993C8.27618 7.75001 8.77726 7.59759 9.20283 7.3449L9.21057 7.34031L12.1383 5.50544Z" fill="#001F3E"/>
<path d="M19.9297 7.54961C19.6809 7.21841 19.2108 7.15157 18.8796 7.40032C18.5484 7.64907 18.4815 8.11922 18.7303 8.45042C20.3099 10.5536 20.3099 13.4464 18.7303 15.5496C18.4815 15.8808 18.5484 16.351 18.8796 16.5997C19.2108 16.8485 19.6809 16.7816 19.9297 16.4504C21.9101 13.8136 21.9101 10.1864 19.9297 7.54961Z" fill="#001F3E"/>
</svg>
