<svg width="24" height="24" viewBox="0 0 24 24" fill="none" xmlns="http://www.w3.org/2000/svg">
<path d="M10.6067 3.69107C10.0657 4.26154 9.75 5.07002 9.75 6V8C9.75 8.41421 9.41421 8.75 9 8.75C8.58579 8.75 8.25 8.41421 8.25 8V6C8.25 4.72998 8.68425 3.53846 9.51828 2.65893C10.3581 1.77327 11.5603 1.25 13 1.25H18C19.4397 1.25 20.6419 1.77327 21.4817 2.65893C22.3158 3.53846 22.75 4.72998 22.75 6V22C22.75 22.4142 22.4142 22.75 22 22.75H15.5C15.0858 22.75 14.75 22.4142 14.75 22C14.75 21.5858 15.0858 21.25 15.5 21.25H21.25V6C21.25 5.07002 20.9342 4.26154 20.3933 3.69107C19.8581 3.12672 19.0603 2.75 18 2.75H13C11.9397 2.75 11.1419 3.12672 10.6067 3.69107Z" fill="#001F3E"/>
<path fill-rule="evenodd" clip-rule="evenodd" d="M6.02728 11.5717C7.06145 10.674 8.59855 10.674 9.63272 11.5717L12.4627 14.0284C13.0644 14.5507 13.41 15.3083 13.41 16.1051V22C13.41 22.4142 13.0742 22.75 12.66 22.75H3C2.58579 22.75 2.25 22.4142 2.25 22V16.1051C2.25 15.3083 2.59558 14.5507 3.19728 14.0284L6.02728 11.5717ZM8.64942 12.7045C8.17934 12.2964 7.48066 12.2964 7.01058 12.7045L4.18058 15.1611C3.90708 15.3985 3.75 15.7429 3.75 16.1051V21.25H11.91V16.1051C11.91 15.7429 11.7529 15.3985 11.4794 15.1611L8.64942 12.7045Z" fill="#001F3E"/>
<path d="M19 16.75C19.4142 16.75 19.75 16.4142 19.75 16C19.75 15.5858 19.4142 15.25 19 15.25H16C15.5858 15.25 15.25 15.5858 15.25 16C15.25 16.4142 15.5858 16.75 16 16.75H19Z" fill="#001F3E"/>
<path d="M19.75 11C19.75 11.4142 19.4142 11.75 19 11.75H16C15.5858 11.75 15.25 11.4142 15.25 11C15.25 10.5858 15.5858 10.25 16 10.25H19C19.4142 10.25 19.75 10.5858 19.75 11Z" fill="#001F3E"/>
<path d="M19 6.75C19.4142 6.75 19.75 6.41421 19.75 6C19.75 5.58579 19.4142 5.25 19 5.25L16 5.25C15.5858 5.25 15.25 5.58579 15.25 6C15.25 6.41421 15.5858 6.75 16 6.75L19 6.75Z" fill="#001F3E"/>
</svg>
