<svg width="24" height="24" viewBox="0 0 24 24" fill="none" xmlns="http://www.w3.org/2000/svg">
<path d="M4.7525 14.665C5.12125 14.8537 5.26724 15.3055 5.07858 15.6743L3.05314 19.6331C2.6751 20.372 3.21173 21.2494 4.04173 21.2494H19.9584C20.7884 21.2494 21.3251 20.372 20.947 19.6331L18.9216 15.6743C18.7329 15.3055 18.8789 14.8537 19.2477 14.665C19.6164 14.4763 20.0683 14.6223 20.257 14.9911L22.2824 18.9499C23.1711 20.6869 21.9096 22.7494 19.9584 22.7494H4.04173C2.09058 22.7494 0.829065 20.6869 1.71777 18.9499L3.7432 14.9911C3.93187 14.6223 4.38374 14.4763 4.7525 14.665Z" fill="#001F3E"/>
<path fill-rule="evenodd" clip-rule="evenodd" d="M18.7348 7.3542C18.7348 12.2817 15.0282 15.7725 13.1338 17.2348C12.4851 17.7355 11.6081 17.7355 10.9595 17.2348C9.06502 15.7725 5.35847 12.2817 5.35847 7.3542C5.35847 5.81131 6.06312 3.98862 7.31739 2.89763C8.57166 1.80664 10.2728 1.19373 12.0466 1.19373C13.8204 1.19373 15.5216 1.80664 16.7758 2.89763C18.0301 3.98862 18.7348 5.81131 18.7348 7.3542ZM14.6355 7.63549C14.6355 9.09112 13.4555 10.2711 11.9998 10.2711C10.5442 10.2711 9.36417 9.09112 9.36417 7.63549C9.36417 6.17985 10.5442 4.99983 11.9998 4.99983C13.4555 4.99983 14.6355 6.17985 14.6355 7.63549Z" fill="#001F3E"/>
</svg>
