<svg width="24" height="24" viewBox="0 0 24 24" fill="none" xmlns="http://www.w3.org/2000/svg">
<path fill-rule="evenodd" clip-rule="evenodd" d="M15.5608 4.33618C16.6837 4.40268 17.6971 4.51344 18.295 4.70256C18.7275 4.83934 19.0918 5.1451 19.3875 5.47547C19.6921 5.81574 19.978 6.24323 20.2419 6.7167C20.7703 7.66491 21.2528 8.87514 21.6362 10.1428C22.0203 11.413 22.3129 12.7678 22.45 14.0131C22.585 15.2394 22.5782 16.4351 22.305 17.3464C21.9824 18.4223 21.2924 19.0296 20.5533 19.3542C19.8598 19.6588 19.1305 19.7103 18.6982 19.7408L18.687 19.7416C17.5352 19.8229 16.3063 19.3224 15.2942 18.1078C14.5838 17.2553 14.0239 16.5387 13.8282 16.2808C13.8125 16.2602 13.7979 16.2387 13.7845 16.2166C13.7871 16.2209 13.7857 16.2195 13.7797 16.2138C13.7409 16.1767 13.5107 15.9566 12.9808 15.9566H10.8244C10.2945 15.9566 10.0643 16.1767 10.0255 16.2138C10.0195 16.2195 10.0181 16.2209 10.0207 16.2166C10.0073 16.2387 9.99269 16.2602 9.97704 16.2808C9.78133 16.5387 9.22144 17.2553 8.51103 18.1078C7.49892 19.3224 6.27005 19.8229 5.11816 19.7416L5.10702 19.7408C4.67469 19.7103 3.94543 19.6588 3.25186 19.3542C2.51276 19.0296 1.82279 18.4223 1.50024 17.3464C1.22756 16.4369 1.19925 15.2504 1.31247 14.0266C1.4272 12.7864 1.69418 11.4388 2.06248 10.1723C2.42986 8.90891 2.90617 7.69822 3.45215 6.7421C3.7251 6.26411 4.02583 5.83135 4.35318 5.48441C4.67586 5.1424 5.06136 4.8445 5.51016 4.70256C5.99101 4.55049 6.92074 4.44879 7.97386 4.37842C9.06373 4.3056 10.3867 4.26127 11.7207 4.25188C13.0544 4.24249 14.4089 4.26796 15.5608 4.33618ZM7.36317 8.20874C6.90921 8.20874 6.5412 8.57674 6.5412 9.03071V9.74994H5.82197C5.36802 9.74994 5 10.1179 5 10.5719C5 11.0259 5.36802 11.3939 5.82197 11.3939H6.5412V12.1131C6.5412 12.5671 6.90921 12.9351 7.36317 12.9351C7.81713 12.9351 8.18514 12.5671 8.18514 12.1131V11.3939H8.90437C9.35833 11.3939 9.72634 11.0259 9.72634 10.5719C9.72634 10.1179 9.35833 9.74994 8.90437 9.74994H8.18514V9.03071C8.18514 8.57674 7.81713 8.20874 7.36317 8.20874ZM16.5964 9.85268C17.0503 9.85268 17.4184 9.48468 17.4184 9.03071C17.4184 8.57675 17.0503 8.20874 16.5964 8.20874C16.1424 8.20874 15.7744 8.57675 15.7744 9.03071C15.7744 9.48468 16.1424 9.85268 16.5964 9.85268ZM18.0862 11.3426C17.6323 11.3426 17.2643 10.9745 17.2643 10.5206C17.2643 10.0666 17.6323 9.69861 18.0862 9.69861C18.5402 9.69861 18.9082 10.0666 18.9082 10.5206C18.9082 10.9745 18.5402 11.3426 18.0862 11.3426ZM17.4184 12.0104C17.4184 12.4644 17.0503 12.8324 16.5964 12.8324C16.1424 12.8324 15.7744 12.4644 15.7744 12.0104C15.7744 11.5565 16.1424 11.1885 16.5964 11.1885C17.0503 11.1885 17.4184 11.5565 17.4184 12.0104ZM15.1067 11.3426C14.6528 11.3426 14.2848 10.9745 14.2848 10.5206C14.2848 10.0666 14.6528 9.69861 15.1067 9.69861C15.5607 9.69861 15.9287 10.0666 15.9287 10.5206C15.9287 10.9745 15.5607 11.3426 15.1067 11.3426Z" fill="#001F3E"/>
</svg>
