<svg width="24" height="24" viewBox="0 0 24 24" fill="none" xmlns="http://www.w3.org/2000/svg">
<path d="M13.4589 2.48088C13.7456 2.18192 14.2204 2.17199 14.5194 2.4587L16.9594 4.79872C17.1806 5.01091 17.2505 5.33638 17.1358 5.62066C17.0211 5.90494 16.7449 6.0908 16.4383 6.09003L8.49023 6.07001C5.33636 6.07051 2.74023 8.66305 2.74023 11.84C2.74023 13.4224 3.38493 14.8641 4.43055 15.9097C4.72345 16.2026 4.72345 16.6774 4.43055 16.9703C4.13766 17.2632 3.66279 17.2632 3.36989 16.9703C2.05551 15.656 1.24023 13.8376 1.24023 11.84C1.24023 7.83732 4.50452 4.57001 8.49023 4.57001H8.49212L14.5697 4.58532L13.4811 3.5413C13.1822 3.2546 13.1722 2.77983 13.4589 2.48088Z" fill="#001F3E"/>
<path d="M19.5698 7.02967C19.8627 6.73677 20.3375 6.73677 20.6304 7.02967C21.9448 8.34405 22.7601 10.1624 22.7601 12.16C22.7601 16.1627 19.4958 19.43 15.5101 19.43L15.5082 19.43L9.4306 19.4147L10.5192 20.4587C10.8182 20.7454 10.8281 21.2202 10.5414 21.5191C10.2547 21.8181 9.77992 21.828 9.48096 21.5413L7.04096 19.2013C6.81971 18.9891 6.74986 18.6636 6.86456 18.3793C6.97927 18.0951 7.25543 17.9092 7.56197 17.91L15.5101 17.93H15.5112C18.665 17.9294 21.2601 15.3369 21.2601 12.16C21.2601 10.5776 20.6154 9.13595 19.5698 8.09033C19.2769 7.79743 19.2769 7.32256 19.5698 7.02967Z" fill="#001F3E"/>
<path d="M9 11.25C8.58579 11.25 8.25 11.5858 8.25 12C8.25 12.4142 8.58579 12.75 9 12.75H15C15.4142 12.75 15.75 12.4142 15.75 12C15.75 11.5858 15.4142 11.25 15 11.25H9Z" fill="#001F3E"/>
</svg>
