<svg width="24" height="24" viewBox="0 0 24 24" fill="none" xmlns="http://www.w3.org/2000/svg">
<path d="M6.45898 4.14439C6.75737 3.84608 7.24653 3.84608 7.54492 4.14439L11.3389 7.93833C11.6371 8.23672 11.6372 8.72589 11.3389 9.02427C11.0405 9.32268 10.5504 9.32268 10.252 9.02427L7.76953 6.54185V19.3124C7.76953 19.7343 7.42291 20.0809 7.00098 20.0809C6.57913 20.0808 6.23242 19.7342 6.23242 19.3124V6.5438L3.75195 9.02427C3.45355 9.32268 2.96345 9.32268 2.66504 9.02427C2.51213 8.87132 2.43946 8.67527 2.43945 8.4813C2.43945 8.28733 2.51215 8.09129 2.66504 7.93833L6.45898 4.14439Z" fill="#001F3E"/>
<path d="M15 16.2499C15.4142 16.2499 15.7499 16.5857 15.75 16.9999C15.75 17.4141 15.4142 17.7499 15 17.7499H13C12.5858 17.7499 12.25 17.4141 12.25 16.9999C12.2501 16.5857 12.5858 16.2499 13 16.2499H15Z" fill="#001F3E"/>
<path d="M18 11.2499C18.4142 11.2499 18.7499 11.5857 18.75 11.9999C18.75 12.4141 18.4142 12.7499 18 12.7499H13C12.5858 12.7499 12.25 12.4141 12.25 11.9999C12.2501 11.5857 12.5858 11.2499 13 11.2499H18Z" fill="#001F3E"/>
<path d="M20 6.24985C20.4142 6.24985 20.7499 6.58572 20.75 6.99985C20.75 7.41407 20.4142 7.74985 20 7.74985H13C12.5858 7.74985 12.25 7.41407 12.25 6.99985C12.2501 6.58572 12.5858 6.24985 13 6.24985H20Z" fill="#001F3E"/>
</svg>
