<svg width="24" height="24" viewBox="0 0 24 24" fill="none" xmlns="http://www.w3.org/2000/svg">
<path d="M12 1.25C17.93 1.25 22.75 6.07 22.75 12C22.75 17.93 17.93 22.75 12 22.75C6.07 22.75 1.25 17.93 1.25 12C1.25 6.07 6.07 1.25 12 1.25ZM12 2.75C6.9 2.75 2.75 6.9 2.75 12C2.75 17.1 6.9 21.25 12 21.25C17.1 21.25 21.25 17.1 21.25 12C21.25 6.9 17.1 2.75 12 2.75ZM15 10.2002C15.29 9.9102 15.7705 9.9102 16.0605 10.2002C16.3501 10.4901 16.3501 10.9698 16.0605 11.2598L12.5303 14.79C12.3803 14.94 12.19 15.0098 12 15.0098C11.8101 15.0097 11.6197 14.94 11.4697 14.79L7.94043 11.2598C7.65043 10.9698 7.65043 10.4902 7.94043 10.2002C8.23043 9.91023 8.71001 9.91021 9 10.2002L12 13.2002L15 10.2002Z" fill="#292D32"/>
</svg>
