<svg width="24" height="24" viewBox="0 0 24 24" fill="none" xmlns="http://www.w3.org/2000/svg">
<path d="M12.0488 1.25155C12.2144 1.26218 12.3772 1.32751 12.5077 1.44754C12.5163 1.45543 12.5247 1.46352 12.5329 1.47179L14.5308 3.46967C14.8237 3.76256 14.8237 4.23744 14.5308 4.53033C14.2379 4.82322 13.7631 4.82322 13.4702 4.53033L12.7505 3.81066V9.00002C12.7505 9.41424 12.4147 9.75002 12.0005 9.75002C11.5863 9.75002 11.2505 9.41424 11.2505 9.00002V3.81068L10.5308 4.53035C10.2379 4.82325 9.76305 4.82325 9.47016 4.53035C9.17727 4.23746 9.17727 3.76259 9.47016 3.46969L11.4668 1.47305L11.4702 1.46967C11.617 1.32287 11.8095 1.24965 12.0019 1.25C12.0175 1.25003 12.0332 1.25054 12.0488 1.25155Z" fill="#001F3E"/>
<path fill-rule="evenodd" clip-rule="evenodd" d="M2.75049 12.25V12C2.75049 9.93099 3.10792 8.53036 3.78112 7.59768C4.43449 6.69248 5.47068 6.11275 7.10949 5.87202C7.5193 5.81182 7.80272 5.4308 7.74253 5.02098C7.68233 4.61117 7.3013 4.32775 6.89149 4.38795C4.9903 4.66722 3.52649 5.38749 2.56485 6.71979C1.62306 8.0246 1.25049 9.79898 1.25049 12V12.8271C1.2374 12.8826 1.23047 12.9405 1.23047 13C1.23047 13.0595 1.2374 13.1174 1.25049 13.1729V15C1.25049 17.574 1.76069 19.5708 3.09516 20.9053C4.42963 22.2398 6.42652 22.75 9.00049 22.75H15.0005C17.5745 22.75 19.5714 22.2398 20.9058 20.9053C22.2403 19.5708 22.7505 17.574 22.7505 15V12C22.7505 9.79898 22.3779 8.0246 21.4361 6.71979C20.4745 5.38749 19.0107 4.66722 17.1095 4.38795C16.6997 4.32775 16.3187 4.61117 16.2585 5.02098C16.1983 5.4308 16.4817 5.81182 16.8915 5.87202C18.5303 6.11275 19.5665 6.69248 20.2199 7.59768C20.8931 8.53036 21.2505 9.93099 21.2505 12V12.25H17.6205C16.9708 12.25 16.3586 12.6166 16.0596 13.2146L14.8896 15.5546C14.6756 15.9827 14.2439 16.25 13.7705 16.25H10.2405C9.76704 16.25 9.33536 15.9827 9.12129 15.5546L7.95129 13.2146C7.65419 12.6204 7.05442 12.25 6.39047 12.25H2.75049ZM2.75049 13.75V15C2.75049 17.426 3.24029 18.9291 4.15582 19.8447C5.07135 20.7602 6.57446 21.25 9.00049 21.25H15.0005C17.4265 21.25 18.9296 20.7602 19.8452 19.8447C20.7607 18.9291 21.2505 17.426 21.2505 15V13.75H17.6205C17.5302 13.75 17.4423 13.8034 17.4013 13.8854L16.2313 16.2254C15.7654 17.1573 14.817 17.75 13.7705 17.75H10.2405C9.1939 17.75 8.24558 17.1573 7.77965 16.2254L6.60965 13.8854C6.56675 13.7996 6.48652 13.75 6.39047 13.75H2.75049Z" fill="#001F3E"/>
</svg>
