<svg width="24" height="24" viewBox="0 0 24 24" fill="none" xmlns="http://www.w3.org/2000/svg">
<path d="M17.8701 11.93C17.8701 11.5158 17.5343 11.18 17.1201 11.18C16.7059 11.18 16.3701 11.5158 16.3701 11.93V18.15C16.3701 18.5642 16.7059 18.9 17.1201 18.9C17.5343 18.9 17.8701 18.5642 17.8701 18.15V11.93Z" fill="#001F3E"/>
<path d="M12 13.26C12.4142 13.26 12.75 13.5958 12.75 14.01V18.15C12.75 18.5642 12.4142 18.9 12 18.9C11.5858 18.9 11.25 18.5642 11.25 18.15V14.01C11.25 13.5958 11.5858 13.26 12 13.26Z" fill="#001F3E"/>
<path d="M6.87988 15.33C7.2941 15.33 7.62988 15.6658 7.62988 16.08V18.15C7.62988 18.5642 7.2941 18.9 6.87988 18.9C6.46567 18.9 6.12988 18.5642 6.12988 18.15V16.08C6.12988 15.6658 6.46567 15.33 6.87988 15.33Z" fill="#001F3E"/>
<path fill-rule="evenodd" clip-rule="evenodd" d="M17.6064 5.27907C17.9217 5.54767 17.9595 6.02103 17.6909 6.33635L17.2298 6.87762C14.5781 9.97651 11.0222 12.1701 7.06145 13.1577C6.65954 13.2579 6.25249 13.0134 6.15228 12.6115C6.05207 12.2095 6.29664 11.8025 6.69855 11.7023C10.3576 10.7899 13.6415 8.76374 16.0897 5.90292L16.5491 5.36365C16.8177 5.04833 17.291 5.01046 17.6064 5.27907Z" fill="#001F3E"/>
<path fill-rule="evenodd" clip-rule="evenodd" d="M13.44 5.85C13.44 5.43579 13.7758 5.1 14.19 5.1H17.12C17.5342 5.1 17.87 5.43579 17.87 5.85V8.77C17.87 9.18421 17.5342 9.52 17.12 9.52C16.7058 9.52 16.37 9.18421 16.37 8.77V6.6H14.19C13.7758 6.6 13.44 6.26421 13.44 5.85Z" fill="#001F3E"/>
<path fill-rule="evenodd" clip-rule="evenodd" d="M3.09467 3.09467C4.42914 1.7602 6.42603 1.25 9 1.25H15C17.574 1.25 19.5709 1.7602 20.9053 3.09467C22.2398 4.42914 22.75 6.42603 22.75 9V15C22.75 17.574 22.2398 19.5709 20.9053 20.9053C19.5709 22.2398 17.574 22.75 15 22.75H9C6.42603 22.75 4.42914 22.2398 3.09467 20.9053C1.7602 19.5709 1.25 17.574 1.25 15V9C1.25 6.42603 1.7602 4.42914 3.09467 3.09467ZM4.15533 4.15533C3.2398 5.07086 2.75 6.57397 2.75 9V15C2.75 17.426 3.2398 18.9291 4.15533 19.8447C5.07086 20.7602 6.57397 21.25 9 21.25H15C17.426 21.25 18.9291 20.7602 19.8447 19.8447C20.7602 18.9291 21.25 17.426 21.25 15V9C21.25 6.57397 20.7602 5.07086 19.8447 4.15533C18.9291 3.2398 17.426 2.75 15 2.75H9C6.57397 2.75 5.07086 3.2398 4.15533 4.15533Z" fill="#001F3E"/>
</svg>
