<svg width="24" height="24" viewBox="0 0 24 24" fill="none" xmlns="http://www.w3.org/2000/svg">
<path d="M11.4697 9.2002C11.7597 8.9102 12.2403 8.9102 12.5303 9.2002L16.0605 12.7305C16.3501 13.0205 16.3502 13.5002 16.0605 13.79C15.9106 13.94 15.7202 14.0097 15.5303 14.0098C15.3403 14.0098 15.15 13.94 15 13.79L12 10.79L9 13.79C8.71004 14.0799 8.23041 14.0798 7.94043 13.79C7.65047 13.5001 7.65054 13.0205 7.94043 12.7305L11.4697 9.2002Z" fill="#292D32"/>
<path fill-rule="evenodd" clip-rule="evenodd" d="M12 1.25C17.93 1.25 22.75 6.07 22.75 12C22.75 17.93 17.93 22.75 12 22.75C6.07 22.75 1.25 17.93 1.25 12C1.25 6.07 6.07 1.25 12 1.25ZM12 2.75C6.9 2.75 2.75 6.9 2.75 12C2.75 17.1 6.9 21.25 12 21.25C17.1 21.25 21.25 17.1 21.25 12C21.25 6.9 17.1 2.75 12 2.75Z" fill="#292D32"/>
</svg>
