<svg width="24" height="24" viewBox="0 0 24 24" fill="none" xmlns="http://www.w3.org/2000/svg">
<path fill-rule="evenodd" clip-rule="evenodd" d="M15.3536 2.2288C15.5065 2.59883 15.5699 3.04155 15.5699 3.5199V7.36929L21.4697 1.46955C21.7626 1.17665 22.2374 1.17665 22.5303 1.46955C22.8232 1.76244 22.8232 2.23731 22.5303 2.53021L2.53033 22.5302C2.23744 22.8231 1.76256 22.8231 1.46967 22.5302C1.17678 22.2373 1.17678 21.7624 1.46967 21.4695L8.44089 14.4983C8.44025 14.4856 8.43993 14.4728 8.43993 14.4599V14.0299H6.09993C5.30585 14.0299 4.44922 13.787 4.1039 13.0223C3.75845 12.2574 4.14355 11.4557 4.66771 10.8635L4.66849 10.8626L12.237 2.26436C12.553 1.90563 12.8932 1.6152 13.2521 1.4382C13.6142 1.25963 14.0537 1.17155 14.4898 1.33526C14.9262 1.49912 15.1992 1.85513 15.3536 2.2288ZM9.90035 13.0389C9.79997 12.7429 9.51982 12.5299 9.18993 12.5299H6.09993C5.81795 12.5299 5.64033 12.4855 5.54311 12.4423C5.50671 12.4261 5.48582 12.4123 5.47468 12.4034C5.47544 12.3894 5.47894 12.3652 5.4906 12.3282C5.52221 12.2278 5.60582 12.0667 5.79137 11.8572L5.7929 11.8554L13.3629 3.25545C13.6018 2.98433 13.7917 2.84459 13.9156 2.78348C13.9292 2.77677 13.9412 2.77134 13.9517 2.76697C13.9565 2.77681 13.9617 2.7883 13.9672 2.80163C14.0197 2.92847 14.0699 3.15826 14.0699 3.5199V8.8399C14.0699 8.84956 14.0701 8.85918 14.0705 8.86874L9.90035 13.0389Z" fill="#001F3E"/>
<path fill-rule="evenodd" clip-rule="evenodd" d="M16.2202 10.7198C16.2202 10.3056 16.556 9.96985 16.9702 9.96985H17.9002C18.6943 9.96985 19.5509 10.2128 19.8962 10.9774C20.2417 11.7424 19.8565 12.5441 19.3323 13.1363L19.3316 13.1371L11.7631 21.7354C11.4471 22.0941 11.1069 22.3845 10.748 22.5616C10.386 22.7401 9.94637 22.8282 9.51032 22.6645C9.07386 22.5006 8.80095 22.1446 8.64655 21.771C8.49365 21.4009 8.43018 20.9582 8.43018 20.4798V18.0398C8.43018 17.6256 8.76596 17.2898 9.18018 17.2898C9.59439 17.2898 9.93018 17.6256 9.93018 18.0398V20.4798C9.93018 20.8415 9.98045 21.0713 10.0329 21.1981C10.0384 21.2115 10.0436 21.2229 10.0484 21.2328C10.0589 21.2284 10.0709 21.223 10.0845 21.2163C10.2085 21.1551 10.3984 21.0153 10.6374 20.7441L18.2072 12.1443L18.2087 12.1426C18.3943 11.9331 18.4779 11.7719 18.5095 11.6716C18.5212 11.6346 18.5247 11.6103 18.5254 11.5963C18.5143 11.5874 18.4934 11.5737 18.457 11.5575C18.3598 11.5143 18.1822 11.4698 17.9002 11.4698H16.9702C16.556 11.4698 16.2202 11.1341 16.2202 10.7198Z" fill="#001F3E"/>
</svg>
