<svg width="24" height="24" viewBox="0 0 24 24" fill="none" xmlns="http://www.w3.org/2000/svg">
<path fill-rule="evenodd" clip-rule="evenodd" d="M10.2361 1.62985C10.8587 2.21519 10.7152 3.10867 10.4188 3.78943L10.4182 3.7906C9.96897 4.81751 9.72195 5.94337 9.73111 7.13422L9.73112 7.13688C9.74942 11.5563 13.423 15.3266 17.9218 15.5106L17.9224 15.5106C18.5865 15.5383 19.2214 15.4923 19.8378 15.3819C20.2427 15.3082 20.6367 15.2958 20.9894 15.378C21.3489 15.4619 21.7061 15.6568 21.9273 16.0189C22.1477 16.3795 22.1592 16.7846 22.0747 17.14C21.9915 17.49 21.8079 17.8357 21.5656 18.1639C19.4415 21.0702 15.9053 22.9104 11.9586 22.7393L11.9582 22.7393C6.35746 22.493 1.6707 18.0129 1.28301 12.4731C0.928812 7.56265 3.84297 3.28595 8.07901 1.49921C8.75891 1.21108 9.63679 1.06627 10.2361 1.62985ZM9.17128 2.74535C9.0712 2.74811 8.90305 2.77908 8.6639 2.88048L8.66256 2.88105C4.97922 4.43437 2.47381 8.13707 2.77918 12.366L2.7793 12.3677C3.11203 17.1275 7.16508 21.027 12.0241 21.2407C15.4566 21.3894 18.5196 19.7903 20.3555 17.2775L20.3579 17.2743C20.5044 17.0761 20.575 16.9267 20.605 16.8306C20.5074 16.8161 20.3452 16.8141 20.1058 16.8578L20.1034 16.8582C19.3803 16.9877 18.6357 17.0416 17.8605 17.0094C12.5797 16.7934 8.25357 12.3844 8.23114 7.14443C8.2205 5.73598 8.51336 4.40249 9.04376 3.18994C9.13521 2.97981 9.16534 2.83329 9.17128 2.74535ZM9.25161 2.7515C9.25158 2.75153 9.25075 2.75131 9.24923 2.75071C9.25088 2.75116 9.25164 2.75146 9.25161 2.7515ZM20.6964 16.854C20.6963 16.854 20.6959 16.8538 20.6951 16.8533C20.696 16.8537 20.6964 16.854 20.6964 16.854ZM20.6237 16.74C20.6236 16.7387 20.6236 16.738 20.6236 16.7379C20.6236 16.7379 20.6237 16.7386 20.6237 16.74Z" fill="#001F3E"/>
</svg>
