<svg width="24" height="24" viewBox="0 0 24 24" fill="none" xmlns="http://www.w3.org/2000/svg">
<path d="M10.8676 7.13416C11.6009 6.86528 12.3979 6.86528 13.1312 7.13416C13.5201 7.27675 13.951 7.07709 14.0936 6.68819C14.2362 6.2993 14.0365 5.86844 13.6476 5.72584C12.5809 5.33472 11.4179 5.33472 10.3512 5.72584C9.96231 5.86844 9.76265 6.2993 9.90524 6.68819C10.0478 7.07709 10.4787 7.27675 10.8676 7.13416Z" fill="#001F3E"/>
<path d="M12.6182 9.27513C12.2138 9.16829 11.7958 9.16829 11.3913 9.27513C10.9908 9.38092 10.5804 9.14202 10.4746 8.74154C10.3688 8.34107 10.6077 7.93066 11.0082 7.82487C11.6638 7.65171 12.3458 7.65171 13.0013 7.82487C13.4018 7.93066 13.6407 8.34107 13.5349 8.74154C13.4291 9.14202 13.0187 9.38092 12.6182 9.27513Z" fill="#001F3E"/>
<path fill-rule="evenodd" clip-rule="evenodd" d="M7.24946 6C7.24946 3.37579 9.37525 1.25 11.9995 1.25C14.6237 1.25 16.7495 3.37579 16.7495 6V11.5C16.7495 14.1242 14.6237 16.25 11.9995 16.25C9.37525 16.25 7.24946 14.1242 7.24946 11.5V6ZM11.9995 2.75C10.2037 2.75 8.74946 4.20421 8.74946 6V11.5C8.74946 13.2958 10.2037 14.75 11.9995 14.75C13.7952 14.75 15.2495 13.2958 15.2495 11.5V6C15.2495 4.20421 13.7952 2.75 11.9995 2.75Z" fill="#001F3E"/>
<path d="M4.34961 8.9C4.76382 8.9 5.09961 9.23579 5.09961 9.65V11.35C5.09961 15.155 8.19249 18.2487 11.9972 18.25C11.9979 18.25 11.9987 18.25 11.9995 18.25C12.0003 18.25 12.001 18.25 12.0018 18.25C15.8066 18.2488 18.8996 15.1551 18.8996 11.35V9.65C18.8996 9.23579 19.2354 8.9 19.6496 8.9C20.0638 8.9 20.3996 9.23579 20.3996 9.65V11.35C20.3996 15.7315 17.0333 19.3367 12.7495 19.7169V22C12.7495 22.4142 12.4137 22.75 11.9995 22.75C11.5853 22.75 11.2495 22.4142 11.2495 22V19.7169C6.96577 19.3366 3.59961 15.7314 3.59961 11.35V9.65C3.59961 9.23579 3.9354 8.9 4.34961 8.9Z" fill="#001F3E"/>
</svg>
