<svg width="24" height="24" viewBox="0 0 24 24" fill="none" xmlns="http://www.w3.org/2000/svg">
<path d="M17.6611 12.7793C17.9652 12.498 18.4404 12.5162 18.7217 12.8203C19.0029 13.1244 18.9838 13.5996 18.6797 13.8809L16.1504 16.2207C15.8547 16.4942 15.3952 16.4851 15.1104 16.2002L13.9404 15.0303C13.6475 14.7374 13.6476 14.2626 13.9404 13.9697C14.2333 13.6768 14.7081 13.6768 15.001 13.9697L15.6611 14.6299L17.6611 12.7793Z" fill="#001F3E"/>
<path fill-rule="evenodd" clip-rule="evenodd" d="M16.3203 9C16.7394 9.00002 17.1385 9.04646 17.5068 9.13574L17.5273 9.14062C19.9906 9.68415 21.8203 11.8836 21.8203 14.5C21.8203 15.5363 21.541 16.5049 21.0361 17.3311L21.0312 17.3389C20.0827 18.9237 18.3359 19.9999 16.3203 20C15.2423 20 14.2348 19.6817 13.3848 19.123C13.3699 19.1128 13.3544 19.1023 13.3389 19.0928C12.6364 18.6621 12.0509 18.0568 11.623 17.3398L11.6182 17.3311C11.1091 16.498 10.8203 15.5283 10.8203 14.5C10.8203 11.5618 13.136 9.15441 16.0381 9.00684C16.1315 9.00209 16.2258 9.00001 16.3203 9ZM16.1152 10.5049C14.0046 10.6122 12.3203 12.3631 12.3203 14.5C12.3203 15.2478 12.5302 15.9528 12.9004 16.5586L12.9043 16.5654C13.2155 17.087 13.6413 17.5276 14.1523 17.8408C14.1636 17.8477 14.1748 17.8549 14.1855 17.8623C14.8037 18.2685 15.5364 18.5 16.3203 18.5C17.7862 18.4999 19.0562 17.717 19.7461 16.5645L19.75 16.5586C20.1171 15.9578 20.3203 15.2536 20.3203 14.5C20.3203 12.5971 18.9897 10.9978 17.1982 10.6025L17.1836 10.5986C16.9157 10.5337 16.6251 10.5 16.3203 10.5C16.2516 10.5 16.1831 10.5014 16.1152 10.5049Z" fill="#001F3E"/>
<path d="M7 16.25C7.41421 16.25 7.75 16.5858 7.75 17C7.75 17.4142 7.41421 17.75 7 17.75H3C2.58579 17.75 2.25 17.4142 2.25 17C2.25 16.5858 2.58579 16.25 3 16.25H7Z" fill="#001F3E"/>
<path d="M9 11.25C9.41421 11.25 9.75 11.5858 9.75 12C9.75 12.4142 9.41421 12.75 9 12.75H3C2.58579 12.75 2.25 12.4142 2.25 12C2.25 11.5858 2.58579 11.25 3 11.25H9Z" fill="#001F3E"/>
<path d="M21 6.25C21.4142 6.25 21.75 6.58579 21.75 7C21.75 7.41421 21.4142 7.75 21 7.75H3C2.58579 7.75 2.25 7.41421 2.25 7C2.25 6.58579 2.58579 6.25 3 6.25H21Z" fill="#001F3E"/>
</svg>
