<svg width="24" height="24" viewBox="0 0 24 24" fill="none" xmlns="http://www.w3.org/2000/svg">
<path d="M17.6304 13C17.6304 12.5858 17.2946 12.25 16.8804 12.25C16.4662 12.25 16.1304 12.5858 16.1304 13V13.98H15.1104C14.6962 13.98 14.3604 14.3158 14.3604 14.73C14.3604 15.1442 14.6962 15.48 15.1104 15.48H16.1304V16.55C16.1304 16.9642 16.4662 17.3 16.8804 17.3C17.2946 17.3 17.6304 16.9642 17.6304 16.55V15.48H18.6604C19.0746 15.48 19.4104 15.1442 19.4104 14.73C19.4104 14.3158 19.0746 13.98 18.6604 13.98H17.6304V13Z" fill="#001F3E"/>
<path fill-rule="evenodd" clip-rule="evenodd" d="M14.9312 19.8931C14.8747 20.0671 14.8036 20.2351 14.7228 20.3911C14.5229 20.7771 14.2165 21.1806 13.8059 21.4275L12.4073 22.3302C12.405 22.3316 12.4027 22.3331 12.4004 22.3345C12.3986 22.3357 12.3968 22.3368 12.395 22.3379C10.6207 23.435 8.12054 22.2285 8.12054 19.98V14.63C8.12054 14.4044 8.05152 14.0985 7.91982 13.7714C7.79512 13.4617 7.63544 13.1856 7.49296 13.0015L3.68064 8.99057C3.35699 8.65907 3.08558 8.22652 2.89424 7.80181C2.7055 7.38287 2.56055 6.89583 2.56055 6.45001V4.11999C2.56055 2.5197 3.78281 1.25 5.33055 1.25H18.6705C20.1948 1.25 21.4405 2.49581 21.4405 4.02002V6.23999C21.4405 6.78753 21.2726 7.35145 21.0557 7.82816C20.8375 8.30752 20.5395 8.76523 20.2161 9.09506C20.2033 9.10814 20.19 9.12075 20.1762 9.13285L19.3679 9.84472C21.1545 10.7538 22.3804 12.6106 22.3804 14.75C22.3804 15.7805 22.0911 16.7538 21.5828 17.5871C20.6311 19.1856 18.8811 20.25 16.8804 20.25C16.1933 20.25 15.5363 20.1234 14.9312 19.8931ZM4.06055 4.11999C4.06055 3.30029 4.65828 2.75 5.33055 2.75H18.6705C19.3663 2.75 19.9405 3.32423 19.9405 4.02002V6.23999C19.9405 6.50245 19.8535 6.84853 19.6904 7.20684C19.5338 7.551 19.3349 7.84521 19.1622 8.02713L17.7039 9.31143C17.5001 9.28074 17.2926 9.26127 17.0821 9.25365C17.0151 9.25121 16.9479 9.25 16.8805 9.25C16.8687 9.25 16.8569 9.25004 16.845 9.25011C16.6675 9.25124 16.4919 9.26081 16.3188 9.27843C13.5477 9.56038 11.3804 11.9054 11.3804 14.75C11.3804 15.7777 11.6683 16.7626 12.1798 17.5902C12.1976 17.6197 12.2156 17.649 12.2338 17.6782C12.4054 17.953 12.6017 18.2125 12.8207 18.4524C13.0476 18.7022 13.2977 18.9312 13.5676 19.1361C13.5544 19.2901 13.4972 19.4959 13.3908 19.7014C13.2656 19.9431 13.1221 20.0895 13.0303 20.1435C13.0214 20.1488 13.0125 20.1542 13.0038 20.1598L11.6006 21.0655C10.7555 21.5824 9.62054 20.9693 9.62054 19.98V14.63C9.62054 14.1456 9.48457 13.6416 9.31127 13.2111C9.13627 12.7765 8.89928 12.3578 8.6462 12.0415C8.63288 12.0248 8.61885 12.0088 8.60416 11.9933L4.76416 7.95327C4.7615 7.95046 4.75881 7.94768 4.7561 7.94492C4.58166 7.76699 4.39965 7.49153 4.26185 7.18567C4.1206 6.87213 4.06055 6.60419 4.06055 6.45001V4.11999ZM14.838 18.1871C15.4344 18.5438 16.1331 18.75 16.8804 18.75C18.338 18.75 19.6068 17.9762 20.2956 16.8169L20.3004 16.8089C20.6707 16.2031 20.8804 15.4979 20.8804 14.75C20.8804 12.8732 19.5814 11.2943 17.8352 10.8651C17.8046 10.8616 17.7741 10.8562 17.7438 10.8489C17.5427 10.8001 17.329 10.7689 17.106 10.7563C17.0313 10.7521 16.9561 10.75 16.8804 10.75C16.7426 10.75 16.6064 10.757 16.4721 10.7707C14.4575 10.9759 12.8805 12.6821 12.8805 14.75C12.8805 15.4978 13.0903 16.2031 13.4605 16.8089L13.4646 16.8157C13.4782 16.8385 13.492 16.8611 13.506 16.8836C13.6225 17.0693 13.7541 17.245 13.8994 17.4088C14.1363 17.6744 14.4094 17.9048 14.7125 18.0905C14.7581 18.1185 14.8001 18.1509 14.838 18.1871Z" fill="#001F3E"/>
</svg>
