<svg width="24" height="24" viewBox="0 0 24 24" fill="none" xmlns="http://www.w3.org/2000/svg">
<path d="M11.8555 16.2559C12.2858 16.2559 12.7066 16.3785 13.0195 16.6914C13.3322 17.0043 13.4551 17.4253 13.4551 17.8555C13.455 18.2856 13.3323 18.7068 13.0195 19.0195C12.7067 19.3322 12.2857 19.4551 11.8555 19.4551C11.4253 19.4551 11.0043 19.3322 10.6914 19.0195C10.3786 18.7068 10.256 18.2856 10.2559 17.8555C10.2559 17.4253 10.3787 17.0043 10.6914 16.6914C11.0043 16.3785 11.4252 16.2559 11.8555 16.2559Z" fill="#001F3E"/>
<path d="M11.8555 10.2559C12.2858 10.2559 12.7066 10.3785 13.0195 10.6914C13.3322 11.0043 13.4551 11.4253 13.4551 11.8555C13.455 12.2856 13.3323 12.7068 13.0195 13.0195C12.7067 13.3322 12.2857 13.4551 11.8555 13.4551C11.4253 13.4551 11.0043 13.3322 10.6914 13.0195C10.3786 12.7068 10.256 12.2856 10.2559 11.8555C10.2559 11.4253 10.3787 11.0043 10.6914 10.6914C11.0043 10.3785 11.4252 10.2559 11.8555 10.2559Z" fill="#001F3E"/>
<path d="M11.8555 4.25488C12.2858 4.25488 12.7066 4.37851 13.0195 4.69141C13.3322 5.00428 13.4551 5.42528 13.4551 5.85547C13.455 6.28559 13.3323 6.70675 13.0195 7.01953C12.7067 7.33225 12.2857 7.45508 11.8555 7.45508C11.4253 7.45508 11.0043 7.33225 10.6914 7.01953C10.3786 6.70675 10.256 6.28559 10.2559 5.85547C10.2559 5.42528 10.3787 5.00428 10.6914 4.69141C11.0043 4.37851 11.4252 4.25488 11.8555 4.25488Z" fill="#001F3E"/>
</svg>
