<svg width="24" height="24" viewBox="0 0 24 24" fill="none" xmlns="http://www.w3.org/2000/svg">
<path d="M6.95947 6.22033C7.25236 5.92744 7.25236 5.45257 6.95947 5.15967C6.66658 4.86678 6.1917 4.86678 5.89881 5.15967L3.33881 7.71967C3.04592 8.01257 3.04592 8.48744 3.33881 8.78033L5.89881 11.3403C6.1917 11.6332 6.66658 11.6332 6.95947 11.3403C7.25236 11.0474 7.25236 10.5726 6.95947 10.2797L5.7398 9.06H15.1289C17.4747 9.06 19.3789 10.9642 19.3789 13.31C19.3789 15.6558 17.4747 17.56 15.1289 17.56H7.12891C6.71469 17.56 6.37891 17.8958 6.37891 18.31C6.37891 18.7242 6.71469 19.06 7.12891 19.06H15.1289C18.3031 19.06 20.8789 16.4842 20.8789 13.31C20.8789 10.1358 18.3031 7.56 15.1289 7.56H5.61981L6.95947 6.22033Z" fill="#001F3E"/>
</svg>
