<svg width="24" height="24" viewBox="0 0 24 24" fill="none" xmlns="http://www.w3.org/2000/svg">
<g clip-path="url(#clip0_1_7822)">
<path fill-rule="evenodd" clip-rule="evenodd" d="M7.2911 1.63525C8.76936 1.44929 10.3535 1.25 11.9772 1.25C13.601 1.25 15.1851 1.44929 16.6634 1.63525C16.8394 1.65739 17.014 1.67935 17.1869 1.70075C18.3641 1.8465 19.2957 2.78894 19.4167 3.97428C19.4359 4.16288 19.4556 4.35308 19.4755 4.54464V4.54467C19.6447 6.1771 19.8246 7.91339 19.8246 9.6937C19.8246 11.4081 19.6576 12.9043 19.4947 14.3645L19.4942 14.3682C19.4695 14.5897 19.4449 14.8104 19.421 15.0309C19.2929 16.2109 18.3652 17.1534 17.1869 17.2992C17.014 17.3207 16.8394 17.3426 16.6634 17.3648C15.1851 17.5507 13.601 17.75 11.9772 17.75C10.3535 17.75 8.76936 17.5507 7.29111 17.3648C7.11507 17.3426 6.94055 17.3207 6.76763 17.2992C5.58935 17.1534 4.66161 16.2109 4.53354 15.0309C4.50947 14.8092 4.4847 14.5872 4.45984 14.3645C4.29687 12.9042 4.12988 11.4081 4.12988 9.6937C4.12988 7.91335 4.30984 6.17697 4.47903 4.54451L4.47903 4.54451C4.49888 4.35297 4.51859 4.16286 4.53783 3.97428C4.65881 2.78894 5.59035 1.8465 6.76763 1.70075C6.94054 1.67935 7.11508 1.65739 7.2911 1.63525ZM6.77395 18.3773C7.1176 18.6086 7.20873 19.0746 6.97748 19.4183L6.4175 20.2505H17.6443L17.0971 19.4082C16.8714 19.0608 16.9701 18.5963 17.3174 18.3707C17.6648 18.145 18.1293 18.2437 18.3549 18.591L20.6287 22.091C20.8544 22.4384 20.7557 22.9029 20.4084 23.1285C20.061 23.3542 19.5965 23.2555 19.3709 22.9082L18.6188 21.7505H5.40814L4.62232 22.9183C4.39107 23.262 3.92502 23.3531 3.58137 23.1218C3.23771 22.8906 3.14659 22.4245 3.37784 22.0809L4.32424 20.6744C4.35534 20.6101 4.39536 20.5509 4.44268 20.4984L5.733 18.5809C5.96425 18.2372 6.4303 18.1461 6.77395 18.3773ZM18 8.59937C17.9737 7.28868 17.841 6.00789 17.7126 4.7678L17.7126 4.76777C17.6879 4.52914 17.6633 4.29194 17.6397 4.05641C17.5821 3.48247 17.1303 3.02429 16.5576 2.95481C16.3354 2.92784 16.1116 2.89972 15.8863 2.87141C14.6312 2.71366 13.3314 2.55029 12 2.55029C10.6686 2.55029 9.36887 2.71365 8.11371 2.8714C7.88846 2.89971 7.66465 2.92784 7.44235 2.95481C6.86974 3.02429 6.41785 3.48247 6.36031 4.0564C6.3367 4.2919 6.31215 4.52898 6.28744 4.76757L6.28743 4.76767V4.76767V4.76767V4.76768V4.76768C6.15898 6.00781 6.02633 7.28864 6 8.59937H18ZM9.03165 11.8945C9.02311 11.8942 9.01453 11.894 9.00592 11.894C8.27578 11.894 7.75195 12.5066 7.75195 13.1759C7.75195 13.8375 8.26368 14.4436 8.98055 14.4576C8.98909 14.4579 8.99767 14.458 9.00629 14.458C9.73642 14.458 10.2603 13.8455 10.2603 13.1761C10.2603 12.5145 9.74853 11.9085 9.03165 11.8945ZM14.9468 11.894C14.9555 11.894 14.964 11.8942 14.9726 11.8945C15.6894 11.9085 16.2012 12.5145 16.2012 13.1761C16.2012 13.8455 15.6773 14.458 14.9472 14.458C14.9386 14.458 14.93 14.4579 14.9215 14.4576C14.2046 14.4436 13.6929 13.8375 13.6929 13.1759C13.6929 12.5066 14.2167 11.894 14.9468 11.894Z" fill="#001F3E"/>
</g>
<defs>
<clipPath id="clip0_1_7822">
<rect width="24" height="24" fill="white"/>
</clipPath>
</defs>
</svg>
