<svg width="24" height="24" viewBox="0 0 24 24" fill="none" xmlns="http://www.w3.org/2000/svg">
<path d="M17 2.75C18.615 2.75 20.0758 3.15342 21.1357 4.1377C22.2057 5.13131 22.75 6.60712 22.75 8.5V15.5C22.75 17.3929 22.2057 18.8687 21.1357 19.8623C20.0758 20.8466 18.615 21.25 17 21.25H7C5.38503 21.25 3.92424 20.8466 2.86426 19.8623C1.79429 18.8687 1.25 17.3929 1.25 15.5V8.5C1.25 6.60712 1.79429 5.13131 2.86426 4.1377C3.92424 3.15342 5.38503 2.75 7 2.75H17ZM7 4.25C5.61505 4.25 4.57576 4.59664 3.88574 5.2373C3.20579 5.86869 2.75 6.89295 2.75 8.5V15.5C2.75 17.107 3.20579 18.1313 3.88574 18.7627C4.57576 19.4034 5.61505 19.75 7 19.75H17C18.385 19.75 19.4242 19.4034 20.1143 18.7627C20.7942 18.1313 21.25 17.107 21.25 15.5V8.5C21.25 6.89295 20.7942 5.86869 20.1143 5.2373C19.4242 4.59664 18.385 4.25 17 4.25H7ZM11.75 7C12.1794 7 12.5282 7.348 12.5283 7.77734V7.82422C13.6999 7.8847 14.6016 8.87264 14.6016 10.0488C14.6014 10.4782 14.2526 10.8262 13.8232 10.8262C13.394 10.826 13.0461 10.478 13.0459 10.0488C13.0459 9.65779 12.7486 9.38166 12.4277 9.375H10.8789C10.6825 9.375 10.4541 9.55835 10.4541 9.8623C10.4542 10.1232 10.509 10.1922 10.5146 10.1992C10.5268 10.2145 10.5723 10.2631 10.7637 10.3311L13.2588 11.2041C13.5585 11.3125 13.9239 11.4877 14.1992 11.8398C14.4821 12.2017 14.5908 12.6471 14.5908 13.1387C14.5907 14.224 13.7411 15.1807 12.6104 15.1807H12.5283V15.2227C12.5281 15.652 12.1794 16 11.75 16C11.3208 15.9998 10.9728 15.6519 10.9727 15.2227V15.1758C9.79065 15.1303 8.89865 14.1154 8.89844 12.9521C8.89844 12.5228 9.24644 12.174 9.67578 12.1738C10.1053 12.1738 10.4541 12.5227 10.4541 12.9521C10.4543 13.3581 10.764 13.6257 11.0547 13.626H12.6104C12.8067 13.626 13.035 13.4425 13.0352 13.1387C13.0352 12.8777 12.9801 12.807 12.9736 12.7988C12.9614 12.7832 12.9178 12.7351 12.7334 12.668L10.2461 11.7979C9.94161 11.69 9.57228 11.515 9.29395 11.1621C9.0078 10.7992 8.8985 10.3534 8.89844 9.8623C8.89844 8.77685 9.74808 7.81934 10.8789 7.81934H10.9727V7.77734C10.9728 7.3481 11.3208 7.00017 11.75 7Z" fill="#001F3E"/>
</svg>
