<svg width="24" height="24" viewBox="0 0 24 24" fill="none" xmlns="http://www.w3.org/2000/svg">
<path d="M19.4946 7.56383C19.806 7.29068 19.837 6.81682 19.5638 6.50543C19.2907 6.19404 18.8168 6.16304 18.5054 6.43619L13.3901 10.9233C12.636 11.5122 11.3544 11.5122 10.6002 10.9235L5.49513 6.43667C5.18401 6.16322 4.71012 6.19376 4.43667 6.50489C4.16322 6.81601 4.19376 7.2899 4.50489 7.56335L9.62488 12.0634C9.63402 12.0714 9.64335 12.0792 9.65287 12.0868C10.9563 13.1244 13.0337 13.1244 14.3371 12.0868C14.3465 12.0793 14.3556 12.0717 14.3646 12.0638L19.4946 7.56383Z" fill="#001F3E"/>
<path fill-rule="evenodd" clip-rule="evenodd" d="M7 2.75C5.38503 2.75 3.92465 3.15363 2.86466 4.1379C1.79462 5.13152 1.25 6.60705 1.25 8.5V15.5C1.25 17.393 1.79462 18.8685 2.86466 19.8621C3.92465 20.8464 5.38503 21.25 7 21.25H17C18.615 21.25 20.0754 20.8464 21.1353 19.8621C22.2054 18.8685 22.75 17.393 22.75 15.5V8.5C22.75 6.60705 22.2054 5.13152 21.1353 4.1379C20.0754 3.15363 18.615 2.75 17 2.75H7ZM2.75 8.5C2.75 6.89295 3.20538 5.86848 3.88534 5.2371C4.57535 4.59637 5.61497 4.25 7 4.25H17C18.385 4.25 19.4246 4.59637 20.1147 5.2371C20.7946 5.86848 21.25 6.89295 21.25 8.5V15.5C21.25 17.107 20.7946 18.1315 20.1147 18.7629C19.4246 19.4036 18.385 19.75 17 19.75H7C5.61497 19.75 4.57535 19.4036 3.88534 18.7629C3.20538 18.1315 2.75 17.107 2.75 15.5V8.5Z" fill="#001F3E"/>
</svg>
