<svg width="24" height="24" viewBox="0 0 24 24" fill="none" xmlns="http://www.w3.org/2000/svg">
<path d="M8.22 1.25C6.3285 1.25 4.84095 1.48504 3.89481 2.49637C2.96532 3.48991 2.75 5.03645 2.75 7.04001V18.3C2.75 19.0254 2.84842 19.6677 3.06131 20.1898C3.27521 20.7143 3.62811 21.1671 4.15457 21.3938C4.68652 21.6229 5.25617 21.5614 5.77589 21.337C6.28513 21.1171 6.78723 20.7271 7.26989 20.2108L7.27113 20.2095L7.28577 20.1944C7.78886 19.6606 8.49043 19.7052 8.91923 20.279L9.92947 21.6293C10.1776 21.9609 10.6476 22.0287 10.9793 21.7805C11.311 21.5324 11.3787 21.0624 11.1305 20.7307L10.1207 19.381C9.1318 18.0578 7.3393 17.9598 6.20198 19.1574L6.19887 19.1605C6.19289 19.1665 6.18701 19.1726 6.18124 19.1788C5.78163 19.6077 5.44052 19.848 5.18132 19.9599C4.92947 20.0686 4.80225 20.0396 4.74794 20.0162C4.68815 19.9904 4.56542 19.9057 4.45025 19.6233C4.33408 19.3385 4.25 18.9046 4.25 18.3V7.04001C4.25 5.01357 4.50468 4.0401 4.99019 3.52114C5.45906 3.01996 6.3315 2.75 8.22 2.75H15.78C17.6685 2.75 18.5409 3.01996 19.0098 3.52114C19.4953 4.0401 19.75 5.01357 19.75 7.04001V11.3C19.75 11.7142 20.0858 12.05 20.5 12.05C20.9142 12.05 21.25 11.7142 21.25 11.3V7.04001C21.25 5.03645 21.0347 3.48991 20.1052 2.49637C19.1591 1.48504 17.6715 1.25 15.78 1.25H8.22Z" fill="#001F3E"/>
<path d="M8 6.25C7.58579 6.25 7.25 6.58579 7.25 7C7.25 7.41421 7.58579 7.75 8 7.75H16C16.4142 7.75 16.75 7.41421 16.75 7C16.75 6.58579 16.4142 6.25 16 6.25H8Z" fill="#001F3E"/>
<path d="M8.25 11C8.25 10.5858 8.58579 10.25 9 10.25H15C15.4142 10.25 15.75 10.5858 15.75 11C15.75 11.4142 15.4142 11.75 15 11.75H9C8.58579 11.75 8.25 11.4142 8.25 11Z" fill="#001F3E"/>
<path fill-rule="evenodd" clip-rule="evenodd" d="M19.2066 13.2955C18.9347 13.1963 18.6264 13.1593 18.3535 13.1593C18.0815 13.1593 17.7723 13.196 17.5008 13.2975L15.553 14.0313L15.552 14.0317C15.1562 14.18 14.8386 14.4675 14.6232 14.7782C14.4077 15.089 14.25 15.487 14.25 15.9085V18.8083C14.25 19.1875 14.37 19.5702 14.5285 19.8854C14.6872 20.2008 14.9232 20.5251 15.2265 20.7519L16.9027 22.0031L16.9038 22.004C17.3317 22.3252 17.8616 22.4639 18.3564 22.4639C18.8512 22.4639 19.381 22.3252 19.8089 22.0041L19.8101 22.0031L21.4866 20.7516C21.79 20.5249 22.0256 20.2008 22.1843 19.8854C22.3428 19.5702 22.4628 19.1875 22.4628 18.8083V15.9085C22.4628 15.4862 22.3059 15.0875 22.0901 14.7754C21.8744 14.4636 21.556 14.1757 21.1598 14.0274L19.2128 13.2977L19.2066 13.2955ZM16.0784 15.4363L18.0256 14.7027C18.0783 14.6831 18.1968 14.6593 18.3535 14.6593C18.508 14.6593 18.6299 14.6823 18.6905 14.7039L20.6344 15.4324C20.6868 15.452 20.7766 15.5134 20.8565 15.6288C20.9362 15.7441 20.9628 15.8508 20.9628 15.9085V18.8083C20.9628 18.8896 20.9306 19.0397 20.8442 19.2113C20.7581 19.3826 20.656 19.4997 20.5886 19.5501L18.9108 20.8026L18.9087 20.8042C18.7865 20.8961 18.589 20.9639 18.3564 20.9639C18.1238 20.9639 17.9263 20.8961 17.8041 20.8042L16.1242 19.5501C16.0568 19.4997 15.9548 19.3828 15.8686 19.2113C15.7822 19.0397 15.75 18.8896 15.75 18.8083V15.9085C15.75 15.8539 15.7758 15.7484 15.8559 15.6329C15.9359 15.5175 16.0258 15.4559 16.0784 15.4363Z" fill="#001F3E"/>
</svg>
