<svg width="24" height="24" viewBox="0 0 24 24" fill="none" xmlns="http://www.w3.org/2000/svg">
<path fill-rule="evenodd" clip-rule="evenodd" d="M20.205 9.1425L21.555 10.7225C22.145 11.4225 22.145 12.5525 21.535 13.2325L20.185 14.8125C19.935 15.1125 19.725 15.6725 19.725 16.0725V17.7725C19.725 18.8325 18.855 19.7025 17.795 19.7025H16.095C15.695 19.7025 15.135 19.9125 14.835 20.1625L13.255 21.5125C12.565 22.1025 11.435 22.1025 10.745 21.5125L9.165 20.1625C8.865 19.9125 8.295 19.7025 7.905 19.7025H6.165C5.105 19.7025 4.235 18.8325 4.235 17.7725V16.0625C4.235 15.6725 4.035 15.1025 3.785 14.8125L2.435 13.2225C1.855 12.5425 1.855 11.4225 2.435 10.7225L3.785 9.1325C4.035 8.8325 4.235 8.2725 4.235 7.8825V6.1825C4.235 5.1225 5.105 4.2525 6.165 4.2525H7.895C8.295 4.2525 8.855 4.0425 9.155 3.7925L10.755 2.4425C11.445 1.8525 12.575 1.8525 13.265 2.4425L14.845 3.7925C15.145 4.0425 15.715 4.2525 16.115 4.2525H17.815C18.875 4.2525 19.745 5.1225 19.745 6.1825V7.8825C19.745 8.2825 19.955 8.8425 20.205 9.1425ZM15.5303 8.46967C15.8232 8.76256 15.8232 9.23744 15.5303 9.53033L9.53033 15.5303C9.23744 15.8232 8.76256 15.8232 8.46967 15.5303C8.17678 15.2374 8.17678 14.7626 8.46967 14.4697L14.4697 8.46967C14.7626 8.17678 15.2374 8.17678 15.5303 8.46967ZM13.4945 14.5C13.4945 13.9477 13.9422 13.5 14.4945 13.5H14.5035C15.0558 13.5 15.5035 13.9477 15.5035 14.5C15.5035 15.0523 15.0558 15.5 14.5035 15.5H14.4945C13.9422 15.5 13.4945 15.0523 13.4945 14.5ZM9.49451 8.5C8.94222 8.5 8.49451 8.94772 8.49451 9.5C8.49451 10.0523 8.94222 10.5 9.49451 10.5H9.50349C10.0558 10.5 10.5035 10.0523 10.5035 9.5C10.5035 8.94772 10.0558 8.5 9.50349 8.5H9.49451Z" fill="#001F3E"/>
</svg>
