<svg width="24" height="24" viewBox="0 0 24 24" fill="none" xmlns="http://www.w3.org/2000/svg">
<path d="M19.786 9.86899L14.116 4.19891C13.8582 3.94118 13.4716 3.94118 13.2139 4.19891L11.1521 6.26076C10.8299 6.58292 10.9588 6.96952 11.1521 7.16282L11.6031 7.61385L9.6701 9.54683C8.70361 9.35353 6.06187 8.9025 4.64435 10.32C4.38662 10.5778 4.38662 10.9643 4.64435 11.2221L8.31701 14.8947L4.25775 18.954C4.00002 19.2117 4.00002 19.5983 4.25775 19.8561C4.51548 20.1138 4.96651 20.0494 5.15981 19.8561L9.21907 15.7968L12.8917 19.4695C13.2783 19.7916 13.6649 19.6628 13.7938 19.4695C15.2113 18.0519 14.7603 15.4102 14.567 14.4437L16.5 12.5107L16.951 12.9618C17.2087 13.2195 17.5953 13.2195 17.8531 12.9618L19.9149 10.8999C20.0438 10.5133 20.0438 10.1267 19.786 9.86899ZM17.2732 11.4798L16.8221 11.0288C16.5644 10.7711 16.1778 10.7711 15.9201 11.0288L13.2783 13.735C13.085 13.9283 13.0206 14.1216 13.085 14.3793C13.2783 15.088 13.6005 16.8277 13.085 17.9875L5.99743 10.8999C7.09279 10.3845 8.89691 10.7066 9.60567 10.8999C9.79897 10.9643 10.0567 10.8999 10.25 10.7066L12.8917 8.06488C13.2783 7.67828 13.085 7.35612 12.8917 7.16282L12.4407 6.71179L13.6649 5.552L18.4329 10.32L17.2732 11.4798Z" fill="#001F3E"/>
</svg>
