<svg width="24" height="24" viewBox="0 0 24 24" fill="none" xmlns="http://www.w3.org/2000/svg">
<path fill-rule="evenodd" clip-rule="evenodd" d="M7.56 3.84998C4.90771 3.84998 2.75 6.01068 2.75 8.68998C2.75 11.9405 4.25068 14.5449 6.13923 16.4799C8.03683 18.4241 10.2799 19.6419 11.6223 20.1002L11.6296 20.1027C11.6944 20.1256 11.8286 20.15 12 20.15C12.1714 20.15 12.3056 20.1256 12.3704 20.1027L12.3777 20.1002C13.72 19.6419 15.9632 18.4241 17.8608 16.4799C19.7493 14.5449 21.25 11.9405 21.25 8.68998C21.25 6.01068 19.0923 3.84998 16.44 3.84998C14.8778 3.84998 13.477 4.60909 12.6021 5.78714C12.4606 5.97766 12.2373 6.08998 12 6.08998C11.7627 6.08998 11.5394 5.97766 11.3979 5.78714C10.5225 4.60847 9.13147 3.84998 7.56 3.84998ZM1.25 8.68998C1.25 5.18927 4.07229 2.34998 7.56 2.34998C9.29674 2.34998 10.8646 3.05596 12.0003 4.19469C13.1385 3.05561 14.7122 2.34998 16.44 2.34998C19.9277 2.34998 22.75 5.18927 22.75 8.68998C22.75 12.4395 21.0107 15.4001 18.9342 17.5276C16.8683 19.6443 14.4235 20.9861 12.8657 21.5186C12.5914 21.6147 12.2773 21.65 12 21.65C11.7227 21.65 11.4086 21.6147 11.1343 21.5186C9.57655 20.9861 7.13169 19.6443 5.06577 17.5276C2.98932 15.4001 1.25 12.4395 1.25 8.68998Z" fill="#001F3E"/>
</svg>
