<svg width="24" height="24" viewBox="0 0 24 24" fill="none" xmlns="http://www.w3.org/2000/svg">
<path d="M12.7505 2C12.7505 1.58579 12.4147 1.25 12.0005 1.25C11.5863 1.25 11.2505 1.58579 11.2505 2V7.18934L10.5308 6.46967C10.2379 6.17678 9.76305 6.17678 9.47016 6.46967C9.17727 6.76256 9.17727 7.23744 9.47016 7.53033L11.4663 9.52651C11.4797 9.54008 11.4936 9.55316 11.508 9.56573C11.6231 9.66606 11.7614 9.72542 11.9041 9.74381C11.9531 9.75016 12.0023 9.75161 12.0511 9.7483C12.2259 9.73655 12.3973 9.66389 12.5308 9.53033L14.5308 7.53033C14.8237 7.23744 14.8237 6.76256 14.5308 6.46967C14.2379 6.17678 13.7631 6.17678 13.4702 6.46967L12.7505 7.18934V2Z" fill="#001F3E"/>
<path fill-rule="evenodd" clip-rule="evenodd" d="M2.75049 12.25V11C2.75049 8.93099 3.10792 7.53036 3.78112 6.59768C4.43449 5.69247 5.47068 5.11275 7.10949 4.87202C7.5193 4.81182 7.80272 4.4308 7.74253 4.02098C7.68233 3.61117 7.3013 3.32775 6.89149 3.38794C4.9903 3.66722 3.52649 4.38749 2.56485 5.71979C1.62306 7.0246 1.25049 8.79898 1.25049 11V12.8271C1.2374 12.8826 1.23047 12.9405 1.23047 13C1.23047 13.0595 1.2374 13.1174 1.25049 13.1729V15C1.25049 17.574 1.76069 19.5708 3.09516 20.9053C4.42963 22.2398 6.42652 22.75 9.00049 22.75H15.0005C17.5745 22.75 19.5714 22.2398 20.9058 20.9053C22.2403 19.5708 22.7505 17.574 22.7505 15V11C22.7505 8.79898 22.3779 7.0246 21.4361 5.71979C20.4745 4.38749 19.0107 3.66722 17.1095 3.38794C16.6997 3.32775 16.3187 3.61117 16.2585 4.02098C16.1983 4.4308 16.4817 4.81182 16.8915 4.87202C18.5303 5.11275 19.5665 5.69247 20.2199 6.59768C20.8931 7.53036 21.2505 8.93099 21.2505 11V12.25H17.6205C16.9708 12.25 16.3586 12.6166 16.0596 13.2146L14.8896 15.5546C14.6756 15.9827 14.2439 16.25 13.7705 16.25H10.2405C9.76704 16.25 9.33536 15.9827 9.12129 15.5546L7.95129 13.2146C7.65419 12.6204 7.05442 12.25 6.39047 12.25H2.75049ZM2.75049 13.75V15C2.75049 17.426 3.24029 18.9291 4.15582 19.8447C5.07135 20.7602 6.57446 21.25 9.00049 21.25H15.0005C17.4265 21.25 18.9296 20.7602 19.8452 19.8447C20.7607 18.9291 21.2505 17.426 21.2505 15V13.75H17.6205C17.5302 13.75 17.4423 13.8034 17.4013 13.8854L16.2313 16.2254C15.7654 17.1573 14.817 17.75 13.7705 17.75H10.2405C9.1939 17.75 8.24558 17.1573 7.77965 16.2254L6.60965 13.8854C6.56675 13.7996 6.48652 13.75 6.39047 13.75H2.75049Z" fill="#001F3E"/>
</svg>
