<svg width="24" height="24" viewBox="0 0 24 24" fill="none" xmlns="http://www.w3.org/2000/svg">
<path d="M6.19685 9.27272C6.59852 9.17153 7.00616 9.41512 7.10734 9.81679C7.46763 11.247 7.46763 12.7529 7.10734 14.1832C7.00616 14.5849 6.59852 14.8285 6.19685 14.7273C5.79519 14.6261 5.5516 14.2185 5.65278 13.8168C5.95249 12.627 5.95249 11.3729 5.65278 10.1832C5.5516 9.78154 5.79519 9.3739 6.19685 9.27272Z" fill="#001F3E"/>
<path d="M10.6073 9.81679C10.5062 9.41512 10.0985 9.17153 9.69685 9.27272C9.29519 9.3739 9.0516 9.78154 9.15278 10.1832C9.45249 11.3729 9.45249 12.627 9.15278 13.8168C9.0516 14.2185 9.29519 14.6261 9.69685 14.7273C10.0985 14.8285 10.5062 14.5849 10.6073 14.1832C10.9676 12.7529 10.9676 11.247 10.6073 9.81679Z" fill="#001F3E"/>
<path d="M13.1969 9.27272C13.5985 9.17153 14.0062 9.41512 14.1073 9.81679C14.4676 11.247 14.4676 12.7529 14.1073 14.1832C14.0062 14.5849 13.5985 14.8285 13.1969 14.7273C12.7952 14.6261 12.5516 14.2185 12.6528 13.8168C12.9525 12.627 12.9525 11.3729 12.6528 10.1832C12.5516 9.78154 12.7952 9.3739 13.1969 9.27272Z" fill="#001F3E"/>
<path fill-rule="evenodd" clip-rule="evenodd" d="M7 4.25C5.00536 4.25 3.45818 4.48116 2.46967 5.46967C1.48116 6.45818 1.25 8.00536 1.25 10V14C1.25 15.9946 1.48116 17.5418 2.46967 18.5303C3.45818 19.5188 5.00536 19.75 7 19.75H13C14.9946 19.75 16.5418 19.5188 17.5303 18.5303C18.5188 17.5418 18.75 15.9946 18.75 14V10C18.75 8.00536 18.5188 6.45818 17.5303 5.46967C16.5418 4.48116 14.9946 4.25 13 4.25H7ZM2.75 10C2.75 7.99464 3.01884 7.04182 3.53033 6.53033C4.04182 6.01884 4.99464 5.75 7 5.75H13C15.0054 5.75 15.9582 6.01884 16.4697 6.53033C16.9812 7.04182 17.25 7.99464 17.25 10V14C17.25 16.0054 16.9812 16.9582 16.4697 17.4697C15.9582 17.9812 15.0054 18.25 13 18.25H7C4.99464 18.25 4.04182 17.9812 3.53033 17.4697C3.01884 16.9582 2.75 16.0054 2.75 14V10Z" fill="#001F3E"/>
<path fill-rule="evenodd" clip-rule="evenodd" d="M19.75 9.5C19.75 9.08579 20.0858 8.75 20.5 8.75C21.2564 8.75 21.9868 8.8574 22.4125 9.425C22.6168 9.69744 22.6895 10.0003 22.7208 10.2507C22.7501 10.4853 22.75 10.7446 22.75 10.9739V13.0261C22.75 13.2554 22.7501 13.5147 22.7208 13.7493C22.6895 13.9997 22.6168 14.3026 22.4125 14.575C21.9868 15.1426 21.2564 15.25 20.5 15.25C20.0858 15.25 19.75 14.9142 19.75 14.5C19.75 14.0858 20.0858 13.75 20.5 13.75C20.8433 13.75 21.0426 13.7202 21.1541 13.6872C21.182 13.6789 21.2008 13.6716 21.2129 13.6661C21.2181 13.6483 21.2257 13.6161 21.2324 13.5632C21.2488 13.4318 21.25 13.2644 21.25 13V11C21.25 10.7356 21.2488 10.5682 21.2324 10.4368C21.2257 10.3839 21.2181 10.3517 21.2129 10.3339C21.2008 10.3284 21.182 10.3211 21.1541 10.3128C21.0426 10.2798 20.8433 10.25 20.5 10.25C20.0858 10.25 19.75 9.91421 19.75 9.5ZM21.2279 10.3417L21.2306 10.3436C21.2307 10.3436 21.2303 10.3431 21.2279 10.3417ZM21.2311 13.6561C21.2312 13.6561 21.2303 13.6569 21.2279 13.6583L21.2297 13.6569L21.2311 13.6561Z" fill="#001F3E"/>
</svg>
