<svg width="24" height="24" viewBox="0 0 24 24" fill="none" xmlns="http://www.w3.org/2000/svg">
<path fill-rule="evenodd" clip-rule="evenodd" d="M3.09467 3.09467C4.42914 1.7602 6.42603 1.25 9 1.25H13C13.4142 1.25 13.75 1.58579 13.75 2C13.75 2.41421 13.4142 2.75 13 2.75H9C6.57397 2.75 5.07086 3.2398 4.15533 4.15533C3.2398 5.07086 2.75 6.57397 2.75 9V15C2.75 16.1133 2.85315 17.0323 3.05326 17.7893L7.18194 15.0173C8.24502 14.3041 9.75679 14.3761 10.7288 15.2111L10.7351 15.2166L11.0615 15.5035C11.5608 15.9296 12.4033 15.9288 12.9013 15.5011L17.0613 11.9311C18.1224 11.0199 19.7977 11.0197 20.8587 11.9311L21.25 12.2672V10C21.25 9.58579 21.5858 9.25 22 9.25C22.4142 9.25 22.75 9.58579 22.75 10V13.8959C22.75 13.8989 22.75 13.9018 22.75 13.9048V15C22.75 17.574 22.2398 19.5709 20.9053 20.9053C19.5709 22.2398 17.574 22.75 15 22.75H9C6.42603 22.75 4.42914 22.2398 3.09467 20.9053C1.7602 19.5709 1.25 17.574 1.25 15V9C1.25 6.42603 1.7602 4.42914 3.09467 3.09467ZM21.25 14.2445L19.8813 13.0689C19.3824 12.6404 18.5376 12.6404 18.0387 13.0689L13.8787 16.6389C12.8176 17.5501 11.1423 17.5503 10.0813 16.6389L10.0749 16.6334L9.74844 16.3465C9.30001 15.9637 8.53368 15.9168 8.01784 16.2628L3.64344 19.1998C3.79556 19.4417 3.96638 19.6557 4.15533 19.8447C5.07086 20.7602 6.57397 21.25 9 21.25H15C17.426 21.25 18.9291 20.7602 19.8447 19.8447C20.7602 18.9291 21.25 17.426 21.25 15V14.2445Z" fill="#001F3E"/>
<path fill-rule="evenodd" clip-rule="evenodd" d="M6.25 8C6.25 6.48122 7.48122 5.25 9 5.25C10.5188 5.25 11.75 6.48122 11.75 8C11.75 9.51878 10.5188 10.75 9 10.75C7.48122 10.75 6.25 9.51878 6.25 8ZM9 6.75C8.30964 6.75 7.75 7.30964 7.75 8C7.75 8.69036 8.30964 9.25 9 9.25C9.69036 9.25 10.25 8.69036 10.25 8C10.25 7.30964 9.69036 6.75 9 6.75Z" fill="#001F3E"/>
<path d="M20.9704 3.59033C21.2633 3.29744 21.2633 2.82256 20.9704 2.52967C20.6775 2.23678 20.2026 2.23678 19.9097 2.52967L18.5001 3.93934L17.0904 2.52967C16.7975 2.23678 16.3226 2.23678 16.0297 2.52967C15.7368 2.82256 15.7368 3.29744 16.0297 3.59033L17.4394 5L16.0297 6.40967C15.7368 6.70256 15.7368 7.17744 16.0297 7.47033C16.3226 7.76322 16.7975 7.76322 17.0904 7.47033L18.5001 6.06066L19.9097 7.47033C20.2026 7.76322 20.6775 7.76322 20.9704 7.47033C21.2633 7.17744 21.2633 6.70256 20.9704 6.40967L19.5607 5L20.9704 3.59033Z" fill="#001F3E"/>
</svg>
