<svg width="24" height="24" viewBox="0 0 24 24" fill="none" xmlns="http://www.w3.org/2000/svg">
<path d="M17.9775 13.9795C18.3854 13.2941 19.2827 13.0313 19.998 13.4521L20.751 13.8828C21.5119 14.3179 21.7686 15.2918 21.334 16.0439V16.0449C21.3074 16.0909 21.2904 16.1286 21.2803 16.1572C21.31 16.1627 21.3506 16.167 21.4033 16.167C22.2705 16.167 22.9854 16.8723 22.9854 17.749V18.5195C22.9854 19.3867 22.28 20.1025 21.4033 20.1025C21.3506 20.1025 21.31 20.1068 21.2803 20.1123C21.2905 20.141 21.3073 20.1785 21.334 20.2246L21.3359 20.2285C21.7669 20.9827 21.5127 21.9501 20.751 22.3857L19.998 22.8174C19.2827 23.2383 18.3853 22.9745 17.9775 22.2891C17.9761 22.2866 17.9741 22.2838 17.9727 22.2812L17.9248 22.1982L17.9229 22.1953C17.8969 22.1501 17.8729 22.1175 17.8535 22.0947C17.8334 22.118 17.8084 22.1514 17.7812 22.1982L17.7334 22.2812C17.732 22.2837 17.7309 22.2867 17.7295 22.2891C17.3218 22.9744 16.4243 23.2379 15.709 22.8174L14.9561 22.3867C14.1952 21.9516 13.9376 20.9778 14.3721 20.2256V20.2246C14.3987 20.1786 14.4156 20.141 14.4258 20.1123C14.396 20.1068 14.3555 20.1025 14.3027 20.1025C13.4261 20.1024 12.7207 19.3867 12.7207 18.5195V17.749C12.7207 16.8819 13.4261 16.1671 14.3027 16.167C14.3554 16.167 14.396 16.1627 14.4258 16.1572C14.4156 16.1286 14.3987 16.0909 14.3721 16.0449V16.0439C13.9375 15.2918 14.1943 14.318 14.9551 13.8828L15.709 13.4521C16.4243 13.0314 17.3217 13.2941 17.7295 13.9795C17.731 13.982 17.7319 13.9848 17.7334 13.9873L17.7812 14.0703L17.7832 14.0732C17.8092 14.1186 17.8332 14.151 17.8525 14.1738C17.8727 14.1505 17.8976 14.1172 17.9248 14.0703L17.9727 13.9873C17.9741 13.9847 17.976 13.982 17.9775 13.9795ZM15.7803 1.25C17.6716 1.25002 19.1594 1.48482 20.1055 2.49609C21.035 3.48963 21.25 5.03648 21.25 7.04004V11.2998C21.25 11.714 20.9142 12.0498 20.5 12.0498C20.0858 12.0498 19.75 11.714 19.75 11.2998V7.04004C19.75 5.01381 19.4952 4.04049 19.0098 3.52148C18.5409 3.02034 17.6686 2.75003 15.7803 2.75H8.21973C6.33142 2.75003 5.45908 3.02034 4.99023 3.52148C4.50482 4.04049 4.25 5.01381 4.25 7.04004V18.2998C4.25 18.9042 4.33408 19.3382 4.4502 19.623C4.56536 19.9054 4.68826 19.9909 4.74805 20.0166C4.80249 20.04 4.93018 20.0685 5.18164 19.96C5.44081 19.848 5.78215 19.6075 6.18164 19.1787C6.18734 19.1726 6.19331 19.1661 6.19922 19.1602L6.31055 19.0488C7.4505 17.9672 9.16204 18.0994 10.1201 19.3809H10.1211L11.1309 20.7305C11.3789 21.062 11.3109 21.5321 10.9795 21.7803C10.6478 22.0284 10.1778 21.9606 9.92969 21.6289L8.91895 20.2793C8.4902 19.7056 7.78921 19.6608 7.28613 20.1943C7.2838 20.1968 7.28068 20.1997 7.27832 20.2021C7.27593 20.2046 7.27391 20.2075 7.27148 20.21L7.26953 20.2109C6.78708 20.727 6.28536 21.1171 5.77637 21.3369C5.25665 21.5613 4.68624 21.6227 4.1543 21.3936C3.62801 21.1668 3.27538 20.7138 3.06152 20.1895C2.84868 19.6675 2.75 19.0251 2.75 18.2998V7.04004C2.75 5.03648 2.96504 3.48963 3.89453 2.49609C4.84062 1.48482 6.32836 1.25002 8.21973 1.25H15.7803ZM19.2227 14.8223C18.9435 15.3039 18.4732 15.7119 17.8516 15.7119C17.2294 15.7119 16.7596 15.303 16.4824 14.8203L16.4463 14.7578L15.7002 15.1846C15.6833 15.1942 15.6702 15.2106 15.6641 15.2334C15.6579 15.2566 15.6617 15.2769 15.6709 15.293C15.9499 15.7748 16.0693 16.3858 15.7588 16.9248C15.4481 17.464 14.8589 17.667 14.3027 17.667C14.2822 17.667 14.2629 17.6746 14.2461 17.6914C14.2288 17.7088 14.2207 17.7292 14.2207 17.749V18.5195C14.2207 18.5394 14.2288 18.5597 14.2461 18.5771C14.263 18.5941 14.2821 18.6025 14.3027 18.6025C14.8589 18.6025 15.448 18.8047 15.7588 19.3438C16.0693 19.8826 15.9498 20.4938 15.6709 20.9756C15.6616 20.9917 15.6578 21.0129 15.6641 21.0361C15.6702 21.0588 15.6834 21.0744 15.7002 21.084L16.4463 21.5107L16.4834 21.4463C16.7625 20.9647 17.2331 20.5568 17.8545 20.5566C18.4766 20.5566 18.9464 20.9655 19.2236 21.4482L19.2246 21.4492L19.2598 21.5107L20.0059 21.084C20.0407 21.0641 20.058 21.0163 20.0342 20.9736C19.7561 20.4921 19.6372 19.8819 19.9473 19.3438C20.258 18.8046 20.8472 18.6026 21.4033 18.6025C21.424 18.6025 21.444 18.5942 21.4609 18.5771C21.4781 18.5598 21.4854 18.5393 21.4854 18.5195V17.749C21.4854 17.7283 21.478 17.7084 21.4609 17.6914C21.4436 17.6742 21.4231 17.667 21.4033 17.667C20.8471 17.667 20.258 17.4639 19.9473 16.9248C19.6368 16.3858 19.7571 15.7748 20.0361 15.293C20.0453 15.2769 20.0482 15.2565 20.042 15.2334C20.0359 15.2106 20.0228 15.1942 20.0059 15.1846L19.2598 14.7578L19.2227 14.8223ZM17.8965 17.0605C18.5119 17.0607 19.0107 17.5594 19.0107 18.1748C19.0107 18.7903 18.5119 19.2889 17.8965 19.2891H17.8867C17.2712 19.2891 16.7715 18.7903 16.7715 18.1748C16.7715 17.5593 17.2712 17.0605 17.8867 17.0605H17.8965ZM15 10.25C15.4142 10.25 15.75 10.5858 15.75 11C15.75 11.4142 15.4142 11.75 15 11.75H9C8.58579 11.75 8.25 11.4142 8.25 11C8.25 10.5858 8.58579 10.25 9 10.25H15ZM16 6.25C16.4142 6.25 16.75 6.58579 16.75 7C16.75 7.41421 16.4142 7.75 16 7.75H8C7.58579 7.75 7.25 7.41421 7.25 7C7.25 6.58579 7.58579 6.25 8 6.25H16Z" fill="#001F3E"/>
</svg>
