<svg width="24" height="24" viewBox="0 0 24 24" fill="none" xmlns="http://www.w3.org/2000/svg">
<path d="M7.91357 9.26125C8.32779 9.26125 8.66357 9.59704 8.66357 10.0113V11.5236C8.66357 11.9379 8.32779 12.2736 7.91357 12.2736C7.49936 12.2736 7.16357 11.9379 7.16357 11.5236V10.0113C7.16357 9.59704 7.49936 9.26125 7.91357 9.26125Z" fill="#001F3E"/>
<path d="M13.3076 6.38454C12.8934 6.38454 12.5576 6.72033 12.5576 7.13454C12.5576 7.54876 12.8934 7.88454 13.3076 7.88454H15.9047C16.3189 7.88454 16.6547 7.54876 16.6547 7.13454C16.6547 6.72033 16.3189 6.38454 15.9047 6.38454H13.3076Z" fill="#001F3E"/>
<path fill-rule="evenodd" clip-rule="evenodd" d="M7.2458 1.35144C7.65153 1.22248 8.10589 1.21829 8.59706 1.32855C10.2393 1.69721 11.2022 2.21189 11.8369 2.88478C12.7363 2.82321 14.0315 2.74741 15.4851 3.05581C17.0092 3.37915 18.6912 4.11756 20.3455 5.67382C20.4664 5.53984 20.5946 5.38927 20.7218 5.22688C21.0597 4.79535 21.3567 4.32289 21.5101 3.88839C21.6479 3.49779 22.0763 3.2929 22.4669 3.43076C22.8575 3.56862 23.0624 3.99702 22.9246 4.38762C22.6943 5.0399 22.2881 5.65955 21.9028 6.15165C21.7268 6.37638 21.5482 6.58335 21.3808 6.76448C22.9588 8.62623 23.2587 10.7235 23.047 12.5098C22.8653 14.0431 22.3061 15.3757 21.8275 16.2131C22.1673 17.0045 22.4412 18.0149 22.4085 19.0158C22.3691 20.2225 21.8711 21.4708 20.4829 22.1854C19.1665 22.8629 17.9423 22.7351 16.992 22.1673C16.3347 21.7745 15.832 21.1869 15.5109 20.5662C14.8765 20.7165 14.1335 20.7834 13.4715 20.797C12.9821 20.807 12.4998 20.7886 12.0843 20.7422C11.9707 20.7295 11.8543 20.714 11.7389 20.6946C11.4635 21.2422 11.0864 21.7606 10.5528 22.1431C9.7898 22.69 8.8115 22.8853 7.61191 22.6546C6.5362 22.4477 5.73703 21.7636 5.2691 20.963C4.91653 20.3598 4.72808 19.649 4.77044 18.9663L1.64137 17.2627C1.40014 17.1314 1.25 16.8787 1.25 16.604V11.7295C1.25 10.9969 1.56845 10.3552 2.14688 9.9177C2.55358 9.61007 3.05995 9.4234 3.62513 9.34483C3.73428 8.91262 3.93308 8.41599 4.21324 7.9152C4.62528 7.17865 5.24625 6.37182 6.12619 5.66257C6.00639 5.02955 5.8966 4.31361 5.83045 3.88228L5.81361 3.77259C5.81004 3.74938 5.80756 3.72602 5.80618 3.70259C5.77945 3.24816 5.87395 2.55999 6.29932 2.01265C6.52265 1.72529 6.83502 1.48201 7.2458 1.35144ZM7.30228 3.58423L7.31202 3.64773C7.39679 4.20005 7.54304 5.15291 7.68732 5.81662C7.75116 6.11026 7.63356 6.41366 7.3885 6.58757C6.49868 7.21906 5.89766 7.97659 5.52232 8.64752C5.1314 9.34632 5.02424 9.8777 5.02731 10.037C5.03118 10.2383 4.95389 10.4328 4.81285 10.5766C4.6718 10.7204 4.47886 10.8014 4.27744 10.8014C3.66647 10.8014 3.27308 10.9466 3.05178 11.114C2.85108 11.2658 2.75 11.4632 2.75 11.7295V16.1584L5.95459 17.9031C6.26398 18.0716 6.41444 18.4326 6.31623 18.7709C6.20404 19.1574 6.27119 19.7049 6.56411 20.2061C6.84933 20.6941 7.30875 21.0688 7.89518 21.1816C8.77326 21.3504 9.31325 21.1861 9.67895 20.9239C10.0708 20.6431 10.3715 20.1721 10.6065 19.5393C10.6806 19.3396 10.8362 19.1809 11.0343 19.1028C11.2324 19.0246 11.4545 19.0344 11.645 19.1296C11.6934 19.1538 11.8838 19.2105 12.2507 19.2515C12.589 19.2892 13.0042 19.3063 13.4408 19.2973C14.3474 19.2787 15.2028 19.1511 15.6376 18.9562C15.8361 18.8672 16.0635 18.8688 16.2608 18.9606C16.458 19.0524 16.6057 19.2254 16.6655 19.4346C16.8191 19.9723 17.2165 20.5541 17.7614 20.8797C18.2656 21.1809 18.9393 21.2928 19.7964 20.8517C20.5817 20.4474 20.8828 19.7779 20.9093 18.9669C20.937 18.1204 20.6515 17.1871 20.3079 16.4999C20.1883 16.2608 20.2051 15.9761 20.3519 15.7526C20.7593 15.1328 21.3787 13.8421 21.5574 12.3333C21.7339 10.8443 21.48 9.18243 20.2099 7.70312C20.0739 7.54478 19.938 7.39393 19.8022 7.25021C18.1923 5.54657 16.5808 4.82165 15.1738 4.52315C13.8863 4.24999 12.7531 4.32662 11.8473 4.38787C11.7475 4.39463 11.6504 4.40119 11.5561 4.40708C11.304 4.42284 11.0609 4.31063 10.9093 4.10854C10.5758 3.66386 9.96816 3.17368 8.2685 2.79212C7.97655 2.72658 7.79962 2.74936 7.70017 2.78097C7.60576 2.81098 7.53907 2.86187 7.4837 2.9331C7.35756 3.09542 7.29595 3.36448 7.30228 3.58423Z" fill="#001F3E"/>
</svg>
