<svg width="24" height="24" viewBox="0 0 24 24" fill="none" xmlns="http://www.w3.org/2000/svg">
<path d="M21.0003 12C21.5526 12 22.0056 11.551 21.9511 11.0014C21.4826 6.27588 17.7244 2.51777 12.9989 2.04926C12.4493 1.99477 12.0003 2.44714 12.0003 2.99942V10.9999C12.0003 11.5522 12.448 12 13.0003 12H21.0003Z" fill="#001F3E"/>
<path d="M9.40985 4.74491C9.81571 4.66216 10.0776 4.26605 9.99488 3.86019C9.91212 3.45433 9.51602 3.1924 9.11016 3.27516C4.1192 4.29284 0.503512 9.09925 1.37954 14.5393L1.37984 14.5411C2.05174 18.6484 5.35056 21.9485 9.45979 22.6103C14.9225 23.4974 19.7288 19.8586 20.7353 14.8477C20.8169 14.4416 20.5538 14.0463 20.1477 13.9647C19.7416 13.8832 19.3463 14.1462 19.2647 14.5523C18.4112 18.8015 14.3375 21.8827 9.70021 21.1297L9.69918 21.1296C6.22917 20.5711 3.42867 17.7718 2.8603 14.2998C2.11692 9.68024 5.1811 5.60717 9.40985 4.74491Z" fill="#001F3E"/>
</svg>
