<svg width="24" height="24" viewBox="0 0 24 24" fill="none" xmlns="http://www.w3.org/2000/svg">
<path d="M12.5847 1.53092C12.3256 1.20773 11.8536 1.15576 11.5304 1.41484C11.2072 1.67392 11.1553 2.14594 11.4144 2.46913L12.219 3.47284C12.146 3.47096 12.0729 3.47 11.9994 3.47C6.67518 3.47 2.35938 7.7858 2.35938 13.11C2.35938 18.4342 6.67518 22.75 11.9994 22.75C17.3236 22.75 21.6394 18.4342 21.6394 13.11C21.6394 10.9335 20.8878 8.94796 19.6894 7.35002C19.4409 7.01865 18.9708 6.95149 18.6394 7.20002C18.308 7.44855 18.2409 7.91865 18.4894 8.25002C19.5109 9.61208 20.1394 11.2865 20.1394 13.11C20.1394 17.6058 16.4952 21.25 11.9994 21.25C7.5036 21.25 3.85938 17.6058 3.85938 13.11C3.85938 8.61423 7.5036 4.97 11.9994 4.97C12.5745 4.97 13.1397 5.04138 13.6971 5.16491C13.9406 5.26366 14.229 5.23126 14.4487 5.05518C14.6351 4.90576 14.7312 4.6855 14.7296 4.46382C14.7308 4.25595 14.645 4.05976 14.4995 3.91955L12.5847 1.53092Z" fill="#001F3E"/>
<path d="M9.80791 9.8797C10.098 9.99086 10.2896 10.2694 10.2896 10.58V15.92C10.2896 16.3342 9.95377 16.67 9.53956 16.67C9.12534 16.67 8.78956 16.3342 8.78956 15.92V12.5374L8.59752 12.7512C8.32073 13.0594 7.84654 13.0848 7.53838 12.808C7.23023 12.5312 7.2048 12.057 7.48159 11.7489L8.98159 10.0789C9.18919 9.84775 9.5178 9.76854 9.80791 9.8797Z" fill="#001F3E"/>
<path fill-rule="evenodd" clip-rule="evenodd" d="M13.9995 9.83005C12.4877 9.83005 11.2495 11.0534 11.2495 12.58V13.93C11.2495 15.4442 12.4853 16.68 13.9995 16.68C15.5137 16.68 16.7495 15.4442 16.7495 13.93V12.58C16.7495 11.0658 15.5137 9.83005 13.9995 9.83005ZM12.7495 12.58C12.7495 11.8867 13.3113 11.33 13.9995 11.33C14.6853 11.33 15.2495 11.8943 15.2495 12.58V13.93C15.2495 14.6158 14.6853 15.18 13.9995 15.18C13.3137 15.18 12.7495 14.6158 12.7495 13.93V12.58Z" fill="#001F3E"/>
</svg>
