<svg width="24" height="24" viewBox="0 0 24 24" fill="none" xmlns="http://www.w3.org/2000/svg">
<path d="M4.75 8.49002C4.75 8.07581 5.08579 7.74002 5.5 7.74002H7.75C8.16421 7.74002 8.5 8.07581 8.5 8.49002C8.5 8.90423 8.16421 9.24002 7.75 9.24002H5.5C5.08579 9.24002 4.75 8.90423 4.75 8.49002Z" fill="#001F3E"/>
<path d="M5.5 10.74C5.08579 10.74 4.75 11.0758 4.75 11.49C4.75 11.9042 5.08579 12.24 5.5 12.24H8.5C8.91421 12.24 9.25 11.9042 9.25 11.49C9.25 11.0758 8.91421 10.74 8.5 10.74H5.5Z" fill="#001F3E"/>
<path fill-rule="evenodd" clip-rule="evenodd" d="M4.22166 1.92255C2.59168 1.78621 1.25 3.03446 1.25 4.66001V16.74C1.25 18.0707 2.30319 19.2935 3.64189 19.4636L3.92752 19.503L3.93065 19.5034C6.00894 19.7811 9.27067 20.8521 11.1101 21.858C11.1182 21.8625 11.1264 21.8667 11.1346 21.8708L11.1626 21.8849C11.4301 22.0288 11.7305 22.0825 11.9938 22.0825C12.2587 22.0825 12.5663 22.0281 12.8374 21.8739C14.6756 20.8603 17.9391 19.7824 20.0246 19.504L20.3503 19.4646L20.353 19.4642C21.6941 19.2966 22.75 18.0724 22.75 16.74V4.67001C22.75 3.03821 21.4092 1.81327 19.8008 1.93001H19.77C19.7486 1.93001 19.7273 1.93092 19.7059 1.93275C17.4869 2.12296 14.1818 3.23144 12.3005 4.41516L12.1345 4.5226C12.1313 4.52409 12.1208 4.5287 12.1015 4.5335C12.0743 4.54029 12.0391 4.54501 12 4.54501C11.9609 4.54501 11.9257 4.54029 11.8985 4.5335C11.8782 4.52843 11.8676 4.52358 11.865 4.52238L11.6113 4.37013C9.73026 3.19902 6.44026 2.10243 4.22166 1.92255ZM2.75 4.66001C2.75 3.90593 3.34769 3.35439 4.0972 3.41737L4.09948 3.41756C6.07868 3.57778 9.14349 4.59911 10.8231 5.6465L11.0801 5.80073C11.1353 5.83463 11.1921 5.86446 11.25 5.89055V20.2431C9.21388 19.2496 6.18684 18.2919 4.13096 18.0168L4.12935 18.0166L3.84249 17.977L3.83303 17.9758C3.25414 17.9034 2.75 17.3276 2.75 16.74V4.66001ZM12.75 20.231C14.7882 19.2384 17.786 18.2886 19.8311 18.0166L19.8397 18.0154L20.167 17.9758L20.1681 17.9757C20.7465 17.9027 21.25 17.3272 21.25 16.74V4.67001C21.25 3.91317 20.6495 3.36378 19.8928 3.42737C19.8719 3.42913 19.851 3.43001 19.83 3.43001H19.8028C17.8225 3.60773 14.7741 4.63245 13.1033 5.68233L12.9256 5.79735C12.8686 5.83271 12.8099 5.8637 12.75 5.89068V20.231Z" fill="#001F3E"/>
</svg>
