<svg width="24" height="24" viewBox="0 0 24 24" fill="none" xmlns="http://www.w3.org/2000/svg">
<path d="M16.5964 9.85275C17.0503 9.85275 17.4184 9.48474 17.4184 9.03077C17.4184 8.57681 17.0503 8.2088 16.5964 8.2088C16.1424 8.2088 15.7744 8.57681 15.7744 9.03077C15.7744 9.48474 16.1424 9.85275 16.5964 9.85275Z" fill="#001F3E"/>
<path d="M18.0862 11.3426C17.6323 11.3426 17.2643 10.9746 17.2643 10.5206C17.2643 10.0667 17.6323 9.69867 18.0862 9.69867C18.5402 9.69867 18.9082 10.0667 18.9082 10.5206C18.9082 10.9746 18.5402 11.3426 18.0862 11.3426Z" fill="#001F3E"/>
<path d="M16.5964 12.8325C17.0503 12.8325 17.4184 12.4645 17.4184 12.0105C17.4184 11.5565 17.0503 11.1885 16.5964 11.1885C16.1424 11.1885 15.7744 11.5565 15.7744 12.0105C15.7744 12.4645 16.1424 12.8325 16.5964 12.8325Z" fill="#001F3E"/>
<path d="M15.1067 11.3426C14.6528 11.3426 14.2848 10.9746 14.2848 10.5206C14.2848 10.0667 14.6528 9.69867 15.1067 9.69867C15.5607 9.69867 15.9287 10.0667 15.9287 10.5206C15.9287 10.9746 15.5607 11.3426 15.1067 11.3426Z" fill="#001F3E"/>
<path d="M6.5412 9.03077C6.5412 8.57681 6.90921 8.2088 7.36317 8.2088C7.81713 8.2088 8.18514 8.57681 8.18514 9.03077V9.75H8.90437C9.35833 9.75 9.72634 10.118 9.72634 10.572C9.72634 11.0259 9.35833 11.3939 8.90437 11.3939H8.18514V12.1132C8.18514 12.5671 7.81713 12.9351 7.36317 12.9351C6.90921 12.9351 6.5412 12.5671 6.5412 12.1132V11.3939H5.82197C5.36802 11.3939 5 11.0259 5 10.572C5 10.118 5.36802 9.75 5.82197 9.75H6.5412V9.03077Z" fill="#001F3E"/>
<path fill-rule="evenodd" clip-rule="evenodd" d="M18.295 4.70256C17.6971 4.51344 16.6837 4.40268 15.5608 4.33618C14.4089 4.26796 13.0544 4.24249 11.7207 4.25188C10.3867 4.26127 9.06373 4.3056 7.97386 4.37842C6.92074 4.44879 5.99101 4.55049 5.51016 4.70256C5.06136 4.8445 4.67586 5.1424 4.35318 5.48441C4.02583 5.83135 3.7251 6.26411 3.45215 6.7421C2.90617 7.69822 2.42986 8.90891 2.06248 10.1723C1.69418 11.4388 1.4272 12.7864 1.31247 14.0266C1.19925 15.2504 1.22756 16.4369 1.50024 17.3464C1.82279 18.4223 2.51276 19.0296 3.25186 19.3542C3.94543 19.6588 4.67469 19.7103 5.10702 19.7408L5.11816 19.7416C6.27005 19.8229 7.49892 19.3224 8.51103 18.1078C9.22144 17.2553 9.78133 16.5387 9.97704 16.2808C9.99269 16.2602 10.0073 16.2387 10.0207 16.2166C10.0181 16.2209 10.0195 16.2195 10.0255 16.2138C10.0643 16.1767 10.2945 15.9566 10.8244 15.9566H12.9808C13.5107 15.9566 13.7409 16.1767 13.7797 16.2138C13.7857 16.2195 13.7871 16.2209 13.7845 16.2166C13.7979 16.2387 13.8125 16.2602 13.8282 16.2808C14.0239 16.5387 14.5838 17.2553 15.2942 18.1078C16.3063 19.3224 17.5352 19.8229 18.687 19.7416L18.6982 19.7408C19.1305 19.7103 19.8598 19.6588 20.5533 19.3542C21.2924 19.0296 21.9824 18.4223 22.305 17.3464C22.5782 16.4351 22.585 15.2394 22.45 14.0131C22.3129 12.7678 22.0203 11.413 21.6362 10.1428C21.2528 8.87514 20.7703 7.66491 20.2419 6.7167C19.978 6.24323 19.6921 5.81574 19.3875 5.47547C19.0918 5.1451 18.7275 4.83934 18.295 4.70256ZM5.44421 6.5138C5.66978 6.27473 5.84666 6.16937 5.96246 6.13274C6.24039 6.04485 6.98307 5.94796 8.07386 5.87508C9.12793 5.80465 10.4204 5.76107 11.7313 5.75184C13.0425 5.74261 14.3624 5.76783 15.4721 5.83355C16.6108 5.90099 17.4465 6.00743 17.8427 6.13274C17.9074 6.15318 18.0547 6.23551 18.2699 6.47592C18.4762 6.70643 18.7006 7.0324 18.9316 7.44689C19.3929 8.2746 19.8379 9.37825 20.2004 10.5769C20.5621 11.773 20.8335 13.0369 20.959 14.1772C21.0867 15.3365 21.0547 16.2933 20.8682 16.9157C20.6882 17.5159 20.3417 17.8088 19.9501 17.9808C19.519 18.1702 19.03 18.2136 18.5814 18.2453C17.9745 18.2881 17.1933 18.0437 16.4465 17.1476C15.7715 16.3375 15.2382 15.6562 15.041 15.3975C14.7521 14.9599 14.0454 14.4566 12.9808 14.4566H10.8244C9.75979 14.4566 9.05315 14.9599 8.76425 15.3975C8.56697 15.6562 8.03371 16.3375 7.35867 17.1476C6.61195 18.0437 5.83072 18.2881 5.22378 18.2453C4.77523 18.2136 4.28621 18.1702 3.85509 17.9808C3.46351 17.8088 3.11703 17.5159 2.93706 16.9157C2.74583 16.2778 2.6996 15.3158 2.80609 14.1648C2.91105 13.0302 3.15803 11.7768 3.50282 10.5911C3.84853 9.40226 4.28445 8.30949 4.75473 7.48592C4.98991 7.07408 5.22331 6.74793 5.44421 6.5138Z" fill="#001F3E"/>
</svg>
