<svg width="24" height="24" viewBox="0 0 24 24" fill="none" xmlns="http://www.w3.org/2000/svg">
<path fill-rule="evenodd" clip-rule="evenodd" d="M11.5 7.24998C10.2574 7.24998 9.25 8.25734 9.25 9.49998C9.25 10.7426 10.2574 11.75 11.5 11.75C12.7426 11.75 13.75 10.7426 13.75 9.49998C13.75 8.25734 12.7426 7.24998 11.5 7.24998ZM10.75 9.49998C10.75 9.08577 11.0858 8.74998 11.5 8.74998C11.9142 8.74998 12.25 9.08577 12.25 9.49998C12.25 9.9142 11.9142 10.25 11.5 10.25C11.0858 10.25 10.75 9.9142 10.75 9.49998Z" fill="#001F3E"/>
<path fill-rule="evenodd" clip-rule="evenodd" d="M2.38967 3.96966C3.2698 3.08953 4.589 2.82999 6.21 2.82999H12.53C14.151 2.82999 15.4702 3.08953 16.3503 3.96966C17.1591 4.77842 17.4438 5.95794 17.4847 7.40169L19.0907 6.27515C19.8816 5.7227 20.8133 5.47274 21.6174 5.89269C22.4214 6.31254 22.7502 7.22053 22.7502 8.18999V15.81C22.7502 16.7788 22.4217 17.6883 21.616 18.1068C20.8101 18.5254 19.8784 18.2705 19.0887 17.7134L19.0877 17.7127L17.4849 16.5885C17.4447 18.0379 17.1578 19.2206 16.3461 20.0308C15.4651 20.9102 14.1467 21.17 12.53 21.17H6.21C4.4504 21.17 3.16929 20.5766 2.34391 19.5865C1.53859 18.6204 1.25 17.3758 1.25 16.21V7.78999C1.25 6.16898 1.50954 4.84978 2.38967 3.96966ZM3.45033 5.03032C3.01546 5.46519 2.75 6.25099 2.75 7.78999V16.21C2.75 17.1542 2.98641 18.0146 3.49609 18.626C3.98571 19.2134 4.8096 19.67 6.21 19.67H12.53C14.0633 19.67 14.8499 19.4048 15.2864 18.9692C15.7226 18.5338 15.99 17.7475 15.99 16.21V7.78999C15.99 6.25099 15.7245 5.46519 15.2897 5.03032C14.8548 4.59544 14.069 4.32999 12.53 4.32999H6.21C4.671 4.32999 3.8852 4.59544 3.45033 5.03032ZM19.9497 7.50484L17.4902 9.23003V14.76L19.9509 16.486L19.9527 16.4873C20.5229 16.8897 20.8307 16.8244 20.9245 16.7757C21.0188 16.7267 21.2502 16.5112 21.2502 15.81V8.18999C21.2502 7.48946 21.0191 7.27244 20.9231 7.2223C20.8272 7.17226 20.5185 7.10772 19.9497 7.50484Z" fill="#001F3E"/>
</svg>
