<svg width="24" height="24" viewBox="0 0 24 24" fill="none" xmlns="http://www.w3.org/2000/svg">
<path fill-rule="evenodd" clip-rule="evenodd" d="M12 1.25C12.4142 1.25 12.75 1.58579 12.75 2V3.7837C14.4635 3.93833 16.0301 4.61734 17.2814 5.65797L21.4697 1.46967C21.7626 1.17678 22.2374 1.17678 22.5303 1.46967C22.8232 1.76256 22.8232 2.23744 22.5303 2.53033L2.53033 22.5303C2.23744 22.8232 1.76256 22.8232 1.46967 22.5303C1.17678 22.2374 1.17678 21.7626 1.46967 21.4697L5.65756 17.2818C4.6159 16.0293 3.93797 14.4634 3.78363 12.75H2C1.58579 12.75 1.25 12.4142 1.25 12C1.25 11.5858 1.58579 11.25 2 11.25H3.78368C4.14066 7.2939 7.2939 4.14066 11.25 3.78368V2C11.25 1.58579 11.5858 1.25 12 1.25ZM6.72367 16.2157L8.87264 14.0667C8.4814 13.4762 8.25 12.7655 8.25 12C8.25 9.92579 9.92579 8.25 12 8.25C12.7655 8.25 13.4762 8.4814 14.0667 8.87264L16.2153 6.72407C15.0589 5.80137 13.5919 5.25 12 5.25C8.27421 5.25 5.25 8.27421 5.25 12C5.25 13.5924 5.8001 15.0583 6.72367 16.2157ZM12.9692 9.97017C12.6758 9.82927 12.3472 9.75 12 9.75C10.7542 9.75 9.75 10.7542 9.75 12C9.75 12.3472 9.82927 12.6758 9.97017 12.9692L12.9692 9.97017Z" fill="#001F3E"/>
<path d="M19.568 8.7009C19.4028 8.32104 18.961 8.14699 18.5811 8.31214C18.2013 8.4773 18.0272 8.91913 18.1924 9.29899C18.5519 10.126 18.7502 11.0343 18.7502 11.9999C18.7502 15.7257 15.726 18.7499 12.0002 18.7499C11.0345 18.7499 10.1262 18.5517 9.29924 18.1921C8.91937 18.027 8.47755 18.201 8.31239 18.5809C8.14723 18.9608 8.32128 19.4026 8.70115 19.5677C9.49584 19.9133 10.3512 20.1365 11.25 20.2167V22C11.25 22.4142 11.5858 22.75 12 22.75C12.4142 22.75 12.75 22.4142 12.75 22V20.2163C16.7062 19.8594 19.8595 16.7061 20.2165 12.75H22C22.4142 12.75 22.75 12.4142 22.75 12C22.75 11.5858 22.4142 11.25 22 11.25H20.217C20.1368 10.3512 19.9135 9.49567 19.568 8.7009Z" fill="#001F3E"/>
</svg>
