<svg width="24" height="24" viewBox="0 0 24 24" fill="none" xmlns="http://www.w3.org/2000/svg">
<path fill-rule="evenodd" clip-rule="evenodd" d="M5.12608 4.24994C5.15322 3.8567 5.31798 3.47109 5.61946 3.16961L7.03946 1.74961C7.70235 1.08672 8.78722 1.08672 9.45012 1.74961L11.9504 4.24994H12.0395L14.5398 1.74961C15.2027 1.08672 16.2876 1.08672 16.9504 1.74961L18.3704 3.16961C18.6719 3.47109 18.8367 3.8567 18.8638 4.24994H19.5C20.3942 4.24994 21.1239 4.52985 21.6164 5.09439C22.0927 5.64033 22.25 6.34233 22.25 6.99994V7.99994C22.25 8.65755 22.0927 9.35955 21.6164 9.90549C21.3728 10.1848 21.0711 10.3944 20.7202 10.5349V17.9999C20.7202 19.5415 20.473 20.8078 19.6255 21.6553C18.7781 22.5027 17.5118 22.7499 15.9702 22.7499H7.97021C6.42867 22.7499 5.16231 22.5027 4.31488 21.6553C3.46746 20.8078 3.22021 19.5415 3.22021 17.9999V10.521C2.88056 10.3804 2.58967 10.1739 2.35528 9.89875C1.88406 9.3455 1.75 8.63923 1.75 7.99994V6.99994C1.75 6.36065 1.88406 5.65438 2.35528 5.10113C2.8461 4.52487 3.58462 4.24994 4.5 4.24994H5.12608ZM8.10012 2.81027C8.17722 2.73316 8.31235 2.73316 8.38946 2.81027L9.82913 4.24994H6.66273C6.668 4.24316 6.6738 4.23659 6.68012 4.23027L8.10012 2.81027ZM17.3272 4.24994H14.1608L15.6004 2.81027C15.6776 2.73316 15.8127 2.73316 15.8898 2.81027L17.3098 4.23027C17.3161 4.23659 17.3219 4.24316 17.3272 4.24994ZM11.6417 5.74994H12.3482L12.3501 5.74994H17.8701L17.872 5.74994H19.5C20.0758 5.74994 20.3461 5.92003 20.4861 6.08049C20.6423 6.25955 20.75 6.55755 20.75 6.99994V7.99994C20.75 8.44233 20.6423 8.74033 20.4861 8.91939C20.3461 9.07985 20.0758 9.24994 19.5 9.24994H4.5C3.88538 9.24994 3.6239 9.07487 3.49722 8.92613C3.35094 8.75438 3.25 8.46065 3.25 7.99994V6.99994C3.25 6.53923 3.35094 6.2455 3.49722 6.07375C3.6239 5.92501 3.88538 5.74994 4.5 5.74994H6.11789L6.11979 5.74994H11.6398L11.6417 5.74994ZM8.18994 10.7499H4.72021V17.9999C4.72021 19.4584 4.97297 20.192 5.37554 20.5946C5.77812 20.9972 6.51176 21.2499 7.97021 21.2499H15.9702C17.4287 21.2499 18.1623 20.9972 18.5649 20.5946C18.9675 20.192 19.2202 19.4584 19.2202 17.9999V10.7499H15.7199V15.1299C15.7199 16.5329 14.159 17.3541 13.0039 16.584L13.0007 16.5818L12.1129 15.9833C12.039 15.9346 11.9342 15.928 11.8393 15.9884L10.8951 16.6112C9.73588 17.3551 8.18994 16.5449 8.18994 15.1399V10.7499ZM14.2199 10.7499H9.68994V15.1399C9.68994 15.334 9.90186 15.4635 10.0821 15.3505L11.0225 14.7302C11.6066 14.3523 12.3604 14.3455 12.946 14.7359L12.9492 14.7381L13.8371 15.3366C14.0018 15.4453 14.2199 15.3265 14.2199 15.1299V10.7499Z" fill="#001F3E"/>
</svg>
