<svg width="24" height="24" viewBox="0 0 24 24" fill="none" xmlns="http://www.w3.org/2000/svg">
<path d="M12.7295 7.94043C13.0195 7.65043 13.5 7.65043 13.79 7.94043C14.0797 8.23044 14.0799 8.71009 13.79 9L10.79 12L13.79 15C14.0799 15.2899 14.0798 15.7696 13.79 16.0596C13.65 16.2096 13.4598 16.2803 13.2598 16.2803C13.0698 16.2802 12.8795 16.2095 12.7295 16.0596L9.2002 12.5303C8.9102 12.2403 8.9102 11.7597 9.2002 11.4697L12.7295 7.94043Z" fill="#292D32"/>
<path fill-rule="evenodd" clip-rule="evenodd" d="M12 1.25C17.93 1.25 22.75 6.07 22.75 12C22.75 17.93 17.93 22.75 12 22.75C6.07 22.75 1.25 17.93 1.25 12C1.25 6.07 6.07 1.25 12 1.25ZM12 2.75C6.9 2.75 2.75 6.9 2.75 12C2.75 17.1 6.9 21.25 12 21.25C17.1 21.25 21.25 17.1 21.25 12C21.25 6.9 17.1 2.75 12 2.75Z" fill="#292D32"/>
</svg>
