<svg width="24" height="24" viewBox="0 0 24 24" fill="none" xmlns="http://www.w3.org/2000/svg">
<path d="M16.5 14.25C16.09 14.25 15.75 13.91 15.75 13.5V13.2999L12.8199 16.2299C12.6599 16.3899 12.4499 16.4699 12.2199 16.4499C11.9999 16.4299 11.7999 16.3099 11.6699 16.1199L10.5799 14.4799L8.02994 17.0299C7.87994 17.1799 7.68994 17.2499 7.49994 17.2499C7.30994 17.2499 7.11994 17.1799 6.96994 17.0299C6.67994 16.7399 6.67994 16.2599 6.96994 15.9699L10.1699 12.7699C10.3299 12.6099 10.5399 12.5299 10.7699 12.5499C10.9899 12.5699 11.1899 12.6899 11.3199 12.8799L12.4099 14.5199L14.6799 12.25H14.5C14.09 12.25 13.75 11.91 13.75 11.5C13.75 11.09 14.09 10.75 14.5 10.75H16.5C16.91 10.75 17.25 11.09 17.25 11.5V13.5C17.25 13.91 16.91 14.25 16.5 14.25Z" fill="#001F3E"/>
<path fill-rule="evenodd" clip-rule="evenodd" d="M6.21 22.7402H17.79C20.53 22.7402 22.75 20.5102 22.75 17.7802V10.5002C22.75 9.05021 21.82 7.27021 20.63 6.44021L14.45 2.11021C12.77 0.930208 10.18 0.990208 8.56 2.25021L3.17 6.45021C2.09 7.29021 1.25 9.00021 1.25 10.3602V17.7702C1.25 20.5102 3.47 22.7402 6.21 22.7402ZM4.09 7.63021L9.48 3.43021C10.57 2.58021 12.45 2.54021 13.59 3.34021L19.77 7.67021C20.56 8.21021 21.25 9.54021 21.25 10.5002V17.7802C21.25 19.6902 19.7 21.2402 17.79 21.2402H6.21C4.3 21.2402 2.75 19.6802 2.75 17.7702V10.3602C2.75 9.46021 3.38 8.19021 4.09 7.63021Z" fill="#001F3E"/>
</svg>
