<svg width="24" height="24" viewBox="0 0 24 24" fill="none" xmlns="http://www.w3.org/2000/svg">
<path d="M2.49242 12.6744C2.17999 12.4024 1.70625 12.4352 1.43429 12.7476C1.16233 13.0601 1.19513 13.5338 1.50756 13.8058L4.81614 16.6858C4.83555 16.7034 4.85606 16.7201 4.87766 16.7359C4.8891 16.7442 4.9007 16.7522 4.91244 16.7598C4.93768 16.7762 4.96365 16.7909 4.99019 16.8039C5.28788 16.9498 5.65769 16.8844 5.88569 16.6225C5.90346 16.6021 5.91993 16.581 5.9351 16.5593L8.38563 13.2023C8.62985 12.8677 8.55661 12.3985 8.22205 12.1543C7.88749 11.9101 7.4183 11.9833 7.17408 12.3179L5.70279 14.3334C5.51601 13.6174 5.39988 12.8423 5.39988 12.0001C5.39988 7.62429 8.94409 4.08008 13.3199 4.08008C17.6957 4.08008 21.2399 7.62429 21.2399 12.0001C21.2399 16.3759 17.6957 19.9201 13.3199 19.9201C11.6935 19.9201 10.1774 19.427 8.9159 18.586C8.57126 18.3563 8.10561 18.4494 7.87584 18.7941C7.64608 19.1387 7.73921 19.6044 8.08385 19.8341C9.58235 20.8331 11.3863 21.4201 13.3199 21.4201C18.5241 21.4201 22.7399 17.2043 22.7399 12.0001C22.7399 6.79587 18.5241 2.58008 13.3199 2.58008C8.11566 2.58008 3.89988 6.79587 3.89988 12.0001C3.89988 12.738 3.97645 13.4302 4.10565 14.0787L2.49242 12.6744Z" fill="#001F3E"/>
<path d="M13.75 8.00008C13.75 7.58587 13.4142 7.25008 13 7.25008C12.5858 7.25008 12.25 7.58587 12.25 8.00008V11.7419C12.25 12.1585 12.3639 12.5848 12.5299 12.946C12.6924 13.2999 12.9408 13.6687 13.275 13.915L13.2762 13.9159L15.5536 15.6028C15.8864 15.8493 16.3561 15.7793 16.6027 15.4465C16.8492 15.1136 16.7792 14.6439 16.4464 14.3974L14.167 12.709L14.1649 12.7075C14.1027 12.6617 13.9911 12.5336 13.8929 12.3198C13.7978 12.1129 13.75 11.9003 13.75 11.7419V8.00008Z" fill="#001F3E"/>
</svg>
