<svg width="24" height="24" viewBox="0 0 24 24" fill="none" xmlns="http://www.w3.org/2000/svg">
<path fill-rule="evenodd" clip-rule="evenodd" d="M13.0459 7.73338C13.3051 7.47416 13.7318 7.47442 13.9912 7.73338L17.7852 11.5273C18.0444 11.7867 18.0445 12.2133 17.7852 12.4726L13.9912 16.2666C13.858 16.3996 13.6874 16.4629 13.5186 16.4629C13.3498 16.4628 13.179 16.3996 13.0459 16.2666C12.7868 16.0073 12.7869 15.5806 13.0459 15.3213L15.6982 12.6689H6.68848C6.32177 12.6689 6.01954 12.3667 6.01953 12C6.01953 11.6333 6.32177 11.331 6.68848 11.331H15.6982L13.0459 8.6787C12.787 8.41934 12.7868 7.99262 13.0459 7.73338ZM13.2617 16.1855C13.2651 16.1878 13.269 16.1892 13.2725 16.1914C13.2667 16.1878 13.2606 16.1846 13.2549 16.1806C13.2572 16.1822 13.2594 16.184 13.2617 16.1855ZM13.3418 7.77245C13.3136 7.78376 13.2866 7.79846 13.2607 7.81541L13.3418 7.77245C13.3701 7.76107 13.3991 7.75275 13.4287 7.74706L13.3418 7.77245Z" fill="#001F3E"/>
</svg>
