<svg width="24" height="24" viewBox="0 0 24 24" fill="none" xmlns="http://www.w3.org/2000/svg">
<path fill-rule="evenodd" clip-rule="evenodd" d="M8.00049 6.25006C7.03399 6.25006 6.25049 7.03356 6.25049 8.00006C6.25049 8.96656 7.03399 9.75006 8.00049 9.75006C8.96699 9.75006 9.75049 8.96656 9.75049 8.00006C9.75049 7.03356 8.96699 6.25006 8.00049 6.25006ZM7.75049 8.00006C7.75049 7.86199 7.86242 7.75006 8.00049 7.75006C8.13856 7.75006 8.25049 7.86199 8.25049 8.00006C8.25049 8.13813 8.13856 8.25006 8.00049 8.25006C7.86242 8.25006 7.75049 8.13813 7.75049 8.00006Z" fill="#001F3E"/>
<path fill-rule="evenodd" clip-rule="evenodd" d="M20.3721 8.16113L15.8307 3.63972C14.7329 2.54226 13.2171 1.95026 11.6629 2.03098L11.6613 2.03107L6.66667 2.2708L6.66548 2.27086C4.27885 2.37885 2.38066 4.27766 2.26133 6.65241L2.02124 11.6541L2.02112 11.6567C1.95179 13.2168 2.54107 14.7314 3.64005 15.8304L8.17005 20.3604C10.3237 22.5141 13.8175 22.512 15.9793 20.3618L15.9807 20.3604L20.3707 15.9704C22.5244 13.8167 22.5223 10.3229 20.3721 8.16113ZM11.7395 3.52903C12.8644 3.47026 13.9683 3.89861 14.7701 4.70038L14.7712 4.70155L19.3086 9.21895L19.3098 9.22017C20.8784 10.7985 20.876 13.3438 19.3101 14.9097L14.9208 19.299C13.3425 20.8681 10.7968 20.8658 9.23071 19.2997L4.70071 14.7697C3.89999 13.969 3.4693 12.8641 3.51959 11.7246L3.51964 11.7233L3.75948 6.72691C3.8405 5.12241 5.12155 3.84185 6.7341 3.76929L6.73634 3.76918L11.7363 3.52918L11.7395 3.52903Z" fill="#001F3E"/>
</svg>
