<svg width="24" height="24" viewBox="0 0 24 24" fill="none" xmlns="http://www.w3.org/2000/svg">
<path d="M4.48531 5.5C4.48531 4.94772 4.93302 4.5 5.48531 4.5H5.49686C6.04915 4.5 6.49686 4.94772 6.49686 5.5C6.49686 6.05228 6.04915 6.5 5.49686 6.5H5.48531C4.93302 6.5 4.48531 6.05228 4.48531 5.5Z" fill="#001F3E"/>
<path fill-rule="evenodd" clip-rule="evenodd" d="M9.6 4.43195C9.11083 2.29196 7.24685 1.255 5.47282 1.255C3.69868 1.255 1.83308 2.29181 1.3384 4.43083C0.771906 6.87813 2.33913 8.86169 3.47852 9.96002L3.48567 9.96674C4.59003 11.0038 6.33221 11.0229 7.44598 9.96342L7.44716 9.9623C8.59838 8.86247 10.1661 6.87957 9.6 4.43195ZM5.47282 2.755C4.35392 2.755 3.30883 3.33017 2.90071 4.43104C2.86081 4.53867 2.82699 4.65133 2.7998 4.76896C2.42688 6.37965 3.43661 7.83494 4.51574 8.87633C5.05135 9.37609 5.88646 9.37613 6.41165 8.87708C7.5 7.83711 8.51152 6.38071 8.1384 4.76918L8.13789 4.76695C8.11126 4.6503 8.0781 4.53855 8.03893 4.43174C7.63511 3.33061 6.59239 2.755 5.47282 2.755Z" fill="#001F3E"/>
<path d="M18.4853 16.5C17.933 16.5 17.4853 16.9477 17.4853 17.5C17.4853 18.0523 17.933 18.5 18.4853 18.5H18.4969C19.0491 18.5 19.4969 18.0523 19.4969 17.5C19.4969 16.9477 19.0491 16.5 18.4969 16.5H18.4853Z" fill="#001F3E"/>
<path fill-rule="evenodd" clip-rule="evenodd" d="M22.6397 16.4308C22.1444 14.2892 20.2688 13.255 18.4891 13.255C16.7093 13.255 14.8337 14.2892 14.3384 16.4308C13.7715 18.8796 15.3401 20.863 16.5034 21.9646L16.5057 21.9667C17.6096 23.0034 19.3609 23.0228 20.4747 21.9646C21.6381 20.863 23.2067 18.8797 22.6397 16.4308ZM18.4891 14.755C17.3596 14.755 16.3097 15.3321 15.901 16.4308C15.8609 16.5385 15.827 16.6513 15.7998 16.769C15.4269 18.3795 16.4373 19.8359 17.5335 20.8742C18.0692 21.3762 18.9162 21.3768 19.4421 20.8766L19.4434 20.8754C20.54 19.837 21.5514 18.3803 21.1784 16.7692C21.1512 16.6514 21.1172 16.5386 21.0771 16.4308C20.6684 15.3322 19.6184 14.755 18.4891 14.755Z" fill="#001F3E"/>
<path d="M11.9988 4.25C11.5846 4.25 11.2488 4.58579 11.2488 5C11.2488 5.41421 11.5846 5.75 11.9988 5.75H14.6789C15.8349 5.75 16.3749 7.18147 15.5041 7.94632L7.51568 14.9349C5.60271 16.6013 6.78697 19.75 9.31885 19.75H11.9988C12.4131 19.75 12.7488 19.4142 12.7488 19C12.7488 18.5858 12.4131 18.25 11.9988 18.25H9.31885C8.17106 18.25 7.63529 16.8195 8.50129 16.0657L8.50268 16.0645L16.4936 9.07368C18.4023 7.39845 17.2227 4.25 14.6789 4.25H11.9988Z" fill="#001F3E"/>
</svg>
