<svg width="24" height="24" viewBox="0 0 24 24" fill="none" xmlns="http://www.w3.org/2000/svg">
<path d="M7.25 7C7.25 6.58579 7.58579 6.25 8 6.25H16C16.4142 6.25 16.75 6.58579 16.75 7C16.75 7.41421 16.4142 7.75 16 7.75H8C7.58579 7.75 7.25 7.41421 7.25 7Z" fill="#001F3E"/>
<path d="M8 9.75C7.58579 9.75 7.25 10.0858 7.25 10.5C7.25 10.9142 7.58579 11.25 8 11.25H13C13.4142 11.25 13.75 10.9142 13.75 10.5C13.75 10.0858 13.4142 9.75 13 9.75H8Z" fill="#001F3E"/>
<path fill-rule="evenodd" clip-rule="evenodd" d="M21.25 18.5C21.25 20.8442 19.3442 22.75 17 22.75H7C4.65579 22.75 2.75 20.8442 2.75 18.5V7C2.75 5.00536 2.98116 3.45818 3.96967 2.46967C4.95818 1.48116 6.50536 1.25 8.5 1.25H15.5C17.4946 1.25 19.0418 1.48116 20.0303 2.46967C21.0188 3.45818 21.25 5.00536 21.25 7V18.5ZM4.25 7C4.25 4.99464 4.51884 4.04182 5.03033 3.53033C5.54182 3.01884 6.49464 2.75 8.5 2.75H15.5C17.5054 2.75 18.4582 3.01884 18.9697 3.53033C19.4812 4.04182 19.75 4.99464 19.75 7V14.25H6.35C5.5671 14.25 4.84156 14.5015 4.25 14.928V7ZM4.25 17.85V18.5C4.25 20.0158 5.48421 21.25 7 21.25H17C18.5158 21.25 19.75 20.0158 19.75 18.5V17.5431C19.7405 17.486 19.7376 17.4269 19.7419 17.3666C19.7497 17.2577 19.75 17.1444 19.75 17V15.75H6.35C5.19421 15.75 4.25 16.6942 4.25 17.85Z" fill="#001F3E"/>
</svg>
