<svg width="24" height="24" viewBox="0 0 24 24" fill="none" xmlns="http://www.w3.org/2000/svg">
<path d="M13 2C13 1.44772 12.5523 1 12 1C11.4477 1 11 1.44772 11 2V2.08C11 2.63228 11.4477 3.08 12 3.08C12.5523 3.08 13 2.63228 13 2.08V2Z" fill="#001F3E"/>
<path d="M5.56711 4.15289C5.17658 3.76237 4.54342 3.76237 4.15289 4.15289C3.76237 4.54342 3.76237 5.17658 4.15289 5.56711L4.28289 5.69711C4.67342 6.08763 5.30658 6.08763 5.69711 5.69711C6.08763 5.30658 6.08763 4.67342 5.69711 4.28289L5.56711 4.15289Z" fill="#001F3E"/>
<path d="M19.8471 5.56711C20.2376 5.17658 20.2376 4.54342 19.8471 4.15289C19.4566 3.76237 18.8234 3.76237 18.4329 4.15289L18.3029 4.28289C17.9124 4.67342 17.9124 5.30658 18.3029 5.69711C18.6934 6.08763 19.3266 6.08763 19.7171 5.69711L19.8471 5.56711Z" fill="#001F3E"/>
<path d="M2 11C1.44772 11 1 11.4477 1 12C1 12.5523 1.44772 13 2 13H2.08C2.63228 13 3.08 12.5523 3.08 12C3.08 11.4477 2.63228 11 2.08 11H2Z" fill="#001F3E"/>
<path d="M21.92 11C21.3677 11 20.92 11.4477 20.92 12C20.92 12.5523 21.3677 13 21.92 13H22C22.5523 13 23 12.5523 23 12C23 11.4477 22.5523 11 22 11H21.92Z" fill="#001F3E"/>
<path d="M5.69711 19.7171C6.08763 19.3266 6.08763 18.6934 5.69711 18.3029C5.30658 17.9124 4.67342 17.9124 4.28289 18.3029L4.15289 18.4329C3.76237 18.8234 3.76237 19.4566 4.15289 19.8471C4.54342 20.2376 5.17658 20.2376 5.56711 19.8471L5.69711 19.7171Z" fill="#001F3E"/>
<path d="M19.7171 18.3029C19.3266 17.9124 18.6934 17.9124 18.3029 18.3029C17.9124 18.6934 17.9124 19.3266 18.3029 19.7171L18.4329 19.8471C18.8234 20.2376 19.4566 20.2376 19.8471 19.8471C20.2376 19.4566 20.2376 18.8234 19.8471 18.4329L19.7171 18.3029Z" fill="#001F3E"/>
<path d="M13 21.92C13 21.3677 12.5523 20.92 12 20.92C11.4477 20.92 11 21.3677 11 21.92V22C11 22.5523 11.4477 23 12 23C12.5523 23 13 22.5523 13 22V21.92Z" fill="#001F3E"/>
<path fill-rule="evenodd" clip-rule="evenodd" d="M12 4.75C7.99594 4.75 4.75 7.99594 4.75 12C4.75 16.0041 7.99594 19.25 12 19.25C16.0041 19.25 19.25 16.0041 19.25 12C19.25 7.99594 16.0041 4.75 12 4.75ZM6.25 12C6.25 8.82436 8.82436 6.25 12 6.25C15.1756 6.25 17.75 8.82436 17.75 12C17.75 15.1756 15.1756 17.75 12 17.75C8.82436 17.75 6.25 15.1756 6.25 12Z" fill="#001F3E"/>
</svg>
