<svg width="24" height="24" viewBox="0 0 24 24" fill="none" xmlns="http://www.w3.org/2000/svg">
<path fill-rule="evenodd" clip-rule="evenodd" d="M7.25098 5.17401V5.25H7.00076C4.77773 5.25 3.25971 5.76457 2.3743 6.81723C1.49748 7.85967 1.41408 9.22917 1.55461 10.5061L2.30397 18.5L2.30503 18.5099C2.41518 19.538 2.67322 20.6651 3.59115 21.5037C4.50229 22.3361 5.91391 22.75 8.00076 22.75H16.0008C18.0876 22.75 19.4992 22.3361 20.4104 21.5037C21.3283 20.6651 21.5864 19.538 21.6966 18.5099L22.3876 11.1389C22.3962 11.0932 22.4006 11.0466 22.4006 10.9999L22.4469 10.5061C22.5874 9.22916 22.504 7.85966 21.6272 6.81723C20.7418 5.76457 19.2238 5.25 17.0008 5.25H16.751V5.17402C16.751 4.75049 16.751 4.28788 16.6947 3.85619C16.6363 3.40889 16.5111 2.93401 16.218 2.50983C15.6012 1.61749 14.4715 1.25 12.801 1.25H11.201C9.53049 1.25 8.40073 1.61749 7.784 2.50983C7.49083 2.93401 7.36569 3.40889 7.30729 3.85619C7.25093 4.28789 7.25095 4.75048 7.25098 5.17401ZM8.79467 4.05038C8.75218 4.37577 8.75098 4.74554 8.75098 5.2V5.25H15.251V5.2C15.251 4.74554 15.2498 4.37577 15.2073 4.05038C15.1657 3.73174 15.0908 3.51724 14.984 3.36267C14.8007 3.09751 14.3305 2.75 12.801 2.75H11.201C9.67147 2.75 9.20122 3.09751 9.01796 3.36267C8.91113 3.51724 8.83627 3.73174 8.79467 4.05038ZM20.9552 10.3475L20.9324 10.5903C19.0396 11.9052 16.9269 12.7537 14.751 13.1466L14.751 12.9672C14.751 12.746 14.7511 12.5219 14.7308 12.3391C14.7101 12.1527 14.6547 11.8431 14.4063 11.5947C14.1579 11.3463 13.8483 11.2909 13.6619 11.2702C13.4791 11.2499 13.255 11.25 13.0339 11.25H10.9681C10.747 11.25 10.5229 11.2499 10.34 11.2702C10.1536 11.2909 9.84403 11.3463 9.59566 11.5947C9.34729 11.8431 9.29191 12.1527 9.2712 12.3391C9.25088 12.5219 9.25093 12.746 9.25098 12.9671L9.25099 13.1679C7.0856 12.803 4.975 11.9656 3.07697 10.6734L3.04759 10.36L3.04621 10.3475C2.91772 9.18629 3.0505 8.3436 3.52223 7.78277C3.98681 7.23043 4.9538 6.75 7.00076 6.75H17.0008C19.0477 6.75 20.0147 7.23043 20.4793 7.78277C20.951 8.3436 21.0837 9.18628 20.9552 10.3475ZM3.2536 12.5576L3.79702 18.3549C3.89706 19.2843 4.10418 19.9407 4.60288 20.3963C5.10924 20.8589 6.06762 21.25 8.00076 21.25H16.0008C17.9339 21.25 18.8923 20.8589 19.3986 20.3963C19.8973 19.9407 20.1045 19.2843 20.2045 18.3549L20.7547 12.4866C18.8712 13.604 16.8254 14.3293 14.7342 14.6715C14.7287 14.7446 14.7213 14.8177 14.7116 14.8898C14.6706 15.1923 14.581 15.5357 14.3616 15.849C13.8936 16.5172 13.0674 16.75 12.001 16.75C10.9404 16.75 10.1163 16.5202 9.6466 15.8575C9.42574 15.5458 9.33432 15.2037 9.29221 14.901C9.2825 14.8313 9.27507 14.7606 9.2694 14.6899C7.18048 14.3727 5.13668 13.6566 3.2536 12.5576ZM13.251 13V13.9917C13.2503 14.0098 13.2503 14.028 13.251 14.0462C13.2509 14.3159 13.2484 14.5165 13.2251 14.6887C13.202 14.8596 13.1647 14.9431 13.1329 14.9885C13.0984 15.0378 12.9246 15.25 12.001 15.25C11.0816 15.25 10.9057 15.0399 10.8704 14.9901C10.8387 14.9454 10.8014 14.8632 10.7779 14.6943C10.7534 14.5186 10.751 14.3115 10.751 14.03V13C10.751 12.9036 10.751 12.8222 10.7518 12.7508C10.8232 12.75 10.9045 12.75 11.001 12.75H13.001C13.0974 12.75 13.1788 12.75 13.2502 12.7508C13.251 12.8222 13.251 12.9036 13.251 13Z" fill="#001F3E"/>
</svg>
