<svg width="24" height="24" viewBox="0 0 24 24" fill="none" xmlns="http://www.w3.org/2000/svg">
<path fill-rule="evenodd" clip-rule="evenodd" d="M14.5001 12.9999C15.8807 12.9999 17 14.1192 17.0001 15.4999C17.0001 16.8806 15.8807 17.9998 14.5001 17.9999C13.1193 17.9999 12.0001 16.8806 12.0001 15.4999C12.0001 14.1192 13.1194 12.9999 14.5001 12.9999ZM14.5001 14.6669C14.0399 14.6669 13.6671 15.0397 13.6671 15.4999C13.6671 15.9601 14.0399 16.3329 14.5001 16.3329C14.9603 16.3328 15.3331 15.9601 15.3331 15.4999C15.333 15.0398 14.9602 14.6669 14.5001 14.6669Z" fill="#001F3E"/>
<path d="M15.6524 7.23132C15.9607 6.92306 16.4603 6.92305 16.7686 7.23132C17.0769 7.53961 17.0769 8.03922 16.7686 8.34753L8.34773 16.7684C8.03942 17.0767 7.53982 17.0767 7.23152 16.7684C6.92324 16.4601 6.92322 15.9605 7.23152 15.6522L15.6524 7.23132Z" fill="#001F3E"/>
<path fill-rule="evenodd" clip-rule="evenodd" d="M9.50007 5.99987C10.8807 5.99991 12 7.11929 12.0001 8.49987C12.0001 9.88056 10.8808 10.9998 9.50007 10.9999C8.11938 10.9999 7.00007 9.88062 7.00007 8.49987C7.00016 7.11924 8.11941 5.99987 9.50007 5.99987ZM9.50007 7.66687C9.03989 7.66687 8.66715 8.03971 8.66706 8.49987C8.66706 8.96009 9.0398 9.33288 9.50007 9.33288C9.96028 9.33284 10.3331 8.96009 10.3331 8.49987C10.333 8.03971 9.96019 7.6669 9.50007 7.66687Z" fill="#001F3E"/>
<path fill-rule="evenodd" clip-rule="evenodd" d="M9.58796 2.3739C10.6338 0.542686 13.3663 0.542685 14.4122 2.3739C14.7077 2.8908 15.3694 3.09767 15.9239 2.84655C17.8876 1.95715 20.0975 3.50361 19.8262 5.57702C19.7496 6.16263 20.1589 6.70542 20.7608 6.81628C22.8923 7.20834 23.7369 9.7104 22.252 11.2342C21.8325 11.6647 21.8325 12.3351 22.252 12.7655C23.7371 14.2893 22.8923 16.7924 20.7608 17.1844C20.159 17.2954 19.7496 17.8372 19.8262 18.4227C20.0977 20.4963 17.8877 22.0426 15.9239 21.1532C15.3692 20.9021 14.7076 21.1096 14.4122 21.6268C13.3663 23.4579 10.6339 23.4579 9.58796 21.6268C9.2926 21.1097 8.63087 20.9022 8.07624 21.1532C6.11249 22.0426 3.90145 20.4962 4.17292 18.4227C4.24961 17.837 3.84044 17.2952 3.23835 17.1844C1.10707 16.7921 0.26303 14.2892 1.74812 12.7655C2.16759 12.3351 2.16761 11.6647 1.74812 11.2342C0.263208 9.71053 1.10721 7.20864 3.23835 6.81628C3.84044 6.70553 4.24961 6.16272 4.17292 5.57702C3.9017 3.50366 6.11259 1.95717 8.07624 2.84655C8.63076 3.09757 9.29247 2.89081 9.58796 2.3739ZM13.0176 3.11218C12.5763 2.3395 11.4238 2.3395 10.9825 3.11218C10.2823 4.33803 8.7131 4.82868 7.39851 4.23327C6.56996 3.85822 5.63747 4.51078 5.75202 5.38562C5.93376 6.77368 4.9641 8.0587 3.53718 8.32116C2.63793 8.48666 2.28184 9.54246 2.90827 10.1854C3.90249 11.2055 3.90249 12.7942 2.90827 13.8143C2.28165 14.4573 2.6379 15.513 3.53718 15.6786C4.964 15.941 5.93358 17.2262 5.75202 18.6141C5.63747 19.489 6.56994 20.1416 7.39851 19.7665C8.71302 19.1711 10.2823 19.6619 10.9825 20.8876C11.4238 21.6602 12.5763 21.6602 13.0176 20.8876C13.7179 19.6619 15.2872 19.1711 16.6016 19.7665C17.4302 20.1415 18.3627 19.489 18.2481 18.6141C18.0665 17.2262 19.0361 15.941 20.463 15.6786C21.3621 15.5129 21.7183 14.4572 21.0919 13.8143C20.0976 12.7942 20.0976 11.2055 21.0919 10.1854C21.7181 9.54249 21.362 8.48676 20.463 8.32116C19.036 8.0587 18.0664 6.77369 18.2481 5.38562C18.3627 4.51084 17.4301 3.85837 16.6016 4.23327C15.2871 4.82867 13.7178 4.33797 13.0176 3.11218Z" fill="#001F3E"/>
</svg>
