<svg width="24" height="24" viewBox="0 0 24 24" fill="none" xmlns="http://www.w3.org/2000/svg">
<path d="M2.75977 18.98C2.75977 18.5658 3.09555 18.23 3.50977 18.23H4.25V17.52C4.25 17.1058 4.58579 16.77 5 16.77C5.41421 16.77 5.75 17.1058 5.75 17.52V18.23H6.48975C6.90396 18.23 7.23975 18.5658 7.23975 18.98C7.23975 19.3942 6.90396 19.73 6.48975 19.73H5.75V20.51C5.75 20.9242 5.41421 21.26 5 21.26C4.58579 21.26 4.25 20.9242 4.25 20.51V19.73H3.50977C3.09555 19.73 2.75977 19.3942 2.75977 18.98Z" fill="#001F3E"/>
<path fill-rule="evenodd" clip-rule="evenodd" d="M3.2735 2.27405C4.09919 1.51137 5.23306 1.25 6.61988 1.25H9.66987L9.67988 1.25007L9.68996 1.25H17.3698C18.7566 1.25 19.8905 1.51137 20.7162 2.27405C21.532 3.02762 21.9051 4.14206 22.0927 5.49711C22.0939 5.50605 22.095 5.51502 22.0959 5.524L22.3761 8.27572C22.4768 9.2871 22.2248 10.226 21.7208 10.9798C21.7463 11.0552 21.7601 11.136 21.7601 11.22V15.71C21.7601 18.0284 21.3026 19.8478 20.0832 21.0687C18.8637 22.2898 17.044 22.75 14.7201 22.75H9.33011C8.85863 22.75 8.41009 22.7311 7.98207 22.6865C7.16648 23.3601 6.12715 23.75 5 23.75C3.55017 23.75 2.25229 23.0955 1.3949 22.0714L1.3901 22.0656C1.38191 22.0572 1.37128 22.0461 1.36037 22.0341C1.34694 22.0192 1.3304 22.0001 1.31248 21.9768C1.1778 21.8177 1.04664 21.6392 0.933962 21.4412C0.496613 20.7269 0.25 19.8855 0.25 19C0.25 17.5079 0.936775 16.1655 2.02852 15.2967C2.11337 15.2271 2.20055 15.1612 2.29004 15.0993V11.22C2.29004 11.1572 2.29775 11.0962 2.31227 11.038C1.78003 10.2749 1.51024 9.31398 1.61355 8.27572L1.61373 8.274L1.89376 5.524C1.89467 5.51502 1.89575 5.50605 1.89699 5.49711C2.08461 4.14206 2.45768 3.02762 3.2735 2.27405ZM3.37628 16.1906C3.39204 16.1827 3.40747 16.1742 3.42257 16.1653C3.89138 15.9011 4.42996 15.75 5 15.75C5.81383 15.75 6.53997 16.0411 7.10724 16.5354C7.12106 16.5474 7.13531 16.559 7.14998 16.57C7.2152 16.6189 7.28866 16.6895 7.37503 16.7845L7.37713 16.7868C7.91943 17.3784 8.25 18.1507 8.25 19C8.25 19.6094 8.07947 20.1834 7.7816 20.6664L7.77509 20.6772C7.61789 20.9419 7.43823 21.1633 7.24363 21.3291C7.22524 21.3448 7.20764 21.3613 7.19087 21.3786C7.18296 21.3868 7.17524 21.3952 7.1677 21.4037C7.16233 21.4098 7.15706 21.4159 7.15189 21.4222L7.13918 21.4329L7.12828 21.4425C6.56449 21.9499 5.82269 22.25 5 22.25C4.01778 22.25 3.14182 21.8115 2.55912 21.1252C2.54059 21.1011 2.52345 21.0812 2.50962 21.0659C2.49872 21.0539 2.48809 21.0427 2.4799 21.0344L2.46947 21.0219C2.37353 20.91 2.29433 20.8002 2.2337 20.6924C2.22877 20.6836 2.22367 20.6749 2.2184 20.6664C1.92053 20.1834 1.75 19.6094 1.75 19C1.75 17.9745 2.221 17.0588 2.96618 16.4675L2.97678 16.459C3.10433 16.3539 3.23741 16.2648 3.37628 16.1906ZM9.1773 21.2493C9.54498 20.5781 9.75 19.8073 9.75 19C9.75 17.7499 9.261 16.6227 8.48392 15.7744C8.3755 15.6552 8.2372 15.5139 8.07311 15.3876C7.24317 14.6722 6.17689 14.25 5 14.25C4.58253 14.25 4.17677 14.3052 3.79004 14.4084V12.3143C4.34732 12.5933 4.98443 12.75 5.66987 12.75C6.94675 12.75 8.13774 12.1071 8.89611 11.1242C9.56555 12.1101 10.7015 12.75 12.03 12.75C13.3439 12.75 14.4643 12.1249 15.1334 11.1595C15.8933 12.1209 17.0651 12.75 18.3298 12.75C19.0372 12.75 19.6919 12.5833 20.2601 12.2877V15.71C20.2601 17.8815 19.8226 19.2071 19.0219 20.0087C18.2215 20.8102 16.8962 21.25 14.7201 21.25H9.33011C9.27865 21.25 9.22771 21.2498 9.1773 21.2493ZM3.38465 5.68964L3.10618 8.42424C2.95073 9.99091 4.09213 11.25 5.66987 11.25C6.93648 11.25 8.1009 10.2005 8.22336 8.93762L8.22355 8.9357L8.84113 2.75H6.61988C5.3867 2.75 4.71058 2.98862 4.29128 3.37592C3.86363 3.77094 3.55736 4.45304 3.38465 5.68964ZM13.641 2.75L14.2735 9.08454L14.2743 9.09135C14.2783 9.12875 14.283 9.16601 14.2881 9.20314C14.1934 10.3751 13.2619 11.25 12.03 11.25C10.6417 11.25 9.63034 10.1404 9.76638 8.75347L10.3685 2.75H13.641ZM15.7945 9.12148C16.0232 10.3073 17.1321 11.25 18.3298 11.25C19.9045 11.25 21.0394 9.99477 20.8836 8.42501L20.605 5.68964C20.4323 4.45304 20.1261 3.77094 19.6984 3.37592C19.2791 2.98862 18.603 2.75 17.3698 2.75H15.1889L15.7764 8.60664C15.7935 8.78081 15.7994 8.95264 15.7945 9.12148Z" fill="#001F3E"/>
</svg>
