<svg width="24" height="24" viewBox="0 0 24 24" fill="none" xmlns="http://www.w3.org/2000/svg">
<path fill-rule="evenodd" clip-rule="evenodd" d="M11.9999 7.67004C9.60571 7.67004 7.66992 9.60583 7.66992 12C7.66992 14.3943 9.60571 16.33 11.9999 16.33C14.3941 16.33 16.3299 14.3943 16.3299 12C16.3299 9.60583 14.3941 7.67004 11.9999 7.67004ZM9.16992 12C9.16992 10.4343 10.4341 9.17004 11.9999 9.17004C13.5657 9.17004 14.8299 10.4343 14.8299 12C14.8299 13.5658 13.5657 14.83 11.9999 14.83C10.4341 14.83 9.16992 13.5658 9.16992 12Z" fill="#001F3E"/>
<path fill-rule="evenodd" clip-rule="evenodd" d="M11.9998 2.97003C8.15186 2.97003 4.64826 5.23863 2.25734 8.997C1.71214 9.85141 1.46484 10.946 1.46484 11.995C1.46484 13.0439 1.71205 14.1382 2.25703 14.9926C4.64795 18.7512 8.1517 21.02 11.9998 21.02C15.848 21.02 19.3517 18.7512 21.7427 14.9926C22.2876 14.1382 22.5348 13.0439 22.5348 11.995C22.5348 10.9462 22.2876 9.85183 21.7427 8.99749C19.3517 5.23883 15.848 2.97003 11.9998 2.97003ZM3.52266 9.80257C5.71174 6.36123 8.78799 4.47003 11.9998 4.47003C15.2117 4.47003 18.288 6.36123 20.477 9.80257L20.4777 9.80356C20.8322 10.3591 21.0348 11.1543 21.0348 11.995C21.0348 12.8358 20.8322 13.631 20.4777 14.1865L20.477 14.1875C18.288 17.6288 15.2117 19.52 11.9998 19.52C8.78799 19.52 5.71174 17.6288 3.52266 14.1875L3.52204 14.1865C3.16745 13.631 2.96484 12.8358 2.96484 11.995C2.96484 11.1543 3.16745 10.3591 3.52204 9.80356L3.52266 9.80257Z" fill="#001F3E"/>
</svg>
