<svg width="24" height="24" viewBox="0 0 24 24" fill="none" xmlns="http://www.w3.org/2000/svg">
<path fill-rule="evenodd" clip-rule="evenodd" d="M5.59 1.25C4.62059 1.25 3.74153 1.66198 2.98958 2.39989C2.38782 2.96904 1.94486 3.61754 1.66285 4.33343C1.3856 5.02733 1.25 5.77185 1.25 6.54C1.25 7.69701 1.5172 8.88604 2.02877 10.101L2.02923 10.1021L2.0297 10.1032C2.5351 11.293 3.22475 12.4813 4.07115 13.6579L4.07241 13.6597L4.07368 13.6614C4.92677 14.8332 5.8815 15.9519 6.93711 17.0178L6.93966 17.0203L6.94224 17.0229C8.00824 18.0786 9.12671 19.0331 10.3076 19.8956L10.3086 19.8963C11.4895 20.7561 12.6885 21.4455 13.896 21.96C15.1213 22.4821 16.3114 22.75 17.45 22.75C18.2444 22.75 18.9922 22.6021 19.6864 22.3132C20.4107 22.016 21.0399 21.5562 21.5954 20.944L21.5957 20.9436C21.9381 20.5658 22.1984 20.1633 22.3982 19.7403C22.6147 19.2817 22.72 18.8025 22.72 18.33C22.72 17.9351 22.6338 17.59 22.5064 17.2715L22.5016 17.2596L22.4965 17.2479C22.3233 16.8544 22.0454 16.5424 21.6908 16.296L18.378 13.9441L18.3717 13.9398C18.0939 13.7509 17.8169 13.5916 17.534 13.4758C17.2362 13.354 16.9399 13.29 16.64 13.29C16.2447 13.29 15.8882 13.4019 15.5612 13.5966C15.2482 13.7639 14.9549 14.0046 14.6815 14.2779L13.9918 14.9584C13.9753 14.9509 13.955 14.9417 13.933 14.9322C13.6606 14.7841 13.2858 14.5247 12.8049 14.1178C12.2962 13.6858 11.7923 13.2116 11.2604 12.6897C10.7568 12.1761 10.29 11.6609 9.84989 11.1524C9.44802 10.6772 9.183 10.3079 9.03333 10.0455C9.02321 10.0197 9.01385 9.99743 9.00688 9.98096L9.69564 9.26501C9.96427 8.99566 10.1968 8.70783 10.3671 8.40938C10.5673 8.07662 10.68 7.70686 10.68 7.32C10.68 7.00643 10.5997 6.69708 10.4818 6.42032C10.3657 6.13793 10.2053 5.85901 10.0002 5.57395L7.68396 2.30922C7.42309 1.93393 7.08756 1.67229 6.71942 1.5014C6.36311 1.33138 5.97318 1.25 5.59 1.25ZM4.03614 3.47449C4.56293 2.95593 5.08187 2.75 5.59 2.75C5.76498 2.75 5.93314 2.78783 6.07545 2.85614L6.08056 2.85859L6.08571 2.86097C6.23429 2.92955 6.35581 3.02601 6.45336 3.16691L6.45581 3.17046L8.77982 6.44611L8.78135 6.44823C8.93418 6.66049 9.03246 6.83904 9.09584 6.99397L9.09819 6.99973L9.10064 7.00544C9.1614 7.14722 9.18 7.25575 9.18 7.32C9.18 7.40903 9.15514 7.51553 9.07935 7.64004L9.07305 7.6504L9.06708 7.66096C8.97897 7.81685 8.83569 8.00365 8.62967 8.20967L8.62454 8.2148L7.86358 9.0058C7.60559 9.267 7.49 9.59078 7.49 9.93C7.49 10.081 7.51008 10.2127 7.54239 10.3419L7.55275 10.3833L7.56775 10.4233C7.58735 10.4756 7.60702 10.522 7.61948 10.5514L7.62302 10.5597C7.63478 10.5875 7.63799 10.5959 7.6385 10.5973C7.63856 10.5974 7.63859 10.5975 7.63858 10.5975L7.6596 10.6605L7.69158 10.7191C7.90702 11.1141 8.25419 11.5888 8.70746 12.1245L8.71015 12.1276L8.71287 12.1308C9.1705 12.6596 9.66123 13.2016 10.1946 13.7453L10.1996 13.7503L10.2046 13.7553C10.7507 14.2912 11.2851 14.7952 11.8346 15.2617L11.8355 15.2625C12.3777 15.7213 12.8536 16.0582 13.2591 16.2728L13.2944 16.2915L13.3315 16.3064C13.3366 16.3084 13.3476 16.3132 13.38 16.328L13.3877 16.3316C13.4149 16.3441 13.4533 16.3617 13.4946 16.3794L13.5105 16.3862L13.5267 16.3922C13.7163 16.4633 13.8919 16.48 14.04 16.48C14.4185 16.48 14.7356 16.3341 14.9783 16.0924L15.7386 15.3421L15.7403 15.3403C15.96 15.1207 16.1389 14.987 16.2769 14.9149L16.2988 14.9035L16.32 14.8906C16.4472 14.8132 16.5438 14.79 16.64 14.79C16.7201 14.79 16.8238 14.806 16.966 14.8642C17.1216 14.9278 17.3028 15.0273 17.5222 15.1761L20.8294 17.5241L20.8331 17.5266C20.9913 17.6362 21.072 17.74 21.1189 17.8418C21.1879 18.0176 21.22 18.1689 21.22 18.33C21.22 18.5775 21.1653 18.8383 21.0418 19.0997C20.9016 19.3966 20.722 19.6739 20.4846 19.936C20.0606 20.4032 19.6105 20.7232 19.1156 20.926L19.1136 20.9269L19.1115 20.9277C18.6064 21.1382 18.0548 21.25 17.45 21.25C16.5486 21.25 15.5587 21.0379 14.484 20.58C13.3918 20.1146 12.2912 19.4843 11.1924 18.6844C10.0742 17.8676 9.01354 16.9629 8.00031 15.9596C6.99749 14.9468 6.0935 13.887 5.2876 12.7803C4.49485 11.678 3.86508 10.5871 3.41076 9.51785C2.96266 8.45327 2.75 7.46267 2.75 6.54C2.75 5.94888 2.85414 5.39408 3.05636 4.88854L3.05715 4.88657L3.05792 4.88459C3.25506 4.38355 3.56991 3.91456 4.02467 3.48555L4.03046 3.48008L4.03614 3.47449Z" fill="#001F3E"/>
<path d="M15.5 5.25C15.0858 5.25 14.75 5.58579 14.75 6C14.75 6.41421 15.0858 6.75 15.5 6.75H20.5C20.9142 6.75 21.25 6.41421 21.25 6C21.25 5.58579 20.9142 5.25 20.5 5.25H15.5Z" fill="#001F3E"/>
</svg>
