<svg width="24" height="24" viewBox="0 0 24 24" fill="none" xmlns="http://www.w3.org/2000/svg">
<path d="M17.7499 3C17.7499 2.58579 17.4141 2.25 16.9999 2.25C16.5857 2.25 16.2499 2.58579 16.2499 3V3.24011H15.9471C14.6942 3.24011 13.743 4.30268 13.743 5.51937C13.743 6.08575 13.8683 6.57901 14.1799 6.9741C14.4839 7.35943 14.891 7.55485 15.2454 7.6804L18.2525 8.73288C18.4904 8.8193 18.5825 8.89212 18.6294 8.95204C18.6693 9.00305 18.7445 9.13193 18.7445 9.48041C18.7445 9.9434 18.392 10.2597 18.0404 10.2597H16.1602C15.6946 10.2597 15.243 9.84191 15.243 9.25478C15.243 8.84057 14.9073 8.50478 14.493 8.50478C14.0788 8.50478 13.743 8.84057 13.743 9.25478C13.743 10.598 14.7957 11.7597 16.1602 11.7597H16.2499V12C16.2499 12.4142 16.5857 12.75 16.9999 12.75C17.4141 12.75 17.7499 12.4142 17.7499 12V11.7597H18.0404C19.2933 11.7597 20.2445 10.6971 20.2445 9.48041C20.2445 8.91384 20.1191 8.42224 19.8112 8.02825C19.5104 7.64347 19.108 7.44717 18.7593 7.32104L15.7462 6.26645L15.745 6.26601C15.4987 6.17866 15.4047 6.10472 15.3577 6.04517C15.3183 5.99526 15.243 5.86804 15.243 5.51937C15.243 5.05639 15.5955 4.74011 15.9471 4.74011H17.8215C18.3183 4.74922 18.757 5.17271 18.757 5.745C18.757 6.15922 19.0928 6.495 19.507 6.495C19.9212 6.495 20.257 6.15922 20.257 5.745C20.257 4.38856 19.194 3.25844 17.8375 3.24011H17.7499V3Z" fill="#001F3E"/>
<path fill-rule="evenodd" clip-rule="evenodd" d="M12.0312 13.7477L12.2345 15.9017L12.8873 16.0063L19.4125 14.4555C20.6355 14.1649 21.8756 14.8673 22.2551 16.0657C22.6328 17.2585 22.0306 18.5414 20.8717 19.0129L12.6005 22.378C11.9161 22.6565 11.1484 22.6478 10.4705 22.3539L1.70159 18.5529C1.42735 18.434 1.24988 18.1637 1.24988 17.8648V11.1878C1.24988 10.7916 1.55805 10.4637 1.9535 10.4392L4.7 10.269C4.95895 10.253 5.21887 10.2737 5.47203 10.3305L9.89531 11.3228C11.0572 11.5834 11.9193 12.5622 12.0312 13.7477ZM4.79276 11.7662C4.91046 11.7589 5.02861 11.7683 5.14368 11.7941L9.56696 12.7864C10.0951 12.9049 10.487 13.3498 10.5378 13.8886L10.7047 15.6565L7.06614 15.0733C6.65714 15.0078 6.27245 15.2862 6.20689 15.6952C6.14134 16.1042 6.41976 16.4889 6.82875 16.5544L12.797 17.511C12.8942 17.5266 12.9934 17.5229 13.0892 17.5001L19.7594 15.9149C20.2179 15.8059 20.6828 16.0693 20.8251 16.5186C20.9667 16.9658 20.7409 17.4467 20.3064 17.6235L12.0352 20.9886C11.7241 21.1152 11.3752 21.1113 11.067 20.9777L2.74988 17.3725L2.74988 11.8927L4.79276 11.7662Z" fill="#001F3E"/>
</svg>
