<svg width="24" height="24" viewBox="0 0 24 24" fill="none" xmlns="http://www.w3.org/2000/svg">
<path fill-rule="evenodd" clip-rule="evenodd" d="M14.4012 3.17535C13.872 2.11171 13.0447 1.32751 11.9987 1.32751C10.9539 1.32751 10.1241 2.11037 9.58988 3.1732L7.82918 6.6946L7.82645 6.70011C7.77362 6.80797 7.64734 6.96146 7.45705 7.10256C7.26741 7.24317 7.08343 7.32012 6.9655 7.34042L6.96444 7.3406L3.77708 7.87016C2.62697 8.06184 1.66109 8.62155 1.34804 9.60187C1.03522 10.5815 1.49666 11.5973 2.31967 12.4203L4.79967 14.9003C4.89728 14.998 5.00663 15.1818 5.07521 15.4214C5.14337 15.6595 5.14914 15.8755 5.11859 16.014L5.11816 16.016L4.40931 19.0809C4.11376 20.3582 4.21627 21.6263 5.12542 22.2896C6.03401 22.9526 7.27365 22.6651 8.40276 21.995L11.3872 20.2283L11.389 20.2272C11.5233 20.1497 11.7444 20.09 12.0037 20.09C12.265 20.09 12.4816 20.1505 12.6076 20.2252L15.5979 21.9954C16.7284 22.6632 17.9696 22.9559 18.8781 22.2936C19.7879 21.6303 19.8854 20.3599 19.5908 19.0816L18.8818 16.016L18.8814 16.014C18.8509 15.8755 18.8566 15.6595 18.9248 15.4214C18.9934 15.1818 19.1027 14.998 19.2003 14.9003L21.6785 12.4222L21.6795 12.4211C22.5077 11.5982 22.9706 10.5815 22.6553 9.60051C22.3404 8.6208 21.3726 8.06178 20.2233 7.87022L16.4995 7.34022" fill="#001F3E"/>
</svg>
