<svg width="24" height="24" viewBox="0 0 24 24" fill="none" xmlns="http://www.w3.org/2000/svg">
<path fill-rule="evenodd" clip-rule="evenodd" d="M15.3754 1.97142C17.2345 1.76799 19.0309 2.40845 20.5457 3.92324C22.0605 5.43803 22.7009 7.23444 22.4975 9.09356C22.297 10.9259 21.2883 12.7265 19.6899 14.325L14.1992 19.8157C13.3639 20.6509 12.429 21.1809 11.4307 21.24C10.4131 21.3003 9.47968 20.8631 8.6853 20.0687C7.89165 19.2751 7.44672 18.3353 7.4922 17.3131C7.53709 16.3045 8.05357 15.3547 8.89589 14.5124L12.8178 10.5905C13.1107 10.2976 13.5856 10.2976 13.8785 10.5905C14.1714 10.8834 14.1714 11.3582 13.8785 11.6511L9.95655 15.573C9.28502 16.2446 9.01384 16.8603 8.99072 17.3798C8.9682 17.8859 9.1749 18.437 9.74596 19.0081C10.3163 19.5784 10.8526 19.7716 11.342 19.7427C11.8506 19.7125 12.4599 19.4336 13.1385 18.755L18.6292 13.2644C20.0663 11.8273 20.8538 10.3256 21.0064 8.93041C21.1562 7.56199 20.7067 6.20561 19.485 4.9839C18.2633 3.76219 16.9069 3.31279 15.5385 3.46252C14.1433 3.61518 12.6417 4.40265 11.2046 5.83974L5.71448 11.3298C3.9584 13.0934 3.28462 14.6724 3.24595 16.0022C3.20747 17.3254 3.7936 18.5464 4.85807 19.6109C5.15097 19.9038 5.15097 20.3786 4.85807 20.6715C4.56518 20.9644 4.09031 20.9644 3.79741 20.6715C2.52136 19.3955 1.69315 17.7959 1.74658 15.9586C1.79982 14.1281 2.72409 12.207 4.65215 10.2709L4.65325 10.2697L10.1439 4.77908C11.7424 3.18061 13.5431 2.17191 15.3754 1.97142Z" fill="#001F3E"/>
</svg>
