<svg width="24" height="24" viewBox="0 0 24 24" fill="none" xmlns="http://www.w3.org/2000/svg">
<path fill-rule="evenodd" clip-rule="evenodd" d="M10.9199 9.32996C10.9199 7.62889 12.2989 6.25 13.9999 6.25C15.701 6.25 17.08 7.62889 17.08 9.32996C17.08 11.031 15.701 12.41 13.9999 12.41C12.2989 12.41 10.9199 11.031 10.9199 9.32996ZM13.9999 7.75C13.1273 7.75 12.4199 8.45737 12.4199 9.32996C12.4199 10.2026 13.1273 10.91 13.9999 10.91C14.8725 10.91 15.58 10.2026 15.58 9.32996C15.58 8.45737 14.8726 7.75 13.9999 7.75Z" fill="#001F3E"/>
<path d="M14 13.3101C11.5263 13.3101 9.25 14.9698 9.25 17.32C9.25 17.7342 9.58579 18.07 10 18.07C10.4142 18.07 10.75 17.7342 10.75 17.32C10.75 16.0702 12.0537 14.8101 14 14.8101C15.9463 14.8101 17.25 16.0702 17.25 17.32C17.25 17.7342 17.5858 18.07 18 18.07C18.4142 18.07 18.75 17.7342 18.75 17.32C18.75 14.9698 16.4737 13.3101 14 13.3101Z" fill="#001F3E"/>
<path fill-rule="evenodd" clip-rule="evenodd" d="M9 1.25C6.42603 1.25 4.42914 1.7602 3.09467 3.09467C1.7602 4.42914 1.25 6.42603 1.25 9V15C1.25 17.574 1.7602 19.5709 3.09467 20.9053C4.42914 22.2398 6.42603 22.75 9 22.75H15C17.574 22.75 19.5709 22.2398 20.9053 20.9053C22.2398 19.5709 22.75 17.574 22.75 15V9C22.75 6.42603 22.2398 4.42914 20.9053 3.09467C19.5709 1.7602 17.574 1.25 15 1.25H9ZM2.75 9C2.75 6.57397 3.2398 5.07086 4.15533 4.15533C4.65796 3.6527 5.33769 3.27839 6.25 3.043V20.957C5.33769 20.7216 4.65796 20.3473 4.15533 19.8447C3.2398 18.9291 2.75 17.426 2.75 15V9ZM7.75 21.2004C8.13669 21.2333 8.55265 21.25 9 21.25H15C17.426 21.25 18.9291 20.7602 19.8447 19.8447C20.7602 18.9291 21.25 17.426 21.25 15V9C21.25 6.57397 20.7602 5.07086 19.8447 4.15533C18.9291 3.2398 17.426 2.75 15 2.75H9C8.55265 2.75 8.13669 2.76665 7.75 2.79956V21.2004Z" fill="#001F3E"/>
</svg>
