<svg width="24" height="24" viewBox="0 0 24 24" fill="none" xmlns="http://www.w3.org/2000/svg">
<path d="M15.3603 8.63965C15.6531 8.93255 15.6531 9.40742 15.3603 9.70031L13.0606 12L15.3603 14.2997C15.6531 14.5925 15.6531 15.0674 15.3603 15.3603C15.0674 15.6532 14.5925 15.6532 14.2996 15.3603L11.9999 13.0606L9.70025 15.3603C9.40736 15.6532 8.93249 15.6532 8.63959 15.3603C8.3467 15.0674 8.3467 14.5925 8.63959 14.2997L10.9393 12L8.63959 9.70031C8.3467 9.40742 8.3467 8.93255 8.63959 8.63965C8.93249 8.34676 9.40736 8.34676 9.70025 8.63965L11.9999 10.9393L14.2996 8.63965C14.5925 8.34676 15.0674 8.34676 15.3603 8.63965Z" fill="#001F3E"/>
<path fill-rule="evenodd" clip-rule="evenodd" d="M9 1.25C6.42603 1.25 4.42914 1.7602 3.09467 3.09467C1.7602 4.42914 1.25 6.42603 1.25 9V15C1.25 17.574 1.7602 19.5709 3.09467 20.9053C4.42914 22.2398 6.42603 22.75 9 22.75H15C17.574 22.75 19.5709 22.2398 20.9053 20.9053C22.2398 19.5709 22.75 17.574 22.75 15V9C22.75 6.42603 22.2398 4.42914 20.9053 3.09467C19.5709 1.7602 17.574 1.25 15 1.25H9ZM2.75 9C2.75 6.57397 3.2398 5.07086 4.15533 4.15533C5.07086 3.2398 6.57397 2.75 9 2.75H15C17.426 2.75 18.9291 3.2398 19.8447 4.15533C20.7602 5.07086 21.25 6.57397 21.25 9V15C21.25 17.426 20.7602 18.9291 19.8447 19.8447C18.9291 20.7602 17.426 21.25 15 21.25H9C6.57397 21.25 5.07086 20.7602 4.15533 19.8447C3.2398 18.9291 2.75 17.426 2.75 15V9Z" fill="#001F3E"/>
</svg>
