<svg width="24" height="24" viewBox="0 0 24 24" fill="none" xmlns="http://www.w3.org/2000/svg">
<path fill-rule="evenodd" clip-rule="evenodd" d="M20.9902 7.21999C20.9902 4.66954 18.2329 3.09385 16.0359 4.36008L16.0357 4.36024L11.8859 6.75006L7.73563 9.15021L7.73508 9.15053C5.53536 10.4191 5.53525 13.5904 7.73474 14.8592L7.73485 14.8593L7.73563 14.8598L11.8859 17.2599L16.0357 19.6498C18.2349 20.9175 20.9902 19.328 20.9902 16.79V7.21999ZM16.7848 5.65977C17.9878 4.96629 19.4902 5.83055 19.4902 7.21999V16.79C19.4902 18.172 17.9856 19.0424 16.7848 18.3502L16.7845 18.3501L12.6357 15.9607L8.48567 13.5607L8.48478 13.5602C7.28535 12.8688 7.28535 11.1412 8.48478 10.4497L16.7848 5.65977Z" fill="#001F3E"/>
<path d="M4.50999 5.82001C4.50999 5.4058 4.17421 5.07001 3.75999 5.07001C3.34578 5.07001 3.00999 5.4058 3.00999 5.82001V18.18C3.00999 18.5942 3.34578 18.93 3.75999 18.93C4.17421 18.93 4.50999 18.5942 4.50999 18.18V5.82001Z" fill="#001F3E"/>
</svg>
