<svg width="24" height="24" viewBox="0 0 24 24" fill="none" xmlns="http://www.w3.org/2000/svg">
<path d="M18 2V4M6 2V4" stroke="#001F3E" stroke-width="1.5" stroke-linecap="round" stroke-linejoin="round"/>
<path d="M21.4997 11.5C21.4957 7.63364 21.4267 5.62803 20.2479 4.35364C18.9958 3 16.9805 3 12.95 3H11.05C7.01949 3 5.00424 3 3.75212 4.35364C2.5 5.70728 2.5 7.88594 2.5 12.2432V12.7568C2.5 17.1141 2.5 19.2927 3.75212 20.6464C4.95133 21.9428 6.80467 21.9976 10.5 21.9999" stroke="#001F3E" stroke-width="1.5" stroke-linecap="round" stroke-linejoin="round"/>
<path d="M3 8H21" stroke="#001F3E" stroke-width="1.5" stroke-linecap="round" stroke-linejoin="round"/>
<path d="M17.3623 17.1358C17.9231 17.1358 18.3773 17.5903 18.3775 18.151C18.3775 18.7119 17.9232 19.1673 17.3623 19.1673H17.3528C16.7922 19.1671 16.3376 18.7117 16.3376 18.151C16.3378 17.5905 16.7923 17.136 17.3528 17.1358H17.3623Z" fill="#001F3E"/>
<path fill-rule="evenodd" clip-rule="evenodd" d="M17.4363 14.3289C17.8078 13.7043 18.6258 13.4647 19.2776 13.8482L19.9632 14.2412C20.6565 14.6377 20.8906 15.524 20.4946 16.2093C20.4703 16.2513 20.4553 16.2867 20.446 16.3128C20.4731 16.3179 20.51 16.3213 20.558 16.3213C21.3481 16.3213 22 16.9645 22 17.7633V18.4658C22 19.256 21.3568 19.9078 20.558 19.9078C20.51 19.9078 20.4731 19.9113 20.446 19.9163C20.4553 19.9424 20.4703 19.9768 20.4946 20.0188L20.4967 20.023C20.8892 20.7102 20.6573 21.5921 19.9632 21.989L19.2776 22.3809C18.6258 22.7644 17.8079 22.5248 17.4363 21.9002C17.435 21.8981 17.4333 21.8961 17.4321 21.8939L17.3887 21.8178L17.3866 21.8147C17.363 21.7735 17.3409 21.7435 17.3232 21.7228C17.3049 21.744 17.2826 21.7749 17.2577 21.8178L17.2144 21.8939C17.2132 21.8961 17.2115 21.8981 17.2102 21.9002C16.8386 22.5248 16.0207 22.7644 15.3689 22.3809L14.6833 21.989C13.99 21.5925 13.7549 20.7052 14.1508 20.0198C14.1752 19.9778 14.1912 19.9424 14.2005 19.9163C14.1734 19.9113 14.1364 19.9078 14.0885 19.9078C13.2897 19.9078 12.6465 19.256 12.6465 18.4658V17.7633C12.6465 16.9732 13.2897 16.3213 14.0885 16.3213C14.1364 16.3213 14.1734 16.3179 14.2005 16.3128C14.1912 16.2867 14.1761 16.2523 14.1519 16.2104C13.756 15.5252 13.9893 14.6378 14.6822 14.2412L15.3689 13.8482C16.0207 13.4647 16.8386 13.7043 17.2102 14.3289C17.2115 14.3312 17.2131 14.334 17.2144 14.3363L17.2577 14.4113L17.2599 14.4145C17.2835 14.4556 17.3046 14.4856 17.3222 14.5064C17.3406 14.4851 17.3638 14.4542 17.3887 14.4113L17.4321 14.3363C17.4334 14.334 17.4349 14.3312 17.4363 14.3289ZM18.5709 15.0969C18.3165 15.5357 17.8875 15.9072 17.3211 15.9072C16.7545 15.907 16.3271 15.5345 16.0746 15.0948L16.0418 15.0378L15.3615 15.4276C15.3461 15.4363 15.3344 15.4502 15.3287 15.4709C15.323 15.492 15.3256 15.5112 15.334 15.5258C15.5883 15.9649 15.6973 16.5211 15.4143 17.0122C15.1312 17.5034 14.5952 17.6882 14.0885 17.6883C14.0696 17.6883 14.0511 17.695 14.0357 17.7105C14.0199 17.7263 14.0135 17.7452 14.0135 17.7633V18.4658C14.0135 18.4839 14.0199 18.5028 14.0357 18.5186C14.0511 18.5341 14.0696 18.5408 14.0885 18.5408C14.5952 18.5409 15.1312 18.7258 15.4143 19.2169C15.6973 19.708 15.5882 20.2643 15.334 20.7033C15.3256 20.718 15.323 20.7371 15.3287 20.7582C15.3343 20.779 15.3461 20.7928 15.3615 20.8016L16.0418 21.1914L16.0756 21.1322C16.33 20.6936 16.7582 20.3221 17.3243 20.3219C17.8912 20.3219 18.3193 20.6945 18.5719 21.1343L18.573 21.1354L18.6047 21.1914L19.285 20.8016C19.3166 20.7833 19.332 20.74 19.3104 20.7012C19.0572 20.2626 18.9488 19.7071 19.2311 19.2169C19.5142 18.7257 20.0512 18.5408 20.558 18.5408C20.5767 18.5408 20.5944 18.5339 20.6098 18.5186C20.6256 18.5028 20.633 18.4839 20.633 18.4658V17.7633C20.633 17.7446 20.626 17.7269 20.6108 17.7115C20.595 17.6957 20.5761 17.6883 20.558 17.6883C20.0512 17.6883 19.5142 17.5035 19.2311 17.0122C18.9485 16.5213 19.0574 15.9647 19.3114 15.5258C19.3198 15.5112 19.3234 15.492 19.3178 15.4709C19.3122 15.4503 19.3003 15.4364 19.285 15.4276L18.6047 15.0378L18.5709 15.0969Z" fill="#001F3E"/>
<path d="M17.3623 17.1358C17.9231 17.1358 18.3773 17.5903 18.3775 18.151C18.3775 18.7119 17.9232 19.1673 17.3623 19.1673H17.3528C16.7922 19.1671 16.3376 18.7117 16.3376 18.151C16.3378 17.5905 16.7923 17.136 17.3528 17.1358H17.3623Z" fill="#001F3E"/>
<path fill-rule="evenodd" clip-rule="evenodd" d="M17.4363 14.3289C17.8078 13.7043 18.6258 13.4647 19.2776 13.8482L19.9632 14.2412C20.6565 14.6377 20.8906 15.524 20.4946 16.2093C20.4703 16.2513 20.4553 16.2867 20.446 16.3128C20.4731 16.3179 20.51 16.3213 20.558 16.3213C21.3481 16.3213 22 16.9645 22 17.7633V18.4658C22 19.256 21.3568 19.9078 20.558 19.9078C20.51 19.9078 20.4731 19.9113 20.446 19.9163C20.4553 19.9424 20.4703 19.9768 20.4946 20.0188L20.4967 20.023C20.8892 20.7102 20.6573 21.5921 19.9632 21.989L19.2776 22.3809C18.6258 22.7644 17.8079 22.5248 17.4363 21.9002C17.435 21.8981 17.4333 21.8961 17.4321 21.8939L17.3887 21.8178L17.3866 21.8147C17.363 21.7735 17.3409 21.7435 17.3232 21.7228C17.3049 21.744 17.2826 21.7749 17.2577 21.8178L17.2144 21.8939C17.2132 21.8961 17.2115 21.8981 17.2102 21.9002C16.8386 22.5248 16.0207 22.7644 15.3689 22.3809L14.6833 21.989C13.99 21.5925 13.7549 20.7052 14.1508 20.0198C14.1752 19.9778 14.1912 19.9424 14.2005 19.9163C14.1734 19.9113 14.1364 19.9078 14.0885 19.9078C13.2897 19.9078 12.6465 19.256 12.6465 18.4658V17.7633C12.6465 16.9732 13.2897 16.3213 14.0885 16.3213C14.1364 16.3213 14.1734 16.3179 14.2005 16.3128C14.1912 16.2867 14.1761 16.2523 14.1519 16.2104C13.756 15.5252 13.9893 14.6378 14.6822 14.2412L15.3689 13.8482C16.0207 13.4647 16.8386 13.7043 17.2102 14.3289C17.2115 14.3312 17.2131 14.334 17.2144 14.3363L17.2577 14.4113L17.2599 14.4145C17.2835 14.4556 17.3046 14.4856 17.3222 14.5064C17.3406 14.4851 17.3638 14.4542 17.3887 14.4113L17.4321 14.3363C17.4334 14.334 17.4349 14.3312 17.4363 14.3289ZM18.5709 15.0969C18.3165 15.5357 17.8875 15.9072 17.3211 15.9072C16.7545 15.907 16.3271 15.5345 16.0746 15.0948L16.0418 15.0378L15.3615 15.4276C15.3461 15.4363 15.3344 15.4502 15.3287 15.4709C15.323 15.492 15.3256 15.5112 15.334 15.5258C15.5883 15.9649 15.6973 16.5211 15.4143 17.0122C15.1312 17.5034 14.5952 17.6882 14.0885 17.6883C14.0696 17.6883 14.0511 17.695 14.0357 17.7105C14.0199 17.7263 14.0135 17.7452 14.0135 17.7633V18.4658C14.0135 18.4839 14.0199 18.5028 14.0357 18.5186C14.0511 18.5341 14.0696 18.5408 14.0885 18.5408C14.5952 18.5409 15.1312 18.7258 15.4143 19.2169C15.6973 19.708 15.5882 20.2643 15.334 20.7033C15.3256 20.718 15.323 20.7371 15.3287 20.7582C15.3343 20.779 15.3461 20.7928 15.3615 20.8016L16.0418 21.1914L16.0756 21.1322C16.33 20.6936 16.7582 20.3221 17.3243 20.3219C17.8912 20.3219 18.3193 20.6945 18.5719 21.1343L18.573 21.1354L18.6047 21.1914L19.285 20.8016C19.3166 20.7833 19.332 20.74 19.3104 20.7012C19.0572 20.2626 18.9488 19.7071 19.2311 19.2169C19.5142 18.7257 20.0512 18.5408 20.558 18.5408C20.5767 18.5408 20.5944 18.5339 20.6098 18.5186C20.6256 18.5028 20.633 18.4839 20.633 18.4658V17.7633C20.633 17.7446 20.626 17.7269 20.6108 17.7115C20.595 17.6957 20.5761 17.6883 20.558 17.6883C20.0512 17.6883 19.5142 17.5035 19.2311 17.0122C18.9485 16.5213 19.0574 15.9647 19.3114 15.5258C19.3198 15.5112 19.3234 15.492 19.3178 15.4709C19.3122 15.4503 19.3003 15.4364 19.285 15.4276L18.6047 15.0378L18.5709 15.0969Z" fill="#001F3E"/>
<path d="M17.3623 17.1358C17.9231 17.1358 18.3773 17.5903 18.3775 18.151C18.3775 18.7119 17.9232 19.1673 17.3623 19.1673H17.3528C16.7922 19.1671 16.3376 18.7117 16.3376 18.151C16.3378 17.5905 16.7923 17.136 17.3528 17.1358H17.3623Z" fill="#001F3E"/>
<path fill-rule="evenodd" clip-rule="evenodd" d="M17.4363 14.3289C17.8078 13.7043 18.6258 13.4647 19.2776 13.8482L19.9632 14.2412C20.6565 14.6377 20.8906 15.524 20.4946 16.2093C20.4703 16.2513 20.4553 16.2867 20.446 16.3128C20.4731 16.3179 20.51 16.3213 20.558 16.3213C21.3481 16.3213 22 16.9645 22 17.7633V18.4658C22 19.256 21.3568 19.9078 20.558 19.9078C20.51 19.9078 20.4731 19.9113 20.446 19.9163C20.4553 19.9424 20.4703 19.9768 20.4946 20.0188L20.4967 20.023C20.8892 20.7102 20.6573 21.5921 19.9632 21.989L19.2776 22.3809C18.6258 22.7644 17.8079 22.5248 17.4363 21.9002C17.435 21.8981 17.4333 21.8961 17.4321 21.8939L17.3887 21.8178L17.3866 21.8147C17.363 21.7735 17.3409 21.7435 17.3232 21.7228C17.3049 21.744 17.2826 21.7749 17.2577 21.8178L17.2144 21.8939C17.2132 21.8961 17.2115 21.8981 17.2102 21.9002C16.8386 22.5248 16.0207 22.7644 15.3689 22.3809L14.6833 21.989C13.99 21.5925 13.7549 20.7052 14.1508 20.0198C14.1752 19.9778 14.1912 19.9424 14.2005 19.9163C14.1734 19.9113 14.1364 19.9078 14.0885 19.9078C13.2897 19.9078 12.6465 19.256 12.6465 18.4658V17.7633C12.6465 16.9732 13.2897 16.3213 14.0885 16.3213C14.1364 16.3213 14.1734 16.3179 14.2005 16.3128C14.1912 16.2867 14.1761 16.2523 14.1519 16.2104C13.756 15.5252 13.9893 14.6378 14.6822 14.2412L15.3689 13.8482C16.0207 13.4647 16.8386 13.7043 17.2102 14.3289C17.2115 14.3312 17.2131 14.334 17.2144 14.3363L17.2577 14.4113L17.2599 14.4145C17.2835 14.4556 17.3046 14.4856 17.3222 14.5064C17.3406 14.4851 17.3638 14.4542 17.3887 14.4113L17.4321 14.3363C17.4334 14.334 17.4349 14.3312 17.4363 14.3289ZM18.5709 15.0969C18.3165 15.5357 17.8875 15.9072 17.3211 15.9072C16.7545 15.907 16.3271 15.5345 16.0746 15.0948L16.0418 15.0378L15.3615 15.4276C15.3461 15.4363 15.3344 15.4502 15.3287 15.4709C15.323 15.492 15.3256 15.5112 15.334 15.5258C15.5883 15.9649 15.6973 16.5211 15.4143 17.0122C15.1312 17.5034 14.5952 17.6882 14.0885 17.6883C14.0696 17.6883 14.0511 17.695 14.0357 17.7105C14.0199 17.7263 14.0135 17.7452 14.0135 17.7633V18.4658C14.0135 18.4839 14.0199 18.5028 14.0357 18.5186C14.0511 18.5341 14.0696 18.5408 14.0885 18.5408C14.5952 18.5409 15.1312 18.7258 15.4143 19.2169C15.6973 19.708 15.5882 20.2643 15.334 20.7033C15.3256 20.718 15.323 20.7371 15.3287 20.7582C15.3343 20.779 15.3461 20.7928 15.3615 20.8016L16.0418 21.1914L16.0756 21.1322C16.33 20.6936 16.7582 20.3221 17.3243 20.3219C17.8912 20.3219 18.3193 20.6945 18.5719 21.1343L18.573 21.1354L18.6047 21.1914L19.285 20.8016C19.3166 20.7833 19.332 20.74 19.3104 20.7012C19.0572 20.2626 18.9488 19.7071 19.2311 19.2169C19.5142 18.7257 20.0512 18.5408 20.558 18.5408C20.5767 18.5408 20.5944 18.5339 20.6098 18.5186C20.6256 18.5028 20.633 18.4839 20.633 18.4658V17.7633C20.633 17.7446 20.626 17.7269 20.6108 17.7115C20.595 17.6957 20.5761 17.6883 20.558 17.6883C20.0512 17.6883 19.5142 17.5035 19.2311 17.0122C18.9485 16.5213 19.0574 15.9647 19.3114 15.5258C19.3198 15.5112 19.3234 15.492 19.3178 15.4709C19.3122 15.4503 19.3003 15.4364 19.285 15.4276L18.6047 15.0378L18.5709 15.0969Z" fill="#001F3E"/>
</svg>
