<svg width="24" height="24" viewBox="0 0 24 24" fill="none" xmlns="http://www.w3.org/2000/svg">
<path d="M3.92967 1.81933C5.84504 1.68484 7.28421 1.658 9.69334 1.7705C10.5648 1.8112 11.3215 2.37205 11.623 3.18358L12.0283 4.27343C12.1247 4.5329 12.3706 4.70874 12.6474 4.71483C13.0312 4.72303 13.3923 4.72948 13.7344 4.73632C15.9261 4.78012 17.3687 4.80927 19.4336 4.98925C21.1543 5.13926 22.5056 6.52476 22.6142 8.24804C22.8563 12.0874 22.7676 15.2031 22.4033 18.2461C22.1774 20.1332 20.6599 21.6221 18.7715 21.8271C14.2767 22.3152 9.84358 22.3283 5.34568 21.8398C3.46287 21.6354 1.83918 20.2309 1.60154 18.2461C1.02719 13.4489 1.212 8.66028 1.75877 3.91405C1.88741 2.79839 2.78305 1.89999 3.92967 1.81933ZM9.624 3.26855C7.27071 3.15865 5.88999 3.18518 4.03514 3.31542C3.63283 3.34367 3.29674 3.66308 3.24803 4.08593C2.70962 8.75955 2.53474 13.4241 3.0908 18.0684C3.23692 19.2872 4.24391 20.2114 5.50779 20.3486C9.8953 20.8251 14.2203 20.8126 18.6103 20.3359C19.8093 20.2055 20.7706 19.2568 20.9131 18.0684C21.2654 15.1259 21.3542 12.1018 21.1172 8.34276C21.0552 7.3595 20.2846 6.56909 19.3037 6.48339C17.2916 6.30801 15.8992 6.28023 13.707 6.23632C13.3647 6.22946 13.0029 6.22212 12.6162 6.21386C11.7242 6.19481 10.9327 5.63241 10.6221 4.79589L10.2168 3.70605C10.1224 3.45209 9.88795 3.28099 9.624 3.26855ZM10.3222 9.70019C10.7363 9.70034 11.0722 10.0361 11.0722 10.4502C11.0721 10.8642 10.7363 11.2 10.3222 11.2002H9.28514C8.63569 11.2004 8.03139 11.7742 8.03123 12.581C8.03123 13.3881 8.63561 13.9627 9.28514 13.9629H10.3222C10.7363 13.963 11.0722 14.2988 11.0722 14.7129C11.0722 15.1269 10.7363 15.4627 10.3222 15.4629H9.28514C7.72143 15.4627 6.53123 14.1281 6.53123 12.581C6.53139 11.0342 7.72154 9.70036 9.28514 9.70019H10.3222ZM14.831 9.70019C16.3758 9.70019 17.5508 11.0181 17.5508 12.5449C17.5506 14.0716 16.3757 15.3896 14.831 15.3896H13.7597C13.3458 15.3894 13.01 15.0535 13.0097 14.6396C13.0097 14.2256 13.3457 13.8899 13.7597 13.8896H14.831C15.4615 13.8896 16.0506 13.3316 16.0508 12.5449C16.0508 11.7581 15.4616 11.2002 14.831 11.2002H13.7597C13.3458 11.2 13.0099 10.8642 13.0097 10.4502C13.0097 10.0361 13.3457 9.70041 13.7597 9.70019H14.831ZM12.7929 11.831C13.2069 11.8313 13.5428 12.1671 13.5429 12.581C13.5429 12.9951 13.207 13.3308 12.7929 13.331H11.2637C10.8494 13.331 10.5137 12.9953 10.5137 12.581C10.5138 12.167 10.8495 11.831 11.2637 11.831H12.7929Z" fill="#0033C9"/>
</svg>
