<svg width="24" height="24" viewBox="0 0 24 24" fill="none" xmlns="http://www.w3.org/2000/svg">
<path d="M5.07862 15.6744C5.26729 15.3056 5.12129 14.8537 4.75254 14.6651C4.38379 14.4764 3.93191 14.6224 3.74325 14.9911L1.71781 18.95C0.829111 20.687 2.09063 22.7494 4.04178 22.7494L19.9585 22.7494C21.9096 22.7494 23.1711 20.687 22.2824 18.95L20.257 14.9911C20.0683 14.6224 19.6165 14.4764 19.2477 14.6651C18.879 14.8537 18.733 15.3056 18.9216 15.6744L20.9471 19.6332C21.3251 20.3721 20.7885 21.2494 19.9585 21.2494H4.04178C3.21178 21.2494 2.67514 20.3721 3.05318 19.6332L5.07862 15.6744Z" fill="#001F3E"/>
<path d="M12.0466 17.1938L12.4335 17.8363C12.1955 17.9796 11.8978 17.9796 11.6598 17.8363L12.0466 17.1938Z" fill="#001F3E"/>
<path d="M12 9.27127C12.9034 9.27127 13.6357 8.53896 13.6357 7.63561C13.6357 6.73226 12.9034 5.99995 12 5.99995C11.0967 5.99995 10.3644 6.73226 10.3644 7.63561C10.3644 8.53896 11.0967 9.27127 12 9.27127Z" fill="#001F3E"/>
<path fill-rule="evenodd" clip-rule="evenodd" d="M12.0466 17.1938C11.6598 17.8363 11.6601 17.8365 11.6598 17.8363L11.6586 17.8356L11.6569 17.8346L11.6517 17.8314L11.635 17.8212C11.621 17.8125 11.6015 17.8003 11.5767 17.7846C11.5271 17.7531 11.4566 17.7075 11.3682 17.648C11.1914 17.5291 10.9425 17.3545 10.6454 17.1266C10.0524 16.6718 9.26163 16.0002 8.46914 15.1309C6.89293 13.402 5.25012 10.823 5.25012 7.56947C5.25012 5.98725 5.96003 4.12173 7.27889 2.97456C8.55894 1.86114 10.2753 1.25 12.0466 1.25C13.818 1.25 15.5343 1.86114 16.8144 2.97456C18.1332 4.12173 18.8431 5.98725 18.8431 7.56947C18.8431 10.823 17.2003 13.402 15.6241 15.1309C14.8316 16.0002 14.0409 16.6718 13.4478 17.1266C13.1508 17.3545 12.9018 17.5291 12.7251 17.648C12.6367 17.7075 12.5662 17.7531 12.5166 17.7846C12.4918 17.8003 12.4722 17.8125 12.4583 17.8212L12.4415 17.8314L12.4364 17.8346L12.4347 17.8356C12.4344 17.8358 12.4335 17.8363 12.0466 17.1938ZM11.5583 15.9364C11.7462 16.0805 11.9116 16.2001 12.0466 16.2945C12.1817 16.2001 12.3471 16.0805 12.535 15.9364C13.0757 15.5217 13.7965 14.9092 14.5156 14.1204C15.9627 12.5331 17.3431 10.3 17.3431 7.56947C17.3431 6.36193 16.779 4.93181 15.8299 4.10632C14.8421 3.24709 13.4825 2.75 12.0466 2.75C10.6107 2.75 9.25115 3.24709 8.26332 4.10632C7.31429 4.93181 6.75012 6.36193 6.75012 7.56947C6.75012 10.3 8.13057 12.5331 9.57762 14.1204C10.2968 14.9092 11.0176 15.5217 11.5583 15.9364Z" fill="#001F3E"/>
</svg>
