<svg width="24" height="24" viewBox="0 0 24 24" fill="none" xmlns="http://www.w3.org/2000/svg">
<path d="M12.5867 2.46913C12.8458 2.14594 12.7938 1.67392 12.4706 1.41484C12.1474 1.15576 11.6754 1.20773 11.4163 1.53092L9.50264 3.91817C9.35072 4.06387 9.26339 4.27048 9.27171 4.48792C9.27692 4.70138 9.37277 4.91118 9.55241 5.05518C9.77217 5.23135 10.0607 5.2637 10.3044 5.16475C10.8615 5.04131 11.4265 4.97 12.0013 4.97C16.4971 4.97 20.1414 8.61423 20.1414 13.11C20.1414 17.6058 16.4971 21.25 12.0013 21.25C7.50556 21.25 3.86133 17.6058 3.86133 13.11C3.86133 11.2865 4.4898 9.61208 5.51135 8.25002C5.75987 7.91865 5.69272 7.44855 5.36135 7.20002C5.02998 6.95149 4.55987 7.01865 4.31135 7.35002C3.11289 8.94796 2.36133 10.9335 2.36133 13.11C2.36133 18.4342 6.67713 22.75 12.0013 22.75C17.3256 22.75 21.6414 18.4342 21.6414 13.11C21.6414 7.7858 17.3256 3.47 12.0013 3.47C11.928 3.47 11.8549 3.47096 11.7821 3.47283L12.5867 2.46913Z" fill="#001F3E"/>
<path d="M10.2915 10.58C10.2915 10.2694 10.1 9.99086 9.80986 9.8797C9.51976 9.76854 9.19115 9.84775 8.98354 10.0789L7.48354 11.7489C7.20675 12.057 7.23218 12.5312 7.54034 12.808C7.84849 13.0848 8.32269 13.0594 8.59948 12.7512L8.79151 12.5374V15.92C8.79151 16.3342 9.1273 16.67 9.54151 16.67C9.95572 16.67 10.2915 16.3342 10.2915 15.92V10.58Z" fill="#001F3E"/>
<path fill-rule="evenodd" clip-rule="evenodd" d="M14.0015 9.83005C12.4897 9.83005 11.2515 11.0534 11.2515 12.58V13.93C11.2515 15.4442 12.4873 16.68 14.0015 16.68C15.5157 16.68 16.7515 15.4442 16.7515 13.93V12.58C16.7515 11.0658 15.5157 9.83005 14.0015 9.83005ZM12.7515 12.58C12.7515 11.8867 13.3132 11.33 14.0015 11.33C14.6873 11.33 15.2515 11.8943 15.2515 12.58V13.93C15.2515 14.6158 14.6873 15.18 14.0015 15.18C13.3157 15.18 12.7515 14.6158 12.7515 13.93V12.58Z" fill="#001F3E"/>
</svg>
