<svg width="24" height="24" viewBox="0 0 24 24" fill="none" xmlns="http://www.w3.org/2000/svg">
<path fill-rule="evenodd" clip-rule="evenodd" d="M1.25 12C1.25 6.06294 6.06294 1.25 12 1.25C17.9371 1.25 22.75 6.06294 22.75 12C22.75 17.9371 17.9371 22.75 12 22.75C6.06294 22.75 1.25 17.9371 1.25 12ZM12 2.75C11.2239 2.75 10.47 2.84559 9.74966 3.02565C9.74723 3.09691 9.73462 3.16827 9.71149 3.23754C9.30236 4.46283 8.98139 5.70983 8.7486 6.96919C10.9094 6.72691 13.0909 6.72691 15.2517 6.96917C15.0189 5.70981 14.6979 4.4628 14.2888 3.2375C14.2654 3.16729 14.2529 3.09606 14.2505 3.02568C13.5301 2.8456 12.7762 2.75 12 2.75ZM15.4916 8.50853C13.1735 8.21379 10.8268 8.21379 8.50866 8.50855C8.21391 10.8267 8.21391 13.1734 8.50866 15.4915C10.8268 15.7862 13.1735 15.7862 15.4916 15.4914C15.7864 13.1733 15.7864 10.8266 15.4916 8.50853ZM7.18723 7.18712C7.3807 6.03023 7.64444 4.88226 7.97843 3.74969C7.93258 3.74839 7.88776 3.74298 7.84433 3.7338C6.01835 4.65358 4.53889 6.16058 3.65396 8.00678C4.81759 7.65928 5.99769 7.38606 7.18723 7.18712ZM3.02563 9.74974C3.09611 9.74732 3.16744 9.73484 3.23774 9.71137C4.463 9.30225 5.70997 8.98129 6.9693 8.7485C6.72703 10.9093 6.72703 13.0908 6.9693 15.2515C5.70991 15.0187 4.46287 14.6978 3.23754 14.2886C3.16828 14.2655 3.09693 14.2529 3.02567 14.2504C2.8456 13.53 2.75 12.7762 2.75 12C2.75 11.2239 2.84559 10.4701 3.02563 9.74974ZM17.031 8.74848C18.2904 8.98127 19.5374 9.30223 20.7627 9.71137C20.8328 9.7348 20.904 9.74727 20.9744 9.74972C21.1544 10.4701 21.25 11.2239 21.25 12C21.25 12.7762 21.1544 13.53 20.9743 14.2504C20.9031 14.2529 20.8317 14.2655 20.7625 14.2886C19.5372 14.6977 18.2903 15.0187 17.031 15.2515C17.2733 13.0907 17.2733 10.9092 17.031 8.74848ZM20.346 8.00664C19.1825 7.6592 18.0025 7.38602 16.8131 7.1871C16.6142 5.99766 16.341 4.81765 15.9935 3.6541C17.894 4.56512 19.435 6.10615 20.346 8.00664ZM3.74969 16.0217C3.74839 16.0675 3.74298 16.1123 3.73382 16.1557C4.62647 17.9278 6.07222 19.3736 7.84433 20.2662C7.88776 20.257 7.93258 20.2516 7.97843 20.2503C7.64444 19.1177 7.38071 17.9698 7.18723 16.8129C6.0303 16.6194 4.8823 16.3557 3.74969 16.0217ZM15.2517 17.0308C13.0909 17.2731 10.9094 17.2731 8.7486 17.0308C8.9814 18.2902 9.30236 19.5372 9.71149 20.7625C9.73462 20.8317 9.74723 20.9031 9.74966 20.9744C10.47 21.1544 11.2239 21.25 12 21.25C12.7762 21.25 13.53 21.1544 14.2504 20.9743C14.2529 20.9039 14.2654 20.8327 14.2888 20.7624C14.6979 19.5371 15.0189 18.2901 15.2517 17.0308ZM15.9935 20.3459C16.341 19.1823 16.6141 18.0023 16.8131 16.8128C17.9699 16.6194 19.1178 16.3556 20.2503 16.0217C20.2516 16.0675 20.257 16.1123 20.2662 16.1557C19.3465 17.9816 17.8396 19.461 15.9935 20.3459Z" fill="#001F3E"/>
</svg>
