<svg width="24" height="24" viewBox="0 0 24 24" fill="none" xmlns="http://www.w3.org/2000/svg">
<path d="M18.0778 8.82039C17.5829 6.57551 16.3996 5.01508 14.8749 4.11633C13.2511 3.15918 11.3129 2.99519 9.56522 3.45336C7.81753 3.91153 6.20717 5.00575 5.25597 6.63528C4.41054 8.08363 4.11857 9.89914 4.64807 11.954C-0.0638287 13.0862 0.252537 20.3846 5.51629 20.7582C5.92947 20.7875 6.28818 20.4763 6.3175 20.0632C6.34683 19.65 6.03565 19.2913 5.62248 19.262C1.89761 18.9976 1.90261 13.6015 5.60193 13.3197C6.05926 13.3153 6.52102 13.4255 6.93894 13.6384C7.30802 13.8264 7.75964 13.6796 7.94766 13.3105C8.13569 12.9414 7.98891 12.4898 7.61983 12.3018C7.16827 12.0718 6.67896 11.9195 6.17683 11.8549C5.63346 10.0248 5.89001 8.52456 6.55142 7.39146C7.27679 6.1488 8.53206 5.2749 9.94561 4.90432C11.3592 4.53374 12.8779 4.68038 14.1132 5.40854C15.1815 6.03829 16.0942 7.13592 16.5403 8.8412C16.1757 8.92341 15.8221 9.05027 15.4841 9.21929C15.1136 9.40453 14.9634 9.85503 15.1487 10.2255C15.3339 10.596 15.7844 10.7462 16.1549 10.5609C16.5681 10.3543 17.0082 10.2427 17.4634 10.2306C21.0434 10.7794 22.4897 15.6366 19.7354 18.0456L19.7247 18.0551C18.8723 18.83 17.7638 19.2587 16.6148 19.2501C16.2006 19.247 15.8623 19.5803 15.8592 19.9945C15.8561 20.4087 16.1894 20.747 16.6036 20.7501C18.1321 20.7615 19.6014 20.192 20.7283 19.1699C24.336 16.0069 22.6261 9.83287 18.0778 8.82039Z" fill="#001F3E"/>
<path d="M10.4996 19.4698C10.7925 19.7627 10.7925 20.2376 10.4996 20.5305L8.49957 22.5305C8.20668 22.8233 7.7318 22.8233 7.43891 22.5305C7.14602 22.2376 7.14602 21.7627 7.43891 21.4698L9.43891 19.4698C9.7318 19.1769 10.2067 19.1769 10.4996 19.4698Z" fill="#001F3E"/>
<path d="M14.4996 20.5305C14.7925 20.2376 14.7925 19.7627 14.4996 19.4698C14.2067 19.1769 13.7318 19.1769 13.4389 19.4698L11.4389 21.4698C11.146 21.7627 11.146 22.2376 11.4389 22.5305C11.7318 22.8233 12.2067 22.8233 12.4996 22.5305L14.4996 20.5305Z" fill="#001F3E"/>
<path d="M14.4996 15.4698C14.7925 15.7627 14.7925 16.2376 14.4996 16.5305L12.4996 18.5305C12.2067 18.8233 11.7318 18.8233 11.4389 18.5305C11.146 18.2376 11.146 17.7627 11.4389 17.4698L13.4389 15.4698C13.7318 15.1769 14.2067 15.1769 14.4996 15.4698Z" fill="#001F3E"/>
<path d="M10.4996 16.5305C10.7925 16.2376 10.7925 15.7627 10.4996 15.4698C10.2067 15.1769 9.7318 15.1769 9.43891 15.4698L7.43891 17.4698C7.14602 17.7627 7.14602 18.2376 7.43891 18.5305C7.7318 18.8233 8.20668 18.8233 8.49957 18.5305L10.4996 16.5305Z" fill="#001F3E"/>
</svg>
