<svg width="24" height="24" viewBox="0 0 24 24" fill="none" xmlns="http://www.w3.org/2000/svg">
<path d="M15.2808 9.53033C15.5737 9.23744 15.5737 8.76256 15.2808 8.46967C14.9879 8.17678 14.5131 8.17678 14.2202 8.46967L10.7505 11.9393L9.78082 10.9697C9.48793 10.6768 9.01305 10.6768 8.72016 10.9697C8.42727 11.2626 8.42727 11.7374 8.72016 12.0303L10.2202 13.5303C10.5131 13.8232 10.9879 13.8232 11.2808 13.5303L15.2808 9.53033Z" fill="#001F3E"/>
<path fill-rule="evenodd" clip-rule="evenodd" d="M12.0049 1.25C15.9855 1.25269 20.0407 3.60029 21.1122 8.33441C22.3549 13.8239 18.929 18.3834 16.1211 21.08C13.8198 23.3008 10.1806 23.2989 7.87118 21.0809L7.87023 21.08C5.07248 18.3836 1.6465 13.8139 2.8892 8.32441C3.96613 3.5903 8.02431 1.24731 12.0049 1.25ZM4.35211 8.65591C5.24533 4.73032 8.5872 2.74769 12.0039 2.75C15.4209 2.75231 18.7607 4.73971 19.6492 8.66556C20.7063 13.3354 17.8132 17.3756 15.0812 19.999L15.0798 20.0004C13.3614 21.659 10.6414 21.661 8.91088 19.9997C6.18877 17.3762 3.29505 13.3261 4.35211 8.65591Z" fill="#001F3E"/>
</svg>
