<svg width="24" height="24" viewBox="0 0 24 24" fill="none" xmlns="http://www.w3.org/2000/svg">
<path d="M7.16076 1.56346C7.57259 1.5191 7.94241 1.81699 7.98677 2.22882C8.03114 2.64065 7.73324 3.01047 7.32141 3.05483C6.7652 3.11475 6.2134 3.17872 5.6632 3.24251L5.54973 3.25567C4.34747 3.39501 3.38732 4.35617 3.25265 5.55575C3.18714 6.13923 3.1215 6.72491 3.06055 7.3153C3.018 7.72732 2.64951 8.02685 2.23748 7.9843C1.82546 7.94176 1.52594 7.57327 1.56848 7.16124C1.63023 6.5632 1.69659 5.9711 1.76201 5.38839C1.97495 3.49175 3.48433 1.98501 5.37703 1.76564L5.49165 1.75235C6.04063 1.6887 6.59821 1.62406 7.16076 1.56346Z" fill="#001F3E"/>
<path d="M17.0203 1.56346C16.6084 1.5191 16.2386 1.81699 16.1943 2.22882C16.1499 2.64065 16.4478 3.01047 16.8596 3.05483C17.4159 3.11475 17.9677 3.17873 18.5179 3.24252L18.6313 3.25567C19.8336 3.39501 20.7937 4.35617 20.9284 5.55575C20.9939 6.13923 21.0595 6.72491 21.1205 7.3153C21.163 7.72732 21.5315 8.02685 21.9435 7.9843C22.3556 7.94176 22.6551 7.57327 22.6126 7.16124C22.5508 6.5632 22.4844 5.9711 22.419 5.38839C22.2061 3.49175 20.6967 1.98501 18.804 1.76564L18.6894 1.75235C18.1405 1.68871 17.5827 1.62405 17.0203 1.56346Z" fill="#001F3E"/>
<path fill-rule="evenodd" clip-rule="evenodd" d="M9.02257 5.29742C8.50864 5.29742 8.01158 5.33947 7.54561 5.3892C6.42017 5.5093 5.5148 6.41334 5.3995 7.54249C5.35219 8.00588 5.31293 8.49833 5.31293 9.00707C5.31293 9.5158 5.35219 10.0083 5.3995 10.4717C5.5148 11.6008 6.42017 12.5048 7.54561 12.6249C8.01158 12.6747 8.50864 12.7167 9.02257 12.7167C9.5365 12.7167 10.0336 12.6747 10.4995 12.6249C11.625 12.5048 12.5303 11.6008 12.6456 10.4717C12.693 10.0083 12.7322 9.5158 12.7322 9.00707C12.7322 8.49833 12.693 8.00588 12.6456 7.54249C12.5303 6.41334 11.625 5.5093 10.4995 5.3892C10.0336 5.33947 9.5365 5.29742 9.02257 5.29742ZM7.70477 6.88073C8.15084 6.83313 8.58699 6.79742 9.02257 6.79742C9.45816 6.79742 9.8943 6.83313 10.3404 6.88073C10.764 6.92593 11.1104 7.27422 11.1534 7.69485C11.1986 8.13772 11.2322 8.57246 11.2322 9.00707C11.2322 9.44168 11.1986 9.87642 11.1534 10.3193C11.1104 10.7399 10.764 11.0882 10.3404 11.1334C9.8943 11.181 9.45816 11.2167 9.02257 11.2167C8.58699 11.2167 8.15084 11.181 7.70477 11.1334C7.28117 11.0882 6.93469 10.7399 6.89175 10.3193C6.84653 9.87642 6.81293 9.44168 6.81293 9.00707C6.81293 8.57246 6.84653 8.13772 6.89174 7.69485C6.93469 7.27422 7.28117 6.92593 7.70477 6.88073Z" fill="#001F3E"/>
<path d="M16.1943 21.928C16.2386 22.3399 16.6084 22.6378 17.0203 22.5934C17.582 22.5329 18.1388 22.4683 18.687 22.4048L18.804 22.3912C20.6967 22.1719 22.2061 20.6651 22.419 18.7685C22.4844 18.1858 22.5508 17.5937 22.6126 16.9956C22.6551 16.5836 22.3556 16.2151 21.9435 16.1726C21.5315 16.13 21.163 16.4295 21.1205 16.8416C21.0595 17.432 20.9939 18.0176 20.9284 18.6011C20.7937 19.8007 19.8336 20.7619 18.6313 20.9012L18.5179 20.9143L18.5167 20.9145C17.9671 20.9782 17.4153 21.0422 16.8596 21.102C16.4478 21.1464 16.1499 21.5162 16.1943 21.928Z" fill="#001F3E"/>
<path d="M7.98677 21.928C7.94241 22.3399 7.57259 22.6378 7.16076 22.5934C6.59894 22.5329 6.04209 22.4683 5.49381 22.4048L5.49229 22.4046L5.37703 22.3912C3.48433 22.1719 1.97495 20.6651 1.76201 18.7685C1.69659 18.1858 1.63023 17.5937 1.56848 16.9956C1.52594 16.5836 1.82546 16.2151 2.23748 16.1726C2.64951 16.13 3.018 16.4295 3.06055 16.8416C3.1215 17.432 3.18714 18.0176 3.25265 18.6011C3.38732 19.8007 4.34747 20.7619 5.54973 20.9012L5.6631 20.9143C6.21313 20.9781 6.76537 21.0421 7.32141 21.102C7.73324 21.1464 8.03114 21.5162 7.98677 21.928Z" fill="#001F3E"/>
<path d="M7.35297 15.648C7.35297 15.2338 7.01718 14.898 6.60297 14.898C6.18875 14.898 5.85297 15.2338 5.85297 15.648L5.85297 18.1126C5.85297 18.5268 6.18875 18.8626 6.60297 18.8626H9.02218C9.4364 18.8626 9.77218 18.5268 9.77218 18.1126C9.77218 17.6983 9.4364 17.3626 9.02218 17.3626H7.35297V15.648Z" fill="#001F3E"/>
<path d="M18.0522 18.8629C17.638 18.8629 17.3022 18.5271 17.3022 18.1129V16.3983H15.633C15.2188 16.3983 14.883 16.0625 14.883 15.6483C14.883 15.2341 15.2188 14.8983 15.633 14.8983H18.0522C18.4664 14.8983 18.8022 15.2341 18.8022 15.6483V18.1129C18.8022 18.5271 18.4664 18.8629 18.0522 18.8629Z" fill="#001F3E"/>
<path d="M18.0961 12.7921C18.5103 12.7921 18.8461 12.4563 18.8461 12.0421C18.8461 11.6278 18.5103 11.2921 18.0961 11.2921H15.6769C15.2627 11.2921 14.9269 11.6278 14.9269 12.0421C14.9269 12.4563 15.2627 12.7921 15.6769 12.7921H18.0961Z" fill="#001F3E"/>
<path d="M11.9824 18.8399C11.5681 18.8399 11.2324 18.5041 11.2324 18.0899V15.6707C11.2324 15.2565 11.5681 14.9207 11.9824 14.9207C12.3966 14.9207 12.7324 15.2565 12.7324 15.6707V18.0899C12.7324 18.5041 12.3966 18.8399 11.9824 18.8399Z" fill="#001F3E"/>
<path d="M17.3022 9.00739C17.3022 9.4216 17.638 9.75739 18.0522 9.75739C18.4664 9.75739 18.8022 9.4216 18.8022 9.00739V6.54284C18.8022 6.12862 18.4664 5.79284 18.0522 5.79284H15.633C15.2188 5.79284 14.883 6.12862 14.883 6.54284C14.883 6.95705 15.2188 7.29284 15.633 7.29284H17.3022V9.00739Z" fill="#001F3E"/>
</svg>
