<svg width="24" height="24" viewBox="0 0 24 24" fill="none" xmlns="http://www.w3.org/2000/svg">
<path fill-rule="evenodd" clip-rule="evenodd" d="M21 17C21 20 19.5 22 16 22H8C4.5 22 3 20 3 17V7C3 4 4.5 2 8 2H16C19.5 2 21 4 21 7V17ZM7.5 6.25C7.08579 6.25 6.75 6.58579 6.75 7C6.75 7.41421 7.08579 7.75 7.5 7.75H16.5C16.9142 7.75 17.25 7.41421 17.25 7C17.25 6.58579 16.9142 6.25 16.5 6.25H7.5ZM6.75 12C6.75 11.5858 7.08579 11.25 7.5 11.25H16.5C16.9142 11.25 17.25 11.5858 17.25 12C17.25 12.4142 16.9142 12.75 16.5 12.75H7.5C7.08579 12.75 6.75 12.4142 6.75 12ZM7.5 16.25C7.08579 16.25 6.75 16.5858 6.75 17C6.75 17.4142 7.08579 17.75 7.5 17.75H12.875C13.2892 17.75 13.625 17.4142 13.625 17C13.625 16.5858 13.2892 16.25 12.875 16.25H7.5Z" fill="#001F3E"/>
</svg>
