<svg width="24" height="24" viewBox="0 0 24 24" fill="none" xmlns="http://www.w3.org/2000/svg">
<path d="M12.9249 4.25738C13.7154 4.89874 14.2074 5.9363 14.3528 7.62434C14.3883 8.03702 14.7517 8.34276 15.1643 8.30722C15.577 8.27169 15.8828 7.90833 15.8472 7.49564C15.6826 5.58368 15.0947 4.08624 13.8701 3.0926C12.6662 2.11574 10.9837 1.73999 8.89 1.73999H8.76C6.45082 1.73999 4.63905 2.19778 3.42342 3.41341C2.20779 4.62904 1.75 6.44081 1.75 8.74999V15.27C1.75 17.5792 2.20779 19.3909 3.42342 20.6066C4.63905 21.8222 6.45082 22.28 8.76 22.28H8.89C10.9685 22.28 12.6408 21.9093 13.8423 20.9481C15.0654 19.9697 15.6611 18.4941 15.8368 16.6096C15.8752 16.1972 15.572 15.8317 15.1596 15.7932C14.7472 15.7548 14.3817 16.058 14.3432 16.4704C14.1889 18.1259 13.6946 19.1453 12.9052 19.7768C12.0942 20.4257 10.8315 20.78 8.89 20.78H8.76C6.59918 20.78 5.28095 20.3428 4.48408 19.5459C3.68721 18.749 3.25 17.4308 3.25 15.27V8.74999C3.25 6.58917 3.68721 5.27094 4.48408 4.47407C5.28095 3.6772 6.59918 3.23999 8.76 3.23999H8.89C10.8463 3.23999 12.1138 3.59924 12.9249 4.25738Z" fill="#001F3E"/>
<path d="M19.6893 11.25L17.6196 9.18029C17.3267 8.8874 17.3267 8.41253 17.6196 8.11963C17.9125 7.82674 18.3874 7.82674 18.6803 8.11963L22.0303 11.4696C22.3232 11.7625 22.3232 12.2374 22.0303 12.5303L18.6803 15.8803C18.3874 16.1732 17.9125 16.1732 17.6196 15.8803C17.3267 15.5874 17.3267 15.1125 17.6196 14.8196L19.6893 12.75H8.99983C8.58562 12.75 8.24983 12.4142 8.24983 12C8.24983 11.5858 8.58562 11.25 8.99983 11.25H19.6893Z" fill="#001F3E"/>
</svg>
