<svg width="24" height="24" viewBox="0 0 24 24" fill="none" xmlns="http://www.w3.org/2000/svg">
<path d="M15.2869 10.2934C14.8335 9.82453 14.1076 9.95279 13.6618 10.4294C13.4312 10.6759 13.1881 10.9419 12.9402 11.2174C12.2187 10.8761 11.4215 10.5533 10.8793 10.3424C10.4972 10.1938 10.0389 10.3057 9.76789 10.6061C9.45807 10.9496 9.48972 11.4306 9.84602 11.7061C10.2674 12.0318 10.8471 12.4711 11.4124 12.8705C11.4278 12.8814 11.4435 12.892 11.4593 12.9023C11.0271 13.4034 10.6316 13.8688 10.3213 14.2364C9.96405 14.1766 9.59707 14.1283 9.31206 14.0942C9.01313 14.0585 8.73938 14.2621 8.67001 14.5649C8.60064 14.8676 8.75692 15.1766 9.03959 15.2833C9.34259 15.3977 9.74599 15.5441 10.1316 15.6656C10.2492 16.0644 10.3908 16.4815 10.5014 16.7949C10.6046 17.0871 10.9034 17.2487 11.1963 17.177C11.4891 17.1053 11.686 16.8222 11.6515 16.5131C11.6183 16.2167 11.5712 15.8346 11.513 15.4631C11.8532 15.1484 12.281 14.7505 12.7427 14.3156C12.7831 14.3783 12.8276 14.4381 12.8761 14.4944C13.331 15.0235 13.8261 15.5622 14.1921 15.953C14.5016 16.2834 14.9671 16.2547 15.2572 15.8933C15.511 15.5773 15.5602 15.093 15.3691 14.72C15.1093 14.213 14.7213 13.4792 14.3208 12.806C14.6136 12.5205 14.8968 12.2402 15.1579 11.9763C15.6163 11.5127 15.7404 10.7622 15.2869 10.2934Z" fill="#001F3E"/>
<path fill-rule="evenodd" clip-rule="evenodd" d="M19.2869 13.3278V13.2397C19.287 11.3246 19.287 9.23173 18.9548 7.46401C18.7523 6.38652 17.922 5.55208 16.8631 5.32015C16.4128 5.22152 15.9741 5.15442 15.5257 5.10876V3.25369C15.5257 2.14709 14.6286 1.25 13.522 1.25L10.7012 1.25C9.59459 1.25 8.69751 2.14708 8.69751 3.25369V5.1445C8.35671 5.18758 8.01867 5.24462 7.67384 5.32015C6.61496 5.55208 5.78469 6.38652 5.58218 7.46401C5.24996 9.23174 5.24998 11.3246 5.25 13.2397L5.25 13.3278C5.24998 15.243 5.24996 17.3358 5.58218 19.1035C5.78469 20.181 6.61496 21.0154 7.67383 21.2474C7.80716 21.2766 7.93947 21.303 8.07131 21.3269V22.0601C8.07131 22.4743 8.4071 22.8101 8.82131 22.8101C9.23553 22.8101 9.57131 22.4743 9.57131 22.0601V21.5049C10.3614 21.556 11.206 21.5559 12.2131 21.5559H12.3238C13.3314 21.5559 14.1763 21.556 14.9666 21.5049V22.0601C14.9666 22.4743 15.3024 22.8101 15.7166 22.8101C16.1308 22.8101 16.4666 22.4743 16.4666 22.0601V21.3268C16.5981 21.3029 16.7301 21.2765 16.8631 21.2474C17.922 21.0154 18.7522 20.181 18.9548 19.1035C19.287 17.3358 19.287 15.243 19.2869 13.3278ZM17.4806 7.74107C17.7843 9.35745 17.7869 11.3176 17.7869 13.2838C17.7869 15.25 17.7843 17.2101 17.4806 18.8264C17.3915 19.3002 17.0252 19.6763 16.5422 19.7821C15.3064 20.0528 14.1678 20.0559 12.2685 20.0559C10.3691 20.0559 9.23055 20.0528 7.99477 19.7821C7.51176 19.6763 7.14542 19.3002 7.05637 18.8264C6.75259 17.2101 6.75 15.25 6.75 13.2838C6.75 11.3176 6.75259 9.35745 7.05637 7.74107C7.14542 7.26728 7.51176 6.89121 7.99477 6.78542C9.23055 6.51474 10.3691 6.5116 12.2685 6.5116C14.1678 6.5116 15.3064 6.51474 16.5422 6.78542C17.0252 6.89121 17.3915 7.26728 17.4806 7.74107ZM14.0257 3.25369V5.02351C13.5033 5.01158 12.9444 5.01159 12.3238 5.0116H12.2132C11.4666 5.01158 10.8094 5.01157 10.1975 5.03235L10.1975 3.25369C10.1975 2.97551 10.423 2.75 10.7012 2.75H13.522C13.8002 2.75 14.0257 2.97551 14.0257 3.25369Z" fill="#001F3E"/>
</svg>
