<svg width="24" height="24" viewBox="0 0 24 24" fill="none" xmlns="http://www.w3.org/2000/svg">
<path fill-rule="evenodd" clip-rule="evenodd" d="M4 1.25C2.48122 1.25 1.25 2.48122 1.25 4V8C1.25 9.51878 2.48122 10.75 4 10.75H8C9.51878 10.75 10.75 9.51878 10.75 8V4C10.75 2.48122 9.51878 1.25 8 1.25H4ZM2.75 4C2.75 3.30964 3.30964 2.75 4 2.75H8C8.69036 2.75 9.25 3.30964 9.25 4V8C9.25 8.69036 8.69036 9.25 8 9.25H4C3.30964 9.25 2.75 8.69036 2.75 8V4Z" fill="#001F3E"/>
<path fill-rule="evenodd" clip-rule="evenodd" d="M4 13.25C2.48122 13.25 1.25 14.4812 1.25 16V20C1.25 21.5188 2.48122 22.75 4 22.75H8C9.51878 22.75 10.75 21.5188 10.75 20V16C10.75 14.4812 9.51878 13.25 8 13.25H4ZM2.75 16C2.75 15.3096 3.30964 14.75 4 14.75H8C8.69036 14.75 9.25 15.3096 9.25 16V20C9.25 20.6904 8.69036 21.25 8 21.25H4C3.30964 21.25 2.75 20.6904 2.75 20V16Z" fill="#001F3E"/>
<path fill-rule="evenodd" clip-rule="evenodd" d="M13.25 4C13.25 2.48122 14.4812 1.25 16 1.25H20C21.5188 1.25 22.75 2.48122 22.75 4V8C22.75 9.51878 21.5188 10.75 20 10.75H16C14.4812 10.75 13.25 9.51878 13.25 8V4ZM16 2.75C15.3096 2.75 14.75 3.30964 14.75 4V8C14.75 8.69036 15.3096 9.25 16 9.25H20C20.6904 9.25 21.25 8.69036 21.25 8V4C21.25 3.30964 20.6904 2.75 20 2.75H16Z" fill="#001F3E"/>
<path fill-rule="evenodd" clip-rule="evenodd" d="M16 13.25C14.4812 13.25 13.25 14.4812 13.25 16V20C13.25 21.5188 14.4812 22.75 16 22.75H20C21.5188 22.75 22.75 21.5188 22.75 20V16C22.75 14.4812 21.5188 13.25 20 13.25H16ZM14.75 16C14.75 15.3096 15.3096 14.75 16 14.75H20C20.6904 14.75 21.25 15.3096 21.25 16V20C21.25 20.6904 20.6904 21.25 20 21.25H16C15.3096 21.25 14.75 20.6904 14.75 20V16Z" fill="#001F3E"/>
</svg>
