<svg width="24" height="24" viewBox="0 0 24 24" fill="none" xmlns="http://www.w3.org/2000/svg">
<path d="M2.25 7V17C2.25 18.615 2.65342 20.0758 3.6377 21.1357C4.63131 22.2057 6.10712 22.75 8 22.75H12C12.4142 22.75 12.75 22.4142 12.75 22C12.75 21.5858 12.4142 21.25 12 21.25H8C6.39295 21.25 5.36869 20.7942 4.7373 20.1143C4.09664 19.4242 3.75 18.385 3.75 17V7C3.75 5.61505 4.09664 4.57576 4.7373 3.88574C5.36869 3.20579 6.39295 2.75 8 2.75H16C17.607 2.75 18.6313 3.20579 19.2627 3.88574C19.9034 4.57576 20.25 5.61505 20.25 7V11.5C20.25 11.9142 20.5858 12.25 21 12.25C21.4142 12.25 21.75 11.9142 21.75 11.5V7C21.75 5.38503 21.3466 3.92424 20.3623 2.86426C19.3687 1.79428 17.8929 1.25 16 1.25H8C6.10712 1.25 4.63131 1.79428 3.6377 2.86426C2.65342 3.92424 2.25 5.38503 2.25 7Z" fill="#001F3E"/>
<path d="M16.5 6.25C16.9142 6.25 17.25 6.58579 17.25 7C17.25 7.41421 16.9142 7.75 16.5 7.75H7.5C7.08579 7.75 6.75 7.41421 6.75 7C6.75 6.58579 7.08579 6.25 7.5 6.25H16.5Z" fill="#001F3E"/>
<path d="M16.5 10.25C16.9142 10.25 17.25 10.5858 17.25 11C17.25 11.4142 16.9142 11.75 16.5 11.75H7.5C7.08579 11.75 6.75 11.4142 6.75 11C6.75 10.5858 7.08579 10.25 7.5 10.25H16.5Z" fill="#001F3E"/>
<path d="M10.5 14.25C10.9142 14.25 11.25 14.5858 11.25 15C11.25 15.4142 10.9142 15.75 10.5 15.75H7.5C7.08579 15.75 6.75 15.4142 6.75 15C6.75 14.5858 7.08579 14.25 7.5 14.25H10.5Z" fill="#001F3E"/>
<path fill-rule="evenodd" clip-rule="evenodd" d="M19.7123 14.0096C20.3755 13.9415 20.9858 14.2394 21.5293 14.7829C22.0759 15.3294 22.3774 15.941 22.3116 16.6058C22.2497 17.2309 21.8769 17.7159 21.5293 18.0635L21.1166 18.4763C21.0635 18.5539 20.9968 18.62 20.9208 18.672L17.9969 21.5959C17.8503 21.7495 17.67 21.8612 17.5219 21.9352C17.366 22.0132 17.1766 22.0839 16.9859 22.114L16.9735 22.116L15.625 22.3057C15.1835 22.3685 14.7275 22.2524 14.3986 21.9235C14.0697 21.5946 13.9535 21.1395 14.0164 20.698L14.208 19.3362C14.2386 19.1425 14.3109 18.9542 14.3885 18.8008C14.4661 18.6475 14.5763 18.4752 14.7186 18.3329L17.7148 15.3366C17.7355 15.3131 17.7578 15.2909 17.7814 15.27L18.2586 14.7928C18.6063 14.4452 19.0902 14.0735 19.7123 14.0096ZM18.0464 17.1264L15.7806 19.3922C15.7806 19.3922 15.7745 19.3992 15.7652 19.4127C15.7534 19.4299 15.7399 19.4524 15.7269 19.478C15.714 19.5037 15.7038 19.5278 15.6969 19.5477C15.6926 19.5601 15.6905 19.5678 15.6898 19.5708L15.5159 20.8062L16.752 20.6323C16.7552 20.6315 16.7643 20.6292 16.7791 20.6241C16.8004 20.6168 16.8255 20.6064 16.851 20.5936C16.8767 20.5808 16.8971 20.5684 16.9108 20.5589L16.918 20.5537L16.9286 20.5428L19.194 18.2775C18.7356 17.9779 18.3446 17.5858 18.0464 17.1264ZM20.2929 17.1786C19.7899 16.9372 19.3854 16.5308 19.1464 16.0264L19.3193 15.8535C19.5816 15.5912 19.7577 15.5128 19.8656 15.5018C19.9324 15.4949 20.1221 15.497 20.4686 15.8435C20.8221 16.1969 20.8256 16.3904 20.8189 16.4581C20.8082 16.5654 20.731 16.7405 20.4686 17.0029L20.2929 17.1786Z" fill="#001F3E"/>
</svg>
