<svg width="24" height="24" viewBox="0 0 24 24" fill="none" xmlns="http://www.w3.org/2000/svg">
<path fill-rule="evenodd" clip-rule="evenodd" d="M7 4.25C5.00536 4.25 3.45818 4.48116 2.46967 5.46967C1.48116 6.45818 1.25 8.00536 1.25 10V14C1.25 15.9946 1.48116 17.5418 2.46967 18.5303C3.45818 19.5188 5.00536 19.75 7 19.75H13C14.9946 19.75 16.5418 19.5188 17.5303 18.5303C18.5188 17.5418 18.75 15.9946 18.75 14V10C18.75 8.00536 18.5188 6.45818 17.5303 5.46967C16.5418 4.48116 14.9946 4.25 13 4.25H7ZM2.75 10C2.75 7.99464 3.01884 7.04182 3.53033 6.53033C4.04182 6.01884 4.99464 5.75 7 5.75H13C15.0054 5.75 15.9582 6.01884 16.4697 6.53033C16.9812 7.04182 17.25 7.99464 17.25 10V14C17.25 16.0054 16.9812 16.9582 16.4697 17.4697C15.9582 17.9812 15.0054 18.25 13 18.25H7C4.99464 18.25 4.04182 17.9812 3.53033 17.4697C3.01884 16.9582 2.75 16.0054 2.75 14V10Z" fill="#001F3E"/>
<path fill-rule="evenodd" clip-rule="evenodd" d="M20.5 8.75C20.0858 8.75 19.75 9.08579 19.75 9.5C19.75 9.91421 20.0858 10.25 20.5 10.25C20.8433 10.25 21.0426 10.2798 21.1541 10.3128C21.182 10.3211 21.2008 10.3284 21.2129 10.3339C21.2181 10.3517 21.2257 10.3839 21.2324 10.4368C21.2488 10.5682 21.25 10.7356 21.25 11V13C21.25 13.2644 21.2488 13.4318 21.2324 13.5632C21.2257 13.6161 21.2181 13.6483 21.2129 13.6661C21.2008 13.6716 21.182 13.6789 21.1541 13.6872C21.0426 13.7202 20.8433 13.75 20.5 13.75C20.0858 13.75 19.75 14.0858 19.75 14.5C19.75 14.9142 20.0858 15.25 20.5 15.25C21.2564 15.25 21.9868 15.1426 22.4125 14.575C22.6168 14.3026 22.6895 13.9997 22.7208 13.7493C22.7501 13.5147 22.75 13.2554 22.75 13.0261V10.9739C22.75 10.7446 22.7501 10.4853 22.7208 10.2507C22.6895 10.0003 22.6168 9.69744 22.4125 9.425C21.9868 8.8574 21.2564 8.75 20.5 8.75ZM21.2311 10.3439C21.2315 10.3441 21.2311 10.3439 21.2311 10.3439C21.2312 10.3439 21.2303 10.3431 21.2279 10.3417C21.2291 10.3426 21.2306 10.3436 21.2311 10.3439ZM21.2279 13.6583C21.2303 13.6569 21.2312 13.6561 21.2311 13.6561C21.2311 13.6561 21.2306 13.6563 21.2297 13.6569C21.2293 13.6573 21.2286 13.6578 21.2279 13.6583Z" fill="#001F3E"/>
</svg>
