<svg width="24" height="24" viewBox="0 0 24 24" fill="none" xmlns="http://www.w3.org/2000/svg">
<path fill-rule="evenodd" clip-rule="evenodd" d="M11.9993 6.43994C9.86192 6.43994 8.12926 8.1726 8.12926 10.3099C8.12926 12.4473 9.86192 14.1799 11.9993 14.1799C14.1366 14.1799 15.8693 12.4473 15.8693 10.3099C15.8693 8.1726 14.1366 6.43994 11.9993 6.43994ZM9.62926 10.3099C9.62926 9.00103 10.6903 7.93994 11.9993 7.93994C13.3082 7.93994 14.3693 9.00103 14.3693 10.3099C14.3693 11.6189 13.3082 12.6799 11.9993 12.6799C10.6903 12.6799 9.62926 11.6189 9.62926 10.3099Z" fill="#001F3E"/>
<path fill-rule="evenodd" clip-rule="evenodd" d="M20.7262 12.8102C21.208 11.263 21.4173 9.68793 21.1109 8.33441C20.0394 3.60026 15.9842 1.25269 12.0036 1.25C8.023 1.24731 3.96498 3.58953 2.88805 8.32364C2.58145 9.67803 2.79043 11.2549 3.27215 12.8032C3.75781 14.3642 4.54218 15.9665 5.46724 17.4078C6.39138 18.8477 7.4735 20.1543 8.57148 21.1105C9.64009 22.0412 10.8439 22.745 11.9994 22.745C13.1548 22.745 14.3585 22.0417 15.427 21.1117C16.525 20.1561 17.607 18.8504 18.5311 17.4115C19.4561 15.9712 20.2405 14.37 20.7262 12.8102ZM4.35077 8.65599C5.24397 4.73035 8.58586 2.74769 12.0026 2.75C15.4196 2.75231 18.7593 4.73971 19.6479 8.66556C19.8723 9.65705 19.7371 10.9414 19.294 12.3642C18.8549 13.7744 18.1342 15.2538 17.269 16.601C16.4029 17.9496 15.4096 19.1383 14.4423 19.9802C13.4456 20.8477 12.5941 21.245 11.9994 21.245C11.4049 21.245 10.5534 20.8475 9.55661 19.9793C8.58918 19.1368 7.5958 17.9472 6.72961 16.5976C5.86433 15.2494 5.14352 13.7689 4.70442 12.3576C4.26144 10.9338 4.12621 9.64849 4.35077 8.65599Z" fill="#001F3E"/>
</svg>
