<svg width="24" height="24" viewBox="0 0 24 24" fill="none" xmlns="http://www.w3.org/2000/svg">
<path fill-rule="evenodd" clip-rule="evenodd" d="M9 1.25C6.42603 1.25 4.42914 1.7602 3.09467 3.09467C1.7602 4.42914 1.25 6.42603 1.25 9V15C1.25 17.574 1.7602 19.5709 3.09467 20.9053C4.42914 22.2398 6.42603 22.75 9 22.75H15C17.574 22.75 19.5709 22.2398 20.9053 20.9053C22.2398 19.5709 22.75 17.574 22.75 15V13.9048C22.75 13.9018 22.75 13.8989 22.75 13.8959V10C22.75 9.58579 22.4142 9.25 22 9.25C21.5858 9.25 21.25 9.58579 21.25 10V12.2672L20.8587 11.9311C19.7977 11.0197 18.1224 11.0199 17.0613 11.9311L12.9013 15.5011C12.4033 15.9288 11.5608 15.9296 11.0615 15.5035L10.7351 15.2166L10.7288 15.2111C9.75679 14.3761 8.24502 14.3041 7.18194 15.0173L3.05326 17.7893C2.85315 17.0323 2.75 16.1133 2.75 15V9C2.75 6.57397 3.2398 5.07086 4.15533 4.15533C5.07086 3.2398 6.57397 2.75 9 2.75H13C13.4142 2.75 13.75 2.41421 13.75 2C13.75 1.58579 13.4142 1.25 13 1.25H9ZM3.64344 19.1998C3.79556 19.4417 3.96638 19.6557 4.15533 19.8447C5.07086 20.7602 6.57397 21.25 9 21.25H15C17.426 21.25 18.9291 20.7602 19.8447 19.8447C20.7602 18.9291 21.25 17.426 21.25 15V14.2445L19.8813 13.0689C19.3824 12.6404 18.5376 12.6404 18.0387 13.0689L13.8787 16.6389C12.8176 17.5501 11.1423 17.5503 10.0813 16.6389L10.0749 16.6334L9.74844 16.3465C9.30001 15.9637 8.53368 15.9168 8.01784 16.2628L3.64344 19.1998Z" fill="#001F3E"/>
<path fill-rule="evenodd" clip-rule="evenodd" d="M9 5.25C7.48122 5.25 6.25 6.48122 6.25 8C6.25 9.51878 7.48122 10.75 9 10.75C10.5188 10.75 11.75 9.51878 11.75 8C11.75 6.48122 10.5188 5.25 9 5.25ZM7.75 8C7.75 7.30964 8.30964 6.75 9 6.75C9.69036 6.75 10.25 7.30964 10.25 8C10.25 8.69036 9.69036 9.25 9 9.25C8.30964 9.25 7.75 8.69036 7.75 8Z" fill="#001F3E"/>
<path d="M21.8903 2.01967C22.1832 2.31256 22.1832 2.78744 21.8903 3.08033L17.9903 6.98033C17.8497 7.12098 17.6589 7.2 17.46 7.2C17.2611 7.2 17.0703 7.12098 16.9297 6.98033L15.4697 5.52033C15.1768 5.22744 15.1768 4.75256 15.4697 4.45967C15.7626 4.16678 16.2374 4.16678 16.5303 4.45967L17.46 5.38934L20.8297 2.01967C21.1226 1.72678 21.5974 1.72678 21.8903 2.01967Z" fill="#001F3E"/>
</svg>
