<svg width="24" height="24" viewBox="0 0 24 24" fill="none" xmlns="http://www.w3.org/2000/svg">
<path fill-rule="evenodd" clip-rule="evenodd" d="M15.0829 8.79102C15.3701 8.50385 15.8357 8.50397 16.123 8.79102C16.4096 9.0783 16.41 9.54401 16.123 9.83105L14.453 11.5L16.123 13.1699C16.4095 13.4572 16.4099 13.9229 16.123 14.21C15.8359 14.4968 15.3701 14.4965 15.0829 14.21L13.413 12.54L11.744 14.21C11.457 14.4968 10.9912 14.4966 10.704 14.21C10.4171 13.9228 10.4171 13.4571 10.704 13.1699L12.373 11.5L10.704 9.83105C10.417 9.54386 10.417 9.0782 10.704 8.79102C10.9912 8.50385 11.4568 8.50398 11.744 8.79102L13.413 10.46L15.0829 8.79102Z" fill="#001F3E"/>
<path fill-rule="evenodd" clip-rule="evenodd" d="M19.3974 5.00293C20.7708 5.07275 21.863 6.20885 21.8632 7.59961V15.4004C21.863 16.7912 20.7708 17.9272 19.3974 17.9971L19.2636 18H7.6171L7.45889 17.9951C6.72322 17.9503 6.03954 17.5946 5.58096 17.0176L5.48721 16.8906L2.23526 12.2451C1.94166 11.8255 1.92259 11.2757 2.1796 10.8398L2.23526 10.7549L5.48721 6.10938C5.94333 5.4578 6.67073 5.05292 7.45889 5.00488L7.6171 5H19.2636L19.3974 5.00293ZM7.6171 6.2998C7.19292 6.29981 6.79493 6.507 6.55167 6.85449L3.29971 11.5L6.55167 16.1455C6.79493 16.493 7.19292 16.7002 7.6171 16.7002H19.2636C19.9812 16.7 20.5632 16.118 20.5634 15.4004V7.59961C20.5632 6.88196 19.9812 6.30003 19.2636 6.2998H7.6171Z" fill="#001F3E"/>
</svg>
