<svg width="24" height="24" viewBox="0 0 24 24" fill="none" xmlns="http://www.w3.org/2000/svg">
<path d="M18.9996 24C16.2417 24 13.9996 21.7579 13.9996 19C13.9996 16.2421 16.2417 14 18.9996 14C21.7575 14 23.9996 16.2421 23.9996 19C23.9996 21.7579 21.7575 24 18.9996 24ZM18.9996 15.5789C17.1154 15.5789 15.5786 17.1158 15.5786 19C15.5786 20.8842 17.1154 22.421 18.9996 22.421C20.8838 22.421 22.4207 20.8842 22.4207 19C22.4207 17.1158 20.8838 15.5789 18.9996 15.5789Z" fill="#001F3E"/>
<path d="M17.4156 18C17.0014 18 16.6656 18.3731 16.6656 18.8333C16.6656 19.2935 17.0014 19.6666 17.4156 19.6666H20.3323C20.7465 19.6666 21.0823 19.2935 21.0823 18.8333C21.0823 18.3731 20.7465 18 20.3323 18H17.4156Z" fill="#001F3E"/>
<path d="M2.71994 21.1353C3.71355 22.2054 5.18908 22.75 7.08203 22.75H11.9154C12.3296 22.75 12.6654 22.4142 12.6654 22C12.6654 21.5858 12.3296 21.25 11.9154 21.25H7.08203C5.47498 21.25 4.45051 20.7946 3.81913 20.1147C3.1784 19.4246 2.83203 18.385 2.83203 17V7C2.83203 5.61497 3.1784 4.57535 3.81913 3.88534C4.45051 3.20539 5.47498 2.75 7.08203 2.75H15.082C16.6891 2.75 17.7136 3.20539 18.3449 3.88534C18.9857 4.57535 19.332 5.61497 19.332 7V10.9167C19.332 11.3309 19.6678 11.6667 20.082 11.6667C20.4962 11.6667 20.832 11.3309 20.832 10.9167V7C20.832 5.38503 20.4284 3.92465 19.4441 2.86466C18.4505 1.79461 16.975 1.25 15.082 1.25H7.08203C5.18908 1.25 3.71355 1.79461 2.71994 2.86466C1.73567 3.92465 1.33203 5.38503 1.33203 7V17C1.33203 18.615 1.73567 20.0754 2.71994 21.1353Z" fill="#001F3E"/>
<path d="M5.83203 7C5.83203 6.58579 6.16782 6.25 6.58203 6.25H15.582C15.9962 6.25 16.332 6.58579 16.332 7C16.332 7.41421 15.9962 7.75 15.582 7.75H6.58203C6.16782 7.75 5.83203 7.41421 5.83203 7Z" fill="#001F3E"/>
<path d="M6.58203 11.25C6.16782 11.25 5.83203 11.5858 5.83203 12C5.83203 12.4142 6.16782 12.75 6.58203 12.75H15.582C15.9962 12.75 16.332 12.4142 16.332 12C16.332 11.5858 15.9962 11.25 15.582 11.25H6.58203Z" fill="#001F3E"/>
<path d="M6.58203 16.25C6.16782 16.25 5.83203 16.5858 5.83203 17C5.83203 17.4142 6.16782 17.75 6.58203 17.75H10.332C10.7462 17.75 11.082 17.4142 11.082 17C11.082 16.5858 10.7462 16.25 10.332 16.25H6.58203Z" fill="#001F3E"/>
<path fill-rule="evenodd" clip-rule="evenodd" d="M5.73203 7C5.73203 6.53056 6.11259 6.15 6.58203 6.15H15.582C16.0515 6.15 16.432 6.53056 16.432 7C16.432 7.46944 16.0515 7.85 15.582 7.85H6.58203C6.11259 7.85 5.73203 7.46944 5.73203 7ZM5.73203 12C5.73203 11.5306 6.11259 11.15 6.58203 11.15H15.582C16.0515 11.15 16.432 11.5306 16.432 12C16.432 12.4694 16.0515 12.85 15.582 12.85H6.58203C6.11259 12.85 5.73203 12.4694 5.73203 12ZM5.73203 17C5.73203 16.5306 6.11259 16.15 6.58203 16.15H10.332C10.8015 16.15 11.182 16.5306 11.182 17C11.182 17.4694 10.8015 17.85 10.332 17.85H6.58203C6.11259 17.85 5.73203 17.4694 5.73203 17ZM7.08203 22.75C5.18908 22.75 3.71355 22.2054 2.71994 21.1353C1.73567 20.0754 1.33203 18.615 1.33203 17V7C1.33203 5.38503 1.73567 3.92465 2.71994 2.86466C3.71355 1.79461 5.18908 1.25 7.08203 1.25H15.082C16.975 1.25 18.4505 1.79461 19.4441 2.86466C20.4284 3.92465 20.832 5.38503 20.832 7V10.9167C20.832 11.3309 20.4962 11.6667 20.082 11.6667C19.6678 11.6667 19.332 11.3309 19.332 10.9167V7C19.332 5.61497 18.9857 4.57535 18.3449 3.88534C17.7136 3.20539 16.6891 2.75 15.082 2.75H7.08203C5.47498 2.75 4.45051 3.20539 3.81913 3.88534C3.1784 4.57535 2.83203 5.61497 2.83203 7V17C2.83203 18.385 3.1784 19.4246 3.81913 20.1147C4.45051 20.7946 5.47498 21.25 7.08203 21.25H11.9154C12.3296 21.25 12.6654 21.5858 12.6654 22C12.6654 22.4142 12.3296 22.75 11.9154 22.75H7.08203ZM6.58203 6.25C6.16782 6.25 5.83203 6.58579 5.83203 7C5.83203 7.41421 6.16782 7.75 6.58203 7.75H15.582C15.9962 7.75 16.332 7.41421 16.332 7C16.332 6.58579 15.9962 6.25 15.582 6.25H6.58203ZM6.58203 11.25C6.16782 11.25 5.83203 11.5858 5.83203 12C5.83203 12.4142 6.16782 12.75 6.58203 12.75H15.582C15.9962 12.75 16.332 12.4142 16.332 12C16.332 11.5858 15.9962 11.25 15.582 11.25H6.58203ZM5.83203 17C5.83203 16.5858 6.16782 16.25 6.58203 16.25H10.332C10.7462 16.25 11.082 16.5858 11.082 17C11.082 17.4142 10.7462 17.75 10.332 17.75H6.58203C6.16782 17.75 5.83203 17.4142 5.83203 17Z" fill="#001F3E"/>
</svg>
