<svg width="24" height="24" viewBox="0 0 24 24" fill="none" xmlns="http://www.w3.org/2000/svg">
<path fill-rule="evenodd" clip-rule="evenodd" d="M12.9909 8.33997C12.9909 6.26439 10.7358 4.95896 8.93344 6.02189L5.76752 7.83953L2.59596 9.67043L2.59242 9.6725C0.800467 10.7201 0.792747 13.309 2.59615 14.3496L5.76599 16.1795L5.76752 16.1804L8.93699 18.0001C10.7358 19.0371 12.9909 17.7381 12.9909 15.66V14.7159L15.5262 16.1795L15.5277 16.1804L18.697 18C20.4959 19.0371 22.7512 17.7382 22.7512 15.66V8.33997C22.7512 6.26439 20.496 4.95896 18.6937 6.02189L15.5277 7.83953L12.9909 9.30391V8.33997ZM9.69315 7.31528C10.49 6.84328 11.4909 7.41735 11.4909 8.33997V15.66C11.4909 16.5815 10.4868 17.1625 9.68573 16.7003L9.68437 16.6996L6.51592 14.8804L6.51438 14.8795L3.34573 13.0503C2.54983 12.5912 2.54148 11.4413 3.34785 10.9684L6.51438 9.14038L6.51592 9.13949L9.6844 7.32047L9.69315 7.31528ZM19.4534 7.31528C20.2503 6.84328 21.2512 7.41735 21.2512 8.33997V15.66C21.2512 16.5815 20.247 17.1625 19.446 16.7003L16.2761 14.8804L16.2746 14.8795L13.112 13.0539C13.0662 13.0262 13.0263 12.9996 12.9911 12.9737V11.0463C13.0263 11.0204 13.0662 10.9938 13.1121 10.9661L16.2746 9.14039L16.2761 9.13949L19.4446 7.32047L19.4534 7.31528Z" fill="#001F3E"/>
</svg>
