<svg width="24" height="24" viewBox="0 0 24 24" fill="none" xmlns="http://www.w3.org/2000/svg">
<path d="M16.1904 2C19.8302 2.00017 22 4.17069 22 7.81055V16.1904C22 19.8302 19.8302 21.9998 16.1904 22H7.80957C4.16985 21.9998 2.00002 19.8302 2 16.1904V7.81055C2 4.17069 4.16983 2.00017 7.80957 2H16.1904ZM11.9902 4.74805C7.98355 4.74808 4.73828 7.99428 4.73828 12.001C4.73828 12.3742 4.76285 12.7322 4.80859 13.0752L4.67676 12.96C4.36433 12.688 3.89013 12.7208 3.61816 13.0332C3.34645 13.3455 3.37937 13.8189 3.69141 14.0908L5.4834 15.6504C5.50381 15.6691 5.52498 15.6874 5.54785 15.7041C5.68168 15.8018 5.83732 15.848 5.99121 15.8477C6.20033 15.8474 6.40855 15.7609 6.55664 15.5908C6.57617 15.5684 6.59396 15.5445 6.61035 15.5205L7.93652 13.7041C8.1803 13.3696 8.10685 12.9003 7.77246 12.6562C7.43791 12.4122 6.96878 12.4858 6.72461 12.8203L6.36816 13.3086C6.28611 12.8984 6.23829 12.4635 6.23828 12.001C6.23828 8.82271 8.81198 6.24808 11.9902 6.24805C15.1685 6.24805 17.7432 8.82269 17.7432 12.001C17.7431 15.1792 15.1685 17.7529 11.9902 17.7529C10.8089 17.7529 9.70751 17.3952 8.79102 16.7842C8.4464 16.5547 7.98068 16.6476 7.75098 16.9922C7.52128 17.3367 7.61458 17.8024 7.95898 18.0322C9.11246 18.8012 10.5016 19.2529 11.9902 19.2529C15.9969 19.2529 19.2431 16.0077 19.2432 12.001C19.2432 7.99426 15.9969 4.74805 11.9902 4.74805ZM11.75 8.25098C11.3358 8.25098 11 8.58676 11 9.00098V11.8076C11 12.1522 11.0933 12.4989 11.2266 12.7891C11.3565 13.0718 11.5603 13.3782 11.8447 13.5879L11.8457 13.5889L13.5537 14.8535C13.8866 15.1 14.356 15.0301 14.6025 14.6973C14.8491 14.3644 14.7791 13.895 14.4463 13.6484L12.7373 12.3818L12.7354 12.3809C12.7354 12.3809 12.7293 12.376 12.7197 12.3662C12.7098 12.3559 12.6973 12.341 12.6826 12.3213C12.6524 12.2806 12.6194 12.2265 12.5898 12.1621C12.5276 12.0265 12.5001 11.8941 12.5 11.8076V9.00098C12.5 8.58676 12.1642 8.25098 11.75 8.25098Z" fill="#001F3E"/>
</svg>
