<svg width="24" height="24" viewBox="0 0 24 24" fill="none" xmlns="http://www.w3.org/2000/svg">
<path d="M15.4403 10.5303C15.7332 10.2374 15.7332 9.76256 15.4403 9.46967C15.1474 9.17678 14.6726 9.17678 14.3797 9.46967L10.61 13.2393L9.53033 12.1597C9.23744 11.8668 8.76256 11.8668 8.46967 12.1597C8.17678 12.4526 8.17678 12.9274 8.46967 13.2203L10.0797 14.8303C10.3726 15.1232 10.8474 15.1232 11.1403 14.8303L15.4403 10.5303Z" fill="#001F3E"/>
<path fill-rule="evenodd" clip-rule="evenodd" d="M14.1533 1.68807C12.7217 1.10398 11.1083 1.10398 9.67667 1.68807L4.10771 3.96762C3.55576 4.19047 3.09937 4.6134 2.78383 5.08279C2.46799 5.55261 2.25 6.13327 2.25 6.72247V11.1125C2.25 16.3518 6.03687 21.2188 11.2003 22.6454L11.2027 22.646C11.6619 22.7713 12.1582 22.7713 12.6174 22.646L12.6197 22.6454C17.7828 21.2189 21.5696 16.3514 21.57 11.1125L21.58 6.72418L21.58 6.72247C21.58 6.13058 21.3577 5.54938 21.0415 5.08136C20.7253 4.61344 20.2691 4.1909 19.7233 3.96802L14.1533 1.68807ZM4.67012 5.35821L10.2433 3.07693C11.3114 2.64123 12.5185 2.64131 13.5867 3.07693L19.1567 5.35692C19.3705 5.44413 19.6098 5.64174 19.7985 5.92108C19.9872 6.20025 20.0798 6.49445 20.08 6.72247L20.07 11.1108L20.07 11.1125C20.07 15.6527 16.7576 19.9453 12.2217 21.1992C12.0215 21.2536 11.7985 21.2536 11.5983 21.1992C7.06242 19.9452 3.75 15.6527 3.75 11.1125V6.72247C3.75 6.49166 3.84202 6.19732 4.02869 5.91965C4.21523 5.64216 4.45306 5.4456 4.67012 5.35821Z" fill="#001F3E"/>
</svg>
