<svg width="24" height="24" viewBox="0 0 24 24" fill="none" xmlns="http://www.w3.org/2000/svg">
<path d="M6 15.755C5.58579 15.755 5.25 16.0907 5.25 16.505C5.25 16.9192 5.58579 17.255 6 17.255H8C8.41421 17.255 8.75 16.9192 8.75 16.505C8.75 16.0907 8.41421 15.755 8 15.755H6Z" fill="#001F3E"/>
<path d="M9.75 16.505C9.75 16.0907 10.0858 15.755 10.5 15.755H14.5C14.9142 15.755 15.25 16.0907 15.25 16.505C15.25 16.9192 14.9142 17.255 14.5 17.255H10.5C10.0858 17.255 9.75 16.9192 9.75 16.505Z" fill="#001F3E"/>
<path fill-rule="evenodd" clip-rule="evenodd" d="M1.25 7.89496C1.25 6.14378 1.45399 4.74761 2.36143 3.85039C3.26591 2.95608 4.671 2.75496 6.44 2.75496H17.55C19.3237 2.75496 20.7311 2.956 21.6368 3.84989C22.5461 4.74721 22.75 6.14385 22.75 7.89496V16.105C22.75 17.8561 22.546 19.2523 21.6386 20.1495C20.7341 21.0438 19.329 21.245 17.56 21.245H6.44074C4.67249 21.2498 3.26704 21.052 2.36194 20.1588C1.45385 19.2626 1.25 17.8658 1.25 16.115V7.89496ZM2.75052 7.75496C2.76311 6.09339 3.00245 5.32599 3.41607 4.91703C3.84409 4.49383 4.659 4.25496 6.44 4.25496H17.55C19.3363 4.25496 20.1539 4.49392 20.5832 4.91753C20.9975 5.3264 21.2369 6.09335 21.2495 7.75496H2.75052ZM21.25 9.25496V16.105C21.25 17.8638 21.009 18.6626 20.5839 19.0829C20.1559 19.5061 19.341 19.745 17.56 19.745L6.44 19.745L6.43789 19.745C4.65679 19.75 3.84272 19.5127 3.41556 19.0911C2.99115 18.6723 2.75 17.8741 2.75 16.115V9.25496H21.25Z" fill="#001F3E"/>
</svg>
