<svg width="24" height="24" viewBox="0 0 24 24" fill="none" xmlns="http://www.w3.org/2000/svg">
<path d="M7.5 6.25C7.08579 6.25 6.75 6.58579 6.75 7C6.75 7.41421 7.08579 7.75 7.5 7.75H16.5C16.9142 7.75 17.25 7.41421 17.25 7C17.25 6.58579 16.9142 6.25 16.5 6.25H7.5Z" fill="#001F3E"/>
<path d="M6.75 12C6.75 11.5858 7.08579 11.25 7.5 11.25H16.5C16.9142 11.25 17.25 11.5858 17.25 12C17.25 12.4142 16.9142 12.75 16.5 12.75H7.5C7.08579 12.75 6.75 12.4142 6.75 12Z" fill="#001F3E"/>
<path d="M7.5 16.25C7.08579 16.25 6.75 16.5858 6.75 17C6.75 17.4142 7.08579 17.75 7.5 17.75H12.875C13.2892 17.75 13.625 17.4142 13.625 17C13.625 16.5858 13.2892 16.25 12.875 16.25H7.5Z" fill="#001F3E"/>
<path fill-rule="evenodd" clip-rule="evenodd" d="M8 22.75C6.10705 22.75 4.63152 22.2054 3.6379 21.1353C2.65363 20.0754 2.25 18.615 2.25 17V7C2.25 5.38503 2.65363 3.92465 3.6379 2.86466C4.63152 1.79461 6.10705 1.25 8 1.25H16C17.893 1.25 19.3685 1.79461 20.3621 2.86466C21.3464 3.92465 21.75 5.38503 21.75 7V17C21.75 18.615 21.3464 20.0754 20.3621 21.1353C19.3685 22.2054 17.893 22.75 16 22.75H8ZM3.75 17C3.75 18.385 4.09637 19.4246 4.7371 20.1147C5.36848 20.7946 6.39295 21.25 8 21.25H16C17.607 21.25 18.6315 20.7946 19.2629 20.1147C19.9036 19.4246 20.25 18.385 20.25 17V7C20.25 5.61497 19.9036 4.57535 19.2629 3.88534C18.6315 3.20539 17.607 2.75 16 2.75H8C6.39295 2.75 5.36848 3.20539 4.7371 3.88534C4.09637 4.57535 3.75 5.61497 3.75 7V17Z" fill="#001F3E"/>
</svg>
