<svg width="24" height="24" viewBox="0 0 24 24" fill="none" xmlns="http://www.w3.org/2000/svg">
<path d="M16.1904 2C19.83 2.00017 22.0001 4.16997 21.9902 7.80957V16.1904C21.9901 19.8302 19.8195 22 16.1797 22H7.80957C4.16983 21.9998 2 19.8295 2 16.1797V7.80957C2.00017 4.16997 4.16997 2.00017 7.80957 2H16.1904ZM16.7793 8.63965C16.4894 8.35 16.0097 8.35004 15.7197 8.63965L10.5791 13.7803L8.2793 11.4805C7.9893 11.1905 7.50973 11.1905 7.21973 11.4805C6.92983 11.7705 6.92976 12.2501 7.21973 12.54L10.0498 15.3701C10.1897 15.5099 10.3793 15.5898 10.5791 15.5898C10.7791 15.5898 10.9694 15.5101 11.1094 15.3701L16.7793 9.7002C17.0693 9.4002 17.0693 8.92965 16.7793 8.63965Z" fill="#001F3E"/>
</svg>
