<svg width="24" height="24" viewBox="0 0 24 24" fill="none" xmlns="http://www.w3.org/2000/svg">
<path fill-rule="evenodd" clip-rule="evenodd" d="M13 2C10.5 2 9 3.8 9 6V10L13.0069 13.6062C13.639 14.1751 14 14.9856 14 15.8361V22.5H21C21.5523 22.5 22 22.0523 22 21.5V6C22 3.8 20.5 2 18 2H13ZM19.75 6C19.75 6.41421 19.4142 6.75 19 6.75H16C15.5858 6.75 15.25 6.41421 15.25 6C15.25 5.58579 15.5858 5.25 16 5.25H19C19.4142 5.25 19.75 5.58579 19.75 6ZM19 11.75C19.4142 11.75 19.75 11.4142 19.75 11C19.75 10.5858 19.4142 10.25 19 10.25H16C15.5858 10.25 15.25 10.5858 15.25 11C15.25 11.4142 15.5858 11.75 16 11.75H19ZM19.75 16C19.75 16.4142 19.4142 16.75 19 16.75H16C15.5858 16.75 15.25 16.4142 15.25 16C15.25 15.5858 15.5858 15.25 16 15.25H19C19.4142 15.25 19.75 15.5858 19.75 16Z" fill="#001F3E"/>
<path d="M3.68893 14.5947C3.25133 14.9746 3 15.5256 3 16.1051V21.5C3 22.0523 3.44771 22.5 4 22.5H11.66C12.2123 22.5 12.66 22.0523 12.66 21.5V16.1051C12.66 15.5256 12.4087 14.9746 11.9711 14.5947L9.14107 12.1381C8.38895 11.4852 7.27105 11.4852 6.51893 12.1381L3.68893 14.5947Z" fill="#001F3E"/>
</svg>
