<svg width="24" height="24" viewBox="0 0 24 24" fill="none" xmlns="http://www.w3.org/2000/svg">
<path d="M11.9999 8.25C12.4141 8.25 12.7499 8.58579 12.7499 9V13C12.7499 13.4142 12.4141 13.75 11.9999 13.75C11.5857 13.75 11.2499 13.4142 11.2499 13V9C11.2499 8.58579 11.5857 8.25 11.9999 8.25Z" fill="#001F3E"/>
<path d="M11.9945 15C11.4422 15 10.9945 15.4477 10.9945 16C10.9945 16.5523 11.4422 17 11.9945 17H12.0035C12.5558 17 13.0035 16.5523 13.0035 16C13.0035 15.4477 12.5558 15 12.0035 15H11.9945Z" fill="#001F3E"/>
<path fill-rule="evenodd" clip-rule="evenodd" d="M9.62002 3.61385C10.6792 1.78432 13.3207 1.78431 14.3799 3.61385L21.911 16.6221C22.9724 18.4555 21.6495 20.75 19.531 20.75H4.46884C2.35043 20.75 1.02751 18.4555 2.08891 16.6221L9.62002 3.61385ZM13.0817 4.3654C12.6003 3.5338 11.3996 3.5338 10.9182 4.36541L3.38705 17.3737C2.9046 18.207 3.50592 19.25 4.46884 19.25H19.531C20.494 19.25 21.0953 18.207 20.6128 17.3737L13.0817 4.3654Z" fill="#001F3E"/>
</svg>
