<svg width="24" height="24" viewBox="0 0 24 24" fill="none" xmlns="http://www.w3.org/2000/svg">
<path d="M10.9697 8.47021C11.2597 8.18021 11.7393 8.18021 12.0293 8.47021C12.3192 8.76022 12.3193 9.2398 12.0293 9.52979L10.3096 11.2495H15.5C15.9099 11.2495 16.2498 11.5897 16.25 11.9995C16.25 12.4095 15.91 12.7495 15.5 12.7495H10.3096L12.0293 14.4702C12.3192 14.7602 12.3193 15.2398 12.0293 15.5298C11.8793 15.6798 11.689 15.7495 11.499 15.7495C11.3092 15.7494 11.1196 15.6796 10.9697 15.5298L7.96973 12.5298C7.67973 12.2398 7.67973 11.7602 7.96973 11.4702L10.9697 8.47021Z" fill="#292D32"/>
<path fill-rule="evenodd" clip-rule="evenodd" d="M12 1.24951C17.9299 1.24951 22.7498 6.06971 22.75 11.9995C22.75 17.9295 17.93 22.7495 12 22.7495C6.07 22.7495 1.25 17.9295 1.25 11.9995C1.25023 6.06971 6.07014 1.24951 12 1.24951ZM12 2.74951C6.90014 2.74951 2.75023 6.89971 2.75 11.9995C2.75 17.0995 6.9 21.2495 12 21.2495C17.1 21.2495 21.25 17.0995 21.25 11.9995C21.2498 6.89971 17.0999 2.74951 12 2.74951Z" fill="#292D32"/>
</svg>
