<svg width="24" height="24" viewBox="0 0 24 24" fill="none" xmlns="http://www.w3.org/2000/svg">
<path fill-rule="evenodd" clip-rule="evenodd" d="M14.8931 4.11194C16.4261 5.0123 17.6173 6.57743 18.117 8.83085C20.33 9.32635 21.8603 11.0387 22.454 12.9862C23.0942 15.0868 22.6773 17.5676 20.7794 19.2287C19.6506 20.2629 18.1712 20.8305 16.6364 20.8199H5.54906C5.53146 20.8199 5.51387 20.8193 5.49631 20.818C0.193981 20.4442 -0.0965159 13.1197 4.62482 11.9843C4.09413 9.92354 4.38657 8.10276 5.2338 6.64964C6.18805 5.01298 7.8046 3.91342 9.55963 3.45205C11.3146 2.99068 13.2613 3.15354 14.8931 4.11194ZM6.52963 7.40516C5.8655 8.54425 5.60853 10.0518 6.15496 11.89C6.66086 11.9574 7.15308 12.1091 7.60951 12.3416C7.97859 12.5296 8.12536 12.9813 7.93734 13.3503C7.74932 13.7194 7.2977 13.8662 6.92862 13.6782C6.51337 13.4666 6.04967 13.354 5.57521 13.35C1.85987 13.6376 1.86035 19.0336 5.57663 19.3199L16.6446 19.3199C17.8055 19.3285 18.922 18.8986 19.7715 18.1177L19.786 18.1047C21.1719 16.8958 21.5181 15.0603 21.0191 13.4236C20.5397 11.8506 19.3098 10.56 17.5957 10.256C17.5748 10.2581 17.5536 10.2594 17.5322 10.2598C17.0646 10.2678 16.6048 10.3807 16.1847 10.5907C15.8142 10.776 15.3637 10.6258 15.1785 10.2553C14.9932 9.88482 15.1434 9.43431 15.5139 9.24907C15.8549 9.07854 16.2142 8.95124 16.5837 8.86922C16.1349 7.14693 15.213 6.03943 14.1335 5.40536C12.8899 4.67501 11.3623 4.52912 9.941 4.90275C8.51977 5.27638 7.2582 6.15557 6.52963 7.40516Z" fill="#001F3E"/>
</svg>
