<svg width="24" height="24" viewBox="0 0 24 24" fill="none" xmlns="http://www.w3.org/2000/svg">
<path fill-rule="evenodd" clip-rule="evenodd" d="M14.7137 2.75C16.4332 2.75 17.8271 4.14393 17.8271 5.86344C17.8271 7.58294 16.4332 8.97688 14.7137 8.97688C12.9942 8.97688 11.6003 7.58294 11.6003 5.86344C11.6003 4.14393 12.9942 2.75 14.7137 2.75ZM19.3271 5.86344C19.3271 3.31551 17.2616 1.25 14.7137 1.25C12.1658 1.25 10.1003 3.31551 10.1003 5.86344C10.1003 8.41137 12.1658 10.4769 14.7137 10.4769C17.2616 10.4769 19.3271 8.41137 19.3271 5.86344Z" fill="#001F3E"/>
<path fill-rule="evenodd" clip-rule="evenodd" d="M4.67187 5.13281C5.73329 5.13281 6.59374 5.99326 6.59374 7.05468C6.59374 8.1161 5.73329 8.97655 4.67187 8.97655C3.61045 8.97655 2.75 8.1161 2.75 7.05468C2.75 5.99326 3.61045 5.13281 4.67187 5.13281ZM8.09374 7.05468C8.09374 5.16484 6.56172 3.63281 4.67187 3.63281C2.78202 3.63281 1.25 5.16484 1.25 7.05468C1.25 8.94453 2.78202 10.4766 4.67187 10.4766C6.56172 10.4766 8.09374 8.94453 8.09374 7.05468Z" fill="#001F3E"/>
<path fill-rule="evenodd" clip-rule="evenodd" d="M15.4159 13.3317C12.5339 13.0822 9.6507 13.0821 6.76804 13.3317C6.35178 13.3677 6.00737 13.6916 5.94564 14.1071C5.65354 16.0735 5.65354 17.8933 5.94564 19.8597C6.00737 20.2752 6.35178 20.599 6.76804 20.6351C9.65189 20.8848 12.5327 20.8847 15.4159 20.6351C15.8321 20.599 16.1766 20.2752 16.2383 19.8597C16.2972 19.4632 16.3547 19.0706 16.4024 18.6754L16.4024 15.2915C16.3547 14.8962 16.2972 14.5036 16.2383 14.1071C16.1766 13.6916 15.8321 13.3677 15.4159 13.3317ZM17.9024 15.7334L17.9024 18.2335C18.546 18.5202 19.2322 18.8243 19.7943 19.0728C19.8438 19.0947 19.8922 19.1161 19.9396 19.137V14.8299C19.8922 14.8508 19.8438 14.8722 19.7943 14.8941C19.2322 15.1426 18.546 15.4467 17.9024 15.7334ZM20.3874 12.9927C20.6193 12.8905 20.8871 12.9124 21.0994 13.0509C21.3117 13.1893 21.4396 13.4256 21.4396 13.6791V20.2878C21.4396 20.5413 21.3117 20.7776 21.0994 20.916C20.8871 21.0545 20.6193 21.0764 20.3874 20.9742L20.048 20.8246C19.835 20.7306 19.5351 20.5983 19.1877 20.4447C18.7601 20.2556 18.2602 20.0342 17.7615 19.8126C17.7484 19.9025 17.7351 19.9917 17.722 20.0801C17.5586 21.1804 16.6557 22.0333 15.5453 22.1295C12.576 22.3866 9.60861 22.3866 6.63865 22.1295C5.5282 22.0333 4.62537 21.1804 4.46192 20.0801C4.14811 17.9676 4.14811 15.9992 4.46192 13.8867C4.62537 12.7864 5.5282 11.9334 6.63865 11.8373C9.60742 11.5803 12.5772 11.5803 15.5453 11.8373C16.6557 11.9334 17.5586 12.7864 17.722 13.8867C17.7351 13.9752 17.7484 14.0644 17.7615 14.1543C18.2603 13.9327 18.7601 13.7113 19.1877 13.5222C19.5351 13.3686 19.835 13.2362 20.048 13.1423L20.3874 12.9927Z" fill="#001F3E"/>
</svg>
