<svg width="24" height="24" viewBox="0 0 24 24" fill="none" xmlns="http://www.w3.org/2000/svg">
<path d="M12 6.25C12.4142 6.25 12.75 6.58579 12.75 7V7.3501H12.9293C14.3889 7.36982 15.5354 8.58629 15.5354 10.05C15.5354 10.4642 15.1996 10.8 14.7854 10.8C14.3712 10.8 14.0354 10.4642 14.0354 10.05C14.0354 9.37045 13.5132 8.86065 12.9134 8.8501H10.83C10.3892 8.8501 9.96436 9.24297 9.96436 9.79928C9.96436 10.1988 10.0508 10.3605 10.1096 10.4351C10.1761 10.5194 10.298 10.6083 10.5778 10.7075L10.579 10.7079L13.9263 11.8795C14.3078 12.0175 14.7376 12.2287 15.0577 12.6382C15.385 13.0569 15.5215 13.583 15.5215 14.2004C15.5215 15.5104 14.4979 16.6496 13.1559 16.6496H12.75V16.9999C12.75 17.4141 12.4142 17.7499 12 17.7499C11.5858 17.7499 11.25 17.4141 11.25 16.9999V16.6496H11.0667C9.60055 16.6496 8.46436 15.4002 8.46436 13.9497C8.46436 13.5355 8.80014 13.1997 9.21436 13.1997C9.62857 13.1997 9.96436 13.5355 9.96436 13.9497C9.96436 14.6441 10.4995 15.1496 11.0667 15.1496H13.1559C13.5967 15.1496 14.0215 14.7567 14.0215 14.2004C14.0215 13.8011 13.9351 13.6378 13.8759 13.562C13.8098 13.4775 13.6903 13.3896 13.4196 13.2914L10.0808 12.1228L10.0782 12.1219C9.69027 11.9845 9.25532 11.7741 8.93189 11.364C8.60078 10.9442 8.46436 10.4165 8.46436 9.79928C8.46436 8.48927 9.48798 7.3501 10.83 7.3501H11.25V7C11.25 6.58579 11.5858 6.25 12 6.25Z" fill="#001F3E"/>
<path fill-rule="evenodd" clip-rule="evenodd" d="M12 1.25C6.08579 1.25 1.25 6.08579 1.25 12C1.25 17.9142 6.08579 22.75 12 22.75C17.9142 22.75 22.75 17.9142 22.75 12C22.75 6.08579 17.9142 1.25 12 1.25ZM2.75 12C2.75 6.91421 6.91421 2.75 12 2.75C17.0858 2.75 21.25 6.91421 21.25 12C21.25 17.0858 17.0858 21.25 12 21.25C6.91421 21.25 2.75 17.0858 2.75 12Z" fill="#001F3E"/>
</svg>
