<svg width="24" height="24" viewBox="0 0 24 24" fill="none" xmlns="http://www.w3.org/2000/svg">
<path d="M3.53033 2.46967C3.23744 2.17678 2.76256 2.17678 2.46967 2.46967C2.17678 2.76256 2.17678 3.23744 2.46967 3.53033L4.72735 5.78801C3.62492 6.32184 2.55778 6.9816 1.54162 7.76636C1.21379 8.01954 1.15327 8.49054 1.40644 8.81837C1.65962 9.14621 2.13062 9.20673 2.45845 8.95355C3.54069 8.11776 4.68103 7.4395 5.85668 6.91734L8.17456 9.23522C6.87059 9.67716 5.61456 10.3486 4.45184 11.2463C4.12398 11.4995 4.06341 11.9705 4.31655 12.2983C4.56969 12.6262 5.04068 12.6868 5.36854 12.4336C6.61938 11.4679 7.97999 10.8049 9.3785 10.4392L11.6965 12.7572C9.9842 12.9469 8.18987 13.6059 6.82041 14.5407C6.4783 14.7742 6.39027 15.2408 6.62378 15.5829C6.8573 15.925 7.32395 16.0131 7.66606 15.7796C9.22677 14.7143 11.4291 14.0844 13.1585 14.2192L20.4697 21.5303C20.7626 21.8232 21.2374 21.8232 21.5303 21.5303C21.8232 21.2374 21.8232 20.7626 21.5303 20.4697L14.0369 12.9762C14.0324 12.9716 14.0278 12.967 14.0231 12.9625L3.53033 2.46967Z" fill="#001F3E"/>
<path d="M9.14392 5.87712C13.3654 5.05189 17.8045 6.06749 21.5416 8.95355C21.8694 9.20673 22.3405 9.14621 22.5936 8.81837C22.8468 8.49054 22.7863 8.01954 22.4585 7.76636C18.3904 4.62466 13.5147 3.49432 8.85615 4.40499C8.44963 4.48445 8.1845 4.87842 8.26397 5.28494C8.34344 5.69146 8.73741 5.95659 9.14392 5.87712Z" fill="#001F3E"/>
<path d="M12.8672 8.63149C12.4541 8.60124 12.0947 8.91162 12.0644 9.32472C12.0342 9.73783 12.3446 10.0972 12.7577 10.1275C14.806 10.2775 16.8385 11.0413 18.6418 12.4336C18.9697 12.6868 19.4407 12.6262 19.6938 12.2983C19.947 11.9705 19.8864 11.4995 19.5585 11.2463C17.53 9.68013 15.2186 8.80366 12.8672 8.63149Z" fill="#001F3E"/>
<path d="M10.25 18.5C10.25 17.5335 11.0335 16.75 12 16.75C12.9665 16.75 13.75 17.5335 13.75 18.5C13.75 19.4665 12.9665 20.25 12 20.25C11.0335 20.25 10.25 19.4665 10.25 18.5Z" fill="#001F3E"/>
</svg>
