<svg width="24" height="24" viewBox="0 0 24 24" fill="none" xmlns="http://www.w3.org/2000/svg">
<path fill-rule="evenodd" clip-rule="evenodd" d="M7.97021 9.50998C7.97021 7.28726 9.76451 5.47998 12.0002 5.47998C14.2244 5.47998 16.0302 7.28577 16.0302 9.50998V9.51422C16.018 11.6826 14.3124 13.4557 12.1458 13.5295C12.1018 13.531 12.0577 13.5287 12.0141 13.5224C12.0185 13.5231 12.0193 13.523 12.0165 13.5228C12.0152 13.5227 12.0135 13.5227 12.0114 13.5226C12.0093 13.5225 12.0068 13.5225 12.004 13.5225C11.9917 13.5225 11.9803 13.5233 11.9732 13.5242C11.9339 13.5291 11.8943 13.5309 11.8547 13.5295C9.69182 13.4558 7.97021 11.6854 7.97021 9.50998ZM12.0002 6.97998C10.5959 6.97998 9.47021 8.1127 9.47021 9.50998C9.47021 10.8588 10.5238 11.9585 11.8589 12.0284C11.9508 12.0209 12.0489 12.0202 12.1442 12.0282C13.4734 11.9572 14.5215 10.8618 14.5302 9.50786C14.5291 8.11305 13.3953 6.97998 12.0002 6.97998Z" fill="#001F3E"/>
<path fill-rule="evenodd" clip-rule="evenodd" d="M13.7038 22.6157C13.1489 22.7041 12.5798 22.75 12 22.75C6.06294 22.75 1.25 17.9371 1.25 12C1.25 6.06294 6.06294 1.25 12 1.25C17.9371 1.25 22.75 6.06294 22.75 12C22.75 17.2883 18.9315 21.6847 13.9013 22.5824C13.8357 22.5941 13.7698 22.6052 13.7038 22.6157ZM2.75 12C2.75 6.89137 6.89137 2.75 12 2.75C17.1086 2.75 21.25 6.89137 21.25 12C21.25 14.2737 20.4297 16.3558 19.0688 17.9664C18.7065 17.2871 18.1308 16.6774 17.3885 16.1778L17.3869 16.1767C15.8771 15.1666 13.9231 14.6851 12.0073 14.6851C10.0912 14.6851 8.13336 15.1666 6.6148 16.1753L6.61107 16.1778C5.86882 16.6773 5.29322 17.2869 4.9309 17.9661C3.57023 16.3555 2.75 14.2735 2.75 12ZM14.5095 20.9055C15.7781 20.5482 16.9351 19.9259 17.9214 19.1001C17.7536 18.5357 17.3227 17.9418 16.5519 17.4228C15.3416 16.6134 13.696 16.1851 12.0073 16.1851C10.3192 16.1851 8.66787 16.613 7.44661 17.4236C6.67642 17.9423 6.2459 18.5359 6.07815 19.1001C7.68434 20.4451 9.7435 21.2501 11.9998 21.2501C12.8706 21.2501 13.7121 21.1301 14.5095 20.9055Z" fill="#001F3E"/>
</svg>
