<svg width="24" height="24" viewBox="0 0 24 24" fill="none" xmlns="http://www.w3.org/2000/svg">
<path d="M12 7.75C12.41 7.75 12.75 8.09 12.75 8.5V13.6895L14.4697 11.9697C14.7597 11.6801 15.2394 11.68 15.5293 11.9697C15.8193 12.2597 15.8193 12.7403 15.5293 13.0303L12.5293 16.0303C12.3793 16.1801 12.1889 16.25 11.999 16.25C11.8093 16.2499 11.6196 16.18 11.4697 16.0303L8.46973 13.0303C8.17973 12.7403 8.17973 12.2597 8.46973 11.9697C8.75968 11.6801 9.23937 11.68 9.5293 11.9697L11.25 13.6904V8.5C11.25 8.09 11.59 7.75 12 7.75Z" fill="#292D32"/>
<path fill-rule="evenodd" clip-rule="evenodd" d="M12 1.25C17.93 1.25 22.75 6.07 22.75 12C22.75 17.93 17.93 22.75 12 22.75C6.07 22.75 1.25 17.93 1.25 12C1.25 6.07 6.07 1.25 12 1.25ZM12 2.75C6.9 2.75 2.75 6.9 2.75 12C2.75 17.1 6.9 21.25 12 21.25C17.1 21.25 21.25 17.1 21.25 12C21.25 6.9 17.1 2.75 12 2.75Z" fill="#292D32"/>
</svg>
