<svg width="24" height="24" viewBox="0 0 24 24" fill="none" xmlns="http://www.w3.org/2000/svg">
<path fill-rule="evenodd" clip-rule="evenodd" d="M2.9897 2.39989C3.74165 1.66198 4.62071 1.25 5.59012 1.25C5.9733 1.25 6.36323 1.33138 6.71953 1.5014C7.08768 1.67229 7.42321 1.93393 7.68409 2.30923L10.0004 5.57396C10.2054 5.85903 10.3658 6.13795 10.482 6.42035C10.5998 6.69709 10.6801 7.00643 10.6801 7.32C10.6801 7.70686 10.5674 8.07662 10.3672 8.40937C10.1969 8.70782 9.9644 8.99566 9.69577 9.26501L9.007 9.98096C9.01397 9.99743 9.02334 10.0197 9.03345 10.0455C9.18312 10.3079 9.44812 10.6772 9.84997 11.1524C10.2901 11.6609 10.7569 12.1761 11.2606 12.6897C11.7925 13.2117 12.2964 13.686 12.8052 14.118C13.2861 14.5248 13.6608 14.7841 13.9331 14.9322C13.9551 14.9417 13.9754 14.9509 13.992 14.9584L14.6798 14.2797L14.6816 14.2779C14.955 14.0047 15.2483 13.7639 15.5613 13.5966C15.8884 13.4019 16.2449 13.29 16.6401 13.29C16.94 13.29 17.2363 13.354 17.5341 13.4758C17.8171 13.5916 18.094 13.7509 18.3719 13.9398L18.3781 13.9441L21.691 16.2961C22.0456 16.5425 22.3235 16.8545 22.4966 17.2479L22.5017 17.2596L22.5065 17.2715C22.6339 17.59 22.7201 17.9351 22.7201 18.33C22.7201 18.8025 22.6148 19.2817 22.3983 19.7403C22.1986 20.1633 21.9382 20.5658 21.5959 20.9436L21.5955 20.944C21.0401 21.5562 20.4109 22.0159 19.6868 22.3131C18.9924 22.6021 18.2446 22.75 17.4501 22.75C16.3115 22.75 15.1214 22.4821 13.8961 21.96C12.6887 21.4455 11.4896 20.7561 10.3087 19.8963L10.3082 19.896L10.3077 19.8956C9.12683 19.0331 8.00837 18.0786 6.94236 17.0229L6.93979 17.0203L6.93724 17.0178C5.88162 15.9519 4.92689 14.8332 4.0738 13.6614L4.07253 13.6597L4.07127 13.6579C3.22488 12.4813 2.53522 11.293 2.02982 10.1032L2.02936 10.1021L2.0289 10.101C1.51732 8.88604 1.25012 7.69701 1.25012 6.54C1.25012 5.77184 1.38573 5.02732 1.66298 4.33342C1.94499 3.61753 2.38795 2.96904 2.9897 2.39989ZM5.59012 2.75C5.08199 2.75 4.56306 2.95593 4.03626 3.47449L4.03058 3.48008L4.02479 3.48555C3.57003 3.91456 3.25518 4.38355 3.05805 4.88459L3.05727 4.88657L3.05648 4.88854C2.85426 5.39408 2.75012 5.94888 2.75012 6.54C2.75012 7.46268 2.96278 8.45328 3.41089 9.51787C3.86521 10.5871 4.49498 11.678 5.28774 12.7803C6.09363 13.887 6.99761 14.9468 8.00043 15.9596C9.01359 16.9628 10.0742 17.8675 11.1923 18.6842C12.2912 19.4842 13.3918 20.1146 14.4841 20.58C15.5588 21.0379 16.5487 21.25 17.4501 21.25C18.0549 21.25 18.6065 21.1382 19.1117 20.9277L19.1137 20.9269L19.1157 20.926C19.6105 20.7232 20.0605 20.4034 20.4844 19.9364C20.722 19.6742 20.9017 19.3967 21.0419 19.0997C21.1654 18.8383 21.2201 18.5775 21.2201 18.33C21.2201 18.1689 21.188 18.0176 21.119 17.8418C21.0721 17.74 20.9914 17.6362 20.8332 17.5266L20.8296 17.5241L17.5223 15.1761C17.3029 15.0273 17.1217 14.9278 16.9661 14.8642C16.8239 14.806 16.7202 14.79 16.6401 14.79C16.5439 14.79 16.4473 14.8132 16.3201 14.8906L16.299 14.9035L16.277 14.9149C16.139 14.987 15.9601 15.1207 15.7405 15.3403L15.7387 15.3421L14.9805 16.0903L14.9784 16.0924C14.7357 16.3341 14.4186 16.48 14.0401 16.48C13.892 16.48 13.7164 16.4633 13.5268 16.3922L13.5106 16.3862L13.4947 16.3794C13.4534 16.3617 13.415 16.3441 13.3879 16.3316L13.3801 16.328C13.3477 16.3132 13.3367 16.3084 13.3316 16.3064L13.2945 16.2915L13.2592 16.2728C12.8538 16.0582 12.3779 15.7213 11.8357 15.2625L11.8352 15.2621L11.8347 15.2617C11.2852 14.7952 10.7508 14.2912 10.2048 13.7553L10.1997 13.7503L10.1948 13.7453C9.66135 13.2016 9.17063 12.6596 8.713 12.1308L8.71027 12.1276L8.70758 12.1245C8.25431 11.5888 7.90714 11.1141 7.6917 10.7191L7.65973 10.6605L7.63871 10.5975C7.63871 10.5975 7.63625 10.5907 7.62315 10.5597L7.61963 10.5514C7.60717 10.522 7.58748 10.4756 7.56788 10.4233L7.55288 10.3833L7.54252 10.3419C7.5102 10.2127 7.49012 10.081 7.49012 9.93C7.49012 9.59077 7.60572 9.26698 7.86372 9.00578L8.62466 8.2148L8.62979 8.20967C8.83581 8.00365 8.97909 7.81685 9.0672 7.66096L9.07317 7.6504L9.07947 7.64004C9.15526 7.51553 9.18012 7.40903 9.18012 7.32C9.18012 7.25575 9.16153 7.14722 9.10076 7.00544L9.09832 6.99973L9.09596 6.99397C9.03258 6.83904 8.9343 6.66049 8.78147 6.44823L8.77995 6.44611L6.45594 3.17046L6.45348 3.16691C6.35594 3.02601 6.23441 2.92955 6.08583 2.86097L6.08068 2.85859L6.07557 2.85614C5.93326 2.78783 5.7651 2.75 5.59012 2.75Z" fill="#001F3E"/>
<path d="M20.3005 3.69964C20.5933 3.99254 20.5933 4.46741 20.3005 4.7603L19.0608 5.99997L20.3005 7.23964C20.5933 7.53254 20.5933 8.00741 20.3005 8.3003C20.0076 8.5932 19.5327 8.5932 19.2398 8.3003L18.0001 7.06063L16.7605 8.3003C16.4676 8.5932 15.9927 8.5932 15.6998 8.3003C15.4069 8.00741 15.4069 7.53254 15.6998 7.23964L16.9395 5.99997L15.6998 4.7603C15.4069 4.46741 15.4069 3.99254 15.6998 3.69964C15.9927 3.40675 16.4676 3.40675 16.7605 3.69964L18.0001 4.93931L19.2398 3.69964C19.5327 3.40675 20.0076 3.40675 20.3005 3.69964Z" fill="#001F3E"/>
</svg>
