<svg width="24" height="24" viewBox="0 0 24 24" fill="none" xmlns="http://www.w3.org/2000/svg">
<path fill-rule="evenodd" clip-rule="evenodd" d="M10.9374 5.47764C11.6813 5.17411 12.519 5.17411 13.263 5.47764L13.2637 5.47796L15.7686 6.50328L15.7691 6.50348C16.106 6.64104 16.3704 6.89277 16.5477 7.15519C16.725 7.4176 16.8607 7.75811 16.8607 8.12444L16.8562 10.0993V10.1005C16.8556 12.6492 15.0219 14.9959 12.5271 15.6852L12.5247 15.6859C12.247 15.7616 11.9488 15.7616 11.6711 15.6859L11.6687 15.6852C9.17354 14.9958 7.33966 12.6484 7.33966 10.0993V8.12444C7.33966 7.7608 7.47238 7.42082 7.64999 7.15662C7.82733 6.89283 8.09251 6.6405 8.43252 6.50294L10.9374 5.47764ZM11.5044 6.86634L11.504 6.86649L8.99508 7.89347C8.99426 7.89385 8.98166 7.89958 8.96111 7.91731C8.93981 7.93569 8.91631 7.96156 8.89485 7.99348C8.8734 8.02539 8.8582 8.05709 8.84909 8.08401C8.84051 8.10937 8.83974 8.12318 8.83967 8.12439L8.83966 10.0993C8.83966 11.9492 10.1989 13.722 12.0664 14.2389L12.0658 14.2387L12.0682 14.2394L12.0664 14.2389C12.0854 14.2439 12.1104 14.2439 12.1294 14.2389C13.9969 13.722 15.3562 11.9492 15.3562 10.0993L15.3562 10.0976L15.3607 8.12472C15.3607 8.12472 15.3601 8.11166 15.3514 8.08641C15.3422 8.05957 15.3268 8.02751 15.3048 7.99491C15.2827 7.96232 15.2585 7.93567 15.2365 7.91663C15.216 7.89887 15.2033 7.89279 15.2021 7.8922L12.6963 6.86649L12.696 6.86636C12.3155 6.71121 11.8849 6.71121 11.5044 6.86634Z" fill="#001F3E"/>
<path d="M13.9999 17.75H9.99988C9.58566 17.75 9.24988 18.0858 9.24988 18.5C9.24988 18.9142 9.58566 19.25 9.99988 19.25H13.9999C14.4141 19.25 14.7499 18.9142 14.7499 18.5C14.7499 18.0858 14.4141 17.75 13.9999 17.75Z" fill="#001F3E"/>
<path fill-rule="evenodd" clip-rule="evenodd" d="M5.51816 2.65893C6.35801 1.77328 7.56018 1.25 8.99988 1.25H14.9999C16.4396 1.25 17.6418 1.77328 18.4816 2.65893C19.3156 3.53846 19.7499 4.72998 19.7499 6V18C19.7499 19.27 19.3156 20.4615 18.4816 21.3411C17.6418 22.2267 16.4396 22.75 14.9999 22.75H8.99988C7.56018 22.75 6.35801 22.2267 5.51816 21.3411C4.68413 20.4615 4.24988 19.27 4.24988 18V6C4.24988 4.72998 4.68413 3.53846 5.51816 2.65893ZM6.6066 3.69107C6.06563 4.26155 5.74988 5.07002 5.74988 6V18C5.74988 18.93 6.06563 19.7385 6.6066 20.3089C7.14175 20.8733 7.93958 21.25 8.99988 21.25H14.9999C16.0602 21.25 16.858 20.8733 17.3932 20.3089C17.9341 19.7385 18.2499 18.93 18.2499 18V6C18.2499 5.07002 17.9341 4.26155 17.3932 3.69107C16.858 3.12673 16.0602 2.75 14.9999 2.75H8.99988C7.93958 2.75 7.14175 3.12673 6.6066 3.69107Z" fill="#001F3E"/>
</svg>
