<svg width="24" height="24" viewBox="0 0 24 24" fill="none" xmlns="http://www.w3.org/2000/svg">
<path fill-rule="evenodd" clip-rule="evenodd" d="M10.0096 7.73338C10.269 7.47442 10.6957 7.47416 10.9549 7.73338C11.2141 7.99261 11.2139 8.41931 10.9549 8.6787L8.30259 11.331H17.3124C17.6791 11.331 17.9813 11.6333 17.9813 12C17.9813 12.3667 17.6791 12.6689 17.3124 12.6689H8.30259L10.9549 15.3213C11.214 15.5806 11.214 16.0073 10.9549 16.2666C10.8218 16.3996 10.651 16.4628 10.4823 16.4629C10.3135 16.4628 10.1428 16.3996 10.0096 16.2666L6.21568 12.4726C5.95638 12.2133 5.95648 11.7867 6.21568 11.5273L10.0096 7.73338ZM10.4823 7.73924C10.5425 7.73927 10.6026 7.7507 10.659 7.77342L10.5721 7.74706C10.5425 7.74138 10.5124 7.73927 10.4823 7.73924ZM10.9022 8.40721C10.9061 8.39904 10.9125 8.39212 10.9159 8.38377C10.9186 8.37689 10.9193 8.36928 10.9217 8.36229C10.9164 8.37771 10.9092 8.39234 10.9022 8.40721Z" fill="#001F3E"/>
</svg>
