<svg width="24" height="24" viewBox="0 0 24 24" fill="none" xmlns="http://www.w3.org/2000/svg">
<path fill-rule="evenodd" clip-rule="evenodd" d="M22.2965 7.92123C23.0422 5.66683 22.8989 3.62557 21.6378 2.3629C20.3757 1.09916 18.3354 0.956555 16.0798 1.70826L6.60198 4.86692C4.95506 5.41771 3.6544 6.0752 2.74897 6.8233C1.84645 7.569 1.25 8.48313 1.25 9.52638C1.25 10.5699 1.84671 11.4835 2.74964 12.2279C3.65527 12.9746 4.95644 13.63 6.60324 14.1779L9.01867 14.9829L9.82395 17.3982C10.372 19.045 11.0282 20.3456 11.7761 21.2511C12.5217 22.1539 13.4365 22.75 14.4804 22.75C15.5244 22.75 16.4391 22.1539 17.1848 21.2511C17.9326 20.3456 18.589 19.0445 19.137 17.3978L22.2959 7.92311L22.2965 7.92123ZM16.6093 3.29641C18.6067 2.63075 19.8482 2.94014 20.453 3.54575C21.0588 4.15235 21.3672 5.39841 20.7068 7.3956L17.5483 16.8693C17.036 18.4087 16.4615 19.4976 15.8937 20.1852C15.3235 20.8755 14.8374 21.0759 14.4804 21.0759C14.1235 21.0759 13.6373 20.8755 13.0672 20.1852C12.4993 19.4976 11.9247 18.4082 11.4124 16.8689L10.5713 14.3459L14.4813 10.4257C14.8078 10.0984 14.807 9.56841 14.4796 9.24199C14.1522 8.91557 13.6221 8.9163 13.2957 9.24364L9.29946 13.2502C9.28422 13.2655 9.26969 13.2812 9.25588 13.2973L7.13189 12.5895C5.59197 12.0772 4.50268 11.5034 3.81492 10.9364C3.1244 10.3671 2.92438 9.8821 2.92438 9.52638C2.92438 9.1704 3.12467 8.6846 3.8156 8.11373C4.50355 7.54532 5.59343 6.96949 7.13314 6.45451L16.6093 3.29641Z" fill="#001F3E"/>
</svg>
