<svg width="24" height="24" viewBox="0 0 24 24" fill="none" xmlns="http://www.w3.org/2000/svg">
<path fill-rule="evenodd" clip-rule="evenodd" d="M5.09433 17.8452C3.33098 15.2941 2.05766 12.0162 2.89858 8.32379C3.79849 4.36484 6.79733 2.06425 10.0908 1.43099C13.1804 0.836947 16.6009 1.69499 18.8707 4.06875L21.4698 1.46973C21.7626 1.17684 22.2375 1.17684 22.5304 1.46973C22.8233 1.76263 22.8233 2.2375 22.5304 2.53039L2.53041 22.5304C2.23752 22.8233 1.76265 22.8233 1.46975 22.5304C1.17686 22.2375 1.17686 21.7626 1.46975 21.4697L5.09433 17.8452ZM4.36128 8.65622C5.11147 5.35538 7.58264 3.44073 10.374 2.90401C13.0451 2.39043 15.9361 3.15383 17.8097 5.12982L15.03 7.9095C14.3235 7.01335 13.2307 6.43995 11.9998 6.43995C9.85402 6.43995 8.1298 8.1773 8.1298 10.3099C8.1298 11.5428 8.70495 12.6367 9.59651 13.343L6.17412 16.7654C4.6396 14.4632 3.6693 11.6942 4.36128 8.65622ZM10.6688 12.2706L13.9572 8.9823C13.5315 8.3498 12.8156 7.93995 11.9998 7.93995C10.6856 7.93995 9.6298 9.00259 9.6298 10.3099C9.6298 11.1275 10.0415 11.8452 10.6688 12.2706Z" fill="#001F3E"/>
<path d="M20.2142 7.76852C20.6182 7.67707 21.0198 7.93043 21.1113 8.33442C22.354 13.8241 18.928 18.3836 16.12 21.0802C13.8187 23.3008 10.1796 23.2988 7.87027 21.0809C7.57152 20.794 7.56193 20.3193 7.84885 20.0205C8.13577 19.7218 8.61054 19.7122 8.90929 19.9991C10.6398 21.661 13.3602 21.6592 15.0789 20.0004L15.0803 19.9991C17.8122 17.3756 20.7054 13.3354 19.6483 8.66561C19.5568 8.26162 19.8102 7.85998 20.2142 7.76852Z" fill="#001F3E"/>
</svg>
