<svg width="24" height="24" viewBox="0 0 24 24" fill="none" xmlns="http://www.w3.org/2000/svg">
<path fill-rule="evenodd" clip-rule="evenodd" d="M10.5 1.25C5.39137 1.25 1.25 5.39137 1.25 10.5C1.25 15.6086 5.39137 19.75 10.5 19.75C12.6623 19.75 14.6513 19.0081 16.2264 17.7649L21.4955 22.555C21.802 22.8336 22.2763 22.811 22.555 22.5045C22.8336 22.198 22.811 21.7237 22.5045 21.445L17.3286 16.7397C18.8326 15.0947 19.75 12.9045 19.75 10.5C19.75 5.39137 15.6086 1.25 10.5 1.25ZM2.75 10.5C2.75 6.21979 6.21979 2.75 10.5 2.75C14.7802 2.75 18.25 6.21979 18.25 10.5C18.25 14.7802 14.7802 18.25 10.5 18.25C6.21979 18.25 2.75 14.7802 2.75 10.5Z" fill="#001F3E"/>
</svg>
