<svg width="24" height="24" viewBox="0 0 24 24" fill="none" xmlns="http://www.w3.org/2000/svg">
<path fill-rule="evenodd" clip-rule="evenodd" d="M7.19917 1.59971C8.50312 1.01584 10.1851 1.13215 11.5012 2.18749C12.8174 1.13215 14.4994 1.01584 15.8033 1.59971C16.5383 1.92884 17.1717 2.48895 17.5391 3.24693C17.7747 3.73308 17.8905 4.27907 17.8673 4.86347C18.3812 4.89629 18.8447 5.04979 19.245 5.30971C19.8919 5.7297 20.2958 6.37649 20.5034 7.04322C20.7109 7.70922 20.7383 8.44001 20.593 9.10058C20.4491 9.75501 20.1178 10.4113 19.537 10.8337C19.4986 10.8616 19.4595 10.889 19.4197 10.9158C19.4201 10.9332 19.42 10.9508 19.4192 10.9686C19.3715 12.0903 19.2643 13.8502 19.0969 15.4912C19.0133 16.3113 18.9138 17.1108 18.7975 17.7902C18.6852 18.4466 18.5458 19.0643 18.3598 19.4736C17.987 20.2939 17.5021 21.1281 16.7292 21.7507C15.9378 22.3882 14.9133 22.7499 13.5638 22.7499H9.45183C8.10229 22.7499 7.07778 22.3882 6.28643 21.7507C5.51352 21.1281 5.02866 20.2939 4.65578 19.4736C4.46978 19.0643 4.33045 18.4466 4.21812 17.7902C4.10184 17.1108 4.00232 16.3113 3.9187 15.4912C3.75137 13.8502 3.64412 12.0903 3.59638 10.9686C3.59575 10.9538 3.59556 10.9391 3.59578 10.9245C3.55149 10.8949 3.50803 10.8646 3.46544 10.8337C2.8847 10.4113 2.55341 9.75501 2.40949 9.10058C2.26421 8.44001 2.29161 7.70922 2.49905 7.04322C2.70672 6.37649 3.11059 5.7297 3.75744 5.30971C4.15775 5.04979 4.62124 4.89629 5.13514 4.86347C5.11203 4.27907 5.22774 3.73308 5.46339 3.24693C5.83081 2.48895 6.46415 1.92884 7.19917 1.59971ZM6.75163 5.46994C6.55324 4.81809 6.62155 4.29652 6.81317 3.90121C7.00867 3.4979 7.35932 3.17151 7.81218 2.96874C8.72321 2.5608 9.97281 2.68771 10.8778 3.64923C11.0444 3.82627 11.2767 3.90435 11.5012 3.88125C11.7257 3.90435 11.9581 3.82627 12.1247 3.64923C13.0297 2.68771 14.2793 2.5608 15.1903 2.96874C15.6432 3.17151 15.9938 3.4979 16.1893 3.90121C16.3809 4.29652 16.4493 4.81809 16.2509 5.46994C16.173 5.72568 16.2372 6.00352 16.4193 6.19922C16.6014 6.39493 16.8739 6.47891 17.1346 6.41967C17.7465 6.2806 18.1541 6.38982 18.4282 6.56779C18.7166 6.75504 18.9421 7.07452 19.0713 7.4893C19.2007 7.90481 19.2177 8.37077 19.128 8.77841C19.037 9.19219 18.8542 9.47556 18.6548 9.62056C18.0365 10.0702 16.9929 10.3724 15.5988 10.5467C14.3676 10.7006 12.9565 10.7451 11.5012 10.7524C10.046 10.7451 8.63485 10.7006 7.40368 10.5467C6.0096 10.3724 4.966 10.0702 4.3477 9.62056C4.14834 9.47556 3.96547 9.19219 3.87448 8.77841C3.78483 8.37077 3.80176 7.90481 3.93118 7.4893C4.06038 7.07452 4.2859 6.75504 4.57429 6.56779C4.84839 6.38982 5.25601 6.2806 5.86791 6.41967C6.12858 6.47891 6.40108 6.39493 6.58319 6.19922C6.76529 6.00352 6.82946 5.72568 6.75163 5.46994ZM5.12919 11.6162C5.1853 12.6762 5.27932 14.048 5.41097 15.3391C5.49283 16.1419 5.58833 16.9044 5.69663 17.5372C5.80887 18.1931 5.92366 18.638 6.02133 18.8528C6.35764 19.5927 6.7238 20.1769 7.22742 20.5826C7.53766 20.8325 7.92654 21.0357 8.4442 21.1497C8.40779 20.941 8.37402 20.7142 8.34253 20.4744C8.23677 19.6688 8.15129 18.6716 8.08288 17.6235C7.95872 15.7211 7.88856 13.6152 7.85882 12.105C7.64141 12.0845 7.42744 12.0613 7.21763 12.0351C6.48706 11.9438 5.77573 11.8125 5.12919 11.6162ZM9.36117 12.2057C9.39198 13.6889 9.4609 15.7057 9.5797 17.5258C9.64721 18.5603 9.73017 19.5205 9.82977 20.2792C9.87965 20.6591 9.93232 20.9777 9.98673 21.2245L9.9924 21.2499H13.0232L13.0289 21.2245C13.0833 20.9777 13.136 20.6591 13.1859 20.2792C13.2855 19.5205 13.3684 18.5603 13.4359 17.5258C13.5547 15.7054 13.6237 13.6884 13.6545 12.2051C13.1394 12.2279 12.6148 12.2407 12.0885 12.2474C12.0567 12.2515 12.0242 12.2536 11.9913 12.2536C11.8282 12.2536 11.6648 12.2533 11.5012 12.2525C11.3377 12.2533 11.1743 12.2536 11.0112 12.2536C10.9783 12.2536 10.9458 12.2515 10.914 12.2474C10.3921 12.2408 9.87197 12.2281 9.36117 12.2057ZM15.1568 12.1038C15.1271 13.6141 15.0569 15.7206 14.9327 17.6235C14.8643 18.6716 14.7789 19.6688 14.6731 20.4744C14.6416 20.7142 14.6078 20.941 14.5714 21.1497C15.0891 21.0357 15.478 20.8325 15.7882 20.5826C16.2918 20.1769 16.658 19.5927 16.9943 18.8528C17.092 18.638 17.2068 18.1931 17.319 17.5372C17.4273 16.9044 17.5228 16.1419 17.6047 15.3391C17.7365 14.0464 17.8306 12.6727 17.8866 11.6122C17.2366 11.8107 16.5205 11.9431 15.7849 12.0351C15.5793 12.0608 15.3697 12.0836 15.1568 12.1038Z" fill="#001F3E"/>
</svg>
