<svg width="24" height="24" viewBox="0 0 24 24" fill="none" xmlns="http://www.w3.org/2000/svg">
<path fill-rule="evenodd" clip-rule="evenodd" d="M10.9306 3.84671C10.9305 3.8469 10.9307 3.84651 10.9306 3.84671L9.17252 7.36282C8.98518 7.74366 8.67227 8.06908 8.35091 8.30735C8.02862 8.54632 7.62813 8.74933 7.21602 8.81931L7.21338 8.81976L4.02376 9.34969C4.02363 9.34971 4.02388 9.34967 4.02376 9.34969C3.13416 9.49804 2.84436 9.84839 2.77741 10.058C2.71023 10.2684 2.74379 10.7226 3.38079 11.3596L5.86079 13.8396C6.18318 14.162 6.39883 14.5931 6.51775 15.0085C6.63676 15.4243 6.68127 15.9024 6.5823 16.3439L6.58119 16.3489L5.87117 19.4189C5.60675 20.5616 5.87421 20.9787 6.01003 21.0778C6.14645 21.1773 6.62681 21.3048 7.63769 20.7049L10.6333 18.9316C11.0492 18.6896 11.5473 18.5899 12.0042 18.5899C12.4603 18.5899 12.9586 18.6893 13.3725 18.9345C13.3726 18.9346 13.3724 18.9344 13.3725 18.9345L16.3619 20.7041C16.3621 20.7043 16.3617 20.704 16.3619 20.7041C17.381 21.306 17.8609 21.179 17.9949 21.0813C18.1276 20.9846 18.395 20.57 18.1296 19.4183L17.4186 16.3439C17.3196 15.9024 17.3642 15.4243 17.4832 15.0085C17.6021 14.5931 17.8177 14.162 18.1401 13.8396L20.6201 11.3596L20.6219 11.3578C21.2631 10.7209 21.2947 10.268 21.2277 10.0594C21.1601 9.84913 20.8679 9.49823 19.9775 9.34975C19.9774 9.34973 19.9777 9.34977 19.9775 9.34975L16.7875 8.81975C16.3712 8.75036 15.9676 8.54812 15.6427 8.30839C15.3191 8.06965 15.0059 7.74392 14.8184 7.36288L13.0589 3.8439C12.6381 2.99788 12.2105 2.82739 11.9992 2.82739C11.7866 2.82739 11.3563 3.00003 10.9306 3.84671ZM14.4017 3.17523C13.8724 2.11159 13.0452 1.32739 11.9992 1.32739C10.9544 1.32739 10.1245 2.11025 9.59034 3.17308L7.82964 6.69448L7.82691 6.69999C7.77408 6.80785 7.64779 6.96134 7.45751 7.10243C7.26786 7.24305 7.08389 7.32 6.96596 7.3403C6.9656 7.34036 6.96525 7.34042 6.9649 7.34048L3.77753 7.87003C2.62743 8.06172 1.66154 8.62142 1.3485 9.60175C1.03568 10.5814 1.49712 11.5972 2.32013 12.4202L4.80013 14.9002C4.89773 14.9978 5.00709 15.1817 5.07567 15.4213C5.14383 15.6594 5.14959 15.8754 5.11905 16.0139C5.11891 16.0146 5.11876 16.0152 5.11861 16.0159L4.40977 19.0808C4.40977 19.0808 4.40976 19.0808 4.40977 19.0808C4.11422 20.3581 4.21673 21.6261 5.12588 22.2895C6.03447 22.9525 7.2741 22.665 8.40322 21.9949L11.3876 20.2282C11.3883 20.2278 11.3889 20.2274 11.3895 20.2271C11.5237 20.1496 11.7448 20.0899 12.0042 20.0899C12.2655 20.0899 12.4821 20.1504 12.6081 20.2251L15.5984 21.9953C16.7289 22.6631 17.97 22.9558 18.8785 22.2934C19.7883 21.6302 19.8859 20.3597 19.5913 19.0815L18.8823 16.0159C18.8822 16.0152 18.882 16.0146 18.8819 16.0139C18.8513 15.8754 18.8571 15.6594 18.9252 15.4213C18.9938 15.1817 19.1032 14.9978 19.2008 14.9002L21.679 12.422C21.6793 12.4217 21.6797 12.4214 21.68 12.421C22.5082 11.598 22.971 10.5814 22.6557 9.60039C22.3408 8.62068 21.3731 8.06166 20.2238 7.8701L17.0338 7.3401C17.0339 7.34012 17.0336 7.34008 17.0338 7.3401M14.4017 3.17523C14.4018 3.17545 14.4015 3.17501 14.4017 3.17523Z" fill="#001F3E"/>
</svg>
