<svg width="24" height="24" viewBox="0 0 24 24" fill="none" xmlns="http://www.w3.org/2000/svg">
<path d="M12.3799 7.51C12.3799 7.09579 12.0441 6.76 11.6299 6.76C11.2157 6.76 10.8799 7.09579 10.8799 7.51V11.61C10.8799 12.0865 11.0412 12.5639 11.2659 12.9578C11.4903 13.3513 11.8183 13.7324 12.2265 13.9746L12.2275 13.9752L15.3255 15.824C15.6812 16.0363 16.1417 15.92 16.3539 15.5643C16.5662 15.2087 16.4499 14.7482 16.0942 14.536L12.9942 12.686L12.9922 12.6848C12.8609 12.6069 12.6993 12.4434 12.5689 12.2147C12.4385 11.9861 12.3799 11.7635 12.3799 11.61V7.51Z" fill="#001F3E"/>
<path fill-rule="evenodd" clip-rule="evenodd" d="M12 1.25C6.06579 1.25 1.25 6.06579 1.25 12C1.25 17.9342 6.06579 22.75 12 22.75C17.9342 22.75 22.75 17.9342 22.75 12C22.75 6.06579 17.9342 1.25 12 1.25ZM2.75 12C2.75 6.89421 6.89421 2.75 12 2.75C17.1058 2.75 21.25 6.89421 21.25 12C21.25 17.1058 17.1058 21.25 12 21.25C6.89421 21.25 2.75 17.1058 2.75 12Z" fill="#001F3E"/>
</svg>
