<svg width="24" height="24" viewBox="0 0 24 24" fill="none" xmlns="http://www.w3.org/2000/svg">
<path fill-rule="evenodd" clip-rule="evenodd" d="M2.46967 4.46967C3.45818 3.48116 5.00536 3.25 7 3.25H17C18.9946 3.25 20.5418 3.48116 21.5303 4.46967C22.5188 5.45818 22.75 7.00536 22.75 9V10C22.75 10.4142 22.4142 10.75 22 10.75C21.0342 10.75 20.25 11.5342 20.25 12.5C20.25 13.4658 21.0342 14.25 22 14.25C22.4142 14.25 22.75 14.5858 22.75 15C22.75 16.9946 22.5188 18.5418 21.5303 19.5303C20.5418 20.5188 18.9946 20.75 17 20.75H7C5.00536 20.75 3.45818 20.5188 2.46967 19.5303C1.48116 18.5418 1.25 16.9946 1.25 15V14.5C1.25 14.0858 1.58579 13.75 2 13.75C2.96579 13.75 3.75 12.9658 3.75 12C3.75 11.0342 2.96579 10.25 2 10.25C1.58579 10.25 1.25 9.91421 1.25 9.5V9C1.25 7.00536 1.48116 5.45818 2.46967 4.46967ZM13.2252 8C12.9968 7.54123 12.6054 7.13489 12.0608 7.13489C11.517 7.13489 11.1245 7.54041 10.8942 7.99861L10.1887 9.40958L10.1868 9.41331C10.1868 9.41331 10.1806 9.42362 10.1677 9.43806C10.1525 9.45506 10.1319 9.47421 10.1071 9.49258C10.0823 9.51094 10.0578 9.52532 10.0368 9.53511C10.0185 9.5436 10.0062 9.54674 10.0062 9.54674L8.73025 9.75873C8.23039 9.84204 7.74187 10.0977 7.57942 10.6064C7.41714 11.1146 7.66639 11.6061 8.02406 11.9638L9.01745 12.9572C9.01745 12.9572 9.01978 12.9596 9.02357 12.9648C9.02762 12.9703 9.03275 12.9782 9.03845 12.9887C9.0501 13.01 9.06154 13.0374 9.07041 13.0684C9.08985 13.1363 9.0867 13.1833 9.08449 13.1944L8.80077 14.4212C8.6777 14.9531 8.69393 15.5891 9.17452 15.9398C9.65463 16.2901 10.2656 16.1124 10.7357 15.8335L11.9301 15.1265C11.9425 15.1196 11.9894 15.1021 12.0628 15.1021C12.0965 15.1021 12.1271 15.1059 12.1518 15.1118C12.1638 15.1147 12.1732 15.1177 12.1799 15.1203C12.1867 15.123 12.1896 15.1247 12.1896 15.1247L13.3879 15.8341C13.8574 16.1114 14.4689 16.2917 14.9495 15.9414C15.4309 15.5904 15.4444 14.9527 15.322 14.4216L15.0382 13.1944C15.036 13.1833 15.0328 13.1363 15.0522 13.0684C15.0611 13.0374 15.0726 13.01 15.0842 12.9887C15.0899 12.9782 15.095 12.9703 15.0991 12.9648C15.1028 12.9596 15.1052 12.9572 15.1052 12.9572L16.0973 11.965L16.098 11.9643C16.4579 11.6066 16.7081 11.1146 16.5444 10.6055C16.3811 10.0972 15.8917 9.84195 15.3924 9.75873L14.1145 9.54641C14.1145 9.54641 14.102 9.54361 14.0817 9.53425C14.0604 9.52442 14.0358 9.51008 14.0111 9.49185C13.9863 9.4736 13.9658 9.4546 13.9507 9.43776C13.938 9.4235 13.9317 9.41307 13.9317 9.41307L13.93 9.40958L13.2252 8Z" fill="#001F3E"/>
</svg>
