<svg width="24" height="24" viewBox="0 0 24 24" fill="none" xmlns="http://www.w3.org/2000/svg">
<path fill-rule="evenodd" clip-rule="evenodd" d="M11.9996 3.1767C10.2545 3.1767 8.5484 3.69421 7.09732 4.66378C4.16136 6.62555 2.65642 10.2587 3.34529 13.722C4.03417 17.1853 6.81494 19.966 10.2782 20.6549C15.6615 21.7257 20.8235 17.4276 20.8235 12.0006C20.8235 11.6757 21.0869 11.4123 21.4118 11.4123C21.7366 11.4123 22 11.6757 22 12.0006C22 18.1512 16.1498 23.0224 10.0486 21.8088C6.12365 21.028 2.9721 17.8765 2.19139 13.9515C1.41066 10.0266 3.11626 5.90887 6.4437 3.68555C8.08825 2.58669 10.0217 2.00018 11.9996 2.00018C12.3245 2.00018 12.5879 2.26356 12.5879 2.58844C12.5879 2.91333 12.3245 3.1767 11.9996 3.1767ZM18.6428 2.17248C18.8724 1.94276 19.2449 1.94276 19.4747 2.17248L21.8276 4.5255C22.0574 4.75524 22.0574 5.1277 21.8276 5.35744C21.598 5.58716 21.2255 5.58716 20.9957 5.35744L19.5851 3.94672V7.88276C19.5851 8.20764 19.3217 8.47102 18.9968 8.47102C18.6719 8.47102 18.4085 8.20764 18.4085 7.88276V4.07052L17.1216 5.35744C16.892 5.58716 16.5194 5.58716 16.2897 5.35744C16.0599 5.1277 16.0599 4.75524 16.2897 4.5255L18.6428 2.17248Z" fill="#001F3E"/>
<path d="M12.0001 1.79999C12.4351 1.80024 12.788 2.15305 12.7882 2.58807C12.7882 3.02327 12.4353 3.37688 12.0001 3.37714C10.2945 3.37714 8.62634 3.88266 7.20815 4.83026C4.33971 6.74708 2.8682 10.2991 3.54116 13.6828C4.21425 17.0667 6.93359 19.786 10.3175 20.4592C15.5761 21.5049 20.6232 17.302 20.6232 12.0002C20.6234 11.565 20.977 11.2121 21.4123 11.2121C21.8473 11.2124 22.2001 11.5652 22.2003 12.0002C22.2003 18.2758 16.2357 23.2432 10.0099 22.0051C6.00565 21.2085 2.79176 17.9948 1.99526 13.9904C1.19884 9.98641 2.93784 5.78804 6.33218 3.51971C8.00962 2.39888 9.98264 1.79999 12.0001 1.79999ZM12.0001 2.00018C10.0222 2.00018 8.08805 2.58688 6.4435 3.68573C3.11625 5.90907 1.4109 10.0266 2.19155 13.9514C2.97227 17.8764 6.12405 21.028 10.049 21.8088C16.1501 23.0221 22.0001 18.1507 22.0001 12.0002C21.9999 11.6756 21.7368 11.4125 21.4123 11.4123C21.0875 11.4123 20.8236 11.6755 20.8234 12.0002C20.8234 17.4272 15.6617 21.7252 10.2785 20.6545C6.8152 19.9656 4.03375 17.1851 3.34487 13.7219C2.6561 10.2587 4.1619 6.62597 7.0978 4.66425C8.54886 3.69472 10.255 3.17694 12.0001 3.17694C12.3248 3.17668 12.588 2.9128 12.588 2.58807C12.5878 2.26351 12.3247 2.00044 12.0001 2.00018ZM18.5011 2.03143C18.8089 1.72355 19.3085 1.72364 19.6164 2.03143L21.9689 4.38397C22.2768 4.69181 22.2768 5.19137 21.9689 5.49921C21.6612 5.80669 21.1624 5.80658 20.8546 5.49921L19.7853 4.42987V7.883C19.7852 8.3181 19.4323 8.67086 18.9972 8.67108C18.562 8.67108 18.2083 8.31824 18.2082 7.883V4.55389L17.2628 5.49921C16.9552 5.80669 16.4563 5.80659 16.1486 5.49921C15.8407 5.19137 15.8407 4.69181 16.1486 4.38397L18.5011 2.03143ZM19.4748 2.17206C19.245 1.94258 18.8723 1.94257 18.6427 2.17206L16.2902 4.52557C16.0604 4.75531 16.0604 5.12787 16.2902 5.3576C16.5199 5.58691 16.8917 5.58695 17.1212 5.3576L18.4083 4.0705V7.883C18.4085 8.20777 18.6724 8.47089 18.9972 8.47089C19.3218 8.47067 19.585 8.20764 19.5851 7.883V3.94647L20.9962 5.3576C21.2259 5.58691 21.5977 5.58695 21.8273 5.3576C22.0571 5.12787 22.0571 4.75531 21.8273 4.52557L19.4748 2.17206Z" fill="#001F3E"/>
<path fill-rule="evenodd" clip-rule="evenodd" d="M14.0829 12.8322C15.2332 12.8322 16.1658 13.7648 16.1658 14.9151C16.1658 16.0655 15.2332 16.998 14.0829 16.998C12.9325 16.998 12 16.0655 12 14.9151C12 13.7648 12.9326 12.8322 14.0829 12.8322ZM14.0829 14.2211C13.6995 14.2211 13.3889 14.5317 13.3888 14.9151C13.3888 15.2986 13.6994 15.6092 14.0829 15.6092C14.4663 15.6091 14.7769 15.2985 14.7769 14.9151C14.7769 14.5318 14.4663 14.2211 14.0829 14.2211Z" fill="#001F3E"/>
<path d="M15.043 8.026C15.2999 7.76917 15.7161 7.76917 15.973 8.026C16.2298 8.28287 16.2298 8.69912 15.973 8.956L8.95693 15.972C8.70006 16.2289 8.28381 16.2289 8.02694 15.972C7.77009 15.7152 7.77007 15.2989 8.02694 15.042L15.043 8.026Z" fill="#001F3E"/>
<path fill-rule="evenodd" clip-rule="evenodd" d="M9.91703 7C11.0674 7.00003 11.9999 7.93266 12 9.08293C12 10.2333 11.0674 11.1658 9.91703 11.1659C8.76668 11.1659 7.83411 10.2333 7.83411 9.08293C7.83418 7.93262 8.76671 7 9.91703 7ZM9.91703 8.38889C9.53362 8.38889 9.22307 8.69953 9.223 9.08293C9.223 9.46636 9.53355 9.77696 9.91703 9.77696C10.3005 9.77693 10.6111 9.46637 10.6111 9.08293C10.611 8.69953 10.3004 8.38892 9.91703 8.38889Z" fill="#001F3E"/>
</svg>
