<svg width="24" height="24" viewBox="0 0 24 24" fill="none" xmlns="http://www.w3.org/2000/svg">
<path fill-rule="evenodd" clip-rule="evenodd" d="M8 5.25C6.48122 5.25 5.25 6.48122 5.25 8C5.25 9.51878 6.48122 10.75 8 10.75C9.51878 10.75 10.75 9.51878 10.75 8C10.75 6.48122 9.51878 5.25 8 5.25ZM6.75 8C6.75 7.30964 7.30964 6.75 8 6.75C8.69036 6.75 9.25 7.30964 9.25 8C9.25 8.69036 8.69036 9.25 8 9.25C7.30964 9.25 6.75 8.69036 6.75 8Z" fill="#001F3E"/>
<path fill-rule="evenodd" clip-rule="evenodd" d="M1.25 15C1.25 17.24 1.63867 19.0277 2.60294 20.3364L1.46967 21.4697C1.17678 21.7626 1.17678 22.2374 1.46967 22.5303C1.76256 22.8232 2.23744 22.8232 2.53033 22.5303L22.5303 2.53033C22.8232 2.23744 22.8232 1.76256 22.5303 1.46967C22.2374 1.17678 21.7626 1.17678 21.4697 1.46967L20.3354 2.60397C19.0271 1.62987 17.2339 1.25 15 1.25H9C6.42603 1.25 4.42914 1.7602 3.09467 3.09467C1.7602 4.42914 1.25 6.42603 1.25 9V15ZM4.15533 4.15533C3.2398 5.07086 2.75 6.57397 2.75 9V15C2.75 16.9672 3.0749 18.3252 3.68068 19.2587L19.2587 3.68061C18.3311 3.07105 16.9716 2.75 15 2.75H9C6.57397 2.75 5.07086 3.2398 4.15533 4.15533Z" fill="#001F3E"/>
<path d="M21.9233 7.24146C22.3367 7.21562 22.6928 7.52981 22.7186 7.94322C22.7397 8.28034 22.7501 8.63602 22.7501 9V13.0375C22.7502 13.0458 22.7502 13.0542 22.7501 13.0625V15C22.7501 17.574 22.2399 19.5709 20.9054 20.9053C19.5709 22.2398 17.574 22.75 15.0001 22.75H9.00007C8.2352 22.75 7.51269 22.7088 6.84065 22.6004C6.43172 22.5345 6.15369 22.1495 6.21964 21.7406C6.2856 21.3316 6.67057 21.0536 7.0795 21.1196C7.64746 21.2112 8.28495 21.25 9.00007 21.25H15.0001C17.4261 21.25 18.9292 20.7602 19.8447 19.8447C20.7603 18.9291 21.2501 17.426 21.2501 15V13.3592L19.8398 11.9403L19.839 11.9395C19.3519 11.4533 18.5674 11.4537 18.0805 11.9403L13.051 16.9798C12.4581 17.5727 11.4927 17.5732 10.8998 16.9803C10.607 16.6874 10.607 16.2126 10.8998 15.9197C11.1927 15.6268 11.6676 15.6268 11.9605 15.9197C11.9627 15.9219 11.9658 15.9234 11.9658 15.9234L11.969 15.9243C11.969 15.9243 11.9728 15.925 11.9752 15.925C11.9792 15.925 11.9825 15.9242 11.9845 15.9234C11.9845 15.9234 11.9876 15.9219 11.9897 15.9198L17.0193 10.8802C18.0922 9.8073 19.8276 9.80678 20.9005 10.8797L20.9021 10.8813L21.2501 11.2314V9C21.2501 8.66398 21.2405 8.33966 21.2215 8.03678C21.1957 7.62338 21.5099 7.2673 21.9233 7.24146Z" fill="#001F3E"/>
</svg>
