<svg width="24" height="24" viewBox="0 0 24 24" fill="none" xmlns="http://www.w3.org/2000/svg">
<path fill-rule="evenodd" clip-rule="evenodd" d="M16.2627 3.30671C17.6286 2.60997 19.1759 2.43978 20.509 2.85613C21.8653 3.27973 22.9725 4.30784 23.3676 5.90499C23.7957 7.63522 22.7456 9.35988 21.205 10.0119C19.8426 10.5885 18.2944 11.2033 16.7007 11.814C16.1889 13.1878 15.6547 14.5007 15.2461 15.4752C14.7259 16.7161 13.4459 17.5636 12.1217 17.5553C10.5389 17.5454 9.35434 16.3048 9.53882 14.7043L9.56974 14.4381C8.21925 14.9187 7.01585 15.3394 6.07911 15.664C4.66433 16.1542 3.20288 15.4575 2.64226 14.1257C2.60963 14.0638 2.57964 14.0001 2.5524 13.9346C1.95764 12.5049 1.37669 10.7495 0.974782 9.46236C0.5379 8.06322 1.19422 6.54611 2.4761 5.88002C3.77458 5.20531 5.35908 5.59312 6.14821 6.85551C6.43521 7.31462 6.76007 7.84422 7.09081 8.40293C9.77386 6.82498 13.2084 4.86481 16.2627 3.30671ZM21.9115 6.26525C21.651 5.21211 20.9531 4.56629 20.0618 4.28792C19.1473 4.0023 18.0045 4.10209 16.9444 4.64289C13.6796 6.30834 9.95876 8.44777 7.2048 10.0772C7.03221 10.1793 6.8259 10.2081 6.63197 10.157C6.43803 10.106 6.27262 9.9794 6.17267 9.80553C5.72692 9.03012 5.26715 8.2759 4.87628 7.65061C4.51878 7.07872 3.80088 6.88206 3.16773 7.21106C2.51798 7.54868 2.19062 8.32356 2.4066 9.01527C2.80513 10.2916 3.36971 11.994 3.93733 13.3585C3.94937 13.3874 3.96259 13.4146 3.97678 13.4402C3.9917 13.4672 4.00495 13.495 4.01645 13.5235C4.27346 14.1615 4.93504 14.4729 5.588 14.2466C6.77816 13.8342 8.40011 13.2663 10.2067 12.6173C10.4521 12.5292 10.7256 12.5748 10.9291 12.7378C11.1326 12.9008 11.2369 13.1577 11.2044 13.4164C11.1386 13.942 11.0797 14.4356 11.029 14.8761C10.9526 15.5382 11.3883 16.0507 12.1311 16.0553C12.8409 16.0597 13.575 15.5818 13.8628 14.8953C14.298 13.8571 14.8749 12.4366 15.4113 10.9763C15.4861 10.7727 15.6453 10.6115 15.848 10.5341C17.5438 9.8872 19.1899 9.23594 20.6203 8.63054C21.5754 8.22633 22.1392 7.18531 21.9115 6.26525Z" fill="#001F3E"/>
<path d="M2.26839 22.2307C1.85418 22.2307 1.51839 21.8949 1.51839 21.4807C1.51839 21.0664 1.85418 20.7307 2.26839 20.7307H21.6736C22.0879 20.7307 22.4236 21.0664 22.4236 21.4807C22.4236 21.8949 22.0879 22.2307 21.6736 22.2307H2.26839Z" fill="#001F3E"/>
</svg>
