<svg width="24" height="24" viewBox="0 0 24 24" fill="none" xmlns="http://www.w3.org/2000/svg">
<path d="M10 17.25C9.58579 17.25 9.25 17.5858 9.25 18C9.25 18.4142 9.58579 18.75 10 18.75H14C14.4142 18.75 14.75 18.4142 14.75 18C14.75 17.5858 14.4142 17.25 14 17.25H10Z" fill="#001F3E"/>
<path d="M12 7.5703C12.4142 7.5703 12.75 7.90608 12.75 8.3203V8.36299C13.8803 8.42084 14.75 9.37567 14.75 10.5103C14.75 10.9246 14.4142 11.2603 14 11.2603C13.5858 11.2603 13.25 10.9246 13.25 10.5103C13.25 10.1332 12.9634 9.86676 12.6539 9.86034H11.16C10.9706 9.86034 10.75 10.0372 10.75 10.3303C10.75 10.5823 10.8032 10.6488 10.8086 10.6556C10.8202 10.6702 10.8638 10.7172 11.0492 10.7829L13.4551 11.625C13.7443 11.7296 14.0965 11.8987 14.3621 12.2384C14.6349 12.5874 14.74 13.0163 14.74 13.4903C14.74 14.5372 13.9206 15.4603 12.83 15.4603H12.75V15.5002C12.75 15.9145 12.4142 16.2502 12 16.2502C11.5858 16.2502 11.25 15.9145 11.25 15.5002V15.4588C10.1101 15.4147 9.25 14.4323 9.25 13.3103C9.25 12.8961 9.58579 12.5603 10 12.5603C10.4142 12.5603 10.75 12.8961 10.75 13.3103C10.75 13.7023 11.0495 13.9603 11.33 13.9603H12.83C13.0194 13.9603 13.24 13.7835 13.24 13.4903C13.24 13.2379 13.1866 13.1701 13.1806 13.1625C13.1688 13.1474 13.1263 13.1016 12.9483 13.0368L10.5496 12.1973C10.256 12.0933 9.89956 11.9251 9.63113 11.5848C9.355 11.2347 9.25 10.8042 9.25 10.3303C9.25 9.28348 10.0694 8.36034 11.16 8.36034H11.25V8.3203C11.25 7.90608 11.5858 7.5703 12 7.5703Z" fill="#001F3E"/>
<path fill-rule="evenodd" clip-rule="evenodd" d="M16.3343 2.31144C16.2313 2.16036 16.1106 2.02217 15.9739 1.89875C15.4917 1.46323 14.8547 1.25 14.2 1.25L10 1.25C9.34528 1.25 8.70831 1.46323 8.22607 1.89875C8.09808 2.01434 7.98409 2.14289 7.88549 2.28285C5.2844 2.5662 3.75 4.62259 3.75 7V18C3.75 19.27 4.18425 20.4615 5.01828 21.3411C5.85813 22.2267 7.0603 22.75 8.5 22.75H15.5C16.9397 22.75 18.1419 22.2267 18.9817 21.3411C19.8158 20.4615 20.25 19.27 20.25 18V7C20.25 4.69602 18.8086 2.68586 16.3343 2.31144ZM14.2 2.75C14.5353 2.75 14.7983 2.8582 14.9686 3.01197C15.1299 3.15771 15.25 3.38054 15.25 3.71429C15.25 4.04803 15.1299 4.27086 14.9686 4.41661C14.7983 4.57038 14.5353 4.67857 14.2 4.67857L10 4.67857C9.66472 4.67857 9.40169 4.57037 9.23143 4.41661C9.07005 4.27086 8.95 4.04803 8.95 3.71429C8.95 3.38054 9.07005 3.15771 9.23143 3.01196C9.40169 2.8582 9.66472 2.75 10 2.75L14.2 2.75ZM16.74 3.95085C16.6857 4.58749 16.4117 5.13445 15.9739 5.52982C15.4917 5.96534 14.8547 6.17857 14.2 6.17857L10 6.17857C9.34528 6.17857 8.70831 5.96534 8.22607 5.52982C7.7741 5.12164 7.49675 4.55189 7.45539 3.8887C6.06012 4.2864 5.25 5.50095 5.25 7V18C5.25 18.93 5.56575 19.7385 6.10672 20.3089C6.64187 20.8733 7.4397 21.25 8.5 21.25H15.5C16.5603 21.25 17.3581 20.8733 17.8933 20.3089C18.4343 19.7385 18.75 18.93 18.75 18V7C18.75 5.56812 18.0109 4.40115 16.74 3.95085Z" fill="#001F3E"/>
</svg>
