<svg width="24" height="24" viewBox="0 0 24 24" fill="none" xmlns="http://www.w3.org/2000/svg">
<path fill-rule="evenodd" clip-rule="evenodd" d="M20.2666 7.35145C21.3707 5.24169 19.1301 2.95881 17.0061 4.02078L13.7661 5.64078C12.655 6.19635 11.3464 6.19635 10.2353 5.64078L6.9953 4.02078C4.86596 2.95611 2.62485 5.24634 3.73413 7.35015L9.83439 18.9406C10.7532 20.6864 13.2482 20.6864 14.167 18.9406L20.2666 7.35145C20.2667 7.35126 20.2665 7.35165 20.2666 7.35145ZM16.3353 2.67914C19.7712 0.961203 23.3703 4.6578 21.5951 8.04787L15.4944 19.6393C14.0132 22.4535 9.9882 22.4535 8.50702 19.6393L2.40728 8.04976C0.617175 4.65371 4.23562 0.963887 7.66612 2.67914L10.9061 4.29914C11.595 4.64356 12.4064 4.64356 13.0953 4.29914L16.3353 2.67914Z" fill="#001F3E"/>
</svg>
