<svg width="24" height="24" viewBox="0 0 24 24" fill="none" xmlns="http://www.w3.org/2000/svg">
<path fill-rule="evenodd" clip-rule="evenodd" d="M18.4004 1.25C17.4362 1.25 16.6504 2.03579 16.6504 3V18C16.6504 18.9642 17.4362 19.75 18.4004 19.75H20.0004C20.9646 19.75 21.7504 18.9642 21.7504 18V3C21.7504 2.03579 20.9646 1.25 20.0004 1.25H18.4004ZM18.1504 3C18.1504 2.86421 18.2646 2.75 18.4004 2.75H20.0004C20.1362 2.75 20.2504 2.86421 20.2504 3V18C20.2504 18.1358 20.1362 18.25 20.0004 18.25H18.4004C18.2646 18.25 18.1504 18.1358 18.1504 18V3ZM9.44922 6.19C9.44922 5.22579 10.235 4.44 11.1992 4.44H12.7992C13.7634 4.44 14.5492 5.22579 14.5492 6.19V18C14.5492 18.9642 13.7634 19.75 12.7992 19.75H11.1992C10.235 19.75 9.44922 18.9642 9.44922 18V6.19ZM11.1992 5.94C11.0634 5.94 10.9492 6.05422 10.9492 6.19V18C10.9492 18.1358 11.0634 18.25 11.1992 18.25H12.7992C12.935 18.25 13.0492 18.1358 13.0492 18V6.19C13.0492 6.05422 12.935 5.94 12.7992 5.94H11.1992ZM4 7.63C3.03579 7.63 2.25 8.41579 2.25 9.38V18C2.25 18.9642 3.03579 19.75 4 19.75H5.59998C6.56419 19.75 7.34998 18.9642 7.34998 18V9.38C7.34998 8.41579 6.56419 7.63 5.59998 7.63H4ZM3.75 9.38C3.75 9.24422 3.86421 9.13 4 9.13H5.59998C5.73576 9.13 5.84998 9.24422 5.84998 9.38V18C5.84998 18.1358 5.73576 18.25 5.59998 18.25H4C3.86421 18.25 3.75 18.1358 3.75 18V9.38ZM3 21.25C2.58579 21.25 2.25 21.5858 2.25 22C2.25 22.4142 2.58579 22.75 3 22.75H21C21.4142 22.75 21.75 22.4142 21.75 22C21.75 21.5858 21.4142 21.25 21 21.25H3Z" fill="#001F3E"/>
</svg>
