<svg width="24" height="24" viewBox="0 0 24 24" fill="none" xmlns="http://www.w3.org/2000/svg">
<path fill-rule="evenodd" clip-rule="evenodd" d="M15.8185 5.08714C16.0903 3.79754 15.2538 2.45793 14.0311 2.04286C13.4379 1.82458 12.8101 1.87344 12.2871 2.05323C11.7657 2.23243 11.2669 2.56965 10.9577 3.03264L10.9568 3.03397L7.98592 7.45409C7.87634 7.10102 7.69567 6.78334 7.41457 6.52386C6.87802 6.02859 6.13834 5.89996 5.38086 5.89996H4.38086C3.62338 5.89996 2.8837 6.02859 2.34715 6.52386C1.79586 7.03274 1.63086 7.76545 1.63086 8.54996V18.35C1.63086 19.1345 1.79586 19.8672 2.34715 20.3761C2.8837 20.8713 3.62338 21 4.38086 21H5.38086C6.13834 21 6.87802 20.8713 7.41457 20.3761C7.64396 20.1643 7.80647 19.9138 7.91804 19.637L10.0895 21.318C10.4198 21.6285 10.869 21.8123 11.2498 21.9211C11.6641 22.0395 12.1084 22.1 12.4809 22.1H16.2809C17.0606 22.1 17.8378 21.8114 18.4612 21.3553C19.0778 20.9041 19.5954 20.2505 19.8012 19.4602L22.1906 12.1927C22.5104 11.2886 22.3975 10.3761 21.8847 9.68009C21.3735 8.98643 20.5338 8.59999 19.5809 8.59999H15.5809C15.491 8.59999 15.4226 8.56368 15.3807 8.51628C15.3447 8.4754 15.3039 8.39882 15.3228 8.25994L15.8185 5.08714ZM8.13086 17.9047L11.0776 20.1861L11.1112 20.2197C11.1778 20.2863 11.3579 20.392 11.6619 20.4788C11.9476 20.5605 12.2533 20.6 12.4809 20.6H16.2809C16.7011 20.6 17.1739 20.4386 17.5755 20.1447C17.9765 19.8513 18.254 19.4651 18.3533 19.0681L18.3599 19.0416L20.7714 11.7067L20.7746 11.6977C20.9505 11.205 20.8624 10.8214 20.6771 10.5699C20.4882 10.3136 20.1279 10.1 19.5809 10.1H15.5809C14.5375 10.1 13.672 9.20859 13.8384 8.04393L13.8398 8.0342L14.3435 4.81061L14.3487 4.78729C14.4594 4.28927 14.1057 3.64885 13.5437 3.46151L13.5305 3.45711L13.5175 3.45224C13.3145 3.37612 13.0478 3.37787 12.7747 3.47176C12.4965 3.56738 12.2958 3.72969 12.2049 3.86602L12.2033 3.86837L8.13086 9.9274V17.9047ZM3.13086 8.54996C3.13086 7.93448 3.26585 7.71719 3.36457 7.62607C3.47802 7.52134 3.73834 7.39996 4.38086 7.39996H5.38086C6.02338 7.39996 6.2837 7.52134 6.39715 7.62607C6.49586 7.71719 6.63086 7.93448 6.63086 8.54996V18.35C6.63086 18.9655 6.49586 19.1827 6.39715 19.2739C6.2837 19.3786 6.02338 19.5 5.38086 19.5H4.38086C3.73834 19.5 3.47802 19.3786 3.36457 19.2739C3.26585 19.1827 3.13086 18.9655 3.13086 18.35V8.54996Z" fill="#001F3E"/>
</svg>
