<svg width="24" height="24" viewBox="0 0 24 24" fill="none" xmlns="http://www.w3.org/2000/svg">
<path d="M12.3623 5.76018C12.8225 5.7602 13.1963 6.13394 13.1963 6.59416V7.43791C13.5867 7.52788 13.9182 7.67378 14.1797 7.82463C14.4168 7.96148 14.6027 8.10364 14.7314 8.21428C14.7959 8.26971 14.8473 8.31879 14.8848 8.35588C14.9036 8.37449 14.9316 8.40276 14.9316 8.40276C15.2387 8.74536 15.2351 9.2996 14.8926 9.60686C14.5736 9.8928 14.0947 9.88831 13.7822 9.60979L13.7129 9.54045C13.7007 9.52841 13.6777 9.50657 13.6455 9.47893C13.5802 9.4228 13.4784 9.344 13.3467 9.26799C13.0834 9.11618 12.7188 8.98347 12.2705 9.0219C11.7688 9.06499 11.4715 9.23209 11.3076 9.39299C11.1436 9.5543 11.0723 9.74683 11.0723 9.93205C11.0723 10.1048 11.1082 10.1858 11.1299 10.2221C11.1523 10.2594 11.1941 10.3073 11.29 10.3617C11.5268 10.4959 11.883 10.5701 12.4395 10.6733C12.4557 10.6763 12.4726 10.679 12.4893 10.6821C12.9585 10.7688 13.6016 10.8878 14.1182 11.1908C14.4068 11.3603 14.6826 11.5998 14.8809 11.9408C15.0792 12.2824 15.1699 12.6738 15.1699 13.0981C15.1698 13.7324 14.8259 14.2376 14.4248 14.5766C14.0819 14.8663 13.6523 15.0759 13.1963 15.2065V16.1088C13.196 16.5688 12.8223 16.9418 12.3623 16.9418C11.9024 16.9417 11.5296 16.5687 11.5293 16.1088V15.3305C10.8033 15.2379 10.0623 14.9484 9.4375 14.3783C9.09778 14.0682 9.07387 13.5415 9.38379 13.2016C9.69401 12.8617 10.2206 12.8377 10.5605 13.1479C11.1284 13.6659 11.9181 13.7909 12.5957 13.642C12.932 13.5681 13.1916 13.4357 13.3486 13.3031C13.4249 13.2387 13.4657 13.1837 13.4854 13.1479C13.5022 13.117 13.5029 13.1015 13.5029 13.0981C13.5029 12.9138 13.465 12.8229 13.4395 12.7787C13.4137 12.7346 13.3694 12.6841 13.2744 12.6283C13.0412 12.4916 12.6871 12.4142 12.1357 12.3119C12.1122 12.3076 12.088 12.3028 12.0635 12.2983C11.6013 12.2131 10.9732 12.0977 10.4688 11.8119C10.1811 11.6488 9.90189 11.4153 9.7002 11.0785C9.49784 10.7405 9.40631 10.3523 9.40625 9.93205C9.40633 8.77507 10.2078 7.78438 11.5293 7.45842V6.59416C11.5293 6.134 11.9022 5.7603 12.3623 5.76018Z" fill="#001F3E"/>
<path fill-rule="evenodd" clip-rule="evenodd" d="M9.67676 1.68791C11.1083 1.10388 12.7218 1.10386 14.1533 1.68791L19.7236 3.96819C20.2692 4.19109 20.725 4.61371 21.041 5.08147C21.3571 5.54939 21.58 6.13034 21.5801 6.72209V6.72404L21.5703 11.1127C21.5698 16.3514 17.7829 21.2183 12.6201 22.6449L12.6172 22.6459C12.1582 22.7711 11.6622 22.771 11.2031 22.6459L11.2002 22.6449C6.03697 21.2183 2.25011 16.3519 2.25 11.1127V6.72209C2.25009 6.13303 2.46841 5.55216 2.78418 5.08244C3.0997 4.61325 3.55567 4.19 4.10742 3.96721L9.67676 1.68791ZM13.5869 3.07658C12.5188 2.64096 11.3113 2.64089 10.2432 3.07658L4.66992 5.35783C4.45288 5.44522 4.21485 5.6419 4.02832 5.91936C3.84175 6.19688 3.7501 6.49134 3.75 6.72209V11.1127C3.75011 15.6529 7.06282 19.9457 11.5986 21.1996C11.7987 21.2539 12.0216 21.254 12.2217 21.1996C16.7575 19.9457 20.0702 15.6529 20.0703 11.1127V11.1108L20.0801 6.72209C20.0798 6.49421 19.9872 6.20024 19.7988 5.92131C19.6102 5.64215 19.3709 5.44415 19.1572 5.35686L13.5869 3.07658Z" fill="#001F3E"/>
</svg>
