<svg width="24" height="24" viewBox="0 0 24 24" fill="none" xmlns="http://www.w3.org/2000/svg">
<path fill-rule="evenodd" clip-rule="evenodd" d="M8.91992 7.66992C8.91992 5.96886 10.2989 4.58997 11.9999 4.58997C13.701 4.58997 15.08 5.96886 15.08 7.66992C15.08 9.37096 13.701 10.7499 11.9999 10.7499C10.2989 10.7499 8.91992 9.37096 8.91992 7.66992ZM11.9999 6.08997C11.1273 6.08997 10.4199 6.79734 10.4199 7.66992C10.4199 8.54253 11.1273 9.24994 11.9999 9.24994C12.8725 9.24994 13.58 8.54253 13.58 7.66992C13.58 6.79734 12.8726 6.08997 11.9999 6.08997Z" fill="#001F3E"/>
<path d="M7.25 15.66C7.25 13.3098 9.52631 11.65 12 11.65C14.4737 11.65 16.75 13.3098 16.75 15.66C16.75 16.0742 16.4142 16.41 16 16.41C15.5858 16.41 15.25 16.0742 15.25 15.66C15.25 14.4102 13.9463 13.15 12 13.15C10.0537 13.15 8.75 14.4102 8.75 15.66C8.75 16.0742 8.41421 16.41 8 16.41C7.58579 16.41 7.25 16.0742 7.25 15.66Z" fill="#001F3E"/>
<path fill-rule="evenodd" clip-rule="evenodd" d="M6 1.25989C3.93236 1.25989 2.25 2.9191 2.25 4.97986V15.8899C2.25 17.9506 3.93236 19.6099 6 19.6099H6.75C7.34659 19.6099 7.92416 19.8447 8.33966 20.2602L8.3428 20.2633L10.0531 21.9536C11.1252 23.0119 12.8651 23.0117 13.9372 21.9533L15.6472 20.2633L15.6503 20.2602C16.0667 19.8438 16.6347 19.6099 17.24 19.6099H18C20.0693 19.6099 21.75 17.939 21.75 15.8899V4.97986C21.75 2.9191 20.0676 1.25989 18 1.25989H6ZM3.75 4.97986C3.75 3.76061 4.74764 2.75989 6 2.75989H18C19.2524 2.75989 20.25 3.76061 20.25 4.97986V15.8899C20.25 17.1008 19.2507 18.1099 18 18.1099H17.24C16.246 18.1099 15.2948 18.4953 14.5913 19.1979L14.5897 19.1995L12.8828 20.8864C12.3949 21.3677 11.5948 21.3674 11.1069 20.8861L9.40033 19.1995L9.39874 19.1979C8.69438 18.4945 7.73267 18.1099 6.75 18.1099H6C4.74764 18.1099 3.75 17.1091 3.75 15.8899V4.97986Z" fill="#001F3E"/>
</svg>
