<svg width="24" height="24" viewBox="0 0 24 24" fill="none" xmlns="http://www.w3.org/2000/svg">
<path fill-rule="evenodd" clip-rule="evenodd" d="M14.75 6.5C14.75 6.08579 14.4142 5.75 14 5.75C13.5858 5.75 13.25 6.08579 13.25 6.5V7.75H12C11.5858 7.75 11.25 8.08578 11.25 8.5C11.25 8.91421 11.5858 9.25 12 9.25H13.25V10.9997C12.6233 10.529 11.8442 10.25 11 10.25C8.92893 10.25 7.25 11.9289 7.25 14C7.25 16.0711 8.92893 17.75 11 17.75C11.8442 17.75 12.6233 17.471 13.25 17.0003C13.2501 17.4144 13.5859 17.75 14 17.75C14.4142 17.75 14.75 17.4142 14.75 17V9.25H15.5C15.9142 9.25 16.25 8.91421 16.25 8.5C16.25 8.08578 15.9142 7.75 15.5 7.75H14.75V6.5ZM13.25 14C13.25 12.7574 12.2426 11.75 11 11.75C9.75736 11.75 8.75 12.7574 8.75 14C8.75 15.2426 9.75736 16.25 11 16.25C12.2426 16.25 13.25 15.2426 13.25 14Z" fill="#001F3E"/>
<path fill-rule="evenodd" clip-rule="evenodd" d="M12 1.25C6.08579 1.25 1.25 6.08579 1.25 12C1.25 17.9142 6.08579 22.75 12 22.75C17.9142 22.75 22.75 17.9142 22.75 12C22.75 6.08579 17.9142 1.25 12 1.25ZM2.75 12C2.75 6.91421 6.91421 2.75 12 2.75C17.0858 2.75 21.25 6.91421 21.25 12C21.25 17.0858 17.0858 21.25 12 21.25C6.91421 21.25 2.75 17.0858 2.75 12Z" fill="#001F3E"/>
</svg>
