<svg width="24" height="24" viewBox="0 0 24 24" fill="none" xmlns="http://www.w3.org/2000/svg">
<path d="M17.2061 2.29122C18.4623 0.993737 20.5375 0.977113 21.8145 2.25411C23.0564 3.49612 23.0793 5.5024 21.8663 6.77266L19.088 9.68184C18.9736 9.80162 18.9093 9.87016 18.8633 9.92403C18.8357 9.95647 18.8252 9.97213 18.8223 9.97676C18.8075 10.0063 18.7983 10.0385 18.796 10.0715C18.7964 10.0648 18.7941 10.0762 18.8048 10.1379C18.8168 10.2076 18.8369 10.2991 18.8741 10.4602L20.6026 17.9484C20.6645 18.2165 20.7395 18.5061 20.7169 18.8C20.6987 19.0362 20.6323 19.2668 20.5225 19.4768C20.3859 19.7378 20.1691 19.9435 19.9747 20.1379L19.6036 20.509C19.3109 20.8017 19.055 21.0578 18.8321 21.2434C18.61 21.4282 18.3339 21.619 17.9844 21.6809C17.5105 21.7647 17.0232 21.6494 16.6368 21.3625C16.3519 21.151 16.1893 20.8576 16.0733 20.593C15.9569 20.3273 15.8429 19.9828 15.712 19.59L14.086 14.7121L11.5997 17.1994C11.4947 17.3044 11.435 17.3634 11.3926 17.4104C11.3672 17.4386 11.3573 17.4522 11.3546 17.4563C11.3398 17.4823 11.33 17.5116 11.3253 17.5412C11.3249 17.5463 11.324 17.5631 11.3262 17.6008C11.33 17.6639 11.3391 17.7472 11.3555 17.8947L11.5391 19.5481C11.5657 19.7871 11.6006 20.046 11.5596 20.3029C11.5266 20.5099 11.457 20.7096 11.3536 20.8918C11.225 21.1182 11.0355 21.2988 10.8653 21.469L10.668 21.6662C10.4412 21.8931 10.2368 22.0984 10.0548 22.2512C9.86777 22.4081 9.64195 22.5648 9.35456 22.6398C8.9511 22.745 8.52253 22.7029 8.14753 22.5207C7.88033 22.3908 7.68978 22.1927 7.53717 22.0022C7.38867 21.8167 7.22877 21.5757 7.05085 21.3088L5.48249 18.9563C5.4475 18.9038 5.42832 18.8744 5.41315 18.8527C5.40173 18.8364 5.3975 18.8322 5.39753 18.8322C5.38911 18.8224 5.37999 18.8133 5.37018 18.8049C5.37084 18.8054 5.36704 18.8014 5.34967 18.7893C5.32804 18.7741 5.29855 18.7549 5.24616 18.7199L2.8946 17.1516C2.62752 16.9735 2.38583 16.8138 2.20026 16.6652C2.00965 16.5126 1.81161 16.3221 1.68171 16.0549C1.49953 15.68 1.45754 15.2522 1.56256 14.8488L1.59381 14.7434C1.67615 14.5049 1.81384 14.3114 1.95124 14.1477C2.10404 13.9656 2.30935 13.7612 2.5362 13.5344L2.73346 13.3371C2.90364 13.1669 3.0842 12.9774 3.31061 12.8488C3.49284 12.7454 3.69253 12.6758 3.89948 12.6428C4.15644 12.6018 4.41531 12.6367 4.65436 12.6633L6.30768 12.8469C6.45511 12.8633 6.53857 12.8724 6.60163 12.8762C6.65533 12.8794 6.66661 12.8765 6.66217 12.8772C6.69158 12.8724 6.72026 12.8626 6.74616 12.8479C6.75022 12.8451 6.7638 12.8353 6.79206 12.8098C6.83895 12.7675 6.89812 12.7086 7.00299 12.6037L9.4903 10.1164L4.61237 8.49044C4.21984 8.35959 3.87602 8.24547 3.61042 8.12911C3.34588 8.01318 3.05148 7.8513 2.83991 7.56661C2.55294 7.18014 2.43771 6.69198 2.52155 6.21797L2.54987 6.09004C2.63034 5.80008 2.79734 5.56462 2.95905 5.37032C3.14458 5.14741 3.40075 4.89151 3.69342 4.59883L4.06452 4.22774C4.25907 4.03318 4.46539 3.81647 4.72663 3.67989C4.93652 3.57019 5.16628 3.50377 5.40241 3.48555C5.69646 3.46291 5.98675 3.53792 6.25495 3.59981L13.7139 5.32149C13.8767 5.35905 13.9696 5.37967 14.0401 5.3918C14.0826 5.39909 14.1012 5.4005 14.1065 5.40059C14.1425 5.39802 14.1774 5.3877 14.209 5.37032C14.2133 5.36744 14.2286 5.35606 14.2608 5.32637C14.3134 5.27784 14.38 5.20998 14.4962 5.09004L17.2061 2.29122ZM20.754 3.31465C20.0695 2.63016 18.9566 2.63871 18.2833 3.33419L15.5733 6.13399C15.3853 6.32817 15.1867 6.54427 14.9337 6.68379C14.7117 6.80612 14.4657 6.87869 14.213 6.89669C13.9245 6.9172 13.6396 6.84422 13.376 6.7834L5.91706 5.06172C5.75152 5.02352 5.65768 5.00172 5.586 4.98946C5.54225 4.98198 5.52294 4.9817 5.51764 4.98165C5.48396 4.98427 5.4509 4.99334 5.42096 5.00899C5.4161 5.01214 5.4005 5.02321 5.36823 5.05196C5.31389 5.10037 5.24541 5.16892 5.12506 5.28926L4.75397 5.65938C4.44067 5.97268 4.24262 6.17165 4.11139 6.3293C4.03322 6.42322 4.00531 6.47238 3.99713 6.48848C3.9886 6.54987 4.00331 6.61206 4.03815 6.66329C4.05169 6.67343 4.09796 6.70511 4.21198 6.75508C4.39988 6.83743 4.66648 6.92644 5.08698 7.06661L11.1163 9.07637C11.3627 9.15863 11.5488 9.36352 11.6085 9.61641C11.668 9.86921 11.5928 10.1349 11.4092 10.3186L8.06354 13.6643C7.89341 13.8344 7.71273 14.024 7.48639 14.1525C7.30422 14.256 7.10439 14.3256 6.89753 14.3586C6.64057 14.3995 6.38168 14.3647 6.14264 14.3381L4.48932 14.1545C4.34176 14.1381 4.25846 14.1289 4.19538 14.1252C4.15748 14.123 4.14073 14.1238 4.13581 14.1242C4.10634 14.1289 4.07779 14.1388 4.05182 14.1535C4.05602 14.1511 4.0461 14.1554 4.00592 14.1916C3.95899 14.2339 3.89906 14.2926 3.79401 14.3977L3.59674 14.5959C3.35077 14.8419 3.20048 14.9924 3.09967 15.1125C3.0395 15.1842 3.01847 15.2205 3.01276 15.2316C2.99969 15.2863 3.00572 15.3437 3.02936 15.3947C3.03762 15.405 3.06557 15.4365 3.13776 15.4943C3.26019 15.5924 3.43705 15.7105 3.72663 15.9035L6.07917 17.4719C6.16443 17.5287 6.25728 17.5895 6.34381 17.6633C6.41393 17.7231 6.47931 17.7885 6.53913 17.8586C6.61306 17.9452 6.67361 18.0388 6.73053 18.1242L8.29889 20.4768C8.49177 20.7661 8.61009 20.9423 8.70807 21.0647C8.76385 21.1343 8.79533 21.1627 8.8067 21.1721C8.8578 21.1961 8.91487 21.2016 8.96979 21.1887C8.98038 21.1833 9.01725 21.1637 9.08991 21.1027C9.21005 21.0019 9.3614 20.8518 9.60749 20.6057L9.80475 20.4084C9.9096 20.3036 9.9685 20.2444 10.0108 20.1975C10.0359 20.1696 10.046 20.1558 10.0489 20.1516C10.0637 20.1255 10.0735 20.0962 10.0782 20.0666C10.0786 20.0616 10.0794 20.0447 10.0772 20.007C10.0735 19.944 10.0643 19.8606 10.0479 19.7131L9.86432 18.0598C9.83776 17.8207 9.8029 17.5618 9.84381 17.3049C9.87683 17.0979 9.9473 16.8983 10.0508 16.716C10.1794 16.4897 10.368 16.309 10.5382 16.1389L13.8839 12.7932C14.0676 12.6095 14.3341 12.5342 14.587 12.594C14.8398 12.6538 15.0439 12.8407 15.126 13.0871L17.1358 19.1164C17.2759 19.5366 17.365 19.8026 17.4473 19.9904C17.4959 20.1013 17.5271 20.1483 17.5382 20.1633C17.5894 20.1986 17.6514 20.2126 17.713 20.2043C17.7286 20.1964 17.7783 20.1699 17.8731 20.091C18.0308 19.9598 18.2297 19.7618 18.543 19.4484L18.9141 19.0773C19.0343 18.9572 19.1021 18.8885 19.1505 18.8342C19.1793 18.8019 19.1903 18.7863 19.1934 18.7815C19.2091 18.7515 19.2191 18.7185 19.2217 18.6848C19.2212 18.6917 19.2238 18.6798 19.213 18.6164C19.2007 18.5447 19.1789 18.4509 19.1407 18.2854L17.4132 10.7981C17.3529 10.5368 17.2798 10.2542 17.2999 9.967C17.3161 9.73601 17.3775 9.50984 17.4815 9.30294C17.6108 9.04576 17.8178 8.84058 18.003 8.64669L20.7823 5.73653C21.4323 5.05565 21.4195 3.98034 20.754 3.31465Z" fill="black"/>
</svg>
