<svg width="24" height="24" viewBox="0 0 24 24" fill="none" xmlns="http://www.w3.org/2000/svg">
<path fill-rule="evenodd" clip-rule="evenodd" d="M10.9326 1.61561C11.5629 1.1276 12.4397 1.12813 13.0694 1.61719C14.039 2.36627 15.9678 3.97553 17.6597 6.10464C19.3412 8.22058 20.8655 10.946 20.86 13.9114C20.8593 18.7856 16.8932 22.75 12.01 22.75C7.12591 22.75 3.16114 18.7747 3.16003 13.902C3.14437 10.8979 4.65956 8.17271 6.33984 6.06498C8.02876 3.9464 9.95811 2.35952 10.9326 1.61561ZM12.1496 2.80201C12.0604 2.73266 11.9397 2.73266 11.8505 2.80201L11.8478 2.80413L11.845 2.80621C10.9188 3.51308 9.09493 5.01533 7.51274 7.00002C5.92089 8.99681 4.64638 11.3908 4.66002 13.8959L4.66003 13.898V13.9C4.66003 17.9464 7.95485 21.25 12.01 21.25C16.0664 21.25 19.36 17.9552 19.36 13.91V13.9086C19.3646 11.444 18.0839 9.04942 16.4853 7.03786C14.8978 5.04015 13.0722 3.51477 12.1515 2.80353L12.1505 2.80278L12.1496 2.80201Z" fill="#001F3E"/>
</svg>
