<svg width="24" height="24" viewBox="0 0 24 24" fill="none" xmlns="http://www.w3.org/2000/svg">
<path d="M9.96436 9.79931C9.96436 9.24301 10.3892 8.85013 10.83 8.85013H12.9134C13.5132 8.86069 14.0354 9.37049 14.0354 10.05C14.0354 10.4642 14.3712 10.8 14.7854 10.8C15.1996 10.8 15.5354 10.4642 15.5354 10.05C15.5354 8.58633 14.3889 7.36986 12.9293 7.35013H12.75V7C12.75 6.58579 12.4142 6.25 12 6.25C11.5858 6.25 11.25 6.58579 11.25 7V7.35013H10.83C9.48798 7.35013 8.46436 8.48931 8.46436 9.79931C8.46436 10.4165 8.60078 10.9443 8.93189 11.3641C9.25532 11.7741 9.69027 11.9845 10.0782 12.1219L10.0808 12.1228L13.4196 13.2914C13.6903 13.3897 13.8098 13.4775 13.8759 13.5621C13.9351 13.6378 14.0215 13.8011 14.0215 14.2005C14.0215 14.7568 13.5967 15.1496 13.1559 15.1496H11.0667C10.4995 15.1496 9.96436 14.6441 9.96436 13.9498C9.96436 13.5355 9.62857 13.1998 9.21436 13.1998C8.80014 13.1998 8.46436 13.5355 8.46436 13.9498C8.46436 15.4003 9.60055 16.6496 11.0667 16.6496H11.25V17C11.25 17.4143 11.5858 17.75 12 17.75C12.4142 17.75 12.75 17.4143 12.75 17V16.6496H13.1559C14.4979 16.6496 15.5215 15.5105 15.5215 14.2005C15.5215 13.5831 15.385 13.057 15.0577 12.6383C14.7376 12.2288 14.3078 12.0175 13.9263 11.8795L10.579 10.708L10.5778 10.7075C10.298 10.6083 10.1761 10.5194 10.1096 10.4351C10.0508 10.3605 9.96436 10.1988 9.96436 9.79931Z" fill="#001F3E"/>
<path fill-rule="evenodd" clip-rule="evenodd" d="M12 1.25C6.08579 1.25 1.25 6.08579 1.25 12C1.25 17.9142 6.08579 22.75 12 22.75C17.9142 22.75 22.75 17.9142 22.75 12C22.75 6.08579 17.9142 1.25 12 1.25ZM2.75 12C2.75 6.91421 6.91421 2.75 12 2.75C17.0858 2.75 21.25 6.91421 21.25 12C21.25 17.0858 17.0858 21.25 12 21.25C6.91421 21.25 2.75 17.0858 2.75 12Z" fill="#001F3E"/>
</svg>
