<svg width="24" height="24" viewBox="0 0 24 24" fill="none" xmlns="http://www.w3.org/2000/svg">
<path fill-rule="evenodd" clip-rule="evenodd" d="M14.2471 2.14728C14.4929 2.06051 14.9924 1.89529 15.5186 2.09357C16.0792 2.30495 16.4872 2.75913 16.7812 3.24689C17.0797 3.742 17.3088 4.34921 17.4834 4.99982C17.8332 6.30349 18 7.91575 18 9.49982C18 11.0839 17.8332 12.6962 17.4834 13.9998C17.3088 14.6504 17.0798 15.2577 16.7812 15.7527C16.4872 16.2405 16.0792 16.6947 15.5186 16.9061C14.9925 17.1043 14.4929 16.9391 14.2471 16.8524L8.85938 14.95V19.0213C8.85916 20.6662 7.65918 21.9998 6.17871 21.9998C4.69834 21.9997 3.49827 20.6661 3.49805 19.0213V13.0633H3.51074L3.29492 12.9871C1.72808 12.4339 1.00006 10.9112 1 9.49982C1 8.0884 1.72805 6.56575 3.29492 6.01251L14.2471 2.14728ZM5.03027 19.0213C5.03049 19.7261 5.5444 20.2975 6.17871 20.2977C6.81312 20.2977 7.32791 19.7261 7.32812 19.0213V14.41L5.03027 13.5994V19.0213ZM14.9727 3.66779C14.9334 3.67278 14.8724 3.68783 14.7715 3.72345L3.82031 7.58966C3.05644 7.85942 2.61914 8.62407 2.61914 9.49982C2.6192 10.3755 3.05646 11.1403 3.82031 11.41L14.7715 15.2762C14.8724 15.3118 14.9334 15.3269 14.9727 15.3319C14.9758 15.3322 14.9791 15.3326 14.9814 15.3328C15.0736 15.2906 15.2255 15.172 15.4053 14.8738C15.5943 14.5604 15.7724 14.1169 15.9229 13.5565C16.2231 12.4376 16.3808 10.9824 16.3809 9.49982C16.3809 8.01722 16.2231 6.56209 15.9229 5.44318C15.7724 4.88271 15.5943 4.4393 15.4053 4.1258C15.2255 3.82764 15.0736 3.70902 14.9814 3.66681C14.9791 3.66703 14.9758 3.66739 14.9727 3.66779Z" fill="#001F3E"/>
<path d="M18.5391 13.5662C18.6729 13.1649 19.1075 12.9481 19.5088 13.0819L21.8066 13.8475C22.2079 13.9813 22.4248 14.4159 22.291 14.8172C22.1572 15.2182 21.7234 15.435 21.3223 15.3016L19.0244 14.535C18.6231 14.4012 18.4053 13.9675 18.5391 13.5662Z" fill="#001F3E"/>
<path d="M22.3301 9.36603C22.7528 9.36626 23.0956 9.7089 23.0957 10.1317C23.0957 10.5545 22.7529 10.898 22.3301 10.8983H20.0312C19.6084 10.8981 19.2656 10.5546 19.2656 10.1317C19.2658 9.70887 19.6085 9.36621 20.0312 9.36603H22.3301Z" fill="#001F3E"/>
<path d="M21.7363 5.02912C22.1431 4.91291 22.5674 5.14876 22.6836 5.55548C22.7998 5.96224 22.564 6.38653 22.1572 6.50275L19.4766 7.26837C19.0698 7.38458 18.6455 7.14876 18.5293 6.74201C18.4134 6.33543 18.6491 5.91195 19.0557 5.79572L21.7363 5.02912Z" fill="#001F3E"/>
</svg>
