<svg width="24" height="24" viewBox="0 0 24 24" fill="none" xmlns="http://www.w3.org/2000/svg">
<path d="M16.1203 8.39346C15.5125 7.76496 14.5394 7.93689 13.9418 8.57582C13.8193 8.70675 13.6345 8.8977 13.4352 9.10352C13.1316 9.41718 12.7945 9.76537 12.5939 9.9883C11.6267 9.53088 10.558 9.09812 9.83119 8.81539C9.31898 8.61614 8.7046 8.76621 8.34134 9.16895C7.92601 9.62942 7.96845 10.2742 8.44607 10.6434C9.01088 11.0801 9.78801 11.669 10.5458 12.2043C10.5665 12.219 10.5875 12.2332 10.6087 12.247C10.0293 12.9188 9.49917 13.5426 9.08323 14.0353C8.60429 13.9553 8.11235 13.8905 7.73029 13.8448C7.32956 13.7969 6.9626 14.0698 6.86961 14.4757C6.77661 14.8816 6.98611 15.2958 7.36504 15.4388C7.77122 15.5922 8.31199 15.7884 8.82896 15.9513C8.98649 16.4858 9.1763 17.045 9.32462 17.465C9.46298 17.8568 9.86357 18.0735 10.2561 17.9773C10.6486 17.8811 10.9126 17.5017 10.8663 17.0874C10.8218 16.6901 10.7587 16.1778 10.6806 15.6798C11.1368 15.2579 11.7101 14.7245 12.3291 14.1416C12.3833 14.2255 12.443 14.3057 12.508 14.3813C13.1178 15.0905 13.7815 15.8127 14.2721 16.3364C14.687 16.7794 15.3109 16.741 15.6999 16.2565C16.0401 15.8328 16.106 15.1837 15.8498 14.6837C15.5016 14.0041 14.9814 13.0203 14.4446 12.118C14.5535 12.0117 14.6908 11.8786 14.8398 11.7341C15.2275 11.358 15.6945 10.9051 15.9473 10.6495C16.5619 10.028 16.7282 9.02195 16.1203 8.39346Z" fill="#001F3E"/>
<path fill-rule="evenodd" clip-rule="evenodd" d="M14.4501 2.10573C13.5961 1.5079 12.5191 1.24483 11.4837 1.26911C10.4482 1.29339 9.38375 1.6071 8.55901 2.24856L3.16901 6.44856C2.60552 6.887 2.134 7.53633 1.80418 8.20855C1.47441 8.88067 1.25 9.64968 1.25 10.3602V17.7702C1.25 20.5021 3.47347 22.7402 6.21 22.7402H17.79C20.5254 22.7402 22.75 20.5032 22.75 17.7802V10.5002C22.75 9.74295 22.5017 8.93348 22.1361 8.2331C21.7707 7.53301 21.2484 6.86691 20.6288 6.43486L14.4501 2.10573ZM4.09099 7.63176L9.48046 3.43217C10.0057 3.02375 10.7419 2.78692 11.5188 2.7687C12.2958 2.75048 13.044 2.95254 13.5899 3.33458L19.7696 7.66439L19.7712 7.66546C20.1413 7.92342 20.5195 8.37755 20.8064 8.92722C21.0933 9.47683 21.25 10.0474 21.25 10.5002V17.7802C21.25 19.6771 19.6946 21.2402 17.79 21.2402H6.21C4.30653 21.2402 2.75 19.6783 2.75 17.7702V10.3602C2.75 9.94063 2.89059 9.39965 3.15082 8.86927C3.4109 8.33919 3.75471 7.8933 4.09099 7.63176Z" fill="#001F3E"/>
</svg>
