<svg width="24" height="24" viewBox="0 0 24 24" fill="none" xmlns="http://www.w3.org/2000/svg">
<path d="M12.75 9C12.75 8.58579 12.4142 8.25 12 8.25C11.5858 8.25 11.25 8.58579 11.25 9V15.68C11.25 16.0942 11.5858 16.43 12 16.43C12.4142 16.43 12.75 16.0942 12.75 15.68V9Z" fill="#001F3E"/>
<path d="M7.75 10.7402C7.75 10.326 7.41421 9.99023 7 9.99023C6.58579 9.99023 6.25 10.326 6.25 10.7402V13.9402C6.25 14.3544 6.58579 14.6902 7 14.6902C7.41421 14.6902 7.75 14.3544 7.75 13.9402V10.7402Z" fill="#001F3E"/>
<path d="M17 9.99023C17.4142 9.99023 17.75 10.326 17.75 10.7402V13.9402C17.75 14.3544 17.4142 14.6902 17 14.6902C16.5858 14.6902 16.25 14.3544 16.25 13.9402V10.7402C16.25 10.326 16.5858 9.99023 17 9.99023Z" fill="#001F3E"/>
<path fill-rule="evenodd" clip-rule="evenodd" d="M9 1.25C6.42603 1.25 4.42914 1.7602 3.09467 3.09467C1.7602 4.42914 1.25 6.42603 1.25 9V15C1.25 17.574 1.7602 19.5709 3.09467 20.9053C4.42914 22.2398 6.42603 22.75 9 22.75H15C17.574 22.75 19.5709 22.2398 20.9053 20.9053C22.2398 19.5709 22.75 17.574 22.75 15V9C22.75 6.42603 22.2398 4.42914 20.9053 3.09467C19.5709 1.7602 17.574 1.25 15 1.25H9ZM2.75 9C2.75 6.57397 3.2398 5.07086 4.15533 4.15533C5.07086 3.2398 6.57397 2.75 9 2.75H15C17.426 2.75 18.9291 3.2398 19.8447 4.15533C20.7602 5.07086 21.25 6.57397 21.25 9V15C21.25 17.426 20.7602 18.9291 19.8447 19.8447C18.9291 20.7602 17.426 21.25 15 21.25H9C6.57397 21.25 5.07086 20.7602 4.15533 19.8447C3.2398 18.9291 2.75 17.426 2.75 15V9Z" fill="#001F3E"/>
</svg>
