<svg width="24" height="24" viewBox="0 0 24 24" fill="none" xmlns="http://www.w3.org/2000/svg">
<path fill-rule="evenodd" clip-rule="evenodd" d="M5.59 2.75C5.08187 2.75 4.56293 2.95593 4.03614 3.47449L4.03046 3.48008L4.02467 3.48555C3.56991 3.91456 3.25506 4.38355 3.05792 4.88459L3.05715 4.88657L3.05636 4.88854C2.85414 5.39408 2.75 5.94888 2.75 6.54C2.75 7.46266 2.96265 8.45324 3.41074 9.51781C3.86507 10.5871 4.49486 11.678 5.28764 12.7804C6.09352 13.887 6.99749 14.9468 8.0003 15.9596C9.01349 16.9628 10.0741 17.8676 11.1923 18.6843C12.2911 19.4842 13.3917 20.1146 14.484 20.58C15.5587 21.0379 16.5486 21.25 17.45 21.25C18.0548 21.25 18.6064 21.1382 19.1115 20.9277L19.1136 20.9269L19.1156 20.926C19.6105 20.7232 20.0606 20.4032 20.4846 19.936C20.722 19.6739 20.9016 19.3966 21.0418 19.0997C21.1653 18.8383 21.22 18.5775 21.22 18.33C21.22 18.1689 21.1879 18.0176 21.1189 17.8418C21.072 17.74 20.9913 17.6362 20.8331 17.5266L20.8294 17.5241L17.5222 15.1761C17.3028 15.0273 17.1216 14.9278 16.966 14.8642C16.8238 14.806 16.7201 14.79 16.64 14.79C16.5438 14.79 16.4472 14.8132 16.32 14.8906L16.2988 14.9035L16.2769 14.9149C16.1389 14.987 15.96 15.1207 15.7403 15.3403L15.7386 15.3421L14.9803 16.0903C14.9796 16.091 14.9789 16.0918 14.9782 16.0925C14.7355 16.3341 14.4184 16.48 14.04 16.48C13.8919 16.48 13.7163 16.4633 13.5267 16.3922L13.5105 16.3862L13.4946 16.3794C13.4533 16.3617 13.4149 16.3441 13.3878 16.3316L13.38 16.328C13.3476 16.3132 13.3366 16.3084 13.3315 16.3064L13.2944 16.2915L13.2591 16.2728C12.8536 16.0582 12.3777 15.7213 11.8355 15.2625L11.8346 15.2617C11.2851 14.7952 10.7507 14.2912 10.2046 13.7553L10.1996 13.7503L10.1946 13.7453C9.66123 13.2016 9.1705 12.6596 8.71287 12.1308L8.71015 12.1276L8.70746 12.1245C8.25419 11.5888 7.90702 11.1141 7.69158 10.7191L7.6596 10.6605L7.63858 10.5975C7.63863 10.5976 7.63618 10.5908 7.62303 10.5597C7.62193 10.5571 7.62075 10.5544 7.6195 10.5514C7.60703 10.522 7.58735 10.4756 7.56775 10.4233L7.55275 10.3833L7.54239 10.3419C7.51008 10.2127 7.49 10.0811 7.49 9.93C7.49 9.59078 7.60559 9.267 7.86358 9.0058L8.62454 8.2148L8.62967 8.20967C8.83569 8.00365 8.97897 7.81685 9.06708 7.66096L9.07305 7.6504L9.07935 7.64004C9.15514 7.51553 9.18 7.40903 9.18 7.32C9.18 7.25575 9.16141 7.14722 9.10064 7.00544L9.09819 6.99973L9.09584 6.99398C9.03246 6.83904 8.93418 6.66049 8.78135 6.44823L8.77982 6.44611L6.45581 3.17046L6.45336 3.16691C6.35581 3.02601 6.23429 2.92955 6.08571 2.86097L6.08056 2.85859L6.07545 2.85614C5.93314 2.78783 5.76498 2.75 5.59 2.75ZM2.98958 2.39989C3.74153 1.66198 4.62059 1.25 5.59 1.25C5.97318 1.25 6.36311 1.33138 6.71942 1.5014C7.08756 1.67229 7.42309 1.93394 7.68397 2.30923L10.0002 5.5739C10.2052 5.85899 10.3657 6.13793 10.4818 6.42035C10.5997 6.6971 10.68 7.00644 10.68 7.32C10.68 7.70686 10.5673 8.07662 10.3671 8.40937C10.1968 8.70783 9.96427 8.99566 9.69564 9.26501L9.00688 9.98096C9.01385 9.99743 9.02321 10.0197 9.03333 10.0455C9.183 10.3079 9.44801 10.6772 9.84987 11.1524C10.29 11.6609 10.7568 12.1761 11.2604 12.6897C11.7925 13.2118 12.2965 13.6862 12.8053 14.1182C13.2861 14.5249 13.6607 14.7841 13.933 14.9322C13.955 14.9417 13.9753 14.9509 13.9918 14.9584L14.6797 14.2797C14.6803 14.2791 14.6808 14.2785 14.6814 14.2779C14.9549 14.0047 15.2481 13.7639 15.5612 13.5966C15.8882 13.4019 16.2447 13.29 16.64 13.29C16.9399 13.29 17.2362 13.354 17.534 13.4758C17.8169 13.5916 18.0939 13.7509 18.3717 13.9398L18.378 13.9441L21.6908 16.2961C22.0454 16.5424 22.3234 16.8545 22.4965 17.2479L22.5016 17.2596L22.5064 17.2715C22.6338 17.59 22.72 17.9351 22.72 18.33C22.72 18.8025 22.6147 19.2817 22.3982 19.7403C22.1984 20.1633 21.9381 20.5658 21.5957 20.9436L21.5954 20.944C21.0399 21.5563 20.4106 22.016 19.6863 22.3132C18.9921 22.6021 18.2444 22.75 17.45 22.75C16.3114 22.75 15.1213 22.4821 13.896 21.96C12.6885 21.4455 11.4895 20.7561 10.3086 19.8963L10.3076 19.8956C9.12671 19.0331 8.00824 18.0786 6.94224 17.0229L6.93966 17.0203L6.93711 17.0178C5.8815 15.9519 4.92677 14.8332 4.07368 13.6614L4.07241 13.6597L4.07115 13.6579C3.22475 12.4813 2.5351 11.293 2.0297 10.1032L2.02877 10.101C1.51719 8.88605 1.25 7.69701 1.25 6.54C1.25 5.77184 1.3856 5.02732 1.66286 4.33342C1.94486 3.61754 2.38783 2.96904 2.98958 2.39989Z" fill="#001F3E"/>
</svg>
