<svg width="24" height="24" viewBox="0 0 24 24" fill="none" xmlns="http://www.w3.org/2000/svg">
<path d="M17.8707 3.57666C17.6767 3.57666 17.4803 3.64905 17.3273 3.80203C17.0289 4.10044 17.0289 4.59038 17.3273 4.88879L19.8082 7.36963L2.46992 7.36963C2.04799 7.36963 1.70117 7.71644 1.70117 8.13838C1.70117 8.56032 2.04799 8.90713 2.46992 8.90713L19.8097 8.90713L17.3273 11.3895C17.0289 11.6879 17.0289 12.1779 17.3273 12.4763C17.6257 12.7747 18.1157 12.7747 18.4141 12.4763L22.2078 8.68254C22.5062 8.38414 22.5062 7.89419 22.2078 7.59578L18.4141 3.80203C18.2611 3.64905 18.0647 3.57666 17.8707 3.57666Z" fill="#001F3E"/>
<path d="M6.26211 11.8766C6.45613 11.8766 6.65251 11.949 6.80549 12.102C7.1039 12.4004 7.1039 12.8903 6.80549 13.1887L4.32465 15.6696L21.6629 15.6696C22.0848 15.6696 22.4316 16.0164 22.4316 16.4383C22.4316 16.8602 22.0848 17.2071 21.6629 17.2071L4.32309 17.2071L6.80549 19.6895C7.1039 19.9879 7.1039 20.4778 6.80549 20.7762C6.50708 21.0746 6.01714 21.0746 5.71873 20.7762L1.92498 16.9825C1.62657 16.6841 1.62657 16.1941 1.92498 15.8957L5.71873 12.102C5.8717 11.949 6.06809 11.8766 6.26211 11.8766Z" fill="#001F3E"/>
</svg>
