<svg width="24" height="24" viewBox="0 0 24 24" fill="none" xmlns="http://www.w3.org/2000/svg">
<path fill-rule="evenodd" clip-rule="evenodd" d="M14.3486 10.9648C15.5748 10.9648 16.5693 11.9585 16.5693 13.1846C16.5693 14.4107 15.5748 15.4043 14.3486 15.4043C13.3432 15.4041 12.4937 14.7361 12.2207 13.8193H11.7197C11.4467 14.7362 10.5973 15.4042 9.5918 15.4043C8.36566 15.4043 7.37109 14.4107 7.37109 13.1846C7.37113 11.9585 8.36568 10.9648 9.5918 10.9648C10.7101 10.9649 11.635 11.7915 11.7891 12.8672H12.1514C12.3054 11.7916 13.2305 10.9651 14.3486 10.9648ZM9.5918 11.916C8.89117 11.916 8.32328 12.4839 8.32324 13.1846C8.32324 13.8852 8.89114 14.4531 9.5918 14.4531C10.2924 14.4531 10.8604 13.8852 10.8604 13.1846C10.8603 12.484 10.2924 11.9161 9.5918 11.916ZM14.3486 11.916C13.6482 11.9163 13.0801 12.4841 13.0801 13.1846C13.0801 13.8851 13.6482 14.4529 14.3486 14.4531C15.0493 14.4531 15.6182 13.8852 15.6182 13.1846C15.6181 12.4839 15.0493 11.916 14.3486 11.916Z" fill="#001F3E"/>
<path fill-rule="evenodd" clip-rule="evenodd" d="M12 2C17.5 2 22 6.5 22 12C22 17.5 17.5 22 12 22C6.5 22 2 17.5 2 12C2 6.5 6.5 2 12 2ZM16.2373 7.05469C15.7583 6.71092 14.2139 8.08554 13.7881 8.56152C12.918 8.33923 11.4611 8.41212 10.5684 8.56152C10.1422 8.08549 8.04114 6.81719 7.66797 7.16016C7.29539 7.50392 7.66797 9.80469 7.66797 9.80469C6.50866 10.6707 5.88452 12.0723 6.01758 13.5068C6.31368 15.5677 8.12862 17.0731 10.2227 16.9971H13.7881C15.877 17.0119 17.6437 15.4637 17.8867 13.4014C18.0214 11.967 17.3963 10.5653 16.2373 9.69922C16.2373 9.69922 16.7158 7.3993 16.2373 7.05469Z" fill="#001F3E"/>
</svg>
