<svg width="24" height="24" viewBox="0 0 24 24" fill="none" xmlns="http://www.w3.org/2000/svg">
<path fill-rule="evenodd" clip-rule="evenodd" d="M9.99902 2.25C9.58481 2.25 9.24902 2.58579 9.24902 3C9.24902 3.41421 9.58481 3.75 9.99902 3.75H11.249V7.81615C10.2554 7.99353 9.38074 8.51717 8.75343 9.25923L5.23386 7.22587L5.85844 6.14536C6.06573 5.78674 5.94306 5.32799 5.58444 5.1207C5.22583 4.9134 4.76707 5.03608 4.55978 5.39469L3.56149 7.12173L3.5597 7.12482L3.55809 7.12761L2.55978 8.85468C2.35249 9.21329 2.47516 9.67205 2.83378 9.87934C3.19239 10.0866 3.65114 9.96396 3.85844 9.60535L4.48319 8.52452L8.00138 10.5571C7.838 11.0072 7.74902 11.4911 7.74902 12C7.74902 12.5089 7.838 12.9928 8.00138 13.4429L4.48318 15.4755L3.85844 14.3947C3.65114 14.0361 3.19239 13.9134 2.83378 14.1207C2.47516 14.328 2.35249 14.7867 2.55978 15.1454L4.55978 18.6053C4.76707 18.964 5.22583 19.0866 5.58444 18.8793C5.94306 18.672 6.06573 18.2133 5.85844 17.8547L5.23385 16.7741L8.75343 14.7408C9.38074 15.4828 10.2554 16.0065 11.249 16.1839V20.25H9.99902C9.58481 20.25 9.24902 20.5858 9.24902 21C9.24902 21.4142 9.58481 21.75 9.99902 21.75H13.999C14.4132 21.75 14.749 21.4142 14.749 21C14.749 20.5858 14.4132 20.25 13.999 20.25H12.749V16.1839C13.7426 16.0065 14.6173 15.4828 15.2446 14.7408L18.7644 16.7743L18.1399 17.8547C17.9326 18.2133 18.0552 18.672 18.4139 18.8793C18.7725 19.0866 19.2312 18.964 19.4385 18.6053L21.4385 15.1454C21.6458 14.7867 21.5231 14.328 21.1645 14.1207C20.8059 13.9134 20.3472 14.0361 20.1399 14.3947L19.5151 15.4756L15.9967 13.4429C16.16 12.9928 16.249 12.5089 16.249 12C16.249 11.4911 16.16 11.0072 15.9967 10.5571L19.515 8.52441L20.1399 9.60535C20.3472 9.96396 20.8059 10.0866 21.1645 9.87934C21.5231 9.67205 21.6458 9.21329 21.4385 8.85468L19.4385 5.39469C19.2312 5.03608 18.7725 4.9134 18.4139 5.1207C18.0552 5.32799 17.9326 5.78674 18.1399 6.14536L18.7644 7.22576L15.2446 9.25923C14.6173 8.51717 13.7426 7.99353 12.749 7.81615V3.75H13.999C14.4132 3.75 14.749 3.41421 14.749 3C14.749 2.58579 14.4132 2.25 13.999 2.25H9.99902ZM9.62224 13.3813C10.1049 14.2058 10.991 14.75 11.999 14.75C13.007 14.75 13.893 14.2059 14.3757 13.3815L14.3795 13.3748L14.3842 13.3669C14.6182 12.9581 14.749 12.4996 14.749 12C14.749 11.5005 14.6182 11.042 14.3843 10.6333L14.3795 10.6252L14.3756 10.6183C13.8929 9.79404 13.0069 9.25 11.999 9.25C10.9911 9.25 10.1051 9.79411 9.62236 10.6185L9.61852 10.6252L9.61388 10.6331C9.37984 11.0419 9.24902 11.5004 9.24902 12C9.24902 12.4997 9.37989 12.9583 9.61401 13.3671L9.61852 13.3748L9.62224 13.3813Z" fill="#001F3E"/>
</svg>
