<svg width="24" height="24" viewBox="0 0 24 24" fill="none" xmlns="http://www.w3.org/2000/svg">
<path fill-rule="evenodd" clip-rule="evenodd" d="M11.9996 3.1767C10.2545 3.1767 8.5484 3.69421 7.09732 4.66378C4.16136 6.62555 2.65642 10.2587 3.34529 13.722C4.03417 17.1853 6.81494 19.966 10.2782 20.6549C15.6615 21.7257 20.8235 17.4276 20.8235 12.0006C20.8235 11.6757 21.0869 11.4123 21.4118 11.4123C21.7366 11.4123 22 11.6757 22 12.0006C22 18.1512 16.1498 23.0224 10.0486 21.8088C6.12365 21.028 2.9721 17.8765 2.19139 13.9515C1.41066 10.0266 3.11626 5.90887 6.4437 3.68555C8.08825 2.58669 10.0217 2.00018 11.9996 2.00018C12.3245 2.00018 12.5879 2.26356 12.5879 2.58844C12.5879 2.91333 12.3245 3.1767 11.9996 3.1767Z" fill="#001F3E"/>
<path d="M12.0001 1.79999C12.4351 1.80024 12.788 2.15305 12.7882 2.58807C12.7882 3.02327 12.4353 3.37688 12.0001 3.37714C10.2945 3.37714 8.62634 3.88266 7.20815 4.83026C4.33971 6.74708 2.8682 10.2991 3.54116 13.6828C4.21425 17.0667 6.93359 19.786 10.3175 20.4592C15.5761 21.5049 20.6232 17.302 20.6232 12.0002C20.6234 11.565 20.977 11.2121 21.4123 11.2121C21.8473 11.2124 22.2001 11.5652 22.2003 12.0002C22.2003 18.2758 16.2357 23.2432 10.0099 22.0051C6.00565 21.2085 2.79176 17.9948 1.99526 13.9904C1.19884 9.98641 2.93784 5.78804 6.33218 3.51971C8.00962 2.39888 9.98264 1.79999 12.0001 1.79999ZM12.0001 2.00018C10.0222 2.00018 8.08805 2.58688 6.4435 3.68573C3.11625 5.90907 1.4109 10.0266 2.19155 13.9514C2.97227 17.8764 6.12405 21.028 10.049 21.8088C16.1501 23.0221 22.0001 18.1507 22.0001 12.0002C21.9999 11.6756 21.7368 11.4125 21.4123 11.4123C21.0875 11.4123 20.8236 11.6755 20.8234 12.0002C20.8234 17.4272 15.6617 21.7252 10.2785 20.6545C6.8152 19.9656 4.03375 17.1851 3.34487 13.7219C2.6561 10.2587 4.1619 6.62597 7.0978 4.66425C8.54886 3.69472 10.255 3.17694 12.0001 3.17694C12.3248 3.17668 12.588 2.9128 12.588 2.58807C12.5878 2.26351 12.3247 2.00044 12.0001 2.00018Z" fill="#001F3E"/>
<path fill-rule="evenodd" clip-rule="evenodd" d="M14.0829 12.8322C15.2332 12.8322 16.1658 13.7648 16.1658 14.9151C16.1658 16.0655 15.2332 16.998 14.0829 16.998C12.9325 16.998 12 16.0655 12 14.9151C12 13.7648 12.9326 12.8322 14.0829 12.8322ZM14.0829 14.2211C13.6995 14.2211 13.3889 14.5317 13.3888 14.9151C13.3888 15.2986 13.6994 15.6092 14.0829 15.6092C14.4663 15.6091 14.7769 15.2985 14.7769 14.9151C14.7769 14.5318 14.4663 14.2211 14.0829 14.2211Z" fill="#001F3E"/>
<path d="M15.043 8.026C15.2999 7.76917 15.7161 7.76917 15.973 8.026C16.2298 8.28287 16.2298 8.69912 15.973 8.956L8.95693 15.972C8.70006 16.2289 8.28381 16.2289 8.02694 15.972C7.77009 15.7152 7.77007 15.2989 8.02694 15.042L15.043 8.026Z" fill="#001F3E"/>
<path fill-rule="evenodd" clip-rule="evenodd" d="M9.91703 7C11.0674 7.00003 11.9999 7.93266 12 9.08293C12 10.2333 11.0674 11.1658 9.91703 11.1659C8.76668 11.1659 7.83411 10.2333 7.83411 9.08293C7.83418 7.93262 8.76671 7 9.91703 7ZM9.91703 8.38889C9.53362 8.38889 9.22307 8.69953 9.223 9.08293C9.223 9.46636 9.53355 9.77696 9.91703 9.77696C10.3005 9.77693 10.6111 9.46637 10.6111 9.08293C10.611 8.69953 10.3004 8.38892 9.91703 8.38889Z" fill="#001F3E"/>
<path d="M18.6424 8.29853C18.8722 8.52826 19.2447 8.52826 19.4743 8.29853L21.8274 5.94551C22.0572 5.71577 22.0572 5.34331 21.8274 5.11358C21.5977 4.88385 21.2252 4.88385 20.9955 5.11358L19.7086 6.40049L19.7086 2.58825C19.7086 2.26337 19.4452 2 19.1203 1.99999C18.7954 1.99999 18.5321 2.26337 18.5321 2.58825L18.5321 6.52429L17.1214 5.11358C16.8916 4.88385 16.5191 4.88385 16.2895 5.11358C16.0597 5.34331 16.0597 5.71577 16.2895 5.94551L18.6424 8.29853Z" fill="#001F3E"/>
<path d="M18.532 6.52455L17.1219 5.11342C16.9208 4.91239 16.6099 4.8874 16.3816 5.03823L16.2898 5.11342C16.0888 5.31446 16.0628 5.62531 16.2137 5.85366L16.2898 5.94545L18.6424 8.29897C18.8721 8.52847 19.2448 8.52844 19.4744 8.29897L21.8279 5.94545L21.9031 5.85366C22.054 5.62536 22.0289 5.31449 21.8279 5.11342C21.6269 4.91239 21.316 4.8874 21.0877 5.03823L20.9959 5.11342L19.7088 6.40053L19.7088 2.58803L19.6971 2.46987C19.6501 2.24003 19.4689 2.05892 19.2391 2.01186L19.1199 2.00014C18.8358 2.00036 18.5985 2.20185 18.5438 2.46987L18.532 2.58803L18.532 6.52455ZM18.3318 2.58803C18.332 2.15295 18.6849 1.80019 19.1199 1.79995C19.5552 1.79995 19.9089 2.15279 19.909 2.58803L19.909 5.91713L20.8543 4.97182C21.162 4.66432 21.6608 4.66446 21.9686 4.97182C22.2764 5.27966 22.2764 5.77921 21.9686 6.08705L19.616 8.43959C19.3083 8.74748 18.8086 8.74738 18.5008 8.43959L16.1482 6.08705C15.8404 5.77921 15.8404 5.27966 16.1482 4.97182C16.4559 4.66432 16.9547 4.66446 17.2625 4.97182L18.3318 6.04116L18.3318 2.58803Z" fill="#001F3E"/>
</svg>
