<svg width="24" height="24" viewBox="0 0 24 24" fill="none" xmlns="http://www.w3.org/2000/svg">
<path fill-rule="evenodd" clip-rule="evenodd" d="M15.8185 18.9108C16.0903 20.2004 15.2538 21.54 14.0311 21.9551C13.4379 22.1733 12.8101 22.1245 12.2871 21.9447C11.7657 21.7655 11.2669 21.4283 10.9577 20.9653L10.9568 20.964L7.98592 16.5438C7.87634 16.8969 7.69567 17.2146 7.41457 17.4741C6.87802 17.9693 6.13834 18.098 5.38086 18.098H4.38086C3.62338 18.098 2.8837 17.9693 2.34715 17.4741C1.79586 16.9652 1.63086 16.2325 1.63086 15.448V5.64796C1.63086 4.86345 1.79586 4.13074 2.34715 3.62186C2.8837 3.12659 3.62338 2.99796 4.38086 2.99796H5.38086C6.13834 2.99796 6.87802 3.12659 7.41457 3.62186C7.64396 3.8336 7.80647 4.08411 7.91804 4.36097L10.0895 2.67988C10.4198 2.36947 10.869 2.18558 11.2498 2.07679C11.6641 1.95841 12.1084 1.89793 12.4809 1.89793H16.2809C17.0606 1.89793 17.8378 2.18651 18.4612 2.64266C19.0778 3.09382 19.5954 3.74745 19.8012 4.5377L22.1906 11.8052C22.5104 12.7093 22.3975 13.6218 21.8847 14.3178C21.3735 15.0115 20.5338 15.3979 19.5809 15.3979H15.5809C15.491 15.3979 15.4226 15.4342 15.3807 15.4816C15.3447 15.5225 15.3039 15.5991 15.3228 15.738L15.8185 18.9108ZM8.13086 6.09321L11.0776 3.81187L11.1112 3.77826C11.1778 3.71161 11.3579 3.60595 11.6619 3.51908C11.9476 3.43745 12.2533 3.39793 12.4809 3.39793H16.2809C16.7011 3.39793 17.1739 3.55936 17.5755 3.8532C17.9765 4.14666 18.254 4.53279 18.3533 4.92983L18.3599 4.95628L20.7714 12.2912L20.7746 12.3002C20.9505 12.7929 20.8624 13.1765 20.6771 13.428C20.4882 13.6844 20.1279 13.8979 19.5809 13.8979H15.5809C14.5375 13.8979 13.672 14.7893 13.8384 15.954L13.8398 15.9637L14.3435 19.1873L14.3487 19.2106C14.4594 19.7087 14.1057 20.3491 13.5437 20.5364L13.5305 20.5408L13.5175 20.5457C13.3145 20.6218 13.0478 20.6201 12.7747 20.5262C12.4965 20.4305 12.2958 20.2682 12.2049 20.1319L12.2033 20.1296L8.13086 14.0705V6.09321ZM3.13086 15.448C3.13086 16.0634 3.26585 16.2807 3.36457 16.3719C3.47802 16.4766 3.73834 16.598 4.38086 16.598H5.38086C6.02338 16.598 6.2837 16.4766 6.39715 16.3719C6.49586 16.2807 6.63086 16.0634 6.63086 15.448V5.64796C6.63086 5.03247 6.49586 4.81519 6.39715 4.72406C6.2837 4.61934 6.02338 4.49796 5.38086 4.49796H4.38086C3.73834 4.49796 3.47802 4.61934 3.36457 4.72406C3.26585 4.81519 3.13086 5.03247 3.13086 5.64796V15.448Z" fill="#001F3E"/>
</svg>
