<svg width="24" height="24" viewBox="0 0 24 24" fill="none" xmlns="http://www.w3.org/2000/svg">
<path d="M14.5025 3.12913C15.592 3.49897 16.3372 4.69255 16.0951 5.84158L15.6534 8.66855C15.6366 8.79229 15.6729 8.86052 15.705 8.89694C15.7423 8.93918 15.8033 8.97153 15.8834 8.97153H19.4473C20.2964 8.97153 21.0446 9.31585 21.5 9.9339C21.957 10.554 22.0576 11.3671 21.7726 12.1726L19.6437 18.648C19.4603 19.3521 18.9992 19.9345 18.4498 20.3365C17.8943 20.7429 17.2018 21 16.507 21H13.1213C12.7894 21 12.3935 20.9461 12.0244 20.8407C11.6851 20.7437 11.2849 20.5799 10.9905 20.3033L10.0998 19.6137C9.44172 19.1042 9.05851 18.3174 9.06314 17.4852L9.11177 8.75722C9.1147 8.23115 9.2728 7.71764 9.56627 7.28102L11.7633 4.01221L11.7641 4.01103C12.0396 3.59851 12.4841 3.29805 12.9486 3.13837C13.4146 2.97818 13.974 2.93464 14.5025 3.12913Z" fill="#001F3E"/>
<path d="M6.86647 8.0245C7.10294 8.22354 7.25492 8.46723 7.34709 8.73807V18.0834C7.25324 18.2957 7.05943 18.4879 6.86647 18.6503C6.41511 19.0302 5.79288 19.1289 5.15567 19.1289H4.31445C3.67724 19.1289 3.05501 19.0302 2.60366 18.6503C2.1399 18.26 2.0011 17.6979 2.0011 17.0961V9.57869C2.0011 8.97691 2.1399 8.41485 2.60366 8.0245C3.05501 7.64458 3.67724 7.54592 4.31445 7.54592H5.15567C5.79288 7.54592 6.41511 7.64458 6.86647 8.0245Z" fill="#001F3E"/>
</svg>
