<svg width="24" height="24" viewBox="0 0 24 24" fill="none" xmlns="http://www.w3.org/2000/svg">
<path d="M14.6948 13.7C14.6948 13.1477 15.1425 12.7 15.6948 12.7H15.7038C16.2561 12.7 16.7038 13.1477 16.7038 13.7C16.7038 14.2523 16.2561 14.7 15.7038 14.7H15.6948C15.1425 14.7 14.6948 14.2523 14.6948 13.7Z" fill="#001F3E"/>
<path d="M15.6948 15.7C15.1425 15.7 14.6948 16.1477 14.6948 16.7C14.6948 17.2523 15.1425 17.7 15.6948 17.7H15.7038C16.2561 17.7 16.7038 17.2523 16.7038 16.7C16.7038 16.1477 16.2561 15.7 15.7038 15.7H15.6948Z" fill="#001F3E"/>
<path d="M10.9956 13.7C10.9956 13.1477 11.4433 12.7 11.9956 12.7H12.0046C12.5569 12.7 13.0046 13.1477 13.0046 13.7C13.0046 14.2523 12.5569 14.7 12.0046 14.7H11.9956C11.4433 14.7 10.9956 14.2523 10.9956 13.7Z" fill="#001F3E"/>
<path d="M11.9956 15.7C11.4433 15.7 10.9956 16.1477 10.9956 16.7C10.9956 17.2523 11.4433 17.7 11.9956 17.7H12.0046C12.5569 17.7 13.0046 17.2523 13.0046 16.7C13.0046 16.1477 12.5569 15.7 12.0046 15.7H11.9956Z" fill="#001F3E"/>
<path d="M7.29443 13.7C7.29443 13.1477 7.74215 12.7 8.29443 12.7H8.30342C8.8557 12.7 9.30342 13.1477 9.30342 13.7C9.30342 14.2523 8.8557 14.7 8.30342 14.7H8.29443C7.74215 14.7 7.29443 14.2523 7.29443 13.7Z" fill="#001F3E"/>
<path d="M8.29443 15.7C7.74215 15.7 7.29443 16.1477 7.29443 16.7C7.29443 17.2523 7.74215 17.7 8.29443 17.7H8.30342C8.8557 17.7 9.30342 17.2523 9.30342 16.7C9.30342 16.1477 8.8557 15.7 8.30342 15.7H8.29443Z" fill="#001F3E"/>
<path fill-rule="evenodd" clip-rule="evenodd" d="M8.75 2C8.75 1.58579 8.41421 1.25 8 1.25C7.58579 1.25 7.25 1.58579 7.25 2V2.78025C5.71409 2.90808 4.4962 3.44034 3.6379 4.36466C2.65363 5.42465 2.25 6.88503 2.25 8.5V17C2.25 18.615 2.65363 20.0754 3.6379 21.1353C4.63152 22.2054 6.10705 22.75 8 22.75H16C17.893 22.75 19.3685 22.2054 20.3621 21.1353C21.3464 20.0754 21.75 18.615 21.75 17V8.5C21.75 6.88503 21.3464 5.42465 20.3621 4.36466C19.5038 3.44034 18.2859 2.90808 16.75 2.78025V2C16.75 1.58579 16.4142 1.25 16 1.25C15.5858 1.25 15.25 1.58579 15.25 2V2.75H8.75V2ZM7.25 4.28628V5C7.25 5.41421 7.58579 5.75 8 5.75C8.41421 5.75 8.75 5.41421 8.75 5V4.25H15.25V5C15.25 5.41421 15.5858 5.75 16 5.75C16.4142 5.75 16.75 5.41421 16.75 5V4.28628C17.935 4.40668 18.7359 4.81778 19.2629 5.38534C19.8787 6.04852 20.2226 7.03465 20.2484 8.34H3.75157C3.77738 7.03465 4.12128 6.04852 4.7371 5.38534C5.26412 4.81778 6.06502 4.40668 7.25 4.28628ZM3.75 9.84V17C3.75 18.385 4.09637 19.4246 4.7371 20.1147C5.36848 20.7946 6.39295 21.25 8 21.25H16C17.607 21.25 18.6315 20.7946 19.2629 20.1147C19.9036 19.4246 20.25 18.385 20.25 17V9.84H3.75Z" fill="#001F3E"/>
</svg>
