<svg width="24" height="24" viewBox="0 0 24 24" fill="none" xmlns="http://www.w3.org/2000/svg">
<path d="M10.21 7.94043C10.5 7.65043 10.9795 7.65043 11.2695 7.94043L14.7998 11.4697C15.0898 11.7597 15.0898 12.2403 14.7998 12.5303L11.2695 16.0596C11.1195 16.2096 10.9293 16.2803 10.7393 16.2803C10.5494 16.2802 10.3598 16.2095 10.21 16.0596C9.92003 15.7696 9.91998 15.29 10.21 15L13.21 12L10.21 9C9.91999 8.71003 9.92005 8.23044 10.21 7.94043Z" fill="#292D32"/>
<path fill-rule="evenodd" clip-rule="evenodd" d="M12 1.25C17.93 1.25 22.75 6.07 22.75 12C22.75 17.93 17.93 22.75 12 22.75C6.07 22.75 1.25 17.93 1.25 12C1.25 6.07 6.07 1.25 12 1.25ZM12 2.75C6.9 2.75 2.75 6.9 2.75 12C2.75 17.1 6.9 21.25 12 21.25C17.1 21.25 21.25 17.1 21.25 12C21.25 6.9 17.1 2.75 12 2.75Z" fill="#292D32"/>
</svg>
