<svg width="24" height="24" viewBox="0 0 24 24" fill="none" xmlns="http://www.w3.org/2000/svg">
<path fill-rule="evenodd" clip-rule="evenodd" d="M10.71 13.2999C10.71 12.5875 11.2874 12.0099 11.9999 12.0099C12.7124 12.0099 13.2899 12.5875 13.2899 13.2999C13.2899 14.0123 12.7124 14.5899 11.9999 14.5899C11.2874 14.5899 10.71 14.0123 10.71 13.2999ZM11.9999 13.5099C12.116 13.5099 12.21 13.4158 12.21 13.2999C12.21 13.184 12.116 13.0899 11.9999 13.0899C11.8839 13.0899 11.7899 13.184 11.7899 13.2999C11.7899 13.4158 11.8839 13.5099 11.9999 13.5099Z" fill="#001F3E"/>
<path fill-rule="evenodd" clip-rule="evenodd" d="M8.5498 9.94978V9.7C8.5498 8.90857 8.66184 8.01384 9.22224 7.31894C9.81081 6.58911 10.7473 6.25 11.9998 6.25C13.2523 6.25 14.1888 6.58911 14.7774 7.31894C15.3378 8.01384 15.4498 8.90857 15.4498 9.7V9.9497C15.8825 10.0412 16.272 10.2114 16.5803 10.5196C17.1563 11.0957 17.25 11.9553 17.25 12.85V13.75C17.25 14.6446 17.1563 15.5043 16.5803 16.0803C16.0043 16.6563 15.1446 16.75 14.25 16.75H9.75C8.85536 16.75 7.99568 16.6563 7.41967 16.0803C6.84366 15.5043 6.75 14.6446 6.75 13.75V12.85C6.75 11.9553 6.84366 11.0957 7.41967 10.5196C7.72787 10.2114 8.11728 10.0413 8.5498 9.94978ZM10.0498 9.7C10.0498 8.99743 10.1628 8.54216 10.3899 8.26056C10.5888 8.01389 11.0023 7.75 11.9998 7.75C12.9973 7.75 13.4108 8.01389 13.6097 8.26056C13.8368 8.54216 13.9498 8.99743 13.9498 9.7V9.84998H10.0498V9.7ZM8.25 12.85C8.25 11.9446 8.38134 11.6793 8.48033 11.5803C8.57932 11.4813 8.84464 11.35 9.75 11.35H14.25C15.1554 11.35 15.4207 11.4813 15.5197 11.5803C15.6187 11.6793 15.75 11.9446 15.75 12.85V13.75C15.75 14.6553 15.6187 14.9207 15.5197 15.0196C15.4207 15.1186 15.1554 15.25 14.25 15.25H9.75C8.84464 15.25 8.57932 15.1186 8.48033 15.0196C8.38134 14.9207 8.25 14.6553 8.25 13.75V12.85Z" fill="#001F3E"/>
<path fill-rule="evenodd" clip-rule="evenodd" d="M14.1533 1.68807C12.7217 1.10398 11.1083 1.10398 9.67667 1.68807L4.10771 3.96762C3.55576 4.19047 3.09937 4.6134 2.78383 5.08279C2.46799 5.55261 2.25 6.13327 2.25 6.72247V11.1125C2.25 16.3518 6.03687 21.2188 11.2003 22.6454L11.2027 22.646C11.6619 22.7713 12.1582 22.7713 12.6174 22.646L12.6197 22.6454C17.7828 21.2189 21.5696 16.3514 21.57 11.1125L21.58 6.72418L21.58 6.72247C21.58 6.13058 21.3577 5.54938 21.0415 5.08136C20.7253 4.61344 20.2691 4.1909 19.7233 3.96802L14.1533 1.68807ZM4.67012 5.35821L10.2433 3.07693C11.3114 2.64123 12.5185 2.64131 13.5867 3.07693L19.1567 5.35692C19.3705 5.44413 19.6098 5.64174 19.7985 5.92108C19.9872 6.20025 20.0798 6.49445 20.08 6.72247L20.07 11.1108L20.07 11.1125C20.07 15.6527 16.7576 19.9453 12.2217 21.1992C12.0215 21.2536 11.7985 21.2536 11.5983 21.1992C7.06242 19.9452 3.75 15.6527 3.75 11.1125V6.72247C3.75 6.49166 3.84202 6.19732 4.02869 5.91965C4.21523 5.64216 4.45306 5.4456 4.67012 5.35821Z" fill="#001F3E"/>
</svg>
