<svg width="24" height="24" viewBox="0 0 24 24" fill="none" xmlns="http://www.w3.org/2000/svg">
<path d="M14.6893 12.25L12.4166 14.5227L11.324 12.884C11.1994 12.697 10.9975 12.5758 10.7739 12.5536C10.5503 12.5315 10.3286 12.6108 10.1697 12.7696L6.96967 15.9696C6.67678 16.2625 6.67678 16.7374 6.96967 17.0303C7.26256 17.3232 7.73744 17.3232 8.03033 17.0303L10.5834 14.4772L11.676 16.116C11.8006 16.303 12.0025 16.4242 12.2261 16.4463C12.4497 16.4685 12.6714 16.3892 12.8303 16.2303L15.75 13.3106V13.5C15.75 13.9142 16.0858 14.25 16.5 14.25C16.9142 14.25 17.25 13.9142 17.25 13.5V11.5C17.25 11.3983 17.2298 11.3013 17.1931 11.2129C17.1573 11.1264 17.1047 11.0453 17.0352 10.9746C17.032 10.9713 17.0287 10.968 17.0254 10.9648C16.9547 10.8953 16.8735 10.8427 16.7871 10.8069C16.6987 10.7702 16.6017 10.75 16.5 10.75H14.5C14.0858 10.75 13.75 11.0858 13.75 11.5C13.75 11.9142 14.0858 12.25 14.5 12.25H14.6893Z" fill="#001F3E"/>
<path fill-rule="evenodd" clip-rule="evenodd" d="M11.4837 1.26893C12.5191 1.24465 13.5961 1.50772 14.4501 2.10555L20.6288 6.43468C21.2484 6.86672 21.7707 7.53283 22.1361 8.23291C22.5017 8.9333 22.75 9.74277 22.75 10.5V17.78C22.75 20.503 20.5254 22.74 17.79 22.74H6.21C3.47347 22.74 1.25 20.5019 1.25 17.77V10.36C1.25 9.6495 1.47441 8.88048 1.80418 8.20836C2.134 7.53615 2.60552 6.88682 3.16901 6.44837L8.55901 2.24837C9.38375 1.60692 10.4482 1.29321 11.4837 1.26893ZM9.48046 3.43199L4.09099 7.63157C3.75471 7.89312 3.4109 8.33901 3.15082 8.86909C2.89059 9.39946 2.75 9.94045 2.75 10.36V17.77C2.75 19.6781 4.30653 21.24 6.21 21.24H17.79C19.6946 21.24 21.25 19.6769 21.25 17.78V10.5C21.25 10.0472 21.0933 9.47665 20.8064 8.92703C20.5195 8.37737 20.1413 7.92324 19.7712 7.66527L19.7696 7.66421L13.5899 3.3344C13.044 2.95235 12.2958 2.7503 11.5188 2.76852C10.7419 2.78674 10.0057 3.02357 9.48046 3.43199Z" fill="#001F3E"/>
</svg>
