<svg width="24" height="24" viewBox="0 0 24 24" fill="none" xmlns="http://www.w3.org/2000/svg">
<path d="M18.5303 1.46966L18.5244 1.46376C18.3576 1.3007 18.1276 1.22697 17.903 1.25625C17.7617 1.27458 17.6245 1.33317 17.5101 1.43202C17.4947 1.4453 17.4799 1.45918 17.4657 1.47362L15.4697 3.46966C15.1768 3.76256 15.1768 4.23743 15.4697 4.53032C15.7626 4.82322 16.2374 4.82322 16.5303 4.53032L17.25 3.81065V7.99999C17.25 8.41421 17.5858 8.74999 18 8.74999C18.4142 8.74999 18.75 8.41421 18.75 7.99999V3.81065L19.4697 4.53032C19.7626 4.82321 20.2374 4.82321 20.5303 4.53032C20.8232 4.23743 20.8232 3.76255 20.5303 3.46966L18.5303 1.46966Z" fill="#001F3E"/>
<path fill-rule="evenodd" clip-rule="evenodd" d="M3.09467 3.09466C4.42914 1.76019 6.42603 1.24999 9 1.24999H13C13.4142 1.24999 13.75 1.58578 13.75 1.99999C13.75 2.41421 13.4142 2.74999 13 2.74999H9C6.57397 2.74999 5.07086 3.23979 4.15533 4.15532C3.2398 5.07085 2.75 6.57396 2.75 8.99999V15C2.75 16.1133 2.85315 17.0323 3.05326 17.7893L7.18194 15.0173C8.24502 14.3041 9.75679 14.376 10.7288 15.2111L10.7351 15.2166L11.0615 15.5035C11.5608 15.9296 12.4033 15.9288 12.9013 15.5011L17.0613 11.9311C18.1224 11.0199 19.7977 11.0197 20.8587 11.931L21.25 12.2672V9.99999C21.25 9.58578 21.5858 9.24999 22 9.24999C22.4142 9.24999 22.75 9.58578 22.75 9.99999V13.8959C22.75 13.8989 22.75 13.9018 22.75 13.9048V15C22.75 17.574 22.2398 19.5709 20.9053 20.9053C19.5709 22.2398 17.574 22.75 15 22.75H9C6.42603 22.75 4.42914 22.2398 3.09467 20.9053C1.7602 19.5709 1.25 17.574 1.25 15V8.99999C1.25 6.42602 1.7602 4.42913 3.09467 3.09466ZM21.25 14.2445L19.8813 13.0689C19.3824 12.6403 18.5376 12.6403 18.0387 13.0689L13.8787 16.6389C12.8176 17.5501 11.1423 17.5503 10.0813 16.6389L10.0749 16.6334L9.74844 16.3465C9.30001 15.9637 8.53368 15.9167 8.01784 16.2628L3.64344 19.1998C3.79556 19.4417 3.96638 19.6557 4.15533 19.8447C5.07086 20.7602 6.57397 21.25 9 21.25H15C17.426 21.25 18.9291 20.7602 19.8447 19.8447C20.7602 18.9291 21.25 17.426 21.25 15V14.2445Z" fill="#001F3E"/>
<path fill-rule="evenodd" clip-rule="evenodd" d="M6.25 7.99999C6.25 6.48121 7.48122 5.24999 9 5.24999C10.5188 5.24999 11.75 6.48121 11.75 7.99999C11.75 9.51878 10.5188 10.75 9 10.75C7.48122 10.75 6.25 9.51878 6.25 7.99999ZM9 6.74999C8.30964 6.74999 7.75 7.30964 7.75 7.99999C7.75 8.69035 8.30964 9.24999 9 9.24999C9.69036 9.24999 10.25 8.69035 10.25 7.99999C10.25 7.30964 9.69036 6.74999 9 6.74999Z" fill="#001F3E"/>
</svg>
