<svg width="24" height="24" viewBox="0 0 24 24" fill="none" xmlns="http://www.w3.org/2000/svg">
<path d="M19.9706 3.46975C20.2635 3.17693 20.7383 3.17689 21.0311 3.46975C21.324 3.76263 21.324 4.2374 21.0311 4.5303L13.3114 12.2491L21.0311 19.9688C21.324 20.2616 21.3239 20.7364 21.0311 21.0293C20.7382 21.3222 20.2635 21.3222 19.9706 21.0293L12.2509 13.3096L4.53211 21.0293C4.23922 21.3222 3.76446 21.3222 3.47156 21.0293C3.17868 20.7364 3.17867 20.2617 3.47156 19.9688L11.1903 12.2491L3.47156 4.5303C3.17867 4.23741 3.17867 3.76265 3.47156 3.46975C3.76447 3.17702 4.23927 3.17691 4.53211 3.46975L12.2509 11.1885L19.9706 3.46975Z" fill="#001F3E"/>
</svg>
