<svg width="24" height="24" viewBox="0 0 24 24" fill="none" xmlns="http://www.w3.org/2000/svg">
<path d="M8.25 10.0001C8.25 9.58585 8.58579 9.25006 9 9.25006H15C15.4142 9.25006 15.75 9.58585 15.75 10.0001C15.75 10.4143 15.4142 10.7501 15 10.7501H9C8.58579 10.7501 8.25 10.4143 8.25 10.0001Z" fill="#001F3E"/>
<path d="M9 14.2501C8.58579 14.2501 8.25 14.5858 8.25 15.0001C8.25 15.4143 8.58579 15.7501 9 15.7501H15C15.4142 15.7501 15.75 15.4143 15.75 15.0001C15.75 14.5858 15.4142 14.2501 15 14.2501H9Z" fill="#001F3E"/>
<path fill-rule="evenodd" clip-rule="evenodd" d="M7.49329 1.44953C7.9596 1.3815 8.46257 1.3501 9.00156 1.3501H15.1C15.639 1.3501 16.142 1.3815 16.6083 1.44953C17.9792 1.64954 19.0683 2.17461 19.7877 3.17163C20.4872 4.14097 20.75 5.43956 20.75 7.0001V17.0001C20.75 18.824 20.3898 20.2959 19.3928 21.2929C18.3959 22.2899 16.924 22.6501 15.1 22.6501H9.00156C7.17759 22.6501 5.7057 22.2899 4.70873 21.2929C3.71176 20.2959 3.35156 18.824 3.35156 17.0001V7.0001C3.35156 5.43956 3.6144 4.14097 4.31385 3.17163C5.03327 2.17461 6.12238 1.64954 7.49329 1.44953ZM8.76895 2.85236L9.39668 4.1116C9.43898 4.19644 9.52562 4.25006 9.62042 4.25006H14.4811C14.5759 4.25006 14.6626 4.19644 14.7049 4.1116L15.3326 2.85236C15.2565 2.85085 15.179 2.8501 15.1 2.8501H9.00156C8.9226 2.8501 8.84507 2.85085 8.76895 2.85236ZM16.9176 3.03505L16.0473 4.78081C15.7513 5.37471 15.1447 5.75006 14.4811 5.75006H9.62042C8.95682 5.75006 8.3503 5.37471 8.05424 4.78081L7.18397 3.03505C6.38512 3.23112 5.87148 3.57645 5.53024 4.04935C5.09937 4.64648 4.85156 5.57128 4.85156 7.0001V17.0001C4.85156 18.6761 5.19136 19.6542 5.76939 20.2322C6.34742 20.8103 7.32553 21.1501 9.00156 21.1501H15.1C16.776 21.1501 17.7541 20.8103 18.3322 20.2322C18.9102 19.6542 19.25 18.6761 19.25 17.0001V7.0001C19.25 5.57128 19.0022 4.64648 18.5713 4.04935C18.2301 3.57645 17.7164 3.23112 16.9176 3.03505Z" fill="#001F3E"/>
</svg>
