<svg width="24" height="24" viewBox="0 0 24 24" fill="none" xmlns="http://www.w3.org/2000/svg">
<path d="M13.3315 7.34448C13.3315 7.15606 13.4077 6.99106 13.5271 6.87161C13.6466 6.75215 13.8116 6.67603 14 6.67603H18.2771C18.6439 6.67603 18.9455 6.9777 18.9455 7.34448V11.4144C18.9455 11.7812 18.6439 12.0829 18.2771 12.0829C17.9103 12.0829 17.6086 11.7812 17.6086 11.4144L17.6086 9.20141L12.2796 14.5304C12.0094 14.8006 11.5792 14.8244 11.2808 14.5857L9.33338 13.0278L6.49888 16.0001C6.22179 16.3079 5.74757 16.3329 5.43969 16.0558C5.13181 15.7787 5.10685 15.3045 5.38394 14.9966L8.69184 11.4983C8.95762 11.203 9.40759 11.1662 9.71783 11.4144L11.6937 12.9951L16.6758 8.01294L14 8.01294C13.6332 8.01294 13.3315 7.71127 13.3315 7.34448Z" fill="#001F3E"/>
</svg>
