<svg width="24" height="24" viewBox="0 0 24 24" fill="none" xmlns="http://www.w3.org/2000/svg">
<path d="M10.25 13.5C10.25 12.5335 11.0335 11.75 12 11.75C12.9665 11.75 13.75 12.5335 13.75 13.5C13.75 14.2164 13.3194 14.834 12.6997 15.1047C12.4265 15.2241 12.25 15.4939 12.25 15.792V17.5C12.25 17.6381 12.1381 17.75 12 17.75C11.8619 17.75 11.75 17.6381 11.75 17.5V15.792C11.75 15.4939 11.5734 15.2241 11.3003 15.1047C10.6806 14.834 10.25 14.2164 10.25 13.5Z" fill="#001F3E"/>
<path fill-rule="evenodd" clip-rule="evenodd" d="M2.46967 8.46967C3.14917 7.79017 4.09265 7.46853 5.26399 7.33384C5.32874 5.85824 5.63571 4.41202 6.54093 3.28826C7.61038 1.96061 9.37164 1.25 12 1.25C14.6284 1.25 16.3896 1.96061 17.4591 3.28826C18.3643 4.41202 18.6713 5.85824 18.736 7.33384C19.9074 7.46853 20.8508 7.79017 21.5303 8.46967C22.5188 9.45818 22.75 11.0054 22.75 13V17C22.75 18.9946 22.5188 20.5418 21.5303 21.5303C20.5418 22.5188 18.9946 22.75 17 22.75H7C5.00536 22.75 3.45818 22.5188 2.46967 21.5303C1.48116 20.5418 1.25 18.9946 1.25 17V13C1.25 11.0054 1.48116 9.45818 2.46967 8.46967ZM7 7.25C6.92272 7.25 6.8461 7.25035 6.77017 7.25107C6.84207 5.9894 7.11397 4.96802 7.70907 4.22924C8.38962 3.38439 9.62836 2.75 12 2.75C14.3716 2.75 15.6104 3.38439 16.2909 4.22924C16.886 4.96802 17.1579 5.9894 17.2298 7.25107C17.1539 7.25035 17.0773 7.25 17 7.25H7ZM12 10.25C10.2051 10.25 8.75 11.7051 8.75 13.5C8.75 14.6515 9.34879 15.6619 10.25 16.2389V17.5C10.25 18.4665 11.0335 19.25 12 19.25C12.9665 19.25 13.75 18.4665 13.75 17.5V16.2389C14.6512 15.6619 15.25 14.6515 15.25 13.5C15.25 11.7051 13.7949 10.25 12 10.25Z" fill="#001F3E"/>
</svg>
