<svg width="24" height="24" viewBox="0 0 24 24" fill="none" xmlns="http://www.w3.org/2000/svg">
<path d="M16.0605 12.25C16.4748 12.25 16.8105 12.5858 16.8105 13V14.75H18.5C18.9142 14.75 19.25 15.0858 19.25 15.5C19.25 15.9142 18.9142 16.25 18.5 16.25H16.8105V18C16.8105 18.4142 16.4748 18.75 16.0605 18.75C15.6463 18.75 15.3105 18.4142 15.3105 18V16.25H13.5C13.0858 16.25 12.75 15.9142 12.75 15.5C12.75 15.0858 13.0858 14.75 13.5 14.75H15.3105V13C15.3105 12.5858 15.6463 12.25 16.0605 12.25Z" fill="#292D32"/>
<path d="M10.5 6.75C10.9142 6.75 11.25 7.08579 11.25 7.5C11.25 7.91421 10.9142 8.25 10.5 8.25H5.5C5.08579 8.25 4.75 7.91421 4.75 7.5C4.75 7.08579 5.08579 6.75 5.5 6.75H10.5Z" fill="#292D32"/>
<path fill-rule="evenodd" clip-rule="evenodd" d="M14.9707 1.25C17.5447 1.25 19.5415 1.76026 20.876 3.09473C22.2104 4.4292 22.7207 6.42603 22.7207 9V15C22.7207 17.574 22.2104 19.5708 20.876 20.9053C19.5415 22.2397 17.5447 22.75 14.9707 22.75H8.9707C6.39673 22.75 4.3999 22.2397 3.06543 20.9053C1.73096 19.5708 1.2207 17.574 1.2207 15V9C1.2207 6.42603 1.73096 4.4292 3.06543 3.09473C4.3999 1.76026 6.39673 1.25 8.9707 1.25H14.9707ZM4.15625 19.873C5.07445 20.7698 6.57054 21.25 8.9707 21.25H14.9707C17.3967 21.25 18.8999 20.7603 19.8154 19.8447C20.731 18.9292 21.2207 17.426 21.2207 15V9C21.2207 6.59983 20.7405 5.10375 19.8438 4.18555L4.15625 19.873ZM8.9707 2.75C6.54468 2.75 5.04151 3.23974 4.12598 4.15527C3.21045 5.0708 2.7207 6.57397 2.7207 9V15C2.7207 16.5486 2.92124 17.7208 3.30371 18.6045L18.5752 3.33301C17.6915 2.95053 16.5193 2.75 14.9707 2.75H8.9707Z" fill="#292D32"/>
</svg>
