<svg width="24" height="24" viewBox="0 0 24 24" fill="none" xmlns="http://www.w3.org/2000/svg">
<path d="M15.2473 6.24998C14.833 6.24998 14.4973 6.58577 14.4973 6.99998C14.4973 7.4142 14.833 7.74998 15.2473 7.74998H15.2517C15.666 7.74998 16.0017 7.4142 16.0017 6.99998C16.0017 6.58577 15.666 6.24998 15.2517 6.24998H15.2473Z" fill="#001F3E"/>
<path d="M17.9977 6.99998C17.9977 6.58577 18.3335 6.24998 18.7477 6.24998H18.7522C19.1664 6.24998 19.5022 6.58577 19.5022 6.99998C19.5022 7.4142 19.1664 7.74998 18.7522 7.74998H18.7477C18.3335 7.74998 17.9977 7.4142 17.9977 6.99998Z" fill="#001F3E"/>
<path fill-rule="evenodd" clip-rule="evenodd" d="M20.0002 4.25499V4.33067C20.6796 4.45255 21.2228 4.71834 21.6003 5.16721C22.1411 5.81013 22.1696 6.6287 22.0956 7.29747L22.0944 7.30802L21.7201 10.3016C21.662 10.8386 21.5191 11.516 20.9579 12.0287C20.4011 12.5374 19.582 12.75 18.5001 12.75H15.5001C14.4183 12.75 13.5992 12.5374 13.0424 12.0287C12.4812 11.516 12.3382 10.8387 12.2801 10.3017L11.9046 7.29748C11.8306 6.62871 11.8591 5.81013 12.3999 5.16721C12.7775 4.7183 13.3208 4.4525 14.0002 4.33064C14.0104 2.87008 15.1631 1.41345 16.7091 1.26836C18.4954 1.09585 20.0002 2.50378 20.0002 4.25499ZM16.8526 2.76148C17.744 2.675 18.4973 3.37397 18.5002 4.24998H15.5037C15.5561 3.50539 16.1832 2.82397 16.8499 2.76174L16.8526 2.76148ZM13.395 7.12744L13.771 10.1351C13.8183 10.577 13.9089 10.7886 14.0541 10.9213C14.2061 11.0601 14.572 11.25 15.5001 11.25H18.5001C19.4283 11.25 19.7942 11.0601 19.9461 10.9213C20.0913 10.7886 20.182 10.577 20.2294 10.1351L20.2308 10.1219L20.6052 7.12745C20.6652 6.57951 20.5862 6.29185 20.4524 6.13276C20.3253 5.98166 19.9796 5.74998 19.0001 5.74998H15.0001C14.0207 5.74998 13.6749 5.98166 13.5478 6.13276C13.414 6.29185 13.3351 6.5795 13.395 7.12744Z" fill="#001F3E"/>
<path fill-rule="evenodd" clip-rule="evenodd" d="M12.0315 13.7477L12.2348 15.9017L12.8876 16.0063L19.4128 14.4555C20.6359 14.1649 21.8759 14.8673 22.2554 16.0657C22.6331 17.2585 22.0309 18.5414 20.872 19.0129L12.6008 22.378C11.9164 22.6565 11.1487 22.6478 10.4708 22.3539L1.7019 18.5529C1.42766 18.434 1.25018 18.1637 1.25018 17.8648V11.1877C1.25018 10.7915 1.55836 10.4637 1.9538 10.4392L4.7003 10.269C4.95926 10.253 5.21918 10.2736 5.47233 10.3304L9.89562 11.3228C11.0575 11.5834 11.9196 12.5622 12.0315 13.7477ZM4.79306 11.7661C4.91077 11.7588 5.02891 11.7682 5.14399 11.7941L9.56727 12.7864C10.0954 12.9049 10.4873 13.3498 10.5381 13.8886L10.705 15.6565L7.06644 15.0733C6.65745 15.0078 6.27275 15.2862 6.2072 15.6952C6.14165 16.1042 6.42006 16.4889 6.82905 16.5544L12.7974 17.511C12.8945 17.5266 12.9937 17.5229 13.0895 17.5001L19.7597 15.9149C20.2182 15.8059 20.6831 16.0693 20.8254 16.5186C20.967 16.9658 20.7412 17.4467 20.3067 17.6235L12.0356 20.9886C11.7244 21.1152 11.3755 21.1112 11.0673 20.9777L2.75018 17.3724L2.75018 11.8927L4.79306 11.7661Z" fill="#001F3E"/>
</svg>
