<svg width="24" height="24" viewBox="0 0 24 24" fill="none" xmlns="http://www.w3.org/2000/svg">
<path d="M12 2C17.5228 2 22 6.47715 22 12C22 17.5228 17.5228 22 12 22C6.47715 22 2 17.5228 2 12C2 6.47715 6.47715 2 12 2ZM12.0068 14.6855C10.0909 14.6856 8.13366 15.1672 6.61523 16.1758L6.61133 16.1777C6.08365 16.5328 5.6413 16.9446 5.29883 17.3965C6.87611 19.3526 9.29152 20.6045 12 20.6045C14.7085 20.6045 17.1229 19.3517 18.7002 17.3955C18.3578 16.944 17.916 16.5326 17.3887 16.1777L17.3867 16.1768C15.877 15.1666 13.9227 14.6855 12.0068 14.6855ZM12 5.48047C9.76447 5.48058 7.97082 7.28721 7.9707 9.50977C7.9707 11.6852 9.69174 13.4555 11.8545 13.5293C11.8941 13.5306 11.9343 13.5293 11.9736 13.5244C11.9807 13.5235 11.9918 13.5225 12.0039 13.5225H12.0137C12.0572 13.5287 12.1016 13.5308 12.1455 13.5293C14.312 13.4554 16.0178 11.6828 16.0303 9.51465V9.50977C16.0302 7.28565 14.2241 5.48047 12 5.48047Z" fill="#001F3E"/>
</svg>
