<svg width="24" height="24" viewBox="0 0 24 24" fill="none" xmlns="http://www.w3.org/2000/svg">
<path fill-rule="evenodd" clip-rule="evenodd" d="M6.00002 1.25C4.21735 1.25 2.66207 2.23671 1.85491 3.68484C1.65325 4.04665 1.78307 4.50343 2.14488 4.7051C2.50669 4.90676 2.96347 4.77694 3.16514 4.41513C3.71798 3.42326 4.78268 2.75 6.00002 2.75H14.25V12C14.25 12.6001 13.818 13.107 13.2506 13.2244C13.1696 13.2412 13.0858 13.25 13.0001 13.25H12.0001L12 13.25C11.9461 13.25 11.8934 13.2557 11.8427 13.2665C11.504 13.3388 11.25 13.6397 11.25 14C11.25 14.4142 11.5858 14.75 12 14.75H13C13.0036 14.75 13.0072 14.75 13.0107 14.75L13.0177 14.7499C13.1063 14.7494 13.194 14.7446 13.2804 14.7358C14.6639 14.5945 15.7501 13.4196 15.7501 12V5.75H16.8401C17.2855 5.75 17.7011 5.99126 17.9304 6.38474L17.9315 6.38661L18.9971 8.25C18.6361 8.25059 18.3001 8.36138 18.0212 8.55043C17.5564 8.86551 17.2501 9.39797 17.2501 10V13C17.2501 13.1688 17.2741 13.3322 17.3191 13.4868C17.4666 13.9945 17.8386 14.4081 18.3198 14.6122C18.5291 14.7009 18.759 14.75 19.0001 14.75H21.2501V17C21.2501 18.2458 20.2458 19.25 19.0001 19.25H18.6465C18.3201 18.0957 17.2588 17.25 16.0001 17.25C14.7413 17.25 13.68 18.0957 13.3536 19.25H10.6466C10.3201 18.0957 9.25888 17.25 8.0001 17.25C6.74132 17.25 5.68007 18.0957 5.35361 19.25H5.00006C3.75427 19.25 2.75006 18.2458 2.75006 17C2.75006 16.5858 2.41427 16.25 2.00006 16.25C1.58585 16.25 1.25006 16.5858 1.25006 17C1.25006 19.0742 2.92585 20.75 5.00006 20.75H5.35361C5.68008 21.9042 6.74132 22.75 8.0001 22.75C9.25888 22.75 10.3201 21.9042 10.6466 20.75H13.3536C13.68 21.9042 14.7413 22.75 16.0001 22.75C17.2588 22.75 18.3201 21.9042 18.6465 20.75H19.0001C21.0743 20.75 22.7501 19.0742 22.7501 17V14.0069C22.7501 14.0046 22.7501 14.0023 22.7501 14V12C22.7501 11.8698 22.7162 11.7418 22.6517 11.6286L20.9416 8.62859L20.9408 8.6272C20.94 8.62569 20.9391 8.62418 20.9382 8.62268L19.2311 5.63767L19.2287 5.6334C18.7378 4.78799 17.8339 4.25 16.8401 4.25H15.75V2C15.75 1.58579 15.4142 1.25 15 1.25H6.00002ZM21.2501 12.1988V13.25H19.0001C18.994 13.25 18.9879 13.2498 18.9819 13.2493C18.9044 13.2435 18.8355 13.2006 18.7934 13.1388C18.7661 13.0988 18.7501 13.0509 18.7501 13V10C18.7501 9.89394 18.8198 9.80103 18.915 9.76544C18.9417 9.75547 18.9703 9.75 19.0001 9.75L19.8543 9.75L21.2501 12.1988ZM17.2501 20C17.2501 19.997 17.25 19.9941 17.25 19.9911C17.25 19.9874 17.25 19.9837 17.2499 19.98C17.2391 19.3033 16.6792 18.75 16.0001 18.75C15.3143 18.75 14.7501 19.3142 14.7501 20L14.7501 20.0031C14.7517 20.692 15.3107 21.25 16.0001 21.25C16.6904 21.25 17.2501 20.6903 17.2501 20ZM6.7501 20C6.7501 19.978 6.75067 19.9561 6.75179 19.9343C6.78644 19.2785 7.3363 18.75 8.00006 18.75C8.68585 18.75 9.25006 19.3142 9.25006 20L9.25006 20.0025C9.25007 20.0038 9.25008 20.0051 9.25009 20.0063C9.24668 20.6938 8.68835 21.25 8.0001 21.25C7.30974 21.25 6.7501 20.6903 6.7501 20Z" fill="#001F3E"/>
<path d="M2.00006 7.24999C1.58585 7.24999 1.25006 7.58578 1.25006 7.99999C1.25006 8.41421 1.58585 8.74999 2.00006 8.74999H8.00008C8.41429 8.74999 8.75008 8.41421 8.75008 7.99999C8.75008 7.58578 8.41429 7.24999 8.00008 7.24999H2.00006Z" fill="#001F3E"/>
<path d="M1.25006 11C1.25006 10.5858 1.58585 10.25 2.00006 10.25H6.00007C6.41429 10.25 6.75007 10.5858 6.75007 11C6.75007 11.4142 6.41429 11.75 6.00007 11.75H2.00006C1.58585 11.75 1.25006 11.4142 1.25006 11Z" fill="#001F3E"/>
<path d="M2.00006 13.25C1.58585 13.25 1.25006 13.5858 1.25006 14C1.25006 14.4142 1.58585 14.75 2.00006 14.75H4.00007C4.41428 14.75 4.75007 14.4142 4.75007 14C4.75007 13.5858 4.41428 13.25 4.00007 13.25H2.00006Z" fill="#001F3E"/>
</svg>
