<svg width="24" height="24" viewBox="0 0 24 24" fill="none" xmlns="http://www.w3.org/2000/svg">
<path fill-rule="evenodd" clip-rule="evenodd" d="M10.0858 11.0345C10.8367 10.6002 11.7409 10.7351 12.5453 11.2006L14.6258 12.4009C15.4303 12.8667 15.9975 13.5832 15.9975 14.45C15.9975 15.3168 15.4303 16.0333 14.6258 16.4991L12.5453 17.6993C11.741 18.1649 10.8367 18.2998 10.0858 17.8655C9.33519 17.4314 9 16.5802 9 15.65V13.25C9 12.3198 9.33519 11.4686 10.0858 11.0345ZM10.5 13.25C10.5 12.6402 10.7098 12.4064 10.8367 12.333C10.9631 12.2599 11.2687 12.1948 11.7942 12.4991L13.8747 13.6993C14.3997 14.0034 14.4975 14.3018 14.4975 14.45C14.4975 14.5982 14.3993 14.8968 13.8742 15.2009L11.7942 16.4009C11.2687 16.7052 10.9631 16.6401 10.8367 16.567C10.7098 16.4936 10.5 16.2598 10.5 15.65V13.25Z" fill="#001F3E"/>
<path fill-rule="evenodd" clip-rule="evenodd" d="M3.09467 3.09467C4.42914 1.7602 6.42603 1.25 9 1.25H15C17.574 1.25 19.5709 1.7602 20.9053 3.09467C22.2398 4.42914 22.75 6.42603 22.75 9V15C22.75 17.574 22.2398 19.5709 20.9053 20.9053C19.5709 22.2398 17.574 22.75 15 22.75H9C6.42603 22.75 4.42914 22.2398 3.09467 20.9053C1.7602 19.5709 1.25 17.574 1.25 15V9C1.25 6.42603 1.7602 4.42914 3.09467 3.09467ZM4.15533 4.15533C3.6327 4.67796 3.24881 5.39205 3.01556 6.36H7.77002V2.79787C6.04849 2.9415 4.90495 3.40571 4.15533 4.15533ZM9.27002 2.75V6.36H14.73V2.75H9.27002ZM20.9844 6.36H16.23V2.79787C17.9515 2.9415 19.095 3.40571 19.8447 4.15533C20.3673 4.67796 20.7512 5.39205 20.9844 6.36ZM2.75 9C2.75 8.59477 2.76367 8.21529 2.7907 7.86H21.2093C21.2363 8.21529 21.25 8.59477 21.25 9V15C21.25 17.426 20.7602 18.9291 19.8447 19.8447C18.9291 20.7602 17.426 21.25 15 21.25H9C6.57397 21.25 5.07086 20.7602 4.15533 19.8447C3.2398 18.9291 2.75 17.426 2.75 15V9Z" fill="#001F3E"/>
</svg>
