<svg width="24" height="24" viewBox="0 0 24 24" fill="none" xmlns="http://www.w3.org/2000/svg">
<path d="M21.075 9.525L14.475 2.925C14.175 2.625 13.725 2.625 13.425 2.925L11.025 5.325C10.65 5.7 10.8 6.15 11.025 6.375L11.55 6.9L9.3 9.15C8.175 8.925 5.1 8.4 3.45 10.05C3.15 10.35 3.15 10.8 3.45 11.1L7.725 15.375L3 20.1C2.7 20.4 2.7 20.85 3 21.15C3.3 21.45 3.825 21.375 4.05 21.15L8.775 16.425L13.05 20.7C13.5 21.075 13.95 20.925 14.1 20.7C15.75 19.05 15.225 15.975 15 14.85L17.25 12.6L17.775 13.125C18.075 13.425 18.525 13.425 18.825 13.125L21.225 10.725C21.375 10.275 21.375 9.825 21.075 9.525Z" fill="#001F3E"/>
</svg>
