<svg width="24" height="24" viewBox="0 0 24 24" fill="none" xmlns="http://www.w3.org/2000/svg">
<path d="M12 2C17.5228 2 22 6.47715 22 12C22 17.5228 17.5228 22 12 22C6.47715 22 2 17.5228 2 12C2 6.47715 6.47715 2 12 2ZM12 6.21875C11.7438 6.21875 11.5313 6.43125 11.5312 6.6875V16.1816L8.53711 13.1875C8.35586 13.0062 8.05527 13.0063 7.87402 13.1875C7.69298 13.3687 7.69308 13.6684 7.87402 13.8496L11.668 17.6436C11.8492 17.8248 12.1488 17.8247 12.3301 17.6436L16.124 13.8496C16.2177 13.7559 16.2617 13.6373 16.2617 13.5186C16.2617 13.3999 16.2177 13.2812 16.124 13.1875C15.9428 13.0063 15.6431 13.0063 15.4619 13.1875L12.4688 16.1807V6.6875C12.4687 6.43125 12.2562 6.21875 12 6.21875Z" fill="#001F3E"/>
</svg>
