<svg width="24" height="24" viewBox="0 0 24 24" fill="none" xmlns="http://www.w3.org/2000/svg">
<path d="M12.6307 3.63068C12.6307 3.28237 12.3483 3 12 3C11.6517 3 11.3693 3.28237 11.3693 3.63068V11.6193H3.38068C3.03237 11.6193 2.75 11.9017 2.75 12.25C2.75 12.5983 3.03237 12.8807 3.38068 12.8807H11.3693V20.8693C11.3693 21.2176 11.6517 21.5 12 21.5C12.3483 21.5 12.6307 21.2176 12.6307 20.8693V12.8807H20.6193C20.9676 12.8807 21.25 12.5983 21.25 12.25C21.25 11.9017 20.9676 11.6193 20.6193 11.6193H12.6307V3.63068Z" fill="#001F3E"/>
</svg>
