<svg width="24" height="24" viewBox="0 0 24 24" fill="none" xmlns="http://www.w3.org/2000/svg">
<path fill-rule="evenodd" clip-rule="evenodd" d="M21.1584 12.34V10.7803H2.64844V16.14C2.64844 17.8975 2.89154 18.6964 3.31849 19.117C3.74927 19.5413 4.56775 19.78 6.34839 19.78H11.4584C11.8726 19.78 12.2084 20.1158 12.2084 20.53C12.2084 20.9443 11.8726 21.28 11.4584 21.28H6.34839C4.57903 21.28 3.17254 21.0788 2.26584 20.1856C1.35531 19.2887 1.14844 17.8926 1.14844 16.14V7.92004C1.14844 6.32534 1.32083 5.03446 2.02971 4.14129C2.77187 3.20619 3.9394 2.8942 5.38547 2.81127L5.40164 2.81052C5.68282 2.80048 6.00412 2.79004 6.34839 2.79004H17.4584C19.2278 2.79004 20.6343 2.99133 21.541 3.88448C22.4515 4.78142 22.6584 6.17749 22.6584 7.93004V12.34C22.6584 12.7543 22.3226 13.09 21.9084 13.09C21.4942 13.09 21.1584 12.7543 21.1584 12.34ZM5.46338 4.30927C5.73985 4.29942 6.03575 4.29004 6.34839 4.29004H17.4584C19.2391 4.29004 20.0576 4.52875 20.4883 4.95309C20.9153 5.37366 21.1584 6.17259 21.1584 7.93004V9.28027H2.64844V7.92004C2.64844 6.33475 2.84603 5.52563 3.20463 5.07379C3.52931 4.6647 4.12505 4.38698 5.46338 4.30927Z" fill="#001F3E"/>
<path d="M18.6702 16.6105C18.6712 16.1963 18.3362 15.8597 17.922 15.8587C17.5078 15.8577 17.1712 16.1927 17.1702 16.6069L17.1685 17.3515L16.387 17.3496C15.9728 17.3487 15.6362 17.6837 15.6353 18.0979C15.6343 18.5121 15.9693 18.8487 16.3835 18.8496L17.1649 18.8515L17.1631 19.598C17.1622 20.0122 17.4972 20.3488 17.9114 20.3497C18.3256 20.3507 18.6622 20.0157 18.6631 19.6015L18.6649 18.855L19.3745 18.8567C19.7888 18.8577 20.1253 18.5227 20.1263 18.1085C20.1273 17.6943 19.7923 17.3577 19.3781 17.3567L18.6685 17.355L18.6702 16.6105Z" fill="#001F3E"/>
<path fill-rule="evenodd" clip-rule="evenodd" d="M17.8984 13.2803C15.2751 13.2803 13.1484 15.4069 13.1484 18.0303C13.1484 20.6536 15.2751 22.7803 17.8984 22.7803C20.5218 22.7803 22.6484 20.6536 22.6484 18.0303C22.6484 15.4069 20.5218 13.2803 17.8984 13.2803ZM14.6484 18.0303C14.6484 16.2353 16.1035 14.7803 17.8984 14.7803C19.6934 14.7803 21.1484 16.2353 21.1484 18.0303C21.1484 19.8252 19.6934 21.2803 17.8984 21.2803C16.1035 21.2803 14.6484 19.8252 14.6484 18.0303Z" fill="#001F3E"/>
<path d="M5.89844 15.2803C5.48422 15.2803 5.14844 15.6161 5.14844 16.0303C5.14844 16.4445 5.48422 16.7803 5.89844 16.7803H9.89844C10.3127 16.7803 10.6484 16.4445 10.6484 16.0303C10.6484 15.6161 10.3127 15.2803 9.89844 15.2803H5.89844Z" fill="#001F3E"/>
</svg>
