<svg width="24" height="24" viewBox="0 0 24 24" fill="none" xmlns="http://www.w3.org/2000/svg">
<path d="M18.1758 17.3105C18.7912 17.3107 19.29 17.8103 19.29 18.4258C19.2899 19.0411 18.7911 19.5399 18.1758 19.54H18.166C17.5506 19.54 17.0509 19.0412 17.0508 18.4258C17.0508 17.8103 17.5505 17.3105 18.166 17.3105H18.1758Z" fill="#001F3E"/>
<path fill-rule="evenodd" clip-rule="evenodd" d="M18.2568 14.2305C18.6646 13.545 19.562 13.2813 20.2773 13.7021L21.0303 14.1338C21.7911 14.5689 22.0478 15.5418 21.6133 16.2939C21.5866 16.3399 21.5698 16.3785 21.5596 16.4072C21.5893 16.4127 21.6299 16.417 21.6826 16.417C22.5498 16.417 23.2646 17.1233 23.2646 18V18.7705C23.2646 19.6377 22.5593 20.3525 21.6826 20.3525C21.6299 20.3525 21.5893 20.3578 21.5596 20.3633C21.5698 20.392 21.5867 20.4296 21.6133 20.4756L21.6152 20.4795C22.0461 21.2337 21.792 22.2011 21.0303 22.6367L20.2773 23.0674C19.562 23.4882 18.6646 23.2255 18.2568 22.54C18.2553 22.5375 18.2534 22.5348 18.252 22.5322L18.2041 22.4492L18.2021 22.4463C18.1761 22.401 18.1522 22.3686 18.1328 22.3457C18.1127 22.369 18.0877 22.4023 18.0605 22.4492L18.0127 22.5322C18.0113 22.5347 18.0103 22.5376 18.0088 22.54C17.601 23.2255 16.7036 23.4882 15.9883 23.0674L15.2354 22.6367C14.4745 22.2017 14.217 21.2287 14.6514 20.4766C14.678 20.4307 14.6949 20.3919 14.7051 20.3633C14.6753 20.3578 14.6348 20.3525 14.582 20.3525C13.7054 20.3524 13 19.6376 13 18.7705V18C13 17.1329 13.7054 16.4171 14.582 16.417C14.6348 16.417 14.6753 16.4127 14.7051 16.4072C14.6949 16.3786 14.678 16.3409 14.6514 16.2949C14.217 15.5429 14.4738 14.5689 15.2344 14.1338L15.9883 13.7021C16.7036 13.2817 17.6011 13.5452 18.0088 14.2305C18.0102 14.2329 18.0113 14.2358 18.0127 14.2383L18.0605 14.3213L18.0625 14.3242C18.0885 14.3696 18.1125 14.4019 18.1318 14.4248C18.152 14.4015 18.1769 14.3682 18.2041 14.3213L18.252 14.2383C18.2534 14.2357 18.2553 14.233 18.2568 14.2305ZM19.502 15.0732C19.2228 15.5549 18.7524 15.9629 18.1309 15.9629C17.5087 15.9629 17.0389 15.554 16.7617 15.0713L16.7256 15.0088L15.9795 15.4355C15.9626 15.4452 15.9495 15.4615 15.9434 15.4844C15.9373 15.5074 15.941 15.5279 15.9502 15.5439C16.2291 16.0258 16.3486 16.6369 16.0381 17.1758C15.7274 17.7149 15.1382 17.917 14.582 17.917C14.5614 17.917 14.5423 17.9255 14.5254 17.9424C14.508 17.9598 14.5 17.9801 14.5 18V18.7705C14.5 18.7904 14.508 18.8107 14.5254 18.8281C14.5423 18.845 14.5615 18.8525 14.582 18.8525C15.1382 18.8525 15.7274 19.0556 16.0381 19.5947C16.3487 20.1337 16.2292 20.7447 15.9502 21.2266C15.941 21.2426 15.9372 21.263 15.9434 21.2861C15.9495 21.309 15.9626 21.3253 15.9795 21.335L16.7256 21.7617L16.7627 21.6973C17.0418 21.2157 17.5123 20.8078 18.1338 20.8076C18.7559 20.8076 19.2257 21.2165 19.5029 21.6992L19.5039 21.7002L19.5391 21.7617L20.2852 21.335C20.32 21.3151 20.3371 21.2672 20.3135 21.2246C20.0354 20.7432 19.9166 20.1328 20.2266 19.5947C20.5373 19.0556 21.1264 18.8526 21.6826 18.8525C21.7033 18.8525 21.7233 18.8451 21.7402 18.8281C21.7575 18.8108 21.7646 18.7903 21.7646 18.7705V18C21.7646 17.9793 21.7573 17.9593 21.7402 17.9424C21.7228 17.9251 21.7025 17.917 21.6826 17.917C21.1264 17.917 20.5373 17.7149 20.2266 17.1758C19.916 16.6368 20.0364 16.0258 20.3154 15.5439C20.3246 15.5279 20.3274 15.5075 20.3213 15.4844C20.3152 15.4615 20.3021 15.4452 20.2852 15.4355L19.5391 15.0088L19.502 15.0732Z" fill="#001F3E"/>
<path d="M16 1.25C17.8929 1.25 19.3687 1.79428 20.3623 2.86426C21.3466 3.92424 21.75 5.38503 21.75 7V11.5C21.75 11.9142 21.4142 12.25 21 12.25C20.5858 12.25 20.25 11.9142 20.25 11.5V7C20.25 5.61505 19.9034 4.57576 19.2627 3.88574C18.6313 3.20579 17.607 2.75 16 2.75H8C6.39295 2.75 5.36869 3.20579 4.7373 3.88574C4.09664 4.57576 3.75 5.61505 3.75 7V17C3.75 18.385 4.09664 19.4242 4.7373 20.1143C5.36869 20.7942 6.39295 21.25 8 21.25H12C12.4142 21.25 12.75 21.5858 12.75 22C12.75 22.4142 12.4142 22.75 12 22.75H8C6.10712 22.75 4.63131 22.2057 3.6377 21.1357C2.65342 20.0758 2.25 18.615 2.25 17V7C2.25 5.38503 2.65342 3.92424 3.6377 2.86426C4.63131 1.79428 6.10712 1.25 8 1.25H16Z" fill="#001F3E"/>
<path d="M10.5 14.25C10.9142 14.25 11.25 14.5858 11.25 15C11.25 15.4142 10.9142 15.75 10.5 15.75H7.5C7.08579 15.75 6.75 15.4142 6.75 15C6.75 14.5858 7.08579 14.25 7.5 14.25H10.5Z" fill="#001F3E"/>
<path d="M16.5 10.25C16.9142 10.25 17.25 10.5858 17.25 11C17.25 11.4142 16.9142 11.75 16.5 11.75H7.5C7.08579 11.75 6.75 11.4142 6.75 11C6.75 10.5858 7.08579 10.25 7.5 10.25H16.5Z" fill="#001F3E"/>
<path d="M16.5 6.25C16.9142 6.25 17.25 6.58579 17.25 7C17.25 7.41421 16.9142 7.75 16.5 7.75H7.5C7.08579 7.75 6.75 7.41421 6.75 7C6.75 6.58579 7.08579 6.25 7.5 6.25H16.5Z" fill="#001F3E"/>
</svg>
