<svg width="24" height="24" viewBox="0 0 24 24" fill="none" xmlns="http://www.w3.org/2000/svg">
<path d="M9.75 7.99994C9.75 7.58573 10.0858 7.24994 10.5 7.24994H13.5C13.9142 7.24994 14.25 7.58573 14.25 7.99994C14.25 8.41415 13.9142 8.74994 13.5 8.74994H10.5C10.0858 8.74994 9.75 8.41415 9.75 7.99994Z" fill="#001F3E"/>
<path fill-rule="evenodd" clip-rule="evenodd" d="M12 10.7499C9.79579 10.7499 8 12.5457 8 14.7499C8 16.9542 9.79579 18.7499 12 18.7499C14.2042 18.7499 16 16.9542 16 14.7499C16 12.5457 14.2042 10.7499 12 10.7499ZM9.5 14.7499C9.5 13.3742 10.6242 12.2499 12 12.2499C13.3758 12.2499 14.5 13.3742 14.5 14.7499C14.5 16.1257 13.3758 17.2499 12 17.2499C10.6242 17.2499 9.5 16.1257 9.5 14.7499Z" fill="#001F3E"/>
<path fill-rule="evenodd" clip-rule="evenodd" d="M8.48779 1.97082C8.96279 1.76454 9.49706 1.75 10.0003 1.75H14.0003C14.4995 1.75 15.0326 1.76474 15.508 1.97038C16.0347 2.19819 16.3896 2.60773 16.6696 3.16165C16.6853 3.19265 16.6988 3.2247 16.71 3.25757C16.7717 3.4382 16.8245 3.60701 16.8742 3.76576C16.9949 4.15167 17.097 4.47815 17.2632 4.77059C17.3671 4.95317 17.4698 5.06672 17.5713 5.1357C17.6638 5.19852 17.7919 5.24994 18.0002 5.24994C20.593 5.24994 22.6534 7.42981 22.5002 10.0132V18.2499C22.5002 18.2657 22.4997 18.2815 22.4987 18.2972C22.4219 19.5141 21.9014 20.64 20.9793 21.4584C20.0566 22.2772 18.7764 22.7499 17.2402 22.7499H6.7602C5.22431 22.7499 3.9417 22.2773 3.01784 21.4588C2.09412 20.6404 1.57253 19.5133 1.50147 18.2936C1.50063 18.279 1.5002 18.2645 1.5002 18.2499V10.0131C1.34706 7.4298 3.40737 5.24994 6.00021 5.24994C6.20851 5.24994 6.33659 5.19852 6.42908 5.13569C6.53063 5.06671 6.63338 4.95314 6.73722 4.77054C6.90352 4.47811 7.00564 4.15165 7.12636 3.76577C7.17602 3.607 7.22884 3.43817 7.29057 3.25751C7.30179 3.22466 7.31528 3.19263 7.33094 3.16165C7.6095 2.61058 7.96098 2.19959 8.48779 1.97082ZM8.60265 4.07771C8.46943 4.50521 8.29455 5.06642 8.04112 5.51206C7.86372 5.82401 7.62041 6.13976 7.272 6.37645C6.91452 6.61931 6.48874 6.74994 6.00021 6.74994C4.2615 6.74994 2.88679 8.21582 2.99863 9.94143C2.99968 9.95758 3.0002 9.97376 3.0002 9.98994V18.227C3.05371 19.0589 3.40632 19.7989 4.01257 20.3361C4.62371 20.8775 5.5361 21.2499 6.7602 21.2499H17.2402C18.4641 21.2499 19.3738 20.8777 19.9836 20.3365C20.5885 19.7997 20.9422 19.0591 21.0002 18.2252V9.98994C21.0002 9.97376 21.0007 9.95758 21.0018 9.94143C21.1136 8.21582 19.7389 6.74994 18.0002 6.74994C17.5117 6.74994 17.0859 6.61931 16.7284 6.37646C16.38 6.13976 16.1367 5.824 15.9593 5.51204C15.7059 5.06636 15.5311 4.50523 15.3979 4.07771C15.3655 3.97376 15.3356 3.87771 15.3076 3.79314C15.1392 3.47445 15.0113 3.38985 14.9125 3.34712C14.758 3.28026 14.521 3.25 14.0003 3.25H10.0003C9.4735 3.25 9.23777 3.28046 9.08528 3.34668C8.98895 3.38851 8.86259 3.47178 8.69299 3.79311C8.665 3.87764 8.63503 3.97381 8.60265 4.07771Z" fill="#001F3E"/>
</svg>
