<svg width="24" height="24" viewBox="0 0 24 24" fill="none" xmlns="http://www.w3.org/2000/svg">
<path fill-rule="evenodd" clip-rule="evenodd" d="M16.25 12.25C17.6242 12.25 18.75 13.3758 18.75 14.75V17.25C18.75 18.6242 17.6242 19.75 16.25 19.75H7.75C6.37579 19.75 5.25 18.6242 5.25 17.25V14.75C5.25 13.3758 6.37579 12.25 7.75 12.25H16.25ZM7.75 13.75C7.20421 13.75 6.75 14.2042 6.75 14.75V17.25C6.75 17.7958 7.20421 18.25 7.75 18.25H16.25C16.7958 18.25 17.25 17.7958 17.25 17.25V14.75C17.25 14.2042 16.7958 13.75 16.25 13.75H7.75Z" fill="#001F3E"/>
<path d="M6.52051 6C7.07255 6.00026 7.52047 6.44791 7.52051 7C7.52051 7.55212 7.07257 7.99974 6.52051 8H6.5C5.94772 8 5.5 7.55229 5.5 7C5.50003 6.44774 5.94774 6 6.5 6H6.52051Z" fill="#001F3E"/>
<path d="M18 6.25C18.4142 6.25 18.75 6.58579 18.75 7C18.75 7.41421 18.4142 7.75 18 7.75H10C9.58579 7.75 9.25 7.41421 9.25 7C9.25 6.58579 9.58579 6.25 10 6.25H18Z" fill="#001F3E"/>
<path fill-rule="evenodd" clip-rule="evenodd" d="M16 1.25C17.8929 1.25 19.3687 1.79428 20.3623 2.86426C21.3466 3.92424 21.75 5.38503 21.75 7V17C21.75 18.615 21.3466 20.0758 20.3623 21.1357C19.3687 22.2057 17.8929 22.75 16 22.75H8C6.10712 22.75 4.63131 22.2057 3.6377 21.1357C2.65342 20.0758 2.25 18.615 2.25 17V7C2.25 5.38503 2.65342 3.92424 3.6377 2.86426C4.63131 1.79428 6.10712 1.25 8 1.25H16ZM8 2.75C6.39295 2.75 5.36869 3.20579 4.7373 3.88574C4.09664 4.57576 3.75 5.61505 3.75 7V17C3.75 18.385 4.09664 19.4242 4.7373 20.1143C5.36869 20.7942 6.39295 21.25 8 21.25H16C17.607 21.25 18.6313 20.7942 19.2627 20.1143C19.9034 19.4242 20.25 18.385 20.25 17V7C20.25 5.61505 19.9034 4.57576 19.2627 3.88574C18.6313 3.20579 17.607 2.75 16 2.75H8Z" fill="#001F3E"/>
</svg>
