<svg width="24" height="24" viewBox="0 0 24 24" fill="none" xmlns="http://www.w3.org/2000/svg">
<path d="M12 16.75C12.4142 16.75 12.75 16.4142 12.75 16V11C12.75 10.5858 12.4142 10.25 12 10.25C11.5858 10.25 11.25 10.5858 11.25 11V16C11.25 16.4142 11.5858 16.75 12 16.75Z" fill="#001F3E"/>
<path d="M11.9946 9C11.4423 9 10.9946 8.55228 10.9946 8C10.9946 7.44772 11.4423 7 11.9946 7H12.0036C12.5559 7 13.0036 7.44772 13.0036 8C13.0036 8.55228 12.5559 9 12.0036 9H11.9946Z" fill="#001F3E"/>
<path fill-rule="evenodd" clip-rule="evenodd" d="M1.25 12C1.25 6.08579 6.08579 1.25 12 1.25C17.9142 1.25 22.75 6.08579 22.75 12C22.75 17.9142 17.9142 22.75 12 22.75C6.08579 22.75 1.25 17.9142 1.25 12ZM12 2.75C6.91421 2.75 2.75 6.91421 2.75 12C2.75 17.0858 6.91421 21.25 12 21.25C17.0858 21.25 21.25 17.0858 21.25 12C21.25 6.91421 17.0858 2.75 12 2.75Z" fill="#001F3E"/>
</svg>
