<svg width="24" height="24" viewBox="0 0 24 24" fill="none" xmlns="http://www.w3.org/2000/svg">
<path fill-rule="evenodd" clip-rule="evenodd" d="M12.293 2.26509C13.4517 0.942429 15.6266 1.77155 15.6266 3.51991V9.96991H17.9666C19.61 9.96991 20.4874 11.8994 19.3997 13.1354L19.3996 13.1355L11.8311 21.7338C11.8309 21.734 11.8307 21.7342 11.8305 21.7345C10.6718 23.0575 8.49663 22.2284 8.49663 20.4799V14.0299H6.15664C4.51685 14.0299 3.65361 12.099 4.71988 10.8687L4.72365 10.8644L4.72367 10.8644L12.2922 2.26603C12.2925 2.26572 12.2927 2.2654 12.293 2.26509ZM14.1266 3.51991C14.1266 3.14868 13.6626 2.97779 13.4211 3.25379L13.4196 3.25546L5.85197 11.8528C5.62049 12.1225 5.81712 12.5299 6.15664 12.5299H9.24663C9.66085 12.5299 9.99663 12.8657 9.99663 13.2799V20.4799C9.99663 20.8512 10.4607 21.022 10.7022 20.746L10.7037 20.7444L18.2736 12.1444C18.2736 12.1444 18.2736 12.1444 18.2737 12.1444C18.5059 11.8804 18.3233 11.4699 17.9666 11.4699H14.8766C14.4624 11.4699 14.1266 11.1341 14.1266 10.7199V3.51991Z" fill="#001F3E"/>
</svg>
