<svg width="24" height="24" viewBox="0 0 24 24" fill="none" xmlns="http://www.w3.org/2000/svg">
<path fill-rule="evenodd" clip-rule="evenodd" d="M2.98957 2.39989C3.74151 1.66198 4.62057 1.25 5.58998 1.25C5.97317 1.25 6.3631 1.33138 6.7194 1.5014C7.08755 1.67229 7.42308 1.93394 7.68395 2.30923L10.0002 5.57395C10.2052 5.85901 10.3657 6.13792 10.4818 6.42031C10.5997 6.69707 10.68 7.00642 10.68 7.32C10.68 7.70686 10.5672 8.07662 10.367 8.40938C10.1968 8.70783 9.96426 8.99566 9.69562 9.26501L9.00687 9.98096C9.01383 9.99743 9.0232 10.0197 9.03332 10.0455C9.18298 10.3079 9.44799 10.6772 9.84985 11.1524C10.1425 11.4905 10.4469 11.8316 10.7661 12.1732L21.4697 1.46967C21.7625 1.17678 22.2374 1.17678 22.5303 1.46967C22.8232 1.76256 22.8232 2.23744 22.5303 2.53033L2.53031 22.5303C2.23742 22.8232 1.76255 22.8232 1.46965 22.5303C1.17676 22.2374 1.17676 21.7626 1.46965 21.4697L6.43771 16.5016C5.5783 15.5922 4.79014 14.6455 4.07366 13.6614L4.07113 13.6579C3.22474 12.4813 2.53509 11.293 2.02968 10.1032L2.02876 10.101C1.51718 8.88604 1.24998 7.69701 1.24998 6.54C1.24998 5.77184 1.38559 5.02732 1.66284 4.33342C1.94485 3.61753 2.38781 2.96904 2.98957 2.39989ZM7.49882 15.4405L9.7049 13.2344C9.35657 12.8628 9.02692 12.4937 8.71286 12.1308L8.71003 12.1275L8.70744 12.1245C8.25418 11.5888 7.907 11.1141 7.69156 10.7191C7.67029 10.6801 7.65252 10.6393 7.63847 10.5972L7.63857 10.5975C7.63856 10.5975 7.636 10.5904 7.62301 10.5597L7.61948 10.5514C7.60701 10.522 7.58734 10.4756 7.56774 10.4233C7.55775 10.3967 7.54928 10.3695 7.54238 10.3419C7.51007 10.2127 7.48998 10.081 7.48998 9.93C7.48998 9.59077 7.60558 9.26699 7.86358 9.00578L8.61949 8.22003C8.62285 8.21654 8.62623 8.21309 8.62965 8.20967C8.83567 8.00365 8.97895 7.81685 9.06706 7.66096C9.07104 7.65392 9.07513 7.64694 9.07934 7.64004C9.15513 7.51553 9.17998 7.40903 9.17998 7.32C9.17998 7.25575 9.16139 7.14722 9.10063 7.00544C9.09973 7.00336 9.09885 7.00127 9.09798 6.99918L9.09582 6.99397C9.03244 6.83904 8.93416 6.66049 8.78133 6.44823L8.7783 6.44398L6.4583 3.17398C6.45663 3.17163 6.45498 3.16927 6.45334 3.16691C6.3558 3.02601 6.23427 2.92955 6.08569 2.86097C6.08226 2.85939 6.07884 2.85778 6.07544 2.85614C5.93312 2.78783 5.76496 2.75 5.58998 2.75C5.08186 2.75 4.56292 2.95593 4.03612 3.47449C4.03234 3.47822 4.02851 3.4819 4.02465 3.48555C3.56989 3.91456 3.25504 4.38355 3.05791 4.88459L3.05634 4.88854C2.85413 5.39408 2.74998 5.94888 2.74998 6.54C2.74998 7.46266 2.96264 8.45325 3.41073 9.51782C3.86505 10.5871 4.49482 11.6779 5.28756 12.7803C5.95685 13.6994 6.69379 14.5861 7.49882 15.4405Z" fill="#001F3E"/>
<path d="M15.561 13.5966C15.888 13.4019 16.2445 13.29 16.6398 13.29C16.9397 13.29 17.236 13.3541 17.5338 13.4759C17.8167 13.5916 18.0937 13.7509 18.3715 13.9398C18.3743 13.9417 18.377 13.9436 18.3798 13.9455L18.384 13.9485L21.6906 16.2961C22.0452 16.5425 22.3231 16.8545 22.4963 17.248C22.4997 17.2558 22.503 17.2636 22.5061 17.2715C22.6335 17.59 22.7198 17.9351 22.7198 18.33C22.7198 18.8025 22.6145 19.2817 22.398 19.7403C22.1982 20.1633 21.9379 20.5659 21.5955 20.9437L21.5952 20.944C21.0397 21.5562 20.4105 22.0159 19.6864 22.3131C18.9921 22.6021 18.2443 22.75 17.4498 22.75C16.3112 22.75 15.1211 22.4821 13.8958 21.96C12.6883 21.4455 11.4892 20.7561 10.3083 19.8964L10.3063 19.8948C10.2781 19.8742 10.2492 19.8531 10.2198 19.8317L10.2189 19.831L10.2186 19.8308C10.1024 19.746 9.97818 19.6554 9.85642 19.5598C9.53072 19.3039 9.47414 18.8324 9.73005 18.5067C9.98596 18.181 10.4574 18.1244 10.7832 18.3803C10.8818 18.4578 10.9782 18.5282 11.0912 18.6106C11.1234 18.6341 11.157 18.6586 11.1923 18.6845C12.291 19.4843 13.3916 20.1147 14.4838 20.5801C15.5585 21.038 16.5484 21.25 17.4498 21.25C18.0546 21.25 18.6062 21.1382 19.1113 20.9277L19.1154 20.9261C19.6102 20.7233 20.0602 20.4034 20.484 19.9364C20.7217 19.6742 20.9014 19.3968 21.0416 19.0998C21.1651 18.8383 21.2198 18.5775 21.2198 18.33C21.2198 18.169 21.1877 18.0176 21.1187 17.8418C21.0717 17.74 20.9911 17.6362 20.8329 17.5267L20.828 17.5233L20.8256 17.5216L17.522 15.1761C17.3026 15.0273 17.1214 14.9278 16.9658 14.8642C16.8236 14.806 16.7199 14.79 16.6398 14.79C16.5436 14.79 16.4469 14.8133 16.3197 14.8907C16.3057 14.8992 16.2913 14.9073 16.2767 14.915C16.1387 14.987 15.9598 15.1207 15.7401 15.3404L15.7366 15.3439L14.9781 16.0924C14.7354 16.3341 14.4183 16.48 14.0398 16.48C13.8917 16.48 13.716 16.4634 13.5264 16.3923C13.5156 16.3882 13.5049 16.3839 13.4943 16.3794C13.4531 16.3617 13.4147 16.3441 13.3876 16.3317L13.3798 16.3281C13.3474 16.3132 13.3364 16.3084 13.3312 16.3064C13.3071 16.2967 13.2835 16.2858 13.2605 16.2737C13.0286 16.1517 12.7749 15.9889 12.5098 15.79C12.1784 15.5415 12.1113 15.0714 12.3598 14.74C12.6083 14.4087 13.0784 14.3415 13.4098 14.59C13.6117 14.7415 13.7885 14.8541 13.932 14.9319C13.9542 14.9415 13.9749 14.9508 13.9916 14.9585L14.6813 14.2779C14.9547 14.0047 15.248 13.7639 15.561 13.5966Z" fill="#001F3E"/>
</svg>
