<svg width="24" height="24" viewBox="0 0 24 24" fill="none" xmlns="http://www.w3.org/2000/svg">
<path fill-rule="evenodd" clip-rule="evenodd" d="M3.93862 9.28947C4.21747 7.8956 4.74883 6.56724 5.59239 5.48295C6.83155 3.89018 8.79957 2.75012 11.8595 2.75012C14.914 2.75012 16.8803 3.88611 18.1197 5.47407C18.9673 6.56002 19.5008 7.8919 19.7804 9.28977C19.0849 8.89708 18.3674 8.74999 17.819 8.74999C16.4984 8.74999 15.6032 9.32595 15.0644 10.0856C14.5531 10.8064 14.3904 11.6478 14.3904 12.2187V15.8437C14.3904 17.171 14.9514 18.0755 15.7023 18.6243C16.4157 19.1456 17.2502 19.3125 17.819 19.3125C18.4593 19.3125 19.3303 19.1119 20.1276 18.554C19.962 19.2235 19.6814 19.8394 19.241 20.2095C18.981 20.4279 18.5786 20.6222 18.0652 20.7808C17.561 20.9366 17.0004 21.0428 16.4665 21.1139C15.9349 21.1848 15.445 21.219 15.0873 21.2354C14.909 21.2435 14.7648 21.2472 14.6663 21.2488C14.6171 21.2497 14.5794 21.25 14.5546 21.2501C14.5422 21.2501 14.5331 21.2501 14.5273 21.2501L14.5213 21.2501L14.5206 21.2501H14.5204C14.1063 21.2475 13.7684 21.581 13.7656 21.9951C13.7629 22.4093 14.0964 22.7473 14.5106 22.7501L14.5156 22.0001C14.5106 22.7501 14.5109 22.7501 14.5109 22.7501L14.5123 22.7501L14.5153 22.7501L14.5254 22.7501C14.5309 22.7501 14.5378 22.7501 14.5461 22.7501C14.5507 22.7501 14.5557 22.7501 14.5612 22.7501C14.5917 22.7499 14.6356 22.7496 14.6913 22.7486C14.8026 22.7468 14.9614 22.7427 15.1559 22.7338C15.5439 22.716 16.0789 22.6789 16.6647 22.6008C17.2481 22.523 17.8971 22.4027 18.5079 22.214C19.1094 22.0282 19.7273 21.7601 20.2059 21.3579C21.1531 20.5621 21.5305 19.3156 21.692 18.4006C21.776 17.9246 21.8091 17.494 21.8214 17.1827C21.8276 17.0264 21.8286 16.8984 21.828 16.8077C21.8277 16.7623 21.827 16.7262 21.8263 16.7003C21.8259 16.6874 21.8256 16.6771 21.8253 16.6694L21.825 16.66L21.8248 16.6552C21.8248 16.655 21.8733 16.4691 21.991 15.5674C22.0876 15.1047 22.1404 14.5937 22.1404 14.0312C22.1404 12.8303 21.8997 11.864 21.5062 11.1013C21.4007 8.84684 20.7732 6.43589 19.3021 4.55114C17.7577 2.57234 15.3411 1.25012 11.8595 1.25012C8.37144 1.25012 5.95248 2.57729 4.40849 4.56188C2.9437 6.44466 2.31828 8.85015 2.21289 11.1003C1.81904 11.8632 1.57812 12.8298 1.57812 14.0312C1.57812 16.0216 2.23927 17.3675 3.16157 18.21C4.06102 19.0316 5.14177 19.3125 5.89955 19.3125C6.46828 19.3125 7.30287 19.1456 8.01619 18.6243C8.76712 18.0755 9.32813 17.171 9.32813 15.8437V12.2187C9.32813 11.6478 9.16547 10.8064 8.65413 10.0856C8.11528 9.32595 7.22016 8.74999 5.89955 8.74999C5.35131 8.74999 4.634 8.89701 3.93862 9.28947ZM19.5453 10.96C19.721 11.1205 19.8933 11.32 20.0472 11.5676C20.0785 11.6714 20.1316 11.7655 20.2009 11.8447C20.4617 12.373 20.6404 13.0814 20.6404 14.0312C20.6404 15.6659 20.1111 16.5856 19.5453 17.1025C18.9566 17.6402 18.2517 17.8125 17.819 17.8125C17.4948 17.8125 16.9901 17.7075 16.5874 17.4132C16.2223 17.1464 15.8904 16.6915 15.8904 15.8437V12.2187C15.8904 11.8834 15.9956 11.3654 16.2878 10.9535C16.5526 10.5803 16.9967 10.25 17.819 10.25C18.2517 10.25 18.9566 10.4222 19.5453 10.96ZM3.49304 11.8954C3.58411 11.801 3.65075 11.6825 3.68236 11.55C3.83348 11.3105 4.00169 11.1167 4.17325 10.96C4.7619 10.4222 5.46686 10.25 5.89955 10.25C6.7218 10.25 7.16597 10.5803 7.43069 10.9535C7.72292 11.3654 7.82813 11.8834 7.82813 12.2187V15.8437C7.82813 16.6915 7.49627 17.1464 7.13114 17.4132C6.72838 17.7075 6.22369 17.8125 5.89955 17.8125C5.46686 17.8125 4.7619 17.6402 4.17325 17.1025C3.60746 16.5856 3.07813 15.6659 3.07813 14.0312C3.07813 13.1115 3.24569 12.4181 3.49304 11.8954Z" fill="#001F3E"/>
</svg>
