<svg width="24" height="24" viewBox="0 0 24 24" fill="none" xmlns="http://www.w3.org/2000/svg">
<path d="M11.9697 8.46973C12.2597 8.18007 12.7394 8.18003 13.0293 8.46973L16.0293 11.4697C16.3193 11.7597 16.3193 12.2403 16.0293 12.5303L13.0293 15.5303C12.8793 15.6801 12.6889 15.75 12.499 15.75C12.3093 15.7499 12.1196 15.68 11.9697 15.5303C11.6797 15.2403 11.6797 14.7597 11.9697 14.4697L13.6895 12.75H8.5C8.09 12.75 7.75 12.41 7.75 12C7.75 11.59 8.09 11.25 8.5 11.25H13.6895L11.9697 9.53027C11.6797 9.24027 11.6797 8.75973 11.9697 8.46973Z" fill="#292D32"/>
<path fill-rule="evenodd" clip-rule="evenodd" d="M12 1.25C17.93 1.25 22.75 6.07 22.75 12C22.75 17.93 17.93 22.75 12 22.75C6.07 22.75 1.25 17.93 1.25 12C1.25 6.07 6.07 1.25 12 1.25ZM12 2.75C6.9 2.75 2.75 6.9 2.75 12C2.75 17.1 6.9 21.25 12 21.25C17.1 21.25 21.25 17.1 21.25 12C21.25 6.9 17.1 2.75 12 2.75Z" fill="#292D32"/>
</svg>
