<svg width="24" height="24" viewBox="0 0 24 24" fill="none" xmlns="http://www.w3.org/2000/svg">
<path fill-rule="evenodd" clip-rule="evenodd" d="M8.75 13.5C8.75 11.7051 10.2051 10.25 12 10.25C13.7949 10.25 15.25 11.7051 15.25 13.5C15.25 14.6515 14.6512 15.6619 13.75 16.2389V17.5C13.75 18.4665 12.9665 19.25 12 19.25C11.0335 19.25 10.25 18.4665 10.25 17.5V16.2389C9.34879 15.6619 8.75 14.6515 8.75 13.5ZM12 11.75C11.0335 11.75 10.25 12.5335 10.25 13.5C10.25 14.2164 10.6806 14.834 11.3003 15.1047C11.5734 15.2241 11.75 15.4939 11.75 15.792V17.5C11.75 17.6381 11.8619 17.75 12 17.75C12.1381 17.75 12.25 17.6381 12.25 17.5V15.792C12.25 15.4939 12.4265 15.2241 12.6997 15.1047C13.3194 14.834 13.75 14.2164 13.75 13.5C13.75 12.5335 12.9665 11.75 12 11.75Z" fill="#001F3E"/>
<path fill-rule="evenodd" clip-rule="evenodd" d="M5.26399 7.33384C4.09265 7.46853 3.14917 7.79017 2.46967 8.46967C1.48116 9.45818 1.25 11.0054 1.25 13V17C1.25 18.9946 1.48116 20.5418 2.46967 21.5303C3.45818 22.5188 5.00536 22.75 7 22.75H17C18.9946 22.75 20.5418 22.5188 21.5303 21.5303C22.5188 20.5418 22.75 18.9946 22.75 17V13C22.75 11.0054 22.5188 9.45818 21.5303 8.46967C20.8508 7.79017 19.9074 7.46853 18.736 7.33384C18.6713 5.85824 18.3643 4.41202 17.4591 3.28826C16.3896 1.96061 14.6284 1.25 12 1.25C9.37164 1.25 7.61038 1.96061 6.54093 3.28826C5.63571 4.41202 5.32874 5.85824 5.26399 7.33384ZM6.77017 7.25107C6.8461 7.25035 6.92272 7.25 7 7.25H17C17.0773 7.25 17.1539 7.25035 17.2298 7.25107C17.1579 5.9894 16.886 4.96802 16.2909 4.22924C15.6104 3.38439 14.3716 2.75 12 2.75C9.62836 2.75 8.38962 3.38439 7.70907 4.22924C7.11397 4.96802 6.84207 5.9894 6.77017 7.25107ZM2.75 13C2.75 10.9946 3.01884 10.0418 3.53033 9.53033C4.04182 9.01884 4.99464 8.75 7 8.75H17C19.0054 8.75 19.9582 9.01884 20.4697 9.53033C20.9812 10.0418 21.25 10.9946 21.25 13V17C21.25 19.0054 20.9812 19.9582 20.4697 20.4697C19.9582 20.9812 19.0054 21.25 17 21.25H7C4.99464 21.25 4.04182 20.9812 3.53033 20.4697C3.01884 19.9582 2.75 19.0054 2.75 17V13Z" fill="#001F3E"/>
</svg>
