<svg width="24" height="24" viewBox="0 0 24 24" fill="none" xmlns="http://www.w3.org/2000/svg">
<path fill-rule="evenodd" clip-rule="evenodd" d="M6.24997 7C6.24997 3.82436 8.82433 1.25 12 1.25C15.1756 1.25 17.75 3.82436 17.75 7C17.75 10.1756 15.1756 12.75 12 12.75C8.82433 12.75 6.24997 10.1756 6.24997 7ZM12 2.75C9.65276 2.75 7.74997 4.65279 7.74997 7C7.74997 9.34721 9.65276 11.25 12 11.25C14.3472 11.25 16.25 9.34721 16.25 7C16.25 4.65279 14.3472 2.75 12 2.75Z" fill="#001F3E"/>
<path d="M15.7597 17.98C15.7597 17.5658 16.0955 17.23 16.5097 17.23H17.25V16.52C17.25 16.1058 17.5858 15.77 18 15.77C18.4142 15.77 18.75 16.1058 18.75 16.52V17.23H19.4897C19.9039 17.23 20.2397 17.5658 20.2397 17.98C20.2397 18.3942 19.9039 18.73 19.4897 18.73H18.75V19.51C18.75 19.9242 18.4142 20.26 18 20.26C17.5858 20.26 17.25 19.9242 17.25 19.51V18.73H16.5097C16.0955 18.73 15.7597 18.3942 15.7597 17.98Z" fill="#001F3E"/>
<path fill-rule="evenodd" clip-rule="evenodd" d="M12.0002 15.75C7.52303 15.75 4.16016 18.6808 4.16016 22C4.16016 22.4142 3.82437 22.75 3.41016 22.75C2.99594 22.75 2.66016 22.4142 2.66016 22C2.66016 17.5791 6.99728 14.25 12.0002 14.25C12.9335 14.25 13.8417 14.3648 14.701 14.5791C15.5588 13.7527 16.7256 13.25 18 13.25C19.3966 13.25 20.6697 13.8534 21.5304 14.8315C22.2869 15.6725 22.75 16.7878 22.75 18C22.75 18.3782 22.7033 18.7485 22.6085 19.109C22.5001 19.583 22.311 20.0434 22.0614 20.4488C21.2405 21.8247 19.7319 22.75 18 22.75C16.7796 22.75 15.6736 22.288 14.8413 21.5302C14.4866 21.2214 14.1777 20.8535 13.9376 20.447C13.498 19.7315 13.25 18.8879 13.25 18C13.25 17.2513 13.4243 16.5387 13.7351 15.9049C13.1754 15.8036 12.5943 15.75 12.0002 15.75ZM15.6678 15.7328C16.2612 15.1233 17.0892 14.75 18 14.75C18.9617 14.75 19.8272 15.1652 20.4065 15.8249L20.4091 15.8279L20.4106 15.8296L20.413 15.8322C20.9345 16.4108 21.25 17.1739 21.25 18C21.25 18.2568 21.218 18.5017 21.1554 18.7367C21.1536 18.7433 21.1519 18.7499 21.1504 18.7566C21.1497 18.7595 21.149 18.7624 21.1483 18.7654C21.0766 19.0842 20.9482 19.3967 20.7819 19.6659C20.7798 19.6694 20.7776 19.673 20.7755 19.6766C20.2157 20.6177 19.1859 21.25 18 21.25C17.1641 21.25 16.4129 20.9347 15.8461 20.4164C15.8443 20.4148 15.8425 20.4131 15.8406 20.4115C15.8375 20.4087 15.8344 20.4059 15.8312 20.4032C15.5911 20.1951 15.3841 19.9477 15.2265 19.6797C15.2238 19.6752 15.2211 19.6708 15.2184 19.6663C14.9205 19.1833 14.75 18.6094 14.75 18C14.75 17.1216 15.0994 16.3176 15.6675 15.7331L15.6678 15.7328Z" fill="#001F3E"/>
</svg>
