<svg width="24" height="24" viewBox="0 0 24 24" fill="none" xmlns="http://www.w3.org/2000/svg">
<path fill-rule="evenodd" clip-rule="evenodd" d="M12 2.25C13.0323 2.25 14.0473 2.30868 15.0391 2.39453C16.0158 2.47909 16.9834 2.5915 17.9209 2.7002C18.2529 2.73868 18.5816 2.77624 18.9053 2.8125C20.1165 2.94834 21.0789 3.909 21.2119 5.12305C21.2428 5.4052 21.2743 5.69078 21.3066 5.97852C21.5215 7.89045 21.75 9.92045 21.75 12C21.75 14.0796 21.5215 16.1096 21.3066 18.0215C21.2743 18.3092 21.2428 18.5948 21.2119 18.877C21.0788 20.091 20.1165 21.0517 18.9053 21.1875C18.5809 21.2238 18.252 21.2613 17.9199 21.2998C16.0399 21.518 14.0427 21.75 12 21.75C9.95733 21.75 7.96016 21.518 6.08008 21.2998C5.74801 21.2613 5.41912 21.2238 5.09473 21.1875C3.8835 21.0517 2.92115 20.091 2.78809 18.877C2.75718 18.5948 2.72569 18.3092 2.69336 18.0215C2.47855 16.1096 2.25 14.0796 2.25 12C2.25 9.92045 2.47855 7.89045 2.69336 5.97852C2.72569 5.69079 2.75718 5.40519 2.78809 5.12305C2.92115 3.909 3.88346 2.94833 5.09473 2.8125C5.41858 2.77623 5.74787 2.73871 6.08008 2.7002C6.96075 2.59809 7.86735 2.49248 8.78223 2.41016C9.83062 2.31583 10.9059 2.25 12 2.25ZM15.7246 7.82617C15.7245 9.0224 14.8723 10.1338 13.5957 10.2686C12.1993 10.416 11.0008 10.364 10.1367 10.2715C8.89015 10.138 8.09954 9.05784 8.09961 7.91309V3.98633C7.48541 4.04979 6.87699 4.11718 6.27051 4.1875C5.93412 4.2265 5.5979 4.26606 5.26172 4.30371C4.7457 4.36169 4.33577 4.77241 4.2793 5.28613C4.2477 5.57461 4.21509 5.86392 4.18262 6.15332C3.96748 8.07092 3.75 10.0109 3.75 12C3.75 13.9891 3.96748 15.9291 4.18262 17.8467C4.21509 18.1361 4.2477 18.4254 4.2793 18.7139C4.33577 19.2276 4.7457 19.6383 5.26172 19.6963C5.59708 19.7339 5.93325 19.7726 6.26953 19.8115C8.15181 20.0296 10.0516 20.25 12 20.25C13.9484 20.25 15.8482 20.0296 17.7305 19.8115C18.0667 19.7726 18.4029 19.7339 18.7383 19.6963C19.2543 19.6383 19.6642 19.2276 19.7207 18.7139C19.7523 18.4254 19.7849 18.1361 19.8174 17.8467C20.0325 15.9291 20.25 13.9891 20.25 12C20.25 10.0109 20.0325 8.07092 19.8174 6.15332C19.7849 5.86392 19.7523 5.57461 19.7207 5.28613C19.6642 4.77242 19.2543 4.3617 18.7383 4.30371C18.4022 4.26606 18.0659 4.2265 17.7295 4.1875C17.065 4.11046 16.3982 4.03374 15.7246 3.96582V7.82617ZM12 3.75C11.1954 3.75 10.3955 3.78866 9.59961 3.84863V7.91406C9.59976 8.40321 9.91774 8.73963 10.2959 8.78027C11.0752 8.86371 12.1661 8.91167 13.4385 8.77734C13.8665 8.73215 14.2246 8.34399 14.2246 7.82617V3.83496C13.4867 3.7825 12.7453 3.75 12 3.75Z" fill="#001F3E"/>
</svg>
