<svg width="24" height="24" viewBox="0 0 24 24" fill="none" xmlns="http://www.w3.org/2000/svg">
<path d="M9.31 2.87012C7.40397 2.87012 5.87 4.41772 5.87 6.31012V6.69012C5.87 7.10433 6.20578 7.44012 6.62 7.44012C7.03421 7.44012 7.37 7.10433 7.37 6.69012V6.31012C7.37 5.24252 8.23602 4.37012 9.31 4.37012C10.3776 4.37012 11.25 5.23615 11.25 6.31012C11.25 7.37772 10.384 8.25012 9.31 8.25012H2C1.58579 8.25012 1.25 8.5859 1.25 9.00012C1.25 9.41433 1.58579 9.75012 2 9.75012H9.31C11.216 9.75012 12.75 8.20252 12.75 6.31012C12.75 4.40409 11.2024 2.87012 9.31 2.87012Z" fill="#001F3E"/>
<path d="M14.25 8.50012C14.25 6.15452 16.1672 4.25012 18.5 4.25012C20.8342 4.25012 22.75 6.16591 22.75 8.50012C22.75 10.8457 20.8328 12.7501 18.5 12.7501H2C1.58579 12.7501 1.25 12.4143 1.25 12.0001C1.25 11.5859 1.58579 11.2501 2 11.2501H18.5C20.0072 11.2501 21.25 10.0145 21.25 8.50012C21.25 6.99434 20.0058 5.75012 18.5 5.75012C16.9928 5.75012 15.75 6.98573 15.75 8.50012V9.00012C15.75 9.41434 15.4142 9.75012 15 9.75012C14.5858 9.75012 14.25 9.41434 14.25 9.00012V8.50012Z" fill="#001F3E"/>
<path d="M1.25 15.0001C1.25 14.5859 1.58579 14.2501 2 14.2501H18.5C20.8442 14.2501 22.75 16.1559 22.75 18.5001C22.75 20.8443 20.8442 22.7501 18.5 22.7501C16.1558 22.7501 14.25 20.8443 14.25 18.5001V18.0001C14.25 17.5859 14.5858 17.2501 15 17.2501C15.4142 17.2501 15.75 17.5859 15.75 18.0001V18.5001C15.75 20.0159 16.9842 21.2501 18.5 21.2501C20.0158 21.2501 21.25 20.0159 21.25 18.5001C21.25 16.9843 20.0158 15.7501 18.5 15.7501H2C1.58579 15.7501 1.25 15.4143 1.25 15.0001Z" fill="#001F3E"/>
</svg>
