<svg width="24" height="24" viewBox="0 0 24 24" fill="none" xmlns="http://www.w3.org/2000/svg">
<path d="M12.5586 1.25037C12.1444 1.25037 11.8086 1.58615 11.8086 2.00037C11.8086 2.41458 12.1444 2.75037 12.5586 2.75037H13.5568V7.24494C13.5568 7.65915 13.8926 7.99494 14.3068 7.99494C14.721 7.99494 15.0568 7.65915 15.0568 7.24494V2.75037H16.055C16.4692 2.75037 16.805 2.41458 16.805 2.00037C16.805 1.58615 16.4692 1.25037 16.055 1.25037H12.5586Z" fill="#001F3E"/>
<path d="M3.96992 2.59639C4.25947 2.89258 4.25409 3.36742 3.95789 3.65698C3.427 4.17597 3.06611 4.92152 2.99944 5.76159C2.66685 9.95225 2.66685 14.0476 2.99944 18.2384C3.12432 19.8118 4.25481 21.001 5.5959 21.1039C8.1252 21.2981 10.4897 21.2981 13.019 21.104C14.3601 21.001 15.4906 19.8118 15.6154 18.2384C15.8352 15.4687 15.9097 12.7412 15.8391 10.0008C15.8284 9.58669 16.1554 9.24237 16.5695 9.23171C16.9836 9.22104 17.3279 9.54807 17.3386 9.96215C17.4105 12.756 17.3346 15.536 17.1107 18.3571C16.9373 20.5426 15.3288 22.4311 13.1338 22.5996C10.528 22.7996 8.08683 22.7996 5.48112 22.5996C3.28605 22.4311 1.67761 20.5426 1.50414 18.3571C1.16529 14.0873 1.16529 9.91257 1.50414 5.64292C1.59875 4.45094 2.11227 3.36354 2.90933 2.58436C3.20553 2.2948 3.68037 2.30019 3.96992 2.59639Z" fill="#001F3E"/>
<path d="M7.0293 18.3289C7.0293 17.9147 7.36508 17.5789 7.7793 17.5789H10.6505C11.0647 17.5789 11.4005 17.9147 11.4005 18.3289C11.4005 18.7431 11.0647 19.0789 10.6505 19.0789H7.7793C7.36508 19.0789 7.0293 18.7431 7.0293 18.3289Z" fill="#001F3E"/>
<path fill-rule="evenodd" clip-rule="evenodd" d="M5.86523 3.44262C5.86523 2.23188 6.84673 1.25037 8.05749 1.25037H8.66936C9.8801 1.25037 10.8616 2.23187 10.8616 3.44262V5.80268C10.8616 7.01344 9.8801 7.99494 8.66936 7.99494H8.05749C6.84674 7.99494 5.86523 7.01343 5.86523 5.80268V3.44262ZM8.05749 2.75037C7.67517 2.75037 7.36523 3.0603 7.36523 3.44262V5.80268C7.36523 6.18501 7.67516 6.49494 8.05749 6.49494H8.66936C9.05168 6.49494 9.36162 6.185 9.36162 5.80268V3.44262C9.36162 3.0603 9.05168 2.75037 8.66936 2.75037H8.05749Z" fill="#001F3E"/>
<path fill-rule="evenodd" clip-rule="evenodd" d="M18.5039 1.25037C18.0897 1.25037 17.7539 1.58615 17.7539 2.00037V7.24494C17.7539 7.65915 18.0897 7.99494 18.5039 7.99494C18.9181 7.99494 19.2539 7.65915 19.2539 7.24494V5.80971H20.558C21.7688 5.80971 22.7502 4.82817 22.7502 3.61745V3.44262C22.7502 2.23189 21.7688 1.25037 20.558 1.25037H18.5039ZM20.558 4.30971H19.2539V2.75037H20.558C20.9403 2.75037 21.2502 3.06028 21.2502 3.44262V3.61745C21.2502 3.99978 20.9403 4.30971 20.558 4.30971Z" fill="#001F3E"/>
</svg>
