<svg width="24" height="24" viewBox="0 0 24 24" fill="none" xmlns="http://www.w3.org/2000/svg">
<path fill-rule="evenodd" clip-rule="evenodd" d="M3.93217 3.93217C5.15414 2.7102 6.97603 2.25 9.3 2.25H14.7C17.024 2.25 18.8459 2.7102 20.0678 3.93217C21.2898 5.15414 21.75 6.97603 21.75 9.3V14.7C21.75 17.024 21.2898 18.8459 20.0678 20.0678C18.8459 21.2898 17.024 21.75 14.7 21.75H9.3C6.97603 21.75 5.15414 21.2898 3.93217 20.0678C2.7102 18.8459 2.25 17.024 2.25 14.7V9.3C2.25 6.97603 2.7102 5.15414 3.93217 3.93217ZM4.99283 4.99283C4.1898 5.79586 3.75 7.12397 3.75 9.3V14.7C3.75 16.876 4.1898 18.2041 4.99283 19.0072C5.79586 19.8102 7.12397 20.25 9.3 20.25H14.7C16.876 20.25 18.2041 19.8102 19.0072 19.0072C19.8102 18.2041 20.25 16.876 20.25 14.7V9.3C20.25 7.12397 19.8102 5.79586 19.0072 4.99283C18.2041 4.1898 16.876 3.75 14.7 3.75H9.3C7.12397 3.75 5.79586 4.1898 4.99283 4.99283Z" fill="#001F3E"/>
</svg>
