<svg width="24" height="24" viewBox="0 0 24 24" fill="none" xmlns="http://www.w3.org/2000/svg">
<path fill-rule="evenodd" clip-rule="evenodd" d="M3.53131 2.96967C3.23841 2.67678 2.76354 2.67678 2.47065 2.96967C2.17775 3.26256 2.17775 3.73744 2.47065 4.03033L5.18273 6.74242C4.37763 8.17773 4.10677 9.96504 4.62678 11.9844C-0.0945637 13.1198 0.195933 20.4443 5.49826 20.8181C5.51582 20.8194 5.53342 20.82 5.55102 20.82H16.6384C17.4043 20.8253 18.1564 20.6866 18.8581 20.4178L20.4706 22.0303C20.7635 22.3232 21.2384 22.3232 21.5313 22.0303C21.8242 21.7374 21.8242 21.2626 21.5313 20.9697L3.53131 2.96967ZM17.6559 19.2156L6.29855 7.85824C5.81423 8.93551 5.6806 10.2878 6.15691 11.8901C6.66281 11.9575 7.15503 12.1092 7.61146 12.3417C7.98054 12.5297 8.12732 12.9814 7.9393 13.3504C7.75127 13.7195 7.29965 13.8663 6.93057 13.6783C6.51532 13.4667 6.05162 13.3541 5.57716 13.3501C1.86183 13.6377 1.8623 19.0337 5.57859 19.32H16.6466C16.9888 19.3225 17.3271 19.287 17.6559 19.2156Z" fill="#001F3E"/>
<path d="M18.1189 8.83065C17.5638 6.32836 16.1571 4.68033 14.3906 3.84543C12.5306 2.96635 10.3523 3.02672 8.51578 3.81043C8.13481 3.973 7.95776 4.41364 8.12033 4.79461C8.28291 5.17559 8.72354 5.35264 9.10452 5.19007C10.5923 4.55519 12.32 4.52592 13.7496 5.2016C14.9996 5.79239 16.0862 6.95231 16.5857 8.86934C16.2162 8.95135 15.8569 9.07866 15.5158 9.24919C15.1453 9.43443 14.9952 9.88494 15.1804 10.2554C15.3657 10.6259 15.8162 10.7761 16.1866 10.5908C16.6067 10.3808 17.0666 10.268 17.5342 10.2599C17.5555 10.2595 17.5766 10.2583 17.5975 10.2562C20.4913 10.7715 22.0083 14.1435 20.8483 16.6893C20.6765 17.0662 20.8429 17.511 21.2198 17.6827C21.5967 17.8545 22.0415 17.6882 22.2133 17.3112C23.6959 14.0574 21.9109 9.67569 18.1189 8.83065Z" fill="#001F3E"/>
</svg>
