<svg width="24" height="24" viewBox="0 0 24 24" fill="none" xmlns="http://www.w3.org/2000/svg">
<path fill-rule="evenodd" clip-rule="evenodd" d="M9.95687 4.6414C10.6257 4.25933 11.3765 4.47829 11.9576 4.86547L13.7008 5.89875C13.7138 5.90646 13.7265 5.91455 13.7391 5.92303C14.3749 6.35386 14.7859 6.99348 14.7859 7.72311C14.7859 8.45274 14.3749 9.09236 13.7391 9.52319C13.7266 9.53164 13.7139 9.53972 13.7009 9.5474L11.9577 10.5811C11.3765 10.9684 10.6255 11.1872 9.95673 10.805C9.29496 10.4267 9.06836 9.65745 9.06836 8.90229V6.54395C9.06836 5.78881 9.29496 5.01953 9.95687 4.6414ZM10.5684 6.54395C10.5684 6.10681 10.6755 5.97252 10.7 5.94657C10.7341 5.94094 10.8657 5.93741 11.1363 6.12077C11.1488 6.12924 11.1616 6.13734 11.1746 6.14504L12.9145 7.17642C13.2209 7.38989 13.2859 7.59992 13.2859 7.72311C13.2859 7.84631 13.2209 8.05636 12.9145 8.26983L11.1745 9.30163C11.1615 9.30932 11.1488 9.31739 11.1363 9.32585C10.8657 9.50918 10.7342 9.50559 10.7002 9.49995C10.6757 9.47406 10.5684 9.33976 10.5684 8.90229V6.54395Z" fill="#001F3E"/>
<path fill-rule="evenodd" clip-rule="evenodd" d="M7.36836 1.2998C5.66939 1.2998 4.285 1.63501 3.34428 2.57572C2.40356 3.51644 2.06836 4.90083 2.06836 6.5998V9C2.06836 10.699 2.40356 12.0834 3.34428 13.0241C4.285 13.9648 5.66939 14.3 7.36836 14.3H16.2684C17.9673 14.3 19.3517 13.9648 20.2924 13.0241C21.2332 12.0834 21.5684 10.699 21.5684 9V6.5998C21.5684 4.90083 21.2332 3.51644 20.2924 2.57572C19.3517 1.63501 17.9673 1.2998 16.2684 1.2998H7.36836ZM3.56836 6.5998C3.56836 5.04878 3.88316 4.15817 4.40494 3.63638C4.92672 3.1146 5.81733 2.7998 7.36836 2.7998H16.2684C17.8194 2.7998 18.71 3.1146 19.2318 3.63638C19.7536 4.15817 20.0684 5.04878 20.0684 6.5998V9C20.0684 10.551 19.7536 11.4416 19.2318 11.9634C18.71 12.4852 17.8194 12.8 16.2684 12.8H7.36836C5.81733 12.8 4.92672 12.4852 4.40494 11.9634C3.88316 11.4416 3.56836 10.551 3.56836 9V6.5998Z" fill="#001F3E"/>
<path fill-rule="evenodd" clip-rule="evenodd" d="M3.0293 18.026C3.0293 16.4927 4.27222 15.2498 5.80544 15.2498C7.33866 15.2498 8.58158 16.4927 8.58158 18.026C8.58158 18.8874 8.18926 19.6571 7.57356 20.1663C8.02496 20.3482 8.44186 20.5974 8.81166 20.9015C9.18169 20.5972 9.59887 20.3479 10.0506 20.166C9.43512 19.6568 9.04297 18.8872 9.04297 18.026C9.04297 16.4927 10.2859 15.2498 11.8191 15.2498C13.3523 15.2498 14.5953 16.4927 14.5953 18.026C14.5953 18.8874 14.2029 19.6571 13.5872 20.1663C14.0385 20.3481 14.4553 20.5973 14.8251 20.9013C15.1948 20.5974 15.6115 20.3482 16.0628 20.1664C15.447 19.6572 15.0547 18.8874 15.0547 18.026C15.0547 16.4927 16.2976 15.2498 17.8308 15.2498C19.3641 15.2498 20.607 16.4927 20.607 18.026C20.607 18.8871 20.2149 19.6567 19.5994 20.1659C20.3032 20.4493 20.9232 20.8965 21.4116 21.4597C21.683 21.7726 21.6493 22.2463 21.3363 22.5177C21.0234 22.789 20.5497 22.7553 20.2783 22.4424C19.6837 21.7567 18.8085 21.3249 17.8317 21.3249C16.9604 21.3249 16.17 21.6684 15.5874 22.2292C15.5458 22.3593 15.468 22.4797 15.3556 22.5741C15.0573 22.8245 14.6213 22.803 14.3488 22.5359C14.3415 22.53 14.3342 22.5239 14.327 22.5177C14.2707 22.4689 14.2235 22.4135 14.1854 22.3538C13.5937 21.7197 12.7525 21.3249 11.8185 21.3249C10.9469 21.3249 10.1562 21.6687 9.57355 22.2298C9.53181 22.3598 9.45412 22.4799 9.34189 22.5741C9.18802 22.7033 8.99749 22.7601 8.81166 22.7482C8.62584 22.7601 8.4353 22.7033 8.28143 22.5741C8.1692 22.4799 8.09152 22.3598 8.04977 22.2298C7.46714 21.6687 6.6764 21.3249 5.80483 21.3249C4.80937 21.3249 3.91936 21.7733 3.32441 22.482C3.05806 22.7992 2.58499 22.8404 2.26776 22.5741C1.95053 22.3077 1.90928 21.8347 2.17563 21.5174C2.67128 20.9271 3.3093 20.4589 4.03692 20.166C3.42145 19.6568 3.0293 18.8872 3.0293 18.026ZM5.80544 16.7498C5.10065 16.7498 4.5293 17.3212 4.5293 18.026C4.5293 18.7308 5.10065 19.3021 5.80544 19.3021C6.51024 19.3021 7.08158 18.7308 7.08158 18.026C7.08158 17.3212 6.51024 16.7498 5.80544 16.7498ZM10.543 18.026C10.543 17.3212 11.1143 16.7498 11.8191 16.7498C12.5239 16.7498 13.0953 17.3212 13.0953 18.026C13.0953 18.7308 12.5239 19.3021 11.8191 19.3021C11.1143 19.3021 10.543 18.7308 10.543 18.026ZM17.8308 16.7498C17.126 16.7498 16.5547 17.3212 16.5547 18.026C16.5547 18.7308 17.126 19.3021 17.8308 19.3021C18.5356 19.3021 19.107 18.7308 19.107 18.026C19.107 17.3212 18.5356 16.7498 17.8308 16.7498Z" fill="#001F3E"/>
</svg>
