<svg width="24" height="24" viewBox="0 0 24 24" fill="none" xmlns="http://www.w3.org/2000/svg">
<path fill-rule="evenodd" clip-rule="evenodd" d="M5.01 2.25C4.2259 2.25 3.48336 2.39117 2.95078 2.89279C2.40674 3.40519 2.25 4.13203 2.25 4.89V19.11C2.25 19.868 2.40674 20.5948 2.95078 21.1072C3.48336 21.6088 4.2259 21.75 5.01 21.75H8.64C9.4241 21.75 10.1666 21.6088 10.6992 21.1072C11.2433 20.5948 11.4 19.868 11.4 19.11V4.89C11.4 4.13203 11.2433 3.40519 10.6992 2.89279C10.1666 2.39117 9.4241 2.25 8.64 2.25H5.01ZM3.75 4.89C3.75 4.29797 3.87826 4.07981 3.97922 3.98471C4.09164 3.87883 4.3541 3.75 5.01 3.75H8.64C9.2959 3.75 9.55836 3.87883 9.67078 3.98471C9.77174 4.07981 9.9 4.29797 9.9 4.89V19.11C9.9 19.702 9.77174 19.9202 9.67078 20.0153C9.55836 20.1212 9.2959 20.25 8.64 20.25H5.01C4.3541 20.25 4.09164 20.1212 3.97922 20.0153C3.87826 19.9202 3.75 19.702 3.75 19.11V4.89Z" fill="#001F3E"/>
<path fill-rule="evenodd" clip-rule="evenodd" d="M15.3601 2.25C14.5795 2.25 13.8386 2.39176 13.3057 2.89179C12.7608 3.40304 12.6001 4.12889 12.6001 4.89V19.11C12.6001 19.868 12.7568 20.5948 13.3009 21.1072C13.8335 21.6088 14.576 21.75 15.3601 21.75H18.9901C19.7742 21.75 20.5167 21.6088 21.0493 21.1072C21.5934 20.5948 21.7501 19.868 21.7501 19.11V4.89C21.7501 4.13203 21.5934 3.40519 21.0493 2.89279C20.5167 2.39117 19.7742 2.25 18.9901 2.25H15.3601ZM14.1001 4.89C14.1001 4.30111 14.2294 4.08196 14.332 3.98571C14.4466 3.87824 14.7107 3.75 15.3601 3.75H18.9901C19.646 3.75 19.9085 3.87883 20.0209 3.98471C20.1218 4.07981 20.2501 4.29797 20.2501 4.89V19.11C20.2501 19.702 20.1218 19.9202 20.0209 20.0153C19.9085 20.1212 19.646 20.25 18.9901 20.25H15.3601C14.7042 20.25 14.4417 20.1212 14.3293 20.0153C14.2284 19.9202 14.1001 19.702 14.1001 19.11V4.89Z" fill="#001F3E"/>
</svg>
