<svg width="24" height="24" viewBox="0 0 24 24" fill="none" xmlns="http://www.w3.org/2000/svg">
<path fill-rule="evenodd" clip-rule="evenodd" d="M18.7498 9.75006H21C21.9642 9.75006 22.75 8.96428 22.75 8.00006V6.68006C22.75 6.31567 22.6169 5.97474 22.4381 5.7096C22.2592 5.4441 21.9915 5.19091 21.6485 5.05371L12.6485 1.45373C12.4313 1.36684 12.1938 1.34009 12 1.34009C11.8062 1.34009 11.5687 1.36684 11.3515 1.45373L2.35146 5.05371C2.00846 5.19091 1.74082 5.4441 1.56185 5.7096C1.38312 5.97474 1.25 6.31567 1.25 6.68006V8.00006C1.25 8.96428 2.03579 9.75006 3 9.75006H5.24984V17.2501H3C2.03579 17.2501 1.25 18.0359 1.25 19.0001V22.0001C1.25 22.4143 1.58579 22.7501 2 22.7501H22C22.4142 22.7501 22.75 22.4143 22.75 22.0001V19.0001C22.75 18.0359 21.9642 17.2501 21 17.2501H18.7498V9.75006ZM11.9015 2.84927L2.90855 6.44642C2.90851 6.44644 2.90509 6.44785 2.89866 6.45184C2.89207 6.45595 2.8832 6.46223 2.87268 6.47127C2.85102 6.48988 2.82727 6.51596 2.80565 6.54803C2.78403 6.5801 2.76872 6.61198 2.75954 6.63907C2.75079 6.66488 2.75006 6.67891 2.75 6.68001C2.75 6.68006 2.75 6.68009 2.75 6.68001L2.75 8.00006C2.75 8.13585 2.86421 8.25006 3 8.25006L5.99984 8.25006H11.9998L17.9986 8.25006C17.999 8.25006 17.9994 8.25006 17.9998 8.25006C18.0002 8.25006 18.0007 8.25006 18.0011 8.25006H21C21.1358 8.25006 21.25 8.13585 21.25 8.00006V6.68006C21.25 6.6808 21.2498 6.66668 21.2405 6.63907C21.2313 6.61198 21.216 6.5801 21.1943 6.54803C21.1727 6.51596 21.149 6.48988 21.1273 6.47127C21.1168 6.46223 21.1079 6.45595 21.1013 6.45184C21.0947 6.44773 21.0913 6.44636 21.0914 6.44642L12.0985 2.84927C12.0957 2.84858 12.0898 2.84729 12.0808 2.84585C12.0598 2.84252 12.0317 2.84009 12 2.84009C11.9683 2.84009 11.9402 2.84252 11.9192 2.84585C11.9101 2.84729 11.9043 2.84858 11.9015 2.84927ZM17.2498 9.75006H12.7498V17.2501H17.2498V9.75006ZM3 18.7501C2.86421 18.7501 2.75 18.8643 2.75 19.0001V21.2501H21.25V19.0001C21.25 18.8643 21.1358 18.7501 21 18.7501H3ZM6.74984 9.75006H11.2498V17.2501H6.74984V9.75006Z" fill="#001F3E"/>
</svg>
