<svg width="24" height="24" viewBox="0 0 24 24" fill="none" xmlns="http://www.w3.org/2000/svg">
<path fill-rule="evenodd" clip-rule="evenodd" d="M7.98037 3.53579L7.76525 4.81674C6.83201 4.86712 5.89882 4.93943 4.96568 5.03367L2.92677 5.23356C2.51453 5.27397 2.21311 5.64092 2.25353 6.05316C2.29394 6.4654 2.66089 6.76682 3.07313 6.7264L5.11313 6.5264L5.11532 6.52618C7.0704 6.3287 9.02525 6.22998 10.9799 6.22998C14.2946 6.22998 17.6199 6.39869 20.926 6.72632C21.3382 6.76717 21.7054 6.46614 21.7463 6.05394C21.7871 5.64175 21.4861 5.27448 21.0739 5.23364C19.4673 5.07442 17.8559 4.95217 16.2431 4.868L16.2411 4.85492L16.2395 4.84486L16.0199 3.54711L16.0105 3.48891C15.9447 3.08006 15.8462 2.46776 15.439 1.99845C14.9677 1.4554 14.2452 1.25 13.31 1.25H10.69C9.76611 1.25 9.04281 1.44012 8.56874 1.97769C8.16205 2.43887 8.06103 3.04899 7.99218 3.46487L7.98037 3.53579ZM9.4596 3.78456L9.29683 4.75376C9.85786 4.73791 10.4189 4.72998 10.9799 4.72998C12.2227 4.72998 13.4667 4.75334 14.7105 4.79954L14.5398 3.79069C14.4561 3.27767 14.4032 3.09352 14.3061 2.98155C14.2523 2.9196 14.0649 2.75 13.31 2.75H10.69C9.92391 2.75 9.74222 2.91488 9.69378 2.96981C9.60166 3.07427 9.54968 3.24976 9.4596 3.78456Z" fill="#001F3E"/>
<path d="M19.5983 9.18829C19.6249 8.77494 19.3115 8.41822 18.8981 8.39154C18.4848 8.36486 18.1281 8.67832 18.1014 9.09167L17.4517 19.1576L17.4515 19.1596C17.4233 19.5624 17.3994 19.8818 17.3433 20.1602C17.2887 20.4313 17.2129 20.6094 17.115 20.7369C16.9462 20.9567 16.5293 21.25 15.2098 21.25H8.78982C7.47039 21.25 7.05345 20.9567 6.88462 20.7369C6.78673 20.6094 6.71092 20.4313 6.65631 20.1602C6.60024 19.8818 6.57635 19.5624 6.54813 19.1596L6.54799 19.1576L5.89826 9.09167C5.87158 8.67832 5.51487 8.36486 5.10151 8.39154C4.68816 8.41822 4.3747 8.77494 4.40138 9.18829L5.05137 19.2583L5.05299 19.2814C5.07933 19.6576 5.10831 20.0714 5.18584 20.4563C5.26623 20.8555 5.40792 21.2768 5.69502 21.6506C6.2962 22.4333 7.31926 22.75 8.78982 22.75H15.2098C16.6804 22.75 17.7034 22.4333 18.3046 21.6506C18.5917 21.2768 18.7334 20.8555 18.8138 20.4563C18.8913 20.0714 18.9203 19.6577 18.9467 19.2814L18.948 19.2624L19.5983 9.18829Z" fill="#001F3E"/>
<path d="M9.57997 16.5C9.57997 16.0858 9.91576 15.75 10.33 15.75H13.66C14.0742 15.75 14.41 16.0858 14.41 16.5C14.41 16.9142 14.0742 17.25 13.66 17.25H10.33C9.91576 17.25 9.57997 16.9142 9.57997 16.5Z" fill="#001F3E"/>
<path d="M9.49989 11.75C9.08568 11.75 8.74989 12.0858 8.74989 12.5C8.74989 12.9142 9.08568 13.25 9.49989 13.25H14.4999C14.9141 13.25 15.2499 12.9142 15.2499 12.5C15.2499 12.0858 14.9141 11.75 14.4999 11.75H9.49989Z" fill="#001F3E"/>
</svg>
