<svg width="24" height="24" viewBox="0 0 24 24" fill="none" xmlns="http://www.w3.org/2000/svg">
<path d="M7.80957 2.41699H16.1904C17.9274 2.41708 19.2633 2.93326 20.165 3.83496C21.0667 4.73666 21.5829 6.07264 21.583 7.80957V16.1904C21.5829 17.9274 21.0667 19.2633 20.165 20.165C19.2633 21.0667 17.9274 21.5829 16.1904 21.583H7.80957C6.07264 21.5829 4.73666 21.0667 3.83496 20.165C2.93326 19.2633 2.41708 17.9274 2.41699 16.1904V7.80957C2.41708 6.07264 2.93326 4.73666 3.83496 3.83496C4.73666 2.93326 6.07264 2.41708 7.80957 2.41699ZM12 7.49316C11.3599 7.49316 10.833 8.02004 10.833 8.66016V15.3398C10.833 15.98 11.3599 16.5068 12 16.5068C12.6401 16.5068 13.167 15.98 13.167 15.3398V8.66016C13.167 8.02004 12.6401 7.49316 12 7.49316ZM7 9.2334C6.35988 9.2334 5.83301 9.76027 5.83301 10.4004V13.5996C5.83301 14.2397 6.35988 14.7666 7 14.7666C7.64012 14.7666 8.16699 14.2397 8.16699 13.5996V10.4004C8.16699 9.76027 7.64012 9.2334 7 9.2334ZM17 9.2334C16.3599 9.2334 15.833 9.76027 15.833 10.4004V13.5996C15.833 14.2397 16.3599 14.7666 17 14.7666C17.6401 14.7666 18.167 14.2397 18.167 13.5996V10.4004C18.167 9.76027 17.6401 9.2334 17 9.2334Z" fill="#001F3E" stroke="#001F3E" stroke-width="0.833333"/>
</svg>
