<svg width="24" height="24" viewBox="0 0 24 24" fill="none" xmlns="http://www.w3.org/2000/svg">
<path d="M8.79908 2.96262C9.04832 2.76902 9.3211 2.60755 9.60885 2.477C10.9607 1.78748 12.7596 1.84118 14.0241 2.66628C14.1112 2.71748 14.1963 2.77202 14.2792 2.82993L20.0268 6.85184C20.6032 7.25322 21.089 7.87205 21.4289 8.52246C21.769 9.17314 22 9.92516 22 10.6286V18.0608C22 20.5906 20.591 22 18.0465 22H15.4884V18.5C15.4884 16.5759 13.9266 15.0161 12 15.0161C10.0734 15.0161 8.51163 16.5759 8.51163 18.5V22H5.95349C3.40788 22 2 20.5988 2 18.0608V10.4986C2 9.83851 2.20875 9.12407 2.51552 8.49965C2.82232 7.87514 3.26095 7.27189 3.78513 6.86456L8.79908 2.96262Z" fill="#001F3E"/>
</svg>
