<svg width="24" height="24" viewBox="0 0 24 24" fill="none" xmlns="http://www.w3.org/2000/svg">
<g clip-path="url(#clip0_1_7933)">
<path d="M12 20.4004C12.6627 20.4004 13.2002 20.9379 13.2002 21.6006V22.7998C13.2002 23.4625 12.6627 24 12 24C11.3373 24 10.7998 23.4625 10.7998 22.7998V21.6006C10.7998 20.9379 11.3373 20.4004 12 20.4004ZM4.3623 17.9404C4.83095 17.4715 5.5908 17.4713 6.05957 17.9395C6.52827 18.4079 6.52859 19.168 6.06055 19.6367L5.21289 20.4854C4.97852 20.7197 4.67031 20.8369 4.36328 20.8369C4.05631 20.8369 3.74898 20.7195 3.51465 20.4854C3.04618 20.0169 3.04655 19.2567 3.51465 18.7881L4.3623 17.9404ZM17.9404 17.9395C18.4092 17.4713 19.169 17.4715 19.6377 17.9404L20.4854 18.7881C20.9534 19.2567 20.9538 20.0169 20.4854 20.4854C20.374 20.5969 20.2413 20.6858 20.0957 20.7461C19.9502 20.8063 19.7942 20.8371 19.6367 20.8369C19.3297 20.8369 19.0215 20.7199 18.7871 20.4854L17.9395 19.6367C17.4714 19.168 17.4717 18.4079 17.9404 17.9395ZM12 6C15.3137 6 18 8.68629 18 12C18 15.3137 15.3137 18 12 18C8.68629 18 6 15.3137 6 12C6 8.68629 8.68629 6 12 6ZM2.39941 10.7998C3.06209 10.7998 3.59961 11.3373 3.59961 12C3.59961 12.6627 3.06209 13.2002 2.39941 13.2002H1.2002C0.537523 13.2002 0 12.6627 0 12C0 11.3373 0.537523 10.7998 1.2002 10.7998H2.39941ZM22.7998 10.7998C23.4625 10.7998 24 11.3373 24 12C24 12.6627 23.4625 13.2002 22.7998 13.2002H21.6006C20.9379 13.2002 20.4004 12.6627 20.4004 12C20.4004 11.3373 20.9379 10.7998 21.6006 10.7998H22.7998ZM3.51465 3.51465C3.9834 3.04618 4.74414 3.04562 5.21289 3.51465L6.06055 4.36328C6.52857 4.83204 6.52827 5.59213 6.05957 6.06055C5.94839 6.17188 5.81625 6.26008 5.6709 6.32031C5.5253 6.3806 5.36852 6.41134 5.21094 6.41113C4.90404 6.41103 4.59663 6.29399 4.3623 6.05957L3.51465 5.21191C3.04655 4.74325 3.04616 3.98314 3.51465 3.51465ZM18.7871 3.51465C19.2559 3.0459 20.0166 3.04618 20.4854 3.51465C20.9538 3.98314 20.9534 4.74327 20.4854 5.21191L19.6377 6.05957C19.4035 6.29399 19.096 6.41103 18.7891 6.41113C18.4822 6.41113 18.1748 6.2946 17.9404 6.06055C17.4717 5.59213 17.4714 4.83204 17.9395 4.36328L18.7871 3.51465ZM12 0C12.6627 0 13.2002 0.537523 13.2002 1.2002V2.39941C13.2002 3.06209 12.6627 3.59961 12 3.59961C11.3373 3.59961 10.7998 3.06209 10.7998 2.39941V1.2002C10.7998 0.537523 11.3373 0 12 0Z" fill="#001F3E"/>
</g>
<defs>
<clipPath id="clip0_1_7933">
<rect width="24" height="24" fill="white"/>
</clipPath>
</defs>
</svg>
