<svg width="24" height="24" viewBox="0 0 24 24" fill="none" xmlns="http://www.w3.org/2000/svg">
<path fill-rule="evenodd" clip-rule="evenodd" d="M4.54333 3.62288C5.01206 2.811 6.05997 2.53021 6.87184 2.99895L9.9346 4.76723L10.0201 4.74432L11.7881 1.68201C12.2569 0.870139 13.3048 0.589353 14.1166 1.05809L15.8558 2.06218C16.225 2.27537 16.484 2.60521 16.612 2.97804L17.2263 2.81342C18.0901 2.58197 18.8673 2.66349 19.4892 3.08133C20.0905 3.48539 20.4242 4.12276 20.5944 4.75796L20.8532 5.72389C21.0234 6.3591 21.0531 7.07789 20.7344 7.7285C20.4048 8.40127 19.7724 8.86049 18.9087 9.09194L10.8547 11.25H21.0005C21.4147 11.25 21.7505 11.5858 21.7505 12V18C21.7505 19.5415 21.5032 20.8079 20.6558 21.6553C19.8084 22.5028 18.542 22.75 17.0005 22.75H9.00049C7.45894 22.75 6.19258 22.5028 5.34516 21.6553C4.49774 20.8079 4.25049 19.5415 4.25049 18V13.016C3.43538 13.2001 2.711 13.1091 2.12783 12.7071C1.52947 12.2947 1.21718 11.6472 1.05172 11.0297L0.792903 10.0638C0.627442 9.44625 0.574143 8.72935 0.886112 8.07299C1.21106 7.38933 1.85326 6.93262 2.73745 6.6957L3.34236 6.53362C3.26668 6.14664 3.32598 5.73138 3.53923 5.36201L4.54333 3.62288ZM15.2502 12.75H10.7202V15.14C10.7202 15.3341 10.9321 15.4635 11.1124 15.3506L12.0528 14.7303C12.6369 14.3523 13.3906 14.3456 13.9762 14.736L13.9795 14.7381L14.8673 15.3367C15.0321 15.4454 15.2502 15.3266 15.2502 15.13V12.75ZM9.22021 12.75V15.14C9.22021 16.5449 10.7662 17.3552 11.9253 16.6112L12.8696 15.9884C12.9645 15.928 13.0693 15.9347 13.1431 15.9833L14.031 16.5819L14.0342 16.584C15.1893 17.3541 16.7502 16.533 16.7502 15.13V12.75H20.2505V18C20.2505 19.4585 19.9977 20.1921 19.5952 20.5947C19.1926 20.9972 18.4589 21.25 17.0005 21.25H9.00049C7.54204 21.25 6.8084 20.9972 6.40582 20.5947C6.00324 20.1921 5.75049 19.4585 5.75049 18V12.75H9.22021ZM18.5204 7.64305L5.0591 11.25H5.00049C4.84518 11.25 4.7009 11.2972 4.58121 11.3781L4.03154 11.5253C3.43786 11.6844 3.13999 11.583 2.97912 11.4721C2.79337 11.3441 2.61985 11.0865 2.50061 10.6415L2.24179 9.67552C2.12255 9.23051 2.14402 8.92066 2.24087 8.71691C2.32474 8.54045 2.53199 8.30367 3.12567 8.14459L17.6146 4.26231C18.1707 4.11329 18.4759 4.20762 18.6526 4.32638C18.8498 4.4589 19.031 4.71888 19.1455 5.14619L19.4043 6.11212C19.5188 6.53943 19.4919 6.85515 19.3874 7.06854C19.2937 7.25976 19.0766 7.49403 18.5204 7.64305ZM6.12184 4.29799C6.02741 4.24347 5.89689 4.27844 5.84236 4.37288L4.83827 6.11201C4.8338 6.11975 4.82991 6.1276 4.82657 6.13551L7.88507 5.31599L6.12184 4.29799ZM13.0872 2.43201C13.1417 2.33758 13.2722 2.30261 13.3666 2.35713L15.1058 3.36122C15.1135 3.36569 15.1208 3.37054 15.1277 3.37572L12.0692 4.19524L13.0872 2.43201Z" fill="#001F3E"/>
</svg>
