<svg width="24" height="24" viewBox="0 0 24 24" fill="none" xmlns="http://www.w3.org/2000/svg">
<path d="M8.5 2.44238C10.5415 2.44238 11.75 4.12349 11.75 5.96191V12.0498C12.2441 12.4193 12.686 12.9406 13.0215 13.5117C13.4466 14.2354 13.75 15.1154 13.75 16C13.7499 18.8994 11.3995 21.25 8.5 21.25C5.60055 21.25 3.25007 18.8994 3.25 16C3.25002 15.1154 3.5534 14.2354 3.97852 13.5117C4.31403 12.9406 4.75591 12.4193 5.25 12.0498V5.96191C5.25 4.12349 6.45849 2.44238 8.5 2.44238ZM8.5 3.94238C7.48271 3.94238 6.75 4.74153 6.75 5.96191V12.4531C6.74984 12.7269 6.60043 12.9788 6.36035 13.1104C6.01202 13.301 5.59956 13.7131 5.27148 14.2715C4.94684 14.8242 4.75002 15.444 4.75 16C4.75007 18.071 6.42897 19.75 8.5 19.75C10.571 19.75 12.2499 18.071 12.25 16C12.25 15.444 12.0532 14.8242 11.7285 14.2715C11.4004 13.7131 10.988 13.301 10.6396 13.1104C10.3996 12.9788 10.2502 12.7269 10.25 12.4531V5.96191C10.25 4.74153 9.51729 3.94238 8.5 3.94238ZM9 14.5C9.55228 14.5 10 14.9477 10 15.5V16.5C10 17.0523 9.55228 17.5 9 17.5H8C7.44772 17.5 7 17.0523 7 16.5V15.5C7 14.9477 7.44772 14.5 8 14.5H9ZM19 11.25C19.4142 11.25 19.75 11.5858 19.75 12C19.75 12.4142 19.4142 12.75 19 12.75H15C14.5858 12.75 14.25 12.4142 14.25 12C14.25 11.5858 14.5858 11.25 15 11.25H19ZM17 7.75C17.4142 7.75 17.75 8.08579 17.75 8.5C17.75 8.91421 17.4142 9.25 17 9.25H15C14.5858 9.25 14.25 8.91421 14.25 8.5C14.25 8.08579 14.5858 7.75 15 7.75H17ZM19 4.25C19.4142 4.25 19.75 4.58579 19.75 5C19.75 5.41421 19.4142 5.75 19 5.75H15C14.5858 5.75 14.25 5.41421 14.25 5C14.25 4.58579 14.5858 4.25 15 4.25H19Z" fill="#001F3E"/>
</svg>
