<svg width="24" height="24" viewBox="0 0 24 24" fill="none" xmlns="http://www.w3.org/2000/svg">
<path d="M8 11.45C7.58579 11.45 7.25 11.7858 7.25 12.2C7.25 12.6142 7.58579 12.95 8 12.95H15C15.4142 12.95 15.75 12.6142 15.75 12.2C15.75 11.7858 15.4142 11.45 15 11.45H8Z" fill="#001F3E"/>
<path d="M8 15.45C7.58579 15.45 7.25 15.7858 7.25 16.2C7.25 16.6142 7.58579 16.95 8 16.95H12.38C12.7942 16.95 13.13 16.6142 13.13 16.2C13.13 15.7858 12.7942 15.45 12.38 15.45H8Z" fill="#001F3E"/>
<path fill-rule="evenodd" clip-rule="evenodd" d="M9.92882 1.24985L10 1.24998H14L14.0712 1.24985C14.5142 1.24859 15.222 1.24658 15.791 1.62595C16.3265 1.98292 16.6111 2.56188 16.7096 3.32341C18.1504 3.47469 19.3992 3.88149 20.2993 4.85442C21.3278 5.96618 21.75 7.65469 21.75 9.99998V16C21.75 18.0132 21.5113 19.7688 20.4394 20.9939C19.3459 22.2436 17.5647 22.75 15 22.75H9C6.43533 22.75 4.65413 22.2436 3.56057 20.9939C2.48868 19.7688 2.25 18.0132 2.25 16V9.99998C2.25 7.65919 2.6724 5.97126 3.70035 4.85855C4.60012 3.88458 5.84867 3.47543 7.29036 3.32353C7.38885 2.56194 7.67349 1.98294 8.20897 1.62595C8.77803 1.24658 9.48584 1.24859 9.92882 1.24985ZM7.31325 4.83041C6.12269 4.97288 5.33207 5.30279 4.80215 5.87641C4.1626 6.5687 3.75 7.78077 3.75 9.99998V16C3.75 17.9867 4.01132 19.2311 4.68943 20.0061C5.34587 20.7563 6.56467 21.25 9 21.25H15C17.4353 21.25 18.6541 20.7563 19.3106 20.0061C19.9887 19.2311 20.25 17.9867 20.25 16V9.99998C20.25 7.77526 19.8372 6.56377 19.1982 5.87304C18.6723 5.3046 17.8895 4.97692 16.7122 4.83331C16.6683 5.15163 16.5743 5.49065 16.374 5.79101C15.9178 6.47532 15.099 6.74998 14 6.74998H10L9.92882 6.75012C9.48584 6.75138 8.77803 6.75339 8.20897 6.37402C7.71018 6.04149 7.42903 5.51633 7.31325 4.83041ZM15.25 4.01615C15.25 4.01861 15.25 4.02107 15.25 4.02352C15.2493 4.57159 15.2242 4.81166 15.126 4.95896C15.0822 5.02465 14.901 5.24998 14 5.24998H10C9.43524 5.24998 9.19042 5.22554 9.04103 5.12595C8.97533 5.08215 8.75 4.90094 8.75 3.99998C8.75 3.09903 8.97533 2.91782 9.04103 2.87402C9.19042 2.77443 9.43524 2.74998 10 2.74998H14C14.5648 2.74998 14.8096 2.77443 14.959 2.87402C15.0247 2.91782 15.25 3.09903 15.25 3.99998C15.25 4.0054 15.25 4.01079 15.25 4.01615Z" fill="#001F3E"/>
</svg>
