<svg width="24" height="24" viewBox="0 0 24 24" fill="none" xmlns="http://www.w3.org/2000/svg">
<path d="M1.35675 3.51414C1.56986 3.15896 2.03056 3.04378 2.38574 3.2569L4.88451 4.75616C6.1875 5.53426 7.81234 5.53451 9.11523 4.75616C10.8921 3.69463 13.1076 3.69463 14.8845 4.75616C16.1874 5.53452 17.8117 5.53463 19.1147 4.7565L21.614 3.2569C21.9692 3.04378 22.4299 3.15896 22.643 3.51414C22.8561 3.86933 22.7409 4.33002 22.3857 4.54314L19.8845 6.04387C18.1076 7.1054 15.8921 7.1054 14.1152 6.04387C12.8121 5.2654 11.1876 5.2654 9.88451 6.04387C8.10761 7.1054 5.89213 7.1054 4.11523 6.04387L4.114 6.04314L1.614 4.54314C1.25881 4.33002 1.14364 3.86933 1.35675 3.51414Z" fill="#001F3E"/>
<path d="M4.88451 12.2439L2.38574 13.7432C2.03056 13.9563 1.56986 13.8411 1.35675 13.4859C1.14364 13.1307 1.25881 12.67 1.614 12.4569L4.11523 10.9562C5.89213 9.89465 8.10761 9.89465 9.88451 10.9562C11.1876 11.7347 12.8121 11.7347 14.1152 10.9562C15.8921 9.89465 18.1076 9.89465 19.8845 10.9562L19.8857 10.9569L22.3857 12.4569C22.7409 12.67 22.8561 13.1307 22.643 13.4859C22.4299 13.8411 21.9692 13.9563 21.614 13.7432L19.1152 12.2439C17.8122 11.4657 16.1874 11.4655 14.8845 12.2439C13.1076 13.3054 10.8921 13.3054 9.11523 12.2439C7.81232 11.4655 6.18751 11.4658 4.88451 12.2439Z" fill="#001F3E"/>
<path d="M2.38574 20.7432L4.88451 19.2439C6.18751 18.4658 7.81232 18.4655 9.11523 19.2439C10.8921 20.3054 13.1076 20.3054 14.8845 19.2439C16.1874 18.4655 17.8122 18.4657 19.1152 19.2439L21.614 20.7432C21.9692 20.9563 22.4299 20.8411 22.643 20.4859C22.8561 20.1307 22.7409 19.67 22.3857 19.4569L19.8857 17.9569L19.8845 17.9562C18.1076 16.8947 15.8921 16.8947 14.1152 17.9562C12.8121 18.7347 11.1876 18.7347 9.88451 17.9562C8.10761 16.8947 5.89213 16.8947 4.11523 17.9562L1.614 19.4569C1.25881 19.67 1.14364 20.1307 1.35675 20.4859C1.56986 20.8411 2.03056 20.9563 2.38574 20.7432Z" fill="#001F3E"/>
</svg>
