<svg width="24" height="24" viewBox="0 0 24 24" fill="none" xmlns="http://www.w3.org/2000/svg">
<path fill-rule="evenodd" clip-rule="evenodd" d="M10.9329 1.6156C11.5632 1.12762 12.4399 1.12813 13.0696 1.61714C14.0392 2.3662 15.968 3.97549 17.6599 6.10464C19.3412 8.22035 20.8654 10.9454 20.8603 13.9104C20.86 18.785 16.8938 22.75 12.0103 22.75C7.12615 22.75 3.16138 18.7747 3.16028 13.902C3.14461 10.8979 4.6598 8.17271 6.34008 6.06498C8.02902 3.94639 9.95838 2.3595 10.9329 1.6156ZM12.1498 2.80201C12.0606 2.73266 11.9399 2.73266 11.8507 2.80201L11.848 2.80413L11.8453 2.80621C10.9191 3.51308 9.09518 5.01533 7.51298 7.00002C5.92114 8.99681 4.64663 11.3908 4.66027 13.8959L4.66028 13.898V13.9C4.66028 17.9464 7.9551 21.25 12.0103 21.25C16.0667 21.25 19.3603 17.9552 19.3603 13.91V13.9086C19.3648 11.444 18.0841 9.04942 16.4856 7.03786C14.8981 5.04015 13.0725 3.51477 12.1518 2.80353L12.1508 2.80278L12.1498 2.80201Z" fill="#001F3E"/>
</svg>
