<svg width="24" height="24" viewBox="0 0 24 24" fill="none" xmlns="http://www.w3.org/2000/svg">
<path fill-rule="evenodd" clip-rule="evenodd" d="M6.68457 13.4492C9.06866 13.4494 11.001 15.3825 11.001 17.7666C11.0008 20.1506 9.06855 22.0828 6.68457 22.083C4.30044 22.083 2.36736 20.1507 2.36719 17.7666C2.36719 15.3824 4.30033 13.4492 6.68457 13.4492ZM6.68457 14.9492C5.12875 14.9492 3.86719 16.2108 3.86719 17.7666C3.86736 19.3223 5.12886 20.583 6.68457 20.583C8.24013 20.5828 9.5008 19.3222 9.50098 17.7666C9.50098 16.2109 8.24024 14.9494 6.68457 14.9492Z" fill="#001F3E"/>
<path d="M20.9521 20.2305C21.3663 20.2305 21.7021 20.5663 21.7021 20.9805C21.7021 21.3947 21.3664 21.7305 20.9521 21.7305H13.8184C13.4041 21.7305 13.0684 21.3947 13.0684 20.9805C13.0684 20.5663 13.4042 20.2305 13.8184 20.2305H20.9521Z" fill="#001F3E"/>
<path d="M20.9521 17.0898C21.3663 17.0898 21.702 17.4257 21.7021 17.8398C21.7021 18.2541 21.3664 18.5898 20.9521 18.5898H13.8184C13.4041 18.5898 13.0684 18.2541 13.0684 17.8398C13.0685 17.4257 13.4042 17.0898 13.8184 17.0898H20.9521Z" fill="#001F3E"/>
<path d="M20.9521 13.9521C21.3664 13.9521 21.7021 14.2879 21.7021 14.7021C21.7019 15.1161 21.3662 15.4521 20.9521 15.4521H13.8184C13.4043 15.4521 13.0686 15.1161 13.0684 14.7021C13.0684 14.2879 13.4041 13.9521 13.8184 13.9521H20.9521Z" fill="#001F3E"/>
<path fill-rule="evenodd" clip-rule="evenodd" d="M8.11133 2.74805C9.70744 2.74819 11.001 4.04253 11.001 5.63867V8.49219C11.001 10.0883 9.70743 11.3827 8.11133 11.3828H5.25781C3.66159 11.3828 2.3672 10.0884 2.36719 8.49219V5.63867C2.36719 4.04244 3.66158 2.74805 5.25781 2.74805H8.11133ZM5.25781 4.24805C4.49001 4.24805 3.86719 4.87087 3.86719 5.63867V8.49219C3.8672 9.25998 4.49001 9.88281 5.25781 9.88281H8.11133C8.87901 9.88267 9.50097 9.2599 9.50098 8.49219V5.63867C9.50098 4.87096 8.87901 4.24819 8.11133 4.24805H5.25781Z" fill="#001F3E"/>
<path fill-rule="evenodd" clip-rule="evenodd" d="M14.8018 5.20703C15.8669 3.07698 18.9075 3.07693 19.9727 5.20703L21.3193 7.90137C21.5882 8.439 21.6809 9.06497 21.5234 9.64062C21.3596 10.2391 20.9297 10.7486 20.2549 10.9727C19.5607 11.2031 18.6224 11.3818 17.3867 11.3818C16.1513 11.3818 15.2137 11.203 14.5195 10.9727C13.8447 10.7487 13.4148 10.2391 13.251 9.64062C13.0935 9.06497 13.1863 8.439 13.4551 7.90137L14.8018 5.20703ZM18.6309 5.87793C18.1185 4.8534 16.6559 4.85345 16.1436 5.87793L14.7969 8.57227C14.6673 8.83141 14.6518 9.07742 14.6973 9.24414C14.7366 9.38791 14.8214 9.49214 14.9922 9.54883C15.521 9.72431 16.2977 9.8818 17.3867 9.88184C18.476 9.88184 19.2534 9.72436 19.7822 9.54883C19.953 9.49214 20.0378 9.38791 20.0771 9.24414C20.1226 9.07742 20.1071 8.83139 19.9775 8.57227L18.6309 5.87793Z" fill="#001F3E"/>
</svg>
