<svg width="24" height="24" viewBox="0 0 24 24" fill="none" xmlns="http://www.w3.org/2000/svg">
<path fill-rule="evenodd" clip-rule="evenodd" d="M2.52158 6.8608C4.70766 2.71239 10.525 1.55067 15.7218 3.90377C15.9746 4.01835 16.1319 4.27085 16.1319 4.54342C16.1319 5.07897 15.5712 5.40367 15.1065 5.19381C10.3309 3.0371 5.48492 4.30409 3.78623 7.52779C2.0023 10.9138 3.96529 15.9476 8.95811 18.5786C11.1258 19.7208 13.3603 20.1378 15.336 19.9594C15.7507 19.922 16.1319 20.2417 16.1319 20.6772C16.1318 21.0329 15.8663 21.3439 15.4991 21.3774C13.2062 21.5863 10.6703 21.0964 8.29209 19.8432C2.90517 17.0046 0.227082 11.2152 2.52158 6.8608Z" fill="#001F3E"/>
<path fill-rule="evenodd" clip-rule="evenodd" d="M18.3995 7.27193C18.6785 7.0375 19.099 7.04732 19.3595 7.31978C21.7893 9.86414 22.7003 13.2267 21.1778 15.6928C20.2075 17.2646 18.4584 18.1185 16.4591 18.2612C14.4592 18.4038 12.1841 17.8393 10.0978 16.5512C9.83161 16.3869 9.57452 16.215 9.32725 16.0356C8.94778 15.7603 8.9497 15.2139 9.29404 14.9243C9.55354 14.7062 9.92337 14.7031 10.1896 14.895C10.4008 15.0474 10.6208 15.1947 10.8487 15.3354C12.7084 16.4835 14.6887 16.9535 16.3575 16.8344C18.0278 16.7152 19.2931 16.0237 19.961 14.9419C20.629 13.86 20.6811 12.4183 20.0392 10.8715C19.6793 10.0044 19.1085 9.13219 18.3468 8.32955C18.0652 8.03286 18.0726 7.54668 18.3995 7.27193Z" fill="#001F3E"/>
<path d="M17.0567 4.95064C17.2039 4.80344 17.4419 4.79871 17.5948 4.9399L18.5187 5.79342C18.6815 5.94392 18.6849 6.19974 18.5265 6.35494L10.836 13.8891C10.7636 13.9601 10.666 14.0004 10.5646 14.0004H9.75303C9.53889 14.0004 9.36533 13.8259 9.36533 13.6118V12.8032C9.36533 12.7004 9.40593 12.6015 9.47861 12.5288L17.0567 4.95064Z" fill="#001F3E"/>
<path d="M18.4171 3.59029C18.5615 3.44598 18.7937 3.43828 18.9474 3.57271L19.9103 4.41549C20.0803 4.56428 20.0873 4.82672 19.9259 4.98482L19.7042 5.20162C19.5567 5.34607 19.3219 5.35015 19.17 5.21041L18.2325 4.34518C18.071 4.19578 18.0663 3.94226 18.2218 3.78658L18.4171 3.59029Z" fill="#001F3E"/>
</svg>
