<svg width="24" height="24" viewBox="0 0 24 24" fill="none" xmlns="http://www.w3.org/2000/svg">
<path d="M10.3573 11.6211L7.70403 14.2743C7.54318 14.4346 7.32735 14.5277 7.10038 14.5346C6.8734 14.5416 6.6523 14.4618 6.48197 14.3117C6.31165 14.1615 6.20487 13.9521 6.18334 13.726C6.162 13.502 6.22594 13.2783 6.36224 13.0995L6.44443 13.0064L9.72542 9.72541C9.87932 9.57152 10.0841 9.47908 10.3013 9.46542C10.5165 9.45189 10.7292 9.51661 10.9004 9.64752L10.9936 9.72983L13.6427 12.3789L16.296 9.72565C16.4568 9.56535 16.6727 9.47229 16.8996 9.46535C17.1266 9.45842 17.3477 9.53815 17.518 9.68833C17.6884 9.83852 17.7951 10.0479 17.8167 10.274C17.838 10.498 17.7741 10.7217 17.6378 10.9005L17.5556 10.9936L14.2746 14.2746C14.1207 14.4285 13.9159 14.5209 13.6987 14.5346C13.4835 14.5481 13.2708 14.4834 13.0996 14.3525L13.0064 14.2702L10.3573 11.6211Z" fill="#001F3E"/>
<path fill-rule="evenodd" clip-rule="evenodd" d="M22.75 12C22.75 17.9372 17.9372 22.75 12 22.75C10.1711 22.7527 8.37173 22.2867 6.77409 21.3965L6.36683 21.1589L2.96299 22.1603C2.81519 22.2038 2.65871 22.2089 2.5084 22.175C2.35808 22.1412 2.2189 22.0695 2.10406 21.9667C1.98922 21.864 1.90252 21.7336 1.85217 21.588C1.80244 21.4442 1.78982 21.2901 1.81543 21.1401L1.84124 21.0319L2.84167 17.6313L2.79574 17.5554C1.78205 15.88 1.2474 13.9582 1.25001 12C1.25001 6.06277 6.06278 1.25 12 1.25C17.9372 1.25 22.75 6.06277 22.75 12ZM16.0045 3.9832C14.7611 3.36171 13.3901 3.03797 12.0001 3.03757C10.3954 3.03728 8.82001 3.46783 7.43854 4.28426C6.05706 5.10069 4.92012 6.27305 4.14645 7.67892C3.37278 9.08479 2.99075 10.6726 3.04026 12.2765C3.08977 13.8804 3.56908 15.4418 4.42799 16.7972C4.61807 17.0968 4.69967 17.4643 4.63725 17.8281L4.5972 17.9955L4.01171 19.9883L6.00975 19.4013C6.42526 19.2784 6.85848 19.3531 7.20292 19.5721C8.37737 20.3158 9.7087 20.776 11.0917 20.9165C12.4746 21.057 13.8713 20.8739 15.1713 20.3816C16.4713 19.8894 17.639 19.1015 18.582 18.0802C19.5251 17.0589 20.2176 15.8323 20.605 14.4973C20.9923 13.1622 21.0638 11.7554 20.8138 10.388C20.5637 9.02059 19.9991 7.73007 19.1644 6.61848C18.3297 5.50689 17.2479 4.60469 16.0045 3.9832Z" fill="#001F3E"/>
</svg>
