<svg width="24" height="24" viewBox="0 0 24 24" fill="none" xmlns="http://www.w3.org/2000/svg">
<path fill-rule="evenodd" clip-rule="evenodd" d="M11.9998 1.25C8.82417 1.25 6.2498 3.82436 6.2498 7C6.2498 10.1756 8.82417 12.75 11.9998 12.75C15.1754 12.75 17.7498 10.1756 17.7498 7C17.7498 3.82436 15.1754 1.25 11.9998 1.25ZM7.7498 7C7.7498 4.65279 9.65259 2.75 11.9998 2.75C14.347 2.75 16.2498 4.65279 16.2498 7C16.2498 9.34721 14.347 11.25 11.9998 11.25C9.65259 11.25 7.7498 9.34721 7.7498 7Z" fill="#001F3E"/>
<path d="M16.5095 17.23C16.0953 17.23 15.7595 17.5658 15.7595 17.98C15.7595 18.3942 16.0953 18.73 16.5095 18.73H19.4895C19.9037 18.73 20.2395 18.3942 20.2395 17.98C20.2395 17.5658 19.9037 17.23 19.4895 17.23H16.5095Z" fill="#001F3E"/>
<path fill-rule="evenodd" clip-rule="evenodd" d="M4.15991 22C4.15991 18.6809 7.52278 15.75 11.9999 15.75C12.5941 15.75 13.1751 15.8036 13.7347 15.9049C13.424 16.5387 13.2497 17.2513 13.2497 18C13.2497 18.8879 13.4976 19.7315 13.9372 20.447C14.1774 20.8535 14.4862 21.2214 14.841 21.5302C15.6733 22.288 16.7792 22.75 17.9997 22.75C19.7316 22.75 21.2402 21.8247 22.0611 20.4488C22.3107 20.0434 22.4998 19.583 22.6082 19.109C22.703 18.7485 22.7497 18.3782 22.7497 18C22.7497 16.7878 22.2865 15.6724 21.5301 14.8315C20.6693 13.8534 19.3963 13.25 17.9997 13.25C16.7253 13.25 15.5585 13.7527 14.7007 14.5791C13.8414 14.3648 12.9332 14.25 11.9999 14.25C6.99703 14.25 2.65991 17.5792 2.65991 22C2.65991 22.4142 2.9957 22.75 3.40991 22.75C3.82413 22.75 4.15991 22.4142 4.15991 22ZM17.9997 14.75C17.0888 14.75 16.2609 15.1233 15.6675 15.7328L15.6672 15.7331C15.0991 16.3176 14.7497 17.1216 14.7497 18C14.7497 18.6094 14.9202 19.1833 15.2181 19.6663C15.2204 19.6701 15.2227 19.6739 15.2249 19.6777L15.2261 19.6797C15.3838 19.9477 15.5908 20.1951 15.8309 20.4032C15.8359 20.4076 15.8409 20.412 15.8458 20.4165C16.4126 20.9347 17.1638 21.25 17.9997 21.25C19.1856 21.25 20.2153 20.6177 20.7751 19.6766C20.7773 19.673 20.7794 19.6694 20.7816 19.6659C20.9479 19.3967 21.0763 19.0842 21.148 18.7654C21.1502 18.7558 21.1525 18.7462 21.155 18.7368C21.2177 18.5017 21.2497 18.2568 21.2497 18C21.2497 17.1739 20.9342 16.4108 20.4126 15.8322C20.4104 15.8298 20.4083 15.8273 20.4061 15.8249C19.8269 15.1652 18.9614 14.75 17.9997 14.75Z" fill="#001F3E"/>
</svg>
