<svg width="24" height="24" viewBox="0 0 24 24" fill="none" xmlns="http://www.w3.org/2000/svg">
<path d="M6 12.25C6.41421 12.25 6.75 12.5858 6.75 13V17C6.75 17.4142 6.41421 17.75 6 17.75C5.58579 17.75 5.25 17.4142 5.25 17V13C5.25 12.5858 5.58579 12.25 6 12.25Z" fill="#292D32"/>
<path d="M14 7.25C14.4142 7.25 14.75 7.58579 14.75 8V13C14.75 13.4142 14.4142 13.75 14 13.75C13.5858 13.75 13.25 13.4142 13.25 13V8C13.25 7.58579 13.5858 7.25 14 7.25Z" fill="#292D32"/>
<path d="M18 7.25C18.4142 7.25 18.75 7.58579 18.75 8V13C18.75 13.4142 18.4142 13.75 18 13.75C17.5858 13.75 17.25 13.4142 17.25 13V8C17.25 7.58579 17.5858 7.25 18 7.25Z" fill="#292D32"/>
<path fill-rule="evenodd" clip-rule="evenodd" d="M19 1.25C20.1156 1.25 21.09 1.52947 21.7803 2.21973C22.4705 2.90999 22.75 3.88439 22.75 5V19C22.75 20.1156 22.4705 21.09 21.7803 21.7803C21.09 22.4705 20.1156 22.75 19 22.75H5C3.88439 22.75 2.90999 22.4705 2.21973 21.7803C1.52947 21.09 1.25 20.1156 1.25 19V11C1.25 9.88439 1.52947 8.90999 2.21973 8.21973C2.75022 7.68923 3.44871 7.40267 4.25 7.29785V6C4.25 4.48579 5.48579 3.25 7 3.25H9.5498C9.70499 2.86212 9.92458 2.51487 10.2197 2.21973C10.91 1.52947 11.8844 1.25 13 1.25H19ZM5 8.75C4.11561 8.75 3.59001 8.97053 3.28027 9.28027C2.97053 9.59001 2.75 10.1156 2.75 11V19C2.75 19.8844 2.97053 20.41 3.28027 20.7197C3.59001 21.0295 4.11561 21.25 5 21.25H9.80078C9.79844 21.2462 9.79627 21.2421 9.79395 21.2383C9.65621 21.0136 9.54706 20.7702 9.46387 20.5107C9.45631 20.4872 9.44952 20.4633 9.44238 20.4395C9.42572 20.3838 9.40988 20.3276 9.39551 20.2705C9.3905 20.2506 9.38461 20.231 9.37988 20.2109L9.33594 20C9.33306 19.9845 9.33085 19.9688 9.32812 19.9531C9.32372 19.9278 9.31945 19.9025 9.31543 19.877C9.30907 19.8366 9.30422 19.7958 9.29883 19.7549C9.2861 19.6583 9.27606 19.5604 9.26855 19.4609C9.2665 19.4337 9.2634 19.4064 9.26172 19.3789C9.25413 19.2546 9.25 19.1282 9.25 19V8.75H5ZM13 2.75C12.1156 2.75 11.59 2.97053 11.2803 3.28027C11.0978 3.46272 10.9482 3.72059 10.8545 4.08203C10.8504 4.11926 10.8448 4.15662 10.835 4.19336C10.7777 4.40793 10.75 4.66711 10.75 5V19C10.75 19.8844 10.9705 20.41 11.2803 20.7197C11.59 21.0295 12.1156 21.25 13 21.25H13.25V18C13.25 17.0358 14.0358 16.25 15 16.25H17C17.9642 16.25 18.75 17.0358 18.75 18V21.25H19C19.8844 21.25 20.41 21.0295 20.7197 20.7197C21.0295 20.41 21.25 19.8844 21.25 19V5C21.25 4.11561 21.0295 3.59001 20.7197 3.28027C20.41 2.97053 19.8844 2.75 19 2.75H13ZM15 17.75C14.8642 17.75 14.75 17.8642 14.75 18V21.25H17.25V18C17.25 17.8642 17.1358 17.75 17 17.75H15ZM7 4.75C6.31421 4.75 5.75 5.31421 5.75 6V7.25H9.25V5C9.25 4.91637 9.25181 4.83301 9.25488 4.75H7Z" fill="#292D32"/>
</svg>
