<svg width="24" height="24" viewBox="0 0 24 24" fill="none" xmlns="http://www.w3.org/2000/svg">
<path d="M21.25 13C21.25 8.44365 17.5563 4.75 13 4.75C8.7484 4.75 5.20054 7.96372 4.74512 12.082C4.69962 12.4936 4.32954 12.7904 3.91797 12.7451C3.50637 12.6996 3.20957 12.3295 3.25488 11.918C3.7945 7.03654 7.98661 3.25 13 3.25C18.3848 3.25 22.75 7.61522 22.75 13C22.75 18.3848 18.3848 22.75 13 22.75H2C1.58579 22.75 1.25 22.4142 1.25 22C1.25 21.5858 1.58579 21.25 2 21.25H13C17.5563 21.25 21.25 17.5563 21.25 13Z" fill="#001F3E"/>
<path d="M4.96973 3.96973C5.26262 3.67683 5.73738 3.67683 6.03027 3.96973L7.03027 4.96973C7.32317 5.26262 7.32317 5.73738 7.03027 6.03027C6.73738 6.32317 6.26262 6.32317 5.96973 6.03027L4.96973 5.03027C4.67683 4.73738 4.67683 4.26262 4.96973 3.96973ZM18.9697 3.96973C19.2626 3.67683 19.7374 3.67683 20.0303 3.96973C20.3232 4.26262 20.3232 4.73738 20.0303 5.03027L19.0303 6.03027C18.7374 6.32317 18.2626 6.32317 17.9697 6.03027C17.6768 5.73738 17.6768 5.26262 17.9697 4.96973L18.9697 3.96973Z" fill="#001F3E"/>
<path d="M13.2501 13C13.2501 12.7927 13.1669 12.6063 13.0304 12.4698C12.8939 12.3332 12.7074 12.25 12.5001 12.25C12.0859 12.25 11.7501 12.5858 11.7501 13C11.7501 13.4142 12.0859 13.75 12.5001 13.75C12.9143 13.75 13.2501 13.4142 13.2501 13ZM14.7501 13C14.7501 14.2427 13.7428 15.25 12.5001 15.25C11.2575 15.25 10.2501 14.2427 10.2501 13C10.2501 11.7574 11.2575 10.75 12.5001 10.75C12.8467 10.75 13.1745 10.8306 13.4679 10.9707L15.9699 8.46976C16.2627 8.17686 16.7375 8.17686 17.0304 8.46976C17.3233 8.76265 17.3233 9.23741 17.0304 9.5303L14.5284 12.0313C14.6689 12.325 14.7501 12.653 14.7501 13Z" fill="#001F3E"/>
<path d="M11.75 3.5V2C11.75 1.58579 12.0858 1.25 12.5 1.25C12.9142 1.25 13.25 1.58579 13.25 2V3.5C13.25 3.91421 12.9142 4.25 12.5 4.25C12.0858 4.25 11.75 3.91421 11.75 3.5Z" fill="#001F3E"/>
<path d="M14.5 1.25C14.9142 1.25 15.25 1.58579 15.25 2C15.25 2.41421 14.9142 2.75 14.5 2.75H10.5C10.0858 2.75 9.75 2.41421 9.75 2C9.75 1.58579 10.0858 1.25 10.5 1.25H14.5Z" fill="#001F3E"/>
<path d="M5 14.25C5.41421 14.25 5.75 14.5858 5.75 15C5.75 15.4142 5.41421 15.75 5 15.75H2C1.58579 15.75 1.25 15.4142 1.25 15C1.25 14.5858 1.58579 14.25 2 14.25H5Z" fill="#001F3E"/>
<path d="M7 18.25C7.41421 18.25 7.75 18.5858 7.75 19C7.75 19.4142 7.41421 19.75 7 19.75H2C1.58579 19.75 1.25 19.4142 1.25 19C1.25 18.5858 1.58579 18.25 2 18.25H7Z" fill="#001F3E"/>
</svg>
