<svg width="24" height="24" viewBox="0 0 24 24" fill="none" xmlns="http://www.w3.org/2000/svg">
<path fill-rule="evenodd" clip-rule="evenodd" d="M3.09467 3.09467C4.42914 1.7602 6.42603 1.25 9 1.25H13C13.4142 1.25 13.75 1.58579 13.75 2C13.75 2.41421 13.4142 2.75 13 2.75H9C6.57397 2.75 5.07086 3.2398 4.15533 4.15533C3.2398 5.07086 2.75 6.57397 2.75 9V15C2.75 16.1133 2.85315 17.0323 3.05326 17.7893L7.18194 15.0173C8.24502 14.3041 9.75679 14.3761 10.7288 15.2111L10.7351 15.2166L11.0615 15.5035C11.5608 15.9296 12.4033 15.9288 12.9013 15.5011L17.0613 11.9311C18.1224 11.0199 19.7977 11.0197 20.8587 11.9311L21.25 12.2672V10C21.25 9.58579 21.5858 9.25 22 9.25C22.4142 9.25 22.75 9.58579 22.75 10V13.8959C22.75 13.8989 22.75 13.9018 22.75 13.9048V15C22.75 17.574 22.2398 19.5709 20.9053 20.9053C19.5709 22.2398 17.574 22.75 15 22.75H9C6.42603 22.75 4.42914 22.2398 3.09467 20.9053C1.7602 19.5709 1.25 17.574 1.25 15V9C1.25 6.42603 1.7602 4.42914 3.09467 3.09467ZM21.25 14.2445L19.8813 13.0689C19.3824 12.6404 18.5376 12.6404 18.0387 13.0689L13.8787 16.6389C12.8176 17.5501 11.1423 17.5503 10.0813 16.6389L10.0749 16.6334L9.74844 16.3465C9.30001 15.9637 8.53368 15.9168 8.01784 16.2628L3.64344 19.1998C3.79556 19.4417 3.96638 19.6557 4.15533 19.8447C5.07086 20.7602 6.57397 21.25 9 21.25H15C17.426 21.25 18.9291 20.7602 19.8447 19.8447C20.7602 18.9291 21.25 17.426 21.25 15V14.2445Z" fill="#001F3E"/>
<path fill-rule="evenodd" clip-rule="evenodd" d="M6.25 8C6.25 6.48122 7.48122 5.25 9 5.25C10.5188 5.25 11.75 6.48122 11.75 8C11.75 9.51878 10.5188 10.75 9 10.75C7.48122 10.75 6.25 9.51878 6.25 8ZM9 6.75C8.30964 6.75 7.75 7.30964 7.75 8C7.75 8.69036 8.30964 9.25 9 9.25C9.69036 9.25 10.25 8.69036 10.25 8C10.25 7.30964 9.69036 6.75 9 6.75Z" fill="#001F3E"/>
<path fill-rule="evenodd" clip-rule="evenodd" d="M20.0956 1.25973C20.7731 1.19423 21.3943 1.50796 21.9519 2.07106C22.5056 2.62528 22.8132 3.24323 22.748 3.91615C22.6864 4.55046 22.3072 5.04363 21.9505 5.40033L18.3205 9.03033C18.1695 9.18135 17.9836 9.29246 17.8302 9.36656C17.6741 9.44199 17.485 9.51118 17.2972 9.54082L17.287 9.54236L15.8942 9.74276C15.4455 9.80557 14.9869 9.68483 14.6561 9.35408C14.3254 9.02333 14.2046 8.56471 14.2675 8.11601L14.2679 8.11319L14.466 6.7358C14.4907 6.52167 14.5675 6.32097 14.6444 6.16709C14.725 6.00595 14.8384 5.83117 14.9799 5.68967L18.0726 2.5969C18.0839 2.58487 18.0956 2.57318 18.1077 2.56187L18.6099 2.05967C18.9643 1.70525 19.458 1.32136 20.0956 1.25973ZM16.0417 6.74915L18.3885 4.40238C18.7031 4.89112 19.1201 5.30658 19.6101 5.61945L17.2645 7.9651C17.2623 7.9668 17.2573 7.97059 17.2488 7.97615C17.2312 7.98783 17.2068 8.00187 17.1777 8.01594C17.1487 8.02993 17.1205 8.04135 17.0964 8.04945C17.0776 8.0558 17.0665 8.05839 17.0634 8.05908L15.7642 8.24602L15.9526 6.93681C15.9537 6.92918 15.9546 6.92154 15.9555 6.91387C15.9561 6.91159 15.9572 6.90776 15.9589 6.90236C15.9643 6.88587 15.9733 6.86342 15.986 6.83791C15.9987 6.81255 16.0124 6.78959 16.0249 6.77149C16.0341 6.75804 16.0404 6.75074 16.0417 6.74915ZM20.8899 4.33967L20.7125 4.51705C20.1754 4.26741 19.7422 3.83672 19.4894 3.30147L19.6705 3.12033C19.9461 2.84475 20.1274 2.76364 20.2399 2.75277C20.3117 2.74583 20.5151 2.75151 20.887 3.12749L20.8899 3.13033C21.2553 3.49576 21.2621 3.69734 21.255 3.77135C21.244 3.88454 21.1632 4.06637 20.8899 4.33967Z" fill="#001F3E"/>
</svg>
