<svg width="24" height="24" viewBox="0 0 24 24" fill="none" xmlns="http://www.w3.org/2000/svg">
<path d="M12.0001 1.90057C12.3799 1.90083 12.6874 2.20828 12.6876 2.58807C12.6876 2.96803 12.38 3.27629 12.0001 3.27655C10.2747 3.27655 8.5871 3.78867 7.15247 4.74725C4.25046 6.68659 2.7626 10.279 3.44348 13.7023C4.12447 17.1259 6.87437 19.8758 10.298 20.5568C15.6189 21.615 20.7238 17.3646 20.7238 12.0002C20.724 11.6202 21.0322 11.3127 21.4122 11.3127C21.792 11.3129 22.0995 11.6204 22.0997 12.0002C22.0997 18.2133 16.1929 23.1322 10.0294 21.9064C6.06483 21.1178 2.8815 17.9356 2.0929 13.9709C1.30441 10.0065 3.02705 5.84853 6.38782 3.60272C8.04881 2.49288 10.0024 1.90057 12.0001 1.90057Z" fill="#001F3E" stroke="#001F3E" stroke-width="0.2"/>
<path d="M12.0001 1.79999C12.4351 1.80024 12.788 2.15305 12.7882 2.58807C12.7882 3.02327 12.4353 3.37688 12.0001 3.37714C10.2945 3.37714 8.62634 3.88266 7.20815 4.83026C4.33971 6.74708 2.8682 10.2991 3.54116 13.6828C4.21425 17.0667 6.93359 19.786 10.3175 20.4592C15.5761 21.5049 20.6232 17.302 20.6232 12.0002C20.6234 11.565 20.977 11.2121 21.4123 11.2121C21.8473 11.2124 22.2001 11.5652 22.2003 12.0002C22.2003 18.2758 16.2357 23.2432 10.0099 22.0051C6.00565 21.2085 2.79176 17.9948 1.99526 13.9904C1.19884 9.98641 2.93784 5.78804 6.33218 3.51971C8.00962 2.39888 9.98264 1.79999 12.0001 1.79999ZM12.0001 2.00018C10.0222 2.00018 8.08805 2.58688 6.4435 3.68573C3.11625 5.90907 1.4109 10.0266 2.19155 13.9514C2.97227 17.8764 6.12405 21.028 10.049 21.8088C16.1501 23.0221 22.0001 18.1507 22.0001 12.0002C21.9999 11.6756 21.7368 11.4125 21.4123 11.4123C21.0875 11.4123 20.8236 11.6755 20.8234 12.0002C20.8234 17.4272 15.6617 21.7252 10.2785 20.6545C6.8152 19.9656 4.03375 17.1851 3.34487 13.7219C2.6561 10.2587 4.1619 6.62597 7.0978 4.66425C8.54886 3.69472 10.255 3.17694 12.0001 3.17694C12.3248 3.17668 12.588 2.9128 12.588 2.58807C12.5878 2.26351 12.3247 2.00044 12.0001 2.00018Z" fill="#001F3E"/>
<path d="M22.1926 4.7489C22.4612 5.01757 22.4612 5.45282 22.1926 5.72156L19.8391 8.07507C19.5704 8.34344 19.1351 8.34352 18.8665 8.07507C18.5977 7.80637 18.5977 7.37024 18.8665 7.10144L20.1067 5.86121L16.4114 5.86121C16.0315 5.86108 15.7231 5.55353 15.7229 5.17371C15.7229 4.79367 16.0314 4.48536 16.4114 4.48523L19.9827 4.48523L18.8665 3.36902C18.5977 3.10032 18.5977 2.66418 18.8665 2.39539C19.1352 2.1268 19.5703 2.12688 19.8391 2.39539L22.1926 4.7489Z" fill="#001F3E" stroke="#001F3E" stroke-width="0.2"/>
<path d="M20.3477 5.76148L18.9366 7.17164C18.7356 7.37271 18.7106 7.68359 18.8614 7.91187L18.9366 8.00367C19.1376 8.20473 19.4485 8.23068 19.6768 8.07984L19.7686 8.00367L22.1221 5.65113C22.3517 5.42143 22.3516 5.0487 22.1221 4.8191L19.7686 2.46559L19.6768 2.39039C19.4485 2.23952 19.1377 2.26462 18.9366 2.46559C18.7356 2.66665 18.7106 2.97753 18.8614 3.20582L18.9366 3.29762L20.2237 4.58473L16.4112 4.58473L16.293 4.59644C16.0632 4.64339 15.8821 4.82466 15.835 5.05445L15.8233 5.17359C15.8235 5.45774 16.025 5.69502 16.293 5.74976L16.4112 5.76148L20.3477 5.76148ZM16.4112 5.96168C15.9761 5.96155 15.6234 5.60864 15.6231 5.17359C15.6231 4.73834 15.976 4.38466 16.4112 4.38453L19.7403 4.38453L18.795 3.43922C18.4875 3.13154 18.4876 2.63274 18.795 2.32496C19.1028 2.01709 19.6024 2.01709 19.9102 2.32496L22.2628 4.6775C22.5707 4.98527 22.5706 5.48489 22.2628 5.79273L19.9102 8.14527C19.6024 8.45315 19.1028 8.45315 18.795 8.14527C18.4875 7.8376 18.4876 7.33879 18.795 7.03102L19.8643 5.96168L16.4112 5.96168Z" fill="#001F3E"/>
<path d="M12.3516 8C12.7809 8 13.1297 8.348 13.1299 8.77734V8.82422C14.3014 8.8847 15.2031 9.87264 15.2031 11.0488C15.2029 11.4782 14.8542 11.8262 14.4248 11.8262C13.9956 11.826 13.6476 11.478 13.6475 11.0488C13.6475 10.6578 13.3502 10.3817 13.0293 10.375H11.4805C11.2841 10.375 11.0557 10.5583 11.0557 10.8623C11.0557 11.1232 11.1106 11.1922 11.1162 11.1992C11.1283 11.2145 11.1738 11.2631 11.3652 11.3311L13.8604 12.2041C14.1601 12.3125 14.5254 12.4877 14.8008 12.8398C15.0836 13.2017 15.1924 13.6471 15.1924 14.1387C15.1922 15.224 14.3426 16.1807 13.2119 16.1807H13.1299V16.2227C13.1297 16.652 12.7809 17 12.3516 17C11.9223 16.9998 11.5744 16.6519 11.5742 16.2227V16.1758C10.3922 16.1303 9.50021 15.1154 9.5 13.9521C9.5 13.5228 9.848 13.174 10.2773 13.1738C10.7068 13.1738 11.0557 13.5227 11.0557 13.9521C11.0559 14.3581 11.3656 14.6257 11.6562 14.626H13.2119C13.4082 14.626 13.6366 14.4425 13.6367 14.1387C13.6367 13.8777 13.5817 13.807 13.5752 13.7988C13.5629 13.7832 13.5194 13.7351 13.335 13.668L10.8477 12.7979C10.5432 12.69 10.1738 12.515 9.89551 12.1621C9.60936 11.7992 9.50007 11.3534 9.5 10.8623C9.5 9.77685 10.3496 8.81934 11.4805 8.81934H11.5742V8.77734C11.5744 8.3481 11.9223 8.00017 12.3516 8Z" fill="#001F3E"/>
</svg>
