<svg width="24" height="24" viewBox="0 0 24 24" fill="none" xmlns="http://www.w3.org/2000/svg">
<path fill-rule="evenodd" clip-rule="evenodd" d="M12.0009 7.25004C12.6573 7.25004 13.0958 7.73824 13.3309 8.21043L13.3313 8.21123L13.9898 9.5281C13.9933 9.53126 13.9975 9.53475 14.0023 9.53829C14.0073 9.54196 14.0122 9.54517 14.0166 9.5478L14.0184 9.54888L15.2074 9.74643C15.725 9.83269 16.3025 10.1099 16.4989 10.721C16.6957 11.3333 16.3864 11.8947 16.0133 12.2657L16.0123 12.2667L15.0892 13.1897L15.089 13.1903C15.0871 13.1949 15.0852 13.2004 15.0835 13.2064C15.0818 13.2124 15.0805 13.2182 15.0796 13.2234L15.0791 13.226L15.3431 14.3672C15.4642 14.8929 15.4797 15.6415 14.8928 16.0694C14.3071 16.4963 13.5993 16.2551 13.1347 15.9807L12.0201 15.3208C12.0151 15.3203 12.0092 15.3199 12.0028 15.3199C11.9964 15.3199 11.9904 15.3203 11.985 15.3209L11.982 15.3213L10.8687 15.9803C10.4023 16.2569 9.69583 16.4944 9.11118 16.0678C8.52569 15.6406 8.53775 14.8944 8.65987 14.3666L8.92364 13.226L8.92321 13.2234C8.92231 13.2182 8.92101 13.2124 8.91928 13.2064C8.91755 13.2004 8.91563 13.1949 8.91376 13.1903L8.91354 13.1897L7.98868 12.2649C7.61785 11.894 7.30971 11.3335 7.50484 10.7224C7.7002 10.1106 8.27703 9.83281 8.79533 9.74643L9.9804 9.54954L9.98126 9.54902C9.98571 9.54635 9.99064 9.54309 9.9957 9.53933C10.0008 9.53558 10.0053 9.53179 10.009 9.52844L10.6683 8.20982L10.669 8.20842C10.9059 7.73712 11.3455 7.25004 12.0009 7.25004ZM11.3412 10.2182L11.9995 8.90165L12.6578 10.2182C12.7708 10.4472 12.9476 10.6242 13.1117 10.7453C13.2771 10.8673 13.4977 10.9828 13.7468 11.0243L14.9358 11.2219L14.0096 12.1481C13.8172 12.3404 13.7023 12.581 13.6414 12.7936C13.5805 13.0065 13.5514 13.2694 13.6101 13.5313L13.6113 13.5363L13.8748 14.6757L12.7604 14.016L12.7602 14.0159C12.5136 13.8698 12.2367 13.8199 12.0028 13.8199C11.7681 13.8199 11.4931 13.8701 11.2474 14.013L11.2425 14.0159L10.128 14.6757L10.3915 13.5363L10.3926 13.5313C10.4513 13.2694 10.4223 13.0065 10.3614 12.7936C10.3005 12.581 10.1855 12.3404 9.9932 12.1481L9.06698 11.2219L10.2556 11.0244L10.2583 11.0239C10.5062 10.9818 10.7255 10.8655 10.8891 10.7443C11.0518 10.6236 11.2283 10.4469 11.3412 10.2182Z" fill="#001F3E"/>
<path fill-rule="evenodd" clip-rule="evenodd" d="M7.00012 3.25C5.00548 3.25 3.4583 3.48116 2.46979 4.46967C1.48129 5.45818 1.25012 7.00536 1.25012 9V9.5C1.25012 9.91421 1.58591 10.25 2.00012 10.25C2.96591 10.25 3.75012 11.0342 3.75012 12C3.75012 12.9658 2.96591 13.75 2.00012 13.75C1.58591 13.75 1.25012 14.0858 1.25012 14.5V15C1.25012 16.9946 1.48129 18.5418 2.46979 19.5303C3.4583 20.5188 5.00548 20.75 7.00012 20.75H17.0001C18.9948 20.75 20.5419 20.5188 21.5305 19.5303C22.519 18.5418 22.7501 16.9946 22.7501 15C22.7501 14.5858 22.4143 14.25 22.0001 14.25C21.0343 14.25 20.2501 13.4658 20.2501 12.5C20.2501 11.5342 21.0343 10.75 22.0001 10.75C22.4143 10.75 22.7501 10.4142 22.7501 10V9C22.7501 7.00536 22.519 5.45818 21.5305 4.46967C20.5419 3.48116 18.9948 3.25 17.0001 3.25H7.00012ZM5.25012 12C5.25012 10.4641 4.18336 9.17622 2.75073 8.8372C2.76507 6.94265 3.033 6.02778 3.53045 5.53033C4.04195 5.01884 4.99476 4.75 7.00012 4.75H17.0001C19.0055 4.75 19.9583 5.01884 20.4698 5.53033C20.9813 6.04182 21.2501 6.99464 21.2501 9V9.33706C19.8172 9.67586 18.7501 10.9639 18.7501 12.5C18.7501 14.0322 19.8117 15.3176 21.2392 15.6603C21.184 17.2218 20.9216 18.0179 20.4698 18.4697C19.9583 18.9812 19.0055 19.25 17.0001 19.25H7.00012C4.99476 19.25 4.04195 18.9812 3.53045 18.4697C3.033 17.9722 2.76507 17.0573 2.75073 15.1628C4.18336 14.8238 5.25012 13.5359 5.25012 12Z" fill="#001F3E"/>
</svg>
