<svg width="24" height="24" viewBox="0 0 24 24" fill="none" xmlns="http://www.w3.org/2000/svg">
<path d="M2.74988 7C2.74988 4.99464 3.01871 4.04182 3.53021 3.53033C4.0417 3.01884 4.99452 2.75 6.99988 2.75H8.49988C9.18495 2.75 9.48657 2.85228 9.66242 2.95792C9.85602 3.07422 9.99701 3.24615 10.2999 3.65001L11.7999 5.65001L11.8028 5.65382L11.8341 5.69522C12.0014 5.91641 12.2294 6.21778 12.5794 6.42938C12.9716 6.66638 13.4322 6.75 13.9999 6.75H16.9999C19.0052 6.75 19.9581 7.01884 20.4695 7.53033C20.981 8.04182 21.2499 8.99464 21.2499 11V13C21.2499 13.4142 21.5857 13.75 21.9999 13.75C22.4141 13.75 22.7499 13.4142 22.7499 13V11C22.7499 9.00536 22.5187 7.45818 21.5302 6.46967C20.5417 5.48116 18.9945 5.25 16.9999 5.25H13.9999C13.5676 5.25 13.4182 5.18362 13.3553 5.14564C13.273 5.09588 13.2073 5.02287 12.9985 4.74817L11.467 2.70608C11.2073 2.35917 10.9038 1.95382 10.4349 1.67209C9.9282 1.36773 9.31481 1.25 8.49988 1.25H6.99988C5.00524 1.25 3.45805 1.48116 2.46955 2.46967C1.48104 3.45818 1.24988 5.00536 1.24988 7V17C1.24988 18.9946 1.48104 20.5418 2.46955 21.5303C3.45805 22.5188 5.00524 22.75 6.99988 22.75H8.99988C9.41409 22.75 9.74988 22.4142 9.74988 22C9.74988 21.5858 9.41409 21.25 8.99988 21.25H6.99988C4.99452 21.25 4.0417 20.9812 3.53021 20.4697C3.01871 19.9582 2.74988 19.0054 2.74988 17V7Z" fill="#001F3E"/>
<path fill-rule="evenodd" clip-rule="evenodd" d="M18.6343 13.7598C19.4463 14.2364 20.0714 15.0356 20.3694 16.1378C22.7789 16.8554 23.6266 20.1756 21.6402 21.9188C21.0082 22.4959 20.1686 22.81 19.3199 22.81H13.7599C13.7419 22.81 13.7238 22.8094 13.7058 22.8081C10.7425 22.5937 10.4582 18.6813 12.8528 17.7572C12.6809 16.7798 12.8508 15.8939 13.2793 15.162C13.8151 14.2467 14.7144 13.642 15.6772 13.3895C16.64 13.1371 17.7199 13.2231 18.6343 13.7598ZM14.0327 19.0361C13.9294 19.0731 13.8234 19.0861 13.7207 19.0779C12.4004 19.2602 12.4234 21.1887 13.7898 21.31H19.3199C19.8081 21.31 20.2854 21.1265 20.6326 20.8076L20.6468 20.795C21.8096 19.7801 21.1726 17.7041 19.6473 17.5143C19.3179 17.4733 19.0545 17.2206 19.0001 16.8931C18.8376 15.9159 18.3834 15.3518 17.8749 15.0534C17.3487 14.7445 16.6873 14.6754 16.0576 14.8405C15.428 15.0056 14.8835 15.3908 14.5737 15.9199C14.2744 16.4312 14.153 17.1466 14.4861 18.0773C14.6257 18.4673 14.4227 18.8966 14.0327 19.0361Z" fill="#001F3E"/>
</svg>
