<svg width="24" height="24" viewBox="0 0 24 24" fill="none" xmlns="http://www.w3.org/2000/svg">
<path fill-rule="evenodd" clip-rule="evenodd" d="M12 2C17.5228 2 22 6.47715 22 12C22 17.5228 17.5228 22 12 22C6.47715 22 2 17.5228 2 12C2 6.47715 6.47715 2 12 2ZM13.8496 7.875C13.6684 7.69375 13.3678 7.69375 13.1865 7.875C13.0053 8.05626 13.0053 8.35685 13.1865 8.53809L16.1807 11.5312H6.6875C6.43132 11.5312 6.21886 11.7438 6.21875 12C6.21878 12.2562 6.43127 12.4688 6.6875 12.4688H16.1807L13.1865 15.4629C13.0056 15.6441 13.0055 15.9438 13.1865 16.125C13.2802 16.2186 13.399 16.2626 13.5176 16.2627C13.6363 16.2627 13.7559 16.2187 13.8496 16.125L17.6426 12.3311C17.8238 12.1498 17.8238 11.8502 17.6426 11.6689L13.8496 7.875Z" fill="#001F3E"/>
</svg>
