<svg width="24" height="24" viewBox="0 0 24 24" fill="none" xmlns="http://www.w3.org/2000/svg">
<path fill-rule="evenodd" clip-rule="evenodd" d="M12.0207 4.25H12.0268C12.9182 4.25 14.2768 4.25 15.6279 4.33069C16.9562 4.41003 18.3755 4.57145 19.338 4.93271C19.3773 4.94748 19.4154 4.96552 19.4517 4.98666C20.9133 5.83733 21.6715 7.50616 22.0789 9.14672C22.4937 10.8167 22.5898 12.6395 22.5898 14.0346C22.5898 15.0026 22.3459 15.9281 22.1264 16.7293C21.8491 17.7417 20.9466 18.4877 19.8808 18.535C19.3938 18.5566 18.9011 18.5799 18.4038 18.6034L18.1298 18.6163C17.7466 19.7115 16.7041 20.4971 15.4782 20.4971C14.3207 20.4971 13.3269 19.7969 12.8969 18.7971C12.599 18.8006 12.2999 18.8025 11.9997 18.8025C11.1442 18.8025 10.2979 18.7871 9.46257 18.7627C9.0408 19.7808 8.03746 20.4971 6.86682 20.4971C5.61185 20.4971 4.54914 19.6739 4.18913 18.5381L4.11857 18.535C3.02065 18.4863 2.27763 17.9866 1.85918 17.224C1.47913 16.5315 1.40951 15.6975 1.40951 15.015V12.5739C1.40935 12.5676 1.40927 12.5613 1.40927 12.5549C1.40927 12.5486 1.40935 12.5422 1.40951 12.5359V8.09523C1.40951 7.06143 1.92767 6.23201 2.52607 5.6613C3.11639 5.0983 3.85638 4.71555 4.47232 4.59199C5.27737 4.43048 6.74487 4.34849 8.17526 4.30381C9.62992 4.25836 11.1227 4.25 12.0207 4.25ZM2.90951 11.8049V8.09523C2.90951 7.59132 3.1602 7.12933 3.56131 6.74679C3.97049 6.35654 4.46068 6.12421 4.76737 6.06268C5.42748 5.93025 6.76569 5.84857 8.2221 5.80308C9.65423 5.75834 11.1293 5.75 12.0207 5.75C12.9158 5.75 14.2351 5.75018 15.5384 5.82803C16.8315 5.90526 18.016 6.05503 18.7506 6.31507C19.6435 6.865 20.2512 8.01045 20.6232 9.50825C20.8073 10.2496 20.9234 11.0363 20.9938 11.8049H16.1337V8.40308C16.1337 7.98886 15.7979 7.65308 15.3837 7.65308C14.9695 7.65308 14.6337 7.98886 14.6337 8.40308V11.8049H8.59884V8.40308C8.59884 7.98886 8.26305 7.65308 7.84884 7.65308C7.43463 7.65308 7.09884 7.98886 7.09884 8.40308V11.8049H2.90951ZM21.0803 13.3049C21.087 13.5565 21.0898 13.8007 21.0898 14.0346C21.0898 14.7751 20.9027 15.5191 20.6797 16.3329C20.5699 16.7339 20.2126 17.0188 19.8143 17.0364C19.3249 17.0581 18.8312 17.0815 18.3344 17.105L18.227 17.1101C17.9603 15.8366 16.8309 14.8801 15.4782 14.8801C14.0592 14.8801 12.8861 15.9324 12.6965 17.2991C12.4647 17.3013 12.2324 17.3025 11.9997 17.3025C11.2085 17.3025 10.423 17.2891 9.6439 17.2673C9.44062 15.9161 8.2747 14.8801 6.86682 14.8801C5.54124 14.8801 4.43015 15.7985 4.13512 17.0337C3.56499 16.9967 3.32167 16.7712 3.17419 16.5024C2.98408 16.156 2.90951 15.6424 2.90951 15.015V13.3049H21.0732C21.0756 13.3049 21.0779 13.3049 21.0803 13.3049ZM16.7866 17.6886C16.7866 16.9659 16.2008 16.3801 15.4782 16.3801C14.7555 16.3801 14.1697 16.9659 14.1697 17.6886C14.1697 18.4112 14.7555 18.9971 15.4782 18.9971C16.2008 18.9971 16.7866 18.4112 16.7866 17.6886ZM6.86682 16.3801C7.58947 16.3801 8.17529 16.9659 8.17529 17.6886C8.17529 18.4112 7.58947 18.9971 6.86682 18.9971C6.14418 18.9971 5.55835 18.4112 5.55835 17.6886C5.55835 16.9659 6.14418 16.3801 6.86682 16.3801Z" fill="#001F3E"/>
</svg>
