<svg width="24" height="24" viewBox="0 0 24 24" fill="none" xmlns="http://www.w3.org/2000/svg">
<path fill-rule="evenodd" clip-rule="evenodd" d="M21.6507 11.315C23.2041 13.6587 23.2022 17.1006 20.7725 19.2381C19.6436 20.2728 18.1639 20.8406 16.6288 20.83H5.54141C5.52324 20.83 5.50508 20.8293 5.48695 20.828C0.204783 20.4434 -0.111167 13.127 4.61851 11.9854C4.18422 10.2916 4.30466 8.75596 4.83909 7.44908C5.46018 5.9303 6.6163 4.77933 7.98085 4.06441C10.4815 2.75426 13.8284 2.8533 16.0664 4.99952C16.752 4.52454 17.5844 4.25 18.4715 4.25C20.8157 4.25 22.7215 6.15579 22.7215 8.5C22.7215 9.5747 22.3201 10.5641 21.6507 11.315ZM6.14848 11.8917C5.69503 10.3593 5.80093 9.05994 6.22749 8.01685C6.6989 6.86407 7.58653 5.96441 8.67698 5.39309C10.8633 4.24761 13.6939 4.4866 15.3692 6.44356C15.3847 6.46771 15.4015 6.49105 15.4197 6.51345C15.9111 7.11709 16.3191 7.89415 16.5746 8.87182C16.209 8.95391 15.8535 9.08037 15.5158 9.24919C15.1453 9.43443 14.9952 9.88494 15.1804 10.2554C15.3657 10.6259 15.8162 10.7761 16.1866 10.5908C16.6067 10.3808 17.0666 10.268 17.5342 10.2599L17.5494 10.2595C17.8191 10.3047 18.0757 10.3733 18.3187 10.4628C19.0233 10.7225 19.6135 11.1584 20.0763 11.7114L20.0787 11.7142C21.6141 13.5304 21.6949 16.4336 19.7768 18.1162L19.7639 18.1278C18.9143 18.9087 17.7979 19.3386 16.637 19.33H5.56988C1.85136 19.0343 1.86251 13.6443 5.56983 13.35H5.58549C6.05065 13.3591 6.50796 13.4718 6.9259 13.6808C7.29638 13.866 7.74689 13.7159 7.93213 13.3454C8.11737 12.9749 7.96721 12.5244 7.59672 12.3392C7.14024 12.1109 6.6511 11.9601 6.14848 11.8917ZM18.5799 8.96735C19.3766 9.21807 20.0753 9.63131 20.6606 10.1602C21.0141 9.69878 21.2215 9.12225 21.2215 8.5C21.2215 6.98421 19.9873 5.75 18.4715 5.75C17.9397 5.75 17.4405 5.90205 17.0198 6.16694C17.5061 6.91683 17.8813 7.80735 18.1099 8.84116C18.2701 8.877 18.4268 8.91918 18.5799 8.96735Z" fill="#001F3E"/>
</svg>
