<svg width="24" height="24" viewBox="0 0 24 24" fill="none" xmlns="http://www.w3.org/2000/svg">
<path d="M11.727 11.436C14.8001 11.4206 17.7968 11.2399 19.2685 10.1696C20.8178 9.0428 20.2544 4.95828 17.1558 5.66251C18.1418 2.42309 14.0573 0.732895 11.8037 3.12725C9.55021 0.732895 5.31214 2.42309 6.29805 5.66251C3.19946 4.95828 2.63608 9.0428 4.18538 10.1696C5.65707 11.2399 8.65381 11.4206 11.727 11.436Z" fill="#001F3E"/>
<path d="M17.8605 19.0427C18.2955 18.0859 18.5905 14.3486 18.7456 12.0001C18.2158 12.2818 16.8183 12.9015 15.4661 13.1268C15.4661 14.6761 14.8451 20.9556 14 22.0001C15.7948 21.7332 17.2456 20.3956 17.8605 19.0427Z" fill="#001F3E"/>
<path d="M5.60729 19.0427C5.19802 18.1423 4.91297 14.5726 4.75146 12.2957C5.53305 12.4835 7.27736 12.8873 8.00199 12.9999C8.00199 14.5492 8.15508 20.764 9.00015 21.9999C7.39833 21.6604 6.18911 20.3227 5.60729 19.0427Z" fill="#001F3E"/>
<path d="M13.3542 12.9999H9.69218C9.69218 15.7042 10.1613 20.487 10.3961 21.9999H12.6496C12.7904 21.1865 13.3542 14.9718 13.3542 12.9999Z" fill="#001F3E"/>
</svg>
