<svg width="24" height="24" viewBox="0 0 24 24" fill="none" xmlns="http://www.w3.org/2000/svg">
<path fill-rule="evenodd" clip-rule="evenodd" d="M7.96392 4.36008C5.76694 3.09385 3.00964 4.66954 3.00964 7.21999V16.79C3.00964 19.328 5.76499 20.9175 7.9642 19.6498L12.1151 17.2592L16.2642 14.8598L16.2645 14.8596C18.4646 13.591 18.4647 10.4193 16.2648 9.15057L16.2642 9.15021L12.1151 6.75074L7.96392 4.36008ZM4.50964 7.21999C4.50964 5.83055 6.01208 4.96629 7.21506 5.65977L15.5151 10.4497C16.7145 11.1412 16.7145 12.8688 15.5151 13.5602L11.3642 15.9607L7.21506 18.3502C6.01427 19.0424 4.50964 18.172 4.50964 16.79V7.21999Z" fill="#001F3E"/>
<path d="M20.9896 5.82001C20.9896 5.4058 20.6538 5.07001 20.2396 5.07001C19.8254 5.07001 19.4896 5.4058 19.4896 5.82001V18.18C19.4896 18.5942 19.8254 18.93 20.2396 18.93C20.6538 18.93 20.9896 18.5942 20.9896 18.18V5.82001Z" fill="#001F3E"/>
</svg>
