<svg width="24" height="24" viewBox="0 0 24 24" fill="none" xmlns="http://www.w3.org/2000/svg">
<path d="M8.07082 3.60348C8.40029 3.56799 8.69614 3.8063 8.73163 4.13577C8.76712 4.46523 8.52881 4.76109 8.19934 4.79658C7.75524 4.84441 7.31466 4.89549 6.87535 4.94643L6.7848 4.95692C5.82545 5.06811 5.05928 5.8351 4.95181 6.79231C4.89951 7.25817 4.84711 7.72578 4.79844 8.19716C4.7644 8.52678 4.46961 8.76639 4.13999 8.73236C3.81037 8.69833 3.57075 8.40353 3.60478 8.07391C3.65408 7.59642 3.70707 7.12367 3.75931 6.65842C3.92938 5.14355 5.13493 3.94011 6.64665 3.7649L6.73818 3.75429C7.17649 3.70347 7.62167 3.65186 8.07082 3.60348Z" fill="#001F3E"/>
<path d="M15.942 3.60348C15.6126 3.56799 15.3167 3.8063 15.2812 4.13577C15.2457 4.46523 15.484 4.76109 15.8135 4.79658C16.2575 4.84441 16.698 4.89548 17.1373 4.9464L17.228 4.95692C18.1874 5.06811 18.9536 5.8351 19.061 6.79231C19.1133 7.25817 19.1657 7.72578 19.2144 8.19716C19.2484 8.52678 19.5432 8.76639 19.8729 8.73236C20.2025 8.69833 20.4421 8.40353 20.4081 8.07391C20.3588 7.59642 20.3058 7.12367 20.2535 6.65842C20.0835 5.14355 18.8779 3.94011 17.3662 3.7649L17.2747 3.75429C16.8363 3.70347 16.3912 3.65186 15.942 3.60348Z" fill="#001F3E"/>
<path d="M15.2812 19.8643C15.3167 20.1937 15.6126 20.432 15.942 20.3965C16.391 20.3482 16.836 20.2966 17.2741 20.2458L17.3662 20.2351C18.8779 20.0599 20.0835 18.8565 20.2535 17.3416C20.3058 16.8764 20.3588 16.4036 20.4081 15.9261C20.4421 15.5965 20.2025 15.3017 19.8729 15.2677C19.5432 15.2336 19.2484 15.4732 19.2144 15.8029C19.1657 16.2742 19.1133 16.7419 19.061 17.2077C18.9536 18.1649 18.1874 18.9319 17.228 19.0431L17.1375 19.0536L17.1369 19.0537C16.6979 19.1046 16.2573 19.1556 15.8135 19.2035C15.484 19.2389 15.2457 19.5348 15.2812 19.8643Z" fill="#001F3E"/>
<path d="M8.73163 19.8643C8.69614 20.1937 8.40029 20.432 8.07082 20.3965C7.62171 20.3482 7.17659 20.2966 6.73832 20.2457L6.64665 20.2351C5.13493 20.0599 3.92938 18.8565 3.75931 17.3416C3.70707 16.8764 3.65408 16.4036 3.60478 15.9261C3.57075 15.5965 3.81037 15.3017 4.13999 15.2677C4.46961 15.2336 4.7644 15.4732 4.79844 15.8029C4.84711 16.2742 4.89951 16.7419 4.95181 17.2077C5.05928 18.1649 5.82545 18.9319 6.7848 19.0431L6.87535 19.0536L6.87599 19.0537C7.31508 19.1046 7.75545 19.1556 8.19934 19.2035C8.52881 19.2389 8.76712 19.5348 8.73163 19.8643Z" fill="#001F3E"/>
<path d="M8 17H6V7H8V17Z" fill="#001F3E"/>
<path d="M10 17H9V7H10V17Z" fill="#001F3E"/>
<path d="M13 17H11V7H13V17Z" fill="#001F3E"/>
<path d="M15 17H14V7H15V17Z" fill="#001F3E"/>
<path d="M18 17H16V7H18V17Z" fill="#001F3E"/>
</svg>
