<svg width="24" height="24" viewBox="0 0 24 24" fill="none" xmlns="http://www.w3.org/2000/svg">
<path d="M3.89481 2.49637C4.84095 1.48504 6.3285 1.25 8.22 1.25H15.78C17.6715 1.25 19.1591 1.48504 20.1052 2.49637C21.0347 3.48991 21.25 5.03645 21.25 7.04001V11.3C21.25 11.7142 20.9142 12.05 20.5 12.05C20.0858 12.05 19.75 11.7142 19.75 11.3V7.04001C19.75 5.01357 19.4953 4.0401 19.0098 3.52114C18.5409 3.01996 17.6685 2.75 15.78 2.75H8.22C6.3315 2.75 5.45906 3.01996 4.99019 3.52114C4.50468 4.0401 4.25 5.01357 4.25 7.04001V18.3C4.25 18.9046 4.33408 19.3385 4.45025 19.6233C4.56542 19.9057 4.68815 19.9904 4.74794 20.0162C4.80225 20.0396 4.92947 20.0686 5.18132 19.9599C5.44052 19.848 5.78163 19.6077 6.18124 19.1788C6.18701 19.1726 6.19289 19.1665 6.19887 19.1605L6.20198 19.1574C7.3393 17.9598 9.1318 18.0578 10.1207 19.381L11.1305 20.7307C11.3787 21.0624 11.311 21.5324 10.9793 21.7805C10.6476 22.0287 10.1776 21.9609 9.92947 21.6293L8.91946 20.2793C8.49066 19.7055 7.78886 19.6606 7.28577 20.1944L7.27113 20.2095L7.26989 20.2108C6.78723 20.7271 6.28513 21.1171 5.77589 21.337C5.25617 21.5614 4.68652 21.6229 4.15457 21.3938C3.62811 21.1671 3.27521 20.7143 3.06131 20.1898C2.84842 19.6677 2.75 19.0254 2.75 18.3V7.04001C2.75 5.03645 2.96532 3.48991 3.89481 2.49637Z" fill="#001F3E"/>
<path d="M7.25 7C7.25 6.58579 7.58579 6.25 8 6.25H16C16.4142 6.25 16.75 6.58579 16.75 7C16.75 7.41421 16.4142 7.75 16 7.75H8C7.58579 7.75 7.25 7.41421 7.25 7Z" fill="#001F3E"/>
<path d="M9 10.25C8.58579 10.25 8.25 10.5858 8.25 11C8.25 11.4142 8.58579 11.75 9 11.75H15C15.4142 11.75 15.75 11.4142 15.75 11C15.75 10.5858 15.4142 10.25 15 10.25H9Z" fill="#001F3E"/>
<path fill-rule="evenodd" clip-rule="evenodd" d="M19.1342 13.4567C19.7974 13.3886 20.4077 13.6865 20.9512 14.23C21.4978 14.7766 21.7992 15.3881 21.7334 16.0529C21.6716 16.6781 21.2988 17.163 20.9512 17.5106L20.5384 17.9234C20.4854 18.001 20.4187 18.0671 20.3427 18.1191L17.4188 21.043C17.2722 21.1966 17.0919 21.3083 16.9438 21.3823C16.7879 21.4603 16.5985 21.531 16.4078 21.5611L16.3954 21.5631L15.0469 21.7528C14.6054 21.8156 14.1494 21.6995 13.8205 21.3706C13.4916 21.0417 13.3754 20.5866 13.4382 20.1451L13.6299 18.7833C13.6605 18.5896 13.7328 18.4013 13.8104 18.248C13.8879 18.0946 13.9982 17.9223 14.1405 17.78L17.1367 14.7837C17.1574 14.7602 17.1797 14.738 17.2033 14.7171L17.6805 14.2399C18.0282 13.8923 18.5121 13.5206 19.1342 13.4567ZM17.4682 16.5735L15.2025 18.8393C15.202 18.8399 15.1964 18.8463 15.1871 18.8598C15.1752 18.877 15.1618 18.8995 15.1488 18.9251C15.1358 18.9508 15.1257 18.9749 15.1188 18.9948C15.1145 19.0072 15.1124 19.0149 15.1117 19.0179L14.9378 20.2533L16.1739 20.0794C16.1771 20.0786 16.1862 20.0763 16.201 20.0712C16.2223 20.0639 16.2474 20.0535 16.2729 20.0407C16.2986 20.0279 16.319 20.0155 16.3326 20.006L16.3399 20.0008L16.3505 19.9899L18.6159 17.7246C18.1574 17.425 17.7665 17.0329 17.4682 16.5735ZM19.7148 16.6257C19.2118 16.3843 18.8073 15.9779 18.5683 15.4735L18.7412 15.3006C19.0035 15.0383 19.1796 14.9599 19.2875 14.9489C19.3543 14.942 19.544 14.9441 19.8905 15.2906C20.2439 15.644 20.2474 15.8375 20.2407 15.9052C20.2301 16.0125 20.1529 16.1876 19.8905 16.45L19.7148 16.6257Z" fill="#001F3E"/>
</svg>
