<svg width="24" height="24" viewBox="0 0 24 24" fill="none" xmlns="http://www.w3.org/2000/svg">
<path d="M3.53033 6.53033C3.01884 7.04182 2.75 7.99464 2.75 10V14C2.75 16.0054 3.01884 16.9582 3.53033 17.4697C4.04182 17.9812 4.99464 18.25 7 18.25C7.41421 18.25 7.75 18.5858 7.75 19C7.75 19.4142 7.41421 19.75 7 19.75C5.00536 19.75 3.45818 19.5188 2.46967 18.5303C1.48116 17.5418 1.25 15.9946 1.25 14V10C1.25 8.00536 1.48116 6.45818 2.46967 5.46967C3.45818 4.48116 5.00536 4.25 7 4.25C7.41421 4.25 7.75 4.58579 7.75 5C7.75 5.41421 7.41421 5.75 7 5.75C4.99464 5.75 4.04182 6.01884 3.53033 6.53033Z" fill="#001F3E"/>
<path d="M10.5981 8.45228C10.8479 8.12186 10.7826 7.6515 10.4522 7.40171C10.1217 7.15191 9.65139 7.21727 9.4016 7.54769L7.5116 10.0477C7.49347 10.0717 7.47681 10.0967 7.46169 10.1227C6.78055 11.2928 7.62152 12.75 8.96987 12.75H11.2699C11.4442 12.75 11.5643 12.9223 11.508 13.0849L9.43011 15.5123C9.16075 15.8269 9.19748 16.3004 9.51215 16.5697C9.82683 16.8391 10.3003 16.8024 10.5696 16.4877L12.7096 13.9877C12.7409 13.9512 12.7685 13.9118 12.7922 13.87C13.4536 12.704 12.6192 11.25 11.2699 11.25H8.96987C8.78848 11.25 8.67214 11.0683 8.74403 10.9048L10.5981 8.45228Z" fill="#001F3E"/>
<path fill-rule="evenodd" clip-rule="evenodd" d="M20.5 8.75C20.0858 8.75 19.75 9.08579 19.75 9.5C19.75 9.91421 20.0858 10.25 20.5 10.25C20.8433 10.25 21.0426 10.2798 21.1541 10.3128C21.182 10.3211 21.2008 10.3284 21.2129 10.3339C21.2181 10.3517 21.2257 10.3839 21.2324 10.4368C21.2488 10.5682 21.25 10.7356 21.25 11V13C21.25 13.2644 21.2488 13.4318 21.2324 13.5632C21.2257 13.6161 21.2181 13.6483 21.2129 13.6661C21.2008 13.6716 21.182 13.6789 21.1541 13.6872C21.0426 13.7202 20.8433 13.75 20.5 13.75C20.0858 13.75 19.75 14.0858 19.75 14.5C19.75 14.9142 20.0858 15.25 20.5 15.25C21.2564 15.25 21.9868 15.1426 22.4125 14.575C22.6168 14.3026 22.6895 13.9997 22.7208 13.7493C22.7501 13.5147 22.75 13.2554 22.75 13.0261V10.9739C22.75 10.7446 22.7501 10.4853 22.7208 10.2507C22.6895 10.0003 22.6168 9.69744 22.4125 9.425C21.9868 8.8574 21.2564 8.75 20.5 8.75ZM21.2279 10.3417C21.2303 10.3431 21.2312 10.3439 21.2311 10.3439L21.2279 10.3417ZM21.2279 13.6583C21.2303 13.6569 21.2312 13.6561 21.2311 13.6561L21.2297 13.6569L21.2279 13.6583Z" fill="#001F3E"/>
<path d="M13 4.25C12.5858 4.25 12.25 4.58579 12.25 5C12.25 5.41421 12.5858 5.75 13 5.75C15.0054 5.75 15.9582 6.01884 16.4697 6.53033C16.9812 7.04182 17.25 7.99464 17.25 10V14C17.25 16.0054 16.9812 16.9582 16.4697 17.4697C15.9582 17.9812 15.0054 18.25 13 18.25C12.5858 18.25 12.25 18.5858 12.25 19C12.25 19.4142 12.5858 19.75 13 19.75C14.9946 19.75 16.5418 19.5188 17.5303 18.5303C18.5188 17.5418 18.75 15.9946 18.75 14V10C18.75 8.00536 18.5188 6.45818 17.5303 5.46967C16.5418 4.48116 14.9946 4.25 13 4.25Z" fill="#001F3E"/>
</svg>
