<svg width="24" height="24" viewBox="0 0 24 24" fill="none" xmlns="http://www.w3.org/2000/svg">
<path d="M5.07856 15.6742C5.26722 15.3055 5.12123 14.8536 4.75248 14.6649C4.38373 14.4763 3.93185 14.6223 3.74319 14.991L1.71775 18.9498C0.82905 20.6868 2.09057 22.7493 4.04171 22.7493L19.9584 22.7493C21.9096 22.7493 23.1711 20.6868 22.2824 18.9498L20.2569 14.991C20.0683 14.6223 19.6164 14.4763 19.2476 14.6649C18.8789 14.8536 18.7329 15.3055 18.9216 15.6742L20.947 19.633C21.325 20.3719 20.7884 21.2493 19.9584 21.2493H4.04171C3.21171 21.2493 2.67508 20.3719 3.05312 19.633L5.07856 15.6742Z" fill="#001F3E"/>
<path d="M12.0466 17.1938L12.4334 17.8363C12.1954 17.9796 11.8977 17.9796 11.6597 17.8363L12.0466 17.1938Z" fill="#001F3E"/>
<path d="M12 9.27127C12.9033 9.27127 13.6356 8.53896 13.6356 7.63561C13.6356 6.73226 12.9033 5.99995 12 5.99995C11.0966 5.99995 10.3643 6.73226 10.3643 7.63561C10.3643 8.53896 11.0966 9.27127 12 9.27127Z" fill="#001F3E"/>
<path fill-rule="evenodd" clip-rule="evenodd" d="M12.0466 17.1938C11.6597 17.8363 11.6597 17.8363 11.6597 17.8363L11.6585 17.8356L11.6568 17.8346L11.6517 17.8314L11.6349 17.8212C11.621 17.8125 11.6014 17.8003 11.5766 17.7846C11.527 17.7531 11.4565 17.7075 11.3681 17.648C11.1914 17.5291 10.9424 17.3545 10.6454 17.1266C10.0523 16.6718 9.26157 16.0002 8.46908 15.1309C6.89287 13.402 5.25006 10.823 5.25006 7.56947C5.25006 5.98725 5.95997 4.12173 7.27883 2.97456C8.55888 1.86114 10.2752 1.25 12.0466 1.25C13.818 1.25 15.5343 1.86114 16.8143 2.97456C18.1332 4.12173 18.8431 5.98725 18.8431 7.56947C18.8431 10.823 17.2003 13.402 15.6241 15.1309C14.8316 16.0002 14.0408 16.6718 13.4478 17.1266C13.1507 17.3545 12.9018 17.5291 12.725 17.648C12.6366 17.7075 12.5661 17.7531 12.5165 17.7846C12.4917 17.8003 12.4722 17.8125 12.4582 17.8212L12.4415 17.8314L12.4363 17.8346L12.4346 17.8356C12.4346 17.8356 12.4334 17.8363 12.0466 17.1938ZM11.5583 15.9364C11.7461 16.0805 11.9115 16.2001 12.0466 16.2945C12.1817 16.2001 12.347 16.0805 12.5349 15.9364C13.0756 15.5217 13.7964 14.9092 14.5156 14.1204C15.9626 12.5331 17.3431 10.3 17.3431 7.56947C17.3431 6.36193 16.7789 4.93181 15.8299 4.10632C14.8421 3.24709 13.4825 2.75 12.0466 2.75C10.6107 2.75 9.25109 3.24709 8.26326 4.10632C7.31423 4.93181 6.75006 6.36193 6.75006 7.56947C6.75006 10.3 8.13051 12.5331 9.57756 14.1204C10.2967 14.9092 11.0175 15.5217 11.5583 15.9364Z" fill="#001F3E"/>
</svg>
