<svg width="24" height="24" viewBox="0 0 24 24" fill="none" xmlns="http://www.w3.org/2000/svg">
<path fill-rule="evenodd" clip-rule="evenodd" d="M11.707 1.25C9.63596 1.25 7.95703 2.92893 7.95703 5C7.95703 6.34137 8.6613 7.51824 9.72024 8.18103C8.7191 8.49696 7.95438 9.04649 7.39238 9.69548C6.52802 10.6936 6.17868 11.8838 6.12098 12.706C6.11975 12.7235 6.11914 12.741 6.11914 12.7585V14.8577C6.11914 15.5481 6.67879 16.1077 7.36914 16.1077H8.09484L8.94228 22.1049C8.99456 22.4749 9.31123 22.75 9.6849 22.75H13.5836C13.9634 22.75 14.2832 22.4661 14.3283 22.089L15.0435 16.1077H15.8272C16.5176 16.1077 17.0772 15.5481 17.0772 14.8577V12.7585L17.0771 12.7454C17.0627 11.923 16.7757 10.7232 15.9542 9.71322C15.4191 9.05529 14.6762 8.5022 13.6889 8.18412C14.7506 7.5219 15.457 6.34345 15.457 5C15.457 2.92893 13.7781 1.25 11.707 1.25ZM9.45703 5C9.45703 3.75736 10.4644 2.75 11.707 2.75C12.9497 2.75 13.957 3.75736 13.957 5C13.957 6.24264 12.9497 7.25 11.707 7.25C10.4644 7.25 9.45703 6.24264 9.45703 5ZM7.61914 14.6077V12.7866C7.6633 12.236 7.9149 11.3835 8.52631 10.6774C9.02412 10.1026 9.78591 9.59355 10.9565 9.44021V14.0581C10.9565 14.4723 11.2923 14.8081 11.7065 14.8081C12.1207 14.8081 12.4565 14.4723 12.4565 14.0581V9.44054C13.6124 9.59376 14.3344 10.0989 14.7905 10.6597C15.3616 11.3618 15.5662 12.216 15.5772 12.7656V14.6077H14.3778C13.9981 14.6077 13.6782 14.8916 13.6331 15.2687L12.918 21.25H10.3364L9.48893 15.2528C9.43665 14.8828 9.11998 14.6077 8.74631 14.6077H7.61914Z" fill="#001F3E"/>
</svg>
