<svg width="24" height="24" viewBox="0 0 24 24" fill="none" xmlns="http://www.w3.org/2000/svg">
<path fill-rule="evenodd" clip-rule="evenodd" d="M16.3369 11.0243C16.6352 10.7259 16.6353 10.2358 16.3369 9.93743L12.543 6.14349C12.2446 5.84545 11.7544 5.84534 11.4561 6.14349L7.66309 9.93743C7.51016 10.0904 7.43755 10.2874 7.4375 10.4814C7.4376 10.6753 7.51023 10.8715 7.66309 11.0243C7.96145 11.3225 8.45066 11.3225 8.74902 11.0243L11.2305 8.54388V17.3124C11.2305 17.7344 11.5771 18.081 11.999 18.081C12.4209 18.0809 12.7676 17.7343 12.7676 17.3124V8.54193L15.25 11.0243C15.5484 11.3228 16.0385 11.3228 16.3369 11.0243Z" fill="#001F3E"/>
</svg>
