<svg width="24" height="24" viewBox="0 0 24 24" fill="none" xmlns="http://www.w3.org/2000/svg">
<path d="M7.46967 7.46955C7.76256 7.17665 8.23744 7.17665 8.53033 7.46955L12 10.9392L15.4697 7.46955C15.7626 7.17665 16.2374 7.17665 16.5303 7.46955C16.8232 7.76244 16.8232 8.23731 16.5303 8.53021L13.0607 11.9999L16.5302 15.4694C16.8231 15.7623 16.8231 16.2372 16.5302 16.53C16.2373 16.8229 15.7624 16.8229 15.4695 16.53L12 13.0605L8.53049 16.53C8.2376 16.8229 7.76273 16.8229 7.46983 16.53C7.17694 16.2372 7.17694 15.7623 7.46983 15.4694L10.9393 11.9999L7.46967 8.53021C7.17678 8.23731 7.17678 7.76244 7.46967 7.46955Z" fill="#001F3E"/>
</svg>
