<svg width="24" height="24" viewBox="0 0 24 24" fill="none" xmlns="http://www.w3.org/2000/svg">
<path fill-rule="evenodd" clip-rule="evenodd" d="M11.3698 5.82473C10.398 5.30399 9.19491 5.86915 9.02632 6.98949C8.76576 8.72113 8.80298 10.9309 9.06469 12.631C9.21915 13.6344 10.2422 14.2686 11.2186 13.9053C12.7806 13.3242 14.0428 12.3991 15.2868 11.2458C16.0132 10.5724 16.0114 9.43066 15.2959 8.75504C14.176 7.69757 12.8794 6.63366 11.3698 5.82473ZM10.5096 7.21269C10.5137 7.18573 10.5221 7.17079 10.5284 7.16223C10.5355 7.15264 10.5452 7.14442 10.5574 7.13843C10.5793 7.12769 10.614 7.12152 10.6613 7.14688C12.0087 7.86886 13.1962 8.83539 14.2661 9.84566C14.3555 9.93005 14.3524 10.0666 14.267 10.1458C13.1008 11.2269 12.0046 12.0125 10.6955 12.4995C10.6573 12.5137 10.628 12.5081 10.6037 12.4936C10.5784 12.4784 10.5546 12.4504 10.5472 12.4028C10.306 10.836 10.2739 8.77922 10.5096 7.21269Z" fill="#001F3E"/>
<path fill-rule="evenodd" clip-rule="evenodd" d="M6.44 1.25C4.66993 1.25 3.26304 1.4538 2.35842 2.35842C1.4538 3.26304 1.25 4.66993 1.25 6.44V12.78C1.25 14.5497 1.45366 15.9573 2.35892 16.8608C3.26422 17.7644 4.67161 17.9649 6.44109 17.96H11.25V21.25H7.5C7.08579 21.25 6.75 21.5858 6.75 22C6.75 22.4142 7.08579 22.75 7.5 22.75H11.9983L12 22.75L12.0017 22.75H16.5C16.9142 22.75 17.25 22.4142 17.25 22C17.25 21.5858 16.9142 21.25 16.5 21.25H12.75V17.96H17.56C19.3286 17.96 20.7361 17.7591 21.6411 16.8558C22.5465 15.9522 22.75 14.5444 22.75 12.77V6.44C22.75 4.67 22.5462 3.26264 21.6398 2.35792C20.7339 1.45371 19.3247 1.25 17.55 1.25H6.44ZM2.75 6.44C2.75 4.66007 2.9912 3.84696 3.41908 3.41908C3.84696 2.9912 4.66007 2.75 6.44 2.75H17.55C19.3353 2.75 20.1511 2.99129 20.5802 3.41958C21.0088 3.84736 21.25 4.66 21.25 6.44V12.77C21.25 14.5556 21.0085 15.3678 20.5814 15.7942C20.1539 16.2209 19.3414 16.46 17.56 16.46L6.44 16.46L6.43789 16.46C4.65785 16.465 3.8456 16.2254 3.41858 15.7992C2.99134 15.3727 2.75 14.5603 2.75 12.78V6.44Z" fill="#001F3E"/>
</svg>
