<svg width="24" height="24" viewBox="0 0 24 24" fill="none" xmlns="http://www.w3.org/2000/svg">
<g clip-path="url(#clip0_1_6880)">
<path d="M9.03223 11.895C9.02369 11.8947 9.01511 11.8945 9.0065 11.8945C8.27636 11.8945 7.75253 12.5071 7.75253 13.1764C7.75253 13.838 8.26426 14.4441 8.98113 14.4581C8.98967 14.4584 8.99825 14.4585 9.00687 14.4585C9.73701 14.4585 10.2608 13.846 10.2608 13.1766C10.2608 12.515 9.74911 11.909 9.03223 11.895Z" fill="#001F3E"/>
<path d="M14.9727 11.895C14.9641 11.8947 14.9555 11.8945 14.9469 11.8945C14.2168 11.8945 13.693 12.5071 13.693 13.1764C13.693 13.838 14.2047 14.4441 14.9216 14.4581C14.9301 14.4584 14.9387 14.4585 14.9473 14.4585C15.6774 14.4585 16.2013 13.846 16.2013 13.1766C16.2013 12.515 15.6895 11.909 14.9727 11.895Z" fill="#001F3E"/>
<path fill-rule="evenodd" clip-rule="evenodd" d="M11.9773 1.25049C10.3536 1.25049 8.76945 1.44977 7.2912 1.63573C7.11522 1.65787 6.94058 1.67984 6.76772 1.70124C5.59045 1.84699 4.6589 2.78943 4.53793 3.97477C4.51869 4.16328 4.49899 4.35331 4.47915 4.54477C4.30996 6.17723 4.12998 7.91384 4.12998 9.69419C4.12998 11.4745 4.30993 13.2109 4.47912 14.8433C4.49894 15.0346 4.51871 15.2253 4.53793 15.4136C4.64551 16.4677 5.39409 17.3297 6.38646 17.6102L4.44172 20.5003C4.39531 20.552 4.35599 20.6102 4.32527 20.6733L3.37777 22.0814C3.14653 22.425 3.23765 22.8911 3.58131 23.1223C3.92496 23.3536 4.39101 23.2624 4.62226 22.9188L5.40808 21.751H18.6191L19.3712 22.9087C19.5969 23.256 20.0614 23.3547 20.4088 23.129C20.7561 22.9034 20.8548 22.4388 20.6291 22.0915L17.6927 17.5715C18.6227 17.2565 19.3137 16.4232 19.4168 15.4136C19.436 15.225 19.4557 15.0349 19.4756 14.8433C19.6447 13.2109 19.8247 11.4745 19.8247 9.69419C19.8247 7.91388 19.6448 6.17759 19.4756 4.54516C19.4557 4.3536 19.436 4.16337 19.4168 3.97477C19.2958 2.78943 18.3642 1.84699 17.187 1.70124C17.014 1.67983 16.8395 1.65788 16.6635 1.63574C15.1852 1.44978 13.601 1.25049 11.9773 1.25049ZM6.95202 3.18988C7.12672 3.16825 7.30136 3.14632 7.47599 3.12439C8.96519 2.93739 10.4537 2.75049 11.9773 2.75049C13.501 2.75049 14.9895 2.93739 16.4787 3.12439C16.6533 3.14632 16.828 3.16825 17.0027 3.18988C17.4909 3.25032 17.8751 3.64287 17.9245 4.12707C17.9439 4.31663 17.9635 4.50637 17.9832 4.69633C18.1096 5.91848 18.2372 7.15046 18.294 8.40039H5.66068C5.71752 7.15046 5.84493 5.91947 5.97143 4.69732C5.9911 4.50721 6.01081 4.31679 6.03017 4.12707C6.07959 3.64287 6.4638 3.25032 6.95202 3.18988ZM5.63081 9.90039H18.3239C18.3108 11.5264 18.1463 13.1161 17.9833 14.6911C17.9636 14.8814 17.9439 15.0714 17.9245 15.2613C17.8751 15.7455 17.4909 16.1381 17.0027 16.1985C16.828 16.2201 16.6533 16.2421 16.4787 16.264C14.9895 16.451 13.501 16.6379 11.9773 16.6379C10.4537 16.6379 8.96518 16.451 7.47598 16.264L7.47472 16.2638C7.30052 16.242 7.1263 16.2201 6.95202 16.1985C6.4638 16.1381 6.07959 15.7455 6.03017 15.2613C6.01079 15.0714 5.99112 14.8814 5.97143 14.6911C5.80841 13.1161 5.64388 11.5264 5.63081 9.90039ZM17.6447 20.251L16.0698 17.8269C14.7643 17.988 13.3857 18.1379 11.9773 18.1379C10.6233 18.1379 9.29671 17.9993 8.03614 17.8454L6.41744 20.251H17.6447Z" fill="#001F3E"/>
</g>
<defs>
<clipPath id="clip0_1_6880">
<rect width="24" height="24" fill="white"/>
</clipPath>
</defs>
</svg>
