<svg width="24" height="24" viewBox="0 0 24 24" fill="none" xmlns="http://www.w3.org/2000/svg">
<path d="M7.58534 2.25437C7.99718 2.21003 8.36698 2.50795 8.41132 2.91978C8.45566 3.33161 8.15774 3.70141 7.74591 3.74575C7.28737 3.79512 6.83156 3.84745 6.37701 3.90006C5.07745 4.05048 4.0373 5.09167 3.89212 6.3885C3.84175 6.83838 3.79189 7.28978 3.74499 7.7438C3.70243 8.15582 3.33391 8.45532 2.92189 8.41276C2.50987 8.3702 2.21037 8.00168 2.25293 7.58966C2.30051 7.12908 2.35095 6.67253 2.40143 6.22162C2.62469 4.22731 4.21437 2.64036 6.20455 2.41001C6.65946 2.35736 7.12038 2.30443 7.58534 2.25437Z" fill="#001F3E"/>
<path d="M15.5871 2.91978C15.6314 2.50795 16.0012 2.21003 16.413 2.25437C16.878 2.30443 17.3389 2.35736 17.7938 2.41001C19.784 2.64036 21.3737 4.22731 21.5969 6.22162C21.6474 6.67253 21.6979 7.12908 21.7454 7.58966C21.788 8.00168 21.4885 8.3702 21.0765 8.41276C20.6645 8.45532 20.2959 8.15582 20.2534 7.7438C20.2065 7.28978 20.1566 6.83838 20.1063 6.3885C19.9611 5.09167 18.9209 4.05048 17.6214 3.90006C17.1668 3.84745 16.711 3.79512 16.2525 3.74575C15.8406 3.70141 15.5427 3.33161 15.5871 2.91978Z" fill="#001F3E"/>
<path d="M15.5871 21.0805C15.6314 21.4923 16.0012 21.7902 16.413 21.7459C16.878 21.6958 17.3389 21.6429 17.7938 21.5902C19.784 21.3599 21.3737 19.7729 21.5969 17.7786C21.6474 17.3277 21.6979 16.8712 21.7454 16.4106C21.788 15.9986 21.4885 15.63 21.0765 15.5875C20.6645 15.5449 20.2959 15.8444 20.2534 16.2564C20.2065 16.7105 20.1566 17.1619 20.1063 17.6117C19.9611 18.9086 18.9209 19.9498 17.6214 20.1002C17.1668 20.1528 16.711 20.2051 16.2525 20.2545C15.8406 20.2988 15.5427 20.6686 15.5871 21.0805Z" fill="#001F3E"/>
<path d="M8.41132 21.0805C8.36698 21.4923 7.99718 21.7902 7.58534 21.7459C7.12038 21.6958 6.65946 21.6429 6.20455 21.5902C4.21437 21.3599 2.62469 19.7729 2.40143 17.7786C2.35095 17.3277 2.30051 16.8712 2.25293 16.4106C2.21037 15.9986 2.50987 15.63 2.92189 15.5875C3.33391 15.5449 3.70243 15.8444 3.74499 16.2564C3.79189 16.7105 3.84175 17.1619 3.89212 17.6117C4.0373 18.9086 5.07745 19.9498 6.37701 20.1002C6.83156 20.1528 7.28737 20.2051 7.74591 20.2545C8.15774 20.2988 8.45566 20.6686 8.41132 21.0805Z" fill="#001F3E"/>
<path d="M22.8327 11.2097L1.16602 11.2097C0.751803 11.2097 0.416016 11.5454 0.416016 11.9597C0.416016 12.3739 0.751802 12.7097 1.16602 12.7097L22.8327 12.7097C23.2469 12.7097 23.5827 12.3739 23.5827 11.9597C23.5827 11.5454 23.2469 11.2097 22.8327 11.2097Z" fill="#001F3E"/>
</svg>
