<svg width="24" height="24" viewBox="0 0 24 24" fill="none" xmlns="http://www.w3.org/2000/svg">
<path fill-rule="evenodd" clip-rule="evenodd" d="M12.0207 4.25H12.0268C12.9182 4.25 14.2768 4.25 15.6279 4.33069C16.9562 4.41003 18.3755 4.57145 19.338 4.93271C19.3773 4.94748 19.4154 4.96552 19.4517 4.98666C20.9133 5.83733 21.6715 7.50616 22.0789 9.14672C22.4937 10.8167 22.5898 12.6395 22.5898 14.0346C22.5898 15.0026 22.3459 15.9281 22.1264 16.7293C21.8491 17.7417 20.9466 18.4877 19.8808 18.535C19.3938 18.5566 18.9011 18.5799 18.4038 18.6034L18.1299 18.6163C17.7468 19.7117 16.7042 20.4973 15.4782 20.4973C14.3206 20.4973 13.3267 19.7971 12.8968 18.7971C12.599 18.8006 12.2999 18.8025 11.9997 18.8025C11.1443 18.8025 10.298 18.7871 9.46267 18.7627C9.04096 19.781 8.03755 20.4973 6.86682 20.4973C5.63338 20.4973 4.58566 19.7022 4.20827 18.5965C3.30445 18.4599 2.61319 17.988 2.14757 17.3581C1.63434 16.6637 1.40951 15.8017 1.40951 15.015V12.5737C1.40935 12.5674 1.40927 12.561 1.40927 12.5547C1.40927 12.5483 1.40935 12.542 1.40951 12.5357V8.09523C1.40951 7.06143 1.92767 6.23201 2.52607 5.6613C3.11639 5.0983 3.85638 4.71555 4.47232 4.59199C5.27737 4.43048 6.74487 4.34849 8.17526 4.30381C9.62992 4.25836 11.1227 4.25 12.0207 4.25ZM2.90951 11.8047V8.09523C2.90951 7.59132 3.1602 7.12933 3.56131 6.74679C3.97049 6.35654 4.46068 6.12421 4.76737 6.06268C5.42748 5.93025 6.76569 5.84857 8.2221 5.80308C9.65423 5.75834 11.1293 5.75 12.0207 5.75C12.9158 5.75 14.2351 5.75018 15.5384 5.82803C16.8315 5.90526 18.016 6.05503 18.7506 6.31507C19.6435 6.865 20.2512 8.01045 20.6232 9.50825C20.8073 10.2495 20.9234 11.0361 20.9938 11.8047H16.1337V8.40283C16.1337 7.98862 15.7979 7.65283 15.3837 7.65283C14.9695 7.65283 14.6337 7.98862 14.6337 8.40283V11.8047H8.59884V8.40283C8.59884 7.98862 8.26305 7.65283 7.84884 7.65283C7.43463 7.65283 7.09884 7.98862 7.09884 8.40283V11.8047H2.90951ZM21.0803 13.3046C21.087 13.5564 21.0898 13.8006 21.0898 14.0346C21.0898 14.7751 20.9027 15.5191 20.6797 16.3329C20.5699 16.7339 20.2126 17.0188 19.8143 17.0364C19.3249 17.0581 18.8312 17.0815 18.3344 17.105L18.2269 17.1101C17.9602 15.8367 16.8308 14.8804 15.4782 14.8804C14.0593 14.8804 12.8862 15.9325 12.6965 17.2991C12.4647 17.3013 12.2324 17.3025 11.9997 17.3025C11.2084 17.3025 10.423 17.2891 9.64386 17.2673C9.44048 15.9162 8.27462 14.8804 6.86682 14.8804C5.53841 14.8804 4.42542 15.8027 4.13324 17.0419C3.79547 16.9286 3.54287 16.7222 3.35385 16.4665C3.06289 16.0728 2.90951 15.5382 2.90951 15.015V13.3047H21.0732C21.0756 13.3047 21.0779 13.3047 21.0803 13.3046ZM16.7866 17.6888C16.7866 16.9662 16.2008 16.3804 15.4782 16.3804C14.7555 16.3804 14.1697 16.9662 14.1697 17.6888C14.1697 18.4115 14.7555 18.9973 15.4782 18.9973C16.2008 18.9973 16.7866 18.4115 16.7866 17.6888ZM6.86682 16.3804C7.58947 16.3804 8.17529 16.9662 8.17529 17.6888C8.17529 18.4115 7.58947 18.9973 6.86682 18.9973C6.14418 18.9973 5.55835 18.4115 5.55835 17.6888C5.55835 16.9662 6.14418 16.3804 6.86682 16.3804Z" fill="#001F3E"/>
</svg>
