<svg width="24" height="24" viewBox="0 0 24 24" fill="none" xmlns="http://www.w3.org/2000/svg">
<path fill-rule="evenodd" clip-rule="evenodd" d="M8.91992 8.32996C8.91992 6.62889 10.2989 5.25 11.9999 5.25C13.701 5.25 15.08 6.62889 15.08 8.32996C15.08 10.031 13.701 11.41 11.9999 11.41C10.2989 11.41 8.91992 10.031 8.91992 8.32996ZM11.9999 6.75C11.1273 6.75 10.4199 7.45737 10.4199 8.32996C10.4199 9.20257 11.1273 9.90997 11.9999 9.90997C12.8725 9.90997 13.58 9.20257 13.58 8.32996C13.58 7.45737 12.8726 6.75 11.9999 6.75Z" fill="#001F3E"/>
<path d="M12 12.3105C9.52631 12.3105 7.25 13.9703 7.25 16.3205C7.25 16.7347 7.58579 17.0705 8 17.0705C8.41421 17.0705 8.75 16.7347 8.75 16.3205C8.75 15.0707 10.0537 13.8105 12 13.8105C13.9463 13.8105 15.25 15.0707 15.25 16.3205C15.25 16.7347 15.5858 17.0705 16 17.0705C16.4142 17.0705 16.75 16.7347 16.75 16.3205C16.75 13.9703 14.4737 12.3105 12 12.3105Z" fill="#001F3E"/>
<path fill-rule="evenodd" clip-rule="evenodd" d="M9.67667 1.68807C11.1083 1.10398 12.7217 1.10398 14.1533 1.68807L19.7233 3.96802C20.2691 4.1909 20.7253 4.61344 21.0415 5.08136C21.3577 5.54938 21.58 6.13058 21.58 6.72247L21.58 6.72418L21.57 11.1125C21.5696 16.3514 17.7828 21.2189 12.6197 22.6454L12.6174 22.646C12.1582 22.7713 11.6619 22.7713 11.2027 22.646L11.2003 22.6454C6.03687 21.2188 2.25 16.3518 2.25 11.1125V6.72247C2.25 6.13327 2.46799 5.55261 2.78383 5.08279C3.09937 4.6134 3.55576 4.19047 4.10771 3.96762L9.67667 1.68807ZM10.2433 3.07693L4.67012 5.35821C4.45306 5.4456 4.21523 5.64216 4.02869 5.91965C3.84202 6.19732 3.75 6.49166 3.75 6.72247V11.1125C3.75 15.6527 7.06242 19.9452 11.5983 21.1992C11.7985 21.2536 12.0215 21.2536 12.2217 21.1992C16.7576 19.9453 20.07 15.6527 20.07 11.1125L20.07 11.1108L20.08 6.72247C20.0798 6.49445 19.9872 6.20025 19.7985 5.92108C19.6098 5.64174 19.3705 5.44413 19.1567 5.35692L13.5867 3.07693C12.5185 2.64131 11.3114 2.64123 10.2433 3.07693Z" fill="#001F3E"/>
</svg>
