<svg width="24" height="24" viewBox="0 0 24 24" fill="none" xmlns="http://www.w3.org/2000/svg">
<path fill-rule="evenodd" clip-rule="evenodd" d="M8.47498 7.84048L5.3075 6.02196C3.50515 4.95902 1.25 6.26445 1.25 8.34003V15.66C1.25 17.7383 3.50593 19.0369 5.30478 17.9997L8.47344 16.1805L8.47497 16.1796L11.0098 14.7164V15.66C11.0098 17.7382 13.2657 19.0366 15.0646 17.9997L18.2332 16.1805L18.2347 16.1796L21.4045 14.3497C23.2081 13.3092 23.2003 10.7202 21.4083 9.67255L18.2347 7.84048L15.0673 6.02196C13.2649 4.95901 11.0098 6.26445 11.0098 8.34003V9.30381L8.47498 7.84048ZM12.5098 13.3092C12.5099 13.3028 12.51 13.2964 12.51 13.29V10.73C12.51 10.7237 12.5099 10.7173 12.5098 10.7109V8.34003C12.5098 7.41741 13.5107 6.84334 14.3075 7.31534L17.4848 9.13956L20.6512 10.9675L20.6528 10.9684C21.4592 11.4414 21.4507 12.5913 20.6548 13.0505L17.4863 14.8796L17.4848 14.8805L14.3163 16.6996L14.315 16.7004C13.5139 17.1625 12.5098 16.5816 12.5098 15.66V13.3092ZM11.0098 11.0462C10.9747 11.0203 10.9348 10.9938 10.8891 10.9662L7.72658 9.14045L7.72503 9.13955L4.54778 7.31534C3.7509 6.84334 2.75 7.41741 2.75 8.34003V15.66C2.75 16.5816 3.75415 17.1625 4.5552 16.7004L7.72504 14.8805L7.72658 14.8796L10.8891 13.0539C10.9348 13.0263 10.9747 12.9998 11.0098 12.9739V11.0462Z" fill="#001F3E"/>
</svg>
