<svg width="24" height="24" viewBox="0 0 24 24" fill="none" xmlns="http://www.w3.org/2000/svg">
<path fill-rule="evenodd" clip-rule="evenodd" d="M5.59012 1.25C4.62071 1.25 3.74165 1.66198 2.98971 2.39989C2.38795 2.96904 1.94499 3.61753 1.66298 4.33342C1.38573 5.02732 1.25012 5.77184 1.25012 6.54C1.25012 7.69701 1.51732 8.88605 2.0289 10.101L2.02936 10.1021L2.02982 10.1032C2.53522 11.293 3.22488 12.4813 4.07127 13.6579L4.07253 13.6597L4.0738 13.6614C4.92689 14.8332 5.88162 15.9519 6.93724 17.0178L6.93979 17.0203L6.94236 17.0229C8.00837 18.0786 9.12683 19.0331 10.3077 19.8956L10.3087 19.8963C11.4896 20.7561 12.6887 21.4455 13.8961 21.96C15.1214 22.4821 16.3115 22.75 17.4501 22.75C18.2446 22.75 18.9923 22.6021 19.6866 22.3131C20.4108 22.0159 21.04 21.5562 21.5955 20.944L21.5957 20.9438L21.5959 20.9436C21.9382 20.5658 22.1986 20.1633 22.3983 19.7403C22.6148 19.2817 22.7201 18.8025 22.7201 18.33C22.7201 17.9351 22.6339 17.59 22.5065 17.2715L22.5017 17.2596L22.4966 17.2479C22.3235 16.8545 22.0456 16.5425 21.691 16.2961L18.3781 13.9441L18.3719 13.9398C18.094 13.7509 17.8171 13.5916 17.5341 13.4758C17.2363 13.354 16.94 13.29 16.6401 13.29C16.2449 13.29 15.8883 13.4019 15.5613 13.5966C15.2483 13.7639 14.9551 14.0046 14.6816 14.2778L13.992 14.9584C13.9754 14.9509 13.9551 14.9417 13.9331 14.9322C13.6608 14.7841 13.2861 14.5248 12.8052 14.118C12.2964 13.686 11.7925 13.2117 11.2605 12.6897C10.7569 12.1761 10.2901 11.6609 9.85001 11.1524C9.44814 10.6772 9.18312 10.3079 9.03346 10.0455C9.02334 10.0197 9.01397 9.99743 9.007 9.98096L9.69577 9.26501C9.9644 8.99566 10.1969 8.70782 10.3672 8.40937C10.5674 8.07662 10.6801 7.70686 10.6801 7.32C10.6801 7.00643 10.5998 6.69709 10.4819 6.42034C10.3658 6.13793 10.2054 5.85902 10.0003 5.57395L7.68409 2.30923C7.42322 1.93394 7.08769 1.6723 6.71955 1.5014C6.36324 1.33138 5.97331 1.25 5.59012 1.25ZM4.03626 3.47449C4.56306 2.95593 5.08199 2.75 5.59012 2.75C5.7651 2.75 5.93326 2.78783 6.07557 2.85614L6.08068 2.85859L6.08583 2.86097C6.23441 2.92955 6.35594 3.02601 6.45348 3.16691L6.45594 3.17046L8.77995 6.44611L8.78147 6.44823C8.9343 6.66049 9.03258 6.83904 9.09596 6.99398L9.09832 6.99973L9.10076 7.00544C9.16153 7.14722 9.18012 7.25575 9.18012 7.32C9.18012 7.40903 9.15526 7.51553 9.07947 7.64004L9.07317 7.6504L9.0672 7.66096C8.97909 7.81685 8.83581 8.00365 8.62979 8.20967L8.62466 8.2148L7.86373 9.00577C7.60572 9.26698 7.49012 9.59077 7.49012 9.93C7.49012 10.0811 7.5102 10.2127 7.54252 10.3419L7.55288 10.3833L7.56788 10.4233C7.58747 10.4756 7.60714 10.522 7.6196 10.5514L7.61962 10.5514L7.62315 10.5597C7.63614 10.5904 7.63871 10.5975 7.63871 10.5975L7.65973 10.6605L7.6917 10.7191C7.90714 11.1141 8.25431 11.5888 8.70758 12.1245L8.71027 12.1276L8.713 12.1308C9.17063 12.6596 9.66135 13.2016 10.1948 13.7453L10.1997 13.7503L10.2048 13.7553C10.7508 14.2912 11.2852 14.7952 11.8347 15.2617L11.8357 15.2625C12.3779 15.7213 12.8538 16.0582 13.2592 16.2728L13.2945 16.2915L13.3316 16.3064C13.3367 16.3084 13.3477 16.3132 13.3801 16.328L13.3879 16.3316C13.4151 16.3441 13.4534 16.3617 13.4947 16.3794L13.5106 16.3862L13.5268 16.3922C13.7164 16.4633 13.892 16.48 14.0401 16.48C14.4186 16.48 14.7357 16.3341 14.9784 16.0923L15.7387 15.3421L15.7405 15.3403C15.9601 15.1207 16.139 14.987 16.277 14.9149L16.299 14.9035L16.3201 14.8906C16.4473 14.8132 16.5439 14.79 16.6401 14.79C16.7202 14.79 16.8239 14.806 16.9661 14.8642C17.1217 14.9278 17.3029 15.0273 17.5223 15.1761L20.8296 17.5241L20.8332 17.5266C20.9914 17.6362 21.0721 17.74 21.119 17.8418C21.188 18.0176 21.2201 18.1689 21.2201 18.33C21.2201 18.5775 21.1654 18.8383 21.0419 19.0997C20.9017 19.3967 20.722 19.6742 20.4844 19.9364C20.0605 20.4034 19.6105 20.7232 19.1157 20.926L19.1137 20.9269L19.1117 20.9277C18.6065 21.1382 18.0549 21.25 17.4501 21.25C16.5487 21.25 15.5588 21.0379 14.4841 20.58C13.3917 20.1146 12.2908 19.484 11.1918 18.6839C10.0739 17.8673 9.01346 16.9627 8.00043 15.9596C6.9976 14.9468 6.09361 13.887 5.28771 12.7803C4.49498 11.678 3.86522 10.5872 3.4109 9.5179C2.96279 8.4533 2.75012 7.46269 2.75012 6.54C2.75012 5.94888 2.85426 5.39408 3.05648 4.88854L3.05727 4.88657L3.05805 4.88459C3.25518 4.38355 3.57003 3.91456 4.02479 3.48555L4.03058 3.48008L4.03626 3.47449Z" fill="#001F3E"/>
<path d="M16.9503 3C16.9503 2.58579 16.6145 2.25 16.2003 2.25C15.7861 2.25 15.4503 2.58579 15.4503 3V7.80001C15.4503 8.21422 15.7861 8.55001 16.2003 8.55001H21.0003C21.4145 8.55001 21.7503 8.21422 21.7503 7.80001C21.7503 7.38579 21.4145 7.05001 21.0003 7.05001H16.9503V3Z" fill="#001F3E"/>
</svg>
