<svg width="24" height="24" viewBox="0 0 24 24" fill="none" xmlns="http://www.w3.org/2000/svg">
<path fill-rule="evenodd" clip-rule="evenodd" d="M8 13.25C9.51878 13.25 10.75 14.4812 10.75 16V20C10.75 21.5188 9.51878 22.75 8 22.75H4C2.48122 22.75 1.25 21.5188 1.25 20V16C1.25 14.4812 2.48122 13.25 4 13.25H8ZM4 14.75C3.30964 14.75 2.75 15.3096 2.75 16V20C2.75 20.6904 3.30964 21.25 4 21.25H8C8.69036 21.25 9.25 20.6904 9.25 20V16C9.25 15.3096 8.69036 14.75 8 14.75H4Z" fill="#001F3E"/>
<path fill-rule="evenodd" clip-rule="evenodd" d="M20 13.25C21.5188 13.25 22.75 14.4812 22.75 16V20C22.75 21.5188 21.5188 22.75 20 22.75H16C14.4812 22.75 13.25 21.5188 13.25 20V16C13.25 14.4812 14.4812 13.25 16 13.25H20ZM16 14.75C15.3096 14.75 14.75 15.3096 14.75 16V20C14.75 20.6904 15.3096 21.25 16 21.25H20C20.6904 21.25 21.25 20.6904 21.25 20V16C21.25 15.3096 20.6904 14.75 20 14.75H16Z" fill="#001F3E"/>
<path fill-rule="evenodd" clip-rule="evenodd" d="M8 1.25C9.51878 1.25 10.75 2.48122 10.75 4V8C10.75 9.51878 9.51878 10.75 8 10.75H4C2.48122 10.75 1.25 9.51878 1.25 8V4C1.25 2.48122 2.48122 1.25 4 1.25H8ZM4 2.75C3.30964 2.75 2.75 3.30964 2.75 4V8C2.75 8.69036 3.30964 9.25 4 9.25H8C8.69036 9.25 9.25 8.69036 9.25 8V4C9.25 3.30964 8.69036 2.75 8 2.75H4Z" fill="#001F3E"/>
<path fill-rule="evenodd" clip-rule="evenodd" d="M20 1.25C21.5188 1.25 22.75 2.48122 22.75 4V8C22.75 9.51878 21.5188 10.75 20 10.75H16C14.4812 10.75 13.25 9.51878 13.25 8V4C13.25 2.48122 14.4812 1.25 16 1.25H20ZM16 2.75C15.3096 2.75 14.75 3.30964 14.75 4V8C14.75 8.69036 15.3096 9.25 16 9.25H20C20.6904 9.25 21.25 8.69036 21.25 8V4C21.25 3.30964 20.6904 2.75 20 2.75H16Z" fill="#001F3E"/>
</svg>
