<svg width="24" height="24" viewBox="0 0 24 24" fill="none" xmlns="http://www.w3.org/2000/svg">
<path fill-rule="evenodd" clip-rule="evenodd" d="M11.8311 1.16943C12.0262 1.16945 12.2656 1.19619 12.4844 1.28369L21.5518 4.91064C21.8973 5.04887 22.1673 5.3043 22.3477 5.57178C22.5277 5.83885 22.662 6.18229 22.6621 6.54932V7.87939C22.6621 8.85087 21.8699 9.64307 20.8984 9.64307H18.6318V17.1987H20.8984C21.8699 17.1987 22.6621 17.9909 22.6621 18.9624V21.9849C22.6621 22.4022 22.3236 22.7407 21.9062 22.7407H1.75586C1.33853 22.7407 1 22.4022 1 21.9849V18.9624C1 17.9911 1.79144 17.199 2.7627 17.1987H5.03027V9.64307H2.7627C1.79144 9.64281 1 8.85071 1 7.87939V6.54932C1.00007 6.18229 1.13443 5.83885 1.31445 5.57178C1.49473 5.3044 1.76395 5.04887 2.10938 4.91064L11.1777 1.28369C11.3965 1.19624 11.6359 1.16943 11.8311 1.16943ZM2.7627 18.7104C2.6261 18.7107 2.51172 18.8258 2.51172 18.9624V21.229H21.1504V18.9624C21.1504 18.8256 21.0352 18.7104 20.8984 18.7104H2.7627ZM6.54102 9.64307V17.1987H11.0752V9.64307H6.54102ZM12.5869 9.64307V17.1987H17.1201V9.64307H12.5869ZM11.75 2.68701C11.7409 2.68846 11.7343 2.68925 11.7314 2.68994L2.6709 6.31396C2.6709 6.31396 2.66729 6.316 2.66113 6.31982C2.65449 6.32396 2.64535 6.33026 2.63477 6.33936C2.61299 6.35809 2.58911 6.38428 2.56738 6.4165C2.5456 6.44882 2.52976 6.48101 2.52051 6.5083C2.51217 6.53294 2.51185 6.54703 2.51172 6.54932V7.87939C2.51172 8.01604 2.6261 8.13108 2.7627 8.13135H20.8984C21.0352 8.13135 21.1504 8.0162 21.1504 7.87939V6.54932C21.1503 6.54707 21.149 6.53307 21.1406 6.5083C21.1314 6.48105 21.1165 6.44876 21.0947 6.4165C21.073 6.38433 21.0491 6.35809 21.0273 6.33936C21.0169 6.33034 21.0076 6.32396 21.001 6.31982C20.9955 6.3164 20.9912 6.31396 20.9912 6.31396L11.9297 2.68994C11.9267 2.68923 11.9208 2.68839 11.9121 2.68701C11.891 2.68367 11.8629 2.68116 11.8311 2.68115C11.7993 2.68115 11.7711 2.68369 11.75 2.68701Z" fill="#001F3E"/>
</svg>
