<svg width="24" height="24" viewBox="0 0 24 24" fill="none" xmlns="http://www.w3.org/2000/svg">
<path d="M11.8311 2C12.0112 2.00002 12.2318 2.02482 12.4337 2.10547L20.8038 5.45312C21.1227 5.58073 21.3717 5.81662 21.5382 6.06348C21.7043 6.31 21.8282 6.62708 21.8282 6.96582V8.19336C21.8282 9.09002 21.0969 9.82031 20.2003 9.82031H18.4483V16.7949H20.2003C21.0969 16.7949 21.8282 17.5262 21.8282 18.4229V21.2129C21.8279 21.5979 21.515 21.9102 21.13 21.9102H2.53132C2.14636 21.9101 1.8343 21.5978 1.83405 21.2129V18.4229C1.83405 17.5263 2.56455 16.7952 3.46101 16.7949H5.55378V9.82031H3.46101C2.56455 9.82007 1.83405 9.08987 1.83405 8.19336V6.96582C1.83406 6.627 1.95791 6.31003 2.12409 6.06348C2.29052 5.81659 2.53949 5.58071 2.85847 5.45312L11.2276 2.10547C11.4296 2.02467 11.6509 2 11.8311 2ZM7.37214 9.82031V16.7949H11.1339V9.82031H7.37214ZM12.9102 9.82031V16.7949H16.713V9.82031H12.9102Z" fill="#001F3E"/>
</svg>
