<svg width="24" height="24" viewBox="0 0 24 24" fill="none" xmlns="http://www.w3.org/2000/svg">
<path d="M14.3604 1.73999C12.2667 1.73999 10.5838 2.11568 9.37988 3.09253C8.1553 4.08618 7.56698 5.58389 7.40234 7.49585C7.36694 7.90844 7.67333 8.27184 8.08594 8.30737C8.49837 8.34273 8.86173 8.03714 8.89746 7.62476C9.04282 5.93673 9.53479 4.89892 10.3252 4.25757C11.1363 3.59942 12.404 3.23999 14.3604 3.23999H14.4902C16.6509 3.24002 17.9688 3.67753 18.7656 4.47437C19.5625 5.2712 20 6.58907 20 8.74976V15.2703C20 17.4309 19.5625 18.7488 18.7656 19.5457C17.9688 20.3425 16.6509 20.78 14.4902 20.78H14.3604C12.4189 20.78 11.1558 20.4259 10.3447 19.7771C9.55535 19.1456 9.06157 18.1259 8.90723 16.4705C8.86879 16.0582 8.50309 15.7555 8.09082 15.7937C7.67856 15.8321 7.37492 16.1969 7.41309 16.6091C7.58876 18.4936 8.1851 19.9695 9.4082 20.948C10.6096 21.909 12.282 22.28 14.3604 22.28H14.4902C16.7993 22.28 18.6106 21.8218 19.8262 20.6062C21.0418 19.3906 21.5 17.5793 21.5 15.2703V8.74976C21.5 6.44069 21.0418 4.62941 19.8262 3.41382C18.6106 2.19823 16.7993 1.74002 14.4902 1.73999H14.3604Z" fill="#001F3E"/>
<path d="M12.6807 8.11987C12.3878 7.827 11.913 7.82703 11.6201 8.11987C11.3272 8.41277 11.3272 8.88753 11.6201 9.18042L13.6895 11.2498H3C2.58587 11.2498 2.25013 11.5857 2.25 11.9998C2.25 12.414 2.58579 12.7498 3 12.7498H13.6895L11.6201 14.8201C11.3273 15.113 11.3272 15.5877 11.6201 15.8806C11.913 16.1732 12.3879 16.1733 12.6807 15.8806L16.0303 12.53C16.3231 12.2371 16.3232 11.7624 16.0303 11.4695L12.6807 8.11987Z" fill="#001F3E"/>
</svg>
