<svg width="24" height="24" viewBox="0 0 24 24" fill="none" xmlns="http://www.w3.org/2000/svg">
<path fill-rule="evenodd" clip-rule="evenodd" d="M3.24403 2.27407C4.06973 1.51137 5.2036 1.25 6.59043 1.25H9.64043L9.65543 1.25015L9.67053 1.25H17.3503C18.7371 1.25 19.871 1.51137 20.6967 2.27407C21.5125 3.02763 21.8856 4.14208 22.0732 5.49714C22.0744 5.50608 22.0755 5.51505 22.0764 5.52403L22.3566 8.27574C22.4577 9.29174 22.203 10.2346 21.6944 10.9902C21.7177 11.0626 21.7303 11.1398 21.7303 11.22V15.71C21.7303 18.0293 21.2699 19.8485 20.0493 21.069C18.8288 22.2896 17.0096 22.75 14.6903 22.75H14.5073C14.505 22.75 14.5028 22.75 14.5005 22.75H9.50049C9.49821 22.75 9.49593 22.75 9.49365 22.75H9.30025C6.98088 22.75 5.16172 22.2896 3.94117 21.069C2.72063 19.8485 2.26025 18.0293 2.26025 15.71V11.22C2.26025 11.1547 2.26859 11.0914 2.28425 11.0311C1.75717 10.2689 1.49127 9.31049 1.59406 8.27627L1.86401 5.52672C1.86498 5.51683 1.86615 5.50697 1.86751 5.49714C2.05514 4.14208 2.42821 3.02763 3.24403 2.27407ZM13.7505 21.25H10.2505V19.5C10.2505 18.7795 10.4291 18.3795 10.6546 18.1541C10.88 17.9287 11.28 17.75 12.0005 17.75C12.721 17.75 13.121 17.9287 13.3464 18.1541C13.5718 18.3795 13.7505 18.7795 13.7505 19.5V21.25ZM15.2505 21.2396V19.5C15.2505 18.5505 15.0141 17.7005 14.4071 17.0934C13.8 16.4863 12.95 16.25 12.0005 16.25C11.051 16.25 10.201 16.4863 9.59391 17.0934C8.98683 17.7005 8.75049 18.5505 8.75049 19.5V21.24C6.90197 21.1704 5.73373 20.7403 5.00183 20.0084C4.19988 19.2064 3.76025 17.8806 3.76025 15.71V12.3133C4.31672 12.5929 4.95374 12.75 5.64042 12.75C6.91906 12.75 8.1116 12.1049 8.86985 11.1195C9.53551 12.1076 10.6686 12.75 12.0005 12.75C13.3161 12.75 14.4375 12.1232 15.1063 11.1558C15.8676 12.1203 17.0461 12.75 18.3103 12.75C19.0134 12.75 19.6644 12.5853 20.2303 12.293V15.71C20.2303 17.8806 19.7906 19.2064 18.9887 20.0084C18.2582 20.7389 17.0929 21.1688 15.2505 21.2396ZM3.35536 5.68835L3.08684 8.42328C2.93061 9.9934 4.0655 11.25 5.64042 11.25C6.90704 11.25 8.07147 10.2005 8.19393 8.93761L8.19411 8.93571L8.81168 2.75H6.59043C5.35725 2.75 4.68112 2.98863 4.26182 3.37593C3.83431 3.77082 3.52811 4.45258 3.35536 5.68835ZM13.6215 2.75L14.254 9.08452L14.2542 9.08687C14.2566 9.10994 14.2592 9.13296 14.262 9.15592C14.1888 10.3515 13.2489 11.25 12.0005 11.25C10.6157 11.25 9.61053 10.1437 9.74693 8.75342L10.3491 2.75H13.6215ZM15.766 9.07859C15.967 10.2799 17.0934 11.25 18.3103 11.25C19.8849 11.25 21.0198 9.99482 20.8641 8.4251L20.5855 5.68966C20.4128 4.45307 20.1066 3.77096 19.6789 3.37593C19.2596 2.98863 18.5835 2.75 17.3503 2.75H15.1683L15.7469 8.60626C15.7626 8.76583 15.7688 8.92344 15.766 9.07859Z" fill="#001F3E"/>
</svg>
