<svg width="24" height="24" viewBox="0 0 24 24" fill="none" xmlns="http://www.w3.org/2000/svg">
<path fill-rule="evenodd" clip-rule="evenodd" d="M16.2627 3.30634C17.6286 2.6096 19.1759 2.43941 20.509 2.85576C21.8653 3.27937 22.9725 4.30748 23.3676 5.90462C23.7957 7.63485 22.7456 9.35952 21.205 10.0116C19.8426 10.5882 18.2944 11.2029 16.7007 11.8136C16.1889 13.1875 15.6547 14.5003 15.2461 15.4748C14.7259 16.7158 13.4459 17.5632 12.1217 17.5549C10.5389 17.545 9.35434 16.3044 9.53882 14.704L9.56974 14.4377C8.21925 14.9184 7.01585 15.339 6.07911 15.6636C4.66433 16.1538 3.20288 15.4572 2.64226 14.1253C2.60963 14.0634 2.57964 13.9997 2.5524 13.9342C1.95764 12.5046 1.37669 10.7491 0.974782 9.46199C0.5379 8.06285 1.19422 6.54575 2.4761 5.87966C3.77458 5.20494 5.35908 5.59276 6.14821 6.85515C6.43521 7.31425 6.76007 7.84385 7.09081 8.40257C9.77386 6.82461 13.2084 4.86445 16.2627 3.30634ZM21.9115 6.26489C21.651 5.21175 20.9531 4.56593 20.0618 4.28756C19.1473 4.00193 18.0045 4.10173 16.9444 4.64253C13.6796 6.30798 9.95876 8.4474 7.2048 10.0769C7.03221 10.179 6.8259 10.2077 6.63197 10.1567C6.43803 10.1056 6.27262 9.97903 6.17267 9.80517C5.72692 9.02976 5.26715 8.27553 4.87628 7.65024C4.51878 7.07835 3.80088 6.8817 3.16773 7.21069C2.51798 7.54831 2.19062 8.32319 2.4066 9.0149C2.80512 10.2912 3.36971 11.9937 3.93733 13.3581C3.94937 13.387 3.96259 13.4143 3.97678 13.4399C3.9917 13.4668 4.00495 13.4946 4.01645 13.5232C4.27346 14.1611 4.93504 14.4725 5.588 14.2463C6.77816 13.8339 8.40011 13.2659 10.2067 12.617C10.4521 12.5288 10.7256 12.5744 10.9291 12.7374C11.1326 12.9004 11.2369 13.1574 11.2044 13.4161C11.1386 13.9416 11.0797 14.4352 11.029 14.8757C10.9526 15.5379 11.3883 16.0503 12.1311 16.0549C12.8409 16.0594 13.575 15.5814 13.8628 14.8949C14.298 13.8567 14.8749 12.4362 15.4113 10.9759C15.4861 10.7723 15.6453 10.6111 15.848 10.5338C17.5438 9.88684 19.1899 9.23557 20.6203 8.63018C21.5754 8.22596 22.1392 7.18494 21.9115 6.26489Z" fill="#001F3E"/>
<path d="M2.26839 22.2303C1.85418 22.2303 1.51839 21.8945 1.51839 21.4803C1.51839 21.0661 1.85418 20.7303 2.26839 20.7303H21.6736C22.0879 20.7303 22.4236 21.0661 22.4236 21.4803C22.4236 21.8945 22.0879 22.2303 21.6736 22.2303H2.26839Z" fill="#001F3E"/>
</svg>
