<svg width="24" height="24" viewBox="0 0 24 24" fill="none" xmlns="http://www.w3.org/2000/svg">
<path d="M2.49244 12.6744C2.18001 12.4024 1.70627 12.4352 1.43431 12.7476C1.16235 13.0601 1.19516 13.5338 1.50758 13.8058L4.81616 16.6858C4.83557 16.7034 4.85608 16.7201 4.87768 16.7359C4.88912 16.7442 4.90072 16.7522 4.91246 16.7598C4.9377 16.7762 4.96367 16.7909 4.99022 16.8039C5.2879 16.9498 5.65771 16.8844 5.88571 16.6225C5.90348 16.6021 5.91995 16.581 5.93513 16.5593L8.38565 13.2023C8.62987 12.8677 8.55663 12.3985 8.22207 12.1543C7.88751 11.9101 7.41832 11.9833 7.1741 12.3179L5.70281 14.3334C5.51604 13.6174 5.3999 12.8423 5.3999 12.0001C5.3999 7.62429 8.94412 4.08008 13.3199 4.08008C17.6957 4.08008 21.2399 7.62429 21.2399 12.0001C21.2399 16.3759 17.6957 19.9201 13.3199 19.9201C11.6935 19.9201 10.1774 19.427 8.91593 18.586C8.57128 18.3563 8.10563 18.4494 7.87586 18.7941C7.6461 19.1387 7.73923 19.6044 8.08388 19.8341C9.58237 20.8331 11.3863 21.4201 13.3199 21.4201C18.5241 21.4201 22.7399 17.2043 22.7399 12.0001C22.7399 6.79587 18.5241 2.58008 13.3199 2.58008C8.11569 2.58008 3.8999 6.79587 3.8999 12.0001C3.8999 12.738 3.97648 13.4302 4.10568 14.0787L2.49244 12.6744Z" fill="#001F3E"/>
</svg>
