<svg width="24" height="24" viewBox="0 0 24 24" fill="none" xmlns="http://www.w3.org/2000/svg">
<path fill-rule="evenodd" clip-rule="evenodd" d="M13.1883 1.72998C12.9912 1.34244 12.603 0.889788 11.9949 0.893826C11.3884 0.897852 11.0045 1.35368 10.809 1.74465L10.3189 2.72488L9.44829 2.86997C9.01494 2.94035 8.48224 3.17537 8.29887 3.74142C8.11521 4.30838 8.41033 4.81118 8.71954 5.12039L9.39705 5.79789L9.20941 6.61997L9.20901 6.62171C9.10937 7.05106 9.07975 7.73094 9.6247 8.12766C10.1678 8.52301 10.8048 8.28911 11.1816 8.06567L11.1828 8.06497L11.9949 7.58674L12.807 8.06497L12.8082 8.0657C13.185 8.28913 13.822 8.52299 14.365 8.12766C14.9099 7.73097 14.8804 7.05116 14.7808 6.62181L14.5927 5.79789L15.2776 5.11301C15.5977 4.79851 15.881 4.29474 15.6961 3.73212C15.513 3.17496 14.9914 2.93237 14.5523 2.86013L14.5512 2.85995L13.6808 2.71487L13.1907 1.73465L13.1883 1.72998ZM11.6207 3.47548L12.0024 2.71211L12.3757 3.45885C12.4771 3.66964 12.6347 3.8295 12.7809 3.93736C12.9248 4.04351 13.1241 4.14828 13.3575 4.18167L13.9833 4.28598L13.4695 4.79972C13.297 4.97228 13.1925 5.18387 13.1367 5.37293C13.0818 5.5593 13.0528 5.7966 13.1091 6.03875L13.2313 6.57408L12.6767 6.24751C12.4507 6.10967 12.2002 6.06508 11.9949 6.06508C11.7896 6.06508 11.539 6.10967 11.313 6.24752L10.7585 6.57408L10.8807 6.03876C10.9369 5.79681 10.9079 5.55769 10.8537 5.37166C10.801 5.19045 10.6979 4.96921 10.5125 4.79204L10.0164 4.29597L10.6531 4.18987L10.6681 4.18723C10.8877 4.14605 11.0783 4.04357 11.2189 3.93987C11.3577 3.83746 11.5171 3.68263 11.6207 3.47548Z" fill="#001F3E"/>
<path fill-rule="evenodd" clip-rule="evenodd" d="M10.6602 9.25006C9.14594 9.25006 7.91016 10.4858 7.91016 12.0001V13.2501H4C2.48579 13.2501 1.25 14.4858 1.25 16.0001V22.0001C1.25 22.4143 1.58579 22.7501 2 22.7501H22.0001C22.4143 22.7501 22.7501 22.4143 22.7501 22.0001V19.0001C22.7501 17.4858 21.5143 16.2501 20.0001 16.2501H16.0802V12.0001C16.0802 10.4883 14.8568 9.25006 13.3302 9.25006H10.6602ZM14.5801 17.0001L14.5802 16.989V12.0001C14.5802 11.3118 14.0235 10.7501 13.3302 10.7501H10.6602C9.97437 10.7501 9.41016 11.3143 9.41016 12.0001V13.8783C9.41663 13.9179 9.42 13.9586 9.42 14.0001V21.2501H14.5801V17.0001ZM21.2501 21.2501H16.0802V17.7501H20.0001C20.6859 17.7501 21.2501 18.3143 21.2501 19.0001V21.2501ZM7.91016 14.7501V21.2501H2.75V16.0001C2.75 15.3143 3.31421 14.7501 4 14.7501H7.91016Z" fill="#001F3E"/>
</svg>
