<svg width="24" height="24" viewBox="0 0 24 24" fill="none" xmlns="http://www.w3.org/2000/svg">
<path d="M1.92084 16.3257C2.33286 16.2832 2.70154 16.5827 2.74408 16.9947C2.80644 17.5986 2.87338 18.1977 2.94037 18.7945C3.07909 20.0299 4.06851 21.0201 5.30658 21.1636C5.90784 21.2333 6.51092 21.3032 7.11908 21.3687C7.53082 21.4131 7.82929 21.7832 7.7851 22.1949C7.74072 22.6066 7.37062 22.9051 6.95893 22.8609C6.34333 22.7946 5.73325 22.7233 5.13373 22.6539C3.20527 22.4303 1.6672 20.8948 1.45014 18.9625C1.3832 18.3663 1.31506 17.7598 1.2519 17.148C1.20966 16.7363 1.50923 16.3685 1.92084 16.3257ZM22.0771 16.3257C22.4887 16.3685 22.7883 16.7363 22.746 17.148C22.6829 17.7598 22.6147 18.3663 22.5478 18.9625C22.3307 20.8949 20.7927 22.4304 18.8642 22.6539C18.2647 22.7233 17.6546 22.7946 17.039 22.8609C16.6273 22.905 16.2572 22.6066 16.2128 22.1949C16.1686 21.7832 16.4672 21.4131 16.8789 21.3687C17.487 21.3032 18.0901 21.2333 18.6914 21.1636C19.9294 21.0201 20.9188 20.0299 21.0576 18.7945C21.1246 18.1977 21.1915 17.5986 21.2539 16.9947C21.2964 16.5827 21.6651 16.2832 22.0771 16.3257ZM12.0019 4.29156C14.3476 4.29177 16.249 6.19382 16.249 8.53961C16.2488 10.2876 15.1923 11.7875 13.6835 12.439C14.5972 12.6791 15.4557 13.1133 16.1972 13.7193C17.3084 14.6276 18.093 15.8703 18.4374 17.2584C18.5313 17.6379 18.3181 18.0261 17.9472 18.15C17.6028 18.2648 17.2427 18.3449 16.872 18.3863C15.3071 18.5607 13.6724 18.7144 11.998 18.7144C10.3237 18.7144 8.68971 18.5607 7.12494 18.3863C6.75414 18.3449 6.39421 18.2649 6.04975 18.15C5.6786 18.0262 5.46542 17.6371 5.55951 17.2574C5.90401 15.8696 6.68873 14.6275 7.79975 13.7193C8.54209 13.1125 9.40161 12.678 10.3164 12.438C8.80916 11.7857 7.75402 10.2863 7.75385 8.53961C7.75385 6.19371 9.65601 4.2916 12.0019 4.29156ZM11.998 13.7212C10.8878 13.7213 9.8097 14.0813 8.92377 14.7437L8.74897 14.8804C8.08888 15.42 7.57734 16.1119 7.25483 16.8902C7.26691 16.8917 7.27885 16.8947 7.29096 16.8961C8.84282 17.069 10.4097 17.2144 11.998 17.2144C13.5862 17.2144 15.1532 17.069 16.705 16.8961C16.717 16.8947 16.7292 16.8916 16.7412 16.8902C16.4186 16.112 15.908 15.4199 15.248 14.8804C14.3309 14.1309 13.1824 13.7212 11.998 13.7212ZM12.0019 5.79156C10.4844 5.7916 9.25385 7.02214 9.25385 8.53961C9.25407 10.0569 10.4846 11.2866 12.0019 11.2867C13.5191 11.2865 14.7487 10.0568 14.749 8.53961C14.749 7.02225 13.5192 5.79177 12.0019 5.79156ZM6.95893 1.37652C7.37049 1.33235 7.74052 1.63104 7.7851 2.04254C7.82929 2.45426 7.53082 2.82436 7.11908 2.86871C6.51091 2.93423 5.90785 3.0041 5.30658 3.07379C4.06862 3.21728 3.07926 4.20769 2.94037 5.44293C2.87339 6.03954 2.80643 6.63896 2.74408 7.24273C2.70154 7.65476 2.33286 7.95422 1.92084 7.91168C1.50925 7.8689 1.20966 7.50107 1.2519 7.08941C1.31505 6.47776 1.38322 5.87104 1.45014 5.27496C1.66737 3.34274 3.20538 1.80706 5.13373 1.58356C5.73326 1.51407 6.34332 1.44284 6.95893 1.37652ZM17.039 1.37652C17.6546 1.44283 18.2647 1.51407 18.8642 1.58356C20.7926 1.80705 22.3306 3.34275 22.5478 5.27496C22.6147 5.87103 22.6829 6.47776 22.746 7.08941C22.7883 7.50111 22.4887 7.86895 22.0771 7.91168C21.6651 7.95421 21.2964 7.65475 21.2539 7.24273C21.1915 6.63896 21.1245 6.03954 21.0576 5.44293C20.9187 4.20769 19.9293 3.21727 18.6914 3.07379C18.0901 3.00411 17.487 2.93422 16.8789 2.86871C16.4672 2.8243 16.1686 2.45422 16.2128 2.04254C16.2574 1.63108 16.6275 1.33242 17.039 1.37652Z" fill="#001F3E"/>
</svg>
