<svg width="24" height="24" viewBox="0 0 24 24" fill="none" xmlns="http://www.w3.org/2000/svg">
<path d="M12 12.2495C12.4099 12.2495 12.7498 12.5897 12.75 12.9995V14.69H14.5C14.91 14.69 15.25 15.03 15.25 15.44C15.25 15.8499 14.91 16.19 14.5 16.19H12.75V17.9995C12.75 18.4095 12.41 18.7495 12 18.7495C11.59 18.7495 11.25 18.4095 11.25 17.9995V16.19H9.5C9.09002 16.19 8.75003 15.8499 8.75 15.44C8.75 15.03 9.09 14.69 9.5 14.69H11.25V12.9995C11.2502 12.5897 11.5901 12.2495 12 12.2495Z" fill="#292D32"/>
<path fill-rule="evenodd" clip-rule="evenodd" d="M6.45996 4.7798C7.93995 1.36999 9.83 0.539866 13.1699 1.81984C13.1876 1.82637 13.2047 1.8344 13.2217 1.8423C13.3109 1.87612 13.3982 1.91139 13.4902 1.94972L15.8506 2.93996C17.2302 3.50983 18.15 4.1098 18.75 4.8296C18.87 4.9696 18.9705 5.12003 19.0605 5.27003C19.1178 5.35849 19.1707 5.45853 19.2197 5.563C21.2578 6.73836 22.5088 8.90198 22.5088 11.27V13.8628C22.5156 13.9745 22.5195 14.0869 22.5195 14.1997V16.1499C22.5195 16.3699 22.51 16.5798 22.5 16.7798C22.28 20.6897 20.0001 22.7494 15.9004 22.7495H8.09961C7.81976 22.7495 7.55968 22.7297 7.2998 22.6997C3.78993 22.4597 1.7898 20.4596 1.5498 16.9097C1.51982 16.6897 1.5 16.4198 1.5 16.1499V14.313C1.49425 14.276 1.49023 14.2381 1.49023 14.1997V11.27C1.49023 8.25471 3.53382 5.63409 6.41016 4.88917C6.42808 4.84606 6.44147 4.81062 6.45996 4.7798ZM7.12012 10.0698C6.90656 10.0698 6.69687 10.0858 6.49121 10.1167C6.15847 10.1667 5.8352 10.2564 5.51953 10.3872C5.5127 10.3907 5.50694 10.3967 5.5 10.3999C3.98018 11.0599 3.00011 12.5499 3 14.1997C2.99937 14.2255 2.99334 14.2507 2.99023 14.2759V16.1499C2.99024 16.3599 3.01027 16.57 3.03027 16.77C3.22031 19.6198 4.61996 21.0194 7.42969 21.2095C7.67963 21.2395 7.8799 21.2603 8.08984 21.2603H15.8896C19.1896 21.2603 20.8097 19.8095 20.9697 16.7095C20.9797 16.5296 20.9902 16.3498 20.9902 16.1499V14.1997C20.9902 12.3898 19.7795 10.7697 18.0596 10.2398C17.7846 10.158 17.4875 10.103 17.1807 10.0806C17.1134 10.0758 17.0456 10.0754 16.9775 10.0737L16.8604 10.0698H7.12012ZM5.59766 6.82081C4.31886 7.54103 3.39042 8.80093 3.10059 10.27C3.11539 10.2549 3.13054 10.2401 3.14551 10.2251C3.18301 10.1874 3.22116 10.1504 3.25977 10.1138C3.32563 10.0513 3.39216 9.98951 3.46094 9.93019C3.4968 9.89927 3.53362 9.86944 3.57031 9.83937C3.63268 9.78827 3.69608 9.73837 3.76074 9.68996C4.02837 9.48912 4.31496 9.30921 4.62012 9.15578L5.59766 6.82081ZM19.5566 7.72804C19.5095 8.14583 19.4081 8.598 19.25 9.08937C19.8748 9.38026 20.4342 9.78286 20.9062 10.2681C20.7148 9.29303 20.2465 8.40753 19.5596 7.71046C19.5589 7.71635 19.5574 7.72214 19.5566 7.72804ZM11.1123 8.56984H16.8896C17.2061 8.56984 17.5167 8.59474 17.8174 8.64406C17.8365 8.58536 17.856 8.5281 17.873 8.47121C17.8796 8.44921 17.8864 8.4275 17.8926 8.40578C17.962 8.16485 18.0124 7.94029 18.0439 7.72999C18.0629 7.60553 18.074 7.48625 18.0801 7.3716C18.0919 7.13516 18.0769 6.91895 18.0352 6.71925C18.0284 6.68752 18.0209 6.65638 18.0127 6.6255C18.0079 6.60698 18.0043 6.58807 17.999 6.56984C17.979 6.47995 17.9592 6.43989 17.9492 6.39992C17.9464 6.39362 17.945 6.38673 17.9424 6.38038C17.8865 6.23261 17.8477 6.14649 17.7998 6.06984C17.7299 5.96 17.6805 5.86969 17.6006 5.7798C17.1706 5.2598 16.4103 4.77984 15.2803 4.31984L13.3008 3.48976L11.1123 8.56984ZM10.6094 2.74953C9.36956 2.74967 8.60927 3.56007 7.81934 5.39992C7.80933 5.42987 7.78929 5.4598 7.7793 5.48976L7.6416 5.81496L7.64062 5.81984L6.47656 8.59913C6.69406 8.57955 6.90241 8.56984 7.12012 8.56984H9.46973L11.8799 2.97023C11.4099 2.82023 10.9894 2.74953 10.6094 2.74953Z" fill="#292D32"/>
</svg>
