<svg width="24" height="24" viewBox="0 0 24 24" fill="none" xmlns="http://www.w3.org/2000/svg">
<path d="M10.6367 3.63998C11.0653 3.68343 11.4003 4.04562 11.4004 4.48568C11.4004 4.92582 11.0654 5.28791 10.6367 5.33138L10.5498 5.33529H8.79492C6.68453 5.33529 5.42779 5.76304 4.67773 6.51302C3.92771 7.26305 3.50003 8.51985 3.5 10.6302V15.8958L3.50586 16.2816C3.55551 18.1614 3.97458 19.3098 4.67773 20.013C5.42779 20.763 6.68449 21.1898 8.79492 21.1898H14.0605C16.171 21.1898 17.4277 20.7631 18.1777 20.013C18.9277 19.263 19.3545 18.0062 19.3545 15.8958V14.2386C19.3546 13.7693 19.7357 13.388 20.2051 13.388C20.6744 13.3881 21.0546 13.7693 21.0547 14.2386V15.8958C21.0547 18.1739 20.6046 19.9903 19.3799 21.2152C18.155 22.44 16.3387 22.89 14.0605 22.89H8.79492C6.5168 22.89 4.70043 22.44 3.47559 21.2152C2.32734 20.0669 1.85962 18.3988 1.80566 16.3177L1.80078 15.8958V10.6302C1.80081 8.35215 2.25078 6.53568 3.47559 5.31087C4.70043 4.08611 6.51683 3.63607 8.79492 3.63607H10.5498L10.6367 3.63998Z" fill="#001F3E"/>
<path d="M17.6963 1.53353C18.8971 1.51507 20.4447 1.51411 21.792 1.58919L21.8135 1.59115C21.8236 1.59197 21.8337 1.5929 21.8438 1.59408L21.873 1.59798C21.8766 1.59853 21.8802 1.59934 21.8838 1.59994C21.9241 1.60662 21.9638 1.61674 22.0029 1.62923C22.0144 1.63292 22.0258 1.6368 22.0371 1.64095C22.0737 1.65439 22.1097 1.67016 22.1445 1.6888C22.1532 1.69343 22.1615 1.69854 22.1699 1.70345C22.1988 1.72019 22.2268 1.7387 22.2539 1.75912C22.263 1.76597 22.2724 1.77241 22.2812 1.77962C22.3032 1.79753 22.3243 1.81682 22.3447 1.83724C22.353 1.84552 22.3603 1.85508 22.3682 1.86361C22.3736 1.86955 22.3795 1.8751 22.3848 1.88119C22.4135 1.91414 22.4391 1.94873 22.4619 1.9847C22.4638 1.98768 22.4659 1.99049 22.4678 1.99349C22.5464 2.12107 22.5869 2.26469 22.5918 2.40951L22.5928 2.41341L22.624 3.74447C22.6464 5.00854 22.6441 6.06757 22.6338 6.86556C22.6269 7.39743 22.617 7.8137 22.6084 8.09798C22.6041 8.24015 22.6005 8.35 22.5977 8.42416C22.5963 8.46085 22.5955 8.48895 22.5947 8.50814C22.5943 8.51769 22.593 8.52549 22.5928 8.5306V8.53841L22.585 8.62533C22.5219 9.05146 22.1447 9.36897 21.7051 9.34896C21.2658 9.3288 20.9199 8.97884 20.8955 8.54916V8.46029L20.8945 8.45541C20.8947 8.4513 20.8952 8.44416 20.8955 8.43587C20.8962 8.41874 20.8971 8.39279 20.8984 8.35873C20.9011 8.28904 20.906 8.1843 20.9102 8.0472C20.9185 7.77222 20.9279 7.36535 20.9346 6.84408C20.9428 6.20768 20.944 5.39975 20.9326 4.45052L8.7373 16.6468C8.40542 16.9783 7.86799 16.9784 7.53613 16.6468C7.2043 16.315 7.20452 15.7776 7.53613 15.4456L19.751 3.22884C19.0396 3.22068 18.339 3.22425 17.7227 3.23373C17.1312 3.24282 16.6206 3.25655 16.2588 3.26791C16.0782 3.27358 15.9341 3.27889 15.8359 3.28255C15.787 3.28438 15.7488 3.28545 15.7236 3.28646C15.7112 3.28695 15.7015 3.28718 15.6953 3.28744H15.5996C15.1695 3.26215 14.8195 2.9137 14.8008 2.47396C14.7812 2.00535 15.1457 1.60934 15.6143 1.58919H15.626C15.6329 1.58891 15.6432 1.58776 15.6562 1.58724C15.6829 1.58618 15.7222 1.58424 15.7725 1.58236C15.8737 1.57857 16.0217 1.57447 16.2061 1.56869C16.575 1.55711 17.0943 1.54279 17.6963 1.53353Z" fill="#001F3E"/>
</svg>
