<svg width="24" height="24" viewBox="0 0 24 24" fill="none" xmlns="http://www.w3.org/2000/svg">
<path d="M17.0771 6.25391C17.4551 6.29253 17.75 6.61183 17.75 7V9C17.75 9.41421 17.4142 9.75 17 9.75C16.5858 9.75 16.25 9.41421 16.25 9V7.75H12.75V16.25H14C14.4142 16.25 14.75 16.5858 14.75 17C14.75 17.4142 14.4142 17.75 14 17.75H10C9.58579 17.75 9.25 17.4142 9.25 17C9.25 16.5858 9.58579 16.25 10 16.25H11.25V7.75H7.75V9C7.75 9.41421 7.41421 9.75 7 9.75C6.58579 9.75 6.25 9.41421 6.25 9V7L6.25391 6.92285C6.29253 6.54488 6.61183 6.25 7 6.25H17L17.0771 6.25391Z" fill="#001F3E"/>
<path fill-rule="evenodd" clip-rule="evenodd" d="M19 1.25C21.0711 1.25 22.75 2.92893 22.75 5V19C22.75 21.0711 21.0711 22.75 19 22.75H5C2.92893 22.75 1.25 21.0711 1.25 19V5C1.25 2.92893 2.92893 1.25 5 1.25H19ZM5 2.75C3.75736 2.75 2.75 3.75736 2.75 5V19C2.75 20.2426 3.75736 21.25 5 21.25H19C20.2426 21.25 21.25 20.2426 21.25 19V5C21.25 3.75736 20.2426 2.75 19 2.75H5Z" fill="#001F3E"/>
</svg>
