<svg width="24" height="24" viewBox="0 0 24 24" fill="none" xmlns="http://www.w3.org/2000/svg">
<path fill-rule="evenodd" clip-rule="evenodd" d="M8.54741 2.58897C8.97644 2.578 9.44857 2.65 9.84938 2.84663L9.85397 2.84888L15.1095 5.47167C15.233 5.53458 15.445 5.58272 15.6997 5.57529C15.9538 5.56787 16.1658 5.50756 16.288 5.43819L18.6361 4.09928C19.5971 3.54874 20.6434 3.41154 21.4957 3.90638C22.3479 4.40123 22.7491 5.37809 22.7491 6.48997V16.22C22.7491 16.7061 22.5797 17.1909 22.3481 17.5879C22.1164 17.9852 21.7797 18.3677 21.3662 18.6082L21.3618 18.6108L17.0318 21.0908L17.0298 21.0919C16.6389 21.3142 16.1691 21.41 15.7407 21.421C15.3117 21.4319 14.8396 21.3599 14.4387 21.1633L14.4331 21.1606L9.17861 18.5283C9.05513 18.4654 8.84309 18.4172 8.58845 18.4247C8.33437 18.4321 8.12232 18.4924 8.00013 18.5617L5.65202 19.9007C4.69105 20.4512 3.64471 20.5884 2.79246 20.0936C1.94022 19.5987 1.53906 18.6218 1.53906 17.51V7.77997C1.53906 7.30032 1.70495 6.81843 1.93576 6.42162C2.16679 6.02443 2.50492 5.64015 2.92631 5.39916L7.25833 2.918C7.6492 2.69574 8.11904 2.59991 8.54741 2.58897ZM3.67181 6.70078L7.80908 4.33117V17C7.80908 17.0112 7.80933 17.0224 7.80982 17.0335C7.61677 17.0868 7.42926 17.1608 7.25756 17.2584L4.90756 18.5984L4.9061 18.5993C4.22728 18.9884 3.77821 18.9314 3.54566 18.7964C3.31291 18.6612 3.03906 18.2981 3.03906 17.51V7.77997C3.03906 7.62962 3.09818 7.40651 3.23236 7.17582C3.36621 6.94571 3.53351 6.77982 3.67181 6.70078ZM9.85704 17.1904C9.6842 17.1027 9.4985 17.0393 9.30908 16.9964V4.25339L14.4317 6.80981C14.6043 6.8974 14.7898 6.96067 14.979 7.00349V19.7563L9.85951 17.1917L9.85704 17.1904ZM16.479 19.6788L20.6119 17.3117L20.6137 17.3107C20.7499 17.2308 20.9173 17.0637 21.0525 16.8321C21.1884 16.599 21.2491 16.3738 21.2491 16.22V6.48997C21.2491 5.70185 20.9752 5.33871 20.7425 5.20356C20.5099 5.06854 20.0609 5.01158 19.382 5.40066L19.3806 5.40149L17.0306 6.74149C16.8591 6.83901 16.6718 6.91297 16.479 6.96622V19.6788Z" fill="#001F3E"/>
</svg>
