<svg width="24" height="24" viewBox="0 0 24 24" fill="none" xmlns="http://www.w3.org/2000/svg">
<path d="M16.6342 2.90047C16.8554 2.55026 16.7508 2.08705 16.4006 1.86586C16.0504 1.64467 15.5872 1.74927 15.366 2.09948L5.23203 18.1449C4.15446 17.9949 3.62914 17.6761 3.31732 17.2095C2.93959 16.6443 2.75 15.6927 2.75 14V10C2.75 7.99464 3.01884 7.04182 3.53033 6.53033C4.04182 6.01884 4.99464 5.75 7 5.75C7.41421 5.75 7.75 5.41421 7.75 5C7.75 4.58579 7.41421 4.25 7 4.25C5.00536 4.25 3.45818 4.48116 2.46967 5.46967C1.48116 6.45818 1.25 8.00536 1.25 10V14C1.25 15.7073 1.42041 17.0707 2.07018 18.043C2.60344 18.8409 3.38652 19.2794 4.36989 19.51L3.36598 21.0995C3.14479 21.4497 3.24939 21.9129 3.5996 22.1341C3.94982 22.3553 4.41303 22.2507 4.63421 21.9005L14.7696 5.8528C15.8463 6.00159 16.3717 6.32201 16.6839 6.79231C17.0607 7.35975 17.25 8.31302 17.25 9.99996V14C17.25 16.0053 16.9812 16.9581 16.4697 17.4696C15.9582 17.9811 15.0054 18.25 13 18.25C12.5858 18.25 12.25 18.5857 12.25 19C12.25 19.4142 12.5858 19.75 13 19.75C14.9946 19.75 16.5418 19.5188 17.5303 18.5303C18.5188 17.5418 18.75 15.9946 18.75 14V9.99996C18.75 8.2969 18.5793 6.93517 17.9336 5.96261C17.4007 5.16009 16.617 4.71859 15.6319 4.48752L16.6342 2.90047Z" fill="#001F3E"/>
<path fill-rule="evenodd" clip-rule="evenodd" d="M20.5 8.75C20.0858 8.75 19.75 9.08579 19.75 9.5C19.75 9.91421 20.0858 10.25 20.5 10.25C20.8433 10.25 21.0426 10.2798 21.1541 10.3128C21.182 10.3211 21.2008 10.3284 21.2129 10.3339C21.2181 10.3517 21.2257 10.3839 21.2324 10.4368C21.2488 10.5682 21.25 10.7356 21.25 11V13C21.25 13.2644 21.2488 13.4318 21.2324 13.5632C21.2257 13.6161 21.2181 13.6483 21.2129 13.6661C21.2008 13.6716 21.182 13.6789 21.1541 13.6872C21.0426 13.7202 20.8433 13.75 20.5 13.75C20.0858 13.75 19.75 14.0858 19.75 14.5C19.75 14.9142 20.0858 15.25 20.5 15.25C21.2564 15.25 21.9868 15.1426 22.4125 14.575C22.6168 14.3026 22.6895 13.9997 22.7208 13.7493C22.7501 13.5147 22.75 13.2554 22.75 13.0261V10.9739C22.75 10.7446 22.7501 10.4853 22.7208 10.2507C22.6895 10.0003 22.6168 9.69744 22.4125 9.425C21.9868 8.8574 21.2564 8.75 20.5 8.75Z" fill="#001F3E"/>
</svg>
