<svg width="24" height="24" viewBox="0 0 24 24" fill="none" xmlns="http://www.w3.org/2000/svg">
<path d="M12.2499 13.0105C12.6598 13.0106 12.9998 13.34 12.9999 13.7498V14.6804C12.9998 15.2903 12.6693 15.8705 12.1494 16.1804L11.3798 16.6404C11.2699 16.7203 11.1299 16.7498 10.9999 16.7498C10.7501 16.7498 10.5003 16.6201 10.3603 16.3904C10.1503 16.0304 10.2601 15.5701 10.6201 15.3601L11.3798 14.9002C11.4598 14.8502 11.4999 14.7702 11.4999 14.6902V13.7605C11.4999 13.3505 11.8399 13.0105 12.2499 13.0105Z" fill="#001F3E"/>
<path fill-rule="evenodd" clip-rule="evenodd" d="M11.9999 10.2498C14.6198 10.2498 16.7498 12.3799 16.7499 14.9998C16.7499 17.6198 14.6199 19.7498 11.9999 19.7498C9.37994 19.7498 7.24995 17.6198 7.24995 14.9998C7.25011 12.3799 9.38005 10.2498 11.9999 10.2498ZM11.9999 11.7498C10.21 11.7498 8.75011 13.2099 8.74995 14.9998C8.74995 16.7898 10.2099 18.2498 11.9999 18.2498C13.7899 18.2498 15.2499 16.7898 15.2499 14.9998C15.2498 13.2099 13.7898 11.7498 11.9999 11.7498Z" fill="#001F3E"/>
<path fill-rule="evenodd" clip-rule="evenodd" d="M11.4902 1.27029C12.9901 1.13035 14.4303 1.60018 15.5302 2.61013C16.62 3.60006 17.2499 5.01997 17.2499 6.49978V7.31325C18.7557 7.47339 19.8423 7.94334 20.5497 8.73025C21.5896 9.89011 21.5601 11.4398 21.4501 12.4998L20.7001 18.5105C20.4801 20.6004 19.6195 22.7497 14.9999 22.7498H8.99995C4.38026 22.7498 3.51982 20.6004 3.29975 18.5105L2.54975 12.5203C2.43975 11.4403 2.40014 9.89025 3.45014 8.73025C4.1648 7.93624 5.25125 7.4706 6.74995 7.31228V6.69021C6.74995 4.00021 8.92018 1.52029 11.4902 1.27029ZM7.99995 8.74978C6.30995 8.74978 5.14952 9.08001 4.55952 9.74001C4.06958 10.28 3.90999 11.1104 4.03998 12.3504L4.78998 18.3396C4.95998 19.9396 5.39995 21.2605 8.99995 21.2605H14.9999C18.5998 21.2605 19.0399 19.9501 19.2099 18.3601L19.9599 12.3504C20.0899 11.1304 19.9294 10.2998 19.4394 9.74978C18.8493 9.08004 17.6895 8.7498 15.9999 8.74978H7.99995ZM14.5195 3.72048C13.7295 3.00052 12.6998 2.67029 11.6298 2.77029C9.82992 2.94036 8.25 4.78006 8.24995 6.69997V7.24978H15.7499V6.49978C15.7499 5.44988 15.2994 4.43041 14.5195 3.72048Z" fill="#001F3E"/>
</svg>
