<svg width="24" height="24" viewBox="0 0 24 24" fill="none" xmlns="http://www.w3.org/2000/svg">
<path fill-rule="evenodd" clip-rule="evenodd" d="M14.4501 2.10561C13.5961 1.50778 12.5191 1.24471 11.4837 1.26899C10.4482 1.29327 9.38375 1.60698 8.55901 2.24843L3.16901 6.44843C2.60552 6.88688 2.134 7.53621 1.80418 8.20842C1.47441 8.88055 1.25 9.64956 1.25 10.36V17.77C1.25 20.5019 3.47347 22.74 6.21 22.74H15.3771C15.4171 22.7466 15.4581 22.7501 15.5 22.7501C15.5419 22.7501 15.5829 22.7466 15.6229 22.74H17.79C20.5254 22.74 22.75 20.5031 22.75 17.78V10.5C22.75 9.74283 22.5017 8.93336 22.1361 8.23297C21.7707 7.53289 21.2484 6.86678 20.6288 6.43474L14.4501 2.10561ZM16.25 21.24H17.79C19.6946 21.24 21.25 19.677 21.25 17.78V10.5C21.25 10.0472 21.0933 9.47671 20.8064 8.9271C20.5195 8.37743 20.1413 7.9233 19.7712 7.66533L19.7696 7.66427L13.5899 3.33446C13.044 2.95241 12.2958 2.75036 11.5188 2.76858C10.7419 2.7868 10.0057 3.02363 9.48046 3.43205L4.09099 7.63164C3.75471 7.89318 3.4109 8.33907 3.15082 8.86915C2.89059 9.39952 2.75 9.94051 2.75 10.36V17.77C2.75 19.6781 4.30653 21.24 6.21 21.24H8.25V17.2501C8.25 15.0409 10.0409 13.2501 12.25 13.2501C14.4591 13.2501 16.25 15.0409 16.25 17.2501V21.24ZM9.75 21.24H14.75V17.2501C14.75 15.8693 13.6307 14.7501 12.25 14.7501C10.8693 14.7501 9.75 15.8694 9.75 17.2501V21.24Z" fill="#001F3E"/>
</svg>
