<svg width="24" height="24" viewBox="0 0 24 24" fill="none" xmlns="http://www.w3.org/2000/svg">
<path fill-rule="evenodd" clip-rule="evenodd" d="M5.40039 2.84998C4.73837 2.84998 4.15039 3.39002 4.15039 4.19998V6.49998C4.15039 6.65674 4.20949 6.92331 4.34727 7.23068C4.48216 7.53158 4.66013 7.79906 4.83072 7.96965L4.84414 7.98341L8.64414 11.9834C8.65878 11.9988 8.67276 12.0149 8.68604 12.0315C8.93967 12.3485 9.17429 12.7653 9.34675 13.1964C9.51759 13.6235 9.65039 14.1219 9.65039 14.6V19.9C9.65039 20.8668 10.7639 21.4745 11.6017 20.9646L12.9948 20.0691C13.0013 20.0649 13.0079 20.0608 13.0145 20.0569C13.1055 20.0022 13.2482 19.8555 13.3725 19.6165C13.4944 19.382 13.5504 19.1508 13.5504 19V14.7C13.5504 14.1846 13.6768 13.6351 13.885 13.1446C14.0902 12.6608 14.3988 12.1783 14.8112 11.8314L19.0846 8.05491C19.2541 7.88039 19.4504 7.59257 19.6051 7.25212C19.7652 6.8999 19.8504 6.55846 19.8504 6.29998V4.09998C19.8504 3.41419 19.2862 2.84998 18.6004 2.84998H5.40039ZM2.65039 4.19998C2.65039 2.60993 3.86241 1.34998 5.40039 1.34998H18.6004C20.1146 1.34998 21.3504 2.58576 21.3504 4.09998V6.29998C21.3504 6.8415 21.1856 7.40006 20.9707 7.87283C20.7549 8.34762 20.4579 8.8031 20.1307 9.13031C20.1198 9.14121 20.1086 9.15177 20.097 9.16197L15.797 12.962C15.7916 12.9668 15.7861 12.9715 15.7805 12.9761C15.5975 13.1287 15.4091 13.3927 15.2658 13.7304C15.124 14.0648 15.0504 14.4153 15.0504 14.7V19C15.0504 19.4492 14.9064 19.9179 14.7033 20.3085C14.5044 20.6909 14.2009 21.0903 13.7975 21.3363L12.406 22.2309L12.3935 22.2387C10.6319 23.3227 8.15039 22.131 8.15039 19.9V14.6C8.15039 14.3781 8.08319 14.0764 7.95403 13.7535C7.83169 13.4477 7.67454 13.1746 7.53274 12.9914L3.76277 9.02299C3.43664 8.69451 3.16722 8.26524 2.97851 7.84427C2.7913 7.42664 2.65039 6.94321 2.65039 6.49998V4.19998Z" fill="#001F3E"/>
</svg>
