<svg width="24" height="24" viewBox="0 0 24 24" fill="none" xmlns="http://www.w3.org/2000/svg">
<path fill-rule="evenodd" clip-rule="evenodd" d="M12 1.25C6.06579 1.25 1.25 6.06579 1.25 12C1.25 17.9342 6.06579 22.75 12 22.75C17.9342 22.75 22.75 17.9342 22.75 12C22.75 6.06579 17.9342 1.25 12 1.25ZM2.75 12C2.75 6.89421 6.89421 2.75 12 2.75C14.2576 2.75 16.3272 3.56023 17.9337 4.90557L4.90557 17.9337C3.56023 16.3272 2.75 14.2576 2.75 12ZM5.95814 19.0024C7.57937 20.4027 9.69139 21.25 12 21.25C17.1058 21.25 21.25 17.1058 21.25 12C21.25 9.69139 20.4027 7.57937 19.0024 5.95814L5.95814 19.0024Z" fill="#001F3E"/>
</svg>
