<svg width="24" height="24" viewBox="0 0 24 24" fill="none" xmlns="http://www.w3.org/2000/svg">
<path fill-rule="evenodd" clip-rule="evenodd" d="M6.25 8C6.25 6.48122 7.48122 5.25 9 5.25C10.5188 5.25 11.75 6.48122 11.75 8C11.75 9.51878 10.5188 10.75 9 10.75C7.48122 10.75 6.25 9.51878 6.25 8ZM9 6.75C8.30964 6.75 7.75 7.30964 7.75 8C7.75 8.69036 8.30964 9.25 9 9.25C9.69036 9.25 10.25 8.69036 10.25 8C10.25 7.30964 9.69036 6.75 9 6.75Z" fill="#001F3E"/>
<path fill-rule="evenodd" clip-rule="evenodd" d="M3.09467 3.09467C4.42914 1.7602 6.42603 1.25 9 1.25H15C17.574 1.25 19.5709 1.7602 20.9053 3.09467C22.2398 4.42914 22.75 6.42603 22.75 9V13.8959C22.75 13.8989 22.75 13.9018 22.75 13.9048V15C22.75 17.574 22.2398 19.5709 20.9053 20.9053C19.5709 22.2398 17.574 22.75 15 22.75H9C6.42603 22.75 4.42914 22.2398 3.09467 20.9053C1.7602 19.5709 1.25 17.574 1.25 15V9C1.25 6.42603 1.7602 4.42914 3.09467 3.09467ZM21.25 12.2672V9C21.25 6.57397 20.7602 5.07086 19.8447 4.15533C18.9291 3.2398 17.426 2.75 15 2.75H9C6.57397 2.75 5.07086 3.2398 4.15533 4.15533C3.2398 5.07086 2.75 6.57397 2.75 9V15C2.75 16.1133 2.85315 17.0323 3.05326 17.7893L7.18194 15.0173C8.24502 14.3041 9.75679 14.3761 10.7288 15.2111L10.7351 15.2166L11.0615 15.5035C11.5608 15.9296 12.4033 15.9288 12.9013 15.5011L17.0613 11.9311C18.1224 11.0199 19.7977 11.0197 20.8587 11.9311L21.25 12.2672ZM3.64344 19.1998L8.01784 16.2628C8.53368 15.9168 9.30001 15.9637 9.74844 16.3465L10.0749 16.6334L10.0813 16.6389C11.1423 17.5503 12.8176 17.5501 13.8787 16.6389L18.0387 13.0689C18.5376 12.6404 19.3824 12.6404 19.8813 13.0689L21.25 14.2445V15C21.25 17.426 20.7602 18.9291 19.8447 19.8447C18.9291 20.7602 17.426 21.25 15 21.25H9C6.57397 21.25 5.07086 20.7602 4.15533 19.8447C3.96638 19.6557 3.79556 19.4417 3.64344 19.1998Z" fill="#001F3E"/>
</svg>
