<svg width="24" height="24" viewBox="0 0 24 24" fill="none" xmlns="http://www.w3.org/2000/svg">
<path fill-rule="evenodd" clip-rule="evenodd" d="M12 2C6.49 2 2 6.49 2 12C2 17.51 6.49 22 12 22C17.51 22 22 17.51 22 12C22 6.49 17.51 2 12 2ZM12.7495 8C12.7495 7.58579 12.4137 7.25 11.9995 7.25C11.5853 7.25 11.2495 7.58579 11.2495 8V13C11.2495 13.4142 11.5853 13.75 11.9995 13.75C12.4137 13.75 12.7495 13.4142 12.7495 13V8ZM10.9941 16C10.9941 15.4477 11.4419 15 11.9941 15H12.0031C12.5554 15 13.0031 15.4477 13.0031 16C13.0031 16.5523 12.5554 17 12.0031 17H11.9941C11.4419 17 10.9941 16.5523 10.9941 16Z" fill="#001F3E"/>
</svg>
