<svg width="24" height="24" viewBox="0 0 24 24" fill="none" xmlns="http://www.w3.org/2000/svg">
<path d="M7.67016 7.28033C7.96306 6.98743 7.96305 6.51256 7.67016 6.21967C7.37726 5.92678 6.90239 5.92678 6.6095 6.21967L4.80951 8.01968C4.51662 8.31257 4.51662 8.78744 4.80951 9.08033L6.6095 10.8803C6.90239 11.1732 7.37726 11.1732 7.67016 10.8803C7.96305 10.5874 7.96306 10.1126 7.67016 9.81968L7.15054 9.30005H7.57965C9.6139 9.30005 11.2811 10.8898 11.3936 12.9029C11.391 12.9716 11.3896 13.0407 11.3896 13.11V15.0701C11.3896 15.1119 11.3931 15.1529 11.3997 15.1929V17.25C11.3997 17.6643 11.7354 18 12.1497 18C12.5639 18 12.8997 17.6643 12.8997 17.25V13.12C12.8997 13.0468 12.8982 12.9738 12.8953 12.9013C13.0035 10.8912 14.6652 9.29004 16.7097 9.29004H16.8592L16.3295 9.81968C16.0366 10.1126 16.0366 10.5874 16.3295 10.8803C16.6224 11.1732 17.0973 11.1732 17.3902 10.8803L19.1902 9.08033L19.2005 9.06985C19.3359 8.93417 19.4196 8.74688 19.4196 8.54004C19.4196 8.28074 19.288 8.05218 19.088 7.91748L17.3902 6.21967C17.0973 5.92678 16.6224 5.92678 16.3295 6.21967C16.0366 6.51256 16.0366 6.98743 16.3295 7.28033L16.8392 7.79004H16.7097C14.7655 7.79004 13.0699 8.83006 12.1419 10.3807C11.2106 8.83273 9.51389 7.80005 7.57965 7.80005H7.15045L7.67016 7.28033Z" fill="#001F3E"/>
<path fill-rule="evenodd" clip-rule="evenodd" d="M9 1.25C6.42603 1.25 4.42914 1.7602 3.09467 3.09467C1.7602 4.42914 1.25 6.42603 1.25 9V15C1.25 17.574 1.7602 19.5709 3.09467 20.9053C4.42914 22.2398 6.42603 22.75 9 22.75H15C17.574 22.75 19.5709 22.2398 20.9053 20.9053C22.2398 19.5709 22.75 17.574 22.75 15V9C22.75 6.42603 22.2398 4.42914 20.9053 3.09467C19.5709 1.7602 17.574 1.25 15 1.25H9ZM2.75 9C2.75 6.57397 3.2398 5.07086 4.15533 4.15533C5.07086 3.2398 6.57397 2.75 9 2.75H15C17.426 2.75 18.9291 3.2398 19.8447 4.15533C20.7602 5.07086 21.25 6.57397 21.25 9V15C21.25 17.426 20.7602 18.9291 19.8447 19.8447C18.9291 20.7602 17.426 21.25 15 21.25H9C6.57397 21.25 5.07086 20.7602 4.15533 19.8447C3.2398 18.9291 2.75 17.426 2.75 15V9Z" fill="#001F3E"/>
</svg>
