<svg width="24" height="24" viewBox="0 0 24 24" fill="none" xmlns="http://www.w3.org/2000/svg">
<path fill-rule="evenodd" clip-rule="evenodd" d="M12 1.33984C12.1938 1.33984 12.4312 1.36721 12.6484 1.4541L21.6484 5.05371C21.9914 5.19091 22.2595 5.44447 22.4385 5.70996C22.617 5.97495 22.7499 6.31563 22.75 6.67969V8C22.75 8.96421 21.9642 9.75 21 9.75H18.667V17.25H21C21.9642 17.25 22.75 18.0358 22.75 19V22C22.75 22.4142 22.4142 22.75 22 22.75H2C1.58587 22.75 1.25013 22.4141 1.25 22V19C1.25 18.0358 2.03579 17.25 3 17.25H5.25V9.75H3C2.03579 9.75 1.25 8.96421 1.25 8C1.25003 7.63176 1.54874 7.33301 1.91699 7.33301H2.08301C2.45126 7.33301 2.74997 7.63176 2.75 8C2.75 8.13579 2.86421 8.25 3 8.25H21C21.1358 8.25 21.25 8.13579 21.25 8V6.67969C21.2498 6.67737 21.2482 6.6623 21.2402 6.63867C21.231 6.61167 21.2158 6.57976 21.1943 6.54785C21.1727 6.51584 21.1486 6.49027 21.127 6.47168C21.1166 6.46278 21.1081 6.45625 21.1016 6.45215C21.096 6.44869 21.0918 6.44629 21.0918 6.44629L12.0986 2.84961C12.0958 2.84893 12.09 2.84712 12.0811 2.8457C12.06 2.84237 12.0317 2.83984 12 2.83984C11.9683 2.83984 11.94 2.84237 11.9189 2.8457C11.91 2.84713 11.9042 2.84893 11.9014 2.84961L10.4102 3.44629C10.0169 3.60358 9.57153 3.40384 9.42676 3.00586C9.2884 2.62538 9.47672 2.20419 9.85254 2.05371L11.3516 1.4541C11.5688 1.36721 11.8062 1.33984 12 1.33984ZM3 18.75C2.86421 18.75 2.75 18.8642 2.75 19V21.25H21.25V19C21.25 18.8642 21.1358 18.75 21 18.75H3ZM6.75 17.25H11.25V9.75H6.75V17.25ZM12.75 17.25H17.334V9.75H12.75V17.25Z" fill="#001F3E"/>
<path d="M5.56641 0.333008C5.94296 0.333008 6.24805 0.639067 6.24805 1.01562V4.82324L6.90234 4.16992C7.16861 3.90366 7.60092 3.90366 7.86719 4.16992C8.13291 4.43617 8.13311 4.86767 7.86719 5.13379L6.04883 6.95215C5.92663 7.07435 5.76928 7.14036 5.60938 7.15039C5.43568 7.16129 5.25859 7.10582 5.11914 6.98438C5.10597 6.97291 5.09326 6.96063 5.08105 6.94824L3.26562 5.13379C2.9997 4.86767 2.9999 4.43617 3.26562 4.16992C3.53189 3.90366 3.9642 3.90366 4.23047 4.16992L4.88477 4.82324V1.01562C4.88477 0.639067 5.18985 0.333008 5.56641 0.333008Z" fill="#001F3E"/>
</svg>
