<svg width="24" height="24" viewBox="0 0 24 24" fill="none" xmlns="http://www.w3.org/2000/svg">
<path fill-rule="evenodd" clip-rule="evenodd" d="M4.25 7C4.25 3.82436 6.82436 1.25 10 1.25C13.1756 1.25 15.75 3.82436 15.75 7C15.75 10.1756 13.1756 12.75 10 12.75C6.82436 12.75 4.25 10.1756 4.25 7ZM10 2.75C7.65279 2.75 5.75 4.65279 5.75 7C5.75 9.34721 7.65279 11.25 10 11.25C12.3472 11.25 14.25 9.34721 14.25 7C14.25 4.65279 12.3472 2.75 10 2.75Z" fill="#001F3E"/>
<path d="M1.25 22C1.25 17.6244 5.2691 14.25 10 14.25C14.7309 14.25 18.75 17.6244 18.75 22C18.75 22.4142 18.4142 22.75 18 22.75C17.5858 22.75 17.25 22.4142 17.25 22C17.25 18.6356 14.098 15.75 10 15.75C5.90203 15.75 2.75 18.6356 2.75 22C2.75 22.4142 2.41421 22.75 2 22.75C1.58579 22.75 1.25 22.4142 1.25 22Z" fill="#001F3E"/>
<path d="M16.2778 13.7984C16.3891 13.3994 16.8028 13.1662 17.2018 13.2775C19.9337 14.0399 22.0206 16.4161 22.5927 19.3567C22.6718 19.7633 22.4064 20.157 21.9998 20.2361C21.5932 20.3153 21.1994 20.0498 21.1203 19.6432C20.647 17.2106 18.9368 15.3191 16.7986 14.7223C16.3996 14.611 16.1665 14.1973 16.2778 13.7984Z" fill="#001F3E"/>
<path d="M17.1301 3.25C16.7159 3.25 16.3801 3.58579 16.3801 4C16.3801 4.41421 16.7159 4.75 17.1301 4.75C18.6545 4.75 19.8801 5.98282 19.8801 7.5C19.8801 8.9683 18.7268 10.169 17.2801 10.2483C17.1584 10.2385 17.035 10.2415 16.9172 10.2546C16.5056 10.3003 16.2089 10.6711 16.2547 11.0828C16.3004 11.4945 16.6712 11.7912 17.0829 11.7454C17.1215 11.7411 17.1521 11.7423 17.167 11.7442C17.2072 11.7492 17.2477 11.751 17.2881 11.7495C19.559 11.6645 21.3801 9.79545 21.3801 7.5C21.3801 5.15718 19.4857 3.25 17.1301 3.25Z" fill="#001F3E"/>
</svg>
