<svg width="24" height="24" viewBox="0 0 24 24" fill="none" xmlns="http://www.w3.org/2000/svg">
<path fill-rule="evenodd" clip-rule="evenodd" d="M5.65137 9.95514C5.65137 8.46109 6.86253 7.25 8.35655 7.25C9.85056 7.25 11.0617 8.46109 11.0617 9.95514C11.0617 11.0308 10.4339 11.9598 9.52478 12.3958C11.1519 12.8081 12.4631 14.0622 12.4631 15.7355C12.4631 16.1497 12.1273 16.4855 11.7131 16.4855C11.2988 16.4855 10.9631 16.1497 10.9631 15.7355C10.9631 14.7753 9.94732 13.75 8.35653 13.75C6.76573 13.75 5.75 14.7753 5.75 15.7355C5.75 16.1497 5.41421 16.4855 5 16.4855C4.58579 16.4855 4.25 16.1497 4.25 15.7355C4.25 14.0622 5.56118 12.8081 7.1883 12.3958C6.27915 11.9598 5.65137 11.0308 5.65137 9.95514ZM8.35655 8.75C7.69093 8.75 7.15137 9.28956 7.15137 9.95514C7.15137 10.6207 7.69095 11.1603 8.35655 11.1603C9.02214 11.1603 9.56172 10.6207 9.56172 9.95514C9.56172 9.28956 9.02217 8.75 8.35655 8.75Z" fill="#001F3E"/>
<path d="M13.25 9C13.25 8.58579 13.5858 8.25 14 8.25H19C19.4142 8.25 19.75 8.58579 19.75 9C19.75 9.41421 19.4142 9.75 19 9.75H14C13.5858 9.75 13.25 9.41421 13.25 9Z" fill="#001F3E"/>
<path d="M14 13.25C13.5858 13.25 13.25 13.5858 13.25 14C13.25 14.4142 13.5858 14.75 14 14.75H17C17.4142 14.75 17.75 14.4142 17.75 14C17.75 13.5858 17.4142 13.25 17 13.25H14Z" fill="#001F3E"/>
<path fill-rule="evenodd" clip-rule="evenodd" d="M7 2.75C5.38503 2.75 3.92465 3.15363 2.86466 4.1379C1.79462 5.13152 1.25 6.60705 1.25 8.5V15.5C1.25 17.393 1.79462 18.8685 2.86466 19.8621C3.92465 20.8464 5.38503 21.25 7 21.25H17C18.615 21.25 20.0754 20.8464 21.1353 19.8621C22.2054 18.8685 22.75 17.393 22.75 15.5V8.5C22.75 6.60705 22.2054 5.13152 21.1353 4.1379C20.0754 3.15363 18.615 2.75 17 2.75H7ZM2.75 8.5C2.75 6.89295 3.20538 5.86848 3.88534 5.2371C4.57535 4.59637 5.61497 4.25 7 4.25H17C18.385 4.25 19.4246 4.59637 20.1147 5.2371C20.7946 5.86848 21.25 6.89295 21.25 8.5V15.5C21.25 17.107 20.7946 18.1315 20.1147 18.7629C19.4246 19.4036 18.385 19.75 17 19.75H7C5.61497 19.75 4.57535 19.4036 3.88534 18.7629C3.20538 18.1315 2.75 17.107 2.75 15.5V8.5Z" fill="#001F3E"/>
</svg>
