<svg width="24" height="24" viewBox="0 0 24 24" fill="none" xmlns="http://www.w3.org/2000/svg">
<path fill-rule="evenodd" clip-rule="evenodd" d="M12 1.25C8.82436 1.25 6.25 3.82436 6.25 7C6.25 10.1756 8.82436 12.75 12 12.75C15.1756 12.75 17.75 10.1756 17.75 7C17.75 3.82436 15.1756 1.25 12 1.25ZM7.75 7C7.75 4.65279 9.65279 2.75 12 2.75C14.3472 2.75 16.25 4.65279 16.25 7C16.25 9.34721 14.3472 11.25 12 11.25C9.65279 11.25 7.75 9.34721 7.75 7Z" fill="#001F3E"/>
<path d="M12.0002 14.25C6.99728 14.25 2.66016 17.5791 2.66016 22C2.66016 22.4142 2.99594 22.75 3.41016 22.75C3.82437 22.75 4.16016 22.4142 4.16016 22C4.16016 18.6809 7.52303 15.75 12.0002 15.75C16.4773 15.75 19.8401 18.6809 19.8401 22C19.8401 22.4142 20.1759 22.75 20.5901 22.75C21.0044 22.75 21.3401 22.4142 21.3401 22C21.3401 17.5791 17.003 14.25 12.0002 14.25Z" fill="#001F3E"/>
</svg>
