<svg width="24" height="24" viewBox="0 0 24 24" fill="none" xmlns="http://www.w3.org/2000/svg">
<path fill-rule="evenodd" clip-rule="evenodd" d="M21.5904 4.60001C21.5904 3.15025 21.127 2.09701 20.1976 1.55376C19.3259 1.0442 18.2622 1.12125 17.3631 1.36644L11.1233 3.06637C9.67785 3.45955 8.65039 4.64046 8.65039 6.30001V9.49261C8.64974 9.5105 8.64974 9.52848 8.65039 9.54653V15.8205C7.99553 15.3125 7.17316 15.01 6.28016 15.01C4.14281 15.01 2.41016 16.7427 2.41016 18.88C2.41016 21.0174 4.14281 22.75 6.28016 22.75C8.41437 22.75 10.1451 21.0224 10.1501 18.8894L10.1504 18.87V10.0928L20.0904 7.38187V13.7406C19.4355 13.2325 18.6131 12.93 17.7201 12.93C15.5828 12.93 13.8501 14.6627 13.8501 16.8C13.8501 18.9373 15.5828 20.67 17.7201 20.67C19.8496 20.67 21.5773 18.9501 21.59 16.8236C21.5903 16.8158 21.5904 16.8079 21.5904 16.8V4.60001ZM20.0904 5.82709V4.60001C20.0904 3.44977 19.7388 3.023 19.4407 2.84876C19.085 2.64085 18.5086 2.60881 17.7577 2.81358L11.5175 4.51363C10.6831 4.74053 10.1504 5.35967 10.1504 6.30001V8.53799L20.0904 5.82709ZM3.91016 18.88C3.91016 17.5711 4.97124 16.51 6.28016 16.51C7.58907 16.51 8.65016 17.5711 8.65016 18.88C8.65016 20.1889 7.58907 21.25 6.28016 21.25C4.97124 21.25 3.91016 20.1889 3.91016 18.88ZM17.7201 14.43C16.4112 14.43 15.3501 15.4911 15.3501 16.8C15.3501 18.1089 16.4112 19.17 17.7201 19.17C19.029 19.17 20.0901 18.1089 20.0901 16.8C20.0901 15.4911 19.029 14.43 17.7201 14.43Z" fill="#001F3E"/>
</svg>
