<svg width="24" height="24" viewBox="0 0 24 24" fill="none" xmlns="http://www.w3.org/2000/svg">
<path fill-rule="evenodd" clip-rule="evenodd" d="M18.8724 2.04094C19.1705 1.98612 19.4534 1.9538 19.7077 1.93261C19.7285 1.93088 19.7492 1.93002 19.77 1.93002H19.8008C21.4092 1.81328 22.75 3.03821 22.75 4.67001V16.74C22.75 18.0724 21.6941 19.2966 20.353 19.4642L20.3503 19.4645L20.0248 19.504C17.9393 19.7823 14.6757 20.8603 12.8374 21.8739C12.5663 22.028 12.2587 22.0825 11.9937 22.0825C11.7306 22.0825 11.4305 22.0289 11.1631 21.8851L11.1354 21.8713C11.1269 21.867 11.1184 21.8626 11.1101 21.8581C9.27063 20.8521 6.00896 19.7812 3.93068 19.5034L3.92747 19.503L3.64186 19.4636C2.30317 19.2935 1.25 18.0707 1.25 16.74V4.66C1.25 3.03448 2.59162 1.78624 4.22158 1.92254C6.44017 2.10241 9.73016 3.19902 11.6112 4.37013L11.8558 4.51684L11.859 4.51878C11.8608 4.51987 11.8626 4.52097 11.8644 4.52208C11.8644 4.52208 11.8753 4.52771 11.8985 4.53349C11.9257 4.54028 11.9608 4.545 12 4.545C12.0392 4.545 12.0743 4.54028 12.1015 4.53349C12.1208 4.52869 12.1313 4.52408 12.1345 4.52258L12.2926 4.42033C12.2968 4.41761 12.301 4.41494 12.3052 4.41231C12.981 3.99398 13.821 3.58603 14.7174 3.22528C14.7194 3.22448 14.7213 3.22368 14.7233 3.2229C16.0727 2.68727 17.5821 2.25145 18.8724 2.04094ZM4.09717 3.41737C3.34767 3.35439 2.75 3.90591 2.75 4.66V16.74C2.75 17.3276 3.25413 17.9034 3.83302 17.9758L3.83661 17.9762L3.84007 17.9767L3.84255 17.977L4.12938 18.0166L4.13118 18.0169C6.18708 18.292 9.21399 19.2496 11.25 20.2432V5.89058C11.1922 5.86449 11.1353 5.83465 11.0802 5.80076L10.8342 5.6532L10.8306 5.65107C10.8281 5.64954 10.8256 5.64799 10.8231 5.64643C9.14352 4.59904 6.07864 3.57778 4.09946 3.41756L4.09717 3.41737ZM20.1683 17.9756C18.1232 18.2477 14.7883 19.2385 12.75 20.2311V5.89054C12.8099 5.86356 12.8686 5.83257 12.9256 5.79723C12.9295 5.79475 12.9335 5.79223 12.9375 5.78968L13.101 5.68385C13.4331 5.47865 13.8217 5.27013 14.25 5.0662V8.00002C14.25 8.27647 14.4021 8.5305 14.6457 8.66108C14.8589 8.77534 15.2012 8.72799 15.4153 8.62454C15.4459 8.60976 15.3865 8.64367 15.4153 8.62454M15.4153 8.62454L17 7.57071L18.5847 8.62454C18.7573 8.73935 18.9668 8.77595 19.1636 8.73198C19.2292 8.71733 19.2934 8.69372 19.3543 8.66108C19.3847 8.64476 19.4138 8.62649 19.4412 8.60652C19.4761 8.58114 19.5085 8.55297 19.5382 8.52241C19.672 8.38452 19.75 8.19802 19.75 8V3.43465C19.7674 3.43305 19.7846 3.43151 19.8018 3.43002H19.83C19.851 3.43002 19.8719 3.42914 19.8928 3.42738C20.6495 3.36379 21.25 3.91316 21.25 4.67001V16.74C21.25 17.3272 20.7466 17.9026 20.1683 17.9756M18.25 3.69086C17.4446 3.87307 16.5784 4.13138 15.75 4.43617V6.60055L16.5847 6.04549C16.6161 6.02459 16.6488 6.00627 16.6823 5.99059C16.917 5.88077 17.1952 5.89906 17.4153 6.04547L18.25 6.60052V3.69086Z" fill="#001F3E"/>
</svg>
