<svg width="24" height="24" viewBox="0 0 24 24" fill="none" xmlns="http://www.w3.org/2000/svg">
<path fill-rule="evenodd" clip-rule="evenodd" d="M12 1.25C8.82436 1.25 6.25 3.82436 6.25 7C6.25 10.1756 8.82436 12.75 12 12.75C15.1756 12.75 17.75 10.1756 17.75 7C17.75 3.82436 15.1756 1.25 12 1.25ZM7.75 7C7.75 4.65279 9.65279 2.75 12 2.75C14.3472 2.75 16.25 4.65279 16.25 7C16.25 9.34721 14.3472 11.25 12 11.25C9.65279 11.25 7.75 9.34721 7.75 7Z" fill="#001F3E"/>
<path d="M4.16016 22C4.16016 18.6809 7.52305 15.75 12.0002 15.75C12.4144 15.75 12.7502 15.4142 12.7502 15C12.7502 14.5858 12.4144 14.25 12.0002 14.25C6.99731 14.25 2.66016 17.5791 2.66016 22C2.66016 22.4142 2.99594 22.75 3.41016 22.75C3.82437 22.75 4.16016 22.4142 4.16016 22Z" fill="#001F3E"/>
<path fill-rule="evenodd" clip-rule="evenodd" d="M14.25 18.2C14.25 16.0185 16.0185 14.25 18.2 14.25C20.3815 14.25 22.15 16.0185 22.15 18.2C22.15 19.0213 21.8994 19.784 21.4705 20.4158C21.4911 20.4325 21.5111 20.4505 21.5303 20.4697L22.5303 21.4697C22.8232 21.7626 22.8232 22.2374 22.5303 22.5303C22.2374 22.8232 21.7626 22.8232 21.4697 22.5303L20.4697 21.5303C20.4505 21.5111 20.4325 21.4911 20.4158 21.4705C19.784 21.8994 19.0213 22.15 18.2 22.15C16.0185 22.15 14.25 20.3815 14.25 18.2ZM18.2 15.75C16.8469 15.75 15.75 16.8469 15.75 18.2C15.75 19.5531 16.8469 20.65 18.2 20.65C19.5531 20.65 20.65 19.5531 20.65 18.2C20.65 16.8469 19.5531 15.75 18.2 15.75Z" fill="#001F3E"/>
</svg>
