<svg width="24" height="24" viewBox="0 0 24 24" fill="none" xmlns="http://www.w3.org/2000/svg">
<path fill-rule="evenodd" clip-rule="evenodd" d="M19.9792 6.99456C21.0438 4.86522 18.7536 2.62411 16.6498 3.73339L5.05931 9.83366C3.31356 10.7525 3.31356 13.2475 5.05931 14.1663L16.6479 20.2655C16.6481 20.2657 16.6477 20.2654 16.6479 20.2655C18.7577 21.3696 21.0411 19.1293 19.9792 17.0054L18.3592 13.7654C17.8036 12.6542 17.8036 11.3457 18.3592 10.2346L19.9792 6.99456ZM15.9507 2.40628C19.3467 0.616176 23.0361 4.23488 21.3208 7.66538L19.7008 10.9054C19.3564 11.5942 19.3564 12.4057 19.7008 13.0946L21.3208 16.3346C23.0388 19.7704 19.3422 23.3696 15.9521 21.5944L15.9507 21.5937L4.36069 15.4937C1.54644 14.0125 1.54644 9.98746 4.36069 8.50628L15.9507 2.40628Z" fill="#001F3E"/>
</svg>
