<svg width="24" height="24" viewBox="0 0 24 24" fill="none" xmlns="http://www.w3.org/2000/svg">
<g clip-path="url(#clip0_1_7307)">
<path d="M16.682 2.53711C17.5097 1.7096 18.8487 1.70973 19.6762 2.53711C20.5018 3.36275 20.5018 4.70658 19.6762 5.53223L17.0951 8.11328C17.975 8.5326 18.4631 9.50727 18.2494 10.4814C19.3202 10.7787 19.9898 11.8636 19.7465 12.9756C21.3041 13.4079 21.819 15.3681 20.6742 16.5127L17.3939 19.793C16.8602 20.3277 16.2292 20.7557 15.5346 21.0527L13.7992 21.7959C13.3316 21.9964 12.9236 22.316 12.4769 22.5596C11.4572 23.1156 10.1533 22.9625 9.29042 22.0996L4.86854 17.6777C4.22544 17.0346 4.22563 15.9919 4.86854 15.3486C6.15296 14.0643 6.15291 11.9738 4.86854 10.6895L3.70448 9.52539C3.15315 8.97408 3.15316 8.07964 3.70448 7.52832C4.4134 6.81959 5.25328 6.50586 6.13221 6.62109C7.62157 6.81651 8.92826 8.18682 9.80604 9.41211L16.682 2.53711ZM18.6781 3.53516C18.4023 3.25947 17.9558 3.25952 17.6801 3.53516L10.1928 11.0225C9.86481 11.3503 9.31476 11.2783 9.08241 10.877C8.65416 10.1406 7.25556 8.1908 5.94667 8.02051C5.50121 7.96267 5.10571 8.12329 4.70252 8.52637L5.86659 9.69141C7.5593 11.3841 7.59556 13.8896 6.33729 15.7432C6.02713 16.2 6.01728 16.8292 6.4076 17.2197L10.0971 20.9092C10.7016 21.5132 11.9997 21.0001 12.2855 20.9092L14.9779 19.7549C15.5075 19.5285 15.9889 19.2025 16.3959 18.7949L19.6762 15.5146C19.9514 15.2394 19.9513 14.7918 19.6762 14.5166C19.4003 14.2407 18.954 14.2407 18.6781 14.5166L18.1791 15.0156C17.9035 15.2912 17.4567 15.2911 17.181 15.0156C16.9054 14.74 16.9055 14.2932 17.181 14.0176L18.1791 13.0186C18.4541 12.7433 18.4543 12.2957 18.1791 12.0205C17.904 11.7456 17.4564 11.7459 17.181 12.0205L16.682 12.5195C16.4064 12.7952 15.9586 12.7952 15.683 12.5195C15.4077 12.2438 15.4084 11.797 15.684 11.5215C16.0076 11.1978 15.9259 11.2795 16.682 10.5234C16.957 10.2484 16.9568 9.80059 16.682 9.52539C16.4071 9.25036 15.9593 9.24978 15.684 9.52441L15.184 10.0244C14.9083 10.2998 14.4615 10.2999 14.1859 10.0244C13.9103 9.74884 13.9105 9.30205 14.1859 9.02637L18.6781 4.53418C18.954 4.25832 18.954 3.81097 18.6781 3.53516ZM13.641 1.40137C13.9166 1.12575 14.3644 1.12575 14.64 1.40137C14.9153 1.67693 14.9153 2.12386 14.64 2.39941L13.641 3.39746C13.3654 3.6729 12.9185 3.67302 12.643 3.39746C12.3676 3.12188 12.3676 2.67497 12.643 2.39941L13.641 1.40137ZM5.41737 1.40039C5.69297 1.12503 6.13986 1.12497 6.41542 1.40039L7.41346 2.39844C7.68901 2.67399 7.68886 3.12084 7.41346 3.39648C7.13784 3.67211 6.69104 3.67211 6.41542 3.39648L5.41737 2.39844C5.14187 2.12281 5.14179 1.67597 5.41737 1.40039ZM10.0297 0C10.4195 0 10.7357 0.316207 10.7357 0.706055V2.11719C10.7357 2.50703 10.4195 2.82324 10.0297 2.82324C9.6399 2.82315 9.32362 2.50698 9.32362 2.11719V0.706055C9.32362 0.316262 9.6399 8.88278e-05 10.0297 0Z" fill="#001F3E"/>
</g>
<defs>
<clipPath id="clip0_1_7307">
<rect width="24" height="24" fill="white"/>
</clipPath>
</defs>
</svg>
