<svg width="24" height="24" viewBox="0 0 24 24" fill="none" xmlns="http://www.w3.org/2000/svg">
<path d="M8.29492 21.2786C10.7188 20.5906 13.2812 20.5906 15.7051 21.2786C16.1035 21.3918 16.3348 21.8069 16.2217 22.2054C16.1084 22.6036 15.6932 22.835 15.2949 22.722C13.1389 22.1101 10.8611 22.11 8.70508 22.722C8.30673 22.835 7.89157 22.6036 7.77832 22.2054C7.66526 21.8071 7.89672 21.3919 8.29492 21.2786Z" fill="#001F3E"/>
<path d="M11.3506 7.51593C11.5572 7.15702 12.016 7.03305 12.375 7.23957C12.7339 7.44615 12.8569 7.90499 12.6504 8.26398L11.7959 9.75031H12.6309C13.0311 9.75038 13.5103 9.89867 13.7676 10.3509C14.0224 10.7992 13.9086 11.2825 13.71 11.6243L12.6523 13.4818C12.4472 13.8415 11.9887 13.9671 11.6289 13.762C11.2691 13.5569 11.1436 13.0984 11.3486 12.7386L12.1973 11.2503H11.3604C10.9594 11.2502 10.4874 11.0985 10.2305 10.6546C9.97322 10.2095 10.0779 9.72367 10.2812 9.37433L11.3506 7.51593Z" fill="#001F3E"/>
<path fill-rule="evenodd" clip-rule="evenodd" d="M3.35938 9.89972C3.35961 4.47942 8.34374 0.233819 13.959 1.45734H13.9609C16.4331 2.00429 18.6062 3.64504 19.7412 5.92609C21.9645 10.3943 19.7635 15.0701 16.4795 17.2806V18.0394C16.4846 18.1118 16.5169 18.5785 16.3154 18.9652C16.0317 19.5092 15.4614 19.7405 14.7695 19.7405H9.2627C8.70199 19.7453 8.05314 19.6587 7.72168 19.1009C7.57418 18.8526 7.55051 18.5976 7.54492 18.4398C7.542 18.3569 7.54421 18.2761 7.5459 18.2132C7.54623 18.2009 7.54656 18.1892 7.54688 18.178C7.54833 18.126 7.5498 18.0841 7.5498 18.0403V17.2913C5.23602 15.7366 3.35938 12.9368 3.35938 9.89972ZM13.6387 2.92218C8.97467 1.90661 4.85961 5.42076 4.85938 9.89972C4.85938 12.4657 6.5644 14.9555 8.6875 16.2386C8.91205 16.3744 9.0498 16.6177 9.0498 16.8802V18.0403C9.0498 18.1071 9.04738 18.1735 9.0459 18.2259C9.04582 18.2287 9.04598 18.2319 9.0459 18.2347C9.1012 18.2389 9.16973 18.2413 9.25293 18.2405H14.7695C14.8705 18.2405 14.9388 18.2316 14.9824 18.223C14.9826 18.2077 14.9828 18.19 14.9824 18.1693C14.982 18.1496 14.9811 18.1328 14.9805 18.1087C14.9799 18.0873 14.9795 18.059 14.9795 18.0306V16.8704C14.9795 16.6077 15.1169 16.3636 15.3418 16.2278C18.3211 14.4291 20.273 10.3632 18.3975 6.59406C17.4726 4.73563 15.6859 3.37548 13.6387 2.92218Z" fill="#001F3E"/>
</svg>
