<svg width="24" height="24" viewBox="0 0 24 24" fill="none" xmlns="http://www.w3.org/2000/svg">
<path d="M18.4004 2H20.0004C20.5504 2 21.0004 2.45 21.0004 3V18C21.0004 18.55 20.5504 19 20.0004 19H18.4004C17.8504 19 17.4004 18.55 17.4004 18V3C17.4004 2.45 17.8504 2 18.4004 2Z" fill="#001F3E"/>
<path d="M12.7992 5.19H11.1992C10.6492 5.19 10.1992 5.64 10.1992 6.19V18C10.1992 18.55 10.6492 19 11.1992 19H12.7992C13.3492 19 13.7992 18.55 13.7992 18V6.19C13.7992 5.64 13.3492 5.19 12.7992 5.19Z" fill="#001F3E"/>
<path d="M4 8.38H5.6C6.15 8.38 6.6 8.82 6.6 9.38V18C6.6 18.55 6.15 19 5.6 19H4C3.45 19 3 18.55 3 18V9.38C3 8.83 3.45 8.38 4 8.38Z" fill="#001F3E"/>
<path d="M3 22.75H21C21.41 22.75 21.75 22.41 21.75 22C21.75 21.59 21.41 21.25 21 21.25H3C2.59 21.25 2.25 21.59 2.25 22C2.25 22.41 2.59 22.75 3 22.75Z" fill="#001F3E"/>
</svg>
