<svg width="24" height="24" viewBox="0 0 24 24" fill="none" xmlns="http://www.w3.org/2000/svg">
<path fill-rule="evenodd" clip-rule="evenodd" d="M8.56641 10.6911C8.56641 9.34293 9.65933 8.25 11.0075 8.25C12.3557 8.25 13.4486 9.34293 13.4486 10.6911C13.4486 12.0393 12.3557 13.1322 11.0075 13.1322C9.65933 13.1322 8.56641 12.0393 8.56641 10.6911ZM11.0075 9.75C10.4878 9.75 10.0664 10.1714 10.0664 10.6911C10.0664 11.2109 10.4878 11.6322 11.0075 11.6322C11.5273 11.6322 11.9486 11.2109 11.9486 10.6911C11.9486 10.1714 11.5273 9.75 11.0075 9.75Z" fill="#001F3E"/>
<path fill-rule="evenodd" clip-rule="evenodd" d="M4.27299 18.113C3.33899 17.9824 2.55907 17.6766 2.02348 17.0009C1.39508 16.208 1.25 15.0753 1.25 13.72V6.73C1.25 5.24303 1.42172 4.01195 2.23073 3.21365C3.03626 2.41878 4.27563 2.25 5.78003 2.25H15.22C16.7 2.25 17.9208 2.41215 18.7264 3.16999C19.4124 3.81542 19.6569 4.75664 19.727 5.88695C20.661 6.01762 21.4409 6.32337 21.9765 6.99914C22.6049 7.792 22.75 8.92473 22.75 10.28V14.6717C22.7501 14.6774 22.7501 14.6832 22.75 14.6889V17.27C22.75 18.757 22.5783 19.988 21.7693 20.7864C20.9637 21.5812 19.7244 21.75 18.22 21.75H8.78003C7.30001 21.75 6.07915 21.5879 5.27361 20.83C4.58755 20.1846 4.34303 19.2434 4.27299 18.113ZM5.23073 6.76365C6.03626 5.96878 7.27563 5.8 8.78003 5.8H18.216C18.1418 4.9261 17.9537 4.50253 17.6986 4.26251C17.3641 3.94785 16.71 3.75 15.22 3.75H5.78003C4.26443 3.75 3.61378 3.95622 3.2843 4.28135C2.95829 4.60305 2.75 5.23697 2.75 6.73V13.72C2.75 15.0647 2.91992 15.717 3.19902 16.0691C3.37726 16.294 3.67089 16.4792 4.25 16.5897V10.28C4.25 8.79303 4.42172 7.56195 5.23073 6.76365ZM21.25 15.0244V17.27C21.25 18.763 21.0417 19.397 20.7157 19.7187C20.3862 20.0438 19.7356 20.25 18.22 20.25H8.78003C7.29005 20.25 6.63589 20.0522 6.30142 19.7375C6.24114 19.6808 6.18461 19.6138 6.13243 19.5331L10.2418 16.7741C10.6357 16.5098 11.226 16.5476 11.5648 16.8362L11.8402 17.0783L11.8466 17.0838C12.7871 17.8917 14.2678 17.8915 15.2085 17.0838L18.726 14.0651C19.1045 13.74 19.7546 13.74 20.1331 14.0651L21.25 15.0244ZM5.76775 17.9712C5.75813 17.8045 5.75213 17.6233 5.75 17.426V10.28C5.75 8.78696 5.95829 8.15305 6.2843 7.83135C6.61378 7.50622 7.26443 7.3 8.78003 7.3H18.22C18.4502 7.3 18.6677 7.30719 18.8787 7.31566L18.9622 7.31907C20.0908 7.38652 20.5554 7.621 20.801 7.93086C21.0801 8.283 21.25 8.93527 21.25 10.28V13.0471L21.1104 12.9272C20.1699 12.1194 18.6892 12.1195 17.7486 12.9273L14.2311 15.9459C13.8535 16.2702 13.2056 16.271 12.8267 15.9482L12.5514 15.7062L12.545 15.7008C11.6827 14.9599 10.347 14.8972 9.4059 15.5286L5.76775 17.9712Z" fill="#001F3E"/>
</svg>
