<svg width="24" height="24" viewBox="0 0 24 24" fill="none" xmlns="http://www.w3.org/2000/svg">
<path fill-rule="evenodd" clip-rule="evenodd" d="M3.09467 3.09467C4.42914 1.7602 6.42603 1.25 9 1.25H15C17.574 1.25 19.5709 1.7602 20.9053 3.09467C22.2398 4.42914 22.75 6.42603 22.75 9V15C22.75 17.574 22.2398 19.5709 20.9053 20.9053C19.5709 22.2398 17.574 22.75 15 22.75H9C6.42603 22.75 4.42914 22.2398 3.09467 20.9053C1.7602 19.5709 1.25 17.574 1.25 15V9C1.25 6.42603 1.7602 4.42914 3.09467 3.09467ZM4.15533 4.15533C3.2398 5.07086 2.75 6.57397 2.75 9V15C2.75 17.426 3.2398 18.9291 4.15533 19.8447C5.07086 20.7602 6.57397 21.25 9 21.25H15C17.426 21.25 18.9291 20.7602 19.8447 19.8447C20.7602 18.9291 21.25 17.426 21.25 15V9C21.25 6.57397 20.7602 5.07086 19.8447 4.15533C18.9291 3.2398 17.426 2.75 15 2.75H9C6.57397 2.75 5.07086 3.2398 4.15533 4.15533Z" fill="#001F3E"/>
<path d="M7.99463 11C7.44234 11 6.99463 11.4477 6.99463 12C6.99463 12.5523 7.44234 13 7.99463 13H8.00361C8.5559 13 9.00361 12.5523 9.00361 12C9.00361 11.4477 8.5559 11 8.00361 11H7.99463Z" fill="#001F3E"/>
<path d="M10.9956 12C10.9956 11.4477 11.4433 11 11.9956 11H12.0046C12.5569 11 13.0046 11.4477 13.0046 12C13.0046 12.5523 12.5569 13 12.0046 13H11.9956C11.4433 13 10.9956 12.5523 10.9956 12Z" fill="#001F3E"/>
<path d="M14.9966 12C14.9966 11.4477 15.4443 11 15.9966 11H16.0056C16.5578 11 17.0056 11.4477 17.0056 12C17.0056 12.5523 16.5578 13 16.0056 13H15.9966C15.4443 13 14.9966 12.5523 14.9966 12Z" fill="#001F3E"/>
</svg>
