<svg width="24" height="24" viewBox="0 0 24 24" fill="none" xmlns="http://www.w3.org/2000/svg">
<path d="M19.75 11.96C19.75 11.5457 19.4142 11.21 19 11.21C18.5858 11.21 18.25 11.5457 18.25 11.96V14.96C18.25 15.3742 18.5858 15.71 19 15.71C19.4142 15.71 19.75 15.3742 19.75 14.96V11.96Z" fill="#001F3E"/>
<path fill-rule="evenodd" clip-rule="evenodd" d="M1.75 5.67063V17.1999C1.75 19.6841 3.77578 21.7099 6.26 21.7099H17.74C20.2242 21.7099 22.25 19.6841 22.25 17.1999V10.4699C22.25 7.98905 20.2297 5.96535 17.75 5.95993V5.45992C17.75 4.55358 17.4659 3.73226 16.8683 3.1364C16.2704 2.54037 15.4392 2.2501 14.4999 2.24995L4.99995 2.25059C4.15025 2.2506 3.32969 2.55647 2.71936 3.16177C2.10427 3.77182 1.75 4.63866 1.75 5.67063ZM14.4999 3.74995L5.00005 3.75059C4.50977 3.75059 4.0803 3.92464 3.77564 4.22681C3.47573 4.52424 3.25 4.99242 3.25 5.67063V5.95992H16.25V5.45992C16.25 4.86625 16.0691 4.45771 15.8092 4.19865C15.5496 3.93979 15.1306 3.75009 14.4999 3.74995ZM3.25 7.45992H17.74C19.3958 7.45992 20.75 8.81414 20.75 10.4699V17.1999C20.75 18.8557 19.3958 20.2099 17.74 20.2099H6.26C4.60422 20.2099 3.25 18.8557 3.25 17.1999V7.45992Z" fill="#001F3E"/>
</svg>
