<svg width="24" height="24" viewBox="0 0 24 24" fill="none" xmlns="http://www.w3.org/2000/svg">
<path d="M9.06234 12.5254C9.86123 13.2128 10.9018 13.6122 11.9979 13.6123C13.1034 13.6123 14.1257 13.2314 14.9246 12.5439C15.7608 13.2221 16.8011 13.6123 17.8602 13.6123C18.0273 13.6123 18.1945 13.6035 18.3524 13.585C18.4639 13.5757 18.5666 13.5664 18.6688 13.5479C18.9565 13.5107 19.2165 13.4273 19.4764 13.3438C20.0803 13.1394 20.703 13.5851 20.703 14.2168V16.9854C20.7028 19.5493 18.6214 21.6299 16.0575 21.6299C15.8068 21.6296 15.6024 21.4255 15.6024 21.1748V18.9541C15.6023 17.7652 15.24 16.8367 14.534 16.2051C13.9116 15.6384 13.0662 15.3594 12.0164 15.3594C11.7843 15.3594 11.5523 15.3686 11.3016 15.3965C9.64812 15.5637 8.39363 16.9569 8.3934 18.6289V21.1748C8.3934 21.4256 8.18915 21.6299 7.93832 21.6299C5.37438 21.6299 3.29396 19.5493 3.29379 16.9854V14.2354C3.29379 13.5851 3.9341 13.1487 4.53793 13.3623C4.78866 13.4459 5.03963 13.5107 5.29965 13.5479C5.41102 13.5664 5.532 13.5849 5.6434 13.585C5.79204 13.6035 5.94104 13.6123 6.08969 13.6123C7.16732 13.6123 8.22624 13.2128 9.06234 12.5254Z" fill="#001F3E"/>
<path d="M11.3944 16.3164C13.5311 16.0934 14.6742 17.0134 14.6649 18.9551V21.1748C14.6649 21.4255 14.4605 21.6297 14.2098 21.6299H9.77816C9.52733 21.6299 9.32308 21.4256 9.32308 21.1748V18.6299C9.32308 17.4408 10.2146 16.4372 11.3944 16.3164Z" fill="#001F3E"/>
<path d="M16.9686 2C19.6906 2 20.9632 3.14269 21.3534 5.94824L21.6229 8.52148C21.7158 9.48746 21.4652 10.4258 20.908 11.1689C20.2113 12.1351 19.0958 12.6836 17.8602 12.6836C16.7083 12.6835 15.6028 12.1169 14.8875 11.1973C14.2466 12.1261 13.1971 12.6834 11.9989 12.6836C10.8005 12.6836 9.7224 12.0984 9.09066 11.1602C8.38461 12.0984 7.26023 12.6836 6.08969 12.6836C4.88208 12.6835 3.79472 12.1638 3.08871 11.2441C2.5035 10.4917 2.23418 9.52518 2.32699 8.53125L2.57797 5.97656C2.97744 3.14308 4.2412 2 6.9725 2H16.9686Z" fill="#001F3E"/>
</svg>
