<svg width="24" height="24" viewBox="0 0 24 24" fill="none" xmlns="http://www.w3.org/2000/svg">
<path d="M12.0001 1.90057C12.3799 1.90083 12.6874 2.20828 12.6876 2.58807C12.6876 2.96803 12.38 3.27629 12.0001 3.27655C10.2747 3.27655 8.5871 3.78867 7.15247 4.74725C4.25046 6.68659 2.7626 10.279 3.44348 13.7023C4.12447 17.1259 6.87437 19.8758 10.298 20.5568C15.6189 21.615 20.7238 17.3646 20.7238 12.0002C20.724 11.6202 21.0322 11.3127 21.4122 11.3127C21.792 11.3129 22.0995 11.6204 22.0997 12.0002C22.0997 18.2133 16.1929 23.1322 10.0294 21.9064C6.06483 21.1178 2.8815 17.9356 2.0929 13.9709C1.30441 10.0065 3.02705 5.84853 6.38782 3.60272C8.04881 2.49288 10.0024 1.90057 12.0001 1.90057Z" fill="#001F3E" stroke="#001F3E" stroke-width="0.2"/>
<path d="M12.0001 1.79999C12.4351 1.80024 12.788 2.15305 12.7882 2.58807C12.7882 3.02327 12.4353 3.37688 12.0001 3.37714C10.2945 3.37714 8.62634 3.88266 7.20815 4.83026C4.33971 6.74708 2.8682 10.2991 3.54116 13.6828C4.21425 17.0667 6.93359 19.786 10.3175 20.4592C15.5761 21.5049 20.6232 17.302 20.6232 12.0002C20.6234 11.565 20.977 11.2121 21.4123 11.2121C21.8473 11.2124 22.2001 11.5652 22.2003 12.0002C22.2003 18.2758 16.2357 23.2432 10.0099 22.0051C6.00565 21.2085 2.79176 17.9948 1.99526 13.9904C1.19884 9.98641 2.93784 5.78804 6.33218 3.51971C8.00962 2.39888 9.98264 1.79999 12.0001 1.79999ZM12.0001 2.00018C10.0222 2.00018 8.08805 2.58688 6.4435 3.68573C3.11625 5.90907 1.4109 10.0266 2.19155 13.9514C2.97227 17.8764 6.12405 21.028 10.049 21.8088C16.1501 23.0221 22.0001 18.1507 22.0001 12.0002C21.9999 11.6756 21.7368 11.4125 21.4123 11.4123C21.0875 11.4123 20.8236 11.6755 20.8234 12.0002C20.8234 17.4272 15.6617 21.7252 10.2785 20.6545C6.8152 19.9656 4.03375 17.1851 3.34487 13.7219C2.6561 10.2587 4.1619 6.62597 7.0978 4.66425C8.54886 3.69472 10.255 3.17694 12.0001 3.17694C12.3248 3.17668 12.588 2.9128 12.588 2.58807C12.5878 2.26351 12.3247 2.00044 12.0001 2.00018Z" fill="#001F3E"/>
<path d="M19.5447 8.36926C19.276 8.6378 18.8408 8.6378 18.572 8.36926L16.2185 6.01575C15.9501 5.74701 15.9501 5.31177 16.2185 5.04309C16.4872 4.77429 16.9233 4.77433 17.1921 5.04309L18.4324 6.28332L18.4324 2.58801C18.4325 2.20816 18.7401 1.89978 19.1199 1.89954C19.4999 1.89954 19.8082 2.20801 19.8084 2.58801L19.8083 6.1593L20.9246 5.04309C21.1933 4.77429 21.6294 4.77434 21.8982 5.04309C22.1668 5.3118 22.1667 5.74699 21.8982 6.01575L19.5447 8.36926Z" fill="#001F3E" stroke="#001F3E" stroke-width="0.2"/>
<path d="M18.532 6.52455L17.1219 5.11342C16.9208 4.91239 16.6099 4.8874 16.3816 5.03823L16.2898 5.11342C16.0888 5.31446 16.0628 5.62531 16.2137 5.85366L16.2898 5.94545L18.6424 8.29897C18.8721 8.52847 19.2448 8.52844 19.4744 8.29897L21.8279 5.94545L21.9031 5.85366C22.054 5.62536 22.0289 5.31449 21.8279 5.11342C21.6269 4.91239 21.316 4.8874 21.0877 5.03823L20.9959 5.11342L19.7088 6.40053L19.7088 2.58803L19.6971 2.46987C19.6501 2.24003 19.4689 2.05892 19.2391 2.01186L19.1199 2.00014C18.8358 2.00036 18.5985 2.20185 18.5438 2.46987L18.532 2.58803L18.532 6.52455ZM18.3318 2.58803C18.332 2.15295 18.6849 1.80019 19.1199 1.79995C19.5552 1.79995 19.9089 2.15279 19.909 2.58803L19.909 5.91713L20.8543 4.97182C21.162 4.66432 21.6608 4.66446 21.9686 4.97182C22.2764 5.27966 22.2764 5.77921 21.9686 6.08705L19.616 8.43959C19.3083 8.74748 18.8086 8.74738 18.5008 8.43959L16.1482 6.08705C15.8404 5.77921 15.8404 5.27966 16.1482 4.97182C16.4559 4.66432 16.9547 4.66446 17.2625 4.97182L18.3318 6.04116L18.3318 2.58803Z" fill="#001F3E"/>
<path d="M12.3516 8C12.7809 8 13.1297 8.348 13.1299 8.77734V8.82422C14.3014 8.8847 15.2031 9.87264 15.2031 11.0488C15.2029 11.4782 14.8542 11.8262 14.4248 11.8262C13.9956 11.826 13.6476 11.478 13.6475 11.0488C13.6475 10.6578 13.3502 10.3817 13.0293 10.375H11.4805C11.2841 10.375 11.0557 10.5583 11.0557 10.8623C11.0557 11.1232 11.1106 11.1922 11.1162 11.1992C11.1283 11.2145 11.1738 11.2631 11.3652 11.3311L13.8604 12.2041C14.1601 12.3125 14.5254 12.4877 14.8008 12.8398C15.0836 13.2017 15.1924 13.6471 15.1924 14.1387C15.1922 15.224 14.3426 16.1807 13.2119 16.1807H13.1299V16.2227C13.1297 16.652 12.7809 17 12.3516 17C11.9223 16.9998 11.5744 16.6519 11.5742 16.2227V16.1758C10.3922 16.1303 9.50021 15.1154 9.5 13.9521C9.5 13.5228 9.848 13.174 10.2773 13.1738C10.7068 13.1738 11.0557 13.5227 11.0557 13.9521C11.0559 14.3581 11.3656 14.6257 11.6562 14.626H13.2119C13.4082 14.626 13.6366 14.4425 13.6367 14.1387C13.6367 13.8777 13.5817 13.807 13.5752 13.7988C13.5629 13.7832 13.5194 13.7351 13.335 13.668L10.8477 12.7979C10.5432 12.69 10.1738 12.515 9.89551 12.1621C9.60936 11.7992 9.50007 11.3534 9.5 10.8623C9.5 9.77685 10.3496 8.81934 11.4805 8.81934H11.5742V8.77734C11.5744 8.3481 11.9223 8.00017 12.3516 8Z" fill="#001F3E"/>
</svg>
