<svg width="24" height="24" viewBox="0 0 24 24" fill="none" xmlns="http://www.w3.org/2000/svg">
<path fill-rule="evenodd" clip-rule="evenodd" d="M13.5729 22.5848C13.3451 22.6475 13.1247 22.6831 12.9083 22.7059L12.9053 22.7062C12.9036 22.7064 12.9018 22.7066 12.9 22.7067C11.9784 22.7935 11.043 22.7493 10.0865 22.5898L10.0838 22.5894C5.65786 21.8356 2.10177 18.2572 1.36978 13.8222C0.156185 6.46546 6.43512 0.186457 13.7918 1.40005C18.2269 2.13205 21.8053 5.68814 22.5591 10.1141L22.5596 10.1167C22.719 11.0732 22.7632 12.0086 22.6765 12.9303C22.6762 12.9331 22.6759 12.9358 22.6756 12.9386C22.6532 13.1517 22.6183 13.3687 22.5573 13.5928C22.5554 13.6006 22.5533 13.6083 22.5511 13.6161C22.3753 14.2312 22.0485 14.7822 21.5903 15.2404L15.2103 21.6204C14.7521 22.0785 14.2012 22.4054 13.586 22.5812C13.5816 22.5824 13.5773 22.5836 13.5729 22.5848ZM2.84976 13.578C1.80335 7.23469 7.20441 1.83364 13.5477 2.88004C17.3522 3.50798 20.4336 6.57135 21.0802 10.3649C21.1786 10.9554 21.2255 11.5269 21.2197 12.0836C20.2557 11.5522 19.1464 11.25 17.97 11.25C17.8535 11.25 17.7377 11.253 17.6227 11.2588C17.5078 11.2647 17.3936 11.2734 17.2802 11.2849C13.8791 11.631 11.2198 14.5086 11.2198 18C11.2198 19.1766 11.522 20.2859 12.0535 21.2499C11.4967 21.2558 10.9252 21.2089 10.3346 21.1105C6.54107 20.4639 3.47769 17.3825 2.84976 13.578ZM17.4336 12.7772C14.789 13.0465 12.72 15.2853 12.72 18C12.72 19.0953 13.0556 20.1128 13.6297 20.9519C13.8167 20.8494 13.9907 20.7187 14.1496 20.5597L20.5296 14.1797C20.6886 14.0208 20.8193 13.8468 20.9218 13.6599C20.0827 13.0857 19.0651 12.75 17.9698 12.75C17.8793 12.75 17.7893 12.7523 17.6999 12.7569C17.6105 12.7614 17.5217 12.7682 17.4336 12.7772Z" fill="#001F3E"/>
</svg>
