<svg width="24" height="24" viewBox="0 0 24 24" fill="none" xmlns="http://www.w3.org/2000/svg">
<path d="M21.5416 8.95357C15.7516 4.48211 8.24836 4.48211 2.45839 8.95357C2.13056 9.20675 1.65956 9.14623 1.40638 8.81839C1.1532 8.49056 1.21372 8.01956 1.54156 7.76638C7.87159 2.87784 16.1284 2.87784 22.4584 7.76638C22.7862 8.01956 22.8467 8.49056 22.5936 8.81839C22.3404 9.14623 21.8694 9.20675 21.5416 8.95357Z" fill="#001F3E"/>
<path d="M18.6418 12.4336C14.6118 9.32209 9.39847 9.32209 5.36848 12.4336C5.04062 12.6868 4.56963 12.6262 4.31649 12.2983C4.06335 11.9705 4.12392 11.4995 4.45178 11.2463C9.02179 7.71786 14.9885 7.71786 19.5585 11.2463C19.8863 11.4995 19.9469 11.9705 19.6938 12.2983C19.4406 12.6262 18.9696 12.6868 18.6418 12.4336Z" fill="#001F3E"/>
<path d="M16.5567 15.9443C13.8406 13.9538 10.4179 13.9012 7.666 15.7796C7.32388 16.0131 6.85724 15.925 6.62372 15.5829C6.3902 15.2408 6.47824 14.7742 6.82035 14.5407C10.0993 12.3025 14.2162 12.3694 17.4433 14.7344C17.7774 14.9792 17.8498 15.4485 17.605 15.7826C17.3601 16.1167 16.8908 16.1891 16.5567 15.9443Z" fill="#001F3E"/>
<path d="M10.2499 18.5C10.2499 17.5335 11.0334 16.75 11.9999 16.75C12.9664 16.75 13.7499 17.5335 13.7499 18.5C13.7499 19.4665 12.9664 20.25 11.9999 20.25C11.0334 20.25 10.2499 19.4665 10.2499 18.5Z" fill="#001F3E"/>
</svg>
