<svg width="24" height="24" viewBox="0 0 24 24" fill="none" xmlns="http://www.w3.org/2000/svg">
<path d="M7.65672 6.09819C11.0718 2.81555 16.9987 4.28427 18.3608 8.70327C18.5103 9.22021 18.5889 9.80069 18.6184 10.2657C18.6249 10.3679 18.6306 10.4693 18.6362 10.5703C18.6563 10.9317 18.6762 11.2892 18.7346 11.6702C18.9547 13.1086 19.5453 14.2047 20.4364 15.3685L20.4365 15.3686C20.4868 15.4344 20.5505 15.4981 20.6234 15.5706L20.6275 15.5746C20.6964 15.643 20.7738 15.7198 20.8382 15.8035C20.9046 15.8898 20.9635 15.9914 20.9881 16.112C21.0131 16.2349 20.9998 16.3656 20.9408 16.5047C20.8871 16.6318 20.8182 16.7333 20.7313 16.8041C20.6423 16.8767 20.5411 16.9114 20.436 16.9142C20.2363 16.9195 20.0392 16.8094 19.8746 16.6832C19.5425 16.4286 19.2309 16.0187 19.0973 15.8431L19.093 15.8375C18.29 14.7835 17.8937 13.9128 17.6684 12.995C17.4923 12.2774 17.4212 11.5302 17.338 10.655C17.3157 10.4213 17.2926 10.1784 17.2664 9.92456C17.071 8.02788 15.7512 6.6208 14.0868 5.99799C12.4221 5.37508 10.4297 5.54398 8.90643 6.78452C8.61172 7.02447 8.36153 7.27753 8.15008 7.54204C7.03067 9.06907 7.01313 11.1111 7.28855 13.1049C7.60846 15.4187 8.42812 17.6152 9.5907 19.6442L9.64021 20.0248C9.6482 20.0382 9.65613 20.0517 9.66414 20.0651L9.61932 19.694C10.0217 20.3919 10.4645 21.07 10.9416 21.726L10.9694 21.7644L10.9701 21.8119C10.9755 22.1829 10.7989 22.4569 10.516 22.5435C10.2419 22.6274 9.9258 22.5167 9.68279 22.2503L9.6825 22.2501C8.91607 21.4065 8.16796 20.0675 7.55369 18.6798C6.93839 17.2898 6.45086 15.8357 6.21102 14.7522C5.56717 11.8443 5.26432 8.44465 7.65672 6.09819Z" fill="black"/>
<path d="M11.9674 7.68462C13.6876 7.52302 15.3481 8.85909 15.5024 10.6241L15.5029 10.6294C15.728 13.2069 15.8607 14.7274 17.3848 16.8718C17.5874 17.1574 17.8565 17.4292 18.1264 17.6998L18.147 17.7203C18.4053 17.9792 18.6661 18.2404 18.8429 18.4997C19.0674 18.8286 19.0445 19.1947 18.8172 19.4067C18.5867 19.6215 18.2158 19.6157 17.8707 19.3472C16.8892 18.5832 16.0601 17.3621 15.4458 16.0417C14.8307 14.7199 14.4242 13.2843 14.2967 12.0787C14.2724 11.8481 14.2666 11.6272 14.2622 11.4184C14.2619 11.4051 14.2616 11.3918 14.2613 11.3786C14.2572 11.1828 14.2534 10.9989 14.2364 10.8189C14.2007 10.4398 14.1076 10.0879 13.8345 9.73305C13.8329 9.73091 13.6488 9.47726 13.3623 9.2769C12.8173 8.89575 12.1662 8.85181 11.599 9.0646C10.8535 9.3443 10.2519 10.0687 10.2386 11.0714C10.1961 14.173 11.4248 17.6204 13.2243 20.0994C13.2998 20.2032 13.4594 20.3923 13.6426 20.6094C13.727 20.7096 13.8165 20.8157 13.9052 20.9221C14.0433 21.0881 14.178 21.2533 14.2821 21.3919C14.3341 21.4611 14.3799 21.5255 14.4151 21.5812C14.4475 21.6323 14.4803 21.6902 14.494 21.7422C14.6505 22.3344 13.9419 22.7881 13.4333 22.3513C13.286 22.2249 13.085 21.9894 12.8973 21.7555C12.7153 21.5287 12.5376 21.2929 12.4197 21.1366L12.4041 21.1159C10.31 18.3359 8.75515 14.1798 9.03191 10.6229C9.153 9.07471 10.4651 7.82647 11.9674 7.68462Z" fill="black"/>
<path d="M11.9887 10.2821C12.3965 10.1832 12.6252 10.5281 12.6879 10.6952C12.6947 14.2687 14.1644 16.9504 16.181 19.6336C16.2335 19.7034 16.3516 19.8327 16.4857 19.9793C16.5258 20.0231 16.5681 20.0683 16.6097 20.1141C16.6977 20.2109 16.7836 20.3089 16.8519 20.3915C16.8861 20.4327 16.9171 20.4719 16.9418 20.5067C16.964 20.5379 16.9895 20.5763 17.0033 20.6141C17.1019 20.8849 17.0581 21.148 16.9115 21.3299C16.7642 21.5127 16.5234 21.5992 16.2689 21.5301C16.2162 21.5157 16.1661 21.4786 16.1303 21.45C16.0887 21.4169 16.0419 21.3745 15.9935 21.327C15.8965 21.2317 15.7833 21.1084 15.6722 20.9823C15.4502 20.7299 15.2286 20.4563 15.1469 20.3485C13.3983 18.0335 11.7483 15.3435 11.5502 12.2049C11.5398 12.037 11.5205 11.6935 11.5238 11.3622C11.5255 11.1967 11.5326 11.0307 11.5502 10.8895C11.559 10.8189 11.5705 10.7514 11.5863 10.6922C11.6015 10.6353 11.6236 10.5765 11.6566 10.5282C11.6922 10.4757 11.8153 10.3242 11.9887 10.2821Z" fill="black"/>
<path d="M11.1021 1.48393C15.4166 1.13559 19.4496 3.48547 20.8137 7.61186C20.8236 7.64141 20.8352 7.67559 20.8481 7.71362C20.9306 7.95555 21.0667 8.35462 21.1231 8.72573C21.1556 8.93945 21.165 9.16239 21.1116 9.34868C21.0553 9.54511 20.9254 9.70738 20.6922 9.75961L20.692 9.75971C20.4764 9.80778 20.2952 9.78914 20.1493 9.70073C20.0063 9.61407 19.922 9.47511 19.867 9.33452C19.8121 9.19434 19.7799 9.03504 19.7525 8.88989C19.749 8.87104 19.7455 8.85245 19.7421 8.83413C19.7181 8.70563 19.6966 8.5902 19.6656 8.49057L19.6655 8.49047C18.13 3.53853 12.6337 1.16078 8.01619 3.88393C5.3028 5.48299 4.29932 7.98935 4.20789 10.7294C4.11623 13.4766 4.94323 16.4469 5.88338 18.935L5.88914 18.9501L5.89148 18.9663C5.98691 19.6172 5.25029 19.9998 4.76795 19.5638C4.7199 19.5204 4.67728 19.452 4.6409 19.3852C4.60182 19.3135 4.56018 19.2248 4.51766 19.1263C4.43247 18.929 4.33958 18.6828 4.25066 18.4328C4.07269 17.9324 3.90761 17.4079 3.84773 17.2086C3.02454 14.4754 2.40121 10.6332 3.26687 7.84106C4.30666 4.48363 7.51206 1.77334 11.1021 1.48393Z" fill="black"/>
</svg>
