<svg width="24" height="24" viewBox="0 0 24 24" fill="none" xmlns="http://www.w3.org/2000/svg">
<path fill-rule="evenodd" clip-rule="evenodd" d="M15.5176 1.43726C16.6843 1.28806 17.8647 1.76518 19.0642 2.89373L19.0655 2.89503C20.269 4.03312 20.8168 5.18762 20.7346 6.3635C20.6552 7.49975 19.9965 8.46146 19.2454 9.25501L17.9737 10.6011C17.9218 10.6829 17.8547 10.7536 17.7767 10.8095L11.0395 17.9407C10.8081 18.1926 10.4966 18.406 10.2013 18.5639C9.90225 18.7238 9.55628 18.8606 9.23149 18.9184L9.2265 18.9193L6.00765 19.469C5.22708 19.6036 4.47858 19.4086 3.94538 18.9029C3.41293 18.398 3.17764 17.6616 3.2648 16.8771L3.26506 16.8749L3.63666 13.6208C3.67982 13.2971 3.80004 12.9468 3.94175 12.643C4.08295 12.3402 4.2756 12.0191 4.50358 11.7764L4.50504 11.7749L11.3279 4.55313C11.339 4.54053 11.3506 4.52831 11.3625 4.51647L12.715 3.08489C13.4666 2.29102 14.3901 1.58143 15.5176 1.43726ZM18.155 8.22489L17.0418 9.40316C14.892 9.03568 13.175 7.41188 12.6978 5.28733L13.8049 4.11556C14.4732 3.40968 15.0954 3.00345 15.7078 2.92514C15.8681 2.90465 16.0425 2.90496 16.2325 2.93661C16.7221 3.01816 17.3151 3.30776 18.0357 3.98564C19.0416 4.93718 19.2786 5.68244 19.2383 6.2589C19.2044 6.74338 18.9674 7.24497 18.5424 7.78071C18.427 7.92614 18.2978 8.07409 18.155 8.22489ZM5.59685 12.8035L11.512 6.54252C12.2545 8.5041 13.8602 10.0199 15.8586 10.6555L9.94496 16.9148L9.936 16.9246C9.85783 17.0104 9.70168 17.1301 9.4941 17.241C9.28934 17.3505 9.09632 17.4185 8.97105 17.4412L5.75394 17.9907L5.75279 17.9909C5.37335 18.0563 5.12185 17.9513 4.97755 17.8145C4.83264 17.6771 4.71301 17.4287 4.75552 17.0438L4.75563 17.0428L5.12444 13.8133C5.14231 13.6867 5.20193 13.4898 5.30119 13.2769C5.40228 13.0602 5.51488 12.8909 5.59685 12.8035Z" fill="#001F3E"/>
<path d="M3 21.2499C2.58579 21.2499 2.25 21.5857 2.25 21.9999C2.25 22.4142 2.58579 22.7499 3 22.7499H21C21.4142 22.7499 21.75 22.4142 21.75 21.9999C21.75 21.5857 21.4142 21.2499 21 21.2499H3Z" fill="#001F3E"/>
</svg>
