<svg width="24" height="24" viewBox="0 0 24 24" fill="none" xmlns="http://www.w3.org/2000/svg">
<path fill-rule="evenodd" clip-rule="evenodd" d="M14.4031 1.91437L14.4056 1.916L20.3909 5.84295C21.7026 6.70373 22.2888 8.15057 22.1494 9.53514V15C22.1494 15.4142 21.8136 15.75 21.3994 15.75C20.9852 15.75 20.6494 15.4142 20.6494 15V12.2429C20.5667 12.3069 20.4805 12.3683 20.391 12.4271L19.1296 13.2547V17.77C19.1296 18.5909 18.817 19.3984 18.3483 20.0495C17.8798 20.7004 17.2137 21.2526 16.4368 21.5116L13.2391 22.5741C12.8621 22.6953 12.4116 22.745 11.9959 22.745C11.5808 22.745 11.1309 22.6954 10.7563 22.5728L10.7531 22.5718L7.56313 21.5118C6.78618 21.2528 6.11949 20.7004 5.65093 20.0495C5.18228 19.3984 4.86963 18.5909 4.86963 17.77L4.86963 17.7684L4.87926 13.2504L3.61954 12.4281C1.2362 10.8721 1.23619 7.38798 3.61953 5.83202L9.63753 1.90333L9.63855 1.90266C10.3274 1.45017 11.1944 1.24734 12.0208 1.24879C12.8468 1.25023 13.714 1.45584 14.4031 1.91437ZM20.6574 8.89044C20.6521 8.92621 20.6494 8.96281 20.6494 9.00003V9.4494C20.5637 10.1177 20.2032 10.7561 19.568 11.173L13.5775 15.1033C13.1865 15.3604 12.6236 15.5125 12.0195 15.5125C11.4155 15.5125 10.8525 15.3604 10.4615 15.1033L4.43951 11.172C2.96286 10.208 2.96287 8.05209 4.43952 7.08805L10.4595 3.15806L10.4615 3.15674C10.8525 2.8997 11.4151 2.74773 12.0182 2.74878C12.6213 2.74984 13.183 2.90376 13.5735 3.16409L19.5681 7.09712C20.2253 7.52845 20.5884 8.19699 20.6574 8.89044ZM14.4015 16.3567L17.6296 14.2388V17.77C17.6296 18.2192 17.4523 18.7267 17.1309 19.1731C16.8095 19.6196 16.3854 19.9475 15.9625 20.0885L12.7771 21.147C12.5941 21.2053 12.3109 21.245 11.9959 21.245C11.6793 21.245 11.3997 21.2049 11.2242 21.1477L11.2229 21.1473L8.03653 20.0884C7.61357 19.9474 7.1897 19.6196 6.86833 19.1731C6.54715 18.7269 6.36982 18.2191 6.36963 17.77L6.37718 14.2283L9.63753 16.3567L9.63853 16.3574C10.3273 16.8099 11.194 17.0125 12.0195 17.0125C12.8453 17.0125 13.7126 16.8095 14.4015 16.3567Z" fill="#001F3E"/>
</svg>
