<svg width="24" height="24" viewBox="0 0 24 24" fill="none" xmlns="http://www.w3.org/2000/svg">
<path d="M14.7127 1.5C17.1226 1.5 19.0762 3.45358 19.0762 5.86344C19.0762 8.2733 17.1226 10.2269 14.7127 10.2269C12.3029 10.2269 10.3493 8.2733 10.3493 5.86344C10.3493 3.45358 12.3029 1.5 14.7127 1.5Z" fill="#001F3E"/>
<path d="M4.67187 3.88281C6.42365 3.88281 7.84374 5.30291 7.84374 7.05468C7.84374 8.80646 6.42365 10.2266 4.67187 10.2266C2.92009 10.2266 1.5 8.80646 1.5 7.05468C1.5 5.30291 2.92009 3.88281 4.67187 3.88281Z" fill="#001F3E"/>
<path d="M20.9628 13.2603C20.8213 13.168 20.6427 13.1534 20.4881 13.2215L20.1489 13.371C19.9359 13.465 19.6361 13.5973 19.2888 13.7509C18.7748 13.9782 18.1564 14.2521 17.5611 14.517C17.5329 14.3167 17.5037 14.1186 17.4747 13.9234C17.3282 12.9373 16.5185 12.1725 15.5237 12.0864C12.5699 11.8306 9.61462 11.8306 6.66021 12.0864C5.66545 12.1725 4.85569 12.9373 4.7092 13.9234C4.399 16.0116 4.399 17.9552 4.7092 20.0434C4.8557 21.0295 5.66546 21.7943 6.66021 21.8804C9.61582 22.1363 12.5688 22.1363 15.5237 21.8804C16.5185 21.7943 17.3282 21.0295 17.4747 20.0434C17.5037 19.8482 17.5329 19.6502 17.5611 19.4498C18.1563 19.7148 18.7747 19.9887 19.2888 20.216C19.6361 20.3696 19.9359 20.5019 20.1489 20.5959L20.4881 20.7454C20.6427 20.8135 20.8213 20.7989 20.9628 20.7066C21.1043 20.6143 21.1896 20.4568 21.1896 20.2878V13.6791C21.1896 13.5101 21.1043 13.3526 20.9628 13.2603Z" fill="#001F3E"/>
</svg>
