<svg width="24" height="24" viewBox="0 0 24 24" fill="none" xmlns="http://www.w3.org/2000/svg">
<path fill-rule="evenodd" clip-rule="evenodd" d="M13.9706 2.68151L12 5.85289L10.0294 2.68151C8.60371 0.387124 5.20809 0.497766 3.93798 2.8825C3.11427 4.42908 3.57998 6.29931 4.934 7.30628C3.40734 8.12121 2.34871 9.67992 2.20088 11.5C2.17661 11.7989 2.1552 12.0995 2.13692 12.4019H11.25V7.30518H12.75V12.4019H21.8628C21.8445 12.0995 21.8231 11.7989 21.7988 11.5C21.651 9.67998 20.5925 8.12131 19.0659 7.30637C20.42 6.29942 20.8857 4.42912 20.062 2.8825C18.7919 0.497766 15.3963 0.387124 13.9706 2.68151ZM15.2447 3.47319C16.0611 2.15924 18.0121 2.22455 18.7381 3.58763C19.265 4.57703 18.8645 5.80687 17.8424 6.30144L16.992 6.7129C15.866 6.63162 14.6505 6.58314 13.324 6.56428L15.2447 3.47319ZM8.75531 3.47319L10.676 6.56428C9.3495 6.58313 8.13397 6.63161 7.00796 6.71288L6.15761 6.30144C5.13545 5.80687 4.73496 4.57703 5.26191 3.58763C5.98789 2.22455 7.93886 2.15924 8.75531 3.47319Z" fill="#001F3E"/>
<path d="M21.9263 13.9019H12.75V23.0861C14.309 23.0741 15.7178 23.0236 17.0089 22.93C19.585 22.7431 21.5911 20.7017 21.7988 18.1441C21.8869 17.0602 21.9372 15.9538 21.9372 14.822C21.9372 14.5134 21.9335 14.2067 21.9263 13.9019Z" fill="#001F3E"/>
<path d="M11.25 23.0861V13.9019H2.07347C2.06624 14.2067 2.0625 14.5134 2.0625 14.822C2.0625 15.9538 2.11285 17.0602 2.20089 18.1441C2.40861 20.7017 4.41476 22.7431 6.99082 22.93C8.28196 23.0236 9.69087 23.0741 11.25 23.0861Z" fill="#001F3E"/>
</svg>
