<svg width="24" height="24" viewBox="0 0 24 24" fill="none" xmlns="http://www.w3.org/2000/svg">
<path d="M12.4687 1.41484C12.7919 1.67392 12.8438 2.14594 12.5848 2.46913L11.7802 3.47283C11.853 3.47096 11.926 3.47 11.9994 3.47C17.3236 3.47 21.6394 7.7858 21.6394 13.11C21.6394 18.4342 17.3236 22.75 11.9994 22.75C6.67518 22.75 2.35938 18.4342 2.35938 13.11C2.35938 10.9335 3.11094 8.94796 4.30939 7.35002C4.55792 7.01865 5.02802 6.95149 5.35939 7.20002C5.69076 7.44855 5.75792 7.91865 5.50939 8.25002C4.48785 9.61208 3.85938 11.2865 3.85938 13.11C3.85938 17.6058 7.5036 21.25 11.9994 21.25C16.4952 21.25 20.1394 17.6058 20.1394 13.11C20.1394 8.61423 16.4952 4.97 11.9994 4.97C11.4245 4.97 10.8596 5.04131 10.3024 5.16475C10.0588 5.2637 9.77022 5.23135 9.55045 5.05518C9.37081 4.91118 9.27497 4.70138 9.26976 4.48792C9.26143 4.27048 9.34876 4.06387 9.50069 3.91817L11.4144 1.53092C11.6735 1.20773 12.1455 1.15576 12.4687 1.41484Z" fill="#001F3E"/>
<path d="M10.1375 10.5938C10.2393 10.2871 10.5262 10.08 10.8494 10.08H13.9094C14.3236 10.08 14.6594 10.4158 14.6594 10.83C14.6594 11.2443 14.3236 11.58 13.9094 11.58H11.3907L11.1285 12.37H12.3794C13.6304 12.37 14.6594 13.3827 14.6594 14.6501C14.6594 15.9011 13.6468 16.93 12.3794 16.93H10.0894C9.67515 16.93 9.33936 16.5942 9.33936 16.18C9.33936 15.7658 9.67515 15.43 10.0894 15.43H12.3794C12.812 15.43 13.1594 15.079 13.1594 14.6501C13.1594 14.2174 12.8083 13.87 12.3794 13.87H10.0894C9.84845 13.87 9.62221 13.7543 9.48122 13.559C9.34023 13.3636 9.30166 13.1124 9.37754 12.8838L10.1375 10.5938Z" fill="#001F3E"/>
</svg>
