<svg width="24" height="24" viewBox="0 0 24 24" fill="none" xmlns="http://www.w3.org/2000/svg">
<path d="M7.2495 6C7.2495 3.37579 9.37529 1.25 11.9995 1.25C14.3416 1.25 16.2867 2.9433 16.6778 5.17298L19.5392 2.30983C19.832 2.01685 20.3069 2.0167 20.5999 2.30951C20.8928 2.60231 20.893 3.07718 20.6002 3.37017L9.95143 14.0255C10.509 14.4802 11.2232 14.75 11.9995 14.75C13.7953 14.75 15.2495 13.2958 15.2495 11.5V11C15.2495 10.5858 15.5853 10.25 15.9995 10.25C16.4138 10.25 16.7495 10.5858 16.7495 11V11.5C16.7495 14.1242 14.6238 16.25 11.9995 16.25C10.8149 16.25 9.72241 15.8171 8.88743 15.0902L7.44145 16.5371C8.66032 17.6027 10.2497 18.2496 11.9978 18.25C11.9984 18.25 11.999 18.25 11.9995 18.25C12.0001 18.25 12.0007 18.25 12.0012 18.25C15.8061 18.249 18.8993 15.1552 18.8993 11.35V9.65C18.8993 9.23579 19.2351 8.9 19.6493 8.9C20.0635 8.9 20.3993 9.23579 20.3993 9.65V11.35C20.3993 15.7314 17.0332 19.3365 12.7495 19.7169V22C12.7495 22.4142 12.4138 22.75 11.9995 22.75C11.5853 22.75 11.2495 22.4142 11.2495 22V19.7171C9.38246 19.5522 7.69497 18.7778 6.37917 17.6L4.46018 19.5202C4.16738 19.8132 3.69251 19.8133 3.39952 19.5205C3.10654 19.2277 3.10639 18.7528 3.39919 18.4598L15.2947 6.55698C15.2654 6.47682 15.2495 6.39027 15.2495 6.3V6C15.2495 4.20421 13.7953 2.75 11.9995 2.75C11.9023 2.75 11.8061 2.75426 11.7112 2.7626C11.736 2.83721 11.7495 2.91703 11.7495 3V6C11.7495 6.41421 11.4137 6.75 10.9995 6.75C10.5853 6.75 10.2495 6.41421 10.2495 6V3.26045C9.34724 3.83776 8.7495 4.84868 8.7495 6V11C8.7495 11.4142 8.41371 11.75 7.9995 11.75C7.58529 11.75 7.2495 11.4142 7.2495 11V6Z" fill="#001F3E"/>
<path d="M4.34959 8.9C4.7638 8.9 5.09959 9.23579 5.09959 9.65V11.35C5.09959 12.3091 5.28924 13.2096 5.6401 14.0373C5.80177 14.4186 5.62367 14.8589 5.24231 15.0205C4.86094 15.1822 4.42073 15.0041 4.25907 14.6227C3.82993 13.6104 3.59959 12.5109 3.59959 11.35V9.65C3.59959 9.23579 3.93537 8.9 4.34959 8.9Z" fill="#001F3E"/>
</svg>
