<svg width="24" height="24" viewBox="0 0 24 24" fill="none" xmlns="http://www.w3.org/2000/svg">
<path fill-rule="evenodd" clip-rule="evenodd" d="M2.46967 4.46967C3.45818 3.48116 5.00536 3.25 7 3.25H17C18.9946 3.25 20.5418 3.48116 21.5303 4.46967C22.5188 5.45818 22.75 7.00536 22.75 9V10C22.75 10.4142 22.4142 10.75 22 10.75C21.0342 10.75 20.25 11.5342 20.25 12.5C20.25 13.4658 21.0342 14.25 22 14.25C22.4142 14.25 22.75 14.5858 22.75 15C22.75 16.9946 22.5188 18.5418 21.5303 19.5303C20.5418 20.5188 18.9946 20.75 17 20.75H7C5.00536 20.75 3.45818 20.5188 2.46967 19.5303C1.48116 18.5418 1.25 16.9946 1.25 15V14.5C1.25 14.0858 1.58579 13.75 2 13.75C2.96579 13.75 3.75 12.9658 3.75 12C3.75 11.0342 2.96579 10.25 2 10.25C1.58579 10.25 1.25 9.91421 1.25 9.5V9C1.25 7.00536 1.48116 5.45818 2.46967 4.46967ZM2.75061 8.8372C4.18324 9.17622 5.25 10.4641 5.25 12C5.25 13.5359 4.18324 14.8238 2.75061 15.1628C2.76494 17.0573 3.03288 17.9722 3.53033 18.4697C4.04182 18.9812 4.99464 19.25 7 19.25H17C19.0054 19.25 19.9582 18.9812 20.4697 18.4697C20.9214 18.0179 21.1839 17.2218 21.239 15.6603C19.8116 15.3176 18.75 14.0322 18.75 12.5C18.75 10.9639 19.8171 9.67586 21.25 9.33706V9C21.25 6.99464 20.9812 6.04182 20.4697 5.53033C19.9582 5.01884 19.0054 4.75 17 4.75H7C4.99464 4.75 4.04182 5.01884 3.53033 5.53033C3.03288 6.02778 2.76494 6.94265 2.75061 8.8372Z" fill="#001F3E"/>
<path fill-rule="evenodd" clip-rule="evenodd" d="M11.9994 8.90165L11.3411 10.2182C11.2282 10.4469 11.0517 10.6236 10.889 10.7443C10.7254 10.8655 10.5061 10.9818 10.2581 11.0239L10.2555 11.0244L9.06686 11.2219L9.99308 12.1481C10.1854 12.3404 10.3004 12.581 10.3612 12.7936C10.4222 13.0065 10.4512 13.2694 10.3925 13.5313L10.3914 13.5363L10.1279 14.6757L11.2424 14.0159L11.2473 14.013C11.4929 13.8701 11.768 13.8199 12.0027 13.8199C12.2366 13.8199 12.5135 13.8698 12.7601 14.0159L13.8747 14.6757L13.6112 13.5363L13.61 13.5313C13.5513 13.2694 13.5803 13.0065 13.6413 12.7936C13.7021 12.581 13.8171 12.3404 14.0094 12.1481L14.9357 11.2219L13.7466 11.0243C13.4975 10.9828 13.277 10.8673 13.1116 10.7453C12.9475 10.6242 12.7707 10.4472 12.6576 10.2182L11.9994 8.90165ZM13.3307 8.21028C13.0956 7.73814 12.6571 7.25004 12.0008 7.25004C11.3454 7.25004 10.9058 7.73713 10.6689 8.20842L10.0089 9.52844L10.0088 9.52852C10.0051 9.53187 10.0006 9.53558 9.99558 9.53934C9.99052 9.54309 9.98559 9.54636 9.98114 9.54902C9.98085 9.5492 9.98056 9.54937 9.98028 9.54954L8.79521 9.74643C8.27691 9.83281 7.70008 10.1106 7.50472 10.7224C7.30959 11.3335 7.61773 11.894 7.98856 12.2649L8.91342 13.1897C8.91349 13.1899 8.91356 13.1901 8.91364 13.1903C8.91551 13.1949 8.91743 13.2004 8.91916 13.2064C8.92089 13.2124 8.92219 13.2182 8.92309 13.2234C8.92325 13.2243 8.9234 13.2252 8.92352 13.226L8.65975 14.3666L8.65972 14.3667C8.5376 14.8945 8.52557 15.6406 9.11106 16.0678C9.69593 16.4945 10.4028 16.2567 10.8691 15.98L11.9818 15.3213C11.9828 15.3211 11.9838 15.321 11.9849 15.3209C11.9902 15.3203 11.9963 15.3199 12.0027 15.3199C12.0091 15.3199 12.015 15.3203 12.02 15.3209L13.1346 15.9807C13.5991 16.2551 14.307 16.4963 14.8926 16.0694C15.4796 15.6415 15.4641 14.8929 15.3429 14.3672L15.079 13.226C15.0791 13.2252 15.0793 13.2243 15.0794 13.2234C15.0803 13.2182 15.0816 13.2124 15.0834 13.2064C15.0851 13.2004 15.087 13.1949 15.0889 13.1903C15.089 13.1901 15.089 13.1899 15.0891 13.1897L16.0122 12.2667C16.0125 12.2664 16.0128 12.2661 16.0131 12.2657C16.3862 11.8947 16.6956 11.3333 16.4988 10.721C16.3024 10.1099 15.7249 9.83269 15.2073 9.74643L14.0183 9.54888C14.0177 9.54855 14.0171 9.54819 14.0165 9.5478C14.0121 9.54518 14.0072 9.54197 14.0022 9.5383C13.9974 9.53475 13.9932 9.53126 13.9896 9.5281L13.3312 8.21123C13.331 8.21091 13.3309 8.2106 13.3307 8.21028ZM11.996 15.3067L11.9961 15.3067Z" fill="#001F3E"/>
</svg>
