<svg width="24" height="24" viewBox="0 0 24 24" fill="none" xmlns="http://www.w3.org/2000/svg">
<path d="M9.25 10.0073C9.25 8.29961 10.6261 6.92334 12.3338 6.92334C14.0416 6.92334 15.4177 8.29961 15.4177 10.0073C15.4177 11.3282 14.5588 12.03 13.9395 12.4532C13.3852 12.8361 13.0838 13.1462 13.0838 13.7049V14.0001C13.0838 14.4143 12.748 14.7501 12.3338 14.7501C11.9196 14.7501 11.5838 14.4143 11.5838 14.0001V13.7049C11.5838 12.352 12.463 11.6498 13.0887 11.2178L13.0919 11.2156C13.6253 10.8513 13.9177 10.541 13.9177 10.0073C13.9177 9.12797 13.2131 8.42334 12.3338 8.42334C11.4546 8.42334 10.75 9.12797 10.75 10.0073C10.75 10.4215 10.4142 10.7573 10 10.7573C9.58579 10.7573 9.25 10.4215 9.25 10.0073Z" fill="#001F3E"/>
<path d="M12.3276 15.9374C11.9134 15.9374 11.5776 16.2732 11.5776 16.6874C11.5776 17.1016 11.9134 17.4374 12.3276 17.4374H12.3403C12.7545 17.4374 13.0903 17.1016 13.0903 16.6874C13.0903 16.2732 12.7545 15.9374 12.3403 15.9374H12.3276Z" fill="#001F3E"/>
<path fill-rule="evenodd" clip-rule="evenodd" d="M1.25 12C1.25 6.08579 6.08579 1.25 12 1.25C17.9142 1.25 22.75 6.08579 22.75 12C22.75 17.9142 17.9142 22.75 12 22.75C6.08579 22.75 1.25 17.9142 1.25 12ZM12 2.75C6.91421 2.75 2.75 6.91421 2.75 12C2.75 17.0858 6.91421 21.25 12 21.25C17.0858 21.25 21.25 17.0858 21.25 12C21.25 6.91421 17.0858 2.75 12 2.75Z" fill="#001F3E"/>
</svg>
