<svg width="24" height="24" viewBox="0 0 24 24" fill="none" xmlns="http://www.w3.org/2000/svg">
<path d="M11.5304 1.41484C11.8536 1.15576 12.3257 1.20774 12.5847 1.53093L14.4995 3.91955C14.6449 4.05978 14.7308 4.25598 14.7295 4.46387C14.7312 4.68554 14.635 4.90578 14.4486 5.05519C14.229 5.23126 13.9406 5.26366 13.697 5.16491C13.1397 5.04138 12.5745 4.97 11.9994 4.97C7.5036 4.97 3.85938 8.61423 3.85938 13.11C3.85938 17.6058 7.5036 21.25 11.9994 21.25C16.4952 21.25 20.1394 17.6058 20.1394 13.11C20.1394 11.2865 19.511 9.61207 18.4894 8.25002C18.2409 7.91865 18.308 7.44855 18.6394 7.20002C18.9708 6.95149 19.4409 7.01865 19.6894 7.35002C20.8879 8.94796 21.6394 10.9335 21.6394 13.11C21.6394 18.4342 17.3236 22.75 11.9994 22.75C6.67518 22.75 2.35938 18.4342 2.35938 13.11C2.35938 7.7858 6.67518 3.47 11.9994 3.47C12.0729 3.47 12.146 3.47096 12.2189 3.47284L11.4144 2.46913C11.1553 2.14594 11.2072 1.67392 11.5304 1.41484Z" fill="#001F3E"/>
<path d="M9.80791 10.1297C10.098 10.2409 10.2896 10.5194 10.2896 10.83V16.17C10.2896 16.5842 9.95377 16.92 9.53956 16.92C9.12534 16.92 8.78956 16.5842 8.78956 16.17V12.7874L8.59752 13.0012C8.32073 13.3094 7.84654 13.3348 7.53838 13.058C7.23023 12.7812 7.2048 12.307 7.48159 11.9989L8.98159 10.3289C9.18919 10.0977 9.5178 10.0185 9.80791 10.1297Z" fill="#001F3E"/>
<path d="M12.1878 10.5938C12.2896 10.2871 12.5765 10.08 12.8997 10.08H15.9597C16.3739 10.08 16.7097 10.4158 16.7097 10.83C16.7097 11.2443 16.3739 11.58 15.9597 11.58H13.441L13.1788 12.37H14.4296C15.6806 12.37 16.7097 13.3827 16.7097 14.6501C16.7097 15.9011 15.697 16.93 14.4296 16.93H12.1397C11.7254 16.93 11.3897 16.5942 11.3897 16.18C11.3897 15.7658 11.7254 15.43 12.1397 15.43H14.4296C14.8623 15.43 15.2097 15.079 15.2097 14.6501C15.2097 14.2175 14.8586 13.87 14.4296 13.87H12.1397C11.8987 13.87 11.6725 13.7543 11.5315 13.559C11.3905 13.3636 11.3519 13.1124 11.4278 12.8838L12.1878 10.5938Z" fill="#001F3E"/>
</svg>
