<svg width="24" height="24" viewBox="0 0 24 24" fill="none" xmlns="http://www.w3.org/2000/svg">
<path d="M6.04883 17.4697C6.34884 17.1898 6.82941 17.2098 7.10938 17.5098C7.38927 17.8097 7.36921 18.2903 7.06934 18.5703L4.93848 20.54C4.78852 20.6699 4.60861 20.7402 4.42871 20.7402C4.23877 20.7402 4.04839 20.6704 3.89844 20.5205L2.90918 19.5303C2.61918 19.2403 2.61918 18.7597 2.90918 18.4697C3.19913 18.1801 3.67882 18.18 3.96875 18.4697L4.44922 18.9502L6.04883 17.4697Z" fill="#292D32"/>
<path d="M14 11.25C14.41 11.25 14.75 11.59 14.75 12C14.75 12.41 14.41 12.75 14 12.75H7C6.59 12.75 6.25 12.41 6.25 12C6.25 11.59 6.59 11.25 7 11.25H14Z" fill="#292D32"/>
<path fill-rule="evenodd" clip-rule="evenodd" d="M12.0195 1.46971C12.8395 1.15971 13.75 1.27049 14.46 1.77049C15.1799 2.27051 15.5996 3.08026 15.5996 3.95018V7.00975H17.7402C20.2301 7.00988 22.25 9.03057 22.25 11.5205V12.3584C22.8766 12.6372 23.3007 13.2531 23.3008 13.9697V16.0303C23.3007 16.7516 22.8707 17.3703 22.25 17.6465V18.2402C22.2499 20.73 20.23 22.7499 17.7402 22.75H7.89941C7.09675 23.3957 6.07384 23.75 5 23.75C3.3402 23.75 1.7805 22.8701 0.94043 21.4404C0.49043 20.7204 0.25 19.87 0.25 19C0.25 17.6656 0.793918 16.4242 1.75 15.5332V7.83983C1.75009 6.34992 2.69015 4.99969 4.08008 4.46971L12.0195 1.46971ZM4.99023 15.7598C4.25023 15.7598 3.54996 16.0105 2.95996 16.4805C2.95451 16.4849 2.94794 16.4879 2.94238 16.4922C2.18928 17.1024 1.75 18.0219 1.75 19C1.75 19.5899 1.90979 20.1699 2.21973 20.6699C2.80973 21.6699 3.85 22.25 5 22.25C5.78658 22.25 6.54303 21.962 7.12207 21.4463C7.12807 21.4409 7.13345 21.4348 7.13965 21.4297C7.37953 21.2298 7.59979 20.9703 7.75977 20.6904C8.07977 20.1804 8.24023 19.5998 8.24023 19.0098C8.2401 17.2199 6.78005 15.7599 4.99023 15.7598ZM6.25977 8.49999C4.59995 8.50011 3.25013 9.84994 3.25 11.5098V14.5849C3.80564 14.3655 4.40131 14.25 5 14.25C7.62 14.25 9.75 16.38 9.75 19C9.75 19.1552 9.73972 19.3095 9.72461 19.4629C9.71945 19.5151 9.71488 19.5672 9.70801 19.6191C9.70242 19.6614 9.69422 19.7031 9.6875 19.7451C9.67821 19.8032 9.66962 19.8613 9.6582 19.9189C9.64831 19.9687 9.63648 20.018 9.625 20.0674C9.61364 20.1164 9.60176 20.1652 9.58887 20.2139C9.57603 20.262 9.56221 20.3098 9.54785 20.3574C9.5292 20.4197 9.50946 20.4816 9.48828 20.543C9.4801 20.5665 9.47145 20.5899 9.46289 20.6133C9.43363 20.6939 9.40271 20.7738 9.36914 20.8525C9.36441 20.8635 9.36028 20.8748 9.35547 20.8857C9.30156 21.0096 9.24404 21.1317 9.17969 21.25H17.7402C19.4 21.2499 20.7499 19.9 20.75 18.2402V17.7998H19.5996C18.0899 17.7996 16.8106 16.68 16.6904 15.2402C16.6754 15.0865 16.6734 14.9329 16.6846 14.7812C16.732 14.1169 17.0221 13.4903 17.5107 13.0098C18.0207 12.4899 18.7208 12.2002 19.4707 12.2002H20.75V11.5098C20.7499 9.84994 19.4 8.50011 17.7402 8.49999H6.25977ZM21.5 13.7099H19.4805C19.1305 13.7099 18.8101 13.8401 18.5801 14.0801L18.5703 14.0898C18.2964 14.3539 18.167 14.7137 18.1895 15.0849C18.1902 15.0932 18.1896 15.1021 18.1904 15.1103C18.2055 15.2752 18.2563 15.4318 18.335 15.5742C18.4138 15.7168 18.5208 15.8446 18.6484 15.9521C18.7441 16.0328 18.851 16.1024 18.9668 16.1572C19.0053 16.1754 19.0447 16.1921 19.085 16.207C19.1656 16.237 19.2497 16.2596 19.3359 16.2754C19.422 16.2911 19.5108 16.2998 19.6006 16.2998H21.5605C21.6904 16.2997 21.8104 16.1801 21.8105 16.0303V13.9697C21.8105 13.8339 21.7117 13.7316 21.5742 13.706C21.5498 13.7085 21.525 13.7099 21.5 13.7099ZM13.5996 2.99999C13.2797 2.78016 12.8999 2.73015 12.54 2.8701L4.59961 5.8701C3.78988 6.18018 3.24033 6.97005 3.24023 7.83983V8.16991C4.0397 7.44876 5.09885 7.00981 6.25977 7.00975H14.0996V3.95018C14.0996 3.57018 13.9196 3.21999 13.5996 2.99999Z" fill="#292D32"/>
</svg>
