<svg width="24" height="24" viewBox="0 0 24 24" fill="none" xmlns="http://www.w3.org/2000/svg">
<path fill-rule="evenodd" clip-rule="evenodd" d="M12 5.85289L13.9706 2.68151C15.3963 0.387124 18.7919 0.497766 20.062 2.8825C20.8857 4.42912 20.42 6.29942 19.0659 7.30637C20.5925 8.12131 21.651 9.67998 21.7988 11.5C21.8869 12.5839 21.9372 13.6902 21.9372 14.822C21.9372 15.9538 21.8869 17.0602 21.7988 18.1441C21.5911 20.7017 19.585 22.7431 17.0089 22.93C15.5139 23.0384 13.861 23.0889 11.9999 23.0889C10.1387 23.0889 8.48582 23.0384 6.99082 22.93C4.41476 22.7431 2.40861 20.7017 2.20089 18.1441C2.11285 17.0602 2.0625 15.9538 2.0625 14.822C2.0625 13.6902 2.11285 12.5839 2.20088 11.5C2.34871 9.67992 3.40734 8.12121 4.934 7.30628C3.57998 6.29931 3.11427 4.42908 3.93798 2.8825C5.20809 0.497766 8.60371 0.387124 10.0294 2.68151L12 5.85289ZM18.7381 3.58763C18.0121 2.22455 16.0611 2.15924 15.2447 3.47319L13.324 6.56428C14.6505 6.58314 15.866 6.63162 16.992 6.7129L17.8424 6.30144C18.8645 5.80687 19.265 4.57703 18.7381 3.58763ZM10.676 6.56428L8.75531 3.47319C7.93886 2.15924 5.98789 2.22455 5.26191 3.58763C4.73496 4.57703 5.13545 5.80687 6.15761 6.30144L7.00796 6.71288C8.13397 6.63161 9.3495 6.58313 10.676 6.56428ZM11.25 8.05806C9.72051 8.07004 8.34854 8.11959 7.09933 8.21019C5.27799 8.3423 3.84516 9.78449 3.69596 11.6214C3.67492 11.8805 3.65613 12.1406 3.63976 12.4019H11.25V8.05806ZM12.75 8.05806V12.4019H20.36C20.3436 12.1406 20.3248 11.8805 20.3038 11.6214C20.1546 9.78449 18.7217 8.3423 16.9004 8.21019C15.6513 8.11959 14.2794 8.07005 12.75 8.05806ZM11.25 13.9019H3.57391C3.56639 14.2069 3.5625 14.5136 3.5625 14.822C3.5625 15.9093 3.61087 16.9749 3.69597 18.0227C3.84516 19.8596 5.27799 21.3018 7.09933 21.4339C8.34854 21.5245 9.72051 21.5741 11.25 21.586V13.9019ZM12.75 21.586V13.9019H20.4258C20.4333 14.2069 20.4372 14.5136 20.4372 14.822C20.4372 15.9093 20.3889 16.9749 20.3038 18.0227C20.1546 19.8596 18.7217 21.3018 16.9004 21.4339C15.6513 21.5245 14.2794 21.5741 12.75 21.586Z" fill="#001F3E"/>
</svg>
