<svg width="24" height="24" viewBox="0 0 24 24" fill="none" xmlns="http://www.w3.org/2000/svg">
<path fill-rule="evenodd" clip-rule="evenodd" d="M18.7707 8.90991C18.7707 6.03832 16.9561 3.57225 14.4163 2.60112C13.9493 1.75778 13.0506 1.18994 12.0209 1.18994C10.9927 1.18994 10.0951 1.75613 9.6276 2.59743C7.08244 3.56451 5.27069 6.02811 5.27069 8.90991V11.7999C5.27069 12.0145 5.22212 12.3286 5.12927 12.6631C5.0367 12.9965 4.91675 13.2905 4.80724 13.4746L4.80648 13.4759L3.65806 15.3832C3.19702 16.1495 3.10082 17.0091 3.38361 17.7728C3.66608 18.5357 4.29784 19.1252 5.14025 19.4103L5.14303 19.4113C6.23156 19.7749 7.34105 20.05 8.46128 20.2363C8.64823 20.7986 8.964 21.3041 9.37018 21.7103C10.0447 22.3847 10.993 22.8099 12.0205 22.8099C13.6749 22.8099 15.0862 21.7271 15.5814 20.2344C16.6974 20.0482 17.8027 19.7739 18.8872 19.4116C20.5555 18.8594 21.2794 16.8933 20.3738 15.384L19.2272 13.4796C19.1201 13.2923 19.0025 12.9973 18.9115 12.6653C18.8193 12.3293 18.7707 12.0148 18.7707 11.7999V8.90991ZM6.77069 8.90991C6.77069 6.5678 8.31072 4.57996 10.4317 3.90543C11.1737 3.69742 11.973 3.63854 12.8179 3.74415L12.8207 3.74449C13.0669 3.77433 13.3102 3.82404 13.5515 3.88928C15.6976 4.54906 17.2707 6.55596 17.2707 8.90991V11.7999C17.2707 12.1951 17.3521 12.6506 17.4649 13.062C17.578 13.4743 17.7388 13.9018 17.9309 14.2348L19.0879 16.1563C19.5016 16.8467 19.166 17.7396 18.4153 17.9878L18.413 17.9886C14.2578 19.3769 9.77515 19.377 5.61981 17.989C5.16304 17.8341 4.9002 17.5488 4.79028 17.252C4.68059 16.9558 4.69448 16.5703 4.94333 16.1566L6.09323 14.2468L6.0949 14.244C6.2952 13.908 6.4599 13.4775 6.57462 13.0643C6.68927 12.6513 6.77069 12.1953 6.77069 11.7999V8.90991ZM13.7791 20.458C12.6082 20.5537 11.4316 20.5539 10.2607 20.4587C10.3139 20.5257 10.3707 20.5895 10.4308 20.6496C10.8364 21.0551 11.408 21.3099 12.0205 21.3099C12.7296 21.3099 13.3657 20.9761 13.7791 20.458Z" fill="#001F3E"/>
</svg>
