<svg width="24" height="24" viewBox="0 0 24 24" fill="none" xmlns="http://www.w3.org/2000/svg">
<path fill-rule="evenodd" clip-rule="evenodd" d="M16.191 15.6303L14.8111 16.2397L13.8404 14.0532C13.8109 14.0568 13.781 14.06 13.7506 14.06H10.2506C10.2203 14.06 10.1902 14.0568 10.1607 14.0532L9.19101 16.2397L7.81113 15.6303L11.3111 7.7602H12.691L16.191 15.6303ZM10.8238 12.56H13.1773L12.0006 9.90961L10.8238 12.56Z" fill="#001F3E"/>
<path fill-rule="evenodd" clip-rule="evenodd" d="M10.2496 1.88031C11.2296 1.05031 12.7598 1.05031 13.7398 1.88031L15.3199 3.22992C15.48 3.36982 15.8892 3.5101 16.0992 3.5102H17.7994C19.2793 3.5102 20.479 4.70997 20.4791 6.18988V7.89008C20.4791 8.09991 20.6292 8.48939 20.7691 8.65961L22.1197 10.2397C22.9597 11.2296 22.9495 12.7599 22.1197 13.7299L20.7691 15.31C20.6292 15.4801 20.4898 15.8705 20.4898 16.0805V17.7797C20.4898 19.2597 19.2892 20.4604 17.8092 20.4604H16.109C15.8989 20.4606 15.5096 20.6105 15.3297 20.7504L13.7496 22.1C13.2596 22.53 12.6294 22.7397 12.0094 22.7397C11.3794 22.7397 10.7591 22.5298 10.2691 22.1098L8.68906 20.7602C8.52898 20.6203 8.12948 20.48 7.91953 20.4799H6.16953C4.68958 20.4799 3.48992 19.2802 3.48984 17.8002V16.0903C3.48984 15.8804 3.34928 15.4807 3.21933 15.3305L1.85898 13.7299C1.03932 12.76 1.03931 11.2401 1.85898 10.2602L3.21933 8.65961C3.34928 8.50944 3.48984 8.10974 3.48984 7.89984V6.19965C3.49007 4.71984 4.68967 3.51996 6.16953 3.51996H7.89902C8.10902 3.51996 8.49953 3.36992 8.66953 3.22992L10.2496 1.88031ZM12.7594 3.01996C12.3494 2.67004 11.6393 2.66999 11.2193 3.01996L9.64902 4.38031C9.19899 4.75016 8.46886 5.01996 7.89902 5.01996H6.16953C5.51967 5.01996 4.99007 5.54984 4.98984 6.19965V7.89984C4.98984 8.46984 4.72898 9.19031 4.35898 9.63031L2.9996 11.2299C2.6596 11.6399 2.6596 12.3602 2.9996 12.7602L4.34921 14.35C4.70921 14.76 4.9791 15.5105 4.9791 16.0805V17.7905C4.97931 18.4403 5.50989 18.9702 6.15976 18.9702H7.89902C8.45892 18.9702 9.19922 19.2399 9.63925 19.6098L11.2291 20.9702C11.639 21.3201 12.3491 21.32 12.7691 20.9702L14.3492 19.6205C14.7992 19.2405 15.5294 18.9799 16.0894 18.9799H17.7896C18.4395 18.9798 18.9692 18.4501 18.9693 17.8002V16.1C18.9693 15.5401 19.239 14.8098 19.609 14.3598L20.9693 12.77C21.3193 12.36 21.3193 11.6399 20.9693 11.2299L19.6197 9.64984C19.2397 9.19984 18.9791 8.46961 18.9791 7.90961V6.19965C18.9789 5.54984 18.4493 5.01996 17.7994 5.01996H16.0992C15.5292 5.01989 14.7892 4.75027 14.3492 4.38031L12.7594 3.01996Z" fill="#001F3E"/>
</svg>
