<svg width="24" height="24" viewBox="0 0 24 24" fill="none" xmlns="http://www.w3.org/2000/svg">
<path d="M10.3994 12.7793C11.1508 12.7793 11.7598 13.3883 11.7598 14.1396C11.7598 14.891 11.1508 15.5 10.3994 15.5C9.64806 15.5 9.03906 14.891 9.03906 14.1396C9.03908 13.3883 9.64807 12.7793 10.3994 12.7793Z" fill="#001F3E"/>
<path fill-rule="evenodd" clip-rule="evenodd" d="M10.5068 9.97949C10.9147 9.29414 11.812 9.0313 12.5273 9.45215L13.2803 9.88281C14.0412 10.3179 14.2979 11.2918 13.8633 12.0439C13.8367 12.0899 13.8197 12.1286 13.8096 12.1572C13.8393 12.1627 13.8799 12.167 13.9326 12.167C14.7998 12.167 15.5146 12.8723 15.5146 13.749V14.5195C15.5146 15.3867 14.8093 16.1025 13.9326 16.1025C13.8799 16.1025 13.8393 16.1068 13.8096 16.1123C13.8198 16.141 13.8366 16.1785 13.8633 16.2246L13.8652 16.2285C14.2962 16.9827 14.042 17.9501 13.2803 18.3857L12.5273 18.8174C11.812 19.2383 10.9146 18.9745 10.5068 18.2891C10.5053 18.2866 10.5034 18.2838 10.502 18.2812L10.4541 18.1982L10.4521 18.1953C10.4262 18.1501 10.4022 18.1175 10.3828 18.0947C10.3626 18.1181 10.3378 18.1522 10.3105 18.1992L10.2627 18.2812L10.2588 18.2891C9.85107 18.9744 8.95357 19.2379 8.23828 18.8174L7.48438 18.3857C6.72379 17.9505 6.46693 16.9776 6.90137 16.2256C6.92803 16.1796 6.94488 16.141 6.95508 16.1123C6.92533 16.1068 6.88475 16.1025 6.83203 16.1025C5.95543 16.1024 5.25 15.3867 5.25 14.5195V13.749C5.25 12.8819 5.95543 12.1671 6.83203 12.167C6.88469 12.167 6.92534 12.1627 6.95508 12.1572C6.94489 12.1286 6.92803 12.0909 6.90137 12.0449C6.46682 11.2928 6.72363 10.318 7.48438 9.88281L8.23828 9.45215C8.95361 9.03139 9.85102 9.29409 10.2588 9.97949C10.2603 9.98199 10.2612 9.98479 10.2627 9.9873L10.3105 10.0703L10.3125 10.0732C10.3385 10.1186 10.3625 10.151 10.3818 10.1738C10.402 10.1505 10.4269 10.1172 10.4541 10.0703L10.502 9.9873C10.5034 9.98473 10.5053 9.98205 10.5068 9.97949ZM11.752 10.8223C11.4728 11.3039 11.0025 11.7119 10.3809 11.7119C9.75872 11.7119 9.28894 11.303 9.01172 10.8203L8.97559 10.7578L8.22949 11.1846C8.21258 11.1942 8.1995 11.2106 8.19336 11.2334C8.18717 11.2566 8.19097 11.2769 8.2002 11.293C8.4792 11.7748 8.59862 12.3858 8.28809 12.9248C7.97737 13.464 7.38824 13.667 6.83203 13.667C6.81149 13.667 6.79224 13.6746 6.77539 13.6914C6.75805 13.7088 6.75 13.7292 6.75 13.749V14.5195C6.75 14.5394 6.75805 14.5597 6.77539 14.5771C6.79228 14.5941 6.81141 14.6025 6.83203 14.6025C7.38817 14.6025 7.97735 14.8047 8.28809 15.3438C8.59887 15.883 8.47859 16.4946 8.19922 16.9766L8.2002 16.9756C8.19088 16.9917 8.1871 17.0128 8.19336 17.0361C8.19954 17.0587 8.21268 17.0744 8.22949 17.084L8.97559 17.5107L9.0127 17.4463C9.29183 16.9647 9.76235 16.5568 10.3838 16.5566C11.0059 16.5566 11.4757 16.9655 11.7529 17.4482L11.7539 17.4492L11.7891 17.5107L12.5352 17.084C12.57 17.0641 12.5873 17.0163 12.5635 16.9736C12.2854 16.4921 12.1665 15.8819 12.4766 15.3438C12.7873 14.8046 13.3765 14.6026 13.9326 14.6025C13.9533 14.6025 13.9733 14.5942 13.9902 14.5771C14.0074 14.5598 14.0146 14.5393 14.0146 14.5195V13.749C14.0146 13.7283 14.0073 13.7084 13.9902 13.6914C13.9729 13.6742 13.9524 13.667 13.9326 13.667C13.3764 13.667 12.7873 13.4639 12.4766 12.9248C12.166 12.3856 12.2861 11.7739 12.5654 11.292C12.5746 11.2759 12.5775 11.2565 12.5713 11.2334C12.5652 11.2106 12.5521 11.1942 12.5352 11.1846L11.7891 10.7578L11.752 10.8223Z" fill="#001F3E"/>
<path d="M19 11.21C19.4142 11.21 19.75 11.5458 19.75 11.96V14.96C19.75 15.3742 19.4142 15.71 19 15.71C18.5858 15.71 18.25 15.3742 18.25 14.96V11.96C18.25 11.5458 18.5858 11.21 19 11.21Z" fill="#001F3E"/>
<path fill-rule="evenodd" clip-rule="evenodd" d="M14.5 2.25C15.4392 2.25016 16.2703 2.5407 16.8682 3.13672C17.4658 3.73257 17.75 4.55367 17.75 5.45996V5.95996C20.2296 5.96539 22.2499 7.98896 22.25 10.4697V17.2002C22.2499 19.6842 20.2243 21.7098 17.7402 21.71H6.25977C3.77574 21.7098 1.75013 19.6842 1.75 17.2002V5.6709C1.75 4.63892 2.10463 3.77215 2.71973 3.16211C3.33004 2.55683 4.15032 2.25099 5 2.25098L14.5 2.25ZM3.25 17.2002C3.25013 18.8558 4.60417 20.2098 6.25977 20.21H17.7402C19.3958 20.2098 20.7499 18.8558 20.75 17.2002V10.4697C20.7499 8.81413 19.3958 7.46009 17.7402 7.45996H3.25V17.2002ZM5 3.75098C4.50975 3.75099 4.08005 3.92442 3.77539 4.22656C3.47549 4.524 3.25 4.99269 3.25 5.6709V5.95996H16.25V5.45996C16.25 4.86629 16.0694 4.4573 15.8096 4.19824C15.5499 3.93942 15.1306 3.75015 14.5 3.75L5 3.75098Z" fill="#001F3E"/>
</svg>
