<svg width="24" height="24" viewBox="0 0 24 24" fill="none" xmlns="http://www.w3.org/2000/svg">
<path fill-rule="evenodd" clip-rule="evenodd" d="M2 12C2 6.49 6.49 2 12 2C17.51 2 22 6.49 22 12C22 17.51 17.51 22 12 22C6.49 22 2 17.51 2 12ZM10.9941 8C10.9941 8.55228 11.4419 9 11.9941 9H12.0031C12.5554 9 13.0031 8.55228 13.0031 8C13.0031 7.44772 12.5554 7 12.0031 7H11.9941C11.4419 7 10.9941 7.44772 10.9941 8ZM12.7495 16C12.7495 16.4142 12.4137 16.75 11.9995 16.75C11.5853 16.75 11.2495 16.4142 11.2495 16V11C11.2495 10.5858 11.5853 10.25 11.9995 10.25C12.4137 10.25 12.7495 10.5858 12.7495 11V16Z" fill="#001F3E"/>
</svg>
