<svg width="24" height="24" viewBox="0 0 24 24" fill="none" xmlns="http://www.w3.org/2000/svg">
<path fill-rule="evenodd" clip-rule="evenodd" d="M12 2C17.5228 2 22 6.47715 22 12C22 17.5228 17.5228 22 12 22C6.47715 22 2 17.5228 2 12C2 6.47715 6.47715 2 12 2ZM10.8125 7.875C10.6313 7.69391 10.3316 7.69404 10.1504 7.875L6.35645 11.6689C6.17541 11.8502 6.17533 12.1499 6.35645 12.3311L10.1504 16.125C10.2441 16.2186 10.3628 16.2627 10.4814 16.2627C10.6001 16.2626 10.7188 16.2186 10.8125 16.125C10.9936 15.9438 10.9936 15.6441 10.8125 15.4629L7.81836 12.4688H17.3115C17.5677 12.4688 17.7802 12.2562 17.7803 12C17.7802 11.7438 17.5677 11.5312 17.3115 11.5312H7.81836L10.8125 8.53809C10.9937 8.35685 10.9937 8.05625 10.8125 7.875Z" fill="#001F3E"/>
</svg>
