<svg width="24" height="24" viewBox="0 0 24 24" fill="none" xmlns="http://www.w3.org/2000/svg">
<path fill-rule="evenodd" clip-rule="evenodd" d="M12 2C6.49 2 2 6.49 2 12C2 17.51 6.49 22 12 22C17.51 22 22 17.51 22 12C22 6.49 17.51 2 12 2ZM12.3338 6.92334C10.6261 6.92334 9.25 8.29961 9.25 10.0073C9.25 10.4215 9.58579 10.7573 10 10.7573C10.4142 10.7573 10.75 10.4215 10.75 10.0073C10.75 9.12797 11.4546 8.42334 12.3338 8.42334C13.2131 8.42334 13.9177 9.12797 13.9177 10.0073C13.9177 10.541 13.6253 10.8513 13.0919 11.2156L13.0887 11.2178C12.463 11.6498 11.5838 12.352 11.5838 13.7049V14.0001C11.5838 14.4143 11.9196 14.7501 12.3338 14.7501C12.748 14.7501 13.0838 14.4143 13.0838 14.0001V13.7049C13.0838 13.1462 13.3852 12.8361 13.9395 12.4532C14.5588 12.03 15.4177 11.3282 15.4177 10.0073C15.4177 8.29961 14.0416 6.92334 12.3338 6.92334ZM11.5776 16.6874C11.5776 16.2732 11.9134 15.9374 12.3276 15.9374H12.3403C12.7545 15.9374 13.0903 16.2732 13.0903 16.6874C13.0903 17.1016 12.7545 17.4374 12.3403 17.4374H12.3276C11.9134 17.4374 11.5776 17.1016 11.5776 16.6874Z" fill="#001F3E"/>
</svg>
