<svg width="24" height="24" viewBox="0 0 24 24" fill="none" xmlns="http://www.w3.org/2000/svg">
<path fill-rule="evenodd" clip-rule="evenodd" d="M7.55 1.54993C5.87569 1.54993 4.57359 1.88173 3.7027 2.75262C2.8318 3.62352 2.5 4.92561 2.5 6.59993V9.00012C2.5 10.6744 2.8318 11.9765 3.7027 12.8474C4.57359 13.7183 5.87569 14.0501 7.55 14.0501H16.45C18.1243 14.0501 19.4264 13.7183 20.2973 12.8474C21.1682 11.9765 21.5 10.6744 21.5 9.00012V6.59993C21.5 4.92561 21.1682 3.62352 20.2973 2.75262C19.4264 1.88173 18.1243 1.54993 16.45 1.54993H7.55ZM10.2625 4.85862C10.8141 4.5435 11.4601 4.71163 12.006 5.07726L13.755 6.11396C13.7636 6.1191 13.7721 6.1245 13.7805 6.13015C14.3638 6.52541 14.7176 7.09433 14.7176 7.72326C14.7176 8.35219 14.3638 8.92112 13.7805 9.31638C13.7721 9.32201 13.7637 9.3274 13.755 9.33252L12.006 10.3696C11.4601 10.7353 10.814 10.9033 10.2624 10.5881C9.71623 10.2759 9.5 9.62197 9.5 8.90245V6.54411C9.5 5.82459 9.71623 5.17071 10.2625 4.85862Z" fill="#001F3E"/>
<path d="M5.98708 15.7499C4.73 15.7499 3.71094 16.769 3.71094 18.0261C3.71094 18.8513 4.15006 19.5739 4.80738 19.973C3.83469 20.2224 2.98266 20.7727 2.35727 21.5176C2.09092 21.8348 2.13217 22.3079 2.4494 22.5742C2.76663 22.8406 3.23971 22.7993 3.50605 22.4821C4.101 21.7735 4.99101 21.325 5.98647 21.325C6.85804 21.325 7.64877 21.6688 8.23141 22.23C8.27316 22.3599 8.35084 22.48 8.46307 22.5742C8.61694 22.7034 8.80748 22.7602 8.9933 22.7483C9.17913 22.7602 9.36967 22.7034 9.52354 22.5742C9.63576 22.48 9.71345 22.3599 9.7552 22.23C10.3378 21.6688 11.1286 21.325 12.0001 21.325C12.9342 21.325 13.7754 21.7198 14.3671 22.3539C14.4051 22.4137 14.4524 22.469 14.5086 22.5178C14.5158 22.524 14.5231 22.5301 14.5305 22.536C14.8029 22.8031 15.239 22.8246 15.5372 22.5742C15.6496 22.4798 15.7274 22.3595 15.7691 22.2293C16.3517 21.6685 17.142 21.325 18.0133 21.325C18.9902 21.325 19.8653 21.7568 20.46 22.4425C20.7313 22.7555 21.205 22.7892 21.518 22.5178C21.8309 22.2464 21.8646 21.7727 21.5932 21.4598C20.9727 20.7442 20.1397 20.2158 19.1922 19.973C19.8495 19.5739 20.2886 18.8513 20.2886 18.0261C20.2886 16.769 19.2696 15.7499 18.0125 15.7499C16.7554 15.7499 15.7363 16.769 15.7363 18.0261C15.7363 18.8515 16.1756 19.5742 16.8332 19.9733C16.1533 20.1477 15.5324 20.4692 15.0067 20.9014C14.481 20.4692 13.86 20.1477 13.1801 19.9733C13.8376 19.5742 14.2769 18.8514 14.2769 18.0261C14.2769 16.769 13.2578 15.7499 12.0008 15.7499C10.7437 15.7499 9.72461 16.769 9.72461 18.0261C9.72461 18.8513 10.1637 19.5739 10.8211 19.973C10.1407 20.1474 9.51934 20.4691 8.9933 20.9016C8.46749 20.4693 7.84645 20.1477 7.16642 19.9733C7.82394 19.5742 8.26323 18.8514 8.26323 18.0261C8.26323 16.769 7.24416 15.7499 5.98708 15.7499Z" fill="#001F3E"/>
</svg>
