<svg width="24" height="24" viewBox="0 0 24 24" fill="none" xmlns="http://www.w3.org/2000/svg">
<path d="M19.2813 13.0707C19.5625 13.3748 19.544 13.8493 19.2399 14.1306L16.71 16.4706C16.4142 16.7441 15.9552 16.7352 15.6704 16.4503L14.5004 15.2803C14.2075 14.9874 14.2075 14.5125 14.5004 14.2196C14.7933 13.9267 15.2682 13.9268 15.5611 14.2197L16.221 14.8796L18.2214 13.0294C18.5255 12.7481 19 12.7666 19.2813 13.0707Z" fill="#001F3E"/>
<path fill-rule="evenodd" clip-rule="evenodd" d="M14.9332 19.887C14.8764 20.0631 14.8045 20.2333 14.7228 20.3911C14.5229 20.7771 14.2165 21.1806 13.8059 21.4275L12.4073 22.3302L12.395 22.3379C10.6207 23.435 8.12054 22.2286 8.12054 19.98V14.63C8.12054 14.4044 8.05152 14.0985 7.91982 13.7714C7.79512 13.4617 7.63544 13.1856 7.49296 13.0015L3.6806 8.9906C3.35696 8.65909 3.08555 8.22653 2.89422 7.80181C2.70548 7.38286 2.56055 6.89582 2.56055 6.45001V4.11999C2.56055 2.51969 3.78284 1.25 5.33057 1.25H18.6705C20.1947 1.25 21.4406 2.49576 21.4406 4.01999V6.23999C21.4406 6.78753 21.2726 7.35146 21.0557 7.82816C20.8375 8.30752 20.5395 8.76523 20.2161 9.09506C20.2033 9.10814 20.19 9.12075 20.1762 9.13285L19.3666 9.84588C21.1593 10.7523 22.3803 12.6122 22.3803 14.75C22.3803 15.7751 22.1038 16.7496 21.5921 17.5881C20.6416 19.1739 18.8931 20.25 16.8803 20.25C16.1968 20.25 15.5399 20.1223 14.9332 19.887ZM4.06055 4.11999C4.06055 3.3003 4.65829 2.75 5.33057 2.75H18.6705C19.3663 2.75 19.9406 3.32422 19.9406 4.01999V6.23999C19.9406 6.50244 19.8535 6.84853 19.6904 7.20684C19.5338 7.551 19.3349 7.84521 19.1622 8.02713L17.7024 9.31269C17.4333 9.27061 17.1582 9.25 16.8806 9.25C16.8568 9.25 16.8332 9.25015 16.8095 9.25045C16.7157 9.25164 16.6225 9.25519 16.5299 9.26104C13.6585 9.44218 11.3803 11.8335 11.3803 14.75C11.3803 15.7808 11.6698 16.7543 12.1783 17.5877C12.5339 18.1826 13.0031 18.7098 13.5683 19.1269C13.5567 19.2819 13.4993 19.4917 13.3908 19.7014C13.2656 19.9432 13.1221 20.0896 13.0303 20.1436C13.0213 20.1488 13.0125 20.1542 13.0038 20.1599L11.6007 21.0655C10.7555 21.5824 9.62055 20.9693 9.62055 19.98V14.63C9.62055 14.1456 9.48457 13.6416 9.31127 13.2111C9.13627 12.7765 8.89928 12.3578 8.6462 12.0415C8.63288 12.0248 8.61885 12.0088 8.60416 11.9933L4.76413 7.95329L4.7642 7.95323L4.75607 7.94495C4.58164 7.76703 4.39964 7.49157 4.26185 7.1857C4.1206 6.87215 4.06055 6.6042 4.06055 6.45001V4.11999ZM14.7457 18.1121C15.3639 18.5184 16.0963 18.75 16.8803 18.75C18.3463 18.75 19.6169 17.9675 20.3068 16.8148L20.3103 16.8089C20.6775 16.2081 20.8803 15.5037 20.8803 14.75C20.8803 12.8472 19.5501 11.2477 17.7587 10.8524L17.7436 10.8489C17.4756 10.7839 17.1852 10.75 16.8803 10.75C16.8803 10.75 16.8803 10.75 16.8803 10.75C16.8115 10.75 16.743 10.7518 16.675 10.7552C14.5644 10.8625 12.8806 12.6131 12.8806 14.75C12.8806 15.4978 13.0903 16.2031 13.4605 16.8089L13.4646 16.8156C13.7759 17.3372 14.2014 17.7773 14.7125 18.0906C14.7238 18.0975 14.7349 18.1047 14.7457 18.1121Z" fill="#001F3E"/>
</svg>
