<svg width="24" height="24" viewBox="0 0 24 24" fill="none" xmlns="http://www.w3.org/2000/svg">
<path fill-rule="evenodd" clip-rule="evenodd" d="M22.0004 12C22.0004 17.5 17.5004 22 12.0004 22C6.50037 22 2.00037 17.5 2.00037 12C2.00037 6.5 6.50037 2 12.0004 2C17.5004 2 22.0004 6.5 22.0004 12ZM12.0004 6.25C12.4146 6.25 12.7504 6.58579 12.7504 7V7.3501H12.9296C14.3892 7.36982 15.5358 8.58629 15.5358 10.05C15.5358 10.4642 15.2 10.8 14.7858 10.8C14.3716 10.8 14.0358 10.4642 14.0358 10.05C14.0358 9.37045 13.5136 8.86065 12.9138 8.8501H10.8303C10.3896 8.8501 9.96472 9.24297 9.96472 9.79928C9.96472 10.1988 10.0511 10.3605 10.11 10.4351C10.1765 10.5194 10.2984 10.6083 10.5781 10.7075L10.5793 10.7079L13.9267 11.8795C14.3081 12.0175 14.738 12.2287 15.0581 12.6382C15.3854 13.0569 15.5219 13.583 15.5219 14.2004C15.5219 15.5104 14.4982 16.6496 13.1563 16.6496H12.7504V16.9999C12.7504 17.4141 12.4146 17.7499 12.0004 17.7499C11.5862 17.7499 11.2504 17.4141 11.2504 16.9999V16.6496H11.0671C9.60092 16.6496 8.46472 15.4002 8.46472 13.9497C8.46472 13.5355 8.80051 13.1997 9.21472 13.1997C9.62894 13.1997 9.96472 13.5355 9.96472 13.9497C9.96472 14.6441 10.4998 15.1496 11.0671 15.1496H13.1563C13.597 15.1496 14.0219 14.7567 14.0219 14.2004C14.0219 13.8011 13.9355 13.6378 13.8763 13.562C13.8102 13.4775 13.6907 13.3896 13.4199 13.2914L10.0812 12.1228L10.0786 12.1219C9.69064 11.9845 9.25568 11.7741 8.93226 11.364C8.60114 10.9442 8.46472 10.4165 8.46472 9.79928C8.46472 8.48927 9.48835 7.3501 10.8303 7.3501H11.2504V7C11.2504 6.58579 11.5862 6.25 12.0004 6.25Z" fill="#001F3E"/>
</svg>
