<svg width="24" height="24" viewBox="0 0 24 24" fill="none" xmlns="http://www.w3.org/2000/svg">
<path d="M11.4697 7.96973C11.7597 7.68007 12.2394 7.68003 12.5293 7.96973L15.5293 10.9697C15.8193 11.2597 15.8193 11.7403 15.5293 12.0303C15.3793 12.1801 15.1889 12.25 14.999 12.25C14.8093 12.2499 14.6196 12.18 14.4697 12.0303L12.75 10.3105V15.5C12.75 15.91 12.41 16.25 12 16.25C11.59 16.25 11.25 15.91 11.25 15.5V10.3086L9.5293 12.0303C9.23937 12.32 8.75968 12.3199 8.46973 12.0303C8.17973 11.7403 8.17973 11.2597 8.46973 10.9697L11.4697 7.96973Z" fill="#292D32"/>
<path fill-rule="evenodd" clip-rule="evenodd" d="M12 1.25C17.93 1.25 22.75 6.07 22.75 12C22.75 17.93 17.93 22.75 12 22.75C6.07 22.75 1.25 17.93 1.25 12C1.25 6.07 6.07 1.25 12 1.25ZM12 2.75C6.9 2.75 2.75 6.9 2.75 12C2.75 17.1 6.9 21.25 12 21.25C17.1 21.25 21.25 17.1 21.25 12C21.25 6.9 17.1 2.75 12 2.75Z" fill="#292D32"/>
</svg>
