<svg width="24" height="24" viewBox="0 0 24 24" fill="none" xmlns="http://www.w3.org/2000/svg">
<path d="M9.75 8C9.75 7.58579 10.0858 7.25 10.5 7.25H13.5C13.9142 7.25 14.25 7.58579 14.25 8C14.25 8.41421 13.9142 8.75 13.5 8.75H10.5C10.0858 8.75 9.75 8.41421 9.75 8Z" fill="#001F3E"/>
<path fill-rule="evenodd" clip-rule="evenodd" d="M22.5303 2.53033C22.8232 2.23744 22.8232 1.76256 22.5303 1.46967C22.2374 1.17678 21.7626 1.17678 21.4697 1.46967L17.7275 5.21184C17.6648 5.1916 17.6142 5.16491 17.5713 5.13576C17.4698 5.06678 17.3671 4.95323 17.2632 4.77065C17.097 4.47821 16.9949 4.15173 16.8742 3.76582C16.8245 3.60707 16.7717 3.43826 16.71 3.25763C16.6988 3.22476 16.6853 3.19271 16.6696 3.16171C16.3896 2.60779 16.0347 2.19825 15.508 1.97045C15.0326 1.76481 14.4995 1.75006 14.0003 1.75006H10.0003C9.49706 1.75006 8.96279 1.7646 8.48779 1.97088C7.96098 2.19965 7.6095 2.61064 7.33094 3.16171C7.31528 3.19269 7.30179 3.22472 7.29057 3.25757C7.22884 3.43823 7.17602 3.60706 7.12636 3.76583C7.00564 4.15171 6.90352 4.47817 6.73722 4.77061C6.63338 4.9532 6.53063 5.06677 6.42908 5.13575C6.33659 5.19859 6.20851 5.25 6.00021 5.25C3.40737 5.25 1.34706 7.42986 1.5002 10.0132V18.25C1.5002 18.2645 1.50063 18.2791 1.50147 18.2936C1.55109 19.1453 1.82036 19.9535 2.29566 20.6437L1.46967 21.4697C1.17678 21.7626 1.17678 22.2374 1.46967 22.5303C1.76256 22.8232 2.23744 22.8232 2.53033 22.5303L18.5199 6.54072C18.5271 6.53386 18.5341 6.52687 18.5409 6.51974L22.5303 2.53033ZM16.6322 6.30718C16.3345 6.08001 16.1199 5.7945 15.9593 5.5121C15.7059 5.06642 15.5311 4.50529 15.3979 4.07777C15.3655 3.97382 15.3356 3.87777 15.3076 3.79321C15.1392 3.47451 15.0113 3.38992 14.9125 3.34718C14.758 3.28032 14.521 3.25006 14.0003 3.25006H10.0003C9.4735 3.25006 9.23777 3.28052 9.08528 3.34674C8.98895 3.38857 8.86259 3.47184 8.69299 3.79317C8.66501 3.87766 8.63511 3.97361 8.60275 4.07745C8.46953 4.50495 8.29455 5.06648 8.04112 5.51212C7.86372 5.82407 7.62041 6.13982 7.272 6.37651C6.91452 6.61937 6.48874 6.75 6.00021 6.75C4.2615 6.75 2.88679 8.21588 2.99863 9.94149C2.99968 9.95764 3.0002 9.97382 3.0002 9.99V18.2271C3.03119 18.7088 3.16249 19.1587 3.38373 19.5556L8.01935 14.92C8.00669 14.8654 8 14.8085 8 14.75C8 12.5458 9.79579 10.75 12 10.75C12.0585 10.75 12.1154 10.7567 12.17 10.7693L16.6322 6.30718Z" fill="#001F3E"/>
<path d="M21.6059 7.04896C21.3568 6.71804 20.8866 6.65175 20.5557 6.90089C20.2248 7.15003 20.1585 7.62025 20.4076 7.95117C20.8224 8.50216 21.0501 9.19631 21.0018 9.94149C21.0007 9.95764 21.0002 9.97382 21.0002 9.99V18.2252C20.9422 19.0591 20.5885 19.7997 19.9836 20.3365C19.3738 20.8778 18.4641 21.25 17.2402 21.25H6.7602C6.34599 21.25 6.0102 21.5858 6.0102 22C6.0102 22.4142 6.34599 22.75 6.7602 22.75H17.2402C18.7764 22.75 20.0566 22.2772 20.9793 21.4585C21.9014 20.6401 22.4219 19.5142 22.4987 18.2972C22.4997 18.2815 22.5002 18.2658 22.5002 18.25V10.0132C22.5659 8.90504 22.223 7.86859 21.6059 7.04896Z" fill="#001F3E"/>
<path d="M15.4873 12.7937C15.284 12.4328 14.8267 12.305 14.4658 12.5084C14.1049 12.7117 13.9772 13.169 14.1805 13.5299C14.3839 13.8911 14.5 14.3067 14.5 14.75C14.5 16.1258 13.3758 17.25 12 17.25C11.512 17.25 11.0572 17.1093 10.6717 16.8659C10.3215 16.6447 9.85829 16.7493 9.63711 17.0995C9.41593 17.4497 9.52054 17.9129 9.87076 18.1341C10.4878 18.5238 11.219 18.75 12 18.75C14.2042 18.75 16 16.9542 16 14.75C16 14.041 15.8136 13.3727 15.4873 12.7937Z" fill="#001F3E"/>
</svg>
