<svg width="24" height="24" viewBox="0 0 24 24" fill="none" xmlns="http://www.w3.org/2000/svg">
<path fill-rule="evenodd" clip-rule="evenodd" d="M6.18222 12.2409C6.02363 12.4244 5.88405 12.6284 5.76771 12.8458C3.68005 13.1028 1.78844 14.6948 1.5239 17.1083L1.25421 19.5654C1.03969 21.4055 2.59662 22.9481 4.41287 22.7453L6.87126 22.4755L6.88708 22.4736C8.0338 22.323 9.01803 21.832 9.74978 21.1003L9.75309 21.0969C10.5681 20.2716 11.0496 19.2179 11.1566 18.0993C11.3352 17.9973 11.4981 17.8864 11.6478 17.7786C11.6583 17.771 11.6687 17.7632 11.6788 17.755L13.6487 16.1751C16.9792 13.5045 20.9157 8.18115 22.5043 4.22251C22.8717 3.32968 22.5862 2.44603 22.02 1.88965C21.4524 1.31201 20.5726 1.08465 19.7075 1.40722L19.6913 1.41347C17.697 2.21015 15.3723 3.6013 13.2292 5.18994C11.0861 6.77854 9.07716 8.59974 7.73353 10.2819L7.73156 10.2844L6.18222 12.2409ZM20.2386 2.81009C18.4048 3.54411 16.1983 4.85617 14.1224 6.39497C12.9364 7.27415 11.8083 8.21593 10.8286 9.1501C12.7605 9.62842 14.2897 11.1329 14.8034 13.0507C17.3686 10.348 19.9441 6.5766 21.1134 3.66079L21.1165 3.65318C21.2249 3.39122 21.1545 3.14048 20.9663 2.95731L20.952 2.94297C20.8004 2.78717 20.5467 2.69798 20.2386 2.81009ZM13.4872 14.3413C13.4193 12.2095 11.6696 10.4974 9.52327 10.49C9.30312 10.7357 9.09695 10.9785 8.90654 11.2168L8.90554 11.218L7.54507 12.9361C8.35441 13.1451 9.12422 13.5753 9.77169 14.2316C10.396 14.8565 10.8145 15.5764 11.0246 16.3568L12.7103 15.0049C12.9654 14.8003 13.225 14.5783 13.4872 14.3413ZM6.31689 14.309C6.43935 14.3029 6.57246 14.3062 6.71719 14.3128L6.80053 14.3174C7.47154 14.4104 8.1399 14.731 8.69921 15.2903C9.25773 15.8488 9.55832 16.4786 9.64589 17.1473L9.64872 17.1669C9.65322 17.1954 9.65717 17.2248 9.66061 17.2547L9.66573 17.3269C9.67339 17.4334 9.67944 17.5174 9.67944 17.62C9.67944 18.5247 9.33578 19.3839 8.68745 20.0413C8.2008 20.5272 7.52823 20.8749 6.69936 20.9853L4.246 21.2546C3.38366 21.3511 2.641 20.6158 2.74432 19.7376L3.01497 17.2717C3.20965 15.4953 4.69077 14.3429 6.2949 14.3098C6.30223 14.3097 6.30956 14.3094 6.31689 14.309Z" fill="#001F3E"/>
</svg>
