<svg width="24" height="24" viewBox="0 0 24 24" fill="none" xmlns="http://www.w3.org/2000/svg">
<path fill-rule="evenodd" clip-rule="evenodd" d="M5.90039 2C5.90039 1.58579 5.5646 1.25 5.15039 1.25C4.73618 1.25 4.40039 1.58579 4.40039 2V22C4.40039 22.4142 4.73618 22.75 5.15039 22.75C5.5646 22.75 5.90039 22.4142 5.90039 22V16.75H16.3504C17.7039 16.75 18.973 16.3678 19.4272 15.3079C19.8863 14.2369 19.2683 13.0573 18.2807 12.0697L17.0807 10.8697C17.069 10.8579 17.0568 10.8465 17.0443 10.8356C16.6069 10.4528 16.5525 9.65853 17.0807 9.13033L18.2807 7.93033C18.7986 7.41246 19.1873 6.88236 19.4059 6.35395C19.6265 5.82085 19.6899 5.24342 19.4698 4.70408C19.2492 4.16378 18.799 3.79612 18.2654 3.57239C17.7373 3.35099 17.0862 3.25 16.3504 3.25H5.90039V2ZM5.90039 4.75V15.25H16.3504C17.5969 15.25 17.9777 14.8822 18.0485 14.7171C18.1145 14.5631 18.1325 14.0427 17.2201 13.1303L16.0362 11.9465C14.8946 10.926 14.9545 9.13519 16.0201 8.06967L17.2201 6.86967C17.6522 6.43754 17.901 6.06764 18.0199 5.78042C18.1368 5.4979 18.1109 5.34408 18.081 5.27092C18.0515 5.19872 17.9642 5.07263 17.6854 4.95574C17.401 4.83651 16.9646 4.75 16.3504 4.75H5.90039Z" fill="#001F3E"/>
</svg>
