<svg width="24" height="24" viewBox="0 0 24 24" fill="none" xmlns="http://www.w3.org/2000/svg">
<path d="M8.29688 21.2786C10.7208 20.5906 13.2831 20.5906 15.707 21.2786C16.1053 21.3918 16.3365 21.8061 16.2236 22.2044C16.1105 22.6029 15.6953 22.8351 15.2969 22.722C13.1409 22.1101 10.863 22.11 8.70703 22.722C8.30857 22.8351 7.89337 22.6029 7.78027 22.2044C7.66753 21.8062 7.89885 21.3919 8.29688 21.2786Z" fill="#001F3E"/>
<path d="M11.3525 7.51594C11.5591 7.15696 12.0179 7.03305 12.377 7.23958C12.7358 7.44618 12.8589 7.90501 12.6523 8.26399L11.7979 9.75032H12.6328C13.033 9.75039 13.5123 9.89796 13.7695 10.3499C14.0246 10.7983 13.9106 11.2824 13.7119 11.6243L12.6543 13.4818C12.4491 13.8414 11.9906 13.9671 11.6309 13.762C11.2711 13.557 11.1456 13.0984 11.3506 12.7386L12.1992 11.2503H11.3623C10.9612 11.2503 10.4893 11.098 10.2324 10.6536C9.97526 10.2086 10.0799 9.72365 10.2832 9.37434L11.3525 7.51594Z" fill="#001F3E"/>
<path fill-rule="evenodd" clip-rule="evenodd" d="M3.36133 9.89973C3.36148 4.47936 8.34564 0.233801 13.9609 1.45735H13.9629C16.4351 2.0043 18.6081 3.64505 19.7432 5.9261C21.9664 10.3943 19.7654 15.0701 16.4814 17.2806V18.0384C16.4864 18.1095 16.5193 18.5777 16.3174 18.9652C16.0337 19.5092 15.4634 19.7395 14.7715 19.7396H9.26465C8.70395 19.7443 8.0551 19.6587 7.72363 19.1009C7.5761 18.8526 7.55247 18.5976 7.54688 18.4398C7.54395 18.3569 7.54616 18.2761 7.54785 18.2132C7.54818 18.2009 7.54852 18.1893 7.54883 18.1781C7.55028 18.126 7.55175 18.084 7.55176 18.0404V17.2913C5.23798 15.7367 3.36133 12.9368 3.36133 9.89973ZM13.6406 2.92219C8.97658 1.90662 4.86148 5.42071 4.86133 9.89973C4.86133 12.4657 6.56638 14.9545 8.68945 16.2376C8.91419 16.3734 9.05176 16.6176 9.05176 16.8802V18.0404C9.05175 18.1071 9.04933 18.1735 9.04785 18.2259C9.04777 18.2287 9.04793 18.232 9.04785 18.2347C9.10315 18.2389 9.17169 18.2403 9.25488 18.2396H14.7715C14.8724 18.2396 14.9408 18.2316 14.9844 18.223C14.9846 18.2077 14.9848 18.19 14.9844 18.1693C14.984 18.1494 14.9831 18.1321 14.9824 18.1077C14.9819 18.0862 14.9814 18.0581 14.9814 18.0296V16.8704C14.9814 16.6077 15.1188 16.3636 15.3438 16.2279C18.323 14.4292 20.275 10.3632 18.3994 6.59407C17.4746 4.73559 15.6879 3.37551 13.6406 2.92219Z" fill="#001F3E"/>
</svg>
