<svg width="24" height="24" viewBox="0 0 24 24" fill="none" xmlns="http://www.w3.org/2000/svg">
<path d="M9.49902 13.25C9.08481 13.25 8.74902 13.5858 8.74902 14C8.74902 14.4142 9.08481 14.75 9.49902 14.75H14.499C14.9132 14.75 15.249 14.4142 15.249 14C15.249 13.5858 14.9132 13.25 14.499 13.25H9.49902Z" fill="#001F3E"/>
<path fill-rule="evenodd" clip-rule="evenodd" d="M13.7315 2.8468C13.571 2.41717 13.3645 2.03867 13.1002 1.75499C12.8332 1.46841 12.4616 1.23499 12.0042 1.23499C11.5469 1.23499 11.1753 1.46841 10.9083 1.75499C10.644 2.03867 10.4374 2.41717 10.2769 2.84682L8.51817 7.53347C8.44981 7.71019 8.35561 7.76432 8.30282 7.78052C8.25027 7.79666 8.14008 7.80543 7.98013 7.6961L4.08677 4.91085C3.69367 4.62855 3.30139 4.4146 2.92729 4.31242C2.56156 4.21254 2.08536 4.18961 1.68504 4.49031C1.28448 4.79118 1.17381 5.25531 1.16821 5.63551C1.16248 6.0244 1.25931 6.46191 1.42253 6.92116L1.423 6.92247L5.56133 18.4977L5.56228 18.5005C5.69484 18.877 5.96148 19.1762 6.24639 19.3775C6.53183 19.5792 6.90246 19.73 7.29922 19.73H16.6992C17.0955 19.73 17.4637 19.5795 17.7459 19.3852C18.0277 19.191 18.2953 18.904 18.4368 18.5454C18.4399 18.5377 18.4427 18.53 18.4455 18.5223L22.4855 7.21228L22.4863 7.21001C22.6621 6.71296 22.7642 6.24368 22.7576 5.82992C22.751 5.42493 22.6331 4.9442 22.2216 4.63302C21.8091 4.32112 21.3139 4.33978 20.9221 4.44593C20.5229 4.5541 20.101 4.78277 19.6729 5.08996L19.6718 5.09074L16.0178 7.69646L16.0161 7.69767C15.8624 7.80517 15.7562 7.7965 15.7052 7.78078C15.6534 7.76479 15.5588 7.71056 15.4903 7.53353L13.7315 2.8468ZM12.0042 2.77917C11.9194 2.87086 11.8006 3.05425 11.6819 3.3723L11.6814 3.37349L9.9195 8.06858C9.70791 8.62021 9.29263 9.04572 8.74312 9.21445C8.19361 9.38318 7.61021 9.2644 7.12231 8.92663L7.1128 8.92004L3.21167 6.12912C2.98954 5.96956 2.8116 5.87023 2.67821 5.81232C2.69682 5.95746 2.74313 6.15765 2.83566 6.41809L6.97713 18.0022C6.9849 18.0244 7.02264 18.0893 7.11205 18.1525C7.20161 18.2158 7.27598 18.23 7.29922 18.23H16.6992C16.7229 18.23 16.7998 18.2154 16.8951 18.1498C16.9841 18.0885 17.027 18.0254 17.0394 17.9997L21.0721 6.70996L21.0726 6.70859C21.2012 6.3447 21.25 6.08218 21.257 5.91128C21.0958 5.96559 20.8587 6.08514 20.5466 6.30923L20.5447 6.31062L16.8806 8.92352C16.3953 9.26475 15.8121 9.38341 15.2632 9.21419C14.7153 9.04524 14.3004 8.61985 14.089 8.06858L14.087 8.0635L12.327 3.37349L12.3266 3.3723C12.2079 3.05425 12.089 2.87086 12.0042 2.77917Z" fill="#001F3E"/>
<path d="M5.74902 22C5.74902 21.5858 6.08481 21.25 6.49902 21.25H17.499C17.9132 21.25 18.249 21.5858 18.249 22C18.249 22.4142 17.9132 22.75 17.499 22.75H6.49902C6.08481 22.75 5.74902 22.4142 5.74902 22Z" fill="#001F3E"/>
</svg>
