<svg width="24" height="24" viewBox="0 0 24 24" fill="none" xmlns="http://www.w3.org/2000/svg">
<path fill-rule="evenodd" clip-rule="evenodd" d="M22.5504 2.72033C22.8432 2.42744 22.8432 1.95257 22.5504 1.65967C22.2575 1.36678 21.7826 1.36678 21.4897 1.65967L17.3235 5.8259C17.1562 4.83929 16.7013 4.06362 15.8908 3.55111C15.0258 3.0041 13.8626 2.83 12.52 2.83H6.21C4.589 2.83 3.2698 3.08955 2.38967 3.96967C1.50954 4.8498 1.25 6.169 1.25 7.79V16.21C1.25 17.5994 1.6685 19.1269 2.89507 20.1305C2.90774 20.1408 2.92075 20.1508 2.93407 20.1603L2.96615 20.1832L1.48969 21.6597C1.1968 21.9526 1.1968 22.4274 1.48969 22.7203C1.78258 23.0132 2.25746 23.0132 2.55035 22.7203L22.5504 2.72033ZM4.04144 19.1079L15.8878 7.26158C15.8891 7.19823 15.8903 7.12846 15.8913 7.05607C15.8952 6.7678 15.8937 6.49772 15.8835 6.39225L15.8825 6.38229C15.812 5.53568 15.5239 5.09379 15.0892 4.8189C14.5942 4.50591 13.7874 4.33 12.52 4.33H6.21C4.671 4.33 3.8852 4.59546 3.45033 5.03033C3.01546 5.46521 2.75 6.251 2.75 7.79V16.21C2.75 17.3317 3.08615 18.3372 3.82722 18.9549L4.04144 19.1079Z" fill="#001F3E"/>
<path d="M17.4898 10.95C17.4898 10.5358 17.154 10.2 16.7398 10.2C16.3256 10.2 15.9898 10.5358 15.9898 10.95V16.21C15.9898 17.749 15.7243 18.5348 15.2894 18.9697C14.8546 19.4045 14.0688 19.67 12.5298 19.67H7.25977C6.84555 19.67 6.50977 20.0058 6.50977 20.42C6.50977 20.8342 6.84555 21.17 7.25977 21.17H12.5298C14.1508 21.17 15.47 20.9105 16.3501 20.0303C17.1607 19.2198 17.4449 18.0368 17.4847 16.5886L19.0873 17.7127L19.0883 17.7134C19.8779 18.2705 20.8097 18.5254 21.6155 18.1068C22.4213 17.6883 22.7498 16.7788 22.7498 15.81V6.74001C22.7498 6.32579 22.414 5.99001 21.9998 5.99001C21.5856 5.99001 21.2498 6.32579 21.2498 6.74001V15.81C21.2498 16.5112 21.0183 16.7267 20.9241 16.7757C20.8303 16.8244 20.5225 16.8897 19.9523 16.4873L19.9505 16.486L17.4898 14.7599V10.95Z" fill="#001F3E"/>
</svg>
