<svg width="24" height="24" viewBox="0 0 24 24" fill="none" xmlns="http://www.w3.org/2000/svg">
<path d="M12 2.25C12.4142 2.25 12.75 2.58579 12.75 3V15.6897L17.5398 10.8998C17.8327 10.607 18.3076 10.607 18.6005 10.8998C18.8934 11.1927 18.8934 11.6676 18.6005 11.9605L12.5305 18.0305C12.3899 18.1712 12.1991 18.2502 12.0002 18.2502C11.8013 18.2502 11.6105 18.1712 11.4698 18.0305L5.39985 11.9605C5.10695 11.6676 5.10695 11.1927 5.39985 10.8998C5.69274 10.607 6.16761 10.607 6.46051 10.8998L11.25 15.6893V3C11.25 2.58579 11.5858 2.25 12 2.25Z" fill="#001F3E"/>
<path d="M3.75 16C3.75 15.5858 3.41421 15.25 3 15.25C2.58579 15.25 2.25 15.5858 2.25 16C2.25 18.0133 2.48868 19.7689 3.56057 20.9939C4.65413 22.2437 6.43533 22.75 9 22.75H15C17.5647 22.75 19.3459 22.2437 20.4394 20.9939C21.5113 19.7689 21.75 18.0133 21.75 16C21.75 15.5858 21.4142 15.25 21 15.25C20.5858 15.25 20.25 15.5858 20.25 16C20.25 17.9867 19.9887 19.2311 19.3106 20.0061C18.6541 20.7563 17.4353 21.25 15 21.25H9C6.56467 21.25 5.34587 20.7563 4.68943 20.0061C4.01132 19.2311 3.75 17.9867 3.75 16Z" fill="#001F3E"/>
</svg>
