<svg width="24" height="24" viewBox="0 0 24 24" fill="none" xmlns="http://www.w3.org/2000/svg">
<path d="M21.6406 2.3629C22.9018 3.62557 23.0452 5.66683 22.2994 7.92123L22.2988 7.92311L19.1395 17.3978C18.5913 19.0445 17.9349 20.3456 17.1869 21.2511C16.4412 22.1539 15.5263 22.75 14.4822 22.75C13.4381 22.75 12.5233 22.1539 11.7775 21.2511C11.0296 20.3456 10.3733 19.045 9.82512 17.3982L9.31503 15.8685L14.4975 10.411C14.8158 10.0757 14.802 9.5459 14.4667 9.22764C14.1313 8.90937 13.6013 8.92316 13.2829 9.25843L8.1289 14.686L6.60396 14.1779C4.95694 13.63 3.6556 12.9746 2.74985 12.2279C1.84679 11.4835 1.25 10.5699 1.25 9.52638C1.25 8.48313 1.84653 7.569 2.74918 6.8233C3.65473 6.0752 4.95556 5.41771 6.60271 4.86692L16.0819 1.70826C18.3377 0.956555 20.3783 1.09916 21.6406 2.3629Z" fill="#001F3E"/>
</svg>
