<svg width="24" height="24" viewBox="0 0 24 24" fill="none" xmlns="http://www.w3.org/2000/svg">
<path d="M12 2C17.5228 2 22 6.47715 22 12C22 17.5228 17.5228 22 12 22C6.47715 22 2 17.5228 2 12C2 6.47715 6.47715 2 12 2ZM12.332 6.35645C12.1508 6.17523 11.8512 6.17531 11.6699 6.35645L7.87598 10.1504C7.78229 10.2441 7.73828 10.3627 7.73828 10.4814C7.73832 10.6001 7.78227 10.7188 7.87598 10.8125C8.05721 10.9936 8.35686 10.9936 8.53809 10.8125L11.5312 7.81934V17.3125C11.5313 17.5687 11.7438 17.7812 12 17.7812C12.2562 17.7813 12.4687 17.5687 12.4688 17.3125V7.81738L15.4629 10.8125C15.6441 10.9937 15.9447 10.9937 16.126 10.8125C16.307 10.6313 16.3069 10.3316 16.126 10.1504L12.332 6.35645Z" fill="#001F3E"/>
</svg>
