<svg width="24" height="24" viewBox="0 0 24 24" fill="none" xmlns="http://www.w3.org/2000/svg">
<path fill-rule="evenodd" clip-rule="evenodd" d="M7.73335 13.0459C7.47419 13.3051 7.47441 13.7318 7.73335 13.9912L11.5273 17.7852C11.7866 18.0444 12.2133 18.0444 12.4726 17.7852L16.2666 13.9912C16.3996 13.8581 16.4628 13.6873 16.4628 13.5186C16.4627 13.3498 16.3996 13.179 16.2666 13.0459C16.0072 12.7868 15.5806 12.7868 15.3212 13.0459L12.6699 15.6973L12.6699 6.6875C12.6699 6.32081 12.3676 6.01859 12.0009 6.01855C11.6342 6.01855 11.332 6.32079 11.332 6.6875L11.332 15.6992L8.67867 13.0459C8.41927 12.7869 7.99258 12.7867 7.73335 13.0459Z" fill="#001F3E"/>
</svg>
