<svg width="24" height="24" viewBox="0 0 24 24" fill="none" xmlns="http://www.w3.org/2000/svg">
<path d="M17.751 11.6201C18.9793 11.6201 20.1756 12.0445 21.0723 12.8262C22.0087 13.6425 22.5029 14.9537 22.5029 16.0664C22.5029 18.172 21.5005 19.261 20.5342 20.3105L20.5332 20.3115C20.4589 20.3922 20.3849 20.473 20.3115 20.5537C19.7762 21.1422 19.2419 21.5957 18.8418 21.9033C18.6557 22.0464 18.4972 22.1588 18.3789 22.2393L18.3838 22.2471L18.1514 22.3877L18.1484 22.3896C17.9043 22.5369 17.5987 22.5369 17.3545 22.3896L17.3516 22.3877L17.3467 22.3848L17.335 22.3779L17.3115 22.3633L17.2939 22.3516C17.2594 22.3296 17.2106 22.2984 17.1504 22.2578C17.0298 22.1765 16.8617 22.0575 16.6611 21.9033C16.261 21.5957 15.7268 21.1422 15.1914 20.5537C15.118 20.473 15.0431 20.3913 14.9688 20.3105C14.0024 19.261 13.0001 18.172 13 16.0664C13 14.9537 13.4942 13.6425 14.4307 12.8262C15.3272 12.0446 16.5228 11.6202 17.751 11.6201ZM11.3096 1.5C13.3573 1.50001 15.3633 1.73246 17.248 1.95117C17.6755 2.00078 18.0967 2.05042 18.5107 2.0957C19.5826 2.2129 20.4335 3.06137 20.5488 4.13574C20.5888 4.50795 20.6308 4.88583 20.6738 5.26855C20.8551 6.88259 21.0467 7.93683 21.1025 9.6709C21.1166 10.1144 20.7687 10.4855 20.3252 10.5C19.8815 10.5143 19.5096 10.1663 19.4951 9.72266C19.4416 8.0591 19.2597 7.08378 19.0791 5.47461C19.0354 5.08503 18.9919 4.69612 18.9502 4.30762C18.9157 3.9866 18.6592 3.72871 18.3359 3.69336C17.9002 3.64571 17.4641 3.59551 17.0273 3.54492C16.5017 3.48404 15.9749 3.42349 15.4463 3.36719L15.3848 6.875C15.3715 8.11191 14.3649 9.10837 13.1279 9.1084H9.50684C8.26055 9.10819 7.25 8.09692 7.25 6.85059V3.3584C6.69548 3.41694 6.14302 3.48107 5.5918 3.54492C5.15517 3.5955 4.71888 3.64572 4.2832 3.69336C3.95995 3.72871 3.70341 3.98657 3.66895 4.30762C3.62728 4.69571 3.58371 5.08429 3.54004 5.47363C3.32519 7.38887 3.1084 9.32316 3.1084 11.3096C3.10841 13.2958 3.32521 15.2295 3.54004 17.1445C3.58373 17.534 3.62727 17.9233 3.66895 18.3115C3.70344 18.6325 3.95998 18.8895 4.2832 18.9248C4.71836 18.9724 5.15471 19.0237 5.59082 19.0742C7.47015 19.2919 9.36401 19.5107 11.3096 19.5107C11.7534 19.5108 12.1131 19.8707 12.1133 20.3145C12.1133 20.7584 11.7535 21.1191 11.3096 21.1191C9.26186 21.1191 7.25578 20.8857 5.37109 20.667C4.94381 20.6174 4.52231 20.5687 4.1084 20.5234C3.03667 20.4062 2.18579 19.5576 2.07031 18.4834C2.03032 18.1109 1.98736 17.7325 1.94434 17.3496C1.729 15.4333 1.50001 13.3944 1.5 11.3096C1.5 9.22472 1.729 7.18587 1.94434 5.26953C1.98737 4.88652 2.03031 4.50837 2.07031 4.13574C2.18566 3.06141 3.03657 2.2129 4.1084 2.0957C4.52239 2.05043 4.94372 2.00077 5.37109 1.95117C7.2558 1.73246 9.26184 1.5 11.3096 1.5ZM17.751 13.1611C16.8673 13.1612 16.0373 13.468 15.4404 13.9883C14.8834 14.4741 14.5391 15.3383 14.5391 16.0664C14.5391 17.5814 15.2086 18.3047 16.0527 19.2158C16.143 19.3133 16.2355 19.4127 16.3291 19.5156C16.7893 20.0214 17.2512 20.4153 17.5977 20.6816C17.6519 20.7233 17.7032 20.7617 17.751 20.7969C17.7989 20.7616 17.8509 20.7234 17.9053 20.6816C18.2518 20.4153 18.7137 20.0214 19.1738 19.5156C19.2672 19.4129 19.3602 19.313 19.4502 19.2158C20.2943 18.3047 20.9638 17.5814 20.9639 16.0664C20.9639 15.3383 20.6196 14.4741 20.0625 13.9883C19.4656 13.4679 18.6348 13.1611 17.751 13.1611ZM17.7207 14.7549C18.4682 14.7549 19.073 15.3618 19.0732 16.1094C19.0732 16.8571 18.4683 17.4648 17.7207 17.4648C16.9731 17.4648 16.3682 16.8571 16.3682 16.1094C16.3684 15.3618 16.9733 14.7549 17.7207 14.7549ZM11.4014 3.11914C10.5088 3.11916 9.55091 3.19059 8.8584 3.25488V6.85059C8.8584 7.20887 9.1486 7.4998 9.50684 7.5H13.1279C13.4835 7.49997 13.7723 7.21387 13.7764 6.8584L13.8398 3.21973C13.2055 3.16452 12.2969 3.11914 11.4014 3.11914Z" fill="#001F3E"/>
</svg>
