<svg width="24" height="24" viewBox="0 0 24 24" fill="none" xmlns="http://www.w3.org/2000/svg">
<path fill-rule="evenodd" clip-rule="evenodd" d="M8.99902 1.25C7.25047 1.25 5.72321 2.1938 4.89865 3.59998H4.53906C2.72485 3.59998 1.28906 5.03576 1.28906 6.84998C1.28906 8.48156 1.99257 9.85279 2.98159 10.9517C2.99039 10.9615 2.99944 10.971 3.00873 10.9803C3.53862 11.5102 4.20358 11.9751 4.96855 12.2687C6.12032 14.7451 8.54145 16.5089 11.3989 16.7272V18.25H9.14893C7.63471 18.25 6.39893 19.4858 6.39893 21V21.25H6.14893C5.73471 21.25 5.39893 21.5858 5.39893 22C5.39893 22.4142 5.73471 22.75 6.14893 22.75H18.1489C18.5631 22.75 18.8989 22.4142 18.8989 22C18.8989 21.5858 18.5631 21.25 18.1489 21.25H17.8989V21C17.8989 19.4858 16.6631 18.25 15.1489 18.25H12.8989V16.6985C15.6253 16.384 17.9183 14.658 19.0295 12.2686C19.7944 11.975 20.4593 11.5101 20.9892 10.9803C20.9984 10.971 21.0075 10.9615 21.0163 10.9517C22.0053 9.85279 22.7088 8.48156 22.7088 6.84998C22.7088 5.03576 21.273 3.59998 19.4588 3.59998H19.0994C18.2748 2.1938 16.7476 1.25 14.999 1.25H8.99902ZM5.74902 6C5.74902 4.20421 7.20324 2.75 8.99902 2.75H14.999C16.7948 2.75 18.249 4.20421 18.249 6V9C18.249 12.4558 15.4548 15.25 11.999 15.25C8.54324 15.25 5.74902 12.4558 5.74902 9V6ZM16.3989 21V21.25H7.89893V21C7.89893 20.3142 8.46314 19.75 9.14893 19.75H15.1489C15.8347 19.75 16.3989 20.3142 16.3989 21ZM4.19255 5.13246C3.37983 5.2878 2.78906 5.98325 2.78906 6.84998C2.78906 8.01197 3.28011 9.03585 4.08319 9.93338C4.13286 9.98262 4.18388 10.0309 4.23618 10.0781C4.17247 9.67915 4.13906 9.26933 4.13906 8.84998V5.84998C4.13906 5.60838 4.15672 5.36845 4.19255 5.13246ZM19.8588 5.84998C19.8588 5.60838 19.8412 5.36845 19.8053 5.13246C20.6181 5.2878 21.2088 5.98325 21.2088 6.84998C21.2088 8.01197 20.7178 9.03585 19.9147 9.93338C19.865 9.98262 19.814 10.0309 19.7617 10.0781C19.8254 9.67915 19.8588 9.26933 19.8588 8.84998V5.84998Z" fill="#001F3E"/>
</svg>
