<svg width="24" height="24" viewBox="0 0 24 24" fill="none" xmlns="http://www.w3.org/2000/svg">
<path d="M13.0605 13.4602C13.3605 13.1802 13.841 13.2003 14.121 13.5003C14.4006 13.8002 14.3807 14.2799 14.081 14.5598L12.3007 16.2004C12.0507 16.4303 11.7403 16.5403 11.4404 16.5403C11.1205 16.5402 10.8004 16.4201 10.5605 16.1702L9.91106 15.5198C9.62106 15.2298 9.62106 14.7502 9.91106 14.4602C10.2011 14.1703 10.6807 14.1702 10.9706 14.4602L11.4511 14.9397L13.0605 13.4602Z" fill="#001F3E"/>
<path fill-rule="evenodd" clip-rule="evenodd" d="M11.9999 10.2503C14.6199 10.2503 16.7499 12.3803 16.7499 15.0003C16.7498 17.6201 14.6198 19.7502 11.9999 19.7503C9.38002 19.7503 7.25007 17.6201 7.24993 15.0003C7.24993 12.3803 9.37993 10.2503 11.9999 10.2503ZM11.9999 11.7503C10.2099 11.7503 8.74993 13.2103 8.74993 15.0003C8.75007 16.7901 10.21 18.2503 11.9999 18.2503C13.7898 18.2502 15.2498 16.7901 15.2499 15.0003C15.2499 13.2103 13.7899 11.7503 11.9999 11.7503Z" fill="#001F3E"/>
<path fill-rule="evenodd" clip-rule="evenodd" d="M11.4902 1.26978C12.99 1.12989 14.4303 1.59971 15.5302 2.60963C16.6202 3.59963 17.2499 5.02027 17.2499 6.50025V7.31275C18.7556 7.47289 19.8423 7.9429 20.5497 8.72975C21.5897 9.88975 21.5601 11.4403 21.4501 12.5003L20.7001 18.51C20.4801 20.6 19.6197 22.7502 14.9999 22.7503H8.99993C4.37996 22.7503 3.51974 20.6 3.29973 18.51L2.54973 12.5198C2.43975 11.4398 2.40019 9.88968 3.45012 8.72975C4.1648 7.9359 5.25138 7.47105 6.74993 7.31275V6.68971C6.75008 3.99981 8.92025 1.51978 11.4902 1.26978ZM7.99993 8.75025C6.31009 8.75025 5.14955 9.07964 4.5595 9.73951C4.06951 10.2795 3.90999 11.1099 4.03997 12.3499L4.78997 18.3401C4.95998 19.94 5.40003 21.26 8.99993 21.26H14.9999C18.5997 21.2599 19.0399 19.9496 19.2099 18.3596L19.9599 12.3499C20.0899 11.13 19.9293 10.3002 19.4394 9.75025C18.8494 9.08029 17.6898 8.75029 15.9999 8.75025H7.99993ZM14.5195 3.71998C13.7295 3.00011 12.6997 2.66979 11.6298 2.76978C9.82981 2.93978 8.24993 4.78045 8.24993 6.70045V7.25025H15.7499V6.50025C15.7499 5.45025 15.2995 4.42998 14.5195 3.71998Z" fill="#001F3E"/>
</svg>
