<svg width="24" height="24" viewBox="0 0 24 24" fill="none" xmlns="http://www.w3.org/2000/svg">
<path d="M14.4961 12.0001C14.4961 11.4478 14.9438 11.0001 15.4961 11.0001H15.5051C16.0574 11.0001 16.5051 11.4478 16.5051 12.0001C16.5051 12.5524 16.0574 13.0001 15.5051 13.0001H15.4961C14.9438 13.0001 14.4961 12.5524 14.4961 12.0001Z" fill="#001F3E"/>
<path d="M8.49512 11.0001C7.94283 11.0001 7.49512 11.4478 7.49512 12.0001C7.49512 12.5524 7.94283 13.0001 8.49512 13.0001H8.5041C9.05638 13.0001 9.5041 12.5524 9.5041 12.0001C9.5041 11.4478 9.05638 11.0001 8.5041 11.0001H8.49512Z" fill="#001F3E"/>
<path fill-rule="evenodd" clip-rule="evenodd" d="M6.75098 7.31206V6.70011C6.75098 4.10811 8.81204 1.53423 11.4899 1.28348C14.6162 0.980976 17.251 3.44391 17.251 6.51011V7.3121C18.8059 7.47755 19.919 7.97529 20.6273 8.81735C21.5056 9.86152 21.5878 11.2338 21.4463 12.5126L21.4451 12.5232L20.6958 18.5168C20.5853 19.543 20.3264 20.6671 19.4104 21.5038C18.4993 22.3362 17.0877 22.7501 15.0008 22.7501H9.00083C6.91398 22.7501 5.50236 22.3362 4.59121 21.5038C3.67527 20.667 3.41637 19.543 3.30581 18.5167L2.5553 12.5126C2.4138 11.2338 2.49609 9.86152 3.37437 8.81735C4.08269 7.97524 5.19586 7.47749 6.75098 7.31206ZM11.6334 2.77661C13.8665 2.55996 15.751 4.31676 15.751 6.51011V7.25012H8.25098V6.70011C8.25098 4.79256 9.80922 2.94687 11.6307 2.77687L11.6334 2.77661ZM4.79668 18.3502L4.04571 12.3425C3.91818 11.1839 4.05126 10.3429 4.52229 9.78289C4.98688 9.23055 5.95386 8.75012 8.00083 8.75012H16.0008C18.0478 8.75012 19.0148 9.23055 19.4794 9.78289C19.9504 10.3429 20.0835 11.1839 19.956 12.3423L19.2065 18.3371L19.2051 18.3502C19.1052 19.2821 18.8983 19.94 18.3987 20.3964C17.8924 20.859 16.934 21.2501 15.0008 21.2501H9.00083C7.06768 21.2501 6.1093 20.859 5.60294 20.3964C5.10338 19.94 4.89652 19.2821 4.79668 18.3502Z" fill="#001F3E"/>
</svg>
