<svg width="24" height="24" viewBox="0 0 24 24" fill="none" xmlns="http://www.w3.org/2000/svg">
<path fill-rule="evenodd" clip-rule="evenodd" d="M18.7707 8.91016C18.7707 6.03839 16.9559 3.5722 14.4158 2.60119C13.9489 1.75781 13.0502 1.18994 12.0204 1.18994C10.992 1.18994 10.0942 1.75637 9.62681 2.59797C7.08206 3.56526 5.27069 6.02865 5.27069 8.91016V11.8002C5.27069 12.0148 5.22212 12.3288 5.12927 12.6633C5.0367 12.9968 4.91675 13.2907 4.80724 13.4748L4.80648 13.4761L3.65806 15.3835C3.19702 16.1497 3.10082 17.0094 3.38361 17.7731C3.66608 18.5359 4.29784 19.1254 5.14025 19.4106L5.14303 19.4115C6.23157 19.7752 7.34108 20.0502 8.46132 20.2365C8.64828 20.7988 8.96403 21.3042 9.37018 21.7104C10.0447 22.3849 10.993 22.8101 12.0205 22.8101C13.6749 22.8101 15.0861 21.7273 15.5814 20.2347C16.6974 20.0484 17.8027 19.7742 18.8872 19.4119C20.5555 18.8596 21.2794 16.8935 20.3738 15.3843L19.2272 13.4799C19.1201 13.2925 19.0025 12.9975 18.9115 12.6655C18.8193 12.3295 18.7707 12.015 18.7707 11.8002V8.91016ZM6.77069 8.91016C6.77069 6.56432 8.31562 4.57389 10.4419 3.90247C11.1808 3.69686 11.9766 3.63905 12.8174 3.74415L12.8202 3.74449C13.0655 3.77423 13.308 3.82369 13.5485 3.88859C15.6961 4.54741 17.2707 6.5551 17.2707 8.91016V11.8002C17.2707 12.1953 17.3521 12.6508 17.4649 13.0623C17.578 13.4745 17.7388 13.902 17.9309 14.235L19.0879 16.1566C19.5016 16.8469 19.166 17.7399 18.4153 17.9881L18.413 17.9888C14.2578 19.3771 9.77515 19.3773 5.61981 17.9893C5.16304 17.8343 4.9002 17.5491 4.79028 17.2522C4.68059 16.956 4.69448 16.5705 4.94333 16.1568L6.09323 14.247L6.0949 14.2442C6.2952 13.9082 6.4599 13.4778 6.57462 13.0645C6.68927 12.6515 6.77069 12.1955 6.77069 11.8002V8.91016ZM13.779 20.4583C12.6082 20.5539 11.4317 20.5541 10.2609 20.4589C10.314 20.5259 10.3708 20.5896 10.4308 20.6497C10.8364 21.0553 11.408 21.3101 12.0205 21.3101C12.7295 21.3101 13.3656 20.9762 13.779 20.4583Z" fill="#001F3E"/>
<path d="M6.12459 2.58399C6.35436 2.92863 6.26123 3.39428 5.91659 3.62405C5.32873 4.01597 4.65657 4.8747 4.19176 5.97857C3.73131 7.07212 3.52357 8.29115 3.73591 9.35294C3.81713 9.75912 3.55372 10.1542 3.14754 10.2355C2.74137 10.3167 2.34626 10.0533 2.26503 9.64709C1.97741 8.20889 2.26974 6.67792 2.80932 5.39647C3.34455 4.12534 4.17242 2.98407 5.08452 2.37599C5.42917 2.14622 5.89482 2.23934 6.12459 2.58399Z" fill="#001F3E"/>
<path d="M18.0844 3.62405C17.7397 3.39428 17.6466 2.92862 17.8764 2.58398C18.1062 2.23934 18.5718 2.14622 18.9165 2.37599C19.8286 2.98407 20.6564 4.12534 21.1916 5.39646C21.7312 6.67792 22.0236 8.20889 21.7359 9.64709C21.6547 10.0533 21.2596 10.3167 20.8534 10.2355C20.4473 10.1542 20.1838 9.75912 20.2651 9.35295C20.4774 8.29115 20.2697 7.07212 19.8092 5.97857C19.3444 4.87469 18.6722 4.01596 18.0844 3.62405Z" fill="#001F3E"/>
</svg>
