<svg width="24" height="24" viewBox="0 0 24 24" fill="none" xmlns="http://www.w3.org/2000/svg">
<path fill-rule="evenodd" clip-rule="evenodd" d="M2.98946 2.40001C3.7414 1.6621 4.62047 1.25012 5.58988 1.25012C6.37647 1.25012 7.19404 1.60488 7.68383 2.30934L10.0001 5.57404C10.2757 5.95714 10.6799 6.5883 10.6799 7.32012C10.6799 8.20951 10.0704 8.88959 9.69545 9.2652L9.01374 9.97383C9.02065 9.99817 9.02891 10.0245 9.03929 10.0562C9.19 10.3179 9.45326 10.6837 9.84973 11.1525C10.7712 12.2171 11.7452 13.2183 12.8048 14.1179C13.2815 14.5213 13.6539 14.7796 13.9257 14.9284C13.953 14.9388 13.9763 14.9471 13.9966 14.9537L14.6795 14.2798L14.6813 14.2781C15.0623 13.8973 15.7491 13.2901 16.6399 13.2901C17.3704 13.2901 17.9843 13.6766 18.3716 13.9399L18.3779 13.9442L21.6908 16.2962C22.9344 17.1606 22.8714 18.738 22.3981 19.7404C21.856 20.8883 20.8583 21.8324 19.6862 22.3133C17.7364 23.1248 15.5966 22.6847 13.8959 21.9601C12.6884 21.4456 11.4893 20.7562 10.3084 19.8964L10.3075 19.8958C9.12659 19.0332 8.00812 18.0788 6.94212 17.023L6.93954 17.0205L6.93699 17.0179C5.88138 15.952 4.92665 14.8333 4.07356 13.6616L4.07228 13.6598L4.07102 13.6581C3.22463 12.4814 2.53498 11.2932 2.02957 10.1033L2.02911 10.1023L2.02865 10.1012C1.51707 8.88617 1.24988 7.69713 1.24988 6.54012C1.24988 5.77196 1.38548 5.02744 1.66274 4.33354C1.94474 3.61765 2.38771 2.96916 2.98946 2.40001ZM5.58988 2.75012C5.08175 2.75012 4.56281 2.95605 4.03602 3.47461L4.03034 3.4802L4.02454 3.48567C3.56979 3.91468 3.25494 4.38367 3.0578 4.88472L3.05702 4.88669L3.05624 4.88867C2.85402 5.39421 2.74988 5.94901 2.74988 6.54012C2.74988 7.46281 2.96254 8.45342 3.41066 9.51801C3.86498 10.5873 4.49474 11.6781 5.28748 12.7804C6.09338 13.8871 6.99738 14.947 8.00021 15.9598C9.01343 16.963 10.0741 17.8678 11.1923 18.6845C12.291 19.4844 13.3917 20.1148 14.4839 20.5801C16.0247 21.2367 17.7031 21.5146 19.1114 20.9278L19.1134 20.927L19.1155 20.9261C19.9432 20.5869 20.6599 19.9083 21.0417 19.0999C21.3542 18.438 21.2255 17.7985 20.833 17.5268L20.8293 17.5242L17.522 15.1762C17.142 14.9184 16.8683 14.7901 16.6399 14.7901C16.4122 14.7901 16.1125 14.9682 15.7402 15.3405L15.7385 15.3422L14.9802 16.0905L14.9781 16.0926C14.6928 16.3766 14.3489 16.4811 14.0227 16.4715C13.7378 16.4632 13.4843 16.3677 13.3313 16.3065L13.2943 16.2916L13.259 16.273C12.8535 16.0583 12.3776 15.7214 11.8354 15.2627L11.8349 15.2623L11.8345 15.2618C10.7014 14.2998 9.67215 13.2395 8.71275 12.1309L8.71003 12.1278L8.70734 12.1246C8.25407 11.5889 7.9069 11.1142 7.69146 10.7193L7.65948 10.6606L7.63837 10.5973C7.63587 10.5898 7.63317 10.5818 7.63028 10.5732L7.63001 10.5724C7.58833 10.4486 7.5096 10.2149 7.49797 9.9675C7.48326 9.65435 7.57119 9.3018 7.86346 9.00591L8.62442 8.21492L8.62955 8.20979C9.00501 7.83433 9.17988 7.54326 9.17988 7.32012C9.17988 7.10282 9.04316 6.81215 8.78123 6.44835L8.7797 6.44623L6.45569 3.17058L6.45323 3.16703C6.28 2.9168 5.95265 2.75012 5.58988 2.75012Z" fill="#001F3E"/>
<path d="M14.2499 5.50012C14.2499 5.08591 14.5857 4.75012 14.9999 4.75012C16.1416 4.75012 17.1764 5.46203 17.8789 6.21919C18.2733 6.64184 18.6063 7.11534 18.8444 7.57846C19.0749 8.02669 19.2499 8.53031 19.2499 9.00012C19.2499 9.41434 18.9141 9.75012 18.4999 9.75012C18.0857 9.75012 17.7499 9.41434 17.7499 9.00012C17.7499 8.86994 17.6899 8.61356 17.5104 8.26429C17.3386 7.9302 17.0869 7.56901 16.7816 7.24186L16.78 7.24015C16.2026 6.61765 15.5378 6.25012 14.9999 6.25012C14.5857 6.25012 14.2499 5.91434 14.2499 5.50012Z" fill="#001F3E"/>
<path d="M14.9999 1.25012C14.5857 1.25012 14.2499 1.58591 14.2499 2.00012C14.2499 2.41434 14.5857 2.75012 14.9999 2.75012C18.4557 2.75012 21.2499 5.54434 21.2499 9.00012C21.2499 9.41434 21.5857 9.75012 21.9999 9.75012C22.4141 9.75012 22.7499 9.41434 22.7499 9.00012C22.7499 4.71591 19.2841 1.25012 14.9999 1.25012Z" fill="#001F3E"/>
</svg>
