<svg width="24" height="24" viewBox="0 0 24 24" fill="none" xmlns="http://www.w3.org/2000/svg">
<path d="M9.10968 3.27539C9.51549 3.19274 9.9117 3.45455 9.99445 3.86035C10.0771 4.26605 9.81512 4.66225 9.40949 4.74512C5.18075 5.60738 2.11631 9.68023 2.85968 14.2998C3.42805 17.7718 6.22855 20.5714 9.69855 21.1299C14.3357 21.8828 18.4103 18.8017 19.264 14.5527C19.3455 14.1467 19.7408 13.8834 20.1468 13.9648C20.5529 14.0464 20.8162 14.4416 20.7347 14.8477C19.7282 19.8584 14.9219 23.4972 9.45929 22.6104C5.35006 21.9485 2.05112 18.6483 1.37922 14.541V14.5391C0.503277 9.0991 4.11877 4.29306 9.10968 3.27539Z" fill="#001F3E"/>
<path fill-rule="evenodd" clip-rule="evenodd" d="M11.9993 1.25C17.9364 1.25 22.7493 6.06294 22.7493 12C22.7493 12.4142 22.4135 12.75 21.9993 12.75H11.9993C11.5852 12.7499 11.2493 12.4141 11.2493 12V2C11.2493 1.58588 11.5852 1.25015 11.9993 1.25ZM12.7493 11.25H21.22C20.8581 6.7395 17.2598 3.14219 12.7493 2.78027V11.25Z" fill="#001F3E"/>
</svg>
