<svg width="24" height="24" viewBox="0 0 24 24" fill="none" xmlns="http://www.w3.org/2000/svg">
<path fill-rule="evenodd" clip-rule="evenodd" d="M9 1.25C6.42603 1.25 4.42914 1.7602 3.09467 3.09467C1.7602 4.42914 1.25 6.42603 1.25 9V15C1.25 17.574 1.7602 19.5709 3.09467 20.9053C4.42914 22.2398 6.42603 22.75 9 22.75H15C17.574 22.75 19.5709 22.2398 20.9053 20.9053C22.2398 19.5709 22.75 17.574 22.75 15V11C22.75 10.5858 22.4142 10.25 22 10.25C21.5858 10.25 21.25 10.5858 21.25 11V12.2672L20.8586 11.931C19.7975 11.0196 18.1223 11.0196 17.0612 11.9311L12.9012 15.5011C12.4032 15.9288 11.5607 15.9296 11.0614 15.5035L10.735 15.2166C10.7329 15.2148 10.7308 15.2129 10.7287 15.2111C9.75669 14.3761 8.24514 14.304 7.18206 15.0172L3.05325 17.7893C2.85315 17.0323 2.75 16.1133 2.75 15V9C2.75 6.57397 3.2398 5.07086 4.15533 4.15533C5.07086 3.2398 6.57397 2.75 9 2.75H12C12.4142 2.75 12.75 2.41421 12.75 2C12.75 1.58579 12.4142 1.25 12 1.25H9ZM3.64341 19.1997C3.79554 19.4417 3.96637 19.6557 4.15533 19.8447C5.07086 20.7602 6.57397 21.25 9 21.25H15C17.426 21.25 18.9291 20.7602 19.8447 19.8447C20.7602 18.9291 21.25 17.426 21.25 15V14.2446L19.8812 13.0689C19.3823 12.6404 18.5375 12.6404 18.0386 13.0689L13.8783 16.6391C12.8172 17.5504 11.1422 17.5503 10.0812 16.6389C10.0791 16.6371 10.0769 16.6352 10.0748 16.6334L9.74835 16.3465C9.29997 15.9638 8.5338 15.9168 8.01796 16.2627L3.64341 19.1997Z" fill="#001F3E"/>
<path fill-rule="evenodd" clip-rule="evenodd" d="M8.99998 5.25C7.48119 5.25 6.24998 6.48122 6.24998 8C6.24998 9.51878 7.48119 10.75 8.99998 10.75C10.5188 10.75 11.75 9.51878 11.75 8C11.75 6.48122 10.5188 5.25 8.99998 5.25ZM7.74997 8C7.74997 7.30964 8.30962 6.75 8.99998 6.75C9.69033 6.75 10.25 7.30964 10.25 8C10.25 8.69036 9.69033 9.25 8.99998 9.25C8.30962 9.25 7.74997 8.69036 7.74997 8Z" fill="#001F3E"/>
<path fill-rule="evenodd" clip-rule="evenodd" d="M20.8532 1.71714C20.2678 1.5233 19.5243 1.55882 18.9267 1.93596C18.3399 1.57842 17.6243 1.52848 17.0343 1.71481L17.0289 1.71652C15.4208 2.23767 14.9986 4.05531 15.4052 5.33683L15.4056 5.33811C15.7339 6.36619 16.4406 7.11126 17.1032 7.59029C17.4375 7.83198 17.7751 8.01681 18.0754 8.14369C18.3515 8.26031 18.6706 8.35999 18.9501 8.35999C19.2314 8.35999 19.552 8.25625 19.8247 8.13904C20.1237 8.01054 20.4603 7.82401 20.7937 7.58154C21.4534 7.1018 22.1615 6.35693 22.485 5.33668C22.8919 4.05436 22.4685 2.23846 20.8532 1.71714ZM20.3829 3.1415C20.0553 3.03228 19.7143 3.14083 19.5642 3.36602C19.4281 3.57016 19.2007 3.69483 18.9554 3.69984C18.7101 3.70484 18.4779 3.58955 18.3336 3.39112C18.1552 3.14582 17.8046 3.04575 17.4887 3.14434C16.9384 3.32474 16.5822 4.08557 16.8348 4.88253C17.0367 5.51415 17.4898 6.01884 17.982 6.37469C18.2252 6.5505 18.4639 6.67943 18.6592 6.76192C18.8226 6.83096 18.9175 6.85156 18.9453 6.85758L18.9484 6.85827C18.9494 6.85803 18.9506 6.85775 18.9519 6.85744L18.9544 6.85685C18.9835 6.85 19.0754 6.82843 19.2324 6.76095C19.4278 6.67694 19.6674 6.54597 19.9115 6.36844C20.4068 6.00818 20.8587 5.50305 21.0552 4.88331L21.0552 4.88316C21.308 4.0865 20.9523 3.32437 20.3908 3.14408C20.3882 3.14324 20.3856 3.14238 20.3829 3.1415Z" fill="#001F3E"/>
</svg>
