<svg width="24" height="24" viewBox="0 0 24 24" fill="none" xmlns="http://www.w3.org/2000/svg">
<path fill-rule="evenodd" clip-rule="evenodd" d="M22.5303 2.53033C22.8232 2.23744 22.8232 1.76256 22.5303 1.46967C22.2374 1.17678 21.7626 1.17678 21.4697 1.46967L15.7466 7.19276C15.6977 5.64992 15.1229 4.387 14.0127 3.77354C12.8512 3.13176 11.3994 3.36448 10.0116 4.23457L7.10014 6.05921C6.88751 6.18387 6.65133 6.25 6.43 6.25H5C3.88439 6.25 2.90993 6.52941 2.21967 7.21967C1.52941 7.90993 1.25 8.88439 1.25 10V14C1.25 15.1156 1.52941 16.0901 2.21967 16.7803C2.90993 17.4706 3.88439 17.75 5 17.75H5.18934L1.46967 21.4697C1.17678 21.7626 1.17678 22.2374 1.46967 22.5303C1.76256 22.8232 2.23744 22.8232 2.53033 22.5303L22.5303 2.53033ZM6.68934 16.25L14.2999 8.63947C14.2677 8.55584 14.25 8.46498 14.25 8.37V7.41C14.25 6.07108 13.7904 5.36444 13.2873 5.08645C12.7838 4.80826 11.9406 4.79558 10.8084 5.50543L7.88828 7.33551L7.8729 7.34489C7.44733 7.59757 6.94625 7.75 6.43 7.75H5C4.11561 7.75 3.59007 7.97059 3.28033 8.28033C2.97059 8.59007 2.75 9.11561 2.75 10V14C2.75 14.8844 2.97059 15.4099 3.28033 15.7197C3.59007 16.0294 4.11561 16.25 5 16.25H6.68934Z" fill="#001F3E"/>
<path d="M14.9998 12.2C15.414 12.2 15.7498 12.5358 15.7498 12.95V16.59C15.7498 18.2271 15.1738 19.5793 14.0132 20.2223C12.8523 20.8655 11.4004 20.6363 10.0114 19.7654C9.66042 19.5454 9.5543 19.0825 9.77434 18.7316C9.99437 18.3807 10.4572 18.2745 10.8082 18.4946C11.9392 19.2037 12.7822 19.1895 13.2863 18.9102C13.7907 18.6307 14.2498 17.9229 14.2498 16.59V12.95C14.2498 12.5358 14.5856 12.2 14.9998 12.2Z" fill="#001F3E"/>
<path d="M19.5019 9.1304C19.3419 8.74831 18.9025 8.56823 18.5204 8.72817C18.1384 8.88812 17.9583 9.32752 18.1182 9.70961C18.9179 11.6199 18.6768 13.8476 17.4 15.55C17.1515 15.8814 17.2187 16.3515 17.55 16.6C17.8814 16.8485 18.3515 16.7814 18.6 16.45C20.2033 14.3124 20.5022 11.5201 19.5019 9.1304Z" fill="#001F3E"/>
<path d="M20.859 7.10881C21.2407 6.94802 21.6805 7.12713 21.8413 7.50887C23.413 11.2403 22.9429 15.6032 20.4299 18.9503C20.1812 19.2815 19.7111 19.3485 19.3798 19.0998C19.0486 18.8511 18.9817 18.3809 19.2304 18.0497C21.4173 15.1368 21.8273 11.3397 20.4589 8.09113C20.2981 7.7094 20.4773 7.2696 20.859 7.10881Z" fill="#001F3E"/>
</svg>
