<svg width="24" height="24" viewBox="0 0 24 24" fill="none" xmlns="http://www.w3.org/2000/svg">
<path d="M11.9997 1.25C8.0002 1.25 5.43062 2.99506 3.87546 4.75307C3.10411 5.62503 2.58535 6.49541 2.25858 7.14896C2.09485 7.47642 1.97828 7.75153 1.90158 7.94813C1.86321 8.0465 1.83473 8.12542 1.81526 8.18167C1.80553 8.2098 1.79803 8.23228 1.79268 8.2487L1.78622 8.26875L1.78417 8.27528L1.78343 8.27766L1.78313 8.27862C1.783 8.27904 1.78288 8.27944 2.49971 8.5L1.78313 8.27862C1.66131 8.67452 1.88325 9.09502 2.27915 9.21683C2.67482 9.33858 3.09426 9.11671 3.21634 8.72123L3.21868 8.71401C3.22135 8.70583 3.226 8.69181 3.23274 8.67233C3.24623 8.63336 3.26805 8.57264 3.29901 8.49328C3.36099 8.33441 3.45926 8.1017 3.60022 7.81979C3.88282 7.25459 4.33281 6.49997 4.99896 5.74693C6.3188 4.25494 8.49922 2.75 11.9997 2.75C17.1435 2.75 21.2497 6.89226 21.2497 12C21.2497 16.2906 18.3278 19.8993 14.3587 20.9447C13.9581 21.0502 13.7189 21.4605 13.8244 21.861C13.93 22.2616 14.3402 22.5008 14.7407 22.3953C19.3516 21.1807 22.7497 16.9894 22.7497 12C22.7497 6.06774 17.9759 1.25 11.9997 1.25Z" fill="#001F3E"/>
<path d="M2.97594 14.041C2.88486 13.6369 2.48345 13.3832 2.07938 13.4743C1.6753 13.5654 1.42158 13.9668 1.51266 14.3708C1.55899 14.5763 1.6112 14.7796 1.66912 14.9805C1.78387 15.3785 2.19953 15.6081 2.59753 15.4934C2.99554 15.3786 3.22516 14.963 3.11041 14.565C3.06064 14.3923 3.01576 14.2176 2.97594 14.041Z" fill="#001F3E"/>
<path d="M3.83211 16.3436C3.63718 15.9781 3.18288 15.8399 2.8174 16.0348C2.45192 16.2297 2.31367 16.684 2.5086 17.0495C2.66673 17.346 2.83832 17.6342 3.02254 17.9132C3.25075 18.2589 3.71598 18.3541 4.06165 18.1259C4.40733 17.8977 4.50256 17.4325 4.27434 17.0868C4.11578 16.8466 3.96813 16.5986 3.83211 16.3436Z" fill="#001F3E"/>
<path d="M5.39603 18.4749C5.10602 18.1791 4.63117 18.1745 4.33542 18.4645C4.03968 18.7545 4.03503 19.2294 4.32505 19.5251C4.85814 20.0687 5.44858 20.5561 6.08665 20.9773C6.43232 21.2055 6.89755 21.1103 7.12576 20.7646C7.35397 20.419 7.25875 19.9537 6.91307 19.7255C6.36381 19.3629 5.85528 18.9432 5.39603 18.4749Z" fill="#001F3E"/>
<path d="M8.53439 20.5783C8.15044 20.4229 7.7132 20.6082 7.55778 20.9921C7.40237 21.3761 7.58763 21.8133 7.97158 21.9687C9.21678 22.4727 10.577 22.75 11.9999 22.75C12.4141 22.75 12.7499 22.4142 12.7499 22C12.7499 21.5858 12.4141 21.25 11.9999 21.25C10.7733 21.25 9.60393 21.0112 8.53439 20.5783Z" fill="#001F3E"/>
</svg>
