<svg width="24" height="24" viewBox="0 0 24 24" fill="none" xmlns="http://www.w3.org/2000/svg">
<path d="M19.5303 3.48969C19.2374 3.1968 18.7626 3.1968 18.4697 3.48969C18.1768 3.78258 18.1768 4.25746 18.4697 4.55035L19.1913 5.272L16.4682 5.26003L16.4656 5.26C15.298 5.24807 14.2134 5.83788 13.576 6.79397L7.18596 16.3739C6.82757 16.9115 6.21417 17.2395 5.55136 17.24H5.54999L3.00294 17.23C2.58873 17.2283 2.25163 17.5628 2.25001 17.977C2.24838 18.3912 2.58285 18.7283 2.99706 18.73L5.54704 18.74L5.54999 18.74C6.70659 18.74 7.79266 18.1679 8.43404 17.206L14.824 7.62602C15.1861 7.08292 15.8004 6.75278 16.4517 6.75994L16.4567 6.75998L21.0067 6.78C21.4209 6.78182 21.7582 6.44752 21.76 6.03331C21.7609 5.82217 21.6745 5.63103 21.5347 5.49411C21.5333 5.49264 21.5318 5.49116 21.5303 5.48969L19.5303 3.48969Z" fill="#001F3E"/>
<path d="M9.49866 8.18175L8.41914 6.68244C7.76925 5.77793 6.72144 5.23817 5.60441 5.25001L2.99712 5.26001C2.58291 5.2616 2.24842 5.59867 2.25001 6.01288C2.25159 6.42709 2.58867 6.76158 3.00288 6.76L5.61286 6.75001L5.61861 6.74994C6.24029 6.7428 6.83181 7.04376 7.20135 7.55822L8.28137 9.05822C8.5234 9.39437 8.9921 9.47066 9.32825 9.22863C9.66439 8.9866 9.74069 8.5179 9.49866 8.18175Z" fill="#001F3E"/>
<path d="M21.0066 17.23L16.3398 17.25H16.3383C15.7285 17.2495 15.1493 16.9652 14.7832 16.4914L13.562 14.9198C13.3078 14.5927 12.8366 14.5336 12.5096 14.7878C12.1825 15.0419 12.1234 15.5131 12.3775 15.8402L13.5963 17.4086L13.597 17.4095C14.2506 18.2548 15.2705 18.75 16.3398 18.75L16.343 18.75L19.1815 18.7378L18.4697 19.4496C18.1768 19.7425 18.1768 20.2174 18.4697 20.5103C18.7626 20.8032 19.2374 20.8032 19.5303 20.5103L21.4632 18.5775C21.6443 18.4398 21.7608 18.2218 21.7598 17.9768C21.758 17.5626 21.4208 17.2282 21.0066 17.23Z" fill="#001F3E"/>
</svg>
