<svg width="24" height="24" viewBox="0 0 24 24" fill="none" xmlns="http://www.w3.org/2000/svg">
<path d="M11.9998 10.75C10.6656 10.75 9.58984 11.8259 9.58984 13.16C9.58984 13.5742 9.92563 13.91 10.3398 13.91C10.7541 13.91 11.0898 13.5742 11.0898 13.16C11.0898 12.6542 11.4941 12.25 11.9998 12.25C12.5056 12.25 12.9098 12.6542 12.9098 13.16C12.9098 13.3178 12.866 13.4182 12.8009 13.506C12.7232 13.611 12.602 13.7142 12.4169 13.8407L12.4137 13.8428C11.9585 14.1572 11.2498 14.7132 11.2498 15.79V16C11.2498 16.4142 11.5856 16.75 11.9998 16.75C12.414 16.75 12.7498 16.4142 12.7498 16V15.79C12.7498 15.6221 12.7962 15.5175 12.8636 15.4271C12.9448 15.3182 13.0701 15.2126 13.2645 15.0782C13.7176 14.7686 14.4098 14.2129 14.4098 13.16C14.4098 11.8259 13.3341 10.75 11.9998 10.75Z" fill="#001F3E"/>
<path d="M11.2456 18.5C11.2456 18.0858 11.5814 17.75 11.9956 17.75H12.0046C12.4188 17.75 12.7546 18.0858 12.7546 18.5C12.7546 18.9142 12.4188 19.25 12.0046 19.25H11.9956C11.5814 19.25 11.2456 18.9142 11.2456 18.5Z" fill="#001F3E"/>
<path fill-rule="evenodd" clip-rule="evenodd" d="M5.26399 7.33384C5.32874 5.85824 5.63571 4.41202 6.54093 3.28826C7.61038 1.96061 9.37164 1.25 12 1.25C14.6284 1.25 16.3896 1.96061 17.4591 3.28826C18.3643 4.41202 18.6713 5.85824 18.736 7.33384C19.9074 7.46853 20.8508 7.79017 21.5303 8.46967C22.5188 9.45818 22.75 11.0054 22.75 13V17C22.75 18.9946 22.5188 20.5418 21.5303 21.5303C20.5418 22.5188 18.9946 22.75 17 22.75H7C5.00536 22.75 3.45818 22.5188 2.46967 21.5303C1.48116 20.5418 1.25 18.9946 1.25 17V13C1.25 11.0054 1.48116 9.45818 2.46967 8.46967C3.14917 7.79017 4.09265 7.46853 5.26399 7.33384ZM6.77017 7.25107C6.84207 5.9894 7.11397 4.96802 7.70907 4.22924C8.38962 3.38439 9.62836 2.75 12 2.75C14.3716 2.75 15.6104 3.38439 16.2909 4.22924C16.886 4.96802 17.1579 5.9894 17.2298 7.25107C17.1539 7.25035 17.0773 7.25 17 7.25H7C6.92272 7.25 6.8461 7.25035 6.77017 7.25107ZM2.75 13C2.75 10.9946 3.01884 10.0418 3.53033 9.53033C4.04182 9.01884 4.99464 8.75 7 8.75H17C19.0054 8.75 19.9582 9.01884 20.4697 9.53033C20.9812 10.0418 21.25 10.9946 21.25 13V17C21.25 19.0054 20.9812 19.9582 20.4697 20.4697C19.9582 20.9812 19.0054 21.25 17 21.25H7C4.99464 21.25 4.04182 20.9812 3.53033 20.4697C3.01884 19.9582 2.75 19.0054 2.75 17V13Z" fill="#001F3E"/>
</svg>
