<svg width="24" height="24" viewBox="0 0 24 24" fill="none" xmlns="http://www.w3.org/2000/svg">
<path d="M15.7499 8C15.7499 7.58579 15.4141 7.25 14.9999 7.25C14.5857 7.25 14.2499 7.58579 14.2499 8V8.368C12.5359 7.2001 10.1806 7.3725 8.66266 8.89049C7.95979 9.59337 7.56041 10.4722 7.43122 11.3766C7.37264 11.7866 7.65756 12.1665 8.06761 12.2251C8.47766 12.2837 8.85756 11.9988 8.91614 11.5887C9.00316 10.9796 9.26789 10.4066 9.72332 9.95115C10.5681 9.10639 11.8105 8.89358 12.8586 9.31594C12.4817 9.35566 12.1881 9.67442 12.1881 10.0618C12.1881 10.476 12.5239 10.8118 12.9381 10.8118H14.8417C14.8499 10.8119 14.858 10.8119 14.8661 10.8118H14.9999C15.4141 10.8118 15.7499 10.476 15.7499 10.0618V8Z" fill="#001F3E"/>
<path d="M16.1128 12.6246C16.172 12.2146 15.8876 11.8343 15.4777 11.7751C15.0677 11.716 14.6874 12.0004 14.6282 12.4103C14.5411 13.0138 14.2756 13.5939 13.8216 14.0482C12.9698 14.8949 11.7263 15.1058 10.6822 14.6844C11.0607 14.6462 11.3561 14.3267 11.3561 13.9382C11.3561 13.524 11.0203 13.1882 10.6061 13.1882H8.54432C8.13011 13.1882 7.79432 13.524 7.79432 13.9382V16C7.79432 16.4142 8.13011 16.75 8.54432 16.75C8.95853 16.75 9.29432 16.4142 9.29432 16V15.6338C11.0041 16.801 13.3579 16.625 14.8801 15.111L14.8816 15.1096C15.5855 14.4057 15.9838 13.5189 16.1128 12.6246Z" fill="#001F3E"/>
<path fill-rule="evenodd" clip-rule="evenodd" d="M14.1531 1.68807C12.7215 1.10398 11.108 1.10398 9.67642 1.68807L4.10747 3.96762C3.55551 4.19047 3.09913 4.6134 2.78358 5.08279C2.46775 5.55261 2.24976 6.13327 2.24976 6.72247V11.1125C2.24976 16.3518 6.03663 21.2188 11.2 22.6454L11.2024 22.646C11.6616 22.7713 12.1579 22.7713 12.6171 22.646L12.6195 22.6454C17.7826 21.2189 21.5693 16.3514 21.5698 11.1125L21.5798 6.72418L21.5798 6.72247C21.5798 6.13058 21.3574 5.54938 21.0412 5.08136C20.7251 4.61344 20.2688 4.1909 19.723 3.96802L14.1531 1.68807ZM4.66988 5.35821L10.2431 3.07693C11.3112 2.64123 12.5183 2.64131 13.5864 3.07693L19.1565 5.35692C19.3703 5.44413 19.6096 5.64174 19.7983 5.92108C19.9869 6.20025 20.0796 6.49445 20.0798 6.72247L20.0698 11.1108L20.0698 11.1125C20.0698 15.6527 16.7573 19.9453 12.2215 21.1992C12.0212 21.2536 11.7983 21.2536 11.5981 21.1992C7.06218 19.9452 3.74976 15.6527 3.74976 11.1125V6.72247C3.74976 6.49166 3.84177 6.19732 4.02844 5.91965C4.21498 5.64216 4.45282 5.4456 4.66988 5.35821Z" fill="#001F3E"/>
</svg>
