<svg width="24" height="24" viewBox="0 0 24 24" fill="none" xmlns="http://www.w3.org/2000/svg">
<path d="M14.3522 19.4783C14.7959 19.4783 15.1555 19.838 15.1555 20.2817V21.3933H15.7031C16.1467 21.3935 16.5065 21.7531 16.5065 22.1967C16.5063 22.6401 16.1466 22.9999 15.7031 23H14.3522C13.9087 22.9999 13.549 22.6401 13.5489 22.1967V20.2817C13.5489 19.8381 13.9086 19.4785 14.3522 19.4783Z" fill="#0033C9"/>
<path d="M21.5524 20.0173C21.9961 20.0173 22.3558 20.377 22.3558 20.8206V22.1967C22.3555 22.6402 21.996 22.9992 21.5524 22.9992C21.1089 22.9991 20.7491 22.6395 20.7491 22.1959V21.624H20.2023C19.7586 21.624 19.399 21.2643 19.3989 20.8206C19.3989 20.377 19.7586 20.0173 20.2023 20.0173H21.5524Z" fill="#0033C9"/>
<path d="M18.1633 19.4783C18.607 19.4783 18.9667 19.838 18.9667 20.2817V22.1841C18.9665 22.6276 18.6069 22.9874 18.1633 22.9874C17.7199 22.9873 17.3602 22.6276 17.36 22.1841V20.2817C17.36 19.8381 17.7198 19.4785 18.1633 19.4783Z" fill="#0033C9"/>
<path d="M13.5896 4.21963C14.034 4.21982 14.3946 4.58011 14.3946 5.02453C14.3946 5.46896 14.034 5.82925 13.5896 5.82944H10.2084C9.76399 5.82931 9.40351 5.46899 9.40351 5.02453C9.40351 4.58008 9.76399 4.21976 10.2084 4.21963H13.5896Z" fill="#0033C9"/>
<path fill-rule="evenodd" clip-rule="evenodd" d="M16.0899 1C17.1056 1 18.1104 1.48486 18.6576 2.42702C19.3876 3.68388 20.3275 5.551 20.844 6.81243C20.8769 6.89287 20.896 6.97575 20.9021 7.05798C21.0166 7.37163 21.1144 7.67497 21.1908 7.95938C21.328 8.47039 21.4274 9.03301 21.3422 9.50801C21.2072 10.5699 20.6799 11.3697 19.9457 11.8968C19.2247 12.4145 18.3409 12.6456 17.4957 12.6751C16.6493 12.7046 15.7809 12.5346 15.0559 12.1824C14.7839 12.0502 14.5193 11.8852 14.2816 11.6866C13.9041 12.1119 13.4287 12.3991 12.9197 12.5723C12.8329 12.6321 12.7329 12.6755 12.6231 12.6978C12.3271 12.7579 12.0098 12.7878 11.6864 12.7818C11.3631 12.7878 11.0457 12.7579 10.7497 12.6978C10.64 12.6755 10.5399 12.6321 10.4532 12.5723C9.94421 12.3991 9.46951 12.1119 9.09206 11.6866C8.85431 11.8853 8.58901 12.0502 8.31696 12.1824C7.59202 12.5345 6.72423 12.7046 5.87792 12.6751C5.63616 12.6666 5.39089 12.6416 5.14754 12.5982C5.03871 14.0953 5.13574 15.4981 5.44173 16.5945C5.80107 17.8817 6.37757 18.5324 7.0233 18.7009C7.78006 18.8983 9.37374 19.3034 11.6849 19.3034C12.1283 19.3036 12.4881 19.6633 12.4882 20.1067C12.4882 20.5503 12.1284 20.9099 11.6849 20.9101C9.17626 20.9101 7.43141 20.4681 6.61771 20.2558C5.1383 19.8699 4.30867 18.512 3.8939 17.026C3.48921 15.5759 3.4107 13.7942 3.58637 12.0043C3.53267 11.9699 3.47919 11.9342 3.42711 11.8968C2.69299 11.3697 2.16641 10.5698 2.03147 9.50801C1.94625 9.03304 2.04486 8.47035 2.1821 7.95938C2.3314 7.40357 2.56419 6.77668 2.83952 6.13775C3.39067 4.85876 4.14401 3.46145 4.84708 2.36269C5.4218 1.46451 6.41547 1 7.41713 1H16.0899ZM7.41713 2.60981C6.89822 2.60981 6.44754 2.84774 6.20271 3.23036C5.5442 4.2595 4.83319 5.57997 4.31832 6.77477C4.06064 7.37273 3.85916 7.92195 3.73699 8.37674C3.60609 8.86407 3.59743 9.13259 3.61618 9.22637C3.62025 9.24677 3.6239 9.26769 3.62638 9.28834C3.70035 9.90387 3.98194 10.3131 4.36617 10.5891C4.76992 10.879 5.32423 11.0447 5.93362 11.066C6.54205 11.0873 7.14641 10.9614 7.61404 10.7342C8.0904 10.5027 8.33924 10.2134 8.41973 9.95596C8.52604 9.61579 8.8432 9.38593 9.19953 9.39111C9.55594 9.39644 9.86669 9.6355 9.96286 9.97871C10.1791 10.7511 10.86 11.1639 11.6864 11.179C12.5129 11.164 13.1945 10.7512 13.4108 9.97871C13.507 9.63559 13.817 9.39651 14.1733 9.39111C14.5298 9.38579 14.8476 9.61569 14.9539 9.95596C15.0345 10.2134 15.2831 10.5027 15.7596 10.7342C16.2272 10.9614 16.8309 11.0872 17.4392 11.066C18.0486 11.0448 18.6029 10.8789 19.0067 10.5891C19.391 10.3131 19.6733 9.90392 19.7473 9.28834C19.7497 9.26767 19.7534 9.24679 19.7575 9.22637C19.7762 9.13258 19.7668 8.8641 19.6359 8.37674C19.5137 7.92198 19.313 7.37267 19.0553 6.77477C18.5405 5.58001 17.8294 4.25949 17.1709 3.23036C16.9261 2.84776 16.4754 2.60984 15.9565 2.60981H7.41713Z" fill="#0033C9"/>
<path d="M21.576 17.8717C22.0196 17.8717 22.3793 18.2313 22.3793 18.675C22.3793 19.1187 22.0196 19.4783 21.576 19.4783H20.2258C19.7821 19.4783 19.4225 19.1187 19.4225 18.675C19.4225 18.2313 19.7821 17.8717 20.2258 17.8717H21.576Z" fill="#0033C9"/>
<path fill-rule="evenodd" clip-rule="evenodd" d="M15.7031 13.855C16.01 13.855 16.3033 13.88 16.5684 13.9083C17.3767 13.9946 18.0255 14.6418 18.1084 15.4538C18.1354 15.7177 18.1586 16.0075 18.1586 16.3105C18.1586 16.6134 18.1354 16.9033 18.1084 17.1672C18.0255 17.9791 17.3766 18.6264 16.5684 18.7127C16.3033 18.741 16.01 18.766 15.7031 18.766C15.3962 18.766 15.103 18.741 14.8378 18.7127C14.0297 18.6263 13.3808 17.9791 13.2978 17.1672C13.2709 16.9033 13.2476 16.6134 13.2476 16.3105C13.2476 16.0075 13.2709 15.7177 13.2978 15.4538C13.3807 14.6419 14.0297 13.9946 14.8378 13.9083C15.103 13.88 15.3962 13.855 15.7031 13.855ZM15.7031 15.4616C15.4802 15.4617 15.2526 15.4804 15.0088 15.5064C14.9843 15.509 14.9569 15.5206 14.9335 15.544C14.9102 15.5674 14.899 15.5937 14.8966 15.617C14.8719 15.8589 14.8543 16.0869 14.8543 16.3105C14.8543 16.5341 14.8719 16.7621 14.8966 17.004C14.8991 17.0273 14.9103 17.0537 14.9335 17.077C14.9569 17.1003 14.9843 17.112 15.0088 17.1146C15.2526 17.1406 15.4802 17.1593 15.7031 17.1593C15.9262 17.1593 16.1543 17.1406 16.3982 17.1146C16.4227 17.112 16.4502 17.1003 16.4735 17.077C16.4966 17.0537 16.508 17.0272 16.5104 17.004C16.5351 16.7621 16.552 16.5341 16.552 16.3105C16.552 16.0869 16.5351 15.8589 16.5104 15.617C16.508 15.5937 16.4966 15.5673 16.4735 15.544C16.4502 15.5207 16.4227 15.509 16.3982 15.5064C16.1543 15.4803 15.9262 15.4616 15.7031 15.4616Z" fill="#0033C9"/>
<path d="M21.5509 14.1311C21.7638 14.1311 21.9682 14.2159 22.1188 14.3665C22.2695 14.5171 22.3542 14.7214 22.3542 14.9345V16.3105C22.3541 16.7541 21.9945 17.1138 21.5509 17.1138C21.1074 17.1137 20.7476 16.754 20.7475 16.3105V15.7378H19.6743C19.2307 15.7377 18.871 15.378 18.871 14.9345C18.871 14.4909 19.2308 14.1312 19.6743 14.1311H21.5509Z" fill="#0033C9"/>
</svg>
