<svg width="24" height="24" viewBox="0 0 24 24" fill="none" xmlns="http://www.w3.org/2000/svg">
<path d="M7.32089 2.00417C7.71311 1.96192 8.06531 2.24562 8.10756 2.63784C8.14981 3.03006 7.86611 3.38227 7.47389 3.42452C6.94519 3.48147 6.4207 3.54228 5.89772 3.60291L5.78992 3.61541C4.64784 3.74778 3.73574 4.66084 3.6078 5.80038C3.54554 6.35497 3.48315 6.91165 3.42521 7.47281C3.38469 7.86521 3.03375 8.15047 2.64134 8.10996C2.24894 8.06944 1.96368 7.71849 2.0042 7.32609C2.06289 6.75765 2.12597 6.19485 2.18816 5.64099C2.39062 3.83758 3.8258 2.40492 5.62545 2.19634L5.73442 2.18371C6.25621 2.12321 6.78618 2.06177 7.32089 2.00417Z" fill="#0033C9"/>
<path d="M16.6913 2.00417C16.2991 1.96192 15.9469 2.24562 15.9046 2.63784C15.8624 3.03006 16.1461 3.38227 16.5383 3.42452C17.0669 3.48146 17.5913 3.54226 18.1142 3.60288L18.2223 3.61541C19.3644 3.74778 20.2765 4.66084 20.4044 5.80038C20.4667 6.35497 20.5291 6.91165 20.587 7.47281C20.6275 7.86521 20.9785 8.15047 21.3709 8.10996C21.7633 8.06944 22.0485 7.71849 22.008 7.32609C21.9493 6.75765 21.8862 6.19485 21.8241 5.64099C21.6216 3.83758 20.1864 2.40492 18.3868 2.19634L18.2778 2.18371C17.756 2.12321 17.226 2.06177 16.6913 2.00417Z" fill="#0033C9"/>
<path d="M15.9046 21.3622C15.9469 21.7544 16.2991 22.0381 16.6913 21.9958C17.2258 21.9383 17.7555 21.8768 18.2771 21.8164L18.3868 21.8037C20.1864 21.5951 21.6216 20.1624 21.8241 18.359C21.8862 17.8051 21.9493 17.2423 22.008 16.6739C22.0485 16.2815 21.7633 15.9306 21.3709 15.89C20.9785 15.8495 20.6275 16.1348 20.587 16.5272C20.5291 17.0883 20.4667 17.645 20.4044 18.1996C20.2765 19.3392 19.3644 20.2522 18.2223 20.3846L18.1145 20.3971L18.1137 20.3972C17.5911 20.4578 17.0666 20.5186 16.5383 20.5755C16.1461 20.6177 15.8624 20.9699 15.9046 21.3622Z" fill="#0033C9"/>
<path d="M8.10756 21.3622C8.06531 21.7544 7.71311 22.0381 7.32089 21.9958C6.78623 21.9382 6.25633 21.8768 5.73458 21.8163L5.62545 21.8037C3.8258 21.5951 2.39062 20.1624 2.18816 18.359C2.12597 17.8051 2.06289 17.2423 2.0042 16.6739C1.96368 16.2815 2.24894 15.9306 2.64134 15.89C3.03375 15.8495 3.38469 16.1348 3.42521 16.5272C3.48315 17.0883 3.54554 17.645 3.6078 18.1996C3.73574 19.3392 4.64784 20.2522 5.78992 20.3846L5.89772 20.3971L5.89847 20.3972C6.4212 20.4578 6.94545 20.5186 7.47389 20.5755C7.86611 20.6177 8.14981 20.9699 8.10756 21.3622Z" fill="#0033C9"/>
<path d="M7.23665 17.9524H4.85571V6.04767H7.23665V17.9524Z" fill="#0033C9"/>
<path d="M9.6176 17.9524H8.42713V6.04767H9.6176V17.9524Z" fill="#0033C9"/>
<path d="M13.189 17.9524H10.8081V6.04767H13.189V17.9524Z" fill="#0033C9"/>
<path d="M15.57 17.9524H14.3795V6.04767H15.57V17.9524Z" fill="#0033C9"/>
<path d="M19.1414 17.9524H16.7604V6.04767H19.1414V17.9524Z" fill="#0033C9"/>
</svg>
