<svg width="24" height="24" viewBox="0 0 24 24" fill="none" xmlns="http://www.w3.org/2000/svg">
<path fill-rule="evenodd" clip-rule="evenodd" d="M4.33203 11.3441C5.3273 11.2825 6.32606 11.3757 7.29297 11.6195L9.74219 12.2367C10.9647 12.545 11.8609 13.5899 11.9795 14.8451L12.1611 16.7689L12.793 16.8832L19.1621 15.3695C20.3664 15.0833 21.5882 15.7753 21.9619 16.9554C22.3337 18.1299 21.7407 19.3935 20.5996 19.8578L15.3545 21.9916C12.8635 23.005 10.0621 22.9352 7.625 21.7982L2.4834 19.3988C2.2195 19.2755 2.05078 19.0104 2.05078 18.7191V12.1908C2.05078 11.7946 2.35944 11.4663 2.75488 11.4418L4.33203 11.3441ZM6.92676 13.0736C6.10983 12.8676 5.2657 12.7891 4.4248 12.8412L3.55078 12.8959V18.2416L8.25977 20.4388C10.3186 21.3992 12.6847 21.4581 14.7891 20.6019L20.0342 18.4681C20.4508 18.2986 20.6669 17.8374 20.5312 17.4086C20.3948 16.9776 19.9486 16.7249 19.5088 16.8295L12.9873 18.3793C12.8868 18.4032 12.7823 18.4054 12.6807 18.3871L11.3506 18.1469C11.3395 18.1451 11.3283 18.1432 11.3174 18.141L7.50488 17.4525C7.09736 17.3788 6.82673 16.988 6.90039 16.5804C6.97412 16.1731 7.36409 15.9026 7.77148 15.976L10.6289 16.4926L10.4863 14.9867C10.4275 14.3636 9.98281 13.845 9.37598 13.6918L6.92676 13.0736Z" fill="#0033CC"/>
<path d="M13.9424 1.33142C15.1756 1.14927 16.4349 1.27407 17.6084 1.69471C18.782 2.1154 19.8342 2.81931 20.6709 3.74353C21.5075 4.66772 22.1031 5.78413 22.4053 6.99353C22.7075 8.20308 22.7069 9.4689 22.4033 10.6781C22.0997 11.8872 21.5027 13.0029 20.665 13.9262C20.3867 14.2329 19.9122 14.2553 19.6055 13.9769C19.2989 13.6987 19.2757 13.2251 19.5537 12.9183C20.2256 12.1778 20.7047 11.2827 20.9482 10.3129C21.1918 9.34289 21.1927 8.32707 20.9502 7.35682C20.7078 6.38678 20.2296 5.49165 19.5586 4.75037C18.8875 4.00908 18.0438 3.44428 17.1025 3.10682C16.1611 2.76936 15.1505 2.66961 14.1611 2.8158C13.172 2.96198 12.2342 3.34956 11.4307 3.94471C10.6271 4.53999 9.98181 5.32411 9.55371 6.22791C9.12562 7.13172 8.92709 8.12745 8.97559 9.12635C8.99568 9.54007 8.67642 9.89141 8.2627 9.9115C7.84931 9.93133 7.49785 9.61295 7.47754 9.19959C7.41707 7.95439 7.66463 6.713 8.19824 5.58631C8.7319 4.45963 9.53539 3.48174 10.5371 2.73963C11.5389 1.99749 12.709 1.51367 13.9424 1.33142Z" fill="#0033CC"/>
<path d="M13.5137 8.52478C13.9933 8.52478 14.3827 8.91336 14.3828 9.39295C14.3828 9.87266 13.9934 10.2621 13.5137 10.2621C13.034 10.262 12.6455 9.87262 12.6455 9.39295C12.6457 8.9134 13.0341 8.52484 13.5137 8.52478Z" fill="#0033CC"/>
<path d="M16.7715 8.52478C17.2509 8.52504 17.6395 8.91352 17.6396 9.39295C17.6396 9.8725 17.251 10.2618 16.7715 10.2621C16.2918 10.2621 15.9023 9.87266 15.9023 9.39295C15.9025 8.91336 16.2919 8.52478 16.7715 8.52478Z" fill="#0033CC"/>
<path fill-rule="evenodd" clip-rule="evenodd" d="M16.3877 6.22791C16.6796 5.90177 17.7353 4.96108 18.0635 5.19568C18.3885 5.4289 18.0693 6.97801 18.0635 7.00623C18.8572 7.59916 19.2856 8.5592 19.1934 9.54139C19.0271 10.9534 17.8178 12.0132 16.3877 12.0033H13.9453C12.5117 12.0552 11.2691 11.0246 11.0664 9.61365C10.9754 8.63164 11.4028 7.6724 12.1963 7.07947C12.1963 7.07947 11.9417 5.50517 12.1963 5.26892C12.4514 5.03358 13.8909 5.90196 14.1826 6.22791C14.794 6.12561 15.7921 6.07562 16.3877 6.22791ZM16.7715 7.87342C16.0057 7.87342 15.372 8.43952 15.2666 9.17615H15.0186C14.9132 8.43952 14.2794 7.87342 13.5137 7.87342C12.6743 7.87348 11.9943 8.55362 11.9941 9.39295C11.9941 10.2324 12.6742 10.9134 13.5137 10.9135C14.2022 10.9135 14.7838 10.4554 14.9707 9.82752H15.3135C15.5003 10.4554 16.0829 10.9135 16.7715 10.9135C17.6108 10.9132 18.291 10.2323 18.291 9.39295C18.2909 8.55374 17.6107 7.87367 16.7715 7.87342Z" fill="#0033CC"/>
</svg>
