<svg width="24" height="24" viewBox="0 0 24 24" fill="none" xmlns="http://www.w3.org/2000/svg">
<path d="M12.7883 8.98926C12.7561 8.94107 12.7238 8.89343 12.6897 8.84766L12.5842 8.71484C12.1761 8.222 11.6544 7.87072 11.1575 7.625L15.1038 7.29688L15.3801 6.68359L15.3245 6.67188C15.2651 6.65835 15.2056 6.64412 15.1467 6.62891C14.6618 6.50453 14.2177 6.32484 13.8284 6.0957C13.3914 5.83844 13.0443 5.53102 12.7971 5.18359L12.7717 5.14941L11.845 5.39941L11.8723 5.43945C11.9272 5.51904 11.9862 5.59703 12.0501 5.67285C12.3349 6.01587 12.7064 6.3231 13.1545 6.58691C13.2585 6.6481 13.3674 6.70687 13.4788 6.7627L9.53052 7.09082L9.25513 7.7041L9.31079 7.7168C9.36943 7.72998 9.42934 7.74392 9.48755 7.75879C9.97297 7.88346 10.4166 8.06288 10.8059 8.29199C11.2429 8.54924 11.5899 8.85604 11.8372 9.2041L11.8616 9.23926L12.7883 8.98926Z" fill="#0033C9"/>
<path d="M16.6458 16.668C16.7981 16.7278 17.0228 16.5989 17.1751 16.3633L17.9348 15.1836C18.1067 14.9169 18.1283 14.6078 17.9827 14.4941C17.8367 14.3812 17.5785 14.5061 17.4065 14.7725L17.3196 14.9072V12.8643L17.4065 12.8984C17.5784 12.9659 17.8367 12.793 17.9827 12.5117C18.1284 12.23 18.1064 11.9465 17.9348 11.8779L17.1751 11.5762C17.0583 11.53 16.9 11.5956 16.7639 11.7344L16.7063 11.7988L16.7014 11.8047L16.6506 11.875L16.6458 11.8818L15.886 13.0605C15.7141 13.3274 15.6921 13.6366 15.8381 13.75C15.9751 13.8556 16.2108 13.7519 16.3811 13.5195L16.3831 13.5166L16.4124 13.4756L16.4143 13.4707L16.5012 13.3359V15.3789L16.4143 15.3457C16.2424 15.2777 15.9842 15.45 15.8381 15.7314C15.6922 16.0134 15.7141 16.2979 15.886 16.3662L16.6458 16.668Z" fill="#0033C9"/>
<path d="M9.03931 16.7168C9.09319 16.706 9.13568 16.6723 9.16138 16.6201C9.18695 16.5678 9.19519 16.4978 9.18482 16.4199L9.05786 15.4639L9.67114 15.1729C9.71917 15.1508 9.7538 15.1065 9.77075 15.0459C9.78776 14.9849 9.78646 14.9094 9.76685 14.8281C9.74711 14.7467 9.70988 14.6618 9.65943 14.585C9.60947 14.509 9.54857 14.4429 9.48364 14.3945L8.66138 13.7764L8.30493 12.7451C8.30125 12.7344 8.29778 12.7226 8.29321 12.7119C8.26093 12.6368 8.21553 12.5644 8.16235 12.502C8.10903 12.4394 8.04909 12.3882 7.98853 12.3545C7.92814 12.3209 7.86874 12.3059 7.81665 12.3096C7.76446 12.3135 7.72007 12.3365 7.6897 12.377C7.68826 12.3789 7.68713 12.3817 7.68579 12.3838L7.29907 12.9736L6.47583 12.6182C6.41079 12.5899 6.34898 12.5842 6.2981 12.6006C6.24715 12.6171 6.20909 12.6555 6.18775 12.7119C6.16645 12.7684 6.16222 12.8405 6.177 12.9199C6.19187 12.9994 6.22519 13.0837 6.27173 13.1621L6.85669 14.1484L6.70728 14.9639C6.69548 15.0285 6.70277 15.1061 6.72681 15.1875C6.75093 15.2691 6.79121 15.3519 6.844 15.4258C6.89698 15.4998 6.96089 15.5627 7.02661 15.6064C7.09205 15.6499 7.15774 15.6734 7.21607 15.6738L7.93384 15.6758L8.66821 16.5254C8.72519 16.5926 8.78989 16.6468 8.85474 16.6807C8.92067 16.7149 8.98523 16.7275 9.03931 16.7168Z" fill="#0033C9"/>
<path fill-rule="evenodd" clip-rule="evenodd" d="M12.429 22C12.9476 22 13.419 21.8647 13.9241 21.6436C14.4156 21.4283 14.9842 21.1099 15.6858 20.7188L19.9622 18.335C20.3249 18.1327 20.6417 17.9569 20.8899 17.7842C21.1508 17.6026 21.3821 17.394 21.554 17.1016C21.7257 16.8092 21.7958 16.5056 21.8274 16.1895C21.8574 15.8885 21.8567 15.5249 21.8567 15.1094V8.89062C21.8567 8.47548 21.8574 8.11328 21.8274 7.8125C21.7958 7.49626 21.7257 7.19285 21.554 6.90039C21.3821 6.60782 21.1508 6.39847 20.8899 6.2168C20.6418 6.04409 20.3247 5.86824 19.9622 5.66602L15.6868 3.28223C14.985 2.89079 14.4167 2.57188 13.9251 2.35645C13.4198 2.13508 12.9479 2.00003 12.429 2C11.9099 2 11.4373 2.13501 10.9319 2.35645C10.4402 2.5719 9.87189 2.89084 9.17017 3.28223L4.89478 5.66602C4.53208 5.86831 4.21518 6.04403 3.96704 6.2168C3.7062 6.39843 3.47574 6.60792 3.30396 6.90039C3.13223 7.19285 3.06209 7.49625 3.03052 7.8125C3.00052 8.11328 3.00122 8.47548 3.00122 8.89062V15.1094C3.00122 15.5249 3.00048 15.8885 3.03052 16.1895C3.06213 16.5056 3.13221 16.8092 3.30396 17.1016C3.47581 17.394 3.70712 17.6026 3.96802 17.7842C4.21623 17.9569 4.53297 18.1327 4.89575 18.335L9.17114 20.7188C9.87278 21.1099 10.4413 21.4283 10.9329 21.6436C11.4381 21.8648 11.9101 22 12.429 22ZM5.35474 7.00488C5.42202 6.96709 5.4943 6.92546 5.57251 6.88184L9.8479 4.49609C10.5725 4.09193 11.0741 3.81332 11.4905 3.63086C11.8933 3.45436 12.1687 3.3916 12.429 3.3916C12.6891 3.39163 12.9638 3.45446 13.3665 3.63086C13.7829 3.81333 14.2851 4.09177 15.01 4.49609L19.2844 6.88184C19.3622 6.92521 19.4333 6.96729 19.5002 7.00488L12.428 10.8584L5.35474 7.00488ZM13.1243 12.0645L20.4182 8.08887C20.4295 8.0827 20.4406 8.07505 20.4514 8.06836C20.4639 8.26818 20.4651 8.52414 20.4651 8.89062V15.1094C20.4651 15.5522 20.4642 15.8347 20.4426 16.0508C20.4226 16.2508 20.3892 16.3377 20.3547 16.3965C20.3202 16.4553 20.2603 16.5275 20.095 16.6426C19.9168 16.7666 19.671 16.9046 19.2844 17.1201L15.009 19.5039C14.2844 19.9079 13.7828 20.1868 13.3665 20.3691C13.2802 20.4069 13.1999 20.4399 13.1243 20.4678V12.0645ZM11.4915 20.3691C11.0751 20.1868 10.5735 19.9079 9.84888 19.5039L5.57349 17.1201C5.18695 16.9046 4.94114 16.7666 4.76294 16.6426C4.59761 16.5275 4.53773 16.4552 4.50318 16.3965C4.46873 16.3377 4.43527 16.2508 4.41528 16.0508C4.39373 15.8347 4.39282 15.5523 4.39282 15.1094V8.89062C4.39283 8.52469 4.3941 8.26901 4.4065 8.06934C4.4171 8.07589 4.42765 8.08283 4.43872 8.08887L11.7327 12.0645V20.4668C11.6574 20.439 11.5772 20.4067 11.4915 20.3691Z" fill="#0033C9"/>
</svg>
