<svg width="24" height="24" viewBox="0 0 24 24" fill="none" xmlns="http://www.w3.org/2000/svg">
<path d="M18.2476 5.92871C18.9526 13.3543 18.9631 17.4162 18.9195 19.0469C18.9069 19.5186 18.9521 20.944 17.523 21.6689L16.8453 20.3311C17.3868 20.0562 17.4046 19.6 17.4205 19.0068C17.4622 17.4479 17.4538 13.4483 16.7535 6.07129L18.2476 5.92871Z" fill="#0033C9"/>
<path d="M5.06035 5.43406C11.9419 5.13079 14.7216 5.12007 19.1755 5.4061C20.1552 5.46911 21.0004 6.15684 21.2282 7.13213C22.2642 11.5688 22.5928 16.1224 22.6974 18.5677C22.759 20.0067 21.7491 21.2562 20.3055 21.4577C17.3714 21.8667 11.1973 22.4429 3.97147 21.4518C2.50681 21.2508 1.44433 19.981 1.47438 18.5147C1.58349 13.191 2.15844 9.65736 3.02457 6.95997C3.31617 6.0522 4.15309 5.47404 5.06035 5.43406ZM19.0783 6.90994C14.7008 6.62882 11.9813 6.63729 5.12657 6.93937C4.80303 6.95363 4.54441 7.15611 4.45926 7.42128C3.65233 9.93442 3.08771 13.3115 2.98043 18.5456C2.96581 19.259 3.48087 19.8634 4.176 19.959C11.2204 20.9252 17.2471 20.3622 20.0973 19.9648C20.7549 19.8731 21.2211 19.313 21.1921 18.6324C21.0891 16.2258 20.7662 11.7783 19.7611 7.47425C19.6888 7.16498 19.4151 6.93157 19.0783 6.90994Z" fill="#0033C9"/>
<path d="M8.93622 5.48652C8.93622 3.84104 10.2698 2.5069 11.9152 2.50679C13.5608 2.50679 14.8949 3.84097 14.8949 5.48652C14.8951 5.90251 15.2323 6.23991 15.6483 6.23991C16.0644 6.23991 16.4016 5.90251 16.4017 5.48652C16.4017 3.0088 14.3929 1 11.9152 1C9.43759 1.00011 7.42943 3.00887 7.42943 5.48652C7.42954 5.90251 7.76681 6.23991 8.18282 6.23991C8.5987 6.23974 8.93611 5.9024 8.93622 5.48652Z" fill="#0033CC"/>
<path d="M8.1028 9.25149C8.49708 9.11857 8.92413 9.33029 9.05705 9.72457L9.60885 11.3601C9.74157 11.7542 9.52976 12.1813 9.13578 12.3144C8.74149 12.4473 8.31372 12.2356 8.18079 11.8413L7.62972 10.2057C7.49681 9.81146 7.70852 9.38441 8.1028 9.25149Z" fill="#0033CC"/>
<path d="M10.8577 9.25149C11.252 9.11857 11.679 9.33029 11.8119 9.72457L12.3637 11.3601C12.4965 11.7542 12.2846 12.1813 11.8907 12.3144C11.4964 12.4473 11.0686 12.2356 10.9357 11.8413L10.3846 10.2057C10.2517 9.81146 10.4634 9.38441 10.8577 9.25149Z" fill="#0033CC"/>
<path d="M13.3514 13.4963C13.6596 13.2171 14.1359 13.2405 14.4153 13.5485C14.6947 13.8568 14.6713 14.3337 14.363 14.6131C12.8659 15.9699 11.0471 16.397 9.49981 16.2715C8.72759 16.2088 8.00459 16.0077 7.40664 15.6991C6.81868 15.3956 6.29515 14.9577 6.01389 14.3887C5.82957 14.0158 5.98239 13.5637 6.35527 13.3793C6.72823 13.195 7.18029 13.3478 7.3647 13.7207C7.45675 13.9069 7.68511 14.1472 8.09749 14.36C8.49992 14.5678 9.02646 14.7215 9.62194 14.7698C10.8101 14.8662 12.202 14.538 13.3514 13.4963Z" fill="#0033CC"/>
<path d="M13.2777 12.425C13.4252 12.036 13.8598 11.8405 14.2489 11.988C14.6378 12.1355 14.834 12.5702 14.6866 12.9592C14.5963 13.1973 14.5717 13.5284 14.694 13.7795C14.7886 13.9737 15.0614 14.3039 15.9859 14.3953C16.4 14.4363 16.7023 14.8053 16.6613 15.2194C16.6204 15.6334 16.2514 15.9357 15.8373 15.8948C14.5567 15.7681 13.7266 15.2356 13.3387 14.4395C12.9787 13.7003 13.0923 12.9138 13.2777 12.425Z" fill="#0033CC"/>
</svg>
