<svg width="24" height="24" viewBox="0 0 24 24" fill="none" xmlns="http://www.w3.org/2000/svg">
<path d="M10 17.75H14C14.4142 17.75 14.75 18.0858 14.75 18.5C14.75 18.9142 14.4142 19.25 14 19.25H10C9.58579 19.25 9.25 18.9142 9.25 18.5C9.25 18.0858 9.58579 17.75 10 17.75Z" fill="#0033C9"/>
<path d="M10.1185 8.23198C10.7769 7.97878 11.4844 7.8478 12.2002 7.8478C12.9161 7.8478 13.6236 7.97878 14.2819 8.23198C14.9402 8.48515 15.5343 8.85475 16.0319 9.31684C16.375 9.63546 16.9114 9.61563 17.2301 9.27253C17.5487 8.92944 17.5289 8.393 17.1858 8.07438C16.5257 7.46135 15.7453 6.97809 14.8906 6.64939C14.036 6.3207 13.122 6.15219 12.2002 6.15219C11.2785 6.15219 10.3644 6.3207 9.50986 6.64939C8.65522 6.97809 7.87483 7.46135 7.21473 8.07438C6.87163 8.393 6.8518 8.92944 7.17043 9.27253C7.48905 9.61563 8.02549 9.63546 8.36858 9.31684C8.86615 8.85475 9.4603 8.48515 10.1185 8.23198Z" fill="#0033C9"/>
<path d="M12.1396 10.8698C11.7339 10.8698 11.3323 10.9499 10.9578 11.1057C10.5833 11.2615 10.2433 11.4897 9.95734 11.7774C9.62721 12.1094 9.09041 12.111 8.75836 11.7809C8.42631 11.4507 8.42475 10.9139 8.75488 10.5819C9.19843 10.1358 9.7258 9.78171 10.3067 9.54012C10.8875 9.29852 11.5104 9.17415 12.1396 9.17415C12.7687 9.17415 13.3916 9.29852 13.9724 9.54012C14.5533 9.78171 15.0807 10.1358 15.5242 10.5819C15.8544 10.9139 15.8528 11.4507 15.5207 11.7809C15.1887 12.111 14.6519 12.1094 14.3218 11.7774C14.0358 11.4897 13.6958 11.2615 13.3213 11.1057C12.9468 10.9499 12.5452 10.8698 12.1396 10.8698Z" fill="#0033C9"/>
<path d="M10.9931 12.7352C11.0887 12.6764 11.1888 12.6249 11.2926 12.5811C11.5658 12.4658 11.8593 12.4064 12.1559 12.4064C12.4524 12.4064 12.746 12.4658 13.0192 12.5811C13.123 12.6249 13.2231 12.6764 13.3187 12.7352C13.5811 12.8965 13.5828 13.255 13.3738 13.4813L12.5814 14.3391C12.3521 14.5873 11.9597 14.5873 11.7304 14.3391L10.938 13.4813C10.7289 13.255 10.7306 12.8965 10.9931 12.7352Z" fill="#0033C9"/>
<path fill-rule="evenodd" clip-rule="evenodd" d="M5.51828 2.65893C6.35813 1.77327 7.5603 1.25 9 1.25H15C16.4397 1.25 17.6419 1.77327 18.4817 2.65893C19.3157 3.53846 19.75 4.72998 19.75 6V18C19.75 19.27 19.3157 20.4615 18.4817 21.3411C17.6419 22.2267 16.4397 22.75 15 22.75H9C7.5603 22.75 6.35813 22.2267 5.51828 21.3411C4.68425 20.4615 4.25 19.27 4.25 18V6C4.25 4.72998 4.68425 3.53846 5.51828 2.65893ZM6.60672 3.69107C6.06575 4.26154 5.75 5.07002 5.75 6V18C5.75 18.93 6.06575 19.7385 6.60672 20.3089C7.14187 20.8733 7.9397 21.25 9 21.25H15C16.0603 21.25 16.8581 20.8733 17.3933 20.3089C17.9343 19.7385 18.25 18.93 18.25 18V6C18.25 5.07002 17.9343 4.26154 17.3933 3.69107C16.8581 3.12672 16.0603 2.75 15 2.75H9C7.9397 2.75 7.14187 3.12672 6.60672 3.69107Z" fill="#0033C9"/>
</svg>
