<svg width="24" height="24" viewBox="0 0 24 24" fill="none" xmlns="http://www.w3.org/2000/svg">
<path fill-rule="evenodd" clip-rule="evenodd" d="M15.5137 2.97183V5.74843C15.5137 7.5435 17.8531 9.09484 19.0054 9.42913C20.1578 9.09484 22.4276 7.5435 22.4276 5.74843V2.99262C22.4276 2.69306 22.214 2.4405 21.9306 2.3434C21.0706 2.04872 20.4486 1.71819 19.6999 1.32032C19.5445 1.23779 19.3834 1.15215 19.2139 1.06354C19.0606 0.98338 18.8787 0.978571 18.7221 1.05193C18.3734 1.21514 18.0629 1.37169 17.7634 1.52269C17.1934 1.81002 16.6633 2.07727 15.9865 2.33205C15.7148 2.43435 15.5137 2.6815 15.5137 2.97183ZM17.0137 3.53622V5.74843C17.0137 6.00532 17.2116 6.46595 17.8292 7.02011C18.2244 7.37469 18.6601 7.64691 19.0028 7.81623C19.334 7.64947 19.753 7.38203 20.1336 7.03222C20.7273 6.48648 20.9276 6.02258 20.9276 5.74843V3.5721C20.1919 3.28187 19.5872 2.96003 18.9712 2.63213L18.9369 2.61389C18.8048 2.67928 18.6709 2.74656 18.5349 2.81495C18.0618 3.05279 17.5612 3.30443 17.0137 3.53622Z" fill="#0033CC"/>
<path d="M9.34961 10.0575C9.34961 9.64325 9.01382 9.30746 8.59961 9.30746C8.1854 9.30746 7.84961 9.64325 7.84961 10.0575V11.9431C7.84961 12.3573 8.1854 12.6931 8.59961 12.6931C9.01382 12.6931 9.34961 12.3573 9.34961 11.9431V10.0575Z" fill="#0033CC"/>
<path fill-rule="evenodd" clip-rule="evenodd" d="M6.18568 6.59736C4.20859 7.43346 2.82129 9.39108 2.82129 11.6727V17.2407C2.82129 18.5476 3.8807 19.607 5.18754 19.607H5.99001C6.00322 19.8982 6.02022 20.184 6.03807 20.4629C6.10721 21.5432 6.91157 22.5465 8.06396 22.7004C8.28253 22.7296 8.51482 22.7501 8.75663 22.7501C8.99845 22.7501 9.23073 22.7296 9.44931 22.7004C10.6017 22.5465 11.4061 21.5432 11.4752 20.4629C11.4931 20.184 11.51 19.8982 11.5233 19.607H12.0117C13.3186 19.607 14.378 18.5476 14.378 17.2407V11.6727C14.378 9.39134 12.991 7.43392 11.0143 6.59765C11.45 6.1191 11.7454 5.5105 11.8354 4.8369H14C14.4142 4.8369 14.75 4.50111 14.75 4.0869C14.75 3.67269 14.4142 3.3369 14 3.3369H11.687C11.2459 2.05643 10.0304 1.13649 8.60011 1.13649C7.16981 1.13649 5.95437 2.05643 5.5132 3.3369H2C1.58579 3.3369 1.25 3.67269 1.25 4.0869C1.25 4.50111 1.58579 4.8369 2 4.8369H5.36483C5.45478 5.51036 5.75007 6.11886 6.18568 6.59736ZM8.57367 6.16464C7.61154 6.15051 6.83594 5.36616 6.83594 4.40066C6.83594 3.42634 7.62578 2.63649 8.60011 2.63649C9.57444 2.63649 10.3643 3.42634 10.3643 4.40066C10.3643 5.36616 9.58868 6.15051 8.62655 6.16464H8.57367ZM8.56414 7.66464H8.32936C6.11577 7.66464 4.32129 9.45912 4.32129 11.6727V17.2407C4.32129 17.7191 4.70912 18.107 5.18754 18.107H5.96865C5.97953 17.5971 6.00754 17.1002 6.03807 16.6232C6.10721 15.5429 6.91157 14.5397 8.06396 14.3857C8.28253 14.3565 8.51482 14.3361 8.75663 14.3361C8.99845 14.3361 9.23073 14.3565 9.44931 14.3857C10.6017 14.5397 11.4061 15.5429 11.4752 16.6232C11.5057 17.1002 11.5337 17.5971 11.5446 18.107H12.0117C12.4901 18.107 12.878 17.7191 12.878 17.2407V11.6727C12.878 9.45912 11.0835 7.66464 8.86991 7.66464H8.63608C8.6241 7.66477 8.61212 7.66484 8.60011 7.66484C8.58811 7.66484 8.57612 7.66477 8.56414 7.66464ZM8.26258 15.8725C8.43488 15.8495 8.59843 15.8361 8.75663 15.8361C8.91484 15.8361 9.07838 15.8495 9.25068 15.8725C9.61603 15.9213 9.9496 16.2712 9.97826 16.719C10.017 17.3239 10.0494 17.9298 10.0494 18.5431C10.0494 19.1563 10.017 19.7623 9.97826 20.3671C9.9496 20.8149 9.61603 21.1648 9.25068 21.2136C9.07838 21.2366 8.91484 21.2501 8.75663 21.2501C8.59843 21.2501 8.43488 21.2366 8.26259 21.2136C7.89723 21.1648 7.56367 20.8149 7.53501 20.3671C7.49629 19.7623 7.46387 19.1563 7.46387 18.5431C7.46387 17.9298 7.49629 17.3239 7.53501 16.719C7.56367 16.2712 7.89723 15.9213 8.26258 15.8725Z" fill="#0033CC"/>
</svg>
