<svg width="24" height="24" viewBox="0 0 24 24" fill="none" xmlns="http://www.w3.org/2000/svg">
<path d="M4.75242 14.6651C5.12117 14.8538 5.26716 15.3057 5.0785 15.6744L3.05306 19.6332C2.67502 20.3721 3.21165 21.2495 4.04165 21.2495H19.9583C20.7883 21.2495 21.325 20.3721 20.9469 19.6332L18.9215 15.6744C18.7328 15.3057 18.8788 14.8538 19.2476 14.6651C19.6163 14.4764 20.0682 14.6224 20.2569 14.9912L22.2823 18.95C23.171 20.687 21.9095 22.7495 19.9583 22.7495H4.04165C2.09051 22.7495 0.828989 20.687 1.71769 18.95L3.74313 14.9912C3.93179 14.6224 4.38367 14.4764 4.75242 14.6651Z" fill="#0033C9"/>
<path d="M11.9998 9.27127C12.9032 9.27127 13.6355 8.53896 13.6355 7.63561C13.6355 6.73226 12.9032 5.99995 11.9998 5.99995C11.0965 5.99995 10.3642 6.73226 10.3642 7.63561C10.3642 8.53896 11.0965 9.27127 11.9998 9.27127Z" fill="#0033C9"/>
<path fill-rule="evenodd" clip-rule="evenodd" d="M12.4334 17.8363L12.4363 17.8346L12.4414 17.8314L12.4581 17.8212C12.4721 17.8125 12.4917 17.8003 12.5165 17.7846C12.566 17.7531 12.6365 17.7075 12.725 17.648C12.9017 17.5291 13.1507 17.3545 13.4477 17.1266C14.0407 16.6718 14.8315 16.0002 15.624 15.1309C17.2002 13.402 18.843 10.823 18.843 7.56947C18.843 5.98725 18.1331 4.12173 16.8143 2.97456C15.5342 1.86114 13.8179 1.25 12.0465 1.25C10.2751 1.25 8.55882 1.86114 7.27877 2.97456C5.95991 4.12173 5.25 5.98725 5.25 7.56947C5.25 10.823 6.89281 13.402 8.46901 15.1309C9.2615 16.0002 10.0523 16.6718 10.6453 17.1266C10.9424 17.3545 11.1913 17.5291 11.3681 17.648C11.4565 17.7075 11.527 17.7531 11.5765 17.7846C11.6013 17.8003 11.6209 17.8125 11.6349 17.8212L11.6516 17.8314L11.6567 17.8346L11.6597 17.8363C11.8977 17.9796 12.1954 17.9796 12.4334 17.8363ZM11.5582 15.9364C11.746 16.0805 11.9114 16.2001 12.0465 16.2945C12.1816 16.2001 12.347 16.0805 12.5348 15.9364C13.0755 15.5217 13.7964 14.9092 14.5155 14.1204C15.9626 12.5331 17.343 10.3 17.343 7.56947C17.343 6.36193 16.7789 4.93181 15.8298 4.10633C14.842 3.24709 13.4824 2.75 12.0465 2.75C10.6106 2.75 9.25103 3.24709 8.2632 4.10633C7.31417 4.93181 6.75 6.36193 6.75 7.56947C6.75 10.3 8.13045 12.5331 9.5775 14.1204C10.2966 14.9092 11.0175 15.5217 11.5582 15.9364Z" fill="#0033C9"/>
</svg>
