<svg width="24" height="24" viewBox="0 0 24 24" fill="none" xmlns="http://www.w3.org/2000/svg">
<path d="M16.9502 13.5918C19.7093 13.5918 21.9529 15.815 21.9531 18.5664C21.9531 21.318 19.7094 23.5419 16.9502 23.542C14.1909 23.542 11.9463 21.3181 11.9463 18.5664C11.9465 15.8149 14.191 13.5918 16.9502 13.5918ZM16.9502 14.8926C14.9018 14.8926 13.2483 16.5417 13.248 18.5664C13.248 20.5912 14.9017 22.2402 16.9502 22.2402C18.9986 22.2402 20.6523 20.5912 20.6523 18.5664C20.6521 16.5418 18.9985 14.8926 16.9502 14.8926ZM10.6182 1C12.3302 1 13.7041 0.99848 14.7803 1.15527C15.8868 1.31656 16.7972 1.65952 17.5107 2.43262C18.2267 3.20848 18.5252 4.24933 18.667 5.46191C18.8087 6.67435 18.8066 8.20907 18.8066 10.0723V11.8467C18.8066 12.2989 18.4404 12.6659 17.9883 12.666C17.5361 12.6659 17.1689 12.2989 17.1689 11.8467V10.0723C17.1689 9.88208 17.1681 9.69638 17.168 9.51563H4.06836C4.06821 9.69638 4.06738 9.88208 4.06738 10.0723V11.8467C4.06738 13.7447 4.06875 15.3134 4.19824 16.5537C4.33111 17.8259 4.58454 18.5536 4.92969 18.9277C5.32161 19.3525 5.74422 19.5753 6.50195 19.6982C7.32177 19.8312 8.44197 19.834 10.209 19.834C10.6611 19.834 11.0271 20.2003 11.0273 20.6523C11.0273 21.1046 10.6612 21.4716 10.209 21.4717C8.50234 21.4717 7.22151 21.4738 6.23926 21.3145C5.19499 21.145 4.41287 20.7839 3.72559 20.0391C2.99166 19.2437 2.70532 18.0352 2.56836 16.7236C2.42805 15.3796 2.42969 13.7136 2.42969 11.8467V10.0723C2.42969 8.20904 2.4286 6.67435 2.57031 5.46191C2.71209 4.24933 3.00969 3.20848 3.72559 2.43262C4.43921 1.65925 5.35031 1.31657 6.45703 1.15527C7.53307 0.99851 8.90638 1 10.6182 1ZM17.0996 15.418C17.3871 15.418 17.6208 15.6511 17.6211 15.9385V16.1064C17.8069 16.1609 17.9651 16.2409 18.0908 16.3203C18.2177 16.4005 18.3164 16.4836 18.3848 16.5479C18.4191 16.5802 18.4467 16.609 18.4668 16.6309C18.4767 16.6416 18.4848 16.6508 18.4912 16.6582L18.5 16.668L18.5039 16.6738L18.5049 16.6748C18.5036 16.6762 18.4808 16.6962 18.1074 17.002L18.5059 16.6758C18.6877 16.8982 18.6557 17.226 18.4336 17.4082C18.2127 17.5891 17.8871 17.5579 17.7041 17.3398L17.6709 17.3066C17.6408 17.2783 17.5941 17.2391 17.5342 17.2012C17.4135 17.1249 17.2558 17.0642 17.0664 17.082C16.8428 17.1031 16.7179 17.1823 16.6504 17.2549C16.5802 17.3305 16.5441 17.4281 16.5439 17.5303C16.5439 17.626 16.5622 17.6676 16.5693 17.6807C16.5758 17.6924 16.5882 17.7078 16.623 17.7295C16.7221 17.791 16.8786 17.8291 17.167 17.8877C17.1765 17.8896 17.1864 17.8916 17.1963 17.8936C17.4315 17.9411 17.7787 18.011 18.0596 18.1914C18.2195 18.2942 18.3684 18.4376 18.4736 18.6357C18.5778 18.8321 18.6239 19.0536 18.624 19.29C18.624 19.6462 18.4469 19.9385 18.2285 20.1406C18.0577 20.2987 17.8465 20.4167 17.6211 20.4951V20.7002C17.6211 20.9878 17.3872 21.2207 17.0996 21.2207C16.8123 21.2204 16.5791 20.9876 16.5791 20.7002V20.5762C16.2123 20.51 15.8441 20.3399 15.5332 20.0293C15.3298 19.826 15.3299 19.4954 15.5332 19.292C15.7365 19.0887 16.0661 19.0887 16.2695 19.292C16.5303 19.5527 16.8849 19.6121 17.1885 19.5391C17.3404 19.5024 17.455 19.4375 17.5215 19.376C17.5532 19.3465 17.569 19.322 17.5762 19.3076C17.5794 19.3011 17.5805 19.2962 17.5811 19.2939C17.5815 19.292 17.582 19.2905 17.582 19.29C17.582 19.1886 17.5631 19.1418 17.5537 19.124C17.5452 19.1081 17.5314 19.0905 17.4971 19.0684C17.4001 19.0061 17.2446 18.966 16.96 18.9082C16.9472 18.9056 16.9335 18.9031 16.9199 18.9004C16.6882 18.8538 16.3478 18.7857 16.0732 18.6152C15.9136 18.5161 15.7625 18.3759 15.6553 18.1797C15.5488 17.9848 15.502 17.7646 15.502 17.5303C15.5021 16.909 15.8917 16.3352 16.5791 16.123V15.9385C16.5794 15.6513 16.8124 15.4183 17.0996 15.418ZM7.04492 16.5C7.45907 16.5 7.7947 16.8359 7.79492 17.25C7.79485 17.6642 7.45916 18 7.04492 18H6.29492C5.88087 17.9998 5.54499 17.6641 5.54492 17.25C5.54514 16.836 5.88096 16.5002 6.29492 16.5H7.04492ZM10.7959 16.5C11.21 16.5 11.5457 16.8359 11.5459 17.25C11.5458 17.6642 11.2101 18 10.7959 18H10.0459C9.63178 17.9999 9.29597 17.6641 9.2959 17.25C9.29612 16.836 9.63188 16.5001 10.0459 16.5H10.7959ZM7.04492 13.499C7.45896 13.499 7.79452 13.8351 7.79492 14.249C7.79492 14.6633 7.45921 14.999 7.04492 14.999H6.29492C5.88082 14.9988 5.54492 14.6632 5.54492 14.249C5.54533 13.8352 5.88107 13.4992 6.29492 13.499H7.04492ZM10.7959 13.499C11.2099 13.4991 11.5455 13.8351 11.5459 14.249C11.5459 14.6633 11.2101 14.999 10.7959 14.999H10.0459C9.63174 14.9989 9.2959 14.6632 9.2959 14.249C9.2963 13.8352 9.63199 13.4992 10.0459 13.499H10.7959ZM7.12207 10.5029C7.50007 10.5414 7.79471 10.8609 7.79492 11.249C7.79483 11.6632 7.45915 11.999 7.04492 11.999H6.29492C5.88088 11.9988 5.54502 11.6631 5.54492 11.249C5.54515 10.8351 5.88096 10.4992 6.29492 10.499H7.04492L7.12207 10.5029ZM10.7959 10.499C11.2101 10.4991 11.5458 10.8349 11.5459 11.249C11.5458 11.6632 11.2101 11.999 10.7959 11.999H10.0459C9.6318 11.9989 9.29599 11.6631 9.2959 11.249C9.29602 10.8349 9.63182 10.4992 10.0459 10.499H10.7959ZM14.5469 10.499C14.9609 10.4992 15.2968 10.835 15.2969 11.249C15.2968 11.6631 14.9609 11.9988 14.5469 11.999H13.7959C13.382 11.9986 13.046 11.663 13.0459 11.249C13.046 10.8351 13.382 10.4994 13.7959 10.499H14.5469ZM10.6182 2.6377C8.85643 2.6377 7.62401 2.63983 6.69336 2.77539C5.7935 2.90653 5.29524 3.14778 4.92969 3.54395C4.56653 3.93761 4.32533 4.55659 4.19727 5.65137C4.12411 6.27716 4.09389 7.0104 4.08008 7.87793H17.1563C17.1424 7.01041 17.1132 6.27716 17.04 5.65137C16.912 4.55672 16.6707 3.93762 16.3076 3.54395C15.9421 3.1478 15.4438 2.90652 14.5439 2.77539C13.6132 2.63978 12.3803 2.6377 10.6182 2.6377ZM6.52246 3.67383C6.89566 3.6741 7.198 3.97641 7.19824 4.34961V6.37891C7.19822 6.7523 6.8958 7.05539 6.52246 7.05566C6.1489 7.05566 5.84573 6.75247 5.8457 6.37891V4.34961C5.84595 3.97624 6.14904 3.67383 6.52246 3.67383Z" fill="#0033C9"/>
</svg>
