<svg width="24" height="24" viewBox="0 0 24 24" fill="none" xmlns="http://www.w3.org/2000/svg">
<path fill-rule="evenodd" clip-rule="evenodd" d="M14.5836 1C16.7615 1 18.2953 2.77738 18.0318 4.92383C17.9788 5.35435 17.5838 5.70393 17.15 5.7041C16.7165 5.70372 16.407 5.3542 16.4596 4.92383C16.6191 3.62393 15.6865 2.55976 14.3922 2.55957H6.9879C5.68596 2.55957 4.50143 3.60726 4.34239 4.89941L2.59923 19.0938C2.44079 20.3859 3.36769 21.4344 4.66954 21.4346H9.98009C10.0111 21.4308 10.0428 21.4277 10.0748 21.4277H12.2369C13.4738 21.3454 14.5671 20.3322 14.7193 19.0938L15.3981 13.5684C15.4513 13.1381 15.8463 12.7884 16.2799 12.7881C16.7137 12.7881 17.0228 13.1379 16.9703 13.5684L16.7711 15.1836C16.8061 15.1957 16.8408 15.2101 16.8746 15.2275L18.9205 16.2793C19.6884 16.6742 20.1804 17.458 20.2008 18.3213L20.2535 20.5869C20.2846 21.9103 19.2199 23 17.8961 23H10.0748C10.0428 23 10.0111 22.9979 9.98009 22.9941H4.47911C2.30895 22.9941 0.762713 21.2477 1.02696 19.0938L2.77013 4.89941C3.03491 2.74579 5.00848 1.00032 7.17833 1H14.5836ZM16.2916 19.0938C16.1841 19.9689 15.7945 20.777 15.2242 21.4277H17.8961C18.3373 21.4277 18.6924 21.0651 18.6822 20.624L18.6285 18.3584C18.6217 18.0708 18.4585 17.8094 18.2027 17.6777L16.568 16.8379L16.2916 19.0938Z" fill="#0033C9"/>
<path d="M6.44982 10.6123C6.88351 10.6126 7.18578 10.9611 7.1256 11.3906L6.94005 12.7139H8.27599C8.70978 12.7141 9.01299 13.0626 8.95274 13.4922C8.8923 13.9218 8.49112 14.2703 8.05724 14.2705H6.64317C5.81846 14.2705 5.24226 13.6077 5.35704 12.791L5.55431 11.3906C5.61489 10.961 6.01587 10.6123 6.44982 10.6123Z" fill="#0033C9"/>
<path d="M13.5231 10.6123C13.9568 10.6125 14.259 10.9611 14.1988 11.3906L14.0026 12.791C13.8878 13.6076 13.1259 14.2703 12.3014 14.2705H10.8863C10.4526 14.2702 10.1493 13.9218 10.2096 13.4922C10.2701 13.0626 10.6713 12.7141 11.1051 12.7139H12.442L12.6276 11.3906C12.6881 10.961 13.0891 10.6123 13.5231 10.6123Z" fill="#0033C9"/>
<path d="M20.7233 5.82422C20.9897 5.64099 21.3464 5.6796 21.526 5.92676C23.1038 8.0983 22.911 10.9261 21.0602 13.1387L20.8766 13.3516C20.6538 13.5984 20.2896 13.638 20.0553 13.4551C19.8094 13.2625 19.785 12.886 20.0201 12.625C21.6588 10.8076 21.8632 8.4698 20.5426 6.65234C20.3534 6.39131 20.444 6.01666 20.7233 5.82422Z" fill="#0033C9"/>
<path d="M19.1149 6.74023C19.3639 6.62852 19.6569 6.68523 19.8141 6.90137C21.0141 8.55357 20.8239 10.7287 19.3346 12.3809C19.1119 12.6274 18.7486 12.6666 18.5143 12.4844C18.2685 12.2919 18.2433 11.9153 18.4781 11.6543C19.5849 10.4265 19.7232 8.85587 18.8317 7.62793C18.6419 7.36683 18.7327 6.99039 19.0123 6.79785L19.1149 6.74023Z" fill="#0033C9"/>
<path d="M17.0221 7.56152C17.2959 7.39402 17.6494 7.45039 17.8141 7.71094C18.5833 8.92877 18.4206 10.4703 17.3922 11.666C17.1746 11.9183 16.8116 11.9645 16.5729 11.7881C16.3227 11.6029 16.2867 11.2291 16.5162 10.9619C17.1992 10.1676 17.2992 9.18353 16.7926 8.38184C16.6192 8.10702 16.7361 7.73714 17.0221 7.56152Z" fill="#0033C9"/>
<path d="M9.26036 5.70898C9.69417 5.70909 9.99726 6.05773 9.93712 6.4873C9.87672 6.91708 9.4756 7.26552 9.04161 7.26562H7.70567L7.51915 8.58887C7.45869 9.01851 7.05849 9.36699 6.62462 9.36719C6.19064 9.36716 5.88755 9.01861 5.94786 8.58887L6.14513 7.18848C6.25992 6.37208 7.02093 5.70938 7.84532 5.70898H9.26036Z" fill="#0033C9"/>
<path d="M13.5035 5.70898C14.3282 5.70898 14.9053 6.37185 14.7906 7.18848L14.5934 8.58887C14.5329 9.01851 14.1317 9.36699 13.6979 9.36719C13.264 9.36707 12.9608 9.01856 13.0211 8.58887L13.2067 7.26562H11.8707C11.4369 7.26541 11.1345 6.917 11.1949 6.4873C11.2556 6.05785 11.6557 5.70922 12.0895 5.70898H13.5035Z" fill="#0033C9"/>
</svg>
