<svg width="24" height="24" viewBox="0 0 24 24" fill="none" xmlns="http://www.w3.org/2000/svg">
<path d="M2.67102 8.35932C2.53844 8.75174 2.74908 9.17734 3.1415 9.30993C3.53392 9.44251 3.95952 9.23187 4.09211 8.83945C5.25315 5.40298 8.58728 3.01097 12.3874 3.20213C16.1454 3.39118 19.1954 6.04781 20.0468 9.52433L19.3988 9.60532C19.0978 9.64294 18.8491 9.85819 18.7687 10.1507C18.6882 10.4432 18.7919 10.7553 19.0314 10.9415L20.4626 12.0547C20.7896 12.309 21.2608 12.2501 21.5151 11.9232L22.6283 10.4919C22.8145 10.2525 22.8382 9.92444 22.6882 9.66075C22.5383 9.39705 22.2443 9.24965 21.9432 9.28727L21.5437 9.33721C20.5974 5.14968 16.9604 1.93028 12.4627 1.70403C7.9747 1.47826 4.04125 4.30372 2.67102 8.35932Z" fill="#0033CC"/>
<path d="M2.4832 14.031L2.16231 14.1021C1.86942 14.167 1.56601 14.0512 1.39095 13.8075C1.21588 13.5639 1.20283 13.2394 1.35777 12.9825L2.23235 11.5325C2.33902 11.3556 2.51389 11.2306 2.71574 11.1869C2.91758 11.1431 3.12853 11.1845 3.29884 11.3014L4.68284 12.2508C4.92916 12.4197 5.05173 12.7188 4.99486 13.012C4.93799 13.3053 4.71252 13.5368 4.42088 13.6015L3.94925 13.706C4.87268 17.0748 7.87304 19.6246 11.5519 19.8097C15.2743 19.997 18.5497 17.7057 19.7734 14.3816C19.9165 13.9929 20.3476 13.7938 20.7363 13.9369C21.125 14.08 21.3241 14.5111 21.181 14.8998C19.7371 18.8222 15.873 21.529 11.4766 21.3078C7.1074 21.088 3.5503 18.0436 2.4832 14.031Z" fill="#0033CC"/>
<path d="M12.7494 6.99744C12.7494 6.58322 12.4136 6.24744 11.9994 6.24744C11.5851 6.24744 11.2494 6.58322 11.2494 6.99744L11.2494 7.29279L10.8879 7.29279C9.59046 7.29279 8.60303 8.39368 8.60303 9.65705C8.60303 10.2489 8.73388 10.7594 9.05525 11.1668C9.36893 11.5645 9.78996 11.7674 10.1612 11.8989L10.1638 11.8998L13.3355 13.0099C13.5898 13.1023 13.6957 13.1826 13.7521 13.2549C13.8017 13.3182 13.8825 13.4644 13.8825 13.8383C13.8825 14.3479 13.4938 14.7025 13.0976 14.7025L11.1128 14.7025C10.5964 14.7025 10.103 14.2409 10.103 13.6001C10.103 13.1859 9.76724 12.8501 9.35303 12.8501C8.93881 12.8501 8.60303 13.1859 8.60303 13.6001C8.60303 14.997 9.69746 16.2025 11.1128 16.2025L11.2494 16.2025L11.2494 16.4977C11.2494 16.9119 11.5851 17.2477 11.9994 17.2477C12.4136 17.2477 12.7494 16.9119 12.7494 16.4977L12.7494 16.2025L13.0976 16.2025C14.395 16.2025 15.3825 15.1016 15.3825 13.8383C15.3825 13.2463 15.2516 12.7374 14.9339 12.3311C14.6235 11.9339 14.2074 11.7301 13.8423 11.5981L10.6619 10.485L10.6607 10.4845C10.3977 10.3912 10.2897 10.3098 10.233 10.2379C10.1839 10.1756 10.103 10.0312 10.103 9.65705C10.103 9.14738 10.4917 8.79279 10.8879 8.79279L12.8669 8.79279C13.4152 8.80262 13.8957 9.26929 13.8957 9.89523C13.8957 10.3094 14.2315 10.6452 14.6457 10.6452C15.0599 10.6452 15.3957 10.3094 15.3957 9.89523C15.3957 8.48514 14.2909 7.31182 12.8828 7.29279L12.7494 7.29279L12.7494 6.99744Z" fill="#0033CC"/>
</svg>
