<svg width="24" height="24" viewBox="0 0 24 24" fill="none" xmlns="http://www.w3.org/2000/svg">
<path d="M7.60672 3.69107C7.06575 4.26154 6.75 5.07002 6.75 6V14C6.75 14.4142 6.41421 14.75 6 14.75C5.58579 14.75 5.25 14.4142 5.25 14V6C5.25 4.72998 5.68425 3.53846 6.51828 2.65893C7.35813 1.77327 8.5603 1.25 10 1.25H16C17.4397 1.25 18.6419 1.77327 19.4817 2.65893C20.3158 3.53846 20.75 4.72998 20.75 6V18C20.75 19.27 20.3158 20.4615 19.4817 21.3411C18.6419 22.2267 17.4397 22.75 16 22.75H12C11.5858 22.75 11.25 22.4142 11.25 22C11.25 21.5858 11.5858 21.25 12 21.25H16C17.0603 21.25 17.8581 20.8733 18.3933 20.3089C18.9343 19.7385 19.25 18.93 19.25 18V6C19.25 5.07002 18.9343 4.26154 18.3933 3.69107C17.8581 3.12672 17.0603 2.75 16 2.75H10C8.9397 2.75 8.14187 3.12672 7.60672 3.69107Z" fill="#0033C9"/>
<path d="M3.25 17C3.25 16.5858 3.58579 16.25 4 16.25C5.52499 16.25 6.98753 16.8558 8.06586 17.9341C9.1442 19.0125 9.75 20.475 9.75 22C9.75 22.4142 9.41421 22.75 9 22.75C8.58579 22.75 8.25 22.4142 8.25 22C8.25 20.8728 7.80223 19.7918 7.0052 18.9948C6.20817 18.1978 5.12717 17.75 4 17.75C3.58579 17.75 3.25 17.4142 3.25 17Z" fill="#0033C9"/>
<path d="M4 19.25C3.58579 19.25 3.25 19.5858 3.25 20C3.25 20.4142 3.58579 20.75 4 20.75C4.33152 20.75 4.64946 20.8817 4.88388 21.1161C5.1183 21.3505 5.25 21.6685 5.25 22C5.25 22.4142 5.58579 22.75 6 22.75C6.41421 22.75 6.75 22.4142 6.75 22C6.75 21.2707 6.46027 20.5712 5.94454 20.0555C5.42882 19.5397 4.72935 19.25 4 19.25Z" fill="#0033C9"/>
<path d="M11 17.75H15C15.4142 17.75 15.75 18.0858 15.75 18.5C15.75 18.9142 15.4142 19.25 15 19.25H11C10.5858 19.25 10.25 18.9142 10.25 18.5C10.25 18.0858 10.5858 17.75 11 17.75Z" fill="#0033C9"/>
<path fill-rule="evenodd" clip-rule="evenodd" d="M10.4408 12.3368H8.56283C8.25199 12.3368 8 12.0848 8 11.774V11.165C8 11.0675 8.0253 10.9718 8.07343 10.887L9.77709 7.88741C9.8771 7.71132 10.064 7.60254 10.2665 7.60254H11.5575C11.8694 7.60254 12.1218 7.85615 12.1203 8.16803L12.1073 10.9236H12.3677C12.6785 10.9236 12.9305 11.1756 12.9305 11.4864V11.774C12.9305 12.0848 12.6785 12.3368 12.3677 12.3368H12.1219V12.5826C12.1219 12.8935 11.8699 13.1455 11.559 13.1455H11.0111C10.7066 13.1455 10.4573 12.9034 10.4485 12.599L10.4408 12.3368ZM10.5202 9.71894L9.85053 10.9236H10.5202V9.71894Z" fill="#0033C9"/>
<path d="M16.756 7.63477C16.9356 7.64944 17.114 7.67271 17.2913 7.70458C17.5607 7.75304 17.7409 7.99003 17.7409 8.24962V8.66097C17.7409 9.00536 17.4353 9.26699 17.0969 9.21938C16.9649 9.20079 16.8424 9.18439 16.7914 9.17953C16.5848 9.15937 16.3749 9.14922 16.1628 9.14922C15.8601 9.14922 15.6032 9.18156 15.3889 9.24211L15.3872 9.2426L15.3855 9.24306C15.2083 9.29032 15.076 9.38696 14.9781 9.53965C14.8851 9.68468 14.8203 9.9444 14.8203 10.3583C14.8203 10.7718 14.8538 11.0671 14.9109 11.2581C14.9643 11.416 15.0517 11.509 15.1725 11.5623C15.3298 11.6234 15.5756 11.6616 15.9273 11.6616H16.1407L16.4141 11.6472V11.4182C16.4141 11.3421 16.4155 11.2684 16.4185 11.1972C16.3481 11.2036 16.2757 11.2091 16.2011 11.2136L16.1974 11.2139L16.1938 11.214C16.1338 11.2158 16.0753 11.217 16.0182 11.2176C15.7039 11.2208 15.4641 10.9628 15.4641 10.6624V10.2683C15.4641 9.95826 15.7147 9.70662 16.0247 9.70543L17.435 9.70003C17.7467 9.69884 18 9.95117 18 10.2629V12.4063C18 12.6232 17.8733 12.8346 17.6535 12.9181C17.447 12.9965 17.2225 13.06 16.9808 13.1092L16.9776 13.1098C16.6535 13.1713 16.2495 13.2004 15.7703 13.2004C15.1254 13.2004 14.5926 13.1152 14.1906 12.926L14.188 12.9248C13.7755 12.7246 13.482 12.4023 13.3137 11.9696L13.3133 11.9686C13.1519 11.5477 13.0773 11.0069 13.0773 10.3583C13.0773 9.82963 13.1363 9.37861 13.2637 9.01402L13.2648 9.01079C13.3971 8.64827 13.593 8.35348 13.8605 8.14194C14.1242 7.93227 14.4399 7.79256 14.8007 7.71785C15.151 7.64016 15.5456 7.60254 15.9823 7.60254C16.2402 7.60254 16.4981 7.61328 16.756 7.63477Z" fill="#0033C9"/>
</svg>
