<svg width="24" height="24" viewBox="0 0 24 24" fill="none" xmlns="http://www.w3.org/2000/svg">
<path fill-rule="evenodd" clip-rule="evenodd" d="M16.8377 12.0122C19.5669 12.0122 21.7792 14.2254 21.7792 16.9546C21.7789 19.6835 19.5667 21.896 16.8377 21.896C14.1089 21.8958 11.8966 19.6834 11.8963 16.9546C11.8963 14.2255 14.1087 12.0123 16.8377 12.0122ZM16.8377 12.9907C15.1318 12.9908 13.6776 14.0686 13.119 15.5805C12.9944 15.9236 13.0128 16.325 13.2723 16.5815C13.4277 16.7349 13.631 16.8581 13.8895 16.9204C14.0226 16.9524 14.1653 16.9659 14.3065 16.98C14.6301 17.0121 14.9487 17.0444 15.1434 17.2905C15.2592 17.4371 15.3465 17.6456 15.3465 17.9409C15.2716 18.4685 15.4136 19.4326 16.4715 19.4634H16.4872C16.7231 19.4701 16.9869 19.4782 17.1014 19.6831C17.2066 19.8712 17.2599 20.1572 17.286 20.5571C17.2977 20.7359 17.4551 20.873 17.6307 20.8374C17.7178 20.8197 17.8036 20.7982 17.8885 20.7749C17.8993 20.7719 17.91 20.7691 17.9208 20.7661C18.091 20.7178 18.2567 20.659 18.4169 20.5893C18.5066 20.5503 18.5944 20.5077 18.6805 20.4624C18.9981 20.2952 19.2903 20.0867 19.5497 19.8432C19.556 19.8372 19.5619 19.8307 19.5682 19.8247C19.6495 19.7428 19.7929 19.5057 19.8075 19.3989C19.8417 19.147 19.7673 18.9575 19.662 18.687C19.6328 18.6122 19.6015 18.5311 19.5692 18.4409C19.5692 18.29 19.5687 17.4408 18.5751 17.1909C18.4093 16.941 17.9295 16.5418 17.3338 16.9409C16.8874 17.1654 16.0794 17.3904 16.0643 16.7085C16.0634 16.6691 16.0648 16.6287 16.0663 16.5884C16.0714 16.4464 16.0773 16.3039 15.9813 16.2036C15.8844 16.1024 15.7133 16.0067 15.4305 15.9643C15.3959 15.9591 15.3599 15.9551 15.3241 15.9507C15.1339 15.9274 14.9365 15.9027 14.8329 15.7485C14.7215 15.5828 14.7237 15.318 15.0975 14.9419C15.3459 14.692 15.9423 14.4423 16.3397 15.4419C16.663 16.016 17.6315 15.691 17.0848 14.9419C16.8365 14.6086 16.6382 13.8427 17.8299 13.4428C18.0169 13.3802 17.9619 13.1523 17.7733 13.102C17.4734 13.0295 17.16 12.9907 16.8377 12.9907Z" fill="#0033C9"/>
<path d="M3.03208 15.6626C3.44411 15.62 3.81279 15.9195 3.85533 16.3315C3.9108 16.8687 3.97048 17.4018 4.03013 17.9331C4.1493 18.9944 4.9993 19.8458 6.06333 19.9692L6.16685 19.9809C6.66797 20.039 7.17036 20.0973 7.67662 20.1518C8.08838 20.1963 8.38601 20.5662 8.34166 20.978C8.29709 21.3896 7.92718 21.6874 7.51548 21.643C7.00323 21.5879 6.49553 21.5291 5.99595 21.4712L5.89048 21.4585C4.1361 21.255 2.7373 19.8584 2.5399 18.1001C2.48033 17.5695 2.4194 17.0297 2.36314 16.4848C2.32084 16.0731 2.62037 15.7053 3.03208 15.6626Z" fill="#0033C9"/>
<path d="M7.01646 14.5014C7.43054 14.5016 7.76646 14.8373 7.76646 15.2514V16.3657C7.76646 16.5752 7.93591 16.7454 8.14537 16.7456H9.21958C9.63372 16.7457 9.96959 17.0814 9.96958 17.4956C9.96958 17.9097 9.63372 18.2455 9.21958 18.2456H8.14537C7.10749 18.2454 6.26646 17.4036 6.26646 16.3657V15.2514C6.26646 14.8372 6.60225 14.5014 7.01646 14.5014Z" fill="#0033C9"/>
<path fill-rule="evenodd" clip-rule="evenodd" d="M9.21958 5.7573C9.69107 5.75731 10.1469 5.79591 10.5721 5.84128C11.6281 5.95418 12.4774 6.80219 12.5858 7.86179C12.629 8.28464 12.6649 8.73609 12.6649 9.20261C12.6649 9.66919 12.629 10.1205 12.5858 10.5434C12.4776 11.6032 11.6282 12.451 10.5721 12.5639C10.1469 12.6093 9.69107 12.6479 9.21958 12.6479C8.74804 12.6479 8.29231 12.6093 7.86705 12.5639C6.81084 12.4511 5.9616 11.6033 5.85337 10.5434C5.81019 10.1205 5.77427 9.6692 5.77427 9.20261C5.77429 8.73609 5.8102 8.28464 5.85337 7.86179C5.96181 6.8021 6.81098 5.95404 7.86705 5.84128C8.29231 5.7959 8.74804 5.7573 9.21958 5.7573ZM9.21958 7.2573C8.82638 7.2573 8.43159 7.28924 8.02623 7.33249C7.6718 7.37035 7.38144 7.66368 7.34556 8.01511C7.30451 8.41727 7.27429 8.81036 7.27427 9.20261C7.27427 9.59508 7.30448 9.9887 7.34556 10.3911C7.38144 10.7425 7.67183 11.0348 8.02623 11.0727C8.43159 11.116 8.82638 11.1479 9.21958 11.1479C9.61273 11.1479 10.0076 11.116 10.4129 11.0727C10.7672 11.0347 11.0577 10.7424 11.0936 10.3911C11.1347 9.98871 11.1649 9.59507 11.1649 9.20261C11.1649 8.81037 11.1347 8.41726 11.0936 8.01511C11.0577 7.66379 10.7672 7.3705 10.4129 7.33249C10.0076 7.28924 9.61273 7.25731 9.21958 7.2573Z" fill="#0033C9"/>
<path d="M16.5946 6.20847C17.4766 6.20847 18.1922 6.92406 18.1922 7.80613V9.89499C18.1921 10.309 17.8562 10.6448 17.4422 10.645C17.0281 10.645 16.6924 10.3091 16.6922 9.89499V7.80613C16.6922 7.75249 16.6482 7.70847 16.5946 7.70847H14.5555C14.1415 7.70827 13.8055 7.37256 13.8055 6.95847C13.8056 6.54447 14.1415 6.20867 14.5555 6.20847H16.5946Z" fill="#0033C9"/>
<path d="M7.51548 2.35691C7.92731 2.31255 8.29729 2.61109 8.34166 3.02292C8.38584 3.43462 8.08832 3.80472 7.67662 3.8491C7.17037 3.90363 6.66796 3.96092 6.16685 4.01902L6.06333 4.03171C4.99942 4.15512 4.1494 5.0057 4.03013 6.06687C3.97047 6.5983 3.91081 7.13206 3.85533 7.66941C3.81261 8.08124 3.44399 8.38088 3.03208 8.33835C2.62024 8.29569 2.32069 7.92699 2.36314 7.51511C2.41941 6.97013 2.48032 6.43052 2.5399 5.89988C2.7373 4.14154 4.13609 2.74497 5.89048 2.54148L5.99498 2.52976C6.49476 2.47181 7.003 2.41211 7.51548 2.35691Z" fill="#0033C9"/>
<path d="M16.5086 2.35691C17.0213 2.41213 17.5293 2.4718 18.0292 2.52976L18.1336 2.54148C19.8882 2.74483 21.2878 4.14143 21.4852 5.89988C21.5448 6.4305 21.6047 6.97015 21.661 7.51511C21.7035 7.92709 21.404 8.29581 20.992 8.33835C20.5802 8.38081 20.2115 8.08122 20.1688 7.66941C20.1133 7.13206 20.0537 6.5983 19.994 6.06687C19.8747 5.00565 19.0248 4.15503 17.9608 4.03171L17.8583 4.01902C17.3573 3.96093 16.8546 3.90362 16.3485 3.8491C15.9368 3.80474 15.6383 3.43462 15.6825 3.02292C15.7268 2.61111 16.0968 2.31258 16.5086 2.35691Z" fill="#0033C9"/>
</svg>
