<svg width="24" height="24" viewBox="0 0 24 24" fill="none" xmlns="http://www.w3.org/2000/svg">
<path fill-rule="evenodd" clip-rule="evenodd" d="M13.8993 10.7005C13.0508 10.212 12.1064 10.0726 11.3256 10.5214C10.5435 10.9709 10.1899 11.8582 10.1899 12.8412V15.3919C10.1899 16.372 10.5443 17.2577 11.3245 17.7079C12.1043 18.1578 13.049 18.0222 13.8993 17.5326L16.1059 16.257C16.9561 15.7673 17.5475 15.0176 17.5475 14.1166C17.5475 13.2155 16.9555 12.4655 16.1053 11.9758L13.9005 10.7011L13.8993 10.7005ZM11.6899 12.8412C11.6899 12.1783 11.9181 11.911 12.073 11.8219C12.2293 11.7321 12.5778 11.6706 13.1509 12.0004L15.3569 13.2758C15.9282 13.6047 16.0475 13.9364 16.0475 14.1166C16.0475 14.2967 15.9282 14.6284 15.3569 14.9574L13.1503 16.233C12.5791 16.5617 12.2314 16.4993 12.0742 16.4086C11.9172 16.3181 11.6899 16.049 11.6899 15.3919V12.8412Z" fill="#0033C9"/>
<path fill-rule="evenodd" clip-rule="evenodd" d="M18.7264 3.16999C19.4124 3.81542 19.6569 4.75664 19.727 5.88694C20.661 6.01761 21.4409 6.32336 21.9765 6.99913C22.6049 7.79198 22.75 8.92471 22.75 10.28V17.27C22.75 18.757 22.5783 19.988 21.7693 20.7863C20.9637 21.5812 19.7244 21.75 18.22 21.75H8.78003C7.30001 21.75 6.07915 21.5878 5.27361 20.83C4.58755 20.1846 4.34303 19.2433 4.27299 18.113C3.33898 17.9824 2.55907 17.6766 2.02348 17.0009C1.39508 16.208 1.25 15.0753 1.25 13.72V6.73C1.25 5.24303 1.42172 4.01195 2.23073 3.21365C3.03626 2.41878 4.27563 2.25 5.78003 2.25H15.22C16.7 2.25 17.9208 2.41215 18.7264 3.16999ZM8.78003 7.29999H18.2158L18.22 7.3C18.4807 7.3 18.7257 7.30924 18.9628 7.3191C20.0909 7.38659 20.5554 7.62105 20.801 7.93084C21.0801 8.28299 21.25 8.93526 21.25 10.28V17.27C21.25 18.763 21.0417 19.3969 20.7157 19.7186C20.3862 20.0438 19.7356 20.25 18.22 20.25H8.78003C7.29005 20.25 6.63589 20.0521 6.30142 19.7375C5.98039 19.4355 5.7655 18.8428 5.75002 17.428L5.75 17.4234V10.28C5.75 8.78695 5.95829 8.15304 6.2843 7.83134C6.61379 7.50621 7.26443 7.29999 8.78003 7.29999ZM17.6986 4.26251C17.9537 4.50253 18.1418 4.92609 18.216 5.79999H8.78003C7.27563 5.79999 6.03626 5.96876 5.23073 6.76364C4.42172 7.56194 4.25 8.79302 4.25 10.28V16.5897C3.67089 16.4792 3.37726 16.294 3.19902 16.0691C2.91992 15.717 2.75 15.0647 2.75 13.72V6.73C2.75 5.23697 2.95829 4.60305 3.2843 4.28135C3.61379 3.95622 4.26443 3.75 5.78003 3.75H15.22C16.71 3.75 17.3641 3.94785 17.6986 4.26251Z" fill="#0033C9"/>
</svg>
