<svg width="24" height="24" viewBox="0 0 24 24" fill="none" xmlns="http://www.w3.org/2000/svg">
<path fill-rule="evenodd" clip-rule="evenodd" d="M12.9207 2.6987L11.2415 5.13984L9.47264 2.68518C8.78287 1.72798 7.64944 1.31179 6.59491 1.34171C5.54085 1.37162 4.43452 1.85169 3.81496 2.85477C3.03442 4.11846 3.42448 5.5677 4.48573 6.42918C3.09879 7.07128 2.12687 8.4276 1.98033 10.015C1.86491 11.2653 1.79688 12.5461 1.79688 13.8627C1.79688 15.1793 1.86491 16.4602 1.98033 17.7105C2.17331 19.8008 3.79752 21.4905 5.91599 21.6762C7.44275 21.81 9.14711 21.8717 11.0955 21.8717H12.5463C12.9632 21.8717 13.3013 21.5337 13.3013 21.1167C13.3013 20.6998 12.9632 20.3617 12.5463 20.3617H11.8505V12.1993H18.759C18.7939 12.81 18.8156 13.314 18.8156 13.5952C18.8156 14.0122 19.1536 14.3502 19.5706 14.3502C19.9876 14.3502 20.3256 14.0122 20.3256 13.5952C20.3256 12.9641 20.2332 11.445 20.1279 10.037C20.0098 8.45978 19.0887 7.09608 17.7249 6.44306C18.7684 5.57919 19.1347 4.12134 18.3958 2.86807C17.8041 1.86449 16.7371 1.37237 15.707 1.34174C14.6767 1.31111 13.5811 1.73853 12.9207 2.6987ZM14.1648 3.55446C14.4874 3.0854 15.0556 2.83305 15.6621 2.85108C16.2687 2.86911 16.8115 3.15408 17.095 3.63498C17.4765 4.28194 17.2292 5.1453 16.3635 5.52368L15.4637 5.91698C15.4235 5.93453 15.3857 5.95515 15.3503 5.97845C14.4844 5.92118 13.5626 5.88444 12.5744 5.86659L14.1648 3.55446ZM8.24759 3.56798L9.9007 5.86201C8.84146 5.8771 7.85774 5.91318 6.93704 5.97218C6.90096 5.94922 6.86244 5.92902 6.82162 5.91199L5.87895 5.5187C4.94131 5.1275 4.71673 4.26824 5.09965 3.64828C5.397 3.16687 5.97711 2.86985 6.63774 2.8511C7.29791 2.83237 7.90743 3.09595 8.24759 3.56798ZM18.6221 10.1497C18.6355 10.3296 18.6487 10.5101 18.6614 10.6893H11.8505V7.36703C13.4533 7.38123 14.8685 7.44181 16.1431 7.55354C17.4917 7.67176 18.5174 8.75078 18.6221 10.1497ZM10.3405 7.36703V10.6893H3.43771C3.45207 10.5103 3.4675 10.3318 3.48393 10.1538C3.61234 8.76294 4.68362 7.67312 6.04785 7.55354C7.32239 7.44181 8.7376 7.38123 10.3405 7.36703ZM3.30687 13.8627C3.30687 13.3025 3.3197 12.7482 3.3437 12.1993H10.3405V20.3585C8.7376 20.3443 7.32239 20.2837 6.04785 20.172C4.68362 20.0524 3.61234 18.9625 3.48394 17.5717C3.37221 16.3614 3.30687 15.1272 3.30687 13.8627Z" fill="#0033C9"/>
<path d="M22.3083 19.0714C22.3083 21.1885 20.592 22.9047 18.4749 22.9047C16.3578 22.9047 14.6416 21.1885 14.6416 19.0714C14.6416 16.9543 16.3578 15.238 18.4749 15.238C20.592 15.238 22.3083 16.9543 22.3083 19.0714Z" fill="#0033C9"/>
</svg>
