<svg width="24" height="24" viewBox="0 0 24 24" fill="none" xmlns="http://www.w3.org/2000/svg">
<path d="M11.1692 4.98336C8.52797 5.19936 6.1979 6.5576 4.66258 8.57653L5.7627 9.12953C6.13279 9.31557 6.28199 9.76639 6.09596 10.1365C5.90993 10.5066 5.45911 10.6558 5.08902 10.4697L3.91723 9.88072C3.89438 9.86923 3.87238 9.85674 3.85124 9.84331C3.14911 11.1624 2.75 12.6741 2.75 14.2827C2.75 14.3901 2.75178 14.4971 2.75531 14.6037H6.708C7.12222 14.6037 7.458 14.9394 7.458 15.3537C7.458 15.7679 7.12222 16.1037 6.708 16.1037H2.05529C1.67107 16.1037 1.34899 15.8133 1.3093 15.4311C1.27008 15.0535 1.25 14.6704 1.25 14.2827C1.25 8.31363 6.01152 3.45312 11.9116 3.45312C17.8116 3.45312 22.5732 8.31363 22.5732 14.2827C22.5732 14.6704 22.5531 15.0535 22.5139 15.4311C22.4742 15.8133 22.1521 16.1037 21.7679 16.1037H17.2391C16.8248 16.1037 16.4891 15.7679 16.4891 15.3537C16.4891 14.9394 16.8248 14.6037 17.2391 14.6037H21.0679C21.0714 14.4971 21.0732 14.3901 21.0732 14.2827C21.0732 12.674 20.674 11.1622 19.9718 9.84312C19.9506 9.85662 19.9285 9.86918 19.9055 9.88072L18.7337 10.4697C18.3637 10.6558 17.9128 10.5066 17.7268 10.1365C17.5408 9.76639 17.69 9.31557 18.0601 9.12953L19.1605 8.57639C17.6254 6.5578 15.2958 5.19972 12.6551 4.98345C12.6597 5.01715 12.6621 5.05157 12.6621 5.08655V6.55911C12.6621 6.97332 12.3263 7.30911 11.9121 7.30911C11.4979 7.30911 11.1621 6.97332 11.1621 6.55911V5.08655C11.1621 5.05154 11.1645 5.01709 11.1692 4.98336Z" fill="#0033CC"/>
<path d="M8.37402 20C8.37402 19.5858 8.70981 19.25 9.12402 19.25H15.009C15.4232 19.25 15.759 19.5858 15.759 20C15.759 20.4142 15.4232 20.75 15.009 20.75H9.12402C8.70981 20.75 8.37402 20.4142 8.37402 20Z" fill="#0033CC"/>
<path d="M9.97931 10.1916C11.6874 11.6751 13.7714 13.6284 14.2759 14.4691C15.6066 16.687 11.9313 18.7148 10.7273 16.4969C10.121 14.9812 9.34566 12.8652 8.75363 10.9897C8.50414 10.1992 9.35354 9.64803 9.97931 10.1916Z" fill="#0033CC"/>
</svg>
