<svg width="24" height="24" viewBox="0 0 24 24" fill="none" xmlns="http://www.w3.org/2000/svg">
<path fill-rule="evenodd" clip-rule="evenodd" d="M9.42062 7.85828C9.62633 6.73623 9.62549 5.62183 9.42145 4.52743L10.9111 4.24969C11.1497 5.52919 11.1497 6.83036 10.9111 8.13154L9.42062 7.85828ZM8.48225 10.5604C9.71837 10.3435 10.6942 9.36766 10.9111 8.13154L9.42062 7.85828C9.31401 8.466 8.82811 8.96125 8.2204 9.06787L8.48225 10.5604ZM4.6004 10.5604C5.90158 10.799 7.20276 10.799 8.48225 10.5604L8.2204 9.06787C7.126 9.27191 5.99571 9.27563 4.87366 9.06992L4.6004 10.5604ZM2.19322 4.24969C1.93299 5.55087 1.93299 6.87373 2.19322 8.15323C2.41009 9.38934 3.36428 10.3435 4.6004 10.5604L4.87366 9.06992C4.26594 8.9633 3.79237 8.49909 3.68576 7.89138C3.46639 6.81284 3.45779 5.65355 3.67913 4.54687L2.19322 4.24969ZM4.6004 1.84252C3.36428 2.05938 2.41009 3.01358 2.19322 4.24969L3.67913 4.54687C3.78574 3.93916 4.2947 3.43406 4.90242 3.32744L4.6004 1.84252ZM8.50393 1.84252C9.74005 2.05938 10.6942 3.01358 10.9111 4.24969L9.42145 4.52743C9.31483 3.91971 8.81447 3.43504 8.20675 3.32842L8.50393 1.84252ZM8.50393 1.84252C7.20276 1.58228 5.87989 1.58228 4.6004 1.84252L4.90242 3.32744C5.98096 3.10808 7.10008 3.10708 8.20675 3.32842L8.50393 1.84252Z" fill="#0033C9"/>
<path fill-rule="evenodd" clip-rule="evenodd" d="M9.41908 18.9933C9.62683 17.8224 9.62604 16.6586 9.41986 15.5159L10.9111 15.2468C11.1497 16.5689 11.1497 17.9135 10.9111 19.258L9.41908 18.9933ZM8.48225 21.7679L8.21194 20.2768C8.79434 20.1713 9.30257 19.6793 9.41716 19.0044L10.9111 19.258C10.6942 20.5354 9.71837 21.5438 8.48225 21.7679ZM4.6004 12.7594C3.36428 12.9835 2.41009 13.9695 2.19322 15.2468C1.93299 16.5914 1.93299 17.9583 2.19322 19.2805C2.41009 20.5578 3.36428 21.5438 4.6004 21.7679C5.90158 22.0144 7.20276 22.0144 8.48225 21.7679L8.19558 20.2799C7.10703 20.4896 5.99885 20.4905 4.88246 20.279L4.6004 21.7679L4.8707 20.2768C4.28831 20.1713 3.80176 19.7017 3.68717 19.0268L2.19322 19.2805L3.68003 18.9878C3.45814 17.8605 3.45721 16.6907 3.68094 15.5347L2.19322 15.2468L3.68717 15.5004C3.80176 14.8255 4.28831 14.356 4.8707 14.2504L4.6004 12.7594ZM4.6004 12.7594L4.91207 14.2423C5.98433 14.017 7.09666 14.0159 8.19725 14.2434L8.50393 12.7594L8.23363 14.2504C8.81603 14.356 9.30257 14.8255 9.41716 15.5004L10.9111 15.2468C10.6942 13.9695 9.74005 12.9835 8.50393 12.7594C7.20276 12.4905 5.87989 12.4905 4.6004 12.7594Z" fill="#0033C9"/>
<path fill-rule="evenodd" clip-rule="evenodd" d="M20.325 18.9848C20.5387 17.8194 20.5378 16.6616 20.3259 15.5245L21.8155 15.2468C22.062 16.5689 22.062 17.9135 21.8155 19.258L20.325 18.9848ZM19.3057 21.7679C20.583 21.5438 21.5914 20.5354 21.8155 19.258L20.323 18.9962C20.2091 19.6451 19.6928 20.1615 19.0438 20.2753L19.3057 21.7679ZM15.2944 21.7679L15.5677 20.2774C16.7331 20.491 17.8909 20.4902 19.028 20.2782L19.3057 21.7679C17.9835 22.0144 16.639 22.0144 15.2944 21.7679ZM12.807 15.2468C12.5381 16.5914 12.5381 17.9583 12.807 19.2805C13.0311 20.5578 14.0171 21.5438 15.2944 21.7679L15.5563 20.2753C14.9074 20.1615 14.4134 19.6675 14.2996 19.0186L12.807 19.2805L14.292 18.9784C14.0639 17.8572 14.0629 16.694 14.2929 15.544L12.807 15.2468ZM15.2944 12.7594L15.5563 14.2519C14.9074 14.3658 14.4134 14.8597 14.2996 15.5087L12.807 15.2468C13.0311 13.9695 14.0171 12.9835 15.2944 12.7594ZM19.3281 12.7594C20.6054 12.9835 21.5914 13.9695 21.8155 15.2468L20.323 15.5087C20.2091 14.8597 19.7152 14.3658 19.0663 14.2519L19.3281 12.7594ZM19.3281 12.7594C17.9836 12.4905 16.6166 12.4905 15.2944 12.7594L15.5965 14.2443C16.7177 14.0163 17.8809 14.0153 19.0309 14.2453L19.3281 12.7594Z" fill="#0033C9"/>
<path fill-rule="evenodd" clip-rule="evenodd" d="M20.3267 7.84948C20.5382 6.73309 20.5373 5.62491 20.3275 4.53636L21.8155 4.24969C22.062 5.52918 22.062 6.83036 21.8155 8.13154L20.3267 7.84948ZM19.3057 10.5604C20.583 10.3435 21.5914 9.36766 21.8155 8.13154L20.3245 7.86124C20.2189 8.44363 19.727 8.95186 19.052 9.06645L19.3057 10.5604ZM15.2944 10.5604L15.5592 9.06837C16.7301 9.27612 17.8939 9.27533 19.0366 9.06915L19.3057 10.5604C17.9835 10.799 16.639 10.799 15.2944 10.5604ZM12.807 4.24969C12.5381 5.55087 12.5381 6.87373 12.807 8.15322C13.0311 9.38934 14.0171 10.3435 15.2944 10.5604L15.5481 9.06645C14.8732 8.95186 14.4036 8.46532 14.2981 7.88292L12.807 8.15322L14.29 7.84156C14.0646 6.7693 14.0635 5.65697 14.291 4.55638L12.807 4.24969ZM15.2944 1.84252L15.5481 3.33647C14.8732 3.45105 14.4036 3.9376 14.2981 4.52L12.807 4.24969C13.0311 3.01357 14.0171 2.05938 15.2944 1.84252ZM19.3281 1.84252C20.6054 2.05938 21.5914 3.01357 21.8155 4.24969L20.3245 4.52C20.2189 3.9376 19.7494 3.45105 19.0745 3.33647L19.3281 1.84252ZM19.3281 1.84252C17.9836 1.58228 16.6166 1.58228 15.2944 1.84252L15.5871 3.32932C16.7144 3.10743 17.8842 3.1065 19.0402 3.33024L19.3281 1.84252Z" fill="#0033C9"/>
</svg>
