<svg width="24" height="24" viewBox="0 0 24 24" fill="none" xmlns="http://www.w3.org/2000/svg">
<path fill-rule="evenodd" clip-rule="evenodd" d="M15.5137 5.74843V2.97183C15.5137 2.6815 15.7148 2.43435 15.9865 2.33205C16.6633 2.07727 17.1934 1.81003 17.7633 1.5227C18.0629 1.37169 18.3734 1.21514 18.7221 1.05193C18.8787 0.978571 19.0606 0.98338 19.2139 1.06354C19.3835 1.15219 19.5443 1.23767 19.6997 1.32024C20.4484 1.7181 21.0706 2.04872 21.9306 2.3434C22.214 2.4405 22.4276 2.69306 22.4276 2.99262V5.74843C22.4276 7.5435 20.1578 9.09484 19.0054 9.42913C17.8531 9.09484 15.5137 7.5435 15.5137 5.74843ZM17.0137 5.74843V3.53622C17.5612 3.30443 18.0609 3.05322 18.534 2.81538C18.6702 2.74692 18.8046 2.67936 18.9369 2.61389L18.9712 2.63213C19.5872 2.96003 20.1919 3.28187 20.9276 3.5721V5.74843C20.9276 6.02258 20.7273 6.48648 20.1336 7.03222C19.753 7.38203 19.334 7.64947 19.0028 7.81623C18.6601 7.64691 18.2244 7.37469 17.8292 7.02011C17.2116 6.46595 17.0137 6.00532 17.0137 5.74843Z" fill="#0033CC"/>
<path fill-rule="evenodd" clip-rule="evenodd" d="M12.0238 5.25H12.0219C11.1093 5.25 9.59242 5.2585 8.11432 5.30468C6.66049 5.35009 5.1702 5.43341 4.35326 5.5973C3.72982 5.72237 2.97985 6.11012 2.38141 6.68086C1.77489 7.2593 1.25049 8.09921 1.25049 9.1455V13.65C1.25016 13.659 1.25 13.6681 1.25 13.6773C1.25 13.6864 1.25016 13.6955 1.25049 13.7046V16.1776C1.25049 16.8708 1.32128 17.7157 1.70597 18.4167C2.12904 19.1877 2.88015 19.6933 3.9919 19.7426L4.07157 19.7462C4.43352 20.8994 5.51083 21.736 6.78354 21.736C7.97089 21.736 8.98817 21.0079 9.41319 19.9738C10.265 19.9987 11.1281 20.0145 12.0005 20.0145C12.3084 20.0145 12.6151 20.0125 12.9205 20.0089C13.354 21.0243 14.3616 21.736 15.5355 21.736C16.8023 21.736 17.8755 20.9072 18.2424 19.7622C18.3756 19.7606 18.5363 19.7596 18.7449 19.7586L18.796 19.7584C19.2644 19.7563 19.7511 19.754 20.009 19.7426C21.0867 19.6948 21.9994 18.9404 22.2799 17.9165C22.503 17.1023 22.7504 16.1632 22.7504 15.1813C22.7504 14.2464 22.7078 13.1304 22.5605 11.9978C22.5071 11.587 22.1309 11.2974 21.7201 11.3508C21.3093 11.4042 21.0197 11.7805 21.0731 12.1912C21.1051 12.4373 21.1318 12.6833 21.154 12.9273H16.1892V9.45801C16.1892 9.04379 15.8534 8.70801 15.4392 8.70801C15.025 8.70801 14.6892 9.04379 14.6892 9.45801V12.9273H8.53197V9.45801C8.53197 9.04379 8.19618 8.70801 7.78197 8.70801C7.36775 8.70801 7.03197 9.04379 7.03197 9.45801V12.9273H2.75049V9.1455C2.75049 8.6291 3.00743 8.15663 3.41665 7.76634C3.83395 7.36836 4.33412 7.13103 4.6483 7.068C5.32032 6.93318 6.68131 6.85017 8.16115 6.80394C9.61672 6.75847 11.1159 6.75 12.0219 6.75C12.5268 6.75 13.1651 6.75002 13.8622 6.76371C14.2764 6.77184 14.6187 6.44272 14.6268 6.02858C14.6349 5.61445 14.3058 5.27213 13.8917 5.264C13.1789 5.25 12.5278 5.25 12.0238 5.25ZM2.75049 16.1776V14.4273H21.2211L21.2404 14.427C21.2474 14.6877 21.2504 14.9402 21.2504 15.1813C21.2504 15.9357 21.0598 16.6932 20.8332 17.5202C20.7202 17.9326 20.3527 18.2259 19.9426 18.2441C19.715 18.2542 19.2481 18.2563 18.7488 18.2586L18.7381 18.2586C18.5716 18.2594 18.4308 18.2602 18.3067 18.2614C18.0191 16.9964 16.8875 16.0522 15.5355 16.0522C14.0959 16.0522 12.9063 17.1226 12.7192 18.5109C12.4801 18.5132 12.2406 18.5145 12.0005 18.5145C11.1926 18.5145 10.3907 18.5007 9.59524 18.4784C9.39404 17.1059 8.21184 16.0522 6.78354 16.0522C5.43844 16.0522 4.31161 16.9867 4.01684 18.2419C3.42677 18.2059 3.17378 17.9735 3.02097 17.6951C2.82623 17.3402 2.75049 16.8156 2.75049 16.1776ZM5.46683 19.1543C5.47215 19.1236 5.47562 19.0922 5.47711 19.0602C5.48126 18.9709 5.46961 18.8845 5.44464 18.8037C5.49114 18.1048 6.07281 17.5522 6.78354 17.5522C7.52465 17.5522 8.12544 18.153 8.12544 18.8941C8.12544 19.6353 7.52465 20.236 6.78354 20.236C6.13143 20.236 5.58796 19.7709 5.46683 19.1543ZM15.5355 17.5522C16.2766 17.5522 16.8774 18.153 16.8774 18.8941C16.8774 19.6353 16.2766 20.236 15.5355 20.236C14.7944 20.236 14.1936 19.6353 14.1936 18.8941C14.1936 18.153 14.7944 17.5522 15.5355 17.5522Z" fill="#0033CC"/>
</svg>
