<svg width="24" height="24" viewBox="0 0 24 24" fill="none" xmlns="http://www.w3.org/2000/svg">
<path fill-rule="evenodd" clip-rule="evenodd" d="M5.28931 2.61124C5.83966 2.04504 6.59099 1.75781 7.35005 1.75781H17.1957C18.1222 1.75781 19.0125 2.18436 19.5752 2.943C19.9617 3.46396 20.4192 4.10929 20.7947 4.74269C21.1512 5.34419 21.504 6.04729 21.5689 6.65394C21.6713 7.61009 21.2892 8.4108 20.6832 8.98111C20.0923 9.53721 19.2914 9.87827 18.48 10.0076C17.334 10.1902 15.9594 9.96078 15.0277 9.08586C14.5144 9.75465 13.7533 10.1618 12.9639 10.3374V13.2578H20.2373C20.6472 13.2578 20.9795 13.5901 20.9795 14C20.9795 15.9143 20.2574 17.8551 19.1758 19.0101C19.1938 19.1353 19.2031 19.2633 19.2031 19.3936C19.2031 20.8692 18.0069 22.0654 16.5312 22.0654C15.4593 22.0654 14.5349 21.4342 14.1092 20.5232C12.7705 20.6126 11.3843 20.597 10.0652 20.4823C9.6484 21.4153 8.71238 22.0654 7.62451 22.0654C6.14888 22.0654 4.95264 20.8692 4.95264 19.3936C4.95264 19.2502 4.96393 19.1094 4.98568 18.9721C4.3635 18.3182 3.99397 17.4404 3.7763 16.6275C3.51832 15.6639 3.4428 14.6758 3.46866 13.9727C3.48333 13.5737 3.81106 13.2578 4.21034 13.2578H11.4795V10.4023C10.5836 10.2851 9.6815 9.88491 9.08284 9.15849C8.8698 9.3298 8.63485 9.4722 8.39437 9.58708C7.72691 9.90594 6.92831 10.0597 6.14984 10.033C5.37263 10.0064 4.55933 9.7973 3.89482 9.3281C3.21789 8.85014 2.72816 8.12239 2.60277 7.1521C2.52026 6.69464 2.65832 6.23453 2.81854 5.86819C2.9917 5.47227 3.2453 5.0651 3.51971 4.68132C4.0702 3.91144 4.7704 3.14508 5.28931 2.61124ZM13.8812 19.0504C14.0496 17.7368 15.1719 16.7217 16.5312 16.7217C17.2868 16.7217 17.9691 17.0353 18.4551 17.5394C18.9433 16.8257 19.3271 15.8235 19.4519 14.7422H4.96585C4.99724 15.2042 5.07281 15.7305 5.21018 16.2436C5.33941 16.7262 5.51301 17.1589 5.729 17.5105C6.213 17.0233 6.88353 16.7217 7.62451 16.7217C8.96989 16.7217 10.083 17.7161 10.2691 19.01C11.4477 19.1086 12.684 19.1237 13.8812 19.0504ZM8.81201 19.3936L8.812 19.3984C8.78678 19.4601 8.76951 19.5262 8.7616 19.5957C8.75588 19.6459 8.75531 19.6955 8.75947 19.7439C8.60997 20.2287 8.15839 20.5811 7.62451 20.5811C6.96867 20.5811 6.43701 20.0494 6.43701 19.3936C6.43701 18.7377 6.96867 18.2061 7.62451 18.2061C8.28035 18.2061 8.81201 18.7377 8.81201 19.3936ZM7.35005 3.24219C6.96092 3.24219 6.60365 3.38871 6.3537 3.64585C5.85456 4.15936 5.21392 4.86395 4.72718 5.54468C4.48298 5.88621 4.29388 6.19926 4.17854 6.46298C4.12138 6.59367 4.08867 6.69804 4.07322 6.7769C4.05811 6.85399 4.06356 6.8885 4.06356 6.8885V6.8885C4.06746 6.9077 4.07061 6.92708 4.07298 6.94653C4.14019 7.49726 4.39657 7.86528 4.75099 8.11553C5.12381 8.37877 5.63643 8.53017 6.20073 8.54952C6.76376 8.56884 7.32226 8.45419 7.75452 8.24769C8.19627 8.03666 8.42208 7.77468 8.49414 7.54793C8.59478 7.23127 8.89362 7.02007 9.22571 7.03092C9.5578 7.04178 9.84222 7.27203 9.92196 7.59459C10.1308 8.43942 11.0222 8.97924 12.105 8.95392C13.1728 8.92895 14.0129 8.365 14.1603 7.43112C14.2133 7.0959 14.4868 6.83928 14.8247 6.80787C15.1627 6.77647 15.4788 6.97827 15.5926 7.298C15.9443 8.2861 17.0447 8.73316 18.2464 8.54168C18.8265 8.44925 19.3337 8.21279 19.6659 7.90015C19.983 7.60171 20.1391 7.24245 20.093 6.81194C20.0657 6.5569 19.8735 6.09977 19.5178 5.49963C19.1809 4.93139 18.7586 4.33367 18.3831 3.82733C18.111 3.46054 17.6705 3.24219 17.1957 3.24219H7.35005ZM15.3438 19.3936C15.3438 18.7377 15.8754 18.2061 16.5312 18.2061C17.1871 18.2061 17.7188 18.7377 17.7188 19.3936C17.7188 20.0494 17.1871 20.5811 16.5312 20.5811C15.8754 20.5811 15.3438 20.0494 15.3438 19.3936Z" fill="#0033CC"/>
</svg>
