<svg width="24" height="24" viewBox="0 0 24 24" fill="none" xmlns="http://www.w3.org/2000/svg">
<path fill-rule="evenodd" clip-rule="evenodd" d="M3.70836 8.95514C4.51884 8.40749 5.39503 8.20923 6.04377 8.20923C7.41364 8.20923 8.34334 8.80698 8.90305 9.59601C9.43373 10.3441 9.60242 11.217 9.60242 11.8094V15.5552C9.60242 16.9318 9.0203 17.8711 8.24027 18.4412C7.49991 18.9822 6.63402 19.1554 6.04377 19.1554C5.2573 19.1554 4.13656 18.864 3.20387 18.012C2.24707 17.1379 1.5625 15.7427 1.5625 13.6823C1.5625 13.1025 1.6167 12.5755 1.71591 12.0978C1.71015 12.0512 1.70849 12.0033 1.71128 11.9547C1.86059 9.35351 2.38913 6.66146 3.94062 4.61026C5.529 2.51028 8.08899 1.20923 12.0015 1.20923C15.9203 1.20923 18.4804 2.51001 20.0669 4.61071C21.6163 6.6622 22.1409 9.35452 22.2903 11.9547C22.2929 11.9998 22.2917 12.0443 22.2869 12.0878L22.2887 12.1068L22.2893 12.1129L22.2905 12.1275L22.2947 12.1806C22.2982 12.2265 22.3031 12.2929 22.3086 12.3774C22.3195 12.5463 22.3332 12.7881 22.3441 13.0839C22.3659 13.6744 22.3772 14.4858 22.3341 15.3653C22.2911 16.2415 22.1934 17.2051 21.9906 18.0933C21.7915 18.9652 21.473 19.8485 20.9346 20.4932C19.8802 21.7559 18.2538 22.0922 17.0507 22.1587C16.4299 22.193 15.8709 22.1586 15.468 22.1162C15.2657 22.0949 15.1005 22.0713 14.9837 22.0527C14.9253 22.0433 14.8789 22.0352 14.8459 22.0291L14.8066 22.0218L14.7947 22.0194L14.7908 22.0187L14.7894 22.0184C14.7894 22.0184 14.7883 22.0181 14.9462 21.2433L14.7883 22.0181C14.3603 21.9309 14.0841 21.5133 14.1714 21.0853C14.2585 20.6577 14.6756 20.3816 15.1032 20.4682L15.1042 20.4684L15.1073 20.469L15.1305 20.4733C15.1526 20.4774 15.1873 20.4835 15.2334 20.4909C15.3257 20.5056 15.4627 20.5253 15.6337 20.5433C15.9774 20.5795 16.4487 20.608 16.9633 20.5795C18.0309 20.5205 19.0953 20.2283 19.7206 19.4794C20.0151 19.1268 20.2586 18.5503 20.436 17.7958C19.6196 18.4127 18.7054 18.6313 18.042 18.6313C17.4822 18.6313 16.661 18.4671 15.9588 17.954C15.2191 17.4133 14.667 16.5225 14.667 15.2169V11.6644C14.667 11.1026 14.827 10.2748 15.3303 9.56527C15.8611 8.81696 16.7428 8.25006 18.042 8.25006C18.6695 8.25006 19.5213 8.44563 20.3025 8.98878C20.0037 7.69386 19.5302 6.52441 18.8048 5.56393C17.5782 3.93978 15.5352 2.79085 12.0015 2.79085C8.47502 2.79085 6.43107 3.93951 5.20204 5.56438C4.48185 6.51653 4.0088 7.67397 3.70836 8.95514ZM20.7368 12.5854C20.5895 11.5082 20.1674 10.8473 19.7237 10.4419C19.1499 9.91778 18.4628 9.75006 18.042 9.75006C17.2412 9.75006 16.8104 10.0713 16.5537 10.4331C16.2695 10.8338 16.167 11.3382 16.167 11.6644V15.2169C16.167 16.0429 16.4899 16.4842 16.8439 16.7429C17.2355 17.0291 17.7268 17.1313 18.042 17.1313C18.4628 17.1313 19.1499 16.9636 19.7237 16.4394C20.2261 15.9805 20.7006 15.194 20.7803 13.8467C20.7775 13.5885 20.7713 13.3512 20.7635 13.1423C20.7554 12.9206 20.7456 12.7319 20.7368 12.5854ZM4.2706 10.5204C3.68971 11.051 3.14412 11.9969 3.14412 13.6823C3.14412 15.3677 3.68971 16.3136 4.2706 16.8442C4.87559 17.3969 5.60008 17.5738 6.04377 17.5738C6.37612 17.5738 6.89416 17.466 7.30706 17.1642C7.6803 16.8914 8.02079 16.4261 8.02079 15.5552V11.8094C8.02079 11.4654 7.91269 10.9335 7.61303 10.5111C7.34238 10.1296 6.88816 9.79085 6.04377 9.79085C5.60008 9.79085 4.87559 9.9677 4.2706 10.5204Z" fill="#0033C9"/>
</svg>
