<svg width="24" height="24" viewBox="0 0 24 24" fill="none" xmlns="http://www.w3.org/2000/svg">
<path d="M2.89481 2.49637C3.84095 1.48504 5.3285 1.25 7.22 1.25H14.78C16.6712 1.25 18.1594 1.48491 19.1044 2.49685C20.0328 3.49101 20.2449 5.03799 20.24 7.04109V11C20.24 11.4142 19.9042 11.75 19.49 11.75C19.0758 11.75 18.74 11.4142 18.74 11V7.04L18.74 7.03814C18.745 5.01161 18.4921 4.03886 18.0081 3.52065C17.5406 3.02009 16.6688 2.75 14.78 2.75H7.22C5.3315 2.75 4.45905 3.01996 3.99019 3.52113C3.50468 4.0401 3.25 5.01356 3.25 7.04V18.3C3.25 18.9074 3.33416 19.3426 3.4504 19.6281C3.56559 19.911 3.6883 19.9955 3.74793 20.0212C3.80238 20.0446 3.9299 20.0736 4.18225 19.9651C4.44169 19.8535 4.78272 19.6142 5.18214 19.1878L5.18129 19.1887L5.73 19.7L5.18214 19.1878C5.73304 18.5971 6.46164 18.2957 7.20328 18.3361C7.94497 18.3765 8.6364 18.7552 9.12 19.4L10.128 20.7473L10.1291 20.7488C10.4135 21.1237 10.7336 21.2525 10.995 21.2525C11.2567 21.2525 11.5773 21.1234 11.862 20.7473C12.112 20.4171 12.5824 20.352 12.9127 20.602C13.2429 20.852 13.308 21.3224 13.058 21.6527C12.5327 22.3466 11.7933 22.7525 10.995 22.7525C10.1967 22.7525 9.45733 22.3466 8.93202 21.6527L8.92947 21.6493L7.92 20.3C7.6836 19.9848 7.39003 19.8485 7.12172 19.8339C6.85374 19.8193 6.54771 19.9226 6.27871 20.2113L6.27742 20.2127C5.79203 20.731 5.28697 21.1228 4.77494 21.343C4.25572 21.5664 3.68637 21.6279 3.15457 21.3988C2.62795 21.172 2.27503 20.719 2.06116 20.1938C1.84834 19.6711 1.75 19.0276 1.75 18.3V7.04C1.75 5.03644 1.96532 3.4899 2.89481 2.49637Z" fill="#0033C9"/>
<path d="M6.25 7C6.25 6.58579 6.58579 6.25 7 6.25H15C15.4142 6.25 15.75 6.58579 15.75 7C15.75 7.41421 15.4142 7.75 15 7.75H7C6.58579 7.75 6.25 7.41421 6.25 7Z" fill="#0033C9"/>
<path d="M8 10.25C7.58579 10.25 7.25 10.5858 7.25 11C7.25 11.4142 7.58579 11.75 8 11.75H14C14.4142 11.75 14.75 11.4142 14.75 11C14.75 10.5858 14.4142 10.25 14 10.25H8Z" fill="#0033C9"/>
<path d="M19.25 17C19.25 16.5858 18.9142 16.25 18.5 16.25C18.0858 16.25 17.75 16.5858 17.75 17V17.75H17C16.5858 17.75 16.25 18.0858 16.25 18.5C16.25 18.9142 16.5858 19.25 17 19.25H18.5C18.9142 19.25 19.25 18.9142 19.25 18.5V17Z" fill="#0033C9"/>
<path fill-rule="evenodd" clip-rule="evenodd" d="M13.25 18C13.25 15.3758 15.3758 13.25 18 13.25C20.6242 13.25 22.75 15.3758 22.75 18C22.75 18.8885 22.5017 19.7327 22.0615 20.4486C21.2406 21.8246 19.732 22.75 18 22.75C16.268 22.75 14.7594 21.8246 13.9385 20.4486C13.4983 19.7327 13.25 18.8885 13.25 18ZM18 14.75C16.2042 14.75 14.75 16.2042 14.75 18C14.75 18.6094 14.9205 19.1833 15.2184 19.6663L15.2247 19.6765C15.7845 20.6177 16.8141 21.25 18 21.25C19.1859 21.25 20.2156 20.6177 20.7754 19.6766L20.7816 19.6663C21.0794 19.1833 21.25 18.6094 21.25 18C21.25 16.2042 19.7958 14.75 18 14.75Z" fill="#0033C9"/>
</svg>
