<svg width="24" height="24" viewBox="0 0 24 24" fill="none" xmlns="http://www.w3.org/2000/svg">
<path fill-rule="evenodd" clip-rule="evenodd" d="M11.9995 1.25C11.5853 1.25 11.2495 1.58579 11.2495 2V12C11.2495 12.4142 11.5853 12.75 11.9995 12.75H21.9995C22.4137 12.75 22.7495 12.4142 22.7495 12C22.7495 6.06294 17.9366 1.25 11.9995 1.25ZM12.7495 11.25V2.77997C17.26 3.14188 20.8576 6.7395 21.2195 11.25H12.7495Z" fill="#0033C9"/>
<path d="M9.40954 4.74488C9.8154 4.66213 10.0773 4.26602 9.99457 3.86016C9.91182 3.4543 9.51571 3.19237 9.10985 3.27513C4.11889 4.2928 0.503207 9.09922 1.37923 14.5392L1.37953 14.5411C2.05143 18.6483 5.35026 21.9485 9.45949 22.6103C14.9222 23.4973 19.7285 19.8585 20.735 14.8477C20.8166 14.4416 20.5535 14.0463 20.1474 13.9647C19.7413 13.8831 19.346 14.1462 19.2644 14.5523C18.4109 18.8015 14.3372 21.8827 9.6999 21.1297L9.69887 21.1295C6.22887 20.571 3.42836 17.7718 2.86 14.2998C2.11662 9.6802 5.1808 5.60714 9.40954 4.74488Z" fill="#0033C9"/>
</svg>
