<svg width="24" height="24" viewBox="0 0 24 24" fill="none" xmlns="http://www.w3.org/2000/svg">
<path fill-rule="evenodd" clip-rule="evenodd" d="M10.9572 3.36432C11.3207 3.48052 11.6698 3.68211 12.0003 3.96419C12.3308 3.68211 12.6799 3.48051 13.0434 3.36432C13.639 3.17389 14.2211 3.23067 14.7217 3.46561C15.688 3.91915 16.2752 4.98571 16.2906 6.03707L16.2907 6.04807C16.2907 7.5438 15.4142 8.82216 14.5531 9.67831C14.1124 10.1165 13.6454 10.4754 13.2313 10.7295C13.0246 10.8563 12.821 10.9633 12.6319 11.041C12.4619 11.1109 12.2336 11.187 12.0003 11.187C11.767 11.187 11.5387 11.1109 11.3687 11.041C11.1796 10.9633 10.976 10.8563 10.7693 10.7295C10.3552 10.4754 9.88818 10.1165 9.44748 9.67831C8.58643 8.82215 7.70995 7.5438 7.70995 6.04807L7.71003 6.03707C7.72546 4.98571 8.31258 3.91916 9.27893 3.46561C9.7795 3.23067 10.3616 3.17389 10.9572 3.36432ZM10.5051 8.61463C9.76673 7.88044 9.21224 6.96659 9.20995 6.05374C9.22026 5.48819 9.54715 4.99672 9.91624 4.82349C10.084 4.74477 10.2756 4.7212 10.5004 4.79308C10.7358 4.86833 11.055 5.06488 11.4173 5.51259C11.5597 5.68857 11.7739 5.79081 12.0003 5.79081C12.2267 5.79081 12.4409 5.68857 12.5833 5.51259C12.9456 5.06488 13.2648 4.86833 13.5002 4.79308C13.725 4.7212 13.9166 4.74477 14.0844 4.82349C14.4535 4.99672 14.7804 5.4882 14.7907 6.05375C14.7884 6.96659 14.2339 7.88045 13.4955 8.61463C13.1357 8.97237 12.76 9.25877 12.4468 9.45099C12.2898 9.54729 12.1587 9.61372 12.0616 9.65362C12.0362 9.66408 12.0158 9.67157 12.0003 9.67687C11.9848 9.67157 11.9644 9.66408 11.939 9.65362C11.8419 9.61372 11.7108 9.54729 11.5538 9.45099C11.2406 9.25877 10.8649 8.97237 10.5051 8.61463Z" fill="#0033C9"/>
<path d="M3.53151 6.76074C4.11381 6.76074 4.67227 6.99206 5.08402 7.40381C5.49577 7.81556 5.72709 8.37401 5.72709 8.95632V11.7744C5.90998 11.7242 6.10198 11.6973 6.29961 11.6973C6.87504 11.6973 7.32041 11.9262 7.66215 12.1886C7.90314 12.3736 8.1351 12.6137 8.31362 12.7985L8.31365 12.7985L8.31366 12.7985C8.3638 12.8504 8.40971 12.8979 8.45043 12.9386L8.4505 12.9387C9.94616 14.4348 10.7864 16.4636 10.7864 18.5791V19.7992C10.7864 20.2134 10.4506 20.5492 10.0364 20.5492C9.62221 20.5492 9.28642 20.2134 9.28642 19.7992V18.5791C9.2864 16.8614 8.60417 15.2141 7.38977 13.9993L7.3897 13.9992C7.30814 13.9177 7.2371 13.8443 7.1723 13.7774C7.01461 13.6145 6.89389 13.4899 6.74862 13.3783C6.5767 13.2463 6.44471 13.1973 6.29961 13.1973C5.92654 13.1973 5.60434 13.5195 5.60434 13.8925C5.60434 14.0769 5.67756 14.2538 5.80791 14.3842L5.80799 14.3843L6.82994 15.4062C7.12283 15.6991 7.12283 16.174 6.82994 16.4669C6.53704 16.7598 6.06217 16.7598 5.76928 16.4669L4.74717 15.4448C4.33556 15.0331 4.10434 14.4747 4.10434 13.8925C4.10434 13.6417 4.14764 13.4 4.22709 13.1744V8.95632C4.22709 8.77184 4.15381 8.59492 4.02336 8.46447C3.89292 8.33403 3.71599 8.26074 3.53151 8.26074C3.34703 8.26074 3.17011 8.33402 3.03967 8.46447C2.90922 8.59491 2.83594 8.77184 2.83594 8.95632V15.1724C2.83589 15.6578 3.00081 16.1289 3.30366 16.5083L5.55876 19.3315C5.81727 19.6551 5.76447 20.1271 5.44083 20.3856C5.11719 20.6441 4.64526 20.5913 4.38675 20.2677L2.13153 17.4443C1.61641 16.7991 1.33587 15.9979 1.33594 15.1723V8.95632C1.33594 8.37402 1.56725 7.81556 1.97901 7.40381C2.39076 6.99206 2.94921 6.76074 3.53151 6.76074Z" fill="#0033C9"/>
<path d="M20.5786 6.76074C19.9963 6.76074 19.4379 6.99206 19.0261 7.40381C18.6144 7.81556 18.383 8.37401 18.383 8.95632V11.7744C18.2002 11.7242 18.0081 11.6973 17.8105 11.6973C17.2351 11.6973 16.7897 11.9262 16.448 12.1886C16.207 12.3736 15.975 12.6137 15.7965 12.7985C15.7463 12.8504 15.7004 12.8979 15.6597 12.9386L15.6596 12.9387C14.164 14.4348 13.3237 16.4636 13.3237 18.5791V19.7992C13.3237 20.2134 13.6595 20.5492 14.0737 20.5492C14.4879 20.5492 14.8237 20.2134 14.8237 19.7992V18.5791C14.8237 16.8614 15.506 15.2141 16.7204 13.9993L16.7204 13.9992C16.802 13.9177 16.873 13.8443 16.9378 13.7774C17.0955 13.6145 17.2162 13.4899 17.3615 13.3783C17.5334 13.2463 17.6654 13.1973 17.8105 13.1973C18.1836 13.1973 18.5058 13.5195 18.5058 13.8925C18.5058 14.0769 18.4326 14.2538 18.3022 14.3842L17.2802 15.4062C16.9873 15.6991 16.9873 16.174 17.2802 16.4669C17.5731 16.7598 18.048 16.7598 18.3409 16.4669L19.363 15.4448C19.7746 15.0331 20.0058 14.4747 20.0058 13.8925C20.0058 13.6417 19.9625 13.4 19.883 13.1744V8.95632C19.883 8.77184 19.9563 8.59492 20.0868 8.46447C20.2172 8.33403 20.3941 8.26074 20.5786 8.26074C20.7631 8.26074 20.94 8.33402 21.0705 8.46447C21.2009 8.59491 21.2742 8.77184 21.2742 8.95632V15.1724C21.2742 15.6578 21.1093 16.1289 20.8065 16.5083L18.5514 19.3315C18.2929 19.6551 18.3457 20.1271 18.6693 20.3856C18.9929 20.6441 19.4649 20.5913 19.7234 20.2677L21.9786 17.4443C22.4937 16.7991 22.7743 15.9979 22.7742 15.1723V8.95632C22.7742 8.37402 22.5429 7.81556 22.1311 7.40381C21.7194 6.99206 21.1609 6.76074 20.5786 6.76074Z" fill="#0033C9"/>
</svg>
