<svg width="24" height="24" viewBox="0 0 24 24" fill="none" xmlns="http://www.w3.org/2000/svg">
<path d="M21.5416 8.95357C15.7517 4.48211 8.24842 4.48211 2.45845 8.95357C2.13062 9.20675 1.65962 9.14623 1.40644 8.81839C1.15327 8.49056 1.21379 8.01956 1.54162 7.76638C7.87165 2.87784 16.1284 2.87784 22.4585 7.76638C22.7863 8.01956 22.8468 8.49056 22.5936 8.81839C22.3405 9.14623 21.8694 9.20675 21.5416 8.95357Z" fill="#0033C9"/>
<path d="M18.6418 12.4337C14.6119 9.32212 9.39853 9.32212 5.36854 12.4337C5.04068 12.6868 4.56969 12.6262 4.31655 12.2984C4.06341 11.9705 4.12398 11.4995 4.45184 11.2464C9.02185 7.71789 14.9885 7.71789 19.5585 11.2464C19.8864 11.4995 19.947 11.9705 19.6938 12.2984C19.4407 12.6262 18.9697 12.6868 18.6418 12.4337Z" fill="#0033C9"/>
<path d="M16.5567 15.9443C13.8407 13.9539 10.4179 13.9012 7.66606 15.7796C7.32395 16.0131 6.8573 15.9251 6.62378 15.583C6.39027 15.2408 6.4783 14.7742 6.82041 14.5407C10.0993 12.3026 14.2163 12.3694 17.4434 14.7344C17.7775 14.9792 17.8499 15.4486 17.605 15.7827C17.3602 16.1168 16.8908 16.1891 16.5567 15.9443Z" fill="#0033C9"/>
<path d="M10.25 18.5C10.25 17.5335 11.0335 16.75 12 16.75C12.9665 16.75 13.75 17.5335 13.75 18.5C13.75 19.4665 12.9665 20.25 12 20.25C11.0335 20.25 10.25 19.4665 10.25 18.5Z" fill="#0033C9"/>
</svg>
