<svg width="24" height="24" viewBox="0 0 24 24" fill="none" xmlns="http://www.w3.org/2000/svg">
<path fill-rule="evenodd" clip-rule="evenodd" d="M2.81615 4.59861C2.67704 4.21285 2.87354 3.78688 3.25729 3.64232L4.93621 3.00988C5.2547 2.88991 5.61405 2.99943 5.81149 3.27665C5.86709 3.35471 6.00618 3.49591 6.18888 3.58282C6.35223 3.66052 6.53022 3.68828 6.74072 3.60899C6.95121 3.5297 7.06666 3.3914 7.13814 3.22524C7.2181 3.03939 7.22946 2.84152 7.21974 2.74617C7.18521 2.40759 7.38299 2.0882 7.70148 1.96822L9.47916 1.29858C9.864 1.15361 10.2938 1.34559 10.4427 1.72895L10.8446 2.76402C11.0209 2.74206 11.1509 2.66029 11.2577 2.54818C11.3973 2.4017 11.4767 2.22011 11.5007 2.12733C11.586 1.79771 11.8827 1.56693 12.2232 1.5653L14.322 1.55521C14.5215 1.55425 14.7132 1.63285 14.8547 1.7736C14.9961 1.91435 15.0756 2.10567 15.0756 2.3052V9.0011H16.424L17.1363 5.74664C17.495 4.10819 18.9459 2.94043 20.6232 2.94043H21.3633C21.7835 2.94043 22.1242 3.28108 22.1242 3.7013C22.1242 4.12151 21.7835 4.46216 21.3633 4.46216H20.6232C19.661 4.46216 18.8286 5.13207 18.6229 6.07201C18.1453 8.25397 16.5675 15.0064 16.5675 15.0064C16.5055 15.2996 16.4445 15.5728 16.3826 15.8227C16.0751 17.0656 15.046 17.8923 13.8128 18.0207C11.9949 18.2099 9.23727 18.1934 7.26258 18.0084C5.87601 17.8784 4.74709 16.9809 4.31576 15.653C3.92872 14.4615 3.48935 12.8942 3.16857 11.7109C2.87006 10.6099 3.47834 9.53477 4.45751 9.14993L2.81615 4.59861ZM5.95081 9.0011H11.6575L9.31315 2.96401L8.69253 3.1978C8.66208 3.39613 8.60638 3.60803 8.51604 3.81803C8.31395 4.28778 7.92808 4.76461 7.26949 5.0127C6.6109 5.26079 6.00633 5.15705 5.54454 4.93738C5.3381 4.83918 5.15643 4.71668 5.0027 4.58773L4.47806 4.78536L5.90613 8.74524C5.93661 8.82976 5.95098 8.91617 5.95081 9.0011ZM13.2666 9.0011H13.5756V3.05882L12.7246 3.0629C12.6271 3.23821 12.5013 3.41746 12.3437 3.58289C12.1062 3.83219 11.7894 4.05554 11.3929 4.17599L13.2666 9.0011ZM5.2495 10.5228C4.82709 10.5228 4.53009 10.9174 4.63729 11.3128C4.9572 12.4928 5.38837 14.0294 5.76306 15.1829C6.00568 15.9299 6.61911 16.4197 7.40459 16.4933C9.29699 16.6706 11.9529 16.6843 13.6552 16.5071C14.2914 16.4409 14.7615 16.0387 14.9055 15.4571C15.0376 14.9231 15.1664 14.2728 15.3204 13.4954C15.3522 13.3348 15.3851 13.1687 15.4193 12.9972C15.567 12.2566 15.7367 11.4274 15.9463 10.5228H5.2495Z" fill="#0033CC"/>
<path d="M3.7876 20.816C3.7876 19.9935 4.4543 19.3268 5.27672 19.3268C6.09915 19.3268 6.76585 19.9935 6.76585 20.816C6.76585 21.6384 6.09915 22.3051 5.27672 22.3051C4.4543 22.3051 3.7876 21.6384 3.7876 20.816Z" fill="#0033CC"/>
<path d="M14.744 19.3268C13.9216 19.3268 13.2549 19.9935 13.2549 20.816C13.2549 21.6384 13.9216 22.3051 14.744 22.3051C15.5664 22.3051 16.2331 21.6384 16.2331 20.816C16.2331 19.9935 15.5664 19.3268 14.744 19.3268Z" fill="#0033CC"/>
</svg>
