<svg width="24" height="24" viewBox="0 0 24 24" fill="none" xmlns="http://www.w3.org/2000/svg">
<path fill-rule="evenodd" clip-rule="evenodd" d="M10.6416 1.25C10.2274 1.25 9.8916 1.58579 9.8916 2C9.8916 2.41421 10.2274 2.75 10.6416 2.75H12.1103C12.0944 2.81081 12.0859 2.87463 12.0859 2.94043V4.97776C12.0859 4.98881 12.0862 4.99981 12.0866 5.01074H8.13435C5.98908 5.01074 4.25 6.74982 4.25 8.89509V13.2832C4.25 14.2167 5.00678 14.9735 5.94031 14.9735H8.24965C9.18318 14.9735 9.93996 14.2167 9.93996 13.2832V11.3816L18.9814 11.3816V11.8735C18.9814 12.2877 19.3172 12.6235 19.7314 12.6235C20.1457 12.6235 20.4814 12.2877 20.4814 11.8735V3.88086C20.4814 3.46665 20.1457 3.13086 19.7314 3.13086C19.3172 3.13086 18.9814 3.46665 18.9814 3.88086V5.01074H13.5852C13.5857 4.99981 13.5859 4.98881 13.5859 4.97776V2.94043C13.5859 2.87463 13.5775 2.81081 13.5615 2.75H15.3431C15.7573 2.75 16.0931 2.41421 16.0931 2C16.0931 1.58579 15.7573 1.25 15.3431 1.25H10.6416ZM18.9814 9.8816V6.51074H8.13435C6.81751 6.51074 5.75 7.57825 5.75 8.89509V13.2832C5.75 13.3883 5.8352 13.4735 5.94031 13.4735H8.24965C8.35475 13.4735 8.43996 13.3883 8.43996 13.2832V11.2585C8.43996 10.498 9.0564 9.8816 9.81683 9.8816L18.9814 9.8816Z" fill="#0033CC"/>
<path fill-rule="evenodd" clip-rule="evenodd" d="M5.85027 16.7232C6.48606 16.0923 7.51393 16.0923 8.14973 16.7232C8.78495 17.3536 9.75 18.5644 9.75 20.1734C9.75 20.8798 9.44212 21.5419 8.91999 22.0188C8.40014 22.4936 7.7085 22.75 7 22.75C6.2915 22.75 5.59986 22.4936 5.08001 22.0188C4.55788 21.5419 4.25 20.8798 4.25 20.1734C4.25 18.5644 5.21505 17.3536 5.85027 16.7232ZM7.09314 17.7879C7.04219 17.7374 6.95781 17.7374 6.90686 17.7879C6.36778 18.3229 5.75 19.1678 5.75 20.1734C5.75 20.4359 5.86354 20.703 6.09156 20.9112C6.32186 21.1215 6.64763 21.25 7 21.25C7.35237 21.25 7.67814 21.1215 7.90844 20.9112C8.13646 20.703 8.25 20.4359 8.25 20.1734C8.25 19.1678 7.63222 18.3229 7.09314 17.7879Z" fill="#0033CC"/>
</svg>
