<svg width="24" height="24" viewBox="0 0 24 24" fill="none" xmlns="http://www.w3.org/2000/svg">
<path fill-rule="evenodd" clip-rule="evenodd" d="M9.59646 1.91437L9.59402 1.916L3.60862 5.84295C2.29696 6.70373 1.7108 8.15057 1.85015 9.53514L1.85015 15C1.85015 15.4142 2.18594 15.75 2.60015 15.75C3.01437 15.75 3.35015 15.4142 3.35015 15V12.2429C3.43291 12.3069 3.51904 12.3683 3.60855 12.4271L4.86994 13.2547V17.77C4.86994 18.5908 5.18259 19.3984 5.65124 20.0494C6.1198 20.7004 6.78582 21.2525 7.56277 21.5115L10.7604 22.5741C11.1375 22.6953 11.5879 22.745 12.0037 22.745C12.4188 22.745 12.8686 22.6954 13.2432 22.5728L13.2464 22.5718L16.4364 21.5118C17.2134 21.2528 17.8801 20.7004 18.3486 20.0494C18.8173 19.3984 19.1299 18.5908 19.1299 17.77L19.1203 13.2504L20.38 12.4281C22.7634 10.8721 22.7634 7.38798 20.38 5.83202L14.362 1.90333L14.361 1.90266C13.6722 1.45017 12.8052 1.24734 11.9787 1.24879C11.1528 1.25023 10.2856 1.45584 9.59646 1.91437ZM3.35015 9.44939C3.43591 10.1177 3.79637 10.7561 4.43154 11.173L10.422 15.1033C10.8131 15.3604 11.376 15.5125 11.98 15.5125C12.5841 15.5125 13.147 15.3604 13.538 15.1033L19.5601 11.172C21.0367 10.208 21.0367 8.05209 19.56 7.08805L13.5401 3.15806L13.538 3.15674C13.1471 2.8997 12.5845 2.74773 11.9814 2.74878C11.3783 2.74984 10.8166 2.90376 10.4261 3.16409L4.43147 7.09712C3.77425 7.52845 3.41117 8.197 3.3422 8.89044C3.34744 8.92621 3.35015 8.9628 3.35015 9.00003V9.44939ZM6.36994 17.77V14.2388L9.59804 16.3567C10.287 16.8095 11.1542 17.0125 11.98 17.0125C12.8056 17.0125 13.6722 16.8099 14.361 16.3574L14.362 16.3567L17.6224 14.2283L17.6299 17.77C17.6298 18.219 17.4524 18.7269 17.1312 19.1731C16.8099 19.6196 16.386 19.9473 15.963 20.0884L12.7767 21.1472L12.7754 21.1476C12.5999 21.2048 12.3203 21.245 12.0037 21.245C11.6887 21.245 11.4055 21.2052 11.2225 21.147L8.03711 20.0885C7.61412 19.9474 7.19003 19.6196 6.86864 19.1731C6.54729 18.7267 6.36994 18.2192 6.36994 17.77Z" fill="#0033C9"/>
</svg>
