<svg width="24" height="24" viewBox="0 0 24 24" fill="none" xmlns="http://www.w3.org/2000/svg">
<path d="M7.93066 9.26199C8.34488 9.26199 8.68066 9.59778 8.68066 10.012V11.5244C8.68066 11.9386 8.34488 12.2744 7.93066 12.2744C7.51645 12.2744 7.18066 11.9386 7.18066 11.5244V10.012C7.18066 9.59778 7.51645 9.26199 7.93066 9.26199Z" fill="#0033C9"/>
<path d="M13.3247 6.38438C12.9105 6.38438 12.5747 6.72017 12.5747 7.13438C12.5747 7.5486 12.9105 7.88438 13.3247 7.88438H15.9218C16.336 7.88438 16.6718 7.5486 16.6718 7.13438C16.6718 6.72017 16.336 6.38438 15.9218 6.38438H13.3247Z" fill="#0033C9"/>
<path fill-rule="evenodd" clip-rule="evenodd" d="M7.26338 1.35144C7.66911 1.22248 8.12347 1.21829 8.61464 1.32855C10.2568 1.69721 11.2198 2.21189 11.8545 2.88478C12.7539 2.82321 14.0491 2.74741 15.5027 3.05581C17.0268 3.37915 18.7087 4.11756 20.3631 5.67382C20.484 5.53984 20.6122 5.38927 20.7394 5.22688C21.0773 4.79535 21.3743 4.32289 21.5277 3.88839C21.6655 3.49779 22.0939 3.2929 22.4845 3.43076C22.8751 3.56862 23.08 3.99702 22.9421 4.38762C22.7119 5.0399 22.3057 5.65955 21.9204 6.15165C21.7444 6.37639 21.5658 6.58335 21.3984 6.76448C22.9764 8.62623 23.2763 10.7235 23.0646 12.5098C22.8829 14.0431 22.3237 15.3757 21.8451 16.2131C22.1848 17.0045 22.4588 18.0149 22.4261 19.0158C22.3867 20.2225 21.8887 21.4708 20.5005 22.1854C19.184 22.8629 17.9599 22.7351 17.0096 22.1673C16.3523 21.7745 15.8496 21.1869 15.5285 20.5662C14.894 20.7165 14.1511 20.7834 13.4891 20.797C12.9997 20.807 12.5174 20.7886 12.1018 20.7422C11.9883 20.7295 11.8719 20.714 11.7565 20.6946C11.4811 21.2422 11.104 21.7606 10.5704 22.1431C9.80738 22.69 8.82907 22.8853 7.62949 22.6546C6.55378 22.4477 5.75461 21.7636 5.28668 20.963C4.9341 20.3598 4.74566 19.649 4.78802 18.9663L2.74315 17.853C1.83365 17.3578 1.26758 16.4051 1.26758 15.3696V11.7295C1.26758 10.9969 1.58603 10.3552 2.16446 9.9177C2.57115 9.61007 3.07752 9.4234 3.64271 9.34483C3.75186 8.91262 3.95066 8.41599 4.23082 7.9152C4.64286 7.17865 5.26383 6.37182 6.14377 5.66257C6.02396 5.02954 5.91417 4.31357 5.84802 3.88225L5.83119 3.77259C5.82762 3.74938 5.82514 3.72602 5.82376 3.70259C5.79703 3.24816 5.89152 2.55999 6.3169 2.01265C6.54022 1.72529 6.8526 1.48201 7.26338 1.35144ZM7.31985 3.58423L7.3296 3.64774C7.41437 4.20005 7.56062 5.15291 7.7049 5.81662C7.76874 6.11026 7.65114 6.41366 7.40608 6.58757C6.51626 7.21906 5.91523 7.97659 5.5399 8.64752C5.14898 9.34632 5.04182 9.8777 5.04488 10.037C5.04876 10.2383 4.97147 10.4328 4.83043 10.5766C4.68938 10.7204 4.49644 10.8014 4.29502 10.8014C3.68405 10.8014 3.29066 10.9466 3.06936 11.114C2.86866 11.2658 2.76758 11.4632 2.76758 11.7295V15.3696C2.76758 15.8558 3.03336 16.3031 3.4604 16.5356L5.97217 17.9031C6.28156 18.0716 6.43202 18.4326 6.3338 18.7709C6.22161 19.1574 6.28876 19.7049 6.58169 20.2061C6.86691 20.6941 7.32633 21.0688 7.91276 21.1816C8.79084 21.3504 9.33083 21.1861 9.69652 20.9239C10.0884 20.6431 10.389 20.1721 10.6241 19.5393C10.6982 19.3396 10.8538 19.1809 11.0519 19.1028C11.25 19.0246 11.472 19.0344 11.6625 19.1296C11.711 19.1538 11.9013 19.2105 12.2682 19.2515C12.6066 19.2892 13.0218 19.3063 13.4584 19.2973C14.365 19.2787 15.2204 19.1511 15.6551 18.9562C15.8537 18.8672 16.0811 18.8688 16.2784 18.9606C16.4756 19.0524 16.6233 19.2254 16.6831 19.4346C16.8367 19.9723 17.2341 20.5541 17.779 20.8797C18.2831 21.1809 18.9568 21.2928 19.814 20.8517C20.5993 20.4475 20.9004 19.7779 20.9269 18.9669C20.9546 18.1204 20.669 17.1871 20.3255 16.4999C20.2059 16.2608 20.2227 15.9761 20.3695 15.7526C20.7768 15.1328 21.3962 13.8421 21.575 12.3333C21.7514 10.8443 21.4976 9.18243 20.2275 7.70312C20.0915 7.54478 19.9556 7.39393 19.8198 7.25021C18.2099 5.54657 16.5984 4.82165 15.1914 4.52315C13.9039 4.24999 12.7707 4.32662 11.8649 4.38787C11.7651 4.39462 11.6679 4.4012 11.5737 4.40708C11.3216 4.42284 11.0785 4.31063 10.9269 4.10854C10.5934 3.66386 9.98574 3.17368 8.28608 2.79212C7.99413 2.72658 7.8172 2.74936 7.71775 2.78097C7.62334 2.81098 7.55664 2.86187 7.50128 2.9331C7.37514 3.09542 7.31353 3.36448 7.31985 3.58423Z" fill="#0033C9"/>
</svg>
