<svg width="24" height="24" viewBox="0 0 24 24" fill="none" xmlns="http://www.w3.org/2000/svg">
<path d="M7.16076 1.56334C7.57259 1.51897 7.94241 1.81687 7.98677 2.2287C8.03114 2.64053 7.73324 3.01035 7.32141 3.05471C6.7652 3.11462 6.2134 3.1786 5.6632 3.24239L5.54973 3.25554C4.34747 3.39489 3.38732 4.35605 3.25265 5.55562C3.18714 6.13911 3.1215 6.72478 3.06055 7.31518C3.018 7.7272 2.64951 8.02672 2.23748 7.98418C1.82546 7.94164 1.52594 7.57314 1.56848 7.16112C1.63023 6.56308 1.69659 5.97098 1.76201 5.38827C1.97495 3.49162 3.48433 1.98488 5.37703 1.76552L5.49165 1.75223C6.04063 1.68858 6.59821 1.62393 7.16076 1.56334Z" fill="#0033C9"/>
<path d="M17.0203 1.56334C16.6084 1.51897 16.2386 1.81687 16.1943 2.2287C16.1499 2.64053 16.4478 3.01035 16.8596 3.05471C17.4159 3.11463 17.9677 3.17861 18.5179 3.2424L18.6313 3.25554C19.8336 3.39489 20.7937 4.35605 20.9284 5.55562C20.9939 6.13911 21.0595 6.72478 21.1205 7.31518C21.163 7.7272 21.5315 8.02672 21.9435 7.98418C22.3556 7.94164 22.6551 7.57314 22.6126 7.16112C22.5508 6.56308 22.4844 5.97098 22.419 5.38827C22.2061 3.49162 20.6967 1.98488 18.804 1.76552L18.6894 1.75223C18.1405 1.68859 17.5827 1.62393 17.0203 1.56334Z" fill="#0033C9"/>
<path fill-rule="evenodd" clip-rule="evenodd" d="M9.02257 5.2973C8.50864 5.2973 8.01158 5.33935 7.54561 5.38908C6.42017 5.50917 5.5148 6.41322 5.3995 7.54236C5.35219 8.00575 5.31293 8.49821 5.31293 9.00695C5.31293 9.51568 5.35219 10.0081 5.3995 10.4715C5.5148 11.6007 6.42017 12.5047 7.54561 12.6248C8.01158 12.6745 8.50864 12.7166 9.02257 12.7166C9.5365 12.7166 10.0336 12.6745 10.4995 12.6248C11.625 12.5047 12.5303 11.6007 12.6456 10.4715C12.693 10.0081 12.7322 9.51568 12.7322 9.00695C12.7322 8.49821 12.693 8.00575 12.6456 7.54236C12.5303 6.41322 11.625 5.50917 10.4995 5.38908C10.0336 5.33935 9.5365 5.2973 9.02257 5.2973ZM7.70477 6.88061C8.15084 6.83301 8.58699 6.7973 9.02257 6.7973C9.45816 6.7973 9.8943 6.83301 10.3404 6.88061C10.764 6.92581 11.1104 7.2741 11.1534 7.69473C11.1986 8.1376 11.2322 8.57234 11.2322 9.00695C11.2322 9.44155 11.1986 9.87629 11.1534 10.3192C11.1104 10.7398 10.764 11.0881 10.3404 11.1333C9.8943 11.1809 9.45816 11.2166 9.02257 11.2166C8.58699 11.2166 8.15084 11.1809 7.70477 11.1333C7.28117 11.0881 6.93469 10.7398 6.89175 10.3192C6.84653 9.87629 6.81293 9.44155 6.81293 9.00695C6.81293 8.57234 6.84653 8.1376 6.89174 7.69473C6.93469 7.2741 7.28117 6.92581 7.70477 6.88061Z" fill="#0033C9"/>
<path d="M16.1943 21.9279C16.2386 22.3398 16.6084 22.6376 17.0203 22.5933C17.582 22.5328 18.1388 22.4682 18.687 22.4047L18.804 22.3911C20.6967 22.1717 22.2061 20.665 22.419 18.7683C22.4844 18.1856 22.5508 17.5935 22.6126 16.9955C22.6551 16.5835 22.3556 16.215 21.9435 16.1724C21.5315 16.1299 21.163 16.4294 21.1205 16.8414C21.0595 17.4318 20.9939 18.0175 20.9284 18.601C20.7937 19.8006 19.8336 20.7617 18.6313 20.9011L18.5179 20.9142L18.5167 20.9144C17.9671 20.9781 17.4153 21.042 16.8596 21.1019C16.4478 21.1463 16.1499 21.5161 16.1943 21.9279Z" fill="#0033C9"/>
<path d="M7.98677 21.9279C7.94241 22.3398 7.57259 22.6376 7.16076 22.5933C6.59894 22.5328 6.04209 22.4682 5.49381 22.4046L5.49229 22.4045L5.37703 22.3911C3.48433 22.1717 1.97495 20.665 1.76201 18.7683C1.69659 18.1856 1.63023 17.5935 1.56848 16.9955C1.52594 16.5835 1.82546 16.215 2.23748 16.1724C2.64951 16.1299 3.018 16.4294 3.06055 16.8414C3.1215 17.4318 3.18714 18.0175 3.25265 18.601C3.38732 19.8006 4.34747 20.7617 5.54973 20.9011L5.6631 20.9142C6.21313 20.978 6.76537 21.042 7.32141 21.1019C7.73324 21.1463 8.03114 21.5161 7.98677 21.9279Z" fill="#0033C9"/>
<path d="M7.35297 15.6479C7.35297 15.2337 7.01718 14.8979 6.60297 14.8979C6.18875 14.8979 5.85297 15.2337 5.85297 15.6479L5.85297 18.1124C5.85297 18.5267 6.18875 18.8624 6.60297 18.8624H9.02218C9.4364 18.8624 9.77218 18.5267 9.77218 18.1124C9.77218 17.6982 9.4364 17.3624 9.02218 17.3624H7.35297V15.6479Z" fill="#0033C9"/>
<path d="M18.0522 18.8627C17.638 18.8627 17.3022 18.5269 17.3022 18.1127V16.3982H15.633C15.2188 16.3982 14.883 16.0624 14.883 15.6482C14.883 15.234 15.2188 14.8982 15.633 14.8982H18.0522C18.4664 14.8982 18.8022 15.234 18.8022 15.6482V18.1127C18.8022 18.5269 18.4664 18.8627 18.0522 18.8627Z" fill="#0033C9"/>
<path d="M18.0961 12.7919C18.5103 12.7919 18.8461 12.4561 18.8461 12.0419C18.8461 11.6277 18.5103 11.2919 18.0961 11.2919H15.6769C15.2627 11.2919 14.9269 11.6277 14.9269 12.0419C14.9269 12.4561 15.2627 12.7919 15.6769 12.7919H18.0961Z" fill="#0033C9"/>
<path d="M11.9824 18.8398C11.5681 18.8398 11.2324 18.504 11.2324 18.0898V15.6706C11.2324 15.2564 11.5681 14.9206 11.9824 14.9206C12.3966 14.9206 12.7324 15.2564 12.7324 15.6706V18.0898C12.7324 18.504 12.3966 18.8398 11.9824 18.8398Z" fill="#0033C9"/>
<path d="M17.3022 9.00726C17.3022 9.42148 17.638 9.75726 18.0522 9.75726C18.4664 9.75726 18.8022 9.42148 18.8022 9.00726V6.54271C18.8022 6.1285 18.4664 5.79271 18.0522 5.79271H15.633C15.2188 5.79271 14.883 6.1285 14.883 6.54271C14.883 6.95693 15.2188 7.29271 15.633 7.29271H17.3022V9.00726Z" fill="#0033C9"/>
</svg>
