<svg width="24" height="24" viewBox="0 0 24 24" fill="none" xmlns="http://www.w3.org/2000/svg">
<path fill-rule="evenodd" clip-rule="evenodd" d="M15.5137 5.74843V2.97183C15.5137 2.6815 15.7148 2.43435 15.9865 2.33205C16.6633 2.07727 17.1934 1.81003 17.7633 1.5227C18.0629 1.3717 18.3734 1.21514 18.7221 1.05193C18.8787 0.978571 19.0606 0.98338 19.2139 1.06354C19.3835 1.15222 19.5444 1.23772 19.6999 1.32032C20.4486 1.71819 21.0706 2.04872 21.9306 2.3434C22.214 2.4405 22.4276 2.69306 22.4276 2.99262V5.74843C22.4276 7.5435 20.1578 9.09484 19.0054 9.42913C17.8531 9.09484 15.5137 7.5435 15.5137 5.74843ZM17.0137 5.74843V3.53622C17.5612 3.30443 18.0609 3.05322 18.534 2.81538C18.6704 2.74685 18.8045 2.67942 18.9369 2.61389L18.9712 2.63213C19.5872 2.96003 20.1919 3.28187 20.9276 3.5721V5.74843C20.9276 6.02258 20.7273 6.48648 20.1336 7.03222C19.753 7.38203 19.334 7.64947 19.0028 7.81623C18.6601 7.64691 18.2244 7.37469 17.8292 7.02011C17.2116 6.46595 17.0137 6.00532 17.0137 5.74843Z" fill="#0033C9"/>
<path d="M11.2866 10.2934C10.8332 9.82453 10.1073 9.95279 9.66146 10.4294C9.43088 10.6759 9.18774 10.9419 8.93987 11.2174C8.21841 10.8761 7.42118 10.5533 6.87898 10.3424C6.49688 10.1938 6.03856 10.3057 5.76758 10.6061C5.45775 10.9496 5.48941 11.4306 5.84571 11.7061C6.26704 12.0318 6.84677 12.4711 7.41207 12.8705C7.42752 12.8814 7.44315 12.892 7.45896 12.9023C7.02674 13.4034 6.6313 13.8688 6.32101 14.2364C5.96373 14.1766 5.59675 14.1283 5.31175 14.0942C5.01281 14.0585 4.73907 14.2621 4.6697 14.5649C4.60032 14.8676 4.75661 15.1766 5.03928 15.2833C5.34228 15.3977 5.74568 15.5441 6.13133 15.6656C6.24885 16.0644 6.39044 16.4815 6.50109 16.7949C6.6043 17.0871 6.90313 17.2487 7.19595 17.177C7.48877 17.1053 7.68572 16.8222 7.65114 16.5131C7.61798 16.2167 7.5709 15.8346 7.51265 15.4631C7.85293 15.1484 8.28064 14.7505 8.7424 14.3156C8.78282 14.3783 8.82731 14.4381 8.8758 14.4944C9.33073 15.0235 9.8258 15.5622 10.1918 15.953C10.5013 16.2834 10.9668 16.2547 11.2569 15.8933C11.5107 15.5773 11.5599 15.093 11.3688 14.72C11.109 14.213 10.721 13.4792 10.3205 12.806C10.6133 12.5205 10.8965 12.2402 11.1575 11.9763C11.616 11.5127 11.7401 10.7622 11.2866 10.2934Z" fill="#0033C9"/>
<path fill-rule="evenodd" clip-rule="evenodd" d="M15.2869 13.2397V13.3278C15.287 15.243 15.287 17.3358 14.9548 19.1035C14.7522 20.181 13.922 21.0154 12.8631 21.2474C12.7302 21.2765 12.5983 21.3029 12.4668 21.3267V22.06C12.4668 22.4743 12.131 22.81 11.7168 22.81C11.3026 22.81 10.9668 22.4743 10.9668 22.06V21.5049C10.1764 21.556 9.33146 21.5559 8.32379 21.5559H8.21312C7.20595 21.5559 6.36134 21.556 5.57129 21.5049V22.06C5.57129 22.4743 5.2355 22.81 4.82129 22.81C4.40708 22.81 4.07129 22.4743 4.07129 22.06V21.3269C3.93945 21.303 3.80715 21.2766 3.67384 21.2474C2.61496 21.0154 1.78469 20.181 1.58218 19.1035C1.24996 17.3358 1.24998 15.243 1.25 13.3278L1.25 13.2397C1.24998 11.3246 1.24996 9.23174 1.58218 7.46401C1.78469 6.38652 2.61496 5.55208 3.67384 5.32015C4.01851 5.24466 4.35638 5.18763 4.69702 5.14456V3.25369C4.69702 2.14708 5.59411 1.25 6.70072 1.25L9.52153 1.25C10.6281 1.25 11.5252 2.14709 11.5252 3.25369V5.10871C11.9738 5.15437 12.4126 5.22149 12.8631 5.32015C13.922 5.55208 14.7523 6.38652 14.9548 7.46401C15.287 9.23173 15.287 11.3246 15.2869 13.2397ZM13.7869 13.2838C13.7869 11.3176 13.7843 9.35745 13.4806 7.74107C13.3915 7.26729 13.0252 6.89121 12.5422 6.78542C11.3064 6.51474 10.1678 6.5116 8.26847 6.5116C6.36912 6.5116 5.23055 6.51474 3.99477 6.78542C3.51177 6.89121 3.14542 7.26728 3.05637 7.74107C2.75259 9.35745 2.75 11.3176 2.75 13.2838C2.75 15.25 2.75259 17.2101 3.05637 18.8264C3.14542 19.3002 3.51176 19.6763 3.99477 19.7821C5.23055 20.0528 6.36912 20.0559 8.26847 20.0559C10.1678 20.0559 11.3064 20.0528 12.5422 19.7821C13.0252 19.6763 13.3915 19.3002 13.4806 18.8264C13.7843 17.2101 13.7869 15.25 13.7869 13.2838ZM8.21315 5.0116C7.46642 5.01158 6.80905 5.01157 6.19702 5.03236L6.19702 3.25369C6.19702 2.97551 6.42253 2.75 6.70072 2.75L9.52153 2.75C9.79971 2.75 10.0252 2.97551 10.0252 3.25369V5.0235C9.50293 5.01158 8.9442 5.01159 8.32378 5.0116H8.21315Z" fill="#0033C9"/>
</svg>
