<svg width="24" height="24" viewBox="0 0 24 24" fill="none" xmlns="http://www.w3.org/2000/svg">
<path fill-rule="evenodd" clip-rule="evenodd" d="M15.5137 2.97183V5.74843C15.5137 7.5435 17.8531 9.09484 19.0054 9.42913C20.1578 9.09484 22.4276 7.5435 22.4276 5.74843V2.99262C22.4276 2.69306 22.214 2.4405 21.9306 2.3434C21.0706 2.04872 20.4486 1.71819 19.6999 1.32032C19.5445 1.23778 19.3834 1.15216 19.2139 1.06354C19.0606 0.98338 18.8787 0.978571 18.7221 1.05193C18.3734 1.21514 18.0629 1.37169 17.7633 1.5227C17.1934 1.81003 16.6633 2.07727 15.9865 2.33205C15.7148 2.43435 15.5137 2.6815 15.5137 2.97183ZM17.0137 3.53622V5.74843C17.0137 6.00532 17.2116 6.46595 17.8292 7.02011C18.2244 7.37469 18.6601 7.64691 19.0028 7.81623C19.334 7.64947 19.753 7.38203 20.1336 7.03222C20.7273 6.48648 20.9276 6.02258 20.9276 5.74843V3.5721C20.1919 3.28187 19.5872 2.96003 18.9712 2.63213L18.9369 2.61389C18.8049 2.6792 18.6713 2.7464 18.5354 2.8147L18.5344 2.81518C18.0613 3.05301 17.5612 3.30443 17.0137 3.53622Z" fill="#0033CC"/>
<path fill-rule="evenodd" clip-rule="evenodd" d="M4.46289 5.41083C4.46289 3.09896 6.33704 1.22481 8.64892 1.22481C10.9608 1.22481 12.8349 3.09896 12.8349 5.41083C12.8349 7.72271 10.9608 9.59686 8.64892 9.59686C6.33704 9.59686 4.46289 7.72271 4.46289 5.41083ZM8.64892 2.77519C7.19329 2.77519 6.01327 3.95521 6.01327 5.41083C6.01327 6.86646 7.19329 8.04648 8.64892 8.04648C10.1045 8.04648 11.2846 6.86646 11.2846 5.41083C11.2846 3.95521 10.1045 2.77519 8.64892 2.77519Z" fill="#0033CC"/>
<path fill-rule="evenodd" clip-rule="evenodd" d="M9.11919 17.8659C9.2627 17.8792 9.40081 17.8925 9.53235 17.906C9.92699 17.9463 10.2757 17.9883 10.5381 18.0317C10.6667 18.0529 10.7943 18.0776 10.903 18.1076C10.9556 18.1222 11.0264 18.144 11.0988 18.1766L11.1021 18.1781C11.1438 18.1967 11.333 18.281 11.4666 18.4815C11.8909 19.118 11.9492 19.9621 11.9113 20.6063C11.8725 21.2653 11.7181 21.9399 11.5149 22.3463C11.3836 22.6089 11.1152 22.7748 10.8216 22.7748H4.00213C3.84056 22.7748 3.68303 22.7243 3.55156 22.6304C3.20245 22.381 2.94749 21.9866 2.76377 21.6342C2.57762 21.277 2.41754 20.8692 2.28627 20.4697C2.21706 20.3835 2.16527 20.2811 2.13759 20.1666C1.7344 18.498 1.51086 16.4812 1.4483 15.6765L1.44531 15.6381L1.44616 15.5995C1.46088 14.9277 1.52265 14.2855 1.65004 13.7541C1.71376 13.4882 1.7991 13.2277 1.91672 12.9972C2.03158 12.7721 2.20198 12.5268 2.46057 12.3541C4.18863 11.2 6.26611 10.5272 8.49839 10.5272C10.7307 10.5272 12.8081 11.2 14.5362 12.3541C14.9119 12.605 15.1139 13.017 15.2329 13.3605C15.3608 13.7292 15.4416 14.1642 15.4904 14.6195C15.5885 15.5339 15.569 16.6436 15.4615 17.7252L15.4424 17.9175C15.2759 19.5934 15.1441 20.9211 14.8618 22.1708C14.7675 22.5884 14.3525 22.8505 13.9349 22.7561C13.5173 22.6618 13.2552 22.2468 13.3495 21.8292C13.6103 20.6747 13.7336 19.4344 13.9056 17.7035L13.9187 17.5718C14.0191 16.562 14.0325 15.5639 13.9489 14.7848C13.9069 14.3934 13.8433 14.0852 13.7681 13.8682C13.7142 13.7128 13.6704 13.6503 13.6592 13.6345L13.6571 13.6314C13.1718 13.3089 12.6546 13.0306 12.1113 12.8023L9.11919 17.8659ZM3.29773 13.7018C3.31817 13.6617 3.33319 13.6402 3.34025 13.631C4.81762 12.6494 6.59006 12.0776 8.49839 12.0776C9.22083 12.0776 9.92379 12.1595 10.5986 12.3146L7.40075 17.7265C7.16482 17.7093 6.92646 17.6926 6.68889 17.6764C5.66925 17.6068 4.6566 17.5466 3.89936 17.5038C3.6362 17.4889 3.40374 17.4761 3.21238 17.4658C3.10097 16.685 3.02942 15.9969 2.99707 15.5949C3.01196 14.9991 3.06764 14.4912 3.15772 14.1154C3.2037 13.9236 3.25343 13.7886 3.29773 13.7018ZM3.49863 19.0342C3.55886 19.307 3.64061 19.6184 3.7433 19.9369C3.86133 20.303 3.99672 20.6454 4.13858 20.9175C4.20931 21.0532 4.27232 21.1531 4.32399 21.2244H10.2636C10.3087 21.0265 10.3479 20.7816 10.3636 20.5153C10.3869 20.1185 10.3505 19.7895 10.2767 19.5599C10.0628 19.5249 9.75525 19.4872 9.37488 19.4483C8.60804 19.3701 7.59677 19.2923 6.58339 19.2231C5.57186 19.1542 4.56566 19.0943 3.81184 19.0517L3.49863 19.0342Z" fill="#0033CC"/>
</svg>
