<svg width="24" height="24" viewBox="0 0 24 24" fill="none" xmlns="http://www.w3.org/2000/svg">
<path d="M14.6606 4.37964C11.3429 4.11605 7.70751 4.32197 4.65413 4.79906C4.3357 4.84881 4.08379 5.11141 4.04888 5.45043C3.5613 10.1857 3.33056 15.139 4.00869 20.1736C4.05093 20.4873 4.29421 20.7358 4.60913 20.7847C9.76609 21.5853 14.6268 21.4688 19.4128 20.7688C19.7279 20.7228 19.9711 20.4817 20.0202 20.1769C20.5055 17.167 20.6612 13.8903 20.4652 10.7372C20.4395 10.3237 20.7538 9.96777 21.1673 9.94208C21.5807 9.91639 21.9366 10.2307 21.9623 10.6441C22.1649 13.9047 22.0046 17.2928 21.5011 20.4157C21.3462 21.3766 20.5833 22.1136 19.6298 22.2531C14.7186 22.9713 9.70554 23.0939 4.37901 22.267C3.4098 22.1165 2.65334 21.3482 2.52211 20.3739C1.82125 15.1705 2.06388 10.0836 2.55677 5.29679C2.65955 4.2986 3.41285 3.47481 4.42257 3.31704C7.57546 2.82441 11.3294 2.61024 14.7794 2.88436C15.1923 2.91716 15.5004 3.27849 15.4676 3.6914C15.4348 4.10431 15.0735 4.41245 14.6606 4.37964Z" fill="#0033C9"/>
<path d="M11.9998 7.24967C12.414 7.24967 12.7498 7.58545 12.7498 7.99967V8.29502H12.8832C14.2913 8.31405 15.3961 9.48737 15.3961 10.8975C15.3961 11.3117 15.0603 11.6475 14.6461 11.6475C14.2319 11.6475 13.8961 11.3117 13.8961 10.8975C13.8961 10.2715 13.4157 9.80485 12.8673 9.79502H10.8883C10.4921 9.79502 10.1035 10.1496 10.1035 10.6593C10.1035 11.0334 10.1843 11.1778 10.2334 11.2401C10.2901 11.312 10.3981 11.3935 10.6611 11.4867L10.6624 11.4872L13.8427 12.6003C14.2078 12.7324 14.6239 12.9361 14.9343 13.3333C15.252 13.7396 15.3829 14.2485 15.3829 14.8405C15.3829 16.1039 14.3955 17.2048 13.098 17.2048H12.7498V17.4999C12.7498 17.9141 12.414 18.2499 11.9998 18.2499C11.5856 18.2499 11.2498 17.9141 11.2498 17.4999V17.2048H11.1133C9.69789 17.2048 8.60345 15.9992 8.60345 14.6023C8.60345 14.1881 8.93924 13.8523 9.35345 13.8523C9.76767 13.8523 10.1035 14.1881 10.1035 14.6023C10.1035 15.2431 10.5968 15.7048 11.1133 15.7048H13.098C13.4942 15.7048 13.8829 15.3502 13.8829 14.8405C13.8829 14.4666 13.8021 14.3205 13.7526 14.2571C13.6961 14.1848 13.5902 14.1045 13.3359 14.0122L10.1642 12.9021L10.1616 12.9011C9.79039 12.7697 9.36936 12.5668 9.05568 12.1691C8.73431 11.7616 8.60345 11.2511 8.60345 10.6593C8.60345 9.39591 9.59089 8.29502 10.8883 8.29502H11.2498V7.99967C11.2498 7.58545 11.5856 7.24967 11.9998 7.24967Z" fill="#0033C9"/>
<path d="M19.528 2.02017C19.528 1.60596 19.1922 1.27017 18.778 1.27017C18.3638 1.27017 18.028 1.60596 18.028 2.02017V6.56315L17.5681 6.19521C17.2446 5.93646 16.7727 5.98891 16.5139 6.31236C16.2552 6.63581 16.3076 7.10778 16.6311 7.36653L18.3314 8.72673C18.6053 8.94585 18.9945 8.94585 19.2684 8.72672L20.9685 7.36662C21.292 7.10786 21.3444 6.63589 21.0857 6.31244C20.8269 5.989 20.3549 5.93656 20.0315 6.19531L19.528 6.59809L19.528 2.02017Z" fill="#0033C9"/>
</svg>
