<svg width="24" height="24" viewBox="0 0 24 24" fill="none" xmlns="http://www.w3.org/2000/svg">
<path d="M10.4261 15.5724C10.8498 15.5726 11.1936 15.9135 11.1936 16.3339C11.1934 16.7542 10.8497 17.0952 10.4261 17.0954H7.27743C6.8537 17.0954 6.51018 16.7543 6.50999 16.3339C6.50999 15.9133 6.85359 15.5724 7.27743 15.5724H10.4261Z" fill="#0033C9"/>
<path d="M16.7226 14.0107C17.1464 14.0107 17.49 14.3517 17.49 14.7722V15.5526C17.4898 15.973 17.1463 16.3141 16.7226 16.3141C16.2989 16.314 15.9553 15.9729 15.9551 15.5526V14.7722C15.9551 14.3517 16.2988 14.0108 16.7226 14.0107Z" fill="#0033C9"/>
<path d="M12.7874 13.2294C13.2111 13.2296 13.5549 13.5705 13.5549 13.9909C13.5546 14.4112 13.211 14.7522 12.7874 14.7524H7.27743C6.85373 14.7524 6.51022 14.4113 6.50999 13.9909C6.50999 13.5704 6.85359 13.2294 7.27743 13.2294H12.7874Z" fill="#0033C9"/>
<path d="M16.7226 10.1051C17.1464 10.1051 17.4899 10.4461 17.49 10.8666V11.6479C17.4897 12.0683 17.1462 12.4094 16.7226 12.4094C16.299 12.4093 15.9554 12.0682 15.9551 11.6479V10.8666C15.9552 10.4462 16.2988 10.1052 16.7226 10.1051Z" fill="#0033C9"/>
<path fill-rule="evenodd" clip-rule="evenodd" d="M17.7258 2.03907C18.7859 1.80221 19.5791 2.68529 19.7843 3.52834H19.7863L20.296 5.41918H21.0514C22.127 5.41918 23 6.28541 23 7.35265V10.5037C22.9997 10.7758 22.853 11.0273 22.6153 11.1631C22.253 11.3701 21.9522 11.6686 21.7429 12.0277C21.5337 12.3869 21.4232 12.7948 21.4231 13.2096C21.4232 13.6245 21.5337 14.0323 21.7429 14.3915C21.9522 14.7506 22.253 15.0491 22.6153 15.2561C22.8531 15.392 23 15.6441 23 15.9165V19.0675C22.9998 20.1346 22.1269 21 21.0514 21H2.94858C1.87314 21 1.00022 20.1346 1 19.0675V15.9165L1.00699 15.8153C1.03831 15.5829 1.17665 15.375 1.38472 15.2561C1.74698 15.0491 2.0478 14.7506 2.25709 14.3915C2.46634 14.0323 2.57679 13.6244 2.57685 13.2096C2.57681 12.7948 2.4663 12.3869 2.25709 12.0277C2.04779 11.6686 1.74701 11.3701 1.38472 11.1631C1.14703 11.0273 1.00026 10.7758 1 10.5037V7.35265C1 6.28541 1.873 5.41918 2.94858 5.41918H4.03579L17.7088 2.04205L17.7258 2.03907ZM2.94858 6.94216C2.72069 6.94216 2.53488 7.12653 2.53488 7.35265V10.0952C2.96027 10.4096 3.31899 10.8068 3.58612 11.2652C3.93034 11.8561 4.1117 12.5271 4.11174 13.2096C4.11168 13.8921 3.9304 14.5631 3.58612 15.154C3.3191 15.6122 2.96004 16.0086 2.53488 16.323V19.0675C2.53511 19.2935 2.72083 19.477 2.94858 19.477H15.9561C15.956 19.4709 15.9552 19.4644 15.9551 19.4582V18.6769C15.9552 18.2564 16.2988 17.9154 16.7226 17.9154C17.1464 17.9154 17.49 18.2563 17.49 18.6769V19.4582C17.49 19.4644 17.4892 19.4709 17.489 19.477H21.0514C21.2792 19.477 21.4649 19.2935 21.4651 19.0675V16.323C21.04 16.0086 20.6809 15.6122 20.4139 15.154C20.0696 14.5631 19.8883 13.8921 19.8883 13.2096C19.8883 12.5271 20.0697 11.8561 20.4139 11.2652C20.681 10.8068 21.0397 10.4096 21.4651 10.0952V7.35265C21.4651 7.12653 21.2793 6.94216 21.0514 6.94216H17.489C17.4892 6.94856 17.49 6.95557 17.49 6.96199V7.74232C17.4898 8.16273 17.1463 8.50381 16.7226 8.50381C16.2989 8.50373 15.9553 8.16268 15.9551 7.74232V6.96199C15.9551 6.95557 15.9559 6.94855 15.9561 6.94216H2.94858ZM10.3902 5.41918H18.7071L18.3034 3.92198C18.3008 3.91239 18.2976 3.9029 18.2954 3.89322C18.258 3.7287 18.1772 3.61785 18.1106 3.56304C18.0803 3.53825 18.0607 3.52998 18.0516 3.52735L10.3902 5.41918Z" fill="#0033C9"/>
</svg>
