<svg width="24" height="24" viewBox="0 0 24 24" fill="none" xmlns="http://www.w3.org/2000/svg">
<path d="M8.80511 11.3433L8.79121 11.3432C8.04802 11.3432 7.51758 11.9662 7.51758 12.6434C7.51758 13.3162 8.04114 13.9355 8.77673 13.9435L8.79082 13.9436C9.53401 13.9436 10.0645 13.3206 10.0645 12.6434C10.0645 11.9705 9.5408 11.3512 8.80511 11.3433Z" fill="#0033C9"/>
<path d="M14.4615 11.3433L14.4484 11.3432C13.7052 11.3432 13.1748 11.9662 13.1748 12.6434C13.1748 13.3166 13.6991 13.9363 14.4354 13.9435L14.4485 13.9436C15.1917 13.9436 15.7222 13.3206 15.7222 12.6434C15.7222 11.9701 15.1979 11.3505 14.4615 11.3433Z" fill="#0033C9"/>
<path fill-rule="evenodd" clip-rule="evenodd" d="M11.62 1.2063C10.0683 1.2063 8.55444 1.39675 7.14712 1.57381C6.97942 1.59491 6.81322 1.61582 6.64866 1.63619C5.49098 1.77951 4.57483 2.70618 4.45583 3.87217C4.43751 4.0517 4.41874 4.23277 4.39982 4.41526C4.23873 5.96953 4.06689 7.62736 4.06689 9.32731C4.06689 11.0273 4.23875 12.6853 4.39985 14.2396C4.41874 14.4219 4.43753 14.6031 4.45583 14.7824C4.55914 15.7947 5.26321 16.6265 6.20453 16.9221L3.32556 21.5833C3.09522 21.9562 3.21081 22.4453 3.58374 22.6756C3.95667 22.9059 4.44571 22.7903 4.67604 22.4174L5.62017 20.8888H17.6516C17.6927 20.8888 17.7331 20.8857 17.7726 20.8797L18.7224 22.4174C18.9527 22.7903 19.4418 22.9059 19.8147 22.6756C20.1876 22.4453 20.3032 21.9562 20.0729 21.5833L17.1661 16.8771C18.0414 16.5482 18.6856 15.7473 18.7841 14.7825C18.8022 14.6049 18.8208 14.4258 18.8395 14.2454L18.8401 14.2396C19.0012 12.6854 19.173 11.0273 19.173 9.32731C19.173 7.62736 19.0011 5.96887 18.84 4.41461C18.8212 4.2325 18.8024 4.05133 18.7841 3.87217C18.6651 2.70617 17.7489 1.77951 16.5913 1.63619C16.4267 1.61582 16.2605 1.59491 16.0928 1.57381C14.6855 1.39675 13.1717 1.2063 11.62 1.2063ZM6.60057 19.3015L7.91334 17.1761C9.09806 17.32 10.3463 17.4483 11.62 17.4483C12.9466 17.4483 14.2456 17.3091 15.474 17.1581L16.7979 19.3015H6.60057ZM6.84368 3.21148C7.01014 3.19087 7.17644 3.16999 7.34266 3.14912C8.76157 2.97097 10.1741 2.79362 11.62 2.79362C13.0658 2.79362 14.4783 2.97097 15.8973 3.14912C16.0635 3.16999 16.2298 3.19087 16.3962 3.21148C16.8247 3.26453 17.1617 3.60929 17.205 4.03333C17.2234 4.21388 17.2422 4.39504 17.2609 4.57582C17.4033 5.95252 17.5467 7.33801 17.579 8.74996H5.66093C5.69319 7.33798 5.83652 5.95311 5.979 4.57639C5.99775 4.39524 6.01648 4.21424 6.03494 4.03333C6.07822 3.60929 6.41518 3.26453 6.84368 3.21148ZM5.67099 10.25C5.71659 11.5427 5.84815 12.8139 5.979 14.0782C5.99775 14.2593 6.01648 14.4404 6.03494 14.6213C6.07822 15.0453 6.41518 15.3901 6.84368 15.4431C7.00938 15.4637 7.17566 15.4845 7.34113 15.5053C8.76003 15.6835 10.1741 15.861 11.62 15.861C13.0658 15.861 14.4783 15.6837 15.8972 15.5055C16.0631 15.4847 16.2301 15.4637 16.3962 15.4431C16.8247 15.3901 17.1617 15.0453 17.205 14.6213C17.2234 14.4408 17.2422 14.2596 17.2609 14.0788C17.3917 12.8145 17.5233 11.5427 17.5689 10.25H5.67099Z" fill="#0033C9"/>
</svg>
