<svg width="24" height="24" viewBox="0 0 24 24" fill="none" xmlns="http://www.w3.org/2000/svg">
<path d="M22.1357 12.4131C22.3137 12.4093 22.4927 12.4668 22.6377 12.5859C22.809 12.7263 22.918 12.9399 22.918 13.1787V18.0781C22.918 18.501 22.5752 18.8438 22.1523 18.8438C21.7296 18.8436 21.3867 18.5009 21.3867 18.0781V14.9941L16.2637 19.9902C15.9968 20.2504 15.581 20.2813 15.2793 20.0625L12.4004 17.9736L8.90527 21.3828C8.6026 21.6777 8.11839 21.6716 7.82324 21.3691C7.52799 21.0664 7.53422 20.5814 7.83691 20.2861L11.7939 16.4268C12.0608 16.1665 12.4766 16.1365 12.7783 16.3555L15.6562 18.4434L20.2705 13.9443H17.8652C17.4425 13.9443 17.0998 13.6014 17.0996 13.1787C17.0996 12.7559 17.4424 12.4131 17.8652 12.4131H22.1357ZM12.2402 2C14.4903 2 16.684 2.19085 18.7656 2.37207L19.0029 2.39258C20.8248 2.55092 22.3206 3.95006 22.5879 5.76074C22.714 6.61559 22.8369 7.50238 22.915 8.40723C22.9514 8.82835 22.6398 9.19971 22.2188 9.23633C21.7975 9.27273 21.4261 8.96032 21.3896 8.53906C21.3156 7.68218 21.1984 6.83308 21.0732 5.98438C20.9103 4.8804 19.9904 4.01533 18.8701 3.91797L18.6533 3.89941C16.5563 3.71692 14.4222 3.53125 12.2402 3.53125C10.0584 3.53127 7.92411 3.71693 5.82715 3.89941L5.61035 3.91797C4.49029 4.01545 3.57011 4.88043 3.40723 5.98438C3.19747 7.40668 3.01173 8.8279 3.01172 10.2686C3.01172 11.7092 3.19747 13.1304 3.40723 14.5527C3.57005 15.6567 4.49024 16.5216 5.61035 16.6191C6.03161 16.6558 6.34327 17.027 6.30664 17.4482C6.27002 17.8693 5.89958 18.1809 5.47852 18.1445C3.65659 17.9861 2.15967 16.5873 1.89258 14.7764C1.68203 13.3487 1.48047 11.831 1.48047 10.2686C1.48048 8.70623 1.68204 7.18833 1.89258 5.76074C2.15981 3.95003 3.65668 2.55093 5.47852 2.39258L5.71582 2.37207C7.79737 2.19086 9.99035 2.00002 12.2402 2ZM9.29004 10.2686C9.71272 10.2687 10.0555 10.6115 10.0557 11.0342C10.0557 11.457 9.7128 11.7997 9.29004 11.7998H6.83984C6.417 11.7998 6.07422 11.457 6.07422 11.0342C6.07435 10.6114 6.41708 10.2686 6.83984 10.2686H9.29004ZM15.1084 6.28711C15.5311 6.28711 15.8738 6.63011 15.874 7.05273C15.874 7.47558 15.5312 7.81836 15.1084 7.81836H6.83984C6.417 7.81836 6.07422 7.47558 6.07422 7.05273C6.07447 6.63011 6.41716 6.28711 6.83984 6.28711H15.1084Z" fill="#0033C9"/>
</svg>
