<svg width="24" height="24" viewBox="0 0 24 24" fill="none" xmlns="http://www.w3.org/2000/svg">
<path fill-rule="evenodd" clip-rule="evenodd" d="M1.28516 11.9999C1.28516 6.08259 6.08211 1.28564 11.9994 1.28564C17.9168 1.28564 22.7137 6.08259 22.7137 11.9999C22.7137 17.9173 17.9168 22.7142 11.9994 22.7142C6.08211 22.7142 1.28516 17.9173 1.28516 11.9999ZM15.4411 5.86211C14.948 4.75718 14.311 3.80052 13.5858 2.84918C17.7293 3.56242 20.9337 7.02152 21.2581 11.2856H16.5496C16.4833 9.02425 16.0963 7.33027 15.4411 5.86211ZM15.1204 11.2856C15.055 9.19456 14.6978 7.70183 14.1366 6.4443C13.6113 5.26733 12.8953 4.2657 11.9998 3.13894C11.1052 4.26767 10.3883 5.28023 9.86273 6.46321C9.30148 7.72641 8.94465 9.21841 8.87865 11.2856H15.1204ZM8.87974 12.7142H15.1191C15.0504 14.6768 14.6953 16.1651 14.134 17.4528C13.6075 18.6611 12.8883 19.7202 11.9994 20.856C11.1105 19.7202 10.3913 18.6611 9.86478 17.4528C9.30354 16.1651 8.9484 14.6768 8.87974 12.7142ZM7.4494 11.2856C7.51634 9.04668 7.90339 7.35473 8.55722 5.88316C9.05092 4.77199 9.68875 3.80666 10.4159 2.8487C6.27099 3.56087 3.06524 7.02057 2.74079 11.2856H7.4494ZM2.74079 12.7142H7.45037C7.52008 14.8545 7.90745 16.5374 8.55517 18.0236C9.0513 19.162 9.69254 20.1662 10.4282 21.1533C6.27732 20.4458 3.06556 16.9835 2.74079 12.7142ZM21.2581 12.7142C20.9333 16.9835 17.7215 20.4459 13.5706 21.1533C14.3063 20.1662 14.9475 19.162 15.4436 18.0236C16.0914 16.5374 16.4787 14.8545 16.5484 12.7142H21.2581Z" fill="#0033CC"/>
</svg>
