<svg width="24" height="24" viewBox="0 0 24 24" fill="none" xmlns="http://www.w3.org/2000/svg">
<path fill-rule="evenodd" clip-rule="evenodd" d="M12.3362 1.25021C11.9221 1.25999 11.5944 1.6036 11.6041 2.0177L11.6324 3.21684L11.5903 3.25908C9.13064 3.43813 6.80996 4.45932 5.08346 6.14781C3.6656 7.53445 2.73666 9.28566 2.40653 11.1642C2.16478 12.5398 3.00594 13.7926 4.28767 14.1993C5.75118 14.6637 8.20634 15.2005 11.7094 15.1879L11.7213 19.7026C11.7211 20.1355 11.549 20.5506 11.2429 20.8567C10.9365 21.1631 10.521 21.3352 10.0877 21.3352C9.6545 21.3352 9.239 21.1631 8.93265 20.8567C8.62629 20.5504 8.45419 20.1349 8.45419 19.7016C8.45419 19.2874 8.1184 18.9516 7.70419 18.9516C7.28997 18.9516 6.95419 19.2874 6.95419 19.7016C6.95419 20.5327 7.28433 21.3297 7.87199 21.9174C8.45964 22.5051 9.25668 22.8352 10.0877 22.8352C10.9188 22.8352 11.7159 22.5051 12.3035 21.9174C12.8912 21.3297 13.2213 20.5327 13.2213 19.7016L13.2093 15.1498C16.6435 14.9875 19.031 14.3445 20.4542 13.8178C21.7153 13.3511 22.4964 12.06 22.19 10.6973C21.7716 8.83641 20.7611 7.13097 19.2794 5.81276C17.5951 4.31431 15.4211 3.42117 13.1338 3.25794L13.1037 1.98231C13.0939 1.56821 12.7503 1.24044 12.3362 1.25021ZM12.2501 4.73152L12.2756 4.73122C13.4567 5.87097 14.2451 7.03931 14.7378 8.36423C15.2628 9.77575 15.47 11.4123 15.4078 13.4584C14.5034 13.5718 13.4895 13.6523 12.3631 13.6789C11.2053 13.7062 10.1636 13.6711 9.23571 13.5962C8.89814 8.79763 10.9338 6.12641 12.2501 4.73152ZM10.0513 5.02694C8.56581 5.41374 7.20839 6.16775 6.13225 7.22021C4.93226 8.39378 4.15815 9.86321 3.88389 11.4238C3.78109 12.0088 4.12567 12.5742 4.74133 12.7696C5.44854 12.994 6.43905 13.2456 7.72238 13.4286C7.5055 9.43127 8.79332 6.74739 10.0513 5.02694ZM16.9141 13.2238C16.9536 11.1769 16.731 9.42019 16.1437 7.84132C15.7597 6.80877 15.2266 5.87064 14.5323 4.98818C15.9316 5.32726 17.225 5.99271 18.2824 6.93344C19.5364 8.0491 20.379 9.48037 20.7266 11.0263C20.8568 11.6057 20.5393 12.1868 19.9336 12.411C19.2245 12.6734 18.223 12.9779 16.9141 13.2238Z" fill="#0033CC"/>
</svg>
