<svg width="24" height="24" viewBox="0 0 24 24" fill="none" xmlns="http://www.w3.org/2000/svg">
<path d="M11.7073 2.32918C13.5766 2.09002 15.4752 2.38864 17.1808 3.19004C18.8864 3.99143 20.3282 5.26239 21.3372 6.85395C22.3462 8.44551 22.8807 10.2917 22.8779 12.1762C22.8751 14.0606 22.3352 15.9053 21.3215 17.4938C20.3078 19.0824 18.8623 20.3491 17.1544 21.1455C15.4465 21.9419 13.5469 22.2349 11.6784 21.9903C9.80992 21.7456 8.04986 20.9734 6.60454 19.7642C6.28645 19.4981 6.24433 19.0245 6.51047 18.7064C6.7766 18.3883 7.25021 18.3462 7.5683 18.6123C8.79463 19.6383 10.288 20.2935 11.8734 20.5011C13.4588 20.7087 15.0706 20.46 16.5197 19.7843C17.9688 19.1086 19.1953 18.0338 20.0555 16.6859C20.9156 15.338 21.3736 13.7729 21.376 12.174C21.3783 10.575 20.9249 9.00855 20.0687 7.65814C19.2126 6.30773 17.9892 5.22934 16.5421 4.54937C15.0949 3.86939 13.4839 3.61602 11.8979 3.81894C10.3119 4.02186 8.81662 4.67267 7.58728 5.69508C7.26841 5.96027 6.79493 5.91676 6.52973 5.59789C6.26453 5.27902 6.30804 4.80554 6.62692 4.54034C8.07578 3.33536 9.83811 2.56833 11.7073 2.32918Z" fill="#0033C9"/>
<path d="M13.001 8.07002C13.4152 8.07002 13.751 8.40581 13.751 8.82002V8.86271C14.8813 8.92057 15.751 9.8754 15.751 11.0101C15.751 11.4243 15.4152 11.7601 15.001 11.7601C14.5868 11.7601 14.251 11.4243 14.251 11.0101C14.251 10.6329 13.9643 10.3665 13.6548 10.3601H12.161C11.9716 10.3601 11.751 10.5369 11.751 10.8301C11.751 11.082 11.8042 11.1485 11.8096 11.1553C11.8212 11.1699 11.8648 11.2169 12.0501 11.2827L14.4561 12.1247C14.7452 12.2293 15.0975 12.3984 15.3631 12.7382C15.6359 13.0872 15.741 13.516 15.741 13.9901C15.741 15.0369 14.9216 15.9601 13.831 15.9601H13.751V16C13.751 16.4142 13.4152 16.75 13.001 16.75C12.5868 16.75 12.251 16.4142 12.251 16V15.9585C11.111 15.9144 10.251 14.932 10.251 13.8101C10.251 13.3958 10.5868 13.0601 11.001 13.0601C11.4152 13.0601 11.751 13.3958 11.751 13.8101C11.751 14.202 12.0504 14.4601 12.331 14.4601H13.831C14.0204 14.4601 14.241 14.2832 14.241 13.9901C14.241 13.7376 14.1875 13.6698 14.1816 13.6622C14.1697 13.6471 14.1273 13.6013 13.9492 13.5366L11.5506 12.697C11.2569 12.593 10.9005 12.4249 10.6321 12.0845C10.356 11.7344 10.251 11.3039 10.251 10.8301C10.251 9.78321 11.0704 8.86006 12.161 8.86006H12.251V8.82002C12.251 8.40581 12.5868 8.07002 13.001 8.07002Z" fill="#0033C9"/>
<path d="M1.25 8.40644C1.25 7.9917 1.58621 7.65549 2.00095 7.65549H5.00476C5.4195 7.65549 5.75572 7.9917 5.75572 8.40644C5.75572 8.82118 5.4195 9.15739 5.00476 9.15739H2.00095C1.58621 9.15739 1.25 8.82118 1.25 8.40644Z" fill="#0033C9"/>
<path d="M2.15137 12.3122C2.15137 11.8974 2.48758 11.5612 2.90232 11.5612H6.3567C6.77144 11.5612 7.10765 11.8974 7.10765 12.3122C7.10765 12.7269 6.77144 13.0631 6.3567 13.0631H2.90232C2.48758 13.0631 2.15137 12.7269 2.15137 12.3122Z" fill="#0033C9"/>
<path d="M1.25 16.2166C1.25 15.8018 1.58621 15.4656 2.00095 15.4656H5.00476C5.4195 15.4656 5.75572 15.8018 5.75572 16.2166C5.75572 16.6313 5.4195 16.9675 5.00476 16.9675H2.00095C1.58621 16.9675 1.25 16.6313 1.25 16.2166Z" fill="#0033C9"/>
</svg>
