<svg width="24" height="24" viewBox="0 0 24 24" fill="none" xmlns="http://www.w3.org/2000/svg">
<path fill-rule="evenodd" clip-rule="evenodd" d="M21.1584 10.7803V12.34C21.1584 12.7543 21.4942 13.09 21.9084 13.09C22.3226 13.09 22.6584 12.7543 22.6584 12.34V7.93004C22.6584 6.17749 22.4515 4.78142 21.541 3.88448C20.6343 2.99133 19.2278 2.79004 17.4584 2.79004H6.34839C6.00412 2.79004 5.68282 2.80048 5.40164 2.81052L5.38547 2.81127C3.9394 2.8942 2.77187 3.20619 2.02971 4.14129C1.32083 5.03446 1.14844 6.32534 1.14844 7.92004V16.14C1.14844 17.8926 1.35531 19.2887 2.26584 20.1856C3.17254 21.0788 4.57903 21.28 6.34839 21.28H11.4584C11.8726 21.28 12.2084 20.9443 12.2084 20.53C12.2084 20.1158 11.8726 19.78 11.4584 19.78H6.34839C4.56775 19.78 3.74927 19.5413 3.31849 19.117C2.89154 18.6964 2.64844 17.8975 2.64844 16.14V10.7803H21.1584ZM6.34839 4.29004C6.03575 4.29004 5.73985 4.29942 5.46338 4.30927C4.12505 4.38698 3.52931 4.6647 3.20463 5.07379C2.84603 5.52563 2.64844 6.33475 2.64844 7.92004V9.28027H21.1584V7.93004C21.1584 6.17259 20.9153 5.37366 20.4883 4.95309C20.0576 4.52875 19.2391 4.29004 17.4584 4.29004H6.34839Z" fill="#0033C9"/>
<path d="M5.14844 16.0303C5.14844 15.6161 5.48422 15.2803 5.89844 15.2803H9.89844C10.3127 15.2803 10.6484 15.6161 10.6484 16.0303C10.6484 16.4445 10.3127 16.7803 9.89844 16.7803H5.89844C5.48422 16.7803 5.14844 16.4445 5.14844 16.0303Z" fill="#0033C9"/>
<path d="M18.6709 16.6105C18.6719 16.1963 18.3369 15.8597 17.9227 15.8587C17.5085 15.8577 17.1719 16.1927 17.1709 16.6069L17.1691 17.3515L16.3877 17.3497C15.9735 17.3487 15.6369 17.6837 15.6359 18.0979C15.635 18.5121 15.9699 18.8487 16.3842 18.8497L17.1656 18.8515L17.1638 19.598C17.1628 20.0122 17.4978 20.3488 17.912 20.3497C18.3263 20.3507 18.6628 20.0157 18.6638 19.6015L18.6656 18.855L19.3752 18.8567C19.7894 18.8577 20.126 18.5227 20.127 18.1085C20.128 17.6943 19.793 17.3577 19.3788 17.3567L18.6691 17.355L18.6709 16.6105Z" fill="#0033C9"/>
<path fill-rule="evenodd" clip-rule="evenodd" d="M17.8994 13.2803C15.2761 13.2803 13.1494 15.4069 13.1494 18.0303C13.1494 20.6536 15.2761 22.7803 17.8994 22.7803C20.5228 22.7803 22.6494 20.6536 22.6494 18.0303C22.6494 15.4069 20.5228 13.2803 17.8994 13.2803ZM14.6494 18.0303C14.6494 16.2354 16.1045 14.7803 17.8994 14.7803C19.6943 14.7803 21.1494 16.2354 21.1494 18.0303C21.1494 19.8252 19.6943 21.2803 17.8994 21.2803C16.1045 21.2803 14.6494 19.8252 14.6494 18.0303Z" fill="#0033C9"/>
</svg>
