<svg width="24" height="24" viewBox="0 0 24 24" fill="none" xmlns="http://www.w3.org/2000/svg">
<path fill-rule="evenodd" clip-rule="evenodd" d="M4.25 5.49994C4.25 4.57087 4.42531 3.74191 4.91438 3.13727C5.43013 2.49964 6.17769 2.25058 6.99994 2.25057L15.4999 2.24994C16.4391 2.25008 17.2705 2.54035 17.8683 3.13638C18.4659 3.73224 18.75 4.55357 18.75 5.4599V6.07422C20.7507 6.53482 22.25 8.33272 22.25 10.4699V17.1999C22.25 19.6841 20.2243 21.7099 17.74 21.7099H8.50009C7.86152 21.7099 7.25178 21.5756 6.69911 21.3335C6.31969 21.1674 6.14683 20.7251 6.313 20.3457C6.47918 19.9662 6.92147 19.7934 7.30089 19.9595C7.66821 20.1204 8.0734 20.2099 8.50009 20.2099H17.74C19.3958 20.2099 20.75 18.8557 20.75 17.1999V10.4699C20.75 8.81412 19.3958 7.4599 17.74 7.4599H5C4.58579 7.4599 4.25 7.12411 4.25 6.7099V5.49994ZM7.00006 3.75057L15.4999 3.74994C16.1306 3.75007 16.5496 3.93978 16.8092 4.19864C17.0691 4.4577 17.25 4.86623 17.25 5.4599V5.9599H5.75V5.49994C5.75 4.71882 5.90469 4.2981 6.08062 4.0806C6.22985 3.89611 6.48233 3.75057 7.00006 3.75057Z" fill="#0033C9"/>
<path d="M19 11.2099C19.4142 11.2099 19.75 11.5457 19.75 11.9599V14.9599C19.75 15.3742 19.4142 15.7099 19 15.7099C18.5858 15.7099 18.25 15.3742 18.25 14.9599V11.9599C18.25 11.5457 18.5858 11.2099 19 11.2099Z" fill="#0033C9"/>
<path d="M6.77197 12.5781C6.77197 12.1639 6.43619 11.8281 6.02197 11.8281C5.60776 11.8281 5.27197 12.1639 5.27197 12.5781V13.2499H4.5C4.08579 13.2499 3.75 13.5857 3.75 13.9999C3.75 14.4142 4.08579 14.7499 4.5 14.7499H5.27197V15.5C5.27197 15.9142 5.60776 16.25 6.02197 16.25C6.43619 16.25 6.77197 15.9142 6.77197 15.5V14.7499H7.5C7.91421 14.7499 8.25 14.4142 8.25 13.9999C8.25 13.5857 7.91421 13.2499 7.5 13.2499H6.77197V12.5781Z" fill="#0033C9"/>
<path fill-rule="evenodd" clip-rule="evenodd" d="M1.25 14C1.25 11.3766 3.37665 9.24998 6 9.24998C8.62335 9.24998 10.75 11.3766 10.75 14C10.75 16.6233 8.62335 18.75 6 18.75C3.37665 18.75 1.25 16.6233 1.25 14ZM6 10.75C4.20507 10.75 2.75 12.2051 2.75 14C2.75 15.7949 4.20507 17.25 6 17.25C7.79493 17.25 9.25 15.7949 9.25 14C9.25 12.2051 7.79493 10.75 6 10.75Z" fill="#0033C9"/>
</svg>
