<svg width="24" height="24" viewBox="0 0 24 24" fill="none" xmlns="http://www.w3.org/2000/svg">
<path d="M3.7617 3.17142C3.06766 3.51408 2.72892 3.92797 2.62567 4.39623C2.62832 4.43282 2.62832 4.47005 2.62548 4.50773C2.61608 4.63252 2.60691 4.76162 2.59802 4.89418C2.63993 5.32532 2.85548 5.69355 3.29665 6.01535C3.82205 6.39858 4.66763 6.70913 5.87544 6.87321C6.28588 6.92897 6.57341 7.3069 6.51765 7.71734C6.46189 8.12779 6.08396 8.41531 5.67352 8.35955C4.38001 8.18383 3.28555 7.83675 2.48488 7.27868C2.47206 7.72886 2.46484 8.1671 2.46484 8.56805C2.46484 8.90855 2.47005 9.24778 2.47948 9.58581C2.67367 10.5057 3.79603 11.4695 5.49234 11.6C5.90533 11.6318 6.21438 11.9923 6.18261 12.4053C6.15085 12.8183 5.7903 13.1274 5.37731 13.0956C4.37093 13.0182 3.39619 12.6856 2.61845 12.1554C2.64722 12.5426 2.67834 12.9283 2.71027 13.3125C2.81814 14.6105 3.82607 15.689 5.10427 15.8705C5.40489 15.9132 5.70535 15.9529 6.00631 15.9872C6.41787 16.034 6.7135 16.4057 6.66663 16.8172C6.61976 17.2288 6.24813 17.5244 5.83658 17.4775C5.51817 17.4413 5.20342 17.3997 4.89335 17.3556C2.91075 17.0741 1.38031 15.421 1.21543 13.4367C1.1162 12.2427 1.02214 11.0064 0.983416 9.74148C0.978656 9.71046 0.974349 9.67928 0.970504 9.64793C0.961472 9.57432 0.96343 9.5019 0.975092 9.4323C0.968453 9.14557 0.964844 8.85743 0.964844 8.56805C0.964844 7.44568 1.01911 6.05453 1.09452 4.89753C1.09174 4.84298 1.09033 4.78789 1.09033 4.73226C1.09033 3.40822 1.87507 2.43003 3.09765 1.82642C4.2858 1.23981 5.94693 0.964233 7.9532 0.964233C9.48846 0.964233 10.8111 1.12573 11.8735 1.45732C12.9292 1.78684 13.7984 2.30735 14.3183 3.07739C14.5501 3.42068 14.4597 3.88687 14.1164 4.11865C13.7731 4.35043 13.3069 4.26003 13.0751 3.91673C12.8165 3.53374 12.3033 3.16283 11.4265 2.8892C10.5564 2.61763 9.39652 2.46423 7.9532 2.46423C6.04723 2.46423 4.65193 2.7319 3.7617 3.17142Z" fill="#0033C9"/>
<path fill-rule="evenodd" clip-rule="evenodd" d="M9.10865 10.3236C9.10589 10.269 9.10449 10.2138 9.10449 10.158C9.10449 8.83393 9.88923 7.85573 11.1118 7.25212C12.3 6.66552 13.9611 6.38994 15.9674 6.38994C17.9736 6.38994 19.6348 6.66552 20.8229 7.25212C22.0455 7.85573 22.8302 8.83393 22.8302 10.158C22.8302 10.2728 22.8243 10.385 22.8127 10.4946C22.8947 11.632 22.9559 12.8018 22.9559 13.9937C22.9559 14.2829 22.9523 14.5707 22.9456 14.8572C22.9574 14.927 22.9594 14.9997 22.9504 15.0736C22.9465 15.1054 22.9421 15.137 22.9372 15.1684C22.8985 16.4329 22.8045 17.6688 22.7053 18.8624C22.5404 20.8467 21.0099 22.4998 19.0273 22.7813C18.0504 22.9201 17.0235 23.0353 15.9674 23.0353C14.9114 23.0353 13.8844 22.9201 12.9075 22.7813C10.9249 22.4998 9.39447 20.8467 9.22959 18.8624C9.13036 17.6684 9.03631 16.4321 8.99758 15.1672C8.99282 15.1362 8.98851 15.105 8.98466 15.0736C8.97563 15 8.97759 14.9276 8.98925 14.858C8.98261 14.5713 8.979 14.2831 8.979 13.9937C8.979 12.8715 9.03326 11.4806 9.10865 10.3236ZM21.305 10.4437C21.2925 10.2742 21.2795 10.105 21.2662 9.93605L21.3148 9.93222C21.2422 9.41852 20.9069 8.96645 20.1588 8.59713C19.2686 8.15761 17.8733 7.88994 15.9674 7.88994C14.0614 7.88994 12.6661 8.15761 11.7759 8.59713C11.0279 8.96639 10.6926 9.41836 10.62 9.93195L10.6396 9.93343C10.6303 10.058 10.6211 10.1868 10.6122 10.3191C10.6653 10.8596 10.9966 11.3341 11.7759 11.7188C12.6661 12.1583 14.0614 12.426 15.9674 12.426C17.8733 12.426 19.2686 12.1583 20.1588 11.7188C20.8776 11.3639 21.2153 10.9327 21.305 10.4437ZM21.4328 12.7056C21.2447 12.8368 21.0407 12.9563 20.8229 13.0638C19.6348 13.6504 17.9736 13.926 15.9674 13.926C13.9611 13.926 12.3 13.6504 11.1118 13.0638C10.8929 12.9557 10.6879 12.8356 10.4991 12.7036C10.4862 13.1541 10.479 13.5926 10.479 13.9937C10.479 14.3342 10.4842 14.6735 10.4936 15.0115C10.6878 15.9314 11.8102 16.8952 13.5065 17.0257C14.3214 17.0884 15.1411 17.1331 15.9675 17.1331C16.7939 17.1331 17.6136 17.0884 18.4285 17.0257C20.1243 16.8953 21.2465 15.932 21.4412 15.0124C21.4506 14.674 21.4559 14.3345 21.4559 13.9937C21.4559 13.5625 21.4475 13.1332 21.4328 12.7056ZM18.5435 18.5213C19.5499 18.4439 20.5245 18.1114 21.3022 17.5812C21.2735 17.9684 21.2424 18.354 21.2104 18.7382C21.1026 20.0362 20.0946 21.1147 18.8164 21.2962C17.8652 21.4313 16.9191 21.5353 15.9674 21.5353C15.0158 21.5353 14.0697 21.4313 13.1184 21.2962C11.8402 21.1147 10.8323 20.0362 10.7244 18.7382C10.6925 18.354 10.6614 17.9683 10.6326 17.5811C11.4104 18.1113 12.3851 18.4439 13.3915 18.5213C14.2272 18.5856 15.0885 18.6331 15.9675 18.6331C16.8465 18.6331 17.7078 18.5856 18.5435 18.5213Z" fill="#0033C9"/>
</svg>
