<svg width="24" height="24" viewBox="0 0 24 24" fill="none" xmlns="http://www.w3.org/2000/svg">
<path d="M14.1828 5.97196C14.5147 5.62573 15.0772 5.60281 15.4389 5.92044C16.3352 6.70809 17.0514 7.64817 17.5413 8.68886C18.0312 9.72991 18.2842 10.8496 18.2843 11.9817C18.2843 13.1139 18.0311 14.2335 17.5413 15.2746C17.0514 16.3155 16.3354 17.2561 15.4389 18.0438C15.0772 18.3616 14.5147 18.3386 14.1828 17.9923C13.8511 17.646 13.875 17.1074 14.2366 16.7897C14.9611 16.1531 15.5318 15.4 15.9198 14.5756C16.3076 13.7514 16.5066 12.8698 16.5066 11.9817C16.5065 11.0938 16.3076 10.2128 15.9198 9.38866C15.5317 8.56425 14.9611 7.81035 14.2366 7.17375C13.8754 6.85595 13.8512 6.31813 14.1828 5.97196Z" fill="#0033C9"/>
<path d="M11.2123 7.27099C11.5584 6.93774 12.1211 6.93635 12.4693 7.26767C13.1383 7.90442 13.6693 8.66067 14.0318 9.49338C14.3942 10.3262 14.5812 11.2196 14.5812 12.1214C14.5812 13.0231 14.3942 13.9165 14.0318 14.7493C13.6693 15.582 13.1383 16.3391 12.4693 16.9759C12.1211 17.3067 11.5582 17.3049 11.2123 16.9717C10.8664 16.6385 10.8681 16.0997 11.2158 15.7683C11.7193 15.2891 12.1189 14.7199 12.3911 14.0944C12.6633 13.4689 12.8034 12.7982 12.8035 12.1214C12.8035 11.4445 12.6634 10.7739 12.3911 10.1483C12.1189 9.52264 11.7194 8.95367 11.2158 8.47444C10.868 8.14317 10.8667 7.60431 11.2123 7.27099Z" fill="#0033C9"/>
<path d="M8.35819 8.61905C8.6901 8.27279 9.25257 8.24978 9.61426 8.56752C10.1443 9.03327 10.5694 9.59063 10.8608 10.2098C11.1523 10.8293 11.3035 11.4965 11.3035 12.172C11.3035 12.8476 11.1523 13.5148 10.8608 14.1343C10.5694 14.7535 10.1443 15.3108 9.61426 15.7766C9.25257 16.0944 8.69012 16.0713 8.35819 15.725C8.02665 15.3788 8.05069 14.841 8.41201 14.5233C8.77008 14.2086 9.05056 13.8381 9.24013 13.4353C9.42958 13.0328 9.52572 12.6034 9.52572 12.172C9.5257 11.7407 9.42958 11.3113 9.24013 10.9088C9.05056 10.506 8.77005 10.1354 8.41201 9.82084C8.05074 9.50306 8.02659 8.96524 8.35819 8.61905Z" fill="#0033C9"/>
<path d="M5.94675 9.94301C6.27869 9.59671 6.84113 9.57368 7.20282 9.89148C7.53236 10.1812 7.79859 10.5294 7.98146 10.9179C8.1644 11.3068 8.2601 11.7271 8.2601 12.1529C8.26004 12.5788 8.16447 12.9991 7.98146 13.388C7.79852 13.7765 7.53247 14.1247 7.20282 14.4144C6.84125 14.732 6.27872 14.7088 5.94675 14.3629C5.6151 14.0166 5.63901 13.478 6.00057 13.1602C6.15829 13.0217 6.27973 12.8604 6.36081 12.6882C6.44164 12.5163 6.48228 12.3344 6.48234 12.1529C6.48234 11.9713 6.44167 11.7888 6.36081 11.6169C6.27978 11.4448 6.1581 11.2833 6.00057 11.1448C5.63935 10.8271 5.61529 10.2892 5.94675 9.94301Z" fill="#0033C9"/>
<path fill-rule="evenodd" clip-rule="evenodd" d="M11.9994 0.982178C18.0745 0.982178 22.9994 5.90705 22.9994 11.9822C22.9994 18.0573 18.0745 22.9822 11.9994 22.9822C5.92426 22.9822 0.99939 18.0573 0.99939 11.9822C0.99939 5.90705 5.92426 0.982178 11.9994 0.982178ZM11.9994 2.55361C6.79213 2.55361 2.57082 6.77492 2.57082 11.9822C2.57082 17.1894 6.79213 21.4107 11.9994 21.4107C17.2066 21.4107 21.428 17.1894 21.428 11.9822C21.428 6.77492 17.2066 2.55361 11.9994 2.55361Z" fill="#0033C9"/>
</svg>
