<svg width="24" height="24" viewBox="0 0 24 24" fill="none" xmlns="http://www.w3.org/2000/svg">
<path d="M5.63563 6.05084C5.63233 5.70088 5.62886 5.35382 5.62541 5.00994C5.62041 4.51008 5.61547 4.01684 5.61125 3.53128C5.60813 3.17244 5.49651 2.52224 4.89522 2.19536C4.73136 2.10628 4.53483 2.04114 4.31127 2.04114C4.08771 2.04114 3.89118 2.10628 3.72732 2.19536C3.12604 2.52224 3.01441 3.17244 3.01129 3.53128C3.00712 4.01219 3.00223 4.50055 2.99728 4.9955L5.63563 6.05084Z" fill="#0033CC"/>
<path d="M5.65476 9.46784C5.65476 9.02017 5.65347 8.57548 5.65129 8.1343L2.97813 7.06504C2.97201 7.85411 2.96779 8.65613 2.96779 9.46784C2.96779 9.65503 2.96801 9.84168 2.96843 10.0278L5.64968 11.1003C5.65283 10.5613 5.65476 10.0168 5.65476 9.46784Z" fill="#0033CC"/>
<path fill-rule="evenodd" clip-rule="evenodd" d="M2.98004 12.1096L5.63289 13.1708L5.6207 14.3984C6.53986 14.4842 7.25929 15.2578 7.25929 16.1993L7.25929 20.5415C7.25929 21.5405 6.44945 22.3504 5.45046 22.3504H3.46899C2.47 22.3504 1.66016 21.5405 1.66016 20.5415V16.1993C1.66016 15.3617 2.22953 14.657 3.00236 14.4513L2.99713 13.9257C2.99116 13.3294 2.98509 12.7236 2.98004 12.1096ZM5.75929 16.1993C5.75929 16.0288 5.62102 15.8905 5.45046 15.8905H3.46899C3.29843 15.8905 3.16016 16.0288 3.16016 16.1993L3.16016 20.5415C3.16016 20.7121 3.29843 20.8504 3.46899 20.8504H5.45046C5.62102 20.8504 5.75929 20.7121 5.75929 20.5415L5.75929 16.1993Z" fill="#0033CC"/>
<path d="M9.1656 5.73451C12.4768 5.3306 15.5297 5.3306 18.841 5.73451C19.1973 5.77797 19.4708 6.03087 19.5388 6.34561C19.8327 7.70606 20.0861 9.1604 20.2684 10.6454H8.61328C8.19907 10.6454 7.86328 10.9812 7.86328 11.3954C7.86328 11.8097 8.19907 12.1454 8.61328 12.1454H20.4264C20.5518 13.5778 20.6027 15.0189 20.5523 16.4135C20.5395 16.7669 20.2601 17.0622 19.8849 17.0904C18.0018 17.2317 15.9985 17.292 14.0113 17.2707H13.9953C12.5014 17.2867 10.998 17.2566 9.54318 17.1806C9.12954 17.159 8.77668 17.4768 8.75506 17.8904C8.73345 18.3041 9.05125 18.6569 9.4649 18.6786L9.49561 18.6802V20.2979C9.49561 20.7121 9.83139 21.0479 10.2456 21.0479C10.6598 21.0479 10.9956 20.7121 10.9956 20.2979V18.7415C11.9917 18.7716 12.9998 18.7814 14.0033 18.7707C15.1736 18.7831 16.3504 18.7678 17.5073 18.7248V20.2979C17.5073 20.7121 17.8431 21.0479 18.2573 21.0479C18.6715 21.0479 19.0073 20.7121 19.0073 20.2979V18.6526C19.3402 18.6328 19.6704 18.6107 19.9971 18.5862C21.1117 18.5025 22.0102 17.6072 22.0513 16.4676C22.1778 12.9653 21.6958 9.22666 21.0049 6.02886C20.7943 5.05398 19.9759 4.36183 19.0226 4.24554C15.5907 3.82693 12.4158 3.82693 8.98397 4.24554C8.57281 4.2957 8.28015 4.66967 8.3303 5.08084C8.38046 5.492 8.75443 5.78466 9.1656 5.73451Z" fill="#0033CC"/>
<path d="M10.3481 14.5177C10.3481 13.893 10.828 13.317 11.5061 13.2948C11.5195 13.2941 11.5329 13.2938 11.5465 13.2938C12.2461 13.2938 12.7451 13.8802 12.7451 14.5173C12.7451 15.142 12.2653 15.7179 11.5871 15.7401C11.5738 15.7408 11.5603 15.7412 11.5468 15.7412C10.8472 15.7412 10.3481 15.1548 10.3481 14.5177Z" fill="#0033CC"/>
<path d="M15.6353 14.5177C15.6353 13.8926 16.1157 13.3163 16.7945 13.2948C16.8076 13.2941 16.8208 13.2938 16.8341 13.2938C17.5337 13.2938 18.0327 13.8802 18.0327 14.5173C18.0327 15.1423 17.5523 15.7186 16.8734 15.7401C16.8603 15.7408 16.8472 15.7412 16.8339 15.7412C16.1343 15.7412 15.6353 15.1548 15.6353 14.5177Z" fill="#0033CC"/>
</svg>
