<svg width="24" height="24" viewBox="0 0 24 24" fill="none" xmlns="http://www.w3.org/2000/svg">
<path fill-rule="evenodd" clip-rule="evenodd" d="M12.8814 1.55132C12.3168 1.31411 11.681 1.31411 11.1164 1.55132C7.78941 2.94914 4.46607 4.91142 2.0801 7.46386C1.12504 8.48557 1.96817 9.95 3.19895 9.95H4.84863V16.5198C4.05017 16.6746 3.40402 17.0789 2.91281 17.6543C2.29832 18.3741 1.9592 19.3201 1.79095 20.2771C1.54067 21.7008 2.75013 22.7498 3.99897 22.7498H10.1322C10.5464 22.7498 10.8822 22.4141 10.8822 21.9998C10.8822 21.5856 10.5464 21.2498 10.1322 21.2498H3.99897C3.48051 21.2498 3.21259 20.8537 3.2683 20.5368C3.41047 19.7281 3.67605 19.0705 4.05364 18.6282C4.4068 18.2145 4.88541 17.9529 5.58656 17.9499L5.59863 17.95L5.6123 17.9499H11.9854L11.999 17.95C12.4132 17.95 12.749 17.6142 12.749 17.2V9.95H17.6484V15.7333C17.6484 16.1476 17.9842 16.4833 18.3984 16.4833C18.8127 16.4833 19.1484 16.1476 19.1484 15.7333V9.95H20.7988C22.0296 9.95 22.8727 8.48557 21.9177 7.46386C19.5317 4.91142 16.2084 2.94914 12.8814 1.55132ZM11.6974 2.93422C11.8904 2.85315 12.1074 2.85315 12.3004 2.93422C15.4999 4.27851 18.5983 6.12553 20.7861 8.45H3.21172C5.39944 6.12553 8.49786 4.27851 11.6974 2.93422ZM11.249 9.95H6.34863V16.4499H11.249V9.95Z" fill="#0033C9"/>
<path d="M20.0514 18.8192C20.6149 18.8192 21.1494 19.3192 21.1494 20.0347C21.1494 20.7503 20.6149 21.2503 20.0514 21.2503H19.0464C18.6321 21.2503 18.2964 21.5861 18.2964 22.0003C18.2964 22.4145 18.6321 22.7503 19.0464 22.7503H20.0514C21.5291 22.7503 22.6494 21.4903 22.6494 20.0347C22.6494 18.5792 21.5291 17.3192 20.0514 17.3192H19.0464C18.6321 17.3192 18.2964 17.655 18.2964 18.0692C18.2964 18.4834 18.6321 18.8192 19.0464 18.8192H20.0514Z" fill="#0033C9"/>
<path d="M18.1384 20.8192C18.5526 20.8192 18.8884 20.4834 18.8884 20.0692C18.8884 19.655 18.5526 19.3192 18.1384 19.3192H16.7035C16.2892 19.3192 15.9535 19.655 15.9535 20.0692C15.9535 20.4834 16.2892 20.8192 16.7035 20.8192H18.1384Z" fill="#0033C9"/>
<path d="M15.8201 18.8192C16.2343 18.8192 16.5701 18.4834 16.5701 18.0692C16.5701 17.655 16.2343 17.3192 15.8201 17.3192H14.8475C13.3518 17.3192 12.217 18.5947 12.217 20.0692C12.217 21.5438 13.3518 22.8192 14.8475 22.8192H15.8201C16.2343 22.8192 16.5701 22.4834 16.5701 22.0692C16.5701 21.655 16.2343 21.3192 15.8201 21.3192H14.8475C14.266 21.3192 13.717 20.8038 13.717 20.0692C13.717 19.3346 14.266 18.8192 14.8475 18.8192H15.8201Z" fill="#0033C9"/>
</svg>
