<svg width="24" height="24" viewBox="0 0 24 24" fill="none" xmlns="http://www.w3.org/2000/svg">
<path d="M11.9693 2.09979C12.7874 2.11024 13.5689 2.42114 14.2847 2.9328L14.3013 2.94452L22.6089 9.22772C22.9318 9.47239 22.9956 9.93272 22.7515 10.256C22.5069 10.5795 22.0458 10.6432 21.7222 10.3986L20.9234 9.79413V17.3996C20.9232 19.8159 18.9647 21.7752 16.5484 21.7756H7.44489C5.02849 21.7753 3.06908 19.816 3.06891 17.3996V9.79608L2.27887 10.3976C1.95603 10.6429 1.49506 10.5807 1.24957 10.258C1.00448 9.93519 1.06759 9.47416 1.3902 9.2287L9.55817 3.01483L9.63434 2.95526C10.1722 2.52807 10.7512 2.25406 11.356 2.14862C11.383 2.14389 11.4109 2.14192 11.438 2.13788C11.6117 2.11207 11.7879 2.09758 11.9654 2.09979H11.9693ZM11.9478 3.56854C11.5094 3.56373 11.0434 3.71557 10.5523 4.10565L10.5396 4.11444L10.5386 4.11542L10.4781 4.16034L4.57574 8.84784C4.55219 8.86659 4.53798 8.89588 4.53766 8.92596V17.3996C4.53783 19.0047 5.83977 20.3056 7.44489 20.3058H16.5484C18.1534 20.3055 19.4545 19.0046 19.4547 17.3996V8.92792C19.4544 8.89765 19.4404 8.86856 19.4166 8.84979L13.4156 4.11932L13.4117 4.11639C12.8812 3.74072 12.3903 3.57444 11.9478 3.56854ZM11.7945 7.39081C11.9187 7.33308 12.0644 7.3362 12.188 7.40057C12.4282 7.52557 12.6562 7.64675 12.8775 7.76385C14.007 8.38801 14.9192 8.87139 16.1783 9.30096C16.4687 9.40027 16.6519 9.64408 16.6519 9.89374V13.8166C16.6519 14.9448 15.916 16.0342 14.9117 16.9269C13.9551 17.7771 12.8196 18.3895 12.0513 18.634C11.2793 18.389 10.119 17.7751 9.13824 16.924C8.1073 16.0293 7.35114 14.9407 7.35114 13.8166V9.86346C7.35134 9.62133 7.52351 9.38423 7.80035 9.28046C8.78534 8.91125 9.55736 8.52414 10.3697 8.11639L10.3755 8.11346C10.5435 8.02915 10.7142 7.93914 10.8882 7.84784C11.1812 7.69413 11.4835 7.53578 11.7945 7.39081ZM12.1177 8.98846C12.0185 8.93585 11.8992 8.93392 11.7984 8.98358C11.6087 9.07705 11.4162 9.17363 11.2222 9.27069L11.2203 9.27167C11.0589 9.35243 10.8939 9.43615 10.7261 9.52167C10.1779 9.80111 9.59882 10.0968 9.01031 10.3449C8.88068 10.3996 8.79653 10.5265 8.79645 10.6672V13.8166C8.79645 14.3313 9.16873 15.0748 10.0787 15.8879C10.6705 16.4166 11.3745 16.7634 11.858 17.0012L11.8931 17.0178C11.9914 17.0661 12.1068 17.0658 12.2047 17.0168L12.2427 16.9973C12.7096 16.7634 13.3878 16.4239 13.9576 15.9025C14.8351 15.0994 15.2066 14.3519 15.2066 13.8166V10.7189C15.2066 10.5751 15.1188 10.4454 14.9849 10.3928C14.0935 10.0427 13.299 9.61805 12.524 9.20428C12.4045 9.14052 12.2854 9.07682 12.1666 9.01385L12.1177 8.98846ZM11.9234 10.8586C12.3376 10.8596 12.6724 11.1963 12.6714 11.6105L12.6695 12.3547L13.3795 12.3566C13.7937 12.3576 14.1285 12.6944 14.1275 13.1086C14.1265 13.5228 13.7897 13.8576 13.3755 13.8566L12.6666 13.8547L12.6646 14.6017C12.6635 15.0159 12.3268 15.3508 11.9127 15.3498C11.4985 15.3487 11.1636 15.012 11.1646 14.5978L11.1666 13.8517L10.3853 13.8498C9.9711 13.8488 9.63531 13.5121 9.63629 13.0978C9.6373 12.6837 9.97415 12.3489 10.3882 12.3498L11.1695 12.3517L11.1714 11.6066C11.1726 11.1926 11.5093 10.8576 11.9234 10.8586Z" fill="#0033C9"/>
</svg>
