<svg width="24" height="24" viewBox="0 0 24 24" fill="none" xmlns="http://www.w3.org/2000/svg">
<path fill-rule="evenodd" clip-rule="evenodd" d="M15.5137 5.74843V2.97183C15.5137 2.6815 15.7148 2.43435 15.9865 2.33205C16.6633 2.07727 17.1934 1.81003 17.7633 1.5227C18.0629 1.3717 18.3734 1.21514 18.7221 1.05193C18.8787 0.978571 19.0606 0.98338 19.2139 1.06354C19.3835 1.15219 19.5443 1.23767 19.6997 1.32024C20.4485 1.71811 21.0706 2.04872 21.9306 2.3434C22.214 2.4405 22.4276 2.69306 22.4276 2.99262V5.74843C22.4276 7.5435 20.1578 9.09484 19.0054 9.42913C17.8531 9.09484 15.5137 7.5435 15.5137 5.74843ZM17.0137 5.74843V3.53622C17.5612 3.30443 18.0609 3.05322 18.534 2.81538C18.6704 2.74685 18.8045 2.67942 18.9369 2.61389L18.9712 2.63213C19.5872 2.96003 20.1919 3.28187 20.9276 3.5721V5.74843C20.9276 6.02258 20.7273 6.48648 20.1336 7.03222C19.753 7.38203 19.334 7.64947 19.0028 7.81623C18.6601 7.64691 18.2244 7.37469 17.8292 7.02011C17.2116 6.46595 17.0137 6.00532 17.0137 5.74843Z" fill="#0033C9"/>
<path fill-rule="evenodd" clip-rule="evenodd" d="M8.22 1.25C6.3285 1.25 4.84095 1.48504 3.89481 2.49637C2.96532 3.4899 2.75 5.03644 2.75 7.04V18.3C2.75 19.0276 2.84834 19.6711 3.06116 20.1938C3.27503 20.719 3.62795 21.172 4.15457 21.3988C4.68637 21.6279 5.25572 21.5664 5.77494 21.343C6.28697 21.1228 6.79203 20.731 7.27742 20.2127L7.27871 20.2113C7.54771 19.9226 7.85374 19.8193 8.12172 19.8339C8.39003 19.8485 8.6836 19.9848 8.92 20.3L9.92947 21.6493L9.93202 21.6527C10.4573 22.3466 11.1967 22.7525 11.995 22.7525C12.7933 22.7525 13.5327 22.3466 14.058 21.6527L14.0605 21.6493L15.07 20.3C15.3064 19.9848 15.6 19.8485 15.8683 19.8339C16.1363 19.8193 16.4423 19.9226 16.7113 20.2113L16.7127 20.2128C17.2002 20.7332 17.7063 21.1262 18.2186 21.3471C18.7382 21.5712 19.3078 21.6332 19.8397 21.4036C20.3662 21.1764 20.7178 20.7228 20.9306 20.1986C21.1423 19.6769 21.24 19.0349 21.24 18.31V10.5C21.24 10.0858 20.9042 9.75 20.49 9.75C20.0758 9.75 19.74 10.0858 19.74 10.5V18.31C19.74 18.9151 19.6564 19.3494 19.5407 19.6345C19.4259 19.9172 19.3038 20.0011 19.2453 20.0264C19.1922 20.0493 19.0655 20.0788 18.8126 19.9697C18.5525 19.8576 18.21 19.617 17.8078 19.1877C17.2569 18.5971 16.5283 18.2957 15.7867 18.3361C15.045 18.3765 14.3531 18.7559 13.8695 19.4007L12.862 20.7473L12.8609 20.7488C12.5765 21.1237 12.2564 21.2525 11.995 21.2525C11.7336 21.2525 11.4135 21.1237 11.1291 20.7488L11.128 20.7473L10.12 19.4C9.6364 18.7552 8.94497 18.3765 8.20328 18.3361C7.46164 18.2957 6.73304 18.5971 6.18214 19.1878C5.78272 19.6142 5.44169 19.8535 5.18225 19.9651C4.9299 20.0736 4.80238 20.0446 4.74793 20.0212C4.6883 19.9955 4.56559 19.911 4.4504 19.6281C4.33416 19.3426 4.25 18.9074 4.25 18.3V7.04C4.25 5.01356 4.50468 4.0401 4.99019 3.52113C5.45905 3.01996 6.3315 2.75 8.22 2.75H14C14.4142 2.75 14.75 2.41421 14.75 2C14.75 1.58579 14.4142 1.25 14 1.25H8.22ZM6.18214 19.1878L6.73 19.7L6.18129 19.1887L6.18214 19.1878Z" fill="#0033C9"/>
<path fill-rule="evenodd" clip-rule="evenodd" d="M12.3565 6.25C10.8625 6.25 9.65137 7.46109 9.65137 8.95514C9.65137 10.0308 10.2791 10.9598 11.1883 11.3958C9.56118 11.8081 8.25 13.0622 8.25 14.7355C8.25 15.1497 8.58579 15.4855 9 15.4855C9.41421 15.4855 9.75 15.1497 9.75 14.7355C9.75 13.7753 10.7657 12.75 12.3565 12.75C13.9473 12.75 14.9631 13.7753 14.9631 14.7355C14.9631 15.1497 15.2988 15.4855 15.7131 15.4855C16.1273 15.4855 16.4631 15.1497 16.4631 14.7355C16.4631 13.0622 15.1519 11.8081 13.5248 11.3958C14.4339 10.9598 15.0617 10.0308 15.0617 8.95514C15.0617 7.46109 13.8506 6.25 12.3565 6.25ZM11.1514 8.95514C11.1514 8.28956 11.6909 7.75 12.3565 7.75C13.0222 7.75 13.5617 8.28956 13.5617 8.95514C13.5617 9.62075 13.0221 10.1603 12.3565 10.1603C11.691 10.1603 11.1514 9.62075 11.1514 8.95514Z" fill="#0033C9"/>
</svg>
