<svg width="24" height="24" viewBox="0 0 24 24" fill="none" xmlns="http://www.w3.org/2000/svg">
<path fill-rule="evenodd" clip-rule="evenodd" d="M14.4542 2.81843C13.9128 1.77171 13.0665 1 11.9965 1C10.9276 1 10.0787 1.7704 9.5322 2.81631L7.73099 6.28167L7.7282 6.2871C7.67416 6.39323 7.54497 6.54429 7.3503 6.68313C7.1563 6.82151 6.96809 6.89723 6.84745 6.91721L6.84636 6.91739L3.58568 7.43852C2.40912 7.62715 1.42101 8.17795 1.10077 9.14267C0.780752 10.1067 1.25281 11.1064 2.09474 11.9163L4.63179 14.3568C4.73165 14.4529 4.84351 14.6338 4.91367 14.8696C4.9834 15.1039 4.9893 15.3165 4.95805 15.4528L4.95761 15.4547L4.23245 18.4709C3.9301 19.7278 4.03498 20.9757 4.96504 21.6285C5.89453 22.2809 7.16268 21.998 8.31777 21.3386L11.3708 19.6L11.3728 19.5989C11.5101 19.5227 11.7362 19.4639 12.0016 19.4639C12.2689 19.4639 12.4904 19.5235 12.6194 19.597L15.6785 21.339C16.8349 21.9961 18.1046 22.2842 19.0341 21.6324C19.9648 20.9797 20.0646 19.7295 19.7632 18.4715L19.0379 15.4547L19.0375 15.4528C19.0062 15.3165 19.0121 15.1039 19.0818 14.8696C19.152 14.6338 19.2639 14.4529 19.3637 14.3568L21.8989 11.9181L21.9 11.9171C22.7472 11.1072 23.2207 10.1067 22.8981 9.14133C22.576 8.17722 21.586 7.62709 20.4102 7.43858L16.6008 6.91701" fill="#0033C9"/>
<path d="M7.13227 12.6949C7.36947 12.3459 7.84474 12.2547 8.19379 12.4918C8.83183 12.9253 9.99316 13.467 11.3247 13.6236C12.6387 13.7782 14.0824 13.5569 15.3832 12.526C15.714 12.2638 16.1953 12.3192 16.4575 12.65C16.7193 12.9807 16.6631 13.4612 16.3325 13.7232C14.645 15.0607 12.7683 15.333 11.1459 15.1422C9.54073 14.9533 8.14917 14.31 7.33442 13.7564C6.98546 13.5192 6.89512 13.0439 7.13227 12.6949ZM9.10493 8.04255C9.50352 7.90407 9.93899 8.11468 10.0776 8.51326L10.9077 10.901C11.0462 11.2995 10.8355 11.735 10.437 11.8736C10.0384 12.0122 9.603 11.8014 9.4643 11.4029L8.63422 9.01521C8.49561 8.61657 8.70628 8.18117 9.10493 8.04255ZM13.2534 8.04255C13.6519 7.90421 14.0875 8.11474 14.226 8.51326L15.0561 10.901C15.1945 11.2994 14.9837 11.7349 14.5854 11.8736C14.1868 12.0122 13.7504 11.8015 13.6118 11.4029L12.7817 9.01521C12.6432 8.6166 12.8548 8.18115 13.2534 8.04255Z" fill="white"/>
</svg>
