<svg width="24" height="24" viewBox="0 0 24 24" fill="none" xmlns="http://www.w3.org/2000/svg">
<path d="M12.8963 5.99969C12.8963 5.58548 12.5605 5.24969 12.1463 5.24969C11.7321 5.24969 11.3963 5.58548 11.3963 5.99969V6.29505H11.0349C9.73743 6.29505 8.75 7.39594 8.75 8.65931C8.75 9.25113 8.88085 9.76163 9.20222 10.1691C9.5159 10.5668 9.93694 10.7697 10.3081 10.9012L10.3108 10.9021L13.4825 12.0122C13.7368 12.1045 13.8426 12.1849 13.8991 12.2571C13.9486 12.3205 14.0294 12.4666 14.0294 12.8405C14.0294 13.3502 13.6408 13.7048 13.2446 13.7048H11.2598C10.7434 13.7048 10.25 13.2431 10.25 12.6024C10.25 12.1881 9.91421 11.8524 9.5 11.8524C9.08579 11.8524 8.75 12.1881 8.75 12.6024C8.75 13.9993 9.84444 15.2048 11.2598 15.2048H11.3963V15.5C11.3963 15.9142 11.7321 16.25 12.1463 16.25C12.5605 16.25 12.8963 15.9142 12.8963 15.5V15.2048H13.2446C14.542 15.2048 15.5294 14.1039 15.5294 12.8405C15.5294 12.2485 15.3985 11.7397 15.0809 11.3333C14.7704 10.9362 14.3543 10.7324 13.9893 10.6003L10.8089 9.48722L10.8077 9.48677C10.5447 9.39349 10.4367 9.31206 10.38 9.24015C10.3309 9.17788 10.25 9.03341 10.25 8.65931C10.25 8.14964 10.6387 7.79505 11.0349 7.79505H13.0138C13.5622 7.80488 14.0427 8.27155 14.0427 8.89748C14.0427 9.3117 14.3785 9.64748 14.7927 9.64748C15.2069 9.64748 15.5427 9.3117 15.5427 8.89748C15.5427 7.4874 14.4379 6.31408 13.0298 6.29505H12.8963V5.99969Z" fill="#0033C9"/>
<path fill-rule="evenodd" clip-rule="evenodd" d="M8 1.25C5.88439 1.25 4.15993 1.77941 2.96967 2.96967C1.77941 4.15993 1.25 5.88439 1.25 8V13C1.25 14.9649 1.5461 16.4622 2.24363 17.5501C2.94561 18.645 3.98543 19.2223 5.23979 19.504C5.27227 19.5378 5.32408 19.5975 5.39437 19.6961L5.7525 21.4868C5.82425 22.7299 7.42766 23.6661 8.9301 22.6144C9.34856 22.3215 10.062 21.7202 10.7379 21.1504C10.8662 21.0422 10.9932 20.9352 11.1165 20.8316C11.5156 20.4966 11.884 20.1912 12.1688 19.9708C12.2954 19.8729 12.3955 19.7994 12.4689 19.75H16C18.1156 19.75 19.8401 19.2206 21.0303 18.0303C22.2206 16.8401 22.75 15.1156 22.75 13V8C22.75 5.88439 22.2206 4.15993 21.0303 2.96967C19.8401 1.77941 18.1156 1.25 16 1.25H8ZM2.75 8C2.75 6.11561 3.22059 4.84007 4.03033 4.03033C4.84007 3.22059 6.11561 2.75 8 2.75H16C17.8844 2.75 19.1599 3.22059 19.9697 4.03033C20.7794 4.84007 21.25 6.11561 21.25 8V13C21.25 14.8844 20.7794 16.1599 19.9697 16.9697C19.1599 17.7794 17.8844 18.25 16 18.25H12.3C12.0984 18.25 11.9372 18.329 11.8915 18.3514L11.8886 18.3528C11.8143 18.3891 11.7422 18.4329 11.6798 18.4735C11.5529 18.556 11.405 18.6652 11.2507 18.7846C10.9393 19.0256 10.5499 19.3488 10.152 19.6829C10.0184 19.795 9.88449 19.9079 9.75199 20.0195C9.07042 20.5936 8.42727 21.1354 8.0699 21.3856C7.71053 21.6371 7.49622 21.5802 7.40697 21.5378C7.34571 21.5087 7.29978 21.4663 7.272 21.4265C7.25762 21.4059 7.2519 21.3919 7.24987 21.3861C7.24904 21.3414 7.24421 21.2968 7.23544 21.2529L6.83544 19.2529C6.81667 19.1591 6.7801 19.0697 6.72772 18.9896C6.50259 18.6452 6.29988 18.4185 6.10834 18.2727C6.00985 18.1978 5.90849 18.1397 5.80354 18.1006C5.75065 18.0808 5.69967 18.0669 5.65105 18.0577L5.63178 18.0543C4.61287 17.8371 3.94812 17.4295 3.50637 16.7405C3.03724 16.0088 2.75 14.854 2.75 13V8Z" fill="#0033C9"/>
</svg>
