<svg width="24" height="24" viewBox="0 0 24 24" fill="none" xmlns="http://www.w3.org/2000/svg">
<path d="M7.82472 15.6131C8.26815 15.6131 8.62763 15.9726 8.62763 16.416C8.62754 16.8594 8.2681 17.2189 7.82472 17.2189H6.7811C6.33771 17.2189 5.97827 16.8594 5.97819 16.416C5.97819 15.9726 6.33766 15.6131 6.7811 15.6131H7.82472Z" fill="#0033C9"/>
<path d="M17.2189 15.6131C17.6623 15.6131 18.0218 15.9726 18.0218 16.416C18.0217 16.8593 17.6622 17.2188 17.2189 17.2189H16.1753C15.7319 17.2189 15.3725 16.8594 15.3724 16.416C15.3724 15.9726 15.7318 15.6131 16.1753 15.6131H17.2189Z" fill="#0033C9"/>
<path fill-rule="evenodd" clip-rule="evenodd" d="M12 1C14.061 1 15.6805 0.998332 16.9429 1.15211C18.2208 1.30782 19.2551 1.6347 20.0777 2.38C20.9115 3.13557 21.2876 4.10297 21.4648 5.29681C21.5853 6.10932 21.6199 7.07982 21.6302 8.22617H22.1971L22.2786 8.2301C22.6837 8.27106 23 8.61325 23 9.02908C23 9.44492 22.6837 9.78711 22.2786 9.82807L22.1971 9.83199H21.6349V12.806C21.6349 14.2083 21.6357 15.6796 21.5094 16.9115C21.4461 17.529 21.3476 18.1185 21.1888 18.6279C21.0334 19.1261 20.7961 19.6277 20.4007 19.986C19.852 20.4831 19.191 20.7397 18.4233 20.8814V22.4378C18.4232 22.8811 18.0637 23.2407 17.6204 23.2407C17.177 23.2407 16.8176 22.8812 16.8174 22.4378V21.0413C16.0699 21.0726 15.2042 21.0727 14.208 21.0727H9.792C8.79588 21.0727 7.93005 21.0726 7.18255 21.0413V22.4378C7.18244 22.8811 6.82296 23.2407 6.37964 23.2407C5.93627 23.2407 5.57684 22.8812 5.57673 22.4378V20.8814C4.80881 20.7397 4.14726 20.4832 3.59847 19.986C3.20319 19.6277 2.96577 19.126 2.81046 18.6279C2.65165 18.1185 2.55385 17.5289 2.49056 16.9115C2.36426 15.6796 2.3651 14.2083 2.3651 12.806V9.83199H1.80291C1.35947 9.83199 1 9.47252 1 9.02908C1 8.58565 1.35947 8.22617 1.80291 8.22617H2.36981C2.38011 7.07982 2.41468 6.10932 2.53525 5.29681C2.71243 4.10292 3.0884 3.13558 3.9223 2.38C4.74493 1.63465 5.77908 1.30781 7.0571 1.15211C8.31953 0.998329 9.93889 1 12 1ZM3.97249 13.8465C3.97802 14.8967 4.00012 15.8928 4.08775 16.7477C4.1457 17.3129 4.22938 17.7849 4.34336 18.1504C4.46084 18.5271 4.58775 18.7145 4.67738 18.7957C4.98647 19.0757 5.42869 19.262 6.25497 19.3626C7.09696 19.4652 8.21017 19.4669 9.792 19.4669H14.208C15.7898 19.4669 16.903 19.4652 17.745 19.3626C18.5713 19.2619 19.0135 19.0758 19.3226 18.7957C19.4122 18.7145 19.5384 18.5269 19.6559 18.1504C19.7698 17.7849 19.8543 17.3129 19.9123 16.7477C19.9999 15.8928 20.0212 14.8967 20.0267 13.8465H3.97249ZM4.09794 5.73277C3.97402 6.72477 3.97092 8.01682 3.97092 9.80533V12.2407H11.1971V5.73747H4.17164C4.1468 5.73747 4.12221 5.73498 4.09794 5.73277ZM19.8284 5.73747H12.8029V12.2407H20.0291V9.80533C20.0291 8.01672 20.0244 6.72479 19.9005 5.73277L19.8284 5.73747ZM12 2.60582C9.89776 2.60582 8.39417 2.607 7.25155 2.74617C6.12469 2.88344 5.47118 3.14302 5.00043 3.56946C4.82348 3.72979 4.67504 3.91235 4.55036 4.13166H19.4496C19.3249 3.9123 19.1766 3.72982 18.9996 3.56946C18.5288 3.14296 17.8754 2.88345 16.7484 2.74617C15.6058 2.60698 14.1023 2.60582 12 2.60582Z" fill="#0033C9"/>
</svg>
