<svg width="24" height="24" viewBox="0 0 24 24" fill="none" xmlns="http://www.w3.org/2000/svg">
<path fill-rule="evenodd" clip-rule="evenodd" d="M12 1.25C17.9371 1.25 22.75 6.06294 22.75 12C22.75 17.9371 17.9371 22.75 12 22.75C6.06294 22.75 1.25 17.9371 1.25 12C1.25 6.06294 6.06294 1.25 12 1.25ZM12 2.75C6.89137 2.75 2.75 6.89137 2.75 12C2.75 17.1086 6.89137 21.25 12 21.25C17.1086 21.25 21.25 17.1086 21.25 12C21.25 6.89137 17.1086 2.75 12 2.75Z" fill="#0033C9"/>
<path d="M9.59168 11.916C8.89103 11.916 8.32303 12.484 8.32303 13.1846C8.32303 13.8853 8.89103 14.4533 9.59168 14.4533C10.2923 14.4533 10.8603 13.8853 10.8603 13.1846C10.8603 12.484 10.2923 11.916 9.59168 11.916Z" fill="#0033C9"/>
<path d="M14.3491 11.916C13.6484 11.916 13.0805 12.484 13.0805 13.1846C13.0805 13.8853 13.6484 14.4533 14.3491 14.4533C15.0497 14.4533 15.6177 13.8853 15.6177 13.1846C15.6177 12.484 15.0497 11.916 14.3491 11.916Z" fill="#0033C9"/>
<path fill-rule="evenodd" clip-rule="evenodd" d="M16.2369 7.05454C16.7159 7.3983 16.2369 9.69887 16.2369 9.69887C17.3962 10.5649 18.0216 11.9664 17.8869 13.4009C17.644 15.4635 15.8776 17.0121 13.7885 16.9972H10.2225C8.1284 17.0733 6.31376 15.5676 6.0177 13.5067C5.88464 12.0722 6.50837 10.6707 7.66767 9.80465C7.66767 9.80465 7.2951 7.50407 7.66767 7.16031C8.04025 6.81655 10.1426 8.08583 10.5684 8.56181C11.4613 8.41238 12.9185 8.33936 13.7885 8.56181C14.2143 8.08583 15.7579 6.71077 16.2369 7.05454ZM7.37155 13.1846C7.37155 11.9585 8.36554 10.9645 9.59168 10.9645C10.7101 10.9645 11.6354 11.7916 11.7893 12.8675H12.1515C12.3053 11.7916 13.2306 10.9645 14.3491 10.9645C15.5752 10.9645 16.5692 11.9585 16.5692 13.1846C16.5692 14.4108 15.5752 15.4048 14.3491 15.4048C13.3434 15.4048 12.4938 14.736 12.2209 13.819H11.7199C11.4469 14.736 10.5974 15.4048 9.59168 15.4048C8.36554 15.4048 7.37155 14.4108 7.37155 13.1846Z" fill="#0033C9"/>
</svg>
