<svg width="24" height="24" viewBox="0 0 24 24" fill="none" xmlns="http://www.w3.org/2000/svg">
<path d="M13.25 16.5049C13.25 16.0907 13.5858 15.7549 14 15.7549H18C18.4142 15.7549 18.75 16.0907 18.75 16.5049C18.75 16.9191 18.4142 17.2549 18 17.2549H14C13.5858 17.2549 13.25 16.9191 13.25 16.5049Z" fill="#0033C9"/>
<path fill-rule="evenodd" clip-rule="evenodd" d="M1.25 7.89494C1.25 6.14377 1.45399 4.74759 2.36143 3.85037C3.26591 2.95607 4.671 2.75494 6.44 2.75494H17.55C19.3237 2.75494 20.7311 2.95599 21.6368 3.84988C22.5461 4.74719 22.75 6.14384 22.75 7.89494V16.1049C22.75 17.8561 22.546 19.2523 21.6386 20.1495C20.7341 21.0438 19.329 21.2449 17.56 21.2449H6.44074C4.67249 21.2498 3.26704 21.052 2.36194 20.1588C1.45385 19.2626 1.25 17.8658 1.25 16.1149V7.89494ZM2.75052 7.75494C2.76311 6.09337 3.00245 5.32598 3.41607 4.91702C3.84409 4.49382 4.659 4.25494 6.44 4.25494H17.55C19.3363 4.25494 20.1539 4.4939 20.5832 4.91751C20.9975 5.32638 21.2369 6.09333 21.2495 7.75494H2.75052ZM21.25 9.25494V16.1049C21.25 17.8638 21.009 18.6626 20.5839 19.0829C20.1559 19.5061 19.341 19.7449 17.56 19.7449L6.44 19.7449L6.43789 19.7449C4.65679 19.75 3.84272 19.5127 3.41556 19.0911C2.99115 18.6723 2.75 17.8741 2.75 16.1149V9.25494H21.25Z" fill="#0033C9"/>
</svg>
