<svg width="24" height="24" viewBox="0 0 24 24" fill="none" xmlns="http://www.w3.org/2000/svg">
<path d="M4.67012 5.35823L10.2433 3.07695C11.3114 2.64125 12.5185 2.64133 13.5867 3.07695L19.1567 5.35694C19.3705 5.44415 19.6098 5.64176 19.7985 5.9211C19.9872 6.20027 20.0798 6.49448 20.08 6.72249L20.07 11.1108C20.0691 11.525 20.4041 11.8616 20.8183 11.8625C21.2325 11.8634 21.5691 11.5284 21.57 11.1142L21.58 6.7242L21.58 6.72249C21.58 6.1306 21.3577 5.54941 21.0415 5.08138C20.7253 4.61346 20.2691 4.19092 19.7233 3.96804L14.1533 1.6881C12.7217 1.104 11.1075 1.10432 9.67587 1.68842L4.10771 3.96764C3.55576 4.19049 3.09937 4.61342 2.78383 5.08281C2.46799 5.55263 2.25 6.1333 2.25 6.72249V11.1125C2.25 16.3518 6.03687 21.2188 11.2003 22.6454L11.2027 22.6461C11.6619 22.7713 12.1582 22.7713 12.6174 22.6461C13.017 22.5371 13.2526 22.1248 13.1436 21.7252C13.0346 21.3255 12.6223 21.0899 12.2227 21.1989C12.0222 21.2536 11.7989 21.2537 11.5983 21.1992C10.2666 20.831 9.04027 20.2009 7.97232 19.3795C7.97383 19.3601 7.97461 19.3404 7.97461 19.3205C7.97461 17.7219 9.62518 16.1788 11.9998 16.1788C12.414 16.1788 12.7498 15.843 12.7498 15.4288C12.7498 15.0146 12.414 14.6788 11.9998 14.6788C9.52924 14.6788 7.26075 16.0868 6.64085 18.1708C4.84617 16.2542 3.75 13.7243 3.75 11.1125V6.72249C3.75 6.49168 3.84202 6.19735 4.02869 5.91967C4.21523 5.64218 4.45306 5.44562 4.67012 5.35823Z" fill="#0033C9"/>
<path fill-rule="evenodd" clip-rule="evenodd" d="M11.9998 6.25002C10.0494 6.25002 8.46826 7.83106 8.46826 9.78149C8.46826 11.7319 10.0494 13.313 11.9998 13.313C13.9502 13.313 15.5314 11.7319 15.5314 9.78149C15.5314 7.83106 13.9502 6.25002 11.9998 6.25002ZM9.96826 9.78149C9.96826 8.65953 10.8778 7.75002 11.9998 7.75002C13.1218 7.75002 14.0314 8.65953 14.0314 9.78149C14.0314 10.9035 13.1218 11.813 11.9998 11.813C10.8778 11.813 9.96826 10.9035 9.96826 9.78149Z" fill="#0033C9"/>
<path d="M20.1032 17.4458C20.3493 17.1126 20.2789 16.643 19.9457 16.3968C19.6126 16.1507 19.143 16.2211 18.8968 16.5543L17.8362 17.9894L16.916 17.3759C16.5714 17.1462 16.1057 17.2393 15.876 17.5839C15.6462 17.9286 15.7393 18.3942 16.084 18.624L17.584 19.624C17.715 19.7113 17.8635 19.752 18.0098 19.75C18.2436 19.7536 18.4756 19.6481 18.6251 19.4458L20.1032 17.4458Z" fill="#0033C9"/>
<path fill-rule="evenodd" clip-rule="evenodd" d="M13.25 18C13.25 15.3767 15.3766 13.25 18 13.25C20.6234 13.25 22.75 15.3767 22.75 18C22.75 20.6234 20.6234 22.75 18 22.75C15.3766 22.75 13.25 20.6234 13.25 18ZM18 14.75C16.2051 14.75 14.75 16.2051 14.75 18C14.75 19.7949 16.2051 21.25 18 21.25C19.7949 21.25 21.25 19.7949 21.25 18C21.25 16.2051 19.7949 14.75 18 14.75Z" fill="#0033C9"/>
</svg>
