<svg width="24" height="24" viewBox="0 0 24 24" fill="none" xmlns="http://www.w3.org/2000/svg">
<path d="M7.68884 12.8555C7.92086 12.5124 8.38673 12.4223 8.72986 12.6543C9.33656 13.0645 10.4427 13.5771 11.7103 13.7256C12.9615 13.872 14.3349 13.6621 15.5717 12.6865C15.8969 12.43 16.3688 12.4854 16.6254 12.8105C16.8816 13.1357 16.8254 13.6078 16.5004 13.8643C14.8847 15.1387 13.0882 15.3974 11.5365 15.2158C10.0014 15.0361 8.67014 14.4239 7.89001 13.8965C7.54699 13.6645 7.45709 13.1986 7.68884 12.8555Z" fill="#0033C9"/>
<path d="M9.5824 8.4248C9.97332 8.28846 10.4009 8.49484 10.5375 8.88574L11.3295 11.1533C11.4661 11.5443 11.2604 11.9727 10.8695 12.1094C10.4785 12.246 10.0501 12.0395 9.91345 11.6484L9.12146 9.37988C8.98503 8.98892 9.19145 8.56139 9.5824 8.4248Z" fill="#0033C9"/>
<path d="M13.5414 8.4248C13.9323 8.28846 14.3599 8.49484 14.4965 8.88574L15.2885 11.1533C15.425 11.5443 15.2194 11.9727 14.8285 12.1094C14.4375 12.246 14.0091 12.0395 13.8724 11.6484L13.0804 9.37988C12.944 8.98892 13.1504 8.56139 13.5414 8.4248Z" fill="#0033C9"/>
<path fill-rule="evenodd" clip-rule="evenodd" d="M11.7972 1C13.112 1.00018 14.0605 1.88361 14.6322 2.87598L14.7416 3.07617L14.7679 3.13184C15.5041 4.8635 15.9736 5.74937 16.2455 6.19043C16.3006 6.27988 16.3471 6.3478 16.3832 6.39941L19.5541 6.83203L19.5717 6.83496C20.7578 7.02426 22.0327 7.61999 22.4662 8.91113C22.9051 10.2187 22.2162 11.4344 21.3519 12.2568L19.0609 14.4492C19.0586 14.4526 19.0554 14.4584 19.0511 14.4658C19.0372 14.4903 19.0191 14.5287 19.0043 14.5781C18.9896 14.6273 18.9836 14.6684 18.9818 14.6963C18.9813 14.704 18.9818 14.7099 18.9818 14.7139L19.6351 17.4199C19.9264 18.6299 19.9301 20.2314 18.6527 21.123C17.4028 21.9954 15.8565 21.5239 14.7504 20.8984L14.7494 20.8975L11.9818 19.3281C11.9764 19.3263 11.9662 19.3237 11.9515 19.3203C11.9164 19.3123 11.8645 19.3057 11.8011 19.3057C11.7385 19.3057 11.6856 19.3128 11.6478 19.3213C11.6067 19.3306 11.5994 19.3362 11.6176 19.3262L11.6166 19.3281L11.6156 19.3271L8.84704 20.8975C7.7384 21.5271 6.19512 21.9912 4.94665 21.1191C3.67197 20.2286 3.66802 18.6324 3.9613 17.4189L4.61462 14.7139C4.61465 14.7099 4.61511 14.704 4.61462 14.6963C4.61285 14.6684 4.60587 14.6273 4.59119 14.5781C4.57642 14.5287 4.55922 14.4903 4.54529 14.4658C4.5418 14.4597 4.5387 14.4545 4.5365 14.4512L2.24255 12.2539C1.38363 11.4316 0.698108 10.2186 1.13318 8.91406C1.56433 7.62148 2.83728 7.02444 4.02478 6.83496L6.96912 6.36621C6.97402 6.3645 6.98257 6.36231 6.99353 6.35742C7.02332 6.34412 7.06418 6.32139 7.10974 6.28906C7.15553 6.25655 7.18819 6.22668 7.2074 6.20605C7.21123 6.20192 7.21388 6.19803 7.21619 6.19531L8.84802 3.07324V3.07129C9.40893 2.00291 10.3969 1 11.7972 1ZM11.7972 2.59961C11.2541 2.59961 10.6977 2.99125 10.265 3.81543L8.62927 6.94531L8.62732 6.95117C8.50232 7.19362 8.28189 7.41948 8.0365 7.59375C7.78902 7.76943 7.50565 7.89956 7.24646 7.94238L7.24548 7.94336H7.2406L4.27673 8.41504C3.32525 8.56688 2.80197 8.96695 2.65076 9.41992C2.50405 9.85976 2.67714 10.4554 3.349 11.0986L5.65466 13.3066C5.86838 13.5113 6.03114 13.8074 6.12439 14.1191C6.217 14.4289 6.24489 14.7656 6.1781 15.0557L6.17712 15.0586L6.17517 15.0654L5.51599 17.7949C5.25973 18.8555 5.44672 19.5168 5.86267 19.8076C6.30386 20.1157 7.06661 20.0691 8.05798 19.5059L10.8334 17.9326L10.8402 17.9287L10.8422 17.9277L10.8431 17.9268C11.114 17.7772 11.4605 17.7051 11.8011 17.7051C12.1432 17.7051 12.4905 17.7779 12.7582 17.9297L15.5375 19.5049C16.5338 20.0683 17.2968 20.1183 17.7367 19.8115C18.1513 19.5221 18.336 18.8609 18.0795 17.7949L17.4203 15.0654L17.4193 15.0586L17.4183 15.0576V15.0557C17.3515 14.7656 17.3794 14.4289 17.472 14.1191C17.5653 13.8075 17.7272 13.5113 17.9408 13.3066L20.2455 11.1006L20.2484 11.0977C20.9243 10.4546 21.097 9.85909 20.9496 9.41992C20.7975 8.96759 20.2732 8.56853 19.3256 8.41602L15.8744 7.94629C15.7975 7.93578 15.7224 7.91393 15.6517 7.88184L15.9828 7.15332L15.6478 7.87988C15.6472 7.87962 15.6451 7.87849 15.6439 7.87793C15.6417 7.8769 15.6393 7.87603 15.6371 7.875C15.6325 7.8728 15.6279 7.87042 15.6234 7.86816C15.6145 7.86368 15.6056 7.85916 15.597 7.85449C15.5798 7.84502 15.5631 7.83435 15.5472 7.82422C15.5156 7.80405 15.4855 7.78249 15.4574 7.75977C15.4017 7.71475 15.3467 7.66123 15.2914 7.59961C15.1822 7.47794 15.0493 7.29975 14.8832 7.03027C14.5537 6.49573 14.054 5.53828 13.3138 3.80078C12.8869 2.98656 12.337 2.5998 11.7972 2.59961ZM7.22009 6.19141L7.22107 6.18945C7.22105 6.18947 7.22074 6.19043 7.22009 6.19141Z" fill="#0033C9"/>
</svg>
