<svg width="24" height="24" viewBox="0 0 24 24" fill="none" xmlns="http://www.w3.org/2000/svg">
<path d="M18.5 11.2501C18.9142 11.2501 19.25 11.5859 19.25 12.0001C19.25 12.4144 18.9142 12.7501 18.5 12.7501H8.5C8.08579 12.7501 7.75 12.4144 7.75 12.0001C7.75 11.5859 8.08579 11.2501 8.5 11.2501H18.5Z" fill="#0033C9"/>
<path d="M11.9399 15.2499C12.3542 15.2499 12.6899 15.5857 12.6899 15.9999C12.6899 16.4142 12.3542 16.7499 11.9399 16.7499H8.49994C8.08573 16.7499 7.74994 16.4142 7.74994 15.9999C7.74994 15.5857 8.08573 15.2499 8.49994 15.2499H11.9399Z" fill="#0033C9"/>
<path fill-rule="evenodd" clip-rule="evenodd" d="M18.7264 3.16999C19.4125 3.81542 19.6569 4.75665 19.727 5.88695C20.661 6.01762 21.4409 6.32337 21.9765 6.99915C22.6049 7.792 22.75 8.92473 22.75 10.28V17.27C22.75 18.757 22.5783 19.9881 21.7693 20.7864C20.9637 21.5812 19.7244 21.75 18.22 21.75H8.78003C7.30001 21.75 6.07915 21.5879 5.27361 20.83C4.58755 20.1846 4.34303 19.2434 4.27299 18.113C3.33898 17.9824 2.55907 17.6766 2.02348 17.0009C1.39508 16.208 1.25 15.0753 1.25 13.72V6.73C1.25 5.24303 1.42172 4.01195 2.23073 3.21365C3.03626 2.41878 4.27563 2.25 5.78003 2.25H15.22C16.7 2.25 17.9208 2.41215 18.7264 3.16999ZM18.216 5.8H8.78003C7.85305 5.8 7.02669 5.86408 6.34045 6.09923C5.913 6.24571 5.53991 6.45856 5.23073 6.76365C4.42172 7.56195 4.25 8.79303 4.25 10.28V16.5897C3.67089 16.4792 3.37726 16.294 3.19902 16.0691C2.91992 15.717 2.75 15.0647 2.75 13.72V6.73C2.75 5.23697 2.95829 4.60305 3.2843 4.28135C3.61379 3.95622 4.26443 3.75 5.78003 3.75H15.22C16.71 3.75 17.3641 3.94785 17.6986 4.26251C17.9537 4.50253 18.1418 4.9261 18.216 5.8ZM18.22 7.3C18.4502 7.3 18.6677 7.30719 18.8787 7.31566L18.9622 7.31908C20.0908 7.38652 20.5554 7.62101 20.801 7.93086C21.0801 8.28301 21.25 8.93528 21.25 10.28V17.27C21.25 18.763 21.0417 19.397 20.7157 19.7187C20.3862 20.0438 19.7356 20.25 18.22 20.25H8.78003C7.29005 20.25 6.63589 20.0522 6.30142 19.7375C5.98024 19.4353 5.7653 18.8423 5.75 17.426V10.28C5.75 9.16022 5.86716 8.5237 6.06328 8.13971C6.12865 8.01171 6.2028 7.91177 6.2843 7.83135C6.36667 7.75007 6.46912 7.67622 6.60013 7.61116C6.99317 7.416 7.64333 7.3 8.78003 7.3L18.22 7.3Z" fill="#0033C9"/>
</svg>
