<svg width="24" height="24" viewBox="0 0 24 24" fill="none" xmlns="http://www.w3.org/2000/svg">
<path d="M12 15.25H8C7.58579 15.25 7.25 15.5858 7.25 16C7.25 16.4142 7.58579 16.75 8 16.75H12C12.4142 16.75 12.75 16.4142 12.75 16C12.75 15.5858 12.4142 15.25 12 15.25Z" fill="#0033C9"/>
<path d="M8 10.25H12C12.4142 10.25 12.75 10.5858 12.75 11C12.75 11.4142 12.4142 11.75 12 11.75H8C7.58579 11.75 7.25 11.4142 7.25 11C7.25 10.5858 7.58579 10.25 8 10.25Z" fill="#0033C9"/>
<path d="M12 5.25L8 5.25C7.58579 5.25 7.25 5.58579 7.25 6C7.25 6.41421 7.58579 6.75 8 6.75L12 6.75C12.4142 6.75 12.75 6.41421 12.75 6C12.75 5.58579 12.4142 5.25 12 5.25Z" fill="#0033C9"/>
<path fill-rule="evenodd" clip-rule="evenodd" d="M17.75 6V9.25H19.7143C20.6305 9.25 21.4077 9.60245 21.9495 10.2023C22.4832 10.7933 22.75 11.5803 22.75 12.4V22C22.75 22.4142 22.4142 22.75 22 22.75H3C2.58579 22.75 2.25 22.4142 2.25 22V6C2.25 4.72998 2.68425 3.53846 3.51828 2.65893C4.35813 1.77327 5.5603 1.25 7 1.25H13C14.4397 1.25 15.6419 1.77327 16.4817 2.65893C17.3157 3.53846 17.75 4.72998 17.75 6ZM4.60672 3.69107C4.06575 4.26154 3.75 5.07002 3.75 6V21.25H16.25V6C16.25 5.07002 15.9343 4.26154 15.3933 3.69107C14.8581 3.12672 14.0603 2.75 13 2.75H7C5.9397 2.75 5.14187 3.12672 4.60672 3.69107ZM21.25 21.25H17.75V10.75H19.7143C20.2266 10.75 20.5923 10.9376 20.8363 11.2077C21.0882 11.4867 21.25 11.8997 21.25 12.4V21.25Z" fill="#0033C9"/>
</svg>
