<svg width="24" height="24" viewBox="0 0 24 24" fill="none" xmlns="http://www.w3.org/2000/svg">
<path d="M5.59187 3.75C4.90566 3.75 4.37753 4.14097 4.23011 4.69515C3.50717 7.41271 2.75 12.4425 2.75 15.3223C2.75 16.3286 3.01818 17.1191 3.44688 17.6848C3.87211 18.2459 4.48804 18.6305 5.27453 18.7802C6.32466 18.98 8.29101 19.1313 10.1476 19.1313C10.5618 19.1313 10.8976 19.4671 10.8976 19.8813C10.8976 20.2956 10.5618 20.6313 10.1476 20.6313C8.243 20.6313 6.173 20.4781 4.9941 20.2537C3.86586 20.039 2.91463 19.466 2.25138 18.5908C1.59161 17.7202 1.25 16.5955 1.25 15.3223C1.25 12.2893 2.03059 7.12857 2.78052 4.30953C3.13088 2.9925 4.34178 2.25 5.59187 2.25H14.3256C15.5851 2.25 16.7601 2.99599 17.1683 4.25773C17.4558 5.14669 17.7904 6.31302 18.0516 7.53212C18.1384 7.93713 17.8804 8.33582 17.4754 8.42261C17.0704 8.5094 16.6717 8.25143 16.5849 7.84641C16.3366 6.68761 16.0167 5.57139 15.7411 4.7194C15.5533 4.13883 15.0024 3.75 14.3256 3.75H5.59187Z" fill="#0033CC"/>
<path d="M9.9717 8.50214C8.91836 8.50214 8.06445 7.64823 8.06445 6.59489V6.12596C8.06445 5.71175 7.72867 5.37596 7.31445 5.37596C6.90024 5.37596 6.56445 5.71175 6.56445 6.12596V6.59489C6.56445 8.47666 8.08993 10.0021 9.9717 10.0021C11.8535 10.0021 13.379 8.47666 13.379 6.59489V6.12596C13.379 5.71175 13.0432 5.37596 12.629 5.37596C12.2147 5.37596 11.879 5.71175 11.879 6.12596V6.59489C11.879 7.64823 11.025 8.50214 9.9717 8.50214Z" fill="#0033CC"/>
<path fill-rule="evenodd" clip-rule="evenodd" d="M13.5152 11.2523C13.7913 10.705 14.3502 10.3784 14.9443 10.3784H19.2238C19.8179 10.3784 20.3768 10.705 20.6529 11.2523C20.7988 11.5415 20.9578 12.0164 21.0914 12.4338C21.15 12.6171 21.2055 12.7949 21.2571 12.9604L21.319 13.1587C21.8523 13.3119 22.305 13.7337 22.4343 14.3326C22.5686 14.9547 22.5686 15.3991 22.4343 16.0212C22.3058 16.6166 21.8574 17.0371 21.328 17.1924C21.0717 18.5261 20.6924 20.1659 20.471 20.9997C20.2821 21.7114 19.638 22.1948 18.9122 22.1948H15.2558C14.53 22.1948 13.8859 21.7114 13.697 20.9997C13.4756 20.1659 13.0963 18.5262 12.84 17.1925C12.3105 17.0372 11.8621 16.6167 11.7335 16.0212C11.5992 15.3991 11.5992 14.9547 11.7335 14.3326C11.8628 13.7336 12.3157 13.3117 12.8492 13.1586L12.9111 12.9603C12.9627 12.7947 13.0181 12.6172 13.0767 12.4338C13.2103 12.0164 13.3693 11.5415 13.5152 11.2523ZM13.4447 14.5903C13.4346 14.5907 13.4246 14.5908 13.4146 14.5908L13.2942 14.5952C13.2628 14.5963 13.2367 14.6076 13.2199 14.6209C13.2047 14.633 13.2011 14.6428 13.1998 14.649C13.1105 15.0626 13.1105 15.2912 13.1998 15.7047C13.2011 15.7109 13.2047 15.7208 13.2199 15.7328C13.2367 15.7462 13.2628 15.7574 13.2942 15.7586C13.5252 15.7669 13.7579 15.7758 13.9909 15.7847L13.9939 15.7848C15.002 15.8233 16.0294 15.8626 17.0839 15.8626C18.1385 15.8626 19.1667 15.8233 20.1748 15.7848C20.4087 15.7758 20.6417 15.7669 20.8736 15.7586C20.905 15.7574 20.9311 15.7462 20.9479 15.7328C20.9631 15.7208 20.9667 15.7109 20.9681 15.7047C21.0573 15.2912 21.0573 15.0626 20.9681 14.649C20.9667 14.6428 20.9631 14.633 20.9479 14.6209C20.9311 14.6076 20.905 14.5963 20.8736 14.5952L20.7533 14.5908C20.7433 14.5908 20.7334 14.5907 20.7234 14.5903C20.5433 14.5836 20.3621 14.5767 20.1803 14.5698C19.1692 14.5311 18.1377 14.4917 17.084 14.4917C16.0303 14.4917 14.9991 14.5311 13.9881 14.5697C13.8062 14.5767 13.6248 14.5836 13.4447 14.5903ZM19.6627 12.8909C19.6794 12.9431 19.6963 12.9964 19.7134 13.0504C18.8639 13.0189 17.982 12.9911 17.0839 12.9911C16.1859 12.9911 15.3041 13.0189 14.4548 13.0504C14.4718 12.9964 14.4887 12.9431 14.5054 12.8909C14.6482 12.4445 14.7722 12.0908 14.8544 11.9279C14.867 11.9029 14.8974 11.8784 14.9443 11.8784H19.2238C19.2707 11.8784 19.3011 11.9029 19.3137 11.9279C19.3959 12.0908 19.5199 12.4445 19.6627 12.8909ZM14.3901 17.3015C14.6338 18.5144 14.9546 19.8911 15.1467 20.6148C15.1585 20.6589 15.1996 20.6948 15.2558 20.6948H18.9122C18.9684 20.6948 19.0095 20.6589 19.0213 20.6148C19.2134 19.8911 19.5342 18.5144 19.7779 17.3015C18.9099 17.3339 18.007 17.3632 17.084 17.3632C16.161 17.3632 15.2582 17.3339 14.3901 17.3015Z" fill="#0033CC"/>
</svg>
