<svg width="24" height="24" viewBox="0 0 24 24" fill="none" xmlns="http://www.w3.org/2000/svg">
<path fill-rule="evenodd" clip-rule="evenodd" d="M19.3271 5.86344C19.3271 3.31551 17.2616 1.25 14.7137 1.25C12.1658 1.25 10.1003 3.31551 10.1003 5.86344C10.1003 8.41137 12.1658 10.4769 14.7137 10.4769C17.2616 10.4769 19.3271 8.41137 19.3271 5.86344ZM14.7137 2.75C16.4332 2.75 17.8271 4.14393 17.8271 5.86344C17.8271 7.58294 16.4332 8.97688 14.7137 8.97688C12.9942 8.97688 11.6003 7.58294 11.6003 5.86344C11.6003 4.14393 12.9942 2.75 14.7137 2.75Z" fill="#0033CC"/>
<path fill-rule="evenodd" clip-rule="evenodd" d="M8.09375 7.05468C8.09375 5.16484 6.56173 3.63281 4.67188 3.63281C2.78203 3.63281 1.25001 5.16484 1.25001 7.05468C1.25001 8.94453 2.78203 10.4766 4.67188 10.4766C6.56173 10.4766 8.09375 8.94453 8.09375 7.05468ZM4.67188 5.13281C5.7333 5.13281 6.59375 5.99326 6.59375 7.05468C6.59375 8.1161 5.7333 8.97655 4.67188 8.97655C3.61046 8.97655 2.75001 8.1161 2.75001 7.05468C2.75001 5.99326 3.61046 5.13281 4.67188 5.13281Z" fill="#0033CC"/>
<path fill-rule="evenodd" clip-rule="evenodd" d="M21.0994 13.0509C20.8871 12.9124 20.6193 12.8905 20.3874 12.9927L20.048 13.1423C19.835 13.2362 19.5351 13.3686 19.1877 13.5222C18.7601 13.7113 18.2603 13.9327 17.7615 14.1543C17.7484 14.0644 17.7351 13.9752 17.722 13.8867C17.5586 12.7864 16.6557 11.9334 15.5453 11.8373C12.5772 11.5803 9.60741 11.5803 6.63865 11.8373C5.5282 11.9334 4.62537 12.7864 4.46192 13.8867C4.14811 15.9992 4.14811 17.9676 4.46192 20.0801C4.62537 21.1804 5.5282 22.0333 6.63865 22.1295C9.60861 22.3866 12.576 22.3866 15.5453 22.1295C16.6557 22.0333 17.5586 21.1804 17.722 20.0801C17.7351 19.9917 17.7484 19.9025 17.7615 19.8126C18.2602 20.0342 18.7601 20.2556 19.1877 20.4447C19.5351 20.5983 19.835 20.7306 20.048 20.8246L20.3874 20.9742C20.6193 21.0764 20.8871 21.0545 21.0994 20.916C21.3117 20.7776 21.4396 20.5413 21.4396 20.2878V13.6791C21.4396 13.4256 21.3117 13.1893 21.0994 13.0509ZM6.76804 13.3317C9.6507 13.0821 12.5339 13.0822 15.4159 13.3317C15.8321 13.3677 16.1766 13.6916 16.2383 14.1071C16.2972 14.5036 16.3547 14.8962 16.4024 15.2915L16.4024 18.6754C16.3547 19.0706 16.2972 19.4632 16.2383 19.8597C16.1766 20.2752 15.8321 20.599 15.4159 20.6351C12.5327 20.8847 9.65189 20.8848 6.76804 20.6351C6.35178 20.599 6.00737 20.2752 5.94564 19.8597C5.65353 17.8933 5.65353 16.0735 5.94564 14.1071C6.00737 13.6916 6.35178 13.3677 6.76804 13.3317ZM17.9024 18.2335L17.9024 15.7334C18.546 15.4467 19.2322 15.1426 19.7943 14.8941L19.9396 14.8299V19.137L19.7943 19.0728C19.2322 18.8243 18.546 18.5202 17.9024 18.2335Z" fill="#0033CC"/>
</svg>
