<svg width="24" height="24" viewBox="0 0 24 24" fill="none" xmlns="http://www.w3.org/2000/svg">
<path fill-rule="evenodd" clip-rule="evenodd" d="M13.283 7.1708C13.0611 6.72506 12.6399 6.25006 12.0009 6.25006C11.363 6.25006 10.9408 6.7239 10.7173 7.16871L10.1104 8.38243L10.1093 8.38328L10.1075 8.38459L9.02033 8.56522C8.53031 8.64689 7.97051 8.91214 7.78042 9.50741C7.59056 10.102 7.89184 10.6422 8.24242 10.9928L9.09114 11.8415L9.09197 11.8445L8.8501 12.8903C8.73574 13.3846 8.71855 14.1074 9.28956 14.5241C9.8598 14.9401 10.5426 14.7047 10.9793 14.4457L12.0004 13.8412L12.0023 13.8412L13.0237 14.4458C13.4584 14.7026 14.1431 14.942 14.7142 14.5256C15.2867 14.1082 15.2662 13.383 15.1528 12.891L14.9108 11.8445L14.9114 11.8421L15.7585 10.9946L15.7595 10.9936C16.1122 10.6428 16.4147 10.1018 16.2232 9.50605C16.032 8.9114 15.472 8.64682 14.9828 8.56528L13.8913 8.38394L13.8889 8.38225L13.283 7.1708ZM11.9996 7.95817L11.4382 9.0809C11.3287 9.30281 11.1583 9.47285 11.0027 9.5882C10.8462 9.70421 10.635 9.81662 10.3944 9.85748L10.3918 9.85793L9.39458 10.0236L10.1782 10.8072C10.3647 10.9937 10.4751 11.2258 10.5334 11.4293C10.5917 11.6331 10.6201 11.8863 10.5632 12.1402L10.562 12.1452L10.3465 13.0772L11.2749 12.5276C11.5129 12.3891 11.778 12.3412 12.0027 12.3412C12.2266 12.3412 12.4936 12.3889 12.7327 12.5305L13.6562 13.0772L13.4396 12.1402C13.3826 11.8863 13.411 11.6331 13.4693 11.4293C13.5276 11.2258 13.6381 10.9937 13.8246 10.8072L14.6081 10.0236L13.6109 9.85792C13.3693 9.81765 13.1566 9.70601 12.9984 9.58924C12.8414 9.4734 12.6706 9.30302 12.5609 9.08086L11.9996 7.95817Z" fill="#0033C9"/>
<path d="M9.5 16.25C9.08579 16.25 8.75 16.5858 8.75 17C8.75 17.4142 9.08579 17.75 9.5 17.75H14.5C14.9142 17.75 15.25 17.4142 15.25 17C15.25 16.5858 14.9142 16.25 14.5 16.25H9.5Z" fill="#0033C9"/>
<path fill-rule="evenodd" clip-rule="evenodd" d="M2.46967 4.46967C3.45818 3.48116 5.00536 3.25 7 3.25H17C18.9946 3.25 20.5418 3.48116 21.5303 4.46967C22.5188 5.45818 22.75 7.00536 22.75 9V10C22.75 10.4142 22.4142 10.75 22 10.75C21.0342 10.75 20.25 11.5342 20.25 12.5C20.25 13.4658 21.0342 14.25 22 14.25C22.4142 14.25 22.75 14.5858 22.75 15C22.75 16.9946 22.5188 18.5418 21.5303 19.5303C20.5418 20.5188 18.9946 20.75 17 20.75H7C5.00536 20.75 3.45818 20.5188 2.46967 19.5303C1.48116 18.5418 1.25 16.9946 1.25 15V14.5C1.25 14.0858 1.58579 13.75 2 13.75C2.96579 13.75 3.75 12.9658 3.75 12C3.75 11.0342 2.96579 10.25 2 10.25C1.58579 10.25 1.25 9.91421 1.25 9.5V9C1.25 7.00536 1.48116 5.45818 2.46967 4.46967ZM2.75061 8.8372C4.18324 9.17623 5.25 10.4641 5.25 12C5.25 13.5359 4.18324 14.8238 2.75061 15.1628C2.76494 17.0573 3.03288 17.9722 3.53033 18.4697C4.04182 18.9812 4.99464 19.25 7 19.25H17C19.0054 19.25 19.9582 18.9812 20.4697 18.4697C20.9214 18.0179 21.1839 17.2218 21.239 15.6603C19.8116 15.3176 18.75 14.0322 18.75 12.5C18.75 10.9639 19.8171 9.67586 21.25 9.33706V9C21.25 6.99464 20.9812 6.04182 20.4697 5.53033C19.9582 5.01884 19.0054 4.75 17 4.75H7C4.99464 4.75 4.04182 5.01884 3.53033 5.53033C3.03288 6.02778 2.76494 6.94266 2.75061 8.8372Z" fill="#0033C9"/>
</svg>
