<svg width="24" height="24" viewBox="0 0 24 24" fill="none" xmlns="http://www.w3.org/2000/svg">
<path fill-rule="evenodd" clip-rule="evenodd" d="M15.5127 5.74843V2.97183C15.5127 2.6815 15.7138 2.43435 15.9855 2.33205C16.6623 2.07727 17.1924 1.81003 17.7624 1.5227C18.0619 1.37169 18.3725 1.21514 18.7211 1.05193C18.8778 0.978571 19.0596 0.98338 19.2129 1.06354C19.3825 1.15219 19.5433 1.23767 19.6987 1.32024C20.4475 1.7181 21.0697 2.04872 21.9296 2.3434C22.213 2.4405 22.4267 2.69306 22.4267 2.99262V5.74843C22.4267 7.5435 20.1568 9.09484 19.0044 9.42913C17.8521 9.09484 15.5127 7.5435 15.5127 5.74843ZM17.0127 5.74843V3.53622C17.5602 3.30443 18.0599 3.05322 18.5331 2.81538C18.6693 2.74692 18.8037 2.67936 18.936 2.61389L18.9702 2.63213C19.5863 2.96003 20.1909 3.28187 20.9267 3.5721V5.74843C20.9267 6.02258 20.7263 6.48648 20.1326 7.03222C19.752 7.38203 19.333 7.64947 19.0018 7.81623C18.6592 7.64691 18.2234 7.37469 17.8282 7.02011C17.2106 6.46595 17.0127 6.00532 17.0127 5.74843Z" fill="#0033CC"/>
<path fill-rule="evenodd" clip-rule="evenodd" d="M11.883 3.22774C12.3095 3.22774 12.6553 3.57349 12.6553 4V5.22572C12.8263 5.23034 12.9923 5.23654 13.1541 5.24436C13.5801 5.26494 13.9088 5.62697 13.8882 6.05298C13.8676 6.47899 13.5056 6.80766 13.0796 6.78708C12.7074 6.76911 12.307 6.76005 11.8613 6.76005C10.1214 6.76005 8.99649 6.89774 7.63911 7.18131C7.4208 7.22692 7.25439 7.35435 7.1695 7.51279C6.61939 8.5395 6.29819 9.63747 6.23755 10.7392C6.21843 11.0866 5.96932 11.3784 5.62918 11.4517C5.06134 11.5741 4.48669 11.7087 3.8994 11.8533C3.598 11.9275 3.3425 12.1757 3.25017 12.512L3.22427 12.6062C2.98334 13.4824 2.77108 14.2718 2.77108 15.0623C2.77108 15.8032 2.95837 16.5482 3.18235 17.3658C3.29056 17.7608 3.64257 18.0411 4.03413 18.0585L4.04943 18.0592C4.17066 16.36 5.58752 15.0192 7.31754 15.0192C9.12711 15.0192 10.5941 16.4862 10.5941 18.2958L10.594 18.3216C11.4528 18.3312 12.3121 18.3288 13.171 18.3145L13.1709 18.2958C13.1709 16.4862 14.6378 15.0192 16.4474 15.0192C18.1774 15.0192 19.5943 16.36 19.7155 18.0592L19.7308 18.0585C20.1224 18.0411 20.4744 17.7608 20.5826 17.3658C20.8066 16.5482 20.9939 15.8032 20.9939 15.0623C20.9939 14.2718 20.7816 13.4824 20.5407 12.6062L20.5209 12.5343C20.4079 12.123 20.6497 11.698 21.061 11.585C21.4723 11.472 21.8973 11.7139 22.0103 12.1251L22.0412 12.2378C22.2701 13.0699 22.5384 14.0452 22.5384 15.0623C22.5384 16.0375 22.2926 16.9694 22.0722 17.7739C21.7915 18.7985 20.8782 19.5536 19.7993 19.6015L19.4465 19.6174C18.9384 20.7687 17.7867 21.5723 16.4474 21.5723C15.2011 21.5723 14.1173 20.8764 13.5633 19.852C12.4415 19.8751 11.3188 19.8782 10.1967 19.861C9.64134 20.8805 8.56024 21.5723 7.31754 21.5723C5.97975 21.5723 4.82923 20.7705 4.32024 19.6213C4.17457 19.6125 4.04679 19.6051 3.9657 19.6015C2.88678 19.5536 1.97341 18.7985 1.69272 17.7739C1.47233 16.9694 1.22656 16.0375 1.22656 15.0623C1.22656 14.0452 1.49483 13.0699 1.72371 12.2378L1.76077 12.103C1.99101 11.2645 2.64864 10.5706 3.53021 10.3535C3.93963 10.2528 4.34512 10.1562 4.74816 10.0648C4.8895 8.92551 5.2551 7.81542 5.80809 6.78334C6.1287 6.18497 6.70111 5.7994 7.32326 5.66943C8.57552 5.40782 9.65969 5.26089 11.1108 5.22452V4C11.1108 3.57349 11.4565 3.22774 11.883 3.22774ZM7.31754 16.5638C6.36098 16.5638 5.58553 17.3392 5.58553 18.2958C5.58553 19.2523 6.36098 20.0278 7.31754 20.0278C8.2741 20.0278 9.04955 19.2523 9.04955 18.2958C9.04955 17.3392 8.2741 16.5638 7.31754 16.5638ZM14.7154 18.2958C14.7154 17.3392 15.4909 16.5638 16.4474 16.5638C17.404 16.5638 18.1794 17.3392 18.1794 18.2958C18.1794 19.2523 17.404 20.0278 16.4474 20.0278C15.4909 20.0278 14.7154 19.2523 14.7154 18.2958Z" fill="#0033CC"/>
</svg>
