<svg width="24" height="24" viewBox="0 0 24 24" fill="none" xmlns="http://www.w3.org/2000/svg">
<path d="M4.62679 4.93231C4.97419 4.93231 5.25625 5.21366 5.25626 5.56106V16.919C5.25641 17.86 6.01934 18.6231 6.96038 18.6231H19.3713C19.7185 18.6233 20 18.9045 20 19.2518C20 19.5991 19.7185 19.8804 19.3713 19.8806H6.96038C5.32453 19.8806 3.99819 18.5548 3.99805 16.919V5.56106C3.99806 5.21376 4.27953 4.93247 4.62679 4.93231Z" fill="#0033C9"/>
<path d="M15.4289 6.51285C15.6127 6.50367 15.7912 6.57502 15.9175 6.7087L19.5375 10.5455C19.7759 10.7981 19.7648 11.196 19.5122 11.4344C19.2595 11.6728 18.861 11.6611 18.6225 11.4084L15.5092 8.10929L10.3426 14.8253C10.1326 15.098 9.74213 15.1511 9.46669 14.9446L6.97845 13.0786C6.70061 12.8701 6.64428 12.4755 6.8527 12.1976C7.06117 11.9198 7.4558 11.8634 7.73367 12.0718L9.7247 13.5656L14.9614 6.75712C15.0737 6.61112 15.245 6.52212 15.4289 6.51285Z" fill="#0033C9"/>
</svg>
