<svg width="24" height="24" viewBox="0 0 24 24" fill="none" xmlns="http://www.w3.org/2000/svg">
<path fill-rule="evenodd" clip-rule="evenodd" d="M9.86755 9.91992C11.2225 9.91992 12.0865 10.031 13.1927 10.2529C13.7038 10.3555 14.1775 10.6726 14.4388 11.1699C14.8259 11.9066 15.0901 12.6797 15.2035 13.4824C15.4512 13.5375 15.6972 13.593 15.9408 13.6494C16.6546 13.8149 17.1923 14.3701 17.3783 15.0469L17.3929 15.0986L17.4027 15.1357C17.5672 15.7336 17.767 16.4592 17.767 17.2188C17.7669 17.9504 17.5823 18.6458 17.4232 19.2266C17.2008 20.0377 16.4774 20.6368 15.6205 20.6748C15.5108 20.6797 15.4008 20.6844 15.2904 20.6895C15.0609 21.5877 14.2494 22.2528 13.2797 22.2529C12.368 22.2529 11.5951 21.6652 11.3148 20.8486C10.8418 20.8599 10.3644 20.8691 9.88318 20.8691C9.5253 20.8691 9.16928 20.8649 8.8158 20.8584C8.53264 21.6696 7.76361 22.2528 6.85583 22.2529C5.89222 22.2529 5.08356 21.5966 4.84802 20.707C4.61212 20.6959 4.37752 20.6851 4.1449 20.6748C3.28827 20.6366 2.56552 20.0375 2.34314 19.2266C2.18405 18.6458 1.99946 17.9504 1.99939 17.2188C1.99939 16.4592 2.19917 15.7336 2.36365 15.1357L2.37341 15.0986L2.39197 15.0312C2.57388 14.3687 3.09493 13.8174 3.79724 13.6445C4.05511 13.5811 4.3112 13.5194 4.5658 13.4609C4.68076 12.6561 4.94516 11.8738 5.33533 11.1455C5.59348 10.6637 6.0532 10.3563 6.54822 10.2529C7.61532 10.03 8.51771 9.91993 9.86755 9.91992ZM6.85583 19.5557C6.51418 19.5557 6.23684 19.8322 6.23669 20.1738C6.23669 20.5156 6.51409 20.793 6.85583 20.793C7.19741 20.7928 7.474 20.5154 7.474 20.1738C7.47385 19.8323 7.19732 19.5559 6.85583 19.5557ZM13.2797 19.5557C12.938 19.5557 12.6607 19.8322 12.6605 20.1738C12.6605 20.5156 12.9379 20.793 13.2797 20.793C13.6212 20.7928 13.8978 20.5154 13.8978 20.1738C13.8977 19.8323 13.6211 19.5559 13.2797 19.5557ZM9.86755 11.3799C8.62046 11.3799 7.81808 11.4788 6.84705 11.6816C6.73375 11.7053 6.65778 11.769 6.62244 11.835C6.36448 12.3164 6.17857 12.8195 6.07068 13.3291H7.54724C7.95033 13.3292 8.27673 13.6555 8.27673 14.0586C8.27673 14.4617 7.95033 14.788 7.54724 14.7881H5.31775C4.93334 14.8718 4.54363 14.9636 4.14587 15.0615C3.99196 15.0994 3.85174 15.2302 3.80017 15.418L3.78162 15.4863C3.60619 16.1243 3.45935 16.6736 3.45935 17.2188C3.45942 17.7289 3.58887 18.2477 3.75134 18.8408C3.81073 19.0567 4.00319 19.2066 4.21033 19.2158C4.47022 19.2273 4.73178 19.2396 4.99451 19.252C5.33452 18.5671 6.03937 18.0957 6.85583 18.0957C7.72893 18.0959 8.47484 18.6345 8.78259 19.3975C9.14751 19.4045 9.51449 19.4092 9.88318 19.4092C10.3772 19.4092 10.8677 19.3998 11.3549 19.3877C11.665 18.6296 12.41 18.0957 13.2797 18.0957C14.0892 18.0959 14.7881 18.5598 15.1312 19.2354L15.556 19.2158C15.7632 19.2066 15.9557 19.0567 16.015 18.8408C16.1775 18.2477 16.3069 17.7289 16.307 17.2188C16.307 16.6736 16.1602 16.1243 15.9847 15.4863L15.9701 15.4336C15.9178 15.2437 15.7726 15.1098 15.6107 15.0723C15.2008 14.9773 14.7901 14.8843 14.3773 14.7969C14.0536 14.7283 13.8162 14.4505 13.7992 14.1201C13.76 13.3528 13.5379 12.5948 13.1459 11.8486C13.1076 11.776 13.0257 11.7077 12.9056 11.6836C11.8817 11.4782 11.1143 11.3799 9.86755 11.3799Z" fill="#0033C9"/>
<path fill-rule="evenodd" clip-rule="evenodd" d="M19.3676 2C19.7102 2 19.9876 2.27749 19.9877 2.62012V3.5918C20.0189 3.59542 20.0504 3.59895 20.0814 3.60254C20.9715 3.70556 21.6803 4.41275 21.7806 5.30566C21.7839 5.33443 21.7872 5.36366 21.7904 5.39258C21.8914 6.29158 22.0004 7.26329 22.0004 8.2627C22.0003 9.26195 21.8914 10.233 21.7904 11.1318C21.7872 11.1608 21.7839 11.19 21.7806 11.2188C21.6803 12.1117 20.9715 12.8188 20.0814 12.9219C20.0342 12.9273 19.9865 12.933 19.9388 12.9385C19.3288 13.0092 18.684 13.0834 18.0258 13.123C17.6801 13.1438 17.3835 12.8808 17.3627 12.5352C17.3419 12.1896 17.605 11.8929 17.9506 11.8721C18.5724 11.8346 19.1839 11.7638 19.8002 11.6924C19.8456 11.6871 19.8914 11.681 19.9369 11.6758C20.2496 11.6396 20.4995 11.3893 20.5345 11.0791L20.5414 11.0166C20.6442 10.1005 20.7464 9.19057 20.7465 8.2627C20.7465 7.83954 20.7236 7.41987 20.6908 7.00195H13.5297C13.4968 7.41986 13.474 7.83954 13.474 8.2627C13.4738 8.60874 13.1931 8.88965 12.847 8.88965C12.5009 8.88965 12.2203 8.60875 12.2201 8.2627C12.2201 7.26328 12.3291 6.29159 12.4301 5.39258C12.4333 5.36366 12.4366 5.33443 12.4398 5.30566C12.5402 4.41277 13.249 3.7056 14.139 3.60254C14.1881 3.59686 14.2379 3.59169 14.2875 3.58594C14.3105 3.58327 14.3337 3.57982 14.3568 3.57715V2.62012C14.3569 2.27751 14.6343 2.00004 14.9769 2C15.3196 2 15.597 2.27749 15.597 2.62012V3.44629C16.0898 3.40269 16.5968 3.37207 17.1107 3.37207C17.6677 3.37209 18.2159 3.40846 18.7474 3.45801V2.62012C18.7475 2.27751 19.0249 2.00004 19.3676 2ZM17.1107 4.62598C16.2029 4.62598 15.3127 4.72881 14.4135 4.83301C14.3703 4.83801 14.3268 4.84364 14.2836 4.84863C13.9707 4.8848 13.7207 5.13589 13.6859 5.44629C13.6836 5.4668 13.6814 5.48731 13.6791 5.50781C13.6696 5.59233 13.6611 5.67729 13.6517 5.76172H20.5687C20.5593 5.6773 20.5509 5.59232 20.5414 5.50781L20.5345 5.44629C20.4997 5.13589 20.2497 4.8848 19.9369 4.84863C19.8937 4.84364 19.8501 4.83801 19.807 4.83301C18.908 4.72883 18.0183 4.62601 17.1107 4.62598Z" fill="#0033C9"/>
<path d="M15.3627 9.14062C15.6395 9.14062 15.8644 9.3648 15.8646 9.6416C15.8646 9.9186 15.6397 10.1436 15.3627 10.1436H15.3588C15.0818 10.1436 14.8568 9.9186 14.8568 9.6416C14.857 9.3648 15.0819 9.14062 15.3588 9.14062H15.3627Z" fill="#0033C9"/>
<path d="M17.2191 9.14062C17.496 9.14062 17.7208 9.3648 17.7211 9.6416C17.7211 9.9186 17.4961 10.1436 17.2191 10.1436H17.2142C16.9375 10.1433 16.7133 9.91844 16.7133 9.6416C16.7135 9.36496 16.9376 9.14089 17.2142 9.14062H17.2191Z" fill="#0033C9"/>
<path d="M19.0746 9.14062C19.3514 9.14062 19.5763 9.3648 19.5765 9.6416C19.5765 9.9186 19.3516 10.1436 19.0746 10.1436H19.0697C18.7929 10.1433 18.5687 9.91847 18.5687 9.6416C18.569 9.36493 18.793 9.14083 19.0697 9.14062H19.0746Z" fill="#0033C9"/>
<path d="M15.3627 7.63574C15.6397 7.63574 15.8646 7.86069 15.8646 8.1377C15.8644 8.41454 15.6396 8.63867 15.3627 8.63867H15.3588C15.0819 8.63867 14.857 8.41454 14.8568 8.1377C14.8568 7.86069 15.0818 7.63574 15.3588 7.63574H15.3627Z" fill="#0033C9"/>
<path d="M17.2191 7.63574C17.4961 7.63574 17.7211 7.86069 17.7211 8.1377C17.7209 8.41454 17.496 8.63867 17.2191 8.63867H17.2142C16.9376 8.63841 16.7134 8.41438 16.7133 8.1377C16.7133 7.86085 16.9375 7.636 17.2142 7.63574H17.2191Z" fill="#0033C9"/>
<path d="M19.0746 7.63574C19.3516 7.63574 19.5765 7.86069 19.5765 8.1377C19.5764 8.41454 19.3515 8.63867 19.0746 8.63867H19.0697C18.793 8.63846 18.5689 8.41441 18.5687 8.1377C18.5687 7.86082 18.7929 7.63595 19.0697 7.63574H19.0746Z" fill="#0033C9"/>
</svg>
