<svg width="24" height="24" viewBox="0 0 24 24" fill="none" xmlns="http://www.w3.org/2000/svg">
<path fill-rule="evenodd" clip-rule="evenodd" d="M11.1164 1.55132C11.681 1.31411 12.3168 1.31411 12.8814 1.55132C16.2084 2.94914 19.5317 4.91142 21.9177 7.46386C22.8727 8.48557 22.0296 9.95 20.7988 9.95H3.19895C1.96817 9.95 1.12504 8.48557 2.0801 7.46386C4.46607 4.91142 7.78941 2.94914 11.1164 1.55132ZM12.3004 2.93422C12.1074 2.85315 11.8904 2.85315 11.6974 2.93422C8.49786 4.27851 5.39944 6.12553 3.21172 8.45H20.7861C18.5983 6.12553 15.4999 4.27851 12.3004 2.93422Z" fill="#0033C9"/>
<path fill-rule="evenodd" clip-rule="evenodd" d="M17.6489 16.4499H12.749V11.5334C12.749 11.1192 12.4132 10.7834 11.999 10.7834C11.5848 10.7834 11.249 11.1192 11.249 11.5334V16.4499H6.34912V11.5334C6.34912 11.1192 6.01333 10.7834 5.59912 10.7834C5.18491 10.7834 4.84912 11.1192 4.84912 11.5334V16.5197C4.05043 16.6744 3.40412 17.0788 2.91281 17.6543C2.29832 18.3741 1.9592 19.3201 1.79095 20.2771C1.54067 21.7008 2.75013 22.7498 3.99897 22.7498H19.9989C21.2477 22.7498 22.4572 21.7008 22.2069 20.2771C22.0386 19.3201 21.6995 18.3741 21.085 17.6543C20.5938 17.0789 19.9475 16.6745 19.1489 16.5197V11.5334C19.1489 11.1192 18.8131 10.7834 18.3989 10.7834C17.9847 10.7834 17.6489 11.1192 17.6489 11.5334V16.4499ZM4.05364 18.6282C3.67605 19.0705 3.41047 19.7281 3.2683 20.5368C3.21259 20.8537 3.48051 21.2498 3.99897 21.2498H19.9989C20.5173 21.2498 20.7852 20.8537 20.7295 20.5368C20.5874 19.7281 20.3218 19.0705 19.9442 18.6282C19.591 18.2145 19.1123 17.9529 18.4111 17.9499C18.407 17.95 18.403 17.95 18.3989 17.95C18.3944 17.95 18.3898 17.95 18.3853 17.9499H12.0127L11.999 17.95L11.9854 17.9499H5.61279L5.59912 17.95L5.58695 17.9499C4.88559 17.9529 4.40686 18.2145 4.05364 18.6282Z" fill="#0033C9"/>
</svg>
