<svg width="24" height="24" viewBox="0 0 24 24" fill="none" xmlns="http://www.w3.org/2000/svg">
<path d="M17.6328 14.3841C20.1202 14.3842 22.1433 16.389 22.1435 18.8695C22.1435 21.3501 20.1203 23.3547 17.6328 23.3548C15.1452 23.3548 13.122 21.3502 13.122 18.8695C13.1222 16.3889 15.1453 14.3841 17.6328 14.3841ZM17.6328 15.5579C15.7861 15.558 14.2951 17.0442 14.2949 18.8695C14.2949 20.6949 15.786 22.1809 17.6328 22.181C19.4795 22.1808 20.9697 20.6948 20.9697 18.8695C20.9695 17.0442 19.4793 15.5581 17.6328 15.5579ZM17.5371 16.223C17.6901 16.1307 17.8856 16.1458 18.0244 16.2689L18.9511 17.0911C19.1301 17.2498 19.1527 17.5301 19.0009 17.7171C18.849 17.9039 18.5803 17.9265 18.4013 17.7679L18.1748 17.5667V20.1693L18.4013 19.9681C18.5803 19.8095 18.8491 19.8329 19.0009 20.0198C19.1527 20.2068 19.13 20.4872 18.9511 20.6458L18.0244 21.4681C17.8658 21.6085 17.6331 21.6084 17.4746 21.4681L16.5468 20.6458C16.3681 20.4872 16.3455 20.2068 16.497 20.0198C16.6488 19.8329 16.9176 19.8097 17.0966 19.9681L17.3242 20.1693V17.5657L17.0966 17.7679L17.0615 17.7962C16.884 17.9231 16.6392 17.8922 16.497 17.7171C16.3453 17.5301 16.368 17.2498 16.5468 17.0911L17.4746 16.2689L17.5371 16.223ZM9.77633 1.41535C10.3469 1.20786 10.9815 1.23027 11.7519 1.28449C11.972 1.29999 12.2165 1.31967 12.4834 1.34113L15.7636 1.6048C16.0307 1.62629 16.2752 1.64545 16.4951 1.66535C17.2895 1.73727 17.8206 1.82056 18.3388 2.11164C18.8757 2.41341 19.3086 2.8678 19.5615 3.42023C19.8161 3.97697 19.7939 4.59343 19.7422 5.28644C19.7312 5.43284 19.7167 5.59078 19.7021 5.7591L20.2265 6.04719C20.2392 6.05419 20.2523 6.06195 20.2646 6.06965C20.6009 6.28049 20.8966 6.4657 21.1298 6.64289C21.3754 6.82941 21.5948 7.03807 21.7636 7.32062C22.0866 7.86134 22.0943 8.47174 22.1259 9.16047C22.1689 10.095 22.1876 11.2105 22.1826 12.2288L22.1699 13.2054L22.164 13.2835C22.1155 13.6713 21.7778 13.9673 21.3759 13.9583C20.9744 13.9491 20.6511 13.6386 20.6201 13.2493L20.6172 13.1702L20.6298 12.2191C20.6332 11.5234 20.6249 10.781 20.6054 10.0872L18.1464 11.8782C18.1422 11.8813 18.1371 11.885 18.1328 11.888C17.8959 12.0532 17.4016 12.3951 16.9746 12.6829C17.1101 12.9467 17.0859 13.2765 16.8857 13.5208C16.615 13.8503 16.1262 13.9004 15.7939 13.6321L14.8408 12.8607L14.8369 12.8577C13.801 12.0107 13.2834 11.7849 12.8466 11.7903C12.3747 11.7966 11.7843 12.0692 10.5966 12.8948L4.06637 17.6497C4.16813 17.8995 4.27598 18.0606 4.3779 18.1575C4.71295 18.4758 5.12683 18.6671 5.82125 18.7816C6.54773 18.9013 7.49265 18.925 8.85934 18.9573C9.2951 18.9677 9.80451 18.975 10.2568 18.9798L11.3134 18.9866L11.3925 18.9905C11.784 19.0289 12.0905 19.3562 12.0918 19.7552C12.0927 20.1541 11.7885 20.4831 11.3974 20.5237L11.3183 20.5286L10.2402 20.5218C9.7809 20.5169 9.26459 20.5098 8.82223 20.4993C7.49996 20.468 6.42694 20.4437 5.56735 20.3021C4.67652 20.1552 3.93445 19.8713 3.30368 19.2718C2.94107 18.9271 2.705 18.4749 2.54293 18.0101C2.37968 17.5417 2.27509 17.0114 2.20407 16.4622C2.06286 15.3696 2.04142 14.083 2.01364 12.8597C1.98565 11.6271 2.00039 10.4059 2.05758 9.16144C2.08924 8.47275 2.09719 7.8623 2.41989 7.3216C2.58872 7.0389 2.80812 6.82947 3.05368 6.64289C3.28705 6.46562 3.58341 6.28059 3.91989 6.06965L3.93649 6.05988L4.58786 5.67316C4.56655 5.171 4.59398 4.70147 4.80465 4.26789C5.08484 3.69201 5.54854 3.34503 6.02047 3.09113L6.04293 3.07844C6.31289 2.94498 6.85684 2.70764 7.69625 2.48957L8.07418 2.39777L8.15231 2.38508C8.24591 2.37349 8.33883 2.37805 8.42672 2.39875C8.76748 1.95046 9.2388 1.61104 9.77633 1.41535ZM3.57809 10.0306C3.54907 10.9662 3.5452 11.892 3.56637 12.8245C3.59236 13.9688 3.61261 15.0595 3.71286 15.9954L7.8193 13.0042C7.21634 12.628 6.56505 12.1922 6.12887 11.888C6.12456 11.885 6.12043 11.8813 6.11618 11.8782L3.57809 10.0306ZM11.6347 2.8216C10.8229 2.76445 10.516 2.7849 10.3047 2.86164C10.0111 2.96848 9.77682 3.15125 9.62692 3.37043C9.53245 3.50866 9.46235 3.73397 9.38961 4.46515C9.3713 4.64934 9.35353 4.8559 9.33297 5.09211L9.03317 9.73566C9.00584 10.1604 8.63686 10.4859 8.20895 10.4612C7.78121 10.4362 7.45633 10.0713 7.48336 9.6468L7.78219 5.00031L7.78317 4.98273C7.80407 4.74253 7.82388 4.52106 7.84372 4.3216C7.8532 4.22622 7.86521 4.13262 7.87594 4.04035C7.28519 4.20767 6.9143 4.37194 6.74801 4.45344C6.43021 4.62634 6.28513 4.7735 6.20407 4.93976C6.14413 5.06311 6.10905 5.26155 6.15915 5.94855C6.17168 6.12036 6.189 6.31181 6.20797 6.53254L6.34372 7.78742C6.38964 8.21032 6.08205 8.58985 5.65622 8.63508C5.23006 8.67984 4.84702 8.37265 4.80075 7.94953L4.73727 7.37922L4.73141 7.3841C4.38173 7.60335 4.15957 7.74405 3.99704 7.8675C3.84454 7.98338 3.78783 8.05253 3.75485 8.10773C3.73641 8.13867 3.7206 8.17051 3.707 8.21125L7.02829 10.6321C7.60367 11.0332 8.51691 11.6386 9.17282 12.0189L9.69137 11.6409C9.69586 11.6377 9.70144 11.6343 9.70602 11.6312C10.8462 10.8385 11.8096 10.2617 12.8261 10.2484C13.8608 10.2351 14.755 10.8023 15.7714 11.6282C16.188 11.3567 16.8953 10.8665 17.2314 10.6321L20.4882 8.26008C20.4714 8.19448 20.4529 8.1499 20.4277 8.10773C20.3947 8.05251 20.3391 7.98246 20.1865 7.86652C20.036 7.75223 19.8339 7.62439 19.5273 7.43195L19.4355 8.28351L19.4238 8.36164C19.3427 8.74416 18.9808 9.01306 18.581 8.97297C18.1548 8.92982 17.8471 8.55141 17.8925 8.12824L18.1406 5.8089C18.1612 5.57189 18.1795 5.36504 18.1933 5.18C18.248 4.44774 18.2156 4.21522 18.1464 4.06379C18.0365 3.82371 17.8393 3.60473 17.5683 3.45246C17.3646 3.33805 17.1313 3.27164 16.3457 3.20051C16.1352 3.18146 15.8998 3.16257 15.6308 3.14094L12.3496 2.87726C12.0806 2.85563 11.8455 2.83644 11.6347 2.8216ZM14.2422 3.33332C14.5379 3.38211 14.7405 3.64754 14.6943 3.92609L14.6484 4.19953C14.8897 4.30049 15.0854 4.43236 15.2343 4.55793C15.3692 4.67166 15.4705 4.78303 15.539 4.8675C15.5733 4.9098 15.6008 4.94639 15.6201 4.97394C15.6297 4.98775 15.6385 4.99991 15.6445 5.0091L15.6513 5.02082L15.6562 5.02765C15.8078 5.27416 15.7213 5.58794 15.4629 5.72687C15.2061 5.86483 14.8765 5.77936 14.7236 5.53644L14.3994 5.22687C14.2678 5.14126 14.1028 5.073 13.9023 5.05793C13.3321 5.01522 13.1004 5.30054 13.0576 5.55695C13.037 5.68103 13.0519 5.74965 13.0654 5.78547C13.0784 5.81986 13.1016 5.85566 13.1523 5.89777C13.2802 6.00395 13.4864 6.08577 13.8252 6.21027C13.8352 6.21395 13.8461 6.21723 13.8564 6.22101C14.1404 6.32519 14.5381 6.47173 14.8339 6.72492C14.9997 6.86691 15.1431 7.04945 15.2275 7.28156C15.3112 7.51206 15.3257 7.76105 15.2822 8.02277C15.2191 8.40163 14.9665 8.68318 14.6757 8.86262C14.4278 9.01554 14.1309 9.10904 13.8232 9.1468L13.7724 9.45734C13.7258 9.73575 13.4481 9.92189 13.1523 9.87336C12.8564 9.82454 12.6537 9.55828 12.7002 9.27961L12.7392 9.05012C12.2876 8.91201 11.8504 8.6448 11.5205 8.21222C11.3441 7.98077 11.3977 7.66107 11.6396 7.49836C11.8816 7.33582 12.2209 7.39111 12.3974 7.62238C12.6946 8.0121 13.1598 8.16508 13.5791 8.13996C13.7885 8.12736 13.9597 8.07007 14.0713 8.00129C14.1819 7.9329 14.2055 7.87263 14.2099 7.84601C14.2316 7.71525 14.2171 7.64027 14.2021 7.59894C14.1878 7.55947 14.1624 7.52176 14.1123 7.47883C13.9867 7.37136 13.7824 7.2866 13.4472 7.1634C13.4328 7.15809 13.4174 7.1533 13.4023 7.14777C13.1226 7.0454 12.7345 6.90323 12.4443 6.66242C12.2781 6.52441 12.1309 6.34566 12.0439 6.11555C11.9574 5.88665 11.9422 5.63913 11.9853 5.38019C12.1015 4.68335 12.6853 4.11143 13.5742 4.03644L13.622 3.74933C13.6687 3.47089 13.9463 3.28467 14.2422 3.33332ZM14.7168 5.52765C14.7101 5.51819 14.699 5.50202 14.6826 5.48176C14.6476 5.43858 14.5925 5.37829 14.5195 5.31672L14.7168 5.52765Z" fill="#0033C9"/>
</svg>
