<svg width="24" height="24" viewBox="0 0 24 24" fill="none" xmlns="http://www.w3.org/2000/svg">
<path d="M9.84668 17.6797C11.0967 17.6799 12.1101 18.6933 12.1104 19.9434C12.1102 21.1935 11.0968 22.2069 9.84668 22.207C8.59654 22.2069 7.58317 21.1935 7.58301 19.9434C7.58325 18.6933 8.59659 17.6798 9.84668 17.6797ZM17.8291 17.6797C19.079 17.68 20.0925 18.6934 20.0928 19.9434C20.0926 21.1934 19.0791 22.2067 17.8291 22.207C16.5788 22.207 15.5646 21.1936 15.5645 19.9434C15.5647 18.6932 16.5789 17.6797 17.8291 17.6797ZM9.84668 19.1338C9.39995 19.1339 9.03736 19.4967 9.03711 19.9434C9.03727 20.3901 9.3999 20.7528 9.84668 20.7529C10.2934 20.7528 10.6561 20.3901 10.6562 19.9434C10.656 19.4967 10.2934 19.134 9.84668 19.1338ZM17.8291 19.1338C17.3823 19.1338 17.0198 19.4966 17.0195 19.9434C17.0197 20.3902 17.3822 20.7529 17.8291 20.7529C18.2757 20.7526 18.6375 20.39 18.6377 19.9434C18.6374 19.4968 18.2757 19.1341 17.8291 19.1338ZM5.83887 1.88281C7.14056 1.88292 8.27914 2.7604 8.60938 4.01953L9.05664 5.72754H19.5967C21.0519 5.72755 22.2114 7.00912 21.9678 8.48438C21.6219 10.577 21.0969 13.0132 20.499 14.8721C20.1633 15.9157 19.2679 16.6658 18.1709 16.7939C17.241 16.9025 15.8166 17.0098 13.8369 17.0098C11.9 17.0098 10.4532 16.9065 9.48145 16.8008C8.28346 16.6704 7.33414 15.8248 6.99902 14.7021C6.53234 13.1386 6.14457 11.5381 5.76758 9.96973C5.43365 8.58052 5.10797 7.21783 4.74121 5.90137H3.91992C2.96244 5.90126 2.03816 5.19383 2.00391 4.11621C2.00158 4.0427 2 3.96743 2 3.8916C2 3.81589 2.00158 3.74041 2.00391 3.66699C2.03828 2.5895 2.96252 1.88292 3.91992 1.88281H5.83887ZM3.91992 3.33691C3.62454 3.33701 3.46276 3.53813 3.45703 3.71289C3.45514 3.77262 3.45508 3.8327 3.45508 3.8916C3.45508 3.95051 3.45514 4.01058 3.45703 4.07031C3.46277 4.24508 3.62455 4.44619 3.91992 4.44629H5.29102L5.41016 4.45605C5.68263 4.50118 5.91026 4.69885 5.98926 4.9707C6.43016 6.48804 6.80536 8.06544 7.18164 9.63086C7.55941 11.2025 7.9389 12.765 8.39258 14.2852C8.56982 14.879 9.05478 15.2907 9.6377 15.3545C10.5566 15.4545 11.9518 15.5557 13.8369 15.5557C15.7636 15.5557 17.1312 15.4502 18.002 15.3486C18.5248 15.2876 18.9516 14.9357 19.1152 14.4268C19.683 12.6615 20.1936 10.3017 20.5332 8.24707C20.6239 7.69722 20.1941 7.18263 19.5967 7.18262H8.49609C8.16548 7.18262 7.87587 6.95944 7.79199 6.63965L7.20215 4.38867C7.03962 3.76924 6.47929 3.33702 5.83887 3.33691H3.91992ZM14.0898 9.17285C14.3884 8.90421 14.8485 8.92903 15.1172 9.22754L16.4951 10.7578C16.6096 10.8852 16.6703 11.0424 16.6797 11.2012C16.6923 11.2549 16.7002 11.3106 16.7002 11.3682C16.7002 11.4249 16.6929 11.4802 16.6807 11.5332C16.6849 11.7122 16.6242 11.8936 16.4951 12.0371L15.1172 13.5674C14.8485 13.8658 14.3884 13.8896 14.0898 13.6211C13.7916 13.3524 13.7677 12.8932 14.0361 12.5947L14.4854 12.0957H11.7002C11.2985 12.0957 10.9727 11.7698 10.9727 11.3682C10.9729 10.9667 11.2986 10.6416 11.7002 10.6416H14.4326L14.0361 10.2002C13.7674 9.90164 13.7913 9.44157 14.0898 9.17285Z" fill="#0033C9"/>
</svg>
