<svg width="24" height="24" viewBox="0 0 24 24" fill="none" xmlns="http://www.w3.org/2000/svg">
<path fill-rule="evenodd" clip-rule="evenodd" d="M16.2627 3.30659C17.6286 2.60985 19.1759 2.43966 20.509 2.85601C21.8653 3.27961 22.9725 4.30772 23.3676 5.90486C23.7957 7.63509 22.7456 9.35976 21.205 10.0118C19.8426 10.5884 18.2944 11.2031 16.7007 11.8139C16.1889 13.1877 15.6547 14.5005 15.2461 15.4751C14.7259 16.716 13.4459 17.5634 12.1217 17.5552C10.5389 17.5452 9.35434 16.3047 9.53882 14.7042L9.56974 14.438C8.21925 14.9186 7.01585 15.3393 6.07911 15.6638C4.66433 16.1541 3.20288 15.4574 2.64226 14.1255C2.60963 14.0637 2.57964 14 2.5524 13.9345C1.95764 12.5048 1.37669 10.7494 0.974782 9.46224C0.5379 8.0631 1.19422 6.54599 2.4761 5.8799C3.77458 5.20519 5.35908 5.593 6.14821 6.85539C6.43521 7.3145 6.76007 7.8441 7.09081 8.40281C9.77386 6.82486 13.2084 4.86469 16.2627 3.30659ZM21.9115 6.26513C21.651 5.21199 20.9531 4.56617 20.0618 4.2878C19.1473 4.00218 18.0045 4.10197 16.9444 4.64277C13.6796 6.30822 9.95876 8.44765 7.2048 10.0771C7.03221 10.1792 6.8259 10.208 6.63197 10.1569C6.43803 10.1059 6.27262 9.97928 6.17267 9.80541C5.72692 9.03 5.26715 8.27578 4.87628 7.65049C4.51878 7.07859 3.80088 6.88194 3.16773 7.21094C2.51798 7.54856 2.19062 8.32344 2.4066 9.01515C2.80512 10.2914 3.36971 11.9939 3.93733 13.3583C3.94937 13.3873 3.96259 13.4145 3.97678 13.4401C3.9917 13.467 4.00495 13.4949 4.01645 13.5234C4.27346 14.1613 4.93504 14.4728 5.588 14.2465C6.77816 13.8341 8.40011 13.2662 10.2067 12.6172C10.4521 12.5291 10.7256 12.5747 10.9291 12.7377C11.1326 12.9006 11.2369 13.1576 11.2044 13.4163C11.1386 13.9419 11.0797 14.4354 11.029 14.876C10.9526 15.5381 11.3883 16.0505 12.1311 16.0552C12.8409 16.0596 13.575 15.5817 13.8628 14.8951C14.298 13.857 14.8749 12.4365 15.4113 10.9762C15.4861 10.7726 15.6453 10.6113 15.848 10.534C17.5438 9.88708 19.1899 9.23582 20.6203 8.63042C21.5754 8.2262 22.1392 7.18519 21.9115 6.26513Z" fill="#0033C9"/>
<path d="M2.26839 22.2305C1.85418 22.2305 1.51839 21.8947 1.51839 21.4805C1.51839 21.0663 1.85418 20.7305 2.26839 20.7305H21.6736C22.0879 20.7305 22.4236 21.0663 22.4236 21.4805C22.4236 21.8947 22.0879 22.2305 21.6736 22.2305H2.26839Z" fill="#0033C9"/>
</svg>
