<svg width="24" height="24" viewBox="0 0 24 24" fill="none" xmlns="http://www.w3.org/2000/svg">
<path fill-rule="evenodd" clip-rule="evenodd" d="M1.25 10.4501C1.25 15.5312 5.36904 19.6503 10.4501 19.6503C10.8644 19.6503 11.2001 19.3145 11.2001 18.9003C11.2001 18.4861 10.8644 18.1503 10.4501 18.1503C7.66236 18.1503 5.2206 16.6688 3.86918 14.4502H4.92499C5.72727 14.4502 6.49671 14.1315 7.06401 13.5642C7.63131 12.9969 7.95002 12.2274 7.95002 11.4251V9.47512C7.95002 9.07065 8.1107 8.68275 8.3967 8.39675C8.68269 8.11075 9.07059 7.95008 9.47506 7.95008C10.2773 7.95008 11.0468 7.63137 11.6141 7.06407C12.1814 6.49676 12.5001 5.72733 12.5001 4.92504V3.02587C15.3677 3.81591 17.5651 6.22289 18.0501 9.20464C17.6417 9.10445 17.2216 9.05214 16.7982 9.0498H14.025C13.2227 9.0498 12.4533 9.36851 11.886 9.93582C11.3187 10.5031 11 11.2726 11 12.0748C11 12.8771 11.3187 13.6466 11.886 14.2139C12.1789 14.5068 12.6538 14.5068 12.9467 14.2139C13.2396 13.921 13.2396 13.4461 12.9467 13.1532C12.6607 12.8672 12.5 12.4793 12.5 12.0748C12.5 11.6704 12.6607 11.2825 12.9467 10.9965C13.2327 10.7105 13.6206 10.5498 14.025 10.5498H16.7919C17.2858 10.5528 17.7735 10.65 18.229 10.8352C18.3521 11.0812 18.6064 11.2501 18.9001 11.2501C19.3143 11.2501 19.6501 10.9143 19.6501 10.5001L19.6501 10.4655L19.6503 10.4501C19.6503 5.36904 15.5312 1.25 10.4501 1.25C5.36904 1.25 1.25 5.36904 1.25 10.4501ZM2.90644 8.89829C3.62445 5.38947 6.72905 2.75 10.4501 2.75C10.5301 2.75 10.6097 2.75122 10.6891 2.75364C10.7933 2.75681 10.897 2.76206 11.0001 2.76934V4.92504C11.0001 5.32951 10.8394 5.71741 10.5534 6.00341C10.2674 6.28941 9.87952 6.45008 9.47506 6.45008C8.67277 6.45008 7.90334 6.76879 7.33604 7.33609C6.76873 7.9034 6.45002 8.67283 6.45002 9.47512V11.4251C6.45002 11.8296 6.28935 12.2175 6.00335 12.5035C5.71735 12.7895 5.32945 12.9502 4.92499 12.9502H3.16494C2.91641 12.2258 2.77288 11.4526 2.75251 10.6489C2.75084 10.5828 2.75 10.5166 2.75 10.4501C2.75 9.91855 2.80387 9.39955 2.90644 8.89829Z" fill="#0033CC"/>
<path fill-rule="evenodd" clip-rule="evenodd" d="M14.396 15.7347C14.4058 15.937 14.4161 16.1497 14.4308 16.3683L14.3373 16.3766C14.2287 16.3862 14.1216 16.3956 14.0162 16.4047C13.3306 16.4636 12.7783 16.9896 12.6789 17.6655L12.6657 17.7552C12.5887 18.2768 12.5 18.8781 12.5 19.5C12.5 20.1219 12.5887 20.7231 12.6657 21.2447L12.6789 21.3344C12.7783 22.0104 13.3306 22.5363 14.0162 22.5952C14.1212 22.6042 14.2279 22.6137 14.3362 22.6233L14.3373 22.6234C15.0214 22.6839 15.7679 22.7499 16.5312 22.7499C17.2945 22.7499 18.041 22.6839 18.7251 22.6234C18.8337 22.6137 18.9409 22.6043 19.0462 22.5952C19.7319 22.5363 20.2841 22.0104 20.3835 21.3344L20.3967 21.2447C20.4582 20.8281 20.5272 20.3606 20.5525 19.8725C20.8645 19.7882 21.1706 19.6999 21.4646 19.615L21.4658 19.6146C21.5776 19.5824 21.6876 19.5506 21.7955 19.5198C22.4581 19.3305 22.8999 18.7071 22.8662 18.0233L22.8599 17.8945C22.8327 17.3308 22.8015 16.6869 22.6775 16.0405C22.5534 15.394 22.344 14.7844 22.1606 14.2506L22.1187 14.1286C21.8969 13.4809 21.2557 13.0654 20.5702 13.1348C20.4574 13.1462 20.3426 13.1575 20.2261 13.169C19.5229 13.2381 18.7551 13.3137 17.984 13.4616C17.2129 13.6096 16.4717 13.8237 15.7928 14.0198C15.6803 14.0523 15.5695 14.0843 15.4606 14.1154C14.7981 14.3047 14.3563 14.928 14.39 15.6119L14.396 15.7347ZM15.8889 15.5531L15.8939 15.6549C15.904 15.8618 15.9138 16.0636 15.9271 16.2626C16.1267 16.2546 16.3284 16.25 16.5312 16.25C17.2946 16.25 18.041 16.316 18.7251 16.3766C18.8338 16.3862 18.9409 16.3956 19.0462 16.4047C19.7319 16.4636 20.2841 16.9896 20.3835 17.6655L20.3967 17.7552C20.424 17.94 20.4527 18.1348 20.4785 18.3369C20.6641 18.2848 20.8491 18.2314 21.0352 18.1777C21.1453 18.1459 21.2559 18.114 21.3672 18.0821L21.3627 17.9889C21.3342 17.4048 21.3076 16.8612 21.2043 16.3232C21.1011 15.7851 20.9245 15.2704 20.7348 14.7172L20.7045 14.6289C20.5901 14.6404 20.4762 14.6517 20.3626 14.6629C19.6566 14.7325 18.9648 14.8008 18.2667 14.9348C17.5687 15.0687 16.9005 15.2615 16.2189 15.4581L16.2175 15.4585C16.1084 15.49 15.9989 15.5216 15.8889 15.5531ZM14.1609 17.8978L14.1543 17.9427C14.0739 18.489 14 18.9912 14 19.5C14 20.0087 14.0739 20.5108 14.1543 21.0572L14.1609 21.1021C14.266 21.1112 14.3708 21.1204 14.4752 21.1296L14.4777 21.1298C15.1652 21.1905 15.8394 21.2499 16.5312 21.2499C17.223 21.2499 17.8973 21.1905 18.5848 21.1298C18.6901 21.1206 18.7956 21.1112 18.9015 21.1021L18.9081 21.0573C18.9885 20.5108 19.0624 20.0087 19.0624 19.5C19.0624 18.9912 18.9885 18.4891 18.9081 17.9427L18.9015 17.8978C18.7955 17.8887 18.69 17.8794 18.5847 17.8701C17.8972 17.8094 17.223 17.75 16.5312 17.75C15.8394 17.75 15.1645 17.8095 14.477 17.8701L14.4755 17.8703C14.371 17.8795 14.2662 17.8887 14.1609 17.8978Z" fill="#0033CC"/>
</svg>
