<svg width="24" height="24" viewBox="0 0 24 24" fill="none" xmlns="http://www.w3.org/2000/svg">
<path d="M8.29492 21.2784C10.7188 20.5903 13.2812 20.5903 15.7051 21.2784C16.1034 21.3915 16.3345 21.8058 16.2217 22.2041C16.1086 22.6026 15.6934 22.8348 15.2949 22.7217C13.1389 22.1098 10.8611 22.1097 8.70508 22.7217C8.30661 22.8348 7.89142 22.6026 7.77832 22.2041C7.66559 21.806 7.8969 21.3916 8.29492 21.2784ZM3.35938 9.89945C3.35962 4.47916 8.34375 0.233549 13.959 1.45706L13.9609 1.45804C16.4331 2.00499 18.6062 3.64476 19.7412 5.92581C21.9645 10.394 19.7635 15.0698 16.4795 17.2803V18.0391C16.4846 18.1114 16.5171 18.5791 16.3154 18.9659C16.0317 19.5096 15.4612 19.7402 14.7695 19.7403H9.2627C8.70199 19.745 8.05314 19.6584 7.72168 19.1006C7.57419 18.8524 7.55051 18.5973 7.54492 18.4395C7.542 18.3567 7.54421 18.2758 7.5459 18.2129C7.54623 18.2007 7.54656 18.189 7.54688 18.1778C7.54833 18.1257 7.5498 18.0838 7.5498 18.0401V17.291C5.23602 15.7364 3.35938 12.9365 3.35938 9.89945ZM13.6387 2.92288C8.97468 1.90732 4.85962 5.4205 4.85938 9.89945C4.85938 12.4654 6.5644 14.9552 8.6875 16.2383C8.91206 16.3742 9.0498 16.6174 9.0498 16.8799V18.0401C9.0498 18.1068 9.04738 18.1732 9.0459 18.2256C9.04582 18.2285 9.04598 18.2317 9.0459 18.2344C9.1012 18.2386 9.16973 18.241 9.25293 18.2403H14.7695C14.8705 18.2403 14.9388 18.2313 14.9824 18.2227C14.9826 18.2075 14.9828 18.1897 14.9824 18.169C14.982 18.1493 14.9811 18.1325 14.9805 18.1084C14.9799 18.087 14.9795 18.0588 14.9795 18.0303V16.8701C14.9795 16.6074 15.1169 16.3634 15.3418 16.2276C18.3211 14.4289 20.273 10.3629 18.3975 6.59378C17.4726 4.73543 15.6858 3.37622 13.6387 2.92288ZM11.3506 7.51566C11.5572 7.15676 12.016 7.03278 12.375 7.23929C12.7339 7.44587 12.8569 7.9047 12.6504 8.2637L11.7959 9.75003H12.6309C13.0311 9.7501 13.5103 9.89839 13.7676 10.3506C14.0224 10.7989 13.9086 11.2822 13.71 11.6241L12.6523 13.4815C12.4472 13.8412 11.9887 13.9668 11.6289 13.7618C11.2691 13.5566 11.1436 13.0981 11.3486 12.7383L12.1973 11.25H11.3604C10.9594 11.25 10.4874 11.0983 10.2305 10.6543C9.97321 10.2092 10.0778 9.72339 10.2812 9.37405L11.3506 7.51566Z" fill="#0033C9"/>
</svg>
