<svg width="24" height="24" viewBox="0 0 24 24" fill="none" xmlns="http://www.w3.org/2000/svg">
<path d="M12 7.25C12.4142 7.25 12.75 7.58579 12.75 8V11H15.75C16.1642 11 16.5 11.3358 16.5 11.75C16.5 12.1642 16.1642 12.5 15.75 12.5H12.75V15.5C12.75 15.9142 12.4142 16.25 12 16.25C11.5858 16.25 11.25 15.9142 11.25 15.5V12.5H8.25C7.83579 12.5 7.5 12.1642 7.5 11.75C7.5 11.3358 7.83579 11 8.25 11H11.25V8C11.25 7.58579 11.5858 7.25 12 7.25Z" fill="#0033C9"/>
<path fill-rule="evenodd" clip-rule="evenodd" d="M9.67667 1.68807C11.1083 1.10398 12.7217 1.10398 14.1533 1.68807L19.7233 3.96802C20.2691 4.1909 20.7253 4.61344 21.0415 5.08136C21.3577 5.54938 21.58 6.13058 21.58 6.72247L21.58 6.72418L21.57 11.1125C21.5696 16.3514 17.7828 21.2189 12.6197 22.6454L12.6174 22.646C12.1582 22.7713 11.6619 22.7713 11.2027 22.646L11.2003 22.6454C6.03687 21.2188 2.25 16.3518 2.25 11.1125V6.72247C2.25 6.13327 2.46799 5.55261 2.78383 5.08279C3.09937 4.6134 3.55576 4.19047 4.10771 3.96762L9.67667 1.68807ZM10.2433 3.07693L4.67012 5.35821C4.45306 5.4456 4.21523 5.64216 4.02869 5.91965C3.84202 6.19732 3.75 6.49166 3.75 6.72247V11.1125C3.75 15.6527 7.06242 19.9452 11.5983 21.1992C11.7985 21.2536 12.0215 21.2536 12.2217 21.1992C16.7576 19.9453 20.07 15.6527 20.07 11.1125L20.07 11.1108L20.08 6.72247C20.0798 6.49445 19.9872 6.20025 19.7985 5.92108C19.6098 5.64174 19.3705 5.44413 19.1567 5.35692L13.5867 3.07693C12.5185 2.64131 11.3114 2.64123 10.2433 3.07693Z" fill="#0033C9"/>
</svg>
