<svg width="24" height="24" viewBox="0 0 24 24" fill="none" xmlns="http://www.w3.org/2000/svg">
<path d="M10.7064 1.10645C11.1171 1.08385 11.4864 1.37604 11.5521 1.79102C11.6221 2.234 11.3193 2.64972 10.8763 2.71973C8.6736 3.06797 6.96967 3.98617 5.57165 5.46484C6.70568 5.41938 7.91894 5.40126 9.12439 5.39941V5.40137C9.64021 5.39864 10.1374 5.39931 10.5912 5.40137C11.0394 5.40345 11.4014 5.76771 11.3998 6.21582C11.3977 6.66415 11.0326 7.02721 10.5843 7.02539L9.09216 7.02637C7.52269 7.0352 5.79376 7.06856 4.58239 7.14062C4.2153 7.16254 3.88949 7.4665 3.85876 7.90039C3.57888 11.8622 3.54923 15.6398 3.76989 19.5615C3.83996 20.8013 4.79067 21.7402 5.9447 21.7812C9.63487 21.9119 13.4757 21.8551 15.7953 21.7627C16.2206 21.7455 16.588 21.3814 16.5883 20.8945V11.7656C16.5883 11.3174 16.9516 10.9544 17.3998 10.9541C17.8482 10.9541 18.2122 11.3172 18.2123 11.7656V20.8945C18.2121 22.2111 17.198 23.3324 15.8597 23.3857C13.507 23.4795 9.62499 23.5377 5.88708 23.4053C3.84236 23.3327 2.26289 21.6778 2.1488 19.6523C1.92421 15.661 1.95399 11.8144 2.23864 7.78516C2.27882 7.21888 2.51039 6.69867 2.87146 6.29883C4.71468 3.46411 7.15177 1.66497 10.6234 1.11621L10.7064 1.10645ZM12.4535 14.8174C13.3999 14.9126 14.1595 15.7062 14.1595 16.6982C14.1592 17.756 13.2951 18.5867 12.2621 18.5869C11.2932 18.5869 10.4721 17.8559 10.3734 16.8926L10.3636 16.6982L10.3734 16.502C10.4722 15.5387 11.2933 14.8086 12.2621 14.8086L12.4535 14.8174ZM12.1215 11.3369C12.4385 11.0203 12.9529 11.0203 13.2699 11.3369C13.5869 11.6539 13.5866 12.1682 13.2699 12.4854L8.05896 17.6963C7.74182 18.0133 7.2276 18.0134 6.91052 17.6963C6.59383 17.3792 6.59366 16.8649 6.91052 16.5479L12.1215 11.3369ZM12.2621 16.0264C11.8866 16.0264 11.5814 16.3275 11.5814 16.6982C11.5817 17.0455 11.85 17.3309 12.1927 17.3652L12.2621 17.3691C12.6139 17.369 12.9039 17.1048 12.9388 16.7666L12.9418 16.6982C12.9418 16.3277 12.6374 16.0266 12.2621 16.0264ZM7.93689 10.4668C8.97015 10.4668 9.83514 11.2974 9.83532 12.3555C9.8353 13.4137 8.97025 14.2451 7.93689 14.2451C6.9037 14.2449 6.03945 13.4135 6.03942 12.3555C6.03961 11.2976 6.90379 10.467 7.93689 10.4668ZM7.93689 11.6846C7.56166 11.6848 7.25738 11.985 7.2572 12.3555C7.25722 12.7029 7.5248 12.989 7.86755 13.0234L7.93689 13.0273C8.2888 13.0273 8.57863 12.7631 8.61364 12.4248L8.61755 12.3555C8.61737 11.9849 8.3123 11.6846 7.93689 11.6846ZM18.4222 0.980469C19.5008 0.98049 20.4249 1.19229 21.0629 1.83008C21.7005 2.46799 21.9124 3.39229 21.9125 4.4707V6.90625C21.9124 7.98474 21.7007 8.90898 21.0629 9.54688C20.4249 10.1846 19.5008 10.3965 18.4222 10.3965H15.9867C14.9083 10.3964 13.984 10.1846 13.3461 9.54688C12.7083 8.90899 12.4965 7.98467 12.4965 6.90625V4.4707C12.4965 3.39225 12.7083 2.46799 13.3461 1.83008C13.984 1.19223 14.9081 0.980515 15.9867 0.980469H18.4222ZM14.4633 8.78223C14.7618 8.97148 15.2293 9.09762 15.9867 9.09766H18.4222C19.3725 9.09763 19.8696 8.904 20.1449 8.62891C20.42 8.35369 20.6136 7.85648 20.6136 6.90625V4.4707C20.6136 3.71318 20.4885 3.24482 20.2992 2.94629L14.4633 8.78223ZM18.8607 5.55273C19.1595 5.55282 19.4017 5.79496 19.4017 6.09375V6.56738H19.8509C20.1496 6.56747 20.3918 6.80975 20.392 7.1084C20.392 7.40723 20.1498 7.64933 19.8509 7.64941H19.4017V8.12305C19.4017 8.42188 19.1595 8.66398 18.8607 8.66406C18.5618 8.66406 18.3197 8.42193 18.3197 8.12305V7.64941H17.8217C17.5228 7.64941 17.2806 7.40728 17.2806 7.1084C17.2808 6.8097 17.5229 6.56738 17.8217 6.56738H18.3197V6.09375C18.3197 5.79491 18.5619 5.55273 18.8607 5.55273ZM15.9867 2.2793C15.0364 2.27934 14.5402 2.47386 14.265 2.74902C13.9899 3.02428 13.7953 3.52058 13.7953 4.4707V6.90625C13.7953 7.28155 13.8266 7.58589 13.8802 7.83398L19.3509 2.36328C19.1027 2.30956 18.7979 2.27931 18.4222 2.2793H15.9867ZM16.6068 3.32031C16.9055 3.3204 17.1476 3.56265 17.1478 3.86133C17.1478 4.16016 16.9056 4.40226 16.6068 4.40234H14.5775C14.2786 4.40234 14.0365 4.16021 14.0365 3.86133C14.0367 3.5626 14.2787 3.32031 14.5775 3.32031H16.6068Z" fill="#0033C9"/>
</svg>
