<svg width="24" height="24" viewBox="0 0 24 24" fill="none" xmlns="http://www.w3.org/2000/svg">
<path d="M14 17.25H10C9.58579 17.25 9.25 17.5858 9.25 18C9.25 18.4142 9.58579 18.75 10 18.75H14C14.4142 18.75 14.75 18.4142 14.75 18C14.75 17.5858 14.4142 17.25 14 17.25Z" fill="#0033C9"/>
<path fill-rule="evenodd" clip-rule="evenodd" d="M11 7C10.1716 7 9.5 7.67157 9.5 8.5V9H9C8.60218 9 8.22064 9.15804 7.93934 9.43934C7.65804 9.72064 7.5 10.1022 7.5 10.5V12.5C7.5 13.3284 8.17157 14 9 14H9.5V14.5C9.5 15.3284 10.1716 16 11 16H13C13.8284 16 14.5 15.3284 14.5 14.5V14H15C15.8284 14 16.5 13.3284 16.5 12.5V10.5C16.5 9.67157 15.8284 9 15 9H14.5V8.5C14.5 7.67157 13.8284 7 13 7H11ZM9 10.5H11V8.5H13V10.5H15V12.5H13V14.5H11V12.5H9V10.5Z" fill="#0033C9"/>
<path fill-rule="evenodd" clip-rule="evenodd" d="M15.9739 1.89875C16.1106 2.02217 16.2313 2.16035 16.3343 2.31143C18.8086 2.68585 20.25 4.69601 20.25 6.99999V18C20.25 19.27 19.8158 20.4615 18.9817 21.3411C18.1419 22.2267 16.9397 22.75 15.5 22.75H8.5C7.0603 22.75 5.85813 22.2267 5.01828 21.3411C4.18425 20.4615 3.75 19.27 3.75 18V6.99999C3.75 4.62258 5.2844 2.56619 7.8855 2.28285C7.98409 2.14289 8.09808 2.01434 8.22607 1.89875C8.70831 1.46323 9.34528 1.25 10 1.25L14.2 1.25C14.8547 1.25 15.4917 1.46323 15.9739 1.89875ZM14.9686 3.01197C14.7983 2.8582 14.5353 2.75 14.2 2.75L10 2.75C9.66472 2.75 9.40169 2.8582 9.23143 3.01196C9.07005 3.15771 8.95 3.38054 8.95 3.71429C8.95 4.04803 9.07005 4.27086 9.23143 4.41661C9.40169 4.57037 9.66472 4.67857 10 4.67857L14.2 4.67857C14.5353 4.67857 14.7983 4.57038 14.9686 4.41661C15.1299 4.27086 15.25 4.04803 15.25 3.71429C15.25 3.38054 15.1299 3.15771 14.9686 3.01197ZM15.9739 5.52982C16.4117 5.13445 16.6857 4.58749 16.74 3.95084C18.0109 4.40114 18.75 5.56811 18.75 6.99999V18C18.75 18.93 18.4343 19.7384 17.8933 20.3089C17.3581 20.8733 16.5603 21.25 15.5 21.25H8.5C7.4397 21.25 6.64187 20.8733 6.10672 20.3089C5.56575 19.7384 5.25 18.93 5.25 18V6.99999C5.25 5.50094 6.06012 4.28639 7.45539 3.88869C7.49674 4.55189 7.7741 5.12164 8.22607 5.52982C8.70831 5.96534 9.34528 6.17857 10 6.17857L14.2 6.17857C14.8547 6.17857 15.4917 5.96534 15.9739 5.52982Z" fill="#0033C9"/>
</svg>
