<svg width="24" height="24" viewBox="0 0 24 24" fill="none" xmlns="http://www.w3.org/2000/svg">
<path d="M16.3579 2.00275C18.2051 2.0028 19.6453 2.5025 20.6201 3.49229C21.5925 4.47965 21.9946 5.8461 21.9946 7.35842V9.87098C21.9944 10.2652 21.6748 10.5851 21.2805 10.5851C20.8862 10.5851 20.5666 10.2652 20.5664 9.87098V7.35842C20.5664 6.08587 20.2302 5.13159 19.6027 4.49439C18.9776 3.85971 17.9564 3.43098 16.3579 3.43093H7.63678C6.03823 3.43098 5.01706 3.85971 4.392 4.49439C3.76451 5.13159 3.42826 6.08587 3.42826 7.35842V16.6416C3.42826 17.9141 3.76451 18.8684 4.392 19.5056C5.01706 20.1403 6.03823 20.569 7.63678 20.5691H8.77626C9.17064 20.5691 9.49035 20.8888 9.49035 21.2832C9.49035 21.6776 9.17064 21.9973 8.77626 21.9973H7.63678C5.7896 21.9972 4.34936 21.4975 3.37456 20.5077C2.4022 19.5204 2.00008 18.1539 2.00008 16.6416V7.35842C2.00008 5.8461 2.4022 4.47965 3.37456 3.49229C4.34936 2.5025 5.7896 2.0028 7.63678 2.00275H16.3579Z" fill="#0033C9"/>
<path d="M17.5601 11.5328C18.3771 10.7252 19.6937 10.7278 20.5071 11.5411L21.3879 12.4219C22.2041 13.2382 22.2041 14.5617 21.3879 15.378C21.1091 15.6568 20.657 15.6567 20.3781 15.378C20.0993 15.0991 20.0993 14.6471 20.3781 14.3682C20.6366 14.1096 20.6366 13.6902 20.3781 13.4317L19.4967 12.5509C19.2381 12.2926 18.8193 12.2925 18.5608 12.5509C18.5577 12.554 18.5542 12.5569 18.5511 12.56L12.8586 18.0447L12.4492 20.4185L14.929 20.0328L16.4109 18.9491C16.7292 18.7163 17.176 18.7856 17.4088 19.1039C17.6416 19.4222 17.5723 19.869 17.254 20.1019L15.6326 21.2881C15.5406 21.3554 15.4336 21.4002 15.3209 21.4178L11.687 21.9826C11.4599 22.0179 11.2297 21.9414 11.0685 21.7776C10.9073 21.6137 10.8349 21.3821 10.8739 21.1556L11.4904 17.5726L11.5183 17.4624C11.5548 17.3555 11.6167 17.2584 11.6989 17.1792L17.5601 11.5328Z" fill="#0033C9"/>
<path d="M19.5322 16.1109C19.6515 15.8664 20.0524 15.8664 20.1724 16.1109L20.7094 17.2016L21.7958 17.7406C21.918 17.8008 21.9946 17.9259 21.9946 18.0621C21.9945 18.1982 21.9179 18.3227 21.7958 18.3829L20.7094 18.9219L20.1724 20.0126C20.1124 20.1345 19.988 20.212 19.8523 20.212C19.7166 20.212 19.5922 20.1345 19.5322 20.0126L18.9953 18.9219L17.9088 18.3829C17.7867 18.3227 17.7102 18.1982 17.7101 18.0621C17.7101 17.9259 17.7866 17.8008 17.9088 17.7406L18.9953 17.2016L19.5322 16.1109Z" fill="#0033C9"/>
<path d="M6.28462 14.1423C6.679 14.1423 6.9987 14.462 6.9987 14.8564V16.6416C6.99871 16.8388 7.15856 16.9986 7.35575 16.9986H9.14097L9.2142 17.0021C9.57419 17.0388 9.85506 17.3431 9.85506 17.7127C9.85506 18.0824 9.57419 18.3867 9.2142 18.4233L9.14097 18.4268H7.35575C6.3698 18.4268 5.57053 17.6275 5.57053 16.6416V14.8564C5.57053 14.462 5.89023 14.1423 6.28462 14.1423Z" fill="#0033C9"/>
<path fill-rule="evenodd" clip-rule="evenodd" d="M8.54822 4.85911C9.01329 4.85911 9.4647 4.89316 9.89202 4.93651C11.0869 5.05783 12.0515 6.0221 12.1675 7.22034C12.2086 7.64461 12.2407 8.091 12.2407 8.55089C12.2407 9.01096 12.2086 9.45774 12.1675 9.88214C12.0515 11.0804 11.0869 12.0439 9.89202 12.1653C9.4647 12.2086 9.01329 12.2434 8.54822 12.2434C8.08325 12.2434 7.63237 12.2086 7.20512 12.1653C6.01016 12.044 5.04571 11.0804 4.92966 9.88214C4.88856 9.45774 4.85644 9.01096 4.85644 8.55089C4.85645 8.09099 4.88858 7.64461 4.92966 7.22034C5.04569 6.02204 6.01014 5.05775 7.20512 4.93651C7.63235 4.89317 8.08327 4.85912 8.54822 4.85911ZM8.54822 6.28729C8.15135 6.2873 7.75377 6.3167 7.34947 6.35772C6.82889 6.41054 6.40103 6.83968 6.35086 7.35772C6.31199 7.75914 6.28462 8.15518 6.28462 8.55089C6.28462 8.94667 6.31199 9.34327 6.35086 9.74476C6.40115 10.2627 6.82898 10.692 7.34947 10.7448C7.75376 10.7858 8.15136 10.8152 8.54822 10.8152C8.94525 10.8152 9.34322 10.7858 9.74767 10.7448C10.2682 10.692 10.6953 10.2627 10.7456 9.74476C10.7845 9.34327 10.8125 8.94667 10.8125 8.55089C10.8125 8.15518 10.7845 7.75914 10.7456 7.35772C10.6954 6.83971 10.2682 6.41055 9.74767 6.35772C9.34322 6.31668 8.94525 6.28729 8.54822 6.28729Z" fill="#0033C9"/>
<path d="M16.6389 5.5732C17.6249 5.5732 18.4241 6.37247 18.4241 7.35842V9.14364C18.4241 9.53802 18.1044 9.85773 17.7101 9.85773C17.3157 9.85773 16.996 9.53802 16.996 9.14364V7.35842C16.996 7.16123 16.8361 7.00137 16.6389 7.00137H14.8537L14.7805 6.99789C14.4205 6.96123 14.1396 6.65695 14.1396 6.28729C14.1396 5.91762 14.4205 5.61334 14.7805 5.57668L14.8537 5.5732H16.6389Z" fill="#0033C9"/>
</svg>
