<svg width="24" height="24" viewBox="0 0 24 24" fill="none" xmlns="http://www.w3.org/2000/svg">
<path d="M13.6602 10.4297C14.106 9.95306 14.8327 9.82412 15.2861 10.293C15.7395 10.7618 15.6147 11.513 15.1562 11.9766C14.8953 12.2404 14.612 12.5202 14.3193 12.8057C14.7198 13.4787 15.1084 14.2128 15.3682 14.7197C15.5593 15.0927 15.5096 15.5775 15.2559 15.8936C14.9657 16.2548 14.4999 16.2835 14.1904 15.9531C13.8244 15.5624 13.3299 15.0231 12.875 14.4941C12.8265 14.4378 12.7816 14.378 12.7412 14.3154C12.2795 14.7502 11.852 15.1482 11.5117 15.4629C11.5699 15.8342 11.6172 16.2163 11.6504 16.5127C11.685 16.8216 11.4879 17.1049 11.1953 17.1768C10.9025 17.2485 10.6032 17.0872 10.5 16.7949C10.3894 16.4817 10.2474 16.0647 10.1299 15.666C9.74433 15.5445 9.341 15.3976 9.03809 15.2832C8.75556 15.1764 8.59959 14.8671 8.66895 14.5645C8.73847 14.262 9.01187 14.0582 9.31055 14.0938C9.59556 14.1278 9.96303 14.1766 10.3203 14.2363C10.6306 13.8688 11.0259 13.4034 11.458 12.9023C11.4422 12.892 11.4266 12.881 11.4111 12.8701C10.8459 12.4708 10.266 12.0318 9.84473 11.7061C9.4885 11.4306 9.45694 10.9499 9.7666 10.6064C10.0376 10.306 10.4958 10.1941 10.8779 10.3428C11.4201 10.5537 12.2171 10.8766 12.9385 11.2178C13.1862 10.9425 13.4297 10.6761 13.6602 10.4297Z" fill="#0033CC"/>
<path fill-rule="evenodd" clip-rule="evenodd" d="M13.5225 1.25C14.6289 1.25024 15.5254 2.14745 15.5254 3.25391V5.1084C15.9738 5.15405 16.413 5.22168 16.8633 5.32031C17.922 5.55229 18.7526 6.38649 18.9551 7.46387C19.2873 9.23146 19.2871 11.3242 19.2871 13.2393V13.3281C19.2871 15.2432 19.2873 17.3359 18.9551 19.1035C18.7526 20.1809 17.922 21.0151 16.8633 21.2471C16.7299 21.2763 16.5968 21.3003 16.4648 21.3242V22.0605C16.4646 22.4745 16.1289 22.8105 15.7148 22.8105C15.3008 22.8105 14.9651 22.4745 14.9648 22.0605V21.5029C14.1751 21.5539 13.3309 21.5557 12.3242 21.5557H12.2129C11.2049 21.5557 10.3599 21.5531 9.56934 21.502V22.0605C9.56907 22.4745 9.23339 22.8105 8.81934 22.8105C8.40529 22.8105 8.0696 22.4745 8.06934 22.0605V21.3242C7.93828 21.3004 7.80635 21.2761 7.67383 21.2471C6.61498 21.0151 5.78453 20.181 5.58203 19.1035C5.24983 17.3359 5.24998 15.2432 5.25 13.3281V13.2393C5.24998 11.3242 5.24983 9.23146 5.58203 7.46387C5.78457 6.38644 6.61501 5.55224 7.67383 5.32031C8.01858 5.2448 8.35654 5.18761 8.69727 5.14453V3.25391C8.69727 2.14731 9.59458 1.25002 10.7012 1.25H13.5225ZM12.2686 6.51172C10.3694 6.51172 9.23075 6.51457 7.99512 6.78516C7.51211 6.89095 7.14568 7.26743 7.05664 7.74121C6.75287 9.35758 6.75 11.318 6.75 13.2842C6.75 15.2501 6.75292 17.2099 7.05664 18.8262C7.14568 19.3 7.51211 19.6764 7.99512 19.7822C9.23076 20.0528 10.3694 20.0557 12.2686 20.0557C14.1678 20.0557 15.3063 20.0529 16.542 19.7822C17.025 19.6764 17.3914 19.3 17.4805 18.8262C17.7842 17.21 17.7871 15.2501 17.7871 13.2842C17.7871 11.318 17.7842 9.35757 17.4805 7.74121C17.3914 7.26743 17.025 6.89095 16.542 6.78516C15.3063 6.51454 14.1677 6.51172 12.2686 6.51172ZM10.7012 2.75C10.423 2.75002 10.1973 2.97573 10.1973 3.25391V5.03223C10.8091 5.01146 11.4665 5.01171 12.2129 5.01172H12.3242C12.9445 5.01171 13.5032 5.01152 14.0254 5.02344V3.25391C14.0254 2.97587 13.8004 2.75024 13.5225 2.75H10.7012Z" fill="#0033CC"/>
</svg>
