<svg width="24" height="24" viewBox="0 0 24 24" fill="none" xmlns="http://www.w3.org/2000/svg">
<path fill-rule="evenodd" clip-rule="evenodd" d="M12.1296 3.24963C12.0993 3.24963 12.0693 3.25605 12.0416 3.26845C12.0139 3.28086 11.9891 3.29898 11.9689 3.32163C11.959 3.33278 11.9487 3.34363 11.9381 3.35417L9.30148 5.97637C9.09153 6.18518 8.77837 6.25091 8.50218 6.14415C8.22599 6.03738 8.03847 5.77811 8.02355 5.48238C7.93119 3.6515 5.56979 2.74915 4.26024 4.0587C2.96734 5.3516 3.84853 7.72942 5.68392 7.82202C5.98115 7.83701 6.2414 8.02633 6.34717 8.30451C6.45294 8.58269 6.38422 8.8971 6.17204 9.10578L3.54983 11.6848C3.54115 11.6933 3.53226 11.7016 3.52316 11.7097C3.50052 11.7299 3.4824 11.7547 3.46999 11.7824C3.45759 11.8101 3.45117 11.8401 3.45117 11.8704C3.45117 11.9008 3.45759 11.9308 3.46999 11.9585C3.7547 12.5939 4.1663 13.219 4.6125 13.8967C4.65233 13.9571 4.69244 14.0181 4.73275 14.0794L4.73644 14.0774L4.7394 14.0743C6.17309 12.6308 8.56359 12.6226 10.0071 14.0563C11.4507 15.49 11.4589 17.8805 10.0252 19.324L10.0178 19.3315C10.0178 19.3315 10.0146 19.3364 10.0122 19.3426C10.054 19.3706 10.0955 19.3984 10.1368 19.4261C10.7869 19.8617 11.3812 20.26 11.9839 20.53C12.0116 20.5424 12.0416 20.5489 12.072 20.5489C12.1023 20.5489 12.1323 20.5424 12.16 20.53C12.1877 20.5176 12.2124 20.4995 12.2326 20.4769C12.2426 20.4657 12.2529 20.4548 12.2635 20.4443L14.9001 17.8221C15.1091 17.6143 15.4204 17.5481 15.6959 17.653C15.9713 17.7579 16.1598 18.0144 16.1776 18.3086C16.2889 20.1488 18.658 21.0111 19.9353 19.7338C21.242 18.4271 20.3547 16.0876 18.5102 15.9761C18.2144 15.9582 17.957 15.7679 17.8531 15.4905C17.7492 15.213 17.8183 14.9004 18.0295 14.6927L20.6517 12.1137C20.6604 12.1052 20.6693 12.0969 20.6784 12.0887C20.701 12.0685 20.7192 12.0438 20.7316 12.0161C20.744 11.9884 20.7504 11.9584 20.7504 11.9281C20.7504 11.8977 20.744 11.8677 20.7316 11.84C20.4476 11.2061 20.0597 10.5819 19.6433 9.91194C19.6006 9.84318 19.5576 9.77395 19.5143 9.70417C19.5101 9.70817 19.5059 9.71212 19.5016 9.71602C18.0489 11.037 15.7597 10.9827 14.3713 9.59426C12.9828 8.20581 12.9285 5.91667 14.2495 4.46391C14.2549 4.45794 14.2605 4.45205 14.2661 4.44625C14.2083 4.40992 14.1508 4.37377 14.0938 4.33784C13.4395 3.92596 12.833 3.54415 12.2176 3.26845C12.1899 3.25605 12.1599 3.24963 12.1296 3.24963ZM11.4282 1.89957C11.6489 1.80073 11.8879 1.74963 12.1296 1.74963C12.3713 1.74963 12.6103 1.80073 12.8309 1.89957C13.5504 2.22192 14.254 2.66545 14.8971 3.0709C14.9862 3.12706 15.0741 3.18249 15.1607 3.23676C15.6056 3.5154 15.7767 3.98277 15.7833 4.38129C15.7897 4.76656 15.6493 5.18028 15.3479 5.48566C14.5773 6.34677 14.6137 7.71537 15.4319 8.5336C16.2502 9.35183 17.6188 9.3882 18.4799 8.6176C18.7855 8.31599 19.1997 8.1765 19.5847 8.18404C19.983 8.19185 20.4501 8.36488 20.7261 8.81186C20.7868 8.90999 20.8488 9.00962 20.9116 9.1106C21.3235 9.77254 21.7715 10.4925 22.1005 11.2267C22.1993 11.4473 22.2504 11.6863 22.2504 11.9281C22.2504 12.1698 22.1993 12.4088 22.1005 12.6294C22.0045 12.8437 21.8655 13.0358 21.6924 13.1941L20.0074 14.8514C22.1237 15.9103 22.8508 18.9396 20.996 20.7944C19.1822 22.6082 16.1079 21.9257 15.0466 19.792L13.3349 21.4943C13.1772 21.6659 12.9861 21.8036 12.7733 21.8989C12.5527 21.9978 12.3137 22.0489 12.072 22.0489C11.8302 22.0489 11.5912 21.9978 11.3706 21.8989C10.644 21.5734 9.94065 21.1012 9.31089 20.6785C9.24074 20.6314 9.1715 20.5849 9.10325 20.5393C8.66867 20.249 8.50605 19.7804 8.50517 19.3803C8.50429 18.9872 8.65403 18.569 8.96416 18.2637C9.81078 17.4075 9.80476 15.9694 8.95011 15.1206C8.09499 14.2713 6.65575 14.2756 5.8056 15.1295C5.49976 15.4415 5.07981 15.5908 4.686 15.5882C4.28607 15.5856 3.81803 15.4202 3.53126 14.9825C3.4755 14.8974 3.41848 14.811 3.36065 14.7233C2.92319 14.0601 2.43918 13.3263 2.10111 12.5718C2.00227 12.3512 1.95117 12.1122 1.95117 11.8704C1.95117 11.6287 2.00227 11.3897 2.10111 11.1691C2.1971 10.9548 2.33602 10.7626 2.50921 10.6043L4.18631 8.95487C2.05339 7.89484 1.38892 4.80869 3.19958 2.99804C5.04324 1.15438 8.11314 1.86637 9.16223 3.99933L10.8667 2.30417C11.0244 2.13261 11.2154 1.99491 11.4282 1.89957Z" fill="#0033C9"/>
</svg>
