<svg width="24" height="24" viewBox="0 0 24 24" fill="none" xmlns="http://www.w3.org/2000/svg">
<path d="M2.89481 2.49637C3.84095 1.48504 5.3285 1.25 7.22 1.25H14.78C16.6712 1.25 18.1594 1.48491 19.1044 2.49685C20.0328 3.49101 20.2449 5.03799 20.24 7.04109V11C20.24 11.4142 19.9042 11.75 19.49 11.75C19.0758 11.75 18.74 11.4142 18.74 11V7.04L18.74 7.03814C18.745 5.01161 18.4921 4.03886 18.0081 3.52065C17.5406 3.02009 16.6688 2.75 14.78 2.75H7.22C5.3315 2.75 4.45905 3.01996 3.99019 3.52113C3.50468 4.0401 3.25 5.01356 3.25 7.04V18.3C3.25 18.9074 3.33416 19.3426 3.4504 19.6281C3.56559 19.911 3.6883 19.9955 3.74793 20.0212C3.80238 20.0446 3.9299 20.0736 4.18225 19.9651C4.44169 19.8535 4.78272 19.6142 5.18214 19.1878L5.18129 19.1887L5.73 19.7L5.18214 19.1878C5.73304 18.5971 6.46164 18.2957 7.20328 18.3361C7.94497 18.3765 8.6364 18.7552 9.12 19.4L10.128 20.7473L10.1291 20.7488C10.4135 21.1237 10.7336 21.2525 10.995 21.2525C11.2567 21.2525 11.5773 21.1234 11.862 20.7473C12.112 20.4171 12.5824 20.352 12.9127 20.602C13.2429 20.852 13.308 21.3224 13.058 21.6527C12.5327 22.3466 11.7933 22.7525 10.995 22.7525C10.1967 22.7525 9.45733 22.3466 8.93202 21.6527L8.92947 21.6493L7.92 20.3C7.6836 19.9848 7.39003 19.8485 7.12172 19.8339C6.85374 19.8193 6.54771 19.9226 6.27871 20.2113L6.27742 20.2127C5.79203 20.731 5.28697 21.1228 4.77494 21.343C4.25572 21.5664 3.68637 21.6279 3.15457 21.3988C2.62795 21.172 2.27503 20.719 2.06116 20.1938C1.84834 19.6711 1.75 19.0276 1.75 18.3V7.04C1.75 5.03644 1.96532 3.4899 2.89481 2.49637Z" fill="#0033C9"/>
<path d="M6.25 7C6.25 6.58579 6.58579 6.25 7 6.25H15C15.4142 6.25 15.75 6.58579 15.75 7C15.75 7.41421 15.4142 7.75 15 7.75H7C6.58579 7.75 6.25 7.41421 6.25 7Z" fill="#0033C9"/>
<path d="M8 10.25C7.58579 10.25 7.25 10.5858 7.25 11C7.25 11.4142 7.58579 11.75 8 11.75H14C14.4142 11.75 14.75 11.4142 14.75 11C14.75 10.5858 14.4142 10.25 14 10.25H8Z" fill="#0033C9"/>
<path fill-rule="evenodd" clip-rule="evenodd" d="M15.6094 16.14C15.6094 14.8223 16.6737 13.75 17.9994 13.75C19.3186 13.75 20.3894 14.8208 20.3894 16.14V16.1442C20.3862 16.7078 20.1895 17.227 19.8609 17.6358C20.8589 18.1109 21.6819 19.006 21.9912 20.3352C22.254 21.4646 21.2722 22.2499 20.3696 22.2499H15.6296C14.7316 22.2499 13.7367 21.4643 14.0169 20.327C14.3354 19.0343 15.1605 18.1448 16.1565 17.6613C15.8146 17.2484 15.6094 16.7183 15.6094 16.14ZM17.9994 15.25C17.5051 15.25 17.1094 15.6477 17.1094 16.14C17.1094 16.607 17.4682 16.9887 17.9276 17.0234C17.9743 17.0207 18.0231 17.0204 18.0724 17.0233C18.5269 16.9882 18.8856 16.6103 18.8894 16.1379C18.8882 15.6481 18.4895 15.25 17.9994 15.25ZM15.48 20.6936C15.477 20.6903 15.4749 20.6876 15.4734 20.6856C15.7871 19.413 16.8747 18.7402 18.018 18.7302C19.1523 18.7202 20.2248 19.3625 20.5302 20.6752L20.531 20.6792C20.5297 20.6817 20.5267 20.6863 20.521 20.6924C20.4964 20.7188 20.4423 20.7499 20.3696 20.7499H15.6296C15.5567 20.7499 15.5032 20.7185 15.48 20.6936Z" fill="#0033C9"/>
</svg>
