<svg width="24" height="24" viewBox="0 0 24 24" fill="none" xmlns="http://www.w3.org/2000/svg">
<path d="M12.75 11C12.75 10.5858 12.4142 10.25 12 10.25C11.5858 10.25 11.25 10.5858 11.25 11V11.04H11.16C10.0694 11.04 9.25 11.9632 9.25 13.01C9.25 13.4839 9.355 13.9144 9.63113 14.2645C9.89956 14.6048 10.256 14.773 10.5496 14.877L12.9483 15.7165C13.1263 15.7813 13.1688 15.8271 13.1806 15.8422C13.1866 15.8498 13.24 15.9176 13.24 16.17C13.24 16.4632 13.0194 16.64 12.83 16.64H11.33C11.0495 16.64 10.75 16.382 10.75 15.99C10.75 15.5758 10.4142 15.24 10 15.24C9.58579 15.24 9.25 15.5758 9.25 15.99C9.25 17.112 10.1101 18.0944 11.25 18.1385V18.1799C11.25 18.5942 11.5858 18.9299 12 18.9299C12.4142 18.9299 12.75 18.5942 12.75 18.1799V18.14H12.83C13.9206 18.14 14.74 17.2169 14.74 16.17C14.74 15.696 14.6349 15.2671 14.3621 14.9181C14.0965 14.5784 13.7443 14.4093 13.4551 14.3047L11.0492 13.4626C10.8638 13.3969 10.8202 13.3499 10.8086 13.3353C10.8032 13.3285 10.75 13.262 10.75 13.01C10.75 12.7169 10.9706 12.54 11.16 12.54H12.6539C12.9634 12.5465 13.25 12.8129 13.25 13.19C13.25 13.6043 13.5858 13.94 14 13.94C14.4142 13.94 14.75 13.6043 14.75 13.19C14.75 12.0554 13.8803 11.1005 12.75 11.0427V11Z" fill="#0033C9"/>
<path fill-rule="evenodd" clip-rule="evenodd" d="M2.75 4.77941C2.75 4.82874 2.75119 4.87779 2.75355 4.92655C2.7512 4.95071 2.75 4.97521 2.75 4.99999V17C2.75 18.9946 2.98116 20.5418 3.96967 21.5303C4.95818 22.5188 6.50536 22.75 8.5 22.75H15.5C17.4946 22.75 19.0418 22.5188 20.0303 21.5303C21.0188 20.5418 21.25 18.9946 21.25 17V4.77941C21.25 2.83255 19.6674 1.25 17.7206 1.25H6.27941C4.33255 1.25 2.75 2.83255 2.75 4.77941ZM5.76324 6.2922C4.93049 6.2922 4.25 5.61177 4.25 4.77941C4.25 3.66098 5.16098 2.75 6.27941 2.75H17.7206C18.839 2.75 19.75 3.66098 19.75 4.77941V6.2922H5.76324ZM4.25 17V7.38382C4.69503 7.64338 5.21216 7.7922 5.76324 7.7922H19.75V17C19.75 19.0054 19.4812 19.9582 18.9697 20.4697C18.4582 20.9812 17.5054 21.25 15.5 21.25H8.5C6.49464 21.25 5.54182 20.9812 5.03033 20.4697C4.51884 19.9582 4.25 19.0054 4.25 17Z" fill="#0033C9"/>
</svg>
