<svg width="24" height="24" viewBox="0 0 24 24" fill="none" xmlns="http://www.w3.org/2000/svg">
<path fill-rule="evenodd" clip-rule="evenodd" d="M17.7399 7.4599H5.75V8.49994C5.75 8.91415 5.41421 9.24994 5 9.24994C4.58579 9.24994 4.25 8.91415 4.25 8.49994V5.67062C4.25 4.63865 4.60427 3.77181 5.21936 3.16177C5.82969 2.55646 6.65025 2.25059 7.49995 2.25058L15.5 2.25009C16.4392 2.25024 17.2704 2.5405 17.8683 3.13653C18.4659 3.7324 18.75 4.55372 18.75 5.46005V6.07424C20.7506 6.53488 22.2499 8.33276 22.2499 10.4699V17.1999C22.2499 19.6841 20.2241 21.7099 17.7399 21.7099H8.76C7.45224 21.7099 6.27213 21.1477 5.44922 20.2573C5.16807 19.9531 5.18676 19.4786 5.49094 19.1974C5.79513 18.9163 6.26964 18.935 6.55078 19.2392C7.10363 19.8373 7.89055 20.2099 8.76 20.2099H17.7399C19.3957 20.2099 20.7499 18.8557 20.7499 17.1999V10.4699C20.7499 8.81412 19.3957 7.4599 17.7399 7.4599ZM7.50005 3.75058L15.4999 3.75009C16.1306 3.75022 16.5496 3.93993 16.8092 4.19879C17.0691 4.45785 17.25 4.86638 17.25 5.46005V5.9599H5.75V5.67062C5.75 4.99241 5.97573 4.52423 6.27564 4.2268C6.5803 3.92464 7.00976 3.75058 7.50005 3.75058Z" fill="#0033C9"/>
<path d="M19 11.21C19.4142 11.21 19.75 11.5457 19.75 11.96V14.96C19.75 15.3742 19.4142 15.71 19 15.71C18.5858 15.71 18.25 15.3742 18.25 14.96V11.96C18.25 11.5457 18.5858 11.21 19 11.21Z" fill="#0033C9"/>
<path d="M9.75002 13.9999C9.75002 13.5857 9.41424 13.2499 9.00002 13.2499H4.81068L5.53035 12.5303C5.82325 12.2374 5.82325 11.7625 5.53035 11.4696C5.23746 11.1767 4.76258 11.1767 4.46969 11.4696L2.46969 13.4696C2.33613 13.6032 2.26348 13.7746 2.25172 13.9493C2.24841 13.9981 2.24986 14.0474 2.25621 14.0964C2.27446 14.2379 2.33307 14.3753 2.43205 14.4898C2.44533 14.5052 2.4592 14.52 2.47363 14.5342L4.46969 16.5303C4.76259 16.8232 5.23746 16.8232 5.53035 16.5303C5.82325 16.2374 5.82325 15.7625 5.53035 15.4696L4.81068 14.7499H9.00002C9.41424 14.7499 9.75002 14.4142 9.75002 13.9999Z" fill="#0033C9"/>
</svg>
