<svg width="24" height="24" viewBox="0 0 24 24" fill="none" xmlns="http://www.w3.org/2000/svg">
<path d="M5.99025 1.56186C6.30869 1.29696 6.78158 1.34038 7.04647 1.65882L8.05786 2.87468C8.30561 3.17251 8.28576 3.61003 8.01205 3.88419L6.97868 4.9193C6.68603 5.21244 6.21116 5.21284 5.91802 4.92019C5.74105 4.74351 5.67077 4.50042 5.70726 4.271C4.32936 4.51445 3.22619 5.65069 3.08636 7.1114C2.91833 8.86674 4.20511 10.4259 5.96045 10.594C7.7158 10.762 9.275 9.47523 9.44303 7.71989C9.51506 6.96738 9.32064 6.25322 8.93642 5.66716C8.6639 5.25147 8.77995 4.69356 9.19564 4.42104C9.61133 4.14852 10.1692 4.26457 10.4418 4.68026C11.0423 5.59626 11.3473 6.71691 11.2348 7.89141C10.9721 10.6363 8.53386 12.6485 5.78893 12.3858C3.044 12.123 1.03179 9.68481 1.29455 6.93988C1.52632 4.51867 3.45068 2.66755 5.78515 2.44493C5.65096 2.14557 5.72569 1.78193 5.99025 1.56186Z" fill="#0033C9"/>
<path d="M12.6406 3.25002C12.2264 3.25002 11.8906 3.5858 11.8906 4.00002C11.8906 4.41423 12.2264 4.75002 12.6406 4.75002H18.0558C18.0887 4.75002 18.1102 4.76561 18.12 4.77931C17.7986 5.52837 17.3878 6.1018 16.5167 6.88588H12.6406C12.2264 6.88588 11.8906 7.22166 11.8906 7.63588C11.8906 8.05009 12.2264 8.38588 12.6406 8.38588H16.8004C16.8731 8.38588 16.9448 8.37532 17.0134 8.35499C19.0494 9.49646 21.5219 12.001 21.5219 15.9518C21.5219 17.2502 21.2335 18.1859 20.8098 18.8698C20.386 19.5538 19.797 20.0341 19.1192 20.3741C17.7336 21.069 16.0383 21.1494 14.8602 21.1494C13.6822 21.1494 11.9869 21.069 10.6013 20.3741C9.92357 20.0341 9.33459 19.5538 8.91081 18.8698C8.48707 18.1859 8.19873 17.2502 8.19873 15.9518C8.19873 15.4762 8.23032 15.0267 8.28874 14.6023C8.34523 14.1919 8.05836 13.8135 7.64802 13.757C7.23768 13.7005 6.85924 13.9874 6.80275 14.3977C6.73476 14.8917 6.69873 15.4096 6.69873 15.9518C6.69873 17.4786 7.04036 18.6989 7.6357 19.6598C8.23101 20.6207 9.05021 21.2742 9.92885 21.7149C11.6561 22.5812 13.6666 22.6494 14.8602 22.6494C16.0539 22.6494 18.0644 22.5812 19.7917 21.7149C20.6703 21.2742 21.4895 20.6207 22.0849 19.6598C22.6802 18.6989 23.0219 17.4786 23.0219 15.9518C23.0219 11.6025 20.4729 8.76047 18.2132 7.3258C18.7943 6.70399 19.1836 6.10548 19.4998 5.36772C19.9628 4.28742 19.0866 3.25002 18.0558 3.25002H12.6406Z" fill="#0033C9"/>
<path d="M14.5005 10.25C14.9147 10.25 15.2505 10.5858 15.2505 11V11.0427C16.3808 11.1006 17.2505 12.0554 17.2505 13.1901C17.2505 13.6043 16.9147 13.9401 16.5005 13.9401C16.0863 13.9401 15.7505 13.6043 15.7505 13.1901C15.7505 12.8129 15.4638 12.5465 15.1543 12.5401H13.6605C13.4711 12.5401 13.2505 12.7169 13.2505 13.0101C13.2505 13.262 13.3037 13.3285 13.3091 13.3353C13.3207 13.3499 13.3643 13.3969 13.5497 13.4627L15.9556 14.3047C16.2447 14.4093 16.597 14.5784 16.8626 14.9182C17.1354 15.2671 17.2405 15.696 17.2405 16.1701C17.2405 17.2169 16.4211 18.1401 15.3305 18.1401H15.2505V18.18C15.2505 18.5942 14.9147 18.93 14.5005 18.93C14.0863 18.93 13.7505 18.5942 13.7505 18.18V18.1385C12.6105 18.0944 11.7505 17.112 11.7505 15.9901C11.7505 15.5758 12.0863 15.2401 12.5005 15.2401C12.9147 15.2401 13.2505 15.5758 13.2505 15.9901C13.2505 16.382 13.55 16.6401 13.8305 16.6401H15.3305C15.5199 16.6401 15.7405 16.4632 15.7405 16.1701C15.7405 15.9176 15.687 15.8498 15.6811 15.8422C15.6692 15.8271 15.6268 15.7813 15.4487 15.7166L13.0501 14.877C12.7564 14.773 12.4001 14.6049 12.1316 14.2645C11.8555 13.9144 11.7505 13.4839 11.7505 13.0101C11.7505 11.9632 12.5699 11.0401 13.6605 11.0401H13.7505V11C13.7505 10.5858 14.0863 10.25 14.5005 10.25Z" fill="#0033C9"/>
</svg>
