<svg width="24" height="24" viewBox="0 0 24 24" fill="none" xmlns="http://www.w3.org/2000/svg">
<path d="M10 17.75H14C14.4142 17.75 14.75 18.0858 14.75 18.5C14.75 18.9142 14.4142 19.25 14 19.25H10C9.58579 19.25 9.25 18.9142 9.25 18.5C9.25 18.0858 9.58579 17.75 10 17.75Z" fill="#0033C9"/>
<path fill-rule="evenodd" clip-rule="evenodd" d="M9.44085 12.3366H7.56283C7.25199 12.3366 7 12.0846 7 11.7737V11.1648C7 11.0673 7.0253 10.9715 7.07343 10.8868L8.77709 7.88719C8.8771 7.7111 9.06399 7.60232 9.2665 7.60232H10.5575C10.8694 7.60232 11.1218 7.85593 11.1203 8.16781L11.1073 10.9234H11.3677C11.6785 10.9234 11.9305 11.1754 11.9305 11.4862V11.7737C11.9305 12.0846 11.6785 12.3366 11.3677 12.3366H11.1219V12.5824C11.1219 12.8933 10.8699 13.1452 10.559 13.1452H10.0111C9.70661 13.1452 9.45735 12.9031 9.44848 12.5988L9.44085 12.3366ZM9.52022 9.71872L8.85053 10.9234H9.52022V9.71872Z" fill="#0033C9"/>
<path d="M15.756 7.63454C15.9356 7.64922 16.114 7.67249 16.2913 7.70436C16.5607 7.75282 16.7409 7.98981 16.7409 8.24939V8.66075C16.7409 9.00514 16.4353 9.26677 16.0969 9.21916C15.9649 9.20057 15.8424 9.18417 15.7914 9.17931C15.5848 9.15915 15.3749 9.149 15.1628 9.149C14.8601 9.149 14.6032 9.18134 14.3889 9.24189L14.3872 9.24238L14.3855 9.24284C14.2083 9.29009 14.076 9.38674 13.9781 9.53943C13.8851 9.68446 13.8203 9.94418 13.8203 10.3581C13.8203 10.7716 13.8538 11.0669 13.9109 11.2578C13.9643 11.4157 14.0517 11.5088 14.1725 11.5621C14.3298 11.6232 14.5756 11.6614 14.9273 11.6614H15.1407L15.4141 11.647V11.418C15.4141 11.3418 15.4155 11.2681 15.4185 11.1969C15.3481 11.2034 15.2757 11.2089 15.2011 11.2134L15.1974 11.2136L15.1938 11.2137C15.1338 11.2156 15.0753 11.2168 15.0182 11.2174C14.7039 11.2206 14.4641 10.9626 14.4641 10.6622V10.268C14.4641 9.95804 14.7147 9.7064 15.0247 9.70521L16.435 9.69981C16.7467 9.69861 17 9.95095 17 10.2626V12.406C17 12.623 16.8733 12.8344 16.6535 12.9179C16.447 12.9963 16.2225 13.0598 15.9808 13.1089L15.9776 13.1096C15.6535 13.1711 15.2495 13.2002 14.7703 13.2002C14.1254 13.2002 13.5926 13.115 13.1906 12.9258L13.188 12.9246C12.7755 12.7244 12.482 12.4021 12.3137 11.9694L12.3133 11.9684C12.1519 11.5475 12.0773 11.0067 12.0773 10.3581C12.0773 9.82941 12.1363 9.37839 12.2637 9.0138L12.2648 9.01056C12.3971 8.64805 12.593 8.35326 12.8605 8.14172C13.1242 7.93205 13.4399 7.79233 13.8007 7.71763C14.151 7.63994 14.5456 7.60232 14.9823 7.60232C15.2402 7.60232 15.4981 7.61306 15.756 7.63454Z" fill="#0033C9"/>
<path fill-rule="evenodd" clip-rule="evenodd" d="M5.51828 2.65893C6.35813 1.77327 7.5603 1.25 9 1.25H15C16.4397 1.25 17.6419 1.77327 18.4817 2.65893C19.3157 3.53846 19.75 4.72998 19.75 6V18C19.75 19.27 19.3157 20.4615 18.4817 21.3411C17.6419 22.2267 16.4397 22.75 15 22.75H9C7.5603 22.75 6.35813 22.2267 5.51828 21.3411C4.68425 20.4615 4.25 19.27 4.25 18V6C4.25 4.72998 4.68425 3.53846 5.51828 2.65893ZM6.60672 3.69107C6.06575 4.26154 5.75 5.07002 5.75 6V18C5.75 18.93 6.06575 19.7385 6.60672 20.3089C7.14187 20.8733 7.9397 21.25 9 21.25H15C16.0603 21.25 16.8581 20.8733 17.3933 20.3089C17.9343 19.7385 18.25 18.93 18.25 18V6C18.25 5.07002 17.9343 4.26154 17.3933 3.69107C16.8581 3.12672 16.0603 2.75 15 2.75H9C7.9397 2.75 7.14187 3.12672 6.60672 3.69107Z" fill="#0033C9"/>
</svg>
