<svg width="24" height="24" viewBox="0 0 24 24" fill="none" xmlns="http://www.w3.org/2000/svg">
<path fill-rule="evenodd" clip-rule="evenodd" d="M15.5889 2.91978C15.6332 2.50795 16.003 2.21003 16.4149 2.25437C16.8798 2.30443 17.3408 2.35736 17.7957 2.41001C19.7859 2.64036 21.3755 4.22731 21.5988 6.22162C21.6493 6.67253 21.6997 7.12908 21.7473 7.58966C21.7899 8.00168 21.4904 8.3702 21.0783 8.41276C20.6663 8.45532 20.2978 8.15582 20.2552 7.7438C20.2083 7.28978 20.1585 6.83838 20.1081 6.3885C19.9629 5.09167 18.9228 4.05048 17.6232 3.90006C17.1687 3.84745 16.7129 3.79512 16.2543 3.74575C15.8425 3.70141 15.5446 3.33161 15.5889 2.91978Z" fill="#0033C9"/>
<path fill-rule="evenodd" clip-rule="evenodd" d="M15.5889 21.0804C15.6332 21.4923 16.003 21.7902 16.4149 21.7458C16.8798 21.6958 17.3408 21.6428 17.7957 21.5902C19.7859 21.3598 21.3755 19.7729 21.5988 17.7786C21.6493 17.3277 21.6997 16.8711 21.7473 16.4105C21.7899 15.9985 21.4904 15.63 21.0783 15.5874C20.6663 15.5449 20.2978 15.8444 20.2552 16.2564C20.2083 16.7104 20.1585 17.1618 20.1081 17.6117C19.9629 18.9085 18.9228 19.9497 17.6232 20.1001C17.1687 20.1528 16.7129 20.2051 16.2543 20.2545C15.8425 20.2988 15.5446 20.6686 15.5889 21.0804Z" fill="#0033C9"/>
<path fill-rule="evenodd" clip-rule="evenodd" d="M8.4135 2.91978C8.36916 2.50795 7.99936 2.21003 7.58752 2.25437C7.12256 2.30443 6.66164 2.35736 6.20673 2.41001C4.21655 2.64036 2.62687 4.22731 2.40361 6.22162C2.35313 6.67253 2.30269 7.12908 2.25511 7.58966C2.21255 8.00168 2.51205 8.3702 2.92407 8.41276C3.33609 8.45532 3.70461 8.15582 3.74717 7.7438C3.79407 7.28978 3.84393 6.83838 3.8943 6.3885C4.03948 5.09167 5.07963 4.05048 6.37919 3.90006C6.83374 3.84745 7.28955 3.79512 7.74809 3.74575C8.15992 3.70141 8.45784 3.33161 8.4135 2.91978Z" fill="#0033C9"/>
<path fill-rule="evenodd" clip-rule="evenodd" d="M8.4135 21.0804C8.36916 21.4923 7.99936 21.7902 7.58752 21.7458C7.12256 21.6958 6.66164 21.6428 6.20673 21.5902C4.21655 21.3598 2.62687 19.7729 2.40361 17.7786C2.35313 17.3277 2.30269 16.8711 2.25511 16.4105C2.21255 15.9985 2.51205 15.63 2.92407 15.5874C3.33609 15.5449 3.70461 15.8444 3.74717 16.2564C3.79407 16.7104 3.84393 17.1618 3.8943 17.6117C4.03948 18.9085 5.07963 19.9497 6.37919 20.1001C6.83374 20.1528 7.28955 20.2051 7.74809 20.2545C8.15992 20.2988 8.45784 20.6686 8.4135 21.0804Z" fill="#0033C9"/>
<path fill-rule="evenodd" clip-rule="evenodd" d="M1.16797 11.2096L22.8346 11.2096C23.2488 11.2096 23.5846 11.5454 23.5846 11.9596C23.5846 12.3738 23.2488 12.7096 22.8346 12.7096L1.16797 12.7096C0.753756 12.7096 0.417969 12.3738 0.417969 11.9596C0.417969 11.5454 0.753756 11.2096 1.16797 11.2096Z" fill="#0033C9"/>
</svg>
