<svg width="24" height="24" viewBox="0 0 24 24" fill="none" xmlns="http://www.w3.org/2000/svg">
<path fill-rule="evenodd" clip-rule="evenodd" d="M10.9408 15.7343H9.06283C8.75199 15.7343 8.5 15.4823 8.5 15.1714V14.5625C8.5 14.465 8.5253 14.3692 8.57343 14.2845L10.2771 11.2849C10.3771 11.1088 10.564 11 10.7665 11H12.0575C12.3694 11 12.6218 11.2536 12.6203 11.5655L12.6073 14.321H12.8677C13.1785 14.321 13.4305 14.573 13.4305 14.8839V15.1714C13.4305 15.4823 13.1785 15.7343 12.8677 15.7343H12.6219V15.9801C12.6219 16.2909 12.3699 16.5429 12.059 16.5429H11.5111C11.2066 16.5429 10.9573 16.3008 10.9485 15.9965L10.9408 15.7343ZM11.0202 13.1164L10.3505 14.321H11.0202V13.1164Z" fill="#0033C9"/>
<path d="M17.256 11.0322C17.4356 11.0469 17.614 11.0702 17.7913 11.102C18.0607 11.1505 18.2409 11.3875 18.2409 11.6471V12.0584C18.2409 12.4028 17.9353 12.6645 17.5969 12.6168C17.4649 12.5983 17.3419 12.5818 17.2908 12.5769C17.0842 12.5568 16.8749 12.5467 16.6628 12.5467C16.3601 12.5467 16.1032 12.579 15.8889 12.6396L15.8872 12.6401L15.8855 12.6405C15.7083 12.6878 15.576 12.7844 15.4781 12.9371C15.3851 13.0821 15.3203 13.3419 15.3203 13.7558C15.3203 14.1693 15.3538 14.4646 15.4109 14.6555C15.4643 14.8134 15.5517 14.9065 15.6725 14.9597C15.8298 15.0209 16.0756 15.0591 16.4273 15.0591H16.6407L16.9141 15.0447V14.8157C16.9141 14.7395 16.9155 14.6658 16.9185 14.5946C16.8481 14.6011 16.7757 14.6066 16.7011 14.6111L16.6974 14.6113L16.6938 14.6114C16.6338 14.6132 16.5753 14.6144 16.5182 14.615C16.2039 14.6183 15.9641 14.3603 15.9641 14.0599V13.6657C15.9641 13.3557 16.2147 13.1041 16.5247 13.1029L17.935 13.0975C18.2467 13.0963 18.5 13.3486 18.5 13.6603V15.8037C18.5 16.0207 18.3733 16.2321 18.1535 16.3156C17.947 16.394 17.7225 16.4575 17.4808 16.5066L17.4776 16.5073C17.1535 16.5687 16.7495 16.5979 16.2703 16.5979C15.6254 16.5979 15.0926 16.5127 14.6906 16.3235L14.688 16.3222C14.2755 16.122 13.982 15.7998 13.8137 15.3671L13.8133 15.366C13.6519 14.9452 13.5773 14.4043 13.5773 13.7558C13.5773 13.2271 13.6363 12.7761 13.7637 12.4115L13.7648 12.4082C13.8971 12.0457 14.093 11.7509 14.3605 11.5394C14.6242 11.3297 14.9399 11.19 15.3007 11.1153C15.651 11.0376 16.0456 11 16.4823 11C16.7402 11 16.9981 11.0107 17.256 11.0322Z" fill="#0033C9"/>
<path fill-rule="evenodd" clip-rule="evenodd" d="M18.7264 3.16999C19.4125 3.81542 19.6569 4.75665 19.727 5.88695C20.661 6.01762 21.4409 6.32337 21.9765 6.99915C22.6049 7.792 22.75 8.92473 22.75 10.28V17.27C22.75 18.757 22.5783 19.9881 21.7693 20.7864C20.9637 21.5812 19.7244 21.75 18.22 21.75H8.78003C7.30001 21.75 6.07915 21.5879 5.27361 20.83C4.58755 20.1846 4.34303 19.2434 4.27299 18.113C3.33898 17.9824 2.55907 17.6766 2.02348 17.0009C1.39508 16.208 1.25 15.0753 1.25 13.72V6.73C1.25 5.24303 1.42172 4.01195 2.23073 3.21365C3.03626 2.41878 4.27563 2.25 5.78003 2.25H15.22C16.7 2.25 17.9208 2.41215 18.7264 3.16999ZM18.216 5.8H8.78003C7.85305 5.8 7.02669 5.86408 6.34045 6.09923C5.913 6.24571 5.53991 6.45856 5.23073 6.76365C4.42172 7.56195 4.25 8.79303 4.25 10.28V16.5897C3.67089 16.4792 3.37726 16.294 3.19902 16.0691C2.91992 15.717 2.75 15.0647 2.75 13.72V6.73C2.75 5.23697 2.95829 4.60305 3.2843 4.28135C3.61379 3.95622 4.26443 3.75 5.78003 3.75H15.22C16.71 3.75 17.3641 3.94785 17.6986 4.26251C17.9537 4.50253 18.1418 4.9261 18.216 5.8ZM18.22 7.3C18.4502 7.3 18.6677 7.30719 18.8787 7.31566L18.9622 7.31908C20.0908 7.38652 20.5554 7.62101 20.801 7.93086C21.0801 8.28301 21.25 8.93528 21.25 10.28V17.27C21.25 18.763 21.0417 19.397 20.7157 19.7187C20.3862 20.0438 19.7356 20.25 18.22 20.25H8.78003C7.29005 20.25 6.63589 20.0522 6.30142 19.7375C5.98024 19.4353 5.7653 18.8423 5.75 17.426V10.28C5.75 9.16022 5.86716 8.5237 6.06328 8.13971C6.12865 8.01171 6.2028 7.91177 6.2843 7.83135C6.36667 7.75007 6.46912 7.67622 6.60013 7.61116C6.99317 7.416 7.64333 7.3 8.78003 7.3L18.22 7.3Z" fill="#0033C9"/>
</svg>
