<svg width="24" height="24" viewBox="0 0 24 24" fill="none" xmlns="http://www.w3.org/2000/svg">
<path d="M9.92188 5.9726C9.4095 5.9726 8.99414 6.38796 8.99414 6.90033V11.279C8.99414 11.642 9.28838 11.9362 9.65133 11.9362C10.0131 11.9362 10.3068 11.6439 10.3085 11.2821L10.3234 8.14608L10.4132 8.28978L10.8982 9.02625L11.3557 9.68961C11.6538 10.1219 12.2934 10.1187 12.5872 9.68345L12.9459 9.15199L13.3411 8.55922L13.6285 8.11016L13.6434 11.2821C13.6451 11.6439 13.9388 11.9362 14.3006 11.9362C14.6635 11.9362 14.9578 11.642 14.9578 11.279V6.89377C14.9578 6.38502 14.5453 5.9726 14.0366 5.9726C13.7161 5.9726 13.4187 6.13916 13.2512 6.4124L13.1794 6.52944L12.9639 6.87073L12.6765 7.33776L12.4071 7.76887L12.1735 8.14608L11.9759 8.45145L11.7963 8.16404L11.5089 7.69701L10.97 6.83481L10.6826 6.36777C10.526 6.12164 10.2545 5.9726 9.96275 5.9726H9.92188Z" fill="#0033C9"/>
<path d="M14.2136 15.6635C14.2136 15.2518 14.5473 14.918 14.959 14.918H16.4499C16.8616 14.918 17.1954 15.2518 17.1954 15.6635C17.1954 16.0752 16.8616 16.4089 16.4499 16.4089H14.959C14.5473 16.4089 14.2136 16.0752 14.2136 15.6635Z" fill="#0033C9"/>
<path d="M6.75905 15.6635C6.75905 15.2518 7.0928 14.918 7.5045 14.918H8.9954C9.4071 14.918 9.74085 15.2518 9.74085 15.6635C9.74085 16.0752 9.4071 16.4089 8.9954 16.4089H7.5045C7.0928 16.4089 6.75905 16.0752 6.75905 15.6635Z" fill="#0033C9"/>
<path fill-rule="evenodd" clip-rule="evenodd" d="M18.0384 18.0368C18.7709 17.7011 19.3022 17.0017 19.3998 16.1674C19.4179 16.0129 19.4364 15.857 19.455 15.6999C19.6237 14.278 19.8045 12.754 19.8045 11.1908C19.8045 11.0825 19.8036 10.9744 19.8019 10.8665L19.8041 10.8607C19.8013 10.7358 19.7975 10.6112 19.7928 10.4868C19.7502 9.17046 19.5983 7.88923 19.455 6.68162C19.4364 6.52451 19.4179 6.36863 19.3998 6.2141L19.396 6.18332L19.3744 5.9912C19.2663 5.02568 18.4742 4.33491 17.5613 4.18524C17.4787 4.16721 17.3946 4.15349 17.3091 4.14434C17.0906 4.12092 16.8696 4.09663 16.6463 4.07208C15.397 3.93474 14.0766 3.78957 12.7227 3.74798L12.7228 3.73626L12.7228 2.99078L14.2136 2.99078C14.6253 2.99078 14.959 2.65703 14.959 2.24533C14.959 1.83363 14.6253 1.49988 14.2136 1.49988L9.74085 1.49988C9.32915 1.49988 8.9954 1.83363 8.9954 2.24533C8.9954 2.65703 9.32915 2.99078 9.74085 2.99078L11.2318 2.99078L11.2319 3.73638L11.232 3.74797C9.87812 3.78954 8.5572 3.93476 7.30784 4.07211C7.08497 4.09661 6.86344 4.12097 6.6453 4.14434C6.5602 4.15345 6.47645 4.16709 6.39429 4.18499C5.48071 4.33415 4.6878 5.02515 4.57968 5.9912L4.55203 6.23587C4.53476 6.38326 4.51713 6.53188 4.49937 6.6816C4.35872 7.86744 4.20965 9.12427 4.16403 10.4157C4.15804 10.5636 4.1533 10.7119 4.14996 10.8607L4.15249 10.8675C4.15083 10.975 4.14996 11.0828 4.14996 11.1908C4.14996 12.754 4.33072 14.278 4.49938 15.6999L4.50031 15.7077C4.51862 15.8622 4.5368 16.0154 4.55458 16.1674C4.65214 17.0013 5.18313 17.7005 5.91515 18.0364L4.11718 20.8534C3.89568 21.2004 3.99744 21.6613 4.34448 21.8828C4.69151 22.1043 5.15241 22.0026 5.37391 21.6555L5.87599 20.8689C5.92063 20.8772 5.96668 20.8816 6.01375 20.8816H17.941C17.9876 20.8816 18.0332 20.8773 18.0774 20.8691L18.5794 21.6555C18.8009 22.0026 19.2618 22.1043 19.6088 21.8828C19.9558 21.6613 20.0576 21.2004 19.8361 20.8534L18.0384 18.0368ZM16.4569 18.3302C15.0342 18.4863 13.5228 18.6453 11.9772 18.6453C10.4312 18.6453 8.91948 18.4863 7.49642 18.3301L6.81948 19.3907L17.1338 19.3907L16.4569 18.3302ZM7.47344 5.56197C8.96098 5.39449 10.4541 5.22714 11.977 5.22714C13.4999 5.22715 14.9931 5.3945 16.4806 5.56197C16.7459 5.59184 17.0121 5.62181 17.2759 5.65048L17.2808 5.65102C17.6126 5.73973 17.8676 6.02122 17.9164 6.36697C17.937 6.54809 17.958 6.72992 17.979 6.91137C18.1183 8.11585 18.2575 9.32418 18.3033 10.5519L18.3045 10.5911C14.8415 14.1478 9.11301 14.148 5.64991 10.5915L5.65326 10.4869C5.70142 9.28154 5.83819 8.09499 5.975 6.91176L5.97518 6.91012C5.99458 6.74234 6.01404 6.57404 6.03311 6.40669L6.03538 6.38734C6.07693 6.03221 6.33544 5.7413 6.67392 5.65095L6.67818 5.65048C6.94198 5.6218 7.20807 5.59185 7.47344 5.56197ZM5.68914 12.618C9.38216 15.4603 14.5724 15.4602 18.2653 12.6177C18.2028 13.5958 18.0883 14.5631 17.9739 15.5294L17.9735 15.532C17.9553 15.6859 17.937 15.8403 17.919 15.9942C17.8723 16.3936 17.5511 16.7118 17.1503 16.7548C16.9257 16.7788 16.7012 16.8035 16.4764 16.8281L16.4753 16.8282C14.9924 16.991 13.5034 17.1544 11.9772 17.1544C10.451 17.1544 8.96202 16.991 7.47904 16.8282C7.25396 16.8035 7.02903 16.7788 6.80412 16.7547C6.40335 16.7118 6.08211 16.3936 6.03538 15.9942C6.01728 15.8395 5.99892 15.6844 5.9806 15.5297C5.86619 14.5635 5.75164 13.596 5.68914 12.618Z" fill="#0033C9"/>
</svg>
