<svg width="24" height="24" viewBox="0 0 24 24" fill="none" xmlns="http://www.w3.org/2000/svg">
<path d="M5.96952 2.20837C4.97168 2.20837 3.98217 2.67086 3.41008 3.56493C2.70724 4.66334 1.95459 6.06038 1.40363 7.33893C1.12836 7.9777 0.896068 8.60382 0.746945 9.15895C0.609673 9.66996 0.51116 10.2303 0.595971 10.7024C0.730339 11.761 1.2556 12.5575 1.9871 13.0827C2.70578 13.5988 3.58701 13.8296 4.43058 13.8591C5.27522 13.8885 6.14118 13.7188 6.86421 13.3675C7.1394 13.2338 7.40676 13.0669 7.64615 12.8652C8.54954 13.8922 10.0217 14.1163 11.1743 13.8823C11.6028 13.7953 11.8796 13.3775 11.7926 12.949C11.7057 12.5205 11.2878 12.2436 10.8593 12.3306C9.76653 12.5525 8.7741 12.147 8.50313 11.1793C8.40859 10.8416 8.10321 10.6064 7.75261 10.6011C7.40202 10.5959 7.08974 10.8219 6.98516 11.1566C6.90318 11.4189 6.65099 11.7108 6.17233 11.9433C5.70245 12.1716 5.09632 12.298 4.48578 12.2767C3.87416 12.2553 3.31714 12.0885 2.91059 11.7966C2.5232 11.5185 2.239 11.1059 2.16462 10.4862C2.16217 10.4658 2.15892 10.4455 2.15489 10.4253C2.13549 10.3282 2.14504 10.0575 2.27607 9.56971C2.39849 9.11399 2.59982 8.56395 2.85769 7.96553C3.37301 6.76971 4.0847 5.44828 4.74375 4.41832C4.99138 4.03133 5.44648 3.79171 5.96952 3.79171H14.6445C15.1665 3.79171 15.6057 4.03572 15.8314 4.42436C16.5318 5.63016 17.4372 7.43136 17.9213 8.61355C18.087 9.01816 18.5493 9.21185 18.9539 9.04616C19.3585 8.88047 19.5522 8.41815 19.3865 8.01353C18.8701 6.7525 17.9305 4.88581 17.2006 3.62914C16.6559 2.69143 15.6562 2.20837 14.6445 2.20837H5.96952Z" fill="#0033C9"/>
<path d="M8.76286 5.4292C8.32563 5.4292 7.97119 5.78364 7.97119 6.22087C7.97119 6.65809 8.32563 7.01253 8.76286 7.01253H12.1442C12.5814 7.01253 12.9358 6.65809 12.9358 6.22087C12.9358 5.78364 12.5814 5.4292 12.1442 5.4292H8.76286Z" fill="#0033C9"/>
<path fill-rule="evenodd" clip-rule="evenodd" d="M3.50992 14.9285C3.94678 14.9464 4.28643 15.315 4.26855 15.7519C4.23941 16.4641 4.23917 17.3581 4.2466 18.0821C4.2503 18.4425 4.25586 18.7574 4.26049 18.9822L4.26186 19.0473C4.37866 19.0907 4.54763 19.1397 4.77574 19.1887C5.40767 19.3244 6.29964 19.4212 7.281 19.4823C9.24533 19.6045 11.4036 19.5745 12.2218 19.4878C12.6566 19.4418 13.0464 19.7569 13.0925 20.1917C13.1385 20.6265 12.8234 21.0163 12.3886 21.0624C11.4481 21.162 9.19255 21.1876 7.18268 21.0625C6.17695 21 5.19173 20.8974 4.44324 20.7367C4.07603 20.6578 3.71443 20.5545 3.42659 20.4086C3.21016 20.2988 2.69349 19.9921 2.68582 19.3753L2.68535 19.3572L2.68352 19.2843C2.68198 19.2211 2.67985 19.1294 2.67749 19.0148C2.67278 18.7859 2.66712 18.4653 2.66335 18.0984C2.65586 17.3681 2.65569 16.4412 2.68654 15.6872C2.70442 15.2503 3.07306 14.9107 3.50992 14.9285ZM4.08796 18.9638C4.08796 18.9638 4.09748 18.9686 4.11024 18.979C4.09329 18.9692 4.08796 18.9638 4.08796 18.9638Z" fill="#0033C9"/>
<path d="M18.0161 17.3738C19.0034 17.3738 19.8037 16.5735 19.8037 15.5862C19.8037 14.599 19.0034 13.7986 18.0161 13.7986C17.0289 13.7986 16.2285 14.599 16.2285 15.5862C16.2285 16.5735 17.0289 17.3738 18.0161 17.3738Z" fill="#0033C9"/>
<path fill-rule="evenodd" clip-rule="evenodd" d="M17.6051 22.6767L17.6078 22.6783C17.859 22.8296 18.1733 22.8296 18.4245 22.6783L18.4272 22.6767L18.4314 22.6742L18.4441 22.6663C18.4546 22.6599 18.4688 22.651 18.4866 22.6397C18.5222 22.617 18.5721 22.5847 18.6343 22.5429C18.7585 22.4594 18.9321 22.3375 19.1387 22.1791C19.5508 21.863 20.1003 21.3964 20.6517 20.7916C21.7451 19.5923 22.9088 17.7778 22.9088 15.4725C22.9088 14.3287 22.3998 12.9813 21.4355 12.1426C20.5122 11.3395 19.2809 10.9034 18.0162 10.9034C16.7515 10.9034 15.5201 11.3395 14.5968 12.1426C13.6325 12.9813 13.1235 14.3287 13.1235 15.4725C13.1235 17.7778 14.2872 19.5923 15.3806 20.7916C15.932 21.3964 16.4815 21.863 16.8936 22.1791C17.1002 22.3375 17.2738 22.4594 17.3981 22.5429C17.4602 22.5847 17.5101 22.617 17.5457 22.6397C17.5635 22.651 17.5778 22.6599 17.5882 22.6663L17.601 22.6742L17.6051 22.6767ZM18.0162 21.042C17.9666 21.0057 17.9135 20.9659 17.8572 20.9227C17.5003 20.649 17.0246 20.2447 16.5507 19.7249C15.5936 18.6751 14.7069 17.2258 14.7069 15.4725C14.7069 14.7242 15.062 13.8364 15.6359 13.3372C16.2508 12.8024 17.1056 12.4868 18.0162 12.4868C18.9267 12.4868 19.7816 12.8024 20.3964 13.3372C20.9703 13.8364 21.3255 14.7242 21.3255 15.4725C21.3255 17.2258 20.4387 18.6751 19.4816 19.7249C19.0077 20.2447 18.532 20.649 18.1751 20.9227C18.1189 20.9659 18.0657 21.0057 18.0162 21.042Z" fill="#0033C9"/>
</svg>
