<svg width="24" height="24" viewBox="0 0 24 24" fill="none" xmlns="http://www.w3.org/2000/svg">
<path d="M5.63378 8.21C5.61736 7.19469 5.82309 6.18453 6.24121 5.25785C6.76018 4.10775 7.58515 3.1319 8.62207 2.44731C9.65934 1.76254 10.8651 1.39856 12.0977 1.40043C13.3302 1.40232 14.535 1.77012 15.5703 2.45805C16.6052 3.14579 17.4277 4.12379 17.9434 5.27543C18.3562 6.19743 18.5593 7.2013 18.543 8.21C18.5376 8.54126 18.2648 8.80514 17.9336 8.79985C17.6023 8.79449 17.3374 8.5218 17.3428 8.19047C17.3563 7.35547 17.188 6.52575 16.8477 5.76567C16.4225 4.81635 15.748 4.0164 14.9062 3.45707C14.0647 2.89788 13.0896 2.60117 12.0957 2.59965C11.1019 2.59817 10.1263 2.89173 9.2832 3.44828C8.43984 4.00504 7.76279 4.80294 7.33496 5.75102C6.99024 6.51495 6.81942 7.34995 6.833 8.19047C6.83836 8.52173 6.57439 8.79437 6.24316 8.79985C5.91186 8.80521 5.63918 8.5413 5.63378 8.21Z" fill="#0033C9"/>
<path d="M10.4126 6.3556C10.4126 5.53793 11.0493 4.85486 12.0493 4.76673C12.5738 4.72059 12.9962 4.88346 13.2778 5.04993C13.4184 5.13306 13.5284 5.21888 13.605 5.28626C13.6434 5.32006 13.674 5.35006 13.6968 5.37317C13.7082 5.38476 13.7176 5.39536 13.7251 5.40345C13.7289 5.40749 13.7321 5.41112 13.7349 5.41419L13.7417 5.42103C13.7419 5.42121 13.7417 5.42139 13.3765 5.74134L13.7417 5.422C13.96 5.67129 13.9353 6.05038 13.686 6.26868C13.4368 6.4869 13.0577 6.46129 12.8394 6.21204L12.8403 6.214L12.8423 6.21595C12.8374 6.211 12.8272 6.20099 12.812 6.18763C12.7807 6.16006 12.7309 6.12121 12.6665 6.08314C12.5377 6.00703 12.3654 5.94351 12.1548 5.96204C11.9054 5.984 11.773 6.067 11.7075 6.13294C11.641 6.19997 11.6128 6.27887 11.6128 6.3556C11.6128 6.39761 11.6169 6.42442 11.6206 6.43958C11.6239 6.45282 11.6274 6.45919 11.6284 6.46107C11.6291 6.46228 11.6309 6.46474 11.6353 6.46888C11.6402 6.47358 11.651 6.48297 11.6704 6.49427C11.7766 6.55578 11.9469 6.59435 12.2632 6.65443C12.5194 6.70308 12.9203 6.77263 13.2437 6.96692C13.4208 7.0734 13.5916 7.22529 13.7144 7.44153C13.8368 7.65743 13.8901 7.90098 13.8901 8.15833C13.89 8.56197 13.6764 8.88036 13.4331 9.09095C13.189 9.30221 12.8765 9.44412 12.5542 9.51673C11.9123 9.66126 11.0932 9.55798 10.4692 8.97474C10.2276 8.74845 10.2149 8.36904 10.4409 8.12708C10.6672 7.885 11.0475 7.87248 11.2896 8.09876C11.5657 8.35655 11.9522 8.42199 12.2905 8.34583C12.4585 8.308 12.5806 8.242 12.648 8.18372C12.6724 8.16257 12.6821 8.14551 12.688 8.13685C12.6855 8.0636 12.6723 8.0367 12.6704 8.03333C12.6681 8.02934 12.6601 8.01601 12.6255 7.99525C12.5218 7.93299 12.3526 7.89258 12.0396 7.83314C11.7872 7.78521 11.3877 7.7177 11.0669 7.53138C10.8906 7.42891 10.7174 7.28138 10.5923 7.06751C10.4671 6.8533 10.4127 6.61098 10.4126 6.3556Z" fill="#0033C9"/>
<path d="M11.4858 5.35822L11.4858 4.75568C11.4858 4.42431 11.754 4.15607 12.0854 4.15607C12.4168 4.15607 12.685 4.42431 12.685 4.75568L12.685 5.35822C12.685 5.68959 12.4168 5.9588 12.0854 5.9588C11.754 5.9588 11.4858 5.68959 11.4858 5.35822Z" fill="#0033C9"/>
<path d="M11.4858 9.57788L11.4858 8.97534C11.4858 8.64397 11.754 8.37573 12.0854 8.37573C12.4168 8.37573 12.685 8.64397 12.685 8.97534L12.685 9.57788C12.685 9.90925 12.4168 10.1785 12.0854 10.1785C11.754 10.1785 11.4858 9.90925 11.4858 9.57788Z" fill="#0033C9"/>
<path d="M6.95312 11.6154C6.95215 11.6185 6.95078 11.6213 6.95019 11.6232C6.94417 11.6514 6.93768 11.6793 6.93164 11.7072L8.61523 11.5451L9.75293 11.4035C11.0509 11.242 11.8195 12.8144 10.8945 13.7394L9.52539 15.1085C9.03284 15.6011 8.97039 16.0865 9.19434 16.4054C9.33758 16.6093 9.50192 16.8072 9.66406 16.9738C9.82174 17.1357 10.0363 17.2388 10.2363 17.2618C10.4289 17.284 10.5739 17.2319 10.6729 17.131C10.8062 16.9947 10.8884 16.8584 11.0693 16.6183C11.2268 16.4093 11.4487 16.1433 11.7861 15.966C12.0982 15.802 12.4525 15.6842 12.8281 15.6896C13.2025 15.6951 13.5583 15.824 13.8701 16.0812L16.7549 18.1906L19.1895 16.6427C18.4402 15.3976 18.0105 14.0958 17.6631 12.7785L14.7764 11.8048C14.4625 11.6989 14.2936 11.358 14.3994 11.0441C14.5054 10.7301 14.8462 10.5612 15.1602 10.6671L17.3398 11.4025C17.3137 11.0754 17.5099 10.7519 17.8555 10.6495L17.8643 10.6476L17.873 10.6447L19.6494 10.1779V10.1788C19.739 10.1548 19.8606 10.1381 19.9512 10.131C20.0071 10.1266 20.0754 10.1234 20.1445 10.1261C20.1807 10.1275 20.2625 10.1313 20.3564 10.1574L20.4541 10.1915L20.5645 10.254C20.7288 10.3695 20.7921 10.5332 20.8154 10.6193L20.8281 10.6769L20.9609 11.3829C21.088 12.0398 21.2068 12.5658 21.3789 13.1017C21.6068 13.8111 21.9341 14.5556 22.5195 15.6368C22.5762 15.7416 22.629 15.9075 22.582 16.1007C22.5362 16.2887 22.4195 16.4052 22.3379 16.466C22.2586 16.525 22.181 16.5558 22.1348 16.5714C22.1336 16.5718 22.132 16.571 22.1309 16.5714C22.1208 16.5791 22.1147 16.5869 22.1104 16.59C22.1036 16.5947 22.097 16.5985 22.0938 16.6007C22.0844 16.6071 22.0944 16.6005 22.0869 16.6056L22.0859 16.6066L22.085 16.6056L20.7959 17.5626L20.7939 17.5636C20.7766 17.5763 20.673 17.6561 20.5479 17.7042C20.4967 17.7239 20.4137 17.7489 20.3105 17.7521C20.2409 17.7621 20.1791 17.7672 20.1406 17.7618C20.0867 17.747 20.0034 17.7133 19.9736 17.6974C19.9547 17.6861 19.9237 17.6656 19.9111 17.6564C19.9021 17.6495 19.8865 17.6366 19.8799 17.631C19.879 17.6302 19.8781 17.629 19.877 17.6281L17.5752 19.091C17.579 19.1037 17.5845 19.116 17.5879 19.129C17.6664 19.4344 17.5948 19.7175 17.4746 19.9425C17.2556 20.3521 16.8148 20.6833 16.3955 20.9386C15.5167 21.4735 14.2805 21.9367 13.4238 22.2003L13.4082 22.2052L13.3926 22.2091C12.799 22.3575 12.2538 22.5225 11.708 22.5665C11.1217 22.6138 10.5382 22.5277 9.78223 22.2443C8.97498 21.9416 8.33132 21.3775 7.83594 20.7589C6.83607 19.5102 5.66077 18.4119 4.34766 17.4982L4.2168 17.4074C4.19242 17.4389 4.16936 17.472 4.14453 17.504L4.1416 17.5079C3.91801 17.7913 3.46701 17.9159 3.1123 17.6554L1.69434 16.6134C1.35669 16.3654 1.33188 15.9321 1.50976 15.6427L1.52246 15.6242C1.52376 15.6221 1.52472 15.6193 1.52539 15.6183L1.52637 15.6173C2.55948 13.7056 2.9213 12.8609 3.81738 10.6124L3.83105 10.5783L3.84863 10.547C3.98987 10.2879 4.28188 10.1224 4.58984 10.1554L4.72266 10.1827L6.46875 10.6993C6.8612 10.8156 7.06182 11.217 6.96191 11.5851C6.95847 11.5978 6.95515 11.6088 6.95312 11.6154ZM8.75195 12.7374L8.74316 12.7384L8.73535 12.7394L6.62793 12.9415C6.41887 13.6804 6.18057 14.3118 5.86328 14.9318C5.60617 15.4341 5.30215 15.9201 4.93359 16.4435L5.0332 16.5128C6.44094 17.4924 7.70054 18.6702 8.77246 20.0089C9.17966 20.5174 9.65933 20.916 10.2041 21.1202C10.8311 21.3553 11.2366 21.4006 11.6123 21.3702C12.0249 21.3369 12.4125 21.2165 13.085 21.048C13.9046 20.7949 15.0222 20.3703 15.7715 19.9142C16.1235 19.6999 16.312 19.523 16.3896 19.4132C16.3855 19.4098 16.3818 19.4052 16.377 19.4015L13.1621 17.0499L13.1416 17.0353L13.123 17.0187C13.0102 16.9205 12.9105 16.8903 12.8115 16.8888C12.6981 16.8871 12.5432 16.9236 12.3437 17.0285C12.2495 17.0781 12.1586 17.1658 12.0273 17.34C11.9195 17.483 11.7363 17.7602 11.5312 17.9699C11.1264 18.3837 10.5883 18.5106 10.0986 18.4542C9.61635 18.3986 9.1485 18.1657 8.80371 17.8117C8.59553 17.5979 8.39151 17.35 8.21289 17.0958C7.4926 16.0707 8.0079 14.9288 8.67676 14.2599L10.0459 12.8908C10.1631 12.7736 10.0657 12.5738 9.90137 12.5939L8.75195 12.7374ZM4.77344 11.4484C4.01985 13.3303 3.6244 14.2354 2.73926 15.8908L3.45996 16.421C3.51511 16.3483 3.57081 16.2784 3.62305 16.2081C4.12411 15.5343 4.48909 14.9743 4.7793 14.4122L5.59473 12.1632C5.63015 12.0221 5.66443 11.8754 5.69922 11.7228L4.77344 11.4484ZM18.627 11.6867C18.665 11.8532 18.7033 12.0123 18.7422 12.1652C19.1274 13.6803 19.5749 15.0626 20.4209 16.3449L21.2246 15.7501C20.7605 14.8575 20.4583 14.1598 20.2363 13.4689C20.0238 12.8073 19.8868 12.1652 19.7412 11.3937L18.627 11.6867ZM1.52441 15.6212C1.52234 15.6246 1.5189 15.6309 1.51465 15.6388C1.51815 15.6323 1.5219 15.6257 1.52539 15.6193L1.52441 15.6212ZM19.9512 11.338V11.339L19.9531 11.338H19.9512Z" fill="#0033CC"/>
</svg>
