<svg width="24" height="24" viewBox="0 0 24 24" fill="none" xmlns="http://www.w3.org/2000/svg">
<path d="M15 1.25C17.574 1.25 19.5708 1.76026 20.9053 3.09473C22.2397 4.4292 22.75 6.42603 22.75 9V15C22.75 17.574 22.2397 19.5708 20.9053 20.9053C19.5708 22.2397 17.574 22.75 15 22.75H9C6.42603 22.75 4.4292 22.2397 3.09473 20.9053C1.76026 19.5708 1.25 17.574 1.25 15V9C1.25 6.42603 1.76026 4.4292 3.09473 3.09473C4.4292 1.76026 6.42603 1.25 9 1.25H15ZM9 2.75C6.57397 2.75 5.0708 3.23974 4.15527 4.15527C3.23974 5.0708 2.75 6.57397 2.75 9V15C2.75 17.426 3.23974 18.9292 4.15527 19.8447C5.0708 20.7603 6.57397 21.25 9 21.25H15C17.426 21.25 18.9292 20.7603 19.8447 19.8447C20.7603 18.9292 21.25 17.426 21.25 15V9C21.25 6.57397 20.7603 5.0708 19.8447 4.15527C18.9292 3.23974 17.426 2.75 15 2.75H9ZM6.87891 15.3301C7.29312 15.3301 7.62891 15.6659 7.62891 16.0801V18.1504C7.62866 18.5644 7.29297 18.9004 6.87891 18.9004C6.46484 18.9004 6.12915 18.5644 6.12891 18.1504V16.0801C6.12891 15.6659 6.46469 15.3301 6.87891 15.3301ZM11.999 13.2598C12.4132 13.2598 12.7489 13.5956 12.749 14.0098V18.1504C12.7488 18.5644 12.4131 18.9004 11.999 18.9004C11.585 18.9004 11.2493 18.5644 11.249 18.1504V14.0098C11.2491 13.5956 11.5849 13.2598 11.999 13.2598ZM17.1191 11.1797C17.5333 11.1797 17.869 11.5156 17.8691 11.9297V18.1504C17.8689 18.5644 17.5332 18.9004 17.1191 18.9004C16.7051 18.9004 16.3694 18.5644 16.3691 18.1504V11.9297C16.3693 11.5156 16.705 11.1797 17.1191 11.1797ZM17.1191 5.09961C17.1471 5.09961 17.175 5.10054 17.2021 5.10352L17.2041 5.10449C17.2396 5.10848 17.2738 5.11721 17.3076 5.12598C17.3311 5.13208 17.354 5.13999 17.377 5.14844C17.3993 5.15665 17.4211 5.16555 17.4424 5.17578C17.4994 5.20318 17.555 5.23633 17.6055 5.2793C17.6162 5.28847 17.6256 5.29896 17.6357 5.30859C17.6421 5.31464 17.6491 5.3199 17.6553 5.32617C17.6809 5.35236 17.7026 5.38123 17.7236 5.41016C17.7402 5.43291 17.7546 5.45685 17.7686 5.48145C17.7776 5.4974 17.7871 5.51283 17.7949 5.5293C17.8074 5.55544 17.8168 5.58264 17.8262 5.61035C17.8329 5.63017 17.8397 5.64968 17.8447 5.66992C17.859 5.7277 17.8691 5.78742 17.8691 5.84961V8.76953C17.8691 9.18374 17.5334 9.51953 17.1191 9.51953C16.7051 9.51936 16.3691 9.18364 16.3691 8.76953V7.81445C13.8298 10.4185 10.6085 12.2725 7.06055 13.1572C6.65864 13.2574 6.25158 13.0132 6.15137 12.6113C6.05125 12.2096 6.29558 11.8025 6.69727 11.7021C10.0511 10.8659 13.0882 9.09233 15.457 6.59961H14.1895C13.7752 6.59961 13.4395 6.26382 13.4395 5.84961C13.4397 5.43556 13.7754 5.09961 14.1895 5.09961H17.1191Z" fill="#0033C9"/>
</svg>
