<svg width="24" height="24" viewBox="0 0 24 24" fill="none" xmlns="http://www.w3.org/2000/svg">
<path d="M5.25 17C5.25 16.5858 5.58579 16.25 6 16.25H12C12.4142 16.25 12.75 16.5858 12.75 17C12.75 17.4142 12.4142 17.75 12 17.75H6C5.58579 17.75 5.25 17.4142 5.25 17Z" fill="#0033C9"/>
<path d="M9.75 7C9.75 6.58579 9.41421 6.25 9 6.25C8.58579 6.25 8.25 6.58579 8.25 7V7.04004H8.16C7.06939 7.04004 6.25 7.96319 6.25 9.01004C6.25 9.4839 6.355 9.91442 6.63113 10.2645C6.89956 10.6048 7.25596 10.773 7.54961 10.877L9.94826 11.7165C10.1263 11.7813 10.1688 11.8271 10.1806 11.8422C10.1866 11.8498 10.24 11.9176 10.24 12.17C10.24 12.4632 10.0194 12.64 9.83 12.64H8.33C8.04946 12.64 7.75 12.382 7.75 11.99C7.75 11.5758 7.41421 11.24 7 11.24C6.58579 11.24 6.25 11.5758 6.25 11.99C6.25 13.112 7.11006 14.0944 8.25 14.1385V14.1799C8.25 14.5942 8.58579 14.9299 9 14.9299C9.41421 14.9299 9.75 14.5942 9.75 14.1799V14.14H9.83C10.9206 14.14 11.74 13.2169 11.74 12.17C11.74 11.696 11.6349 11.2671 11.3621 10.9181C11.0965 10.5784 10.7443 10.4093 10.4551 10.3047L8.04917 9.46264C7.86385 9.39687 7.82018 9.34991 7.80864 9.33529C7.80322 9.32851 7.75 9.262 7.75 9.01004C7.75 8.71689 7.97061 8.54004 8.16 8.54004H9.65386C9.96336 8.54646 10.25 8.81291 10.25 9.19004C10.25 9.60425 10.5858 9.94004 11 9.94004C11.4142 9.94004 11.75 9.60425 11.75 9.19004C11.75 8.05537 10.8803 7.10055 9.75 7.04269V7Z" fill="#0033C9"/>
<path fill-rule="evenodd" clip-rule="evenodd" d="M6 1.25C4.34646 1.25 3.11215 1.74912 2.30736 2.68106C1.52033 3.59244 1.25 4.79713 1.25 6V21C1.25 22.4434 2.89271 23.2744 4.05089 22.3993L4.05289 22.3978L5.76 21.12C5.85765 21.0468 6.00044 21.0516 6.09967 21.1503L7.75808 22.8187L7.75967 22.8203C8.44256 23.5032 9.55744 23.5032 10.2403 22.8203L11.9203 21.1403C12.0086 21.0521 12.1465 21.0482 12.2327 21.1145L13.9506 22.4004L13.9529 22.4022C15.1035 23.2564 16.75 22.4418 16.75 21V11.75H19.42C20.3706 11.75 21.2197 11.446 21.8328 10.8328C22.446 10.2197 22.75 9.37056 22.75 8.42V6C22.75 4.69125 22.214 3.50518 21.364 2.64334L21.3603 2.63967C20.5033 1.78264 19.3161 1.26186 18.0269 1.25003L18.02 1.25L18.0069 1.25003L18 1.25H6ZM16.75 4.01V10.25H19.42C20.0494 10.25 20.4903 10.054 20.7722 9.77217C21.054 9.4903 21.25 9.04943 21.25 8.42V6C21.25 5.10967 20.8867 4.29651 20.2979 3.69852C19.7158 3.11742 18.9052 2.75912 18.0168 2.75C17.3176 2.75174 16.75 3.32011 16.75 4.01ZM15.25 4C15.25 3.55044 15.3589 3.12542 15.5517 2.75H6C4.65354 2.75 3.88785 3.14588 3.44264 3.66144C2.97967 4.19756 2.75 4.99287 2.75 6V21C2.75 21.2157 2.98539 21.3247 3.14711 21.2022L3.15056 21.1996L4.86 19.92C5.56217 19.3934 6.53959 19.4689 7.16033 20.0897L7.16192 20.0913L8.82033 21.7597C8.91751 21.8563 9.08274 21.8566 9.17967 21.7597L10.8597 20.0797C11.4701 19.4693 12.4493 19.3922 13.1428 19.9221L14.8471 21.1978L14.8479 21.1984C15.0173 21.3232 15.25 21.1979 15.25 21V4Z" fill="#0033C9"/>
</svg>
