<svg width="24" height="24" viewBox="0 0 24 24" fill="none" xmlns="http://www.w3.org/2000/svg">
<path d="M7.06056 1.50173C6.91824 1.34161 6.71424 1.25 6.50001 1.25C6.28578 1.25 6.08178 1.34161 5.93945 1.50173L1.93945 6.00173C1.66426 6.31131 1.69215 6.78537 2.00174 7.06056C2.31132 7.33575 2.78538 7.30786 3.06056 6.99827L5.75001 3.97265V22C5.75001 22.4142 6.08579 22.75 6.50001 22.75C6.91422 22.75 7.25001 22.4142 7.25001 22V3.97265L9.93945 6.99827C10.2146 7.30786 10.6887 7.33575 10.9983 7.06056C11.3079 6.78537 11.3358 6.31131 11.0606 6.00173L7.06056 1.50173Z" fill="#0033C9"/>
<path d="M18.0606 22.4983C17.9182 22.6584 17.7142 22.75 17.5 22.75C17.2858 22.75 17.0818 22.6584 16.9395 22.4983L12.9395 17.9983C12.6643 17.6887 12.6921 17.2146 13.0017 16.9394C13.3113 16.6643 13.7854 16.6921 14.0606 17.0017L16.75 20.0274V2C16.75 1.58579 17.0858 1.25 17.5 1.25C17.9142 1.25 18.25 1.58579 18.25 2V20.0274L20.9395 17.0017C21.2146 16.6921 21.6887 16.6643 21.9983 16.9394C22.3079 17.2146 22.3358 17.6887 22.0606 17.9983L18.0606 22.4983Z" fill="#0033C9"/>
</svg>
