<svg width="24" height="24" viewBox="0 0 24 24" fill="none" xmlns="http://www.w3.org/2000/svg">
<path d="M3.49959 20.6898C0.763158 17.9534 0.763158 13.4946 3.49959 10.7582L4.70926 9.54854C5.00215 9.25564 5.47703 9.25564 5.76992 9.54854C6.06281 9.84143 6.06281 10.3163 5.76992 10.6092L4.56025 11.8189C2.4096 13.9695 2.4096 17.4785 4.56025 19.6291C6.70345 21.7723 10.2205 21.7792 12.3705 19.6291L13.5802 18.4195C13.8731 18.1266 14.348 18.1266 14.6408 18.4195C14.9337 18.7124 14.9337 19.1872 14.6408 19.4801L13.4312 20.6898C10.6941 23.4269 6.22733 23.4175 3.49959 20.6898Z" fill="#0033C9"/>
<path d="M9.54069 5.77838C9.24779 5.48549 9.24779 5.01061 9.54069 4.71772L10.7584 3.49998C13.4955 0.762928 17.9623 0.772244 20.69 3.49998C23.4271 6.23704 23.4178 10.7038 20.69 13.4316L19.4723 14.6493C19.1794 14.9422 18.7045 14.9422 18.4116 14.6493C18.1187 14.3564 18.1187 13.8815 18.4116 13.5886L19.6294 12.3709C21.7726 10.2277 21.7794 6.71066 19.6294 4.56064C17.4861 2.41744 13.9691 2.41063 11.8191 4.56064L10.6013 5.77838C10.3085 6.07127 9.83358 6.07127 9.54069 5.77838Z" fill="#0033C9"/>
<path d="M8.33951 14.7904C8.04662 15.0832 8.04662 15.5581 8.33951 15.851C8.63241 16.1439 9.10728 16.1439 9.40017 15.851L15.8518 9.39943C16.1447 9.10654 16.1447 8.63166 15.8518 8.33877C15.5589 8.04588 15.084 8.04588 14.7911 8.33877L8.33951 14.7904Z" fill="#0033C9"/>
</svg>
